<?xml version="1.0" encoding="UTF-8" standalone="no"?>
<!-- Created with Inkscape (http://www.inkscape.org/) -->
<svg id="svg4511" xmlns:rdf="http://www.w3.org/1999/02/22-rdf-syntax-ns#" xmlns="http://www.w3.org/2000/svg" height="48px" width="48px" version="1.1" xmlns:cc="http://creativecommons.org/ns#" xmlns:xlink="http://www.w3.org/1999/xlink" xmlns:dc="http://purl.org/dc/elements/1.1/">
 <defs id="defs4513">
  <filter id="filter3174" color-interpolation-filters="sRGB">
   <feGaussianBlur id="feGaussianBlur3176" stdDeviation="1.71"/>
  </filter>
  <linearGradient id="linearGradient3254" y2="7.0165" gradientUnits="userSpaceOnUse" x2="45.448" gradientTransform="matrix(1.0059 0 0 .99417 -175.86 -30.712)" y1="92.54" x1="45.448">
   <stop id="stop3750" offset="0"/>
   <stop id="stop3752" style="stop-opacity:.58824" offset="1"/>
  </linearGradient>
  <filter id="filter3174-7" color-interpolation-filters="sRGB">
   <feGaussianBlur id="feGaussianBlur3176-58" stdDeviation="1.71"/>
  </filter>
  <linearGradient id="linearGradient8374" y2="7.0165" gradientUnits="userSpaceOnUse" x2="45.448" gradientTransform="matrix(1.0059 0 0 .99417 108.29 -24.643)" y1="92.54" x1="45.448">
   <stop id="stop3750-50" offset="0"/>
   <stop id="stop3752-42" style="stop-opacity:.58824" offset="1"/>
  </linearGradient>
  <filter id="filter3174-41" color-interpolation-filters="sRGB">
   <feGaussianBlur id="feGaussianBlur3176-9" stdDeviation="1.71"/>
  </filter>
  <linearGradient id="ButtonShadow-6" x1="45.448" gradientUnits="userSpaceOnUse" y1="92.54" gradientTransform="scale(1.0059 .99417)" x2="45.448" y2="7.0165">
   <stop id="stop3750-9" offset="0"/>
   <stop id="stop3752-33" style="stop-opacity:.58824" offset="1"/>
  </linearGradient>
  <filter id="filter3174-57" color-interpolation-filters="sRGB">
   <feGaussianBlur id="feGaussianBlur3176-42" stdDeviation="1.71"/>
  </filter>
  <filter id="filter3174-76" color-interpolation-filters="sRGB">
   <feGaussianBlur id="feGaussianBlur3176-51" stdDeviation="1.71"/>
  </filter>
  <filter id="filter3174-3" color-interpolation-filters="sRGB">
   <feGaussianBlur id="feGaussianBlur3176-47" stdDeviation="1.71"/>
  </filter>
  <filter id="filter3174-65" color-interpolation-filters="sRGB">
   <feGaussianBlur id="feGaussianBlur3176-0" stdDeviation="1.71"/>
  </filter>
  <linearGradient id="linearGradient10848" y2="-23.714" gradientUnits="userSpaceOnUse" x2="46.689" y1="-23.714" x1="2">
   <stop id="stop4329" style="stop-color:#f0f0f0" offset="0"/>
   <stop id="stop4331" style="stop-color:#b4b4b4" offset="1"/>
  </linearGradient>
  <linearGradient id="linearGradient10968" y2="7.0165" gradientUnits="userSpaceOnUse" x2="45.448" gradientTransform="matrix(1.0059 0 0 .99417 88.061 -64.071)" y1="92.54" x1="45.448">
   <stop id="stop3750-53" offset="0"/>
   <stop id="stop3752-85" style="stop-opacity:.58824" offset="1"/>
  </linearGradient>
  <linearGradient id="linearGradient4327-0">
   <stop id="stop4329-1" style="stop-color:#f0f0f0" offset="0"/>
   <stop id="stop4331-2" style="stop-color:#b4b4b4" offset="1"/>
  </linearGradient>
  <linearGradient id="linearGradient11027" y2="-23.714" xlink:href="#linearGradient4327-0" gradientUnits="userSpaceOnUse" y1="-23.714" gradientTransform="translate(.084022 .11383)" x2="46.689" x1="2"/>
  <linearGradient id="linearGradient11061" y2="-23.714" gradientUnits="userSpaceOnUse" y1="-23.714" gradientTransform="translate(.037143 -2.7143)" x2="46.689" x1="2">
   <stop id="stop4629" style="stop-color:#de7b7b" offset="0"/>
   <stop id="stop4633" style="stop-color:#721b1b" offset="1"/>
  </linearGradient>
  <linearGradient id="linearGradient11086" y2="-24.286" gradientUnits="userSpaceOnUse" x2="46.327" gradientTransform="translate(.39955)" y1="-24.286" x1="1.5305">
   <stop id="stop3226" style="stop-color:#c88080" offset="0"/>
   <stop id="stop3228" style="stop-color:#6d2e2e" offset="1"/>
  </linearGradient>
  <linearGradient id="linearGradient11109" y2="-23.714" xlink:href="#linearGradient4327-0" gradientUnits="userSpaceOnUse" y1="-23.714" gradientTransform="translate(.35675 .62270)" x2="46.689" x1="2"/>
  <linearGradient id="linearGradient11134" y2="-21.458" xlink:href="#linearGradient4327-0" gradientUnits="userSpaceOnUse" x2="46.773" y1="-21.458" x1="1.9769"/>
  <linearGradient id="linearGradient11142" y2="-23.714" xlink:href="#linearGradient4327-0" gradientUnits="userSpaceOnUse" x2="46.689" y1="-23.714" x1="2"/>
  <linearGradient id="linearGradient11150" y2="-19.535" gradientUnits="userSpaceOnUse" x2="47.046" y1="-19.535" x1="2.7547">
   <stop id="stop3599" style="stop-color:#dcdcdc" offset="0"/>
   <stop id="stop3601" style="stop-color:#f5f5f5" offset="1"/>
  </linearGradient>
  <filter id="filter3174-34" color-interpolation-filters="sRGB">
   <feGaussianBlur id="feGaussianBlur3176-01" stdDeviation="1.71"/>
  </filter>
  <linearGradient id="linearGradient4603" y2="7.0165" gradientUnits="userSpaceOnUse" x2="45.448" gradientTransform="matrix(1.0059 0 0 .99417 -25.979 57.897)" y1="92.54" x1="45.448">
   <stop id="stop3750-96" offset="0"/>
   <stop id="stop3752-39" style="stop-opacity:.58824" offset="1"/>
  </linearGradient>
  <filter id="filter3174-2" color-interpolation-filters="sRGB">
   <feGaussianBlur id="feGaussianBlur3176-44" stdDeviation="1.71"/>
  </filter>
  <linearGradient id="linearGradient4702" y2="85.062" gradientUnits="userSpaceOnUse" x2="20.179" y1="85.062" x1="16">
   <stop id="stop3378" style="stop-color:#767676" offset="0"/>
   <stop id="stop3380" style="stop-color:#fdfdfd" offset="1"/>
  </linearGradient>
  <radialGradient id="radialGradient4704" gradientUnits="userSpaceOnUse" cy="85.062" cx="18.089" gradientTransform="matrix(1 0 0 1.0043 0 -.36352)" r="2.0893">
   <stop id="stop3368" style="stop-color:#c1ff97" offset="0"/>
   <stop id="stop3370" style="stop-color:#30c700" offset="1"/>
  </radialGradient>
  <linearGradient id="linearGradient4706" y2="88.011" gradientUnits="userSpaceOnUse" x2="67.071" gradientTransform="matrix(1 0 0 -1 -15.859 216.46)" y1="80" x1="67.071">
   <stop id="stop3739-88" style="stop-color:#fff" offset="0"/>
   <stop id="stop3741-16" style="stop-color:#fff;stop-opacity:0" offset="1"/>
  </linearGradient>
  <linearGradient id="linearGradient4708" y2="88.011" gradientUnits="userSpaceOnUse" x2="67.071" gradientTransform="translate(-15.859 48.458)" y1="80" x1="67.071">
   <stop id="stop4227" offset="0"/>
   <stop id="stop4229" style="stop-color:#484848" offset="1"/>
  </linearGradient>
  <filter id="filter4180-8" height="3.8298" width="1.2289" color-interpolation-filters="sRGB" y="-1.4149" x="-.11445">
   <feGaussianBlur id="feGaussianBlur4182-1" stdDeviation="3.5372897"/>
  </filter>
  <radialGradient id="radialGradient4138-7" cx="48" gradientUnits="userSpaceOnUse" cy="84" r="30" gradientTransform="matrix(1.0667 0 0 .066667 -3.2 77.4)">
   <stop id="stop3315-1" style="stop-color:#4dbeff" offset="0"/>
   <stop id="stop4186-5" style="stop-color:#1379ff;stop-opacity:.65041" offset=".67213"/>
   <stop id="stop3317-6" style="stop-color:#06f;stop-opacity:0" offset="1"/>
  </radialGradient>
  <filter id="filter3174-1" color-interpolation-filters="sRGB">
   <feGaussianBlur id="feGaussianBlur3176-512" stdDeviation="1.71"/>
  </filter>
  <filter id="filter4180-5" height="3.8298" width="1.2289" color-interpolation-filters="sRGB" y="-1.4149" x="-.11445">
   <feGaussianBlur id="feGaussianBlur4182-16" stdDeviation="3.5372897"/>
  </filter>
  <filter id="filter3174-10" color-interpolation-filters="sRGB">
   <feGaussianBlur id="feGaussianBlur3176-017" stdDeviation="1.71"/>
  </filter>
  <filter id="filter3174-93" color-interpolation-filters="sRGB">
   <feGaussianBlur id="feGaussianBlur3176-3" stdDeviation="1.71"/>
  </filter>
  <filter id="filter3548" height="1.2496" width="1.2311" color-interpolation-filters="sRGB" y="-.1248" x="-.11556">
   <feGaussianBlur id="feGaussianBlur3550" stdDeviation="2.6"/>
  </filter>
  <clipPath id="clipPath3532">
   <path id="path3534" d="m12-14c-3.324 0-6 2.676-6 6v58c0 3.324 2.676 6 6 6h72c3.324 0 6-2.676 6-6v-58c0-3.324-2.676-6-6-6h-72zm53.281 10 8.719 7.5625-10.938 9.3435-8.718-7.4685 10.937-9.4375zm-33.312 0.375 3.3438 2.8125-10 8.6562l-3.313-2.8749 9.969-8.5938zm6.656 5.6875 3.313 2.8437-9.969 8.5938-3.313-2.844 9.969-8.5935zm9.2188 7.3125c5.9007-0.000001 10.688 4.1339 10.688 9.2188-0.000002 5.0849-4.7861 9.1875-10.688 9.1875-5.9014-0.00059-10.688-4.1032-10.688-9.1875s4.7861-9.2188 10.688-9.2188zm0 4.0625c-3.3048-0.000002-6 2.3099-6 5.1562-0.000684 2.8481 2.6952 5.1562 6 5.1562 3.3062-0.000001 5.9688-2.3081 5.9688-5.1562-0.000002-2.8464-2.6626-5.1562-5.9688-5.1562zm-7.0625 18.406h14.125v4.0625h-14.125v-4.0625zm0 8.0938h14.125v4.0625h-14.125v-4.0625z" style="fill:#fff"/>
  </clipPath>
  <filter id="filter4180-7" height="3.8298" width="1.2289" color-interpolation-filters="sRGB" y="-1.4149" x="-.11445">
   <feGaussianBlur id="feGaussianBlur4182-6" stdDeviation="3.5372897"/>
  </filter>
  <filter id="filter3174-19" color-interpolation-filters="sRGB">
   <feGaussianBlur id="feGaussianBlur3176-19" stdDeviation="1.71"/>
  </filter>
  <linearGradient id="linearGradient8527" y2="66" gradientUnits="userSpaceOnUse" x2="16.92" gradientTransform="matrix(0 .70588 -.8125 0 101.62 4)" y1="66" x1="85">
   <stop id="stop3769-88" style="stop-color:#4d4d4d;stop-opacity:.70732" offset="0"/>
   <stop id="stop3771-10" style="stop-color:#4d4d4d;stop-opacity:.25203" offset="1"/>
  </linearGradient>
 </defs>
 <metadata id="metadata4516">
  <rdf:RDF>
   <cc:Work rdf:about="">
    <dc:format>image/svg+xml</dc:format>
    <dc:type rdf:resource="http://purl.org/dc/dcmitype/StillImage"/>
    <dc:title/>
   </cc:Work>
  </rdf:RDF>
 </metadata>
 <g id="layer1">
  <rect id="rect810-9" style="opacity:.52991;stroke:#000;fill:#333" transform="scale(1,-1)" ry="10.607" height="43.689" width="43.689" y="-46.112" x="2.5506"/>
  <rect id="rect810" style="stroke:url(#linearGradient11142);fill:url(#linearGradient10848)" transform="scale(1,-1)" ry="10.607" height="43.689" width="43.689" y="-45.559" x="2.5"/>
  <rect id="rect3745" style="opacity:.9;filter:url(#filter3174);display:none;fill:url(#linearGradient3254)" rx="6" ry="6" height="85" width="86" y="-23.712" x="-170.86"/>
  <rect id="rect3745-1" style="opacity:.9;filter:url(#filter3174-7);display:none;fill:url(#linearGradient8374)" rx="6" ry="6" height="85" width="86" y="-17.643" x="113.29"/>
  <g id="layer2" style="display:none" transform="translate(-111.44 -124.36)">
   <rect id="rect3745-9" style="opacity:.9;filter:url(#filter3174-41);fill:url(#ButtonShadow-6)" rx="6" ry="6" height="85" width="86" y="7" x="5"/>
  </g>
  <g id="layer2-7" style="display:none" transform="translate(-218.05 -238.16)">
   <rect id="rect3745-2" style="opacity:.9;filter:url(#filter3174-57);fill:url(#ButtonShadow-6)" rx="6" ry="6" height="85" width="86" y="7" x="5"/>
  </g>
  <g id="layer2-1" style="display:none" transform="translate(-106.2 -48.076)">
   <path id="rect3745-24" style="opacity:.9;filter:url(#filter3174-76);fill:url(#ButtonShadow-6)" d="m11 7c-3.324 0-6 2.676-6 6v73c0 3.324 2.676 6 6 6h74c3.324 0 6-2.676 6-6v-73c0-3.324-2.676-6-6-6h-5v2.5c1.4703 0.7406 2.5 2.2424 2.5 4 0 2.484-2.016 4.5-4.5 4.5s-4.5-2.016-4.5-4.5c0-1.7576 1.0297-3.2594 2.5-4v-2.5h-8v2.5c1.4703 0.7406 2.5 2.2424 2.5 4 0 2.484-2.016 4.5-4.5 4.5s-4.5-2.016-4.5-4.5c0-1.7576 1.0297-3.2594 2.5-4v-2.5h-8v2.5c1.4703 0.7406 2.5 2.2424 2.5 4 0 2.484-2.016 4.5-4.5 4.5s-4.5-2.016-4.5-4.5c0-1.7576 1.0297-3.2594 2.5-4v-2.5h-8v2.5c1.4703 0.7406 2.5 2.2424 2.5 4 0 2.484-2.016 4.5-4.5 4.5s-4.5-2.016-4.5-4.5c0-1.7576 1.0297-3.2594 2.5-4v-2.5h-8v2.5c1.4703 0.7406 2.5 2.2424 2.5 4 0 2.484-2.016 4.5-4.5 4.5s-4.5-2.016-4.5-4.5c0-1.7576 1.0297-3.2594 2.5-4v-2.5h-8v2.5c1.4703 0.7406 2.5 2.2424 2.5 4 0 2.484-2.016 4.5-4.5 4.5s-4.5-2.016-4.5-4.5c0-1.7576 1.0297-3.2594 2.5-4v-2.5h-5z"/>
  </g>
  <g id="layer2-0" style="display:none" transform="translate(28.835 -121.51)">
   <rect id="rect3745-5" style="opacity:.9;filter:url(#filter3174-3);fill:url(#ButtonShadow-6)" rx="6" ry="6" height="85" width="86" y="7" x="5"/>
  </g>
  <rect id="rect3745-19" style="opacity:.9;filter:url(#filter3174-65);display:none;fill:url(#linearGradient10968)" rx="6" ry="6" height="85" width="86" y="-57.071" x="93.061"/>
  <rect id="rect810-4-0" style="stroke:url(#linearGradient11086);fill:url(#linearGradient11061)" transform="scale(1,-1)" ry="10.607" height="39.403" width="43.796" y="-43.987" x="2.43"/>
  <rect id="rect810-4" style="stroke:url(#linearGradient11134);fill:url(#linearGradient11027)" transform="scale(1,-1)" ry="10.607" height="39.403" width="43.796" y="-41.159" x="2.4769"/>
  <rect id="rect810-4-8" style="stroke:url(#linearGradient11150);fill:url(#linearGradient11109)" transform="scale(1,-1)" ry="10.607" height="36.373" width="44.099" y="-37.62" x="2.4466"/>
  <rect id="rect3745-51" style="opacity:.9;filter:url(#filter3174-34);display:none;fill:url(#linearGradient4603)" rx="6" ry="6" height="85" width="86" y="64.897" x="-20.979"/>
  <g id="layer2-3" style="display:none" transform="translate(-13.859 48.458)">
   <rect id="rect3745-7" style="opacity:.9;filter:url(#filter3174-2);fill:url(#ButtonShadow-6)" rx="6" ry="6" height="85" width="86" y="7" x="5"/>
  </g>
  <g id="g4674" transform="matrix(.25 0 0 .25 15.095 6.9188)">
   <g id="g3318" transform="translate(-13.859 48.458)">
    <path id="path3374" style="fill:url(#linearGradient4702)" transform="matrix(0 1.6709 1.6638 0 -122.04 53.283)" d="m20.179 85.062a2.0893 2.0982 0 1 1 -4.1786 0 2.0893 2.0982 0 1 1 4.1786 0z"/>
    <path id="path3364" style="stroke-opacity:.53182;stroke:#000;stroke-linecap:square;stroke-width:.84050;fill:url(#radialGradient4704)" transform="matrix(1.1923 0 0 1.1872 -2.0769 -17.48)" d="m20.179 85.062a2.0893 2.0982 0 1 1 -4.1786 0 2.0893 2.0982 0 1 1 4.1786 0z"/>
   </g>
   <path id="path4237" style="fill:url(#linearGradient4706)" d="m41.141 136.96c-0.81756 0-1.5-0.68244-1.5-1.5v-6c0-0.81756 0.68244-1.5 1.5-1.5s1.5 0.68244 1.5 1.5v6c0 0.81756-0.68244 1.5-1.5 1.5zm4 0c-0.81756 0-1.5-0.68244-1.5-1.5v-6c0-0.81756 0.68244-1.5 1.5-1.5s1.5 0.68244 1.5 1.5v6c0 0.81756-0.68244 1.5-1.5 1.5zm4 0c-0.81756 0-1.5-0.68244-1.5-1.5v-6c0-0.81756 0.68244-1.5 1.5-1.5s1.5 0.68244 1.5 1.5v6c0 0.81756-0.68244 1.5-1.5 1.5zm4 0c-0.81756 0-1.5-0.68244-1.5-1.5v-6c0-0.81756 0.68244-1.5 1.5-1.5s1.5 0.68244 1.5 1.5v6c0 0.81756-0.68244 1.5-1.5 1.5zm4 0c-0.81756 0-1.5-0.68244-1.5-1.5v-6c0-0.81756 0.68244-1.5 1.5-1.5s1.5 0.68244 1.5 1.5v6c0 0.81756-0.68244 1.5-1.5 1.5zm4 0c-0.81756 0-1.5-0.68244-1.5-1.5v-6c0-0.81756 0.68244-1.5 1.5-1.5s1.5 0.68244 1.5 1.5v6c0 0.81756-0.68244 1.5-1.5 1.5zm4 0c-0.81756 0-1.5-0.68244-1.5-1.5v-6c0-0.81756 0.68244-1.5 1.5-1.5s1.5 0.68244 1.5 1.5v6c0 0.81756-0.68244 1.5-1.5 1.5z"/>
   <path id="rect4210" style="fill:url(#linearGradient4708)" d="m41.141 128.46c-0.554 0-1 0.446-1 1v6c0 0.554 0.446 1 1 1s1-0.446 1-1v-6c0-0.554-0.446-1-1-1zm4 0c-0.554 0-1 0.446-1 1v6c0 0.554 0.446 1 1 1s1-0.446 1-1v-6c0-0.554-0.446-1-1-1zm4 0c-0.554 0-1 0.446-1 1v6c0 0.554 0.446 1 1 1s1-0.446 1-1v-6c0-0.554-0.446-1-1-1zm4 0c-0.554 0-1 0.446-1 1v6c0 0.554 0.446 1 1 1s1-0.446 1-1v-6c0-0.554-0.446-1-1-1zm4 0c-0.554 0-1 0.446-1 1v6c0 0.554 0.446 1 1 1s1-0.446 1-1v-6c0-0.554-0.446-1-1-1zm4 0c-0.554 0-1 0.446-1 1v6c0 0.554 0.446 1 1 1s1-0.446 1-1v-6c0-0.554-0.446-1-1-1zm4 0c-0.554 0-1 0.446-1 1v6c0 0.554 0.446 1 1 1s1-0.446 1-1v-6c0-0.554-0.446-1-1-1z"/>
  </g>
  <g id="layer2-75" style="display:none" transform="translate(-10.286 84.214)">
   <rect id="rect3745-20" style="opacity:.9;filter:url(#filter3174-1);fill:url(#ButtonShadow-6)" rx="6" ry="6" height="85" width="86" y="7" x="5"/>
  </g>
  <g id="layer5-3" style="display:none" transform="translate(-10.286 84.214)">
   <rect id="rect3323" style="opacity:.6;filter:url(#filter4180-8);display:inline;fill:#06f" rx="6.7435" ry="6" height="6" width="74.179" y="80" x="10.911"/>
   <rect id="rect3311" style="fill:url(#radialGradient4138-7);display:inline" rx="5.8182" ry="4" height="4" width="64" y="81" x="16"/>
  </g>
  <g id="layer2-37" style="display:none" transform="translate(22.857 122.64)">
   <rect id="rect3745-6" style="opacity:.9;filter:url(#filter3174-10);fill:url(#ButtonShadow-6)" rx="6" ry="6" height="85" width="86" y="7" x="5"/>
  </g>
  <g id="layer5-2" style="display:none" transform="translate(22.857 122.64)">
   <rect id="rect3323-7" style="opacity:.6;filter:url(#filter4180-5);display:inline;fill:#06f" rx="6.7435" ry="6" height="6" width="74.179" y="80" x="10.911"/>
   <rect id="rect3311-0" style="fill:url(#radialGradient4138-7);display:inline" rx="5.8182" ry="4" height="4" width="64" y="81" x="16"/>
  </g>
  <g id="layer2-17" style="display:none" transform="translate(15.342 112.14)">
   <rect id="rect3745-4" style="opacity:.9;filter:url(#filter3174-93);fill:url(#ButtonShadow-6)" rx="6" ry="6" height="85" width="86" y="7" x="5"/>
  </g>
  <g id="layer2-19" style="display:none" transform="translate(119.69 80.928)">
   <rect id="rect3745-72" style="opacity:.9;filter:url(#filter3174-19);fill:url(#ButtonShadow-6)" rx="6" ry="6" height="85" width="86" y="7" x="5"/>
  </g>
  <g id="layer5-4" style="display:none" transform="translate(119.69 80.928)">
   <rect id="rect3323-5" style="opacity:.6;filter:url(#filter4180-7);display:inline;fill:#06f" rx="6.7435" ry="6" height="6" width="74.179" y="80" x="10.911"/>
   <rect id="rect3311-1" style="fill:url(#radialGradient4138-7);display:inline" rx="5.8182" ry="4" height="4" width="64" y="81" x="16"/>
  </g>
  <g id="layer4-6" transform="matrix(.5 0 0 .5 -.96852 -1.299)">
   <path id="path2582" style="fill:url(#linearGradient8527)" d="m37.156 38.587c0-5.0843 4.7842-9.2072 10.686-9.2072 5.9007 0 10.685 4.1223 10.685 9.2072s-4.7836 9.209-10.685 9.209c-5.9014-0.000589-10.686-4.1247-10.686-9.209m10.686 5.1569c3.3062 0 5.9822-2.3087 5.9822-5.1569 0-2.8464-2.676-5.1575-5.9822-5.1575-3.3048 0-5.9829 2.3111-5.9829 5.1575-0.000685 2.8481 2.6781 5.1569 5.9829 5.1569zm-7.0541 8.1024h14.103v4.0497h-14.103v-4.0497zm0 8.1h14.103v4.0533h-14.103v-4.0533zm-12.14-29.302 3.3253 2.8676 9.9747-8.5952-3.3247-2.867-9.9753 8.5946m-6.648-5.682 3.323 2.867 9.976-8.644-3.326-2.818-9.973 8.595m43.29-8.963-10.952 9.436 8.71 7.458 10.952-9.342-8.71-7.552"/>
   <path id="path3512" style="opacity:.4" d="m65.281 16-10.938 9.4375 0.59375 0.5l10.344-8.938 8.125 7.062 0.594-0.5-8.719-7.562zm-33.312 0.375-9.969 8.594l0.5625 0.5 9.4062-8.0938 2.75 2.3125 0.59375-0.5-3.3438-2.8125zm6.6562 5.6875-9.9688 8.5938 0.59375 0.5 9.375-8.0938 2.7188 2.3438 0.59375-0.5-3.3125-2.8438zm9.2188 7.3125c-5.9014 0-10.688 4.1345-10.688 9.2188 0 0.16943 0.02076 0.33282 0.03125 0.5 0.3043-4.8495 4.9515-8.7188 10.656-8.7188 5.7041-0.000001 10.352 3.8687 10.656 8.7188 0.01049-0.1672 0.03125-0.33055 0.03125-0.5 0-5.0849-4.7868-9.2188-10.688-9.2188zm-5.9688 9.75c-0.01596 0.15348-0.03125 0.31171-0.03125 0.46875-0.000684 2.8481 2.6952 5.1562 6 5.1562 3.3062-0.000001 5.9688-2.3081 5.9688-5.1562 0-0.15704-0.0153-0.31527-0.03125-0.46875-0.3061 2.6004-2.838 4.625-5.9375 4.625-3.0982 0-5.6629-2.0246-5.9688-4.625zm-1.0938 12.719v1h14.125v-1h-14.125zm0 8.0938v1h14.125v-1h-14.125z"/>
   <path id="path3521" style="opacity:.8;filter:url(#filter3548);stroke:#fff;stroke-width:2;fill:none" d="m37.156 18.587c0-5.0843 4.7842-9.2072 10.686-9.2072 5.9007 0 10.685 4.1223 10.685 9.2072s-4.7836 9.209-10.685 9.209c-5.9014-0.000589-10.686-4.1247-10.686-9.209m10.686 5.1569c3.3062 0 5.9822-2.3087 5.9822-5.1569 0-2.8464-2.676-5.1575-5.9822-5.1575-3.3048 0-5.9829 2.3111-5.9829 5.1575-0.000685 2.8481 2.6781 5.1569 5.9829 5.1569zm-7.0541 8.1024h14.103v4.0497h-14.103v-4.0497zm0 8.1h14.103v4.0533h-14.103v-4.0533zm-12.14-29.302 3.3253 2.8676 9.9747-8.5952-3.3247-2.867-9.9753 8.5946m-6.648-5.6811 3.323 2.867 9.976-8.6436-3.326-2.8186-9.973 8.5952m43.29-8.9629-10.952 9.4362 8.71 7.4578 10.952-9.3416-8.71-7.5524" clip-path="url(#clipPath3532)" transform="translate(0,20)"/>
  </g>
 </g>
</svg>
