<?xml version="1.0" encoding="UTF-8" standalone="no"?>
<!-- Created with Inkscape (http://www.inkscape.org/) -->
<svg id="svg4511" xmlns:rdf="http://www.w3.org/1999/02/22-rdf-syntax-ns#" xmlns="http://www.w3.org/2000/svg" height="48px" width="48px" version="1.1" xmlns:cc="http://creativecommons.org/ns#" xmlns:xlink="http://www.w3.org/1999/xlink" xmlns:dc="http://purl.org/dc/elements/1.1/">
 <defs id="defs4513">
  <filter id="filter3174" color-interpolation-filters="sRGB">
   <feGaussianBlur id="feGaussianBlur3176" stdDeviation="1.71"/>
  </filter>
  <linearGradient id="linearGradient3254" y2="7.0165" gradientUnits="userSpaceOnUse" x2="45.448" gradientTransform="matrix(1.0059 0 0 .99417 -175.86 -30.712)" y1="92.54" x1="45.448">
   <stop id="stop3750" offset="0"/>
   <stop id="stop3752" style="stop-opacity:.58824" offset="1"/>
  </linearGradient>
  <filter id="filter3174-7" color-interpolation-filters="sRGB">
   <feGaussianBlur id="feGaussianBlur3176-58" stdDeviation="1.71"/>
  </filter>
  <linearGradient id="linearGradient8374" y2="7.0165" gradientUnits="userSpaceOnUse" x2="45.448" gradientTransform="matrix(1.0059 0 0 .99417 108.29 -24.643)" y1="92.54" x1="45.448">
   <stop id="stop3750-50" offset="0"/>
   <stop id="stop3752-42" style="stop-opacity:.58824" offset="1"/>
  </linearGradient>
  <filter id="filter3174-41" color-interpolation-filters="sRGB">
   <feGaussianBlur id="feGaussianBlur3176-9" stdDeviation="1.71"/>
  </filter>
  <linearGradient id="ButtonShadow-6" x1="45.448" gradientUnits="userSpaceOnUse" y1="92.54" gradientTransform="scale(1.0059 .99417)" x2="45.448" y2="7.0165">
   <stop id="stop3750-9" offset="0"/>
   <stop id="stop3752-33" style="stop-opacity:.58824" offset="1"/>
  </linearGradient>
  <filter id="filter3174-57" color-interpolation-filters="sRGB">
   <feGaussianBlur id="feGaussianBlur3176-42" stdDeviation="1.71"/>
  </filter>
  <filter id="filter3174-76" color-interpolation-filters="sRGB">
   <feGaussianBlur id="feGaussianBlur3176-51" stdDeviation="1.71"/>
  </filter>
  <filter id="filter3174-3" color-interpolation-filters="sRGB">
   <feGaussianBlur id="feGaussianBlur3176-47" stdDeviation="1.71"/>
  </filter>
  <filter id="filter3174-65" color-interpolation-filters="sRGB">
   <feGaussianBlur id="feGaussianBlur3176-0" stdDeviation="1.71"/>
  </filter>
  <linearGradient id="linearGradient10968" y2="7.0165" gradientUnits="userSpaceOnUse" x2="45.448" gradientTransform="matrix(1.0059 0 0 .99417 88.061 -64.071)" y1="92.54" x1="45.448">
   <stop id="stop3750-53" offset="0"/>
   <stop id="stop3752-85" style="stop-opacity:.58824" offset="1"/>
  </linearGradient>
  <filter id="filter3174-34" color-interpolation-filters="sRGB">
   <feGaussianBlur id="feGaussianBlur3176-01" stdDeviation="1.71"/>
  </filter>
  <linearGradient id="linearGradient4603" y2="7.0165" gradientUnits="userSpaceOnUse" x2="45.448" gradientTransform="matrix(1.0059 0 0 .99417 -25.979 57.897)" y1="92.54" x1="45.448">
   <stop id="stop3750-96" offset="0"/>
   <stop id="stop3752-39" style="stop-opacity:.58824" offset="1"/>
  </linearGradient>
  <filter id="filter3174-2" color-interpolation-filters="sRGB">
   <feGaussianBlur id="feGaussianBlur3176-44" stdDeviation="1.71"/>
  </filter>
  <filter id="filter4180-8" height="3.8298" width="1.2289" color-interpolation-filters="sRGB" y="-1.4149" x="-.11445">
   <feGaussianBlur id="feGaussianBlur4182-1" stdDeviation="3.5372897"/>
  </filter>
  <radialGradient id="radialGradient4138-7" cx="48" gradientUnits="userSpaceOnUse" cy="84" r="30" gradientTransform="matrix(1.0667 0 0 .066667 -3.2 77.4)">
   <stop id="stop3315-1" style="stop-color:#4dbeff" offset="0"/>
   <stop id="stop4186-5" style="stop-color:#1379ff;stop-opacity:.65041" offset=".67213"/>
   <stop id="stop3317-6" style="stop-color:#06f;stop-opacity:0" offset="1"/>
  </radialGradient>
  <filter id="filter3174-1" color-interpolation-filters="sRGB">
   <feGaussianBlur id="feGaussianBlur3176-512" stdDeviation="1.71"/>
  </filter>
  <filter id="filter4180-5" height="3.8298" width="1.2289" color-interpolation-filters="sRGB" y="-1.4149" x="-.11445">
   <feGaussianBlur id="feGaussianBlur4182-16" stdDeviation="3.5372897"/>
  </filter>
  <filter id="filter3174-10" color-interpolation-filters="sRGB">
   <feGaussianBlur id="feGaussianBlur3176-017" stdDeviation="1.71"/>
  </filter>
  <filter id="filter3174-93" color-interpolation-filters="sRGB">
   <feGaussianBlur id="feGaussianBlur3176-3" stdDeviation="1.71"/>
  </filter>
  <filter id="filter4180-7" height="3.8298" width="1.2289" color-interpolation-filters="sRGB" y="-1.4149" x="-.11445">
   <feGaussianBlur id="feGaussianBlur4182-6" stdDeviation="3.5372897"/>
  </filter>
  <filter id="filter3174-19" color-interpolation-filters="sRGB">
   <feGaussianBlur id="feGaussianBlur3176-19" stdDeviation="1.71"/>
  </filter>
  <linearGradient id="linearGradient3908" x1="5" gradientUnits="userSpaceOnUse" y1="64" gradientTransform="matrix(-.52730 .52730 -.52730 -.52730 123.49 79)" x2="123" y2="64">
   <stop id="stop3249" style="stop-color:#fff;stop-opacity:0" offset="0"/>
   <stop id="stop3255" style="stop-color:#ffdc4f;stop-opacity:0" offset="0.3"/>
   <stop id="stop3295" style="stop-color:#f685af;stop-opacity:.43922" offset=".5"/>
   <stop id="stop3257" style="stop-color:#ffdc4f;stop-opacity:0" offset="0.7"/>
   <stop id="stop3253" style="stop-color:#fff;stop-opacity:0" offset="1"/>
  </linearGradient>
  <filter id="filter3174-31" color-interpolation-filters="sRGB">
   <feGaussianBlur id="feGaussianBlur3176-76" stdDeviation="1.71"/>
  </filter>
  <linearGradient id="linearGradient13399" x1="69.649" xlink:href="#ButtonShadow-6" gradientUnits="userSpaceOnUse" y1="89.131" gradientTransform="matrix(1.8663 0 0 2.2236 160.55 -78.137)" x2="69.016" y2="34.714"/>
  <filter id="filter3222" color-interpolation-filters="sRGB">
   <feGaussianBlur id="feGaussianBlur3224" stdDeviation="1.27575"/>
  </filter>
  <radialGradient id="radialGradient2924" cx="59.894" gradientUnits="userSpaceOnUse" cy="61.922" r="33.714" gradientTransform="matrix(1 0 0 .83754 0 10.06)">
   <stop id="stop3344" style="stop-opacity:0" offset="0"/>
   <stop id="stop3350" style="stop-opacity:0" offset="0.85"/>
   <stop id="stop2810" style="stop-opacity:.65625" offset="1"/>
  </radialGradient>
  <linearGradient id="linearGradient2926" x1="26.18" gradientUnits="userSpaceOnUse" y1="61.922" x2="93.608" y2="61.922">
   <stop id="stop3332" style="stop-color:#fff;stop-opacity:.20312" offset="0"/>
   <stop id="stop3334" style="stop-color:#fff;stop-opacity:.67969" offset="1"/>
  </linearGradient>
  <linearGradient id="linearGradient2928" x1="25.22" gradientUnits="userSpaceOnUse" y1="61.922" x2="94.568" y2="61.922">
   <stop id="stop3364" style="stop-color:#4d4d4d" offset="0"/>
   <stop id="stop3366" style="stop-color:#fff" offset="1"/>
  </linearGradient>
  <linearGradient id="linearGradient13393" x1="73.016" gradientUnits="userSpaceOnUse" y1="89.131" gradientTransform="matrix(1.3461 0 0 1.617 -24.621 -21.393)" x2="73.016" y2="34.607">
   <stop id="stop2788" style="stop-color:#d5aed1" offset="0"/>
   <stop id="stop2790" style="stop-color:#f9ecd2" offset="1"/>
  </linearGradient>
  <linearGradient id="linearGradient13390" x1="5" gradientUnits="userSpaceOnUse" y1="64" gradientTransform="matrix(.52730 .52730 -.52730 .52730 56 11.506)" x2="123" y2="64">
   <stop id="stop3235" style="stop-color:#fff;stop-opacity:0" offset="0"/>
   <stop id="stop3297" style="stop-color:#fff;stop-opacity:0" offset="0.3"/>
   <stop id="stop3241" style="stop-color:#fff" offset=".5"/>
   <stop id="stop3299" style="stop-color:#fff;stop-opacity:0" offset="0.7"/>
   <stop id="stop3237" style="stop-color:#fff;stop-opacity:0" offset="1"/>
  </linearGradient>
  <linearGradient id="linearGradient13387" x1="5" xlink:href="#linearGradient3265" gradientUnits="userSpaceOnUse" y1="64" gradientTransform="matrix(-.38603 .63801 -.63801 -.38603 121.54 62.873)" x2="123" y2="64"/>
  <linearGradient id="linearGradient3265">
   <stop id="stop3267" style="stop-color:#fff;stop-opacity:0" offset="0"/>
   <stop id="stop3269" style="stop-color:#add8e4;stop-opacity:0" offset="0.35"/>
   <stop id="stop3271" style="stop-color:#a3d2e0;stop-opacity:.45098" offset=".5"/>
   <stop id="stop3273" style="stop-color:#add8e4;stop-opacity:0" offset="0.65"/>
   <stop id="stop3882" style="stop-color:#fff;stop-opacity:0" offset="1"/>
  </linearGradient>
  <linearGradient id="linearGradient13384" x1="5" xlink:href="#linearGradient3265" gradientUnits="userSpaceOnUse" y1="64" gradientTransform="matrix(-.65332 .35952 -.35952 -.65332 120.82 97.803)" x2="123" y2="64"/>
  <linearGradient id="linearGradient13921" x1="50.875" gradientUnits="userSpaceOnUse" y1="34.75" x2="50.875" y2="79.819">
   <stop id="stop13372" style="stop-color:#fff" offset="0"/>
   <stop id="stop13374" style="stop-color:#fff;stop-opacity:0" offset="1"/>
  </linearGradient>
  <linearGradient id="linearGradient12520" y2="7.0165" xlink:href="#ButtonShadow-6" gradientUnits="userSpaceOnUse" x2="45.448" gradientTransform="scale(1.0059 .99417)" y1="92.54" x1="45.448"/>
  <filter id="filter3174-71" color-interpolation-filters="sRGB">
   <feGaussianBlur id="feGaussianBlur3176-2" stdDeviation="1.71"/>
  </filter>
  <linearGradient id="linearGradient6388" y2="61" xlink:href="#linearGradient4236-5" gradientUnits="userSpaceOnUse" y1="68" gradientTransform="matrix(.25 0 0 .5 23.635 -5.3571)" x2="33" x1="33"/>
  <linearGradient id="linearGradient6386" y2="61" xlink:href="#linearGradient4236-5" gradientUnits="userSpaceOnUse" y1="68" gradientTransform="matrix(.25 0 0 .5 21.635 -5.3571)" x2="33" x1="33"/>
  <linearGradient id="linearGradient6384" y2="61" xlink:href="#linearGradient4236-5" gradientUnits="userSpaceOnUse" y1="68" gradientTransform="matrix(.25 0 0 .5 19.635 -5.3571)" x2="33" x1="33"/>
  <linearGradient id="linearGradient6382" y2="61" xlink:href="#linearGradient4236-5" gradientUnits="userSpaceOnUse" y1="68" gradientTransform="matrix(.25 0 0 .5 17.635 -5.3571)" x2="33" x1="33"/>
  <linearGradient id="linearGradient6379" y2="61" xlink:href="#linearGradient4236-5" gradientUnits="userSpaceOnUse" y1="68" gradientTransform="matrix(.25 0 0 .5 15.635 -5.3571)" x2="33" x1="33"/>
  <linearGradient id="linearGradient6377" y2="61" xlink:href="#linearGradient4236-5" gradientUnits="userSpaceOnUse" y1="68" gradientTransform="matrix(.25 0 0 .5 13.635 -5.3571)" x2="33" x1="33"/>
  <linearGradient id="linearGradient6375" y2="61" xlink:href="#linearGradient4236-5" gradientUnits="userSpaceOnUse" y1="68" gradientTransform="matrix(.25 0 0 .5 11.635 -5.3571)" x2="33" x1="33"/>
  <linearGradient id="linearGradient6373" y2="61" xlink:href="#linearGradient4236-5" gradientUnits="userSpaceOnUse" y1="68" gradientTransform="matrix(.25 0 0 .5 9.635 -5.3571)" x2="33" x1="33"/>
  <radialGradient id="radialGradient6370" gradientUnits="userSpaceOnUse" xlink:href="#linearGradient4192-5" cx="48" cy="70" r="16" gradientTransform="matrix(.59375 0 0 .28125 -3.865 8.1429)"/>
  <linearGradient id="linearGradient6368" y2="24" xlink:href="#linearGradient4192-5" gradientUnits="userSpaceOnUse" y1="72" gradientTransform="matrix(.5 0 0 .5 .63505 -5.3571)" x2="48" x1="48"/>
  <linearGradient id="linearGradient6366" y2="72" gradientUnits="userSpaceOnUse" y1="24" gradientTransform="matrix(.5 0 0 .5 .63505 -5.3571)" x2="48" x1="48">
   <stop id="stop4178-3" offset="0"/>
   <stop id="stop4180-5" style="stop-color:#393939" offset="1"/>
  </linearGradient>
  <linearGradient id="linearGradient6364" y2="32.988" xlink:href="#linearGradient4192-5" gradientUnits="userSpaceOnUse" y1="74" gradientTransform="matrix(.5 0 0 .5 .63505 -5.3571)" x2="53" x1="53"/>
  <linearGradient id="linearGradient4236-5">
   <stop id="stop4238-6" style="stop-color:#ffdf39" offset="0"/>
   <stop id="stop4240-4" style="stop-color:#eb9c00;stop-opacity:0" offset="1"/>
  </linearGradient>
  <linearGradient id="linearGradient4192-5">
   <stop id="stop4194-1" style="stop-color:#fff" offset="0"/>
   <stop id="stop4196-4" style="stop-color:#fff;stop-opacity:0" offset="1"/>
  </linearGradient>
  <filter id="filter3174-93-9" color-interpolation-filters="sRGB">
   <feGaussianBlur id="feGaussianBlur3176-3-4" stdDeviation="1.71"/>
  </filter>
  <filter id="filter3174-10-6" color-interpolation-filters="sRGB">
   <feGaussianBlur id="feGaussianBlur3176-017-1" stdDeviation="1.71"/>
  </filter>
  <filter id="filter4180-5-6" height="3.8298" width="1.2289" color-interpolation-filters="sRGB" y="-1.4149" x="-.11445">
   <feGaussianBlur id="feGaussianBlur4182-16-8" stdDeviation="3.5372897"/>
  </filter>
  <filter id="filter3174-1-9" color-interpolation-filters="sRGB">
   <feGaussianBlur id="feGaussianBlur3176-512-3" stdDeviation="1.71"/>
  </filter>
  <filter id="filter4180-8-0" height="3.8298" width="1.2289" color-interpolation-filters="sRGB" y="-1.4149" x="-.11445">
   <feGaussianBlur id="feGaussianBlur4182-1-9" stdDeviation="3.5372897"/>
  </filter>
  <linearGradient id="linearGradient4708-7" y2="88.011" gradientUnits="userSpaceOnUse" y1="80" gradientTransform="translate(-15.859 48.458)" x2="67.071" x1="67.071">
   <stop id="stop4227-5" offset="0"/>
   <stop id="stop4229-0" style="stop-color:#484848" offset="1"/>
  </linearGradient>
  <linearGradient id="linearGradient4706-3" y2="88.011" gradientUnits="userSpaceOnUse" y1="80" gradientTransform="matrix(1 0 0 -1 -15.859 216.46)" x2="67.071" x1="67.071">
   <stop id="stop3739-88-0" style="stop-color:#fff" offset="0"/>
   <stop id="stop3741-16-6" style="stop-color:#fff;stop-opacity:0" offset="1"/>
  </linearGradient>
  <radialGradient id="radialGradient4704-4" gradientUnits="userSpaceOnUse" cx="18.089" cy="85.062" r="2.0893" gradientTransform="matrix(1 0 0 1.0043 0 -.36352)">
   <stop id="stop3368-6" style="stop-color:#c1ff97" offset="0"/>
   <stop id="stop3370-3" style="stop-color:#30c700" offset="1"/>
  </radialGradient>
  <linearGradient id="linearGradient4702-4" y2="85.062" gradientUnits="userSpaceOnUse" y1="85.062" x2="20.179" x1="16">
   <stop id="stop3378-7" style="stop-color:#767676" offset="0"/>
   <stop id="stop3380-8" style="stop-color:#fdfdfd" offset="1"/>
  </linearGradient>
  <filter id="filter3174-2-2" color-interpolation-filters="sRGB">
   <feGaussianBlur id="feGaussianBlur3176-44-8" stdDeviation="1.71"/>
  </filter>
  <filter id="filter3174-34-2" color-interpolation-filters="sRGB">
   <feGaussianBlur id="feGaussianBlur3176-01-7" stdDeviation="1.71"/>
  </filter>
  <linearGradient id="linearGradient11150" y2="-19.535" gradientUnits="userSpaceOnUse" y1="-19.535" x2="47.046" x1="2.7547">
   <stop id="stop3599-9" style="stop-color:#dcdcdc" offset="0"/>
   <stop id="stop3601-0" style="stop-color:#f5f5f5" offset="1"/>
  </linearGradient>
  <linearGradient id="linearGradient11142" y2="-23.714" xlink:href="#linearGradient4327-0-52-3" gradientUnits="userSpaceOnUse" y1="-23.714" x2="46.689" x1="2"/>
  <linearGradient id="linearGradient11134" y2="-21.458" xlink:href="#linearGradient4327-0-52-3" gradientUnits="userSpaceOnUse" y1="-21.458" x2="46.773" x1="1.9769"/>
  <linearGradient id="linearGradient11109" y2="-23.714" xlink:href="#linearGradient4327-0-52-3" gradientUnits="userSpaceOnUse" x2="46.689" gradientTransform="translate(.35675 .62270)" y1="-23.714" x1="2"/>
  <linearGradient id="linearGradient4327-0-52-3">
   <stop id="stop4329-1-2-6" style="stop-color:#f0f0f0" offset="0"/>
   <stop id="stop4331-2-89-5" style="stop-color:#b4b4b4" offset="1"/>
  </linearGradient>
  <linearGradient id="linearGradient11086" y2="-24.286" gradientUnits="userSpaceOnUse" y1="-24.286" gradientTransform="translate(.39955)" x2="46.327" x1="1.5305">
   <stop id="stop3226-6" style="stop-color:#4d6490" offset="0"/>
   <stop id="stop3228-7" style="stop-color:#4d6490" offset="1"/>
  </linearGradient>
  <linearGradient id="linearGradient11061" y2="-23.714" gradientUnits="userSpaceOnUse" x2="46.689" gradientTransform="translate(.037143 -2.7143)" y1="-23.714" x1="2">
   <stop id="stop4629-5" style="stop-color:#5e89d8" offset="0"/>
   <stop id="stop4633-9" style="stop-color:#5e89d8" offset="1"/>
  </linearGradient>
  <linearGradient id="linearGradient11027" y2="-23.714" xlink:href="#linearGradient4327-0-52-3" gradientUnits="userSpaceOnUse" x2="46.689" gradientTransform="translate(.084022 .11383)" y1="-23.714" x1="2"/>
  <linearGradient id="linearGradient10848" y2="-23.714" gradientUnits="userSpaceOnUse" y1="-23.714" x2="46.689" x1="2">
   <stop id="stop4329-2" style="stop-color:#f0f0f0" offset="0"/>
   <stop id="stop4331-88" style="stop-color:#b4b4b4" offset="1"/>
  </linearGradient>
  <filter id="filter3174-65-0" color-interpolation-filters="sRGB">
   <feGaussianBlur id="feGaussianBlur3176-0-0" stdDeviation="1.71"/>
  </filter>
  <filter id="filter3174-3-7" color-interpolation-filters="sRGB">
   <feGaussianBlur id="feGaussianBlur3176-47-7" stdDeviation="1.71"/>
  </filter>
  <filter id="filter3174-76-6" color-interpolation-filters="sRGB">
   <feGaussianBlur id="feGaussianBlur3176-51-7" stdDeviation="1.71"/>
  </filter>
  <filter id="filter3174-57-8" color-interpolation-filters="sRGB">
   <feGaussianBlur id="feGaussianBlur3176-42-9" stdDeviation="1.71"/>
  </filter>
  <filter id="filter3174-41-1" color-interpolation-filters="sRGB">
   <feGaussianBlur id="feGaussianBlur3176-9-9" stdDeviation="1.71"/>
  </filter>
  <filter id="filter3174-7-7" color-interpolation-filters="sRGB">
   <feGaussianBlur id="feGaussianBlur3176-58-9" stdDeviation="1.71"/>
  </filter>
  <filter id="filter3174-33" color-interpolation-filters="sRGB">
   <feGaussianBlur id="feGaussianBlur3176-6" stdDeviation="1.71"/>
  </filter>
  <linearGradient id="linearGradient3956-2">
   <stop id="stop3958" style="stop-color:#e6c94c" offset="0"/>
   <stop id="stop3966-0" style="stop-color:#e7ce5f" offset=".57832"/>
   <stop id="stop3960-1" style="stop-color:#f0de93" offset=".83333"/>
   <stop id="stop3962-1" style="stop-color:#d0b64c" offset=".91667"/>
   <stop id="stop3964-25" style="stop-color:#907d2e" offset="1"/>
  </linearGradient>
  <filter id="filter4123" height="1.288" width="1.288" color-interpolation-filters="sRGB" y="-0.144" x="-0.144">
   <feGaussianBlur id="feGaussianBlur4125" stdDeviation="3.96"/>
  </filter>
  <linearGradient id="linearGradient2885-3" x1="48" gradientUnits="userSpaceOnUse" y1="20.221" x2="48" y2="138.66">
   <stop id="stop3739-73-7" style="stop-color:#fff" offset="0"/>
   <stop id="stop3741-6-5" style="stop-color:#fff;stop-opacity:0" offset="1"/>
  </linearGradient>
  <clipPath id="clipPath3613-4">
   <rect id="rect3615-09" style="fill:#fff" rx="6" ry="6" height="84" width="84" y="6" x="6"/>
  </clipPath>
  <filter id="filter3174-418" color-interpolation-filters="sRGB">
   <feGaussianBlur id="feGaussianBlur3176-04" stdDeviation="1.71"/>
  </filter>
  <linearGradient id="linearGradient14792" y2="36" spreadMethod="reflect" gradientUnits="userSpaceOnUse" x2="56.969" gradientTransform="matrix(1.5,0,0,1.5,-24,-14)" y1="36" x1="48">
   <stop id="stop3979" style="stop-color:#cbcbcb" offset="0"/>
   <stop id="stop3981" style="stop-color:#efefef" offset="1"/>
  </linearGradient>
  <linearGradient id="linearGradient14794" y2="24.975" gradientUnits="userSpaceOnUse" x2="47.23" gradientTransform="matrix(1.5,0,0,1.5,-24,-14)" y1="35.984" x1="39.031">
   <stop id="stop4007" offset="0"/>
   <stop id="stop4009" style="stop-opacity:0" offset="1"/>
  </linearGradient>
  <linearGradient id="linearGradient14796" y2="23.479" gradientUnits="userSpaceOnUse" x2="48.758" gradientTransform="matrix(1.5,0,0,1.5,-24,-14)" y1="37.282" x1="56.728">
   <stop id="stop4035" offset="0"/>
   <stop id="stop4037" style="stop-opacity:0" offset="1"/>
  </linearGradient>
  <linearGradient id="linearGradient14798" y2="41" xlink:href="#linearGradient3956-2" spreadMethod="reflect" gradientUnits="userSpaceOnUse" x2="60" gradientTransform="matrix(1.5,0,0,1.5,-24,-14)" y1="41" x1="48"/>
  <linearGradient id="linearGradient14800" y2="41" xlink:href="#linearGradient3956-2" spreadMethod="reflect" gradientUnits="userSpaceOnUse" x2="60" gradientTransform="matrix(1.5,0,0,1.5,-24,-5)" y1="41" x1="48"/>
  <linearGradient id="linearGradient14802" y2="41" xlink:href="#linearGradient3956-2" spreadMethod="reflect" gradientUnits="userSpaceOnUse" x2="60" gradientTransform="matrix(1.5,0,0,1.5,-24,4)" y1="41" x1="48"/>
 </defs>
 <metadata id="metadata4516">
  <rdf:RDF>
   <cc:Work rdf:about="">
    <dc:format>image/svg+xml</dc:format>
    <dc:type rdf:resource="http://purl.org/dc/dcmitype/StillImage"/>
    <dc:title/>
   </cc:Work>
  </rdf:RDF>
 </metadata>
 <g id="layer1">
  <rect id="rect3745" style="opacity:.9;filter:url(#filter3174);display:none;fill:url(#linearGradient3254)" rx="6" ry="6" height="85" width="86" y="-23.712" x="-170.86"/>
  <rect id="rect3745-1" style="opacity:.9;filter:url(#filter3174-7);display:none;fill:url(#linearGradient8374)" rx="6" ry="6" height="85" width="86" y="-17.643" x="113.29"/>
  <g id="layer2" style="display:none" transform="translate(-111.44 -124.36)">
   <rect id="rect3745-9" style="opacity:.9;filter:url(#filter3174-41);fill:url(#ButtonShadow-6)" rx="6" ry="6" height="85" width="86" y="7" x="5"/>
  </g>
  <g id="layer2-7" style="display:none" transform="translate(-218.05 -238.16)">
   <rect id="rect3745-2" style="opacity:.9;filter:url(#filter3174-57);fill:url(#ButtonShadow-6)" rx="6" ry="6" height="85" width="86" y="7" x="5"/>
  </g>
  <g id="layer2-1" style="display:none" transform="translate(-106.2 -48.076)">
   <path id="rect3745-24" style="opacity:.9;filter:url(#filter3174-76);fill:url(#ButtonShadow-6)" d="m11 7c-3.324 0-6 2.676-6 6v73c0 3.324 2.676 6 6 6h74c3.324 0 6-2.676 6-6v-73c0-3.324-2.676-6-6-6h-5v2.5c1.4703 0.7406 2.5 2.2424 2.5 4 0 2.484-2.016 4.5-4.5 4.5s-4.5-2.016-4.5-4.5c0-1.7576 1.0297-3.2594 2.5-4v-2.5h-8v2.5c1.4703 0.7406 2.5 2.2424 2.5 4 0 2.484-2.016 4.5-4.5 4.5s-4.5-2.016-4.5-4.5c0-1.7576 1.0297-3.2594 2.5-4v-2.5h-8v2.5c1.4703 0.7406 2.5 2.2424 2.5 4 0 2.484-2.016 4.5-4.5 4.5s-4.5-2.016-4.5-4.5c0-1.7576 1.0297-3.2594 2.5-4v-2.5h-8v2.5c1.4703 0.7406 2.5 2.2424 2.5 4 0 2.484-2.016 4.5-4.5 4.5s-4.5-2.016-4.5-4.5c0-1.7576 1.0297-3.2594 2.5-4v-2.5h-8v2.5c1.4703 0.7406 2.5 2.2424 2.5 4 0 2.484-2.016 4.5-4.5 4.5s-4.5-2.016-4.5-4.5c0-1.7576 1.0297-3.2594 2.5-4v-2.5h-8v2.5c1.4703 0.7406 2.5 2.2424 2.5 4 0 2.484-2.016 4.5-4.5 4.5s-4.5-2.016-4.5-4.5c0-1.7576 1.0297-3.2594 2.5-4v-2.5h-5z"/>
  </g>
  <g id="layer2-0" style="display:none" transform="translate(28.835 -121.51)">
   <rect id="rect3745-5" style="opacity:.9;filter:url(#filter3174-3);fill:url(#ButtonShadow-6)" rx="6" ry="6" height="85" width="86" y="7" x="5"/>
  </g>
  <rect id="rect3745-19" style="opacity:.9;filter:url(#filter3174-65);display:none;fill:url(#linearGradient10968)" rx="6" ry="6" height="85" width="86" y="-57.071" x="93.061"/>
  <rect id="rect3745-51" style="opacity:.9;filter:url(#filter3174-34);display:none;fill:url(#linearGradient4603)" rx="6" ry="6" height="85" width="86" y="64.897" x="-20.979"/>
  <g id="layer2-3" style="display:none" transform="translate(-13.859 48.458)">
   <rect id="rect3745-7" style="opacity:.9;filter:url(#filter3174-2);fill:url(#ButtonShadow-6)" rx="6" ry="6" height="85" width="86" y="7" x="5"/>
  </g>
  <g id="layer2-75" style="display:none" transform="translate(-10.286 84.214)">
   <rect id="rect3745-20" style="opacity:.9;filter:url(#filter3174-1);fill:url(#ButtonShadow-6)" rx="6" ry="6" height="85" width="86" y="7" x="5"/>
  </g>
  <g id="layer5-3" style="display:none" transform="translate(-10.286 84.214)">
   <rect id="rect3323" style="opacity:.6;filter:url(#filter4180-8);display:inline;fill:#06f" rx="6.7435" ry="6" height="6" width="74.179" y="80" x="10.911"/>
   <rect id="rect3311" style="fill:url(#radialGradient4138-7);display:inline" rx="5.8182" ry="4" height="4" width="64" y="81" x="16"/>
  </g>
  <g id="layer2-37" style="display:none" transform="translate(22.857 122.64)">
   <rect id="rect3745-6" style="opacity:.9;filter:url(#filter3174-10);fill:url(#ButtonShadow-6)" rx="6" ry="6" height="85" width="86" y="7" x="5"/>
  </g>
  <g id="layer5-2" style="display:none" transform="translate(22.857 122.64)">
   <rect id="rect3323-7" style="opacity:.6;filter:url(#filter4180-5);display:inline;fill:#06f" rx="6.7435" ry="6" height="6" width="74.179" y="80" x="10.911"/>
   <rect id="rect3311-0" style="fill:url(#radialGradient4138-7);display:inline" rx="5.8182" ry="4" height="4" width="64" y="81" x="16"/>
  </g>
  <g id="layer2-17" style="display:none" transform="translate(15.342 112.14)">
   <rect id="rect3745-4" style="opacity:.9;filter:url(#filter3174-93);fill:url(#ButtonShadow-6)" rx="6" ry="6" height="85" width="86" y="7" x="5"/>
  </g>
  <g id="layer2-19" style="display:none" transform="translate(119.69 80.928)">
   <rect id="rect3745-72" style="opacity:.9;filter:url(#filter3174-19);fill:url(#ButtonShadow-6)" rx="6" ry="6" height="85" width="86" y="7" x="5"/>
  </g>
  <g id="layer5-4" style="display:none" transform="translate(119.69 80.928)">
   <rect id="rect3323-5" style="opacity:.6;filter:url(#filter4180-7);display:inline;fill:#06f" rx="6.7435" ry="6" height="6" width="74.179" y="80" x="10.911"/>
   <rect id="rect3311-1" style="fill:url(#radialGradient4138-7);display:inline" rx="5.8182" ry="4" height="4" width="64" y="81" x="16"/>
  </g>
  <g id="layer2-4" style="display:none" transform="translate(194.03 83.353)">
   <rect id="rect3745-3" style="opacity:.9;filter:url(#filter3174-31);fill:url(#linearGradient12520)" rx="6" ry="6" height="85" width="86" y="7" x="5"/>
  </g>
  <g id="layer5-02" style="display:none" transform="translate(194.03 83.353)">
   <g id="g3836" style="display:inline" transform="matrix(.70718 0 0 .70718 23.398 -22.712)">
    <path id="path3185" style="opacity:.6;fill-rule:evenodd;filter:url(#filter3222);display:inline;fill:url(#linearGradient13399)" transform="matrix(.74180 0 0 .75620 -146.02 35.217)" d="m272.33-0.94868c-33.672 0-61 27.104-61 60.5s27.328 60.5 61 60.5 61-27.104 61-60.5-27.328-60.5-61-60.5zm0 40c11.316-0.000001 20.5 9.184 20.5 20.5s-9.184 20.5-20.5 20.5-20.5-9.184-20.5-20.5 9.184-20.5 20.5-20.5z"/>
    <path id="path3307" style="opacity:.3;fill:#fff;display:inline;fill-rule:evenodd" d="m56 58.416c-11.216 0-20.321 9.105-20.321 20.321s9.105 20.321 20.321 20.321 20.321-9.105 20.321-20.321-9.105-20.321-20.321-20.321zm0 14.355c3.293 0 5.9657 2.6726 5.9657 5.9657 0 3.293-2.6726 5.9657-5.9657 5.9657-3.293 0-5.9657-2.6726-5.9657-5.9657 0-3.293 2.6726-5.9657 5.9657-5.9657z"/>
    <path id="path3328" style="opacity:.5;fill-rule:evenodd;stroke:url(#linearGradient2926);stroke-linecap:round;stroke-width:3.4273;display:inline;fill:url(#radialGradient2924)" transform="matrix(0 .37644 -.45222 0 84.002 56.19)" d="m92.58 61.922a32.686 27.208 0 1 1 -65.371 0 32.686 27.208 0 1 1 65.371 0z"/>
    <path id="path3352" style="opacity:.6;stroke:url(#linearGradient2928);stroke-linecap:round;stroke-width:7.54;display:inline;fill:none" transform="matrix(0 .17111 -.20555 0 68.728 68.488)" d="m92.58 61.922a32.686 27.208 0 1 1 -65.371 0 32.686 27.208 0 1 1 65.371 0z"/>
    <path id="path3170" style="fill:url(#linearGradient13393);display:inline;fill-rule:evenodd" d="m56 34.74c-24.286 0-43.997 19.711-43.997 43.997s19.711 43.997 43.997 43.997 43.997-19.711 43.997-43.997-19.711-43.997-43.997-43.997zm0 28.337c8.6442-0.000001 15.66 7.0156 15.66 15.66 0 8.6442-7.0156 15.66-15.66 15.66-8.6442-0.000002-15.66-7.0156-15.66-15.66 0-8.6442 7.0156-15.66 15.66-15.66z"/>
    <path id="path3230" style="opacity:.6;fill:url(#linearGradient13390);display:inline;fill-rule:evenodd" d="m87.11 47.89c-17.173-17.173-45.048-17.173-62.221 0s-17.173 45.048-0.000001 62.221 45.048 17.173 62.221 0 17.173-45.048 0-62.221zm-20.037 20.037c6.1124 6.1124 6.1124 16.034-0.000007 22.146-6.1124 6.1124-16.034 6.1124-22.146 0-6.1124-6.1124-6.1124-16.034 0-22.146 6.1124-6.1124 16.034-6.1124 22.146 0.000001z"/>
    <path id="path3259" style="opacity:.6;fill:url(#linearGradient13387);display:inline;fill-rule:evenodd" d="m93.643 101.78c12.567-20.783 5.912-47.85-14.867-60.423-20.779-12.572-47.846-5.912-60.419 14.867-12.572 20.779-5.912 47.846 14.867 60.416 20.779 12.58 47.846 5.91 60.419-14.86zm-24.245-14.673c-4.4749 7.3958-14.109 9.7664-21.505 5.2916-7.3958-4.4749-9.7664-14.109-5.2916-21.505 4.4749-7.3958 14.109-9.7664 21.505-5.2916 7.3958 4.4749 9.7664 14.109 5.2915 21.505z"/>
    <path id="path3231" style="opacity:.6;fill:url(#linearGradient13384);display:inline;fill-rule:evenodd" d="m77.212 117.55c21.277-11.71 29.038-38.484 17.334-59.762-11.709-21.277-38.48-29.043-59.758-17.334-21.277 11.709-29.043 38.48-17.334 59.756 11.709 21.277 38.48 29.043 59.757 17.334zm-13.662-24.83c-7.573 4.167-17.102 1.403-21.27-6.17-4.167-7.573-1.403-17.102 6.17-21.27 7.5733-4.1675 17.102-1.4034 21.27 6.1698 4.1675 7.5733 1.4034 17.102-6.1699 21.27z"/>
    <path id="path3243" style="fill:url(#linearGradient3908);display:inline;fill-rule:evenodd" d="m87.11 110.11c17.173-17.173 17.173-45.048 0-62.221s-45.048-17.173-62.221 0-17.173 45.048-0.000001 62.221 45.048 17.173 62.221 0.00001zm-20.037-20.037c-6.1124 6.1124-16.034 6.1124-22.146-0.000003-6.1124-6.1124-6.1124-16.034 0.000002-22.146 6.1124-6.1124 16.034-6.1124 22.146 0 6.1124 6.1124 6.1124 16.034 0 22.146z"/>
    <path id="path3304" style="opacity:.15;stroke:#000;stroke-linecap:round;stroke-width:9.0479;display:inline;fill:none" transform="matrix(.57037 0 0 .68518 21.839 36.309)" d="m92.58 61.922a32.686 27.208 0 1 1 -65.371 0 32.686 27.208 0 1 1 65.371 0z"/>
    <path id="path13401" style="opacity:.8;fill:url(#linearGradient13921);display:inline;fill-rule:evenodd" d="m56 34.75c-24.286-0.000001-44 19.714-44 44 0 21.988 16.168 40.214 37.25 43.469-20.527-3.25-36.25-21.07-36.25-42.501 0-23.736 19.264-43 43-43s43 19.264 43 43c0 21.435-15.723 39.253-36.25 42.5 21.082-3.26 37.25-21.48 37.25-43.47-0.000003-24.286-19.714-44-44-44zm-14.312 50.312c2.1695 5.8155 7.7437 9.9687 14.312 9.9688 6.5688 0 12.143-4.1532 14.312-9.9688-2.4327 5.4945-7.9201 9.3438-14.312 9.3438-6.3924 0-11.88-3.8492-14.312-9.3438z"/>
   </g>
  </g>
  <g id="layer2-32" style="display:none" transform="matrix(.5 0 0 .5 10.072 53.047)">
   <rect id="rect3745-97" style="opacity:.9;filter:url(#filter3174-71);fill:url(#ButtonShadow-6)" rx="6" ry="6" height="85" width="86" y="7" x="5"/>
  </g>
  <g id="layer1-3" transform="translate(0.07 -0.612)">
   <rect id="rect810-9" ry="10.607" style="opacity:.52991;stroke:#000;fill:#333" transform="scale(1,-1)" height="43.689" width="43.689" y="-46.112" x="2.5506"/>
   <rect id="rect810" ry="10.607" style="stroke:url(#linearGradient11142);fill:url(#linearGradient10848)" transform="scale(1,-1)" height="43.689" width="43.689" y="-45.559" x="2.5"/>
   <rect id="rect3745-8" style="opacity:.9;filter:url(#filter3174-33);display:none;fill:url(#linearGradient3254)" rx="6" ry="6" height="85" width="86" y="-23.712" x="-170.86"/>
   <rect id="rect3745-1-9" style="opacity:.9;filter:url(#filter3174-7-7);display:none;fill:url(#linearGradient8374)" rx="6" ry="6" height="85" width="86" y="-17.643" x="113.29"/>
   <g id="layer2-2" style="display:none" transform="translate(-111.44 -124.36)">
    <rect id="rect3745-9-0" style="opacity:.9;filter:url(#filter3174-41-1);fill:url(#ButtonShadow-6)" rx="6" ry="6" height="85" width="86" y="7" x="5"/>
   </g>
   <g id="layer2-7-2" style="display:none" transform="translate(-218.05 -238.16)">
    <rect id="rect3745-2-1" style="opacity:.9;filter:url(#filter3174-57-8);fill:url(#ButtonShadow-6)" rx="6" ry="6" height="85" width="86" y="7" x="5"/>
   </g>
   <g id="layer2-1-4" style="display:none" transform="translate(-106.2 -48.076)">
    <path id="rect3745-24-5" style="opacity:.9;filter:url(#filter3174-76-6);fill:url(#ButtonShadow-6)" d="m11 7c-3.324 0-6 2.676-6 6v73c0 3.324 2.676 6 6 6h74c3.324 0 6-2.676 6-6v-73c0-3.324-2.676-6-6-6h-5v2.5c1.4703 0.7406 2.5 2.2424 2.5 4 0 2.484-2.016 4.5-4.5 4.5s-4.5-2.016-4.5-4.5c0-1.7576 1.0297-3.2594 2.5-4v-2.5h-8v2.5c1.4703 0.7406 2.5 2.2424 2.5 4 0 2.484-2.016 4.5-4.5 4.5s-4.5-2.016-4.5-4.5c0-1.7576 1.0297-3.2594 2.5-4v-2.5h-8v2.5c1.4703 0.7406 2.5 2.2424 2.5 4 0 2.484-2.016 4.5-4.5 4.5s-4.5-2.016-4.5-4.5c0-1.7576 1.0297-3.2594 2.5-4v-2.5h-8v2.5c1.4703 0.7406 2.5 2.2424 2.5 4 0 2.484-2.016 4.5-4.5 4.5s-4.5-2.016-4.5-4.5c0-1.7576 1.0297-3.2594 2.5-4v-2.5h-8v2.5c1.4703 0.7406 2.5 2.2424 2.5 4 0 2.484-2.016 4.5-4.5 4.5s-4.5-2.016-4.5-4.5c0-1.7576 1.0297-3.2594 2.5-4v-2.5h-8v2.5c1.4703 0.7406 2.5 2.2424 2.5 4 0 2.484-2.016 4.5-4.5 4.5s-4.5-2.016-4.5-4.5c0-1.7576 1.0297-3.2594 2.5-4v-2.5h-5z"/>
   </g>
   <g id="layer2-0-1" style="display:none" transform="translate(28.835 -121.51)">
    <rect id="rect3745-5-5" style="opacity:.9;filter:url(#filter3174-3-7);fill:url(#ButtonShadow-6)" rx="6" ry="6" height="85" width="86" y="7" x="5"/>
   </g>
   <rect id="rect3745-19-1" style="opacity:.9;filter:url(#filter3174-65-0);display:none;fill:url(#linearGradient10968)" rx="6" ry="6" height="85" width="86" y="-57.071" x="93.061"/>
   <rect id="rect810-4-0" ry="10.607" style="stroke:url(#linearGradient11086);fill:url(#linearGradient11061)" transform="scale(1,-1)" height="39.403" width="43.796" y="-43.987" x="2.43"/>
   <rect id="rect810-4" ry="10.607" style="stroke:url(#linearGradient11134);fill:url(#linearGradient11027)" transform="scale(1,-1)" height="39.403" width="43.796" y="-41.159" x="2.4769"/>
   <rect id="rect810-4-8" ry="10.607" style="stroke:url(#linearGradient11150);fill:url(#linearGradient11109)" transform="scale(1,-1)" height="36.373" width="44.099" y="-37.62" x="2.4466"/>
   <rect id="rect3745-51-1" style="opacity:.9;filter:url(#filter3174-34-2);display:none;fill:url(#linearGradient4603)" rx="6" ry="6" height="85" width="86" y="64.897" x="-20.979"/>
   <g id="layer2-3-4" style="display:none" transform="translate(-13.859 48.458)">
    <rect id="rect3745-7-1" style="opacity:.9;filter:url(#filter3174-2-2);fill:url(#ButtonShadow-6)" rx="6" ry="6" height="85" width="86" y="7" x="5"/>
   </g>
   <g id="g4674" transform="matrix(.25 0 0 .25 15.095 6.9188)">
    <g id="g3318" transform="translate(-13.859 48.458)">
     <path id="path3374" d="m20.179 85.062a2.0893 2.0982 0 1 1 -4.1786 0 2.0893 2.0982 0 1 1 4.1786 0z" style="fill:url(#linearGradient4702-4)" transform="matrix(0 1.6709 1.6638 0 -122.04 53.283)"/>
     <path id="path3364" d="m20.179 85.062a2.0893 2.0982 0 1 1 -4.1786 0 2.0893 2.0982 0 1 1 4.1786 0z" style="stroke-opacity:.53182;stroke:#000;stroke-linecap:square;stroke-width:.84050;fill:url(#radialGradient4704-4)" transform="matrix(1.1923 0 0 1.1872 -2.0769 -17.48)"/>
    </g>
    <path id="path4237" style="fill:url(#linearGradient4706-3)" d="m41.141 136.96c-0.81756 0-1.5-0.68244-1.5-1.5v-6c0-0.81756 0.68244-1.5 1.5-1.5s1.5 0.68244 1.5 1.5v6c0 0.81756-0.68244 1.5-1.5 1.5zm4 0c-0.81756 0-1.5-0.68244-1.5-1.5v-6c0-0.81756 0.68244-1.5 1.5-1.5s1.5 0.68244 1.5 1.5v6c0 0.81756-0.68244 1.5-1.5 1.5zm4 0c-0.81756 0-1.5-0.68244-1.5-1.5v-6c0-0.81756 0.68244-1.5 1.5-1.5s1.5 0.68244 1.5 1.5v6c0 0.81756-0.68244 1.5-1.5 1.5zm4 0c-0.81756 0-1.5-0.68244-1.5-1.5v-6c0-0.81756 0.68244-1.5 1.5-1.5s1.5 0.68244 1.5 1.5v6c0 0.81756-0.68244 1.5-1.5 1.5zm4 0c-0.81756 0-1.5-0.68244-1.5-1.5v-6c0-0.81756 0.68244-1.5 1.5-1.5s1.5 0.68244 1.5 1.5v6c0 0.81756-0.68244 1.5-1.5 1.5zm4 0c-0.81756 0-1.5-0.68244-1.5-1.5v-6c0-0.81756 0.68244-1.5 1.5-1.5s1.5 0.68244 1.5 1.5v6c0 0.81756-0.68244 1.5-1.5 1.5zm4 0c-0.81756 0-1.5-0.68244-1.5-1.5v-6c0-0.81756 0.68244-1.5 1.5-1.5s1.5 0.68244 1.5 1.5v6c0 0.81756-0.68244 1.5-1.5 1.5z"/>
    <path id="rect4210" d="m41.141 128.46c-0.554 0-1 0.446-1 1v6c0 0.554 0.446 1 1 1s1-0.446 1-1v-6c0-0.554-0.446-1-1-1zm4 0c-0.554 0-1 0.446-1 1v6c0 0.554 0.446 1 1 1s1-0.446 1-1v-6c0-0.554-0.446-1-1-1zm4 0c-0.554 0-1 0.446-1 1v6c0 0.554 0.446 1 1 1s1-0.446 1-1v-6c0-0.554-0.446-1-1-1zm4 0c-0.554 0-1 0.446-1 1v6c0 0.554 0.446 1 1 1s1-0.446 1-1v-6c0-0.554-0.446-1-1-1zm4 0c-0.554 0-1 0.446-1 1v6c0 0.554 0.446 1 1 1s1-0.446 1-1v-6c0-0.554-0.446-1-1-1zm4 0c-0.554 0-1 0.446-1 1v6c0 0.554 0.446 1 1 1s1-0.446 1-1v-6c0-0.554-0.446-1-1-1zm4 0c-0.554 0-1 0.446-1 1v6c0 0.554 0.446 1 1 1s1-0.446 1-1v-6c0-0.554-0.446-1-1-1z" style="fill:url(#linearGradient4708-7)"/>
   </g>
   <g id="layer2-75-1" style="display:none" transform="translate(-10.286 84.214)">
    <rect id="rect3745-20-4" style="opacity:.9;filter:url(#filter3174-1-9);fill:url(#ButtonShadow-6)" rx="6" ry="6" height="85" width="86" y="7" x="5"/>
   </g>
   <g id="layer5-3-9" style="display:none" transform="translate(-10.286 84.214)">
    <rect id="rect3323-8" style="opacity:.6;filter:url(#filter4180-8-0);display:inline;fill:#06f" rx="6.7435" ry="6" height="6" width="74.179" y="80" x="10.911"/>
    <rect id="rect3311-5" style="fill:url(#radialGradient4138-7);display:inline" rx="5.8182" ry="4" height="4" width="64" y="81" x="16"/>
   </g>
   <g id="layer2-37-3" style="display:none" transform="translate(22.857 122.64)">
    <rect id="rect3745-6-5" style="opacity:.9;filter:url(#filter3174-10-6);fill:url(#ButtonShadow-6)" rx="6" ry="6" height="85" width="86" y="7" x="5"/>
   </g>
   <g id="layer5-2-4" style="display:none" transform="translate(22.857 122.64)">
    <rect id="rect3323-7-9" style="opacity:.6;filter:url(#filter4180-5-6);display:inline;fill:#06f" rx="6.7435" ry="6" height="6" width="74.179" y="80" x="10.911"/>
    <rect id="rect3311-0-9" style="fill:url(#radialGradient4138-7);display:inline" rx="5.8182" ry="4" height="4" width="64" y="81" x="16"/>
   </g>
   <g id="layer2-17-9" style="display:none" transform="translate(15.342 112.14)">
    <rect id="rect3745-4-5" style="opacity:.9;filter:url(#filter3174-93-9);fill:url(#ButtonShadow-6)" rx="6" ry="6" height="85" width="86" y="7" x="5"/>
   </g>
   <g id="g6347" transform="translate(-.99967)">
    <path id="path4188" style="opacity:.6;color:#000000;fill:url(#linearGradient6364)" d="m20.541 5.6585a0.9922 0.9922 0 0 0 -0.89062 0.98438v1.0156h-1.0156a0.9922 0.9922 0 0 0 -0.98438 0.98438v1.0156h-3.5156c-1.3635 0-2.4844 1.1209-2.4844 2.4844v17c0 1.3635 1.1209 2.4844 2.4844 2.4844h21c1.3635 0 2.4844-1.1209 2.4844-2.4844v-17c0-1.3635-1.1209-2.4844-2.4844-2.4844h-3.5156v-1.0156a0.9922 0.9922 0 0 0 -0.98438 -0.98438h-1.0156v-1.0156a0.9922 0.9922 0 0 0 -0.98438 -0.98438h-8a0.9922 0.9922 0 0 0 -0.09375 0z"/>
    <path id="rect4162" d="m20.635 6.6429v2h-2v2h-4.5c-0.831 0-1.5 0.669-1.5 1.5v17c0 0.831 0.669 1.5 1.5 1.5h21c0.831 0 1.5-0.669 1.5-1.5v-17c0-0.831-0.669-1.5-1.5-1.5h-4.5v-2h-2v-2h-8z" style="color:#000000;fill:url(#linearGradient6366)"/>
    <path id="path4200" d="m20.635 5.6429v1h8v-1h-8zm-2 2v1h2v-1h-2zm10 0v1h2v-1h-2zm-14.5 2c-0.831 0-1.5 0.669-1.5 1.5v1c0-0.831 0.669-1.5 1.5-1.5h4.5v-1h-4.5zm16.5 0v1h4.5c0.831 0 1.5 0.669 1.5 1.5v-1c0-0.831-0.669-1.5-1.5-1.5h-4.5z" style="opacity:.15;color:#000000"/>
    <path id="path4209" d="m20.635 6.6429v2h-2v2h-4.5c-0.831 0-1.5 0.669-1.5 1.5v17c0 0.831 0.669 1.5 1.5 1.5h21c0.831 0 1.5-0.669 1.5-1.5v-17c0-0.831-0.669-1.5-1.5-1.5h-4.5v-2h-2v-2h-8zm0.98438 0.98438h6.0312v1.0156a0.98748 0.98748 0 0 0 0.98438 0.98438h1.0156v1.0156a0.98748 0.98748 0 0 0 0.98438 0.98438h4.5c0.30107 0 0.51562 0.21456 0.51562 0.51562v17c0 0.30107-0.21456 0.51562-0.51562 0.51562h-21c-0.30107 0-0.51562-0.21456-0.51562-0.51562v-17c0-0.30107 0.21456-0.51562 0.51562-0.51562h4.5a0.98748 0.98748 0 0 0 0.98438 -0.98438v-1.0156h1.0156a0.98748 0.98748 0 0 0 0.98438 -0.98438v-1.0156z" style="opacity:.2;color:#000000;fill:url(#linearGradient6368)"/>
    <rect id="rect4224" style="opacity:.2;color:#000000;fill:url(#radialGradient6370)" height="9" width="19" y="21.643" x="15.135"/>
    <rect id="rect4234" style="color:#000000;fill:url(#linearGradient6373)" height="3.5" width=".5" y="25.143" x="17.635"/>
    <path id="path4276" d="m20.635 6.1429v0.5h8v-0.5h-8zm-2 2v0.5h2v-0.5h-2zm10 0v0.5h2v-0.5h-2zm-14.5 2c-0.831 0-1.5 0.669-1.5 1.5v0.5c0-0.831 0.669-1.5 1.5-1.5h4.5v-0.5h-4.5zm16.5 0v0.5h4.5c0.831 0 1.5 0.669 1.5 1.5v-0.5c0-0.831-0.669-1.5-1.5-1.5h-4.5z" style="opacity:.3;color:#000000"/>
    <rect id="rect4314" style="color:#000000;fill:url(#linearGradient6375)" height="3.5" width=".5" y="25.143" x="19.635"/>
    <rect id="rect4318" style="color:#000000;fill:url(#linearGradient6377)" height="3.5" width=".5" y="25.143" x="21.635"/>
    <rect id="rect4322" style="color:#000000;fill:url(#linearGradient6379)" height="3.5" width=".5" y="25.143" x="23.635"/>
    <rect id="rect4326" style="color:#000000;fill:url(#linearGradient6382)" height="3.5" width=".5" y="25.143" x="25.635"/>
    <rect id="rect4330" style="color:#000000;fill:url(#linearGradient6384)" height="3.5" width=".5" y="25.143" x="27.635"/>
    <rect id="rect4334" style="color:#000000;fill:url(#linearGradient6386)" height="3.5" width=".5" y="25.143" x="29.635"/>
    <rect id="rect4338" style="color:#000000;fill:url(#linearGradient6388)" height="3.5" width=".5" y="25.143" x="31.635"/>
   </g>
  </g>
  <g id="layer2-09" style="display:none" transform="translate(-72.162 90.459)">
   <rect id="rect3745-0" style="opacity:.9;filter:url(#filter3174-418);fill:url(#ButtonShadow-6)" rx="6" ry="6" height="85" width="86" y="7" x="5"/>
  </g>
  <g id="layer4-7" style="display:none" transform="translate(-72.162 90.459)">
   <rect id="rect3171-8" style="opacity:.15;filter:url(#filter4123);stroke:#fff;stroke-linecap:round;stroke-width:.5;fill:url(#linearGradient2885-3)" clip-path="url(#clipPath3613-4)" rx="12" ry="12" height="66" width="66" y="15" x="15"/>
  </g>
  <g id="layer7-4" transform="matrix(.5 0 0 .5 -.44799 4.7505)">
   <path id="path4310" style="opacity:.05;color:#000000" d="m47.438 18.594c-7.6089 0.15284-14.454 6.0968-15.625 13.625a0.97695 0.97695 0 0 0 0 0.03125c-0.38802 3.0122-0.20489 5.9481-0.21875 8.8125-0.73936 0.04411-1.4808 0.16114-2.1562 0.5-1.0084 0.50595-1.8763 1.4186-2.2188 2.6562a0.97695 0.97695 0 0 0 -0.03125 0.125c-0.34993 2.4764-0.08315 4.8725-0.15625 7.125a0.97695 0.97695 0 0 0 0.0625 0.4375c0.22267 0.49656 0.22618 0.97296 0.125 1.6562-0.09745 0.65812-0.28598 1.4808-0.1875 2.4375 0.000998 0.02879-0.000841 0.06486 0 0.09375 0.04824 1.6571-0.16392 3.4788 0.125 5.375a0.97695 0.97695 0 0 0 0.0625 0.1875c0.10149 0.27606 0.05064 0.68639-0.0625 1.3125-0.10712 0.59282-0.2552 1.3693-0.125 2.2188 0.0073 0.04771-0.0093 0.07662 0 0.125 0.07335 1.7222-0.28469 3.726 0.3125 5.8125a0.97695 0.97695 0 0 0 0.03125 0.0625c0.45412 1.2058 1.4125 2.0026 2.4375 2.4062 0.9947 0.39171 2.0495 0.4588 3.0312 0.375 0.02992-0.0026 0.064 0.0029 0.09375 0 10.64-0.01192 21.261 0.0112 31.906-0.03125a0.97695 0.97695 0 0 0 0.0625 0c1.4034-0.10404 2.5548-0.89878 3.25-1.9375 0.67208-1.0041 0.96343-2.2486 0.8125-3.4688-0.0013-0.03904 0.001-0.08583 0-0.125-0.04796-1.8321 0.16221-3.7931-0.125-5.8438a0.97695 0.97695 0 0 0 -0.03 -0.188c-0.10217-0.29795-0.08011-0.78526 0.03125-1.4375 0.10552-0.618 0.25411-1.3915 0.125-2.25-0.0022-0.03886 0.0017-0.08583 0-0.125-0.06525-1.5298 0.17009-3.2962-0.28125-5.1562 0.000454-0.0075-0.000495-0.02368 0-0.03125 0.06072-0.92819 0.43201-2.3281 0.28125-3.8125-0.000519-0.0097 0.000488-0.02151 0-0.03125-0.08353-1.6657 0.2875-3.6108-0.3125-5.6562a0.97695 0.97695 0 0 0 -0.031 -0.064c-0.4297-1.1243-1.2845-1.9135-2.25-2.3438-0.62693-0.27937-1.3029-0.24157-1.9688-0.28125-0.03487-3.2504 0.28498-6.6749-0.46875-10.125a0.97695 0.97695 0 0 0 -0.03125 0c-1.662-6.765-7.783-12.097-14.812-12.437-0.01108-0.000852-0.02019 0.000812-0.03125 0-0.56432-0.04144-1.0973-0.03154-1.5938-0.03125a0.97695 0.97695 0 0 0 -0.03125 0zm0.28125 10.438a0.97695 0.97695 0 0 0 0.03125 0c2.6847-0.19949 5.2179 1.6579 5.9688 4.2188 0.43172 2.2125 0.15763 4.655 0.25 7.2188 0.000386 0.01073-0.0004 0.02052 0 0.03125 0.0014 0.28068-0.0035 0.35807 0 0.53125h-11.938c0.0087-2.4617-0.08199-4.8858 0.09375-7.2188 0.03599-0.11264 0.07226-0.2637 0.125-0.4375 0.10548-0.3476 0.29944-0.84711 0.28125-0.8125a0.97695 0.97695 0 0 0 0.031 -0.063c0.91036-2.0376 2.9046-3.4268 5.1562-3.4688z"/>
   <path id="path4304" style="opacity:.1;color:#000000" d="m47.469 19.562c-7.104 0.143-13.589 5.776-14.681 12.802-0.411 3.192-0.153 6.424-0.226 9.636-1.81-0.22-3.875 0.555-4.403 2.465-0.328 2.317-0.083 4.693-0.159 7.035 0.66732 1.4881-0.19973 2.8747 0 4.4685 0.06166 1.778-0.13802 3.5824 0.12976 5.3399 0.42464 1.1551-0.38445 2.4982-0.12976 3.8251 0.10441 1.9045-0.25151 3.875 0.27723 5.7223 0.70162 1.8629 2.7862 2.314 4.5578 2.1442 10.673-0.01216 21.348 0.02432 32.02-0.01824 2.173-0.161 3.446-2.401 3.145-4.417-0.063-1.955 0.141-3.938-0.13-5.873-0.406-1.184 0.384-2.569 0.13-3.928-0.101-1.808 0.245-3.684-0.269-5.432 0.066-1.093 0.404-2.444 0.269-3.701-0.098-1.827 0.242-3.717-0.277-5.487-0.661-1.729-2.59-2.326-4.285-2.144-0.11-3.57 0.312-7.191-0.456-10.705-1.559-6.346-7.395-11.393-13.966-11.697-0.515-0.04-1.031-0.036-1.547-0.036zm0.21875 8.5c3.1963-0.2375 6.1495 1.9566 7 5 0.47342 2.4262 0.158 4.9433 0.25 7.411 0.0034 0.8237 0.27193 1.9126-0.9345 1.5265h-12.94c0.06004-2.8245-0.12576-5.6706 0.10524-8.4815-0.06318 0.35093 0.28911-1.0454 0.48852-1.4248 1.0609-2.3746 3.3936-3.9821 6.0312-4.0312z"/>
   <path id="path4300" style="opacity:.15;color:#000000" d="m47.562 20.625c-0.14459 0.01166-0.28346 0.02613-0.375 0.03125-7.561 0.418-13.562 6.682-13.562 14.344v8.0625h-2.125c-1.3307 0-2.4375 1.1068-2.4375 2.4375v1.5 4.5c0 0.58036 0.27858 1.0794 0.625 1.5-0.34642 0.42056-0.625 0.91964-0.625 1.5v1.5 4.5c0 0.58036 0.27858 1.0794 0.625 1.5-0.34642 0.42056-0.625 0.91964-0.625 1.5v1.5 3 1.5c0 1.3307 1.1068 2.4375 2.4375 2.4375h33c1.3307 0 2.4375-1.1068 2.4375-2.4375v-1.5-4.5c0-0.58036-0.27858-1.0794-0.625-1.5 0.34642-0.42056 0.625-0.91964 0.625-1.5v-6c0-0.58036-0.27858-1.0794-0.625-1.5 0.34642-0.42056 0.625-0.91964 0.625-1.5v-6c0-1.3307-1.1068-2.4375-2.4375-2.4375h-2.125v-8.0625c0-4.8792-2.4299-9.1823-6.1562-11.781 0.05998 0.04162 0.02056-0.03731-0.15625-0.15625-0.272-0.184-0.553-0.335-0.782-0.469-0.012-0.012-0.015-0.019-0.031-0.032-0.125-0.072-0.145-0.079-0.062-0.031-0.023-0.014-0.005-0.015-0.032-0.031-0.10214-0.05866-0.21675-0.10423-0.3125-0.15625-1.3293-0.72214-2.7766-1.2268-4.3125-1.5-0.847-0.153-1.682-0.219-2.531-0.219-0.06616 0-0.12915 0.000117-0.1875 0-0.02464-0.001-0.01203 0.000378-0.03125 0-0.07689-0.0015-0.13423-0.000283-0.125 0a0.93116 0.93116 0 0 0 -0.09375 0zm0.094 6.375c0.07485-0.003 0.19404 0 0.34375 0 1.7047 0 3.2251 0.48981 4.5 1.3438h0.03125c0.03852 0.02047 0.15579 0.09357 0.15625 0.09375 0.0893 0.06597 0.17616 0.13633 0.28125 0.21875 1.2735 1.0234 2.2286 2.4318 2.7188 4.0938 0.04677 0.16815 0.09971 0.29221 0.125 0.40625a0.93116 0.93116 0 0 0 0 0.03125c-0.02158-0.08938-0.01609-0.03012 0.03125 0.1875 0.06246 0.31718 0.10788 0.53089 0.125 0.6875 0.029 0.256 0.032 0.581 0.032 0.937v8.0625h-16v-8.062c0-0.28598 0.009-0.54157 0.03125-0.78125 0.01677-0.18226 0.01564-0.19509 0-0.03125 0.01794-0.1869 0.016-0.19761 0-0.03125 0.01824-0.18528 0.02808-0.36262 0.0625-0.5625 0.0019-0.01098-0.0019-0.02008 0-0.03125a0.93116 0.93116 0 0 0 0 -0.03125c-0.04161 0.23649-0.02361 0.19954 0.03125-0.09375 0.04228-0.22724 0.11918-0.44348 0.1875-0.6875 0.0065-0.02181-0.0048-0.0112 0-0.03125-0.01184 0.04179 0.0019 0.0055 0.03125-0.09375 0.07196-0.24307 0.124-0.42924 0.1875-0.59375 0.01215-0.02599 0.01953-0.0013 0.03125-0.03125 0.05718-0.14192 0.06702-0.17993 0.03125-0.09375 0.07596-0.18808 0.15964-0.38046 0.25-0.5625-0.06396 0.12881-0.02145 0.03361 0.03125-0.0625 0.36279-0.69859 0.83142-1.335 1.3438-1.875 0.0067-0.0064 0.0026-0.03329 0.03125-0.0625 0.10003-0.10342 0.19748-0.20266 0.28125-0.28125-0.09019 0.0829-0.03633 0.04932 0.125-0.09375-0.0092 0.0082 0.02317-0.0075 0.125-0.09375a0.93116 0.93116 0 0 0 0.03125 0c0.14111-0.12233 0.14574-0.1638 0.0625-0.09375 0.04252-0.03494 0.07596-0.08651 0.125-0.125a0.93116 0.93116 0 0 0 0.03125 0c-0.06985 0.05613-0.0037 0.01797 0.0625-0.03125v-0.03125c0.17297-0.13516 0.26636-0.22106 0.21875-0.1875 0.0092-0.0065 0.13643-0.05576 0.34375-0.1875 0.07467-0.04734 0.11091-0.07307 0.09375-0.0625 0.11921-0.07363 0.23338-0.14214 0.375-0.21875 0.26016-0.13952 0.50618-0.24456 0.75-0.34375 0.05035-0.02051 0.12156-0.05751 0.21875-0.09375 0.15807-0.05921 0.35536-0.10334 0.53125-0.15625 0.16923-0.05067 0.24923-0.09355 0.25-0.09375-0.10127 0.02691-0.05262 0.01965 0.15625-0.03125 0.06525-0.01581 0.05091-0.01388 0.09375-0.03125-0.0387 0.01342-0.0206 0.01163 0.1875-0.03125 0.04692-0.0097 0.02603-0.01957 0.0625-0.03125-0.33681 0.06553-0.32571 0.06938 0.03125 0 0.25539-0.04998 0.44486-0.07073 0.65625-0.09375 0.143-0.017 0.348-0.023 0.593-0.033z"/>
   <path id="path3488" style="opacity:.3;color:#000000" d="m47.625 21.562c-0.12406 0.01-0.24832 0.02416-0.375 0.03125-7.079 0.392-12.688 6.231-12.688 13.407v9h-3.062c-0.831 0-1.5 0.669-1.5 1.5v1.5 4.5c0 0.831 0.669 1.5 1.5 1.5-0.831 0-1.5 0.669-1.5 1.5v1.5 4.5c0 0.831 0.669 1.5 1.5 1.5-0.831 0-1.5 0.669-1.5 1.5v1.5 3 1.5c0 0.831 0.669 1.5 1.5 1.5h33c0.831 0 1.5-0.669 1.5-1.5v-1.5-4.5c0-0.831-0.669-1.5-1.5-1.5 0.831 0 1.5-0.669 1.5-1.5v-6c0-0.831-0.669-1.5-1.5-1.5 0.831 0 1.5-0.669 1.5-1.5v-6c0-0.831-0.669-1.5-1.5-1.5h-3.0625v-9c0-4.5717-2.2643-8.6002-5.75-11.031-0.0537-0.03726-0.10198-0.08849-0.15625-0.125-0.22838-0.1543-0.48067-0.29715-0.71875-0.4375-0.01215-0.0072-0.01907-0.02412-0.03125-0.03125-0.01974-0.01155-0.0427-0.01979-0.0625-0.03125-0.012-0.007-0.02-0.025-0.031-0.032-0.092-0.052-0.189-0.105-0.282-0.156-1.242-0.674-2.592-1.15-4.031-1.406-0.775-0.14-1.562-0.188-2.375-0.188-0.07464 0-0.14655 0.000306-0.21875 0-0.05214-0.0022-0.10396 0.0016-0.15625 0zm0 4.5c0.12406-0.0049 0.24953 0 0.375 0 1.8841 0 3.6047 0.54442 5.0312 1.5 0.0074 0.0051 0.02382-0.0052 0.03125 0 0.17442 0.11757 0.33499 0.24563 0.5 0.375 1.4228 1.1433 2.4884 2.722 3.0312 4.5625 0.0432 0.15533 0.08979 0.30995 0.125 0.46875 0.01707 0.07071 0.01572 0.14736 0.03125 0.21875 0.05097 0.25881 0.12709 0.51452 0.15625 0.78125 0.037 0.336 0.032 0.685 0.032 1.032v9h-17.875v-9c0-0.29564 0.0046-0.58748 0.03125-0.875 0.000955-0.01038-0.000989-0.02089 0-0.03125 0.000999-0.01041-0.001-0.02085 0-0.03125 0.0225-0.22857 0.05505-0.43356 0.09375-0.65625 0.0019-0.0099-0.0019-0.02133 0-0.03125 0.0056-0.03183 0.02532-0.06205 0.03125-0.09375 0.04967-0.26693 0.11546-0.52394 0.1875-0.78125 0.0029-0.0098-0.0029-0.0215 0-0.03125 0.0091-0.03212 0.0218-0.06179 0.03125-0.09375 0.06858-0.23164 0.13273-0.46465 0.21875-0.6875 0.005-0.01281 0.02624-0.01847 0.03125-0.03125 0.01237-0.0307 0.01858-0.06322 0.03125-0.09375 0.08547-0.21162 0.18061-0.42225 0.28125-0.625 0.01664-0.03351 0.04546-0.06049 0.0625-0.09375 0.39756-0.76555 0.88712-1.4807 1.4688-2.0938 0.02078-0.02164 0.0415-0.04108 0.0625-0.0625 0.10097-0.1044 0.20671-0.21326 0.3125-0.3125 0.03832-0.03522 0.08605-0.05921 0.125-0.09375 0.05046-0.04479 0.10474-0.08137 0.15625-0.125 0.03299-0.0286 0.06035-0.06564 0.09375-0.09375 0.05091-0.04184 0.10438-0.08429 0.15625-0.125 0.02933-0.02357 0.06412-0.03931 0.09375-0.0625 0.08731-0.06661 0.1601-0.15537 0.25-0.21875 0.11744-0.08301 0.25329-0.14141 0.375-0.21875 0.03207-0.02033 0.06139-0.04257 0.09375-0.0625 0.14289-0.08826 0.28915-0.16975 0.4375-0.25 0.27354-0.14669 0.55312-0.28801 0.84375-0.40625 0.08184-0.03334 0.16689-0.06276 0.25-0.09375 0.18365-0.06879 0.37295-0.13048 0.5625-0.1875 0.09432-0.02824 0.18554-0.0685 0.28125-0.09375 0.05992-0.01592 0.12705-0.01652 0.1875-0.03125 0.02187-0.0053 0.04056-0.02608 0.0625-0.03125 0.0829-0.01955 0.16615-0.01397 0.25-0.03125 0.02218-0.0046 0.04026-0.02682 0.0625-0.03125 0.01028-0.002 0.02096 0.002 0.03125 0 0.25332-0.04958 0.48878-0.09656 0.75-0.125 0.21413-0.02333 0.43734-0.02269 0.65625-0.03125z"/>
   <path id="path3974" style="color:#000000;fill:url(#linearGradient14792)" d="m48 20.547c-7.43 0-13.453 6.023-13.453 13.453v12c0 7.4296 6.0235 13.453 13.453 13.453 7.4296 0 13.453-6.0235 13.453-13.453v-12c0-7.43-6.023-13.453-13.453-13.453zm0 4.5c5.0242 0 8.9531 3.9289 8.9531 8.9531v12c0 5.0242-3.9289 8.9531-8.9531 8.9531s-8.9531-3.9289-8.9531-8.9531v-12c0-5.0242 3.9289-8.9531 8.9531-8.9531z"/>
   <path id="rect3985" style="opacity:.1;color:#000000" d="m48 23.5c-5.817 0-10.5 4.683-10.5 10.5v18c0 0.99283 0.16668 1.9503 0.42188 2.8594 2.4658 2.8111 6.0452 4.5938 10.078 4.5938 4.0329 0 7.6123-1.7826 10.078-4.5938 0.255-0.909 0.422-1.866 0.422-2.859v-18c0-5.817-4.683-10.5-10.5-10.5zm0 1.5469c5.0242 0 8.9531 3.9289 8.9531 8.9531v12c0 5.0242-3.9289 8.9531-8.9531 8.9531s-8.9531-3.9289-8.9531-8.9531v-12c0-5.0242 3.9289-8.9531 8.9531-8.9531z"/>
   <path id="path3993" style="opacity:.2;color:#000000" transform="matrix(1.4328 0 0 1.4814 -20.776 -13.095)" d="m48 25.312c-3.7028 0-6.6875 2.9847-6.6875 6.6875v12c0 0.59376 0.13129 1.1617 0.28125 1.7188 1.584 1.7785 3.8381 2.9375 6.4062 2.9375s4.8223-1.159 6.4062-2.9375c0.15-0.557 0.282-1.125 0.282-1.719v-12c0-3.7028-2.9847-6.6875-6.6875-6.6875zm0 0.40625c3.5197 0 6.2812 2.7616 6.2812 6.2812v8c0 3.5197-2.7616 6.2812-6.2812 6.2812-3.5197 0-6.2812-2.7616-6.2812-6.2812v-8c0-3.5197 2.7616-6.2812 6.2812-6.2812z"/>
   <path id="path3995" style="opacity:.2;color:#000000;fill:url(#linearGradient14794)" d="m48 20.547c-7.43 0-13.453 6.023-13.453 13.453v12c0 7.2052 5.6782 13.057 12.797 13.406-6.784-0.678-12.094-6.36-12.094-13.218v-11.812c0-7.3157 6.0235-13.219 13.453-13.219 2.9423 0 5.6606 0.9064 7.875 2.4844-2.325-1.92-5.328-3.094-8.578-3.094zm5.7656 6.5156c1.9661 1.629 3.1875 4.1243 3.1875 6.9375v12c0 5.0242-3.9289 8.9531-8.9531 8.9531-0.26703 0-0.53646-0.02511-0.79688-0.04687 0.48679 0.07758 0.9874 0.09375 1.5 0.09375 5.0242 0 8.9531-3.8654 8.9531-8.8125v-11.812c0-3.092-1.513-5.7443-3.8906-7.3125z"/>
   <path id="path4013" style="opacity:.1;color:#000000" d="m48 20.547c-7.43 0-13.453 6.023-13.453 13.453v12h1.1719v-12c0-7.2217 5.702-13.129 12.844-13.453-0.18996-0.008-0.37058 0-0.5625 0z"/>
   <path id="path4024" style="opacity:.15;color:#000000;fill:url(#linearGradient14796)" d="m48 20.547c-0.25644 0-0.4971 0.03271-0.75 0.04687 7.074 0.396 12.703 6.233 12.703 13.406v12c0 7.1732-5.6289 13.01-12.703 13.406 0.2529 0.0141 0.49356 0.04687 0.75 0.04687 7.4296 0 13.453-6.0235 13.453-13.453v-12c0-7.43-6.023-13.453-13.453-13.453zm-1.5 4.5c-5.0242 0-8.9531 3.9289-8.9531 8.9531v12c0 5.0242 3.9289 8.9531 8.9531 8.9531 0.18872 0 0.37702-0.03594 0.5625-0.04687-4.572-0.45-8.016-4.196-8.016-8.906v-12c0-4.7102 3.4442-8.4562 8.0156-8.9062-0.186-0.011-0.374-0.047-0.563-0.047z"/>
   <path id="path4041" style="opacity:.2;color:#000000" d="m47.625 20.547c7.231 0.227 13.031 6.167 13.031 13.453v12c0 7.2857-5.8007 13.226-13.031 13.453 0.12708 0.0036 0.24705 0 0.375 0 7.4296 0 13.453-6.0235 13.453-13.453v-12c0-7.43-6.023-13.453-13.453-13.453-0.12795 0-0.24791-0.0036-0.375 0zm-0.42188 4.5c-5.024 0-8.953 3.929-8.953 8.953v12c0 5.0242 3.9289 8.9531 8.9531 8.9531 0.14096 0 0.28271 0.0062 0.42188 0-4.844-0.189-8.578-4.054-8.578-8.953v-12c0-4.8989 3.7342-8.7638 8.5781-8.9531-0.13917-0.0061-0.28092 0-0.42188 0z"/>
   <path id="rect4052" style="opacity:.3;block-progression:tb;text-indent:0;color:#000000;text-transform:none;fill:#fff" d="m47.953 22.75 1.1719 0.04687h0.04687l1.0781 0.1875h0.04687l1.0312 0.28125h0.04687l0.98438 0.32812 0.04687 0.04687 0.9375 0.42188 0.04687 0.04687 0.89062 0.51562 0.04687 0.04687 0.23438 0.1875 0.703 0.14 0.468-0.516-0.14-0.703-0.141-0.093-0.281-0.235-0.047-0.047-0.984-0.609-0.094-0.047-1.0312-0.46875-0.09375-0.04687-1.0781-0.42188h-0.09375l-1.125-0.28125-0.09375-0.04687-1.1719-0.1875h-0.09375l-1.2188-0.04687c-1.4345-0.10008-1.7284 1.6334-0.09375 1.5zm-6 0-0.09375 0.04687-0.98438 0.60938-0.04687 0.04687-0.9375 0.65625-0.04687 0.04687l-0.843 0.797-0.047 0.047-0.79688 0.84375-0.04687 0.04687-0.65625 0.9375-0.04687 0.04687-0.60938 0.98438-0.04687 0.09375-0.42188 0.9375v0.70312l0.60938 0.375 0.65625-0.28125 0.09375-0.1875 0.375-0.84375 0.04687-0.04687 0.51562-0.89062 0.04687-0.04687 0.60938-0.79688 0.04687-0.04687 0.70312-0.75h0.04687v-0.04687l0.75-0.70312 0.04687-0.04687 0.79688-0.60938 0.04687-0.04687 0.89062-0.51562 0.04687-0.04687 0.89062-0.375c1.067-0.701-0.047-1.688-0.656-1.36z"/>
   <path id="path4061" style="opacity:.6;block-progression:tb;text-indent:0;color:#000000;text-transform:none;fill:#fff" transform="matrix(1.5,0,0,1.5,-24,-14)" d="m48.031 23.688c-0.3993-0.02786-0.5759 0.19484-0.59375 0.34375-0.0089 0.07446-0.0071 0.13251 0.0625 0.1875 0.06958 0.05499 0.19869 0.11324 0.4375 0.09375a0.1949 0.1949 0 0 1 0.03125 0l0.78125 0.03125h0.03125a0.1949 0.1949 0 0 1 0.03125 0l0.6875 0.125h0.03125a0.1949 0.1949 0 0 1 0.03125 0 0.1949 0.1949 0 0 1 0.03125 0l0.625 0.1875h0.0625a0.1949 0.1949 0 0 1 0.03125 0l0.65625 0.21875a0.1949 0.1949 0 0 1 0.0625 0.03125l0.625 0.28125a0.1949 0.1949 0 0 1 0.03125 0.03125 0.1949 0.1949 0 0 1 0 0.03125l0.03125 0.03125 0.5625 0.3125a0.1949 0.1949 0 0 1 0.03125 0 0.1949 0.1949 0 0 1 0 0.03125h0.03125l0.125 0.09375 0.033 0.031 0.25 0.03125 0.1875-0.1875-0.0625-0.3125a0.1949 0.1949 0 0 1 -0.03125 0l-0.188-0.156a0.1949 0.1949 0 0 1 0 -0.03125l-0.031-0.032-0.625-0.374v0.031l-0.062-0.031-0.688-0.313-0.03125-0.03125h-0.03125l-0.688-0.282a0.1949 0.1949 0 0 1 -0.03125 0 0.1949 0.1949 0 0 1 -0.03125 0l-0.75-0.1875a0.1949 0.1949 0 0 1 -0.03125 0l-0.0625-0.03125-0.6875-0.125h-0.03125-0.03125l-0.8125-0.03125zm-3.343 0.687a0.1949 0.1949 0 0 1 0 0.03125l-0.626 0.282-0.062 0.031v-0.03125l-0.625 0.375-0.03125 0.03125a0.1949 0.1949 0 0 1 0 0.03125l-0.625 0.4375h-0.03125a0.1949 0.1949 0 0 1 0 0.03125l-0.563 0.532-0.531 0.563a0.1949 0.1949 0 0 1 -0.03125 0v0.03125l-0.4375 0.625a0.1949 0.1949 0 0 1 -0.03125 0l-0.033 0.031-0.374 0.625h0.03125l-0.03125 0.0625-0.28125 0.625v0.28125l0.21875 0.125 0.28125-0.125 0.03125-0.0625 0.25-0.5625a0.1949 0.1949 0 0 1 0.03125 -0.03125 0.1949 0.1949 0 0 1 0.03125 0l0.03125-0.03125 0.3125-0.5625a0.1949 0.1949 0 0 1 0 -0.03125 0.1949 0.1949 0 0 1 0.03125 0v-0.03125l0.40625-0.53125a0.1949 0.1949 0 0 1 0.03125 0v-0.03125l0.46875-0.46875a0.1949 0.1949 0 0 1 0 -0.03125 0.1949 0.1949 0 0 1 0.03125 -0.03125 0.1949 0.1949 0 0 1 0.03125 0 0.1949 0.1949 0 0 1 0 -0.03125h0.03125l0.46875-0.46875h0.03125a0.1949 0.1949 0 0 1 0 -0.03125l0.53125-0.40625h0.03125a0.1949 0.1949 0 0 1 0.03125 -0.03125l0.5625-0.3125 0.03-0.032a0.1949 0.1949 0 0 1 0.0625 -0.0625l0.5625-0.21875c0.02063-0.01354 0.01444-0.01822 0.03125-0.03125 0.10328-0.08006 0.14581-0.16503 0.15625-0.21875 0.01214-0.06247-0.01479-0.12428-0.0625-0.1875s-0.1107-0.13087-0.1875-0.15625-0.14368-0.0236-0.1875 0z"/>
   <rect id="rect3138" style="color:#000000;fill:url(#linearGradient14798)" rx="1.5" ry="1.5" height="9" width="36" y="43" x="30"/>
   <path id="rect3148" style="opacity:.3;color:#000000;fill:#fff" d="m31.5 43c-0.831 0-1.5 0.669-1.5 1.5v1.5c0-0.831 0.669-1.5 1.5-1.5h33c0.831 0 1.5 0.669 1.5 1.5v-1.5c0-0.831-0.669-1.5-1.5-1.5h-33z"/>
   <path id="rect3921" style="opacity:.15;color:#000000;fill:#a05a2c" d="m30 49v1.5c0 0.831 0.669 1.5 1.5 1.5h33c0.831 0 1.5-0.669 1.5-1.5v-1.5c0 0.831-0.669 1.5-1.5 1.5h-33c-0.831 0-1.5-0.669-1.5-1.5z"/>
   <rect id="rect3939" style="color:#000000;fill:url(#linearGradient14800)" rx="1.5" ry="1.5" height="9" width="36" y="52" x="30"/>
   <path id="path3941" style="opacity:.3;color:#000000;fill:#fff" d="m31.5 52c-0.831 0-1.5 0.669-1.5 1.5v1.5c0-0.831 0.669-1.5 1.5-1.5h33c0.831 0 1.5 0.669 1.5 1.5v-1.5c0-0.831-0.669-1.5-1.5-1.5h-33z"/>
   <path id="path3943" style="opacity:.15;color:#000000;fill:#a05a2c" d="m30 58v1.5c0 0.831 0.669 1.5 1.5 1.5h33c0.831 0 1.5-0.669 1.5-1.5v-1.5c0 0.831-0.669 1.5-1.5 1.5h-33c-0.831 0-1.5-0.669-1.5-1.5z"/>
   <rect id="rect3947" style="color:#000000;fill:url(#linearGradient14802)" rx="1.5" ry="1.5" height="9" width="36" y="61" x="30"/>
   <path id="path3949" style="opacity:.3;color:#000000;fill:#fff" d="m31.5 61c-0.831 0-1.5 0.669-1.5 1.5v1.5c0-0.831 0.669-1.5 1.5-1.5h33c0.831 0 1.5 0.669 1.5 1.5v-1.5c0-0.831-0.669-1.5-1.5-1.5h-33z"/>
   <path id="path3952" style="opacity:.15;color:#000000;fill:#a05a2c" d="m30 67v1.5c0 0.831 0.669 1.5 1.5 1.5h33c0.831 0 1.5-0.669 1.5-1.5v-1.5c0 0.831-0.669 1.5-1.5 1.5h-33c-0.831 0-1.5-0.669-1.5-1.5z"/>
  </g>
 </g>
</svg>
