<?xml version="1.0" encoding="UTF-8" standalone="no"?>
<!-- Created with Inkscape (http://www.inkscape.org/) -->
<svg id="svg2" xmlns:rdf="http://www.w3.org/1999/02/22-rdf-syntax-ns#" xmlns="http://www.w3.org/2000/svg" xmlns:osb="http://www.openswatchbook.org/uri/2009/osb" height="24" width="24" version="1.1" xmlns:cc="http://creativecommons.org/ns#" xmlns:xlink="http://www.w3.org/1999/xlink" xmlns:dc="http://purl.org/dc/elements/1.1/">
 <defs id="defs4">
  <linearGradient id="linearGradient836" y2="1030.2" gradientUnits="userSpaceOnUse" y1="1038.6" gradientTransform="matrix(2.1716 0 0 2.1716 19.342 -1205.8)" x2="-3.3402" x1="-3.3402">
   <stop id="stop832" style="stop-color:#0080c7" offset="0"/>
   <stop id="stop834" style="stop-color:#0799f0" offset="1"/>
  </linearGradient>
  <filter id="filter3174-3" color-interpolation-filters="sRGB">
   <feGaussianBlur id="feGaussianBlur3176-6" stdDeviation="1.71"/>
  </filter>
  <filter id="filter3794-6" height="1.384" width="1.384" color-interpolation-filters="sRGB" y="-.192" x="-.192">
   <feGaussianBlur id="feGaussianBlur3796-9" stdDeviation="5.28"/>
  </filter>
  <clipPath id="clipPath4355-3">
   <rect id="rect4357-1" style="fill:#fff" rx="6" ry="6" height="80" width="84" y="6" x="6"/>
  </clipPath>
  <linearGradient id="ButtonShadow" y2="7.0165" gradientUnits="userSpaceOnUse" x2="45.448" gradientTransform="scale(1.0059 .99417)" y1="92.54" x1="45.448">
   <stop id="stop3750" offset="0"/>
   <stop id="stop3752" style="stop-opacity:.58824" offset="1"/>
  </linearGradient>
  <filter id="filter3174" color-interpolation-filters="sRGB">
   <feGaussianBlur id="feGaussianBlur3176" stdDeviation="1.71"/>
  </filter>
  <filter id="filter3794" height="1.384" width="1.384" color-interpolation-filters="sRGB" y="-.192" x="-.192">
   <feGaussianBlur id="feGaussianBlur3796" stdDeviation="5.28"/>
  </filter>
  <linearGradient id="linearGradient3613" y2="138.66" gradientUnits="userSpaceOnUse" x2="48" y1="20.221" x1="48">
   <stop id="stop3739" style="stop-color:#fff" offset="0"/>
   <stop id="stop3741" style="stop-color:#fff;stop-opacity:0" offset="1"/>
  </linearGradient>
  <clipPath id="clipPath4355">
   <rect id="rect4357" style="fill:#fff" rx="6" ry="6" height="80" width="84" y="6" x="6"/>
  </clipPath>
  <filter id="filter7554" color-interpolation-filters="sRGB">
   <feBlend id="feBlend7556" mode="darken" in2="BackgroundImage"/>
  </filter>
 </defs>
 <metadata id="metadata7">
  <rdf:RDF>
   <cc:Work rdf:about="">
    <dc:format>image/svg+xml</dc:format>
    <dc:type rdf:resource="http://purl.org/dc/dcmitype/StillImage"/>
    <dc:title/>
   </cc:Work>
  </rdf:RDF>
 </metadata>
 <g id="layer1" transform="translate(0 -1028.4)">
  <rect id="rect846" style="fill-opacity:.094118" ry="1.6409" height="20" width="20" y="1030.4" x="2"/>
  <rect id="rect844" style="fill-opacity:.17647" ry="1.5874" height="19.349" width="19.349" y="1030.7" x="2.3257"/>
  <rect id="rect838" style="fill-opacity:.35294" ry="1.534" height="18.697" width="18.697" y="1031" x="2.6515"/>
  <rect id="rect848" style="fill-opacity:.42672" ry="1.5153" height="18.469" width="18.469" y="1031.1" x="2.7654"/>
  <rect id="rect828" style="fill:url(#linearGradient836)" ry="1.4805" height="18.046" width="18.046" y="1031.3" x="2.9772"/>
  <g id="layer2" style="display:none" transform="translate(-98.892 990.51)">
   <rect id="rect3745" style="opacity:.9;filter:url(#filter3174);fill:url(#ButtonShadow)" rx="6" ry="6" height="85" width="86" y="7" x="5"/>
  </g>
  <g id="layer5" style="display:none" transform="translate(-98.892 990.51)">
   <rect id="rect3171" style="opacity:.1;filter:url(#filter3794);stroke:#fff;stroke-linecap:round;stroke-width:.5;fill:url(#linearGradient3613)" clip-path="url(#clipPath4355)" rx="12" ry="12" height="62" width="66" y="15" x="15"/>
  </g>
  <g id="layer2-5" style="fill:#4d4d4d;display:none" transform="translate(-98.988 998.85)">
   <rect id="rect3745-7" style="opacity:.9;filter:url(#filter3174-3);fill:#4d4d4d" rx="6" ry="6" height="85" width="86" y="7" x="5"/>
  </g>
  <g id="layer5-1" style="fill:#4d4d4d;display:none" transform="translate(-98.988 998.85)">
   <rect id="rect3171-6" style="opacity:.1;filter:url(#filter3794-6);stroke:#fff;stroke-linecap:round;stroke-width:.5;fill:#4d4d4d" clip-path="url(#clipPath4355-3)" rx="12" ry="12" height="62" width="66" y="15" x="15"/>
  </g>
  <g id="layer1-0" style="fill:#fff" transform="matrix(1.0769 0 0 1.0769 -350.93 454.66)">
   <path id="rect4170" style="fill:#fff" d="m9 11h1v-7h2v7h1v-2.5-4.5-1h-4v1 4.5zm-2.2422-0.656-0.707 0.707 4.9492 4.949 4.949-4.949-0.707-0.707-4.242 4.242z" transform="translate(326 534.36)"/>
  </g>
 </g>
</svg>
