<?xml version="1.0" encoding="UTF-8" standalone="no"?>
<!-- Created with Inkscape (http://www.inkscape.org/) -->
<svg id="svg2" xmlns:rdf="http://www.w3.org/1999/02/22-rdf-syntax-ns#" xmlns="http://www.w3.org/2000/svg" height="24" width="24" version="1.1" xmlns:cc="http://creativecommons.org/ns#" xmlns:xlink="http://www.w3.org/1999/xlink" xmlns:dc="http://purl.org/dc/elements/1.1/">
 <defs id="defs4">
  <linearGradient id="linearGradient836" y2="1030.2" gradientUnits="userSpaceOnUse" y1="1038.6" gradientTransform="matrix(2.1716 0 0 2.1716 19.342 -1205.8)" x2="-3.3402" x1="-3.3402">
   <stop id="stop832" style="stop-color:#007fc6" offset="0"/>
   <stop id="stop834" style="stop-color:#079af2" offset="1"/>
  </linearGradient>
 </defs>
 <metadata id="metadata7">
  <rdf:RDF>
   <cc:Work rdf:about="">
    <dc:format>image/svg+xml</dc:format>
    <dc:type rdf:resource="http://purl.org/dc/dcmitype/StillImage"/>
    <dc:title/>
   </cc:Work>
  </rdf:RDF>
 </metadata>
 <g id="layer1" transform="translate(0 -1028.4)">
  <rect id="rect846" style="fill-opacity:.094118" ry="1.6409" height="20" width="20" y="1030.4" x="2"/>
  <rect id="rect844" style="fill-opacity:.17647" ry="1.5874" height="19.349" width="19.349" y="1030.7" x="2.3257"/>
  <rect id="rect838" style="fill-opacity:.35294" ry="1.534" height="18.697" width="18.697" y="1031" x="2.6515"/>
  <rect id="rect848" style="fill-opacity:.42672" ry="1.5153" height="18.469" width="18.469" y="1031.1" x="2.7654"/>
  <rect id="rect828" style="fill:url(#linearGradient836)" ry="1.4805" height="18.046" width="18.046" y="1031.3" x="2.9772"/>
  <path id="path208" d="m10.256 1045.6c0.33324-0.1761 0.36677-0.4024 0.66899-0.415 0.3454-0.017 0.62708-0.1342 1.0156-0.218 0.34539-0.08 0.96408-0.4276 1.5086-0.4737 0.45773-0.038 1.3636 0.025 1.6071 0.4695-0.87731 0.5785-1.9282 0.9223-3.0561 0.9223-0.609 0-1.194-0.1-1.744-0.3zm0.98168-10.749c-0.13287 0.2557-0.48203 0.3647-0.69455 0.5576-0.46317 0.4192-0.66228 0.3605-0.91127 0.763-0.25065 0.4024-1.0605 0.981-1.0605 1.2702 0 0.2935 0.4091 0.633 0.61366 0.5701 0.20414-0.071 0.74318-0.067 1.0601 0.046 0.31688 0.1132 2.6504 0.2263 1.9068 2.1966-0.23558 0.6289-1.2676 0.5199-1.5425 1.5596-0.04067 0.1509-0.18402 0.8048-0.19366 1.0145-0.01593 0.3312 0.23306 1.5721-0.08384 1.5721-0.31982 0-1.177-1.111-1.177-1.3122 0-0.2013-0.22299-0.9055-0.22299-1.5092s-1.0265-0.5953-1.0265-1.396c0-0.7253 0.55665-1.0858 0.43174-1.4337-0.12282-0.3438-1.102-0.3564-1.5098-0.3983 0.712-1.9 2.3895-3.3 4.4103-3.5zm6.3064 5.4876c0 1.2702-0.43048 2.4398-1.1485 3.3747-0.20288-0.1593-0.41958-0.5911-0.21628-1.0313 0.20412-0.4485 0.25861-1.484 0.2125-1.8864-0.0461-0.4025-0.25443-1.3709-0.82366-1.3793-0.56587-0.01-0.9557-0.197-1.2931-0.8678-0.7-1.4001 1.3137-1.6727 0.61366-2.4482-0.19658-0.218-1.2068 0.8971-1.3556-0.5869-0.0096-0.1048 0.09222-0.2641 0.2276-0.4276 2.196 0.7 3.783 2.8 3.783 5.3zm-5.5439-6.4979c-3.5843 0-6.5 2.9136-6.5 6.4979s2.9157 6.5021 6.5 6.5021 6.5-2.9178 6.5-6.5021-2.9157-6.4979-6.5-6.4979" style="fill:#fff"/>
 </g>
</svg>
