<?xml version="1.0" encoding="UTF-8" standalone="no"?>
<!-- Created with Inkscape (http://www.inkscape.org/) -->
<svg id="svg3449" xmlns:rdf="http://www.w3.org/1999/02/22-rdf-syntax-ns#" xmlns="http://www.w3.org/2000/svg" height="128" width="128" version="1.0" xmlns:cc="http://creativecommons.org/ns#" xmlns:xlink="http://www.w3.org/1999/xlink" xmlns:dc="http://purl.org/dc/elements/1.1/">
 <metadata id="metadata56">
  <rdf:RDF>
   <cc:Work rdf:about="">
    <dc:format>image/svg+xml</dc:format>
    <dc:type rdf:resource="http://purl.org/dc/dcmitype/StillImage"/>
    <dc:title/>
   </cc:Work>
  </rdf:RDF>
 </metadata>
 <defs id="defs3451">
  <linearGradient id="linearGradient3514" y2="-9.1034" gradientUnits="userSpaceOnUse" x2="66.492" gradientTransform="matrix(.96826 0 0 .97948 2.179 .16587)" y1="-42.638" x1="67.952">
   <stop id="stop4620" style="stop-color:#37414b" offset="0"/>
   <stop id="stop4622" style="stop-color:#37414b;stop-opacity:0" offset="1"/>
  </linearGradient>
  <linearGradient id="linearGradient3516" y2="-11.847" gradientUnits="userSpaceOnUse" x2="58.98" gradientTransform="matrix(.96826 0 0 .97948 2.179 .16587)" y1="-118.55" x1="57.173">
   <stop id="stop4596" offset="0"/>
   <stop id="stop4598" style="stop-opacity:0" offset="1"/>
  </linearGradient>
  <linearGradient id="linearGradient3519" y2="50.369" gradientUnits="userSpaceOnUse" x2="76.558" gradientTransform="matrix(.96826 0 0 .97948 3.2423 -129.19)" y1="13.164" x1="76.558">
   <stop id="stop3392" style="stop-color:#425e7b" offset="0"/>
   <stop id="stop3394" style="stop-color:#7a91a7" offset="1"/>
  </linearGradient>
  <linearGradient id="linearGradient3521" y2="-8.7399" gradientUnits="userSpaceOnUse" x2="60.217" gradientTransform="matrix(.96826 0 0 .97948 2.179 .16587)" y1="-123.72" x1="60.395">
   <stop id="stop3392-4-8" style="stop-color:#425e7b" offset="0"/>
   <stop id="stop3394-8-0" style="stop-color:#7a91a7" offset="1"/>
  </linearGradient>
  <radialGradient id="radialGradient3349" gradientUnits="userSpaceOnUse" cy="45.647" cx="42.148" gradientTransform="matrix(.94690 -.033779 .040605 1.1383 1.7419 -28.433)" r="58.984">
   <stop id="stop7563" style="stop-color:#7cc94f" offset="0"/>
   <stop id="stop7565" style="stop-color:#589b32" offset="1"/>
  </radialGradient>
  <filter id="filter3174-5" color-interpolation-filters="sRGB">
   <feGaussianBlur id="feGaussianBlur3176-4" stdDeviation="1.71"/>
  </filter>
  <linearGradient id="ButtonShadow-4" x1="45.448" gradientUnits="userSpaceOnUse" y1="92.54" gradientTransform="scale(1.0059 .99417)" x2="45.448" y2="7.0165">
   <stop id="stop3750-3" offset="0"/>
   <stop id="stop3752-57" style="stop-opacity:.58824" offset="1"/>
  </linearGradient>
  <filter id="filter3174-0" color-interpolation-filters="sRGB">
   <feGaussianBlur id="feGaussianBlur3176-9" stdDeviation="1.71"/>
  </filter>
  <filter id="filter3174-7" color-interpolation-filters="sRGB">
   <feGaussianBlur id="feGaussianBlur3176-7" stdDeviation="1.71"/>
  </filter>
  <clipPath id="clipPath3613-9">
   <rect id="rect3615-2" style="fill:#fff" rx="6" ry="6" height="84" width="84" y="6" x="6"/>
  </clipPath>
  <linearGradient id="linearGradient3613-3" x1="48" gradientUnits="userSpaceOnUse" y1="20.221" x2="48" y2="138.66">
   <stop id="stop3739-03" style="stop-color:#fff" offset="0"/>
   <stop id="stop3741-5" style="stop-color:#fff;stop-opacity:0" offset="1"/>
  </linearGradient>
  <filter id="filter3794-30" height="1.384" width="1.384" color-interpolation-filters="sRGB" y="-.192" x="-.192">
   <feGaussianBlur id="feGaussianBlur3796-38" stdDeviation="5.28"/>
  </filter>
  <filter id="filter3174-8" color-interpolation-filters="sRGB">
   <feGaussianBlur id="feGaussianBlur3176-3" stdDeviation="1.71"/>
  </filter>
  <clipPath id="clipPath3613-26">
   <rect id="rect3615-4" style="fill:#fff" rx="6" ry="6" height="84" width="84" y="6" x="6"/>
  </clipPath>
  <filter id="filter3794-67" height="1.384" width="1.384" color-interpolation-filters="sRGB" y="-.192" x="-.192">
   <feGaussianBlur id="feGaussianBlur3796-4" stdDeviation="5.28"/>
  </filter>
  <filter id="filter3174-4" color-interpolation-filters="sRGB">
   <feGaussianBlur id="feGaussianBlur3176-0" stdDeviation="1.71"/>
  </filter>
  <filter id="filter3174-1" color-interpolation-filters="sRGB">
   <feGaussianBlur id="feGaussianBlur3176-1" stdDeviation="1.71"/>
  </filter>
  <linearGradient id="linearGradient9285" y2="7.0165" gradientUnits="userSpaceOnUse" x2="45.448" gradientTransform="matrix(1.0059 0 0 .99417 -59.657 2.8358)" y1="92.54" x1="45.448">
   <stop id="stop3750-7" offset="0"/>
   <stop id="stop3752-3" style="stop-opacity:.58824" offset="1"/>
  </linearGradient>
  <filter id="filter3174-06" color-interpolation-filters="sRGB">
   <feGaussianBlur id="feGaussianBlur3176-91" stdDeviation="1.71"/>
  </filter>
  <filter id="filter3174-45" color-interpolation-filters="sRGB">
   <feGaussianBlur id="feGaussianBlur3176-46" stdDeviation="1.71"/>
  </filter>
  <filter id="filter3174-17" color-interpolation-filters="sRGB">
   <feGaussianBlur id="feGaussianBlur3176-33" stdDeviation="1.71"/>
  </filter>
  <filter id="filter3174-2" color-interpolation-filters="sRGB">
   <feGaussianBlur id="feGaussianBlur3176-6" stdDeviation="1.71"/>
  </filter>
  <linearGradient id="linearGradient8327" y2="7.0165" gradientUnits="userSpaceOnUse" x2="45.448" gradientTransform="matrix(1.0059 0 0 .99417 199.61 15.454)" y1="92.54" x1="45.448">
   <stop id="stop3750-60" offset="0"/>
   <stop id="stop3752-38" style="stop-opacity:.58824" offset="1"/>
  </linearGradient>
  <filter id="filter3174-54" color-interpolation-filters="sRGB">
   <feGaussianBlur id="feGaussianBlur3176-69" stdDeviation="1.71"/>
  </filter>
  <linearGradient id="linearGradient8554" y2="7.0165" gradientUnits="userSpaceOnUse" x2="45.448" gradientTransform="matrix(1.0059 0 0 .99417 -111.8 8.6962)" y1="92.54" x1="45.448">
   <stop id="stop3750-62" offset="0"/>
   <stop id="stop3752-52" style="stop-opacity:.58824" offset="1"/>
  </linearGradient>
  <filter id="filter3174-24" color-interpolation-filters="sRGB">
   <feGaussianBlur id="feGaussianBlur3176-64" stdDeviation="1.71"/>
  </filter>
  <linearGradient id="linearGradient8844" y2="7.0165" gradientUnits="userSpaceOnUse" x2="45.448" gradientTransform="matrix(1.0059 0 0 .99417 -182.89 .27657)" y1="92.54" x1="45.448">
   <stop id="stop3750-9" offset="0"/>
   <stop id="stop3752-48" style="stop-opacity:.58824" offset="1"/>
  </linearGradient>
  <style id="style1246" type="text/css">.fil0 {fill:#1F1A17}</style>
  <style id="style1115" type="text/css">.fil0 {fill:#1F1A17}</style>
  <linearGradient id="linearGradient4169">
   <stop id="stop4171" style="stop-color:#e2f4c4" offset="0"/>
   <stop id="stop4173" style="stop-color:#fdfff5" offset="1"/>
  </linearGradient>
  <linearGradient id="linearGradient5814" y2="2.0118" xlink:href="#linearGradient4169" gradientUnits="userSpaceOnUse" x2="10.41" gradientTransform="matrix(6.7375 0 0 6.7375 307.32 -97.982)" y1="13.991" x1="10.41"/>
  <linearGradient id="linearGradient6742">
   <stop id="stop6744" style="stop-color:#292a2a" offset="0"/>
   <stop id="stop6746" style="stop-color:#0d0d0d" offset="1"/>
  </linearGradient>
  <linearGradient id="linearGradient6754">
   <stop id="stop6756" style="stop-color:#fff" offset="0"/>
   <stop id="stop6758" style="stop-color:#fff;stop-opacity:0" offset="1"/>
  </linearGradient>
  <radialGradient id="radialGradient5879" xlink:href="#linearGradient6742" gradientUnits="userSpaceOnUse" cy="521.37" cx="400.7" gradientTransform="translate(.00015043)" r="15.4"/>
  <radialGradient id="radialGradient5881" xlink:href="#linearGradient6754" gradientUnits="userSpaceOnUse" cy="515.46" cx="402.67" gradientTransform="matrix(.96272 0 0 .98283 15.23 8.2419)" r="14.4"/>
  <radialGradient id="radialGradient5883" xlink:href="#linearGradient6754" gradientUnits="userSpaceOnUse" cy="515.46" cx="402.67" gradientTransform="matrix(.094893 .23365 -.20267 .082309 347.81 451.03)" r="14.4"/>
  <radialGradient id="radialGradient5885" xlink:href="#linearGradient6754" gradientUnits="userSpaceOnUse" cy="515.46" cx="402.67" gradientTransform="matrix(.067261 .16562 -.14365 .058342 392.62 455.1)" r="14.4"/>
  <radialGradient id="radialGradient5887" xlink:href="#linearGradient6754" gradientUnits="userSpaceOnUse" cy="509.22" cx="403.51" gradientTransform="matrix(2.5271 0 0 2.5799 -783.6 -1288.3)" r="14.4"/>
  <linearGradient id="linearGradient5889" y2="520.16" xlink:href="#linearGradient6742" gradientUnits="userSpaceOnUse" x2="408.6" y1="527.33" x1="408.6"/>
 </defs>
 <rect id="rect892-2-7-2" ry="29.452" style="stroke:#d3d3d3;stroke-width:9.8448;fill:#37414b" transform="scale(1,-1)" height="116.16" width="116.08" y="-122.08" x="5.9224"/>
 <rect id="rect892" style="stroke:url(#linearGradient3521);stroke-width:.97385;fill:url(#linearGradient3519)" transform="scale(1,-1)" ry="29.296" height="115.54" width="114.22" y="-122.25" x="7.0394"/>
 <rect id="rect892-2" style="stroke:url(#linearGradient3516);stroke-width:.97385;fill:url(#linearGradient3514)" transform="scale(1,-1)" ry="28.993" height="114.35" width="114.22" y="-121.46" x="7.0599"/>
 <path id="rect895" style="fill:url(#radialGradient3349)" d="m30.571 7.0104c-13.128 0.936-22.55 15.04-23.173 23.288-0.050142 0.97378-0.088772 1.9648-0.088772 2.9572v58.419c0 15.229 11.191 27.859 22.318 27.859h67.038c15.69 0 24.318-16.445 24.318-25.859v-64.017c-0.21-5.933-12.29-21.682-25.926-22.618-47.846 0.8653-20.497-0.0256-64.483-0.0256z"/>
 <rect id="rect892-2-7-8" style="opacity:.15891;stroke:#000;stroke-width:4.8445;fill:none" transform="scale(1,-1)" ry="28.993" height="114.35" width="114.22" y="-121.16" x="6.8683"/>
 <rect id="rect892-2-7-1" style="opacity:.15891;stroke:#000;stroke-width:7.7512;fill:none" transform="scale(1,-1)" ry="28.993" height="114.35" width="114.22" y="-121.16" x="6.8686"/>
 <rect id="rect892-2-7-2-9" ry="28.067" style="stroke:#000;stroke-width:1.0489;fill:none" transform="scale(1,-1)" height="112.71" width="114.14" y="-120.31" x="7.0644"/>
 <g id="layer2" style="display:none" transform="translate(137.63 15.959)">
  <rect id="rect3745" style="opacity:.9;filter:url(#filter3174-5);fill:url(#ButtonShadow-4)" rx="6" ry="6" height="85" width="86" y="7" x="5"/>
 </g>
 <g id="layer2-3" style="display:none" transform="translate(146.29 14.997)">
  <rect id="rect3745-4" style="opacity:.9;filter:url(#filter3174-0);fill:url(#ButtonShadow-4)" rx="6" ry="6" height="85" width="86" y="7" x="5"/>
 </g>
 <g id="layer2-4" style="display:none" transform="translate(176.76 -8.736)">
  <rect id="rect3745-7" style="opacity:.9;filter:url(#filter3174-7);fill:url(#ButtonShadow-4)" rx="6" ry="6" height="85" width="86" y="7" x="5"/>
 </g>
 <g id="layer2-2" style="display:none" transform="translate(143.15 5.055)">
  <rect id="rect3745-9" style="opacity:.9;filter:url(#filter3174-8);fill:url(#ButtonShadow-4)" rx="6" ry="6" height="85" width="86" y="7" x="5"/>
 </g>
 <g id="layer5-4" style="display:none" transform="translate(143.15 5.055)">
  <rect id="rect3171-7" style="opacity:.3;filter:url(#filter3794-30);stroke:#fff;stroke-linecap:round;stroke-width:.5;fill:url(#linearGradient3613-3)" clip-path="url(#clipPath3613-9)" rx="12" ry="12" height="66" width="66" y="15" x="15"/>
 </g>
 <g id="layer2-1" style="display:none" transform="translate(160.47 -5.8175)">
  <rect id="rect3745-8" style="opacity:.9;filter:url(#filter3174-4);fill:url(#ButtonShadow-4)" rx="6" ry="6" height="85" width="86" y="7" x="5"/>
 </g>
 <g id="layer5-46" style="display:none" transform="translate(160.47 -5.8175)">
  <rect id="rect3171-2" style="opacity:.1;filter:url(#filter3794-67);stroke:#fff;stroke-linecap:round;stroke-width:.5;fill:url(#linearGradient3613-3)" clip-path="url(#clipPath3613-26)" rx="12" ry="12" height="66" width="66" y="15" x="15"/>
 </g>
 <rect id="rect3745-82" style="opacity:.9;filter:url(#filter3174-1);display:none;fill:url(#linearGradient9285)" rx="6" ry="6" height="85" width="86" y="9.8358" x="-54.657"/>
 <style id="style1470" type="text/css"/>
 <g id="layer2-9" style="display:none" transform="translate(-132.38 3.7839)">
  <rect id="rect3745-827" style="opacity:.9;filter:url(#filter3174-06);fill:url(#ButtonShadow-4)" rx="6" ry="6" height="85" width="86" y="7" x="5"/>
 </g>
 <rect id="rect3745-74" style="opacity:.9;filter:url(#filter3174-45);display:none;fill:url(#ButtonShadow-4)" transform="matrix(1.1352 0 0 1.3226 15.015 .16604)" rx="6" ry="6" height="85" width="86" y="7" x="5"/>
 <g id="layer2-7" style="display:none" transform="translate(10.047 -115.26)">
  <rect id="rect3745-93" style="opacity:.9;filter:url(#filter3174-17);fill:url(#ButtonShadow-4)" rx="6" ry="6" height="85" width="86" y="7" x="5"/>
 </g>
 <rect id="rect3745-85" style="opacity:.9;filter:url(#filter3174-2);display:none;fill:url(#linearGradient8327)" rx="6" ry="6" height="85" width="86" y="22.454" x="204.61"/>
 <rect id="rect3745-1" style="opacity:.9;filter:url(#filter3174-54);display:none;fill:url(#linearGradient8554)" rx="6" ry="6" height="85" width="86" y="15.696" x="-106.8"/>
 <rect id="rect3745-6" style="opacity:.9;filter:url(#filter3174-24);display:none;fill:url(#linearGradient8844)" rx="6" ry="6" height="85" width="86" y="7.2766" x="-177.89"/>
 <rect id="rect4898" style="fill:url(#linearGradient5814);display:none" height="148.22" width="148.22" y="-97.982" x="307.32"/>
 <rect id="rect4126" style="fill:url(#linearGradient5814);display:none" height="148.22" width="148.22" y="-97.982" x="307.32"/>
 <g id="g5866" transform="translate(-184.77 -3.3031)">
  <circle id="circle6818" style="fill-opacity:.058824" d="m 423.97144,524.99799 c 0,8.50518 -6.89481,15.4 -15.4,15.4 -8.50518,0 -15.4,-6.89482 -15.4,-15.4 0,-8.50519 6.89482,-15.4 15.4,-15.4 8.50519,0 15.4,6.89481 15.4,15.4 z" cx="408.57" transform="matrix(2.625 0 0 2.625 -823.58 -1310)" cy="525" r="15.4"/>
  <circle id="circle6816" style="fill-opacity:.11765" d="m 423.97144,524.5979 c 0,8.50519 -6.89481,15.4 -15.4,15.4 -8.50518,0 -15.4,-6.89481 -15.4,-15.4 0,-8.50518 6.89482,-15.4 15.4,-15.4 8.50519,0 15.4,6.89482 15.4,15.4 z" transform="matrix(2.625 0 0 2.625 -823.58 -1310)" cy="524.6" cx="408.57" r="15.4"/>
  <circle id="circle6812" style="fill-opacity:.23529" d="m 423.97144,524.198 c 0,8.50518 -6.89481,15.4 -15.4,15.4 -8.50518,0 -15.4,-6.89482 -15.4,-15.4 0,-8.50519 6.89482,-15.4 15.4,-15.4 8.50519,0 15.4,6.89481 15.4,15.4 z" cx="408.57" transform="matrix(2.625 0 0 2.625 -823.58 -1310)" cy="524.2" r="15.4"/>
  <circle id="path5295" style="fill:url(#radialGradient5879)" d="m 423.97144,523.79797 c 0,8.50519 -6.89481,15.4 -15.4,15.4 -8.50518,0 -15.4,-6.89481 -15.4,-15.4 0,-8.50518 6.89482,-15.4 15.4,-15.4 8.50519,0 15.4,6.89482 15.4,15.4 z" transform="matrix(2.625 0 0 2.625 -823.58 -1310)" cy="523.8" cx="408.57" r="15.4"/>
  <ellipse id="circle6750" style="opacity:0.17;fill:url(#radialGradient5881)" d="m 422.43466,523.04523 c 0,7.81633 -6.20678,14.15272 -13.86322,14.15272 -7.65644,0 -13.86321,-6.33639 -13.86321,-14.15272 0,-7.81634 6.20677,-14.15273 13.86321,-14.15273 7.65644,0 13.86322,6.33639 13.86322,14.15273 z" rx="13.863" transform="matrix(2.625 0 0 2.625 -823.58 -1310)" ry="14.153" cy="523.05" cx="408.57"/>
  <ellipse id="ellipse6764" style="opacity:0.17;fill:url(#radialGradient5883)" d="m 287.18652,589.36188 c 0,1.73966 -1.78772,3.14993 -3.99298,3.14993 -2.20526,0 -3.99297,-1.41027 -3.99297,-3.14993 0,-1.73966 1.78771,-3.14993 3.99297,-3.14993 2.20526,0 3.99298,1.41027 3.99298,3.14993 z" rx="3.993" transform="matrix(2.5631 -.56649 .56649 2.5631 -823.58 -1310)" ry="3.1499" cy="589.36" cx="283.19"/>
  <ellipse id="ellipse6768" style="opacity:0.34;fill:url(#radialGradient5885)" d="m 349.64517,553.151 c 0,1.23309 -1.26715,2.2327 -2.83026,2.2327 -1.56311,0 -2.83025,-0.99961 -2.83025,-2.2327 0,-1.23308 1.26714,-2.2327 2.83025,-2.2327 1.56311,0 2.83026,0.99962 2.83026,2.2327 z" rx="2.8303" ry="2.2327" transform="matrix(2.6106 -.27477 .27477 2.6106 -823.58 -1310)" cy="553.15" cx="346.81"/>
  <path id="ellipse6774" d="m248.92 25.871c-8.4496 0.0077-16.864 3.1354-23.34 8.6757-6.4764 5.5403-10.965 13.451-12.451 21.942 4.6588-0.23827 10.992-2.5882 17.175-6.9163 12.159-8.5116 26.747-6.9912 40.426 7.2961 6.1653 6.4393 12.832-5.3191 8.5518-14.289-6.5909-10.211-18.384-16.7-30.362-16.709z" style="opacity:0.17;fill:url(#radialGradient5887)"/>
  <rect id="rect6820" style="fill:#fff" ry="14.438" height="28.876" width="29.663" y="50.562" x="234.08"/>
  <g id="text6797" style="fill:url(#linearGradient5889)" transform="matrix(2.625 0 0 2.625 -823.58 -1310)">
   <path id="path6802" style="fill:url(#linearGradient5889)" d="m410.92 525.32q0 0.43945-0.1416 0.81055-0.13672 0.36621-0.4248 0.63476-0.28321 0.26856-0.72754 0.41993-0.44434 0.15136-1.0498 0.15136-0.60547 0-1.0498-0.15136-0.43945-0.15137-0.73242-0.41504-0.28809-0.26856-0.42969-0.63477-0.13672-0.37109-0.13672-0.80566 0-0.37598 0.1123-0.66895 0.11719-0.29297 0.30762-0.50293 0.19531-0.21484 0.43946-0.3418 0.24902-0.13183 0.51269-0.17578v-0.0195q-0.28809-0.0684-0.51758-0.21972-0.22461-0.15137-0.38086-0.36133-0.15136-0.21485-0.23437-0.47364-0.0781-0.25878-0.0781-0.54687 0-0.36133 0.13672-0.67871 0.1416-0.32227 0.41504-0.56152 0.27344-0.24415 0.67871-0.38086 0.40528-0.14161 0.9375-0.14161 0.56153 0 0.97168 0.14161 0.41504 0.1416 0.6836 0.38574 0.27343 0.23926 0.40527 0.56152 0.13183 0.32227 0.13183 0.6836 0 0.2832-0.083 0.54199-0.0781 0.25879-0.23438 0.47363-0.15137 0.20996-0.38086 0.36133-0.22461 0.14648-0.52246 0.20508v0.0195q0.29785 0.0488 0.55176 0.18066 0.25391 0.12696 0.43945 0.3418 0.18555 0.20996 0.29297 0.50293t0.10742 0.66406zm-1.084-3.2422q0-0.25879-0.0684-0.47363-0.0635-0.21484-0.21484-0.36621-0.15137-0.15625-0.39551-0.23926-0.24414-0.0879-0.60059-0.0879-0.34668 0-0.58594 0.0879-0.23925 0.083-0.3955 0.23926-0.15137 0.15137-0.21973 0.36621-0.0684 0.21484-0.0684 0.47363 0 0.20508 0.0537 0.41993 0.0537 0.21484 0.19531 0.39062t0.39063 0.28809q0.24902 0.1123 0.63965 0.1123 0.41504 0 0.66406-0.1123 0.25391-0.11231 0.38574-0.28809 0.13672-0.17578 0.17578-0.39062 0.0439-0.21485 0.0439-0.41993zm0.1709 3.1592q0-0.24902-0.0684-0.47851-0.0684-0.23438-0.23438-0.41016-0.16601-0.18066-0.44922-0.28808-0.27832-0.11231-0.69824-0.11231-0.38574 0-0.65918 0.11231-0.26855 0.10742-0.43945 0.28808-0.16602 0.18067-0.24414 0.41992-0.0781 0.23438-0.0781 0.48828 0 0.31739 0.0781 0.58106 0.0781 0.25879 0.24902 0.44922 0.1709 0.18554 0.44922 0.28808t0.67383 0.10254q0.40039 0 0.67383-0.10254 0.27343-0.10254 0.43945-0.28808 0.16602-0.19043 0.23437-0.4541 0.0732-0.26856 0.0732-0.59571z"/>
  </g>
 </g>
</svg>
