<?xml version="1.0" encoding="UTF-8" standalone="no"?>
<!-- Created with Inkscape (http://www.inkscape.org/) -->
<svg id="svg3449" xmlns:rdf="http://www.w3.org/1999/02/22-rdf-syntax-ns#" xmlns="http://www.w3.org/2000/svg" height="128" width="128" version="1.0" xmlns:cc="http://creativecommons.org/ns#" xmlns:xlink="http://www.w3.org/1999/xlink" xmlns:dc="http://purl.org/dc/elements/1.1/">
 <metadata id="metadata56">
  <rdf:RDF>
   <cc:Work rdf:about="">
    <dc:format>image/svg+xml</dc:format>
    <dc:type rdf:resource="http://purl.org/dc/dcmitype/StillImage"/>
    <dc:title/>
   </cc:Work>
  </rdf:RDF>
 </metadata>
 <defs id="defs3451">
  <linearGradient id="linearGradient3514" y2="-9.1034" gradientUnits="userSpaceOnUse" x2="66.492" gradientTransform="matrix(.96826 0 0 .97948 2.179 .16587)" y1="-42.638" x1="67.952">
   <stop id="stop4620" style="stop-color:#37414b" offset="0"/>
   <stop id="stop4622" style="stop-color:#37414b;stop-opacity:0" offset="1"/>
  </linearGradient>
  <linearGradient id="linearGradient3516" y2="-11.847" gradientUnits="userSpaceOnUse" x2="58.98" gradientTransform="matrix(.96826 0 0 .97948 2.179 .16587)" y1="-118.55" x1="57.173">
   <stop id="stop4596" offset="0"/>
   <stop id="stop4598" style="stop-opacity:0" offset="1"/>
  </linearGradient>
  <linearGradient id="linearGradient3519" y2="50.369" gradientUnits="userSpaceOnUse" x2="76.558" gradientTransform="matrix(.96826 0 0 .97948 3.2423 -129.19)" y1="13.164" x1="76.558">
   <stop id="stop3392" style="stop-color:#425e7b" offset="0"/>
   <stop id="stop3394" style="stop-color:#7a91a7" offset="1"/>
  </linearGradient>
  <linearGradient id="linearGradient3521" y2="-8.7399" gradientUnits="userSpaceOnUse" x2="60.217" gradientTransform="matrix(.96826 0 0 .97948 2.179 .16587)" y1="-123.72" x1="60.395">
   <stop id="stop3392-4-8" style="stop-color:#425e7b" offset="0"/>
   <stop id="stop3394-8-0" style="stop-color:#7a91a7" offset="1"/>
  </linearGradient>
  <radialGradient id="radialGradient3349" gradientUnits="userSpaceOnUse" cy="45.647" cx="42.148" gradientTransform="matrix(.94690 0 0 1.139 3.5954 -29.89)" r="58.984">
   <stop id="stop3955" style="stop-color:#9cbbd9" offset="0"/>
   <stop id="stop3957" style="stop-color:#0080bc" offset="1"/>
  </radialGradient>
  <filter id="filter3174" color-interpolation-filters="sRGB">
   <feGaussianBlur id="feGaussianBlur3176" stdDeviation="1.71"/>
  </filter>
  <linearGradient id="ButtonShadow-1" x1="45.448" gradientUnits="userSpaceOnUse" y1="92.54" gradientTransform="scale(1.0059 .99417)" x2="45.448" y2="7.0165">
   <stop id="stop3750-0" offset="0"/>
   <stop id="stop3752-4" style="stop-opacity:.58824" offset="1"/>
  </linearGradient>
  <linearGradient id="linearGradient3885-2" y2="8.5961" gradientUnits="userSpaceOnUse" x2="29.067" gradientTransform="matrix(.99997 0 0 .99997 200.97 22.694)" y1="39.402" x1="29.067">
   <stop id="stop4113-8" style="stop-color:#b9e8ff" offset="0"/>
   <stop id="stop4115-6" style="stop-color:#f5fdff" offset="1"/>
  </linearGradient>
 </defs>
 <rect id="rect892-2-7-2" ry="29.452" style="stroke:#d3d3d3;stroke-width:9.8448;fill:#37414b" transform="scale(1,-1)" height="116.16" width="116.08" y="-122.08" x="5.9224"/>
 <rect id="rect892" style="stroke:url(#linearGradient3521);stroke-width:.97385;fill:url(#linearGradient3519)" transform="scale(1,-1)" ry="29.296" height="115.54" width="114.22" y="-122.25" x="7.0394"/>
 <rect id="rect892-2" style="stroke:url(#linearGradient3516);stroke-width:.97385;fill:url(#linearGradient3514)" transform="scale(1,-1)" ry="28.993" height="114.35" width="114.22" y="-121.46" x="7.0599"/>
 <path id="rect895" style="fill:url(#radialGradient3349)" d="m33.051 7.2596c-7.969-2.4493-27.013 15.174-25.653 23.038-0.050142 0.97378-0.088772 1.9648-0.088772 2.9572v52.419c0 20.876 10.712 33.859 22.318 33.859h67.038c12.638 0 24.318-11.245 24.318-25.859v-64.017c0.7-10.928-21.283-24.659-25.926-22.618-47.846 0.8653-18.017 0.2236-62.003 0.2236z"/>
 <rect id="rect892-2-7-8" style="opacity:.15891;stroke:#000;stroke-width:4.8445;fill:none" transform="scale(1,-1)" ry="28.993" height="114.35" width="114.22" y="-121.16" x="6.8687"/>
 <rect id="rect892-2-7-1" style="opacity:.15891;stroke:#000;stroke-width:7.7512;fill:none" transform="scale(1,-1)" ry="28.993" height="114.35" width="114.22" y="-121.16" x="6.8687"/>
 <rect id="rect892-2-7-2-9" ry="28.067" style="stroke:#000;stroke-width:1.0489;fill:none" transform="scale(1,-1)" height="112.71" width="114.14" y="-120.31" x="7.0649"/>
 <path id="path1187" style="fill:#fff;fill-opacity:.057143" d="m33.017 7.2319c-23.707 0-26.027 0.6738-25.93 26.295-0.04334 0.71563-0.07674 1.4439-0.07674 2.1732v32.76c18.67-38.321 38.34-51.497 90.374-61.179-0.225-0.026-0.46-0.0303-0.691-0.0303-41.576 0.3874-25.652-0.0188-63.676-0.0188z"/>
 <g id="layer2" style="display:none" transform="translate(148.5 -54.67)">
  <rect id="rect3745" style="opacity:.9;filter:url(#filter3174);fill:url(#ButtonShadow-1)" rx="6" ry="6" height="85" width="86" y="7" x="5"/>
 </g>
 <g id="g3896" transform="matrix(2.25 0 0 2.25 -442.19 -42.42)">
  <path id="path4125" style="fill-opacity:.058824" d="m234.14 32.493-12.115 20.986-8.8689-5.119-3.5917 6.2225 15.088 8.7107 0.002-0.002 0.002 0.002 15.709-27.206-6.2244-3.5937z"/>
  <path id="path4123" d="m234.14 32.093-12.115 20.986-8.8689-5.119-3.5917 6.2225 15.088 8.7107 0.002-0.002 0.002 0.002 15.709-27.206-6.2244-3.5937z" style="fill-opacity:.11765"/>
  <path id="path4119" style="fill-opacity:.23529" d="m234.14 31.693-12.115 20.986-8.8689-5.119-3.5917 6.2225 15.088 8.7107 0.002-0.002 0.002 0.002 15.709-27.206-6.2244-3.5937z"/>
  <path id="rect4131" d="m234.14 31.294-12.115 20.986-8.8689-5.119-3.5917 6.2225 15.088 8.7107 0.002-0.002 0.002 0.002 15.709-27.206-6.2244-3.5937z" style="fill:url(#linearGradient3885-2)"/>
  <path id="path4127" style="fill:#007fbb;fill-opacity:.31373" d="m240.02 34.688-15.363 26.605-0.002-0.002-0.002 0.002-14.74-8.5117-0.34765 0.60156 15.088 8.7109 0.002-0.002 0.002 0.002 15.709-27.207-0.3457-0.19922z"/>
  <path id="path4132" style="fill:#fff;fill-opacity:.23529" d="m234.14 31.293-12.115 20.986-8.8691-5.1191-3.5918 6.2227 0.17383 0.09961 3.418-5.9219 8.8691 5.1191 12.115-20.986 6.0508 3.4941 0.17383-0.30078-6.2246-3.5938z"/>
 </g>
</svg>
