<?xml version="1.0" encoding="UTF-8" standalone="no"?>
<!-- Created with Inkscape (http://www.inkscape.org/) -->
<svg id="svg3449" xmlns:rdf="http://www.w3.org/1999/02/22-rdf-syntax-ns#" xmlns="http://www.w3.org/2000/svg" height="128" width="128" version="1.0" xmlns:cc="http://creativecommons.org/ns#" xmlns:xlink="http://www.w3.org/1999/xlink" xmlns:dc="http://purl.org/dc/elements/1.1/">
 <metadata id="metadata56">
  <rdf:RDF>
   <cc:Work rdf:about="">
    <dc:format>image/svg+xml</dc:format>
    <dc:type rdf:resource="http://purl.org/dc/dcmitype/StillImage"/>
    <dc:title/>
   </cc:Work>
  </rdf:RDF>
 </metadata>
 <defs id="defs3451">
  <linearGradient id="linearGradient3514" y2="-9.1034" gradientUnits="userSpaceOnUse" x2="66.492" gradientTransform="matrix(.96826 0 0 .97948 2.179 .16587)" y1="-42.638" x1="67.952">
   <stop id="stop4620" style="stop-color:#37414b" offset="0"/>
   <stop id="stop4622" style="stop-color:#37414b;stop-opacity:0" offset="1"/>
  </linearGradient>
  <linearGradient id="linearGradient3516" y2="-11.847" gradientUnits="userSpaceOnUse" x2="58.98" gradientTransform="matrix(.96826 0 0 .97948 2.179 .16587)" y1="-118.55" x1="57.173">
   <stop id="stop4596" offset="0"/>
   <stop id="stop4598" style="stop-opacity:0" offset="1"/>
  </linearGradient>
  <linearGradient id="linearGradient3519" y2="50.369" gradientUnits="userSpaceOnUse" x2="76.558" gradientTransform="matrix(.96826 0 0 .97948 3.2423 -129.19)" y1="13.164" x1="76.558">
   <stop id="stop3392" style="stop-color:#425e7b" offset="0"/>
   <stop id="stop3394" style="stop-color:#7a91a7" offset="1"/>
  </linearGradient>
  <linearGradient id="linearGradient3521" y2="-8.7399" gradientUnits="userSpaceOnUse" x2="60.217" gradientTransform="matrix(.96826 0 0 .97948 2.179 .16587)" y1="-123.72" x1="60.395">
   <stop id="stop3392-4-8" style="stop-color:#425e7b" offset="0"/>
   <stop id="stop3394-8-0" style="stop-color:#7a91a7" offset="1"/>
  </linearGradient>
  <radialGradient id="radialGradient3349" gradientUnits="userSpaceOnUse" cy="47.837" cx="42.674" gradientTransform="matrix(.94690 0 0 1.139 3.5954 -29.89)" r="58.984">
   <stop id="stop3955" style="stop-color:#2faaae" offset="0"/>
   <stop id="stop3957" style="stop-color:#00979c" offset="1"/>
  </radialGradient>
  <filter id="filter3174" color-interpolation-filters="sRGB">
   <feGaussianBlur id="feGaussianBlur3176" stdDeviation="1.71"/>
  </filter>
  <linearGradient id="ButtonShadow-1" x1="45.448" gradientUnits="userSpaceOnUse" y1="92.54" gradientTransform="scale(1.0059 .99417)" x2="45.448" y2="7.0165">
   <stop id="stop3750-0" offset="0"/>
   <stop id="stop3752-4" style="stop-opacity:.58824" offset="1"/>
  </linearGradient>
  <linearGradient id="linearGradient4202" y2="516.55" gradientUnits="userSpaceOnUse" x2="409.38" gradientTransform="translate(-504.34 -499.05)" y1="531.05" x1="409.38">
   <stop id="stop4231" style="stop-color:#b9fdff" offset="0"/>
   <stop id="stop4233" style="stop-color:#f5ffff" offset="1"/>
  </linearGradient>
 </defs>
 <rect id="rect892-2-7-2" ry="29.452" style="stroke:#d3d3d3;stroke-width:9.8448;fill:#37414b" transform="scale(1,-1)" height="116.16" width="116.08" y="-122.08" x="5.9224"/>
 <rect id="rect892" style="stroke:url(#linearGradient3521);stroke-width:.97385;fill:url(#linearGradient3519)" transform="scale(1,-1)" ry="29.296" height="115.54" width="114.22" y="-122.25" x="7.0394"/>
 <rect id="rect892-2" style="stroke:url(#linearGradient3516);stroke-width:.97385;fill:url(#linearGradient3514)" transform="scale(1,-1)" ry="28.993" height="114.35" width="114.22" y="-121.46" x="7.0599"/>
 <path id="rect895" style="fill:url(#radialGradient3349)" d="m33.051 7.2596c-7.969-2.4493-27.013 15.174-25.653 23.038-0.050142 0.97378-0.088772 1.9648-0.088772 2.9572v52.419c0 20.876 10.712 33.859 22.318 33.859h67.038c12.638 0 24.318-11.245 24.318-25.859v-64.017c0.7-10.928-21.283-24.659-25.926-22.618-47.846 0.8653-18.017 0.2236-62.003 0.2236z"/>
 <rect id="rect892-2-7-8" style="opacity:.15891;stroke:#000;stroke-width:4.8445;fill:none" transform="scale(1,-1)" ry="28.993" height="114.35" width="114.22" y="-121.16" x="6.8687"/>
 <rect id="rect892-2-7-1" style="opacity:.15891;stroke:#000;stroke-width:7.7512;fill:none" transform="scale(1,-1)" ry="28.993" height="114.35" width="114.22" y="-121.16" x="6.8687"/>
 <rect id="rect892-2-7-2-9" ry="28.067" style="stroke:#000;stroke-width:1.0489;fill:none" transform="scale(1,-1)" height="112.71" width="114.14" y="-120.31" x="7.0649"/>
 <path id="path1187" style="fill:#fff;fill-opacity:.057143" d="m33.017 7.2319c-23.707 0-26.027 0.6738-25.93 26.295-0.04334 0.71563-0.07674 1.4439-0.07674 2.1732v32.76c18.67-38.321 38.34-51.497 90.374-61.179-0.225-0.026-0.46-0.0303-0.691-0.0303-41.576 0.3874-25.652-0.0188-63.676-0.0188z"/>
 <g id="layer2" style="display:none" transform="translate(148.5 -54.67)">
  <rect id="rect3745" style="opacity:.9;filter:url(#filter3174);fill:url(#ButtonShadow-1)" rx="6" ry="6" height="85" width="86" y="7" x="5"/>
 </g>
 <g id="g4213" transform="matrix(2.7 0 0 2.7 322.74 -5.2499)">
  <path id="path4241" style="color:#000000;fill-opacity:.058824" d="m-103.67 18.695c-1.9657 0-3.88 0.7575-5.2841 2.105-1.404 1.3474-2.2141 3.2154-2.2141 5.142s0.81003 3.7921 2.2141 5.1396c1.3881 1.3321 3.2748 2.0833 5.217 2.1003v0.005c0.0212 0.00096 0.0441-0.00092 0.0669 0 2.3209 0.10357 4.193-0.7659 5.5618-2.0246 0.94309-0.8673 1.6639-1.8962 2.339-2.9404 0.6753 1.0447 1.3977 2.0726 2.3413 2.9404 1.3687 1.2587 3.2408 2.1281 5.5618 2.0246 0.0212-0.00092 0.0441 0.00096 0.0669 0v-0.005c1.9423-0.0169 3.8289-0.76816 5.217-2.1003 1.404-1.3474 2.2141-3.213 2.2141-5.1396s-0.81003-3.7946-2.2141-5.142c-1.404-1.3475-3.3184-2.105-5.2841-2.105-2.4453 0-4.3762 0.94911-5.8024 2.2654-0.82811 0.76434-1.4897 1.6403-2.0984 2.5345-0.60867-0.89413-1.2726-1.7701-2.1007-2.5345-1.4262-1.3162-3.3571-2.2654-5.8024-2.2654zm0 2.558c1.826 0 2.9928 0.59837 4.0626 1.5858 0.84311 0.7781 1.5783 1.8604 2.3113 3.0135-0.83603 1.347-1.6412 2.5957-2.5495 3.4311-1.0072 0.92625-2.0494 1.4394-3.7549 1.3498l-0.0368-0.005h-0.0346c-1.2825 0-2.5916-0.52017-3.4888-1.3734l-0.0135-0.0138c-0.8976-0.86133-1.4275-2.1018-1.4275-3.2989 0-1.1972 0.5299-2.4353 1.4275-3.2967 0.89749-0.86141 2.2158-1.3923 3.505-1.3923zm15.804 0h0.002c1.2885 0.00065 2.6057 0.53147 3.5027 1.3923 0.89761 0.86133 1.4275 2.0995 1.4275 3.2967 0 1.197-0.52989 2.4376-1.4275 3.2989l-0.0115 0.0139c-0.89728 0.85328-2.2087 1.3734-3.4912 1.3734h-0.0324l-0.0346 0.005c-1.7053 0.0896-2.7523-0.42354-3.7594-1.3498-0.90835-0.83535-1.7136-2.0817-2.5495-3.4287 0.73296-1.1532 1.4704-2.2378 2.3135-3.0158 1.0693-0.98702 2.2358-1.5853 4.0602-1.5858zm-1.1059 2.1592v0.43417 0.98402h-0.96481-0.42567v0.43426 0.59937 0.43185h0.42567 0.96481v0.99581 0.4342h0.42567 0.58991 0.42571v-0.4342-0.99581h0.96477 0.42567v-0.43185-0.59937-0.43426h-0.42567-0.96477v-0.98402-0.43417h-0.42571-0.58991-0.42567zm-16.78 1.3993v0.51681 0.4814 0.51676h0.50671 3.5559 0.50671v-0.51676-0.4814-0.51681h-0.50671-3.5559-0.50671z"/>
  <path id="path4239" d="m-103.67 18.295c-1.9657 0-3.88 0.7575-5.2841 2.105-1.404 1.3474-2.2141 3.2154-2.2141 5.142s0.81003 3.7921 2.2141 5.1396c1.3881 1.3321 3.2748 2.0833 5.217 2.1003v0.005c0.0212 0.00096 0.0441-0.00092 0.0669 0 2.3209 0.10357 4.193-0.7659 5.5618-2.0246 0.94309-0.8673 1.6639-1.8962 2.339-2.9404 0.6753 1.0447 1.3977 2.0726 2.3413 2.9404 1.3687 1.2587 3.2408 2.1281 5.5618 2.0246 0.0212-0.00092 0.0441 0.00096 0.0669 0v-0.005c1.9423-0.0169 3.8289-0.76816 5.217-2.1003 1.404-1.3474 2.2141-3.213 2.2141-5.1396s-0.81003-3.7946-2.2141-5.142c-1.404-1.3475-3.3184-2.105-5.2841-2.105-2.4453 0-4.3762 0.94911-5.8024 2.2654-0.82811 0.76434-1.4897 1.6403-2.0984 2.5345-0.60867-0.89413-1.2726-1.7701-2.1007-2.5345-1.4262-1.3162-3.3571-2.2654-5.8024-2.2654zm0 2.558c1.826 0 2.9928 0.59837 4.0626 1.5858 0.84311 0.7781 1.5783 1.8604 2.3113 3.0135-0.83603 1.347-1.6412 2.5957-2.5495 3.4311-1.0072 0.92625-2.0494 1.4394-3.7549 1.3498l-0.0368-0.005h-0.0346c-1.2825 0-2.5916-0.52017-3.4888-1.3734l-0.0135-0.0138c-0.8976-0.86133-1.4275-2.1018-1.4275-3.2989 0-1.1972 0.5299-2.4353 1.4275-3.2967 0.89749-0.86141 2.2158-1.3923 3.505-1.3923zm15.804 0h0.002c1.2885 0.00065 2.6057 0.53147 3.5027 1.3923 0.89761 0.86133 1.4275 2.0995 1.4275 3.2967 0 1.197-0.52989 2.4376-1.4275 3.2989l-0.0115 0.0139c-0.89728 0.85328-2.2087 1.3734-3.4912 1.3734h-0.0324l-0.0346 0.005c-1.7053 0.0896-2.7523-0.42354-3.7594-1.3498-0.90835-0.83535-1.7136-2.0817-2.5495-3.4287 0.73296-1.1532 1.4704-2.2378 2.3135-3.0158 1.0693-0.98702 2.2358-1.5853 4.0602-1.5858zm-1.1059 2.1592v0.43417 0.98402h-0.96481-0.42567v0.43426 0.59937 0.43185h0.42567 0.96481v0.99581 0.4342h0.42567 0.58991 0.42571v-0.4342-0.99581h0.96477 0.42567v-0.43185-0.59937-0.43426h-0.42567-0.96477v-0.98402-0.43417h-0.42571-0.58991-0.42567zm-16.78 1.3993v0.51681 0.4814 0.51676h0.50671 3.5559 0.50671v-0.51676-0.4814-0.51681h-0.50671-3.5559-0.50671z" style="color:#000000;fill-opacity:.11765"/>
  <path id="path4235" style="color:#000000;fill-opacity:.23529" d="m-103.67 17.895c-1.9657 0-3.88 0.7575-5.2841 2.105-1.404 1.3474-2.2141 3.2154-2.2141 5.142s0.81003 3.7921 2.2141 5.1396c1.3881 1.3321 3.2748 2.0833 5.217 2.1003v0.005c0.0212 0.00096 0.0441-0.00092 0.0669 0 2.3209 0.10357 4.193-0.7659 5.5618-2.0246 0.94309-0.8673 1.6639-1.8962 2.339-2.9404 0.6753 1.0447 1.3977 2.0726 2.3413 2.9404 1.3687 1.2587 3.2408 2.1281 5.5618 2.0246 0.0212-0.00092 0.0441 0.00096 0.0669 0v-0.005c1.9423-0.0169 3.8289-0.76816 5.217-2.1003 1.404-1.3474 2.2141-3.213 2.2141-5.1396s-0.81003-3.7946-2.2141-5.142c-1.404-1.3475-3.3184-2.105-5.2841-2.105-2.4453 0-4.3762 0.94911-5.8024 2.2654-0.82811 0.76434-1.4897 1.6403-2.0984 2.5345-0.60867-0.89413-1.2726-1.7701-2.1007-2.5345-1.4262-1.3162-3.3571-2.2654-5.8024-2.2654zm0 2.558c1.826 0 2.9928 0.59837 4.0626 1.5858 0.84311 0.7781 1.5783 1.8604 2.3113 3.0135-0.83603 1.347-1.6412 2.5957-2.5495 3.4311-1.0072 0.92625-2.0494 1.4394-3.7549 1.3498l-0.0368-0.005h-0.0346c-1.2825 0-2.5916-0.52017-3.4888-1.3734l-0.0135-0.0138c-0.8976-0.86133-1.4275-2.1018-1.4275-3.2989 0-1.1972 0.5299-2.4353 1.4275-3.2967 0.89749-0.86141 2.2158-1.3923 3.505-1.3923zm15.804 0h0.002c1.2885 0.00065 2.6057 0.53147 3.5027 1.3923 0.89761 0.86133 1.4275 2.0995 1.4275 3.2967 0 1.197-0.52989 2.4376-1.4275 3.2989l-0.0115 0.0139c-0.89728 0.85328-2.2087 1.3734-3.4912 1.3734h-0.0324l-0.0346 0.005c-1.7053 0.0896-2.7523-0.42354-3.7594-1.3498-0.90835-0.83535-1.7136-2.0817-2.5495-3.4287 0.73296-1.1532 1.4704-2.2378 2.3135-3.0158 1.0693-0.98702 2.2358-1.5853 4.0602-1.5858zm-1.1059 2.1592v0.43417 0.98402h-0.96481-0.42567v0.43426 0.59937 0.43185h0.42567 0.96481v0.99581 0.4342h0.42567 0.58991 0.42571v-0.4342-0.99581h0.96477 0.42567v-0.43185-0.59937-0.43426h-0.42567-0.96477v-0.98402-0.43417h-0.42571-0.58991-0.42567zm-16.78 1.3993v0.51681 0.4814 0.51676h0.50671 3.5559 0.50671v-0.51676-0.4814-0.51681h-0.50671-3.5559-0.50671z"/>
  <path id="path4148" d="m-103.67 17.495c-1.9657 0-3.88 0.7575-5.2841 2.105-1.404 1.3474-2.2141 3.2154-2.2141 5.142s0.81003 3.7921 2.2141 5.1396c1.3881 1.3321 3.2748 2.0833 5.217 2.1003v0.005c0.0212 0.00096 0.0441-0.00092 0.0669 0 2.3209 0.10357 4.193-0.7659 5.5618-2.0246 0.94309-0.8673 1.6639-1.8962 2.339-2.9404 0.6753 1.0447 1.3977 2.0726 2.3413 2.9404 1.3687 1.2587 3.2408 2.1281 5.5618 2.0246 0.0212-0.00092 0.0441 0.00096 0.0669 0v-0.005c1.9423-0.0169 3.8289-0.76816 5.217-2.1003 1.404-1.3474 2.2141-3.213 2.2141-5.1396s-0.81003-3.7946-2.2141-5.142c-1.404-1.3475-3.3184-2.105-5.2841-2.105-2.4453 0-4.3762 0.94911-5.8024 2.2654-0.82811 0.76434-1.4897 1.6403-2.0984 2.5345-0.60867-0.89413-1.2726-1.7701-2.1007-2.5345-1.4262-1.3162-3.3571-2.2654-5.8024-2.2654zm0 2.558c1.826 0 2.9928 0.59837 4.0626 1.5858 0.84311 0.7781 1.5783 1.8604 2.3113 3.0135-0.83603 1.347-1.6412 2.5957-2.5495 3.4311-1.0072 0.92625-2.0494 1.4394-3.7549 1.3498l-0.0368-0.005h-0.0346c-1.2825 0-2.5916-0.52017-3.4888-1.3734l-0.0135-0.0138c-0.8976-0.86133-1.4275-2.1018-1.4275-3.2989 0-1.1972 0.5299-2.4353 1.4275-3.2967 0.89749-0.86141 2.2158-1.3923 3.505-1.3923zm15.804 0h0.002c1.2885 0.00065 2.6057 0.53147 3.5027 1.3923 0.89761 0.86133 1.4275 2.0995 1.4275 3.2967 0 1.197-0.52989 2.4376-1.4275 3.2989l-0.0115 0.0139c-0.89728 0.85328-2.2087 1.3734-3.4912 1.3734h-0.0324l-0.0346 0.005c-1.7053 0.0896-2.7523-0.42354-3.7594-1.3498-0.90835-0.83535-1.7136-2.0817-2.5495-3.4287 0.73296-1.1532 1.4704-2.2378 2.3135-3.0158 1.0693-0.98702 2.2358-1.5853 4.0602-1.5858zm-1.1059 2.1592v0.43417 0.98402h-0.96481-0.42567v0.43426 0.59937 0.43185h0.42567 0.96481v0.99581 0.4342h0.42567 0.58991 0.42571v-0.4342-0.99581h0.96477 0.42567v-0.43185-0.59937-0.43426h-0.42567-0.96477v-0.98402-0.43417h-0.42571-0.58991-0.42567zm-16.78 1.3993v0.51681 0.4814 0.51676h0.50671 3.5559 0.50671v-0.51676-0.4814-0.51681h-0.50671-3.5559-0.50671z" style="color:#000000;fill:url(#linearGradient4202)"/>
  <path id="path4281" style="color:#000000;fill:#00979c;fill-opacity:.31373" d="m-103.67 19.253c-1.2886 0.000531-2.6069 0.5316-3.5039 1.3926-0.8976 0.86134-1.4277 2.0997-1.4277 3.2969 0 0.13335 0.03 0.26654 0.043 0.40039 0.10269-1.068 0.58667-2.1306 1.3848-2.8965 0.89704-0.86098 2.2153-1.392 3.5039-1.3926h0.002c1.8248 0.000444 2.9912 0.59888 4.0605 1.5859 0.74263 0.68537 1.3995 1.6213 2.0469 2.6191 0.08851-0.14087 0.17658-0.26277 0.26562-0.40625-0.73295-1.1531-1.4694-2.2356-2.3125-3.0137-1.0693-0.98705-2.2358-1.5855-4.0605-1.5859h-0.002zm15.805 0c-1.8245 0.00052-2.9913 0.59892-4.0605 1.5859-0.84313 0.7781-1.5815 1.8624-2.3145 3.0156 0.08904 0.14348 0.17712 0.26543 0.26562 0.40625 0.6476-0.99797 1.3064-1.936 2.0488-2.6211 1.0693-0.98702 2.2361-1.5854 4.0605-1.5859h0.002c1.2885 0.00065 2.605 0.53178 3.502 1.3926 0.79808 0.76582 1.2821 1.8285 1.3848 2.8965 0.01293-0.13387 0.04297-0.26701 0.04297-0.40039 0-1.1972-0.53012-2.4355-1.4277-3.2969-0.89697-0.8608-2.2134-1.3919-3.502-1.3926h-0.002zm-2.4961 5.043v0.36914 0.43164h0.42578 0.96484v-0.80078h-0.96484-0.42578zm2.832 0v0.80078h0.96484 0.42383v-0.43164-0.36914h-0.42383-0.96484zm-18.223 0.03125v0.2832 0.51562h0.50782 3.5547 0.50782v-0.51562-0.2832h-0.50782-3.5547-0.50782zm-5.3945 0.01563c-0.008 0.1328-0.0215 0.26492-0.0215 0.39844 0 1.9266 0.81081 3.7932 2.2148 5.1406 1.3881 1.3321 3.2745 2.0826 5.2168 2.0996v0.0059c0.0212 0.000959 0.0436-0.00092 0.0664 0 2.3209 0.10357 4.1938-0.76667 5.5625-2.0254 0.94309-0.8673 1.6627-1.8953 2.3379-2.9395 0.6753 1.0447 1.3982 2.0717 2.3418 2.9395 1.3687 1.2587 3.2416 2.1289 5.5625 2.0254 0.0212-0.00092 0.04361 0.000959 0.06641 0v-0.0059c1.9423-0.0169 3.8286-0.7675 5.2168-2.0996 1.404-1.3474 2.2148-3.214 2.2148-5.1406 0-0.13352-0.01378-0.26564-0.02148-0.39844-0.10399 1.7824-0.88711 3.4847-2.1934 4.7383-1.3882 1.3321-3.2745 2.0847-5.2168 2.1016v0.0039c-0.0228 0.00096-0.04521-0.00092-0.06641 0-2.3209 0.10348-4.1938-0.76472-5.5625-2.0234-0.94358-0.86774-1.6665-1.8967-2.3418-2.9414-0.67518 1.0442-1.3948 2.0741-2.3379 2.9414-1.3687 1.2587-3.2416 2.127-5.5625 2.0234-0.0228-0.00092-0.0452 0.00096-0.0664 0v-0.0039c-1.9423-0.01702-3.8287-0.76946-5.2168-2.1016-1.3062-1.2536-2.0894-2.9558-2.1934-4.7383zm22.176 1.3828v0.36523 0.43555h0.42578 0.58984 0.42578v-0.43555-0.36523h-0.42578-0.58984-0.42578z"/>
  <path id="path4286" style="color:#000000;fill:#fff;fill-opacity:.23529" d="m-103.67 17.496c-1.9657 0-3.8792 0.75797-5.2832 2.1055-1.404 1.3474-2.2148 3.214-2.2148 5.1406 0 0.06674 0.008 0.13264 0.01 0.19922 0.0544-1.8547 0.85016-3.6412 2.2051-4.9414 1.404-1.3475 3.3175-2.1035 5.2832-2.1035 2.4453 0 4.3765 0.94938 5.8027 2.2656 0.8281 0.76434 1.4929 1.6391 2.1016 2.5332 0.60873-0.89413 1.2695-1.7689 2.0977-2.5332 1.4262-1.3162 3.3575-2.2656 5.8027-2.2656 1.9657 0 3.8792 0.75602 5.2832 2.1035 1.3549 1.3002 2.1506 3.0867 2.2051 4.9414 0.0019-0.06658 0.0098-0.13248 0.0098-0.19922 0-1.9266-0.81081-3.7933-2.2148-5.1406-1.4041-1.3475-3.3176-2.1055-5.2832-2.1055-2.4453 0-4.3765 0.94938-5.8027 2.2656-0.82811 0.76434-1.4889 1.6391-2.0977 2.5332-0.60867-0.89413-1.2735-1.7689-2.1016-2.5332-1.4262-1.3162-3.3575-2.2656-5.8027-2.2656zm14.699 4.7168v0.40039h0.42578 0.58984 0.42578v-0.40039h-0.42578-0.58984-0.42578zm-16.781 1.4004v0.39844h0.50782 3.5547 0.50782v-0.39844h-0.50782-3.5547-0.50782zm15.391 0.01758v0.40039h0.42578 0.96484v-0.40039h-0.96484-0.42578zm2.832 0v0.40039h0.96484 0.42383v-0.40039h-0.42383-0.96484zm-9.8984 1.2246c-0.78879 1.2646-1.558 2.4376-2.418 3.2285-1.0072 0.92625-2.0485 1.4392-3.7539 1.3496l-0.0371-0.0039h-0.0352c-1.2825 0-2.5911-0.51983-3.4883-1.373l-0.0137-0.01367c-0.84747-0.81323-1.3508-1.966-1.4062-3.0996-0.003 0.06654-0.0215 0.13286-0.0215 0.19922 0 1.1971 0.53013 2.4375 1.4277 3.2988l0.0137 0.01367c0.89721 0.85322 2.2058 1.373 3.4883 1.373h0.0352l0.0371 0.0059c1.7054 0.08957 2.7467-0.42336 3.7539-1.3496 0.90832-0.83536 1.7148-2.0846 2.5508-3.4316-0.04382-0.06895-0.08895-0.12888-0.13281-0.19727zm3.3203 0.0039c-0.04354 0.06789-0.08932 0.12689-0.13281 0.19531 0.83598 1.347 1.6424 2.5943 2.5508 3.4297 1.0072 0.92627 2.0544 1.4392 3.7598 1.3496l0.0332-0.0039h0.0332c1.2824 0 2.593-0.52172 3.4902-1.375l0.01172-0.01367c0.89761-0.86131 1.4277-2.1018 1.4277-3.2988 0-0.06638-0.01825-0.13266-0.02148-0.19922-0.05541 1.1335-0.55878 2.2845-1.4062 3.0977l-0.01172 0.01563c-0.89728 0.85328-2.2078 1.373-3.4902 1.373h-0.0332l-0.0332 0.0039c-1.7053 0.0896-2.7526-0.42334-3.7598-1.3496-0.85997-0.79086-1.6293-1.9603-2.418-3.2246z"/>
 </g>
</svg>
