<?xml version="1.0" encoding="UTF-8" standalone="no"?>
<!-- Created with Inkscape (http://www.inkscape.org/) -->
<svg id="svg3449" xmlns:rdf="http://www.w3.org/1999/02/22-rdf-syntax-ns#" xmlns="http://www.w3.org/2000/svg" height="128" width="128" version="1.0" xmlns:cc="http://creativecommons.org/ns#" xmlns:xlink="http://www.w3.org/1999/xlink" xmlns:dc="http://purl.org/dc/elements/1.1/">
 <metadata id="metadata56">
  <rdf:RDF>
   <cc:Work rdf:about="">
    <dc:format>image/svg+xml</dc:format>
    <dc:type rdf:resource="http://purl.org/dc/dcmitype/StillImage"/>
    <dc:title/>
   </cc:Work>
  </rdf:RDF>
 </metadata>
 <defs id="defs3451">
  <linearGradient id="linearGradient3514" y2="-9.1034" gradientUnits="userSpaceOnUse" x2="66.492" gradientTransform="matrix(.96826 0 0 .97948 2.179 .16587)" y1="-42.638" x1="67.952">
   <stop id="stop4620" style="stop-color:#37414b" offset="0"/>
   <stop id="stop4622" style="stop-color:#37414b;stop-opacity:0" offset="1"/>
  </linearGradient>
  <linearGradient id="linearGradient3516" y2="-11.847" gradientUnits="userSpaceOnUse" x2="58.98" gradientTransform="matrix(.96826 0 0 .97948 2.179 .16587)" y1="-118.55" x1="57.173">
   <stop id="stop4596" offset="0"/>
   <stop id="stop4598" style="stop-opacity:0" offset="1"/>
  </linearGradient>
  <linearGradient id="linearGradient3519" y2="50.369" gradientUnits="userSpaceOnUse" x2="76.558" gradientTransform="matrix(.96826 0 0 .97948 3.2423 -129.19)" y1="13.164" x1="76.558">
   <stop id="stop3392" style="stop-color:#425e7b" offset="0"/>
   <stop id="stop3394" style="stop-color:#7a91a7" offset="1"/>
  </linearGradient>
  <linearGradient id="linearGradient3521" y2="-8.7399" gradientUnits="userSpaceOnUse" x2="60.217" gradientTransform="matrix(.96826 0 0 .97948 2.179 .16587)" y1="-123.72" x1="60.395">
   <stop id="stop3392-4-8" style="stop-color:#425e7b" offset="0"/>
   <stop id="stop3394-8-0" style="stop-color:#7a91a7" offset="1"/>
  </linearGradient>
  <radialGradient id="radialGradient3349" gradientUnits="userSpaceOnUse" cy="47.837" cx="42.674" gradientTransform="matrix(.94690 0 0 1.139 3.5954 -29.89)" r="58.984">
   <stop id="stop3955" style="stop-color:#feb100" offset="0"/>
   <stop id="stop3957" style="stop-color:#eb671e" offset="1"/>
  </radialGradient>
  <filter id="filter3174" color-interpolation-filters="sRGB">
   <feGaussianBlur id="feGaussianBlur3176" stdDeviation="1.71"/>
  </filter>
  <linearGradient id="ButtonShadow-1" x1="45.448" gradientUnits="userSpaceOnUse" y1="92.54" gradientTransform="scale(1.0059 .99417)" x2="45.448" y2="7.0165">
   <stop id="stop3750-0" offset="0"/>
   <stop id="stop3752-4" style="stop-opacity:.58824" offset="1"/>
  </linearGradient>
  <linearGradient id="linearGradient5611-4" y2="7.9609" gradientUnits="userSpaceOnUse" x2="61.719" gradientTransform="matrix(2.5667 0 0 2.5656 -282.97 -44.779)" y1="40.09" x1="61.719">
   <stop id="stop4136-6" style="stop-color:#ffc190" offset="0"/>
   <stop id="stop4138-9" style="stop-color:#fffcf5" offset="1"/>
  </linearGradient>
 </defs>
 <rect id="rect892-2-7-2" ry="29.452" style="stroke:#d3d3d3;stroke-width:9.8448;fill:#37414b" transform="scale(1,-1)" height="116.16" width="116.08" y="-122.08" x="5.9224"/>
 <rect id="rect892" style="stroke:url(#linearGradient3521);stroke-width:.97385;fill:url(#linearGradient3519)" transform="scale(1,-1)" ry="29.296" height="115.54" width="114.22" y="-122.25" x="7.0394"/>
 <rect id="rect892-2" style="stroke:url(#linearGradient3516);stroke-width:.97385;fill:url(#linearGradient3514)" transform="scale(1,-1)" ry="28.993" height="114.35" width="114.22" y="-121.46" x="7.0599"/>
 <path id="rect895" style="fill:url(#radialGradient3349)" d="m33.051 7.2596c-7.969-2.4493-27.013 15.174-25.653 23.038-0.050142 0.97378-0.088772 1.9648-0.088772 2.9572v52.419c0 20.876 10.712 33.859 22.318 33.859h67.038c12.638 0 24.318-11.245 24.318-25.859v-64.017c0.7-10.928-21.283-24.659-25.926-22.618-47.846 0.8653-18.017 0.2236-62.003 0.2236z"/>
 <rect id="rect892-2-7-8" style="opacity:.15891;stroke:#000;stroke-width:4.8445;fill:none" transform="scale(1,-1)" ry="28.993" height="114.35" width="114.22" y="-121.16" x="6.8687"/>
 <rect id="rect892-2-7-1" style="opacity:.15891;stroke:#000;stroke-width:7.7512;fill:none" transform="scale(1,-1)" ry="28.993" height="114.35" width="114.22" y="-121.16" x="6.8687"/>
 <rect id="rect892-2-7-2-9" ry="28.067" style="stroke:#000;stroke-width:1.0489;fill:none" transform="scale(1,-1)" height="112.71" width="114.14" y="-120.31" x="7.0649"/>
 <path id="path1187" style="fill:#fff;fill-opacity:.057143" d="m33.017 7.2319c-23.707 0-26.027 0.6738-25.93 26.295-0.04334 0.71563-0.07674 1.4439-0.07674 2.1732v32.76c18.67-38.321 38.34-51.497 90.374-61.179-0.225-0.026-0.46-0.0303-0.691-0.0303-41.576 0.3874-25.652-0.0188-63.676-0.0188z"/>
 <g id="layer2" style="display:none" transform="translate(148.5 -54.67)">
  <rect id="rect3745" style="opacity:.9;filter:url(#filter3174);fill:url(#ButtonShadow-1)" rx="6" ry="6" height="85" width="86" y="7" x="5"/>
 </g>
 <g id="g5622" transform="translate(207.32 44.818)">
  <path id="path4160" style="fill-opacity:.058824" d="m-118.21-21.072c-1.4214-0.10667-2.889 0.08267-4.3313 0.56107-1.7283 0.57493-2.9212 1.3171-4.2511 2.6467-1.7226 1.7219-2.6275 3.5549-3.048 6.0139-0.2324 1.3595-0.39977 1.8739-0.8021 2.7264-1.5414 3.2688-4.9036 5.5336-8.2615 5.5336-0.27908 0-1.1695-0.050667-2.0052-0.15733-3.3715-0.44213-4.9093-0.49627-8.422-0.15733-0.9487 0.090667-2.1007 0.15733-2.4865 0.15733-1.668 0.00107-2.683-0.62747-3.3688-2.0051-0.42647-0.85653-0.57918-1.2856-0.56146-2.8069 0.0144-1.2736 0.043-1.4253-0.1604-2.0043-0.32836-0.93573-0.63831-1.3632-1.3636-2.0853-1.0541-1.0499-2.1617-1.5237-3.6094-1.5237-0.94507 0.0019-1.6132 0.14667-2.4063 0.56187-1.6712 0.8688-2.7143 2.4768-2.8073 4.3299-0.0646 1.2867 0.18266 2.0565 0.88229 3.128 0.50813 0.7776 1.1207 1.3408 2.2459 1.9245 1.2142 0.62907 1.8611 1.2256 2.4063 2.3256 0.34534 0.69547 0.32083 0.76 0.32083 1.5235 0 0.7208-0.00046 0.79653-0.24061 1.2829-0.14443 0.29333-0.55695 0.8416-0.8823 1.2027-3.0068 3.3392-4.8366 6.9456-5.6146 10.826-0.36852 1.8344-0.477 2.8275-0.40105 4.8115 0.0365 0.94987 0.0853 2.0061 0.0802 2.3253-0.0276 1.8165-1.3221 3.0685-4.0907 4.0096-0.66807 0.22667-0.97079 0.28747-1.8448 0.32107-0.67845 0.02933-1.2182-0.0008-1.6042-0.08-0.34601-0.06667-1.0551-0.08-1.7646-0.08-1.3477 0-1.9855 0.14933-3.048 0.64107-3.9369 1.8187-5.666 6.3901-3.85 10.265 2.3202 4.9501 8.8975 6.0176 12.673 2.0848 0.55834-0.5816 0.83836-1.0243 1.4438-2.0848 0.19349-0.33867 0.58516-0.8136 0.8823-1.1232 1.3383-1.3931 3.1643-2.0848 5.2938-2.0848 1.5221 0 2.4229 0.32213 3.6094 1.2832 1.9724 1.5973 4.7251 2.9877 7.1386 3.6885 2.672 0.77813 4.1837 0.89947 8.6626 0.80213 1.3151-0.02933 1.7216 0.04267 2.3261 0.15733 1.678 0.336 3.3166 0.98533 4.7323 1.9248 1.0424 0.69173 2.7592 2.4088 3.449 3.4483 0.93168 1.4037 1.6212 3.1685 1.8448 4.5707 0.37566 2.3568 0.82218 3.7595 1.6042 5.2928 2.1184 4.1547 5.9026 6.9376 10.588 7.7787 1.29 0.22933 4.0725 0.18133 5.374-0.08 4.453-0.90907 8.1608-3.7157 10.187-7.6981 1.1009-2.1645 1.6016-4.1432 1.6042-6.6555 0.006-5.8672-3.4044-11.069-8.823-13.392-1.2428-0.5328-2.1546-0.75307-3.85-1.0424-1.6849-0.28773-2.8072-0.65627-4.0105-1.2832-2.816-1.4667-5.0991-4.1643-6.0959-7.1368-0.55211-1.6472-0.77742-3.2672-0.64167-5.2125 0.0857-1.2285 0.0363-5.3365-0.0802-8.1795-0.0747-1.8224 0.19133-2.9445 0.96252-4.4909 0.88427-1.7725 2.3492-3.2483 4.1709-4.1696 0.94798-0.48 1.6296-0.65173 2.9677-0.8824 1.4158-0.24267 2.426-0.55573 3.5292-1.1229 2.543-1.3053 4.463-3.5299 5.374-6.2547 0.38779-1.1603 0.48126-2.1181 0.48126-3.448 0-1.3349-0.16838-2.2731-0.56147-3.4488-1.4405-4.3109-5.2808-7.1336-9.5449-7.4584zm-29.52 23.576c4.9535-0.33147 9.9288 2.0291 12.753 6.2547 1.0185 1.5243 1.8294 3.5664 2.1656 5.3731 0.23541 1.2637 0.17381 4.1123-0.0802 5.2925-0.73932 3.4344-2.5344 6.3339-5.2136 8.4203-2.225 1.7325-4.7085 2.6533-7.6199 2.8867-0.58257 0.048-1.1889 0.088-1.2833 0.08-1.0504-0.06667-1.8649-0.18133-2.5667-0.32053-5.8648-1.1957-10.192-5.8048-11.149-11.788-0.13699-0.8528-0.13758-3.3763 0-4.1704 0.55799-3.2184 1.7389-5.5912 3.9302-7.7787 1.2708-1.2691 2.3141-2.0059 3.7698-2.7264 1.2141-0.60133 1.966-0.92107 3.2084-1.2027 0.70306-0.16 1.3778-0.2736 2.0854-0.3208zm1.524 5.3728c-4.1622-0.24533-7.9552 2.4064-9.0636 6.5755-0.1956 0.73547-0.24061 0.91467-0.24061 2.1653 0 1.2531 0.044 1.5083 0.24061 2.2453 0.45446 1.7035 1.5318 3.4171 2.8073 4.4909 0.97946 0.8232 2.1626 1.452 3.048 1.6035 2.4074 0.41867 4.7747-1.2243 5.1334-3.6088v-0.32053h-1.524c-1.0973 0-1.6702-0.0008-2.0052-0.08-1.9534-0.50907-3.2886-2.2752-3.2886-4.2504 0-1.2101 0.40857-2.2539 1.2833-3.1277 0.82663-0.82533 1.939-1.2827 3.048-1.2827 1.9741 0 3.9188 1.5013 4.3313 3.4477 0.0925 0.43707 0.0789 1.3947 0.0802 4.4907v3.9299h0.48126c0.99735-0.112 2.0809-0.6088 2.7271-1.2832 0.38328-0.4 0.77824-1.2483 0.96251-1.8445 0.14482-0.46933 0.1604-0.76773 0.1604-2.9669 0-3.1531-0.10763-3.8851-0.96251-5.5333-1.0714-2.0656-3.2129-3.7472-5.4542-4.3304-0.60222-0.15733-1.17-0.28533-1.7646-0.32027z"/>
  <path id="path4158" d="m-118.21-22.139c-1.4214-0.10667-2.889 0.08267-4.3313 0.56107-1.7283 0.57493-2.9212 1.3171-4.2511 2.6467-1.7226 1.7219-2.6275 3.5549-3.048 6.0139-0.2324 1.3595-0.39977 1.8739-0.8021 2.7264-1.5414 3.2688-4.9036 5.5336-8.2615 5.5336-0.27908 0-1.1695-0.050667-2.0052-0.15733-3.3715-0.44213-4.9093-0.49627-8.422-0.15733-0.9487 0.090667-2.1007 0.15733-2.4865 0.15733-1.668 0.00107-2.683-0.62747-3.3688-2.0051-0.42647-0.85653-0.57918-1.2856-0.56146-2.8069 0.0144-1.2736 0.043-1.4253-0.1604-2.0043-0.32836-0.93573-0.63831-1.3632-1.3636-2.0853-1.0541-1.0499-2.1617-1.5237-3.6094-1.5237-0.94507 0.0019-1.6132 0.14667-2.4063 0.56187-1.6712 0.8688-2.7143 2.4768-2.8073 4.3299-0.0646 1.2867 0.18266 2.0565 0.88229 3.128 0.50813 0.7776 1.1207 1.3408 2.2459 1.9245 1.2142 0.62907 1.8611 1.2256 2.4063 2.3256 0.34534 0.69547 0.32083 0.76 0.32083 1.5235 0 0.7208-0.00046 0.79653-0.24061 1.2829-0.14443 0.29333-0.55695 0.8416-0.8823 1.2027-3.0068 3.3392-4.8366 6.9456-5.6146 10.826-0.36852 1.8344-0.477 2.8275-0.40105 4.8115 0.0365 0.94987 0.0853 2.0061 0.0802 2.3253-0.0276 1.8165-1.3221 3.0685-4.0907 4.0096-0.66807 0.22667-0.97079 0.28747-1.8448 0.32107-0.67845 0.02933-1.2182-0.0008-1.6042-0.08-0.34601-0.06667-1.0551-0.08-1.7646-0.08-1.3477 0-1.9855 0.14933-3.048 0.64107-3.9369 1.8187-5.666 6.3901-3.85 10.265 2.3202 4.9501 8.8975 6.0176 12.673 2.0848 0.55834-0.5816 0.83836-1.0243 1.4438-2.0848 0.19349-0.33867 0.58516-0.8136 0.8823-1.1232 1.3383-1.3931 3.1643-2.0848 5.2938-2.0848 1.5221 0 2.4229 0.32213 3.6094 1.2832 1.9724 1.5973 4.7251 2.9877 7.1386 3.6885 2.672 0.77813 4.1837 0.89947 8.6626 0.80213 1.3151-0.02933 1.7216 0.04267 2.3261 0.15733 1.678 0.336 3.3166 0.98533 4.7323 1.9248 1.0424 0.69173 2.7592 2.4088 3.449 3.4483 0.93168 1.4037 1.6212 3.1685 1.8448 4.5707 0.37566 2.3568 0.82218 3.7595 1.6042 5.2928 2.1184 4.1547 5.9026 6.9376 10.588 7.7787 1.29 0.22933 4.0725 0.18133 5.374-0.08 4.453-0.90907 8.1608-3.7157 10.187-7.6981 1.1009-2.1645 1.6016-4.1432 1.6042-6.6555 0.006-5.8672-3.4044-11.069-8.823-13.392-1.2428-0.5328-2.1546-0.75307-3.85-1.0424-1.6849-0.28773-2.8072-0.65627-4.0105-1.2832-2.816-1.4667-5.0991-4.1643-6.0959-7.1368-0.55211-1.6472-0.77742-3.2672-0.64167-5.2125 0.0857-1.2285 0.0363-5.3365-0.0802-8.1795-0.0747-1.8224 0.19133-2.9445 0.96252-4.4909 0.88427-1.7725 2.3492-3.2483 4.1709-4.1696 0.94798-0.48 1.6296-0.65173 2.9677-0.8824 1.4158-0.24267 2.426-0.55573 3.5292-1.1229 2.543-1.3053 4.463-3.5299 5.374-6.2547 0.38779-1.1603 0.48126-2.1181 0.48126-3.448 0-1.3349-0.16838-2.2731-0.56147-3.4488-1.4405-4.3109-5.2808-7.1336-9.5449-7.4584zm-29.52 23.577c4.9535-0.33147 9.9288 2.0291 12.753 6.2547 1.0185 1.5243 1.8294 3.5664 2.1656 5.3731 0.23541 1.2637 0.17381 4.1123-0.0802 5.2925-0.73932 3.4344-2.5344 6.3339-5.2136 8.4203-2.225 1.7325-4.7085 2.6533-7.6199 2.8867-0.58257 0.048-1.1889 0.088-1.2833 0.08-1.0504-0.06667-1.8649-0.18133-2.5667-0.32053-5.8648-1.1957-10.192-5.8048-11.149-11.788-0.13699-0.8528-0.13758-3.3763 0-4.1704 0.55799-3.2184 1.7389-5.5912 3.9302-7.7787 1.2708-1.2691 2.3141-2.0059 3.7698-2.7264 1.2141-0.60133 1.966-0.92107 3.2084-1.2027 0.70306-0.16 1.3778-0.2736 2.0854-0.3208zm1.524 5.3728c-4.1622-0.24533-7.9552 2.4064-9.0636 6.5755-0.1956 0.73547-0.24061 0.91467-0.24061 2.1653 0 1.2531 0.044 1.5083 0.24061 2.2453 0.45446 1.7035 1.5318 3.4171 2.8073 4.4909 0.97946 0.8232 2.1626 1.452 3.048 1.6035 2.4074 0.41867 4.7747-1.2243 5.1334-3.6088v-0.32053h-1.524c-1.0973 0-1.6702-0.0008-2.0052-0.08-1.9534-0.50907-3.2886-2.2752-3.2886-4.2504 0-1.2101 0.40857-2.2539 1.2833-3.1277 0.82663-0.82533 1.939-1.2827 3.048-1.2827 1.9741 0 3.9188 1.5013 4.3313 3.4477 0.0925 0.43707 0.0789 1.3947 0.0802 4.4907v3.9299h0.48126c0.99735-0.112 2.0809-0.6088 2.7271-1.2832 0.38328-0.4 0.77824-1.2483 0.96251-1.8445 0.14482-0.46933 0.1604-0.76773 0.1604-2.9669 0-3.1531-0.10763-3.8851-0.96251-5.5333-1.0714-2.0656-3.2129-3.7472-5.4542-4.3304-0.60222-0.15733-1.17-0.28533-1.7646-0.32027z" style="fill-opacity:.11765"/>
  <path id="path4154" style="fill-opacity:.23529" d="m-118.21-23.205c-1.4214-0.10667-2.889 0.08267-4.3313 0.56107-1.7283 0.57493-2.9212 1.3171-4.2511 2.6467-1.7226 1.7219-2.6275 3.5549-3.048 6.0139-0.2324 1.3595-0.39977 1.8739-0.8021 2.7264-1.5414 3.2688-4.9036 5.5336-8.2615 5.5336-0.27908 0-1.1695-0.050667-2.0052-0.15733-3.3715-0.44213-4.9093-0.49627-8.422-0.15733-0.9487 0.090667-2.1007 0.15733-2.4865 0.15733-1.668 0.00107-2.683-0.62747-3.3688-2.0051-0.42647-0.85653-0.57918-1.2856-0.56146-2.8069 0.0144-1.2736 0.043-1.4253-0.1604-2.0043-0.32836-0.93573-0.63831-1.3632-1.3636-2.0853-1.0541-1.0499-2.1617-1.5237-3.6094-1.5237-0.94507 0.0019-1.6132 0.14667-2.4063 0.56187-1.6712 0.8688-2.7143 2.4768-2.8073 4.3299-0.0646 1.2867 0.18266 2.0565 0.88229 3.128 0.50813 0.7776 1.1207 1.3408 2.2459 1.9245 1.2142 0.62907 1.8611 1.2256 2.4063 2.3256 0.34534 0.69547 0.32083 0.76 0.32083 1.5235 0 0.7208-0.00046 0.79653-0.24061 1.2829-0.14443 0.29333-0.55695 0.8416-0.8823 1.2027-3.0068 3.3392-4.8366 6.9456-5.6146 10.826-0.36852 1.8344-0.477 2.8275-0.40105 4.8115 0.0365 0.94987 0.0853 2.0061 0.0802 2.3253-0.0276 1.8165-1.3221 3.0685-4.0907 4.0096-0.66807 0.22667-0.97079 0.28747-1.8448 0.32107-0.67845 0.02933-1.2182-0.0008-1.6042-0.08-0.34601-0.06667-1.0551-0.08-1.7646-0.08-1.3477 0-1.9855 0.14933-3.048 0.64107-3.9369 1.8187-5.666 6.3901-3.85 10.265 2.3202 4.9501 8.8975 6.0176 12.673 2.0848 0.55834-0.5816 0.83836-1.0243 1.4438-2.0848 0.19349-0.33867 0.58516-0.8136 0.8823-1.1232 1.3383-1.3931 3.1643-2.0848 5.2938-2.0848 1.5221 0 2.4229 0.32213 3.6094 1.2832 1.9724 1.5973 4.7251 2.9877 7.1386 3.6885 2.672 0.77813 4.1837 0.89947 8.6626 0.80213 1.3151-0.02933 1.7216 0.04267 2.3261 0.15733 1.678 0.336 3.3166 0.98533 4.7323 1.9248 1.0424 0.69173 2.7592 2.4088 3.449 3.4483 0.93168 1.4037 1.6212 3.1685 1.8448 4.5707 0.37566 2.3568 0.82218 3.7595 1.6042 5.2928 2.1184 4.1547 5.9026 6.9376 10.588 7.7787 1.29 0.22933 4.0725 0.18133 5.374-0.08 4.453-0.90907 8.1608-3.7157 10.187-7.6981 1.1009-2.1645 1.6016-4.1432 1.6042-6.6555 0.006-5.8672-3.4044-11.069-8.823-13.392-1.2428-0.5328-2.1546-0.75307-3.85-1.0424-1.6849-0.28773-2.8072-0.65627-4.0105-1.2832-2.816-1.4667-5.0991-4.1643-6.0959-7.1368-0.55211-1.6472-0.77742-3.2672-0.64167-5.2125 0.0857-1.2285 0.0363-5.3365-0.0802-8.1795-0.0747-1.8224 0.19133-2.9445 0.96252-4.4909 0.88427-1.7725 2.3492-3.2483 4.1709-4.1696 0.94798-0.48 1.6296-0.65173 2.9677-0.8824 1.4158-0.24267 2.426-0.55573 3.5292-1.1229 2.543-1.3053 4.463-3.5299 5.374-6.2547 0.38779-1.1603 0.48126-2.1181 0.48126-3.448 0-1.3349-0.16838-2.2731-0.56147-3.4488-1.4405-4.3109-5.2808-7.1336-9.5449-7.4584zm-29.52 23.576c4.9535-0.33147 9.9288 2.0291 12.753 6.2547 1.0185 1.5243 1.8294 3.5664 2.1656 5.3731 0.23541 1.2637 0.17381 4.1123-0.0802 5.2925-0.73932 3.4344-2.5344 6.3339-5.2136 8.4203-2.225 1.7325-4.7085 2.6533-7.6199 2.8867-0.58257 0.048-1.1889 0.088-1.2833 0.08-1.0504-0.06667-1.8649-0.18133-2.5667-0.32053-5.8648-1.1957-10.192-5.8048-11.149-11.788-0.13699-0.8528-0.13758-3.3763 0-4.1704 0.55799-3.2184 1.7389-5.5912 3.9302-7.7787 1.2708-1.2691 2.3141-2.0059 3.7698-2.7264 1.2141-0.60133 1.966-0.92107 3.2084-1.2027 0.70306-0.16 1.3778-0.2736 2.0854-0.3208zm1.524 5.3728c-4.1622-0.24533-7.9552 2.4064-9.0636 6.5755-0.1956 0.73547-0.24061 0.91467-0.24061 2.1653 0 1.2531 0.044 1.5083 0.24061 2.2453 0.45446 1.7035 1.5318 3.4171 2.8073 4.4909 0.97946 0.8232 2.1626 1.452 3.048 1.6035 2.4074 0.41867 4.7747-1.2243 5.1334-3.6088v-0.32053h-1.524c-1.0973 0-1.6702-0.0008-2.0052-0.08-1.9534-0.50907-3.2886-2.2752-3.2886-4.2504 0-1.2101 0.40857-2.2539 1.2833-3.1277 0.82663-0.82533 1.939-1.2827 3.048-1.2827 1.9741 0 3.9188 1.5013 4.3313 3.4477 0.0925 0.43707 0.0789 1.3947 0.0802 4.4907v3.9299h0.48126c0.99735-0.112 2.0809-0.6088 2.7271-1.2832 0.38328-0.4 0.77824-1.2483 0.96251-1.8445 0.14482-0.46933 0.1604-0.76773 0.1604-2.9669 0-3.1531-0.10763-3.8851-0.96251-5.5333-1.0714-2.0656-3.2129-3.7472-5.4542-4.3304-0.60222-0.15733-1.17-0.28533-1.7646-0.32027z"/>
  <path id="path4088" d="m-118.21-24.273c-1.4214-0.10667-2.889 0.08267-4.3313 0.56107-1.7283 0.57493-2.9212 1.3171-4.2511 2.6467-1.7226 1.7219-2.6275 3.5549-3.048 6.0139-0.2324 1.3595-0.39977 1.8739-0.8021 2.7264-1.5414 3.2688-4.9036 5.5336-8.2615 5.5336-0.27908 0-1.1695-0.050667-2.0052-0.15733-3.3715-0.44213-4.9093-0.49627-8.422-0.15733-0.9487 0.090667-2.1007 0.15733-2.4865 0.15733-1.668 0.00107-2.683-0.62747-3.3688-2.0051-0.42647-0.85653-0.57918-1.2856-0.56146-2.8069 0.0144-1.2736 0.043-1.4253-0.1604-2.0043-0.32836-0.93573-0.63831-1.3632-1.3636-2.0853-1.0541-1.0499-2.1617-1.5237-3.6094-1.5237-0.94507 0.0019-1.6132 0.14667-2.4063 0.56187-1.6712 0.8688-2.7143 2.4768-2.8073 4.3299-0.0646 1.2867 0.18266 2.0565 0.88229 3.128 0.50813 0.7776 1.1207 1.3408 2.2459 1.9245 1.2142 0.62907 1.8611 1.2256 2.4063 2.3256 0.34534 0.69547 0.32083 0.76 0.32083 1.5235 0 0.7208-0.00046 0.79653-0.24061 1.2829-0.14443 0.29333-0.55695 0.8416-0.8823 1.2027-3.0068 3.3392-4.8366 6.9456-5.6146 10.826-0.36852 1.8344-0.477 2.8275-0.40105 4.8115 0.0365 0.94987 0.0853 2.0061 0.0802 2.3253-0.0276 1.8165-1.3221 3.0685-4.0907 4.0096-0.66807 0.22667-0.97079 0.28747-1.8448 0.32107-0.67845 0.02933-1.2182-0.0008-1.6042-0.08-0.34601-0.06667-1.0551-0.08-1.7646-0.08-1.3477 0-1.9855 0.14933-3.048 0.64107-3.9369 1.8187-5.666 6.3901-3.85 10.265 2.3202 4.9501 8.8975 6.0176 12.673 2.0848 0.55834-0.5816 0.83836-1.0243 1.4438-2.0848 0.19349-0.33867 0.58516-0.8136 0.8823-1.1232 1.3383-1.3931 3.1643-2.0848 5.2938-2.0848 1.5221 0 2.4229 0.32213 3.6094 1.2832 1.9724 1.5973 4.7251 2.9877 7.1386 3.6885 2.672 0.77813 4.1837 0.89947 8.6626 0.80213 1.3151-0.02933 1.7216 0.04267 2.3261 0.15733 1.678 0.336 3.3166 0.98533 4.7323 1.9248 1.0424 0.69173 2.7592 2.4088 3.449 3.4483 0.93168 1.4037 1.6212 3.1685 1.8448 4.5707 0.37566 2.3568 0.82218 3.7595 1.6042 5.2928 2.1184 4.1547 5.9026 6.9376 10.588 7.7787 1.29 0.22933 4.0725 0.18133 5.374-0.08 4.453-0.90907 8.1608-3.7157 10.187-7.6981 1.1009-2.1645 1.6016-4.1432 1.6042-6.6555 0.006-5.8672-3.4044-11.069-8.823-13.392-1.2428-0.5328-2.1546-0.75307-3.85-1.0424-1.6849-0.28773-2.8072-0.65627-4.0105-1.2832-2.816-1.4667-5.0991-4.1643-6.0959-7.1368-0.55211-1.6472-0.77742-3.2672-0.64167-5.2125 0.0857-1.2285 0.0363-5.3365-0.0802-8.1795-0.0747-1.8224 0.19133-2.9445 0.96252-4.4909 0.88427-1.7725 2.3492-3.2483 4.1709-4.1696 0.94798-0.48 1.6296-0.65173 2.9677-0.8824 1.4158-0.24267 2.426-0.55573 3.5292-1.1229 2.543-1.3053 4.463-3.5299 5.374-6.2547 0.38779-1.1603 0.48126-2.1181 0.48126-3.448 0-1.3349-0.16838-2.2731-0.56147-3.4488-1.4405-4.3109-5.2808-7.1336-9.5449-7.4584zm-29.517 23.576c4.9535-0.33147 9.9288 2.0291 12.753 6.2547 1.0185 1.5243 1.8294 3.5664 2.1656 5.3731 0.23541 1.2637 0.17381 4.1123-0.0802 5.2925-0.73932 3.4344-2.5344 6.3339-5.2136 8.4203-2.225 1.7325-4.7085 2.6533-7.6199 2.8867-0.58257 0.048-1.1889 0.088-1.2833 0.08-1.0504-0.06667-1.8649-0.18133-2.5667-0.32053-5.8648-1.1957-10.192-5.8048-11.149-11.788-0.13699-0.8528-0.13758-3.3763 0-4.1704 0.55799-3.2184 1.7389-5.5912 3.9302-7.7787 1.2708-1.2691 2.3141-2.0059 3.7698-2.7264 1.2141-0.60133 1.966-0.92107 3.2084-1.2027 0.70306-0.16 1.3778-0.2736 2.0854-0.3208zm1.524 5.3728c-4.1622-0.24533-7.9552 2.4064-9.0636 6.5755-0.1956 0.73547-0.24061 0.91467-0.24061 2.1653 0 1.2531 0.044 1.5083 0.24061 2.2453 0.45446 1.7035 1.5318 3.4171 2.8073 4.4909 0.97946 0.8232 2.1626 1.452 3.048 1.6035 2.4074 0.41867 4.7747-1.2243 5.1334-3.6088v-0.32053h-1.524c-1.0973 0-1.6702-0.0008-2.0052-0.08-1.9534-0.50907-3.2886-2.2752-3.2886-4.2504 0-1.2101 0.40857-2.2539 1.2833-3.1277 0.82663-0.82533 1.939-1.2827 3.048-1.2827 1.9741 0 3.9188 1.5013 4.3313 3.4477 0.0925 0.43707 0.0789 1.3947 0.0802 4.4907v3.9299h0.48126c0.99735-0.112 2.0809-0.6088 2.7271-1.2832 0.38328-0.4 0.77824-1.2483 0.96251-1.8445 0.14482-0.46933 0.1604-0.76773 0.1604-2.9669 0-3.1531-0.10763-3.8851-0.96251-5.5333-1.0714-2.0656-3.2129-3.7472-5.4542-4.3304-0.60222-0.15733-1.17-0.28533-1.7646-0.32027z" style="fill:url(#linearGradient5611-4)"/>
  <path id="path4144" d="m-108.16-14.398c-0.0532 0.79787-0.14869 1.5315-0.41666 2.3333-0.911 2.7248-2.8737 4.9445-5.4167 6.2499-1.1032 0.5672-2.0842 0.924-3.5 1.1667-1.3382 0.232-2.052 0.35333-3 0.83333-1.8217 0.92133-3.2824 2.3941-4.1667 4.1667-0.77118 1.5464-0.99133 2.6776-0.91667 4.5 0.0101 0.248-0.009 0.56747 0 0.83333 0.088-1.1168 0.35277-2.036 0.91667-3.1667 0.88427-1.7725 2.3449-3.2453 4.1667-4.1667 0.94797-0.48 1.6618-0.68587 3-0.91653 1.4158-0.24267 2.3968-0.51627 3.5-1.0835 2.543-1.3053 4.5057-3.5251 5.4167-6.2499 0.38779-1.1603 0.5-2.1701 0.5-3.5 0-0.38107-0.0546-0.66907-0.0833-1zm-57.75 1.2499c-0.0415 0.224-0.15491 0.43253-0.16667 0.66667-0.0646 1.2867 0.13371 2.0952 0.83333 3.1667 0.50813 0.7776 1.1249 1.3331 2.25 1.9168 1.2142 0.62907 1.8715 1.2333 2.4167 2.3333 0.1036 0.208 0.11898 0.2856 0.16666 0.41653 0.11992-0.28693 0.16667-0.51173 0.16667-1.0832 0-0.76347 0.012-0.80453-0.33333-1.5-0.54517-1.1-1.2025-1.7043-2.4167-2.3333-1.1251-0.58373-1.7419-1.1392-2.25-1.9168-0.38685-0.59253-0.53267-1.1203-0.66666-1.6667zm18.167 10.333c-0.70766 0.048-1.3803 0.17333-2.0833 0.33333-1.2424 0.2816-1.9525 0.56533-3.1667 1.1667-1.4557 0.72053-2.5625 1.4811-3.8333 2.7501-2.1913 2.1875-3.3587 4.5315-3.9167 7.7499-0.10461 0.60373-0.0544 2.0579 0 3.1667 0.0171-0.34213-0.033-0.8096 0-1 0.558-3.2184 1.7253-5.6459 3.9167-7.8333 1.2708-1.2691 2.3776-1.9461 3.8333-2.6667 1.2141-0.60133 1.9242-0.96827 3.1667-1.2499 0.70307-0.16 1.3757-0.28613 2.0833-0.33333 4.9535-0.33147 9.9256 2.1077 12.75 6.3333 1.0185 1.5243 1.8304 3.5267 2.1667 5.3333 0.0625 0.33547 0.0607 0.9184 0.0833 1.4165 0.0739-1.2811 0.0724-2.7475-0.0833-3.5832-0.33626-1.8067-1.1482-3.8091-2.1667-5.3333-2.8244-4.2256-7.7965-6.5816-12.75-6.2501zm0.99999 9.7501c-1.109 0-2.2567 0.508-3.0833 1.3333-0.87477 0.87387-1.25 1.8731-1.25 3.0832 0 0.31973 0.0997 0.61227 0.16667 0.9168 0.19349-0.69547 0.52502-1.3589 1.0833-1.9168 0.82663-0.82533 1.9744-1.2499 3.0833-1.2499 1.9741 0 3.9208 1.4701 4.3333 3.4165-0.009-0.5856 0.0428-1.8811 0-2.0832-0.41253-1.9464-2.3592-3.5-4.3333-3.5zm-8.75 5.6667c-0.0139 0.24 0 0.41627 0 0.83333 0 1.2531 0.0534 1.5128 0.25 2.2499 0.45446 1.7035 1.4744 3.4261 2.75 4.5 0.97946 0.8232 2.198 1.432 3.0833 1.5835 2.4074 0.41867 4.808-1.1989 5.1667-3.5835v-0.33333h-0.75c-0.95505 1.352-2.6773 2.0525-4.4167 1.7501-0.88537-0.152-2.1039-0.76027-3.0833-1.5835-1.2756-1.0739-2.2955-2.7965-2.75-4.5-0.0983-0.36853-0.21443-0.604-0.25-0.91653zm30 0.41653c-0.0509 0.7296-0.0488 1.4267 0 2.0835 0.0245-0.38587-0.003-1.3056 0-2.0835zm-41.917 0.4168c-0.002 0.36533-0.0171 0.63893 0 1.0832 0.009 0.23733-0.01 0.34613 0 0.58347 0.0133-0.11733 0.0815-0.21067 0.0833-0.33333 0.003-0.18133-0.0634-0.8264-0.0833-1.3333zm29.333 0.41653c-0.0117 0.9984 0.0237 1.4861-0.0833 1.8333-0.18426 0.59627-0.61671 1.4333-0.99999 1.8333-0.64617 0.6744-1.7526 1.2213-2.75 1.3333h-0.41667v2.0835h0.41667c0.99735-0.112 2.1038-0.57573 2.75-1.2501 0.38328-0.4 0.81573-1.2371 0.99999-1.8333 0.14483-0.46933 0.16667-0.8008 0.16667-3 0-0.412-0.0782-0.6632-0.0833-1zm-25.167 12.75c-2.1295 0-3.9117 0.69013-5.25 2.0832-0.29714 0.3096-0.72317 0.828-0.91666 1.1667-0.60541 1.0605-0.85833 1.5019-1.4167 2.0835-3.7756 3.9328-10.346 2.8667-12.667-2.0835-0.35379-0.75493-0.5721-1.5509-0.66667-2.3333-0.24554 1.4672-0.0143 2.9635 0.66667 4.4168 2.3202 4.9501 8.8911 6.016 12.667 2.0832 0.55834-0.5816 0.81126-1.0227 1.4167-2.0832 0.19349-0.33867 0.61952-0.77387 0.91666-1.0835 1.3383-1.3931 3.1205-2.0832 5.25-2.0832 1.5221 0 2.4802 0.2888 3.6667 1.2499 1.9724 1.5973 4.6698 2.9659 7.0833 3.6667 2.672 0.77813 4.1878 0.93067 8.6667 0.83333 1.3151-0.02933 1.7288 0.05067 2.3333 0.16533 1.678 0.336 3.3342 0.97733 4.75 1.9168 1.0424 0.69173 2.7268 2.3771 3.4167 3.4165 0.93168 1.4037 1.6931 3.1813 1.9167 4.5835 0.37567 2.3568 0.80134 3.8 1.5833 5.3333 2.1184 4.1547 5.8984 6.9088 10.583 7.7499 1.29 0.22933 4.0318 0.17867 5.3333-0.08267 4.453-0.90907 8.2242-3.6843 10.25-7.6667 1.1009-2.1645 1.5808-4.1544 1.5833-6.6667 0.0003-0.28267-0.0679-0.55413-0.0833-0.83333-0.15314 1.9157-0.59939 3.5624-1.5 5.3333-2.0258 3.9824-5.797 6.7576-10.25 7.6667-1.3015 0.26133-4.0434 0.31253-5.3333 0.08267-4.685-0.84107-8.4649-3.5952-10.583-7.7499-0.782-1.5333-1.2077-2.8933-1.5833-5.2501-0.22357-1.4021-0.98498-3.1795-1.9167-4.5832-0.68985-1.0395-2.3743-2.8083-3.4167-3.5-1.4158-0.93947-3.072-1.5808-4.75-1.9168-0.60451-0.11467-1.0183-0.19467-2.3333-0.16533-4.4789 0.096-5.9946 0.02933-8.6667-0.74987-2.4136-0.7008-5.1109-2.1528-7.0833-3.7501-1.1865-0.96107-2.1446-1.2499-3.6667-1.2499z" style="fill:#f96a01;fill-opacity:.31373"/>
  <path id="path4149" style="fill:#fff;fill-opacity:.23529" d="m-120.41-24.235c-0.72487 0.0938-1.4455 0.2608-2.1667 0.5-1.7283 0.57493-2.9201 1.3371-4.25 2.6667-1.7226 1.7219-2.5796 3.5411-3 6-0.2324 1.3595-0.43101 1.8975-0.83334 2.75-1.5414 3.2688-4.892 5.5-8.25 5.5-0.27908 0-1.1642-0.06-2-0.16667-3.3715-0.44213-4.904-0.42227-8.4167-0.083333-0.9487 0.090667-2.1142 0.083333-2.5 0.083333-1.668 0.00107-2.6475-0.6224-3.3333-2-0.42647-0.85653-0.60105-1.2287-0.58333-2.75 0.006 0.25096 0.006 0.56593 0 1.0833-0.0176 1.5213 0.15685 1.8935 0.58333 2.75 0.68581 1.3776 1.6654 2.0011 3.3333 2 0.38581 0 1.5513-0.076 2.5-0.16667 3.5126-0.33893 5.0451-0.27547 8.4167 0.16667 0.83577 0.10667 1.7209 0.16667 2 0.16667 3.358 0 6.7086-2.2312 8.25-5.5 0.40233-0.85253 0.60094-1.3905 0.83334-2.75 0.42043-2.4589 1.2774-4.2781 3-6 1.3299-1.3296 2.5217-2.0917 4.25-2.6667 1.4423-0.4784 2.912-0.69 4.3333-0.58333 4.2641 0.3248 8.1428 3.1891 9.5833 7.5 0.33656 1.0066 0.45754 1.8602 0.5 2.9167 0.006-0.19589 0.0833-0.37077 0.0833-0.58333 0-1.3349-0.19024-2.2409-0.58334-3.4167-1.4405-4.3109-5.3192-7.0919-9.5833-7.4167-0.71068-0.05333-1.4418-0.0938-2.1667 0zm-40.5 6.8333c-0.94507 0.0019-1.6236 0.16813-2.4167 0.58333-1.6712 0.8688-2.657 2.4803-2.75 4.3333-0.0163 0.32167-0.0251 0.64681 0 0.91667 0.14557-1.7823 1.1292-3.3241 2.75-4.1667 0.79309-0.4152 1.4716-0.58147 2.4167-0.58333 1.4477 0 2.6126 0.45013 3.6667 1.5 0.72525 0.72213 1.005 1.1476 1.3333 2.0833 0.10171 0.28947 0.15019 0.4805 0.16667 0.75 0.0133-0.95824 0.0165-1.229-0.16667-1.75-0.32836-0.93573-0.60808-1.3612-1.3333-2.0833-1.0541-1.0499-2.219-1.5833-3.6667-1.5833zm0.66667 14.583c-0.0301 0.16984-0.12992 0.2568-0.25 0.5-0.14443 0.29333-0.50798 0.88893-0.83333 1.25-3.0068 3.3392-4.8886 6.9528-5.6667 10.833-0.26676 1.3279-0.31041 2.2755-0.33333 3.4167 0.0637-0.72557 0.14907-1.4995 0.33333-2.4167 0.77803-3.8805 2.6599-7.4941 5.6667-10.833 0.32535-0.36107 0.6889-0.87333 0.83333-1.1667 0.24016-0.4864 0.25-0.5292 0.25-1.25 0-0.15269 0.001-0.22592 0-0.33333zm12.5 7.5c-3.5295 0.4002-6.5301 2.9354-7.5 6.5833-0.17606 0.66192-0.24094 0.96928-0.25 1.9167 0.0357-0.29307 0.15221-0.4656 0.25-0.83333 1.1084-4.1691 4.8378-6.8287 9-6.5833 0.5946 0.034933 1.2311 0.17573 1.8333 0.33333 2.2413 0.5832 4.3453 2.2677 5.4167 4.3333 0.64116 1.2362 0.84633 1.8867 0.91667 3.5-0.0308-2.3068-0.16421-3.1325-0.91667-4.5833-1.0714-2.0656-3.1754-3.7501-5.4167-4.3333-0.60222-0.1576-1.2387-0.2984-1.8333-0.33333-0.52027-0.030667-0.99578-0.057173-1.5 0zm9.6667 9.25c0.0176 0.40357 0.0803 0.9627 0.0833 1.5 0.00084-0.23195 0-0.28772 0-0.58333 0-0.37777-0.0791-0.60266-0.0833-0.91667zm-12.917-0.08333c-0.0348 0.23397-0.0833 0.50202-0.0833 0.75 0 1.9752 1.2966 3.7409 3.25 4.25 0.335 0.0792 0.90267 0.08333 2 0.08333h1.3333c0.0896-0.24968 0.20928-0.47928 0.25-0.75v-0.33333h-1.5833c-1.0973 0-1.665-0.0043-2-0.08333-1.837-0.47874-3.0195-2.086-3.1667-3.9167zm18.333 0.16667c-0.0307 0.84904-0.14266 1.7513-0.25 2.25-0.73931 3.4344-2.4875 6.3303-5.1667 8.4167-2.225 1.7325-4.7553 2.6-7.6667 2.8333-0.58257 0.048-1.1556 0.09133-1.25 0.08333-1.0504-0.06667-1.8816-0.19413-2.5833-0.33333-5.8647-1.1957-10.21-5.7671-11.167-11.75 0.0171 0.36821-0.0342 0.87045 0 1.0833 0.95686 5.9829 5.3019 10.554 11.167 11.75 0.70176 0.1392 1.533 0.26667 2.5833 0.33333 0.0944 0.008 0.66743-0.03533 1.25-0.08333 2.9114-0.23333 5.4417-1.1841 7.6667-2.9167 2.6792-2.0864 4.4274-4.9823 5.1667-8.4167 0.15864-0.73709 0.26693-2.004 0.25-3.25zm7.1667 2.9167c-0.0455 1.6542 0.0959 3.0459 0.58333 4.5 0.99676 2.9725 3.3506 5.7 6.1667 7.1667 1.2032 0.62693 2.3151 0.96227 4 1.25 1.6955 0.28933 2.5906 0.55053 3.8333 1.0833 5.2891 2.2674 8.6809 7.3053 8.8333 13 0.009-0.22971-0.00025-0.42794 0-0.66667 0.006-5.8672-3.4147-11.094-8.8333-13.417-1.2428-0.5328-2.1379-0.71067-3.8333-1-1.6849-0.28773-2.7968-0.7064-4-1.3333-2.816-1.4667-5.1699-4.1108-6.1667-7.0833-0.37905-1.1309-0.52344-2.2807-0.58333-3.5zm-41.833 0.08333c-0.10552 1.7235-1.4035 2.9224-4.0833 3.8333-0.66808 0.22667-0.95931 0.29973-1.8333 0.33333-0.67844 0.02933-1.1973-0.0043-1.5833-0.08333-0.34601-0.06667-1.0405-0.08333-1.75-0.08333-1.3477 0-2.0208 0.17493-3.0833 0.66667-3.0369 1.4029-4.7044 4.4043-4.5 7.5 0.21332-2.6996 1.8214-5.1793 4.5-6.4167 1.0625-0.49173 1.7356-0.66667 3.0833-0.66667 0.70952 0 1.404 0.0168 1.75 0.08333 0.38599 0.0792 0.90489 0.11267 1.5833 0.08333 0.87403-0.0336 1.1653-0.10667 1.8333-0.33333 2.7685-0.94107 4.0558-2.1835 4.0833-4 0.002-0.12525 0.0107-0.61544 0-0.91667z"/>
 </g>
</svg>
