<?xml version="1.0" encoding="UTF-8" standalone="no"?>
<!-- Created with Inkscape (http://www.inkscape.org/) -->
<svg id="svg3449" xmlns:rdf="http://www.w3.org/1999/02/22-rdf-syntax-ns#" xmlns="http://www.w3.org/2000/svg" height="128" width="128" version="1.0" xmlns:cc="http://creativecommons.org/ns#" xmlns:xlink="http://www.w3.org/1999/xlink" xmlns:dc="http://purl.org/dc/elements/1.1/">
 <metadata id="metadata56">
  <rdf:RDF>
   <cc:Work rdf:about="">
    <dc:format>image/svg+xml</dc:format>
    <dc:type rdf:resource="http://purl.org/dc/dcmitype/StillImage"/>
    <dc:title/>
   </cc:Work>
  </rdf:RDF>
 </metadata>
 <defs id="defs3451">
  <linearGradient id="linearGradient3514" y2="-9.1034" gradientUnits="userSpaceOnUse" x2="66.492" gradientTransform="matrix(.96826 0 0 .97948 2.179 .16587)" y1="-42.638" x1="67.952">
   <stop id="stop4620" style="stop-color:#37414b" offset="0"/>
   <stop id="stop4622" style="stop-color:#37414b;stop-opacity:0" offset="1"/>
  </linearGradient>
  <linearGradient id="linearGradient3516" y2="-11.847" gradientUnits="userSpaceOnUse" x2="58.98" gradientTransform="matrix(.96826 0 0 .97948 2.179 .16587)" y1="-118.55" x1="57.173">
   <stop id="stop4596" offset="0"/>
   <stop id="stop4598" style="stop-opacity:0" offset="1"/>
  </linearGradient>
  <linearGradient id="linearGradient3519" y2="50.369" gradientUnits="userSpaceOnUse" x2="76.558" gradientTransform="matrix(.96826 0 0 .97948 3.2423 -129.19)" y1="13.164" x1="76.558">
   <stop id="stop3392" style="stop-color:#425e7b" offset="0"/>
   <stop id="stop3394" style="stop-color:#7a91a7" offset="1"/>
  </linearGradient>
  <linearGradient id="linearGradient3521" y2="-8.7399" gradientUnits="userSpaceOnUse" x2="60.217" gradientTransform="matrix(.96826 0 0 .97948 2.179 .16587)" y1="-123.72" x1="60.395">
   <stop id="stop3392-4-8" style="stop-color:#425e7b" offset="0"/>
   <stop id="stop3394-8-0" style="stop-color:#7a91a7" offset="1"/>
  </linearGradient>
  <radialGradient id="radialGradient3349" gradientUnits="userSpaceOnUse" cy="47.837" cx="42.674" gradientTransform="matrix(.94690 0 0 1.139 3.5954 -29.89)" r="58.984">
   <stop id="stop3955" style="stop-color:#fcd09d" offset="0"/>
   <stop id="stop3957" style="stop-color:#ee9325" offset="1"/>
  </radialGradient>
  <filter id="filter3174" color-interpolation-filters="sRGB">
   <feGaussianBlur id="feGaussianBlur3176" stdDeviation="1.71"/>
  </filter>
  <linearGradient id="ButtonShadow-1" x1="45.448" gradientUnits="userSpaceOnUse" y1="92.54" gradientTransform="scale(1.0059 .99417)" x2="45.448" y2="7.0165">
   <stop id="stop3750-0" offset="0"/>
   <stop id="stop3752-4" style="stop-opacity:.58824" offset="1"/>
  </linearGradient>
  <linearGradient id="linearGradient5765-1" y2="509.01" gradientUnits="userSpaceOnUse" x2="411.2" gradientTransform="matrix(2.6505 -.71020 .71020 2.6505 -1539.7 -1056.5)" y1="537.88" x1="403.46">
   <stop id="stop4194-7" style="stop-color:#fadfbe;stop-opacity:.96863" offset="0"/>
   <stop id="stop4196-7" style="stop-color:#fffaf5" offset="1"/>
  </linearGradient>
 </defs>
 <rect id="rect892-2-7-2" ry="29.452" style="stroke:#d3d3d3;stroke-width:9.8448;fill:#37414b" transform="scale(1,-1)" height="116.16" width="116.08" y="-122.08" x="5.9224"/>
 <rect id="rect892" style="stroke:url(#linearGradient3521);stroke-width:.97385;fill:url(#linearGradient3519)" transform="scale(1,-1)" ry="29.296" height="115.54" width="114.22" y="-122.25" x="7.0394"/>
 <rect id="rect892-2" style="stroke:url(#linearGradient3516);stroke-width:.97385;fill:url(#linearGradient3514)" transform="scale(1,-1)" ry="28.993" height="114.35" width="114.22" y="-121.46" x="7.0599"/>
 <path id="rect895" style="fill:url(#radialGradient3349)" d="m33.051 7.2596c-7.969-2.4493-27.013 15.174-25.653 23.038-0.050142 0.97378-0.088772 1.9648-0.088772 2.9572v52.419c0 20.876 10.712 33.859 22.318 33.859h67.038c12.638 0 24.318-11.245 24.318-25.859v-64.017c0.7-10.928-21.283-24.659-25.926-22.618-47.846 0.8653-18.017 0.2236-62.003 0.2236z"/>
 <rect id="rect892-2-7-8" style="opacity:.15891;stroke:#000;stroke-width:4.8445;fill:none" transform="scale(1,-1)" ry="28.993" height="114.35" width="114.22" y="-121.16" x="6.8687"/>
 <rect id="rect892-2-7-1" style="opacity:.15891;stroke:#000;stroke-width:7.7512;fill:none" transform="scale(1,-1)" ry="28.993" height="114.35" width="114.22" y="-121.16" x="6.8687"/>
 <rect id="rect892-2-7-2-9" ry="28.067" style="stroke:#000;stroke-width:1.0489;fill:none" transform="scale(1,-1)" height="112.71" width="114.14" y="-120.31" x="7.0649"/>
 <path id="path1187" style="fill:#fff;fill-opacity:.057143" d="m33.017 7.2319c-23.707 0-26.027 0.6738-25.93 26.295-0.04334 0.71563-0.07674 1.4439-0.07674 2.1732v32.76c18.67-38.321 38.34-51.497 90.374-61.179-0.225-0.026-0.46-0.0303-0.691-0.0303-41.576 0.3874-25.652-0.0188-63.676-0.0188z"/>
 <g id="layer2" style="display:none" transform="translate(148.5 -54.67)">
  <rect id="rect3745" style="opacity:.9;filter:url(#filter3174);fill:url(#ButtonShadow-1)" rx="6" ry="6" height="85" width="86" y="7" x="5"/>
 </g>
 <g id="g5776" transform="translate(148.95 19.878)">
  <path id="path4106" style="fill-opacity:.058824" d="m-91.303 3.8388v6.2029 6.2023l0.35344 0.08693c0.19413 0.048 1.4486 0.0672 2.7873 0.0424l2.4339-0.04507 0.04107-6.2422 0.04107-6.2416 3.6886-0.0000267 3.688 0.0000267v6.2858c0.000027 4.8938 0.04373 6.2987 0.19653 6.3432 0.10773 0.0312 1.0634 0.1712 2.1229 0.31101 4.7333 0.62445 8.9268 2.0879 11.742 4.0969 2.2753 1.6236 4.1058 4.189 4.7064 6.5962 0.36936 1.4845 0.37947 4.6244 0.016 6.1151-0.71971 2.9639-2.8338 5.9589-5.4768 7.7599-0.41024 0.27949-0.74544 0.56984-0.74549 0.64504 0.000293 0.0752 0.37059 0.2584 0.82403 0.40707 1.2916 0.42336 3.2223 1.4428 4.431 2.3398 2.3306 1.7297 3.9989 4.1156 4.7264 6.7589 0.34989 1.2741 0.47776 5.0328 0.23333 6.8848-0.66101 5.0038-2.4833 8.4062-5.8682 10.957-3.3477 2.5226-7.4112 3.6817-13.611 3.8818l-3.2193 0.10347-0.04053 6.3208-0.04107 6.3207-3.6867-0.000027h-3.6867l-0.04107-6.3207-0.04107-6.3208-2.7481 0.000026h-2.7481l-0.04107 6.3207-0.04053 6.3208-3.6886-0.000027-3.6886 0.000027-0.000027-6.36v-6.3601l-7.4589 0.000027-7.4589 0.000027v-1.4666c0-0.80677 0.0461-2.5377 0.10294-3.847l0.10293-2.381h3.0591c3.3965 0 4.0382-0.11387 4.8274-0.85824 1.057-0.99691 1.016-0.17013 1.0122-20.33-0.003-17.646-0.0107-18.167-0.30912-18.822-0.2552-0.56197-0.45664-0.74368-1.2135-1.0933-0.88499-0.40875-0.99912-0.42037-4.5588-0.48248l-3.6512-0.06427v-3.7484l-0.00003-3.7491 7.7337-0.04107 7.7338-0.04053 0.0784-6.203 0.0784-6.2023 3.6513-0.0424zm0.000027 20.734-0.000027 7.5243c0 4.1386 0.04293 7.6364 0.09547 7.773 0.08453 0.22 0.72275 0.24853 5.5678 0.24853 5.3364 0.000027 5.4967-0.008 6.4791-0.36581 2.8361-1.0296 4.4182-2.7349 5.1346-5.536 0.75933-2.9691 0.0424-5.7853-1.845-7.2438-2.3783-1.838-5.0521-2.4003-11.409-2.4002zm0.0784 23.319-0.04053 8.2442c-0.02133 4.5343-0.0053 8.3396 0.04053 8.4561 0.12107 0.31579 11.468 0.1584 13.034-0.1808 3.2305-0.69971 5.5777-2.0781 6.8038-3.9959 0.74096-1.1591 1.2998-3.0294 1.3943-4.6647 0.22507-3.8961-1.8671-6.2059-6.7845-7.49-1.3739-0.35872-1.5952-0.36896-7.9301-0.36896z"/>
  <path id="path4104" d="m-91.303 2.7722v6.2029 6.2023l0.35344 0.08693c0.19413 0.048 1.4486 0.0672 2.7873 0.0424l2.4339-0.04507 0.04107-6.2422 0.04107-6.2416 3.6886-0.0000266 3.688 0.0000266v6.2858c0.000027 4.8938 0.04373 6.2987 0.19653 6.3432 0.10773 0.0312 1.0634 0.1712 2.1229 0.31101 4.7333 0.62445 8.9268 2.0879 11.742 4.0969 2.2753 1.6236 4.1058 4.189 4.7064 6.5962 0.36936 1.4845 0.37947 4.6244 0.016 6.1151-0.71971 2.9639-2.8338 5.9589-5.4768 7.7599-0.41024 0.27949-0.74544 0.56984-0.74549 0.64504 0.000293 0.0752 0.37059 0.2584 0.82403 0.40707 1.2916 0.42336 3.2223 1.4428 4.431 2.3398 2.3306 1.7297 3.9989 4.1156 4.7264 6.7589 0.34989 1.2741 0.47776 5.0328 0.23333 6.8848-0.66101 5.0038-2.4833 8.4062-5.8682 10.957-3.3477 2.5226-7.4112 3.6817-13.611 3.8818l-3.2193 0.10347-0.04053 6.3208-0.04107 6.3207-3.6867-0.000027h-3.6867l-0.04107-6.3207-0.04107-6.3208-2.7481 0.000026h-2.7481l-0.04107 6.3207-0.04053 6.3208-3.6886-0.000027-3.6886 0.000027-0.000027-6.36v-6.3601l-7.4589 0.000027-7.4589 0.000027v-1.4666c0-0.80677 0.0461-2.5377 0.10294-3.847l0.10293-2.381h3.0591c3.3965 0 4.0382-0.11387 4.8274-0.85824 1.057-0.99691 1.016-0.17013 1.0122-20.33-0.003-17.646-0.0107-18.167-0.30912-18.822-0.2552-0.56197-0.45664-0.74368-1.2135-1.0933-0.88499-0.40875-0.99912-0.42037-4.5588-0.48248l-3.6512-0.06427v-3.7484l-0.00003-3.7491 7.7337-0.04107 7.7338-0.04053 0.0784-6.203 0.0784-6.2023 3.6513-0.0424zm0.000027 20.734-0.000027 7.5243c0 4.1386 0.04293 7.6364 0.09547 7.773 0.08453 0.22 0.72275 0.24853 5.5678 0.24853 5.3364 0.000027 5.4967-0.008 6.4791-0.36581 2.8361-1.0296 4.4182-2.7349 5.1346-5.536 0.75933-2.9691 0.0424-5.7853-1.845-7.2438-2.3783-1.838-5.0521-2.4003-11.409-2.4002zm0.0784 23.319-0.04053 8.2442c-0.02133 4.5343-0.0053 8.3396 0.04053 8.4561 0.12107 0.31579 11.468 0.1584 13.034-0.1808 3.2305-0.69971 5.5777-2.0781 6.8038-3.9959 0.74096-1.1591 1.2998-3.0294 1.3943-4.6647 0.22507-3.8961-1.8671-6.2059-6.7845-7.49-1.3739-0.35872-1.5952-0.36896-7.9301-0.36896z" style="fill-opacity:.11765"/>
  <path id="path3300" style="fill-opacity:.23529" d="m-91.303 1.7055v6.2029 6.2023l0.35344 0.08693c0.19413 0.048 1.4486 0.0672 2.7873 0.0424l2.4339-0.04507 0.04107-6.2422 0.04107-6.2416 3.6886-0.0000267 3.688 0.0000267v6.2858c0.000027 4.8938 0.04373 6.2987 0.19653 6.3432 0.10773 0.0312 1.0634 0.1712 2.1229 0.31101 4.7333 0.62445 8.9268 2.0879 11.742 4.0969 2.2753 1.6236 4.1058 4.189 4.7064 6.5962 0.36936 1.4845 0.37947 4.6244 0.016 6.1151-0.71971 2.9639-2.8338 5.9589-5.4768 7.7599-0.41024 0.27949-0.74544 0.56984-0.74549 0.64504 0.000293 0.0752 0.37059 0.2584 0.82403 0.40707 1.2916 0.42336 3.2223 1.4428 4.431 2.3398 2.3306 1.7297 3.9989 4.1156 4.7264 6.7589 0.34989 1.2741 0.47776 5.0328 0.23333 6.8848-0.66101 5.0038-2.4833 8.4062-5.8682 10.957-3.3477 2.5226-7.4112 3.6817-13.611 3.8818l-3.2193 0.10347-0.04053 6.3208-0.04107 6.3207-3.6867-0.000027h-3.6867l-0.04107-6.3207-0.04107-6.3208-2.7481 0.000026h-2.7481l-0.04107 6.3207-0.04053 6.3208-3.6886-0.000027-3.6886 0.000027-0.000027-6.36v-6.3601l-7.4589 0.000027-7.4589 0.000027v-1.4666c0-0.80677 0.0461-2.5377 0.10294-3.847l0.10293-2.381h3.0591c3.3965 0 4.0382-0.11387 4.8274-0.85824 1.057-0.99691 1.016-0.17013 1.0122-20.33-0.003-17.646-0.0107-18.167-0.30912-18.822-0.2552-0.56197-0.45664-0.74368-1.2135-1.0933-0.88499-0.40875-0.99912-0.42037-4.5588-0.48248l-3.6512-0.06427v-3.7484l-0.00003-3.7491 7.7337-0.04107 7.7338-0.04053 0.0784-6.203 0.0784-6.2023 3.6513-0.0424zm0.000027 20.734-0.000027 7.5243c0 4.1386 0.04293 7.6364 0.09547 7.773 0.08453 0.22 0.72275 0.24853 5.5678 0.24853 5.3364 0.000027 5.4967-0.008 6.4791-0.36581 2.8361-1.0296 4.4182-2.7349 5.1346-5.536 0.75933-2.9691 0.0424-5.7853-1.845-7.2438-2.3783-1.838-5.0521-2.4003-11.409-2.4002zm0.0784 23.319-0.04053 8.2442c-0.02133 4.5343-0.0053 8.3396 0.04053 8.4561 0.12107 0.31579 11.468 0.1584 13.034-0.1808 3.2305-0.69971 5.5777-2.0781 6.8038-3.9959 0.74096-1.1591 1.2998-3.0294 1.3943-4.6647 0.22507-3.8961-1.8671-6.2059-6.7845-7.49-1.3739-0.35872-1.5952-0.36896-7.9301-0.36896z"/>
  <path id="path3379" d="m-91.303 0.63872v6.2029 6.2023l0.35344 0.08693c0.19413 0.048 1.4486 0.0672 2.7873 0.0424l2.4339-0.04507 0.04107-6.2422 0.04107-6.2416 3.6886-0.00002667 3.688 0.00002667v6.2858c0.000027 4.8938 0.04373 6.2987 0.19653 6.3432 0.10773 0.0312 1.0634 0.1712 2.1229 0.31101 4.7333 0.62445 8.9268 2.0879 11.742 4.0969 2.2753 1.6236 4.1058 4.189 4.7064 6.5962 0.36936 1.4845 0.37947 4.6244 0.016 6.1151-0.71971 2.9639-2.8338 5.9589-5.4768 7.7599-0.41024 0.27949-0.74544 0.56984-0.74549 0.64504 0.000293 0.0752 0.37059 0.2584 0.82403 0.40707 1.2916 0.42336 3.2223 1.4428 4.431 2.3398 2.3306 1.7297 3.9989 4.1156 4.7264 6.7589 0.34989 1.2741 0.47776 5.0328 0.23333 6.8848-0.66101 5.0038-2.4833 8.4062-5.8682 10.957-3.3477 2.5226-7.4112 3.6817-13.611 3.8818l-3.2193 0.10347-0.04053 6.3208-0.04107 6.3207-3.6867-0.000027h-3.6867l-0.04107-6.3207-0.04107-6.3208-2.7481 0.000026h-2.7481l-0.04107 6.3207-0.04053 6.3208-3.6886-0.000027-3.6886 0.000027-0.000027-6.36v-6.3601l-7.4589 0.000026-7.4589 0.000027v-1.4666c0-0.80677 0.0461-2.5377 0.10294-3.847l0.10293-2.381h3.0591c3.3965 0 4.0382-0.11387 4.8274-0.85824 1.057-0.99691 1.016-0.17013 1.0122-20.33-0.003-17.646-0.0107-18.167-0.30912-18.822-0.2552-0.56197-0.45664-0.74368-1.2135-1.0933-0.88499-0.40875-0.99912-0.42037-4.5588-0.48248l-3.6512-0.06427v-3.7484l-0.00003-3.7491 7.7337-0.04107 7.7338-0.04053 0.0784-6.203 0.0784-6.2023 3.6513-0.0424zm0.000027 20.734-0.000027 7.5243c0 4.1386 0.04293 7.6364 0.09547 7.773 0.08453 0.22 0.72275 0.24853 5.5678 0.24853 5.3364 0.000027 5.4967-0.008 6.4791-0.36581 2.8361-1.0296 4.4182-2.7349 5.1346-5.536 0.75933-2.9691 0.0424-5.7853-1.845-7.2438-2.3783-1.838-5.0521-2.4003-11.409-2.4002zm0.0784 23.319-0.04053 8.2442c-0.02133 4.5343-0.0053 8.3396 0.04053 8.4561 0.12107 0.31579 11.468 0.1584 13.034-0.1808 3.2305-0.69971 5.5777-2.0781 6.8038-3.9959 0.74096-1.1591 1.2998-3.0294 1.3943-4.6647 0.22507-3.8961-1.8671-6.2059-6.7845-7.49-1.3739-0.35872-1.5952-0.36896-7.9301-0.36896z" style="fill:url(#linearGradient5765-1)"/>
  <path id="path4108" style="fill:#ed9223;fill-opacity:.31373" d="m-114.23 18.575v2.1302l3.651 0.06771c3.5596 0.06211 3.6723 0.07043 4.5573 0.47916 0.75691 0.34957 0.95835 0.53178 1.2136 1.0937 0.29377 0.64496 0.30964 1.4829 0.31249 18.328-0.00017-0.66276 0.00014-0.92095 0-1.6354-0.003-17.646-0.0141-18.168-0.31249-18.823-0.2552-0.56197-0.45664-0.74418-1.2136-1.0937-0.88498-0.40875-0.99766-0.42227-4.5573-0.48438l-3.651-0.06251zm22.927 0.66667v2.1302h4.026c6.3566-0.000027 9.0279 0.56302 11.406 2.401 1.1014 0.85118 1.793 2.1718 2.0365 3.7083 0.24515-2.4239-0.45279-4.6199-2.0365-5.8437-2.3783-1.838-5.0497-2.3959-11.406-2.3958h-4.026zm32.042 7.1042c-0.03912 0.73166-0.10411 1.4199-0.22395 1.9115-0.71971 2.9639-2.8309 5.9594-5.474 7.7604-0.41024 0.27949-0.74995 0.57063-0.75 0.64583 0.000294 0.0752 0.37468 0.25757 0.82812 0.40625 0.22936 0.07517 0.53482 0.24541 0.79687 0.35416 2.2133-1.8221 3.9636-4.4147 4.599-7.0312 0.23491-0.96338 0.29726-2.5978 0.22395-4.0469zm-31.964 16.214-0.04168 8.2448c-0.0027 0.57831 0.0067 0.52968 0.0053 1.0781l0.03645-7.1927h6.5156c6.335 0 6.5584 0.0112 7.9323 0.36979 4.2023 1.0974 6.326 2.9556 6.7187 5.901 0.02053-0.18072 0.05752-0.36524 0.06771-0.54167 0.22507-3.8961-1.8691-6.2055-6.7865-7.4896-1.3739-0.35872-1.5973-0.36979-7.9323-0.36979h-6.5156zm35.839 8.9687c-0.01893 0.56695-0.04856 1.1047-0.10416 1.526-0.66101 5.0038-2.4849 8.4077-5.8698 10.958-3.3477 2.5226-7.4093 3.6801-13.609 3.8802l-3.224 0.10416-0.03645 6.3229-0.04168 6.3177h-3.6875-3.6875l-0.04168-6.3177-0.04168-6.3229h-2.7448-2.75l-0.04168 6.3229-0.04168 6.3177h-3.6875-3.6875v2.1354h3.6875 3.6875l0.04168-6.3229 0.04168-6.3177h2.75 2.7448l0.04168 6.3177 0.04168 6.3229h3.6875 3.6875l0.04168-6.3229 0.03645-6.3177 3.224-0.10416c6.2001-0.20011 10.262-1.3629 13.609-3.8854 3.3849-2.5506 5.2088-5.9493 5.8698-10.953 0.12221-0.92601 0.14931-2.331 0.10416-3.6615zm-58.198 16.391c-0.003 0.18819-0.0157 0.52694-0.0157 0.66667v1.4687h7.4583 7.4583v-2.1354h-7.4583-7.4427z"/>
  <path id="path4113" style="fill:#fff;fill-opacity:.23529" d="m-91.304 0.63757-3.651 0.04168-3.651 0.04168-0.07813 6.2031-0.07813 6.2031-7.7344 0.04168-7.7344 0.04168v1.0677l7.7344-0.04168 7.7344-0.04168 0.07813-6.2031 0.07813-6.2031 3.651-0.04168 3.651-0.04168v-1.0677zm5.6562 0.005067-0.04168 6.2448-0.04168 6.2396-2.4323 0.04688c-1.3387 0.0248-2.5923 0.0064-2.7865-0.04168l-0.35416-0.08853v1.0677l0.35416 0.08853c0.19413 0.048 1.4478 0.06645 2.7865 0.04168l2.4323-0.04688 0.04168-6.2396 0.04168-6.2448h3.6875 3.6927v-1.0677h-3.6927-3.6875zm7.3802 6.2865v1.0677c0.000027 4.8938 0.03992 6.2993 0.19272 6.3437 0.10773 0.0312 1.0655 0.17269 2.125 0.3125 4.7333 0.62445 8.9242 2.0848 11.74 4.0937 2.2753 1.6236 4.1077 4.1917 4.7083 6.599 0.15781 0.63425 0.23488 1.5816 0.26043 2.5625 0.03299-1.3412-0.04411-2.7608-0.26043-3.6302-0.60067-2.4073-2.4331-4.9754-4.7083-6.599-2.8153-2.009-7.0063-3.4693-11.74-4.0937-1.0595-0.13981-2.0173-0.2813-2.125-0.3125-0.1528-0.04448-0.19269-1.4499-0.19272-6.3437zm-13.036 21.969v1.0677c0 4.1386 0.04123 7.6342 0.09376 7.7708 0.08453 0.22 0.72264 0.25 5.5677 0.25 5.3364 0.000026 5.4968-0.0067 6.4792-0.36458 2.8361-1.0296 4.419-2.7353 5.1354-5.5365 0.26365-1.0309 0.33992-2.0407 0.26043-2.9844-0.02763 0.62442-0.09371 1.2647-0.26043 1.9167-0.7164 2.8011-2.2993 4.5069-5.1354 5.5365-0.9824 0.35781-1.1428 0.36461-6.4792 0.36458-4.8451 0-5.4832-0.03-5.5677-0.25-0.05253-0.13664-0.09376-3.6323-0.09376-7.7708zm26.385 10.286c-0.01493 0.0104-0.02667 0.02613-0.04168 0.03645-0.41024 0.27949-0.74995 0.57063-0.75 0.64583 0.000294 0.0752 0.37468 0.25757 0.82812 0.40625 1.2916 0.42336 3.2185 1.4416 4.4271 2.3385 2.3306 1.7297 4.0017 4.1171 4.7292 6.7604 0.21891 0.79716 0.33546 2.5519 0.34375 4.2187 0.05749-1.9128-0.07725-4.316-0.34375-5.2865-0.72749-2.6433-2.3986-5.0307-4.7292-6.7604-1.2086-0.89699-3.1355-1.9152-4.4271-2.3385-0.02053-0.0067-0.01627-0.01387-0.03645-0.0208zm-5.0885 13.505c-0.11688 1.6016-0.65997 3.3993-1.3802 4.526-1.2261 1.9178-3.5716 3.2951-6.8021 3.9948-1.5661 0.3392-12.915 0.49808-13.036 0.18229-0.04293-0.10904-0.05197-3.7715-0.03645-7.9167l-0.0053 0.52604c-0.02133 4.5343-0.0043 8.3418 0.04168 8.4583 0.12107 0.31579 11.47 0.15691 13.036-0.18229 3.2305-0.69971 5.576-2.077 6.8021-3.9948 0.74096-1.1591 1.3013-3.0314 1.3958-4.6667 0.01893-0.32588-0.0017-0.62307-0.01573-0.92708zm-34.5 0.0208c-0.0364 8.319-0.21246 8.0388-1.0052 8.7865-0.78917 0.74437-1.4264 0.85938-4.8229 0.85938h-3.0625l-0.099 2.3802c-0.0568 1.3093-0.10416 3.0422-0.10416 3.849v1.0677c0-0.80677 0.0474-2.5397 0.10416-3.849l0.099-2.3802h3.0625c3.3965 0 4.0337-0.11501 4.8229-0.85937 0.81721-0.77074 0.97603-0.7226 1.0052-9.8542z"/>
 </g>
</svg>
