<?xml version="1.0" encoding="UTF-8" standalone="no"?>
<!-- Created with Inkscape (http://www.inkscape.org/) -->
<svg id="svg3449" xmlns:rdf="http://www.w3.org/1999/02/22-rdf-syntax-ns#" xmlns="http://www.w3.org/2000/svg" height="128" width="128" version="1.0" xmlns:cc="http://creativecommons.org/ns#" xmlns:xlink="http://www.w3.org/1999/xlink" xmlns:dc="http://purl.org/dc/elements/1.1/">
 <metadata id="metadata56">
  <rdf:RDF>
   <cc:Work rdf:about="">
    <dc:format>image/svg+xml</dc:format>
    <dc:type rdf:resource="http://purl.org/dc/dcmitype/StillImage"/>
    <dc:title/>
   </cc:Work>
  </rdf:RDF>
 </metadata>
 <defs id="defs3451">
  <linearGradient id="linearGradient3514" y2="-9.1034" gradientUnits="userSpaceOnUse" x2="66.492" gradientTransform="matrix(.96826 0 0 .97948 2.179 .16587)" y1="-42.638" x1="67.952">
   <stop id="stop4620" style="stop-color:#37414b" offset="0"/>
   <stop id="stop4622" style="stop-color:#37414b;stop-opacity:0" offset="1"/>
  </linearGradient>
  <linearGradient id="linearGradient3516" y2="-11.847" gradientUnits="userSpaceOnUse" x2="58.98" gradientTransform="matrix(.96826 0 0 .97948 2.179 .16587)" y1="-118.55" x1="57.173">
   <stop id="stop4596" offset="0"/>
   <stop id="stop4598" style="stop-opacity:0" offset="1"/>
  </linearGradient>
  <linearGradient id="linearGradient3519" y2="50.369" gradientUnits="userSpaceOnUse" x2="76.558" gradientTransform="matrix(.96826 0 0 .97948 3.2423 -129.19)" y1="13.164" x1="76.558">
   <stop id="stop3392" style="stop-color:#425e7b" offset="0"/>
   <stop id="stop3394" style="stop-color:#7a91a7" offset="1"/>
  </linearGradient>
  <linearGradient id="linearGradient3521" y2="-8.7399" gradientUnits="userSpaceOnUse" x2="60.217" gradientTransform="matrix(.96826 0 0 .97948 2.179 .16587)" y1="-123.72" x1="60.395">
   <stop id="stop3392-4-8" style="stop-color:#425e7b" offset="0"/>
   <stop id="stop3394-8-0" style="stop-color:#7a91a7" offset="1"/>
  </linearGradient>
  <radialGradient id="radialGradient3349" gradientUnits="userSpaceOnUse" cy="45.647" cx="42.148" gradientTransform="matrix(.94690 0 0 1.139 3.5954 -29.89)" r="58.984">
   <stop id="stop8006" style="stop-color:#ef916b" offset="0"/>
   <stop id="stop8008" style="stop-color:#db4916" offset="1"/>
  </radialGradient>
  <filter id="filter3174-1" color-interpolation-filters="sRGB">
   <feGaussianBlur id="feGaussianBlur3176-0" stdDeviation="1.71"/>
  </filter>
  <linearGradient id="ButtonShadow-9" x1="45.448" gradientUnits="userSpaceOnUse" y1="92.54" gradientTransform="scale(1.0059 .99417)" x2="45.448" y2="7.0165">
   <stop id="stop3750-6" offset="0"/>
   <stop id="stop3752-7" style="stop-opacity:.58824" offset="1"/>
  </linearGradient>
  <filter id="filter3174-9" color-interpolation-filters="sRGB">
   <feGaussianBlur id="feGaussianBlur3176-5" stdDeviation="1.71"/>
  </filter>
  <linearGradient id="linearGradient4238-5" y2="25" gradientUnits="userSpaceOnUse" x2="25" y1="57" x1="25">
   <stop id="stop3624-6-9-7-3-1" style="stop-color:#ba4712" offset="0"/>
   <stop id="stop3856-8-7-9-7-0" style="stop-color:#cf671c" offset=".5"/>
   <stop id="stop3626-0-8-7-8-5" style="stop-color:#e27f39" offset="1"/>
  </linearGradient>
  <filter id="filter3174-6" color-interpolation-filters="sRGB">
   <feGaussianBlur id="feGaussianBlur3176-1" stdDeviation="1.71"/>
  </filter>
  <style id="style2464-7" type="text/css"/>
  <style id="style2464" type="text/css"/>
  <style id="style2464-7-2" type="text/css"/>
  <style id="style2464-3" type="text/css"/>
  <linearGradient id="linearGradient6268-6" y2="1017.4" gradientUnits="userSpaceOnUse" x2="26.364" gradientTransform="matrix(3.3869 0 0 3.3869 -173.19 -3434.6)" y1="1047.3" x1="26.364">
   <stop id="stop1541-9" style="stop-color:#efefef" offset="0"/>
   <stop id="stop1543-9" style="stop-color:#fbfbfb" offset="1"/>
  </linearGradient>
  <linearGradient id="linearGradient4184-8" y2="514.92" gradientUnits="userSpaceOnUse" x2="401.45" gradientTransform="matrix(1.7361 0 0 1.7361 -279.91 -382.81)" y1="532.67" x1="401.45">
   <stop id="stop4142-3" style="stop-color:#fe8100" offset="0"/>
   <stop id="stop4144-4" style="stop-color:#f9d054" offset="1"/>
  </linearGradient>
 </defs>
 <rect id="rect892-2-7-2" ry="29.452" style="stroke:#d3d3d3;stroke-width:9.8448;fill:#37414b" transform="scale(1,-1)" height="116.16" width="116.08" y="-122.08" x="5.9224"/>
 <rect id="rect892" style="stroke:url(#linearGradient3521);stroke-width:.97385;fill:url(#linearGradient3519)" transform="scale(1,-1)" ry="29.296" height="115.54" width="114.22" y="-122.25" x="7.0394"/>
 <rect id="rect892-2" style="stroke:url(#linearGradient3516);stroke-width:.97385;fill:url(#linearGradient3514)" transform="scale(1,-1)" ry="28.993" height="114.35" width="114.22" y="-121.46" x="7.0599"/>
 <path id="rect895" style="fill:url(#radialGradient3349)" d="m30.571 7.0104c-13.128 0.936-22.55 15.04-23.173 23.288-0.050142 0.97378-0.088772 1.9648-0.088772 2.9572v58.419c0 15.229 11.191 27.859 22.318 27.859h67.038c15.69 0 24.318-16.445 24.318-25.859v-64.017c-0.21-5.933-12.29-21.682-25.926-22.618-47.846 0.8653-20.497-0.0256-64.483-0.0256z"/>
 <rect id="rect892-2-7-8" style="opacity:.15891;stroke:#000;stroke-width:4.8445;fill:none" transform="scale(1,-1)" ry="28.993" height="114.35" width="114.22" y="-121.16" x="6.8683"/>
 <rect id="rect892-2-7-1" style="opacity:.15891;stroke:#000;stroke-width:7.7512;fill:none" transform="scale(1,-1)" ry="28.993" height="114.35" width="114.22" y="-121.16" x="6.8686"/>
 <rect id="rect892-2-7-2-9" ry="28.067" style="stroke:#000;stroke-width:1.0489;fill:none" transform="scale(1,-1)" height="112.71" width="114.14" y="-120.31" x="7.0644"/>
 <path id="path1187" style="fill:#fff;fill-opacity:.057143" d="m37.509 10.721c-14.891-4.3296-32.78 19.454-27.93 26.295-0.04334 0.71563-0.07674 1.4439-0.07674 2.1732v10.76c25.898-25.61 66.753-35.478 90.374-39.178-0.22473-0.02628-0.45986-0.03062-0.69067-0.03062-41.576 0.38742-23.653-0.01876-61.677-0.01875z"/>
 <g id="layer2" style="display:none" transform="translate(187.88 23.742)">
  <rect id="rect3745" style="opacity:.9;filter:url(#filter3174-1);fill:url(#ButtonShadow-9)" rx="6" ry="6" height="85" width="86" y="7" x="5"/>
 </g>
 <g id="layer2-2" style="display:none" transform="matrix(1.2166 0 0 1.2299 5.6049 3.1187)">
  <rect id="rect3745-5" style="opacity:.9;filter:url(#filter3174-9);fill:url(#ButtonShadow-9)" rx="6" ry="6" height="85" width="86" y="7" x="5"/>
 </g>
 <path id="path3397-3-2-5" style="opacity:.05;color:#000000;fill:url(#linearGradient4238-5)" d="m23.625 22.125a3.6626 3.6626 0 0 0 -2.7188 1.6875l-2.5 3.875-4.5312-1a3.6626 3.6626 0 0 0 -4.3438 4.375l1 4.4062-3.9062 2.4375a3.6626 3.6626 0 0 0 0 6.1875l3.9062 2.4375-1 4.4062a3.6626 3.6626 0 0 0 4.3438 4.375l4.5312-1 2.5 3.875a3.6626 3.6626 0 0 0 6.1875 0l2.5-3.875 4.5312 1a3.6626 3.6626 0 0 0 4.3438 -4.375l-1-4.4062 3.9062-2.4375a3.6626 3.6626 0 0 0 0 -6.1875l-3.9062-2.4375 1-4.4062a3.6626 3.6626 0 0 0 -4.344 -4.374l-4.5312 1-2.5-3.875a3.6626 3.6626 0 0 0 -3.469 -1.688zm0.375 15.094c0.2413 0.29026 0.47719 0.58429 0.71875 0.875a3.6626 3.6626 0 0 0 -0.719 1.312 3.6626 3.6626 0 0 0 -0.719 -1.312c0.242-0.291 0.478-0.585 0.719-0.875z" transform="translate(0,-16)"/>
 <g id="layer2-8" style="display:none" transform="matrix(1.2166 0 0 1.2299 162.3 9.178)">
  <rect id="rect3745-8" style="opacity:.9;filter:url(#filter3174-6);fill:url(#ButtonShadow-9)" rx="6" ry="6" height="85" width="86" y="7" x="5"/>
 </g>
 <text id="text3025" style="font-size:105px;font-weight:bold;letter-spacing:0px;line-height:125%;word-spacing:0px;font-family:URW Chancery L;font-style:italic;fill:#000000" xml:space="preserve" y="60.995731" x="61.601906"><tspan id="tspan3027" x="61.601906" y="60.995731"/></text>
 <g id="g6280" transform="matrix(.81 0 0 .81 131.76 13.196)">
  <path id="path1489" style="fill-opacity:.18534" d="m-83.475 6.6982c-30.445 0-55.125 24.68-55.125 55.124s24.68 55.124 55.125 55.124 55.125-24.68 55.125-55.124-24.68-55.124-55.125-55.124zm0 49.202c3.2619 0 5.9216 2.6599 5.9216 5.9225 0 3.2623-2.6597 5.922-5.9216 5.922s-5.9216-2.6596-5.9216-5.922c0-3.2626 2.6597-5.9225 5.9216-5.9225z"/>
  <path id="path1491" style="fill:#e4e4e5" d="m-83.475 8.4205c-29.493 0-53.402 23.908-53.402 53.402 0 29.493 23.909 53.402 53.402 53.402s53.402-23.908 53.402-53.402-23.909-53.402-53.402-53.402zm0 47.48c3.2619 0 5.9216 2.6599 5.9216 5.9225 0 3.2623-2.6597 5.922-5.9216 5.922s-5.9216-2.6596-5.9216-5.922c0-3.2626 2.6597-5.9225 5.9216-5.9225z"/>
  <path id="path1493" style="fill:url(#linearGradient6268-6)" d="m-83.475 11.112c-27.998 0-50.711 22.713-50.711 50.711 0 27.997 22.712 50.711 50.711 50.711 27.998 0 50.711-22.713 50.711-50.711s-22.712-50.711-50.711-50.711zm0 44.789c3.2619 0 5.9216 2.6599 5.9216 5.9225 0 3.2623-2.6597 5.922-5.9216 5.922s-5.9216-2.6596-5.9216-5.922c0-3.2626 2.6597-5.9225 5.9216-5.9225z"/>
  <path id="path1495" style="fill:#d3d5d7" d="m-83.475 45.565c-8.9703 0-16.258 7.2875-16.258 16.258 0 8.9699 7.2873 16.258 16.258 16.258 8.9703 0 16.258-7.288 16.258-16.258 0-8.9704-7.2873-16.258-16.258-16.258zm0 10.335c3.2619 0 5.9216 2.6599 5.9216 5.9225 0 3.2623-2.6597 5.922-5.9216 5.922s-5.9216-2.6596-5.9216-5.922c0-3.2626 2.6597-5.9225 5.9216-5.9225z"/>
  <path id="path1497" style="fill:#e0e0e2" d="m-83.475 49.011c-7.0675 0-12.812 5.7438-12.812 12.812 0 7.0678 5.7447 12.812 12.812 12.812 7.0675 0 12.812-5.7438 12.812-12.812 0-7.0681-5.7447-12.812-12.812-12.812zm0 6.8893c3.2619 0 5.9216 2.6599 5.9216 5.9225 0 3.2623-2.6597 5.922-5.9216 5.922s-5.9216-2.6596-5.9216-5.922c0-3.2626 2.6597-5.9225 5.9216-5.9225z"/>
  <path id="path1516" style="fill-opacity:.31466" d="m-83.475 55.9c-3.2619 0-5.9216 2.6599-5.9216 5.9225 0 0.26407 0.07481 0.50216 0.10762 0.75364 0.55075-2.6909 2.9598-4.7373 5.814-4.7373s5.2632 2.0464 5.814 4.7373c0.03308-0.24675 0.10762-0.49245 0.10762-0.75364 0.000131-3.2626-2.6596-5.9225-5.9215-5.9225z"/>
  <path id="path1532" style="fill:#1a1a1a;fill-opacity:.31373" d="m-83.475 55.856c-3.0166 0-5.465 2.3276-5.8242 5.2503 0.55366-2.6951 2.97-4.6762 5.8242-4.6762s5.2706 1.9811 5.8242 4.6762c-0.35926-2.9227-2.8076-5.2503-5.8242-5.2503zm-16.16 7.629c0.60008 8.4257 7.5827 15.093 16.16 15.093 8.5774 0 15.56-6.6678 16.16-15.093-0.83346 8.1916-7.7505 14.602-16.16 14.602-8.4097 0-15.327-6.41-16.16-14.602z"/>
  <g id="g5060" transform="matrix(2.625 0 0 2.625 -1156 -1311.7)">
   <path id="path4218" style="fill-opacity:.11765" d="m405.5 513s11.655 7.8123 10.286 18.554c0 0 3.9119-0.97651 2.861-7.4385 0 0 5.6436 5.4453 5.5483 10.368-0.0783 3.9996-5.083 9.7654-14.495 9.7654 0 0 8.4874-7.5911-2.7275-17.196 0 0-10.374 10.235-3.5285 17.196 0 0-13.803-3.5114-9.7539-12.304 4.0491-8.7946 12.907-9.5708 11.81-18.945z"/>
   <path id="path4214" style="fill-opacity:.11765" d="m405.5 512.31s11.655 7.8123 10.286 18.554c0 0 3.9119-0.97653 2.861-7.4386 0 0 5.6436 5.4453 5.5483 10.368-0.0783 3.9996-5.083 9.7654-14.495 9.7654 0 0 8.4874-7.5911-2.7275-17.196 0 0-10.374 10.235-3.5285 17.196 0 0-13.803-3.5114-9.7539-12.304 4.0491-8.7946 12.907-9.5708 11.81-18.945z"/>
   <path id="path4206" style="fill-opacity:.23529" d="m405.5 511.61s11.655 7.8123 10.286 18.554c0 0 3.9119-0.97653 2.861-7.4385 0 0 5.6436 5.4453 5.5483 10.368-0.0783 3.9996-5.083 9.7654-14.495 9.7654 0 0 8.4874-7.5911-2.7275-17.196 0 0-10.374 10.235-3.5285 17.196 0 0-13.803-3.5114-9.7539-12.304 4.0491-8.7946 12.907-9.5708 11.81-18.945z"/>
   <path id="path4149" style="fill:url(#linearGradient4184-8)" d="m405.5 510.92s11.655 7.8123 10.286 18.554c0 0 3.9119-0.97653 2.861-7.4386 0 0 5.6436 5.4453 5.5483 10.368-0.0783 3.9996-5.083 9.7654-14.495 9.7654 0 0 8.4874-7.5911-2.7275-17.196 0 0-10.374 10.235-3.5285 17.196 0 0-13.803-3.5114-9.7539-12.304 4.0491-8.7946 12.907-9.5708 11.81-18.945z"/>
   <path id="path4222" style="fill:#9a5001;fill-opacity:.31373" d="m405.47 510.92c0.0376 0.32119 0.0393 0.62062 0.0543 0.92228 0.0207-0.28507 0.0562-0.56396 0.0541-0.86804-0.0116-0.008-0.10834-0.0543-0.10834-0.0543zm13.183 11.122c0.0829 0.50988 0.0829 0.96681 0.10852 1.4106 0.03-0.38089 0.0194-0.80348 0-1.2478-0.0155-0.0155-0.10852-0.16278-0.10852-0.16278zm-11.664 1.5191s-6.3508 6.2638-5.8592 12.315c0.44007-5.5802 5.8592-10.905 5.8592-10.905 4.179 3.5791 5.5846 6.8714 5.7508 9.6027 0.27516-2.9642-0.84423-6.811-5.7508-11.013zm8.8432 3.4179c-0.0174 0.36559-0.008 0.71217-0.0541 1.085 0 0 0.0487-0.0527 0.0541-0.0543 0.006-0.34569 0.0174-0.6922 0-1.0308zm8.3006 4.8285c-0.61811 3.7431-5.1813 8.4536-13.238 8.8974-0.64814 0.91986-1.1936 1.4648-1.1936 1.4648 9.4125 0 14.407-5.7658 14.485-9.7654 0.004-0.19945-0.0401-0.396-0.0543-0.59677zm-31.141 0.37976c-0.85281 7.0633 10.416 9.9824 10.416 9.9824-0.5841-0.59402-1.0058-1.2113-1.3563-1.8446-2.7009-0.924-8.5893-3.4372-9.0601-8.1379z"/>
   <path id="path4298" style="fill:#fff;fill-opacity:.23529" d="m405.45 510.92c0.031 0.26473 0.0389 0.50815 0.0543 0.75954 0.30844 0.20905 10.03 6.809 10.362 16.221 0.11356-9.9086-10.416-16.981-10.416-16.981zm0.10852 2.0073c-0.31094 7.5362-8.1412 8.8033-11.881 16.927-0.56721 1.2317-0.75169 2.3343-0.70527 3.3636 0.0589-0.83349 0.26497-1.7022 0.70527-2.6584 3.8464-8.3543 12.012-9.505 11.881-17.632zm13.075 9.1144c0.0438 0.26864 0.0271 0.5095 0.0541 0.75952 0.16143 0.15678 5.2957 5.1842 5.4795 9.9282 0.008-0.10911-0.002-0.21891 0-0.32552 0.0955-4.9228-5.5336-10.362-5.5336-10.362zm0.16259 2.4956c-0.18042 4.1266-2.8636 4.9049-2.9839 4.937-0.0174 0.23329-0.0242 0.46912-0.0543 0.70528 0.00015 0 3.1555-0.80266 3.0383-5.6422zm-6.0763 11.393c-0.35377 3.8111-3.0381 6.239-3.0381 6.239 0.20854 0 0.39259 0.006 0.59677 0 0.87934-1.0207 2.3995-3.2009 2.4415-6.239zm-11.61 0.92229c-0.0822 1.7297 0.30986 3.4881 1.5191 5.0997 0.46751 0.14728 0.75952 0.21699 0.75952 0.21699-1.6155-1.6431-2.2185-3.4865-2.2784-5.3167z"/>
  </g>
 </g>
</svg>
