<?xml version="1.0" encoding="UTF-8" standalone="no"?>
<!-- Created with Inkscape (http://www.inkscape.org/) -->
<svg id="svg3449" xmlns:rdf="http://www.w3.org/1999/02/22-rdf-syntax-ns#" xmlns="http://www.w3.org/2000/svg" height="128" width="128" version="1.0" xmlns:cc="http://creativecommons.org/ns#" xmlns:xlink="http://www.w3.org/1999/xlink" xmlns:dc="http://purl.org/dc/elements/1.1/">
 <metadata id="metadata56">
  <rdf:RDF>
   <cc:Work rdf:about="">
    <dc:format>image/svg+xml</dc:format>
    <dc:type rdf:resource="http://purl.org/dc/dcmitype/StillImage"/>
    <dc:title/>
   </cc:Work>
  </rdf:RDF>
 </metadata>
 <defs id="defs3451">
  <linearGradient id="linearGradient3514" y2="-9.1034" gradientUnits="userSpaceOnUse" x2="66.492" gradientTransform="matrix(.96826 0 0 .97948 2.179 .16587)" y1="-42.638" x1="67.952">
   <stop id="stop4620" style="stop-color:#37414b" offset="0"/>
   <stop id="stop4622" style="stop-color:#37414b;stop-opacity:0" offset="1"/>
  </linearGradient>
  <linearGradient id="linearGradient3516" y2="-11.847" gradientUnits="userSpaceOnUse" x2="58.98" gradientTransform="matrix(.96826 0 0 .97948 2.179 .16587)" y1="-118.55" x1="57.173">
   <stop id="stop4596" offset="0"/>
   <stop id="stop4598" style="stop-opacity:0" offset="1"/>
  </linearGradient>
  <linearGradient id="linearGradient3519" y2="50.369" gradientUnits="userSpaceOnUse" x2="76.558" gradientTransform="matrix(.96826 0 0 .97948 3.2423 -129.19)" y1="13.164" x1="76.558">
   <stop id="stop3392" style="stop-color:#425e7b" offset="0"/>
   <stop id="stop3394" style="stop-color:#7a91a7" offset="1"/>
  </linearGradient>
  <linearGradient id="linearGradient3521" y2="-8.7399" gradientUnits="userSpaceOnUse" x2="60.217" gradientTransform="matrix(.96826 0 0 .97948 2.179 .16587)" y1="-123.72" x1="60.395">
   <stop id="stop3392-4-8" style="stop-color:#425e7b" offset="0"/>
   <stop id="stop3394-8-0" style="stop-color:#7a91a7" offset="1"/>
  </linearGradient>
  <linearGradient id="linearGradient4157" y2="19.37" gradientUnits="userSpaceOnUse" x2="121.09" gradientTransform="matrix(.99119 0 0 1.0631 .39948 -2.5782)" y1="19.37" x1="6.5311">
   <stop id="stop71" style="stop-color:#3b2a1c" offset="0"/>
   <stop id="stop73" style="stop-color:#966b4f" offset="1"/>
  </linearGradient>
  <linearGradient id="linearGradient4192" y2="31.742" gradientUnits="userSpaceOnUse" x2="121.11" y1="31.742" x1="6.5334">
   <stop id="stop4188" style="stop-color:#fff" offset="0"/>
   <stop id="stop4190" style="stop-color:#fff;stop-opacity:0" offset="1"/>
  </linearGradient>
  <linearGradient id="linearGradient4200" y2="30.574" gradientUnits="userSpaceOnUse" x2="121.37" gradientTransform="translate(0 -.70013)" y1="30.574" x1="6.7939">
   <stop id="stop4196" offset="0"/>
   <stop id="stop4198" style="stop-opacity:0" offset="1"/>
  </linearGradient>
  <linearGradient id="linearGradient11577" y2="8.1" gradientUnits="userSpaceOnUse" y1="6.1438" x2="19.387" x1="19.49">
   <stop id="stop10999-9-0" offset="0"/>
   <stop id="stop11001-6-1" style="stop-opacity:0" offset="1"/>
  </linearGradient>
  <filter id="filter3198-5" color-interpolation-filters="sRGB" width="1.1734" y="-.10752" x="-.086712" height="1.215">
   <feGaussianBlur id="feGaussianBlur3200-3" stdDeviation="0.71710775"/>
  </filter>
  <linearGradient id="linearGradient13639" y2="5.4565" gradientUnits="userSpaceOnUse" x2="36.358" gradientTransform="matrix(0 3.8171 -6.1772 0 129.98 -37.908)" y1="8.059" x1="32.892">
   <stop id="stop8591-7-2-1" style="stop-color:#fefefe" offset="0"/>
   <stop id="stop8593-2-4-5" style="stop-color:#cbcbcb" offset="1"/>
  </linearGradient>
  <radialGradient id="radialGradient13643" gradientUnits="userSpaceOnUse" cy="-16.639" cx="2.6083" gradientTransform="matrix(-5.7453 2.452e-7 -2.5955e-7 -6.0905 124.78 -36.865)" r="23">
   <stop id="stop4003" style="stop-color:#c0bebe" offset="0"/>
   <stop id="stop4005" style="stop-color:#f2f7f7" offset="1"/>
  </radialGradient>
  <linearGradient id="linearGradient4169">
   <stop id="stop4171-0" style="stop-color:#e2f4c4" offset="0"/>
   <stop id="stop4173" style="stop-color:#fdfff5" offset="1"/>
  </linearGradient>
  <linearGradient id="linearGradient16352" y2="2.0118" xlink:href="#linearGradient4169" gradientUnits="userSpaceOnUse" x2="10.41" gradientTransform="matrix(6.4167 0 0 6.4167 -270.89 -29.269)" y1="13.991" x1="10.41"/>
  <linearGradient id="linearGradient6194-0-2" gradientUnits="userSpaceOnUse" gradientTransform="matrix(13.527 20.526 20.526 -13.527 19.19 1021.1)">
   <stop id="stop6196-2-5" style="stop-color:#fff" offset="0"/>
   <stop id="stop6198-6-8" style="stop-color:#29282b" offset=".16850"/>
   <stop id="stop6200-9-9" style="stop-color:#868c95" offset=".26374"/>
   <stop id="stop6202-28-6" style="stop-color:#92979f" offset=".39560"/>
   <stop id="stop6204-43-4" style="stop-color:#737881" offset=".54212"/>
   <stop id="stop6206-1-8" style="stop-color:#70757e" offset=".62637"/>
   <stop id="stop6208-00-8" style="stop-color:#e4e6e8" offset=".71795"/>
   <stop id="stop6210-9-6" style="stop-color:#fff" offset=".79121"/>
   <stop id="stop6212-0-7" style="stop-color:#1d191a" offset="1"/>
  </linearGradient>
  <linearGradient id="linearGradient137480-7">
   <stop id="stop137482-0" style="stop-color:#5a5a5a" offset="0"/>
   <stop id="stop137484-8" style="stop-color:#101010" offset="1"/>
  </linearGradient>
  <linearGradient id="linearGradient17718" y2="-13.206" xlink:href="#linearGradient137480-7" gradientUnits="userSpaceOnUse" x2="1011.5" gradientTransform="matrix(2.8947 0 0 6.6489 -2896.1 25.779)" y1="-13.206" x1="1013.5"/>
  <linearGradient id="linearGradient17720" y2="-13.206" xlink:href="#linearGradient137480-7" gradientUnits="userSpaceOnUse" x2="1011.5" gradientTransform="matrix(2.8947 0 0 6.6489 -2896.1 1.7174)" y1="-13.206" x1="1013.5"/>
  <linearGradient id="linearGradient17722" y2="-13.206" xlink:href="#linearGradient137480-7" gradientUnits="userSpaceOnUse" x2="1011.5" gradientTransform="matrix(2.8947 0 0 6.6489 -2896.1 51.717)" y1="-13.206" x1="1013.5"/>
  <linearGradient id="linearGradient17724" y2="-34.625" xlink:href="#linearGradient6194-0-2" gradientUnits="userSpaceOnUse" x2="1012.4" gradientTransform="matrix(2.5 0 0 2.5 -2495.8 1.8358)" y1="-34.625" x1="1004.3"/>
  <linearGradient id="linearGradient17726" y2="-34.625" xlink:href="#linearGradient6194-0-2" gradientUnits="userSpaceOnUse" x2="1012.4" gradientTransform="matrix(2.5 0 0 2.5 -2495.8 6.8358)" y1="-34.625" x1="1004.3"/>
  <linearGradient id="linearGradient17728" y2="-34.625" xlink:href="#linearGradient6194-0-2" gradientUnits="userSpaceOnUse" x2="1012.4" gradientTransform="matrix(2.5 0 0 2.5 -2495.8 25.897)" y1="-34.625" x1="1004.3"/>
  <linearGradient id="linearGradient17730" y2="-34.625" xlink:href="#linearGradient6194-0-2" gradientUnits="userSpaceOnUse" x2="1012.4" gradientTransform="matrix(2.5 0 0 2.5 -2495.8 30.897)" y1="-34.625" x1="1004.3"/>
  <linearGradient id="linearGradient17732" y2="-34.625" xlink:href="#linearGradient6194-0-2" gradientUnits="userSpaceOnUse" x2="1012.4" gradientTransform="matrix(2.5 0 0 2.5 -2495.8 56.836)" y1="-34.625" x1="1004.3"/>
  <linearGradient id="linearGradient17734" y2="-34.625" xlink:href="#linearGradient6194-0-2" gradientUnits="userSpaceOnUse" x2="1012.4" gradientTransform="matrix(2.5 0 0 2.5 -2495.8 51.836)" y1="-34.625" x1="1004.3"/>
  <linearGradient id="linearGradient18627-8" y2="32.638" xlink:href="#linearGradient6138-6" gradientUnits="userSpaceOnUse" x2="18.377" gradientTransform="translate(-108.99 24.273)" y1="31.171" x1="16.911"/>
  <linearGradient id="linearGradient6138-6">
   <stop id="stop6140-4" style="stop-color:#0f0e1c" offset="0"/>
   <stop id="stop6142-3" style="stop-color:#0f0e1c;stop-opacity:0" offset="1"/>
  </linearGradient>
  <linearGradient id="linearGradient18621-2" y2="500.74" gradientUnits="userSpaceOnUse" x2="461.6" gradientTransform="matrix(.48309 .48309 -.48176 .48176 -52.595 -422.22)" y1="500.74" x1="451.13">
   <stop id="stop6196-4-0" style="stop-color:#fff" offset="0"/>
   <stop id="stop6198-4-1" style="stop-color:#29282b" offset=".16850"/>
   <stop id="stop6200-2-6" style="stop-color:#868c95" offset=".26374"/>
   <stop id="stop6202-26-7" style="stop-color:#92979f" offset=".39560"/>
   <stop id="stop6204-0-7" style="stop-color:#737881" offset=".54212"/>
   <stop id="stop6206-16-3" style="stop-color:#70757e" offset=".62637"/>
   <stop id="stop6208-6-5" style="stop-color:#e4e6e8" offset=".71795"/>
   <stop id="stop6210-7-0" style="stop-color:#fff" offset=".79121"/>
   <stop id="stop6212-64-8" style="stop-color:#1d191a" offset="1"/>
  </linearGradient>
  <linearGradient id="linearGradient18618-1" y2="500.74" gradientUnits="userSpaceOnUse" x2="461.6" gradientTransform="matrix(.48309 .48309 -.48176 .48176 -50.955 -423.86)" y1="500.74" x1="451.13">
   <stop id="stop6339-4" style="stop-color:#ee6b6a" offset="0"/>
   <stop id="stop6341-8" style="stop-color:#eb5453" offset="1"/>
  </linearGradient>
  <linearGradient id="linearGradient18615-6" y2="33.437" gradientUnits="userSpaceOnUse" x2="74.983" gradientTransform="matrix(.48309 .48309 -.48176 .48176 -105.95 2.7005)" y1="33.437" x1="68.645">
   <stop id="stop6415-6" style="stop-color:#eed39b" offset="0"/>
   <stop id="stop6417-2" style="stop-color:#bc6a2d" offset="1"/>
  </linearGradient>
  <linearGradient id="linearGradient18611-3" y2="18.071" gradientUnits="userSpaceOnUse" x2="69.41" gradientTransform="matrix(.48309 .48309 -.48176 .48176 -105.95 2.7005)" y1="18.071" x1="76.542">
   <stop id="stop6359-0" style="stop-color:#be7c04" offset="0"/>
   <stop id="stop6361-3" style="stop-color:#fbd61f;stop-opacity:0" offset="1"/>
  </linearGradient>
  <linearGradient id="linearGradient18608-0" y2="516.14" xlink:href="#linearGradient6365-1" gradientUnits="userSpaceOnUse" x2="452.09" gradientTransform="matrix(.48309 .48309 -.61264 .61264 16.78 -491.6)" y1="516.14" x1="455.21"/>
  <linearGradient id="linearGradient6365-1">
   <stop id="stop6367-2" style="stop-color:#fef0ac" offset="0"/>
   <stop id="stop6369-0" style="stop-color:#fef0ac;stop-opacity:0" offset="1"/>
  </linearGradient>
  <linearGradient id="linearGradient18605-9" y2="500.74" gradientUnits="userSpaceOnUse" x2="461.6" gradientTransform="matrix(-.39089 -.39089 -.38981 .38981 302.15 21.381)" y1="500.74" x1="451.13">
   <stop id="stop6351-6" style="stop-color:#bf4e3a" offset="0"/>
   <stop id="stop6353-4" style="stop-color:#0f0e1c;stop-opacity:0" offset="1"/>
  </linearGradient>
  <linearGradient id="linearGradient18602-2" y2="516.14" xlink:href="#linearGradient6365-1" gradientUnits="userSpaceOnUse" x2="452.77" gradientTransform="matrix(.48309 .48309 -.61264 .61264 18.917 -489.46)" y1="516.14" x1="456.34"/>
  <linearGradient id="linearGradient18599-0" y2="516.14" xlink:href="#linearGradient6381-1-4" gradientUnits="userSpaceOnUse" x2="452.77" gradientTransform="matrix(-.48309 -.48309 -.61264 .61264 455.64 -52.733)" y1="516.14" x1="455.1"/>
  <linearGradient id="linearGradient6381-1-4">
   <stop id="stop6383-4" style="stop-color:#0f0e1c;stop-opacity:.18325" offset="0"/>
   <stop id="stop6385-6" style="stop-color:#0f0e1c;stop-opacity:0" offset="1"/>
  </linearGradient>
  <linearGradient id="linearGradient18596-2" y2="516.14" xlink:href="#linearGradient6381-1-4" gradientUnits="userSpaceOnUse" x2="452.2" gradientTransform="matrix(-.48309 -.48309 -.61264 .61264 457.78 -50.595)" y1="516.14" x1="454.25"/>
  <linearGradient id="linearGradient18593-1" y2="533.07" gradientUnits="userSpaceOnUse" x2="458.99" gradientTransform="matrix(.48309 .48309 -.48176 .48176 -50.955 -423.86)" y1="532.39" x1="457.19">
   <stop id="stop6407-9" style="stop-color:#99491c" offset="0"/>
   <stop id="stop6409-3" style="stop-color:#99491c;stop-opacity:0" offset="1"/>
  </linearGradient>
  <linearGradient id="linearGradient18590-1" y2="532.76" xlink:href="#linearGradient6365-1" gradientUnits="userSpaceOnUse" x2="457.76" gradientTransform="matrix(-.36852 -.36852 -.36751 .36751 276.81 25.224)" y1="533.51" x1="460.04"/>
  <linearGradient id="linearGradient18587-2" y2="37.95" gradientUnits="userSpaceOnUse" x2="72.416" gradientTransform="matrix(.48309 .48309 -.48176 .48176 -105.95 2.7005)" y1="37.95" x1="71.112">
   <stop id="stop6438-7" style="stop-color:#908f7d" offset="0"/>
   <stop id="stop6440-0" style="stop-color:#2d3538" offset="1"/>
  </linearGradient>
  <linearGradient id="linearGradient18584-9" y2=".71570" gradientUnits="userSpaceOnUse" x2="68.819" gradientTransform="matrix(.48309 .48309 -.48176 .48176 -105.95 2.7005)" y1="-2.5005" x1="66.35">
   <stop id="stop6455-6" style="stop-color:#fff" offset="0"/>
   <stop id="stop6457-1" style="stop-color:#fff;stop-opacity:0" offset="1"/>
  </linearGradient>
  <linearGradient id="linearGradient18994" y2="502.47" xlink:href="#linearGradient6138-6" gradientUnits="userSpaceOnUse" y1="498.03" gradientTransform="matrix(-.51193 -.51193 -.10765 .10765 214.13 219.3)" x2="455.94" x1="455.94"/>
 </defs>
 <rect id="rect892-2-7-1" style="opacity:.15891;stroke:#000;stroke-width:7.7512;fill:none" transform="scale(1,-1)" ry="28.993" height="114.35" width="114.22" y="-121.16" x="6.8687"/>
 <rect id="rect892-2-7-2" ry="29.452" style="stroke:#d3d3d3;stroke-width:9.8448;fill:#37414b" transform="scale(1,-1)" height="116.16" width="116.08" y="-122.08" x="5.9224"/>
 <rect id="rect892" style="stroke:url(#linearGradient3521);stroke-width:.97385;fill:url(#linearGradient3519)" transform="scale(1,-1)" ry="29.296" height="115.54" width="114.22" y="-122.25" x="7.0394"/>
 <rect id="rect892-2" style="stroke:url(#linearGradient3516);stroke-width:.97385;fill:url(#linearGradient3514)" transform="scale(1,-1)" ry="28.993" height="114.35" width="114.22" y="-121.46" x="7.0599"/>
 <path id="path4159-5" style="stroke:url(#linearGradient4192);stroke-width:1px;fill:none" d="m7.0334 31.742h113.58z"/>
 <path id="path4322" d="m120.09 74.559c-1.82 3.831-41.638 40.371-56.018 45.741-69.19 4.26-58.724-19.48-56.838-84.917 4.797-34.382 28.284-28.298 90.407-27.48 28.999 8.074 22.189 27.125 22.449 66.656z" style="fill-rule:evenodd;fill:url(#radialGradient13643)"/>
 <path id="path4891" d="m25.685 5.7862c3.6386-0.3502 2.8432 14.02 2.8432 14.02s16.093-0.84846 16.525 1.9543c3.85-3.268-16.654-16.76-19.368-15.974z" style="opacity:.3;fill-rule:evenodd;filter:url(#filter3198-5)" transform="matrix(0 2.6586 -4.0239 0 144.6 .66614)"/>
 <rect id="rect4086" style="fill:#d55051;fill-opacity:.36782" ry="0" height="96" width="1" y="23.078" x="33.625"/>
 <rect id="rect4088" style="fill:#d55051;fill-opacity:.36782" ry="0" height="96" width="1" y="23.078" x="38.711"/>
 <path id="path4141" style="fill:url(#linearGradient4157)" d="m7.3686 29.599 112.55 0.000001c0.25-5.661-7.83-22.658-22.998-23.171l-67.252 0.3737c-11.278-0.1758-19.267 11.619-22.301 22.797z"/>
 <rect id="rect892-2-7-8" style="opacity:.15891;stroke:#000;stroke-width:4.8445;fill:none" transform="scale(1,-1)" ry="28.993" height="114.35" width="114.22" y="-121.16" x="6.8687"/>
 <rect id="rect892-2-7-2-9" ry="28.346" style="stroke:#000;stroke-width:1.054;fill:none" transform="scale(1,-1)" height="113.83" width="114.13" y="-120.31" x="7.0675"/>
 <path id="path1187" style="fill:#fff;fill-opacity:.057143" d="m11.029 30.411c-4.0662 0-7.3909 3.6093-7.9298 8.2949-0.04334 0.71563-0.07674 1.4439-0.07674 2.1732v28.76c25.898-25.61 66.752-35.479 90.374-39.179-0.22473-0.02628-0.45986-0.03062-0.69067-0.03062-41.576 0.38742-43.653-0.01876-81.677-0.01875z"/>
 <path id="path4159" style="stroke:url(#linearGradient4200);fill:none" d="m7.2939 29.874h113.58z"/>
 <g id="g17906" transform="matrix(2.3438 0 0 2.2539 224.79 41.695)"></g>
 <path id="path4065" style="fill:#231b09;fill-opacity:.28736" d="m6.8008 53.64v1h113.98v-1h-113.98z"/>
 <path id="path4063" style="fill:#231b09;fill-opacity:.28736" d="m8.5685 70.265v1h112.43v-1h-112.43z"/>
 <path id="path4061" style="fill:#231b09;fill-opacity:.28736" d="m6.8749 86.89v1h90.75v-1h-90.75z"/>
 <path id="rect4090" style="fill:#231b09;fill-opacity:.28736" d="m9.3749 103.52v1h73v-1h-73z"/>
 <path id="rect75" style="fill:#fff;fill-opacity:.19608" d="m120.12 45.328h-111.56v1.1875h111.56v-1.1875z"/>
 <path id="rect877" style="fill-opacity:.19608" d="m120.66 44.14h-113.55v1.1875h113.55v-1.1875z"/>
 <path id="path4893" d="m71.481 80.399s4.2044 36.928-6.3762 39.33c9.39 0.11002 45.865-29.927 54.993-45.071-7.2413 5.3727-33.084 6.8755-48.617 5.7407z" style="fill:url(#linearGradient13639);fill-rule:evenodd"/>
 <rect id="rect4898" style="fill:url(#linearGradient16352);display:none" height="141.17" width="141.17" y="-29.269" x="-270.89"/>
 <rect id="rect4126" style="fill:url(#linearGradient16352);display:none" height="141.17" width="141.17" y="-29.269" x="-270.89"/>
 <g id="g17690" transform="translate(6.7746 -4.6002)">
  <path id="path19526" style="opacity:.26260;fill:#d79f5d" d="m81.132 36.922c-0.9309-1.2434 1.9041-3.4326-1.481-4.0596 0.9309 1.254-1.8935 3.4326 1.481 4.0596"/>
  <rect id="rect4881" style="fill:url(#linearGradient17718)" transform="rotate(90)" ry=".64922" height="12.5" width="5.5" y="-64.414" x="32.078"/>
  <rect id="rect4869" ry=".64922" style="fill:url(#linearGradient17720)" transform="rotate(90)" height="12.5" width="5.5" y="-88.475" x="32.078"/>
  <rect id="rect4855" style="fill:url(#linearGradient17722)" transform="rotate(90)" ry=".64922" height="12.5" width="5.5" y="-38.475" x="32.078"/>
  <rect id="rect4833" style="fill-opacity:.23529" transform="rotate(90)" ry="1.0443" height="3.7" width="12.5" y="-81.575" x="24.078"/>
  <rect id="rect4829" ry=".83261" style="fill-opacity:.23529" transform="rotate(90)" height="2.95" width="12.5" y="-81.2" x="23.328"/>
  <rect id="rect4835" ry="1.0443" style="fill-opacity:.23529" transform="rotate(90)" height="3.7" width="12.5" y="-86.575" x="24.078"/>
  <rect id="rect4837" style="fill-opacity:.23529" transform="rotate(90)" ry=".83261" height="2.95" width="12.5" y="-86.2" x="23.328"/>
  <rect id="rect4839" style="fill-opacity:.23529" transform="rotate(90)" ry="1.0443" height="3.7" width="12.5" y="-62.514" x="24.078"/>
  <rect id="rect4841" ry=".83261" style="fill-opacity:.23529" transform="rotate(90)" height="2.95" width="12.5" y="-62.139" x="23.328"/>
  <rect id="rect4843" ry="1.0443" style="fill-opacity:.23529" transform="rotate(90)" height="3.7" width="12.5" y="-57.514" x="24.078"/>
  <rect id="rect4845" style="fill-opacity:.23529" transform="rotate(90)" ry=".83261" height="2.95" width="12.5" y="-57.139" x="23.328"/>
  <rect id="rect4847" style="fill-opacity:.23529" transform="rotate(90)" ry="1.0443" height="3.7" width="12.5" y="-36.575" x="24.078"/>
  <rect id="rect4849" ry=".83261" style="fill-opacity:.23529" transform="rotate(90)" height="2.95" width="12.5" y="-36.2" x="23.328"/>
  <rect id="rect4851" ry="1.0443" style="fill-opacity:.23529" transform="rotate(90)" height="3.7" width="12.5" y="-31.575" x="24.078"/>
  <rect id="rect4853" style="fill-opacity:.23529" transform="rotate(90)" ry=".83261" height="2.95" width="12.5" y="-31.2" x="23.328"/>
  <rect id="rect4202" ry=".49392" style="fill:url(#linearGradient17724)" transform="rotate(90)" height="1.75" width="12.5" y="-85.6" x="22.578"/>
  <rect id="rect4770" style="fill:url(#linearGradient17726)" transform="rotate(90)" ry=".49392" height="1.75" width="12.5" y="-80.6" x="22.578"/>
  <rect id="rect4774" ry=".49392" style="fill:url(#linearGradient17728)" transform="rotate(90)" height="1.75" width="12.5" y="-61.539" x="22.578"/>
  <rect id="rect4778" style="fill:url(#linearGradient17730)" transform="rotate(90)" ry=".49392" height="1.75" width="12.5" y="-56.539" x="22.578"/>
  <rect id="rect4786" style="fill:url(#linearGradient17732)" transform="rotate(90)" ry=".49392" height="1.75" width="12.5" y="-30.6" x="22.578"/>
  <rect id="rect4790" ry=".49392" style="fill:url(#linearGradient17734)" transform="rotate(90)" height="1.75" width="12.5" y="-35.6" x="22.578"/>
  <path id="path4819" style="fill-opacity:.23529" d="m84.319 22.578c-0.27363 0-0.46875 0.195-0.46875 0.46875v11.562c0 0.27375 0.19512 0.46875 0.46875 0.46875s0.54688-0.195 0.54688-0.46875v-11.562c0-0.27375-0.27324-0.46875-0.54688-0.46875z"/>
  <path id="path4821" style="fill-opacity:.23529" d="m60.258 22.578c-0.27363 0-0.46875 0.195-0.46875 0.46875v11.562c0 0.27375 0.19512 0.46875 0.46875 0.46875s0.54688-0.195 0.54688-0.46875v-11.562c0-0.27375-0.27324-0.46875-0.54688-0.46875z"/>
  <path id="path4825" style="fill-opacity:.23529" d="m34.319 22.578c-0.27364 0-0.46875 0.195-0.46875 0.46875v11.562c0 0.27375 0.19512 0.46875 0.46875 0.46875s0.54687-0.195 0.54687-0.46875v-11.562c0-0.27375-0.27324-0.46875-0.54687-0.46875z"/>
  <path id="path4827" style="fill-opacity:.23529" d="m29.319 22.578c-0.27364 0-0.46875 0.195-0.46875 0.46875v11.562c0 0.27375 0.19512 0.46875 0.46875 0.46875s0.54687-0.195 0.54687-0.46875v-11.562c0-0.27375-0.27324-0.46875-0.54687-0.46875z"/>
 </g>
 <g id="g17813" transform="translate(3.9203)">
  <rect id="rect4902" style="fill:#495961;fill-opacity:.53725" ry="0" height="1" width="5.75" y="37.399" x="57.205"/>
  <rect id="rect4904" style="fill:#495961;fill-opacity:.53725" ry=".5" height="1" width="5.75" y="37.399" x="68.455"/>
  <rect id="rect4906" style="fill:#495961;fill-opacity:.53725" ry="0" height="1" width="5.75" y="37.399" x="79.705"/>
  <rect id="rect4908" style="fill:#495961;fill-opacity:.53725" ry="0" height="1" width="5.75" y="37.399" x="90.955"/>
  <rect id="rect4910" style="fill:#495961;fill-opacity:.53725" ry="0" height="1" width="5.75" y="37.399" x="102.2"/>
  <rect id="rect4912" style="fill:#495961;fill-opacity:.53725" ry="0" height="1" width="5.75" y="37.399" x="45.955"/>
  <rect id="rect4914" style="fill:#495961;fill-opacity:.53725" ry="0" height="1" width="5.75" y="37.399" x="34.705"/>
  <rect id="rect4916" style="fill:#495961;fill-opacity:.53725" ry="0" height="1" width="5.75" y="37.399" x="23.455"/>
  <rect id="rect4918" style="fill:#495961;fill-opacity:.53725" ry="0" height="1" width="5.75" y="37.399" x="12.205"/>
  <rect id="rect4920" style="fill:#f9fafa;fill-opacity:.83978" ry="0" height="1" width="5.75" y="38.149" x="57.205"/>
  <rect id="rect4922" style="fill:#f9fafa;fill-opacity:.83978" ry=".5" height="1" width="5.75" y="38.149" x="68.455"/>
  <rect id="rect4924" style="fill:#f9fafa;fill-opacity:.83978" ry="0" height="1" width="5.75" y="38.149" x="79.705"/>
  <rect id="rect4926" style="fill:#f9fafa;fill-opacity:.83978" ry="0" height="1" width="5.75" y="38.149" x="90.955"/>
  <rect id="rect4928" style="fill:#f9fafa;fill-opacity:.83978" ry="0" height="1" width="5.75" y="38.149" x="102.2"/>
  <rect id="rect4930" style="fill:#f9fafa;fill-opacity:.83978" ry="0" height="1" width="5.75" y="38.149" x="45.955"/>
  <rect id="rect4932" style="fill:#f9fafa;fill-opacity:.83978" ry="0" height="1" width="5.75" y="38.149" x="34.705"/>
  <rect id="rect4934" style="fill:#f9fafa;fill-opacity:.83978" ry="0" height="1" width="5.75" y="38.149" x="23.455"/>
  <rect id="rect4936" style="fill:#f9fafa;fill-opacity:.83978" ry="0" height="1" width="5.75" y="38.149" x="12.205"/>
 </g>
 <g id="g18864" transform="matrix(2.5 0 0 2.5 276.59 -50.655)">
  <path id="path192" d="m-86.463 40.96c-0.86835 0.0299-1.6944 0.26879-2.5625 0.1875-0.61936-0.0579-1.4624-0.19993-2.0625 0.0625 0.014-0.0183 0.024-0.0332 0-0.0312-0.18728 0.0363-0.3141 0.28386-0.4375 0.40625-0.10897 0.1078-0.20158 0.20675-0.3125 0.3125-0.0678 0.0647-0.15554 0.12347-0.21875 0.1875-0.019-0.0342-0.0661-0.0666-0.0937-0.0937-0.014-0.014-0.0365 0.0137-0.0312 0.0312 0.0444 0.15826 0.0388 0.35112 0.0312 0.53125-0.0429 0.0831-0.11728 0.17178-0.125 0.1875-0.0185 0.0371 0.084 0.0125 0.0937 0-0.005 0.0651 0.003 0.12737 0 0.1875-0.014 0.23866-0.001 0.47826 0 0.71875-0.0317 0.0733-0.0646 0.14449-0.0937 0.21875-0.0215 0.055 0.0815-0.015 0.0937-0.0312 0.00036 0.0418-0.00033 0.0833 0 0.125-0.96154 0.12711-1.9394 0.12528-2.9062 0.125-1.0299-0.00079-2.0638 0-3.0938 0-0.98514 0-1.8479 0.11786-2.8125 0.28125-0.062 0.0118-0.18088 0.1278-0.1875 0.1875-0.0263 0.002-0.0802 0.0321-0.0937 0.0625 0.003-0.0555 0.0405-0.10399 0.0312-0.15625-0.01-0.0607-0.1498 0.061-0.15625 0.0937-0.0117 0.0554-0.033 0.22297-0.0312 0.375-0.0356 0.002-0.0948 0.0971-0.0937 0.125 0 0.0223-0.001 0.0406 0 0.0625 0.001 0.0207 0.0168 0.007 0.0312 0 0.0537 0.14199 0.12356 0.27247 0.1875 0.40625-0.008 0.022-0.0254 0.0388-0.0312 0.0625-0.007 0.0278 0.035 0.0472 0.0625 0.0312 0.0307 0.062 0.0616 0.12642 0.0937 0.1875 0.00031 0.011-0.00072 0.0202 0 0.0312 0.0519 0.0977 0.1334 0.18452 0.1875 0.28125-0.00005 0.018-0.009 0.0303 0 0.0312 0.10381 0.18521 0.20959 0.37153 0.3125 0.5625 0.1161 0.21571 0.22425 0.44084 0.34375 0.65625 0.17281 0.31119 0.49118 0.62477 0.59375 0.96875-0.23918 0.21493-0.48592 0.43495-0.71875 0.65625-0.49059 0.46588-0.96583 0.92315-1.4062 1.4375-0.0884 0.10262-0.3377 0.33124-0.40625 0.53125-0.0927 0.0895-0.0949 0.21083-0.0937 0.34375 0.0007 0.0777-0.006 0.17231 0 0.25-0.004 0.006 0.004 0.0247 0 0.0312 0.004 0.0815 0.0839 0.14873 0 0.21875 0.0858-0.0785 0.15484-0.2358 0.15625-0.34375 0.0396 0.003 0.0692-0.008 0.0937 0-0.0349 0.0567-0.067 0.12305-0.0937 0.1875-0.0184 0.0453 0.0293 0.0465 0.0625 0.0312-0.0116 0.0293-0.021 0.0638-0.0312 0.0937-0.0592 0.0181-0.13093 0.009-0.1875 0.0312-0.003 0.003-0.0118 0.0402 0 0.0312 0.0492-0.0184 0.10637-0.0178 0.15625-0.0312-0.0127 0.0417-0.0199 0.0823-0.0312 0.125-0.0117 0.0401 0.0856-0.003 0.0937-0.0312 0.039-0.14017 0.10833-0.28239 0.15625-0.40625 0.0466-0.0681 0.0757-0.12072 0.125-0.1875 0.0127-0.0108 0.0182-0.0218 0.0312-0.0312-0.002 0.0413 0.01 0.0869 0 0.125-0.0647 0.0817-0.13563 0.17842-0.15625 0.28125-0.006 0.0325 0.0364 0.0113 0.0625 0s0.0564-0.0223 0.0625-0.0312c-0.008 0.0129 0.009 0.0166 0 0.0312-0.0196 0.004-0.0431-0.004-0.0625 0-0.0454 0.009-0.0807 0.0512-0.125 0.0625 0.0627-0.0112 0.12412-0.0251 0.1875-0.0312-0.0105 0.0513 0.065 0.0345 0.0937 0 0.0737-0.005 0.14456 0.00094 0.21875 0-0.002 0.009 0.001 0.0226 0 0.0312-0.01 0.0494 0.0557 0.0273 0.0937 0-0.004 0.014-0.0263 0.0189-0.0312 0.0312-0.0361 0.0828 0.10476 0.0256 0.125 0 0.0146-0.0169 0.0176-0.0446 0.0312-0.0625 0.0745 0.00065 0.14429 0 0.21875 0 0.13466 0.00005 0.27159 0.005 0.40625 0 0.007 0.00084 0.0218-0.0282 0.0312-0.0312 0.11394-0.004 0.22982 0.006 0.34375 0-0.0105 0.0448 0.0295 0.0269 0.0625 0 0.23863-0.0119 0.4802-0.025 0.71875-0.0312 0.16608-0.004 0.33371 0.002 0.5 0-0.0298 0.0612 0.0186 0.0259 0.0625 0 0.0728-0.00064 0.14596 0.00026 0.21875 0-0.0182 0.0649 0.0827 0.008 0.0937 0 0.15599-0.00023 0.3127-0.00096 0.46875 0-0.008 0.0208-0.0202 0.0308-0.0312 0.0625-0.032 0.0916 0.098 0.0295 0.125 0 0.0207-0.0208 0.0426-0.0411 0.0625-0.0625 0.17687 0.001 0.35442-0.002 0.53125 0 0.0108 0.01 0.0226 0.0231 0.0312 0.0312 0.0129 0.0117 0.0436-0.0175 0.0625-0.0312 0.30163 0.003 0.60514-0.0006 0.90625 0 0.36708 0.00076 0.72865 0.0459 1.0938 0.0625-0.0185 0.0521 0.0238 0.0214 0.0625 0 0.57312 0.0272 1.1443 0.0475 1.7188 0.0937 0.5625 0.0453 1.1014 0.0648 1.6562 0.0625-0.10243 0.95158-0.0193 1.9407 0 2.9062-0.0207-0.0158-0.0407-0.0196-0.0625-0.0312-0.20686-0.11002-0.53244-0.27315-0.71875-0.0312-0.0569 0.0737-0.0375 0.14454 0 0.21875 0.15279 0.31581-0.054 0.70028-0.15625 1.0312-0.28449-0.21838-0.63081-0.30589-1-0.3125-0.0441-0.00076-0.12557 0.084-0.0937 0.125 0.14901 0.19364 0.38869 0.32129 0.5625 0.5 0.004 0.004 0.0242-0.008 0.0312 0-0.0249-0.014-0.0739 0.0401-0.0625 0.0625 0.0969 0.1907 0.24011 0.39088 0.375 0.5625-0.002 0.009 0.002 0.0226 0 0.0312 0.004 0.01 0.0249 0.0231 0.0312 0.0312 0.0218 0.0272 0.0362 0.0388 0.0625 0.0625 0.002 0.0774-0.0115 0.1604-0.0625 0.21875 0.0569-0.0537 0.10872-0.12502 0.125-0.1875 0.0359 0.0345 0.0432 0.0784 0.0625 0.125 0.0315 0.076 0.052 0.10346 0.125 0.125 0.0232 0.01 0.0554-0.0468 0.0625-0.0625 0.0787-0.18289-0.0392-0.36821-0.125-0.53125-0.10187-0.19364-0.24197-0.36577-0.40625-0.53125-0.0886-0.13172-0.21263-0.24736-0.3125-0.3125-0.0219-0.014-0.0507 0.001-0.0625 0.0312-0.0473-0.0345-0.10945-0.0587-0.15625-0.0937 0.0752 0.0135 0.14486 0.0427 0.21875 0.0625 0.0936 0.0251 0.20027 0.0311 0.28125 0.0625 0.1479 0.0567 0.27096 0.16373 0.375 0.28125 0.10327 0.11587 0.16993 0.23956 0.3125 0.3125 0.0265 0.014 0.0728-0.0386 0.0625-0.0625-0.061-0.14102-0.14962-0.27219-0.25-0.375 0.0192-0.0582 0.0429-0.0978 0.0625-0.15625 0.0427-0.0924 0.0795-0.21286 0.125-0.3125-0.0116 0.0914-0.0297 0.18895-0.0312 0.28125 0 0.01 0.0312 0.009 0.0312 0 0.003-0.11084 0.0146-0.23408 0.0312-0.34375 0.0873-0.20857 0.11843-0.39684-0.0312-0.53125-0.004-0.043-0.0173-0.0851-0.0312-0.125-0.0729-0.12147-0.0007-0.18021 0.21875-0.15625 0.1821 0.0422 0.32838 0.19736 0.4375 0.34375-0.002 0.009 0.002 0.0224 0 0.0312 0.004 0.006 0.0272-0.006 0.0312 0 0.005 0.008-0.005 0.0236 0 0.0312 0.20016 0.28695 0.3056 0.59817 0.375 0.9375-0.0163 0.0219-0.0181 0.0432-0.0312 0.0625-0.0471 0.0709-0.0925 0.14144-0.125 0.21875-0.0582 0.0843-0.11494 0.17336-0.1875 0.25 0.0566-0.0539 0.10431-0.0997 0.15625-0.15625-0.0167 0.0598-0.0341 0.12267-0.0312 0.1875 0.001 0.0398 0.0598-0.0447 0.0625-0.0625 0.003-0.0261 0.0245-0.037 0.0312-0.0625 0.0207-0.003 0.0414 0.002 0.0625 0 0.01-0.00079 0.0447-0.029 0.0312-0.0312-0.0527-0.01-0.0522 0.0114-0.0312-0.0625 0.0203-0.0708 0.058-0.15515 0.0937-0.21875 0.0303-0.0539 0.0752-0.12188 0.0937-0.1875 0.0942-0.1413 0.21863-0.3838 0.34375-0.46875 0.0175-0.0119 0.0156-0.021 0.0312-0.0312 0.1076-0.0704 0.17742-0.0888 0.21875-0.0937 0.002 0.042-0.002 0.0829 0 0.125 0.001 0.0493 0.054 0.0387 0.0937 0 0.0113 0.0421 0.0326 0.0746 0.0625 0.125 0.12057 0.20442 0.39203 0.44649 0.59375 0.5625 0.0431 0.0248 0.0835-0.0302 0.0937-0.0625-0.002 0.0127 0.55009-1.123 0.625-1.0625 0.18117 0.14586 0.2725 0.4718 0.34375 0.6875 0.0563 0.1694 0.1555 0.32383 0.25 0.46875-0.0127 0.0116-0.0299 0.0245-0.0312 0.0312-0.0702 0.2982 0.2827 0.4188 0.46875 0.5625 0.0108 0.01 0.0392-0.0216 0.0312-0.0312-0.0654-0.0778-0.14641-0.14768-0.21875-0.21875 0.11002-0.15741 0.91235-1.1486 1-0.8125 0.0708 0.27127 0.31889 0.46736 0.5625 0.625 0.014 0.0232 0.0174 0.0392 0.0312 0.0625 0.01 0.0131 0.021 0.0499 0.0312 0.0625 0.001 0.0184 0 0.0131 0 0.0312 0.004 0.15742 0.0729 0.28597 0.0937 0.4375 0.002 0.0209 0.0311 0.0124 0.0312 0 0.001-0.10532-0.025-0.20771-0.0312-0.3125 0.014 0.019 0.0475 0.0132 0.0625 0.0312 0.01 0.0108-0.009 0.0219 0 0.0312 0.0349 0.0502 0.0891 0.10735 0.125 0.15625 0.0127 0.0179 0.0322-0.0222 0.0312-0.0312-0.0108-0.11422-0.12391-0.22144-0.1875-0.3125-0.002-0.005 0.003-0.0273 0-0.0312 0.0454 0.0259 0.14054-0.0851 0.125-0.125-0.0314-0.0791-0.2085-0.79754 0.0937-0.5625 0.23527 0.18336 0.36076 0.4477 0.65625 0.5625 0.0557 0.0217 0.0866-0.052 0.0937-0.0937 0.0342-0.21002 0.0905-0.44644 0.125-0.65625 0.10796-0.37407 0.22952-0.60965 0.375-0.71875-0.2047 0.17119-0.34477 0.40767-0.4375 0.6875 0.0665-0.57359-0.0289-1.1983-0.0312-1.7812-0.002-0.68625-0.0993-1.4008-0.15625-2.0938 0.37125-0.0272 0.75384-0.0682 1.125-0.0937-0.001 0.006 0.00015 0.027 0 0.0312-0.002 0.0555 0.11524-0.0225 0.125-0.0312 0.15437-0.0102 0.31437-0.0236 0.46875-0.0312 0.88053-0.0436 1.7405-0.0568 2.625-0.0625 0.002 0.0214-0.008 0.0417 0 0.0625 0.0219 0.055 0.10804-0.0122 0.125-0.0312 0.0105-0.0114 0.0221-0.0192 0.0312-0.0312 0.88716-0.003 1.7713 0.0281 2.6562 0.0625-0.002 0.009 0.001 0.0235 0 0.0312-0.004 0.0361 0.004 0.038 0.0312 0.0312 0.0397-0.01 0.064-0.0455 0.0937-0.0625 0.12495 0.005 0.25016 0.0254 0.375 0.0312 0.0108 0.0166 0.0353 0.0177 0.0625 0 0.0934 0.004 0.18794-0.005 0.28125 0 0.003 0.0167 0.0411 0.0137 0.0625 0 0.0281-0.0342 0.0361-0.089 0.0625-0.125-0.00033-0.0286 0.002-0.065 0-0.0937-0.004-0.0574 0.004-0.13039 0-0.1875 0.0181-0.0652 0.0249-0.11969 0.0312-0.1875 0.0466-0.003 0.0781 0.001 0.125 0-0.0581 0.12604-0.10813 0.24566-0.15625 0.375 0.0422-0.0967 0.10798-0.18471 0.15625-0.28125-0.0225 0.0758 0.14164-0.008 0.15625-0.0312 0.13474-0.20779 0.22792-0.4478 0.3125-0.6875-0.0193 0.0801 0.14098-0.0285 0.15625-0.0625 0.0977-0.22205 0.1506-0.5074 0.25-0.75-0.0195 0.10338-0.0473 0.20919-0.0312 0.3125 0.003 0.019 0.0159 0.033 0.0312 0.0312-0.0873 0.13073-0.16392 0.2751-0.25 0.40625 0.26219-0.37054 0.55218-0.72197 0.8125-1.0938 0.34908-0.49919 0.68355-1.0229 1.0625-1.5 0.10954-0.13834 0.21947-0.25592 0.3125-0.40625 0.0234-0.001 0.0571-0.0458 0.0625-0.0625 0.0108-0.0288 0.0008-0.0359 0-0.0625 0.001-0.004 0.0252-0.0262 0.0312-0.0312 0.004-0.0192-0.0175-0.0308-0.0312-0.0312-0.0108-0.0401 0.005-0.0812 0-0.125-0.0117-0.0871-0.009-0.14604-0.0625-0.21875 0.0127-0.0245 0.0149-0.0489 0-0.0625-0.49232-0.50335-0.91669-1.0918-1.375-1.625-0.48303-0.56136-1.0622-1.0529-1.625-1.5312-0.008-0.007-0.0209 0.0182-0.0312 0.0312-0.007 0.009-0.004 0.0262 0 0.0312 0.437 0.51388 0.92454 0.96736 1.375 1.4688 0.51631 0.57432 0.96335 1.2238 1.5 1.7812-0.51705 0.56967-0.97306 1.1995-1.4375 1.8125-0.26512 0.34984-0.5003 0.73193-0.75 1.0938-0.11776 0.17114-0.40449 0.75011-0.6875 1.0625-0.36417 0.0263-0.73258 0.0617-1.0938 0.0937-0.008-0.007-0.0236-0.0238-0.0312-0.0312-0.0182-0.0179-0.0428-0.005-0.0625 0-0.014 0.006-0.0178 0.0246-0.0312 0.0312-0.0823 0.007-0.16761-0.006-0.25 0-0.00005-0.0105 0.001-0.0205 0-0.0312-0.004-0.0542-0.10738-0.0147-0.125 0-0.022 0.0176-0.0391 0.0444-0.0625 0.0625-0.0516 0.003-0.10451-0.003-0.15625 0 0.004-0.0221 0.0322-0.038 0.0312-0.0625-0.001-0.0328-0.0464-0.0367-0.0625-0.0312-0.0493 0.0195-0.0833 0.065-0.125 0.0937-0.0623 0.003-0.12502-0.001-0.1875 0 0.002-0.0127-0.0176-0.0261-0.0312-0.0312-0.0852-0.0299-0.14571 0.0164-0.21875 0.0625-0.0524-0.00013-0.10367 0.001-0.15625 0-0.0104-0.00022-0.0208 0.00022-0.0312 0 0.01-0.0447-0.0731-0.0449-0.0937-0.0312-0.0132 0.009-0.0187 0.0221-0.0312 0.0312-0.27042-0.006-0.5428-0.0255-0.8125-0.0312-0.007-0.0142-0.0185-0.0228-0.0312-0.0312-0.0194-0.0127-0.0445-0.012-0.0625 0-0.0129 0.007-0.0192 0.0232-0.0312 0.0312-0.71526-0.0146-1.407-0.0183-2.125 0-0.15553 0.004-0.31322-0.004-0.46875 0 0.002-0.036-0.0505-0.0353-0.0625-0.0312-0.0227 0.0105-0.0424 0.019-0.0625 0.0312-0.74699 0.0191-1.503 0.0438-2.25 0.0625-0.58349 0.0149-1.1618-0.0405-1.75-0.0937 0.004-0.036-0.0836-0.034-0.0937-0.0312-0.0208 0.0103-0.042 0.0201-0.0625 0.0312-0.4092-0.0367-0.81154-0.0858-1.2188-0.0937-1.9673-0.0379-3.9418-0.023-5.9062 0 0.0127-0.0385-0.0376-0.009-0.0625 0-0.37625 0.005-0.7488 0.0238-1.125 0.0312 0.004-0.0199-0.002-0.0422 0-0.0625 0.002-0.04-0.084-0.004-0.0937 0-0.026 0.0163-0.0382 0.0445-0.0625 0.0625-0.094 0.002-0.18727-0.002-0.28125 0-0.0142-0.0132-0.0409-0.0181-0.0625 0-0.19841 0.005-0.39535-0.006-0.59375 0-0.003-0.008 0.006-0.0239 0-0.0312-0.01-0.0118-0.0219-0.002-0.0312 0-0.0226 0.01-0.0417 0.0197-0.0625 0.0312-0.0835 0.002-0.16647-0.003-0.25 0-0.007-0.0341-0.0348-0.0201-0.0625 0-0.32328 0.01-0.64549 0.0187-0.96875 0.0312-0.0139 0.003-0.0217-0.007-0.0312 0-0.14494 0.006-0.29256 0.0251-0.4375 0.0312-0.01-0.0108 0.008-0.0212 0-0.0312-0.0108-0.0127-0.0518-0.004-0.0625 0-0.0233 0.0115-0.0411 0.0177-0.0625 0.0312-0.63084 0.0276-1.2754 0.0555-1.9062 0.0937 0.002-0.0446-0.0731-0.0436-0.0937-0.0312-0.0121 0.009-0.0196 0.0215-0.0312 0.0312-0.12431 0.008-0.25069 0.0231-0.375 0.0312 0.034-0.0277 0.0656-0.0723 0.0625-0.0937-0.0305-0.20396 0.3239-0.52283 0.4375-0.65625 0.26142-0.30577 0.55925-0.59124 0.84375-0.875 0.39624-0.39497 0.7967-0.787 1.2188-1.1562-0.003 0.0171 0.0142 0.0308 0.0312 0.0312 0.0108 0.00017 0.0212-0.00021 0.0312 0 0.0552 0.0004 0.11227-0.1567 0.0625-0.15625 0.0267-0.00019 0.0523-0.0267 0.0625-0.0625 0.0302-0.0251 0.11191-0.0754 0.0937-0.125-0.45215-1.2307-1.2506-2.291-1.8125-3.4688 0.88624-0.1501 1.6884-0.28125 2.5938-0.28125 1.11 0 2.234 0.00083 3.3438 0 0.9844-0.002 1.959-0.007 2.9375-0.125 0.0424-0.005 0.0829-0.0255 0.125-0.0312-0.003 0.009 0.003 0.0219 0 0.0312-0.0211 0.0608 0.0831-0.0185 0.0937-0.0312 0.12438-0.018 0.25163-0.0427 0.375-0.0625-0.014 0.0612 0.0804-0.0118 0.0937-0.0312 0.24498-0.039 0.49997-0.0432 0.75-0.0625 0.002 0.0217 0.0294-0.019 0.0312-0.0312 0.031-0.002 0.0625 0.002 0.0937 0 0.59271-0.0304 1.189 0.008 1.7812 0.0312 1.8931 0.0748 3.7934 0.034 5.6875 0.0312 0.91316-0.002 1.8095-0.15078 2.7188-0.15625 0.45999-0.002 0.91573-0.003 1.375-0.0312 0.42207-0.0259 0.857-0.13294 1.2812-0.15625 0.0166-0.00078 0.0262-0.0625 0-0.0625-0.8549 0.001-1.7029 0.068-2.5625 0.0625-0.90484-0.004-1.7785 0.1585-2.6875 0.15625-1.0766-0.002-2.1712 0.00024-3.25 0 0.0121-0.0169 0.0312-0.0498 0.0312-0.0625-0.001-0.51657-0.16127-1.0115-0.0937-1.5312 0.0197-0.15356 0.15575-0.74796-0.0937-0.78125-0.0118-0.00078-0.0787 0.0526-0.0625 0.0625 0.17185 0.1092-0.007 0.82521-0.0312 1-0.0579 0.41374 0.027 0.89441 0.0937 1.3125-0.90073-0.001-1.7894-0.0219-2.6875-0.0625-0.54709-0.0246-1.0681-0.007-1.5938 0.0312 0.10455-0.8433 0.0245-1.7334-0.125-2.5625 0.31431-0.0493 0.67203-0.0138 0.96875 0 0.3961 0.018 0.79335 0.081 1.1875 0.125 0.71069 0.079 1.4726-0.183 2.1875-0.21875 0.0788-0.003 0.22704-0.19503 0.1254-0.18745zm1.1562 14c0.14548-0.1091 0.31687-0.0933 0.5 0.0625-0.0582 0.23135-0.0841 0.30748-0.0625 0.53125 0.0374 0.38952 0.25681 0.7514 0.53125 1.0312-0.0426 0.0851-0.0553 0.16677-0.0625 0.25 0.0225-0.073 0.0857-0.13658 0.125-0.21875 0.0363 0.0116 0.0933-0.11914 0.0625-0.15625 0.061-0.10683 0.12048-0.20951 0.1875-0.28125 0.069-0.0733 0.14911-0.14605 0.21875-0.21875 0.077-0.0804 0.0312 0.18871 0.0312 0.1875-0.001 0.22793-0.0216 1.0876 0.375 1.0312 0.0245-0.002 0.0934-0.1087 0.0625-0.125-0.17235-0.0897-0.26266-0.32373-0.28125-0.5-0.028-0.26563-0.0472-0.51513-0.0312-0.78125 0.00078-0.018-0.006-0.0427-0.0312-0.0312-0.18067 0.0911-0.33223 0.30032-0.4375 0.46875-0.0371 0.0593-0.0792 0.14503-0.125 0.21875-0.16622-0.20784-0.34267-0.49473-0.46875-0.71875-0.14588-0.25877-0.008-0.65987 0.0625-0.9375 0.001-0.0118 0.0135-0.03 0-0.0312-0.2761-0.0237-0.48927 0.079-0.6563 0.21865zm-5.7188-13.719c-0.0358 0.0227-0.0603 0.0729-0.0625 0.0937-0.0119 0.11771-0.006 0.22659 0 0.34375 0.008 0.1584 0.0379 0.31113 0.0625 0.46875-0.0355 0.0318-0.0581 0.0896-0.0937 0.125-0.2316 0.26196-0.37284 0.66004-0.53125 0.96875-0.10369 0.20226-0.23387 0.39447-0.34375 0.59375-0.00063-0.0955 0.00093-0.18579 0-0.28125 0.2878-0.43269 0.54421-0.90698 0.875-1.2812-0.32928 0.32667-0.66781 0.74694-0.875 1.1562 0.27712-0.60248 0.61809-1.1551 0.90625-1.75 0.0224-0.047-0.0828-0.011-0.0937 0-0.23917 0.21399-0.41969 0.50283-0.59375 0.8125 0.15669-0.366 0.38454-0.6753 0.5625-1.0312 0.0101-0.0202-0.0105-0.0352-0.0312-0.0312 0.005-0.006-0.005-0.0252 0-0.0312 0.035-0.0445 0.079-0.0887 0.125-0.125 0.0297-0.01 0.0625-0.024 0.0936-0.0313zm-0.59375 0.5625c-0.0908 0.13116-0.16639 0.28152-0.25 0.40625-0.0185 0.0276-0.0711 0.12958-0.125 0.21875 0.15519-0.19484 0.3387-0.3576 0.46875-0.5625-0.0681 0.12312-0.12316 0.25065-0.1875 0.375-0.10342 0.19969-0.19509 0.38702-0.28125 0.59375 0.001-0.0941 0.001-0.22566 0-0.34375 0.005-0.009-0.006-0.0219 0-0.0312 0.005-0.006-0.005-0.0247 0-0.0312-0.001-0.032 0.004-0.0624 0-0.0937 0.0363-0.0758 0.0603-0.14808 0.0937-0.21875 0.001-0.002 0.0008-0.0253 0-0.0312 0.10749-0.0824 0.18849-0.18267 0.2813-0.28145zm-0.34375 0.3125c0.007 0.008-0.0462 0.0813-0.0625 0.125-0.006-0.03 0.01-0.0659 0-0.0937 0.0214-0.0131 0.0419-0.0171 0.0625-0.0313zm0.9375 0.1875c0.0119 0.071 0.0196 0.1479 0.0312 0.21875-0.14575 0.11324-0.25587 0.26624-0.375 0.4375 0.1266-0.2066 0.24034-0.44386 0.3438-0.65625zm-0.59375 0.15625c-0.13304 0.25284-0.24937 0.5248-0.375 0.78125-0.00014-0.0742-0.0008-0.14454 0-0.21875 0.009-0.0193 0.0229-0.043 0.0312-0.0625 0.0675-0.0567 0.11693-0.10457 0.15625-0.1875 0.0815-0.12274 0.11675-0.18422 0.18755-0.3125zm0.5625 0.28125c-0.0882 0.16208-0.18945 0.30862-0.28125 0.46875-0.12028 0.2099-0.2084 0.45169-0.28125 0.6875-0.0924 0.0125-0.18786 0.0167-0.28125 0.0312 0.28805-0.39025 0.54527-0.80482 0.84375-1.1874zm0.0937 0c0.0146 0.11465 0.0251 0.22849 0.0312 0.34375-0.0176 0.009-0.0262 0.0257-0.0312 0.0312-0.16036 0.18092-0.30235 0.3935-0.4375 0.59375-0.019 0.0217-0.048 0.0392-0.0625 0.0625 0.0164-0.0479 0.0204-0.10645 0.0312-0.15625 0.0875-0.31338 0.29635-0.58876 0.46885-0.87495zm0.0625 0.5c0.003 0.0728-0.004 0.14611 0 0.21875-0.006 0.004-0.0296-0.002-0.0312 0-0.0801 0.0881-0.1428 0.18969-0.21875 0.28125 0.0786-0.16745 0.17651-0.33211 0.25-0.5zm-0.3125 0.34375c-0.0524 0.0917-0.064 0.18795-0.0937 0.28125-0.0402 0.004-0.0847-0.005-0.125 0 0.0686-0.0941 0.15027-0.18724 0.21875-0.28125zm0.34375 0.0312c0.005 0.063 0.0234 0.12477 0.0312 0.1875-0.0299 0.002-0.0638-0.002-0.0937 0 0.0237-0.0661 0.0395-0.12509 0.0625-0.18745zm-0.125 0.0625c-0.0153 0.0458-0.0474 0.11067-0.0625 0.15625-0.03 0.003-0.0637-0.003-0.0937 0 0.0516-0.0493 0.10974-0.1003 0.15625-0.1562zm2.75 0.65625c-0.28079-0.0263-0.70265 0.0699-0.875 0.3125-0.006 0.008 0.005 0.0216 0 0.0312 0.0199-0.011-0.0283-0.003-0.0312 0-0.005 0.004 0.004 0.0242 0 0.0312-0.0955 0.0955-0.0923 0.27101-0.0312 0.375 0.0441 0.0748 0.10918 0.0965 0.1875 0.0937 0.12057 0.0622 0.22859 0.11702 0.375 0.0312 0.0263-0.0155 0.0648-0.0428 0.0937-0.0625 0.1333-0.0474 0.26102-0.10792 0.34375-0.1875 0.19881-0.19144 0.33327-0.58778-0.0625-0.62475zm-0.15625 0.125c0.0762-0.001 0.15411 0.0207 0.21875 0.0625 0.17651 0.11564 0.0279 0.28909-0.0937 0.375 0.0155-0.0389-0.0433-0.0499-0.0625-0.0312-0.0251 0.0251-0.0358 0.0666-0.0625 0.0937-0.18776 0.0826-0.37226 0.0408-0.5625-0.0312 0.0708-0.0383 0.13493-0.10242 0.15625-0.125-0.0305 0.0277-0.25808 0.12681-0.25 0 0.009-0.13193 0.0524-0.19295 0.1875-0.25 0.15963-0.0668 0.29714-0.0917 0.46875-0.0937zm-12.844 0.1875c0.0348 0.0971 0.0858 0.18641 0.125 0.28125-0.0133 0.007-0.0298 0.0236-0.0312 0.0312-0.0103 0.0626-0.047 0.11953-0.0625 0.1875-0.087-0.0206-0.0644-0.28156-0.0625-0.34375 0.001-0.044 0.0294-0.10952 0.0312-0.15615zm12.094 0.125c-0.006 0.0499-0.0153 0.0833 0 0.125 0.014 0.039 0.0627 0.0612 0.0937 0.0625-0.0166 0.0221-0.0408 0.0462-0.0312 0.0625-0.0314-0.0264-0.0479-0.0503-0.0625-0.0937-0.002-0.006 0.002-0.0232 0-0.0312-0.008-0.0366-0.006-0.0779 0.00005-0.12505zm-11.938 0.21875c0.0347 0.0818 0.0564 0.16954 0.0937 0.25 0.0293 0.0631 0.0631 0.12509 0.0937 0.1875-0.0225 0.0106-0.0541 0.0219-0.0625 0.0312-0.21814 0.22988-0.0616 0.005-0.0312-0.21875 0.002-0.0223-0.0439-0.0381-0.0625-0.0312-0.0347 0.0127-0.0351 0.0433-0.0625 0.0625 0.0241-0.0896 0.0343-0.18618 0.0313-0.2812zm-0.125 0.21875c-0.0113 0.044-0.0175 0.0845-0.0312 0.125-0.013-0.0299-0.0186-0.0637-0.0312-0.0937 0.0199-0.009 0.0473-0.0113 0.0625-0.0312zm0.0312 0.1875c0.044 0.01 0.0567 0.0571 0.0312 0.125-0.0176-0.0381-0.014-0.0866-0.0311-0.12495zm0.3125 0.125c0.0377 0.0749 0.0859 0.14459 0.125 0.21875-0.0424 0.0299-0.0931 0.0526-0.125 0.0937 0.00093-0.17495-0.006-0.19289 0.0001-0.3124zm-0.125 0.1875c0.0212 0.006 0.0405 0.0757 0.0312 0.15625-0.0213-0.0417-0.0418-0.0831-0.0625-0.125 0.008-0.006 0.0263-0.0326 0.0314-0.0312zm0.28125 0.125c0.022 0.041 0.0402 0.0841 0.0625 0.125-0.0108 0.009-0.0229 0.0198-0.0312 0.0312-0.10856 0.14831-0.0615-0.0251-0.0312-0.15615zm-0.125 0.15625c0.0271-0.0104 0.01 0.0571 0 0.125-0.0155-0.0289-0.0159-0.0648-0.0312-0.0937 0.0111-0.0131 0.0246-0.0287 0.0313-0.0312zm0.21875 0.0625c0.0256 0.003 0.003 0.20609 0 0.25-0.009 0.1357-0.003 0.16367 0 0.21875-0.0568-0.0999-0.10102-0.21137-0.15625-0.3125 0.0502-0.0192 0.0678-0.0107 0.0937-0.0625 0.024-0.0478 0.0541-0.0947 0.0626-0.0937zm0.125 0.1875c0.007 0.0122 0.0244 0.0191 0.0312 0.0312-0.0159 0.007-0.0166 0.0175-0.0312 0.0312 0.002-0.0231-0.001-0.0391 0.0001-0.0623zm0.0937 0.15625c0.0336 0.0599 0.0602 0.12755 0.0937 0.1875-0.0105 0.008-0.0283 0.0277-0.0312 0.0312-0.1743 0.20168-0.0635-0.0328-0.0624-0.21865zm-0.0937 0.1875c0.001 0.0613 0.0005 0.12664 0 0.1875-0.0275-0.0474-0.0352-0.10857-0.0625-0.15625 0.0155-0.0144 0.0566-0.0211 0.0626-0.0312zm0.25 0.125c0.0469 0.0844 0.11032 0.16501 0.15625 0.25-0.0116 0.0103-0.0269 0.0262-0.0312 0.0312-0.14845 0.17287-0.12335-0.0832-0.12495-0.28115zm-0.0937 0.0625c-0.0271 0.0791-0.0103 0.18011 0 0.28125-0.0111-0.0179-0.0211-0.045-0.0312-0.0625-0.023-0.0393-0.0395-0.0855-0.0625-0.125 0.0364-0.0299 0.0765-0.0451 0.0937-0.0937zm25.406 0.25c0.014 0.0521-0.006 0.10259 0 0.15625 0.00019 0.0101-0.001 0.021 0 0.0312-0.0454 0.007-0.11246 0.018-0.125 0.0312-0.12147 0.13186-0.17118 0.30693-0.25 0.46875 0.001-0.0318 0.004-0.061 0-0.0937-0.006-0.029-0.0553-0.0153-0.0937 0 0.16165-0.2011 0.33291-0.37741 0.46875-0.59365zm-25.188 0.1875c0.0378 0.0196 0.0319 0.13567 0.0312 0.25-0.0412-0.0607-0.0535-0.12939-0.0937-0.1875 0.0225-0.0237 0.0499-0.069 0.0625-0.0625zm0.15625 0.0312c0.0282 0.0547 0.0664 0.10108 0.0937 0.15625-0.0163 0.013-0.0498 0.0181-0.0625 0.0312-0.009 0.009-0.0231-0.11393-0.0312-0.18735zm24.969 0.21875c-0.0569 0.0932-0.11266 0.19055-0.1875 0.28125 0.0439-0.0856 0.0814-0.16445 0.125-0.25 0.0138 0.009 0.0349-0.0221 0.0625-0.0312zm-24.812 0.0937c0.10243 0.0431 0.0533 0.32607 0.0625 0.53125-0.0372-0.16544-0.11807-0.30627-0.21875-0.46875 0.0558-0.0291 0.12731-0.0745 0.1563-0.0623zm24.312 0.375c-0.001 0.0329-0.005 0.0567 0 0.0937 0.008 0.0366 0.0467 0.0223 0.0937 0-0.0357 0.0447-0.095 0.0811-0.125 0.125-0.0479 0.0703-0.0771 0.14851-0.125 0.21875 0.053-0.14834 0.0961-0.29694 0.15635-0.4373zm-0.1875 0.0625c-0.0656 0.19276-0.0969 0.39701-0.1875 0.5625 0.0197-0.0953 0.0444-0.19043 0.0625-0.28125 0.006-0.0325-0.0519-0.016-0.0937 0 0.0407-0.0535 0.0833-0.10325 0.125-0.15625 0.0307-0.0389 0.0624-0.0859 0.0937-0.12485zm-23.844 0.0625c0.004 0.0236 0.0233 0.0739 0 0.0937-0.057 0.0487-0.13138 0.0745-0.1875 0.125 0.00068-0.0314-0.0277-0.0621-0.0312-0.0937 0.01 0.0446 0.087-0.0548 0.0937-0.0625 0.0422-0.0497 0.0912-0.047 0.12505-0.0623zm23.438 0.46875c-0.0517 0.11613-0.0781 0.22261-0.125 0.34375-0.0182-0.0259-0.11686 0.0336-0.15625 0.0625 0.0948-0.13514 0.1837-0.27247 0.2813-0.4061zm0.125 0.28125c-0.0679 0.0993-0.15074 0.18203-0.21875 0.28125 0.0399-0.0774 0.0927-0.16677 0.125-0.25 0.0241 0.009 0.0663-0.017 0.0938-0.0311zm-0.5 0.28125c-0.0513 0.0865-0.12013 0.15327-0.15625 0.25-0.005-0.0141-0.0164-0.002-0.0312 0 0.0597-0.0859 0.12782-0.16403 0.1875-0.24985zm0.15625 0.21875c-0.0431 0.0629-0.0818 0.12464-0.125 0.1875-0.0552 0.0804-0.1017 0.1694-0.15625 0.25 0.0465-0.12678 0.0773-0.27571 0.125-0.40625 0.0342 0.012 0.13999-0.013 0.1563-0.0311zm-0.84375 0.71875c-0.0481 0.10108-0.0863 0.20637-0.125 0.3125-0.019 0.014-0.0272 0.024-0.0312 0.0312-0.0975 0.17405-0.19206 0.3509-0.28125 0.53125-0.0603 0.004-0.12716 0.0277-0.1875 0.0312 0.0116-0.0205 0.0187-0.0682 0-0.0625 0.20145-0.28746 0.41754-0.56024 0.625-0.8435zm-19.781 1.0312c0.0103-0.009 0.0229 0.007 0.0312 0-0.0146 0.0215-0.002 0.0252-0.0312 0.0625-0.0661 0.13981-0.0939 0.31202-0.125 0.46875-0.1045-0.00032-0.20798 0.00038-0.3125 0 0.0923-0.095 0.15489-0.19154 0.21875-0.3125 0.0595-0.0551 0.13-0.13014 0.1875-0.1875 0.0241-0.022 0.0132-0.0154 0.0313-0.0311zm0.15625 0c0.0733-0.00046 0.14546-0.00002 0.21875 0-0.009 0.006-0.0296 0.0295-0.0312 0.0312-0.10662 0.0983-0.14693 0.13915-0.25 0.25 0.0305-0.0931 0.0329-0.18776 0.0625-0.28105zm0.34375 0c0.0105 0.00004 0.0208-0.00006 0.0312 0-0.0105 0.006-0.0283 0.028-0.0312 0.0312 0.003-0.009-0.002-0.0219 0.00005-0.031zm0.15625 0c0.052 0.00045 0.10424-0.00047 0.15625 0-0.12849 0.0826-0.23654 0.20103-0.34375 0.3125-0.0656 0.0682-0.0669 0.067-0.0937 0.0937 0.0875-0.10978 0.24263-0.31094 0.28125-0.40605zm0.28125 0c0.0624 0.00058 0.12508-0.00061 0.1875 0-0.0299 0.0239-0.0629 0.0348-0.0937 0.0625-0.0806 0.0722-0.28296 0.31594-0.28125 0.3125 0.0616-0.12791 0.12529-0.24805 0.1875-0.37485zm0.25 0c0.0104 0.0001 0.0208-0.0001 0.0312 0 0.00097 0.004-0.0159 0.009-0.0312 0.0312-0.0985 0.14469-0.22384 0.32401-0.28125 0.5-0.0831-0.002-0.16677 0.00068-0.25 0 0.0689-0.0413 0.10275-0.0663 0.15625-0.125 0.0366-0.0405 0.28349-0.29739 0.375-0.375 0.004-0.003-0.003-0.0284 0.00005-0.031zm0.15625 0c0.0416 0.00042 0.0834-0.00043 0.125 0-0.10219 0.0757-0.19518 0.15561-0.28125 0.25 0.0535-0.0793 0.11031-0.16657 0.1563-0.24985zm0.28125 0c0.0624 0.00066 0.12507-0.00067 0.1875 0-0.0805 0.0546-0.16497 0.11164-0.25 0.1875-0.0258 0.0231-0.0424 0.0129-0.0625 0.0312 0.0393-0.0571 0.091-0.14233 0.12505-0.21855zm0.34375 0c0.0728 0.00079 0.14592-0.00081 0.21875 0-0.12836 0.0757-0.24313 0.17401-0.34375 0.28125-0.27862 0.29744-0.13359 0.15429 0.0312-0.0937 0.0447-0.0673 0.0605-0.11786 0.0938-0.1874zm0.34375 0c0.0312 0.00035 0.0625-0.00035 0.0937 0-0.0351 0.0315-0.0573 0.056-0.0937 0.0937-0.12453 0.12877-0.39966 0.60085-0.15625 0.15625 0.0521-0.0948 0.11931-0.15016 0.1563-0.2498zm0.3125 0c0.0312 0.00035 0.0625-0.00035 0.0937 0-0.029 0.0127-0.0806 0.0168-0.0937 0.0312 0.005-0.007-0.004-0.0232 0.00005-0.031zm0.15625 0c0.0416 0.00046 0.0834-0.00046 0.125 0-0.12431 0.0994-0.25952 0.20327-0.375 0.3125 0.0715-0.0951 0.14728-0.19313 0.21875-0.28125 0.0197-0.0244 0.0355-0.0245 0.0313-0.0311zm0.3125 0c0.0416 0.00045 0.0834-0.00045 0.125 0-0.0765 0.0635-0.15257 0.14587-0.21875 0.21875 0.0373-0.0683 0.0644-0.14813 0.0938-0.2186zm0.28125 0c0.0416 0.00044 0.0834-0.00044 0.125 0-0.13076 0.11517-0.22701 0.24531-0.34375 0.375 0.0664-0.12985 0.13783-0.25497 0.2188-0.37485zm0.3125 0c0.0417 0.00042 0.0833 0.0308 0.125 0.0312-0.11104 0.0843-0.20599 0.18453-0.28125 0.28125-0.004 0.01-0.026-0.007-0.0312 0 0.062-0.1058 0.12225-0.20859 0.1875-0.3123zm-5.1562 0.0312c0.0209-0.00079 0.0416 0.00077 0.0625 0-0.0362 0.0414-0.0589 0.0804-0.0937 0.125 0.0238-0.0415 0.0168-0.0861 0.0312-0.1248zm0.21875 0c0.0314-0.001 0.0624 0.001 0.0937 0-0.0717 0.0674-0.11895 0.14262-0.1875 0.21875 0.0483-0.066 0.0634-0.1361 0.0938-0.21855zm0.375 0c0.0523-0.002 0.10393 0.001 0.15625 0-0.11209 0.0823-0.22029 0.17044-0.3125 0.28125 0.0687-0.0903 0.12558-0.19166 0.1563-0.28105zm0.34375 0c0.0419-0.00098 0.0831 0.00087 0.125 0-0.13273 0.10172-0.26804 0.2105-0.34375 0.34375 0.0437-0.0764 0.16063-0.20733 0.2188-0.34355zm3.5 0c-0.13077 0.0956-0.24066 0.40045-0.3125 0.5625-0.12386-0.008-0.25119 0.008-0.375 0 0.0592-0.0402 0.10731-0.10306 0.15625-0.15625 0.0118-0.00077 0.0242 0.008 0.0312 0 0.16583-0.13645 0.32678-0.27901 0.5001-0.40605zm1.0312 0c0.052 0.0005 0.10422-0.00048 0.15625 0-0.10078 0.0776-0.20169 0.18087-0.28125 0.28125-0.057 0.072-0.0673 0.0626-0.0937 0.0937 0.0675-0.10563 0.1534-0.26326 0.21875-0.37475zm0.34375 0c0.0312 0.00027 0.0625-0.00027 0.0937 0-0.0677 0.0592-0.11919 0.14812-0.1875 0.21875-0.0155 0.0155-0.0172 0.0115-0.0312 0.0312 0.01-0.014-0.008-0.0146 0-0.0312 0.0401-0.0801 0.0959-0.14123 0.12505-0.21855zm0.40625 0c0.10405 0.0008 0.20846-0.00069 0.3125 0-0.20615 0.083-0.33678 0.26248-0.46875 0.4375 0.0656-0.14299 0.13336-0.31009 0.1563-0.4373zm0.40625 0c0.0312 0.0002 0.0625-0.00018 0.0937 0-0.0582 0.0514-0.13907 0.0943-0.1875 0.15625 0.0295-0.0521 0.0774-0.10935 0.0938-0.15605zm0.28125 0c0.12485 0.00065 0.25016-0.00044 0.375 0-0.16832 0.14485-0.35159 0.34386-0.53125 0.4375 0.17879-0.0903 0.35001-0.2504 0.5-0.375-0.0926 0.0769-0.13878 0.39936-0.15625 0.59375-0.16632 0.004-0.33407-0.002-0.5 0 0.0489-0.0196 0.0843-0.0356 0.0937-0.0625 0.0116-0.0333 0.0189-0.092 0.0312-0.125 0.013-0.006 0.0186-0.0249 0.0312-0.0312 0.0573-0.14863 0.10675-0.28766 0.15645-0.43735zm0.5 0c0.0936 0.00028 0.18762-0.00014 0.28125 0-0.15464 0.20613-0.29933 0.39989-0.46875 0.59375 0.10775-0.12304 0.12398-0.41079 0.18755-0.59355zm0.40625 0c0.0728 0.00006 0.14593 0.00002 0.21875 0-0.0109 0.0103-0.0208 0.0205-0.0312 0.0312-0.0556 0.20037-0.15499 0.38915-0.1875 0.59375-0.0525 0.00094-0.10393-0.001-0.15625 0 0.14142-0.17806 0.28723-0.39087 0.34375-0.59375-0.13419 0.13776-0.24317 0.27396-0.34375 0.4375 0.0397-0.15929 0.0966-0.31536 0.15625-0.4685zm0.34375 0c0.0624-0.00006 0.12509 0.00013 0.1875 0-0.11893 0.10246-0.25471 0.20784-0.34375 0.34375 0.049-0.11655 0.11995-0.22602 0.1563-0.34355zm0.25 0c0.0215 0.008-0.058 0.16551-0.0625 0.1875-0.0514 0.14593-0.10814 0.28295-0.0937 0.4375-0.10352 0.00019-0.20899-0.002-0.3125 0 0.13484-0.18639 0.2577-0.38609 0.40625-0.5625 0.0372-0.0441 0.0553-0.0648 0.0625-0.0623zm0.1875 0c0.0732 0.00061 0.14555-0.002 0.21875 0-0.016 0.01-0.0283 0.0279-0.0312 0.0312-0.0825 0.0916-0.17511 0.18358-0.25 0.28125-0.0389 0.0537-0.0912 0.0992-0.125 0.15625 0.0147-0.15035 0.14487-0.32094 0.1875-0.4685zm11.625 0c-0.14017 0.0986-0.26876 0.20886-0.375 0.34375-0.0658 0.0841-0.0172-0.16493 0-0.3125 0.12464-0.0104 0.24986-0.0215 0.37505-0.031zm0.25 0c-0.0541 0.0732-0.10653 0.14244-0.15625 0.21875 0.0167-0.0657 0.0269-0.11949 0.0312-0.1875 0.0407-0.007 0.0918-0.005 0.1251-0.031zm-21.562 0.0312c-0.007 0.005 0.007 0.0259 0 0.0312 0.0265 0.0234-0.13154 0.31083-0.1875 0.4375-0.0209 0.0006-0.0416-0.00064-0.0625 0-0.0387 0.001-0.0854-0.00064-0.125 0 0.0221-0.0174 0.0476-0.0388 0.0625-0.0625 0.13428-0.20907 0.20652-0.29706 0.25-0.34375-0.0534 0.0498-0.0968 0.0929-0.15625 0.15625-0.28198 0.3008-0.11177 0.005 0-0.1875 0.0736-0.003 0.14526-0.0279 0.2188-0.0309zm0.0937 0c0.0209-0.00086 0.0416 0.00086 0.0625 0-0.0169 0.0196-0.0472 0.0412-0.0625 0.0625 0.007-0.0205-0.003-0.0429 0.0001-0.0622zm0.1875 0c0.0627-0.003 0.12475 0.003 0.1875 0-0.0896 0.0563-0.15729 0.13417-0.21875 0.21875-0.21265 0.2929-0.0488-0.007 0.0313-0.2185zm0.28125 0c0.0105-0.00043 0.0208 0.00043 0.0312 0-0.036 0.0351-0.065 0.062-0.0937 0.0937 0.019-0.0316 0.0498-0.0551 0.0626-0.0934zm0.28125 0c0.0418-0.002 0.0832 0.002 0.125 0-0.0969 0.0615-0.17982 0.1199-0.25 0.1875 0.045-0.0568 0.0958-0.12128 0.1251-0.18725zm2.5625 0c-0.12274 0.13074-0.2558 0.28465-0.28125 0.46875-0.0416-0.00015-0.0833-0.00011-0.125 0-0.0209 0.00002-0.0416-0.00001-0.0625 0 0.13576-0.17924 0.31657-0.30618 0.46885-0.4685zm3.75 0c0.0265 0.002-0.12497 0.20411-0.15625 0.28125-0.0468 0.11153-0.0698 0.22849-0.0937 0.34375-0.20825-0.003-0.41503-0.0198-0.625-0.0312 0.0884-0.0691 0.15344-0.17285 0.21875-0.25 0.0413-0.0487 0.0826-0.1077 0.125-0.15625-0.0525 0.1133-0.0993 0.25801-0.125 0.375-0.0118 0.0514 0.11378 0.005 0.125 0 0.1841-0.12287 0.28303-0.33989 0.4375-0.5 0.0561-0.058 0.085-0.0631 0.0938-0.0623zm0.6875 0c-0.0582 0.20343-0.18219 0.42107-0.25 0.625-0.0415 0.0005-0.0835-0.00034-0.125 0 0.13604-0.18781 0.31254-0.4066 0.3751-0.62475zm2.1562 0c0.0732 0.002 0.14558-0.003 0.21875 0-0.19602 0.15444-0.3527 0.3605-0.5 0.5625 0.0514-0.18462 0.2267-0.38751 0.28135-0.56225zm0.40625 0c0.11538 0.005 0.22843 0.0241 0.34375 0.0312 0.0627 0.004 0.12484-0.004 0.1875 0-0.1391 0.0959-0.26657 0.18725-0.375 0.3125-0.0362 0.0421-0.00015 0.0611 0.0312 0.0312 0.0502-0.0467 0.10044-0.0849 0.15625-0.125 0.0278-0.0217 0.28957-0.17196 0.28125-0.15625-0.0875 0.16237-0.12721 0.35529-0.1875 0.53125-0.19815-0.004-0.3956 0.004-0.59375 0 0.1567-0.19159 0.2962-0.37928 0.46875-0.5625 0.0159-0.017 0.0333-0.025 0.0312-0.0312-0.006-0.0188-0.0707 0.0123-0.0937 0.0312-0.18311 0.15105-0.3302 0.32251-0.46875 0.5 0.0617-0.19417 0.19721-0.37163 0.2189-0.56215zm-11.062 0.0312c-0.1311 0.12712-0.23942 0.28962-0.34375 0.4375 0.0523-0.14345 0.17216-0.2011 0.15625-0.375-0.001-0.0194-0.0443-0.0351-0.0625-0.0312-0.0182 0.004-0.0247 0.0253-0.0312 0.0312-0.0108 0.01-0.0223 0.0231-0.0312 0.0312-0.002-0.0108 0.001-0.0217 0-0.0312-0.01-0.0286-0.0447-0.008-0.0625 0-0.10618 0.0551-0.18119 0.10649-0.25 0.1875 0.0116-0.0622 0.023-0.12413 0.0312-0.1875 0.002-0.0211-0.0135-0.0299-0.0312-0.0312-0.072-0.004-0.13286 0.0366-0.1875 0.0937-0.00019-0.0235 0.002-0.0363 0-0.0625-0.005-0.023-0.0102-0.0407-0.0312-0.0312-0.0211 0.009-0.0561 0.0267-0.0625 0.0312-0.0555 0.0473-0.11373 0.10056-0.15625 0.15625 0.014-0.0549 0.0375-0.0911 0.0312-0.15625-0.002-0.0235-0.009-0.041-0.0312-0.0312-0.0221 0.01-0.057 0.0273-0.0625 0.0312-0.00052-0.012-0.0293-0.0196-0.0312-0.0312 0.0314-0.00048 0.0624 0.00055 0.0937 0 0.0732-0.001 0.14551 0.002 0.21875 0 0.0732-0.002 0.14552 0.002 0.21875 0 0.12535-0.003 0.24965 0.004 0.375 0 0.0839-0.003 0.16597-0.028 0.24995-0.031zm0.125 0c0.0313-0.001 0.0624 0.001 0.0937 0-0.0629 0.0632-0.12943 0.11749-0.1875 0.1875 0.0299-0.0684 0.0635-0.11964 0.0939-0.1872zm0.21875 0c0.0104-0.00041 0.0208 0.00041 0.0312 0-0.064 0.14166-0.15495 0.28517-0.1875 0.4375-0.0704 0.00053-0.14613 0.00038-0.21875 0 0.11806-0.13717 0.3023-0.31543 0.37515-0.4372zm1.5625 0c-0.0648 0.11047-0.20455 0.3229-0.25 0.4375-0.0418 0.00017-0.0832-0.00025-0.125 0 0.047-0.0537 0.0797-0.12867 0.125-0.1875 0.28567-0.37157 0.31493-0.36017 0.2501-0.2497zm0.90625 0c-0.0793 0.15599-0.13593 0.27851-0.1875 0.4375-0.10453-0.00036-0.20796 0.00024-0.3125 0 0.0948-0.0543 0.16843-0.1056 0.25-0.1875 0.08-0.0798 0.19575-0.14246 0.2501-0.2497zm1.8438 0c0.0102 0.001-0.0254 0.0337-0.0937 0.15625-0.05 0.0899-0.10877 0.2087-0.125 0.3125-0.0624-0.002-0.125-0.0297-0.1875-0.0312 0.10611-0.12288 0.37842-0.44126 0.4063-0.43725zm0.375 0c0.0195 0.0199-0.15639 0.29578-0.25 0.46875-0.0725-0.003-0.14618 0.003-0.21875 0 0.13246-0.0877 0.19657-0.23342 0.3125-0.34375 0.097-0.0921 0.14872-0.13248 0.15635-0.1247zm1.375 0c-0.10788 0.15157-0.20731 0.3556-0.28125 0.53125-0.0419-0.003-0.0831-0.0284-0.125-0.0312 0.1419-0.15958 0.3072-0.36048 0.40635-0.49975zm5.4375 0c0.0924 0.007 0.18892 0.0237 0.28125 0.0312-0.16625 0.0785-0.31461 0.22884-0.4375 0.375 0.0605-0.13372 0.1151-0.27165 0.15635-0.4059zm9.4375 0c-0.0586 0.0578-0.10518 0.11968-0.15625 0.1875 0.0188-0.0493 0.043-0.10741 0.0625-0.15625 0.0319-0.002 0.062-0.0282 0.0938-0.0309zm-23.344 0.0312c0.005-0.002 0.0256 0.003 0.0312 0 0.0419 0.00047 0.0831-0.00029 0.125 0-0.0127-0.00079-0.0585 0.0203-0.0625 0.0312-0.01 0.0222-0.0189 0.0418-0.0312 0.0625-0.026 0.0249-0.0394 0.0631-0.0625 0.0937 0.00009-0.0646-0.00029-0.1221 0.0001-0.18705zm0.28125 0c0.0209 0.00006 0.0416-0.00001 0.0625 0-0.0276 0.026-0.0369 0.0665-0.0625 0.0937 0.001-0.0301 0.002-0.0602 0.0001-0.0933zm0.25 0c0.0209-0.0001 0.0416 0.00014 0.0625 0 0.0732-0.0005 0.1455 0.00094 0.21875 0-0.0813 0.0471-0.15463 0.10894-0.21875 0.1875 0.014-0.0454 0.0241-0.10657 0.0312-0.15625 0.005-0.0241-0.014-0.0336-0.0312-0.0312-0.0173 0.002-0.0222 0.0264-0.0312 0.0312-0.0203 0.014-0.0434 0.0163-0.0625 0.0312 0.005-0.0246 0.0286-0.0359 0.0313-0.0621zm4.0625 0c-0.002 0.0367-0.24309 0.33612-0.28125 0.40625-0.0418-0.00008-0.0832 0.00004-0.125 0 0.10287-0.11487 0.20251-0.23486 0.3125-0.34375 0.0671-0.066 0.0944-0.0744 0.0938-0.0621zm2.8438 0c-0.12639 0.10588-0.21939 0.26245-0.28125 0.4375-0.0725-0.004-0.14625 0.003-0.21875 0 0.16519-0.14373 0.33152-0.29582 0.5001-0.43715zm5.5312 0c0.006 0.002-0.0196 0.0342-0.0312 0.0625-0.0652 0.15843-0.14176 0.32463-0.1875 0.5-0.083-0.001-0.16698-0.0303-0.25-0.0312 0.16104-0.20734 0.43698-0.5408 0.4688-0.53095zm1.25 0c0.0314 0.003 0.0623 0.0286 0.0937 0.0312-0.0555 0.0448-0.0815 0.0869-0.125 0.15625 0.0259-0.0596 0.0202-0.0975 0.0312-0.15625 0.005-0.0189 0.013-0.0279 0.0002-0.0308zm8.8125 0c0.016 0.0128 0.0331 0.075 0 0.1875-0.0183 0.0625-0.018 0.10412-0.0312 0.15625-0.0948-0.003-0.18646-0.029-0.28125-0.0312 0.0822-0.10069 0.26665-0.34883 0.31255-0.3122zm-20.969 0.0312c0.019-0.0101 0.0229 0.0282-0.0312 0.125-0.0463 0.083-0.0937 0.15878-0.125 0.25-0.0526-0.00044-0.10294 0.00044-0.15625 0 0.0346-0.045 0.26009-0.34672 0.31255-0.3746zm0.8125 0c-0.002 0.0298-0.0509 0.20074-0.0937 0.375-0.0522 0.001-0.10405-0.001-0.15625 0 0.18942-0.29387 0.25185-0.40907 0.25005-0.3746zm1.2812 0c0.0153 0.0438-0.0948 0.28328-0.0937 0.28125-0.0234 0.0452-0.0189 0.0668-0.0312 0.0937-0.0732 0.00003-0.14558-0.00021-0.21875 0 0.11182-0.10703 0.15274-0.20674 0.28125-0.34375 0.0417-0.044 0.0574-0.0454 0.0625-0.0308zm1.4062 0c-0.0499 0.12342-0.11709 0.24837-0.15625 0.375-0.0522-0.00009-0.104 0.00014-0.15625 0 0.0901-0.11114 0.2788-0.29114 0.3126-0.3746zm2.0938 0c-0.0887 0.12735-0.19812 0.26215-0.21875 0.40625-0.0516-0.003-0.10466 0.003-0.15625 0 0.14126-0.0972 0.27541-0.26422 0.3751-0.40585zm6.8438 0c0.0618 0.005 0.12568 0.0258 0.1875 0.0312-0.10786 0.10791-0.20496 0.21606-0.28125 0.34375 0.0165-0.13099 0.0694-0.24661 0.0938-0.37455zm3.5938 0c0.0412-0.001 0.0841 0.00096 0.125 0 0.0729-0.002 0.14588 0.001 0.21875 0-0.12332 0.0496-0.25463 0.18612-0.34375 0.25 0.0709-0.0319 0.15313-0.0508 0.21875-0.0937 0.28228-0.18508 0.11713 0.089 0.0937 0.1875-0.11407 0.005-0.22976-0.005-0.34375 0-0.14528 0.007-0.29234 0.0223-0.4375 0.0312 0.0391-0.0501 0.0843-0.0982 0.125-0.15625 0.2294-0.32854 0.14616-0.15396 0.15625 0.0937 0.002 0.0582 0.14983-0.0526 0.15625-0.0937 0.0121-0.0758 0.0234-0.14296 0.0314-0.21835zm0.46875 0c0.052-0.00086 0.10426 0.0007 0.15625 0-0.0417 0.0431-0.0863 0.0781-0.125 0.125 0.0155-0.058-0.00042-0.10002-0.0312-0.1246zm0.25 0c0.005-0.005 0.0263 0.005 0.0312 0-0.0125 0.0483-0.0401 0.24788-0.0312 0.3125-0.1041 0.004-0.20846 0.0271-0.3125 0.0312 0.10984-0.0994 0.2055-0.23907 0.3126-0.3433zm0.21875 0c0.0104-0.00008 0.0209 0.00007 0.0312 0-0.0348 0.0443-0.0662 0.0835-0.0937 0.125 0.006-0.0397 0.0528-0.0852 0.0626-0.1246zm0.4375 0c-0.0536 0.0846-0.0942 0.206-0.0937 0.3125-0.0519 0.001-0.10432-0.002-0.15625 0-0.0935 0.003-0.18782-0.003-0.28125 0 0.0832-0.0748 0.14528-0.19972 0.21875-0.28125 0.0259 0.0761 0 0.18905 0 0.25 0 0.0332 0.0293 0.0482 0.0625 0.0312 0.0332-0.0169 0.0881-0.0571 0.0937-0.0625 0.0716-0.0692 0.10026-0.16675 0.15635-0.24955zm0.125 0c0.00052-0.002 0.0308 0.002 0.0312 0-0.0158 0.0184-0.0167 0.0425-0.0312 0.0625 0.005-0.0179-0.004-0.044 0.0001-0.0621zm2.6875 0c0.0209-0.00092 0.0417 0.001 0.0625 0-0.0448 0.08-0.10219 0.2001-0.125 0.28125-0.0735-0.001-0.14522 0.00087-0.21875 0 0.0953-0.0941 0.18266-0.19044 0.28135-0.28085zm0.1875 0c0.003-0.005 0.0283 0.005 0.0312 0-0.0381 0.0374-0.0657 0.0823-0.0937 0.125 0.028-0.042 0.0364-0.0834 0.0626-0.1246zm0.15625 0c0.0208-0.001 0.0417 0.001 0.0625 0-0.0345 0.0908-0.0742 0.19738-0.0937 0.28125-0.084-0.002-0.16599 0.001-0.25 0 0.0457-0.0259 0.0895-0.0426 0.125-0.0937 0.0826-0.11928 0.11803-0.13878 0.1563-0.18715zm0.1875 0c0.0206-0.002 0.0419 0.002 0.0625 0-0.0255 0.0254-0.0695 0.0357-0.0937 0.0625 0.0115-0.0241 0.02-0.0376 0.0313-0.0621zm-19.5 0.0312c0.0204 0.0169-0.0694 0.22975-0.125 0.34375-0.0418 0.00055-0.0832-0.00066-0.125 0 0.17884-0.25688 0.23571-0.35521 0.2501-0.3433zm11.531 0c0.0314 0.003 0.0624 0.0284 0.0937 0.0312-0.0574 0.0459-0.112 0.0936-0.15625 0.15625 0.0246-0.0565 0.0463-0.12827 0.0626-0.187zm2.8438 0c0.0313-0.002 0.0625 0.002 0.0937 0-0.0498 0.0608-0.10866 0.12322-0.15625 0.1875 0.0237-0.0619 0.0483-0.12366 0.0626-0.18705zm2.1875 0c0.0726 0.00062 0.1461-0.00091 0.21875 0-0.0389 0.0407-0.085 0.0584-0.125 0.0937 0.014-0.0236 0.0204-0.037 0.0312-0.0625 0.0118-0.028-0.01-0.0118-0.0312 0-0.0361 0.0193-0.0663 0.0373-0.0937 0.0625 0.004-0.0272-0.005-0.0653 0.00005-0.0933zm0.28125 0c0.0208 0.00028 0.0417-0.00031 0.0625 0 0.0159 0.051 0.031 0.12835 0.0312 0.125-0.005 0.0416 0.003 0.0871 0 0.125-0.13517 0.002-0.27113-0.003-0.40625 0 0.0216-0.025 0.043-0.036 0.0625-0.0625 0.0913-0.0338 0.18094-0.11846 0.25015-0.18705zm0.21875 0c0.0415 0.00073 0.0835-0.00083 0.125 0-0.0429 0.0533-0.0851 0.0997-0.125 0.15625-0.0003-0.055-0.007-0.0991 0.0001-0.1558zm0.25 0c0.002-0.002 0.0301 0.00092 0.0312 0 0.006 0.0852-0.0163 0.16166-0.0312 0.25-0.0728 0.00071-0.14596-0.00095-0.21875 0 0.0773-0.0931 0.18705-0.21746 0.21885-0.24955zm0.1875 0c0.0416 0.001 0.0834-0.001 0.125 0-0.057 0.0543-0.10886 0.12252-0.15625 0.1875 0.007-0.0529 0.0216-0.12776 0.0313-0.18705zm0.375 0c0.0208 0.00066 0.0417-0.00068 0.0625 0-0.0355 0.0448-0.0601 0.0839-0.0937 0.125 0.007-0.0434 0.0202-0.0815 0.0313-0.12455zm0.53125 0c0.0105 0.00005 0.0207-0.00002 0.0312 0-0.0197 0.0192-0.0371 0.0326-0.0625 0.0625 0.0122-0.0137 0.023-0.0385 0.0314-0.062zm1.75 0c0.0515 0.007 0.0246 0.15181 0 0.28125-0.10486-0.004-0.20759 0.003-0.3125 0 0.052-0.0601 0.10295-0.12716 0.15625-0.1875 0.0657-0.0737 0.13167-0.0965 0.15635-0.0933zm-14.781 0.0312c-0.0854 0.13098-0.14014 0.25963-0.1875 0.40625-0.062-0.004-0.12551 0.004-0.1875 0 0.0733-0.0615 0.13848-0.13198 0.21875-0.21875 0.0585-0.0656 0.0948-0.1239 0.15635-0.187zm6.4375 0c0.0516 0.005 0.10463 0.0267 0.15625 0.0312-0.0605 0.0619-0.1129 0.11107-0.15625 0.15625-0.0743 0.0774-0.12376 0.16433-0.1875 0.25-0.0314 0.0416 0.0916-0.21434 0.0937-0.21875 0.0323-0.0773 0.0807-0.13378 0.0939-0.2182zm2.0625 0c0.0527-0.003 0.10362 0.003 0.15625 0-0.0466 0.043-0.0845 0.0844-0.125 0.125-0.25107 0.25151-0.082 0.0561-0.0312-0.1245zm4.75 0c0.0205 0.009-0.0107 0.10826-0.0625 0.21875-0.0949-0.00093-0.18638-0.0308-0.28125-0.0312 0.13792-0.0862 0.30535-0.20393 0.34385-0.18705zm-18.375 0.0312c0.012 0.0006 0.012 0.0505-0.0312 0.125-0.0311 0.0535-0.0409 0.0977-0.0625 0.15625-0.0523 0.00041-0.10401-0.00056-0.15625 0 0.0664-0.0739 0.21712-0.28234 0.25005-0.2807zm6.5938 0c-0.0753 0.13983-0.1734 0.28485-0.1875 0.4375-0.0519 0.00002-0.10432 0.00033-0.15625 0 0.13221-0.11891 0.26117-0.28627 0.34385-0.43695zm5.4062 0c0.13714 0.009 0.26695-0.001 0.40625 0-0.12601 0.0933-0.24977 0.18799-0.375 0.28125 0.0481-0.0829 0.0616-0.16278 0.0937-0.21875 0.048-0.083-0.10337-0.00036-0.125 0.0312 0.0134-0.0279-0.0103-0.0643 0.00015-0.0931zm0.5625 0c0.0309-0.00018 0.0628 0.00044 0.0937 0-0.046 0.052-0.0869 0.0918-0.125 0.15625 0.0156-0.0547 0.0145-0.10534 0.0314-0.1557zm0.34375 0c0.0104-0.00034 0.0209 0.00036 0.0312 0-0.009 0.0103-0.0225 0.0204-0.0312 0.0312 0.003-0.008-0.002-0.0219 0.0001-0.0306zm0.3125 0c0.0209-0.001 0.0415 0.001 0.0625 0-0.0289 0.0385-0.0666 0.0849-0.0937 0.125 0.0111-0.0389 0.0235-0.085 0.0313-0.12445zm0.21875 0c-0.004 0.0962-0.0632 0.21632-0.0625 0.3125-0.0728 0.005-0.14591 0.0258-0.21875 0.0312 0.10226-0.1082 0.18057-0.23537 0.28135-0.34315zm0.46875 0c0.0267 0.0355-0.004 0.17681-0.0312 0.28125-0.10384 0.007-0.2087 0.0237-0.3125 0.0312 0.0977-0.0752 0.19072-0.16371 0.28125-0.25 0.0513-0.0484 0.0499-0.0788 0.0625-0.0619zm3.8125 0c0.003 0.0438 0.01 0.0802 0 0.125-0.004 0.0246 0.009 0.0421 0.0312 0.0312-0.042-0.00003-0.083-0.00005-0.125 0 0.0369-0.0488 0.0504-0.11426 0.0939-0.15565zm-20.5 0.0312c0.0107 0.0111 0.007 0.0524 0 0.0937-0.031 0.0592-0.0752 0.12433-0.0937 0.1875-0.061 0.006-0.12761 0.0226-0.1875 0.0312 0.0645-0.0836 0.1187-0.16955 0.1875-0.25 0.038-0.0436 0.0831-0.0729 0.0938-0.0618zm2.2812 0c-0.0206 0.051-0.0853 0.17091-0.125 0.25-0.0209 0.00039-0.0416-0.00042-0.0625 0 0.18078-0.28669 0.21036-0.30557 0.1876-0.2494zm11.281 0c0.004 0.0243-0.052 0.2131-0.0625 0.28125-0.007 0.044 0.005 0.0816 0 0.125-0.0634-0.00014-0.12414 0.00051-0.1875 0 0.0713-0.12754 0.13947-0.25165 0.21875-0.375 0.0249-0.0378 0.0301-0.0387 0.0313-0.0306zm1.0625 0c-0.0279 0.12771-0.0746 0.24332-0.0937 0.375-0.0833 0.004-0.16668 0.0284-0.25 0.0312 0.0934-0.10949 0.15683-0.24704 0.25-0.34375 0.0682-0.0701 0.0712-0.0389 0.0938-0.0618zm0.90625 0c-0.0438 0.049-0.0489 0.15849-0.0625 0.25-0.0237 0.006-0.0613 0.0404-0.0625 0.0625-0.00063 0.0105 0.00057 0.0207 0 0.0312-0.031 0.002-0.0628-0.002-0.0937 0 0.0738-0.11148 0.12781-0.24082 0.2188-0.3431zm3.4062 0c-0.009 0.0526-0.0293 0.0999-0.0312 0.15625-0.0419 0.00098-0.0831 0.0302-0.125 0.0312 0.0564-0.077 0.16689-0.2456 0.1563-0.18685zm1.2812 0c0.0456-0.0239 0.0178 0.041 0 0.125-0.0416 0.00017-0.0834-0.00025-0.125 0 0.0645-0.0743 0.10247-0.11254 0.1251-0.1244zm0.53125 0c0.0165-0.0335-0.005 0.0208-0.0312 0.125-0.042-0.00016-0.083 0.00008-0.125 0 0.0938 0.007 0.13586-0.0829 0.1563-0.1244zm2.3438 0c0.0894-0.0856 0.0791 0.0512 0.0625 0.21875-0.0737-0.003-0.14506-0.0282-0.21875-0.0312 0.0719-0.0914 0.12262-0.15465 0.15635-0.18695zm0.375 0c-0.0158 0.0713-0.0205 0.146-0.0312 0.21875-0.0419-0.002-0.0831 0.002-0.125 0 0.0449-0.0683 0.11124-0.14867 0.1563-0.21815zm-23.156 0.0312c-0.008 0.0633-0.0181 0.15061-0.0312 0.21875-0.0419 0.002-0.0833 0.0288-0.125 0.0312 0.0544-0.0792 0.096-0.17547 0.1563-0.2493zm0.21875 0c-0.00035 0.0007-0.0257 0.15723-0.0312 0.21875-0.0326 0.00056-0.0612-0.00087-0.0937 0 0.0164-0.0831 0.0835-0.14562 0.125-0.2181zm10.094 0c-0.0373 0.10898-0.0654 0.23273-0.0937 0.34375-0.0731 0.002-0.14586-0.002-0.21875 0 0.10161-0.11154 0.20933-0.23256 0.31255-0.3431zm4.5938 0.0312c0.0187 0.0314-0.0362 0.15991-0.0625 0.28125-0.14511 0.01-0.2923 0.0235-0.4375 0.0312 0.0229-0.0275 0.0741-0.062 0.0937-0.0937 0.0155 0.01 0.0161 0.0227 0.0312 0.0312 0.0108 0.004 0.0405-0.0225 0.0312-0.0312-0.002-0.002 0.25906-0.19411 0.25-0.1875 0.0542-0.0368 0.086-0.044 0.094-0.0305zm-2 0.0312c-0.0392 0.0912-0.04 0.20716-0.0625 0.3125-0.0845-0.001-0.16552 0.001-0.25 0 0.099-0.10001 0.21751-0.20687 0.3126-0.31175zm2.5625 0c0.0343 0.0144 0.0286 0.15573 0.0312 0.21875-0.0722 0.005-0.14653-0.005-0.21875 0 0.0492-0.0494 0.0827-0.0949 0.125-0.15625 0.033-0.0467 0.0498-0.0671 0.0626-0.0617zm-15.062 0.0312c0.0143 0.0002 0.0283 0.0112 0.0312 0.0625-0.007 0.0177 0.006 0.0439 0 0.0625-0.0432-0.00005-0.0817-0.00029-0.125 0 0.0205-0.0238 0.0112-0.0387 0.0312-0.0625 0.0259-0.0509 0.0484-0.0619 0.0627-0.0617zm13.125 0c-0.033 0.0893-0.0683 0.18963-0.0937 0.28125-0.0317 0.00023-0.0621-0.00011-0.0937 0 0.0623-0.0916 0.12546-0.18752 0.1875-0.28045zm0.28125 0c-0.0316 0.0932-0.0669 0.18822-0.0937 0.28125-0.0528 0.001-0.10346-0.00068-0.15625 0 0.10244-0.087 0.16867-0.17408 0.25005-0.28045zm-6.0312 0.0312c-0.0355 0.0705-0.0487 0.14159-0.0625 0.21875-0.0518-0.004-0.10451 0.004-0.15625 0 0.0768-0.0639 0.15448-0.13766 0.21885-0.2179zm-3.2812 0.0312c-0.0104 0.0251-0.0213 0.0376-0.0312 0.0625-0.0313-0.00002-0.0624 0.00004-0.0937 0 0.0191-0.0138 0.059-0.0268 0.0625-0.0312 0.0176-0.02 0.0466-0.008 0.0625-0.0304zm6.6875 0.15625c-0.004 0.0102 0.003 0.021 0 0.0312-0.0311-0.00017-0.0627 0.00008-0.0937 0 0.0314-0.0131 0.0656-0.006 0.0938-0.0303zm3.9062 0.0937c-0.0287 0.75594 0.0963 1.5002 0.0937 2.25-0.001 0.57286-0.0718 1.163 0.0937 1.7188 0.009 0.0291 0.0377 0.0321 0.0625 0-0.0498 0.16878-0.0965 0.34153-0.125 0.5-0.29943-0.17086-0.4505-0.52683-0.78125-0.625-0.0249-0.01-0.0513 0.0158-0.0625 0.0312-0.0982 0.13413-0.12514 0.29452-0.125 0.4375-0.0197-0.0206-0.0909 0.0158-0.0937 0.0312-0.004 0.0316-0.001 0.0619 0 0.0937-0.0211-0.0162-0.042-0.0146-0.0625-0.0312-0.0251-0.0374-0.0312-0.0604-0.0625-0.0937-0.01-0.01-0.0233-0.0118-0.0312 0-0.1579-0.15372-0.27983-0.35457-0.34375-0.59375-0.01-0.0251-0.0528 0.0205-0.0625 0.0312-0.24971 0.20075-0.47721 0.28938-0.6875 0.53125-0.1606 0.18436-0.21996 0.42326-0.40625 0.15625-0.19659-0.28154-0.30332-0.56285-0.4375-0.875-0.0748-0.17478-0.18381-0.35117-0.375-0.40625-0.0299-0.01-0.0799 0.0414-0.0937 0.0625-0.21862 0.33905-0.39194 0.70914-0.53125 1.0938-0.24382-0.16355-0.52177-0.48241-0.59375-0.75-0.0109-0.00047-0.0204-0.00005-0.0312 0 0.006-0.81366-0.009-1.6581-0.0625-2.4688-0.0155-0.23869-0.06-0.44783-0.0312-0.6875 0.0122-0.10405 0.0275-0.23668 0-0.34375 0.0727-0.002 0.14583 0.002 0.21875 0 0.19735-0.005 0.39632-0.00023 0.59375 0-0.00004 0.0204-0.004 0.042 0 0.0625 0.0127 0.0593 0.14066-0.013 0.15625-0.0312 0.005-0.006 0.0255-0.0242 0.0312-0.0312 0.10392 0.00078 0.20857-0.002 0.3125 0-0.005 0.0339-0.0324 0.0599-0.0312 0.0937 0.001 0.0651 0.14591-0.0503 0.15625-0.0625 0.01-0.0114 0.0216-0.0198 0.0312-0.0312 0.20781 0.004 0.41718-0.004 0.625 0 0.00083 0.0327 0.0269 0.023 0.0625 0 0.10411 0.002 0.2084 0.0294 0.3125 0.0312-0.00051 0.0195-0.002 0.0443 0 0.0625 0.01 0.0624 0.11398-0.0459 0.125-0.0625 0.20776 0.003 0.41731 0.001 0.625 0 0.0419-0.00011 0.0831 0.00048 0.125 0-0.0118 0.0483 0.07 0.0423 0.0937 0.0312 0.0284-0.0132 0.0375-0.0439 0.0625-0.0625 0.42004-0.008 0.83044-0.0313 1.25-0.0614zm-5.2188 0.0625h0.0312c0.0722-0.002 0.14632 0.002 0.21875 0-0.29524 0.46907-0.59323 0.91874-0.78125 1.4375 0.16322-0.49065 0.36518-0.94839 0.5314-1.4366zm-0.71875 0.0312c0.10271-0.00053 0.20967 0.001 0.3125 0-0.0967 0.12422-0.15822 0.28287-0.21875 0.4375-0.0263-0.14659-0.0476-0.29942-0.0937-0.4365zm0.4375 0c0.0617-0.001 0.12566 0.001 0.1875 0-0.17446 0.2245-0.30994 0.48632-0.40625 0.75 0.0384-0.11301 0.0694-0.2313 0.0937-0.3125 0.0436-0.14584 0.0823-0.28928 0.12515-0.4365zm0.65625 0c0.017 0.0792 0.0141 0.16187 0 0.25-0.001 0.002 0 0.0253 0 0.0312-0.028 0.0619-0.0651 0.095-0.0937 0.15625-0.0318 0.0676-0.062 0.12024-0.0937 0.1875-0.074 0.15692-0.20079 0.30513-0.3125 0.4375 0.1441-0.13203 0.28292-0.26327 0.375-0.4375 0.0286-0.0541 0.0623-0.10029 0.0937-0.15625-0.0127 0.0577-0.0233 0.10628-0.0312 0.15625-0.005 0.0295 0.002 0.0629 0 0.0937-0.34348 0.35255-0.58424 0.77376-0.84375 1.1875 0.11291-0.17988 0.26768-0.48067 0.40625-0.8125 0.005-0.006-0.005-0.0249 0-0.0312 0.14306-0.34393 0.27797-0.7311 0.40625-1.0312 0.0155 0.0274 0.0824-0.0169 0.0937-0.0302zm-0.71875 0.0625c-0.0629 0.21607-0.14325 0.41155-0.21875 0.625-0.006-0.0542-0.0232-0.10303-0.0312-0.15625 0.10541-0.15524 0.2107-0.33293 0.25005-0.46775zm0.0937 0.3125c-0.10893 0.22792-0.19991 0.48869-0.28125 0.75-0.002-0.0541-0.0282-0.10264-0.0312-0.15625 0.0621-0.13726 0.12565-0.26594 0.1875-0.40625 0.0349-0.0648 0.0934-0.11891 0.1251-0.1865zm0.15625 0.3125c-0.16766 0.35534-0.29859 0.72588-0.4375 1.0938 0.002-0.0636-0.001-0.12377 0-0.1875 0.15163-0.2967 0.29377-0.60297 0.43765-0.90525zm0.40625 0.15625c0.003 0.13465-0.0144 0.26898 0 0.40625-0.0181 0.00074-0.0463 0.015-0.0625 0.0312-0.16134 0.16281-0.30653 0.34151-0.4375 0.53125 0.18963-0.31889 0.37421-0.63428 0.50015-0.9677zm-0.125 0.0937c-0.17041 0.47278-0.51308 0.86615-0.75 1.3125 0.003-0.0727 0.0281-0.14506 0.0312-0.21875 0.15168-0.24073 0.27864-0.48161 0.4375-0.71875 0.0447-0.0654 0.30716-0.44495 0.28145-0.37395zm0.125 0.375c0.007 0.0709 0.0299 0.15255 0.0312 0.21875 0.002 0.0948-0.002 0.18655 0 0.28125-0.27773 0.15844-0.45427 0.45485-0.625 0.71875-0.0377 0.0582-0.0865 0.12218-0.125 0.1875 0.0631-0.12485 0.13059-0.25125 0.1875-0.375 0.16545-0.35836 0.35567-0.67863 0.53145-1.0302zm-0.34375 0.4375c-0.21114 0.3444-0.38282 0.73759-0.53125 1.125 0.001-0.0869-0.003-0.19102 0-0.28125 0.0807-0.11639 0.13911-0.22002 0.21875-0.34375 0.10698-0.1659 0.18682-0.33542 0.31265-0.49895zm0.28125 0.25c0.007 0.005-0.0174 0.0568-0.125 0.21875-0.2231 0.33543-0.40771 0.84959-0.5 1.25-0.0457-0.10049-0.11368-0.23251-0.1875-0.34375 0.0865-0.12341 0.17143-0.23359 0.25-0.375 0.11858-0.21158 0.5403-0.7632 0.56265-0.74895zm0.0937 0.0312c0.004 0.13669-0.004 0.26961 0 0.40625 0.004 0.13705 0.0265 0.2692 0.0312 0.40625-0.0998 0.0981-0.17775 0.22395-0.25 0.34375 0.0291-0.0844 0.031-0.16674 0.0625-0.25 0.0581-0.15355 0.17525-0.33355 0.15625-0.5-0.002-0.0274-0.055 0.0282-0.0625 0.0312-0.10683 0.0761-0.14416 0.10321-0.21875 0.21875-0.0749 0.1161-0.11013 0.1626-0.15625 0.25 0.0605-0.17897 0.13901-0.36134 0.21875-0.53125 0.0641-0.13445 0.13714-0.25673 0.219-0.37385zm-0.1875 0.78125c-0.10791 0.22816-0.24591 0.56842-0.3125 0.8125-0.0127 0.047-0.0285 0.0705-0.0312 0.0937-0.0247 0.0492-0.036 0.10883-0.0625 0.15625-0.0283-0.10836-0.0486-0.21016-0.0937-0.3125 0.0109-0.0103 0.0276-0.0243 0.0312-0.0312 0.0625-0.11564 0.12803-0.27291 0.1875-0.375 0.0291-0.0484 0.27894-0.33749 0.2814-0.34265zm0.15625 0.25c0.0264 0.0342-0.11996 0.41427-0.15625 0.53125-0.002 0.006 0.001 0.0269 0 0.0312-0.0865 0.059-0.19057 0.10028-0.25 0.1875-0.0511 0.0749-0.0781 0.14709-0.0937 0.1875-0.001-0.0181-0.0225-0.0353-0.0312-0.0625 0.0131-0.0101 0.0224-0.0154 0.0312-0.0312 0.0453-0.0778 0.0892-0.16702 0.125-0.25 0.11446-0.17063 0.25613-0.47928 0.25-0.46875 0.0604-0.0988 0.11593-0.13585 0.12515-0.1239zm0.0625 0.0625c0.005 0.12661 0.0267 0.24831 0.0312 0.375-0.055 0.0133-0.10528 0.0375-0.15625 0.0625 0.0412-0.14673 0.0738-0.29283 0.12525-0.4364zm-1.75 0.21875c0.004 0.0748 0.0128 0.14976 0 0.21875-0.0347 0.10057-0.0659 0.23024-0.0937 0.3125-0.0108 0.028-0.0217 0.0345-0.0312 0.0625-0.034 0.0694-0.0679 0.1458-0.0937 0.21875-0.004-0.004-0.0248 0.005-0.0312 0 0.0749-0.22063 0.20814-0.53818 0.25-0.8114zm-0.4375 1.3438c0.11586 0.13249 0.29716 0.39399 0.28125 0.59375-0.0402-0.0333-0.0419-0.0758-0.0625-0.125-0.026-0.0622-0.07-0.13257-0.125-0.1875-0.0177-0.0956-0.0562-0.18884-0.0935-0.28015z" style="fill:url(#linearGradient18627-8)"/>
  <path id="path6481" d="m-72.757 34.995-2.1077 2.1077-1.0689 1.0689-0.57209 0.57209-11.171 11.171-0.94374 3.4523-0.88342 3.4524 3.4222-0.91364 3.4674-0.92864 11.171-11.171 0.5721-0.5721 1.5356-1.5356 1.641-1.641-5.0624-5.0624z" style="fill-opacity:.058824"/>
  <path id="path6479" style="fill-opacity:.11765" d="m-72.949 34.802-2.1077 2.1077-1.0689 1.0689-0.57209 0.57209-11.171 11.171-0.94375 3.4523-0.88343 3.4524 3.4222-0.91364 3.4674-0.92864 11.171-11.171 0.5721-0.57209 1.5356-1.5356 1.641-1.641-5.0624-5.0624z"/>
  <path id="path6468" d="m-73.142 34.61-2.1077 2.1077-1.0689 1.0689-0.57209 0.57209-11.171 11.171-0.94376 3.4523-0.88342 3.4524 3.4222-0.91364 3.4674-0.92863 11.171-11.171 0.57209-0.57209 1.5356-1.5356 1.641-1.641-5.0624-5.0624z" style="fill-opacity:.23529"/>
  <path id="path6442" style="fill:url(#linearGradient18621-2)" d="m-74.976 36.059-2.1129 2.1129 5.0624 5.0624 2.1129-2.1129-5.0624-5.0624z"/>
  <path id="path6330" d="m-73.336 34.419-2.1129 2.1129 5.0624 5.0624 2.1129-2.1129-5.0624-5.0624z" style="fill:url(#linearGradient18618-1)"/>
  <path id="path6335" d="m-83.194 54.396-5.0573-5.0573-0.94501 3.451-0.8847 3.4511 3.4209-0.9149 3.4661-0.92992z" style="fill:url(#linearGradient18615-6)"/>
  <path id="path6328" d="m-76.509 37.596-11.743 11.743 5.0573 5.0573 11.743-11.743-5.0573-5.0573z" style="fill:#fbd61f"/>
  <path id="path6355" style="fill:url(#linearGradient18611-3)" d="m-76.509 37.596-11.743 11.743 5.0573 5.0573 11.743-11.743-5.0573-5.0573z"/>
  <path id="rect844" d="m-76.314 37.79-11.743 11.743 1.2851 1.2851 11.743-11.743z" style="fill:url(#linearGradient18608-0)"/>
  <path id="path6345" style="opacity:0.59;fill:url(#linearGradient18605-9)" d="m-68.668 39.49-1.7096 1.7096-4.0962-4.0962 1.7097-1.7096 4.0962 4.0962z"/>
  <path id="path6373" d="m-73.61 40.495-11.743 11.743 0.72464 0.72462 11.743-11.743-0.72463-0.72463z" style="fill:url(#linearGradient18602-2)"/>
  <path id="path6377" d="m-75.029 39.075-11.743 11.743 0.709 0.71 11.743-11.743-0.709-0.71z" style="fill:url(#linearGradient18599-0)"/>
  <path id="path6387" d="m-72.886 41.219-11.743 11.743 0.70952 0.70954 11.743-11.743-0.70953-0.70953z" style="fill:url(#linearGradient18596-2)"/>
  <path id="path6403" style="fill:url(#linearGradient18593-1)" d="m-83.854 54.089-1.3372-1.3376-2.0963 1.4599-2.6685 1.9009 3.0573-1.03z"/>
  <path id="path6421" style="fill:url(#linearGradient18590-1)" d="m-87.792 50.321 1.0204 1.0201-1.1137 1.5992-1.4501 2.0357 0.78574-2.3322z"/>
  <path id="path6425" d="m-89.706 54.809-0.3749 1.4317 1.4317-0.37492-1.0568-1.0568z" style="fill:url(#linearGradient18587-2)"/>
  <path id="path6446" d="m-73.332 34.419-2.0625 2.0625c1.5649-0.15187 3.5744 0.47778 5.4139 1.2889l-3.3514-3.3514z" style="fill:url(#linearGradient18584-9)"/>
  <path id="path6461" d="m-75.741 36.828-0.48176 0.48176 5.0573 5.0573 0.48176-0.48176-5.0573-5.0573z" style="opacity:0.59;fill:url(#linearGradient18994)"/>
 </g>
</svg>
