<?xml version="1.0" encoding="UTF-8" standalone="no"?>
<!-- Created with Inkscape (http://www.inkscape.org/) -->
<svg id="svg3449" xmlns:rdf="http://www.w3.org/1999/02/22-rdf-syntax-ns#" xmlns="http://www.w3.org/2000/svg" height="128" width="128" version="1.0" xmlns:cc="http://creativecommons.org/ns#" xmlns:xlink="http://www.w3.org/1999/xlink" xmlns:dc="http://purl.org/dc/elements/1.1/">
 <metadata id="metadata56">
  <rdf:RDF>
   <cc:Work rdf:about="">
    <dc:format>image/svg+xml</dc:format>
    <dc:type rdf:resource="http://purl.org/dc/dcmitype/StillImage"/>
    <dc:title/>
   </cc:Work>
  </rdf:RDF>
 </metadata>
 <defs id="defs3451">
  <linearGradient id="linearGradient3514" y2="-9.1034" gradientUnits="userSpaceOnUse" x2="66.492" gradientTransform="matrix(.96826 0 0 .97948 2.179 .16587)" y1="-42.638" x1="67.952">
   <stop id="stop4620" style="stop-color:#37414b" offset="0"/>
   <stop id="stop4622" style="stop-color:#37414b;stop-opacity:0" offset="1"/>
  </linearGradient>
  <linearGradient id="linearGradient3516" y2="-11.847" gradientUnits="userSpaceOnUse" x2="58.98" gradientTransform="matrix(.96826 0 0 .97948 2.179 .16587)" y1="-118.55" x1="57.173">
   <stop id="stop4596" offset="0"/>
   <stop id="stop4598" style="stop-opacity:0" offset="1"/>
  </linearGradient>
  <linearGradient id="linearGradient3519" y2="50.369" gradientUnits="userSpaceOnUse" x2="76.558" gradientTransform="matrix(.96826 0 0 .97948 3.2423 -129.19)" y1="13.164" x1="76.558">
   <stop id="stop3392" style="stop-color:#425e7b" offset="0"/>
   <stop id="stop3394" style="stop-color:#7a91a7" offset="1"/>
  </linearGradient>
  <linearGradient id="linearGradient3521" y2="-8.7399" gradientUnits="userSpaceOnUse" x2="60.217" gradientTransform="matrix(.96826 0 0 .97948 2.179 .16587)" y1="-123.72" x1="60.395">
   <stop id="stop3392-4-8" style="stop-color:#425e7b" offset="0"/>
   <stop id="stop3394-8-0" style="stop-color:#7a91a7" offset="1"/>
  </linearGradient>
  <radialGradient id="radialGradient3349" gradientUnits="userSpaceOnUse" cy="45.647" cx="42.148" gradientTransform="matrix(.94690 0 0 1.139 3.5954 -29.89)" r="58.984">
   <stop id="stop8006" style="stop-color:#ef916b" offset="0"/>
   <stop id="stop8008" style="stop-color:#db4916" offset="1"/>
  </radialGradient>
  <filter id="filter3174-1" color-interpolation-filters="sRGB">
   <feGaussianBlur id="feGaussianBlur3176-0" stdDeviation="1.71"/>
  </filter>
  <linearGradient id="ButtonShadow-9" x1="45.448" gradientUnits="userSpaceOnUse" y1="92.54" gradientTransform="scale(1.0059 .99417)" x2="45.448" y2="7.0165">
   <stop id="stop3750-6" offset="0"/>
   <stop id="stop3752-7" style="stop-opacity:.58824" offset="1"/>
  </linearGradient>
  <filter id="filter3174-9" color-interpolation-filters="sRGB">
   <feGaussianBlur id="feGaussianBlur3176-5" stdDeviation="1.71"/>
  </filter>
  <linearGradient id="linearGradient4238-5" y2="25" gradientUnits="userSpaceOnUse" x2="25" y1="57" x1="25">
   <stop id="stop3624-6-9-7-3-1" style="stop-color:#ba4712" offset="0"/>
   <stop id="stop3856-8-7-9-7-0" style="stop-color:#cf671c" offset=".5"/>
   <stop id="stop3626-0-8-7-8-5" style="stop-color:#e27f39" offset="1"/>
  </linearGradient>
  <filter id="filter3174-6" color-interpolation-filters="sRGB">
   <feGaussianBlur id="feGaussianBlur3176-1" stdDeviation="1.71"/>
  </filter>
 </defs>
 <rect id="rect892-2-7-2" ry="29.452" style="stroke:#d3d3d3;stroke-width:9.8448;fill:#37414b" transform="scale(1,-1)" height="116.16" width="116.08" y="-122.08" x="5.9224"/>
 <rect id="rect892" style="stroke:url(#linearGradient3521);stroke-width:.97385;fill:url(#linearGradient3519)" transform="scale(1,-1)" ry="29.296" height="115.54" width="114.22" y="-122.25" x="7.0394"/>
 <rect id="rect892-2" style="stroke:url(#linearGradient3516);stroke-width:.97385;fill:url(#linearGradient3514)" transform="scale(1,-1)" ry="28.993" height="114.35" width="114.22" y="-121.46" x="7.0599"/>
 <path id="rect895" style="fill:url(#radialGradient3349)" d="m30.571 7.0104c-13.128 0.936-22.55 15.04-23.173 23.288-0.050142 0.97378-0.088772 1.9648-0.088772 2.9572v58.419c0 15.229 11.191 27.859 22.318 27.859h67.038c15.69 0 24.318-16.445 24.318-25.859v-64.017c-0.21-5.933-12.29-21.682-25.926-22.618-47.846 0.8653-20.497-0.0256-64.483-0.0256z"/>
 <rect id="rect892-2-7-8" style="opacity:.15891;stroke:#000;stroke-width:4.8445;fill:none" transform="scale(1,-1)" ry="28.993" height="114.35" width="114.22" y="-121.16" x="6.8683"/>
 <rect id="rect892-2-7-1" style="opacity:.15891;stroke:#000;stroke-width:7.7512;fill:none" transform="scale(1,-1)" ry="28.993" height="114.35" width="114.22" y="-121.16" x="6.8686"/>
 <rect id="rect892-2-7-2-9" ry="28.067" style="stroke:#000;stroke-width:1.0489;fill:none" transform="scale(1,-1)" height="112.71" width="114.14" y="-120.31" x="7.0644"/>
 <path id="path1187" style="fill:#fff;fill-opacity:.057143" d="m37.509 10.721c-14.891-4.3296-32.78 19.454-27.93 26.295-0.04334 0.71563-0.07674 1.4439-0.07674 2.1732v10.76c25.898-25.61 66.753-35.478 90.374-39.178-0.22473-0.02628-0.45986-0.03062-0.69067-0.03062-41.576 0.38742-23.653-0.01876-61.677-0.01875z"/>
 <g id="layer2" style="display:none" transform="translate(187.88 23.742)">
  <rect id="rect3745" style="opacity:.9;filter:url(#filter3174-1);fill:url(#ButtonShadow-9)" rx="6" ry="6" height="85" width="86" y="7" x="5"/>
 </g>
 <g id="layer2-2" style="display:none" transform="matrix(1.2166 0 0 1.2299 5.6049 3.1187)">
  <rect id="rect3745-5" style="opacity:.9;filter:url(#filter3174-9);fill:url(#ButtonShadow-9)" rx="6" ry="6" height="85" width="86" y="7" x="5"/>
 </g>
 <path id="path3397-3-2-5" style="opacity:.05;color:#000000;fill:url(#linearGradient4238-5)" d="m23.625 22.125a3.6626 3.6626 0 0 0 -2.7188 1.6875l-2.5 3.875-4.5312-1a3.6626 3.6626 0 0 0 -4.3438 4.375l1 4.4062-3.9062 2.4375a3.6626 3.6626 0 0 0 0 6.1875l3.9062 2.4375-1 4.4062a3.6626 3.6626 0 0 0 4.3438 4.375l4.5312-1 2.5 3.875a3.6626 3.6626 0 0 0 6.1875 0l2.5-3.875 4.5312 1a3.6626 3.6626 0 0 0 4.3438 -4.375l-1-4.4062 3.9062-2.4375a3.6626 3.6626 0 0 0 0 -6.1875l-3.9062-2.4375 1-4.4062a3.6626 3.6626 0 0 0 -4.344 -4.374l-4.5312 1-2.5-3.875a3.6626 3.6626 0 0 0 -3.469 -1.688zm0.375 15.094c0.2413 0.29026 0.47719 0.58429 0.71875 0.875a3.6626 3.6626 0 0 0 -0.719 1.312 3.6626 3.6626 0 0 0 -0.719 -1.312c0.242-0.291 0.478-0.585 0.719-0.875z" transform="translate(0,-16)"/>
 <g id="layer2-8" style="display:none" transform="matrix(1.2166 0 0 1.2299 162.3 9.178)">
  <rect id="rect3745-8" style="opacity:.9;filter:url(#filter3174-6);fill:url(#ButtonShadow-9)" rx="6" ry="6" height="85" width="86" y="7" x="5"/>
 </g>
 <path id="path5507" style="fill:#fff" d="m92.34 103.52-9.1604-3.3708-6.3396 2.0036c-9.594 3.04-22.144 2.31-30.84-1.78-27.02-12.727-33.388-46.547-12.582-66.824 13.223-12.887 32.487-16.087 49.164-8.167 24.028 11.411 31.828 39.963 16.684 61.073-3.0442 4.2436-3.4077 5.316-2.5418 7.5 0.55566 1.4016 1.9635 4.9109 3.1286 7.7984 1.165 2.8875 2.0123 5.2265 1.8829 5.1978-0.12948-0.0287-4.3576-1.5691-9.3958-3.423zm-49.32-30.03c5.8974-3.0497 6.9101-10.713 2.0569-15.567-6.2727-6.2727-18.131-2.1646-18.041 6.25 0.09201 8.6389 8.1796 13.353 15.985 9.3166zm-8.82-3.69c-0.66-0.66-1.2-3.1461-1.2-5.5248 0-3.7224 0.35734-4.4606 2.5655-5.3001 4.3583-1.657 6.4345 0.26388 6.4345 5.9531 0 3.5072-0.43978 5.0266-1.5818 5.4648-2.4739 0.94933-4.908 0.7172-6.2182-0.59302zm19.53-3.9132c-0.30586-4.4623-0.20085-7.7248 0.23334-7.25 0.43419 0.47476 1.7903 3.9261 3.0135 7.6696 1.9033 5.8248 2.5305 6.7622 4.3491 6.5 1.805-0.26026 2.3603-1.5112 3.687-8.3064 1.775-9.096 2.987-8.252 2.987 2.082 0 6.2698 0.061 6.4182 2.6393 6.4182 2.5973 0 2.6293-0.0835 2.0087-5.25-0.34683-2.8875-0.63451-7.3875-0.63929-10-0.009-4.7274-0.0248-4.75-3.3862-4.75-4.1994 0-5.2475 1.2388-6.1442 7.2623-0.38994 2.6193-1.0956 5.0012-1.5681 5.2932-0.47251 0.29203-1.6581-2.1879-2.6346-5.5109-1.7629-5.9989-1.8022-6.0419-5.5255-6.0432l-3.75-0.001v5.3604c0 2.9482 0.28617 7.4482 0.63592 10 0.51633 3.767 1.0134 4.6396 2.6429 4.6396 1.8901 0 1.9746-0.47256 1.4509-8.1132zm38.486 4.5018c2.337-1.209 2.784-2.079 2.784-5.415v-3.9743h-5c-4.3333 0-5 0.26666-5 2 0 1.4667 0.66667 2 2.5 2 1.375 0 2.5 0.40597 2.5 0.90217 0 1.1971-5.038 2.8198-7.2493 2.335-2.8967-0.63513-4.0401-7.9785-1.6844-10.817 1.352-1.629 5.0699-1.8839 6.5077-0.44613 0.56232 0.56232 2.2078 0.64399 3.8932 0.19324l2.9193-0.78074-2.1932-2.1932c-2.6486-2.6486-9.7435-2.9943-14.196-0.69163-6.9833 3.6112-5.2269 16.81 2.5031 18.809 2.7754 0.71802 8.3916-0.20351 11.715-1.9224zm7.8664 0.61142c0.50501 0 0.91821-0.9 0.91821-2 0-1.4667-0.66667-2-2.5-2-2.0274 0-2.5 0.49286-2.5 2.607 0 1.9664 0.38868 2.4578 1.5818 2 0.86998-0.33384 1.995-0.60698 2.5-0.60698zm0.4288-12.091c0.78047-6.7246 0.11227-8.1459-3.3981-7.2279-2.2167 0.57969-2.3157 0.93321-1.7081 6.1026 0.72991 6.2104 1.156 7.2166 3.0565 7.2166 0.89939 0 1.5762-2.0114 2.0498-6.0912z"/>
</svg>
