<?xml version="1.0" encoding="UTF-8" standalone="no"?>
<!-- Created with Inkscape (http://www.inkscape.org/) -->
<svg id="svg3449" xmlns:rdf="http://www.w3.org/1999/02/22-rdf-syntax-ns#" xmlns="http://www.w3.org/2000/svg" height="128" width="128" version="1.0" xmlns:cc="http://creativecommons.org/ns#" xmlns:xlink="http://www.w3.org/1999/xlink" xmlns:dc="http://purl.org/dc/elements/1.1/">
 <metadata id="metadata56">
  <rdf:RDF>
   <cc:Work rdf:about="">
    <dc:format>image/svg+xml</dc:format>
    <dc:type rdf:resource="http://purl.org/dc/dcmitype/StillImage"/>
    <dc:title/>
   </cc:Work>
  </rdf:RDF>
 </metadata>
 <defs id="defs3451">
  <linearGradient id="linearGradient3514" y2="-9.1034" gradientUnits="userSpaceOnUse" x2="66.492" gradientTransform="matrix(.96826 0 0 .97948 2.179 .16587)" y1="-42.638" x1="67.952">
   <stop id="stop4620" style="stop-color:#37414b" offset="0"/>
   <stop id="stop4622" style="stop-color:#37414b;stop-opacity:0" offset="1"/>
  </linearGradient>
  <linearGradient id="linearGradient3516" y2="-11.847" gradientUnits="userSpaceOnUse" x2="58.98" gradientTransform="matrix(.96826 0 0 .97948 2.179 .16587)" y1="-118.55" x1="57.173">
   <stop id="stop4596" offset="0"/>
   <stop id="stop4598" style="stop-opacity:0" offset="1"/>
  </linearGradient>
  <linearGradient id="linearGradient3519" y2="50.369" gradientUnits="userSpaceOnUse" x2="76.558" gradientTransform="matrix(.96826 0 0 .97948 3.2423 -129.19)" y1="13.164" x1="76.558">
   <stop id="stop3392" style="stop-color:#425e7b" offset="0"/>
   <stop id="stop3394" style="stop-color:#7a91a7" offset="1"/>
  </linearGradient>
  <linearGradient id="linearGradient3521" y2="-8.7399" gradientUnits="userSpaceOnUse" x2="60.217" gradientTransform="matrix(.96826 0 0 .97948 2.179 .16587)" y1="-123.72" x1="60.395">
   <stop id="stop3392-4-8" style="stop-color:#425e7b" offset="0"/>
   <stop id="stop3394-8-0" style="stop-color:#7a91a7" offset="1"/>
  </linearGradient>
  <linearGradient id="linearGradient4192" y2="31.742" gradientUnits="userSpaceOnUse" x2="121.11" y1="31.742" x1="6.5334">
   <stop id="stop4188" style="stop-color:#fff" offset="0"/>
   <stop id="stop4190" style="stop-color:#fff;stop-opacity:0" offset="1"/>
  </linearGradient>
  <linearGradient id="linearGradient11577" y2="8.1" gradientUnits="userSpaceOnUse" y1="6.1438" x2="19.387" x1="19.49">
   <stop id="stop10999-9-0" offset="0"/>
   <stop id="stop11001-6-1" style="stop-opacity:0" offset="1"/>
  </linearGradient>
  <filter id="filter3198-5" color-interpolation-filters="sRGB" width="1.1734" y="-.10752" x="-.086712" height="1.215">
   <feGaussianBlur id="feGaussianBlur3200-3" stdDeviation="0.71710775"/>
  </filter>
  <linearGradient id="linearGradient13639" y2="5.4565" gradientUnits="userSpaceOnUse" x2="36.358" gradientTransform="matrix(0 3.8171 -6.1772 0 129.98 -37.908)" y1="8.059" x1="32.892">
   <stop id="stop8591-7-2-1" style="stop-color:#fefefe" offset="0"/>
   <stop id="stop8593-2-4-5" style="stop-color:#cbcbcb" offset="1"/>
  </linearGradient>
  <radialGradient id="radialGradient13643" gradientUnits="userSpaceOnUse" cy="-16.639" cx="2.6083" gradientTransform="matrix(-5.7453 2.452e-7 -2.5955e-7 -6.0905 124.78 -36.865)" r="23">
   <stop id="stop4003" style="stop-color:#c0bebe" offset="0"/>
   <stop id="stop4005" style="stop-color:#f2f7f7" offset="1"/>
  </radialGradient>
  <linearGradient id="linearGradient4169">
   <stop id="stop4171-0" style="stop-color:#e2f4c4" offset="0"/>
   <stop id="stop4173" style="stop-color:#fdfff5" offset="1"/>
  </linearGradient>
  <linearGradient id="linearGradient16352" y2="2.0118" xlink:href="#linearGradient4169" gradientUnits="userSpaceOnUse" x2="10.41" gradientTransform="matrix(6.4167 0 0 6.4167 -270.89 -29.269)" y1="13.991" x1="10.41"/>
  <linearGradient id="linearGradient6194-30" gradientUnits="userSpaceOnUse" gradientTransform="matrix(13.527 20.526 20.526 -13.527 19.19 1021.1)">
   <stop id="stop6196-1" style="stop-color:#fff" offset="0"/>
   <stop id="stop6198-79" style="stop-color:#29282b" offset=".16850"/>
   <stop id="stop6200-4" style="stop-color:#868c95" offset=".26374"/>
   <stop id="stop6202-8" style="stop-color:#92979f" offset=".39560"/>
   <stop id="stop6204-3" style="stop-color:#737881" offset=".54212"/>
   <stop id="stop6206-56" style="stop-color:#70757e" offset=".62637"/>
   <stop id="stop6208-3" style="stop-color:#e4e6e8" offset=".71795"/>
   <stop id="stop6210-5" style="stop-color:#fff" offset=".79121"/>
   <stop id="stop6212-62" style="stop-color:#1d191a" offset="1"/>
  </linearGradient>
  <linearGradient id="linearGradient137480">
   <stop id="stop137482" style="stop-color:#5a5a5a" offset="0"/>
   <stop id="stop137484" style="stop-color:#101010" offset="1"/>
  </linearGradient>
  <linearGradient id="linearGradient20171" y2="-13.206" xlink:href="#linearGradient137480" gradientUnits="userSpaceOnUse" x2="1011.5" gradientTransform="matrix(1.1579 0 0 2.6596 -159.62 9.2016)" y1="-13.206" x1="1013.5"/>
  <linearGradient id="linearGradient20173" y2="-13.206" xlink:href="#linearGradient137480" gradientUnits="userSpaceOnUse" x2="1011.5" gradientTransform="matrix(1.1579 0 0 2.6596 -159.62 -.42287)" y1="-13.206" x1="1013.5"/>
  <linearGradient id="linearGradient20175" y2="-13.206" xlink:href="#linearGradient137480" gradientUnits="userSpaceOnUse" x2="1011.5" gradientTransform="matrix(1.1579 0 0 2.6596 -159.62 19.577)" y1="-13.206" x1="1013.5"/>
  <linearGradient id="linearGradient20177" y2="-34.625" xlink:href="#linearGradient6194-30" gradientUnits="userSpaceOnUse" x2="1012.4" gradientTransform="translate(.50003)" y1="-34.625" x1="1004.3"/>
  <linearGradient id="linearGradient20179" y2="-34.625" xlink:href="#linearGradient6194-30" gradientUnits="userSpaceOnUse" x2="1012.4" gradientTransform="translate(.50003 2)" y1="-34.625" x1="1004.3"/>
  <linearGradient id="linearGradient20181" y2="-34.625" xlink:href="#linearGradient6194-30" gradientUnits="userSpaceOnUse" x2="1012.4" gradientTransform="translate(.50003 9.249)" y1="-34.625" x1="1004.3"/>
  <linearGradient id="linearGradient20183" y2="-34.625" xlink:href="#linearGradient6194-30" gradientUnits="userSpaceOnUse" x2="1012.4" gradientTransform="translate(.50003 11.249)" y1="-34.625" x1="1004.3"/>
  <linearGradient id="linearGradient20185" y2="-34.625" xlink:href="#linearGradient6194-30" gradientUnits="userSpaceOnUse" x2="1012.4" gradientTransform="translate(.50003 22)" y1="-34.625" x1="1004.3"/>
  <linearGradient id="linearGradient20187" y2="-34.625" xlink:href="#linearGradient6194-30" gradientUnits="userSpaceOnUse" x2="1012.4" gradientTransform="translate(.50003 20)" y1="-34.625" x1="1004.3"/>
  <linearGradient id="linearGradient19931-0-6" y2="8.75" gradientUnits="userSpaceOnUse" x2="25" gradientTransform="matrix(1.1905 0 0 1.2136 188.81 6.3097)" y1="44.604" x1="25">
   <stop id="stop4095-5-6-5" style="stop-color:#18a3dd" offset="0"/>
   <stop id="stop4097-1-8-2" style="stop-color:#72d0eb" offset="1"/>
  </linearGradient>
 </defs>
 <rect id="rect892-2-7-1" style="opacity:.15891;stroke:#000;stroke-width:7.7512;fill:none" transform="scale(1,-1)" ry="28.993" height="114.35" width="114.22" y="-121.16" x="6.8687"/>
 <rect id="rect892-2-7-2" ry="29.452" style="stroke:#d3d3d3;stroke-width:9.8448;fill:#37414b" transform="scale(1,-1)" height="116.16" width="116.08" y="-122.08" x="5.9224"/>
 <rect id="rect892" style="stroke:url(#linearGradient3521);stroke-width:.97385;fill:url(#linearGradient3519)" transform="scale(1,-1)" ry="29.296" height="115.54" width="114.22" y="-122.25" x="7.0394"/>
 <rect id="rect892-2" style="stroke:url(#linearGradient3516);stroke-width:.97385;fill:url(#linearGradient3514)" transform="scale(1,-1)" ry="28.993" height="114.35" width="114.22" y="-121.46" x="7.0599"/>
 <path id="path4159-5" style="stroke:url(#linearGradient4192);stroke-width:1px;fill:none" d="m7.0334 31.742h113.58z"/>
 <path id="path4322" d="m120.59 73.959c-1.82 3.832-42.138 40.971-56.518 46.341-69.19 4.26-58.724-19.48-56.838-84.917 2.3986-17.191 7.324-26.021 21.561-28.696 14.236-2.6741 37.004-0.1685 68.065 0.2409 14.5 4.037 21.484 10.632 23.634 21.59 2.1501 10.957-0.0335 25.676 0.0963 45.442z" style="fill-rule:evenodd;fill:url(#radialGradient13643)"/>
 <path id="path4063" style="fill:#231b09;fill-opacity:.28736" d="m8.5685 70.265v1h112.43v-1h-112.43z"/>
 <g id="g20331">
  <rect id="rect4086" style="fill:#d55051;fill-opacity:.36782" ry="0" height="112.87" width="1" y="6.2118" x="33.625"/>
  <rect id="rect4088" style="fill:#d55051;fill-opacity:.36782" ry="0" height="112.28" width="1" y="6.802" x="38.711"/>
 </g>
 <path id="path4065" style="fill:#231b09;fill-opacity:.28736" d="m6.8008 53.64v1h113.98v-1h-113.98z"/>
 <g id="g20206" transform="translate(-157.24 23.879)">
  <path id="path4431" d="m187.38 19.746v43.75h60v-43.75l-29.998 24.712h-0.002-0.002z" style="fill-opacity:.058824"/>
  <path id="path4429" style="fill-opacity:.23529" d="m187.38 18.746v43.75h60v-43.75l-29.998 24.712h-0.002-0.002z"/>
  <path id="path4425" d="m187.38 17.746v43.75h60v-43.75l-29.998 24.712h-0.002-0.002z" style="fill-opacity:.23529"/>
  <path id="path4049-1" style="fill:url(#linearGradient19931-0-6)" d="m187.38 16.746v43.75h60v-43.75l-29.998 24.712h-0.002-0.002z"/>
  <path id="path4433" style="fill:#187da4;fill-opacity:.31373" d="m187.38 58.494v2.002h60v-2.002h-60z"/>
  <path id="path4438" style="fill:#fff;fill-opacity:.23529" d="m187.38 16.746v1.001l30 24.712 30-24.712v-1.001l-30 24.712-30-24.712z"/>
 </g>
 <path id="path4891" d="m25.685 5.7862c3.6386-0.3502 2.8432 14.02 2.8432 14.02s16.093-0.84846 16.525 1.9543c3.85-3.268-16.654-16.76-19.368-15.974z" style="opacity:.3;fill-rule:evenodd;filter:url(#filter3198-5)" transform="matrix(0 2.6586 -4.0239 0 144.6 .66614)"/>
 <rect id="rect892-2-7-8" style="opacity:.15891;stroke:#000;stroke-width:4.8445;fill:none" transform="scale(1,-1)" ry="28.993" height="114.35" width="114.22" y="-121.16" x="6.8687"/>
 <rect id="rect892-2-7-2-9" ry="28.346" style="stroke:#000;stroke-width:1.054;fill:none" transform="scale(1,-1)" height="113.83" width="114.13" y="-120.31" x="7.0675"/>
 <g id="g17906" transform="matrix(2.3438 0 0 2.2539 224.79 41.695)"></g>
 <path id="path4061" style="fill:#231b09;fill-opacity:.28736" d="m6.8749 86.89v1h90.75v-1h-90.75z"/>
 <path id="rect4090" style="fill:#231b09;fill-opacity:.28736" d="m9.3749 103.52v1h73v-1h-73z"/>
 <path id="path4893" d="m71.481 80.399s4.2044 36.928-6.3762 39.33c9.39 0.11002 45.865-29.927 54.993-45.071-7.2413 5.3727-33.084 6.8755-48.617 5.7407z" style="fill:url(#linearGradient13639);fill-rule:evenodd"/>
 <rect id="rect4898" style="fill:url(#linearGradient16352);display:none" height="141.17" width="141.17" y="-29.269" x="-270.89"/>
 <rect id="rect4126" style="fill:url(#linearGradient16352);display:none" height="141.17" width="141.17" y="-29.269" x="-270.89"/>
 <g id="g17813" transform="translate(3.9203 -8)">
  <rect id="rect4902" style="fill:#495961;fill-opacity:.53725" ry="0" height="1" width="5.75" y="37.399" x="57.205"/>
  <rect id="rect4904" style="fill:#495961;fill-opacity:.53725" ry=".5" height="1" width="5.75" y="37.399" x="68.455"/>
  <rect id="rect4906" style="fill:#495961;fill-opacity:.53725" ry="0" height="1" width="5.75" y="37.399" x="79.705"/>
  <rect id="rect4908" style="fill:#495961;fill-opacity:.53725" ry="0" height="1" width="5.75" y="37.399" x="90.955"/>
  <rect id="rect4910" style="fill:#495961;fill-opacity:.53725" ry="0" height="1" width="5.75" y="37.399" x="102.2"/>
  <rect id="rect4912" style="fill:#495961;fill-opacity:.53725" ry="0" height="1" width="5.75" y="37.399" x="45.955"/>
  <rect id="rect4914" style="fill:#495961;fill-opacity:.53725" ry="0" height="1" width="5.75" y="37.399" x="34.705"/>
  <rect id="rect4916" style="fill:#495961;fill-opacity:.53725" ry="0" height="1" width="5.75" y="37.399" x="23.455"/>
  <rect id="rect4918" style="fill:#495961;fill-opacity:.53725" ry="0" height="1" width="5.75" y="37.399" x="12.205"/>
  <rect id="rect4920" style="fill:#f9fafa;fill-opacity:.83978" ry="0" height="1" width="5.75" y="38.149" x="57.205"/>
  <rect id="rect4922" style="fill:#f9fafa;fill-opacity:.83978" ry=".5" height="1" width="5.75" y="38.149" x="68.455"/>
  <rect id="rect4924" style="fill:#f9fafa;fill-opacity:.83978" ry="0" height="1" width="5.75" y="38.149" x="79.705"/>
  <rect id="rect4926" style="fill:#f9fafa;fill-opacity:.83978" ry="0" height="1" width="5.75" y="38.149" x="90.955"/>
  <rect id="rect4928" style="fill:#f9fafa;fill-opacity:.83978" ry="0" height="1" width="5.75" y="38.149" x="102.2"/>
  <rect id="rect4930" style="fill:#f9fafa;fill-opacity:.83978" ry="0" height="1" width="5.75" y="38.149" x="45.955"/>
  <rect id="rect4932" style="fill:#f9fafa;fill-opacity:.83978" ry="0" height="1" width="5.75" y="38.149" x="34.705"/>
  <rect id="rect4934" style="fill:#f9fafa;fill-opacity:.83978" ry="0" height="1" width="5.75" y="38.149" x="23.455"/>
  <rect id="rect4936" style="fill:#f9fafa;fill-opacity:.83978" ry="0" height="1" width="5.75" y="38.149" x="12.205"/>
 </g>
 <path id="path4065-64" style="fill:#231b09;fill-opacity:.28736" d="m7.0098 36.871v1h113.98v-1h-113.98z"/>
 <path id="path4065-6" style="fill:#231b09;fill-opacity:.28736" d="m7.8775 27.822v1h112.12v-1h-112.12z"/>
 <path id="path4065-65" style="fill:#231b09;fill-opacity:.28736" d="m10.625 20.153v1h106.99v-1h-106.99z"/>
 <g id="g302" transform="matrix(2.5 0 0 2.5 4 -2520.3)">
  <rect id="rect4881" style="fill:url(#linearGradient20171)" transform="rotate(90)" ry=".25969" height="5" width="2.2" y="-26.875" x="1011.7"/>
  <rect id="rect4869" ry=".25969" style="fill:url(#linearGradient20173)" transform="rotate(90)" height="5" width="2.2" y="-36.5" x="1011.7"/>
  <rect id="rect4855" style="fill:url(#linearGradient20175)" transform="rotate(90)" ry=".25969" height="5" width="2.2" y="-16.5" x="1011.7"/>
  <rect id="rect4833" style="fill-opacity:.23529" transform="rotate(90)" ry=".41772" height="1.48" width="5" y="-33.74" x="1008.5"/>
  <rect id="rect4829" ry=".33304" style="fill-opacity:.23529" transform="rotate(90)" height="1.18" width="5" y="-33.59" x="1008.2"/>
  <rect id="rect4835" ry=".41772" style="fill-opacity:.23529" transform="rotate(90)" height="1.48" width="5" y="-35.74" x="1008.5"/>
  <rect id="rect4837" style="fill-opacity:.23529" transform="rotate(90)" ry=".33304" height="1.18" width="5" y="-35.59" x="1008.2"/>
  <rect id="rect4839" style="fill-opacity:.23529" transform="rotate(90)" ry=".41772" height="1.48" width="5" y="-26.115" x="1008.5"/>
  <rect id="rect4841" ry=".33304" style="fill-opacity:.23529" transform="rotate(90)" height="1.18" width="5" y="-25.965" x="1008.2"/>
  <rect id="rect4843" ry=".41772" style="fill-opacity:.23529" transform="rotate(90)" height="1.48" width="5" y="-24.115" x="1008.5"/>
  <rect id="rect4845" style="fill-opacity:.23529" transform="rotate(90)" ry=".33304" height="1.18" width="5" y="-23.965" x="1008.2"/>
  <rect id="rect4847" style="fill-opacity:.23529" transform="rotate(90)" ry=".41772" height="1.48" width="5" y="-15.74" x="1008.5"/>
  <rect id="rect4849" ry=".33304" style="fill-opacity:.23529" transform="rotate(90)" height="1.18" width="5" y="-15.59" x="1008.2"/>
  <rect id="rect4851" ry=".41772" style="fill-opacity:.23529" transform="rotate(90)" height="1.48" width="5" y="-13.74" x="1008.5"/>
  <rect id="rect4853" style="fill-opacity:.23529" transform="rotate(90)" ry=".33304" height="1.18" width="5" y="-13.59" x="1008.2"/>
  <g id="g4873" transform="translate(.37549)">
   <rect id="rect4202" style="fill:url(#linearGradient20177)" transform="rotate(90)" ry=".19757" height="0.7" width="5" y="-34.975" x="1007.9"/>
   <rect id="rect4770" ry=".19757" style="fill:url(#linearGradient20179)" transform="rotate(90)" height="0.7" width="5" y="-32.975" x="1007.9"/>
  </g>
  <g id="g4877">
   <rect id="rect4774" style="fill:url(#linearGradient20181)" transform="rotate(90)" ry=".19757" height="0.7" width="5" y="-25.725" x="1007.9"/>
   <rect id="rect4778" ry=".19757" style="fill:url(#linearGradient20183)" transform="rotate(90)" height="0.7" width="5" y="-23.725" x="1007.9"/>
  </g>
  <g id="g4865" transform="translate(.37549)">
   <rect id="rect4786" ry=".19757" style="fill:url(#linearGradient20185)" transform="rotate(90)" height="0.7" width="5" y="-12.975" x="1007.9"/>
   <rect id="rect4790" style="fill:url(#linearGradient20187)" transform="rotate(90)" ry=".19757" height="0.7" width="5" y="-14.975" x="1007.9"/>
  </g>
  <path id="rect4814" d="m32.844 1007.9c-0.10945 0-0.1875 0.078-0.1875 0.1875v4.625c0 0.1094 0.07805 0.1875 0.1875 0.1875s0.21875-0.078 0.21875-0.1875v-4.625c0-0.1095-0.1093-0.1875-0.21875-0.1875z" style="fill-opacity:.23529"/>
  <path id="path4819" style="fill-opacity:.23529" d="m34.837 1007.9c-0.10945 0-0.1875 0.078-0.1875 0.1875v4.625c0 0.1095 0.07805 0.1875 0.1875 0.1875s0.21875-0.078 0.21875-0.1875v-4.625c0-0.1095-0.1093-0.1875-0.21875-0.1875z"/>
  <path id="path4821" style="fill-opacity:.23529" d="m25.213 1007.9c-0.10945 0-0.1875 0.078-0.1875 0.1875v4.625c0 0.1095 0.07805 0.1875 0.1875 0.1875s0.21875-0.078 0.21875-0.1875v-4.625c0-0.1095-0.1093-0.1875-0.21875-0.1875z"/>
  <path id="path4823" style="fill-opacity:.23529" d="m23.213 1007.9c-0.10945 0-0.1875 0.078-0.1875 0.1875v4.625c0 0.1095 0.07805 0.1875 0.1875 0.1875s0.21875-0.078 0.21875-0.1875v-4.625c0-0.1095-0.1093-0.1875-0.21875-0.1875z"/>
  <path id="path4825" style="fill-opacity:.23529" d="m14.837 1007.9c-0.10945 0-0.1875 0.078-0.1875 0.1875v4.625c0 0.1095 0.07805 0.1875 0.1875 0.1875s0.21875-0.078 0.21875-0.1875v-4.625c0-0.1095-0.1093-0.1875-0.21875-0.1875z"/>
  <path id="path4827" style="fill-opacity:.23529" d="m12.837 1007.9c-0.10945 0-0.1875 0.078-0.1875 0.1875v4.625c0 0.1095 0.07805 0.1875 0.1875 0.1875s0.21875-0.078 0.21875-0.1875v-4.625c0-0.1095-0.1093-0.1875-0.21875-0.1875z"/>
 </g>
</svg>
