<?xml version="1.0" encoding="UTF-8" standalone="no"?>
<!-- Created with Inkscape (http://www.inkscape.org/) -->
<svg id="svg3449" xmlns:rdf="http://www.w3.org/1999/02/22-rdf-syntax-ns#" xmlns="http://www.w3.org/2000/svg" height="128" width="128" version="1.0" xmlns:cc="http://creativecommons.org/ns#" xmlns:xlink="http://www.w3.org/1999/xlink" xmlns:dc="http://purl.org/dc/elements/1.1/">
 <metadata id="metadata56">
  <rdf:RDF>
   <cc:Work rdf:about="">
    <dc:format>image/svg+xml</dc:format>
    <dc:type rdf:resource="http://purl.org/dc/dcmitype/StillImage"/>
    <dc:title/>
   </cc:Work>
  </rdf:RDF>
 </metadata>
 <defs id="defs3451">
  <linearGradient id="linearGradient3514" y2="-9.1034" gradientUnits="userSpaceOnUse" x2="66.492" gradientTransform="matrix(.96826 0 0 .97948 2.179 .16587)" y1="-42.638" x1="67.952">
   <stop id="stop4620" style="stop-color:#37414b" offset="0"/>
   <stop id="stop4622" style="stop-color:#37414b;stop-opacity:0" offset="1"/>
  </linearGradient>
  <linearGradient id="linearGradient3516" y2="-11.847" gradientUnits="userSpaceOnUse" x2="58.98" gradientTransform="matrix(.96826 0 0 .97948 2.179 .16587)" y1="-118.55" x1="57.173">
   <stop id="stop4596" offset="0"/>
   <stop id="stop4598" style="stop-opacity:0" offset="1"/>
  </linearGradient>
  <linearGradient id="linearGradient3519" y2="50.369" gradientUnits="userSpaceOnUse" x2="76.558" gradientTransform="matrix(.96826 0 0 .97948 3.2423 -129.19)" y1="13.164" x1="76.558">
   <stop id="stop3392" style="stop-color:#425e7b" offset="0"/>
   <stop id="stop3394" style="stop-color:#7a91a7" offset="1"/>
  </linearGradient>
  <linearGradient id="linearGradient3521" y2="-8.7399" gradientUnits="userSpaceOnUse" x2="60.217" gradientTransform="matrix(.96826 0 0 .97948 2.179 .16587)" y1="-123.72" x1="60.395">
   <stop id="stop3392-4-8" style="stop-color:#425e7b" offset="0"/>
   <stop id="stop3394-8-0" style="stop-color:#7a91a7" offset="1"/>
  </linearGradient>
  <radialGradient id="radialGradient3349" gradientUnits="userSpaceOnUse" cy="45.647" cx="42.148" gradientTransform="matrix(.94690 0 0 1.139 3.5954 -29.89)" r="58.984">
   <stop id="stop2699-5" style="stop-color:#9cbbd9" offset="0"/>
   <stop id="stop2701-7" style="stop-color:#5c82ab" offset="1"/>
  </radialGradient>
  <linearGradient id="linearGradient4326-3" y2="7.0165" gradientUnits="userSpaceOnUse" y1="92.54" gradientTransform="matrix(1.0059 0 0 .99417 -18.086 54.302)" x2="45.448" x1="45.448">
   <stop id="stop3750-77-4" offset="0"/>
   <stop id="stop3752-4-7" style="stop-opacity:.58824" offset="1"/>
  </linearGradient>
  <filter id="filter3174-16-2" color-interpolation-filters="sRGB">
   <feGaussianBlur id="feGaussianBlur3176-5-4" stdDeviation="1.71"/>
  </filter>
  <linearGradient id="linearGradient3904-7" y2="7.0165" gradientUnits="userSpaceOnUse" y1="92.54" gradientTransform="matrix(1.0059 0 0 .99417 -156.15 .80109)" x2="45.448" x1="45.448">
   <stop id="stop3750-84-9" offset="0"/>
   <stop id="stop3752-3-9" style="stop-opacity:.58824" offset="1"/>
  </linearGradient>
  <filter id="filter3174-5-0" color-interpolation-filters="sRGB">
   <feGaussianBlur id="feGaussianBlur3176-94-4" stdDeviation="1.71"/>
  </filter>
  <linearGradient id="linearGradient16955-6" y2="7.0165" gradientUnits="userSpaceOnUse" y1="92.54" gradientTransform="matrix(1.0059 0 0 .99417 -207.46 -7.6017)" x2="45.448" x1="45.448">
   <stop id="stop3750-5-2" offset="0"/>
   <stop id="stop3752-25-2" style="stop-opacity:.58824" offset="1"/>
  </linearGradient>
  <filter id="filter3174-7-7" color-interpolation-filters="sRGB">
   <feGaussianBlur id="feGaussianBlur3176-34-3" stdDeviation="1.71"/>
  </filter>
  <linearGradient id="linearGradient7720-4" y2="7.0165" gradientUnits="userSpaceOnUse" y1="92.54" gradientTransform="matrix(1.0059 0 0 .99417 75.661 -1.5)" x2="45.448" x1="45.448">
   <stop id="stop3750-4-1" offset="0"/>
   <stop id="stop3752-6-7" style="stop-opacity:.58824" offset="1"/>
  </linearGradient>
  <filter id="filter3174-3-0" color-interpolation-filters="sRGB">
   <feGaussianBlur id="feGaussianBlur3176-3-0" stdDeviation="1.71"/>
  </filter>
  <linearGradient id="linearGradient6422-6" y2="7.0165" gradientUnits="userSpaceOnUse" y1="92.54" gradientTransform="matrix(1.0059 0 0 .99417 158.64 4.6017)" x2="45.448" x1="45.448">
   <stop id="stop3750-58" offset="0"/>
   <stop id="stop3752-14" style="stop-opacity:.58824" offset="1"/>
  </linearGradient>
  <filter id="filter3174-9" color-interpolation-filters="sRGB">
   <feGaussianBlur id="feGaussianBlur3176-11" stdDeviation="1.71"/>
  </filter>
 </defs>
 <rect id="rect892-2-7-2" ry="29.452" style="stroke:#d3d3d3;stroke-width:9.8448;fill:#37414b" transform="scale(1,-1)" height="116.16" width="116.08" y="-122.08" x="5.9224"/>
 <rect id="rect892" style="stroke:url(#linearGradient3521);stroke-width:.97385;fill:url(#linearGradient3519)" transform="scale(1,-1)" ry="29.296" height="115.54" width="114.22" y="-122.25" x="7.0394"/>
 <rect id="rect892-2" style="stroke:url(#linearGradient3516);stroke-width:.97385;fill:url(#linearGradient3514)" transform="scale(1,-1)" ry="28.993" height="114.35" width="114.22" y="-121.46" x="7.0599"/>
 <path id="rect895" style="fill:url(#radialGradient3349)" d="m33.051 7.2596c-7.969-2.4493-27.013 15.174-25.653 23.038-0.050142 0.97378-0.088772 1.9648-0.088772 2.9572v52.419c0 20.876 10.712 33.859 22.318 33.859h67.038c12.638 0 24.318-11.245 24.318-25.859v-64.017c0.7-10.928-21.283-24.659-25.926-22.618-47.846 0.8653-18.017 0.2236-62.003 0.2236z"/>
 <rect id="rect892-2-7-8" style="opacity:.15891;stroke:#000;stroke-width:4.8445;fill:none" transform="scale(1,-1)" ry="28.993" height="114.35" width="114.22" y="-121.16" x="6.8687"/>
 <rect id="rect892-2-7-1" style="opacity:.15891;stroke:#000;stroke-width:7.7512;fill:none" transform="scale(1,-1)" ry="28.993" height="114.35" width="114.22" y="-121.16" x="6.8687"/>
 <rect id="rect892-2-7-2-9" ry="28.067" style="stroke:#000;stroke-width:1.0489;fill:none" transform="scale(1,-1)" height="112.71" width="114.14" y="-120.31" x="7.0649"/>
 <path id="path1187" style="fill:#fff;fill-opacity:.057143" d="m33.017 7.2319c-23.707 0-26.027 0.6738-25.93 26.295-0.04334 0.71563-0.07674 1.4439-0.07674 2.1732v32.76c18.67-38.321 38.34-51.497 90.374-61.179-0.225-0.026-0.46-0.0303-0.691-0.0303-41.576 0.3874-25.652-0.0188-63.676-0.0188z"/>
 <rect id="rect3745" style="opacity:.9;filter:url(#filter3174-9);display:none;fill:url(#linearGradient6422-6)" transform="matrix(2.3333 0 0 2.3333 8 8)" rx="6" ry="6" height="85" width="86" y="11.602" x="163.64"/>
 <rect id="rect3745-9" style="opacity:.9;filter:url(#filter3174-3-0);display:none;fill:url(#linearGradient7720-4)" transform="matrix(2.3333 0 0 2.3333 8 8)" rx="6" ry="6" height="85" width="86" y="5.5" x="80.661"/>
 <rect id="rect3745-3" style="opacity:.9;filter:url(#filter3174-7-7);display:none;fill:url(#linearGradient16955-6)" transform="matrix(2.3333 0 0 2.3333 8 8)" rx="6" ry="6" height="85" width="86" y="-.60169" x="-202.46"/>
 <rect id="rect3745-97" style="opacity:.9;filter:url(#filter3174-5-0);display:none;fill:url(#linearGradient3904-7)" transform="matrix(2.3333 0 0 2.3333 8 8)" rx="6" ry="6" height="85" width="86" y="7.8011" x="-151.15"/>
 <rect id="rect3745-5" style="opacity:.9;filter:url(#filter3174-16-2);display:none;fill:url(#linearGradient4326-3)" transform="matrix(2.3333 0 0 2.3333 8 8)" rx="6" ry="6" height="85" width="86" y="61.302" x="-13.086"/>
 <path id="path2996-6" style="fill:#f2f2f2" d="m64.219 17.344c-3.086 12.345-15.75 23.625-1 37.937-13.074-12.565-1.739-22.519 1.031-33.375 2.672 9.761 12.347 18.665 4.719 29.719 9.272-12.823-1.73-23.031-4.75-34.281zm-1 37.937c0.427 0.415 0.838 0.83 1.312 1.25 0.012-0.01 0.02-0.021 0.031-0.031-0.473-0.411-0.922-0.813-1.343-1.219z"/>
 <path id="path2996-0" style="fill:#f2f2f2" d="m63.469 71.469c-0.012 0.01-0.02 0.021-0.031 0.031 0.473 0.411 0.922 0.813 1.343 1.219-0.427-0.415-0.838-0.83-1.312-1.25zm1.312 1.25c13.074 12.565 1.739 22.519-1.031 33.371-2.672-9.757-12.347-18.66-4.719-29.715-9.272 12.823 1.73 23.031 4.75 34.285 3.086-12.35 15.75-23.629 1-37.941z"/>
 <path id="path2996-76" style="fill:#f2f2f2" d="m69.406 69.219c-0.066 0.634-0.09 1.245-0.125 1.843 0.037-0.583 0.085-1.189 0.157-1.812 0.627-0.007 1.228 0.008 1.812 0.031-0.599-0.027-1.206-0.063-1.844-0.062zm-0.125 1.843c-1.181 20.506 15.756 20.274 26.375 27.282-5.543-10.64-4.104-26.223-21.125-28.75 14.639 2.327 13.266 16.024 18.063 25.344-9.381-6.125-24.448-5.777-23.313-23.876zm5.25-1.468c-0.48-0.072-0.958-0.169-1.469-0.219 0.51 0.051 0.994 0.143 1.469 0.219z"/>
 <path id="path2996-6-2" style="fill:#f2f2f2" d="m87.062 56.188c-4.523-0.04-9.235 1.766-14.343 7.031 12.566-13.074 22.519-1.739 33.371 1.031-9.757 2.672-18.661 12.346-29.715 4.719 12.823 9.271 23.031-1.761 34.285-4.781-7.94-1.985-15.446-7.929-23.598-8zm-14.343 7.031c-0.415 0.427-0.83 0.838-1.25 1.312 0.01 0.012 0.021 0.02 0.031 0.031 0.411-0.473 0.813-0.922 1.219-1.343z"/>
 <path id="path2996" style="fill:#f2f2f2" d="m98.438 32.375c-10.641 5.543-26.223 4.104-28.75 21.125 2.328-14.639 16.024-13.266 25.343-18.062-6.125 9.381-5.777 24.446-23.875 23.312 20.506 1.181 20.274-15.756 27.282-26.375zm-27.282 26.375c-0.584-0.037-1.189-0.085-1.812-0.156-0.007-0.627 0.007-1.228 0.031-1.813-0.027 0.599-0.063 1.206-0.063 1.844 0.635 0.066 1.246 0.091 1.844 0.125zm-1.468-5.25c-0.075 0.5-0.168 0.999-0.219 1.531 0.051-0.521 0.141-1.046 0.219-1.531z"/>
 <path id="path2996-0-0" style="fill:#f2f2f2" d="m40.781 55.375c-8.149 0.213-15.533 6.315-23.437 8.437 12.345 3.086 23.624 15.719 37.937 0.969-12.566 13.074-22.519 1.739-33.375-1.031 9.761-2.672 18.665-12.346 29.719-4.719-3.814-2.757-7.394-3.746-10.844-3.656zm14.5 9.406c0.415-0.427 0.83-0.838 1.25-1.312-0.01-0.012-0.021-0.02-0.031-0.031-0.411 0.473-0.813 0.922-1.219 1.343z"/>
 <path id="path2996-6-3-7" style="fill:#f2f2f2" d="m32.25 29.844c5.543 10.64 4.102 26.223 21.125 28.75-14.639-2.328-13.266-16.025-18.063-25.344 9.382 6.124 24.448 5.777 23.313 23.875 1.181-20.506-15.756-20.274-26.375-27.281zm26.375 27.281c-0.037 0.584-0.085 1.189-0.156 1.813-0.627 0.006-1.228-0.008-1.813-0.032 0.599 0.028 1.206 0.063 1.844 0.063 0.066-0.634 0.091-1.246 0.125-1.844z"/>
 <path id="path2996-6-3" style="fill:#f2f2f2" d="m55.031 69.281c-18.41 0.063-18.426 16.223-25.187 26.469 10.641-5.544 26.223-4.102 28.75-21.125-2.329 14.639-16.025 13.266-25.344 18.063 6.125-9.382 5.777-24.447 23.875-23.313-0.721-0.041-1.423-0.096-2.094-0.094zm2.094 0.094c0.584 0.037 1.189 0.085 1.813 0.156 0.006 0.627-0.008 1.228-0.032 1.813 0.028-0.599 0.063-1.206 0.063-1.844-0.634-0.066-1.246-0.091-1.844-0.125z"/>
 <path id="path2996-7-8-8" style="fill:#f2f2f2" d="m64.35 32.397c1.9544 7.139 9.7449 13.547 0.19203 22.131-9.701-8.416-2.023-14.959-0.192-22.131z"/>
 <path id="path2996-7-8-1" style="fill:#f2f2f2" d="m63.65 95.603c-1.9543-7.1391-9.7449-13.547-0.19191-22.132 9.7004 8.416 2.0222 14.96 0.19191 22.132z"/>
 <path id="path2996-7-8-6" style="fill:#f2f2f2" d="m85.585 87.14c-3.387-6.581-1.981-16.571-14.823-16.435-1.456 12.76 8.625 12.389 14.823 16.435z"/>
 <path id="path2996-7-8-8-0" style="fill:#f2f2f2" d="m95.603 64.348c-7.1391 1.9547-13.548 9.7455-22.131 0.1931 8.4165-9.7008 14.96-2.023 22.131-0.1931z"/>
 <path id="path2996-7-8" style="fill:#f2f2f2" d="m87.234 42.455c-6.581 3.387-16.57 1.981-16.435 14.823 12.759 1.456 12.389-8.625 16.435-14.823z"/>
 <path id="path2996-7-8-1-8" style="fill:#f2f2f2" d="m32.397 63.652c7.139-1.955 13.548-9.746 22.132-0.193-8.417 9.701-14.96 2.023-22.132 0.193z"/>
 <path id="path2996-7-8-8-1-3" style="fill:#f2f2f2" d="m42.333 41.047c3.3873 6.5811 1.9807 16.57 14.823 16.435 1.456-12.76-8.625-12.389-14.823-16.435z"/>
 <path id="path2996-7-8-8-1" style="fill:#f2f2f2" d="m41.046 85.668c6.581-3.387 16.57-1.981 16.435-14.823-12.76-1.456-12.389 8.625-16.435 14.823z"/>
 <path id="path3404" style="stroke:#f2f2f2;stroke-width:2.3635;fill:none" d="m5 558.26a4.6429 4.4643 0 1 1 -9.2857 0 4.6429 4.4643 0 1 1 9.2857 0z" transform="matrix(1.0224 1.1368 -1.1963 1.0789 731.46 -538.71)"/>
</svg>
