<?xml version="1.0" encoding="UTF-8" standalone="no"?>
<!-- Created with Inkscape (http://www.inkscape.org/) -->
<svg id="svg3449" xmlns:rdf="http://www.w3.org/1999/02/22-rdf-syntax-ns#" xmlns="http://www.w3.org/2000/svg" height="128" width="128" version="1.0" xmlns:cc="http://creativecommons.org/ns#" xmlns:xlink="http://www.w3.org/1999/xlink" xmlns:dc="http://purl.org/dc/elements/1.1/">
 <metadata id="metadata56">
  <rdf:RDF>
   <cc:Work rdf:about="">
    <dc:format>image/svg+xml</dc:format>
    <dc:type rdf:resource="http://purl.org/dc/dcmitype/StillImage"/>
    <dc:title/>
   </cc:Work>
  </rdf:RDF>
 </metadata>
 <defs id="defs3451">
  <linearGradient id="linearGradient3514" y2="-9.1034" gradientUnits="userSpaceOnUse" x2="66.492" gradientTransform="matrix(.96826 0 0 .97948 2.179 .16587)" y1="-42.638" x1="67.952">
   <stop id="stop4620" style="stop-color:#37414b" offset="0"/>
   <stop id="stop4622" style="stop-color:#37414b;stop-opacity:0" offset="1"/>
  </linearGradient>
  <linearGradient id="linearGradient3516" y2="-11.847" gradientUnits="userSpaceOnUse" x2="58.98" gradientTransform="matrix(.96826 0 0 .97948 2.179 .16587)" y1="-118.55" x1="57.173">
   <stop id="stop4596" offset="0"/>
   <stop id="stop4598" style="stop-opacity:0" offset="1"/>
  </linearGradient>
  <linearGradient id="linearGradient3519" y2="50.369" gradientUnits="userSpaceOnUse" x2="76.558" gradientTransform="matrix(.96826 0 0 .97948 3.2423 -129.19)" y1="13.164" x1="76.558">
   <stop id="stop3392" style="stop-color:#425e7b" offset="0"/>
   <stop id="stop3394" style="stop-color:#7a91a7" offset="1"/>
  </linearGradient>
  <linearGradient id="linearGradient3521" y2="-8.7399" gradientUnits="userSpaceOnUse" x2="60.217" gradientTransform="matrix(.96826 0 0 .97948 2.179 .16587)" y1="-123.72" x1="60.395">
   <stop id="stop3392-4-8" style="stop-color:#425e7b" offset="0"/>
   <stop id="stop3394-8-0" style="stop-color:#7a91a7" offset="1"/>
  </linearGradient>
  <radialGradient id="radialGradient3349" gradientUnits="userSpaceOnUse" cy="45.647" cx="42.148" gradientTransform="matrix(.94690 0 0 1.139 3.5954 -29.89)" r="58.984">
   <stop id="stop8767" style="stop-color:#cd8051" offset="0"/>
   <stop id="stop8769" style="stop-color:#914112" offset="1"/>
  </radialGradient>
  <filter id="filter3174" color-interpolation-filters="sRGB">
   <feGaussianBlur id="feGaussianBlur3176" stdDeviation="1.71"/>
  </filter>
  <linearGradient id="ButtonShadow-1" x1="45.448" gradientUnits="userSpaceOnUse" y1="92.54" gradientTransform="scale(1.0059 .99417)" x2="45.448" y2="7.0165">
   <stop id="stop3750-0" offset="0"/>
   <stop id="stop3752-4" style="stop-opacity:.58824" offset="1"/>
  </linearGradient>
 </defs>
 <rect id="rect892-2-7-2" ry="29.452" style="stroke:#d3d3d3;stroke-width:9.8448;fill:#37414b" transform="scale(1,-1)" height="116.16" width="116.08" y="-122.08" x="5.9224"/>
 <rect id="rect892" style="stroke:url(#linearGradient3521);stroke-width:.97385;fill:url(#linearGradient3519)" transform="scale(1,-1)" ry="29.296" height="115.54" width="114.22" y="-122.25" x="7.0394"/>
 <rect id="rect892-2" style="stroke:url(#linearGradient3516);stroke-width:.97385;fill:url(#linearGradient3514)" transform="scale(1,-1)" ry="28.993" height="114.35" width="114.22" y="-121.46" x="7.0599"/>
 <path id="rect895" style="fill:url(#radialGradient3349)" d="m33.051 7.2596c-7.969-2.4493-27.013 15.174-25.653 23.038-0.050142 0.97378-0.088772 1.9648-0.088772 2.9572v52.419c0 20.876 10.712 33.859 22.318 33.859h67.038c12.638 0 24.318-11.245 24.318-25.859v-64.017c0.7-10.928-21.283-24.659-25.926-22.618-47.846 0.8653-18.017 0.2236-62.003 0.2236z"/>
 <rect id="rect892-2-7-8" style="opacity:.15891;stroke:#000;stroke-width:4.8445;fill:none" transform="scale(1,-1)" ry="28.993" height="114.35" width="114.22" y="-121.16" x="6.8687"/>
 <rect id="rect892-2-7-1" style="opacity:.15891;stroke:#000;stroke-width:7.7512;fill:none" transform="scale(1,-1)" ry="28.993" height="114.35" width="114.22" y="-121.16" x="6.8687"/>
 <rect id="rect892-2-7-2-9" ry="28.067" style="stroke:#000;stroke-width:1.0489;fill:none" transform="scale(1,-1)" height="112.71" width="114.14" y="-120.31" x="7.0649"/>
 <path id="path1187" style="fill:#fff;fill-opacity:.057143" d="m33.017 7.2319c-23.707 0-26.027 0.6738-25.93 26.295-0.04334 0.71563-0.07674 1.4439-0.07674 2.1732v32.76c18.67-38.321 38.34-51.497 90.374-61.179-0.225-0.026-0.46-0.0303-0.691-0.0303-41.576 0.3874-25.652-0.0188-63.676-0.0188z"/>
 <g id="layer2" style="display:none" transform="translate(148.5 -54.67)">
  <rect id="rect3745" style="opacity:.9;filter:url(#filter3174);fill:url(#ButtonShadow-1)" rx="6" ry="6" height="85" width="86" y="7" x="5"/>
 </g>
 <path id="path8803-2" style="fill:#800000" d="m33.495 105.36c-1.9969-1.9969-2.9231-3.9239-2.9231-6.0817 0-2.1249-1.1366-4.5456-3.4729-7.3968-4.7215-5.762-8.2323-13.891-9.0935-21.056-0.39385-3.2769-1.5509-7.3269-2.5711-9-1.0203-1.6731-1.8567-4.0995-1.8588-5.392-0.005-2.8475 6.0068-9.15 8.7273-9.15 1.0621 0 2.5606-1.1764 3.3301-2.6142 2.422-4.5256 10.998-11.369 19.045-15.197 4.7421-2.2559 8.1626-4.5657 8.8058-5.9464 1.4306-3.0708 7.1587-5.6924 10.568-4.8366 1.4804 0.37156 3.7461 1.73 5.0349 3.0188 1.5366 1.5365 4.907 2.9136 9.7903 4.0001 7.8093 1.7374 16.9 6.4949 22.242 11.64 1.6762 1.6145 4.0042 2.9354 5.1733 2.9354s3.5102 1.165 5.2024 2.5889c2.5387 2.1362 3.0767 3.3253 3.0767 6.8 0 2.3161-0.45601 4.6671-1.0134 5.2245-0.55735 0.55735-1.1721 4.8099-1.366 9.45-0.4008 9.5875-2.3642 15.389-7.6257 22.533-4.7625 6.4665-4.7959 6.5258-5.476 9.7394-0.33012 1.5599-1.7121 3.948-3.071 5.3069-2.1264 2.1264-3.2706 2.439-8.2093 2.2432-3.1562-0.12519-8.4206 0.52421-11.699 1.4431-6.5766 1.8435-17.757 2.1488-24.203 0.66069-3.2028-0.73938-4.8179-0.6198-7 0.51829-4.4502 2.321-8.1215 1.8606-11.413-1.4313zm41.446-7.1482c3.9008-0.98223 4.3522-1.4368 5.4304-5.4679 1.4544-5.4377 5.4722-7.956 11.421-7.1581 3.642 0.4885 4.0857 0.25823 6.8471-3.5538 5.0853-7.02 8.1889-22.749 4.4888-22.749-0.79433 0-2.7068-1.0862-4.25-2.4138-2.4337-2.0937-2.8058-3.1341-2.8058-7.845 0-3.1111-0.5815-6.1324-1.3612-7.0727-2.0164-2.4316-14.399-8.3678-19.118-9.165-3.5519-0.60009-4.4396-0.35764-6.5997 1.8025-3.6768 3.6768-6.8868 4.131-11.933 1.6884-4.0466-1.9589-4.5546-1.9937-8.0125-0.54892-5.0282 2.1009-12.993 8.0674-15.535 11.637-1.8368 2.5795-1.9481 3.3657-0.91865 6.4851 1.4622 4.4306-0.0151 8.5787-4.0882 11.479-2.4473 1.7426-2.7314 2.4666-2.2462 5.7241 0.76039 5.1051 3.4533 11.087 6.7428 14.979 2.3016 2.723 3.434 3.25 6.9838 3.25 4.3736 0 6.9581 1.8254 9.4583 6.6802 0.61753 1.1991 2.1363 2.3753 3.375 2.6138 4.6228 0.89011 18.014 0.669 22.121-0.36527z"/>
 <path id="path8803" style="fill:#fff" d="m31.923 104.08c-1.9969-1.9969-2.9231-3.9239-2.9231-6.0817 0-2.1249-1.1366-4.5456-3.4729-7.3968-4.7215-5.762-8.2323-13.891-9.0935-21.056-0.39385-3.2769-1.5509-7.3269-2.5711-9-1.0203-1.6731-1.8567-4.0995-1.8588-5.392-0.005-2.8475 6.0068-9.15 8.7273-9.15 1.0621 0 2.5606-1.1764 3.3301-2.6142 2.422-4.5256 10.998-11.369 19.045-15.197 4.7421-2.2559 8.1626-4.5657 8.8058-5.9464 1.4306-3.0708 7.1587-5.6924 10.568-4.8366 1.4804 0.37156 3.7461 1.73 5.0349 3.0188 1.5366 1.5365 4.907 2.9136 9.7903 4.0001 7.8093 1.7374 16.9 6.4949 22.242 11.64 1.674 1.61 4.004 2.931 5.174 2.931 1.1691 0 3.5102 1.165 5.2024 2.5889 2.5387 2.1362 3.0767 3.3253 3.0767 6.8 0 2.3161-0.45601 4.6671-1.0134 5.2245-0.55735 0.55735-1.1721 4.8099-1.366 9.45-0.4008 9.5875-2.3642 15.389-7.6257 22.533-4.7625 6.4665-4.7959 6.5258-5.476 9.7394-0.33012 1.5599-1.7121 3.948-3.071 5.3069-2.1264 2.1264-3.2706 2.439-8.2093 2.2432-3.1562-0.12519-8.4206 0.52421-11.699 1.4431-6.5766 1.8435-17.757 2.1488-24.203 0.66069-3.2028-0.73938-4.8179-0.6198-7 0.51829-4.4502 2.321-8.1215 1.8606-11.413-1.4313zm41.446-7.1482c3.9008-0.98223 4.3522-1.4368 5.4304-5.4679 1.4544-5.4377 5.4722-7.956 11.421-7.1581 3.642 0.4885 4.0857 0.25823 6.8471-3.5538 5.083-7.023 8.193-22.752 4.493-22.752-0.79433 0-2.7068-1.0862-4.25-2.4138-2.4337-2.0937-2.8058-3.1341-2.8058-7.845 0-3.1111-0.5815-6.1324-1.3612-7.0727-2.0164-2.4316-14.399-8.3678-19.118-9.165-3.5519-0.60009-4.4396-0.35764-6.5997 1.8025-3.6768 3.6768-6.8868 4.131-11.933 1.6884-4.0466-1.9589-4.5546-1.9937-8.0125-0.54892-5.0282 2.1009-12.993 8.0674-15.535 11.637-1.8368 2.5795-1.9481 3.3657-0.91865 6.4851 1.4622 4.4306-0.0151 8.5787-4.0882 11.479-2.4473 1.7426-2.7314 2.4666-2.2462 5.7241 0.76039 5.1051 3.4533 11.087 6.7428 14.979 2.3016 2.723 3.434 3.25 6.9838 3.25 4.3736 0 6.9581 1.8254 9.4583 6.6802 0.61753 1.1991 2.1363 2.3753 3.375 2.6138 4.6228 0.89011 18.014 0.669 22.121-0.36527z"/>
</svg>
