<?xml version="1.0" encoding="UTF-8" standalone="no"?>
<!-- Created with Inkscape (http://www.inkscape.org/) -->
<svg id="svg3449" xmlns:rdf="http://www.w3.org/1999/02/22-rdf-syntax-ns#" xmlns="http://www.w3.org/2000/svg" height="128" width="128" version="1.0" xmlns:cc="http://creativecommons.org/ns#" xmlns:xlink="http://www.w3.org/1999/xlink" xmlns:dc="http://purl.org/dc/elements/1.1/">
 <metadata id="metadata56">
  <rdf:RDF>
   <cc:Work rdf:about="">
    <dc:format>image/svg+xml</dc:format>
    <dc:type rdf:resource="http://purl.org/dc/dcmitype/StillImage"/>
    <dc:title/>
   </cc:Work>
  </rdf:RDF>
 </metadata>
 <defs id="defs3451">
  <linearGradient id="linearGradient3514" y2="-9.1034" gradientUnits="userSpaceOnUse" x2="66.492" gradientTransform="matrix(.96826 0 0 .97948 2.179 .16587)" y1="-42.638" x1="67.952">
   <stop id="stop4620" style="stop-color:#37414b" offset="0"/>
   <stop id="stop4622" style="stop-color:#37414b;stop-opacity:0" offset="1"/>
  </linearGradient>
  <linearGradient id="linearGradient3516" y2="-11.847" gradientUnits="userSpaceOnUse" x2="58.98" gradientTransform="matrix(.96826 0 0 .97948 2.179 .16587)" y1="-118.55" x1="57.173">
   <stop id="stop4596" offset="0"/>
   <stop id="stop4598" style="stop-opacity:0" offset="1"/>
  </linearGradient>
  <linearGradient id="linearGradient3519" y2="50.369" gradientUnits="userSpaceOnUse" x2="76.558" gradientTransform="matrix(.96826 0 0 .97948 3.2423 -129.19)" y1="13.164" x1="76.558">
   <stop id="stop3392" style="stop-color:#425e7b" offset="0"/>
   <stop id="stop3394" style="stop-color:#7a91a7" offset="1"/>
  </linearGradient>
  <linearGradient id="linearGradient3521" y2="-8.7399" gradientUnits="userSpaceOnUse" x2="60.217" gradientTransform="matrix(.96826 0 0 .97948 2.179 .16587)" y1="-123.72" x1="60.395">
   <stop id="stop3392-4-8" style="stop-color:#425e7b" offset="0"/>
   <stop id="stop3394-8-0" style="stop-color:#7a91a7" offset="1"/>
  </linearGradient>
  <radialGradient id="radialGradient3349" gradientUnits="userSpaceOnUse" cy="45.647" cx="42.148" gradientTransform="matrix(.94690 0 0 1.139 3.5954 -29.89)" r="58.984">
   <stop id="stop4653" style="stop-color:#9fb6ce" offset="0"/>
   <stop id="stop4655" style="stop-color:#1671b4" offset="1"/>
  </radialGradient>
 </defs>
 <rect id="rect892-2-7-2" ry="29.452" style="stroke:#d3d3d3;stroke-width:9.8448;fill:#37414b" transform="scale(1,-1)" height="116.16" width="116.08" y="-122.08" x="5.9224"/>
 <rect id="rect892" style="stroke:url(#linearGradient3521);stroke-width:.97385;fill:url(#linearGradient3519)" transform="scale(1,-1)" ry="29.296" height="115.54" width="114.22" y="-122.25" x="7.0394"/>
 <rect id="rect892-2" style="stroke:url(#linearGradient3516);stroke-width:.97385;fill:url(#linearGradient3514)" transform="scale(1,-1)" ry="28.993" height="114.35" width="114.22" y="-121.46" x="7.0599"/>
 <path id="rect895" style="fill:url(#radialGradient3349)" d="m30.571 7.0104c-13.128 0.936-22.55 15.04-23.173 23.288-0.050142 0.97378-0.088772 1.9648-0.088772 2.9572v58.419c0 15.229 11.191 27.859 22.318 27.859h67.038c15.69 0 24.318-16.445 24.318-25.859v-64.017c-0.21-5.933-12.29-21.682-25.926-22.618-47.846 0.8653-20.497-0.0256-64.483-0.0256z"/>
 <rect id="rect892-2-7-8" style="opacity:.15891;stroke:#000;stroke-width:4.8445;fill:none" transform="scale(1,-1)" ry="28.993" height="114.35" width="114.22" y="-121.16" x="6.8683"/>
 <rect id="rect892-2-7-1" style="opacity:.15891;stroke:#000;stroke-width:7.7512;fill:none" transform="scale(1,-1)" ry="28.993" height="114.35" width="114.22" y="-121.16" x="6.8686"/>
 <rect id="rect892-2-7-2-9" ry="28.067" style="stroke:#000;stroke-width:1.0489;fill:none" transform="scale(1,-1)" height="112.71" width="114.14" y="-120.31" x="7.0644"/>
 <path id="path1187" style="fill:#fff;fill-opacity:.057143" d="m37.509 10.721c-14.891-4.3296-32.78 19.454-27.93 26.295-0.04334 0.71563-0.07674 1.4439-0.07674 2.1732v10.76c25.898-25.61 66.753-35.478 90.374-39.178-0.22473-0.02628-0.45986-0.03062-0.69067-0.03062-41.576 0.38742-23.653-0.01876-61.677-0.01875z"/>
 <path id="path23662" style="fill:#fff" d="m64.125 32.812c-0.192-0.028-0.374 0.18-0.531 0.282-2.203 1.707-4.43 3.381-6.625 5.094-0.278 0.19-0.57 0.434-0.938 0.374-6.617 0.006-13.223 0.009-19.843 0.032 0.027 4.887-0.023 9.768 0 14.656-0.033 0.375 0.11 0.886-0.313 1.094-1.807 1.38-3.596 2.778-5.406 4.156 0.01 12.742 0.007 25.474 0 38.219 1.76 0.115 3.521-0.008 5.281 0.062 20.395-0.055 40.759 0.027 61.156-0.031 0.013-12.745-0.008-25.505 0.032-38.25-1.828-1.485-3.734-2.858-5.532-4.375-0.052-5.173-0.025-10.356 0-15.531-6.62-0.06-13.26 0.037-19.875-0.063-2.447-1.805-4.803-3.739-7.219-5.593-0.059-0.076-0.123-0.116-0.187-0.126zm-17.031 6.344c5.455 5.388 10.864 10.825 16.281 16.25 5.423-5.42 10.831-10.86 16.281-16.25 3.66 0.015 7.306 0.018 10.969 0 0.075 7.673 0.009 15.356 0.031 23.032-2.622 1.42-5.175 2.951-7.812 4.343-0.018-6.52-0.01-13.045 0-19.562-6.038 6.087-12.138 12.143-18.188 18.219-0.385 0.374-0.758 0.743-1.218 1.031-0.323 0.075-0.497-0.28-0.719-0.438-6-5.997-11.985-11.989-18-17.969 0.142 6.2-0.171 12.423 0.093 18.626-2.66-1.433-5.258-2.952-7.906-4.407 0.025-7.615-0.012-15.229 0-22.843 3.39-0.03 6.798 0.013 10.188-0.032zm21.906 35.719c1.038 0.547 1.886 1.364 2.844 2.031 7.91 5.925 15.831 11.86 23.718 17.813 0.268 0.162 0.372 0.439 0.469 0.719-0.275-0.003-0.541-0.049-0.781-0.157-8.198-5.487-16.446-10.912-24.656-16.375-1.288-0.902-2.633-1.691-3.875-2.656 0.712-0.55 1.509-0.925 2.281-1.375zm-9.75 0.219c0.89 0.347 1.735 0.802 2.5 1.375-8.932 5.99-17.918 11.925-26.875 17.875-0.665 0.447-1.296 0.974-2.094 1.156-0.085-0.648 0.537-0.935 0.969-1.25 8.492-6.398 17-12.764 25.5-19.156z"/>
</svg>
