<?xml version="1.0" encoding="UTF-8" standalone="no"?>
<!-- Created with Inkscape (http://www.inkscape.org/) -->
<svg id="svg3449" xmlns:rdf="http://www.w3.org/1999/02/22-rdf-syntax-ns#" xmlns="http://www.w3.org/2000/svg" height="128" width="128" version="1.0" xmlns:cc="http://creativecommons.org/ns#" xmlns:xlink="http://www.w3.org/1999/xlink" xmlns:dc="http://purl.org/dc/elements/1.1/">
 <metadata id="metadata56">
  <rdf:RDF>
   <cc:Work rdf:about="">
    <dc:format>image/svg+xml</dc:format>
    <dc:type rdf:resource="http://purl.org/dc/dcmitype/StillImage"/>
    <dc:title/>
   </cc:Work>
  </rdf:RDF>
 </metadata>
 <defs id="defs3451">
  <linearGradient id="linearGradient3514" y2="-9.1034" gradientUnits="userSpaceOnUse" x2="66.492" gradientTransform="matrix(.96826 0 0 .97948 2.179 .16587)" y1="-42.638" x1="67.952">
   <stop id="stop4620" style="stop-color:#37414b" offset="0"/>
   <stop id="stop4622" style="stop-color:#37414b;stop-opacity:0" offset="1"/>
  </linearGradient>
  <linearGradient id="linearGradient3516" y2="-11.847" gradientUnits="userSpaceOnUse" x2="58.98" gradientTransform="matrix(.96826 0 0 .97948 2.179 .16587)" y1="-118.55" x1="57.173">
   <stop id="stop4596" offset="0"/>
   <stop id="stop4598" style="stop-opacity:0" offset="1"/>
  </linearGradient>
  <linearGradient id="linearGradient3519" y2="50.369" gradientUnits="userSpaceOnUse" x2="76.558" gradientTransform="matrix(.96826 0 0 .97948 3.2423 -129.19)" y1="13.164" x1="76.558">
   <stop id="stop3392" style="stop-color:#425e7b" offset="0"/>
   <stop id="stop3394" style="stop-color:#7a91a7" offset="1"/>
  </linearGradient>
  <linearGradient id="linearGradient3521" y2="-8.7399" gradientUnits="userSpaceOnUse" x2="60.217" gradientTransform="matrix(.96826 0 0 .97948 2.179 .16587)" y1="-123.72" x1="60.395">
   <stop id="stop3392-4-8" style="stop-color:#425e7b" offset="0"/>
   <stop id="stop3394-8-0" style="stop-color:#7a91a7" offset="1"/>
  </linearGradient>
  <radialGradient id="radialGradient3349" gradientUnits="userSpaceOnUse" cy="45.647" cx="42.148" gradientTransform="matrix(.94690 0 0 1.139 3.5954 -29.89)" r="58.984">
   <stop id="stop44117" style="stop-color:#559b6e" offset="0"/>
   <stop id="stop44119" style="stop-color:#328650" offset="1"/>
  </radialGradient>
  <linearGradient id="linearGradient11406" y2="19.812" gradientUnits="userSpaceOnUse" x2="15.25" gradientTransform="matrix(2.6667 0 0 4.341 -1.4969e-7 -5.0231)" y1="8.4375" x1="12.938">
   <stop id="stop6594-0-2" style="stop-color:#fff;stop-opacity:.27451" offset="0"/>
   <stop id="stop6596-2-5" style="stop-color:#fff;stop-opacity:0" offset="1"/>
  </linearGradient>
  <linearGradient id="linearGradient3840-9" x1="61" xlink:href="#linearGradient3781-1" gradientUnits="userSpaceOnUse" y1="15" gradientTransform="translate(0,36)" x2="67.297" y2="38.502"/>
  <radialGradient id="radialGradient3838-0" cx="32" xlink:href="#linearGradient3754" gradientUnits="userSpaceOnUse" cy="40" r="16" gradientTransform="matrix(1.1875,0,0,1.125,-6,-5)"/>
  <linearGradient id="linearGradient3836" x1="61" xlink:href="#linearGradient3781-1" gradientUnits="userSpaceOnUse" y1="15" gradientTransform="translate(-36,36)" x2="67.297" y2="38.502"/>
  <radialGradient id="radialGradient3834" cx="32" xlink:href="#linearGradient3673" gradientUnits="userSpaceOnUse" cy="26" r="16" gradientTransform="matrix(1.1875,0,0,1.125,-6,-3.25)"/>
  <linearGradient id="linearGradient3791" x1="61" xlink:href="#linearGradient3781-1" gradientUnits="userSpaceOnUse" y1="15" gradientTransform="translate(-36)" x2="67.297" y2="38.502"/>
  <linearGradient id="linearGradient3787" x1="61" xlink:href="#linearGradient3781-1" gradientUnits="userSpaceOnUse" y1="15" x2="67.297" y2="38.502"/>
  <clipPath id="clipPath3613">
   <rect id="rect3615" style="fill:#fff" rx="6" ry="6" height="84" width="84" y="6" x="6"/>
  </clipPath>
  <linearGradient id="linearGradient3613" x1="48" gradientUnits="userSpaceOnUse" y1="20.221" x2="48" y2="138.66">
   <stop id="stop3739" style="stop-color:#fff" offset="0"/>
   <stop id="stop3741" style="stop-color:#fff;stop-opacity:0" offset="1"/>
  </linearGradient>
  <filter id="filter3794" height="1.384" width="1.384" color-interpolation-filters="sRGB" y="-.192" x="-.192">
   <feGaussianBlur id="feGaussianBlur3796" stdDeviation="5.28"/>
  </filter>
  <filter id="filter3174" color-interpolation-filters="sRGB">
   <feGaussianBlur id="feGaussianBlur3176" stdDeviation="1.71"/>
  </filter>
  <linearGradient id="ButtonShadow-4" x1="45.448" gradientUnits="userSpaceOnUse" y1="92.54" gradientTransform="scale(1.0059 .99417)" x2="45.448" y2="7.0165">
   <stop id="stop3750-7" offset="0"/>
   <stop id="stop3752-9" style="stop-opacity:.58824" offset="1"/>
  </linearGradient>
  <linearGradient id="linearGradient3673">
   <stop id="stop3675" style="stop-color:#fff" offset="0"/>
   <stop id="stop3716-7" style="stop-color:#f2f2f2" offset=".73438"/>
   <stop id="stop3677" style="stop-color:#e5e5e5" offset="1"/>
  </linearGradient>
  <linearGradient id="linearGradient3754">
   <stop id="stop3756-2" style="stop-color:#393939" offset="0"/>
   <stop id="stop3762" style="stop-color:#282828" offset=".65625"/>
   <stop id="stop3758" style="stop-color:#161616" offset="1"/>
  </linearGradient>
  <linearGradient id="linearGradient3781-1">
   <stop id="stop3783-5" style="stop-color:#fff" offset="0"/>
   <stop id="stop3785-1" style="stop-color:#fff;stop-opacity:0" offset="1"/>
  </linearGradient>
 </defs>
 <rect id="rect892-2-7-2" ry="29.452" style="stroke:#d3d3d3;stroke-width:9.8448;fill:#37414b" transform="scale(1,-1)" height="116.16" width="116.08" y="-122.08" x="5.9224"/>
 <rect id="rect892" style="stroke:url(#linearGradient3521);stroke-width:.97385;fill:url(#linearGradient3519)" transform="scale(1,-1)" ry="29.296" height="115.54" width="114.22" y="-122.25" x="7.0394"/>
 <rect id="rect892-2" style="stroke:url(#linearGradient3516);stroke-width:.97385;fill:url(#linearGradient3514)" transform="scale(1,-1)" ry="28.993" height="114.35" width="114.22" y="-121.46" x="7.0599"/>
 <path id="rect895" style="fill:url(#radialGradient3349)" d="m33.051 7.2596c-7.969-2.4493-27.013 15.174-25.653 23.038-0.050142 0.97378-0.088772 1.9648-0.088772 2.9572v52.419c0 20.876 10.712 33.859 22.318 33.859h67.038c12.638 0 24.318-11.245 24.318-25.859v-64.017c0.7-10.928-21.283-24.659-25.926-22.618-47.846 0.8653-18.017 0.2236-62.003 0.2236z"/>
 <path id="rect6588" d="m7.2651 40.702c-3.6107-28.823 22.731-33.361 32.668-33.437l55.816 0.735c21.091 2.903 26.611 16.187 24.251 34.728l-112 30.388z" style="fill:url(#linearGradient11406)"/>
 <rect id="rect892-2-7-8" style="opacity:.15891;stroke:#000;stroke-width:4.8445;fill:none" transform="scale(1,-1)" ry="28.993" height="114.35" width="114.22" y="-121.16" x="6.8687"/>
 <rect id="rect892-2-7-1" style="opacity:.15891;stroke:#000;stroke-width:7.7512;fill:none" transform="scale(1,-1)" ry="28.993" height="114.35" width="114.22" y="-121.16" x="6.8687"/>
 <rect id="rect892-2-7-2-9" ry="28.067" style="stroke:#000;stroke-width:1.0489;fill:none" transform="scale(1,-1)" height="112.71" width="114.14" y="-120.31" x="7.0649"/>
 <path id="path1187" style="fill:#fff;fill-opacity:.057143" d="m33.017 7.2319c-23.707 0-26.027 0.6738-25.93 26.295-0.04334 0.71563-0.07674 1.4439-0.07674 2.1732v32.76c18.67-38.321 38.34-51.497 90.374-61.179-0.225-0.026-0.46-0.0303-0.691-0.0303-41.576 0.3874-25.652-0.0188-63.676-0.0188z"/>
 <g id="layer2" style="display:none" transform="matrix(1.2166 0 0 1.2299 5.6049 3.1187)">
  <rect id="rect3745" style="opacity:.9;filter:url(#filter3174);fill:url(#ButtonShadow-4)" rx="6" ry="6" height="85" width="86" y="7" x="5"/>
 </g>
 <g id="layer5" transform="matrix(1.2166 0 0 1.2299 5.6049 3.1187)">
  <rect id="rect3171" style="opacity:.1;filter:url(#filter3794);stroke:#fff;stroke-linecap:round;stroke-width:.5;fill:url(#linearGradient3613)" clip-path="url(#clipPath3613)" rx="12" ry="12" height="66" width="66" y="15" x="15"/>
 </g>
 <g id="layer4" transform="matrix(1.2166 0 0 1.2299 5.6049 3.1187)">
  <path id="path3752" style="opacity:.05;color:#000000" d="m30 12.125c-10.398 0-18.875 8.4771-18.875 18.875 0 8.5536 5.7703 15.712 13.594 18-7.8234 2.2879-13.594 9.4464-13.594 18 0 10.398 8.4771 18.875 18.875 18.875 8.5536 0 15.712-5.7703 18-13.594 2.2879 7.8234 9.4464 13.594 18 13.594 10.398 0 18.875-8.4771 18.875-18.875 0-8.5536-5.7703-15.712-13.594-18 7.824-2.288 13.594-9.446 13.594-18 0-10.398-8.477-18.875-18.875-18.875-8.554 0-15.712 5.77-18 13.594-2.288-7.824-9.446-13.594-18-13.594zm18 24.125c1.793 6.148 6.602 10.957 12.75 12.75-6.148 1.793-10.957 6.602-12.75 12.75-1.793-6.148-6.602-10.957-12.75-12.75 6.148-1.793 10.957-6.602 12.75-12.75z"/>
  <path id="path3748" style="opacity:.1;color:#000000" d="m30 12.906c-9.9805 0-18.094 8.1133-18.094 18.094 0 9.6393 7.584 17.47 17.094 18-9.5097 0.52954-17.094 8.3607-17.094 18 0 9.9805 8.1133 18.094 18.094 18.094 9.6393 0 17.47-7.584 18-17.094 0.52954 9.5097 8.3607 17.094 18 17.094 9.9805 0 18.094-8.1133 18.094-18.094 0-9.639-7.584-17.47-17.094-18 9.51-0.53 17.094-8.361 17.094-18 0-9.98-8.114-18.094-18.094-18.094-9.639 0-17.47 7.584-18 17.094-0.53-9.51-8.361-17.094-18-17.094zm18 19.094c0.51079 9.1731 7.8269 16.489 17 17-9.173 0.511-16.489 7.827-17 17-0.511-9.173-7.827-16.489-17-17 9.173-0.511 16.489-7.827 17-17z"/>
  <path id="path3744" style="opacity:.15;color:#000000" d="m30 14c-9.3814 0-17 7.6186-17 17s7.6186 17 17 17 17-7.6186 17-17-7.6186-17-17-17zm36 0c-9.3814 0-17 7.6186-17 17s7.6186 17 17 17 17-7.6186 17-17c0-9.381-7.619-17-17-17zm-36 36c-9.3814 0-17 7.6186-17 17s7.6186 17 17 17 17-7.6186 17-17-7.6186-17-17-17zm36 0c-9.3814 0-17 7.6186-17 17s7.6186 17 17 17 17-7.6186 17-17-7.6186-17-17-17z"/>
  <path id="path3729" style="opacity:.3;color:#000000" d="m30 15c-8.8366 0-16 7.1634-16 16s7.1634 16 16 16 16-7.1634 16-16-7.1634-16-16-16zm36 0c-8.8366 0-16 7.1634-16 16s7.1634 16 16 16 16-7.1634 16-16c0-8.837-7.163-16-16-16zm-36 36c-8.8366 0-16 7.1634-16 16s7.1634 16 16 16 16-7.1634 16-16-7.1634-16-16-16zm36 0c-8.8366 0-16 7.1634-16 16s7.1634 16 16 16 16-7.1634 16-16-7.1634-16-16-16z"/>
  <path id="path3663" style="color:#000000;fill:url(#radialGradient3834)" transform="matrix(1,0,0,-1,-2,62)" d="m48 32a16 16 0 1 1 -32 0 16 16 0 1 1 32 0z"/>
  <path id="path3667" style="color:#000000;fill:url(#radialGradient3838-0)" transform="translate(34,-2)" d="m48 32a16 16 0 1 1 -32 0 16 16 0 1 1 32 0z"/>
  <path id="path3764" style="opacity:.2;color:#000000;fill:url(#linearGradient3787)" d="m66 15c-8.2843 0-15 6.7157-15 15 0 3.6087 1.283 6.912 3.4062 9.5-1.525-2.296-2.406-5.038-2.406-8 0-8.008 6.492-14.5 14.5-14.5 7.753 0 14.073 6.096 14.469 13.75 0.012-0.251 0.031-0.496 0.031-0.75 0-8.284-6.716-15-15-15z"/>
  <path id="path3789" style="color:#000000;fill:url(#linearGradient3791)" d="m30 15c-8.2843 0-15 6.7157-15 15 0 3.6087 1.283 6.912 3.4062 9.5-1.525-2.296-2.406-5.038-2.406-8 0-8.008 6.492-14.5 14.5-14.5 7.753 0 14.073 6.096 14.469 13.75 0.012-0.251 0.031-0.496 0.031-0.75 0-8.284-6.716-15-15-15z"/>
  <path id="path3795" style="opacity:.1;color:#000000" d="m30 14c-8.8366 0-16 7.1634-16 16s7.1634 16 16 16 16-7.1634 16-16-7.1634-16-16-16zm0 0.96875c8.3201 0 15.031 6.7111 15.031 15.031 0 8.3201-6.7111 15.031-15.031 15.031-8.3201 0-15.031-6.7111-15.031-15.031 0-8.3201 6.7111-15.031 15.031-15.031z"/>
  <path id="path3802" style="opacity:.2;color:#000000" d="m66 14c-8.8366 0-16 7.1634-16 16s7.1634 16 16 16 16-7.1634 16-16-7.1634-16-16-16zm0 0.96875c8.3201 0 15.031 6.7111 15.031 15.031 0 8.3201-6.7111 15.031-15.031 15.031-8.3201 0-15.031-6.7111-15.031-15.031 0-8.3201 6.7111-15.031 15.031-15.031z"/>
  <g id="g3829" transform="translate(36)">
   <path id="path3804" style="color:#000000;fill:url(#radialGradient3834)" transform="matrix(1,0,0,-1,-2,98)" d="m48 32a16 16 0 1 1 -32 0 16 16 0 1 1 32 0z"/>
   <path id="path3810" style="color:#000000;fill:url(#linearGradient3836)" d="m30 51c-8.2843 0-15 6.7157-15 15 0 3.6087 1.283 6.912 3.4062 9.5-1.525-2.296-2.406-5.038-2.406-8 0-8.008 6.492-14.5 14.5-14.5 7.753 0 14.073 6.096 14.469 13.75 0.012-0.251 0.031-0.496 0.031-0.75 0-8.284-6.716-15-15-15z"/>
   <path id="path3812" style="opacity:.1;color:#000000" d="m30 50c-8.8366 0-16 7.1634-16 16s7.1634 16 16 16 16-7.1634 16-16-7.1634-16-16-16zm0 0.96875c8.3201 0 15.031 6.7111 15.031 15.031 0 8.3201-6.7111 15.031-15.031 15.031-8.3201 0-15.031-6.7111-15.031-15.031 0-8.3201 6.7111-15.031 15.031-15.031z"/>
  </g>
  <g id="g3824" transform="translate(-36)">
   <path id="path3806" style="color:#000000;fill:url(#radialGradient3838-0)" transform="translate(34,34)" d="m48 32a16 16 0 1 1 -32 0 16 16 0 1 1 32 0z"/>
   <path id="path3808" style="opacity:.2;color:#000000;fill:url(#linearGradient3840-9)" d="m66 51c-8.2843 0-15 6.7157-15 15 0 3.6087 1.283 6.912 3.4062 9.5-1.525-2.296-2.406-5.038-2.406-8 0-8.008 6.492-14.5 14.5-14.5 7.753 0 14.073 6.096 14.469 13.75 0.012-0.251 0.031-0.496 0.031-0.75 0-8.284-6.716-15-15-15z"/>
   <path id="path3814" style="opacity:.2;color:#000000" d="m66 50c-8.8366 0-16 7.1634-16 16s7.1634 16 16 16 16-7.1634 16-16-7.1634-16-16-16zm0 0.96875c8.3201 0 15.031 6.7111 15.031 15.031 0 8.3201-6.7111 15.031-15.031 15.031-8.3201 0-15.031-6.7111-15.031-15.031 0-8.3201 6.7111-15.031 15.031-15.031z"/>
  </g>
 </g>
</svg>
