<?xml version="1.0" encoding="UTF-8" standalone="no"?>
<!-- Created with Inkscape (http://www.inkscape.org/) -->
<svg id="svg3449" xmlns:rdf="http://www.w3.org/1999/02/22-rdf-syntax-ns#" xmlns="http://www.w3.org/2000/svg" height="128" width="128" version="1.0" xmlns:cc="http://creativecommons.org/ns#" xmlns:xlink="http://www.w3.org/1999/xlink" xmlns:dc="http://purl.org/dc/elements/1.1/">
 <metadata id="metadata56">
  <rdf:RDF>
   <cc:Work rdf:about="">
    <dc:format>image/svg+xml</dc:format>
    <dc:type rdf:resource="http://purl.org/dc/dcmitype/StillImage"/>
    <dc:title/>
   </cc:Work>
  </rdf:RDF>
 </metadata>
 <defs id="defs3451">
  <linearGradient id="linearGradient3514" y2="-9.1034" gradientUnits="userSpaceOnUse" x2="66.492" gradientTransform="matrix(.96826 0 0 .97948 2.179 .16587)" y1="-42.638" x1="67.952">
   <stop id="stop4620" style="stop-color:#37414b" offset="0"/>
   <stop id="stop4622" style="stop-color:#37414b;stop-opacity:0" offset="1"/>
  </linearGradient>
  <linearGradient id="linearGradient3516" y2="-11.847" gradientUnits="userSpaceOnUse" x2="58.98" gradientTransform="matrix(.96826 0 0 .97948 2.179 .16587)" y1="-118.55" x1="57.173">
   <stop id="stop4596" offset="0"/>
   <stop id="stop4598" style="stop-opacity:0" offset="1"/>
  </linearGradient>
  <linearGradient id="linearGradient3519" y2="50.369" gradientUnits="userSpaceOnUse" x2="76.558" gradientTransform="matrix(.96826 0 0 .97948 3.2423 -129.19)" y1="13.164" x1="76.558">
   <stop id="stop3392" style="stop-color:#425e7b" offset="0"/>
   <stop id="stop3394" style="stop-color:#7a91a7" offset="1"/>
  </linearGradient>
  <linearGradient id="linearGradient3521" y2="-8.7399" gradientUnits="userSpaceOnUse" x2="60.217" gradientTransform="matrix(.96826 0 0 .97948 2.179 .16587)" y1="-123.72" x1="60.395">
   <stop id="stop3392-4-8" style="stop-color:#425e7b" offset="0"/>
   <stop id="stop3394-8-0" style="stop-color:#7a91a7" offset="1"/>
  </linearGradient>
  <radialGradient id="radialGradient3349" gradientUnits="userSpaceOnUse" cy="45.647" cx="42.148" gradientTransform="matrix(.94690 0 0 1.139 3.5954 -29.89)" r="58.984">
   <stop id="stop2699-5" style="stop-color:#bbb" offset="0"/>
   <stop id="stop2701-7" style="stop-color:#838383" offset="1"/>
  </radialGradient>
 </defs>
 <rect id="rect892-2-7-2" ry="29.452" style="stroke:#d3d3d3;stroke-width:9.8448;fill:#37414b" transform="scale(1,-1)" height="116.16" width="116.08" y="-122.08" x="5.9224"/>
 <rect id="rect892" style="stroke:url(#linearGradient3521);stroke-width:.97385;fill:url(#linearGradient3519)" transform="scale(1,-1)" ry="29.296" height="115.54" width="114.22" y="-122.25" x="7.0394"/>
 <rect id="rect892-2" style="stroke:url(#linearGradient3516);stroke-width:.97385;fill:url(#linearGradient3514)" transform="scale(1,-1)" ry="28.993" height="114.35" width="114.22" y="-121.46" x="7.0599"/>
 <path id="rect895" style="fill:url(#radialGradient3349)" d="m26.571 7.0104c-4.7037 0-18.55 16.911-19.173 23.287-0.050142 0.97378-0.088772 1.9648-0.088772 2.9572v58.419c0 15.229 11.191 27.859 22.318 27.859h67.038c15.69 0 24.318-16.445 24.318-25.859v-64.017c-0.21-5.933-21.655-22.618-25.926-22.618-47.846 0.8653-24.497-0.0256-68.483-0.0256z"/>
 <rect id="rect892-2-7-8" style="opacity:.15891;stroke:#000;stroke-width:4.8445;fill:none" transform="scale(1,-1)" ry="28.993" height="114.35" width="114.22" y="-121.16" x="6.8683"/>
 <rect id="rect892-2-7-1" style="opacity:.15891;stroke:#000;stroke-width:7.7512;fill:none" transform="scale(1,-1)" ry="28.993" height="114.35" width="114.22" y="-121.16" x="6.8686"/>
 <rect id="rect892-2-7-2-9" ry="28.067" style="stroke:#000;stroke-width:1.0489;fill:none" transform="scale(1,-1)" height="112.71" width="114.14" y="-120.31" x="7.0644"/>
 <path id="path1187" style="fill:#fff;fill-opacity:.057143" d="m37.509 10.721c-14.891-4.3296-32.78 19.454-27.93 26.295-0.04334 0.71563-0.07674 1.4439-0.07674 2.1732v10.76c25.898-25.61 66.753-35.478 90.374-39.178-0.22473-0.02628-0.45986-0.03062-0.69067-0.03062-41.576 0.38742-23.653-0.01876-61.677-0.01875z"/>
 <g id="layer1-6" transform="matrix(2.9119 0 0 2.9119 -7.3313 -2926.8)">
  <path id="path6" style="opacity:.1;stroke-width:2.6667;fill:#030303" d="m37.323 1024h-1.0857c-0.29303 0-0.63185-0.2434-0.72502-0.5207-0.0052-0.014-0.67381-1.6302-0.67381-1.6302-0.1376-0.2763-0.07106-0.6869 0.13603-0.8939l0.76766-0.7664c0.1764-0.1763 0.27385-0.4114 0.27385-0.662 0-0.2508-0.09745-0.4858-0.27385-0.662l-3.0226-3.0175c-0.17641-0.1761-0.41191-0.2732-0.66299-0.2733-0.25107 0-0.48658 0.097-0.66298 0.2733l-0.76765 0.7663c-0.20708 0.2066-0.61854 0.2733-0.88044 0.1427-0.01466-0.01-1.6332-0.6741-1.6332-0.6741-0.29235-0.098-0.53621-0.4366-0.53621-0.7292v-1.0842c-0.000704-0.5164-0.42139-0.9364-0.93842-0.9364h-4.2743c-0.51726 0-0.93797 0.42-0.93797 0.9364v1.0842c0 0.2926-0.24385 0.6308-0.52154 0.7238-0.01444 0.01-1.633 0.6727-1.633 0.6727-0.27679 0.1374-0.68825 0.07-0.89533-0.136l-0.76765-0.7662c-0.17663-0.1763-0.41214-0.2733-0.66321-0.2733s-0.48658 0.097-0.66298 0.2733l-3.0228 3.0175c-0.36567 0.3652-0.36567 0.959 0 1.324l0.76765 0.7664c0.20686 0.2068 0.27363 0.6176 0.14279 0.879-0.0068 0.014-0.67539 1.6306-0.67539 1.6306-0.09858 0.2918-0.43718 0.535-0.73021 0.535h-0.80442c-0.51703 0.0002-1.2193 0.4202-1.2193 0.9366v4.267c0 0.5165 0.42071 0.9364 0.93797 0.9364h1.086c0.29303 0 0.63185 0.2433 0.72479 0.5207 0.0054 0.014 0.67404 1.6303 0.67404 1.6303 0.1376 0.2764 0.07083 0.6869-0.13603 0.8938l-0.76765 0.7664c-0.36567 0.365-0.36567 0.959 0 1.324l3.0228 3.0176c0.17641 0.1761 0.41191 0.2734 0.66298 0.2734 0.2513 0 0.4868-0.097 0.66321-0.2734l0.76765-0.7664c0.20708-0.2066 0.61854-0.2732 0.88044-0.1426 0.01466 0.01 1.6332 0.6743 1.6332 0.6743 0.29213 0.098 0.53598 0.4365 0.53598 0.729v1.0839c0 0.5164 0.42071 0.9364 0.93797 0.9364h4.2741c0.51703 0 0.93774-0.42 0.93774-0.9364v-1.0839c0-0.2925 0.24385-0.6309 0.52177-0.7238 0.01444-0.01 1.633-0.6727 1.633-0.6727 0.27679-0.1374 0.68847-0.071 0.89533 0.1358l0.76765 0.7664c0.1764 0.1761 0.41191 0.2734 0.66298 0.2734s0.48658-0.097 0.66298-0.2734l3.0226-3.0176c0.17641-0.1761 0.27386-0.4112 0.27386-0.6618 0-0.2508-0.09745-0.4859-0.27386-0.662l-0.76765-0.7664c-0.20708-0.2067-0.27363-0.6175-0.14279-0.8789 0.0068-0.014 0.67539-1.6305 0.67539-1.6305 0.09858-0.2917 0.43718-0.535 0.73021-0.535h1.0857c0.51726 0 0.93797-0.4201 0.93797-0.9365v-4.2675c0.000704-0.5164-0.42003-0.9364-0.93729-0.9364zm-12.823 7.0542c-2.2005 0-3.991-1.7873-3.991-3.9842 0-2.1968 1.7904-3.9844 3.991-3.9844 2.2008 0 3.9908 1.7876 3.9908 3.9844 0 2.1972-1.79 3.9842-3.9908 3.9842z"/>
  <path id="path8" style="stroke-linejoin:round;stroke:#888;stroke-linecap:round;stroke-width:.63972;fill:#fff" d="m37.319 1024h-1.0857c-0.29303 0-0.63186-0.2439-0.72502-0.5216-0.0052-0.014-0.67381-1.6327-0.67381-1.6327-0.1376-0.2768-0.07106-0.688 0.13603-0.8952l0.76765-0.7677c0.1764-0.1765 0.27386-0.4121 0.27386-0.6632 0-0.2509-0.09745-0.4864-0.27386-0.663l-3.0226-3.0226c-0.1764-0.1765-0.41191-0.2738-0.66298-0.2738s-0.48658 0.097-0.66298 0.2738l-0.76765 0.7676c-0.20708 0.2069-0.61854 0.2736-0.88044 0.1427-0.01466-0.01-1.6332-0.6751-1.6332-0.6751-0.29235-0.099-0.53621-0.4374-0.53621-0.7304v-1.086c-0.000704-0.5172-0.42138-0.938-0.93842-0.938h-4.2743c-0.51726 0-0.93797 0.4208-0.93797 0.938v1.086c0 0.293-0.24385 0.632-0.52154 0.7249-0.01444 0.01-1.633 0.6739-1.633 0.6739-0.27679 0.1376-0.68825 0.071-0.89533-0.136l-0.76766-0.7676c-0.17663-0.1765-0.41214-0.2738-0.66321-0.2738s-0.48658 0.097-0.66298 0.2738l-3.0228 3.0226c-0.36567 0.3657-0.36567 0.9606 0 1.3262l0.76765 0.7677c0.20686 0.207 0.27363 0.6184 0.14279 0.8806-0.0068 0.014-0.67539 1.6332-0.67539 1.6332-0.09858 0.2923-0.43718 0.536-0.73021 0.536h-0.80442c-0.51703-0.0003-1.2193 0.4205-1.2193 0.9377v4.2742c0 0.5171 0.42071 0.9378 0.93797 0.9378h1.0859c0.29303 0 0.63186 0.2436 0.72479 0.5216 0.0054 0.014 0.67404 1.6327 0.67404 1.6327 0.1376 0.2768 0.07083 0.6883-0.13603 0.8954l-0.76765 0.7678c-0.36567 0.3655-0.36567 0.9607 0 1.3262l3.0228 3.0225c0.1764 0.1766 0.41191 0.2738 0.66298 0.2738 0.2513 0 0.4868-0.097 0.66321-0.2738l0.76765-0.7674c0.20708-0.2071 0.61854-0.274 0.88044-0.1428 0.01466 0.01 1.6332 0.6752 1.6332 0.6752 0.29213 0.099 0.53598 0.4371 0.53598 0.7303v1.0857c0 0.5172 0.42071 0.938 0.93797 0.938h4.2741c0.51703 0 0.93774-0.4208 0.93774-0.938v-1.0857c0-0.2932 0.24385-0.632 0.52177-0.7252 0.01444-0.01 1.633-0.6739 1.633-0.6739 0.27679-0.1376 0.68848-0.07 0.89533 0.136l0.76765 0.7676c0.1764 0.1766 0.41191 0.2739 0.66298 0.2739s0.48658-0.097 0.66298-0.2739l3.0226-3.0225c0.17641-0.1763 0.27386-0.4119 0.27386-0.663s-0.09745-0.4867-0.27386-0.663l-0.76766-0.7678c-0.20708-0.2069-0.27363-0.6186-0.14279-0.8803 0.0068-0.014 0.67539-1.6332 0.67539-1.6332 0.09858-0.2926 0.43718-0.5362 0.73021-0.5362h1.0857c0.51726 0 0.93797-0.4207 0.93797-0.9378v-4.2742c0.000704-0.5172-0.42003-0.938-0.93729-0.938zm-12.823 7.3744c-2.3873 0-4.3294-1.9388-4.3294-4.3219 0-2.3834 1.942-4.3221 4.3294-4.3221 2.3871 0 4.3291 1.9387 4.3291 4.3221 0 2.3831-1.942 4.3219-4.3291 4.3219z"/>
  <path id="path28" style="stroke:#909090;stroke-width:.63972;fill:#fff" d="m24.5 1018.7c-4.7244 0-8.5681 3.8372-8.5681 8.5538s3.8436 8.5538 8.5681 8.5538c4.7244 0 8.5681-3.8372 8.5681-8.5538s-3.8436-8.5538-8.5681-8.5538zm0 14.845c-3.4806 0-6.3017-2.8162-6.3017-6.2912s2.8212-6.2912 6.3017-6.2912c3.4806 0 6.3017 2.8164 6.3017 6.2912s-2.8212 6.2912-6.3017 6.2912z"/>
  <path id="path35" style="fill:#fff" d="m24.5 1019.7c-4.0693 0-7.368 3.2932-7.368 7.3557 0 4.0626 3.2987 7.3558 7.368 7.3558s7.368-3.2932 7.368-7.3558c0-4.0625-3.2987-7.3557-7.368-7.3557zm0 12.22c-2.6912 0-4.8724-2.1777-4.8724-4.8643 0-2.6867 2.1812-4.8642 4.8724-4.8642 2.691 0 4.8724 2.1775 4.8724 4.8642 0 2.6866-2.1814 4.8643-4.8724 4.8643z"/>
 </g>
</svg>
