<?xml version="1.0" encoding="UTF-8" standalone="no"?>
<!-- Created with Inkscape (http://www.inkscape.org/) -->
<svg id="svg3449" xmlns:rdf="http://www.w3.org/1999/02/22-rdf-syntax-ns#" xmlns="http://www.w3.org/2000/svg" height="128" width="128" version="1.0" xmlns:cc="http://creativecommons.org/ns#" xmlns:xlink="http://www.w3.org/1999/xlink" xmlns:dc="http://purl.org/dc/elements/1.1/">
 <metadata id="metadata56">
  <rdf:RDF>
   <cc:Work rdf:about="">
    <dc:format>image/svg+xml</dc:format>
    <dc:type rdf:resource="http://purl.org/dc/dcmitype/StillImage"/>
    <dc:title/>
   </cc:Work>
  </rdf:RDF>
 </metadata>
 <defs id="defs3451">
  <linearGradient id="linearGradient4311-5">
   <stop id="stop4313-5" offset="0"/>
   <stop id="stop4315-3" style="stop-opacity:0" offset="1"/>
  </linearGradient>
  <linearGradient id="linearGradient19043" y2="36.95" xlink:href="#linearGradient4311-5" gradientUnits="userSpaceOnUse" x2="23.064" gradientTransform="matrix(2.9251 0 0 -2.9147 -6.9042 136.74)" y1="12.978" x1="23.064"/>
  <linearGradient id="linearGradient19046" y2="36.95" xlink:href="#linearGradient4311-5" gradientUnits="userSpaceOnUse" x2="23.064" gradientTransform="matrix(2.9251 0 0 2.9147 -6.9042 -9.0356)" y1="12.978" x1="23.064"/>
  <linearGradient id="linearGradient19049" y2="4.9969" gradientUnits="userSpaceOnUse" x2="19.927" gradientTransform="matrix(2.9251 0 0 2.9147 -6.9042 -9.0356)" y1="44.949" x1="19.927">
   <stop id="stop3246-8" style="stop-color:#505050" offset="0"/>
   <stop id="stop3248-4" style="stop-color:#8e8e8e" offset="1"/>
  </linearGradient>
  <radialGradient id="radialGradient19057" gradientUnits="userSpaceOnUse" cy="45.647" cx="42.148" gradientTransform="matrix(.96253 0 0 1.157 2.6376 -31.38)" r="58.984">
   <stop id="stop2699-5-7" style="stop-color:#bbb" offset="0"/>
   <stop id="stop2701-7-61" style="stop-color:#838383" offset="1"/>
  </radialGradient>
  <linearGradient id="linearGradient19060" y2="-9.1034" gradientUnits="userSpaceOnUse" x2="66.492" gradientTransform="matrix(.98425 0 0 .99502 1.1978 1.1845)" y1="-42.638" x1="67.952">
   <stop id="stop4620-8" style="stop-color:#37414b" offset="0"/>
   <stop id="stop4622-5" style="stop-color:#37414b;stop-opacity:0" offset="1"/>
  </linearGradient>
  <linearGradient id="linearGradient19062" y2="-11.847" gradientUnits="userSpaceOnUse" x2="58.98" gradientTransform="matrix(.98425 0 0 .99502 1.1978 1.1845)" y1="-118.55" x1="57.173">
   <stop id="stop4596-4" offset="0"/>
   <stop id="stop4598-9" style="stop-opacity:0" offset="1"/>
  </linearGradient>
  <linearGradient id="linearGradient19065" y2="50.369" gradientUnits="userSpaceOnUse" x2="76.558" gradientTransform="matrix(.98425 0 0 .99502 2.2787 -130.23)" y1="13.164" x1="76.558">
   <stop id="stop3392-31" style="stop-color:#425e7b" offset="0"/>
   <stop id="stop3394-4" style="stop-color:#7a91a7" offset="1"/>
  </linearGradient>
  <linearGradient id="linearGradient19067" y2="-8.7399" gradientUnits="userSpaceOnUse" x2="60.217" gradientTransform="matrix(.98425 0 0 .99502 1.1978 1.1845)" y1="-123.72" x1="60.395">
   <stop id="stop3392-4-8-6" style="stop-color:#425e7b" offset="0"/>
   <stop id="stop3394-8-0-0" style="stop-color:#7a91a7" offset="1"/>
  </linearGradient>
 </defs>
 <rect id="rect892-2-7-2-8" ry="29.92" style="stroke:#d3d3d3;stroke-width:10.004;fill:#37414b" transform="scale(1,-1)" height="118" width="118" y="-123" x="5.003"/>
 <rect id="rect892-5" style="stroke:url(#linearGradient19067);stroke-width:.98962;fill:url(#linearGradient19065)" transform="scale(1,-1)" ry="29.761" height="117.37" width="116.1" y="-123.17" x="6.1384"/>
 <rect id="rect892-2-6" style="stroke:url(#linearGradient19062);stroke-width:.98962;fill:url(#linearGradient19060)" transform="scale(1,-1)" ry="29.453" height="116.16" width="116.1" y="-122.38" x="6.1593"/>
 <path id="rect895-4" style="fill:url(#radialGradient19057)" d="m25.992 6.1056c-4.7814 0-18.856 17.18-19.49 23.657-0.050969 0.98923-0.090237 1.996-0.090237 3.0041v59.346c0 15.471 11.376 28.301 22.687 28.301h68.145c15.949 0 24.72-16.706 24.72-26.27v-65.033c-0.21-6.026-22.012-22.975-26.354-22.975-48.636 0.8787-24.901-0.0264-69.614-0.0264z"/>
 <rect id="rect892-2-7-8-4" style="opacity:.15891;stroke:#000;stroke-width:4.9229;fill:none" transform="scale(1,-1)" ry="29.453" height="116.16" width="116.1" y="-122.07" x="5.9645"/>
 <rect id="rect892-2-7-1-3" style="opacity:.15891;stroke:#000;stroke-width:7.8767;fill:none" transform="scale(1,-1)" ry="29.453" height="116.16" width="116.1" y="-122.07" x="5.9649"/>
 <rect id="rect892-2-7-2-9-9" ry="28.512" style="stroke:#000;stroke-width:1.0658;fill:none" transform="scale(1,-1)" height="114.5" width="116.02" y="-121.2" x="6.1639"/>
 <path id="path1187" style="fill:#fff;fill-opacity:.057143" d="m37.111 9.8753c-15.137-4.3984-33.32 19.763-28.391 26.712-0.044055 0.72699-0.078007 1.4668-0.078007 2.2077v10.931c26.326-26.016 67.855-36.042 91.868-39.8-0.23-0.0272-0.47-0.0316-0.704-0.0316-42.262 0.3936-24.043-0.0191-62.695-0.0191z"/>
 <path id="path3576-9" style="opacity:.4;fill:#fff" d="m60.373 31.771c-1.6205 0-2.9251 1.3-2.9251 2.9147v6.5582c-2.9409 0.6673-5.6597 1.8119-8.1354 3.3702l-4.6619-4.6454c-1.1459-1.1418-2.9675-1.1418-4.1134 0l-4.1134 4.0989c-1.1459 1.1418-1.1459 2.957 0 4.0989l4.6619 4.6454c-1.5638 2.467-2.7125 5.1761-3.3821 8.1066h-6.5815c-1.6205 0-2.9251 1.3-2.9251 2.9147v5.8295c0 1.6148 1.3046 2.9147 2.9251 2.9147h6.5815c0.66967 2.9305 1.8183 5.6396 3.3821 8.1066l-4.6619 4.6454c-1.1459 1.1418-1.1459 2.957 0 4.0989l4.1134 4.0989c1.1459 1.1418 2.9675 1.1418 4.1134 0l4.6619-4.6454c2.4757 1.5583 5.1945 2.7029 8.1354 3.3702v6.5582c0 1.6148 1.3046 2.9147 2.9251 2.9147h5.8502c1.6205 0 2.9251-1.3 2.9251-2.9147v-6.5582c2.9409-0.6673 5.6597-1.8119 8.1354-3.3702l4.6619 4.6454c1.1459 1.1418 2.9675 1.1418 4.1134 0l4.1134-4.0989c1.1459-1.1418 1.1459-2.957 0-4.0989l-4.6619-4.6454c1.5638-2.467 2.7125-5.1761 3.3821-8.1066h6.5815c1.6205 0 2.9251-1.3 2.9251-2.9147v-5.8295c0-1.6148-1.3046-2.9147-2.9251-2.9147h-6.5815c-0.66967-2.9305-1.8183-5.6396-3.3821-8.1066l4.6619-4.6454c1.1459-1.1418 1.1459-2.957 0-4.0989l-4.1134-4.0989c-1.1459-1.1418-2.9675-1.1418-4.1134 0l-4.6619 4.6454c-2.4757-1.5583-5.1945-2.7029-8.1354-3.3702v-6.5582c0-1.6148-1.3046-2.9147-2.9251-2.9147h-5.8502zm2.9251 23.318c6.4586-0.000003 11.7 5.2232 11.7 11.659s-5.2418 11.659-11.7 11.659c-6.4586 0.000003-11.7-5.2232-11.7-11.659 0.000003-6.4357 5.2418-11.659 11.7-11.659z"/>
 <path id="rect3557-1" style="fill:url(#linearGradient19049)" d="m60.373 28.856c-1.6205 0-2.9251 1.3-2.9251 2.9147v6.5582c-2.9409 0.6673-5.6597 1.8119-8.1354 3.3702l-4.6619-4.6454c-1.1459-1.1418-2.9675-1.1418-4.1134 0l-4.1134 4.0989c-1.1459 1.1418-1.1459 2.957 0 4.0989l4.6619 4.6454c-1.5638 2.467-2.7125 5.1761-3.3821 8.1066h-6.5815c-1.6205 0-2.9251 1.3-2.9251 2.9147v5.8295c0 1.6148 1.3046 2.9147 2.9251 2.9147h6.5815c0.66967 2.9305 1.8183 5.6396 3.3821 8.1066l-4.6619 4.6454c-1.1459 1.1418-1.1459 2.957 0 4.0989l4.1134 4.0989c1.1459 1.1418 2.9675 1.1418 4.1134 0l4.6619-4.6454c2.4757 1.5583 5.1945 2.7029 8.1354 3.3702v6.5582c0 1.6148 1.3046 2.9147 2.9251 2.9147h5.8502c1.6205 0 2.9251-1.3 2.9251-2.9147v-6.5582c2.9409-0.6673 5.6597-1.8119 8.1354-3.3702l4.6619 4.6454c1.1459 1.1418 2.9675 1.1418 4.1134 0l4.1134-4.0989c1.1459-1.1418 1.1459-2.957 0-4.0989l-4.6619-4.6454c1.5638-2.467 2.7125-5.1761 3.3821-8.1066h6.5815c1.6205 0 2.9251-1.3 2.9251-2.9147v-5.8295c0-1.6148-1.3046-2.9147-2.9251-2.9147h-6.5815c-0.66967-2.9305-1.8183-5.6396-3.3821-8.1066l4.6619-4.6454c1.1459-1.1418 1.1459-2.957 0-4.0989l-4.1134-4.0989c-1.1459-1.1418-2.9675-1.1418-4.1134 0l-4.6619 4.6454c-2.4757-1.5583-5.1945-2.7029-8.1354-3.3702v-6.5582c0-1.6148-1.3046-2.9147-2.9251-2.9147h-5.8502zm2.9251 23.318c6.4586-0.000003 11.7 5.2232 11.7 11.659s-5.2418 11.659-11.7 11.659c-6.4586 0.000002-11.7-5.2232-11.7-11.659 0.000003-6.4357 5.2418-11.659 11.7-11.659z"/>
 <path id="path4324-4" style="opacity:.1;stroke-width:2.9199;stroke:url(#linearGradient19046);fill:none" d="m60.373 30.313c-2.1921 0.29391-1.2626 2.8979-1.4625 4.4253-0.1911 1.4741 0.41163 3.1656-0.35616 4.4963-2.0561 1.1498-4.6815 1.2591-6.7132 2.6165-1.0772 0.64066-2.7577 2.0323-3.8149 0.56977-1.647-1.546-3.1178-3.3029-4.8818-4.7088-1.8126-0.3295-2.711 1.7629-3.9886 2.7217-1.0441 1.0802-3.2787 2.6098-1.4457 4.0952 1.524 1.6416 3.3279 3.0739 4.684 4.8417 0.29721 1.9929-1.9228 3.4553-2.2333 5.3966-0.99465 1.3804-0.34468 4.0118-2.2009 4.6639-2.4691 0.13586-4.9716-0.12807-7.4277 0.13699-1.4955 1.0437-0.64925 3.1439-0.87274 4.7133 0.04066 1.4939-0.48906 4.1611 1.8597 3.9232 2.2384 0.08846 4.5274-0.17398 6.7361 0.12487 1.6362 1.2471 1.1067 3.8974 2.3072 5.524 0.28274 1.6283 2.6401 3.0714 1.6396 4.7872-1.6608 1.7971-3.5803 3.3759-5.1172 5.2742-0.33067 1.8061 1.7692 2.7014 2.7313 3.9744 1.084 1.0404 2.619 3.2671 4.1098 1.4406 1.6474-1.5186 3.0848-3.3161 4.8589-4.6674 2-0.29616 3.4676 1.916 5.4158 2.2254 1.3853 0.99113 4.0261 0.34346 4.6804 2.1931 0.13634 2.4604-0.12853 4.954 0.13748 7.4014 1.0474 1.4902 3.155 0.64695 4.73 0.86966 1.4992-0.04052 4.1758 0.48732 3.9372-1.8531 0.08878-2.2305-0.1746-4.5114 0.12531-6.7122 1.2515-1.6304 3.9113-1.1028 5.5436-2.2991 1.6341-0.28174 3.0823-2.6308 4.8042-1.6338 1.8034 1.6549 3.3879 3.5676 5.293 5.0991 1.8126 0.3295 2.711-1.7629 3.9886-2.7217 1.0441-1.0802 3.2787-2.6098 1.4457-4.0952-1.524-1.6416-3.3279-3.0739-4.684-4.8417-0.29721-1.9929 1.9228-3.4553 2.2333-5.3966 0.99465-1.3804 0.34468-4.0118 2.2009-4.6639 2.4691-0.13586 4.9716 0.12807 7.4277-0.13699 1.4955-1.0437 0.64925-3.1439 0.87275-4.7133-0.04067-1.4939 0.48906-4.1611-1.8597-3.9232-2.2384-0.08846-4.5274 0.17398-6.7361-0.12487-1.6362-1.2471-1.1067-3.8974-2.3072-5.524-0.28274-1.6283-2.6401-3.0714-1.6396-4.7872 1.6608-1.7971 3.5803-3.3759 5.1172-5.2742 0.33067-1.8061-1.7692-2.7014-2.7313-3.9744-1.084-1.0404-2.619-3.2671-4.1098-1.4406-1.6474 1.5186-3.0848 3.3161-4.8589 4.6674-2 0.29616-3.4676-1.916-5.4158-2.2254-1.3853-0.99113-4.0261-0.34346-4.6804-2.1931-0.13634-2.4604 0.12853-4.954-0.13748-7.4014-1.0474-1.4902-3.155-0.64695-4.73-0.86966h-2.4746z"/>
 <path id="path4309-7" style="opacity:.1;stroke-width:2.9199;stroke:url(#linearGradient19043);fill:none" d="m63.298 76.985c7.759 0.225 14.429-7.488 13.01-15.105-0.965-7.651-9.569-13.076-16.909-10.535-7.205 2.035-11.373 10.8-8.224 17.612 1.987 4.7635 6.9295 8.0843 12.123 8.028z"/>
 <g id="g17122" transform="matrix(.3 0 0 .3 -42.285 -16.731)">
  <path id="path17100" d="m347.15 192.97c18.24-1.16 36.81 4.49 51.3 15.63 15.17 11.42 25.77 28.69 29.18 47.36 2.78 15.92 0.77 32.76-6.41 47.3-7.38 15.35-20.01 28.12-35.3 35.62-14.04 7.11-30.35 9.41-45.86 7.06-19.98-2.99-38.51-14.33-50.35-30.68-7.66-10.6-12.93-23.11-14.26-36.17-2.56-19.55 3.02-40.01 15.03-55.63 13.28-17.75 34.52-29.26 56.67-30.49m0.49 21.13c-17.82 1.1-34.56 11.6-43.69 26.87-7.64 12.46-9.89 28-6.42 42.16 3.37 14.4 12.91 27.17 25.58 34.75 13.12 7.98 29.63 10.06 44.35 5.74 12.21-3.49 23.12-11.32 30.32-21.78 6.94-9.79 10.45-21.9 9.93-33.88-0.26-17.33-9.52-34.07-23.72-43.9-10.46-7.42-23.59-11.03-36.35-9.96z"/>
  <path id="path17106" d="m284.79 326.1c1.07-1.17 2.15-2.33 3.23-3.49 4.69 5.37 9.77 10.48 15.68 14.52-1.2 1.22-2.41 2.45-3.6 3.68-5.1-4.91-10.2-9.81-15.31-14.71z"/>
  <path id="path17108" d="m268.53 335.57c2.79-2.89 5.72-5.85 9.56-7.27 1.48-0.08 2.23 1.52 3.31 2.29 5.5 5.26 10.89 10.65 16.58 15.7-0.36 3.49-2.63 6.31-5.01 8.72-21.85 21.82-43.66 43.68-65.51 65.49-3.97 3.94-10.05 6.12-15.53 4.32-5.79-1.6-10.4-6.78-11.13-12.77-0.83-5.21 1.55-10.42 5.26-13.99 20.8-20.85 41.66-41.65 62.47-62.49z"/>
 </g>
</svg>
