<?xml version="1.0" encoding="UTF-8" standalone="no"?>
<!-- Created with Inkscape (http://www.inkscape.org/) -->
<svg id="svg3449" xmlns:rdf="http://www.w3.org/1999/02/22-rdf-syntax-ns#" xmlns="http://www.w3.org/2000/svg" height="128" width="128" version="1.0" xmlns:cc="http://creativecommons.org/ns#" xmlns:xlink="http://www.w3.org/1999/xlink" xmlns:dc="http://purl.org/dc/elements/1.1/">
 <metadata id="metadata56">
  <rdf:RDF>
   <cc:Work rdf:about="">
    <dc:format>image/svg+xml</dc:format>
    <dc:type rdf:resource="http://purl.org/dc/dcmitype/StillImage"/>
    <dc:title/>
   </cc:Work>
  </rdf:RDF>
 </metadata>
 <defs id="defs3451">
  <linearGradient id="linearGradient3514" y2="-9.1034" gradientUnits="userSpaceOnUse" x2="66.492" gradientTransform="matrix(.96826 0 0 .97948 2.179 .16587)" y1="-42.638" x1="67.952">
   <stop id="stop4620" style="stop-color:#37414b" offset="0"/>
   <stop id="stop4622" style="stop-color:#37414b;stop-opacity:0" offset="1"/>
  </linearGradient>
  <linearGradient id="linearGradient3516" y2="-11.847" gradientUnits="userSpaceOnUse" x2="58.98" gradientTransform="matrix(.96826 0 0 .97948 2.179 .16587)" y1="-118.55" x1="57.173">
   <stop id="stop4596" offset="0"/>
   <stop id="stop4598" style="stop-opacity:0" offset="1"/>
  </linearGradient>
  <linearGradient id="linearGradient3519" y2="50.369" gradientUnits="userSpaceOnUse" x2="76.558" gradientTransform="matrix(.96826 0 0 .97948 3.2423 -129.19)" y1="13.164" x1="76.558">
   <stop id="stop3392" style="stop-color:#425e7b" offset="0"/>
   <stop id="stop3394" style="stop-color:#7a91a7" offset="1"/>
  </linearGradient>
  <linearGradient id="linearGradient3521" y2="-8.7399" gradientUnits="userSpaceOnUse" x2="60.217" gradientTransform="matrix(.96826 0 0 .97948 2.179 .16587)" y1="-123.72" x1="60.395">
   <stop id="stop3392-4-8" style="stop-color:#425e7b" offset="0"/>
   <stop id="stop3394-8-0" style="stop-color:#7a91a7" offset="1"/>
  </linearGradient>
  <filter id="filter3174-1" color-interpolation-filters="sRGB">
   <feGaussianBlur id="feGaussianBlur3176-0" stdDeviation="1.71"/>
  </filter>
  <linearGradient id="ButtonShadow-9" x1="45.448" gradientUnits="userSpaceOnUse" y1="92.54" gradientTransform="scale(1.0059 .99417)" x2="45.448" y2="7.0165">
   <stop id="stop3750-6" offset="0"/>
   <stop id="stop3752-7" style="stop-opacity:.58824" offset="1"/>
  </linearGradient>
  <filter id="filter3174-9" color-interpolation-filters="sRGB">
   <feGaussianBlur id="feGaussianBlur3176-5" stdDeviation="1.71"/>
  </filter>
 </defs>
 <rect id="rect892-2-7-2" ry="29.452" style="stroke:#d3d3d3;stroke-width:9.8448;fill:#37414b" transform="scale(1,-1)" height="116.16" width="116.08" y="-122.08" x="5.9224"/>
 <rect id="rect892" style="stroke:url(#linearGradient3521);stroke-width:.97385;fill:url(#linearGradient3519)" transform="scale(1,-1)" ry="29.296" height="115.54" width="114.22" y="-122.25" x="7.0394"/>
 <rect id="rect892-2" style="stroke:url(#linearGradient3516);stroke-width:.97385;fill:url(#linearGradient3514)" transform="scale(1,-1)" ry="28.993" height="114.35" width="114.22" y="-121.46" x="7.0599"/>
 <g id="g5190" transform="matrix(.96343 0 0 .96624 270.94 -14.795)">
  <path id="path5284" style="fill:#fdf4ea" d="m-253.92 140.04c-9.4591-2.9519-16.686-10.591-19.643-20.765-1.4207-4.8871-1.6057-10.477-1.3392-40.461 0.30116-33.878 0.3697-34.921 2.6136-39.79 1.2674-2.75 4.5394-7.0985 7.2712-9.6632 8.2242-7.7214 8.9743-7.8368 50.943-7.8368h36.662l6.1403 3.0683c7.2852 3.6405 12.44 9.2894 14.896 16.322 1.5839 4.537 1.7836 9.1414 1.7836 41.109 0 35.782-0.0144 36.032-2.3818 41.27-3.2007 7.0821-11.558 14.689-18.356 16.708-7.036 2.0895-71.914 2.1208-78.589 0.0379z"/>
  <path id="path5282" style="fill:#fde8ce" d="m-253.1 139.61c-8.5498-2.6785-17.003-11.013-19.418-19.147-2.2105-7.4435-2.3271-70.126-0.14399-77.38 3.0857-10.253 10.686-17.352 21.558-20.138 5.1131-1.3099 11.563-1.5059 39.313-1.1949 24.836 0.27839 34.078 0.71412 36.697 1.73 9.1583 3.5533 15.871 10.64 18.569 19.602 2.134 7.0909 2.0701 69.925-0.0785 77.16-1.7938 6.0405-8.813 14.334-14.878 17.578-4.0076 2.144-5.0698 2.205-41.613 2.3871-20.625 0.10276-38.628-0.16651-40.006-0.59839z"/>
  <path id="path5280" style="fill:#fde2b2" d="m-252.92 139.07c-8.9201-2.8444-16.105-9.9424-19.279-19.045-1.7562-5.0373-1.6099-70.508 0.1723-77.099 1.6331-6.0392 7.5991-13.234 13.933-16.802l5.5-3.0988h38 38l5.3327 2.954c6.2955 3.4873 9.6204 7.1613 12.862 14.212l2.3752 5.1664-0.28503 37.334c-0.25997 34.053-0.44857 37.663-2.146 41.077-2.6652 5.3617-9.0759 11.605-14.483 14.104-4.4583 2.0608-6.1664 2.1614-40.156 2.3648-27.89 0.16695-36.428-0.0833-39.827-1.1671zm31.16-63.972c0.76254-1.9871-2.0649-4.2418-3.5087-2.7979-1.3808 1.3808-0.34634 4.2248 1.5368 4.2248 0.78341 0 1.6708-0.6421 1.9719-1.4269z"/>
  <path id="path5278" style="fill:#fcd6ad" d="m-250.6 139.61c-8.769-2.2304-16.381-8.4921-20.142-16.57-2.3102-4.9611-2.3382-5.4389-2.3479-40.089-0.008-28.384 0.27803-36.038 1.5001-40.153 2.001-6.738 8.8075-14.273 15.711-17.393 5.2565-2.3754 5.4361-2.3856 41.279-2.3422 35.538 0.04302 36.068 0.07366 41.279 2.3858 6.8954 3.0591 13.698 10.571 15.711 17.349 1.2221 4.1152 1.508 11.769 1.5001 40.153-0.01 34.649-0.0377 35.129-2.3476 40.089-2.7401 5.8842-10.717 13.464-16.274 15.463-2.9686 1.0682-11.899 1.4479-38.369 1.6314-18.975 0.13154-35.85-0.1042-37.5-0.52388zm28.834-64.518c0.76254-1.9871-2.0649-4.2418-3.5087-2.7979-1.3808 1.3808-0.34634 4.2248 1.5368 4.2248 0.78341 0 1.6708-0.6421 1.9719-1.4269z"/>
  <path id="path5276" style="fill:#fcca8d" d="m-256.1 136.95c-6.8644-3.1867-10.444-6.5291-13.843-12.927l-2.6568-5v-37-37l2.811-5.7242c3.2993-6.7188 9.0995-12.046 15.484-14.221 6.7428-2.2975 72.668-2.2975 79.411 0 6.3842 2.1753 12.184 7.5027 15.484 14.221l2.811 5.7242v37 37l-2.9682 5.3588c-1.6325 2.9473-4.7224 6.8604-6.8666 8.6957-7.2455 6.2019-9.093 6.4466-48.593 6.4357l-35.572-0.01-5.5-2.5533zm34.334-61.854c0.76254-1.9871-2.0649-4.2418-3.5087-2.7979-1.3808 1.3808-0.34634 4.2248 1.5368 4.2248 0.78341 0 1.6708-0.6421 1.9719-1.4269z"/>
  <path id="path5274" style="fill:#fdbb87" d="m-253.39 138.1c-9.8884-3.5892-16.653-11.207-18.697-21.056-1.6795-8.0902-0.39776-68.617 1.5818-74.696 2.0747-6.3718 8.1826-13.029 14.625-15.94 5.1958-2.3479 5.8694-2.3936 38.788-2.6352 20.508-0.15048 35.508 0.162 38.677 0.80572 8.9412 1.8162 18.004 10.329 20.377 19.14 0.62541 2.3226 1.0949 18.087 1.1644 39.096 0.13153 39.769 0.15352 39.63-7.5157 47.536-8.6039 8.8698-7.3286 8.6368-48.703 8.8974-28.962 0.18241-37.284-0.0547-40.297-1.1484zm31.631-63.008c0.76254-1.9871-2.0649-4.2418-3.5087-2.7979-1.3808 1.3808-0.34634 4.2248 1.5368 4.2248 0.78341 0 1.6708-0.6421 1.9719-1.4269z"/>
  <path id="path5272" style="fill:#fcc970" d="m-251.6 138.15c-9.1317-2.9566-14.906-7.8565-18.421-15.631-1.9222-4.2514-2.0358-6.4655-2.0566-40.072-0.0247-40.047 0.1773-41.465 7.0155-49.233 2.2382-2.5427 6.1304-5.4297 9.1749-6.8055 5.2646-2.3789 5.4471-2.3894 41.788-2.3894 40.285 0 39.881-0.05552 47.361 6.5121 2.0435 1.7942 4.9358 5.338 6.4273 7.8751l2.7118 4.6128 0.29606 37.396 0.29606 37.396-2.6022 5.3187c-2.9879 6.107-9.6016 12.382-15.163 14.387-5.4646 1.9696-71.031 2.5112-76.826 0.63457zm29.834-63.058c0.76254-1.9871-2.0649-4.2418-3.5087-2.7979-1.3808 1.3808-0.34634 4.2248 1.5368 4.2248 0.78341 0 1.6708-0.6421 1.9719-1.4269z"/>
  <path id="path5270" style="fill:#fcc158" d="m-251.6 138.15c-9.1317-2.9566-14.906-7.8565-18.421-15.631-1.9133-4.2318-2.0359-6.4792-2.0566-37.701-0.0128-19.303 0.41343-35.231 1.0181-38.05 0.57205-2.6673 2.5125-7.3017 4.312-10.299 2.6307-4.381 4.4219-6.037 9.1393-8.4495l5.8674-3.0006 36.495-0.20277c34.615-0.19232 36.736-0.099 41.178 1.8118 5.5352 2.3812 10.892 7.6461 14.133 13.891 2.3031 4.4377 2.3397 5.0035 2.6431 40.872l0.30765 36.372-2.6138 5.3424c-2.9983 6.1282-9.606 12.403-15.175 14.41-5.4646 1.9696-71.031 2.5112-76.826 0.63457zm29.834-63.058c0.76254-1.9871-2.0649-4.2418-3.5087-2.7979-1.3808 1.3808-0.34634 4.2248 1.5368 4.2248 0.78341 0 1.6708-0.6421 1.9719-1.4269z"/>
  <path id="path5268" style="fill:#fcac6c" d="m-251.6 138.15c-9.4649-3.0645-15.859-8.7664-18.972-16.92-1.5853-4.1511-1.7123-7.9618-1.3131-39.404 0.38684-30.47 0.66381-35.338 2.2222-39.058 0.97919-2.3375 2.1327-4.25 2.5634-4.25 0.43066 0 1.0603-1.1048 1.3992-2.455 0.85468-3.4053 5.9202-6.9082 13.601-9.4052 5.6919-1.8505 8.3026-2.0659 21-1.7326 7.975 0.2093 20.064 0.42832 26.865 0.48672l12.365 0.10618-0.71258 5.7032c-0.63834 5.1091-0.54932 5.5678 0.85455 4.4026 0.86191-0.71532 2.8182-3.317 4.3474-5.7815 2.7387-4.414 2.8497-4.4746 7.4246-4.0596 10.361 0.93998 19.978 10.734 21.867 22.269 0.53735 3.2815 0.9796 20.39 0.98279 38.02l0.006 32.054-2.5839 5.1852c-2.9943 6.0088-9.5977 12.225-15.09 14.204-5.4646 1.9696-71.031 2.5112-76.826 0.63457zm29.834-63.058c0.76254-1.9871-2.0649-4.2418-3.5087-2.7979-1.3808 1.3808-0.34634 4.2248 1.5368 4.2248 0.78341 0 1.6708-0.6421 1.9719-1.4269z"/>
  <path id="path5266" style="fill:#afafaf" d="m-254.85 136.55c-6.9922-3.1738-11.035-6.8999-13.969-12.874l-2.7747-5.6502v-35c0-31.541 0.18115-35.47 1.8327-39.75 1.008-2.6125 2.1967-4.75 2.6416-4.75 0.44489 0 1.0862-1.1048 1.4251-2.455 0.85468-3.4053 5.9202-6.9082 13.601-9.4052 5.6919-1.8505 8.3026-2.0659 21-1.7326 7.975 0.2093 20.064 0.42832 26.865 0.48672l12.365 0.10618-0.71258 5.7032c-0.63834 5.1091-0.54932 5.5678 0.85455 4.4026 0.86191-0.71532 2.8182-3.317 4.3474-5.7815 2.7387-4.414 2.8497-4.4746 7.4246-4.0596 10.374 0.94118 20.004 10.758 21.86 22.285 0.52869 3.2828 0.8137 20.365 0.63337 37.96-0.28486 27.794-0.5592 32.548-2.0909 36.239-2.4348 5.867-11.166 13.667-16.922 15.116-2.9468 0.742-16.58 1.1282-39.318 1.1139-32.236-0.0203-35.122-0.16468-39.064-1.954zm33.09-61.451c0.76254-1.9871-2.0649-4.2418-3.5087-2.7979-1.3808 1.3808-0.34634 4.2248 1.5368 4.2248 0.78341 0 1.6708-0.6421 1.9719-1.4269z"/>
  <path id="path5264" style="fill:#fbba53" d="m-254.85 136.55c-6.9922-3.1738-11.035-6.8999-13.969-12.874l-2.7747-5.6502v-35c0-31.541 0.18115-35.47 1.8327-39.75 1.008-2.6125 2.1967-4.75 2.6416-4.75 0.44489 0 1.0862-1.1048 1.4251-2.455 0.85468-3.4053 5.9202-6.9082 13.601-9.4052 5.6919-1.8505 8.3026-2.0659 21-1.7326 7.975 0.2093 20.064 0.42832 26.865 0.48672l12.365 0.10618-0.71258 5.7032c-0.63834 5.1091-0.54932 5.5678 0.85455 4.4026 0.86191-0.71532 2.8182-3.317 4.3474-5.7815 2.7387-4.414 2.8497-4.4746 7.4246-4.0596 10.374 0.94118 20.004 10.758 21.86 22.285 0.52869 3.2828 0.8137 20.365 0.63337 37.96-0.28486 27.794-0.5592 32.548-2.0909 36.239-2.4348 5.867-11.166 13.667-16.922 15.116-2.9468 0.742-16.58 1.1282-39.318 1.1139-32.236-0.0203-35.122-0.16468-39.064-1.954zm33.928-58.679c2.2692-2.0536 2.3248-4.1394 0.17375-6.5163-2.2344-2.469-6.0064-2.3299-7.3994 0.27299-0.95136 1.7776-0.69663 2.5487 1.6519 5 3.2527 3.3951 3.2073 3.3849 5.5738 1.2433z"/>
  <path id="path5262" style="fill:#fbb647" d="m-254.85 136.55c-6.9922-3.1738-11.035-6.8999-13.969-12.874l-2.7747-5.6502 0.18667-33.402c0.17428-31.184 0.98859-42.161 3.2302-43.547 0.39378-0.24337 2.7111 0.9056 5.1495 2.5533 2.4385 1.6477 5.7836 3.7097 7.4336 4.5824l3 1.5866-1.9645-2.3868c-1.0805-1.3127-3.9828-4.5184-6.4496-7.1238l-4.4851-4.737 2.8867-3.013c3.3569-3.5039 5.0678-3.7075 8.5125-1.013 1.375 1.0755 3.565 1.9655 4.8666 1.9778 2.4362 0.02289 2.6056-1.5874 0.65503-6.2278-0.65673-1.5624-0.0403-1.75 5.7494-1.75 5.5935 0 6.7008 0.30932 8.0545 2.25l1.5695 2.25 0.0524-2.25c0.0491-2.1076 0.48284-2.25 6.8516-2.25h6.7991l1.2656 3.5 1.2656 3.5h10.524 10.524l-0.53845 3.75c-0.29614 2.0625-1.0481 5.1921-1.6709 6.9547-0.62287 1.7626-0.97581 4.0126-0.7843 5 0.22391 1.1545 3.0025-2.5772 7.7846-10.455 8.4574-13.932 8.8417-14.142 17.75-9.7031 5.3188 2.6505 12.103 10.228 14.285 15.956 1.8633 4.8911 2.0801 69.66 0.25438 75.998-1.9804 6.8748-10.84 15.654-17.486 17.327-3.1279 0.78762-16.086 1.1655-39.464 1.1507-32.236-0.0203-35.122-0.16468-39.064-1.954zm33.928-58.679c2.2692-2.0536 2.3248-4.1394 0.17375-6.5163-2.2344-2.469-6.0064-2.3299-7.3994 0.27299-0.95136 1.7776-0.69663 2.5487 1.6519 5 3.2527 3.3951 3.2073 3.3849 5.5738 1.2433z"/>
  <path id="path5260" style="fill:#fcb13d" d="m-254.85 136.55c-6.9922-3.1738-11.035-6.8999-13.969-12.874l-2.7747-5.6502 0.13323-29.228c0.0733-16.076 0.43834-31.263 0.81127-33.75l0.67805-4.5215h6.567c5.5152 0 7.4369 0.49769 11.998 3.1073 2.9871 1.709 5.6528 2.8856 5.9238 2.6145 0.56966-0.56966-7.8817-10.829-12.487-15.159-3.6008-3.3852-4.0215-5.5629-1.0745-5.5629 3.2976 0 7.0761 2.4641 12.916 8.423 4.9898 5.0913 7.7194 6.5584 9.2865 4.9914 0.32211-0.32211-0.72789-3.6724-2.3333-7.4452-3.6796-8.647-3.7021-9.9711-0.16899-9.9623 2.0671 0.0051 3.3625 0.93635 5.2164 3.75 1.3565 2.0587 3.3309 4.8682 4.3876 6.2432l1.9212 2.5-0.63928-5.6899c-0.61541-5.4774 0.6349-8.8738 1.9781-5.3734 0.32996 0.85986 1.6007 1.5634 2.824 1.5634 1.3488 0 2.7505 0.98378 3.562 2.5 0.83971 1.569 2.206 2.5 3.669 2.5 2.5947 0 5.02 2.179 7.4469 6.6908 1.2266 2.2803 2.5439 3.1546 5.4676 3.6291 4.929 0.79987 7.1434-0.64402 11.489-7.4918 4.3195-6.8061 5.5756-7.7575 10.294-7.7963 3.3811-0.02781 3.801 0.21934 3.3436 1.9682-0.5938 2.2707 1.2117 2.6473 4.4312 0.92431 1.8685-1 1.9233-0.91207 0.77836 1.25-0.67737 1.2791-2.2864 3.7182-3.5757 5.4201s-2.3441 3.6719-2.3441 4.3778c0 2.1308 7.4266 0.36212 13.076-3.1142 3.677-2.2625 5.3659-2.8158 6.1627-2.019 1.4861 1.4861 2.5001 25.663 2.2086 52.661-0.19494 18.057-0.54453 22.761-1.9505 26.248-2.3598 5.8525-11.068 13.654-16.872 15.116-2.9468 0.742-16.58 1.1282-39.318 1.1139-32.236-0.0203-35.122-0.16468-39.064-1.954zm33.928-58.679c2.2692-2.0536 2.3248-4.1394 0.17375-6.5163-2.2344-2.469-6.0064-2.3299-7.3994 0.27299-0.95136 1.7776-0.69663 2.5487 1.6519 5 3.2527 3.3951 3.2073 3.3849 5.5738 1.2433z"/>
  <path id="path5258" style="fill:#faab43" d="m-254.85 136.55c-6.9922-3.1738-11.035-6.8999-13.969-12.874l-2.7747-5.6502 0.13323-29.228c0.0733-16.076 0.43834-31.263 0.81127-33.75l0.67805-4.5215h6.567c5.5152 0 7.4369 0.49769 11.998 3.1073 2.9871 1.709 5.6479 2.8905 5.9128 2.6256 0.26497-0.26497-0.74674-2.0008-2.2482-3.8573l-2.73-3.3756 3.8764 3.5c3.5561 3.2108 3.735 3.2728 2.1659 0.75-1.6296-2.6199-1.6243-2.75 0.11253-2.75 1.0027 0 2.363 0.54 3.023 1.2 0.93333 0.93333 1.2 0.82222 1.2-0.5 0-1.5475 1.3231-2.0959 4.75-1.9686 0.6875 0.02553 1.25-0.80358 1.25-1.8425 0-2.5816 2.7561-2.3862 5.0946 0.36111 1.8347 2.1554 1.8307 2.0399-0.095-2.75-1.1801-2.9352-1.4303-4.2554-0.60593-3.197 1.0527 1.3515 1.535 1.4767 1.9264 0.5 0.34789-0.8683 0.5484-0.74089 0.601 0.3819 0.0434 0.9267 0.52565 2.8598 1.0716 4.2958 0.95883 2.5219 1.0568 2.5497 2.8729 0.8151 1.0341-0.98769 2.624-3.2583 3.533-5.0458 2.6788-5.2675 6.7332-3.9658 10.717 3.4408 1.2189 2.266 2.547 3.1551 5.4059 3.619 2.0845 0.33827 4.3857 0.28168 5.1138-0.12576 2.2011-1.2318 9.3644-0.14481 9.3644 1.421 0 0.76723 0.49815 1.395 1.107 1.395 0.64042 0 0.82728 0.73758 0.44336 1.75-0.36499 0.9625 1.3869-0.25619 3.893-2.7082 2.5062-2.452 4.5566-3.857 4.5566-3.1222 0 1.0043 1.0551 1.179 4.25 0.70348l4.25-0.63254-3.5 3.0327-3.5 3.0327 4.8989-2.528c2.9938-1.5449 6.5601-2.528 9.1705-2.528 4.006 0 4.316 0.20205 4.986 3.25 0.3929 1.7875 0.80372 16.525 0.91294 32.75 0.24015 35.676 0.0159 36.888-8.3454 45.077-4.2281 4.1412-6.8935 5.8793-10.351 6.75-3.1279 0.78762-16.086 1.1655-39.464 1.1507-32.236-0.0203-35.122-0.16468-39.064-1.954zm33.928-58.679c2.2692-2.0536 2.3248-4.1394 0.17375-6.5163-2.2344-2.469-6.0064-2.3299-7.3994 0.27299-0.95136 1.7776-0.69663 2.5487 1.6519 5 3.2527 3.3951 3.2073 3.3849 5.5738 1.2433z"/>
  <path id="path5256" style="fill:#fba738" d="m-254.85 136.55c-6.8584-3.1131-11.022-6.8717-13.708-12.374-3.4455-7.058-3.676-10.364-2.8-40.15l0.76472-26 2.5 0.1229c1.375 0.0676 5.2 1.1404 8.5 2.384 6.4768 2.4408 21.51 3.5126 21.489 1.5321-0.006-0.57147-1.7984-3.289-3.9835-6.039-3.004-3.7806-3.5994-5.0811-2.4413-5.3326 0.84233-0.18292 2.1665 0.19439 2.9425 0.83845 0.84634 0.7024 2.628 0.90374 4.452 0.50312 2.5413-0.55817 3.041-1.1478 3.041-3.5885 0-4.3093 3.0035-3.769 6 1.0795 2.8492 4.61 4 5.0416 4 1.5 0-1.375 0.84375-3.3438 1.875-4.375s2.0438-2.3711 2.25-2.9774c0.20625-0.6063 1.781-1.3825 3.4994-1.7249 3.0659-0.61088 3.1696-0.50375 5.5446 5.7274 2.8621 7.5093 4.2593 8.0589 11.16 4.39 5.3057-2.8211 10.672-3.386 10.672-1.1235 0 0.77917 0.50948 1.5865 1.1322 1.7941 0.78074 0.26025 0.61756 1.3725-0.52568 3.5833-1.6313 3.1546-1.6214 3.2059 0.61782 3.2022 1.2516-0.0021 3.766-0.91239 5.5876-2.023 9.3797-5.7186 14.671-7.9733 18.712-7.9733 4.5423 0 5.4312 1.1599 5.4622 7.1276 0.0176 3.3806-0.29629 3.5975-14.268 9.8605-6.4801 2.9047-11.59 5.4736-11.355 5.7086 0.23497 0.23497 5.8779-1.0221 12.54-2.7934 6.662-1.7713 12.312-3.0212 12.556-2.7775 0.2437 0.2437 0.51206 11.903 0.59636 25.909 0.13216 21.957-0.0826 26.051-1.5589 29.714-2.3587 5.8523-11.067 13.654-16.871 15.116-2.9468 0.742-16.58 1.1282-39.318 1.1139-32.236-0.0203-35.122-0.16468-39.064-1.954zm33.928-58.679c2.2692-2.0536 2.3248-4.1394 0.17375-6.5163-2.2344-2.469-6.0064-2.3299-7.3994 0.27299-0.95136 1.7776-0.69663 2.5487 1.6519 5 3.2527 3.3951 3.2073 3.3849 5.5738 1.2433z"/>
  <path id="path5254" style="fill:#fa9a44" d="m-254.85 136.55c-10.327-4.6875-15.996-12.646-16.894-23.718-0.55497-6.8364 0.93331-41.922 1.8157-42.805 0.47428-0.47428 9.7502 0.4175 19.29 1.8545 0.525 0.07908 0.975-1.355 1-3.1868 0.0602-4.4084 2.486-6.1212 7.6823-5.4242l4.0338 0.54104-0.33533-5.261c-0.45709-7.1713 1.4008-8.447 7.472-5.1305 5.5102 3.0101 7.7044 2.019 10.179-4.5976 2.2158-5.9237 3.2601-7.2972 5.5483-7.2972 1.2744 0 2.477 1.799 4.1749 6.2454 2.6808 7.0205 4.2498 7.899 9.2747 5.193 4.5402-2.4451 6.3307-1.4418 6.7053 3.7571l0.31016 4.3045 5.6725-0.32913c4.9494-0.28717 5.8178-0.05748 6.8129 1.8018 0.99899 1.8666 1.7219 2.054 5.8275 1.5105l4.6871-0.62047-6.9286 3.8543c-7.028 3.9096-9.2506 6.283-5.8839 6.283 1.0198 0 7.1102-1.2821 13.534-2.8492 9.1501-2.232 11.788-2.567 12.18-1.5465 0.27494 0.71649 0.57022 12.011 0.65618 25.099 0.13401 20.405-0.0881 24.402-1.5587 28.045-2.3628 5.8531-11.072 13.655-16.874 15.116-2.9468 0.742-16.58 1.1282-39.318 1.1139-32.236-0.0203-35.122-0.16468-39.064-1.954zm33.928-58.679c2.2692-2.0536 2.3248-4.1394 0.17375-6.5163-2.2344-2.469-6.0064-2.3299-7.3994 0.27299-0.95136 1.7776-0.69663 2.5487 1.6519 5 3.2527 3.3951 3.2073 3.3849 5.5738 1.2433z"/>
  <path id="path5252" style="fill:#fa9835" d="m-250.1 137.6c-6.3393-1.9822-13.207-6.3822-16.018-10.262-4.2851-5.9154-5.1406-9.8873-4.7913-22.246l0.30887-10.929 9-1.9146c4.95-1.053 9.212-2.122 9.471-2.3755 1.4277-1.397-3.4613-2.3975-10.471-2.1428l-8 0.29064v-8.669c0-4.7679 0.2861-8.954 0.63578-9.3024 0.49771-0.4959 9.6281 0.36788 19.319 1.8276 0.525 0.07908 0.975-1.3351 1-3.1427 0.0569-4.1135 1.8269-5.2774 7.5454-4.9619 4.9054 0.27071 4.855 0.36342 3.5164-6.4747-0.65571-3.3495-0.47472-3.8388 1.8039-4.877 2.1375-0.97392 3.1018-0.80227 6.1798 1.1 5.0019 3.0913 7.5414 1.8181 10.17-5.099 3.5285-9.2863 6.5963-9.0346 9.7774 0.80214 2.0421 6.3146 4.4302 7.503 8.7138 4.3361 4.341-3.2094 6.2433-2.3835 6.8392 2.9697l0.5 4.4911 5.6876-0.30078c4.9273-0.26057 5.8381-0.01968 6.8129 1.8018 0.9809 1.8328 1.7267 2.024 5.8124 1.4897l4.6871-0.61296-6.4766 3.5734c-3.5621 1.9654-7.146 4.2429-7.9643 5.0611-1.317 1.3169-1.2025 1.4877 0.99742 1.4877 1.3668 0 7.7535-1.2852 14.193-2.8559 10.974-2.6769 11.743-2.7443 12.273-1.0745 0.31096 0.97976 0.47279 12.277 0.35962 25.106-0.17367 19.687-0.47795 23.948-1.9513 27.325-2.3301 5.3396-8.294 11.31-13.88 13.894-4.3217 1.9996-6.2881 2.1148-39.051 2.2862-18.975 0.0993-35.625-0.17122-37-0.60117zm87.473-33.991c1.5679-0.61271 0.3359-1.3944-6-3.807-10.912-4.1551-15.514-5.5738-16.119-4.9692-0.77413 0.77413 8.454 5.9255 14.132 7.8891 5.6692 1.9604 5.3349 1.9232 7.9861 0.88717zm-58.302-25.743c2.2692-2.0536 2.3248-4.1394 0.17375-6.5163-2.2344-2.469-6.0064-2.3299-7.3994 0.27299-0.95136 1.7776-0.69663 2.5487 1.6519 5 3.2527 3.3951 3.2073 3.3849 5.5738 1.2433z"/>
  <path id="path5250" style="fill:#fa982b" d="m-250.1 137.6c-6.1801-1.9325-13.21-6.387-15.866-10.053-4.0415-5.5792-5.279-11.104-4.934-22.026l0.30004-9.5 10.803-2.6362c5.9416-1.4499 11.015-2.8482 11.274-3.1073 0.25908-0.25908-2.1272-1.3923-5.3029-2.5183-4.3612-1.5464-7.2176-1.9149-11.674-1.5064l-5.9003 0.54085 0.71274-7.8654c0.39201-4.326 0.92272-8.0754 1.1794-8.332 0.25663-0.25664 5.516 0.46511 11.688 1.6039 6.1715 1.1388 11.583 1.8602 12.025 1.6031 0.44238-0.25704 0.10488-1.5348-0.75-2.8396-3.4111-5.206-1.4562-7.5458 5.9457-7.1166 2.9701 0.17225 3 0.12229 3-5.0128 0-7.239 1.4111-8.3398 6.3251-4.9344 5.536 3.8365 8.4169 2.4053 11.35-5.6382 3.3289-9.1299 6.1014-8.8421 9.2721 0.9626 2.0288 6.2736 4.4338 7.5004 8.6267 4.4004 3.464-2.5611 5.8967-2.7041 6.0124-0.35363 0.0474 0.9625 0.15988 3.325 0.25 5.25l0.16385 3.5 5.6339-0.33486c4.9536-0.29443 5.829-0.05628 7.25 1.9725 2.1954 3.1344 2.1185 3.3684-1.8839 5.7298-3.6636 2.1616-4.0017 2.7932-2.6427 4.9359 0.65865 1.0384 3.5761 0.61054 14.353-2.1051l13.526-3.4085 0.53235 8.5328c0.29279 4.693 0.33641 9.0434 0.0969 9.6674-0.30245 0.78818-2.3221 0.91218-6.6141 0.40611-5.1403-0.6061-7.4872-0.31516-13.965 1.7312-5.795 1.8306-7.7863 2.9053-7.7863 4.2022 0 2.5486 6.6436 7.2402 18.038 12.738 7.406 3.5736 10.173 5.4252 10.59 7.0868 1.023 4.0758-2.3478 11.645-7.3927 16.601-8.4024 8.2542-8.0344 8.1887-47.235 8.4103-18.975 0.10725-35.625-0.15679-37-0.58674zm29.171-59.734c2.2692-2.0536 2.3248-4.1394 0.17375-6.5163-2.2344-2.469-6.0064-2.3299-7.3994 0.27299-0.95136 1.7776-0.69663 2.5487 1.6519 5 3.2527 3.3951 3.2073 3.3849 5.5738 1.2433zm57.329 19.71-4-1.8928 4.25-0.08095c3.6103-0.06876 4.25 0.22008 4.25 1.9191 0 1.1-0.1125 1.9882-0.25 1.9738-0.1375-0.01442-2.05-0.878-4.25-1.9191z"/>
  <path id="path5248" style="fill:#fb8a32" d="m-250.1 137.6c-6.1801-1.9325-13.21-6.387-15.866-10.053-3.9984-5.5196-5.2828-11.122-4.9349-21.526l0.30095-9 7.5-1.7464c4.125-0.96053 9.0408-2.0855 10.924-2.5 5.1366-1.1305 4.7567-2.7588-1.1369-4.8732-3.8965-1.3979-5.368-2.4619-5.5944-4.0453-0.25408-1.7762 0.61225-2.4913 5-4.1269 2.919-1.0881 6.2022-2.1478 7.2958-2.3548 2.7835-0.5268 3.0253-3.3231 0.58369-6.752-3.7493-5.2654-2.186-7.217 5.4278-6.7754 2.9701 0.17225 3 0.12229 3-5.0128 0-7.239 1.4111-8.3398 6.3251-4.9344 5.536 3.8365 8.4169 2.4053 11.35-5.6382 3.3289-9.1299 6.1014-8.8421 9.2721 0.9626 2.0288 6.2736 4.4338 7.5004 8.6267 4.4004 3.464-2.5611 5.8967-2.7041 6.0124-0.35363 0.0474 0.9625 0.15988 3.325 0.25 5.25l0.16385 3.5 5.75-0.3424c5.5331-0.32948 5.75-0.24968 5.75 2.1151 0 1.3516-0.98062 3.7042-2.1792 5.2279-1.976 2.512-2.0459 3.0037-0.75 5.273 0.93737 1.6415 3.4608 3.2294 7.3333 4.6145 10.286 3.6794 9.9816 6.9893-0.97985 10.637-4.1746 1.3892-6.4243 2.6746-6.4243 3.6705 0 1.6005 7.7723 9.192 9.484 9.2633 0.54118 0.0226 4.9402 1.9211 9.7756 4.219 6.4578 3.0689 8.9432 4.7816 9.3624 6.4519 1.0287 4.0985-2.3301 11.659-7.3866 16.626-8.4024 8.2542-8.0344 8.1887-47.235 8.4103-18.975 0.10725-35.625-0.15679-37-0.58674zm29.171-59.734c2.2692-2.0536 2.3248-4.1394 0.17375-6.5163-2.2344-2.469-6.0064-2.3299-7.3994 0.27299-0.95136 1.7776-0.69663 2.5487 1.6519 5 3.2527 3.3951 3.2073 3.3849 5.5738 1.2433z"/>
  <path id="path5246" style="fill:#8e8e8e" d="m-248.4 137.56c-5.0874-0.98491-6.4975-2.4555-4.5647-4.7605 0.81794-0.9755 3.9931-4.6986 7.0559-8.2736 7.1672-8.3657 10.81-13.804 10.81-16.14 0-3.0227-1.7216-2.1547-5.2183 2.631-9.7685 13.37-17.012 22.509-17.84 22.509-0.51469 0-2.7108-1.6036-4.8802-3.5636-5.6944-5.1445-7.5558-10.793-7.5588-22.936l-0.002-10 8-1.8082c17.627-3.9842 18.096-4.3368 9.535-7.1802-3.1669-1.0519-5.1706-2.3633-5.5795-3.6518-0.83749-2.6387-0.58443-2.8284 7.3053-5.478 7.5187-2.5249 8.4148-3.922 5.3114-8.2804-3.7493-5.2654-2.186-7.217 5.4278-6.7754 2.9701 0.17225 3 0.12229 3-5.0128 0-7.239 1.4111-8.3398 6.3251-4.9344 5.536 3.8365 8.4169 2.4053 11.35-5.6382 3.3289-9.1299 6.1014-8.8421 9.2721 0.9626 2.0288 6.2736 4.4338 7.5004 8.6267 4.4004 3.464-2.5611 5.8967-2.7041 6.0124-0.35363 0.0474 0.9625 0.15988 3.325 0.25 5.25l0.16385 3.5 5.75-0.3424c5.5331-0.32948 5.75-0.24968 5.75 2.1151 0 1.3516-0.98062 3.7042-2.1792 5.2279-1.976 2.512-2.0459 3.0037-0.75 5.273 0.93737 1.6415 3.4608 3.2294 7.3333 4.6145 6.8979 2.4673 9.188 5.0653 6.0958 6.9153-1.1 0.65812-4.4689 2.0966-7.4865 3.1966-3.5572 1.2967-5.6116 2.6501-5.8424 3.8489-0.59084 3.0699 4.7036 7.4822 16.579 13.817 10.301 5.4944 11.25 6.2415 11.25 8.8526 0 4.3268-1.5769 7.6191-6.2495 13.048-6.215 7.2213-8.8775 8.1606-25.528 9.0065-7.8528 0.39893-15.165 0.49325-16.25 0.20959-1.6027-0.41913-1.9743-1.3837-1.9832-5.1491-0.006-2.5484-0.29556-6.3556-0.64334-8.4604-0.96244-5.8249-2.3124-2.3912-2.3303 5.9273l-0.0153 7.1002-9.1536 0.64975c-11.187 0.79408-22.067 0.66739-27.147-0.31611zm73.272-19.61c-7.4878-7.6093-13.835-12.894-14.585-12.143-0.81375 0.81375 17.911 18.719 19.576 18.719 0.81425 0-1.4316-2.9592-4.9907-6.5761zm-45.8-40.079c2.2692-2.0536 2.3248-4.1394 0.17375-6.5163-2.2344-2.469-6.0064-2.3299-7.3994 0.27299-0.95136 1.7776-0.69663 2.5487 1.6519 5 3.2527 3.3951 3.2073 3.3849 5.5738 1.2433z"/>
  <path id="path5244" style="fill:#fc8725" d="m-248.4 137.56c-5.0874-0.98491-6.4975-2.4555-4.5647-4.7605 0.81794-0.9755 3.9931-4.6986 7.0559-8.2736 7.1672-8.3657 10.81-13.804 10.81-16.14 0-3.0227-1.7216-2.1547-5.2183 2.631-9.7685 13.37-17.012 22.509-17.84 22.509-0.51469 0-2.7108-1.6036-4.8802-3.5636-5.6944-5.1445-7.5558-10.793-7.5588-22.936l-0.002-10 8-1.8082c17.627-3.9842 18.096-4.3368 9.535-7.1802-3.1669-1.0519-5.1706-2.3633-5.5795-3.6518-0.83749-2.6387-0.58443-2.8284 7.3053-5.478 7.5187-2.5249 8.4148-3.922 5.3114-8.2804-3.7493-5.2654-2.186-7.217 5.4278-6.7754 2.9701 0.17225 3 0.12229 3-5.0128 0-7.239 1.4111-8.3398 6.3251-4.9344 5.536 3.8365 8.4169 2.4053 11.35-5.6382 3.3289-9.1299 6.1014-8.8421 9.2721 0.9626 2.0288 6.2736 4.4338 7.5004 8.6267 4.4004 3.464-2.5611 5.8967-2.7041 6.0124-0.35363 0.0474 0.9625 0.15988 3.325 0.25 5.25l0.16385 3.5 5.75-0.3424c5.5331-0.32948 5.75-0.24968 5.75 2.1151 0 1.3516-0.98062 3.7042-2.1792 5.2279-1.976 2.512-2.0459 3.0037-0.75 5.273 0.93737 1.6415 3.4608 3.2294 7.3333 4.6145 6.8979 2.4673 9.188 5.0653 6.0958 6.9153-1.1 0.65812-4.4689 2.0966-7.4865 3.1966-3.5572 1.2967-5.6116 2.6501-5.8424 3.8489-0.59084 3.0699 4.7036 7.4822 16.579 13.817 10.301 5.4944 11.25 6.2415 11.25 8.8526 0 4.3268-1.5769 7.6191-6.2495 13.048-6.215 7.2213-8.8775 8.1606-25.528 9.0065-7.8528 0.39893-15.165 0.49325-16.25 0.20959-1.6027-0.41913-1.9743-1.3837-1.9832-5.1491-0.006-2.5484-0.29556-6.3556-0.64334-8.4604-0.96244-5.8249-2.3124-2.3912-2.3303 5.9273l-0.0153 7.1002-9.1536 0.64975c-11.187 0.79408-22.067 0.66739-27.147-0.31611zm73.272-19.61c-7.4878-7.6093-13.835-12.894-14.585-12.143-0.81375 0.81375 17.911 18.719 19.576 18.719 0.81425 0-1.4316-2.9592-4.9907-6.5761zm-40.971-37.865c0-0.79254-0.40775-1.693-0.90612-2.001-0.49837-0.30801-0.71021-1.3471-0.47077-2.309 0.24519-0.98506-0.85399-3.2414-2.5165-5.1659-2.7199-3.1484-3.2124-3.3421-6.2671-2.4661-2.1994 0.63079-3.6224 1.8244-4.228 3.5463-0.78921 2.2441-0.45233 3.0199 2.4878 5.7297 2.2639 2.0865 4.1608 3.0073 5.6745 2.7546 1.2506-0.20874 2.5147 0.01012 2.809 0.48636 0.87322 1.4129 3.4171 0.98476 3.4171-0.57509z"/>
  <path id="path5242" style="fill:#fd821c" d="m-251.37 136.43c-1.5742-0.91636-0.97082-1.9025 5.3349-8.7196 8.0386-8.6906 9.4104-10.922 10.41-16.936 0.63509-3.8223 0.50427-4.25-1.3-4.25-1.1034 0-2.6983 0.26562-3.5444 0.59027-1.9866 0.76234-15.065 18.072-16.798 22.232l-1.3269 3.1856-3.318-2.0308c-3.3267-2.0361-6.6025-7.83-7.7933-13.784l-0.5973-2.9865 8.8543-0.35339c7.0962-0.28322 9.5889-0.81016 12.554-2.6538 3.6824-2.2897 3.6904-2.3096 1.7271-4.2729-2.1652-2.1652-1.6028-4.3077 2.2408-8.5364 3.198-3.5185 0.93372-6.6317-6.8123-9.3663-5.9147-2.0881-6.4373-2.5041-6.1591-4.9028 0.26182-2.2576 1.2057-2.9224 6.804-4.7926 7.2791-2.4317 8.17-3.8767 5.0722-8.2272-3.7493-5.2654-2.186-7.217 5.4278-6.7754 2.9701 0.17225 3 0.12229 3-5.0128 0-7.239 1.4111-8.3398 6.3251-4.9344 5.536 3.8365 8.4169 2.4053 11.35-5.6382 3.3289-9.1299 6.1014-8.8421 9.2721 0.9626 2.0288 6.2736 4.4338 7.5004 8.6267 4.4004 3.464-2.5611 5.8967-2.7041 6.0124-0.35363 0.0474 0.9625 0.15988 3.325 0.25 5.25l0.16385 3.5 5.75-0.3424c5.5331-0.32948 5.75-0.24968 5.75 2.1151 0 1.3516-0.98062 3.7042-2.1792 5.2279-1.9777 2.5143-2.047 3.0044-0.75 5.3023 0.89611 1.5876 3.1892 3.1222 6.1481 4.1145 5.9657 2.0007 8.6404 4.4967 7.2242 6.7418-0.56264 0.89197-3.699 2.571-6.9696 3.7312-6.9378 2.4611-7.7793 4.269-4.0498 8.7013 1.4169 1.6839 2.5762 3.6798 2.5762 4.4353 0 2.207-3.0204 3.3275-6.3756 2.3652-6.8391-1.9614-5.2014 1.0016 7.7003 13.932 12.07 12.097 12.663 12.877 10.966 14.413-3.5232 3.1885-7.9546 4.0598-23.041 4.5305l-15.25 0.47577-0.0576-5.3716c-0.0733-6.8302-1.2871-13.699-2.172-12.291-2.2464 3.5748-3.6151 10.189-2.8285 13.669l0.84756 3.75-18.645-0.0304c-10.959-0.0179-19.376-0.45634-20.42-1.0636zm67.275-9.4779c0-0.86456-1.2025-3.6771-2.6722-6.25-4.1378-7.2439-4.2068-7.299-6.3947-5.1112-2.4973 2.4973-3.1769 2.4403-6.7507-0.56691-5.991-5.0411-6.8296-2.1158-2.1043 7.3403l3.078 6.1597h7.422c6.0816 0 7.422-0.28389 7.422-1.5719zm-32-46.869c0-0.79254-0.40775-1.693-0.90612-2.001-0.49837-0.30801-0.71021-1.3471-0.47077-2.309 0.24519-0.98506-0.85399-3.2414-2.5165-5.1659-2.7199-3.1484-3.2124-3.3421-6.2671-2.4661-2.1994 0.63079-3.6224 1.8244-4.228 3.5463-0.78921 2.2441-0.45233 3.0199 2.4878 5.7297 2.2639 2.0865 4.1608 3.0073 5.6745 2.7546 1.2506-0.20874 2.5147 0.01012 2.809 0.48636 0.87322 1.4129 3.4171 0.98476 3.4171-0.57509zm46.115 39.238c-4.776-4.545-6.0068-6.2473-4.9795-6.8867 1.1362-0.70718 1.1438-1.2055 0.0453-2.9772-0.72561-1.1703-1.1426-2.3046-0.92659-2.5206 0.86131-0.86126 16.746 7.6088 16.746 8.9294 0 1.823-2.7314 8.3741-3.7554 9.0069-0.43211 0.26706-3.6405-2.2312-7.1298-5.5518z"/>
  <path id="path5240" style="fill:#f77d21" d="m-250.1 136.46c0-0.58246-0.41891-0.80012-0.9309-0.48369-2.386 1.4747-1.6754-1.4603 0.96646-3.9914 2.9647-2.8403 4.0716-2.536 1.7144 0.47141-0.6875 0.87715 1.1601-1.013 4.1057-4.2002 2.9456-3.1873 6.7604-6.5214 8.4772-7.4092 3.0858-1.5958 3.0974-1.6302 1.0098-3.0163-1.8244-1.2113-1.9946-1.9062-1.2511-5.1068 1.4872-6.4018 1.5131-6.3725-4.9933-5.6364-5.1666 0.58453-6.0279 0.43181-6.9152-1.2262-1.1136-2.0807-0.25898-4.349 2.9959-7.9519 3.1822-3.5224 0.91512-6.6342-6.8239-9.3663-5.9147-2.0881-6.4373-2.5041-6.1591-4.9028 0.26182-2.2576 1.2057-2.9224 6.804-4.7926 7.2791-2.4317 8.17-3.8767 5.0722-8.2272-3.7493-5.2654-2.186-7.217 5.4278-6.7754 2.9701 0.17225 3 0.12229 3-5.0128 0-7.239 1.4111-8.3398 6.3251-4.9344 5.536 3.8365 8.4169 2.4053 11.35-5.6382 3.3289-9.1299 6.1014-8.8421 9.2721 0.9626 2.0288 6.2736 4.4338 7.5004 8.6267 4.4004 3.464-2.5611 5.8967-2.7041 6.0124-0.35363 0.0474 0.9625 0.15988 3.325 0.25 5.25l0.16385 3.5 5.75-0.3424c5.5331-0.32948 5.75-0.24968 5.75 2.1151 0 1.3516-0.98062 3.7042-2.1792 5.2279-1.9777 2.5143-2.047 3.0044-0.75 5.3023 0.89611 1.5876 3.1892 3.1222 6.1481 4.1145 5.9657 2.0007 8.6404 4.4967 7.2242 6.7418-0.56264 0.89197-3.699 2.571-6.9696 3.7312-6.9378 2.4611-7.7793 4.269-4.0498 8.7013 1.4169 1.6839 2.5762 3.6798 2.5762 4.4353 0 2.207-3.0204 3.3275-6.3756 2.3652-4.0324-1.1565-5.1679 0.10997-3.7486 4.1812 1.4921 4.2802 1.4518 4.599-0.87576 6.9265-2.5849 2.5849-3.2201 2.5271-6.9785-0.63536-2.6836-2.2581-3.4819-2.4759-5.5767-1.5214-1.3446 0.61266-2.4448 1.9685-2.4448 3.0129s-0.62864 2.4207-1.397 3.0584c-2.4991 2.0741-4.5804 10.252-3.6543 14.358l0.84065 3.7273h-18.895c-12.632 0-18.895-0.35103-18.895-1.059zm30.2-7.4076c0-2.0167-0.27-3.9367-0.6-4.2667s-0.60614 0.7125-0.61365 2.3167c-0.008 1.6042-0.29373 4.0417-0.63605 5.4167-0.4867 1.955-0.35291 2.2493 0.61366 1.35 0.67982-0.6325 1.236-2.8 1.236-4.8167zm3.8-48.974c0-0.79254-0.40775-1.693-0.90612-2.001-0.49837-0.30801-0.71021-1.3471-0.47077-2.309 0.24519-0.98506-0.85399-3.2414-2.5165-5.1659-2.7199-3.1484-3.2124-3.3421-6.2671-2.4661-2.1994 0.63079-3.6224 1.8244-4.228 3.5463-0.78921 2.2441-0.45233 3.0199 2.4878 5.7297 2.2639 2.0865 4.1608 3.0073 5.6745 2.7546 1.2506-0.20874 2.5147 0.01012 2.809 0.48636 0.87322 1.4129 3.4171 0.98476 3.4171-0.57509zm8.6187 51.808c0.17035-3.2271 0.32583-6.8799 0.34551-8.1174 0.0658-4.1368 2.1287-2.3156 5.6638 5 1.9269 3.9875 3.2469 6.4207 2.9334 5.4071-2.0324-6.5715-2.5044-6.1732 7.099-5.9919 8.603 0.16233 8.8011 0.22213 11.595 3.5l2.8429 3.3348-3.0494-6.2215c-3.297-6.7266-3.6598-8.2785-1.9352-8.2785 1.394 0 12.886 9.8801 12.886 11.079 0 0.4844-1.9125 1.8725-4.25 3.0846-3.6846 1.9106-6.2584 2.2616-19.346 2.6378l-15.096 0.43391 0.30973-5.8674zm-52.617-0.36643c-1.2148-0.75077-1.1637-1.0016 0.31952-1.5708 2.1124-0.8106 2.8363-0.303 1.8481 1.2959-0.45895 0.74261-1.2487 0.84274-2.1676 0.27484zm-3.8016-3.201c-1.965-1.965-1.3924-3.3814 2.1348-5.2809 4.9691-2.676 6.129-1.6658 3.1391 2.7342-2.7536 4.0522-3.4379 4.3827-5.2738 2.5467z"/>
  <path id="path5238" style="fill:#d38a32" d="m-249.64 136.46c-0.84982-1.375 8.1062-11.714 12.859-14.845 3.0536-2.0116 3.4542-2.6577 2.4202-3.9037-0.68156-0.82123-1.1267-1.649-0.9892-1.8394 0.1375-0.19047 0.25-2.635 0.25-5.4323v-5.086l-5.721 0.33596c-4.8627 0.28556-5.7752 0.0663-6.0825-1.4615-0.1988-0.98862 0.83907-3.3715 2.3064-5.2952 2.4397-3.1986 2.5432-3.688 1.2101-5.7225-0.86158-1.3149-4.1903-3.1895-8.1394-4.5836-6.1338-2.1654-6.6567-2.5737-6.3776-4.98 0.26182-2.2576 1.2057-2.9224 6.804-4.7926 7.2791-2.4317 8.17-3.8767 5.0722-8.2272-3.7493-5.2654-2.186-7.217 5.4278-6.7754 2.9701 0.17225 3 0.12229 3-5.0128 0-7.239 1.4111-8.3398 6.3251-4.9344 5.536 3.8365 8.4169 2.4053 11.35-5.6382 3.3289-9.1299 6.1014-8.8421 9.2721 0.9626 2.0288 6.2736 4.4338 7.5004 8.6267 4.4004 3.464-2.5611 5.8967-2.7041 6.0124-0.35363 0.0474 0.9625 0.15988 3.325 0.25 5.25l0.16385 3.5 5.75-0.3424c5.5331-0.32948 5.75-0.24968 5.75 2.1151 0 1.3516-0.98062 3.7042-2.1792 5.2279-1.9777 2.5143-2.047 3.0044-0.75 5.3023 0.89611 1.5876 3.1892 3.1222 6.1481 4.1145 5.9657 2.0007 8.6404 4.4967 7.2242 6.7418-0.56264 0.89197-3.699 2.571-6.9696 3.7312-6.7866 2.4075-7.6582 4.0882-4.4032 8.4907 3.2831 4.4406 2.0495 6.3621-3.8206 5.9512l-4.7497-0.33248v5.9759c0 7.0486-1.2754 7.8787-6.3512 4.1338-2.7597-2.036-3.7874-2.2832-6.1172-1.471-2.3095 0.80511-3.0874 1.9995-4.4386 6.815-2.6521 9.4519-6.177 10.587-8.9065 2.8688l-1.5286-4.3227-0.25 7.5c-0.1375 4.125-0.35019 8.175-0.47265 9s-0.27049 2.0625-0.32895 2.75c-0.13834 1.6268-26.646 1.8038-27.647 0.18458zm23.796-21.666c0.96543-0.27752 2.5016 0.11104 3.4137 0.86345 1.502 1.239 1.5453 1.1558 0.45949-0.88197-1.5051-2.8246-3.5706-2.8524-6.9708-0.0937-1.9458 1.5787-2.122 1.9501-0.65773 1.3865 1.1-0.42337 2.7899-0.99683 3.7553-1.2743zm9.7447-34.71c0-0.79254-0.40775-1.693-0.90612-2.001-0.49837-0.30801-0.71021-1.3471-0.47077-2.309 0.24519-0.98506-0.85399-3.2414-2.5165-5.1659-2.7199-3.1484-3.2124-3.3421-6.2671-2.4661-2.1994 0.63079-3.6224 1.8244-4.228 3.5463-0.78921 2.2441-0.45233 3.0199 2.4878 5.7297 2.2639 2.0865 4.1608 3.0073 5.6745 2.7546 1.2506-0.20874 2.5147 0.01012 2.809 0.48636 0.87322 1.4129 3.4171 0.98476 3.4171-0.57509zm8.8426 52.191c-0.44227-6.7784 0.0339-10.75 1.2889-10.75 0.84692 0 7.8685 13.773 7.8685 15.434 0 0.31105-1.9834 0.56554-4.4074 0.56554h-4.4074l-0.34255-5.25zm27.372-3.2689c-3.4684-7.0336-3.8269-8.4811-2.1004-8.4811 1.3903 0 12.886 9.8785 12.886 11.073 0 0.88957-5.2098 3.9267-6.7357 3.9267-0.45926 0-2.2816-2.9335-4.0497-6.5189zm-84.015-0.68107c-1.965-1.965-1.3924-3.3814 2.1348-5.2809 4.9691-2.676 6.129-1.6658 3.1391 2.7342-2.7536 4.0522-3.4379 4.3827-5.2738 2.5467z"/>
  <path id="path5236" style="fill:#fb7a16" d="m-249.64 136.46c-0.84982-1.375 8.1062-11.714 12.859-14.845 2.4469-1.6118 3.3544-2.778 2.7389-3.5196-0.50624-0.60999-0.76062-3.7281-0.56528-6.9291l0.35517-5.82-6.1475 0.33961c-5.2358 0.28925-6.1998 0.0778-6.5001-1.4254-0.19397-0.97078 0.80662-3.1428 2.2236-4.8267 3.0837-3.6647 3.0765-3.5754 0.61097-7.6191-1.51-2.4766-3.2201-3.5778-7.4778-4.8156-3.036-0.88259-5.7677-2.0054-6.0704-2.4952-0.75109-1.2153 2.9766-3.4175 9.1587-5.4106 5.9655-1.9233 7.176-4.2538 4.1848-8.0566-3.1262-3.9744-2.0673-6.0624 2.915-5.7477 5.0977 0.32195 6.5349-1.5884 5.3033-7.0492-1.2086-5.3585 0.77288-6.577 4.9625-3.0516l3.2346 2.7217 3.5574-1.9422c2.704-1.4762 3.934-3.0714 5.1273-6.6492 1.7849-5.3518 3.6254-7.6744 4.947-6.243 0.48239 0.5225 1.6538 3.3433 2.6031 6.2684 2.2271 6.8625 4.9972 8.402 9.4339 5.2428 3.8385-2.7332 5.086-2.0124 5.086 2.9388 0 4.6493 1.0642 5.4599 6.7116 5.1127 5.3496-0.32897 6.6429 1.8167 3.2633 5.414-1.9083 2.0313-2.1318 2.9341-1.3765 5.5612 0.75188 2.6155 1.8149 3.4717 6.4016 5.1559 10.235 3.7581 10.465 5.861 1 9.1072-7.7447 2.6561-8.8642 5.0937-4.4538 9.6972 3.9592 4.1325 2.7756 6.2093-3.2965 5.7843l-4.7497-0.33248v5.9759c0 7.0486-1.2754 7.8787-6.3512 4.1338-2.7456-2.0256-3.794-2.2809-6.0863-1.4817-2.2056 0.76887-3.1454 2.1266-4.6162 6.6687-3.1519 9.7336-6.0355 10.73-8.7598 3.0259l-1.5286-4.3227-0.25 7.5c-0.1375 4.125-0.35019 8.175-0.47265 9s-0.27049 2.0625-0.32895 2.75c-0.13834 1.6268-26.646 1.8038-27.647 0.18458zm23.796-21.666c0.96543-0.27752 2.5016 0.11104 3.4137 0.86345 1.502 1.239 1.5453 1.1558 0.45949-0.88197-1.5051-2.8246-3.5706-2.8524-6.9708-0.0937-1.9458 1.5787-2.122 1.9501-0.65773 1.3865 1.1-0.42337 2.7899-0.99683 3.7553-1.2743zm9.7447-34.71c0-0.79254-0.40775-1.693-0.90612-2.001-0.49837-0.30801-0.71021-1.3471-0.47077-2.309 0.24519-0.98506-0.85399-3.2414-2.5165-5.1659-2.7199-3.1484-3.2124-3.3421-6.2671-2.4661-2.1994 0.63079-3.6224 1.8244-4.228 3.5463-0.78921 2.2441-0.45233 3.0199 2.4878 5.7297 2.2639 2.0865 4.1608 3.0073 5.6745 2.7546 1.2506-0.20874 2.5147 0.01012 2.809 0.48636 0.87322 1.4129 3.4171 0.98476 3.4171-0.57509zm8.8426 52.191c-0.44227-6.7784 0.0339-10.75 1.2889-10.75 0.84692 0 7.8685 13.773 7.8685 15.434 0 0.31105-1.9834 0.56554-4.4074 0.56554h-4.4074l-0.34255-5.25zm27.372-3.2689c-3.4684-7.0336-3.8269-8.4811-2.1004-8.4811 1.3903 0 12.886 9.8785 12.886 11.073 0 0.88957-5.2098 3.9267-6.7357 3.9267-0.45926 0-2.2816-2.9335-4.0497-6.5189zm-84.015-0.68107c-1.965-1.965-1.3924-3.3814 2.1348-5.2809 4.9691-2.676 6.129-1.6658 3.1391 2.7342-2.7536 4.0522-3.4379 4.3827-5.2738 2.5467z"/>
  <path id="path5234" style="fill:#b28345" d="m-218.06 124.27c-5.3952-13.157-5.77-13.484-11.003-9.6153-4.5717 3.38-6.4356 1.9676-5.6106-4.2514l0.6742-5.0824-6.2712 0.34955c-5.3586 0.29869-6.3225 0.0927-6.6239-1.4155-0.19397-0.97078 0.80662-3.1428 2.2236-4.8267 3.0837-3.6647 3.0765-3.5754 0.61097-7.6191-1.51-2.4766-3.2201-3.5778-7.4778-4.8156-3.036-0.88259-5.7677-2.0054-6.0704-2.4952-0.75109-1.2153 2.9766-3.4175 9.1587-5.4106 5.9655-1.9233 7.176-4.2538 4.1848-8.0566-3.1262-3.9744-2.0673-6.0624 2.915-5.7477 5.0977 0.32195 6.5349-1.5884 5.3033-7.0492-1.2086-5.3585 0.77288-6.577 4.9625-3.0516l3.2346 2.7217 3.5574-1.9422c2.704-1.4762 3.934-3.0714 5.1273-6.6492 1.7849-5.3518 3.6254-7.6744 4.947-6.243 0.48239 0.5225 1.6538 3.3433 2.6031 6.2684 2.2271 6.8625 4.9972 8.402 9.4339 5.2428 3.8385-2.7332 5.086-2.0124 5.086 2.9388 0 4.6493 1.0642 5.4599 6.7116 5.1127 5.3496-0.32897 6.6429 1.8167 3.2633 5.414-1.9083 2.0313-2.1318 2.9341-1.3765 5.5612 0.75188 2.6155 1.8149 3.4717 6.4016 5.1559 10.235 3.7581 10.465 5.861 1 9.1072-7.7447 2.6561-8.8642 5.0937-4.4538 9.6972 3.9592 4.1325 2.7756 6.2093-3.2965 5.7843l-4.7497-0.33248v5.9759c0 7.0486-1.2754 7.8787-6.3512 4.1338-2.7456-2.0256-3.794-2.2809-6.0863-1.4817-2.2034 0.7681-3.1488 2.1311-4.6257 6.6687-1.0209 3.1368-2.267 6.2658-2.769 6.9533-1.4226 1.9483-3.6187 1.4743-4.6334-1zm1.9656-44.191c0-0.79254-0.40775-1.693-0.90612-2.001-0.49837-0.30801-0.71021-1.3471-0.47077-2.309 0.24519-0.98506-0.85399-3.2414-2.5165-5.1659-2.7199-3.1484-3.2124-3.3421-6.2671-2.4661-2.1994 0.63079-3.6224 1.8244-4.228 3.5463-0.78921 2.2441-0.45233 3.0199 2.4878 5.7297 2.2639 2.0865 4.1608 3.0073 5.6745 2.7546 1.2506-0.20874 2.5147 0.01012 2.809 0.48636 0.87322 1.4129 3.4171 0.98476 3.4171-0.57509z"/>
  <path id="path5232" style="fill:#b8833a" d="m-218.06 124.27c-5.3952-13.157-5.77-13.484-11.003-9.6153-4.5717 3.38-6.4356 1.9676-5.6106-4.2514l0.6742-5.0824-6.2712 0.34955c-5.3586 0.29869-6.3225 0.0927-6.6239-1.4155-0.19397-0.97078 0.80662-3.1428 2.2236-4.8267 3.0837-3.6647 3.0765-3.5754 0.61097-7.6191-1.51-2.4766-3.2201-3.5778-7.4778-4.8156-3.036-0.88259-5.7677-2.0054-6.0704-2.4952-0.76462-1.2372 3.9507-4.1573 6.9971-4.3332 1.3832-0.07985 2.5152-0.52018 2.5156-0.97852 0.00039-0.45833 0.55919-0.64717 1.2418-0.41964 0.68259 0.22753 1.7203-0.07247 2.306-0.66667 2.2091-2.2412 2.3129-4.4887 0.32392-7.0173-1.1095-1.4105-1.8673-3.3517-1.6839-4.3138 0.35822-1.8795 4.813-3.1001 4.813-1.3188 0 1.4879 3.7103 1.3443 4.6629-0.18045 1.1609-1.8583 1.2313-3.2853 0.35399-7.1753-0.60803-2.6959-0.42451-3.814 0.78708-4.7952 0.94399-0.76447 1.3038-0.81854 0.89377-0.1343-0.37742 0.62987 0.01 1.4122 0.85998 1.7385 1.0402 0.39917 1.3128 0.18804 0.83301-0.64522-0.39226-0.6812 0.37951-0.24611 1.715 0.96686 2.1225 1.9277 6.8943 2.843 6.8943 1.3223 0-0.30066 0.94709-1.1381 2.1046-1.861 1.5409-0.96229 1.9013-0.98533 1.3455-0.08604-0.49586 0.8023-0.34463 0.97214 0.43603 0.48967 0.68507-0.4234 0.91869-1.6098 0.54737-2.7797-0.46117-1.453-0.29798-1.8249 0.56646-1.2906 0.88198 0.54509 1.0188 0.13461 0.5-1.5s-0.38197-2.0451 0.5-1.5c0.87402 0.54017 1.023 0.14791 0.53177-1.3999-0.37537-1.1827-0.31108-2.0858 0.14287-2.0068 0.45395 0.07895 1.5004 0.08336 2.3254 0.0098 1.3333-0.11887 1.3333-0.2516 0-1.1946-1.3333-0.94295-1.3333-1.0131 0-0.63094 0.825 0.23643 1.3678 1.1707 1.2062 2.0761-0.16161 0.90545 0.10466 1.6463 0.59172 1.6463 0.48705 0 1.4231 1.7942 2.0801 3.9871 1.4964 4.9946 5.7567 7.7696 7.9146 5.1553 0.74564-0.90332 1.0503-1.0467 0.67691-0.31857-0.56212 1.0963-0.31705 1.0979 1.4258 0.0095 1.1576-0.72295 2.1046-1.6827 2.1046-2.1329 0-0.45016 0.45-0.54036 1-0.20044s1 2.3649 1 4.5c0 4.6455 1.133 5.5193 6.7842 5.2323 5.2864-0.26851 6.5097 1.7615 3.1907 5.2944-1.9083 2.0313-2.1318 2.9341-1.3765 5.5612 0.75188 2.6155 1.8149 3.4717 6.4016 5.1559 10.235 3.7581 10.465 5.861 1 9.1072-7.7447 2.6561-8.8642 5.0937-4.4538 9.6972 3.9592 4.1325 2.7756 6.2093-3.2965 5.7843l-4.7497-0.33248v5.9759c0 7.0486-1.2754 7.8787-6.3512 4.1338-2.7456-2.0256-3.794-2.2809-6.0863-1.4817-2.2034 0.7681-3.1488 2.1311-4.6257 6.6687-1.0209 3.1368-2.267 6.2658-2.769 6.9533-1.4226 1.9483-3.6187 1.4743-4.6334-1zm1.9656-44.191c0-0.79254-0.40775-1.693-0.90612-2.001-0.49837-0.30801-0.71021-1.3471-0.47077-2.309 0.24519-0.98506-0.85399-3.2414-2.5165-5.1659-2.7199-3.1484-3.2124-3.3421-6.2671-2.4661-2.1994 0.63079-3.6224 1.8244-4.228 3.5463-0.78921 2.2441-0.45233 3.0199 2.4878 5.7297 2.2639 2.0865 4.1608 3.0073 5.6745 2.7546 1.2506-0.20874 2.5147 0.01012 2.809 0.48636 0.87322 1.4129 3.4171 0.98476 3.4171-0.57509z"/>
  <path id="path5230" style="fill:#cd7626" d="m-218.06 124.27c-5.3952-13.157-5.77-13.484-11.003-9.6153-4.5717 3.38-6.4356 1.9676-5.6106-4.2514l0.6742-5.0824-6.2712 0.34955c-5.3586 0.29869-6.3225 0.0927-6.6239-1.4155-0.19397-0.97078 0.80662-3.1428 2.2236-4.8267 3.1334-3.7238 3.1354-3.7809 0.29121-8.0103-1.7186-2.5557-3.4413-3.6855-6.9502-4.5581-2.5658-0.6381-5.1594-1.4657-5.7636-1.839-1.729-1.0686 0.6473-3.2744 4.3178-4.008 7.3212-1.4633 9.4593-2.5534 9.94-5.0678 0.29697-1.5535-0.26294-3.4314-1.4871-4.9877-2.9269-3.7209-1.6681-5.7645 3.0588-4.9658 4.8911 0.82634 6.4293-0.87173 6.0426-6.6705-0.31634-4.7438 0.15527-4.9607 5.8321-2.6825 5.0515 2.0272 9.2214-0.42168 11.3-6.6365 0.89403-2.6725 2.099-5.017 2.6776-5.2098 0.57867-0.19289 2.0516 2.1119 3.2733 5.1218 2.7882 6.8697 6.0348 8.4802 10.894 5.4038 1.7322-1.0967 3.1988-1.8374 3.2591-1.6459 0.0603 0.19151 0.23195 1.7972 0.38147 3.5681 0.51924 6.1503 1.023 6.6022 6.5434 5.8699 5.973-0.79235 7.5709 1.0724 4.092 4.7755-4.2906 4.5672-2.3358 8.4277 5.6826 11.222 9.4535 3.2945 9.5172 5.9591 0.21055 8.8076-7.9448 2.4317-9.1268 4.7262-4.785 9.2891 4.2729 4.4904 3.2559 6.5853-2.985 6.1484l-4.7497-0.33248v5.9759c0 7.0486-1.2754 7.8787-6.3512 4.1338-2.7456-2.0256-3.794-2.2809-6.0863-1.4817-2.2034 0.7681-3.1488 2.1311-4.6257 6.6687-1.0209 3.1368-2.267 6.2658-2.769 6.9533-1.4226 1.9483-3.6187 1.4743-4.6334-1zm1.9656-44.191c0-0.79254-0.40775-1.693-0.90612-2.001-0.49837-0.30801-0.71021-1.3471-0.47077-2.309 0.24519-0.98506-0.85399-3.2414-2.5165-5.1659-2.7199-3.1484-3.2124-3.3421-6.2671-2.4661-2.1994 0.63079-3.6224 1.8244-4.228 3.5463-0.78921 2.2441-0.45233 3.0199 2.4878 5.7297 2.2639 2.0865 4.1608 3.0073 5.6745 2.7546 1.2506-0.20874 2.5147 0.01012 2.809 0.48636 0.87322 1.4129 3.4171 0.98476 3.4171-0.57509z"/>
  <path id="path5228" style="fill:#d06f1b" d="m-218.06 124.27c-5.3585-13.067-5.9097-13.566-10.762-9.75-4.8534 3.8177-7.0048 2.175-5.1704-3.9477 1.7023-5.6818 0.25888-7.303-4.8717-5.4718-7.8906 2.8165-10.367 0.59053-5.326-4.7878 5.2129-5.5621 3.3582-10.054-5.4562-13.214-8.7964-3.1538-8.348-4.6639 2.2259-7.4957 3.4786-0.93162 4.2866-1.6287 4.8474-4.1823 0.52351-2.3836 0.18379-3.5851-1.5292-5.4085-2.9641-3.1552-1.7588-4.7974 2.9386-4.0038 4.782 0.80792 6.3262-0.92984 5.9422-6.6874-0.31634-4.7438 0.15527-4.9607 5.8321-2.6825 5.0515 2.0272 9.2214-0.42168 11.3-6.6365 0.89403-2.6725 2.099-5.017 2.6776-5.2098 0.57867-0.19289 2.0516 2.1119 3.2733 5.1218 2.735 6.7385 6.1132 8.512 10.603 5.5666 3.3572-2.2023 4.6616-1.6926 3.8584 1.5076-0.32379 1.2901-0.0567 3.3397 0.59356 4.5546 1.057 1.975 1.7019 2.1401 6.085 1.5587 4.3877-0.58204 4.9028-0.44949 4.9028 1.2616 0 1.0516-0.675 2.4722-1.5 3.1569-1.9085 1.5839-1.93 5.941-0.0427 8.6356 0.80152 1.1443 3.493 2.6505 5.981 3.3471 4.7673 1.3348 7.1496 3.257 6.1137 4.9331-0.34109 0.5519-3.1348 1.7961-6.2083 2.7649-7.1956 2.2682-8.5754 4.7545-5.2664 9.4901 1.2794 1.831 2.7431 3.6163 3.2526 3.9673 0.50947 0.35101 0.59036 1.1818 0.17976 1.8461-0.72956 1.1804-3.4432 1.0037-8.4158-0.54829-2.3868-0.74493-2.4015-0.706-1.8282 4.849 0.76513 7.4134-1.0165 9.286-5.1065 5.3675-2.7147-2.6009-6.1591-3.5627-6.1591-1.7198 0 0.51294-0.9 1.2183-2 1.5674-1.1 0.34912-2 1.306-2 2.1264s-0.41373 1.2359-0.91941 0.92341c-0.87513-0.54086-2.1799 2.6934-3.5098 8.7002-0.73575 3.3231-3.2643 3.6018-4.5363 0.5zm1.9656-44.191c0-0.79254-0.40775-1.693-0.90612-2.001-0.49837-0.30801-0.71021-1.3471-0.47077-2.309 0.24519-0.98506-0.85399-3.2414-2.5165-5.1659-2.7199-3.1484-3.2124-3.3421-6.2671-2.4661-2.1994 0.63079-3.6224 1.8244-4.228 3.5463-0.78921 2.2441-0.45233 3.0199 2.4878 5.7297 2.2639 2.0865 4.1608 3.0073 5.6745 2.7546 1.2506-0.20874 2.5147 0.01012 2.809 0.48636 0.87322 1.4129 3.4171 0.98476 3.4171-0.57509z"/>
  <path id="path5226" style="fill:#90714b" d="m-217.4 121.84c-0.78571-1.5514-1.9737-4.5085-2.64-6.5712-1.5618-4.8354-4.7147-5.8011-8.8817-2.7203-3.8287 2.8307-5.5583 1.8309-4.7046-2.7196 0.95762-5.1045-0.64623-6.4878-6.6058-5.6972-4.3937 0.58285-4.864 0.45441-4.864-1.3286 0-1.0856 0.9-2.7883 2-3.7838 4.2661-3.8608 1.4038-9.0692-6.5515-11.921-8.7964-3.1538-8.348-4.6639 2.2259-7.4957 3.4786-0.93162 4.2866-1.6287 4.8474-4.1823 0.52351-2.3836 0.18379-3.5851-1.5292-5.4085-2.9641-3.1552-1.7588-4.7974 2.9386-4.0038 4.782 0.80792 6.3262-0.92984 5.9422-6.6874-0.31634-4.7438 0.15527-4.9607 5.8321-2.6825 5.0515 2.0272 9.2214-0.42168 11.3-6.6365 0.89403-2.6725 2.099-5.017 2.6776-5.2098 0.57867-0.19289 2.0516 2.1119 3.2733 5.1218 2.735 6.7385 6.1132 8.512 10.603 5.5666 3.3572-2.2023 4.6616-1.6926 3.8584 1.5076-0.32379 1.2901-0.0567 3.3397 0.59356 4.5546 1.057 1.975 1.7019 2.1401 6.085 1.5587 4.3877-0.58204 4.9028-0.44949 4.9028 1.2616 0 1.0516-0.675 2.4722-1.5 3.1569-1.9085 1.5839-1.93 5.941-0.0427 8.6356 0.80152 1.1443 3.493 2.6505 5.981 3.3471 4.7673 1.3348 7.1496 3.257 6.1137 4.9331-0.34109 0.5519-3.1348 1.7961-6.2083 2.7649-7.0979 2.2374-8.5774 4.7779-5.3897 9.2546 3.0002 4.2134 2.2625 5.5646-3.038 5.5646h-4.416v5.4828c0 6.181-1.7494 7.6091-4.9665 4.0542-3.9973-4.417-9.6047-1.8138-12.136 5.6342-2.4336 7.1596-3.8464 8.3118-5.7012 4.6496zm1.304-41.762c0-0.79254-0.40775-1.693-0.90612-2.001-0.49837-0.30801-0.71021-1.3471-0.47077-2.309 0.24519-0.98506-0.85399-3.2414-2.5165-5.1659-2.7199-3.1484-3.2124-3.3421-6.2671-2.4661-2.1994 0.63079-3.6224 1.8244-4.228 3.5463-0.78921 2.2441-0.45233 3.0199 2.4878 5.7297 2.2639 2.0865 4.1608 3.0073 5.6745 2.7546 1.2506-0.20874 2.5147 0.01012 2.809 0.48636 0.87322 1.4129 3.4171 0.98476 3.4171-0.57509z"/>
  <path id="path5224" style="fill:#af702c" d="m-217.4 121.84c-0.78571-1.5514-1.9737-4.5085-2.64-6.5712-1.5618-4.8354-4.7147-5.8011-8.8817-2.7203-3.8287 2.8307-5.5583 1.8309-4.7046-2.7196 0.95762-5.1045-0.64623-6.4878-6.6058-5.6972-4.4168 0.58592-4.864 0.46079-4.864-1.3612 0-2.0373 2.2573-4.6607 3.1995-3.7184 0.28352 0.28352 1.1421-0.25677 1.908-1.2006 0.92139-1.1355 0.9696-1.4621 0.1425-0.96515-0.79319 0.47654-1.25 0.16309-1.25-0.8577 0-4.0942-2.8462-7.0956-8.3838-8.8412-3.0514-0.96188-5.8572-2.249-6.2349-2.8602-0.87639-1.418 2.6137-4.0238 4.4471-3.3203 0.76218 0.29248 3.0482 0.08413 5.0801-0.463 3.3951-0.9142 3.7038-1.2997 3.8119-4.7597 0.0787-2.5189-0.55217-4.4851-1.9062-5.9409-2.8335-3.0466-1.6498-4.3935 2.7851-3.169 4.5221 1.2486 7.3065-0.78714 6.7434-4.9302-0.32422-2.3853-0.24696-2.4756 0.61989-0.72486 0.74928 1.5133 0.84025 1.0501 0.37381-1.9033-0.59494-3.767-0.53304-3.8755 1.7736-3.1087 2.5496 0.84758 7.4215 1.0248 9.89 0.35981 2.9415-0.79244 3.7692-1.874 4.9144-6.4223 1.0062-3.9959 1.3662-4.4376 2.7085-3.3236 0.85144 0.70663 2.2248 2.9761 3.0519 5.0433 1.8269 4.5658 6.7946 6.8275 10.253 4.6678 1.1398-0.71182 2.0724-1.6625 2.0724-2.1127 0-0.45016 0.43526-0.54946 0.96725-0.22068 0.53198 0.32878 0.71011 1.8835 0.39583 3.4549-0.86896 4.3448 5.0772 9.3982 7.1369 6.0654 0.33992-0.55 1.4915-1 2.559-1 2.3494 0 2.6301 3.1832 0.44098 5-1.9085 1.5839-1.93 5.941-0.0427 8.6356 0.80152 1.1443 3.493 2.6505 5.981 3.3471 4.7673 1.3348 7.1496 3.257 6.1137 4.9331-0.34109 0.5519-3.1348 1.7961-6.2083 2.7649-7.0979 2.2374-8.5774 4.7779-5.3897 9.2546 3.0002 4.2134 2.2625 5.5646-3.038 5.5646h-4.416v5.4828c0 6.181-1.7494 7.6091-4.9665 4.0542-3.9973-4.417-9.6047-1.8138-12.136 5.6342-2.4336 7.1596-3.8464 8.3118-5.7012 4.6496zm1.304-41.762c0-0.79254-0.40775-1.693-0.90612-2.001-0.49837-0.30801-0.71021-1.3471-0.47077-2.309 0.24519-0.98506-0.85399-3.2414-2.5165-5.1659-2.7199-3.1484-3.2124-3.3421-6.2671-2.4661-2.1994 0.63079-3.6224 1.8244-4.228 3.5463-0.78921 2.2441-0.45233 3.0199 2.4878 5.7297 2.2639 2.0865 4.1608 3.0073 5.6745 2.7546 1.2506-0.20874 2.5147 0.01012 2.809 0.48636 0.87322 1.4129 3.4171 0.98476 3.4171-0.57509z"/>
  <path id="path5222" style="fill:#6c6b6b" d="m-217.4 121.84c-0.78571-1.5514-1.9737-4.5085-2.64-6.5712-1.5758-4.8786-4.7131-5.8023-8.9836-2.6449-4.0571 2.9995-5.8575 1.5863-4.1649-3.2691 1.5885-4.5569-0.50271-6.0908-7.1091-5.2144-5.6976 0.75581-6.2596-0.51937-1.9106-4.3355l2.8877-2.5339-2.4586-4.7388c-2.0438-3.9394-3.1636-4.948-6.6377-5.9791-4.7725-1.4164-6.9029-2.8627-6.1091-4.1471 0.3014-0.48768 1.534-0.8892 2.739-0.89227 1.205-0.0031 3.8285-0.46041 5.8299-1.0163 3.0345-0.84288 3.727-1.5478 4.1691-4.2444 0.36779-2.2433-0.0576-4.0635-1.3889-5.9432-2.6663-3.7644-2.4586-4.1324 1.9362-3.4296 2.9944 0.47883 4.223 0.21013 5.5022-1.2033 0.9058-1.0009 1.3459-2.1208 0.97807-2.4887-0.36787-0.36787-0.14385-0.66885 0.49781-0.66885 0.64167 0 1.1667-0.70156 1.1667-1.559 0-0.85746-0.38499-1.3211-0.85554-1.0303-0.47055 0.29082-0.64309-0.58263-0.38343-1.941 0.5323-2.7845 1.8657-3.0673 4.6223-0.98021 1.623 1.2289 2.3486 1.2315 5.25 0.01922 1.8517-0.77368 3.3667-1.1496 3.3667-0.83527 0 0.31428 0.62501 0.05271 1.3889-0.58127s1.9085-3.2161 2.5435-5.7381c1.1134-4.4218 1.2224-4.5241 3.0544-2.8661 1.0449 0.94562 2.1792 2.9915 2.5208 4.5465 1.1164 5.0831 6.5404 7.2905 10.898 4.4352l2.5942-1.6998v3.592c0 4.7049 3.7166 7.5439 7.5747 5.786 2.0356-0.92747 2.6005-0.85495 3.0803 0.3954 0.32316 0.84214-0.21933 2.4228-1.2055 3.5125-2.4835 2.7442-0.99625 9.0129 2.4779 10.444 5.8319 2.4026 10.573 5.0729 10.573 5.9552 0 0.52538-1.7021 1.3089-3.7825 1.7411-6.5677 1.3646-9.7175 3.5171-9.7175 6.6408 0 1.5322 0.93224 3.7864 2.0716 5.0094 2.9713 3.1893 1.9784 4.6535-3.1557 4.6535h-4.416v5.4828c0 6.181-1.7494 7.6091-4.9665 4.0542-1.0139-1.1204-2.6526-2.037-3.6414-2.037-2.7961 0-6.8921 2.1754-6.8921 3.6605 0 0.73672-0.44468 1.3395-0.98818 1.3395s-1.2747 1.7915-1.6248 3.9811c-0.89168 5.5762-2.8517 6.9716-4.691 3.3396zm1.304-41.762c0-0.79254-0.40775-1.693-0.90612-2.001-0.49837-0.30801-0.71021-1.3471-0.47077-2.309 0.24519-0.98506-0.85399-3.2414-2.5165-5.1659-2.7199-3.1484-3.2124-3.3421-6.2671-2.4661-2.1994 0.63079-3.6224 1.8244-4.228 3.5463-0.78921 2.2441-0.45233 3.0199 2.4878 5.7297 2.2639 2.0865 4.1608 3.0073 5.6745 2.7546 1.2506-0.20874 2.5147 0.01012 2.809 0.48636 0.87322 1.4129 3.4171 0.98476 3.4171-0.57509z"/>
  <path id="path5220" style="fill:#b5641a" d="m-217.4 121.84c-0.78571-1.5514-1.9737-4.5085-2.64-6.5712-1.5758-4.8786-4.7131-5.8023-8.9836-2.6449-4.0571 2.9995-5.8575 1.5863-4.1649-3.2691 1.5885-4.5569-0.50271-6.0908-7.1091-5.2144-5.6976 0.75581-6.2596-0.51937-1.9106-4.3355l2.8877-2.5339-2.4749-4.7703c-2.1147-4.0759-3.1145-4.9494-6.8687-6.0005-4.3869-1.2282-7.2406-3.3661-5.7304-4.2929 1.4427-0.88527 6.7442-1.0012 9.6218-0.21035 3.2874 0.90344 6.1643-0.9403 3.7732-2.4181-0.9335-0.57694-1.1895-1.8441-0.78308-3.8762 0.43254-2.1627 0.0483-3.7253-1.3548-5.5089-2.7652-3.5154-2.4802-4.0135 1.8967-3.3136 2.9944 0.47883 4.223 0.21013 5.5022-1.2033 0.9058-1.0009 1.3459-2.1208 0.97807-2.4887-0.36787-0.36787-0.2001-0.66885 0.37281-0.66885 1.9078 0 2.4503 6.1672 0.71159 8.0885-2.0448 2.2595-1.4701 5.2852 1.0916 5.7471 3.6711 0.66194 3.9702 2.1006 0.6754 3.2491-1.7528 0.61102-3.1869 1.5169-3.1869 2.0131 0 1.2141 3.2436 1.1402 6.6404-0.15119 2.3788-0.90443 3.004-0.74382 4.422 1.136 1.1308 1.4992 1.8779 1.823 2.3697 1.0273 0.39502-0.63916 1.9219-1.0379 3.3931-0.88603 2.3083 0.23823 2.7197-0.1351 3.0018-2.7239 0.17982-1.65 0.75404-3.4392 1.276-3.976 0.60478-0.62195 0.16137-1.5702-1.2222-2.6139-1.9392-1.4628-2.0489-1.989-1.026-4.9232 0.62991-1.8069 1.1453-3.8932 1.1453-4.6361 0-2.4425-1.7836-1.4104-2.8502 1.6492-1.2067 3.4615-2.7355 3.8808-3.6496 1.0008-0.50684-1.5969-1.0103-1.7982-2.5016-1-2.9121 1.5585-3.8911 1.2243-5.8502-1.9972-1.0022-1.648-2.1206-2.698-2.4853-2.3333-0.3647 0.36469-0.66308 0.11152-0.66308-0.56261s-0.38499-0.98774-0.85554-0.69693c-0.47055 0.29082-0.64309-0.58263-0.38343-1.941 0.53071-2.7762 1.8659-3.0675 4.5924-1.002 1.3976 1.0587 2.5044 1.1521 4.5 0.3794 4.4388-1.7187 5.963-1.7677 6.5604-0.21107 1.235 3.2184 2.8249 0.02726 2.2797-4.5759-0.68366-5.7725 0.29703-7.8549 2.5118-5.3338 0.85696 0.9755 1.8914 2.8986 2.2988 4.2736 1.0655 3.5964 2.2578 4.7888 5.5005 5.501 1.8959 0.41641 3.7347 0.06065 5.4309-1.0507l2.5645-1.6803v3.592c0 4.7049 3.7166 7.5439 7.5747 5.786 2.0356-0.92747 2.6005-0.85495 3.0803 0.3954 0.32316 0.84214-0.21933 2.4228-1.2055 3.5125-2.4835 2.7442-0.99625 9.0129 2.4779 10.444 5.8319 2.4026 10.573 5.0729 10.573 5.9552 0 0.52538-1.7021 1.3089-3.7825 1.7411-6.5677 1.3646-9.7175 3.5171-9.7175 6.6408 0 1.5322 0.93224 3.7864 2.0716 5.0094 2.9713 3.1893 1.9784 4.6535-3.1557 4.6535h-4.416v5.4828c0 6.181-1.7494 7.6091-4.9665 4.0542-1.0139-1.1204-2.6526-2.037-3.6414-2.037-2.7961 0-6.8921 2.1754-6.8921 3.6605 0 0.73672-0.44468 1.3395-0.98818 1.3395s-1.2747 1.7915-1.6248 3.9811c-0.89168 5.5762-2.8517 6.9716-4.691 3.3396zm-15.696-27.981c0-1.7841-0.95639-1.6889-3.1713 0.3155-2.6108 2.3627-2.2585 3.4979 0.67126 2.1631 1.375-0.62649 2.5-1.7418 2.5-2.4786z"/>
  <path id="path5218" style="fill:#946833" d="m-217.63 118.89c-0.84529-2.1298-1.955-4.8724-2.4661-6.0948-1.2579-3.0086-5.3625-3.9235-8.4693-1.8878-3.8484 2.5216-4.864 2.0689-4.2228-1.8824 0.81552-5.0254-1.3264-6.8812-6.9659-6.0355-5.0767 0.76129-5.7777-0.70313-1.8834-3.9343l2.4557-2.0376-2.2057-4.4463c-1.8187-3.6662-2.999-4.7189-6.7271-6-5.6674-1.9475-7.3845-3.0574-6.3158-4.0823 1.1913-1.1426 6.3415-1.4058 9.6604-0.49371 3.2874 0.90344 6.1643-0.9403 3.7732-2.4181-0.9335-0.57694-1.1895-1.8441-0.78308-3.8762 0.43254-2.1627 0.0483-3.7253-1.3548-5.5089-2.7652-3.5154-2.4802-4.0135 1.8967-3.3136 2.9944 0.47883 4.223 0.21013 5.5022-1.2033 0.9058-1.0009 1.3459-2.1208 0.97807-2.4887-0.36787-0.36787-0.2001-0.66885 0.37281-0.66885 1.9078 0 2.4503 6.1672 0.71159 8.0885-2.0448 2.2595-1.4701 5.2852 1.0916 5.7471 3.6711 0.66194 3.9702 2.1006 0.6754 3.2491-1.7528 0.61102-3.1869 1.5169-3.1869 2.0131 0 1.2141 3.2436 1.1402 6.6404-0.15119 2.3788-0.90443 3.004-0.74382 4.422 1.136 1.1308 1.4992 1.8779 1.823 2.3697 1.0273 0.39502-0.63916 1.9219-1.0379 3.3931-0.88603 2.3083 0.23823 2.7197-0.1351 3.0018-2.7239 0.17982-1.65 0.75404-3.4392 1.276-3.976 0.60478-0.62195 0.16137-1.5702-1.2222-2.6139-1.9392-1.4628-2.0489-1.989-1.026-4.9232 0.62991-1.8069 1.1453-3.8932 1.1453-4.6361 0-2.4425-1.7836-1.4104-2.8502 1.6492-1.2067 3.4615-2.7355 3.8808-3.6496 1.0008-0.50684-1.5969-1.0103-1.7982-2.5016-1-2.9121 1.5585-3.8911 1.2243-5.8502-1.9972-1.0022-1.648-2.1206-2.698-2.4853-2.3333-0.3647 0.36469-0.66308 0.11152-0.66308-0.56261s-0.38499-0.98774-0.85554-0.69693c-0.47055 0.29082-0.64309-0.58263-0.38343-1.941 0.53071-2.7762 1.8659-3.0675 4.5924-1.002 1.3976 1.0587 2.5044 1.1521 4.5 0.3794 4.4388-1.7187 5.963-1.7677 6.5604-0.21107 1.235 3.2184 2.8249 0.02726 2.2797-4.5759-0.68366-5.7725 0.29703-7.8549 2.5118-5.3338 0.85696 0.9755 1.8914 2.8986 2.2988 4.2736 1.0655 3.5964 2.2578 4.7888 5.5005 5.501 1.8959 0.41641 3.7347 0.06065 5.4309-1.0507l2.5645-1.6803v3.592c0 4.7049 3.7166 7.5439 7.5747 5.786 2.0356-0.92747 2.6005-0.85495 3.0803 0.3954 0.32316 0.84214-0.14201 2.3373-1.0337 3.3227-3.7662 4.1617-1.0446 9.5474 6.3035 12.474 2.9836 1.1882 5.581 2.6399 5.7719 3.226 0.19092 0.58609-2.4752 2.1611-5.9248 3.5-5.3651 2.0824-6.3174 2.8302-6.5871 5.1722-0.17338 1.5058 0.38912 3.7434 1.25 4.9725 2.2947 3.2761 1.9813 3.7897-2.3123 3.7897-5.0204 0-6.501 1.7998-5.6456 6.8628 0.81637 4.8321-0.39867 5.7731-3.899 3.0198-2.0201-1.589-3.4629-1.9391-6.017-1.4599-4.0435 0.75857-4.9712 1.7871-6.6193 7.3392-1.9274 6.493-3.6176 7.2984-5.4781 2.6105zm-15.463-25.033c0-1.7841-0.95639-1.6889-3.1713 0.3155-2.6108 2.3627-2.2585 3.4979 0.67126 2.1631 1.375-0.62649 2.5-1.7418 2.5-2.4786z"/>
  <path id="path5216" style="fill:#736451" d="m-217.63 118.89c-0.84529-2.1298-1.955-4.8724-2.4661-6.0948-1.2579-3.0086-5.3625-3.9235-8.4693-1.8878-3.7564 2.4613-4.7011 2.0504-3.9908-1.7359 0.92541-4.9328-1.5204-7.0334-7.198-6.182-5.0084 0.75106-5.3136 0.15474-1.7985-3.5142l2.5406-2.6518-2.2934-4.4029c-1.9323-3.7097-3.0748-4.6622-7.2562-6.0495-2.7295-0.90564-5.1213-2.1224-5.3151-2.7038-0.55724-1.6717 5.9006-2.9259 9.0195-1.7517 2.0213 0.76098 3.064 0.70206 3.9916-0.22556 1.0075-1.0075 1.0026-1.412-0.0248-2.0469-0.96601-0.59702-1.0236-1.4667-0.23468-3.5418 0.86005-2.2621 0.6918-3.2004-0.94762-5.2846-2.4676-3.1371-1.7092-4.6092 1.9594-3.8034 2.2157 0.48666 3.1998 0.09119 4.7836-1.9223l1.994-2.535 0.62874 3.1437c0.4363 2.1815 0.14048 3.6832-0.96649 4.9064-2.0448 2.2595-1.4701 5.2852 1.0916 5.7471 3.6711 0.66194 3.9702 2.1006 0.67539 3.2491-1.7528 0.61102-3.1869 1.5169-3.1869 2.0131 0 1.2141 3.2436 1.1402 6.6404-0.15119 2.3788-0.90443 3.004-0.74382 4.422 1.136 1.1308 1.4992 1.8779 1.823 2.3697 1.0273 0.39502-0.63916 1.9219-1.0379 3.3931-0.88603 2.3083 0.23823 2.7197-0.1351 3.0018-2.7239 0.17982-1.65 0.75404-3.4392 1.276-3.976 0.60478-0.62195 0.16137-1.5702-1.2222-2.6139-1.9392-1.4628-2.0489-1.989-1.026-4.9232 0.62991-1.8069 1.1453-3.8932 1.1453-4.6361 0-2.4425-1.7836-1.4104-2.8502 1.6492-1.2067 3.4615-2.7355 3.8808-3.6496 1.0008-0.50684-1.5969-1.0103-1.7982-2.5016-1-2.9121 1.5585-3.8911 1.2243-5.8502-1.9972-1.0022-1.648-2.0987-2.7199-2.4366-2.382-0.33792 0.33792-0.91535-0.58465-1.2832-2.0502-0.86396-3.4423 0.0821-4.3243 2.394-2.232 2.2448 2.0315 4.2207 2.0871 8.6342 0.24304 2.9621-1.2376 3.4646-1.2296 3.9608 0.06338 1.232 3.2105 2.8202 0.01028 2.2759-4.5857-0.85694-7.2355 0.77211-8.4848 3.2946-2.5266 1.1564 2.7315 2.8432 5.5289 3.7484 6.2164 1.9698 1.4961 6.8953 1.6547 7.7635 0.25 1.0988-1.778 2.5-1.062 2.5 1.2775 0 1.2526 0.73048 3.3204 1.6233 4.5951 1.4247 2.034 2.1587 2.2373 6 1.6612 4.662-0.69911 5.2572-0.08008 2.9085 3.0251-1.7752 2.347-1.9204 5.4941-0.40695 8.8158 0.79437 1.7434 2.7593 3.0059 6.6879 4.2971 3.0597 1.0056 5.719 2.3248 5.9096 2.9317 0.19061 0.60689-2.3937 2.1026-5.743 3.3238-7.6874 2.803-9.4192 5.6342-6.1504 10.055 1.1941 1.6151 2.171 3.1797 2.171 3.477 0 0.29727-1.7449 0.5405-3.8776 0.5405-5.0204 0-6.501 1.7998-5.6456 6.8628 0.81637 4.8321-0.39867 5.7731-3.899 3.0198-2.0201-1.589-3.4629-1.9391-6.017-1.4599-4.0435 0.75857-4.9712 1.7871-6.6193 7.3392-1.9274 6.493-3.6176 7.2984-5.4781 2.6105zm-15.463-25.033c0-1.7841-0.95639-1.6889-3.1713 0.3155-2.6108 2.3627-2.2585 3.4979 0.67126 2.1631 1.375-0.62649 2.5-1.7418 2.5-2.4786z"/>
  <path id="path5214" style="fill:#8d5926" d="m-217.63 118.89c-0.84529-2.1298-1.955-4.8724-2.4661-6.0948-1.2579-3.0086-5.3625-3.9235-8.4693-1.8878-3.7564 2.4613-4.7011 2.0504-3.9908-1.7359 0.92541-4.9328-1.5204-7.0334-7.198-6.182-5.903 0.88521-5.5362-0.62437 1.1325-4.6604 3.0094-1.8213 5.4844-3.874 5.5-4.5615 0.0386-1.7004-1.4574-1.5745-2.9716 0.25-2.0122 2.4246-3.7135 1.7492-5.6676-2.25-1.4885-3.0462-2.7643-4.059-6.7979-5.3966-2.731-0.90564-5.131-2.1431-5.3333-2.75-0.34945-1.0483 1.2609-1.2993 9.7258-1.5158 3.4028-0.08701 3.4277-0.12168 3.5278-4.9159 0.0555-2.6556-0.24675-5.0431-0.67158-5.3057-0.42482-0.26256-1.2763-1.4189-1.8921-2.5695-1.0451-1.9529-0.91779-2.0518 1.9124-1.4857 2.1825 0.43651 3.7354 0.05325 5.542-1.3678 2.5067-1.9718 2.5106-1.9717 3.1723 0.1131 0.42054 1.325 0.0497 2.7644-1.0153 3.9413-2.1167 2.3389-1.593 5.3692 1.009 5.8383 3.6711 0.66194 3.9702 2.1006 0.6754 3.2491-1.7528 0.61102-3.1869 1.5169-3.1869 2.0131 0 1.2141 3.2436 1.1402 6.6404-0.15119 2.3788-0.90443 3.004-0.74382 4.422 1.136 1.1308 1.4992 1.8779 1.823 2.3697 1.0273 0.39502-0.63916 1.9219-1.0379 3.3931-0.88603 2.3083 0.23823 2.7197-0.1351 3.0018-2.7239 0.17982-1.65 0.75404-3.4392 1.276-3.976 0.60478-0.62195 0.16137-1.5702-1.2222-2.6139-1.9392-1.4628-2.0489-1.989-1.026-4.9232 0.62991-1.8069 1.1453-3.8932 1.1453-4.6361 0-2.4425-1.7836-1.4104-2.8502 1.6492-1.2067 3.4615-2.7355 3.8808-3.6496 1.0008-0.50684-1.5969-1.0103-1.7982-2.5016-1-3.0013 1.6063-3.831 1.2249-6.486-2.9809-3.2733-5.1852-3.1837-6.0995 0.46262-4.7231 2.2711 0.85725 3.8208 0.81723 6.5484-0.16911 2.5648-0.92744 3.9384-0.98912 4.8668-0.21854 1.9331 1.6043 2.6096 0.28851 2.6096-5.0757 0-2.6583 0.42894-4.8333 0.95321-4.8333 0.52426 0 1.852 2.0318 2.9504 4.5151 1.6272 3.6784 2.6086 4.6441 5.2968 5.2113 3.5512 0.74926 3.4468 0.75373 6.0496-0.25925 1.2885-0.50148 1.75-0.18414 1.75 1.2034 0 1.0365 0.73737 2.9372 1.6386 4.2239 1.4286 2.0395 2.1977 2.2628 6 1.7416 4.6807-0.64156 5.1957-0.12134 2.8932 2.9228-1.7752 2.347-1.9204 5.4941-0.40695 8.8158 0.79437 1.7434 2.7593 3.0059 6.6879 4.2971 3.0597 1.0056 5.719 2.3248 5.9096 2.9317 0.19061 0.60689-2.3937 2.1026-5.743 3.3238-7.6874 2.803-9.4192 5.6342-6.1504 10.055 1.1941 1.6151 2.171 3.1797 2.171 3.477 0 0.29727-1.7449 0.5405-3.8776 0.5405-5.0204 0-6.501 1.7998-5.6456 6.8628 0.81637 4.8321-0.39867 5.7731-3.899 3.0198-2.0201-1.589-3.4629-1.9391-6.017-1.4599-4.0435 0.75857-4.9712 1.7871-6.6193 7.3392-1.9274 6.493-3.6176 7.2984-5.4781 2.6105z"/>
  <path id="path5212" style="fill:#66594a" d="m-217.12 117.96c-0.53639-1.4108-0.97525-2.9858-0.97525-3.5s-0.43588-0.9349-0.96861-0.9349c-0.53274 0-0.70254-0.69341-0.37732-1.5409 0.32521-0.84749 0.19859-1.4487-0.28139-1.336-0.47997 0.11271-2.1135-0.14349-3.63-0.56934-1.9228-0.53994-3.5011-0.28693-5.2148 0.83596-3.6616 2.3992-4.4102 2.0222-3.5508-1.7882 0.96555-4.2812 0.40759-5.1358-4.1754-6.3954-2.6951-0.74072-3.8273-0.7031-4.1739 0.13868-0.32607 0.79199-0.80319 0.68357-1.5177-0.34488-0.8357-1.2029-0.0646-2.0943 3.8925-4.5 2.7141-1.65 4.9488-3.5625 4.966-4.25 0.0426-1.7006-1.4545-1.5745-2.9687 0.25-1.8846 2.2707-2.9636 1.8314-4.4932-1.8296-1.7417-4.1686-2.945-5.1487-8.2568-6.7254-7.0641-2.0969-5.677-3.0926 4.677-3.3574 3.4062-0.0871 3.4276-0.11714 3.5284-4.9495 0.0558-2.674-0.45951-5.599-1.1452-6.5-1.9057-2.5042-1.5523-3.4157 1.0692-2.7577 1.5752 0.39536 3.2406-0.08025 4.9276-1.4073l2.5482-2.0044 0.66249 2.0873c0.42054 1.325 0.0497 2.7644-1.0153 3.9413-2.1167 2.3389-1.593 5.3692 1.009 5.8383 3.6711 0.66194 3.9702 2.1006 0.6754 3.2491-1.7528 0.61102-3.1869 1.5169-3.1869 2.0131 0 1.2141 3.2436 1.1402 6.6404-0.15119 2.3788-0.90443 3.004-0.74382 4.422 1.136 1.1308 1.4992 1.8779 1.823 2.3697 1.0273 0.39502-0.63916 1.9219-1.0379 3.3931-0.88603 2.3083 0.23823 2.7197-0.1351 3.0018-2.7239 0.17982-1.65 0.75404-3.4392 1.276-3.976 0.60478-0.62195 0.16137-1.5702-1.2222-2.6139-1.9392-1.4628-2.0489-1.989-1.026-4.9232 0.62991-1.8069 1.1453-3.8932 1.1453-4.6361 0-2.4425-1.7836-1.4104-2.8502 1.6492-1.2067 3.4615-2.7355 3.8808-3.6496 1.0008-0.50684-1.5969-1.0103-1.7982-2.5016-1-3.0013 1.6063-3.831 1.2249-6.486-2.9809-3.2733-5.1852-3.1837-6.0995 0.46262-4.7231 2.2711 0.85725 3.8208 0.81723 6.5484-0.16911 2.5648-0.92744 3.9384-0.98912 4.8668-0.21854 1.9331 1.6043 2.6096 0.28851 2.6096-5.0757 0-2.6583 0.42894-4.8333 0.95321-4.8333 0.52426 0 1.852 2.0318 2.9504 4.5151 1.6272 3.6784 2.6086 4.6441 5.2968 5.2113 3.5512 0.74926 3.4468 0.75373 6.0496-0.25925 1.376-0.53554 1.75-0.15711 1.75 1.7709 0 3.7637 3.2599 6.1438 7.4774 5.4594 3.8715-0.62826 4.8031 0.99502 1.9364 3.3742-3.4162 2.8352 0.53951 11.33 5.8023 12.46 1.8061 0.38786 4.1004 1.1334 5.0984 1.6566 2.5309 1.327 0.61839 3.4143-3.906 4.2631-6.8948 1.2935-9.2663 6.382-5.3088 11.391l2.0998 2.6577-3.8371 0.32451c-5.0666 0.42849-6.4538 1.7489-6.1758 5.8782 0.27274 4.0497-1.758 5.869-4.0229 3.604-1.8257-1.8257-7.5568-1.1659-10.134 1.1667-0.94738 0.85737-2.2596 3.3516-2.9161 5.5427-1.3778 4.5986-2.7502 5.0691-4.1381 1.4188z"/>
  <path id="path5210" style="fill:#565656" d="m-217.15 117.89c-0.55039-1.4476-0.77453-3.3602-0.49807-4.25 0.61774-1.9884-0.92477-4.7795-1.831-3.3132-0.4238 0.68572-1.5747 0.66142-3.5241-0.0744-2.3377-0.88238-3.3885-0.76912-5.4605 0.58849-3.7733 2.4724-4.5244 2.1198-3.659-1.7173 0.96555-4.2811 0.40759-5.1358-4.1754-6.3954-2.6951-0.74072-3.8273-0.70311-4.1739 0.13868-0.32623 0.79237-0.80525 0.68406-1.5254-0.34488-0.7858-1.1228-0.67053-1.583 0.45839-1.83 0.8295-0.18149 2.5972-1.419 3.9282-2.75s2.8905-2.42 3.4655-2.42 1.0454-0.675 1.0454-1.5c0-1.9139-0.90063-1.8999-3.0524 0.04743-1.5448 1.398-1.8662 1.3911-3.3288-0.07143-0.89037-0.89037-1.6188-2.192-1.6188-2.8924 0-2.0021-3.12-4.2739-7.75-5.6432-6.6366-1.9628-5.7303-2.648 4.25-3.2137 3.941-0.22335 3.998-0.2819 3.8612-3.967-0.0763-2.0572 0.26116-3.4931 0.75-3.191 0.48883 0.30212 0.88879-0.40381 0.88879-1.5687s-0.35993-1.8956-0.79985-1.6237c-0.43991 0.27188-1.3845-0.4418-2.099-1.586-1.1122-1.7809-1.0813-1.9967 0.21433-1.4995 0.83243 0.31943 3.1544-0.25577 5.1599-1.2782 3.1036-1.5823 3.7298-1.6416 4.2068-0.39855 0.30824 0.80326-0.20859 2.3102-1.1485 3.3488-2.1438 2.3689-1.639 5.4009 0.97785 5.8727 3.6711 0.66194 3.9702 2.1006 0.6754 3.2491-1.7528 0.61102-3.1869 1.5169-3.1869 2.0131 0 1.2141 3.2436 1.1402 6.6404-0.15119 2.3788-0.90443 3.004-0.74382 4.422 1.136 1.1308 1.4992 1.8779 1.823 2.3697 1.0273 0.39502-0.63916 1.9219-1.0379 3.3931-0.88603 2.3083 0.23823 2.7197-0.1351 3.0018-2.7239 0.17982-1.65 0.75404-3.4392 1.276-3.976 0.60478-0.62195 0.16137-1.5702-1.2222-2.6139-1.9392-1.4628-2.0489-1.989-1.026-4.9232 0.62991-1.8069 1.1453-3.8932 1.1453-4.6361 0-2.4425-1.7836-1.4104-2.8502 1.6492-1.2067 3.4615-2.7355 3.8808-3.6496 1.0008-0.50684-1.5969-1.0103-1.7982-2.5016-1-1.0269 0.54959-2.3533 0.99925-2.9476 0.99925-0.98536 0-5.0385-5.6954-5.0473-7.0924-0.002-0.3258 1.9088-0.65817 4.2463-0.73859 11.266-0.38758 11.198-0.35523 11.75-5.627 0.47344-4.5228 0.58612-4.6773 2.1215-2.9093 0.89183 1.027 2.1346 2.86 2.7618 4.0735 1.1983 2.3185 6.851 4.4227 10.166 3.7842 1.3055-0.25142 1.9615 0.18407 1.9838 1.3169 0.0183 0.93092 0.92006 2.7571 2.0039 4.0582 1.9062 2.2883 2.9795 2.3836 7.2128 0.64086 2.2622-0.93128 2.3841 1.7224 0.1638 3.5651-3.4162 2.8352 0.53951 11.33 5.8023 12.46 1.8061 0.38786 4.1004 1.1334 5.0984 1.6566 2.5309 1.327 0.61839 3.4143-3.906 4.2631-6.8948 1.2935-9.2663 6.382-5.3088 11.391l2.0998 2.6577-3.8371 0.32451c-5.0666 0.42849-6.4538 1.7489-6.1758 5.8782 0.27274 4.0497-1.758 5.869-4.0229 3.604-1.8257-1.8257-7.5568-1.1659-10.134 1.1667-0.94738 0.85737-2.2596 3.3516-2.9161 5.5427-1.3853 4.6238-2.751 5.0672-4.1635 1.3518zm-2.9498-4.8089c0-0.24254 0.45-0.71909 1-1.059 0.55-0.33992 1-0.14148 1 0.44098s-0.45 1.059-1 1.059-1-0.19844-1-0.44099z"/>
  <path id="path5208" style="fill:#90521a" d="m-217.07 118.09c-0.50808-1.3364-0.66552-4.1489-0.34986-6.25 0.53845-3.5841 0.46774-3.7196-1.144-2.192-1.3776 1.3057-2.2738 1.4184-4.5245 0.56885-2.2339-0.8432-3.3301-0.71634-5.3723 0.62179-3.7733 2.4724-4.5244 2.1198-3.659-1.7173 0.96555-4.2812 0.40759-5.1358-4.1754-6.3954-2.6951-0.74072-3.8273-0.7031-4.1739 0.13868-0.32623 0.79237-0.80525 0.68406-1.5254-0.34488-0.79695-1.1387-0.64994-1.5865 0.61039-1.8592 3.2611-0.70566 9.2872-5.4252 9.2872-7.2736 0-2.2432-2.2701-2.4515-4-0.36711-1.7984 2.167-3.7605 1.8436-4.5509-0.75-1.1026-3.6182-3.2506-5.4345-7.9992-6.764-2.4475-0.68525-4.4488-1.5249-4.4473-1.8659 0.001-0.34102 2.9045-0.62004 6.4513-0.62004 7.6202 0 9.5398-1.2432 7.1618-4.6382-1.7735-2.532-2.1369-4.3019-0.70114-3.4146 0.50302 0.31089 1.1263-0.000057 1.385-0.69098 0.25875-0.69093 0.81024 1.1446 1.2255 4.0789 0.4153 2.9343 1.2746 5.5345 1.9095 5.7781 0.63491 0.24364 3.0062-0.21036 5.2695-1.0089 4.699-1.6579 5.2959-1.3691 5.2959 2.5623 0 3.6048 3.6784 4.1181 4.1804 0.58333 0.25029-1.7623 0.96979-2.25 3.3196-2.25 2.653 0 3.0362-0.37549 3.3131-3.2468 0.24075-2.4964 0.88789-3.391 2.8-3.871 3.4035-0.85422 2.7598-3.8669-0.83933-3.9282-3.6982-0.06295-4.2456-0.90095-2.8264-4.327 1.8854-4.5516 1.0612-7.6078-2.0836-7.7264-4.2148-0.15884-6.3931-1.2713-5.0734-2.5911 0.83312-0.83311 1.5215-0.7956 2.6545 0.14466 2.618 2.1728 4.5551 0.50457 4.5551-3.9229 0-4.7676 1.3532-5.1829 3.481-1.0681 1.0954 2.1183 2.7009 3.2779 5.6305 4.0668 2.254 0.60693 4.726 0.86259 5.4933 0.56813 0.88309-0.33888 1.3952 0.14223 1.3952 1.3108 0 1.0154 0.675 2.4064 1.5 3.0911 0.825 0.68469 1.5 1.8708 1.5 2.6359 0 1.1654 0.58732 1.1456 3.6221-0.12244 1.9922-0.83238 3.7922-1.5134 4-1.5134 1.0446 0 0.17763 2.9213-1.2083 4.0715-3.4162 2.8352 0.53951 11.33 5.8023 12.46 1.8061 0.38786 4.1004 1.1334 5.0984 1.6566 2.5309 1.327 0.61839 3.4143-3.906 4.2631-6.8948 1.2935-9.2663 6.382-5.3088 11.391l2.0998 2.6577-3.8371 0.32451c-5.0666 0.42849-6.4538 1.7489-6.1758 5.8782 0.27274 4.0497-1.758 5.869-4.0229 3.604-1.8257-1.8257-7.5568-1.1659-10.134 1.1667-0.94738 0.85737-2.2596 3.3516-2.9161 5.5427-1.362 4.5459-2.7486 5.0732-4.0866 1.5542zm1.5109-19.32c-0.90334-3.6576-2.5376-5.2882-2.5376-2.5318 0 2.8861 1.0048 5.2818 2.2154 5.2818 0.59044 0 0.72269-1.1286 0.32225-2.75zm17.962-31.25c0.33992-0.55 0.16803-1-0.38197-1s-1.2781 0.45-1.618 1c-0.33992 0.55-0.16803 1 0.38197 1s1.2781-0.45 1.618-1zm-22.5 45.559c0-0.24254 0.45-0.71909 1-1.059 0.55-0.33992 1-0.14148 1 0.44098s-0.45 1.059-1 1.059-1-0.19844-1-0.44099zm-21.963-42.871c-1.0679-1.7099-1.0074-1.8908 0.44533-1.3333 0.92444 0.35474 2.094 0.64499 2.599 0.64499 0.50501 0 0.91821 0.6 0.91821 1.3333 0 2.0147-2.562 1.5976-3.9626-0.64499zm12.998-6.6226c-2.5561-4.7762-0.18569-6.6277 4.0716-3.1804 1.9961 1.6164 2.1371 2.1158 0.98834 3.5-1.7959 2.1639-3.7985 2.0374-5.0599-0.31964z"/>
  <path id="path5206" style="fill:#6f4e2d" d="m-216.99 118.27c-0.46295-1.2375-1.1563-3.375-1.5408-4.75-0.53274-1.9053-0.44921-2.1432 0.35116-1 0.83871 1.1979 1.0533 0.92155 1.0655-1.3724 0.0119-2.2255-0.27379-2.6325-1.2682-1.8072-0.81367 0.67529-1.8204 0.72572-2.75 0.13776-2.242-1.418-5.7653-1.136-8.5425 0.68368l-2.5057 1.6418 0.25258-3.7504c0.31573-4.6882-2.1704-6.9106-6.9025-6.1704-1.7774 0.27802-3.4915 0.0851-3.809-0.42866-0.31754-0.51378 0.13386-0.93415 1.0031-0.93415 2.6737 0 9.5376-5.1333 9.5376-7.1329 0-2.2432-2.2701-2.4515-4-0.36711-1.7984 2.167-3.7605 1.8436-4.5509-0.75-1.1026-3.6182-3.2506-5.4345-7.9992-6.764-2.4475-0.68525-4.4488-1.5249-4.4473-1.8659 0.001-0.34102 2.9045-0.62004 6.4513-0.62004 7.6202 0 9.5398-1.2432 7.1618-4.6382-1.7735-2.532-2.1369-4.3019-0.70114-3.4146 0.50302 0.31089 1.1263-0.000057 1.385-0.69098 0.25875-0.69093 0.81024 1.1446 1.2255 4.0789 0.4153 2.9343 1.2746 5.5345 1.9095 5.7781 0.63491 0.24364 3.0062-0.21036 5.2695-1.0089 4.699-1.6579 5.2959-1.3691 5.2959 2.5623 0 3.6048 3.6784 4.1181 4.1804 0.58333 0.25029-1.7623 0.96979-2.25 3.3196-2.25 2.653 0 3.0362-0.37549 3.3131-3.2468 0.24075-2.4964 0.88789-3.391 2.8-3.871 3.4035-0.85422 2.7598-3.8669-0.83933-3.9282-3.6982-0.06295-4.2456-0.90095-2.8264-4.327 1.8854-4.5516 1.0612-7.6078-2.0836-7.7264-4.2148-0.15884-6.3931-1.2713-5.0734-2.5911 0.83312-0.83311 1.5215-0.7956 2.6545 0.14466 2.618 2.1728 4.5551 0.50457 4.5551-3.9229 0-4.7676 1.3532-5.1829 3.481-1.0681 1.0954 2.1183 2.7009 3.2779 5.6305 4.0668 2.254 0.60693 4.726 0.86259 5.4933 0.56813 0.88309-0.33888 1.3952 0.14223 1.3952 1.3108 0 1.0154 0.675 2.4064 1.5 3.0911 0.825 0.68469 1.5 1.8708 1.5 2.6359 0 1.1654 0.58732 1.1456 3.6221-0.12244 1.9922-0.83238 3.7922-1.5134 4-1.5134 1.0131 0 0.19846 2.904-1.1221 4-1.9585 1.6254-1.892 3.7222 0.25155 7.9415 1.3857 2.7275 2.7858 3.7649 6.7484 5 2.75 0.85716 5 1.9944 5 2.5272 0 0.53278-2.25 1.7922-5 2.7986-2.75 1.0065-5.5625 2.569-6.25 3.4724-1.6962 2.2288-1.5751 5.7456 0.25 7.2603 2.3869 1.981 1.7602 3-1.845 3-4.7071 0-6.9795 2.7531-6.1078 7.3996 0.52981 2.8241 0.35443 3.6004-0.81341 3.6004-0.81887 0-2.0776-0.70939-2.7972-1.5764-0.96721-1.1654-2.2376-1.4028-4.8724-0.91052-4.7704 0.89129-5.6718 1.7896-7.5897 7.5639-1.7839 5.3708-3.0634 6.1542-4.3657 2.673zm1.4289-19.5c-0.90334-3.6576-2.5376-5.2882-2.5376-2.5318 0 2.8861 1.0048 5.2818 2.2154 5.2818 0.59044 0 0.72269-1.1286 0.32225-2.75zm17.962-31.25c0.33992-0.55 0.16803-1-0.38197-1s-1.2781 0.45-1.618 1c-0.33992 0.55-0.16803 1 0.38197 1s1.2781-0.45 1.618-1zm-44.463 2.6883c-1.0679-1.7099-1.0074-1.8908 0.44533-1.3333 0.92444 0.35474 2.094 0.64499 2.599 0.64499 0.50501 0 0.91821 0.6 0.91821 1.3333 0 2.0147-2.562 1.5976-3.9626-0.64499zm12.998-6.6226c-2.5561-4.7762-0.18569-6.6277 4.0716-3.1804 1.9961 1.6164 2.1371 2.1158 0.98834 3.5-1.7959 2.1639-3.7985 2.0374-5.0599-0.31964z"/>
  <path id="path5204" style="fill:#474746" d="m-216.46 118.01c-0.34803-0.90696-0.63367-3.2997-0.63477-5.3172-0.002-3.3959-0.24307-3.6953-3.25-4.0333-5.175-0.5817-7.1287-0.51473-8.998 0.30845-1.3983 0.61574-1.75 0.28169-1.75-1.662 0-2.7148-3.4383-6.3886-6.5-6.9453-1.6818-0.30577-1.4033-0.73242 1.75-2.6814 2.2248-1.3751 3.75-3.0981 3.75-4.2362 0-2.2866-2.2539-2.5224-4-0.41844-1.8848 2.2711-2.8309 1.8404-4.4454-2.0235-1.086-2.5991-2.598-4.002-5.7634-5.3475l-4.2912-1.824 5.3089-0.51139c6.3153-0.60834 7.8619-1.7467 6.1334-4.5146-0.89049-1.4259-0.93142-2.4752-0.1509-3.8679 0.90247-1.6103 1.1827-1.0713 1.78 3.424 0.38991 2.9343 1.2284 5.5345 1.8633 5.7781 0.63491 0.24364 3.0062-0.21036 5.2695-1.0089 4.699-1.6579 5.2959-1.3691 5.2959 2.5623 0 3.6048 3.6784 4.1181 4.1804 0.58333 0.25029-1.7623 0.96979-2.25 3.3196-2.25 2.653 0 3.0362-0.37549 3.3131-3.2468 0.24075-2.4964 0.88789-3.391 2.8-3.871 3.4035-0.85422 2.7598-3.8669-0.83933-3.9282-3.6982-0.06295-4.2456-0.90095-2.8264-4.327 1.8854-4.5516 1.0612-7.6078-2.0836-7.7264-4.2148-0.15884-6.3931-1.2713-5.0734-2.5911 0.83312-0.83311 1.5215-0.7956 2.6545 0.14466 2.618 2.1728 4.5551 0.50457 4.5551-3.9229 0-4.7711 1.1189-5.2041 2.6902-1.041 1.1864 3.1431 4.5335 4.9906 9.1248 5.0366 2.0258 0.0203 3.2711 0.97766 5.0727 3.8999 2.2363 3.6273 2.5726 3.8086 5.301 2.8575 3.7113-1.2938 4.3842-0.5886 2.3707 2.4844-1.4788 2.2569-1.4606 2.7711 0.23925 6.7736 1.5992 3.7656 2.4835 4.5467 6.7704 5.9808 2.712 0.90723 4.9308 1.9983 4.9308 2.4246 0 0.42633-2.3133 1.6381-5.1408 2.6928-6.3669 2.3751-8.6269 6.2758-5.9781 10.318 2.1674 3.3078 2.0451 3.8649-0.69729 3.1766-3.7957-0.95265-6.6838 1.822-6.6838 6.4212 0 4.3781-0.48309 4.7211-3.1941 2.2677-1.7349-1.5701-2.1431-1.5543-6.4809 0.25-3.8413 1.5978-4.8632 2.6024-6.003 5.9015-1.6925 4.8986-2.8608 6.1684-3.6892 4.0096zm0.90487-19.235c-0.90334-3.6576-2.5376-5.2882-2.5376-2.5318 0 2.8861 1.0048 5.2818 2.2154 5.2818 0.59044 0 0.72269-1.1286 0.32225-2.75zm17.962-31.25c0.33992-0.55 0.16803-1-0.38197-1s-1.2781 0.45-1.618 1c-0.33992 0.55-0.16803 1 0.38197 1s1.2781-0.45 1.618-1zm-42.5 3.5c-1.0196-1.2285-0.95123-1.5 0.37756-1.5 0.89234 0 1.6224 0.675 1.6224 1.5s-0.1699 1.5-0.37755 1.5c-0.20766 0-0.93776-0.675-1.6224-1.5zm11.035-7.4343c-1.6009-2.9913-1.2462-4.0657 1.3424-4.0657 3.2852 0 5.2901 2.4906 3.6224 4.5-1.7072 2.057-3.726 1.8805-4.9648-0.43426z"/>
  <path id="path5202" style="fill:#544434" d="m-216.36 118.36c-0.27107-0.73563-0.26622-3.4142 0.0108-5.9523 0.49491-4.5348-1.1134-7.6894-2.3188-4.5482-0.44437 1.158-1.2754 1.2667-3.9784 0.5204-2.2512-0.62158-4.0814-0.58761-5.3655 0.0996-2.7546 1.4742-3.0803 1.3386-3.0803-1.2827 0-2.7517-3.8195-6.6579-6.5644-6.7134-1.3386-0.0271-0.93929-0.47225 1.2948-1.4434 1.7767-0.77237 4.0267-2.6673 5-4.2109 1.5648-2.4817 2.3766-2.8114 7.012-2.8488 5.7369-0.04627 8.5026-1.6128 6.4577-3.6577-1.8536-1.8536-1.4457-2.6389 1.55-2.9836 2.2915-0.26366 2.8022-0.85834 3.0634-3.5664 0.30461-3.1593 2.3523-4.409 3.6866-2.25 1.0204 1.651 2.113 1.1448 3.3395-1.5471 1.4488-3.1798 1.4759-6.4988 0.0829-10.138l-1.0777-2.8151-1.313 3.1048c-1.2864 3.0417-4.9958 5.0713-6.0756 3.3242-0.30023-0.4858 0.58565-2.91 1.9686-5.3872 2.4647-4.4148 2.4755-4.5248 0.54489-5.558-1.2796-0.68481-1.9696-2.0928-1.9696-4.0189 0-3.3696 0.99481-3.804 2.6483-1.1564 1.116 1.7871 8.7106 4.6822 10.122 3.8587 0.40119-0.23403 1.789 1.2076 3.084 3.2037s2.0234 3.3075 1.6185 2.9144c-1.0781-1.0469-4.4731 1.0403-4.4731 2.75 0 0.80565 0.63853 1.4648 1.419 1.4648 1.7845 0 7.5662-3.244 7.5747-4.25 0.003-0.4125 0.68132-0.75 1.5063-0.75 1.8804 0 1.8774 0.49436-0.0203 3.3907-1.3762 2.1003-1.3459 2.7312 0.31915 6.6516 1.5992 3.7656 2.4835 4.5467 6.7704 5.9808 2.712 0.90723 4.9308 1.9983 4.9308 2.4246 0 0.42633-2.3133 1.6381-5.1408 2.6928-6.3669 2.3751-8.6269 6.2758-5.9781 10.318 2.1674 3.3078 2.0451 3.8649-0.69729 3.1766-3.7957-0.95265-6.6838 1.822-6.6838 6.4212 0 4.3781-0.48309 4.7211-3.1941 2.2677-1.7349-1.5701-2.1431-1.5543-6.4809 0.25-3.8413 1.5978-4.8632 2.6024-6.003 5.9015-1.6142 4.6719-2.8999 6.234-3.5899 4.3617zm2.2679-17.887c0-2.8513-2.8809-8.142-4.0426-7.424-1.2664 0.78266-1.2217 5.1113 0.0778 7.5394 1.3682 2.5565 3.9648 2.481 3.9648-0.1154zm15-19.95c-1.9701-1.2732-4.2869-1.2732-3.5 0 0.33992 0.55 1.604 0.99311 2.809 0.98469 1.7812-0.01245 1.9105-0.1966 0.69098-0.98469zm-41.363 10.675c-1.155-2.7643-2.6096-4.1695-5.6545-5.4627l-4.0995-1.7411 6.0583-0.13927c3.3321-0.0766 6.0652 0.15495 6.0736 0.51456 0.008 0.35961 0.37295 1.2171 0.81007 1.9055 0.60898 0.95912 1.9494 0.69137 5.7347-1.1455 2.717-1.3184 5.1065-2.2402 5.31-2.0483 0.20355 0.1919 0.0867 1.4781-0.25971 2.8582-0.47491 1.8922-1.6726 2.8059-4.8701 3.7153-2.3322 0.66329-4.9845 2.1192-5.8941 3.2354-1.6247 1.9937-1.6811 1.9639-3.2088-1.6923zm12.317-28.76c-1.4822-2.7695-0.32586-3.787 1.5244-1.3414 1.7112 2.2618 1.9004 3.427 0.55665 3.427-0.53064 0-1.4671-0.93854-2.081-2.0856z"/>
  <path id="path5200" style="fill:#48392b" d="m-216.1 112.08c0-4.2699-1.2303-6.6135-2.4423-4.6524-0.31927 0.51659-3.0504 0.88142-6.0691 0.81074-4.1068-0.0962-5.4886-0.49899-5.4886-1.6001 0-0.80938-1.4625-2.6969-3.25-4.1946l-3.25-2.723 2.6909-2.1259c1.48-1.1693 2.9386-2.9017 3.2413-3.8499 0.43235-1.3541 1.7214-1.7239 6.0096-1.7239 5.9148 0 8.8508-1.6074 6.7582-3.7-1.8536-1.8536-1.4457-2.6389 1.55-2.9836 2.2915-0.26366 2.8022-0.85834 3.0634-3.5664 0.30461-3.1593 2.3523-4.409 3.6866-2.25 1.0204 1.651 2.113 1.1448 3.3395-1.5471 1.4488-3.1798 1.4759-6.4988 0.0829-10.138l-1.0777-2.8151-1.313 3.1048c-1.2864 3.0417-4.9958 5.0713-6.0756 3.3242-0.30023-0.4858 0.58565-2.91 1.9686-5.3872 2.4647-4.4148 2.4755-4.5248 0.54489-5.558-1.2684-0.67886-1.9696-2.0926-1.9696-3.9712v-2.9171l2.5953 2.4053c1.4725 1.3646 4.4501 2.6834 6.8824 3.0482 3.17 0.47536 4.6347 1.2925 5.6213 3.136 1.1655 2.1777 1.1171 2.6147-0.38235 3.4538-2.1019 1.1763-2.2693 3.8613-0.24079 3.8613 0.81171 0 2.9492-0.89832 4.75-1.9963 4.2267-2.577 4.9668-2.5207 3.6904 0.28078-0.79133 1.7368-0.60279 3.4645 0.78633 7.2058 1.6816 4.5292 2.1787 5.0069 6.239 5.9955 2.4265 0.5908 4.5593 1.5168 4.7397 2.0579 0.18035 0.54103-1.8691 1.764-4.5544 2.7177-3.7339 1.3262-5.1839 2.4623-6.1647 4.8302-1.1094 2.6784-1.0394 3.5076 0.51929 6.1462l1.8018 3.0501-2.4577-0.61685c-3.7433-0.93951-6.8254 1.7183-6.8254 5.8857 0 3.8119-0.19433 3.9634-2.9096 2.2677-3.1634-1.9756-10.941 1.5729-12.706 5.7972-1.9526 4.6733-3.3848 4.2237-3.3848-1.0626zm2-11.609c0-2.8513-2.8809-8.142-4.0426-7.424-1.2664 0.78266-1.2217 5.1113 0.0778 7.5394 1.3682 2.5565 3.9648 2.481 3.9648-0.1154zm15-19.95c-1.9701-1.2732-4.2869-1.2732-3.5 0 0.33992 0.55 1.604 0.99311 2.809 0.98469 1.7812-0.01245 1.9105-0.1966 0.69098-0.98469zm-41.441 9.4859c-0.80754-1.9327-2.2013-3.7954-3.0973-4.1392-1.3047-0.50068-1.3635-0.79341-0.29516-1.4706 1.6581-1.0511 5.8284-1.141 5.8492-0.12615 0.0599 2.9317 1.7988 3.1592 6.5448 0.85621 2.717-1.3184 5.1065-2.2402 5.31-2.0483 0.20355 0.1919 0.0814 1.4992-0.27146 2.9051-0.50344 2.0059-1.6323 2.8211-5.2438 3.787-2.5312 0.677-4.8197 1.7977-5.0855 2.4904-0.84215 2.1946-2.1953 1.3725-3.7108-2.2545zm12.441-27.486c-0.5887-1.1-0.69453-2-0.23518-2 1.0632 0 3.2352 2.1483 3.2352 3.2 0 1.5522-1.943 0.77494-3-1.2z"/>
  <path id="path5198" style="fill:#383737" d="m-216.29 111.77c-0.23345-3.6381-0.6559-4.6588-1.8048-4.3604-2.1934 0.56961-9.2976 0.76744-10.75 0.29934-0.6875-0.22158-1.25-1.2547-1.25-2.2959s-0.6199-1.893-1.3776-1.893c-0.75766 0-1.9952-0.76138-2.75-1.692-1.1815-1.4566-1.1638-1.5854 0.12755-0.92584 0.825 0.42136 0.69927 0.11096-0.27939-0.68978-1.5366-1.2572-1.5715-1.5357-0.25572-2.0406 0.83801-0.32158 2.3137-1.8373 3.2794-3.3683 1.5489-2.4557 2.3731-2.7886 6.998-2.8259 5.7369-0.04627 8.5026-1.6128 6.4577-3.6577-1.8536-1.8536-1.4457-2.6389 1.55-2.9836 2.2915-0.26366 2.8022-0.85834 3.0634-3.5664 0.30461-3.1593 2.3523-4.409 3.6866-2.25 1.0204 1.651 2.113 1.1448 3.3395-1.5471 1.4488-3.1798 1.4759-6.4988 0.0829-10.138l-1.0777-2.8151-1.313 3.1048c-1.2864 3.0417-4.9958 5.0713-6.0756 3.3242-0.30023-0.4858 0.58565-2.91 1.9686-5.3872 2.4647-4.4148 2.4755-4.5248 0.54489-5.558-1.2921-0.69153-1.9696-2.0931-1.9696-4.0747v-3.0206l2.2516 2.6176c1.4746 1.7144 3.6312 2.8045 6.25 3.1593 4.917 0.66612 8.95 4.9428 6.1428 6.5138-2.028 1.1349-2.1696 3.8208-0.2015 3.8208 0.79356 0 3.0581-0.95301 5.0322-2.1178l3.5894-2.1178-1.2705 2.7884c-1.0097 2.216-1.015 2.8735-0.026 3.2032 0.68446 0.22815 1.0221 0.7747 0.75022 1.2145-0.27184 0.43985-0.0137 2.1784 0.57376 3.8634 0.78158 2.242 2.0523 3.3838 4.738 4.2572 2.0185 0.65639 4.4239 1.7107 5.3453 2.343 1.4345 0.98429 0.96729 1.401-3.25 2.8988-2.7089 0.96212-4.9253 2.1487-4.9253 2.6368s-0.70576 1.5932-1.5684 2.4558c-0.8626 0.8626-1.318 2.3572-1.012 3.3214 0.30602 0.96419 0.44928 2.1577 0.31836 2.6523-0.13092 0.49457 0.66196 1.289 1.762 1.7654 1.6566 0.71742 1.5593 0.7823-0.56617 0.37787-3.3499-0.63741-6.9338 1.9238-6.9338 4.9552 0 2.6034-1.4942 4.1298-2.4805 2.5339-0.34026-0.55055-1.6889-0.91243-2.997-0.80417s-2.2227 0.44867-2.0325 0.75647c0.19022 0.30779-1.6089 1.3681-3.9981 2.3563-3.1097 1.2862-4.6344 2.6296-5.3659 4.7282-1.4281 4.0966-1.9688 3.673-2.3212-1.8185zm2.1952-11.3c0-2.8513-2.8809-8.142-4.0426-7.424-1.2664 0.78266-1.2217 5.1113 0.0778 7.5394 1.3682 2.5565 3.9648 2.481 3.9648-0.1154zm15-19.95c-1.9701-1.2732-4.2869-1.2732-3.5 0 0.33992 0.55 1.604 0.99311 2.809 0.98469 1.7812-0.01245 1.9105-0.1966 0.69098-0.98469zm-40.395 9.5959c-0.83281-1.9932-2.2069-3.8898-3.0536-4.2147-0.84668-0.3249-1.2904-0.99357-0.98614-1.4859 0.66775-1.0804 5.4289-1.2073 5.4506-0.14522 0.0599 2.9317 1.7988 3.1592 6.5448 0.85621 2.717-1.3184 5.1065-2.2402 5.31-2.0483 0.20355 0.1919 0.0867 1.4781-0.25971 2.8582-0.47523 1.8935-1.6705 2.8042-4.8701 3.7105-2.3322 0.66066-4.7761 1.8519-5.4309 2.6472-0.99164 1.2043-1.4437 0.84028-2.7048-2.178zm11.395-27.596c-0.5887-1.1-0.69453-2-0.23518-2 1.0632 0 3.2352 2.1483 3.2352 3.2 0 1.5522-1.943 0.77494-3-1.2z"/>
  <path id="path5196" style="fill:#4f341c" d="m-214.28 109.36c-0.46831-3.146-3.2319-4.5735-5.3909-2.7845-1.482 1.228-9.0296 2.2129-7.8414 1.0232 0.66899-0.66982-2.7736-4.0812-4.1186-4.0812-0.67241 0-1.8253-0.7875-2.562-1.75-0.73671-0.9625-0.95707-1.4278-0.48969-1.0339 0.46739 0.39384 1.7419-0.41803 2.8322-1.8042 1.6062-2.0419 2.5378-2.3983 4.9082-1.8776 1.6917 0.37157 3.51 0.15773 4.311-0.507 1.1184-0.92818 1.7738-0.27106 3.4028 3.4115 2.282 5.1589 4.5787 5.8654 6.3597 1.9565 0.9778-2.146 0.88522-3.1301-0.52574-5.5885-1.9933-3.4731-1.3573-5.2109 1.6221-4.4318 3.1806 0.83175 5.674-2.0378 5.674-6.53 0-4.3142 0.30735-4.4502 5.322-2.3549 3.6443 1.5227 7.0424 1.103 6.4108-0.79183-0.41775-1.2532-2.1811-2.3252-6.1456-3.736-2.2138-0.78781-2.6338-1.3156-1.75-2.1994 0.63956-0.63956 1.1628-1.9288 1.1628-2.865 0-0.99061 1.3586-2.2384 3.25-2.9849 1.7875-0.70551 3.5875-1.462 4-1.6812 0.4125-0.21912 0.75 0.31409 0.75 1.1849 0 0.87083 0.38774 1.5833 0.86164 1.5833 0.47391 0 0.79066 2.2371 0.7039 4.9713-0.17477 5.508 0.35538 6.0194 6.2662 6.0441 6.092 0.02543 6.5518 1.379 1.1233 3.3071-2.7253 0.96794-4.9551 2.1592-4.9551 2.6473s-0.7101 1.5976-1.578 2.4655c-1.764 1.764-1.1521 7.1415 0.89416 7.8585 0.65112 0.22813 0.25408 0.26758-0.88232 0.08767-2.9768-0.47129-6.4338 2.3095-6.4338 5.1754 0 3.5255-1.3535 3.0186-4.4553-1.6685-2.0108-3.0385-3.0139-3.819-3.8427-2.9902-0.82883 0.82884-0.66012 1.9029 0.6463 4.1145 1.7598 2.9791 1.7561 2.9973-0.79698 3.968-1.4107 0.53635-3.8811 1.6558-5.4898 2.4877-2.7798 1.4375-2.9407 1.4065-3.2432-0.6257zm11.182-44.761c0-0.50502-0.27314-1.63-0.60699-2.5-0.80322-2.0932 1.9342-2.0973 3.6702-0.0056 1.0841 1.3063 1.0623 1.7318-0.12755 2.4847-1.849 1.17-2.9357 1.1778-2.9357 0.02091z"/>
  <path id="path5194" style="fill:#252525" d="m-214.06 109.89c-0.0468-3.1279-2.719-5.0489-5.0223-3.6104-2.8175 1.7595-8.5272 0.35076-11.607-2.8638-2.6902-2.808-2.7075-2.9038-0.88383-4.9189 1.3961-1.5427 2.5709-1.8989 4.7115-1.4288 1.6195 0.3557 3.4502 0.12959 4.2369-0.52327 1.1184-0.92818 1.7738-0.27106 3.4028 3.4115 2.282 5.1589 4.5787 5.8654 6.3597 1.9565 0.9778-2.146 0.88522-3.1301-0.52574-5.5885-1.9933-3.4731-1.3573-5.2109 1.6221-4.4318 3.1806 0.83175 5.674-2.0378 5.674-6.53 0-4.3142 0.30735-4.4502 5.322-2.3549 3.6443 1.5227 7.0424 1.103 6.4108-0.79183-0.41775-1.2532-2.1811-2.3252-6.1456-3.736-2.2138-0.78781-2.6338-1.3156-1.75-2.1994 0.63956-0.63956 1.1628-1.9288 1.1628-2.865 0-0.99061 1.3586-2.2384 3.25-2.9849 1.7875-0.70551 3.5244-1.441 3.8598-1.6344 1.0068-0.58064 3.1824 8.5176 2.4766 10.357-0.88541 2.3074 1.0186 3.3192 6.4136 3.4083l4.5 0.07434-4.4707 2.191c-5.052 2.4759-7.3167 5.8972-6.5802 9.941 0.33367 1.8321 0.0723 2.75-0.78302 2.75-2.4224 0-4.837 2.6003-5.5212 5.9457l-0.68474 3.348-2.8183-4.2587c-2.1049-3.1807-3.106-3.971-3.955-3.1219-0.84904 0.84904-0.82672 1.6333 0.0882 3.0982 1.6994 2.7211 1.6697 2.7759-2.4226 4.4858-2.0061 0.83821-4.2418 2.3068-4.9682 3.2634-1.226 1.6147-1.323 1.5869-1.3525-0.38817zm10.968-45.291c0-0.50502-0.27314-1.63-0.60699-2.5-0.80322-2.0932 1.9342-2.0973 3.6702-0.0056 1.0841 1.3063 1.0623 1.7318-0.12755 2.4847-1.849 1.17-2.9357 1.1778-2.9357 0.02091z"/>
  <path id="path5192" style="fill:#1d1d1d" d="m-212.55 106.59c-0.73955-1.1966 1.1416-2.3822 2.4736-1.559 1.1184 0.69118 0.38417 2.4899-1.0163 2.4899-0.48508 0-1.1409-0.41891-1.4573-0.93091zm2.1455-3.8028c-0.72643-1.237 0.45626-7.2663 1.4253-7.2663 1.1827 0 1.1427 6.7236-0.0444 7.4573-0.512 0.31643-1.1334 0.23049-1.3809-0.19098zm9.099-2.5249c-0.7874-1.2328-1.7637-2.8048-2.1696-3.4933-1.0367-1.7587 4.1467-3.6887 5.9306-2.2081 0.98315 0.81594 1.0522 1.808 0.2799 4.0233-1.3774 3.9513-2.335 4.349-4.0409 1.6781zm-1.1322-11.57c-0.91025-1.0058-1.655-2.5924-1.655-3.5257 0-1.5572 0.24292-1.5713 2.9503-0.17126 1.6227 0.83912 3.7602 1.5407 4.75 1.5589 1.5502 0.02866 1.4725 0.30584-0.56112 2-2.9074 2.4221-3.4058 2.4347-5.4842 0.13799zm9.345-1.66c0-2.7717 1.6174-3.8641 4.9454-3.3403 1.8816 0.29614 1.7387 0.60863-1.4273 3.1217l-3.5181 2.7926v-2.574zm-5.2857-11.527c0.65603-2.5087 2.1608-3.5093 3.4056-2.2645 1.3906 1.3906-0.0496 4.2801-2.1333 4.2801-1.3117 0-1.6565-0.54629-1.2723-2.0156z"/>
 </g>
 <rect id="rect892-2-7-8" style="opacity:.15891;stroke:#000;stroke-width:4.8445;fill:none" transform="scale(1,-1)" ry="28.993" height="114.35" width="114.22" y="-121.16" x="6.8683"/>
 <rect id="rect892-2-7-1" style="opacity:.15891;stroke:#000;stroke-width:7.7512;fill:none" transform="scale(1,-1)" ry="28.993" height="114.35" width="114.22" y="-121.16" x="6.8686"/>
 <rect id="rect892-2-7-2-9" ry="28.067" style="stroke:#000;stroke-width:1.0489;fill:none" transform="scale(1,-1)" height="112.71" width="114.14" y="-120.31" x="7.0644"/>
 <path id="path1187" style="fill:#fff;fill-opacity:.057143" d="m37.509 10.721c-14.891-4.3296-32.78 19.454-27.93 26.295-0.04334 0.71563-0.07674 1.4439-0.07674 2.1732v10.76c25.898-25.61 66.753-35.478 90.374-39.178-0.22473-0.02628-0.45986-0.03062-0.69067-0.03062-41.576 0.38742-23.653-0.01876-61.677-0.01875z"/>
 <g id="layer2" style="display:none" transform="translate(187.88 23.742)">
  <rect id="rect3745" style="opacity:.9;filter:url(#filter3174-1);fill:url(#ButtonShadow-9)" rx="6" ry="6" height="85" width="86" y="7" x="5"/>
 </g>
 <g id="layer2-2" style="display:none" transform="matrix(1.2166 0 0 1.2299 5.6049 3.1187)">
  <rect id="rect3745-5" style="opacity:.9;filter:url(#filter3174-9);fill:url(#ButtonShadow-9)" rx="6" ry="6" height="85" width="86" y="7" x="5"/>
 </g>
</svg>
