<?xml version="1.0" encoding="UTF-8" standalone="no"?>
<!-- Created with Inkscape (http://www.inkscape.org/) -->
<svg id="svg3449" xmlns:rdf="http://www.w3.org/1999/02/22-rdf-syntax-ns#" xmlns="http://www.w3.org/2000/svg" height="128" width="128" version="1.0" xmlns:cc="http://creativecommons.org/ns#" xmlns:xlink="http://www.w3.org/1999/xlink" xmlns:dc="http://purl.org/dc/elements/1.1/">
 <metadata id="metadata56">
  <rdf:RDF>
   <cc:Work rdf:about="">
    <dc:format>image/svg+xml</dc:format>
    <dc:type rdf:resource="http://purl.org/dc/dcmitype/StillImage"/>
    <dc:title/>
   </cc:Work>
  </rdf:RDF>
 </metadata>
 <defs id="defs3451">
  <linearGradient id="linearGradient3514" y2="-9.1034" gradientUnits="userSpaceOnUse" x2="66.492" gradientTransform="matrix(.96826 0 0 .97948 2.179 .16587)" y1="-42.638" x1="67.952">
   <stop id="stop4620" style="stop-color:#37414b" offset="0"/>
   <stop id="stop4622" style="stop-color:#37414b;stop-opacity:0" offset="1"/>
  </linearGradient>
  <linearGradient id="linearGradient3516" y2="-11.847" gradientUnits="userSpaceOnUse" x2="58.98" gradientTransform="matrix(.96826 0 0 .97948 2.179 .16587)" y1="-118.55" x1="57.173">
   <stop id="stop4596" offset="0"/>
   <stop id="stop4598" style="stop-opacity:0" offset="1"/>
  </linearGradient>
  <linearGradient id="linearGradient3519" y2="50.369" gradientUnits="userSpaceOnUse" x2="76.558" gradientTransform="matrix(.96826 0 0 .97948 3.2423 -129.19)" y1="13.164" x1="76.558">
   <stop id="stop3392" style="stop-color:#425e7b" offset="0"/>
   <stop id="stop3394" style="stop-color:#7a91a7" offset="1"/>
  </linearGradient>
  <linearGradient id="linearGradient3521" y2="-8.7399" gradientUnits="userSpaceOnUse" x2="60.217" gradientTransform="matrix(.96826 0 0 .97948 2.179 .16587)" y1="-123.72" x1="60.395">
   <stop id="stop3392-4-8" style="stop-color:#425e7b" offset="0"/>
   <stop id="stop3394-8-0" style="stop-color:#7a91a7" offset="1"/>
  </linearGradient>
  <radialGradient id="radialGradient3349" gradientUnits="userSpaceOnUse" cy="45.647" cx="42.148" gradientTransform="matrix(.94690 -.033779 .040605 1.1383 1.7419 -28.433)" r="58.984">
   <stop id="stop7563" style="stop-color:#7cc94f" offset="0"/>
   <stop id="stop7565" style="stop-color:#589b32" offset="1"/>
  </radialGradient>
  <filter id="filter3174-5" color-interpolation-filters="sRGB">
   <feGaussianBlur id="feGaussianBlur3176-4" stdDeviation="1.71"/>
  </filter>
  <linearGradient id="ButtonShadow-4" x1="45.448" gradientUnits="userSpaceOnUse" y1="92.54" gradientTransform="scale(1.0059 .99417)" x2="45.448" y2="7.0165">
   <stop id="stop3750-3" offset="0"/>
   <stop id="stop3752-57" style="stop-opacity:.58824" offset="1"/>
  </linearGradient>
  <filter id="filter3174-0" color-interpolation-filters="sRGB">
   <feGaussianBlur id="feGaussianBlur3176-9" stdDeviation="1.71"/>
  </filter>
  <filter id="filter3174-7" color-interpolation-filters="sRGB">
   <feGaussianBlur id="feGaussianBlur3176-7" stdDeviation="1.71"/>
  </filter>
  <clipPath id="clipPath3613-9">
   <rect id="rect3615-2" style="fill:#fff" rx="6" ry="6" height="84" width="84" y="6" x="6"/>
  </clipPath>
  <linearGradient id="linearGradient3613-3" x1="48" gradientUnits="userSpaceOnUse" y1="20.221" x2="48" y2="138.66">
   <stop id="stop3739-03" style="stop-color:#fff" offset="0"/>
   <stop id="stop3741-5" style="stop-color:#fff;stop-opacity:0" offset="1"/>
  </linearGradient>
  <filter id="filter3794-30" height="1.384" width="1.384" color-interpolation-filters="sRGB" y="-.192" x="-.192">
   <feGaussianBlur id="feGaussianBlur3796-38" stdDeviation="5.28"/>
  </filter>
  <filter id="filter3174-8" color-interpolation-filters="sRGB">
   <feGaussianBlur id="feGaussianBlur3176-3" stdDeviation="1.71"/>
  </filter>
  <clipPath id="clipPath3613-26">
   <rect id="rect3615-4" style="fill:#fff" rx="6" ry="6" height="84" width="84" y="6" x="6"/>
  </clipPath>
  <filter id="filter3794-67" height="1.384" width="1.384" color-interpolation-filters="sRGB" y="-.192" x="-.192">
   <feGaussianBlur id="feGaussianBlur3796-4" stdDeviation="5.28"/>
  </filter>
  <filter id="filter3174-4" color-interpolation-filters="sRGB">
   <feGaussianBlur id="feGaussianBlur3176-0" stdDeviation="1.71"/>
  </filter>
  <filter id="filter3174-1" color-interpolation-filters="sRGB">
   <feGaussianBlur id="feGaussianBlur3176-1" stdDeviation="1.71"/>
  </filter>
  <linearGradient id="linearGradient9285" y2="7.0165" gradientUnits="userSpaceOnUse" x2="45.448" gradientTransform="matrix(1.0059 0 0 .99417 -59.657 2.8358)" y1="92.54" x1="45.448">
   <stop id="stop3750-7" offset="0"/>
   <stop id="stop3752-3" style="stop-opacity:.58824" offset="1"/>
  </linearGradient>
  <filter id="filter3174-06" color-interpolation-filters="sRGB">
   <feGaussianBlur id="feGaussianBlur3176-91" stdDeviation="1.71"/>
  </filter>
  <filter id="filter3174-45" color-interpolation-filters="sRGB">
   <feGaussianBlur id="feGaussianBlur3176-46" stdDeviation="1.71"/>
  </filter>
  <filter id="filter3174-17" color-interpolation-filters="sRGB">
   <feGaussianBlur id="feGaussianBlur3176-33" stdDeviation="1.71"/>
  </filter>
  <filter id="filter3174-2" color-interpolation-filters="sRGB">
   <feGaussianBlur id="feGaussianBlur3176-6" stdDeviation="1.71"/>
  </filter>
  <linearGradient id="linearGradient8327" y2="7.0165" gradientUnits="userSpaceOnUse" x2="45.448" gradientTransform="matrix(1.0059 0 0 .99417 199.61 15.454)" y1="92.54" x1="45.448">
   <stop id="stop3750-60" offset="0"/>
   <stop id="stop3752-38" style="stop-opacity:.58824" offset="1"/>
  </linearGradient>
  <filter id="filter3174-54" color-interpolation-filters="sRGB">
   <feGaussianBlur id="feGaussianBlur3176-69" stdDeviation="1.71"/>
  </filter>
  <linearGradient id="linearGradient8554" y2="7.0165" gradientUnits="userSpaceOnUse" x2="45.448" gradientTransform="matrix(1.0059 0 0 .99417 -111.8 8.6962)" y1="92.54" x1="45.448">
   <stop id="stop3750-62" offset="0"/>
   <stop id="stop3752-52" style="stop-opacity:.58824" offset="1"/>
  </linearGradient>
  <filter id="filter3174-24" color-interpolation-filters="sRGB">
   <feGaussianBlur id="feGaussianBlur3176-64" stdDeviation="1.71"/>
  </filter>
  <linearGradient id="linearGradient8844" y2="7.0165" gradientUnits="userSpaceOnUse" x2="45.448" gradientTransform="matrix(1.0059 0 0 .99417 -182.89 .27657)" y1="92.54" x1="45.448">
   <stop id="stop3750-9" offset="0"/>
   <stop id="stop3752-48" style="stop-opacity:.58824" offset="1"/>
  </linearGradient>
 </defs>
 <rect id="rect892-2-7-2" ry="29.452" style="stroke:#d3d3d3;stroke-width:9.8448;fill:#37414b" transform="scale(1,-1)" height="116.16" width="116.08" y="-122.08" x="5.9224"/>
 <rect id="rect892" style="stroke:url(#linearGradient3521);stroke-width:.97385;fill:url(#linearGradient3519)" transform="scale(1,-1)" ry="29.296" height="115.54" width="114.22" y="-122.25" x="7.0394"/>
 <rect id="rect892-2" style="stroke:url(#linearGradient3516);stroke-width:.97385;fill:url(#linearGradient3514)" transform="scale(1,-1)" ry="28.993" height="114.35" width="114.22" y="-121.46" x="7.0599"/>
 <path id="rect895" style="fill:url(#radialGradient3349)" d="m30.571 7.0104c-13.128 0.936-22.55 15.04-23.173 23.288-0.050142 0.97378-0.088772 1.9648-0.088772 2.9572v58.419c0 15.229 11.191 27.859 22.318 27.859h67.038c15.69 0 24.318-16.445 24.318-25.859v-64.017c-0.21-5.933-12.29-21.682-25.926-22.618-47.846 0.8653-20.497-0.0256-64.483-0.0256z"/>
 <rect id="rect892-2-7-8" style="opacity:.15891;stroke:#000;stroke-width:4.8445;fill:none" transform="scale(1,-1)" ry="28.993" height="114.35" width="114.22" y="-121.16" x="6.8683"/>
 <rect id="rect892-2-7-1" style="opacity:.15891;stroke:#000;stroke-width:7.7512;fill:none" transform="scale(1,-1)" ry="28.993" height="114.35" width="114.22" y="-121.16" x="6.8686"/>
 <rect id="rect892-2-7-2-9" ry="28.067" style="stroke:#000;stroke-width:1.0489;fill:none" transform="scale(1,-1)" height="112.71" width="114.14" y="-120.31" x="7.0644"/>
 <g id="layer2" style="display:none" transform="translate(137.63 15.959)">
  <rect id="rect3745" style="opacity:.9;filter:url(#filter3174-5);fill:url(#ButtonShadow-4)" rx="6" ry="6" height="85" width="86" y="7" x="5"/>
 </g>
 <g id="layer2-3" style="display:none" transform="translate(146.29 14.997)">
  <rect id="rect3745-4" style="opacity:.9;filter:url(#filter3174-0);fill:url(#ButtonShadow-4)" rx="6" ry="6" height="85" width="86" y="7" x="5"/>
 </g>
 <g id="layer2-4" style="display:none" transform="translate(176.76 -8.736)">
  <rect id="rect3745-7" style="opacity:.9;filter:url(#filter3174-7);fill:url(#ButtonShadow-4)" rx="6" ry="6" height="85" width="86" y="7" x="5"/>
 </g>
 <g id="layer2-2" style="display:none" transform="translate(143.15 5.055)">
  <rect id="rect3745-9" style="opacity:.9;filter:url(#filter3174-8);fill:url(#ButtonShadow-4)" rx="6" ry="6" height="85" width="86" y="7" x="5"/>
 </g>
 <g id="layer5-4" style="display:none" transform="translate(143.15 5.055)">
  <rect id="rect3171-7" style="opacity:.3;filter:url(#filter3794-30);stroke:#fff;stroke-linecap:round;stroke-width:.5;fill:url(#linearGradient3613-3)" clip-path="url(#clipPath3613-9)" rx="12" ry="12" height="66" width="66" y="15" x="15"/>
 </g>
 <g id="layer2-1" style="display:none" transform="translate(160.47 -5.8175)">
  <rect id="rect3745-8" style="opacity:.9;filter:url(#filter3174-4);fill:url(#ButtonShadow-4)" rx="6" ry="6" height="85" width="86" y="7" x="5"/>
 </g>
 <g id="layer5-46" style="display:none" transform="translate(160.47 -5.8175)">
  <rect id="rect3171-2" style="opacity:.1;filter:url(#filter3794-67);stroke:#fff;stroke-linecap:round;stroke-width:.5;fill:url(#linearGradient3613-3)" clip-path="url(#clipPath3613-26)" rx="12" ry="12" height="66" width="66" y="15" x="15"/>
 </g>
 <rect id="rect3745-82" style="opacity:.9;filter:url(#filter3174-1);display:none;fill:url(#linearGradient9285)" rx="6" ry="6" height="85" width="86" y="9.8358" x="-54.657"/>
 <style id="style1470" type="text/css"/>
 <g id="layer2-9" style="display:none" transform="translate(-132.38 3.7839)">
  <rect id="rect3745-827" style="opacity:.9;filter:url(#filter3174-06);fill:url(#ButtonShadow-4)" rx="6" ry="6" height="85" width="86" y="7" x="5"/>
 </g>
 <rect id="rect3745-74" style="opacity:.9;filter:url(#filter3174-45);display:none;fill:url(#ButtonShadow-4)" transform="matrix(1.1352 0 0 1.3226 15.015 .16604)" rx="6" ry="6" height="85" width="86" y="7" x="5"/>
 <g id="layer2-7" style="display:none" transform="translate(10.047 -115.26)">
  <rect id="rect3745-93" style="opacity:.9;filter:url(#filter3174-17);fill:url(#ButtonShadow-4)" rx="6" ry="6" height="85" width="86" y="7" x="5"/>
 </g>
 <rect id="rect3745-85" style="opacity:.9;filter:url(#filter3174-2);display:none;fill:url(#linearGradient8327)" rx="6" ry="6" height="85" width="86" y="22.454" x="204.61"/>
 <rect id="rect3745-1" style="opacity:.9;filter:url(#filter3174-54);display:none;fill:url(#linearGradient8554)" rx="6" ry="6" height="85" width="86" y="15.696" x="-106.8"/>
 <rect id="rect3745-6" style="opacity:.9;filter:url(#filter3174-24);display:none;fill:url(#linearGradient8844)" rx="6" ry="6" height="85" width="86" y="7.2766" x="-177.89"/>
 <path id="path6806" style="fill:#fff" d="m33.441 101.58c-1.8397-1.3443-1.9563-3.0744-2.232-33.113-0.33964-37.014-0.52365-36.174 8.0294-36.666l5.2614-0.30266 0.30479-4.75 0.30479-4.75h10.445 10.445v4.9501 4.9501l5.7253 0.29991c7.6562 0.40104 8.2408 1.6433 8.26 17.55l0.0147 12.25h-4.5-4.5v-8.8776c0-6.3508-0.39487-9.2053-1.3874-10.029-0.93768-0.77821-5.8805-1.061-15.25-0.87244l-13.863 0.27895-0.2684 23.875c-0.18855 16.773 0.071 24.284 0.87245 25.25 1.5202 1.8318 26.884 1.9861 28.696 0.17463 0.7578-0.7578 1.2186-4.7192 1.2506-10.75l0.0506-9.55 4.5579 8.9445c4.0531 7.9538 4.5048 9.4975 4.0783 13.936-0.803 8.382-1.5 8.622-24.656 8.622-15.427 0-20.119-0.30757-21.639-1.4184zm50.772-17.136c-4.5171-9.0539-8.2129-16.683-8.2129-16.954 0-0.27072 2.2879-0.49221 5.0843-0.49221h5.0843l-0.61185-11.25-0.61185-11.25 7.9749 15.5c4.3862 8.525 7.9986 15.838 8.0276 16.25 0.029 0.4125-2.1973 0.75-4.9473 0.75h-5l0.0618 4.25c0.034 2.3375 0.41508 7.625 0.84683 11.75s0.72473 7.5917 0.65106 7.7038c-0.0737 0.11209-3.8298-7.2039-8.3468-16.258z"/>
</svg>
