<?xml version="1.0" encoding="UTF-8" standalone="no"?>
<!-- Created with Inkscape (http://www.inkscape.org/) -->
<svg id="svg3449" xmlns:rdf="http://www.w3.org/1999/02/22-rdf-syntax-ns#" xmlns="http://www.w3.org/2000/svg" height="128" width="128" version="1.0" xmlns:cc="http://creativecommons.org/ns#" xmlns:xlink="http://www.w3.org/1999/xlink" xmlns:dc="http://purl.org/dc/elements/1.1/">
 <metadata id="metadata56">
  <rdf:RDF>
   <cc:Work rdf:about="">
    <dc:format>image/svg+xml</dc:format>
    <dc:type rdf:resource="http://purl.org/dc/dcmitype/StillImage"/>
    <dc:title/>
   </cc:Work>
  </rdf:RDF>
 </metadata>
 <defs id="defs3451">
  <linearGradient id="linearGradient3514" y2="-9.1034" gradientUnits="userSpaceOnUse" x2="66.492" gradientTransform="matrix(.96826 0 0 .97948 2.179 .16587)" y1="-42.638" x1="67.952">
   <stop id="stop4620" style="stop-color:#37414b" offset="0"/>
   <stop id="stop4622" style="stop-color:#37414b;stop-opacity:0" offset="1"/>
  </linearGradient>
  <linearGradient id="linearGradient3516" y2="-11.847" gradientUnits="userSpaceOnUse" x2="58.98" gradientTransform="matrix(.96826 0 0 .97948 2.179 .16587)" y1="-118.55" x1="57.173">
   <stop id="stop4596" offset="0"/>
   <stop id="stop4598" style="stop-opacity:0" offset="1"/>
  </linearGradient>
  <linearGradient id="linearGradient3519" y2="50.369" gradientUnits="userSpaceOnUse" x2="76.558" gradientTransform="matrix(.96826 0 0 .97948 3.2423 -129.19)" y1="13.164" x1="76.558">
   <stop id="stop3392" style="stop-color:#425e7b" offset="0"/>
   <stop id="stop3394" style="stop-color:#7a91a7" offset="1"/>
  </linearGradient>
  <linearGradient id="linearGradient3521" y2="-8.7399" gradientUnits="userSpaceOnUse" x2="60.217" gradientTransform="matrix(.96826 0 0 .97948 2.179 .16587)" y1="-123.72" x1="60.395">
   <stop id="stop3392-4-8" style="stop-color:#425e7b" offset="0"/>
   <stop id="stop3394-8-0" style="stop-color:#7a91a7" offset="1"/>
  </linearGradient>
  <radialGradient id="radialGradient3349" gradientUnits="userSpaceOnUse" cy="45.647" cx="42.148" gradientTransform="matrix(.94690 0 0 1.139 3.5954 -29.89)" r="58.984">
   <stop id="stop2699-5" style="stop-color:#868686" offset="0"/>
   <stop id="stop2701-7" style="stop-color:#4a4a4a" offset="1"/>
  </radialGradient>
  <clipPath id="clipPath3613">
   <rect id="rect3615" style="fill:#fff" rx="6" ry="6" height="84" width="84" y="6" x="6"/>
  </clipPath>
  <filter id="filter3794" height="1.384" width="1.384" color-interpolation-filters="sRGB" y="-.192" x="-.192">
   <feGaussianBlur id="feGaussianBlur3796" stdDeviation="5.28"/>
  </filter>
  <linearGradient id="linearGradient3623" y2="138.66" gradientUnits="userSpaceOnUse" y1="20.221" x2="48" x1="48">
   <stop id="stop3739-0" style="stop-color:#fff" offset="0"/>
   <stop id="stop3741-2" style="stop-color:#fff;stop-opacity:0" offset="1"/>
  </linearGradient>
  <filter id="filter3174-5" color-interpolation-filters="sRGB">
   <feGaussianBlur id="feGaussianBlur3176-4" stdDeviation="1.71"/>
  </filter>
  <linearGradient id="ButtonShadow-4" x1="45.448" gradientUnits="userSpaceOnUse" y1="92.54" gradientTransform="scale(1.0059 .99417)" x2="45.448" y2="7.0165">
   <stop id="stop3750-3" offset="0"/>
   <stop id="stop3752-57" style="stop-opacity:.58824" offset="1"/>
  </linearGradient>
  <filter id="filter3174-0" color-interpolation-filters="sRGB">
   <feGaussianBlur id="feGaussianBlur3176-9" stdDeviation="1.71"/>
  </filter>
  <filter id="filter3174-7" color-interpolation-filters="sRGB">
   <feGaussianBlur id="feGaussianBlur3176-7" stdDeviation="1.71"/>
  </filter>
  <linearGradient id="linearGradient3299" y2="47.996" gradientUnits="userSpaceOnUse" x2="79.996" gradientTransform="matrix(0 1 -1 0 70.996 .0042201)" y1="47.996" x1="15.996">
   <stop id="stop4283-9-5" style="stop-color:#1e1e1e" offset="0"/>
   <stop id="stop4285-8-4" style="stop-color:#505050" offset="1"/>
  </linearGradient>
 </defs>
 <rect id="rect892-2-7-2" ry="29.452" style="stroke:#d3d3d3;stroke-width:9.8448;fill:#37414b" transform="scale(1,-1)" height="116.16" width="116.08" y="-122.08" x="5.9224"/>
 <rect id="rect892" style="stroke:url(#linearGradient3521);stroke-width:.97385;fill:url(#linearGradient3519)" transform="scale(1,-1)" ry="29.296" height="115.54" width="114.22" y="-122.25" x="7.0394"/>
 <rect id="rect892-2" style="stroke:url(#linearGradient3516);stroke-width:.97385;fill:url(#linearGradient3514)" transform="scale(1,-1)" ry="28.993" height="114.35" width="114.22" y="-121.46" x="7.0599"/>
 <path id="rect895" style="fill:url(#radialGradient3349)" d="m30.571 7.0104c-13.128 0.936-22.55 15.04-23.173 23.288-0.050142 0.97378-0.088772 1.9648-0.088772 2.9572v58.419c0 15.229 11.191 27.859 22.318 27.859h67.038c15.69 0 24.318-16.445 24.318-25.859v-64.017c-0.21-5.933-12.29-21.682-25.926-22.618-47.846 0.8653-20.497-0.0256-64.483-0.0256z"/>
 <rect id="rect892-2-7-8" style="opacity:.15891;stroke:#000;stroke-width:4.8445;fill:none" transform="scale(1,-1)" ry="28.993" height="114.35" width="114.22" y="-121.16" x="6.8683"/>
 <rect id="rect892-2-7-1" style="opacity:.15891;stroke:#000;stroke-width:7.7512;fill:none" transform="scale(1,-1)" ry="28.993" height="114.35" width="114.22" y="-121.16" x="6.8686"/>
 <rect id="rect892-2-7-2-9" ry="28.067" style="stroke:#000;stroke-width:1.0489;fill:none" transform="scale(1,-1)" height="112.71" width="114.14" y="-120.31" x="7.0644"/>
 <path id="path1187" style="fill:#fff;fill-opacity:.057143" d="m32.415 6.0906c-14.891-4.3298-32.779 19.454-27.93 26.295-0.04334 0.71563-0.07674 1.4439-0.07674 2.1732v10.76c25.899-25.61 66.753-35.479 90.375-39.179-0.22473-0.02628-0.45986-0.03062-0.69067-0.03062-41.576 0.38742-23.653-0.01876-61.677-0.01875z"/>
 <g id="layer5" transform="matrix(1.2749 0 0 1.2634 3.2695 3.3707)">
  <rect id="rect3171" style="opacity:.3;filter:url(#filter3794);stroke:#fff;stroke-linecap:round;stroke-width:.5;fill:url(#linearGradient3623)" clip-path="url(#clipPath3613)" rx="12" ry="12" height="66" width="66" y="15" x="15"/>
 </g>
 <g id="layer4" transform="translate(16.772 17.916)">
  <path id="path3297" style="color:#000000;fill:url(#linearGradient3299)" d="m47.25 20.031c-10.417 0.14876-20.356 6.6902-24.625 16.188-4.8322 10.092-2.75 22.958 5.0312 31 7.2288 7.8604 19.112 10.786 29.188 7.3438 10.341-3.2883 18.114-13.13 19-23.938 1.174-10.968-4.849-22.253-14.656-27.313-4.245-2.299-9.12-3.394-13.938-3.281zm0.75 7.969c8.7374-0.1349 17.006 6.1581 19.25 14.594 0.13923 0.46558 0.24331 0.9335 0.34375 1.4062h-39.188c0.47915-2.4374 1.4048-4.788 2.8125-6.875 3.609-5.6 10.1-9.199 16.782-9.125zm-19.562 24h39.125c-1.152 5.46-4.517 10.462-9.438 13.219-7.679 4.764-18.451 3.213-24.594-3.375-2.661-2.691-4.36-6.176-5.093-9.844z"/>
  <path id="path4102" style="opacity:.2;color:#000000" d="m47.25 20.031c-10.417 0.14876-20.356 6.6902-24.625 16.188-4.8322 10.092-2.75 22.958 5.0312 31 7.2288 7.8604 19.112 10.786 29.188 7.3438 10.341-3.2883 18.114-13.13 19-23.938 1.174-10.968-4.849-22.253-14.656-27.313-4.245-2.299-9.12-3.394-13.938-3.281zm0 1.0625a1.0593 1.0593 0 0 0 0.03125 0c4.6405-0.10922 9.3369 0.95119 13.406 3.1562 9.3946 4.8461 15.219 15.74 14.094 26.25a1.0593 1.0593 0 0 0 0 0.03125c-0.84914 10.357-8.3444 19.882-18.25 23.031a1.0593 1.0593 0 0 0 -0.03125 0c-9.661 3.301-21.137 0.469-28.062-7.062a1.0593 1.0593 0 0 0 -0.032 -0.031c-7.454-7.704-9.442-20.113-4.812-29.781a1.0593 1.0593 0 0 0 0 -0.03125c4.091-9.103 13.672-15.421 23.656-15.563zm0.71875 5.8438c-7.044-0.067-13.785 3.71-17.594 9.593h-0.03125c-0.0043 0.0067 0.0043 0.02451 0 0.03125-1.4847 2.2084-2.4664 4.6634-2.9688 7.2188a1.0593 1.0593 0 0 0 1.0312 1.2812h39.188a1.0593 1.0593 0 0 0 1.031 -1.281c-0.1-0.47-0.226-0.966-0.375-1.469-0.002-0.009 0.003-0.021 0-0.031-2.388-8.904-11.019-15.471-20.25-15.343-0.01046 0.000144-0.02079-0.000162-0.03125 0zm0.031 1.062c8.7374-0.1349 17.006 6.1581 19.25 14.594 0.13923 0.46558 0.24331 0.9335 0.34375 1.4062h-39.188c0.47915-2.4374 1.4048-4.788 2.8125-6.875 3.609-5.6 10.1-9.199 16.782-9.125zm-19.656 22.938a1.0593 1.0593 0 0 0 -0.9375 1.2812c0.76719 3.8359 2.5379 7.4927 5.3438 10.344 0.01007 0.0108 0.02115 0.02047 0.03125 0.03125 6.5026 6.9415 17.747 8.5798 25.875 3.5625 0.012-0.0074 0.01926-0.02381 0.03125-0.03125 5.1966-2.9278 8.6987-8.1804 9.9062-13.906a1.0593 1.0593 0 0 0 -1.031 -1.282h-39.125a1.0593 1.0593 0 0 0 -0.0625 0 1.0593 1.0593 0 0 0 -0.03125 0zm0.094 1.062h39.124c-1.151 5.46-4.516 10.462-9.437 13.219-7.679 4.764-18.451 3.213-24.594-3.375-2.661-2.691-4.36-6.176-5.093-9.844z"/>
  <path id="path4109" style="opacity:.05;color:#000000" d="m47.25 20.031c-10.417 0.14876-20.356 6.6902-24.625 16.188-4.8322 10.092-2.75 22.958 5.0312 31 7.2288 7.8604 19.112 10.786 29.188 7.3438 10.341-3.2883 18.114-13.13 19-23.938 1.174-10.968-4.849-22.253-14.656-27.313-4.245-2.299-9.12-3.394-13.938-3.281zm0.03125 2.1875a2.1967 2.1967 0 0 0 0.03125 0c4.4503-0.10475 8.9622 0.92798 12.844 3.0312a2.1967 2.1967 0 0 0 0.03125 0c8.9508 4.6172 14.542 15.137 13.469 25.156a2.1967 2.1967 0 0 0 0 0.03125c-0.809 9.874-8.031 19.032-17.468 22.033a2.1967 2.1967 0 0 0 -0.0625 0c-9.2151 3.1485-20.243 0.42747-26.844-6.75a2.1967 2.1967 0 0 0 -0.032 -0.031c-7.103-7.341-9.068-19.318-4.656-28.532a2.1967 2.1967 0 0 0 0.031 -0.031c3.9-8.678 13.138-14.77 22.656-14.906zm0.6875 3.5938c-7.4482-0.05945-14.543 3.8844-18.562 10.094-0.0081 0.01244-0.02322 0.01879-0.03125 0.03125-1.572 2.3417-2.5968 4.9382-3.125 7.625a2.1967 2.1967 0 0 0 2.1562 2.625h39.188a2.1967 2.1967 0 0 0 2.156 -2.656c-0.09894-0.4657-0.21752-0.96217-0.375-1.5-0.006-0.02246-0.0252-0.04007-0.03125-0.0625-2.5381-9.414-11.547-16.277-21.312-16.156-0.02104 0.00026-0.04145-0.000325-0.0625 0zm0.032 2.188c8.7374-0.1349 17.006 6.1581 19.25 14.594 0.13923 0.46558 0.24331 0.9335 0.34375 1.4062h-39.188c0.47915-2.4374 1.4048-4.788 2.8125-6.875 3.609-5.6 10.1-9.199 16.782-9.125zm-19.719 21.812a2.1967 2.1967 0 0 0 -2 2.625c0.80627 4.0313 2.6756 7.8784 5.6562 10.906 0.01018 0.01091 0.02105 0.02036 0.03125 0.03125 6.881 7.3474 18.597 9.0408 27.219 3.75 0.02807-0.01723 0.06574-0.01387 0.09375-0.03125v-0.03125c5.4816-3.1124 9.1712-8.5893 10.438-14.594a2.1967 2.1967 0 0 0 -2.157 -2.656h-39.125a2.1967 2.1967 0 0 0 -0.15625 0zm0.157 2.188h39.124c-1.151 5.46-4.516 10.462-9.437 13.219-7.679 4.764-18.451 3.213-24.594-3.375-2.661-2.691-4.36-6.176-5.093-9.844z"/>
  <path id="path3316" style="opacity:.6;color:#000000" d="m47.25 20.031c-10.417 0.14876-20.356 6.6902-24.625 16.188-1.8625 3.8897-2.6848 8.1897-2.5625 12.469 0.02522-3.9464 0.84514-7.8822 2.5625-11.469 4.2685-9.4973 14.208-16.039 24.625-16.188 4.8177-0.11339 9.6932 0.9814 13.938 3.2812 8.582 4.427 14.282 13.611 14.782 23.188-0.143-9.931-5.902-19.607-14.781-24.188-4.245-2.299-9.12-3.394-13.938-3.281zm-18.594 23.969c-0.08337 0.33307-0.18378 0.66315-0.25 1h39.188c-0.07151-0.3366-0.16342-0.66739-0.25-1h-38.688zm-0.21875 9c0.73364 3.6681 2.4329 7.153 5.0938 9.8438 6.1429 6.588 16.915 8.1389 24.594 3.375 4.921-2.757 8.286-7.759 9.437-13.219h-0.25c-1.3318 5.0701-4.5653 9.629-9.1875 12.219-7.6787 4.7639-18.451 3.213-24.594-3.375-2.418-2.447-4.047-5.544-4.874-8.844h-0.21875z"/>
  <path id="path4093" style="opacity:.6;color:#000000;fill:#fff" d="m48 28c-6.682-0.07355-13.173 3.5246-16.781 9.125-1.4077 2.087-2.3334 4.4376-2.8125 6.875h0.25c0.51988-2.0769 1.3494-4.0764 2.5625-5.875 3.609-5.6 10.1-9.199 16.782-9.125 8.7374-0.1349 17.006 6.1581 19.25 14.594 0.04009 0.13408 0.05873 0.27172 0.09375 0.40625h0.25c-0.101-0.473-0.205-0.941-0.344-1.406-2.244-8.436-10.513-14.729-19.25-14.594zm27.969 20.562c-0.01802 0.68639-0.05159 1.377-0.125 2.0625-0.88609 10.807-8.6588 20.649-19 23.938-10.075 3.4425-21.959 0.51665-29.188-7.3438-4.7821-4.9421-7.3987-11.708-7.5938-18.531-0.04574 7.1578 2.578 14.348 7.5938 19.531 7.2288 7.8604 19.112 10.786 29.188 7.3438 10.341-3.2883 18.114-13.13 19-23.938 0.10901-1.0179 0.13724-2.0444 0.125-3.0625zm-47.531 3.438c0.06657 0.33285 0.13628 0.67062 0.21875 1h38.656c0.08608-0.32771 0.18009-0.66851 0.25-1h-39.125z"/>
 </g>
 <g id="layer2" style="display:none" transform="translate(137.63 15.959)">
  <rect id="rect3745" style="opacity:.9;filter:url(#filter3174-5);fill:url(#ButtonShadow-4)" rx="6" ry="6" height="85" width="86" y="7" x="5"/>
 </g>
 <g id="layer2-3" style="display:none" transform="translate(146.29 14.997)">
  <rect id="rect3745-4" style="opacity:.9;filter:url(#filter3174-0);fill:url(#ButtonShadow-4)" rx="6" ry="6" height="85" width="86" y="7" x="5"/>
 </g>
 <g id="layer2-4" style="display:none" transform="translate(176.76 -8.736)">
  <rect id="rect3745-7" style="opacity:.9;filter:url(#filter3174-7);fill:url(#ButtonShadow-4)" rx="6" ry="6" height="85" width="86" y="7" x="5"/>
 </g>
</svg>
