<?xml version="1.0" encoding="UTF-8" standalone="no"?>
<!-- Created with Inkscape (http://www.inkscape.org/) -->
<svg id="svg3449" xmlns:rdf="http://www.w3.org/1999/02/22-rdf-syntax-ns#" xmlns="http://www.w3.org/2000/svg" height="128" width="128" version="1.0" xmlns:cc="http://creativecommons.org/ns#" xmlns:xlink="http://www.w3.org/1999/xlink" xmlns:dc="http://purl.org/dc/elements/1.1/">
 <metadata id="metadata56">
  <rdf:RDF>
   <cc:Work rdf:about="">
    <dc:format>image/svg+xml</dc:format>
    <dc:type rdf:resource="http://purl.org/dc/dcmitype/StillImage"/>
    <dc:title/>
   </cc:Work>
  </rdf:RDF>
 </metadata>
 <defs id="defs3451">
  <linearGradient id="linearGradient3514" y2="-9.1034" gradientUnits="userSpaceOnUse" x2="66.492" gradientTransform="matrix(.96826 0 0 .97948 2.179 .16587)" y1="-42.638" x1="67.952">
   <stop id="stop4620" style="stop-color:#37414b" offset="0"/>
   <stop id="stop4622" style="stop-color:#37414b;stop-opacity:0" offset="1"/>
  </linearGradient>
  <linearGradient id="linearGradient3516" y2="-11.847" gradientUnits="userSpaceOnUse" x2="58.98" gradientTransform="matrix(.96826 0 0 .97948 2.179 .16587)" y1="-118.55" x1="57.173">
   <stop id="stop4596" offset="0"/>
   <stop id="stop4598" style="stop-opacity:0" offset="1"/>
  </linearGradient>
  <linearGradient id="linearGradient3519" y2="50.369" gradientUnits="userSpaceOnUse" x2="76.558" gradientTransform="matrix(.96826 0 0 .97948 3.2423 -129.19)" y1="13.164" x1="76.558">
   <stop id="stop3392" style="stop-color:#425e7b" offset="0"/>
   <stop id="stop3394" style="stop-color:#7a91a7" offset="1"/>
  </linearGradient>
  <linearGradient id="linearGradient3521" y2="-8.7399" gradientUnits="userSpaceOnUse" x2="60.217" gradientTransform="matrix(.96826 0 0 .97948 2.179 .16587)" y1="-123.72" x1="60.395">
   <stop id="stop3392-4-8" style="stop-color:#425e7b" offset="0"/>
   <stop id="stop3394-8-0" style="stop-color:#7a91a7" offset="1"/>
  </linearGradient>
  <radialGradient id="radialGradient3349" gradientUnits="userSpaceOnUse" cy="45.647" cx="42.148" gradientTransform="matrix(.94690 0 0 1.139 3.5954 -29.89)" r="58.984">
   <stop id="stop2699-5" style="stop-color:#9cbbd9" offset="0"/>
   <stop id="stop2701-7" style="stop-color:#5c82ab" offset="1"/>
  </radialGradient>
 </defs>
 <rect id="rect892-2-7-2" ry="29.452" style="stroke:#d3d3d3;stroke-width:9.8448;fill:#37414b" transform="scale(1,-1)" height="116.16" width="116.08" y="-122.08" x="5.9224"/>
 <rect id="rect892" style="stroke:url(#linearGradient3521);stroke-width:.97385;fill:url(#linearGradient3519)" transform="scale(1,-1)" ry="29.296" height="115.54" width="114.22" y="-122.25" x="7.0394"/>
 <rect id="rect892-2" style="stroke:url(#linearGradient3516);stroke-width:.97385;fill:url(#linearGradient3514)" transform="scale(1,-1)" ry="28.993" height="114.35" width="114.22" y="-121.46" x="7.0599"/>
 <path id="rect895" style="fill:url(#radialGradient3349)" d="m33.051 7.2596c-7.969-2.4493-27.013 15.174-25.653 23.038-0.050142 0.97378-0.088772 1.9648-0.088772 2.9572v52.419c0 20.876 10.712 33.859 22.318 33.859h67.038c12.638 0 24.318-11.245 24.318-25.859v-64.017c0.7-10.928-21.283-24.659-25.926-22.618-47.846 0.8653-18.017 0.2236-62.003 0.2236z"/>
 <rect id="rect892-2-7-8" style="opacity:.15891;stroke:#000;stroke-width:4.8445;fill:none" transform="scale(1,-1)" ry="28.993" height="114.35" width="114.22" y="-121.16" x="6.8687"/>
 <rect id="rect892-2-7-1" style="opacity:.15891;stroke:#000;stroke-width:7.7512;fill:none" transform="scale(1,-1)" ry="28.993" height="114.35" width="114.22" y="-121.16" x="6.8687"/>
 <rect id="rect892-2-7-2-9" ry="28.067" style="stroke:#000;stroke-width:1.0489;fill:none" transform="scale(1,-1)" height="112.71" width="114.14" y="-120.31" x="7.0649"/>
 <path id="path1187" style="fill:#fff;fill-opacity:.057143" d="m33.017 7.2319c-23.707 0-26.027 0.6738-25.93 26.295-0.04334 0.71563-0.07674 1.4439-0.07674 2.1732v32.76c18.67-38.321 38.34-51.497 90.374-61.179-0.225-0.026-0.46-0.0303-0.691-0.0303-41.576 0.3874-25.652-0.0188-63.676-0.0188z"/>
 <path id="path3745" style="fill:#fff" d="m17.634 105.34c0.36949-1.4647 1.3877-5.2779 2.2626-8.4737l1.5908-5.8105 10.15-0.27599c9.9642-0.27094 10.152-0.23554 10.266 1.9368 0.06415 1.2171 0.48747 0.04619 0.94073-2.6019 1.169-6.8298 3.6016-12.571 7.3693-17.392 2.8884-3.696 3.1985-4.6758 2.7394-8.6542l-0.51772-4.4864h3.1034c2.9596 0 3.1034-0.17944 3.1034-3.8737 0-3.7311-0.11956-3.8737-3.2485-3.8737-3.1919 0-3.2419-0.06741-2.8703-3.8737 0.34584-3.5422 0.62384-3.8737 3.2485-3.8737 2.6877 0 2.8703-0.24644 2.8703-3.8737 0-3.2281-0.33049-3.8737-1.9829-3.8737-2.4353 0-2.4412-0.33271-0.12227-6.916 2.27-6.449 5.84-13.424 6.868-13.424 1.1688 0 3.9555 5.0507 6.6622 12.074 2.9669 7.699 2.999 8.2624 0.47171 8.2624-1.6524 0-1.9829 0.64561-1.9829 3.8737 0 3.6585 0.16525 3.8737 2.9744 3.8737s2.9744 0.2152 2.9744 3.8737-0.16524 3.8737-2.9744 3.8737-2.9744 0.2152-2.9744 3.8737c0 3.6958 0.14279 3.8737 3.1092 3.8737h3.1092l-0.60636 4.3211c-0.54969 3.9171-0.23836 4.8451 3.3303 9.9263 4.804 6.8402 7.8467 17.377 6.0994 21.123-1.2473 2.6739-5.6549 3.3197-8.1031 1.1873-1.1823-1.0298-1.1938-0.95756-0.07694 0.4842 2.9377 3.792 9.9934 0.73404 9.9934-4.3313 0-1.5326 1.0671-1.7214 9.7334-1.7214h9.7334l1.8034 7.5053c0.9919 4.1279 2.0135 8.05 2.2703 8.7158 0.37 0.96-9.189 1.21-45.76 1.21h-46.228l0.67181-2.6632zm34.507-9.1734c0.84889-1.1838 1.5434-2.9269 1.5434-3.8737 0-1.534 1.0718-1.7214 9.8457-1.7214 9.4221 0 9.8642 0.09374 10.275 2.1789 0.23632 1.1984 0.49043-1.333 0.56469-5.6254 0.09012-5.2099-0.31011-8.399-1.204-9.593-1.2055-1.6103-1.4066-1.2908-2.0171 3.2044l-0.67811 4.993h-6.8612-6.8612l-0.61791-3.6316c-0.33985-1.9974-0.85091-4.2853-1.1357-5.0842-1.0051-2.8198-2.5127 3.2337-2.5324 10.168-0.01061 3.7284-0.42497 7.5416-0.92083 8.4737-1.0542 1.9817-5.7209 2.2724-7.7738 0.48422-1.1823-1.0298-1.1938-0.95756-0.07694 0.4842 1.8761 2.4217 6.5674 2.1676 8.4499-0.45758zm16.415-32.711v-3.8737h-4.9574-4.9574v3.8737 3.8737h4.9574 4.9574zm0-15.495v-3.8737h-4.9574-4.9574v3.8737 3.8737h4.9574 4.9574z"/>
</svg>
