<?xml version="1.0" encoding="UTF-8" standalone="no"?>
<!-- Created with Inkscape (http://www.inkscape.org/) -->
<svg id="svg3449" xmlns:rdf="http://www.w3.org/1999/02/22-rdf-syntax-ns#" xmlns="http://www.w3.org/2000/svg" height="128" width="128" version="1.0" xmlns:cc="http://creativecommons.org/ns#" xmlns:xlink="http://www.w3.org/1999/xlink" xmlns:dc="http://purl.org/dc/elements/1.1/">
 <metadata id="metadata56">
  <rdf:RDF>
   <cc:Work rdf:about="">
    <dc:format>image/svg+xml</dc:format>
    <dc:type rdf:resource="http://purl.org/dc/dcmitype/StillImage"/>
    <dc:title/>
   </cc:Work>
  </rdf:RDF>
 </metadata>
 <defs id="defs3451">
  <linearGradient id="linearGradient3514" y2="-9.1034" gradientUnits="userSpaceOnUse" x2="66.492" gradientTransform="matrix(.96826 0 0 .97948 2.179 .16587)" y1="-42.638" x1="67.952">
   <stop id="stop4620" style="stop-color:#37414b" offset="0"/>
   <stop id="stop4622" style="stop-color:#37414b;stop-opacity:0" offset="1"/>
  </linearGradient>
  <linearGradient id="linearGradient3516" y2="-11.847" gradientUnits="userSpaceOnUse" x2="58.98" gradientTransform="matrix(.96826 0 0 .97948 2.179 .16587)" y1="-118.55" x1="57.173">
   <stop id="stop4596" offset="0"/>
   <stop id="stop4598" style="stop-opacity:0" offset="1"/>
  </linearGradient>
  <linearGradient id="linearGradient3519" y2="50.369" gradientUnits="userSpaceOnUse" x2="76.558" gradientTransform="matrix(.96826 0 0 .97948 3.2423 -129.19)" y1="13.164" x1="76.558">
   <stop id="stop3392" style="stop-color:#425e7b" offset="0"/>
   <stop id="stop3394" style="stop-color:#7a91a7" offset="1"/>
  </linearGradient>
  <linearGradient id="linearGradient3521" y2="-8.7399" gradientUnits="userSpaceOnUse" x2="60.217" gradientTransform="matrix(.96826 0 0 .97948 2.179 .16587)" y1="-123.72" x1="60.395">
   <stop id="stop3392-4-8" style="stop-color:#425e7b" offset="0"/>
   <stop id="stop3394-8-0" style="stop-color:#7a91a7" offset="1"/>
  </linearGradient>
  <radialGradient id="radialGradient3349" gradientUnits="userSpaceOnUse" cy="45.647" cx="42.148" gradientTransform="matrix(.94690 0 0 1.139 3.5954 -29.89)" r="58.984">
   <stop id="stop2699-5" style="stop-color:#868686" offset="0"/>
   <stop id="stop2701-7" style="stop-color:#4a4a4a" offset="1"/>
  </radialGradient>
  <clipPath id="clipPath3613">
   <rect id="rect3615" style="fill:#fff" rx="6" ry="6" height="84" width="84" y="6" x="6"/>
  </clipPath>
  <filter id="filter3794" height="1.384" width="1.384" color-interpolation-filters="sRGB" y="-.192" x="-.192">
   <feGaussianBlur id="feGaussianBlur3796" stdDeviation="5.28"/>
  </filter>
  <linearGradient id="linearGradient3623" y2="138.66" gradientUnits="userSpaceOnUse" y1="20.221" x2="48" x1="48">
   <stop id="stop3739-0" style="stop-color:#fff" offset="0"/>
   <stop id="stop3741-2" style="stop-color:#fff;stop-opacity:0" offset="1"/>
  </linearGradient>
  <filter id="filter3174-5" color-interpolation-filters="sRGB">
   <feGaussianBlur id="feGaussianBlur3176-4" stdDeviation="1.71"/>
  </filter>
  <linearGradient id="ButtonShadow-4" x1="45.448" gradientUnits="userSpaceOnUse" y1="92.54" gradientTransform="scale(1.0059 .99417)" x2="45.448" y2="7.0165">
   <stop id="stop3750-3" offset="0"/>
   <stop id="stop3752-57" style="stop-opacity:.58824" offset="1"/>
  </linearGradient>
  <filter id="filter3174-0" color-interpolation-filters="sRGB">
   <feGaussianBlur id="feGaussianBlur3176-9" stdDeviation="1.71"/>
  </filter>
  <linearGradient id="linearGradient3967-0" x1="45.996" gradientUnits="userSpaceOnUse" y1="79.996" gradientTransform="matrix(-1 0 0 -1 95.996 95.996)" x2="45.996" y2="15.996">
   <stop id="stop4283-9-9-2" style="stop-color:#1e1e1e" offset="0"/>
   <stop id="stop4285-8-7-1" style="stop-color:#505050" offset="1"/>
  </linearGradient>
 </defs>
 <rect id="rect892-2-7-2" ry="29.452" style="stroke:#d3d3d3;stroke-width:9.8448;fill:#37414b" transform="scale(1,-1)" height="116.16" width="116.08" y="-122.08" x="5.9224"/>
 <rect id="rect892" style="stroke:url(#linearGradient3521);stroke-width:.97385;fill:url(#linearGradient3519)" transform="scale(1,-1)" ry="29.296" height="115.54" width="114.22" y="-122.25" x="7.0394"/>
 <rect id="rect892-2" style="stroke:url(#linearGradient3516);stroke-width:.97385;fill:url(#linearGradient3514)" transform="scale(1,-1)" ry="28.993" height="114.35" width="114.22" y="-121.46" x="7.0599"/>
 <path id="rect895" style="fill:url(#radialGradient3349)" d="m30.571 7.0104c-13.128 0.936-22.55 15.04-23.173 23.288-0.050142 0.97378-0.088772 1.9648-0.088772 2.9572v58.419c0 15.229 11.191 27.859 22.318 27.859h67.038c15.69 0 24.318-16.445 24.318-25.859v-64.017c-0.21-5.933-12.29-21.682-25.926-22.618-47.846 0.8653-20.497-0.0256-64.483-0.0256z"/>
 <rect id="rect892-2-7-8" style="opacity:.15891;stroke:#000;stroke-width:4.8445;fill:none" transform="scale(1,-1)" ry="28.993" height="114.35" width="114.22" y="-121.16" x="6.8683"/>
 <rect id="rect892-2-7-1" style="opacity:.15891;stroke:#000;stroke-width:7.7512;fill:none" transform="scale(1,-1)" ry="28.993" height="114.35" width="114.22" y="-121.16" x="6.8686"/>
 <rect id="rect892-2-7-2-9" ry="28.067" style="stroke:#000;stroke-width:1.0489;fill:none" transform="scale(1,-1)" height="112.71" width="114.14" y="-120.31" x="7.0644"/>
 <path id="path1187" style="fill:#fff;fill-opacity:.057143" d="m32.415 6.0906c-14.891-4.3298-32.779 19.454-27.93 26.295-0.04334 0.71563-0.07674 1.4439-0.07674 2.1732v10.76c25.899-25.61 66.753-35.479 90.375-39.179-0.22473-0.02628-0.45986-0.03062-0.69067-0.03062-41.576 0.38742-23.653-0.01876-61.677-0.01875z"/>
 <g id="layer5" transform="matrix(1.2749 0 0 1.2634 3.2695 3.3707)">
  <rect id="rect3171" style="opacity:.3;filter:url(#filter3794);stroke:#fff;stroke-linecap:round;stroke-width:.5;fill:url(#linearGradient3623)" clip-path="url(#clipPath3613)" rx="12" ry="12" height="66" width="66" y="15" x="15"/>
 </g>
 <g id="layer4" transform="translate(16.465 16.639)">
  <path id="path3174" style="color:#000000;fill:url(#linearGradient3967-0)" d="m48 16c-2.216 0-4 1.784-4 4v21.062l-18.25-10.531c-1.919-1.108-4.361-0.45-5.469 1.469-1.108 1.9191-0.45036 4.3607 1.4688 5.4688l18.25 10.531-18.25 10.531c-1.9191 1.108-2.5768 3.5496-1.4688 5.4688 1.108 1.9191 3.5496 2.5768 5.4688 1.4688l18.25-10.531v21.062c0 2.216 1.784 4 4 4s4-1.784 4-4v-21.062l18.25 10.531c1.9191 1.108 4.3608 0.45036 5.4688-1.4688 1.108-1.9191 0.45036-4.3607-1.4688-5.4688l-18.25-10.531 18.25-10.531c1.919-1.108 2.577-3.55 1.469-5.469s-3.55-2.577-5.469-1.469l-18.25 10.531v-21.062c0-2.216-1.784-4-4-4z"/>
  <path id="path3987" style="opacity:.2;color:#000000" d="m48 16c-2.216 0-4 1.784-4 4v21.062l-18.25-10.531c-1.919-1.108-4.361-0.45-5.469 1.469-1.108 1.9191-0.45036 4.3607 1.4688 5.4688l18.25 10.531-18.25 10.531c-1.9191 1.108-2.5768 3.5496-1.4688 5.4688 1.108 1.9191 3.5496 2.5768 5.4688 1.4688l18.25-10.531v21.062c0 2.216 1.784 4 4 4s4-1.784 4-4v-21.062l18.25 10.531c1.9191 1.108 4.3608 0.45036 5.4688-1.4688 1.108-1.9191 0.45036-4.3607-1.4688-5.4688l-18.25-10.531 18.25-10.531c1.919-1.108 2.577-3.55 1.469-5.469s-3.55-2.577-5.469-1.469l-18.25 10.531v-21.062c0-2.216-1.784-4-4-4zm0 1c1.6792 0 3 1.3208 3 3v21.062a1.0003 1.0003 0 0 0 1.5 0.875l18.25-10.531c1.4526-0.83863 3.2544-0.36001 4.0938 1.0938 0.83863 1.4526 0.36001 3.2544-1.0938 4.0938l-18.25 10.531a1.0003 1.0003 0 0 0 0 1.75l18.25 10.531c1.4538 0.83933 1.9324 2.6412 1.0938 4.0938-0.83933 1.4538-2.6412 1.9324-4.0938 1.0938l-18.25-10.532a1.0003 1.0003 0 0 0 -1.5 0.876v21.062c0 1.6792-1.3208 3-3 3s-3-1.3208-3-3v-21.062a1.0003 1.0003 0 0 0 -1.5 -0.875l-18.25 10.531c-1.453 0.838-3.254 0.36-4.094-1.094-0.838-1.453-0.36-3.254 1.094-4.094l18.25-10.531a1.0003 1.0003 0 0 0 0 -1.75l-18.25-10.531c-1.454-0.84-1.932-2.641-1.094-4.094 0.84-1.454 2.641-1.932 4.094-1.094l18.25 10.532a1.0003 1.0003 0 0 0 1.5 -0.876v-21.062c0-1.6792 1.3208-3 3-3z"/>
  <path id="path3994" style="opacity:.05;color:#000000" d="m48 16c-2.216 0-4 1.784-4 4v21.062l-18.25-10.531c-1.919-1.108-4.361-0.45-5.469 1.469-1.108 1.9191-0.45036 4.3607 1.4688 5.4688l18.25 10.531-18.25 10.531c-1.9191 1.108-2.5768 3.5496-1.4688 5.4688 1.108 1.9191 3.5496 2.5768 5.4688 1.4688l18.25-10.531v21.062c0 2.216 1.784 4 4 4s4-1.784 4-4v-21.062l18.25 10.531c1.9191 1.108 4.3608 0.45036 5.4688-1.4688 1.108-1.9191 0.45036-4.3607-1.4688-5.4688l-18.25-10.531 18.25-10.531c1.919-1.108 2.577-3.55 1.469-5.469s-3.55-2.577-5.469-1.469l-18.25 10.531v-21.062c0-2.216-1.784-4-4-4zm0 2c1.1423 0 2 0.85765 2 2v21.062a2.0007 2.0007 0 0 0 3 1.7188l18.25-10.531c0.98599-0.56926 2.1793-0.23841 2.75 0.75 0.56926 0.98599 0.23841 2.1793-0.75 2.75l-18.25 10.531a2.0007 2.0007 0 0 0 0 3.4375l18.25 10.532c0.98842 0.57066 1.3193 1.764 0.75 2.75-0.57066 0.98841-1.764 1.3193-2.75 0.75l-18.25-10.531a2.0007 2.0007 0 0 0 -3 1.719v21.062c0 1.1423-0.85766 2-2 2s-2-0.85766-2-2v-21.062a2.0007 2.0007 0 0 0 -3 -1.719l-18.25 10.531c-0.986 0.569-2.179 0.238-2.75-0.75-0.569-0.986-0.238-2.179 0.75-2.75l18.25-10.531a2.0007 2.0007 0 0 0 0 -3.4375l-18.25-10.532c-0.988-0.571-1.319-1.764-0.75-2.75 0.57066-0.98842 1.764-1.3193 2.75-0.75l18.25 10.531a2.0007 2.0007 0 0 0 3 -1.719v-21.062c0-1.1423 0.85766-2 2-2z"/>
  <path id="path3969" style="opacity:.6;color:#000000" d="m48 16c-2.216 0-4 1.784-4 4v1c0-2.216 1.784-4 4-4s4 1.784 4 4v-1c0-2.216-1.784-4-4-4zm-24.531 14c-1.2812 0.09083-2.495 0.80055-3.1875 2-0.45574 0.78936-0.6066 1.663-0.5 2.5 0.06417-0.51609 0.223-1.0202 0.5-1.5 1.108-1.9191 3.5496-2.5768 5.4688-1.4688l18.25 10.531v-1l-18.25-10.531c-0.72-0.415-1.513-0.585-2.281-0.531zm49.062 0c-0.768-0.054-1.561 0.116-2.281 0.531l-18.25 10.531v1l18.25-10.531c1.9191-1.108 4.3608-0.45036 5.4688 1.4688 0.277 0.47978 0.43583 0.98391 0.5 1.5 0.1066-0.837-0.04426-1.7106-0.5-2.5-0.6925-1.1994-1.9063-1.9092-3.1875-2zm-33.406 18.5-17.375 10.031c-1.4393 0.831-2.1613 2.4205-1.9688 3.9688 0.15258-1.1979 0.839-2.3165 1.9688-2.9688l18.25-10.531-0.875-0.5zm17.75 0l-0.875 0.5 18.25 10.531c1.13 0.653 1.816 1.771 1.969 2.969 0.192-1.548-0.53-3.138-1.969-3.969l-17.375-10.031z"/>
  <path id="path3978" style="opacity:.6;color:#000000;fill:#fff" d="m19.781 34.5c-0.19252 1.5483 0.52942 3.1377 1.9688 3.9688l17.375 10.031 0.875-0.5-18.25-10.531c-1.13-0.653-1.816-1.771-1.969-2.969zm56.438 0c-0.153 1.198-0.839 2.316-1.969 2.969l-18.25 10.531 0.875 0.5 17.375-10.031c1.4393-0.831 2.1613-2.4205 1.9688-3.9688zm-32.219 20.438-18.25 10.531c-1.919 1.108-4.361 0.45-5.469-1.469-0.277-0.47978-0.43583-0.98391-0.5-1.5-0.1066 0.837 0.04426 1.7106 0.5 2.5 1.108 1.9191 3.5496 2.5768 5.4688 1.4688l18.25-10.531v-1zm8 0v1l18.25 10.531c1.9191 1.108 4.3608 0.45036 5.4688-1.4688 0.45574-0.78936 0.6066-1.663 0.5-2.5-0.06417 0.51609-0.223 1.0202-0.5 1.5-1.108 1.9191-3.5496 2.5768-5.4688 1.4688l-18.25-10.531zm-8 21.062v1c0 2.216 1.784 4 4 4s4-1.784 4-4v-1c0 2.216-1.784 4-4 4s-4-1.784-4-4z"/>
 </g>
 <g id="layer2" style="display:none" transform="translate(137.63 15.959)">
  <rect id="rect3745" style="opacity:.9;filter:url(#filter3174-5);fill:url(#ButtonShadow-4)" rx="6" ry="6" height="85" width="86" y="7" x="5"/>
 </g>
 <g id="layer2-3" style="display:none" transform="translate(146.29 14.997)">
  <rect id="rect3745-4" style="opacity:.9;filter:url(#filter3174-0);fill:url(#ButtonShadow-4)" rx="6" ry="6" height="85" width="86" y="7" x="5"/>
 </g>
</svg>
