<?xml version="1.0" encoding="UTF-8" standalone="no"?>
<!-- Created with Inkscape (http://www.inkscape.org/) -->
<svg id="svg3449" xmlns:rdf="http://www.w3.org/1999/02/22-rdf-syntax-ns#" xmlns="http://www.w3.org/2000/svg" height="128" width="128" version="1.0" xmlns:cc="http://creativecommons.org/ns#" xmlns:xlink="http://www.w3.org/1999/xlink" xmlns:dc="http://purl.org/dc/elements/1.1/">
 <metadata id="metadata56">
  <rdf:RDF>
   <cc:Work rdf:about="">
    <dc:format>image/svg+xml</dc:format>
    <dc:type rdf:resource="http://purl.org/dc/dcmitype/StillImage"/>
    <dc:title/>
   </cc:Work>
  </rdf:RDF>
 </metadata>
 <defs id="defs3451">
  <linearGradient id="linearGradient3514" y2="-9.1034" gradientUnits="userSpaceOnUse" x2="66.492" gradientTransform="matrix(.96826 0 0 .97948 2.179 .16587)" y1="-42.638" x1="67.952">
   <stop id="stop4620" style="stop-color:#37414b" offset="0"/>
   <stop id="stop4622" style="stop-color:#37414b;stop-opacity:0" offset="1"/>
  </linearGradient>
  <linearGradient id="linearGradient3516" y2="-11.847" gradientUnits="userSpaceOnUse" x2="58.98" gradientTransform="matrix(.96826 0 0 .97948 2.179 .16587)" y1="-118.55" x1="57.173">
   <stop id="stop4596" offset="0"/>
   <stop id="stop4598" style="stop-opacity:0" offset="1"/>
  </linearGradient>
  <linearGradient id="linearGradient3519" y2="50.369" gradientUnits="userSpaceOnUse" x2="76.558" gradientTransform="matrix(.96826 0 0 .97948 3.2423 -129.19)" y1="13.164" x1="76.558">
   <stop id="stop3392" style="stop-color:#425e7b" offset="0"/>
   <stop id="stop3394" style="stop-color:#7a91a7" offset="1"/>
  </linearGradient>
  <linearGradient id="linearGradient3521" y2="-8.7399" gradientUnits="userSpaceOnUse" x2="60.217" gradientTransform="matrix(.96826 0 0 .97948 2.179 .16587)" y1="-123.72" x1="60.395">
   <stop id="stop3392-4-8" style="stop-color:#425e7b" offset="0"/>
   <stop id="stop3394-8-0" style="stop-color:#7a91a7" offset="1"/>
  </linearGradient>
  <radialGradient id="radialGradient3349" gradientUnits="userSpaceOnUse" cy="45.647" cx="42.148" gradientTransform="matrix(.94690 0 0 1.139 3.5954 -29.89)" r="58.984">
   <stop id="stop2699-5" style="stop-color:#9cbbd9" offset="0"/>
   <stop id="stop2701-7" style="stop-color:#5c82ab" offset="1"/>
  </radialGradient>
 </defs>
 <rect id="rect892-2-7-2" ry="29.452" style="stroke:#d3d3d3;stroke-width:9.8448;fill:#37414b" transform="scale(1,-1)" height="116.16" width="116.08" y="-122.08" x="5.9224"/>
 <rect id="rect892" style="stroke:url(#linearGradient3521);stroke-width:.97385;fill:url(#linearGradient3519)" transform="scale(1,-1)" ry="29.296" height="115.54" width="114.22" y="-122.25" x="7.0394"/>
 <rect id="rect892-2" style="stroke:url(#linearGradient3516);stroke-width:.97385;fill:url(#linearGradient3514)" transform="scale(1,-1)" ry="28.993" height="114.35" width="114.22" y="-121.46" x="7.0599"/>
 <path id="rect895" style="fill:url(#radialGradient3349)" d="m33.051 7.2596c-7.969-2.4493-27.013 15.174-25.653 23.038-0.050142 0.97378-0.088772 1.9648-0.088772 2.9572v52.419c0 20.876 10.712 33.859 22.318 33.859h67.038c12.638 0 24.318-11.245 24.318-25.859v-64.017c0.7-10.928-21.283-24.659-25.926-22.618-47.846 0.8653-18.017 0.2236-62.003 0.2236z"/>
 <rect id="rect892-2-7-8" style="opacity:.15891;stroke:#000;stroke-width:4.8445;fill:none" transform="scale(1,-1)" ry="28.993" height="114.35" width="114.22" y="-121.16" x="6.8687"/>
 <rect id="rect892-2-7-1" style="opacity:.15891;stroke:#000;stroke-width:7.7512;fill:none" transform="scale(1,-1)" ry="28.993" height="114.35" width="114.22" y="-121.16" x="6.8687"/>
 <rect id="rect892-2-7-2-9" ry="28.067" style="stroke:#000;stroke-width:1.0489;fill:none" transform="scale(1,-1)" height="112.71" width="114.14" y="-120.31" x="7.0649"/>
 <path id="path1187" style="fill:#fff;fill-opacity:.057143" d="m33.017 7.2319c-23.707 0-26.027 0.6738-25.93 26.295-0.04334 0.71563-0.07674 1.4439-0.07674 2.1732v32.76c18.67-38.321 38.34-51.497 90.374-61.179-0.225-0.026-0.46-0.0303-0.691-0.0303-41.576 0.3874-25.652-0.0188-63.676-0.0188z"/>
 <path id="path4011" d="m-780.63 96.195-10.5-5.3975h22.5 22.5l-10.5 5.3975c-5.775 2.9686-11.175 5.3975-12 5.3975s-6.225-2.4289-12-5.3975zm-25-18.688c-5.775-5.0042-10.639-9.6743-10.808-10.378-0.24584-1.0197 2.3186-10.194 7.2622-25.981 0.22814-0.72854 3.7042-0.71794 11.417 0.03481l11.089 1.0823 8.6302-7.2848c4.7466-4.0066 8.9958-7.2848 9.4426-7.2848 0.44683 0 4.7415 3.3662 9.5438 7.4805 6.4551 5.5304 9.2779 7.3518 10.828 6.9868 1.153-0.27152 6.1228-0.60026 11.044-0.73051l8.9474-0.23683 3.7739 12.5c2.0756 6.875 3.7868 12.799 3.8026 13.164 0.0158 0.36515-4.8773 4.9776-10.873 10.25-9.9872 8.7817-11.246 9.5861-15 9.5861-2.2539 0-4.075-0.3375-4.047-0.75s4.978-4.7834 11-9.713c6.022-4.9297 10.949-9.4286 10.949-9.9975 0-0.56897-1.3763-5.1656-3.0584-10.215l-3.0584-9.1801-3.1916 0.46246c-1.7554 0.25436-5.968 0.81738-9.3614 1.2512l-6.1697 0.78871-7.5619-6.4138-7.5619-6.4138-7.4969 6.4223-7.4969 6.4223-6.6251-0.88764c-12.327-1.6516-12.31-1.6613-15.641 9.0779-1.5959 5.1449-2.761 9.4606-2.5892 9.5905 0.88198 0.66689 21.45 17.919 22.262 18.673 0.55809 0.51816-1.0921 0.86355-4 0.83722-4.779-0.04327-5.3128-0.35919-15.45-9.1434zm34.715 7.426c-4.0629-4.4894-7.6885-17.555-7.7076-27.775-0.007-3.5262 0.6257-4.6613 4.9924-8.9624l5-4.9248 5.0984 4.9624 5.0984 4.9624-0.5875 8.0316c-0.69038 9.4381-2.7062 16.839-5.8502 21.48-2.7892 4.1167-3.9474 4.5433-6.044 2.2265zm-15.592-6.293c-4.6075-3.8285-9.9574-8.3484-11.889-10.044l-3.5115-3.0831 1.2066-5.3917c0.66363-2.9654 1.5442-5.6003 1.9567-5.8553 0.41255-0.25497 3.2886-0.20159 6.3912 0.11863l5.6411 0.58221 0.57887 4.6143c0.94252 7.513 3.6274 17.05 6.1189 21.736 1.2803 2.4079 2.2279 4.3567 2.1059 4.3308-0.12202-0.02592-3.9916-3.1796-8.5991-7.0081zm29.916 1.3232c2.8174-5.5754 4.1351-10.531 5.4557-20.518l0.62814-4.75 4.9387-0.15c2.7163-0.0825 5.4641-0.195 6.1063-0.25 0.64216-0.055 1.8481 2.3462 2.6798 5.3361l1.5123 5.4361-4.9298 4.3627c-2.7114 2.3995-8.1644 7.0489-12.118 10.332l-7.188 5.9692z"/>
 <path id="path4013" d="m-394.75 92.162c-7.3143-1.8359-12.784-4.9669-18.141-10.385-3.8868-3.9309-9.1242-12.682-8.1644-13.641 0.24692-0.24692 15.83-0.33045 34.629-0.18563l34.18 0.26331-2.5885 5.1938c-7.3496 14.747-24.249 22.687-39.916 18.755zm-20.229-8.8506c-2.6926-2.4209-6.2288-6.8084-7.8582-9.75-2.7001-4.8746-2.9625-6.1898-2.9625-14.848 0-7.9388 0.38442-10.281 2.3392-14.25 2.5157-5.1084 9.3637-12.737 13.262-14.773 1.3194-0.68931 0.27804 0.63266-2.3142 2.9377-2.9335 2.6085-5.9543 6.712-8 10.867-2.9362 5.9642-3.2868 7.5852-3.2868 15.197 0 7.3215 0.39675 9.329 2.8184 14.26 1.5501 3.1567 4.8481 7.7692 7.329 10.25 5.758 5.758 5.0235 5.8183-1.3267 0.10892zm-7.3206-19.086c0-1.322 4.4866-1.5128 35.583-1.5128 28.022 0 35.495 0.26562 35.167 1.25-0.32035 0.96167-8.528 1.3106-35.583 1.5128-30.841 0.23046-35.167 0.07669-35.167-1.25zm-1-5.5128c0-1.963 0.66667-2 36-2s36 0.03704 36 2-0.66667 2-36 2-36-0.03704-36-2zm1-5.5c0-1.3052 4.6111-1.5 35.5-1.5s35.5 0.19484 35.5 1.5-4.6111 1.5-35.5 1.5-35.5-0.19484-35.5-1.5zm1-4.5398c0-0.57191 0.87849-2.7618 1.9522-4.8665 8.6877-17.029 31.56-25 47.888-16.687 7.4021 3.7684 13.655 9.8339 16.638 16.139 1.3871 2.932 2.5219 5.5838 2.5219 5.8929 0 0.30906-15.525 0.56192-34.5 0.56192-23.215 0-34.5-0.34015-34.5-1.0398z"/>
 <path id="path4007" style="fill:#fff" d="m59.399 102.38c-14.727-2.702-25.53-10.735-31.504-23.43-2.407-5.115-2.74-7.168-2.74-16.852 0-9.7748 0.32185-11.712 2.8324-17.052 3.6135-7.6854 11.26-15.307 19.308-19.246 5.7644-2.8211 7.2629-3.0874 17.372-3.0874 9.7428 0 11.755 0.32724 16.859 2.7413 28.668 13.561 31.963 52.308 5.9642 70.137-7.3486 5.0391-20.407 8.1934-28.091 6.7857zm-10.008-10.495c0.78691-0.301 5.3757 0.25681 10.197 1.2396 10.077 2.054 23.394 1.671 29.42-0.84602 2.087-0.87182 4.8973-3.1287 6.245-5.0153l2.4504-3.4302-3.084 0.77759c-16.545 4.1717-26.796 2.6896-54.953-7.9452l-6.5616-2.4783-2.237 2.2298c-1.9392 1.9329-2.0623 2.5614-0.92505 4.7208 2.6074 4.951 7.4694 10.263 12.355 13.498l4.9841 3.3007 0.33941-2.7524c0.18668-1.5138 0.98324-2.9986 1.7701-3.2996zm53.599-19.547c1.0951-4.0733 0.7721-4.6241-3.452-5.8856-5.179-1.546-13.254-7.5-27.979-20.628-13.74-12.25-18.464-14.69-26.828-13.853-5.2695 0.52742-6.3035 1.0578-9.977 5.1173-3.844 4.248-8.4079 12.368-7.4743 13.299 0.231 0.23026 1.899-0.82185 3.7067-2.338 8.2884-6.9518 14.339-5.1352 38.422 11.535 10.145 7.0229 14.691 9.4471 23.707 12.644 8.5155 3.0191 9.0885 3.0254 9.8725 0.10936zm-1.44-19.179c2.05-2.461-1.35-10.016-7.557-16.786-7.421-8.093-16.665-12.497-27.196-12.955-4.3589-0.18974-9.1107 0.13476-10.56 0.72113-2.5953 1.0504-2.5844 1.0671 0.73839 1.1327 11.693 0.23082 20.92 5.089 28.467 14.989 5.9822 7.8466 12.28 14.486 13.741 14.486 0.57673 0 1.6432-0.71417 2.37-1.587z"/>
 <path id="path4005" d="m-550.94 86.769c0-2.6775 0.32782-3 3.0497-3 4.4488 0 8.4574-2.4415 10.266-6.2524 1.3242-2.7906 1.7016-9.959 2.2926-43.544l0.70745-40.204h3.3422 3.3422v39.057c0 25.871-0.38402 40.582-1.1375 43.575-2.053 8.1531-9.287 13.347-18.612 13.363-2.9457 0.0051-3.25-0.27533-3.25-2.9944zm42.059-29.169-12.18-14.331 5.5609-0.2999 5.5608-0.2999v-11.95-11.95h13 13v12 12h5.5c3.025 0 5.5 0.2434 5.5 0.54089 0 0.44138-5.5103 7.0826-23.057 27.79-0.3871 0.45682-6.185-5.6182-12.884-13.5z"/>
 <path id="path4003" d="m-280.23 316.66c-6.1771-2.8764-14.557-11.177-17.573-17.406-6.8052-14.058-1.2798-25.985 14.993-32.363 8.0887-3.1706 23.706-3.311 27.82-0.25019 1.5539 1.1562 3.2612 3.3266 3.794 4.8231 1.67 4.6907-1.7166 9.1431-13.785 18.122-13.801 10.268-14.657 11.536-10.446 15.459 3.5 3.2607 7.8558 2.3542 9.9293-2.0664 2.4487-5.2205 3.9639-6.0909 10.002-5.7454 5.0368 0.28823 5.3492 0.46286 5.658 3.1626 0.47803 4.18-1.49 8.0774-6.333 12.541-7.004 6.4561-15.399 7.7552-24.059 3.723zm-23.808-49.872c-2.2667-3.5943-2.8201-6.521-1.6474-8.7122 1.2595-2.3534 4.2483-2.6728 5.9398-0.63469 1.7123 2.0632 2.9949 7.2081 2.3815 9.5535-0.73563 2.813-4.85 2.6857-6.6739-0.20657zm11.403-8.9318c-2.5644-4.2062-2.6127-8.9813-0.11369-11.243 2.6853-2.4302 5.6884-0.62488 7.1663 4.3079 0.91795 3.0639 0.87252 4.437-0.22236 6.7215-1.9652 4.1001-4.414 4.1767-6.8303 0.21356zm32.495 0.20956c-1.3913-1.5374-1.6768-3.0974-1.2946-7.0745 0.78629-8.183 6.1905-13.796 14.147-14.692 5.7278-0.64561 7.6223 0.75595 7.6223 5.639 0 3.9021-1.451 6.6075-6.4011 11.935-5.6949 6.1294-10.914 7.6841-14.074 4.1924zm-16.872-2.5174c-5.0712-5.0712-1.9296-16.51 4.5342-16.51 4.8756 0 5.1056 11.564 0.325 16.345-2.0412 2.0412-2.9524 2.0722-4.8592 0.16547z"/>
 <path id="path4001" d="m-453.62 231.05c-0.28784-1.2375-0.86673-3.9907-1.2864-6.1182-0.64053-3.2469-1.3622-4.1071-4.4931-5.3559-3.6247-1.4457-3.8666-1.4001-8.5702 1.6182-2.6621 1.7083-5.2848 3.1059-5.8283 3.1059-0.54348 0-2.0713-1.1529-3.3951-2.5621-2.2856-2.4329-2.3268-2.6976-0.81779-5.25 5.3609-9.0675 5.1715-8.4033 3.5076-12.299-1.4194-3.3233-2.0241-3.7059-7.5869-4.8003l-6.0446-1.1892v-4.2021-4.2022l6.2249-1.4975c5.8023-1.3959 6.322-1.7557 7.6556-5.2999 1.3892-3.6918 1.339-3.9324-1.7249-8.2792-3.7888-5.3753-3.871-6.3977-0.74996-9.3298 2.6641-2.5028 3.9137-2.1864 10.213 2.5861 1.8354 1.3904 3.7903 2.1054 4.75 1.7371 1.262-0.48426 1.6309-0.01 1.6309 2.0988 0 1.8464-1.2922 4.0168-4.0088 6.7335-10.522 10.522-7.9773 28.16 5.0088 34.718 9.1026 4.5967 17.722 3.2402 25.198-3.9657l4.8554-4.68 3.2406 3.5918c1.7824 1.9755 4.2986 5.3061 5.5918 7.4013l2.3512 3.8096-2.2927 2.4404c-2.9301 3.119-3.5508 3.0757-9.4371-0.65729-4.5813-2.9054-5.118-3.0207-8.6436-1.8572-3.4095 1.1252-3.8567 1.6966-4.8112 6.147-0.57872 2.6985-1.0522 5.5592-1.0522 6.3572 0 1.0519-1.2321 1.4508-4.481 1.4508-3.8252 0-4.5575-0.32928-5.0043-2.25zm21.985-35.025-9-10.225-0.28753 9.25-0.28752 9.25h-7.4625-7.4625v-26.544-26.544l7.25 0.29381 7.25 0.29381 0.5 10.283 0.5 10.283 8.8131-10.016 8.8131-10.016 5.864 2.9602c3.2252 1.6281 6.1005 3.3427 6.3895 3.8103 0.28898 0.46758-3.089 4.9827-7.5067 10.034-4.4177 5.0509-7.8838 9.613-7.7026 10.138 0.18127 0.52493 4.1075 5.2904 8.7249 10.59 6.582 7.5542 8.094 9.8383 7 10.574-2.5115 1.6901-10.81 5.8593-11.612 5.8336-0.43078-0.0138-4.8332-4.6263-9.7832-10.25z"/>
 <path id="path3999" d="m-280.54 433.58c-23.192-3.8951-40.238-27.989-36.107-51.035 3.9693-22.142 22.244-37.211 44.911-37.032 22.495 0.17761 40.178 16.419 43.502 39.957 0.77453 5.4836-0.87101 15.763-3.5084 21.916-7.9307 18.503-28.583 29.589-48.798 26.194zm13.879-2.9179c22.713-3.5643 38.814-25.283 35.002-47.215-3.9514-22.734-25.446-38.542-47.252-34.752-22.737 3.952-38.346 25.152-34.788 47.248 2.7259 16.927 16.599 31.414 33.214 34.683 6.0071 1.1821 6.5048 1.1834 13.824 0.0349zm-11.73-8.0082c-10.795-2.158-21.079-10.115-24.817-19.203-1.3051-3.1726-2.5483-4.7475-3.7496-4.75-1.4942-0.003-1.2552-0.67808 1.4174-4.0038 1.768-2.2 3.5313-4 3.9185-4 1.3053 0 9.4738 7.9176 8.2112 7.959-2.1841 0.0717-1.3583 2.5545 2.2527 6.7731 4.8856 5.7077 10.613 8.2679 18.497 8.2679 9.6252 0 16.065-3.7725 22.051-12.917 1.4473-2.211 1.7985-2.2879 5.25-1.1488 2.0344 0.67142 3.6989 1.7728 3.6989 2.4474 0 2.2612-5.6744 10.204-9.6071 13.448-6.9688 5.7479-18.657 8.8192-27.123 7.1269zm29.73-37.917c-2.475-2.1751-3.9375-3.9738-3.25-3.9973 4.0934-0.13963-3.4921-9.7712-10.285-13.06-11.644-5.6366-24.498-1.314-32.516 10.934-1.4473 2.211-1.7985 2.2879-5.25 1.1488-2.0344-0.67141-3.6989-1.7728-3.6989-2.4474 0-2.0882 5.4931-10.014 8.9654-12.936 6.2644-5.2712 10.94-7.0116 20.035-7.4576 7.0587-0.34613 9.5122-0.0353 14.469 1.8329 7.4446 2.8058 15.399 10.411 17.993 17.203 1.3028 3.4112 2.3559 4.7393 3.7581 4.7393 1.7276 0 1.5894 0.45292-1.2199 4-1.7424 2.2-3.4678 3.9988-3.834 3.9973-0.36628-0.001-2.691-1.7823-5.166-3.9574z"/>
 <path id="path3997" d="m-193.28 316.26c-5.7335-12.558-8.1132-21.649-8.1805-31.25-0.0515-7.3564 0.31724-9.2672 2.7408-14.203 3.4161-6.9565 11.007-14.032 17.384-16.205 2.5698-0.87562 7.471-1.592 10.891-1.592 5.189 0 7.3897 0.60215 13.286 3.6352l7.0668 3.6352 11.577-4.794c6.9326-2.8708 11.94-4.4294 12.481-3.8852 0.49707 0.49986 2.7783 5.5844 5.0694 11.299 8.9856 22.413 8.5323 37.053-1.5107 48.786-9.6575 11.283-27.128 13.472-39.556 4.9561l-3.4168-2.3412-11.729 4.8542c-6.451 2.6698-11.917 4.8542-12.147 4.8542-0.22978 0-2.01-3.4875-3.9561-7.75zm13.362-3.389c2.7348-1.1765 4.8432-2.4468 4.6854-2.8229-0.15784-0.3761-2.5295-5.0732-5.2703-10.438-4.2472-8.3133-4.9833-10.593-4.9833-15.432 0-6.6103 2.9178-12.316 7.5136-14.693 6.225-3.2191 16.772-1.0646 20.98 4.286 2.3894 3.0377 2.4962 4.2383 0.37709 4.2383-3.3165 0-7.5392 3.6059-9.8048 8.3726l-2.3283 4.8987-2.1356-2.1356c-2.5785-2.5785-2.8184-7.7237-0.48065-10.307 0.97498-1.0773 3.0294-1.8287 5-1.8287 3.8146 0 4.355-1.3891 1.1975-3.0789-2.7543-1.4741-8.7348 0.18614-11.44 3.1757-4.2654 4.7141-0.61879 16.03 6.1613 19.119 1.3024 0.59342 2.838 2.5032 3.4125 4.2439 2.408 7.2962 13.513 14.479 22.448 14.518 13.441 0.0598 25.022-13.87 23.134-27.825-1.522-11.247-7.054-27.153-9.4437-27.153-1.8736 0-10.286 4.0128-9.958 4.7502 0.1833 0.41241 2.5758 5.1925 5.3166 10.622 4.2479 8.4155 4.9833 10.717 4.9833 15.598 0 9.6893-5.9213 16.03-14.97 16.03-5.5006 0-10.752-2.2371-13.524-5.7617-2.5497-3.2414-2.4864-3.8926 0.45013-4.6296 3.742-0.93919 8.322-5.306 9.5879-9.1414 0.62937-1.907 1.5339-3.4673 2.01-3.4673 1.6668 0 3.9792 4.4744 3.9792 7.6994 0 3.9138-3.646 6.8572-7.3443 5.929-2.8701-0.72034-4.0318 0.21355-2.5246 2.0296 1.9126 2.3045 9.3791 1.6675 12.563-1.0719 2.3636-2.0336 2.7904-3.1455 2.7085-7.0569-0.10944-5.2261-2.3101-8.904-7.1978-12.029-1.7204-1.1-3.1452-2.4948-3.1664-3.0995-0.0734-2.096-5.5944-9.3595-9.0581-11.917-5.523-4.0781-13.188-5.9204-18.777-4.513-13.643 3.4353-20.845 15.774-18.398 31.516 1.1579 7.4478 6.9717 23.514 8.5089 23.514 0.44827 0 3.0526-0.96257 5.7874-2.139zm17.898-22.438c0-1.7759 5.2668-7.4231 6.9231-7.4231 1.4218 0 1.3629 0.54638-0.43343 4.02-2.1464 4.1507-6.4896 6.4282-6.4896 3.4031z"/>
 <path id="path3995" d="m-127.23 413.99c-0.0273-9.6237-0.0791-9.8347-3.1372-12.785-1.7102-1.65-4.2761-5.475-5.7021-8.5-7.0361-14.926 0.32315-33.023 16.867-41.477 14.664-7.4938 33.336-7.4938 48 0 16.492 8.4279 23.803 26.411 16.861 41.477-4.6489 10.09-16.468 19.059-28.889 21.921-5.4427 1.2542-18.115 1.3469-23.183 0.16964-3.3137-0.76975-4.438-0.43631-10.5 3.114-3.7339 2.1868-7.5764 4.4013-8.5389 4.9211-1.611 0.87001-1.7522 0.16805-1.7778-8.8401zm28.028-18.762c0-3.6216-0.45832-4.7772-2.3989-6.0488-5.0751-3.3253-6.7842-14.999-3.1051-21.208 2.3632-3.9885 7.5714-6.6299 11.41-5.7867 3.8614 0.84811 8.0712 5.5174 9.159 10.159 1.4165 6.0441-0.55188 13.922-4.1417 16.576-2.4452 1.8078-2.9236 2.867-2.9236 6.4734v4.3119h8 8l-0.0318-5.25c-0.0266-4.3822-0.23619-4.9815-1.2683-3.6257-1.3147 1.727-11.7 3.6771-11.7 2.1969 0-0.47654 1.5856-1.7204 3.5236-2.764 9.1833-4.9456 10.852-17.944 3.2457-25.281-4.108-3.9625-7.5625-5.2762-13.874-5.2762-11.824 0-20.367 9.7044-17.934 20.372 0.90769 3.9792 6.0114 10.167 9.2278 11.188 0.99606 0.31614 1.811 1.0524 1.811 1.6362 0 1.7076-10.158-0.0403-11.651-2.0049-1.0998-1.4469-1.2901-0.93267-1.3173 3.5587l-0.0318 5.25h8 8z"/>
 <path id="path3993" d="m-28.15 285.04c-6.1895-2.3796-13.933-9.0699-18.108-15.645-4.2918-6.7594-6.1941-14.207-6.1941-24.252 0-14.532 4.2283-24.524 14.154-33.449 6.4112-5.7642 13.857-8.5512 22.846-8.5512 9.9787 0 16.722 2.799 24.074 9.9929 9.5973 9.391 13.619 20.674 12.655 35.507-0.88466 13.617-6.9769 25.321-16.935 32.535-8.3709 6.0639-22.421 7.7343-32.492 3.8628zm19.613-4.3534c5.7557-2.9764 8.0771-13.072 8.0578-35.044-0.0256-29.257-3.3169-37.5-14.973-37.5-6.0562 0-9.8283 2.3911-12.338 7.821-2.0264 4.3849-2.1624 6.1875-2.1624 28.679 0 21.026 0.23109 24.599 1.865 28.835 1.2267 3.18 2.938 5.4889 5 6.7463 3.7501 2.2867 10.602 2.5048 14.55 0.46313z"/>
 <path id="path3991" d="m22.622 407.56c-0.83077-0.83077-1.2-6-1.2-16.8 0-16.466 0.39433-18 4.6286-18 4.7362 0 5.3714 2.0516 5.3714 17.349 0 11.239-0.32512 14.67-1.5567 16.429-1.6936 2.4179-5.334 2.9318-7.2433 1.0225zm-31.606-24.12c-8.072-9.8508-11.847-23.75-9.7576-35.932 2.1955-12.803 10.372-25.748 16.263-25.748 4.053 0 5.9506 3.8931 3.5171 7.2156-8.7036 11.883-11.189 18.746-10.288 28.402 0.71573 7.6646 2.5657 12.237 7.7059 19.045 4.3494 5.7607 4.753 7.4074 2.394 9.7665-2.799 2.799-6.0282 1.8966-9.8345-2.7484zm58.81 1.81c-1.5224-2.3235-1.522-2.6681 0.005-4.75 7.9565-10.845 10.59-17.408 10.59-26.391 0-8.3234-3.0578-15.716-10.164-24.575-1.8068-2.2522-1.9953-3.133-1.094-5.1112 3.8094-8.3607 15.561 2.8799 19.725 18.867 3.6561 14.037 0.18161 29.506-9.0498 40.291-4.2053 4.9129-7.5248 5.4663-10.013 1.6692zm-44.432-13.69c-7.839-8.5826-7.839-25.035 0-33.617 3.1964-3.4996 6.033-4.043 8.4561-1.6199 2.2297 2.2297 1.9608 4.2294-1.1106 8.256-1.9017 2.4933-2.8114 5.077-3.1268 8.8808-0.38917 4.6928-0.0534 5.9943 2.682 10.395 3.5451 5.7029 3.7786 7.1026 1.5554 9.3257-2.4231 2.4231-5.2598 1.8797-8.4561-1.6199zm31.599 1.6199c-2.2561-2.256-1.9756-3.7967 1.6196-8.8972 4.3757-6.2078 4.3514-12.453-0.0752-19.351-3.6312-5.6588-3.7302-6.3145-1.2871-8.5255 2.843-2.5728 5.8028-2.0047 8.5894 1.6488 3.9246 5.1454 5.5818 10.102 5.5818 16.696 0 12.967-8.7345 24.123-14.429 18.429zm-14.214-7.3986c-5.5373-2.2902-7.1399-10.338-2.9024-14.575 5.3172-5.3172 14.625-1.6463 14.837 5.8518 0.17429 6.1489-6.451 10.992-11.935 8.7236z"/>
 <path id="path3989" d="m108.55 337.95c-3.5595-1.0805-9.0899-6.8579-9.7826-10.22-0.25292-1.2274-0.73922-4.384-1.0807-7.0145-0.47387-3.6509-1.4413-5.6034-4.0879-8.25-1.9069-1.9069-4.4646-3.5144-5.6838-3.5721-1.2192-0.0578-4.9167-0.19876-8.2167-0.31335-7.1413-0.24799-11.857-2.479-14.541-6.8802-4.3111-7.0674-3.4292-13.915 2.537-19.697 3.2466-3.1468 4.0033-3.391 12.378-3.995 13.045-0.94097 16.221-3.5612 18.034-14.879 1.5285-9.5429 5.1465-13.768 12.929-15.099 5.7594-0.98497 10.724 0.73981 14.656 5.0918 3.2071 3.5499 3.5084 4.4096 3.5084 10.012 0 5.903-0.1609 6.2896-4.3684 10.497-4.3684 4.3684-4.3685 4.3684-11.75 4.37-12.993 0.003-18.395 4.586-18.362 15.578 0.0182 6.0653 0.22677 6.6334 3.718 10.125 3.5811 3.5811 3.9797 3.7162 12.528 4.2474 6.0857 0.37815 9.6838 1.1093 11.58 2.353 8.9839 5.8934 8.9174 20.592-0.11719 25.908-3.7256 2.1926-9.8515 2.96-13.876 1.7384z"/>
 <path id="path3987" d="m199.18 384.01c-9.7031-5.1837-16.67-10.642-21.403-16.77-6.6375-8.5931-6.9922-10.656-6.689-38.914l0.26796-24.969 18.218-3.3876 18.217-3.3876 17.783 3.4062 17.782 3.4062 0.26713 25.85c0.26587 25.728 0.25529 25.876-2.2361 31.318-3.2152 7.023-11.832 15.399-22.103 21.485-10.878 6.4459-11.586 6.515-20.104 1.9639z"/>
 <path id="path3985" d="m197.86 282.76c-17.069-3.8015-29.989-17.625-33.128-35.444-2.2192-12.599 2.4491-26.621 12.061-36.228 24.86-24.846 66.389-11.291 72.37 23.621 3.639 21.244-11.069 43.045-32.298 47.873-8.0253 1.8253-11.459 1.8572-19.005 0.17675zm-0.69371-32.107-0.56797-3.5h10.07 10.07l0.31036 3.4396 0.31037 3.4396 9.7383-6.1896c5.3561-3.4043 9.7365-6.4146 9.7343-6.6896-0.004-0.5139-17.467-12.203-19.235-12.875-0.58018-0.22058-0.81142 1.116-0.56229 3.25l0.42316 3.6246h-10.409-10.409l0.4086-3.5c0.22474-1.925 0.16147-3.4894-0.14059-3.4764s-4.9976 2.8905-10.435 6.3946l-9.8854 6.371 9.8777 6.6054c5.4328 3.633 10.19 6.6054 10.572 6.6054 0.38212 0 0.43917-1.575 0.12679-3.5z"/>
 <path id="path3983" d="m267.08 139.02h-13.991c-10.007 0-14.268-0.35593-14.964-1.25-0.53516-0.6875-2.2295-4.7483-3.7651-9.024-1.5357-4.2757-3.0568-7.5093-3.3804-7.1857-0.32353 0.32353-3.5975 12.097-7.2755 26.164s-7.2866 25.956-8.0191 26.42c-1.6713 1.0595-3.9585 1.0814-5.5771 0.0535-0.7395-0.4696-3.8872-15.965-7.75-38.151-3.5776-20.548-6.6886-37.544-6.9134-37.769-0.58357-0.58357-1.0443 1.1659-5.5542 21.09-2.222 9.8162-4.2909 18.254-4.5976 18.75-0.30671 0.49626-7.7311 0.9023-16.499 0.9023h-15.941c-0.26744-1.9406-0.0437-3.8074 0.19794-5.7282l12.142-0.71021c6.6781-0.39062 12.303-0.87141 12.5-1.0684 0.19701-0.19702 3.4348-13.957 7.1952-30.577 9.4973-54.903 17-19.176 21.562 7.1906 6.316 36.655 6.9434 39.894 7.727 39.894 0.21273 0 3.0034-10.15 6.2014-22.556 6.2021-24.059 7.1042-25.845 11.94-23.642 1.7004 0.77477 3.3763 4.3282 7.2407 15.353l5.0282 14.345 11.198 0.28337 11.198 0.28336"/>
 <path id="path3979" d="m160.75 52.957c125.12 1.1789 62.558 0.58945 0 0zm34.263-6.4916c-8.092-2.9913-14.132-6.8728-19.71-12.666-18.486-19.198-17.82-50.339 1.4704-68.739 21.421-20.432 54.022-17.557 71.941 6.3445 6.121 8.1647 8.3691 14.776 8.9078 26.195 0.55393 11.743-1.6165 20.162-7.5748 29.38-5.0222 7.7704-10.907 12.808-20.196 17.289-7.0326 3.3926-8.1854 3.6353-18.5 3.8936-8.9596 0.22436-11.99-0.0905-16.338-1.6977zm27.036-5.6763c1.2713-0.7494 0.57039-3.4348-4.5991-17.62-3.3544-9.2046-6.3763-16.742-6.7152-16.75-0.56339-0.01321-11.916 32.598-11.893 34.166 0.005 0.37425 1.0221 0.90356 2.2596 1.1762 3.4469 0.75955 19.255 0.0256 20.948-0.97255zm-32.201-5.1342c-0.78358-1.3449-9.8133-25.747-18.594-50.25-0.87746-2.4485-2.1597 0.71673-3.3768 8.336-2.5111 15.719 4.0509 31.139 17.374 40.828 4.4543 3.2391 6.0748 3.622 4.5973 1.0861zm50.177-5.8154c9.1498-9.1498 13.716-21.392 12.471-33.435-0.47257-4.5703-3.3415-14.914-3.5743-12.886-0.72763 6.3355-8.7419 32.003-15.81 50.636-0.99995 2.636 1.5608 1.0377 6.9139-4.3154zm-33.1-35.152c-4.8976-13.783-5.0973-14.149-7.8799-14.471-1.9319-0.22294-2.7934-0.96095-3.0247-2.5913l-0.32342-2.2795 13.323 0.27954c12.564 0.26359 13.323 0.3936 13.323 2.2795 0 1.4464-0.77359 2.0888-2.7949 2.3208-2.0954 0.24048-2.6608 0.74103-2.2591 2 0.29472 0.92358 3.6049 10.87 7.356 22.103l6.8201 20.424 3.3749-10.424c4.673-14.433 4.6139-20.167-0.3018-29.257-2.0324-3.7582-3.6952-7.6745-3.6952-8.7029 0-3.09 1.9898-6.4924 4.826-8.2519 1.4707-0.91239 2.0685-1.6709 1.3284-1.6855-0.7401-0.01463-2.6352-0.94486-4.2113-2.0672-3.505-2.4958-11.847-5.4305-18.066-6.356-11.057-1.6454-25.766 3.5204-34.941 12.272l-5.373 5.1248h7.552c4.1536 0 7.8361 0.28417 8.1835 0.63148 1.2632 1.2632-1.4274 4.3685-3.785 4.3685-2.3987 0-2.3596 0.16612 5.2852 22.486l7.7017 22.486 4.4626-13.454c4.218-12.717 4.3889-13.661 3.1186-17.236z"/>
 <path id="path4055" style="stroke:#fff;stroke-width:2.987;fill:none" d="m103.98 62.441a39.476 40.181 0 1 1 -78.953 0 39.476 40.181 0 1 1 78.953 0z" transform="matrix(1.0133 0 0 .99549 -.85577 .28175)"/>
</svg>
