<?xml version="1.0" encoding="UTF-8" standalone="no"?>
<!-- Created with Inkscape (http://www.inkscape.org/) -->
<svg id="svg3449" xmlns:rdf="http://www.w3.org/1999/02/22-rdf-syntax-ns#" xmlns="http://www.w3.org/2000/svg" height="128" width="128" version="1.0" xmlns:cc="http://creativecommons.org/ns#" xmlns:xlink="http://www.w3.org/1999/xlink" xmlns:dc="http://purl.org/dc/elements/1.1/">
 <metadata id="metadata56">
  <rdf:RDF>
   <cc:Work rdf:about="">
    <dc:format>image/svg+xml</dc:format>
    <dc:type rdf:resource="http://purl.org/dc/dcmitype/StillImage"/>
    <dc:title/>
   </cc:Work>
  </rdf:RDF>
 </metadata>
 <defs id="defs3451">
  <linearGradient id="linearGradient3514" y2="-9.1034" gradientUnits="userSpaceOnUse" x2="66.492" gradientTransform="matrix(.96826 0 0 .97948 2.179 .16587)" y1="-42.638" x1="67.952">
   <stop id="stop4620" style="stop-color:#37414b" offset="0"/>
   <stop id="stop4622" style="stop-color:#37414b;stop-opacity:0" offset="1"/>
  </linearGradient>
  <linearGradient id="linearGradient3516" y2="-11.847" gradientUnits="userSpaceOnUse" x2="58.98" gradientTransform="matrix(.96826 0 0 .97948 2.179 .16587)" y1="-118.55" x1="57.173">
   <stop id="stop4596" offset="0"/>
   <stop id="stop4598" style="stop-opacity:0" offset="1"/>
  </linearGradient>
  <linearGradient id="linearGradient3519" y2="50.369" gradientUnits="userSpaceOnUse" x2="76.558" gradientTransform="matrix(.96826 0 0 .97948 3.2423 -129.19)" y1="13.164" x1="76.558">
   <stop id="stop3392" style="stop-color:#425e7b" offset="0"/>
   <stop id="stop3394" style="stop-color:#7a91a7" offset="1"/>
  </linearGradient>
  <linearGradient id="linearGradient3521" y2="-8.7399" gradientUnits="userSpaceOnUse" x2="60.217" gradientTransform="matrix(.96826 0 0 .97948 2.179 .16587)" y1="-123.72" x1="60.395">
   <stop id="stop3392-4-8" style="stop-color:#425e7b" offset="0"/>
   <stop id="stop3394-8-0" style="stop-color:#7a91a7" offset="1"/>
  </linearGradient>
  <radialGradient id="radialGradient3349" gradientUnits="userSpaceOnUse" cy="45.647" cx="42.148" gradientTransform="matrix(.94690 0 0 1.139 3.5954 -29.89)" r="58.984">
   <stop id="stop2699-5" style="stop-color:#9cbbd9" offset="0"/>
   <stop id="stop2701-7" style="stop-color:#5c82ab" offset="1"/>
  </radialGradient>
  <linearGradient id="linearGradient3370" y2="5.2502" gradientUnits="userSpaceOnUse" x2="19.875" gradientTransform="matrix(2.9298 0 0 2.955 -4.547 -2.0288)" y1="44.52" x1="19.875">
   <stop id="stop3776" style="stop-color:#365a7c" offset="0"/>
   <stop id="stop3778" style="stop-color:#5ea1ca" offset="1"/>
  </linearGradient>
  <linearGradient id="linearGradient3026" y2="25.002" spreadMethod="reflect" gradientUnits="userSpaceOnUse" x2="30.055" y1="25.002" x1="14.851">
   <stop id="stop4122" style="stop-color:#fff" offset="0"/>
   <stop id="stop4124" style="stop-color:#fff;stop-opacity:.23529" offset="1"/>
  </linearGradient>
 </defs>
 <rect id="rect892-2-7-2" ry="29.452" style="stroke:#d3d3d3;stroke-width:9.8448;fill:#37414b" transform="scale(1,-1)" height="116.16" width="116.08" y="-122.08" x="5.9224"/>
 <rect id="rect892" style="stroke:url(#linearGradient3521);stroke-width:.97385;fill:url(#linearGradient3519)" transform="scale(1,-1)" ry="29.296" height="115.54" width="114.22" y="-122.25" x="7.0394"/>
 <rect id="rect892-2" style="stroke:url(#linearGradient3516);stroke-width:.97385;fill:url(#linearGradient3514)" transform="scale(1,-1)" ry="28.993" height="114.35" width="114.22" y="-121.46" x="7.0599"/>
 <path id="rect895" style="fill:url(#radialGradient3349)" d="m33.051 7.2596c-7.969-2.4493-27.013 15.174-25.653 23.038-0.050142 0.97378-0.088772 1.9648-0.088772 2.9572v52.419c0 20.876 10.712 33.859 22.318 33.859h67.038c12.638 0 24.318-11.245 24.318-25.859v-64.017c0.7-10.928-21.283-24.659-25.926-22.618-47.846 0.8653-18.017 0.2236-62.003 0.2236z"/>
 <rect id="rect892-2-7-8" style="opacity:.15891;stroke:#000;stroke-width:4.8445;fill:none" transform="scale(1,-1)" ry="28.993" height="114.35" width="114.22" y="-121.16" x="6.8687"/>
 <rect id="rect892-2-7-1" style="opacity:.15891;stroke:#000;stroke-width:7.7512;fill:none" transform="scale(1,-1)" ry="28.993" height="114.35" width="114.22" y="-121.16" x="6.8687"/>
 <rect id="rect892-2-7-2-9" ry="28.067" style="stroke:#000;stroke-width:1.0489;fill:none" transform="scale(1,-1)" height="112.71" width="114.14" y="-120.31" x="7.0649"/>
 <path id="path1187" style="fill:#fff;fill-opacity:.057143" d="m33.017 7.2319c-23.707 0-26.027 0.6738-25.93 26.295-0.04334 0.71563-0.07674 1.4439-0.07674 2.1732v32.76c18.67-38.321 38.34-51.497 90.374-61.179-0.225-0.026-0.46-0.0303-0.691-0.0303-41.576 0.3874-25.652-0.0188-63.676-0.0188z"/>
 <path id="path4596-6" style="opacity:.05;color:#000000;fill:url(#linearGradient3370)" d="m27.223 18.841a8.6447 8.719 0 0 0 -8.1484 8.6802v72.858a8.6447 8.719 0 0 0 15.29 5.5406l9.7049-11.82 14.649 33.982c0.38213-0.0787 0.78445-0.0925 1.1902-0.0925h40.834a8.6447 8.719 0 0 0 -1.3733 -4.8018l-27.833-42.57h14.283a8.6447 8.719 0 0 0 5.22 -15.608l-58.138-44.417a8.6447 8.719 0 0 0 -5.6764 -1.7545z"/>
 <g id="g3020" transform="matrix(3.147 0 0 3.1344 -15.6 -13.363)">
  <path id="path3925" style="opacity:.042471;block-progression:tb;text-indent:0;color:#000000;text-transform:none" d="m23.969 11.969c-1.111 0.158-2.21 0.428-3.281 0.781a1.0609 1.0609 0 0 0 -0.03125 0c-1.1135 0.42555-2.1969 1.0105-3.1562 1.75-0.66726 0.52008-1.2954 1.1872-1.875 1.9062-0.09459-0.35156-0.25537-0.6786-0.53125-0.96875a1.0609 1.0609 0 0 0 -0.064 -0.062c-0.492-0.455-1.077-0.57-1.719-0.375a1.0609 1.0609 0 0 0 -0.15625 0.0625c-1.4668 0.74566-1.8363 2.2242-2.1875 3.0938a1.0609 1.0609 0 0 0 -0.03125 0.0625c-0.35957 1.036-0.71451 2.1493-0.84375 3.3438-0.0023 0.02101 0.0021 0.04143 0 0.0625-0.16957 1.1877-0.11323 2.368 0 3.4688 0.000892 0.01066-0.000926 0.0206 0 0.03125 0.1145 1.3163 0.50043 2.5262 0.875 3.6562a1.0609 1.0609 0 0 0 0 0.0625c0.41175 1.0344 0.94835 1.9957 1.5 2.9062 0.78031 1.2345 1.8049 2.1205 2.6875 2.9688a1.0609 1.0609 0 0 0 0.032 0.031c0.92269 0.82947 1.9725 1.3937 2.9062 1.9062 1.0465 0.56023 2.1462 0.84784 3.1562 1.0938a1.0609 1.0609 0 0 0 0.1875 0.03125c0.09067 0.0063 0.3671 0.10102 0.8125 0.21875 0.43027 0.11372 1.1297 0.14636 1.75-0.21875 0.01945-0.01042 0.0434-0.02011 0.0625-0.03125 0.40109-0.23401 0.7421-0.61294 0.875-1.0312 0.14156-0.44556 0.09514-0.88121-0.03125-1.25-0.04467-0.13034-0.15476-0.22298-0.21875-0.34375 0.2039 0.02382 0.42467 0.10316 0.625 0.125 0.02711 0.0029 0.06639-0.0031 0.09375 0a1.0609 1.0609 0 0 0 -0.125 0.1875c-0.24529 0.46475-0.29877 1.0448-0.15625 1.5 0.14252 0.45517 0.43588 0.80665 0.75 1.0625 0.56709 0.46189 1.3026 0.64094 2.0938 0.46875v0.0625c0.96582-0.08342 2.0494-0.10471 3.1875-0.40625 0.0234-0.0062 0.03906-0.02481 0.0625-0.03125 0.02099-0.0034 0.04164 0.0036 0.0625 0v-0.03125c1.1321-0.19852 2.0928-0.70956 2.9062-1.1875a1.0609 1.0609 0 0 0 0.03125 0c1.217-0.755 2.387-1.697 3.343-2.876h0.03125c0.0044-0.0055-0.0044-0.02578 0-0.03125 0.6235-0.73466 1.2202-1.5401 1.6562-2.5 0.0063-0.01385 0.02502-0.01733 0.03125-0.03125h-0.03125c0.63992-1.2903 0.94483-2.6191 1.25-3.8125a1.0609 1.0609 0 0 0 0.032 -0.126c0.13799-1.0419 0.26724-2.1225 0.28125-3.25a1.0609 1.0609 0 0 0 0 -0.09375c-0.1-1.136-0.291-2.264-0.593-3.375-0.34-1.189-0.866-2.208-1.219-3.156a1.0609 1.0609 0 0 0 -0.125 -0.21875c-0.14742-0.21124-0.36404-0.6456-0.75-1.0625s-1.144-0.86662-1.9688-0.71875a1.0609 1.0609 0 0 0 -0.34375 0.09375c-0.63376 0.35614-0.897 1.011-1 1.625-0.65736-0.84235-1.3448-1.6047-2-2.3125-0.80705-0.86633-1.7891-1.5216-2.7812-2v0.03125c-1.012-0.509-2.041-0.742-3.031-0.875-0.874-0.127-1.876-0.309-2.969-0.219a1.0609 1.0609 0 0 0 -0.0625 0zm1.0625 3.125a1.0609 1.0609 0 0 0 0.03125 0c0.01493-0.000716 0.1207-0.000267 0.21875 0-0.9842-0.02583-1.9584 0.14906-2.9062 0.40625-0.03139 0.0085-0.06244 0.02243-0.09375 0.03125a1.0609 1.0609 0 0 0 0.093 -0.032c0.82905-0.2739 1.7176-0.38086 2.6562-0.40625zm2.8125 0.4375c0.0366 0.01389 0.08909 0.01641 0.125 0.03125 0.0086 0.0036 0.02268-0.0036 0.03125 0 0.02774 0.01262 0.0349 0.04976 0.0625 0.0625-0.07415-0.0311-0.14444-0.06684-0.21875-0.09375zm-7.4062 0.875c-0.3347 0.21657-0.70265 0.39976-1 0.625 0.10125-0.08008 0.14472-0.20319 0.25-0.28125 0.02311-0.01345 0.03952-0.01786 0.0625-0.03125 0.01247-0.0092 0.01873-0.02212 0.03125-0.03125 0.23383-0.1364 0.4348-0.15625 0.65625-0.28125zm13.531 5.9062c0.25704 0.867 0.53978 1.6975 0.5625 2.4062a1.0609 1.0609 0 0 0 0 0.0625c0.06949 0.927-0.04718 1.853-0.34375 2.75-0.16394 0.4696-0.50191 0.89652-0.78125 1.3438 0.11209-0.63308 0.61106-1.4456 0.8125-2.6562 0.0072-0.04305 0.02494-0.04969 0.03125-0.09375h-0.03125c0.24632-1.1521 0.10813-2.2942-0.15625-3.2812a1.0609 1.0609 0 0 0 -0.064 -0.126c-0.05298-0.12377-0.07581-0.30074-0.0625-0.375 0.008-0.04456 0.02923-0.03022 0.03125-0.03125zm-13.562 8.4062c0.24576 0.13288 0.59876 0.223 0.90625 0.375-0.23384-0.09901-0.48874-0.13413-0.71875-0.25-0.03078-0.01834-0.03243-0.01334-0.0625-0.03125-0.06825-0.04066-0.06066-0.05521-0.125-0.09375zm2.593 0.969c0.28866 0.08392 0.58184 0.12621 0.875 0.1875-0.24955-0.04786-0.46016-0.07881-0.71875-0.125-0.0095-0.002-0.02175 0.002-0.03125 0-0.04479-0.0094-0.08038-0.05242-0.125-0.0625zm6.2812 0.09375v0.03125c0.04927-0.01223 0.1083 0.03588 0.15625 0.03125-0.23626 0.06533-0.33223 0.14485-0.59375 0.21875-0.01211 0.0034-0.0191-0.0035-0.03125 0-0.80932 0.19954-1.7404 0.21783-2.6875 0.15625 1.1273 0.07097 2.1933-0.13247 3.1562-0.4375z"/>
  <path id="path5577" style="block-progression:tb;text-indent:0;color:#000000;text-transform:none;fill:url(#linearGradient3026)" d="m24.125 13.031c-1.052 0.14975-2.0934 0.3904-3.1027 0.72286-1.025 0.39173-2.0003 0.93131-2.869 1.6009-0.78384 0.61095-1.5329 1.2838-2.0908 2.1137-0.60984 0.77777-1.0755 1.6638-1.4331 2.583-0.39937 0.95795-0.49792 2.0098-0.55218 3.0365-0.10184 1.1021 0.03242 2.2301 0.3603 3.2867 0.31997 1.0644 0.81686 2.0814 1.4659 2.9839 0.31192 0.42056 0.52064 0.92612 0.53406 1.4536 0.90249 0.02366 1.5688 0.74927 2.2416 1.2638 0.86917 0.55033 1.8131 1.0009 2.7928 1.3206 1.2749 0.46927 2.6306 0.63435 3.9733 0.7807 0.98784 0.10751 1.9898 0.25675 2.9801 0.08958 0.94908-0.1224 1.9105-0.27045 2.8036-0.62405 0.9337-0.38926 1.7732-0.9774 2.529-1.6436 0.73188-0.62809 1.29-1.4217 1.7733-2.2495 0.56763-0.85186 0.88134-1.8373 1.0312-2.8438 0.18667-0.94387 0.18352-1.9413 0.09048-2.8983-0.166-1.043-0.477-2.051-0.84-3.04-0.378-0.969-0.907-1.872-1.568-2.676-0.662-0.91-1.443-1.719-2.206-2.543-0.688-0.739-1.562-1.303-2.467-1.74-0.852-0.428-1.788-0.633-2.727-0.76-0.898-0.13-1.81-0.294-2.719-0.219zm1.2188 1c1.0388 0.05939 2.1066 0.16408 3.0743 0.57201 0.90059 0.40783 1.7939 0.88053 2.5311 1.5494 0.97076 0.8142 1.8135 1.7682 2.5472 2.7992 0.61333 0.76344 1.0019 1.6822 1.3787 2.5793 0.29261 1.0368 0.69179 2.0626 0.72669 3.1514 0.08075 1.0772-0.08944 2.1604-0.42728 3.1822-0.32088 0.91915-0.8334 1.7789-1.4315 2.5476-0.38283 0.50824-0.88031 0.91306-1.3991 1.275 0.04522-0.9365-0.12416-1.8739-0.01607-2.8072 0.11887-1.0139 0.71492-1.9003 0.85982-2.9116 0.2179-0.93357 0.0818-1.9259-0.16426-2.8445-0.258-0.601-0.201-1.388 0.414-1.749-0.127-0.827-1.073-1.054-1.51-1.686-0.82-0.741-1.632-1.49-2.4-2.286-0.219-0.175-0.479-0.563-0.684-0.622 0.09318 0.39-0.6582 0.35992-0.6875 0-0.78934-0.49562-1.7373-0.60875-2.6466-0.6703-1.1559-0.063-2.3208 0.11067-3.4159 0.4828-1.0015 0.39849-1.84 1.0759-2.6875 1.7188-0.8007 0.77167-1.5289 1.6616-1.875 2.7343-0.38208 0.89446-0.50009 1.8621-0.50003 2.8235-0.03435 1.0694 0.46166 2.0249 0.82935 2.9936 0.36868 0.90775-0.2764 1.7661-0.76685 2.4799-0.54277-0.87872-1.1966-1.7178-1.5-2.7188-0.40888-1.0283-0.50115-2.1502-0.5625-3.2453 0.02996-0.98234 0.20215-1.9682 0.52656-2.8969 0.31856-0.88946 0.77686-1.732 1.3655-2.472 0.60517-0.85089 1.3925-1.5548 2.233-2.1671 0.91291-0.53131 1.8297-1.1165 2.875-1.3438 0.95942-0.31697 1.9736-0.4407 2.9806-0.46794 0.11053-0.0053 0.22132 0.002 0.33191-0.000809zm-11.719 1.969c-0.97774 0.49704-1.3004 1.6205-1.6817 2.5644-0.35623 1.0264-0.67961 2.0754-0.78996 3.1604-0.16228 1.0849-0.12034 2.1822-0.0074 3.2693 0.09899 1.1825 0.45126 2.3225 0.8228 3.4434 0.38142 0.9582 0.88342 1.8641 1.4166 2.7441 0.67435 1.0669 1.6177 1.9192 2.5209 2.7872 0.79966 0.71888 1.7595 1.2217 2.6959 1.7357 0.90367 0.48374 1.8972 0.76279 2.8885 1.0041 0.688 0.047 1.337 0.599 2.009 0.166 0.89-0.462 0.318-1.714-0.5-1.875-0.984-0.237-1.976-0.474-2.918-0.854-0.887-0.352-1.718-0.835-2.488-1.396-0.7577-0.65724-1.5129-1.3234-2.1273-2.1218-0.58371-0.7383-1.0391-1.5613-1.395-2.4316-0.55562-1.2215-0.83831-2.5513-0.99177-3.8789-0.11312-0.9958 0.08257-1.9934 0.21896-2.978 0.17764-0.99992 0.39099-2.0213 0.92006-2.9023 0.37464-0.69618 0.71567-1.615 0.0861-2.2771-0.173-0.16-0.45-0.231-0.68-0.161zm22.719 0.65625c-0.98098 0.55126-0.4768 1.861-0.04839 2.6347 0.49239 0.99121 0.85264 2.037 1.2046 3.084 0.11465 0.89382 0.42406 1.7778 0.3125 2.6875-0.11774 0.94535-0.11777 1.9091-0.38103 2.8352-0.15516 0.97198-0.71802 1.8122-1.119 2.696-0.47144 0.95581-1.1147 1.8354-1.9697 2.4824-0.75956 0.65739-1.5914 1.243-2.5218 1.6321-0.90091 0.43484-1.8714 0.72676-2.8728 0.79083-0.90202 0.17586-2.0087-0.3117-2.7294 0.43839-0.49532 0.93848 0.80184 1.8032 1.651 1.5175 1.047-0.089 2.112-0.102 3.13-0.392 0.95616-0.14024 1.835-0.60697 2.6596-1.0915 1.1605-0.71863 2.2544-1.5741 3.1136-2.6427 0.604-0.71 1.157-1.474 1.539-2.328 0.571-1.141 0.843-2.397 1.157-3.625 0.137-1.037 0.268-2.077 0.281-3.125-0.095-1.079-0.278-2.142-0.562-3.188-0.302-1.055-0.805-2.036-1.188-3.062-0.392-0.562-0.839-1.49-1.656-1.344zm-11.219 0.406c0.92042-0.02263 1.8549 0.20641 2.6605 0.65004 0.74595 0.35899 1.707 0.88188 1.6208 1.85-0.7648 0.36492-1.1261-0.6752-1.75-0.90625-0.81307-0.45649-1.7616-0.5567-2.6778-0.57711-0.8867-0.03766-1.7783 0.19046-2.5847 0.55367-0.87716 0.40307-1.6213 1.0668-2.2688 1.7734-0.54846 0.60846-0.65965 1.6938-1.6133 1.8627-0.12186 0.03162-0.4047 0.07565-0.23393-0.1684 0.08412-0.88432 0.67026-1.5984 1.1694-2.2923 0.59601-0.76708 1.3984-1.3498 2.2116-1.8677 0.88844-0.52593 1.9283-0.79425 2.9497-0.8988 0.17171-0.03005 0.34436 0.01943 0.51655 0.02075zm0.094 1.938c0.93666 0.16646 1.8757 0.4423 2.6427 1.0204 0.48454 0.33483 0.45199 0.98046 0.1385 1.4171-0.53516 0.83901 0.61487 1.3855 0.90625 2.0625 0.25185 0.55883 0.65684 1.0358 0.96875 1.5625-0.32458 0.92486-1.1156 1.5742-1.8762 2.1416-0.653 0.52713-1.4772 0.79906-2.3113 0.8272-0.92687-0.01959-1.8858-0.11302-2.7437-0.48437-0.85152-0.30756-1.5134-0.98947-2.0473-1.6975-0.246-0.451-0.856-0.906-0.585-1.474 0.93548 0.04041 1.6625 1.0094 2.6562 0.90625 0.40481-0.75063 0.23614-1.6346 0.125-2.4375h-1.8125l1.9062-3.1875c-0.67708 0.38542-1.3542 0.77083-2.0312 1.1562 0.64136-0.61811 1.3651-1.1807 2.206-1.4913 0.607-0.17 1.219-0.356 1.857-0.321zm6.5625 3.7812c0.1937 0.15472 0.16199 0.59814 0.27617 0.8547 0.10682 0.38369 0.08823 0.79683-0.02617 1.1766-0.73002-0.30664-1.1399-1.4823-0.34375-1.9375l0.0625-0.09375h0.03125zm-13.657 0.344c0.82101 0.39634 1.1786 1.3506 1.125 2.2188 0.0538 0.30655-0.139 0.79875-0.53125 0.625-0.65126-0.25381-0.33982-1.1075-0.58173-1.6304-0.09055-0.4099-0.12572-0.82551-0.10577-1.2446l0.094 0.031zm4.2812 5.3125c1.1072 0.26646 2.2086 0.68535 3.3609 0.65625 0.78796-0.03432 1.6825-0.12034 2.3266 0.4375 0.02267 0.53769-0.71124 0.36371-1.0572 0.48333-0.98868 0.07071-2.0081 0.18085-2.974-0.10833-0.97789-0.23427-2.0411-0.4304-2.8125-1.125-0.19768-0.16704 0.27292-0.17104 0.34375-0.28125 0.26347-0.07997 0.54026-0.11833 0.8125-0.0625zm-2.375 0.96875c0.9177 0.31339 1.7015 0.96399 2.6672 1.1512 1.029 0.37115 2.1047 0.58064 3.1968 0.63349 1.0642 0.12973 2.1225-0.09159 3.1278-0.41426 1.0728-0.26635 2.0228 0.4319 2.8161 1.06l0.13 0.101c-0.78375 0.70784-1.8889 0.87622-2.875 1.1562-0.98511 0.24896-2.018 0.23846-3.026 0.17292-1.0528-0.0682-2.0849-0.30896-3.1214-0.49301-1.0056-0.20796-1.9815-0.57099-2.8949-1.0377-0.6959-0.41459-1.5899-0.77914-1.8952-1.5797 0.58334-0.25847 1.1701-0.81043 1.875-0.75z"/>
 </g>
</svg>
