<?xml version="1.0" encoding="UTF-8" standalone="no"?>
<!-- Created with Inkscape (http://www.inkscape.org/) -->
<svg id="svg3449" xmlns:rdf="http://www.w3.org/1999/02/22-rdf-syntax-ns#" xmlns="http://www.w3.org/2000/svg" height="128" width="128" version="1.0" xmlns:cc="http://creativecommons.org/ns#" xmlns:xlink="http://www.w3.org/1999/xlink" xmlns:dc="http://purl.org/dc/elements/1.1/">
 <metadata id="metadata56">
  <rdf:RDF>
   <cc:Work rdf:about="">
    <dc:format>image/svg+xml</dc:format>
    <dc:type rdf:resource="http://purl.org/dc/dcmitype/StillImage"/>
    <dc:title/>
   </cc:Work>
  </rdf:RDF>
 </metadata>
 <defs id="defs3451">
  <linearGradient id="linearGradient3514" y2="-9.1034" gradientUnits="userSpaceOnUse" x2="66.492" gradientTransform="matrix(.96826 0 0 .97948 2.179 .16587)" y1="-42.638" x1="67.952">
   <stop id="stop4620" style="stop-color:#37414b" offset="0"/>
   <stop id="stop4622" style="stop-color:#37414b;stop-opacity:0" offset="1"/>
  </linearGradient>
  <linearGradient id="linearGradient3516" y2="-11.847" gradientUnits="userSpaceOnUse" x2="58.98" gradientTransform="matrix(.96826 0 0 .97948 2.179 .16587)" y1="-118.55" x1="57.173">
   <stop id="stop4596" offset="0"/>
   <stop id="stop4598" style="stop-opacity:0" offset="1"/>
  </linearGradient>
  <linearGradient id="linearGradient3519" y2="50.369" gradientUnits="userSpaceOnUse" x2="76.558" gradientTransform="matrix(.96826 0 0 .97948 3.2423 -129.19)" y1="13.164" x1="76.558">
   <stop id="stop3392" style="stop-color:#425e7b" offset="0"/>
   <stop id="stop3394" style="stop-color:#7a91a7" offset="1"/>
  </linearGradient>
  <linearGradient id="linearGradient3521" y2="-8.7399" gradientUnits="userSpaceOnUse" x2="60.217" gradientTransform="matrix(.96826 0 0 .97948 2.179 .16587)" y1="-123.72" x1="60.395">
   <stop id="stop3392-4-8" style="stop-color:#425e7b" offset="0"/>
   <stop id="stop3394-8-0" style="stop-color:#7a91a7" offset="1"/>
  </linearGradient>
  <radialGradient id="radialGradient3349" gradientUnits="userSpaceOnUse" cy="45.647" cx="42.148" gradientTransform="matrix(.94690 0 0 1.139 3.5954 -29.89)" r="58.984">
   <stop id="stop2699-5" style="stop-color:#868686" offset="0"/>
   <stop id="stop2701-7" style="stop-color:#4a4a4a" offset="1"/>
  </radialGradient>
  <filter id="filter3174-5" color-interpolation-filters="sRGB">
   <feGaussianBlur id="feGaussianBlur3176-4" stdDeviation="1.71"/>
  </filter>
  <linearGradient id="ButtonShadow-4" x1="45.448" gradientUnits="userSpaceOnUse" y1="92.54" gradientTransform="scale(1.0059 .99417)" x2="45.448" y2="7.0165">
   <stop id="stop3750-3" offset="0"/>
   <stop id="stop3752-57" style="stop-opacity:.58824" offset="1"/>
  </linearGradient>
  <filter id="filter3174-0" color-interpolation-filters="sRGB">
   <feGaussianBlur id="feGaussianBlur3176-9" stdDeviation="1.71"/>
  </filter>
  <filter id="filter3174-7" color-interpolation-filters="sRGB">
   <feGaussianBlur id="feGaussianBlur3176-7" stdDeviation="1.71"/>
  </filter>
  <clipPath id="clipPath3613-9">
   <rect id="rect3615-2" style="fill:#fff" rx="6" ry="6" height="84" width="84" y="6" x="6"/>
  </clipPath>
  <linearGradient id="linearGradient3613-3" x1="48" gradientUnits="userSpaceOnUse" y1="20.221" x2="48" y2="138.66">
   <stop id="stop3739-03" style="stop-color:#fff" offset="0"/>
   <stop id="stop3741-5" style="stop-color:#fff;stop-opacity:0" offset="1"/>
  </linearGradient>
  <filter id="filter3794-30" height="1.384" width="1.384" color-interpolation-filters="sRGB" y="-.192" x="-.192">
   <feGaussianBlur id="feGaussianBlur3796-38" stdDeviation="5.28"/>
  </filter>
  <filter id="filter3174-8" color-interpolation-filters="sRGB">
   <feGaussianBlur id="feGaussianBlur3176-3" stdDeviation="1.71"/>
  </filter>
  <clipPath id="clipPath3613-26">
   <rect id="rect3615-4" style="fill:#fff" rx="6" ry="6" height="84" width="84" y="6" x="6"/>
  </clipPath>
  <filter id="filter3794-67" height="1.384" width="1.384" color-interpolation-filters="sRGB" y="-.192" x="-.192">
   <feGaussianBlur id="feGaussianBlur3796-4" stdDeviation="5.28"/>
  </filter>
  <filter id="filter3174-4" color-interpolation-filters="sRGB">
   <feGaussianBlur id="feGaussianBlur3176-0" stdDeviation="1.71"/>
  </filter>
  <filter id="filter3174-1" color-interpolation-filters="sRGB">
   <feGaussianBlur id="feGaussianBlur3176-1" stdDeviation="1.71"/>
  </filter>
  <linearGradient id="linearGradient9285" y2="7.0165" gradientUnits="userSpaceOnUse" x2="45.448" gradientTransform="matrix(1.0059 0 0 .99417 -59.657 2.8358)" y1="92.54" x1="45.448">
   <stop id="stop3750-7" offset="0"/>
   <stop id="stop3752-3" style="stop-opacity:.58824" offset="1"/>
  </linearGradient>
  <linearGradient id="linearGradient5575" y2="1013" gradientUnits="userSpaceOnUse" x2="32.351" y1="1043.8" x1="32.351">
   <stop id="stop5571" style="stop-color:#f19b3a" offset="0"/>
   <stop id="stop5573" style="stop-color:#f2a44c" offset="1"/>
  </linearGradient>
 </defs>
 <path id="path5266" style="fill:#fff" d="m79.469 31.781c-0.57606-0.0052-1.1456 0.03187-1.7188 0.125-4.465 0.44-8.66 3.03-11.062 6.8125-1.9825 3.0175-2.6962 6.75-2.2812 10.312-10.742 10.725-21.452 21.458-32.188 32.188-1.49 1.4575-2.3625 3.4712-2.5625 5.5312-0.2075 2.79 0.98375 5.66 3.1562 7.4375 1.5675 1.3475 3.6475 2.0162 5.6875 2.1562 2.2775-0.18 4.5888-1.0012 6.2188-2.6562 5.675-5.655 11.304-11.301 16.969-16.969 4.9275-4.97 9.9575-9.8638 14.812-14.906 1.3275 0.08 2.6675 0.39 4 0.1875 4-0.2975 7.855-2.2038 10.438-5.2812 2.3875-2.8175 3.67-6.5362 3.625-10.219-0.105-1.795-0.50625-3.555-1.0938-5.25-0.22 0.0725-0.4025 0.2075-0.5625 0.375-2.725 2.86-5.5788 5.5862-8.3438 8.4062-1.27 1.335-3.6038 1.355-4.9062 0.0625-1.2875-1.285-2.5638-2.5875-3.8438-3.875-1.285-1.3025-1.265-3.5838 0.0625-4.8438 2.905-2.88 5.76-5.8275 8.6875-8.6875-1.6462-0.50062-3.3656-0.89078-5.0938-0.90625zm-41.656 51.25c0.9709-0.07383 1.9506 0.10188 2.7812 0.625 1.4275 0.8225 2.3475 2.4488 2.3125 4.0938 0 1.7-1.0212 3.3525-2.5312 4.125-1.5225 0.7525-3.5 0.665-4.875-0.375-1.1875-0.86-2.0125-2.255-1.9375-3.75-0.1025-2.0325 1.3238-4.0225 3.2812-4.5625 0.31125-0.07313 0.64512-0.13164 0.96875-0.15625z"/>
 <rect id="rect892-2-7-2" ry="29.452" style="stroke:#d3d3d3;stroke-width:9.8448;fill:#37414b" transform="scale(1,-1)" height="116.16" width="116.08" y="-122.08" x="5.9224"/>
 <rect id="rect892" style="stroke:url(#linearGradient3521);stroke-width:.97385;fill:url(#linearGradient3519)" transform="scale(1,-1)" ry="29.296" height="115.54" width="114.22" y="-122.25" x="7.0394"/>
 <rect id="rect892-2" style="stroke:url(#linearGradient3516);stroke-width:.97385;fill:url(#linearGradient3514)" transform="scale(1,-1)" ry="28.993" height="114.35" width="114.22" y="-121.46" x="7.0599"/>
 <path id="rect895" style="fill:url(#radialGradient3349)" d="m30.571 7.0104c-13.128 0.936-22.55 15.04-23.173 23.288-0.050142 0.97378-0.088772 1.9648-0.088772 2.9572v58.419c0 15.229 11.191 27.859 22.318 27.859h67.038c15.69 0 24.318-16.445 24.318-25.859v-64.017c-0.21-5.933-12.29-21.682-25.926-22.618-47.846 0.8653-20.497-0.0256-64.483-0.0256z"/>
 <rect id="rect892-2-7-8" style="opacity:.15891;stroke:#000;stroke-width:4.8445;fill:none" transform="scale(1,-1)" ry="28.993" height="114.35" width="114.22" y="-121.16" x="6.8683"/>
 <rect id="rect892-2-7-1" style="opacity:.15891;stroke:#000;stroke-width:7.7512;fill:none" transform="scale(1,-1)" ry="28.993" height="114.35" width="114.22" y="-121.16" x="6.8686"/>
 <rect id="rect892-2-7-2-9" ry="28.067" style="stroke:#000;stroke-width:1.0489;fill:none" transform="scale(1,-1)" height="112.71" width="114.14" y="-120.31" x="7.0644"/>
 <path id="path1187" style="fill:#fff;fill-opacity:.057143" d="m32.415 6.0906c-14.891-4.3298-32.779 19.454-27.93 26.295-0.04334 0.71563-0.07674 1.4439-0.07674 2.1732v10.76c25.899-25.61 66.753-35.479 90.375-39.179-0.22473-0.02628-0.45986-0.03062-0.69067-0.03062-41.576 0.38742-23.653-0.01876-61.677-0.01875z"/>
 <g id="layer2" style="display:none" transform="translate(137.63 15.959)">
  <rect id="rect3745" style="opacity:.9;filter:url(#filter3174-5);fill:url(#ButtonShadow-4)" rx="6" ry="6" height="85" width="86" y="7" x="5"/>
 </g>
 <g id="layer2-3" style="display:none" transform="translate(146.29 14.997)">
  <rect id="rect3745-4" style="opacity:.9;filter:url(#filter3174-0);fill:url(#ButtonShadow-4)" rx="6" ry="6" height="85" width="86" y="7" x="5"/>
 </g>
 <g id="layer2-4" style="display:none" transform="translate(176.76 -8.736)">
  <rect id="rect3745-7" style="opacity:.9;filter:url(#filter3174-7);fill:url(#ButtonShadow-4)" rx="6" ry="6" height="85" width="86" y="7" x="5"/>
 </g>
 <g id="layer2-2" style="display:none" transform="translate(143.15 5.055)">
  <rect id="rect3745-9" style="opacity:.9;filter:url(#filter3174-8);fill:url(#ButtonShadow-4)" rx="6" ry="6" height="85" width="86" y="7" x="5"/>
 </g>
 <g id="layer5-4" style="display:none" transform="translate(143.15 5.055)">
  <rect id="rect3171-7" style="opacity:.3;filter:url(#filter3794-30);stroke:#fff;stroke-linecap:round;stroke-width:.5;fill:url(#linearGradient3613-3)" clip-path="url(#clipPath3613-9)" rx="12" ry="12" height="66" width="66" y="15" x="15"/>
 </g>
 <g id="layer2-1" style="display:none" transform="translate(160.47 -5.8175)">
  <rect id="rect3745-8" style="opacity:.9;filter:url(#filter3174-4);fill:url(#ButtonShadow-4)" rx="6" ry="6" height="85" width="86" y="7" x="5"/>
 </g>
 <g id="layer5-46" style="display:none" transform="translate(160.47 -5.8175)">
  <rect id="rect3171-2" style="opacity:.1;filter:url(#filter3794-67);stroke:#fff;stroke-linecap:round;stroke-width:.5;fill:url(#linearGradient3613-3)" clip-path="url(#clipPath3613-26)" rx="12" ry="12" height="66" width="66" y="15" x="15"/>
 </g>
 <rect id="rect3745-82" style="opacity:.9;filter:url(#filter3174-1);display:none;fill:url(#linearGradient9285)" rx="6" ry="6" height="85" width="86" y="9.8358" x="-54.657"/>
 <g id="g10023" transform="matrix(2.5 0 0 2.5 4 -2508.4)">
  <path id="path5513" style="enable-background:new;fill-opacity:.058824" d="m24 1014.2c-8.5052 0-15.4 6.8948-15.4 15.4s6.8948 15.4 15.4 15.4 15.4-6.8948 15.4-15.4-6.8948-15.4-15.4-15.4zm0 3.08c6.8042 0 12.32 5.5158 12.32 12.32 0 6.8041-5.5158 12.32-12.32 12.32s-12.32-5.5159-12.32-12.32c0-6.8042 5.5158-12.32 12.32-12.32zm-3.6575 4.235v2.4664h2.0995c0.20128 0.7107 0.57023 1.2488 0.7279 2.0032-1.7992 3.0709-3.8634 6.4175-5.6547 9.3904-0.23178 0.3846-0.576 0.8484-0.54742 1.2813h3.098c1.5789-2.2513 2.9426-4.723 4.5659-6.93 0.90163 2.5638 1.9761 4.9534 2.8273 7.5677 1.7264-0.4317 3.4666-0.8479 4.9208-1.5521-0.41014-0.6842-0.47203-1.7122-0.90835-2.3701-0.68804 0.2846-1.4011 0.5438-2.1897 0.7279-1.474-4.3017-3.2662-8.2832-4.7403-12.585h-4.1989z"/>
  <path id="path5511" d="m24 1013.8c-8.5052 0-15.4 6.8948-15.4 15.4s6.8948 15.4 15.4 15.4 15.4-6.8948 15.4-15.4-6.8948-15.4-15.4-15.4zm0 3.08c6.8042 0 12.32 5.5158 12.32 12.32 0 6.8041-5.5158 12.32-12.32 12.32s-12.32-5.5159-12.32-12.32c0-6.8042 5.5158-12.32 12.32-12.32zm-3.6575 4.235v2.4664h2.0995c0.20128 0.7107 0.57023 1.2488 0.7279 2.0032-1.7992 3.0709-3.8634 6.4175-5.6547 9.3904-0.23178 0.3846-0.576 0.8484-0.54742 1.2813h3.098c1.5789-2.2513 2.9426-4.723 4.5659-6.93 0.90163 2.5638 1.9761 4.9534 2.8273 7.5677 1.7264-0.4317 3.4666-0.8479 4.9208-1.5521-0.41014-0.6842-0.47203-1.7122-0.90835-2.3701-0.68804 0.2846-1.4011 0.5438-2.1897 0.7279-1.474-4.3017-3.2662-8.2832-4.7403-12.585h-4.1989z" style="enable-background:new;fill-opacity:.11765"/>
  <path id="path5509" style="enable-background:new;fill-opacity:.23529" d="m24 1013.4c-8.5052 0-15.4 6.8948-15.4 15.4s6.8948 15.4 15.4 15.4 15.4-6.8948 15.4-15.4-6.8948-15.4-15.4-15.4zm0 3.08c6.8042 0 12.32 5.5158 12.32 12.32 0 6.8041-5.5158 12.32-12.32 12.32s-12.32-5.5159-12.32-12.32c0-6.8042 5.5158-12.32 12.32-12.32zm-3.6575 4.235v2.4664h2.0995c0.20128 0.7107 0.57023 1.2488 0.7279 2.0032-1.7992 3.0709-3.8634 6.4175-5.6547 9.3904-0.23178 0.3846-0.576 0.8484-0.54742 1.2813h3.098c1.5789-2.2513 2.9426-4.723 4.5659-6.93 0.90163 2.5638 1.9761 4.9534 2.8273 7.5677 1.7264-0.4317 3.4666-0.8479 4.9208-1.5521-0.41014-0.6842-0.47203-1.7122-0.90835-2.3701-0.68804 0.2846-1.4011 0.5438-2.1897 0.7279-1.474-4.3017-3.2662-8.2832-4.7403-12.585h-4.1989z"/>
  <path id="path7" d="m24 1013c-8.5052 0-15.4 6.8948-15.4 15.4s6.8948 15.4 15.4 15.4 15.4-6.8948 15.4-15.4-6.8948-15.4-15.4-15.4zm0 3.08c6.8042 0 12.32 5.5158 12.32 12.32 0 6.8041-5.5158 12.32-12.32 12.32s-12.32-5.5159-12.32-12.32c0-6.8042 5.5158-12.32 12.32-12.32zm-3.6575 4.235v2.4664h2.0995c0.20128 0.7107 0.57023 1.2488 0.7279 2.0032-1.7992 3.0709-3.8634 6.4175-5.6547 9.3904-0.23178 0.3846-0.576 0.8484-0.54742 1.2813h3.098c1.5789-2.2513 2.9426-4.723 4.5659-6.93 0.90163 2.5638 1.9761 4.9534 2.8273 7.5677 1.7264-0.4317 3.4666-0.8479 4.9208-1.5521-0.41014-0.6842-0.47203-1.7122-0.90835-2.3701-0.68804 0.2846-1.4011 0.5438-2.1897 0.7279-1.474-4.3017-3.2662-8.2832-4.7403-12.585h-4.1989z" style="enable-background:new;fill:url(#linearGradient5575)"/>
  <path id="path5499" d="m24 10.881c-6.8042 0-12.32 5.5142-12.32 12.318 0 0.13514 0.01521 0.2663 0.01953 0.40039 0.212-6.617 5.631-11.919 12.3-11.919s12.088 5.3027 12.301 11.92c0.0043-0.13409 0.01953-0.26525 0.01953-0.40039 0-6.8042-5.5162-12.318-12.32-12.318zm-3.6582 6.7012v0.79883h2.0996c0.14995 0.52946 0.39289 0.96422 0.57227 1.4629 0.04985-0.08481 0.10679-0.17535 0.15625-0.25977-0.15766-0.7544-0.52724-1.2913-0.72852-2.002h-2.0996zm4.2891 5.7441c-1.6233 2.207-2.9856 4.6784-4.5645 6.9297h-2.8379c-0.15125 0.26365-0.27927 0.53494-0.26172 0.80078h3.0996c1.5789-2.2513 2.9412-4.7227 4.5645-6.9297 0.90163 2.5638 1.9769 4.9521 2.8281 7.5664 1.7264-0.4317 3.4658-0.84658 4.9199-1.5508-0.12104-0.20191-0.20816-0.43624-0.28711-0.67969-1.3951 0.62688-3.0153 1.0272-4.6328 1.4316-0.85119-2.6143-1.9265-5.0046-2.8281-7.5684zm-16.012 0.274c-0.0034 0.134-0.0195 0.265-0.0195 0.4 0 8.5052 6.8952 15.4 15.4 15.4 8.5052 0 15.4-6.8952 15.4-15.4 0-0.13519-0.01607-0.26604-0.01953-0.40039-0.21412 8.3186-7.0107 15-15.381 15-8.3702 0-15.167-6.6814-15.381-15z" style="enable-background:new;fill:#9c580b;fill-opacity:.31373" transform="translate(0 1004.4)"/>
  <path id="path5504" d="m24 8.5996c-8.505 0-15.4 6.8954-15.4 15.4 0 0.06726 0.00891 0.13216 0.00977 0.19922 0.1085-8.411 6.9532-15.199 15.39-15.199 8.4373 0 15.282 6.7878 15.391 15.199 0.00086-0.06706 0.0098-0.13195 0.0098-0.19922-0.001-8.505-6.896-15.4-15.401-15.4zm-3.6582 7.3145v0.40039h4.1992c1.4741 4.3015 3.2663 8.2842 4.7402 12.586 0.78863-0.1841 1.5014-0.44392 2.1895-0.72852 0.3717 0.56046 0.48475 1.3769 0.75977 2.0332 0.048-0.02236 0.10103-0.03954 0.14844-0.0625-0.41014-0.6842-0.47188-1.7132-0.9082-2.3711-0.688 0.285-1.401 0.545-2.19 0.729-1.474-4.302-3.266-8.284-4.74-12.586h-4.1992zm2.75 4.5996c-1.7817 3.0362-3.8093 6.3295-5.5762 9.2617-0.23178 0.3846-0.57741 0.84835-0.54883 1.2812h0.07031c0.10654-0.3076 0.31704-0.61291 0.47852-0.88086 1.7913-2.9729 3.8551-6.3197 5.6543-9.3906-0.02015-0.09641-0.05187-0.18133-0.07813-0.27148zm-11.402 3.6855c-0.0011 0.06764-0.0098 0.13327-0.0098 0.20117 0 6.8041 5.5162 12.32 12.32 12.32 6.8042 0 12.32-5.5162 12.32-12.32 0-0.0679-0.0087-0.13353-0.0098-0.20117-0.107 6.71-5.573 12.12-12.31 12.12-6.7369 0-12.203-5.4099-12.311-12.121z" style="enable-background:new;fill:#fff;fill-opacity:.23529" transform="translate(0 1004.4)"/>
 </g>
</svg>
