<?xml version="1.0" encoding="UTF-8" standalone="no"?>
<!-- Created with Inkscape (http://www.inkscape.org/) -->
<svg id="svg3449" xmlns:rdf="http://www.w3.org/1999/02/22-rdf-syntax-ns#" xmlns="http://www.w3.org/2000/svg" height="128" width="128" version="1.0" xmlns:cc="http://creativecommons.org/ns#" xmlns:xlink="http://www.w3.org/1999/xlink" xmlns:dc="http://purl.org/dc/elements/1.1/">
 <metadata id="metadata56">
  <rdf:RDF>
   <cc:Work rdf:about="">
    <dc:format>image/svg+xml</dc:format>
    <dc:type rdf:resource="http://purl.org/dc/dcmitype/StillImage"/>
    <dc:title/>
   </cc:Work>
  </rdf:RDF>
 </metadata>
 <defs id="defs3451">
  <linearGradient id="linearGradient3514" y2="-9.1034" gradientUnits="userSpaceOnUse" x2="66.492" gradientTransform="matrix(.96826 0 0 .97948 2.179 .16587)" y1="-42.638" x1="67.952">
   <stop id="stop4620" style="stop-color:#37414b" offset="0"/>
   <stop id="stop4622" style="stop-color:#37414b;stop-opacity:0" offset="1"/>
  </linearGradient>
  <linearGradient id="linearGradient3516" y2="-11.847" gradientUnits="userSpaceOnUse" x2="58.98" gradientTransform="matrix(.96826 0 0 .97948 2.179 .16587)" y1="-118.55" x1="57.173">
   <stop id="stop4596" offset="0"/>
   <stop id="stop4598" style="stop-opacity:0" offset="1"/>
  </linearGradient>
  <linearGradient id="linearGradient3519" y2="50.369" gradientUnits="userSpaceOnUse" x2="76.558" gradientTransform="matrix(.96826 0 0 .97948 3.2423 -129.19)" y1="13.164" x1="76.558">
   <stop id="stop3392" style="stop-color:#425e7b" offset="0"/>
   <stop id="stop3394" style="stop-color:#7a91a7" offset="1"/>
  </linearGradient>
  <linearGradient id="linearGradient3521" y2="-8.7399" gradientUnits="userSpaceOnUse" x2="60.217" gradientTransform="matrix(.96826 0 0 .97948 2.179 .16587)" y1="-123.72" x1="60.395">
   <stop id="stop3392-4-8" style="stop-color:#425e7b" offset="0"/>
   <stop id="stop3394-8-0" style="stop-color:#7a91a7" offset="1"/>
  </linearGradient>
  <radialGradient id="radialGradient3349" gradientUnits="userSpaceOnUse" cy="45.647" cx="42.148" gradientTransform="matrix(.94690 0 0 1.139 3.5954 -29.89)" r="58.984">
   <stop id="stop41141" style="stop-color:#a1badf" offset="0"/>
   <stop id="stop41143" style="stop-color:#658fc6" offset="1"/>
  </radialGradient>
  <filter id="filter3174" color-interpolation-filters="sRGB">
   <feGaussianBlur id="feGaussianBlur3176" stdDeviation="1.71"/>
  </filter>
  <linearGradient id="ButtonShadow-9" x1="45.448" gradientUnits="userSpaceOnUse" y1="92.54" gradientTransform="scale(1.0059 .99417)" x2="45.448" y2="7.0165">
   <stop id="stop3750-4" offset="0"/>
   <stop id="stop3752-0" style="stop-opacity:.58824" offset="1"/>
  </linearGradient>
  <linearGradient id="linearGradient3811-7">
   <stop id="stop3813-4" style="stop-color:#fff" offset="0"/>
   <stop id="stop3815-4" style="stop-color:#fff;stop-opacity:0" offset="1"/>
  </linearGradient>
  <filter id="filter3174-4" color-interpolation-filters="sRGB">
   <feGaussianBlur id="feGaussianBlur3176-3" stdDeviation="1.71"/>
  </filter>
  <linearGradient id="linearGradient41642" y2="80" gradientUnits="userSpaceOnUse" x2="40" gradientTransform="translate(8.8955 28.585)" y1="32" x1="40">
   <stop id="stop4014-3" style="stop-color:#f5f5f5" offset="0"/>
   <stop id="stop4016" style="stop-color:#d7d7d7" offset="1"/>
  </linearGradient>
  <linearGradient id="linearGradient41668" y2="38.001" gradientUnits="userSpaceOnUse" x2="67" y1="38.001" x1="59">
   <stop id="stop4093" offset="0"/>
   <stop id="stop4095" style="stop-opacity:0" offset="1"/>
  </linearGradient>
  <linearGradient id="linearGradient41670" y2="13.593" gradientUnits="userSpaceOnUse" x2="56.037" y1="49.333" x1="56.037">
   <stop id="stop3801-3" style="stop-color:#1a1a1a" offset="0"/>
   <stop id="stop3803-2" offset="1"/>
  </linearGradient>
  <radialGradient id="radialGradient41672" gradientUnits="userSpaceOnUse" cy="69.609" cx="49.171" gradientTransform="matrix(.85252 .16517 -.12915 .69789 15.599 11.45)" r="10">
   <stop id="stop3786-4" style="stop-color:#828282" offset="0"/>
   <stop id="stop3790-2" style="stop-color:#1a1a1a" offset="1"/>
  </radialGradient>
  <linearGradient id="linearGradient41674" y2="72.839" gradientUnits="userSpaceOnUse" x2="50.134" y1="55.024" x1="49.659">
   <stop id="stop3771-7" style="stop-color:#fff" offset="0"/>
   <stop id="stop3773-8" style="stop-color:#fff;stop-opacity:0" offset="1"/>
  </linearGradient>
  <radialGradient id="radialGradient41676" xlink:href="#linearGradient3811-7" gradientUnits="userSpaceOnUse" cy="36" cx="55.5" gradientTransform="matrix(1,0,0,26,1,-900)"/>
  <linearGradient id="linearGradient41678" y2="19" xlink:href="#linearGradient3811-7" gradientUnits="userSpaceOnUse" x2="57" gradientTransform="translate(1)" y1="35" x1="67"/>
 </defs>
 <rect id="rect892-2-7-2" ry="29.452" style="stroke:#d3d3d3;stroke-width:9.8448;fill:#37414b" transform="scale(1,-1)" height="116.16" width="116.08" y="-122.08" x="5.9224"/>
 <rect id="rect892" style="stroke:url(#linearGradient3521);stroke-width:.97385;fill:url(#linearGradient3519)" transform="scale(1,-1)" ry="29.296" height="115.54" width="114.22" y="-122.25" x="7.0394"/>
 <rect id="rect892-2" style="stroke:url(#linearGradient3516);stroke-width:.97385;fill:url(#linearGradient3514)" transform="scale(1,-1)" ry="28.993" height="114.35" width="114.22" y="-121.46" x="7.0599"/>
 <path id="rect895" style="fill:url(#radialGradient3349)" d="m33.051 7.2596c-7.969-2.4493-27.013 15.174-25.653 23.038-0.050142 0.97378-0.088772 1.9648-0.088772 2.9572v52.419c0 20.876 10.712 33.859 22.318 33.859h67.038c12.638 0 24.318-11.245 24.318-25.859v-64.017c0.7-10.928-21.283-24.659-25.926-22.618-47.846 0.8653-18.017 0.2236-62.003 0.2236z"/>
 <rect id="rect892-2-7-8" style="opacity:.15891;stroke:#000;stroke-width:4.8445;fill:none" transform="scale(1,-1)" ry="28.993" height="114.35" width="114.22" y="-121.16" x="6.8687"/>
 <rect id="rect892-2-7-1" style="opacity:.15891;stroke:#000;stroke-width:7.7512;fill:none" transform="scale(1,-1)" ry="28.993" height="114.35" width="114.22" y="-121.16" x="6.8687"/>
 <rect id="rect892-2-7-2-9" ry="28.067" style="stroke:#000;stroke-width:1.0489;fill:none" transform="scale(1,-1)" height="112.71" width="114.14" y="-120.31" x="7.0649"/>
 <g id="layer2" style="display:none" transform="translate(-32.001 148.11)">
  <rect id="rect3745" style="opacity:.9;filter:url(#filter3174);fill:url(#ButtonShadow-9)" rx="6" ry="6" height="85" width="86" y="7" x="5"/>
 </g>
 <g id="layer2-7" style="display:none" transform="translate(-47.287 228.14)">
  <rect id="rect3745-3" style="opacity:.9;filter:url(#filter3174-4);fill:url(#ButtonShadow-9)" rx="6" ry="6" height="85" width="86" y="7" x="5"/>
 </g>
 <g id="g4056" transform="translate(23.791 6.6246)">
  <path id="path3965" d="m54.031 10.031a0.97502 0.97502 0 0 0 -0.843 0.969v37.594c-2.7982-0.86869-6.1404-0.70235-9.2812 0.71875-2.7501 1.2443-4.8116 3.1805-5.9375 5.4062-1.1259 2.2258-1.2739 4.7857-0.09375 6.9688 1.1804 2.1836 3.4035 3.5497 5.9688 4.0625 2.5653 0.51285 5.5018 0.18098 8.25-1.0625 4.1552-1.8801 6.6935-5.394 6.75-8.9688a0.97502 0.97502 0 0 0 0.031 -0.031c0.000115-0.01036-0.000071-0.02089 0-0.03125a0.97502 0.97502 0 0 0 0.09375 -0.4375v-30.781c1.6321 1.5251 3.583 3.6988 5.1562 6.7812 2.0732 4.0622 3.2773 9.138 1.6562 14.688a0.98338 0.98338 0 0 0 1.875 0.592c2.073-6.082 2.26-12.283 1.344-15.969-1.17-4.708-4.933-9.229-8.75-13.312-3.9184-4.1911-5.2188-6.6875-5.2188-6.6875a0.97502 0.97502 0 0 0 -1 -0.5z" style="opacity:.1;fill:url(#linearGradient41668)"/>
  <path id="path3841" d="m54.156 11v38.938c-2.703-1.284-6.4227-1.2979-9.8438 0.25-5.1341 2.323-7.6251 7.2737-5.5938 11.031 2.0314 3.7576 7.8346 4.9168 12.969 2.5938 4.1074-1.8584 6.5132-5.3961 6.2812-8.6562 0.0068 0.02146 0.02494 0.04104 0.03125 0.0625l0.001-33.031c3.6103 2.5751 12.124 12.341 8.7188 24 2.012-5.904 2.186-12.018 1.343-15.407-1.084-4.361-4.745-8.857-8.531-12.906-3.977-4.254-5.375-6.875-5.375-6.875z" style="opacity:.3"/>
  <path id="path3261" d="m54.156 10v39.438c1.3216 0.82593 2.4028 1.9142 3.125 3.25 0.26664 0.49324 0.56622 1.0127 0.71875 1.5312v-33.031c3.7268 2.6581 12.671 12.968 8.3438 25.125 2.396-6.238 2.614-12.927 1.718-16.532-1.084-4.361-4.745-8.857-8.531-12.906-3.977-4.254-5.375-6.875-5.375-6.875z" style="fill:url(#linearGradient41670)"/>
  <path id="path3688" d="m60 63a10 8 0 1 1 -20 0 10 8 0 1 1 20 0z" style="color:#000000;fill:url(#radialGradient41672)" transform="matrix(.92961 -.42062 .45976 .85046 -27.446 23.452)"/>
  <path id="path3777" d="m49.188 48c-1.6003 0.07229-3.2706 0.46156-4.875 1.1875-5.1341 2.323-7.6251 7.2737-5.5938 11.031 2.0314 3.7576 7.8346 4.9168 12.969 2.5938 5.1341-2.323 7.6251-7.2737 5.5938-11.031-1.397-2.583-4.574-3.94-8.094-3.781zm0.03125 0.9375c3.1801-0.15006 5.9974 1.0485 7.1875 3.25 1.7311 3.2021-0.44196 7.6341-5.1875 9.7812-4.7455 2.1472-9.8939 1.0459-11.625-2.1562s0.44196-7.6341 5.1875-9.7812c1.483-0.671 2.992-1.0255 4.4375-1.0938z" style="color:#000000;fill:#1a1a1a"/>
  <path id="path3765" d="m60 63a10 8 0 1 1 -20 0 10 8 0 1 1 20 0z" style="opacity:.8;color:#000000;fill:url(#linearGradient41674)" transform="matrix(0.6 -.27148 .29674 .54891 -1.9918 33.113)"/>
  <path id="path3794" d="m56.844 54c-0.20231 2.5957-2.2271 5.3547-5.6562 6.9062-4.7034 2.1281-9.8015 0.98569-11.5-2.1562-0.29795-0.55115-0.46132-1.141-0.53125-1.75-0.07518 0.96458 0.07107 1.8988 0.53125 2.75 1.6985 3.1419 6.7966 4.2844 11.5 2.1562 3.878-1.755 5.984-5.043 5.656-7.906z" style="opacity:.2;color:#000000;fill:#fff"/>
  <rect id="rect3809" style="opacity:.2;color:#000000;fill:url(#radialGradient41676)" rx="6" ry="6" height="26" width="1" y="23" x="56"/>
  <path id="path3821" d="m56.25 13.406v5.5312s2.3851 0.38512 3.375 1.375c2.07 1.4764 5.2782 4.7882 7.5312 9.4062 0.46361 0.95028 0.86398 1.9755 1.2188 3.0312-0.069-1.022-0.193-1.987-0.375-2.718-0.988-3.974-4.5-8.395-8.25-12.406-1.642-1.757-2.627-3.054-3.5-4.219z" style="opacity:.3;fill:url(#linearGradient41678)"/>
 </g>
 <path id="path4067" style="opacity:.05;color:#000000" d="m56.864 56.523c-11.678-0.16766-22.859 7.4723-26.906 18.438-0.0033 0.0089 0.0033 0.02235 0 0.03125-1.842 4.7591-2.3243 9.995-1.5312 15.031-0.45495 0.11261-0.85196 0.22545-1.4375 0.375-0.89025 0.22737-1.9665 0.61661-2.6562 1.625a1.0932 1.0932 0 0 0 -0.03125 0.0625c-0.60645 1.0362-0.45302 2.2689 0.0625 3.0938 0.48604 0.77771 1.223 1.3007 1.9688 1.6562l-0.03125 0.03125c3.5648 2.2539 7.0928 4.6859 10.781 6.875a1.0932 1.0932 0 0 0 0.25 0.0937c1.0184 0.31846 2.0411 0.0482 2.75-0.5 0.65828-0.50905 1.0574-1.2285 1.3125-1.9688l0.03125 0.0313c1.8991-3.8406 4.0247-7.6631 5.8438-11.625a1.0932 1.0932 0 0 0 0.0625 -0.21875c0.28104-1.2706-0.33909-2.4705-1.25-3.0938-0.9029-0.61777-2.1507-0.79948-3.25-0.25-0.0098 0.0049-0.02151-0.005-0.03125 0-0.58756 0.25404-0.83108 0.19664-0.78125 0.25-0.01167-0.1323-0.01836-0.33778 0.0625-0.71875a1.0932 1.0932 0 0 0 0.03125 -0.25c-0.15976-6.8216 5.1435-13.38 11.875-14.562a1.0932 1.0932 0 0 0 0.21875 -0.03125c0.3918-0.1551 1.3003-0.12711 2.3438-0.1875 0.52174-0.03019 1.1128-0.11083 1.6875-0.375 0.57471-0.26417 1.1199-0.76118 1.4375-1.4375a1.0932 1.0932 0 0 0 0.0625 -0.1875c0.54152-1.9324 0.11019-3.7455 0.21875-5.1562a1.0932 1.0932 0 0 0 0 -0.1875c-0.11422-1.342 0.3478-3.1421-0.28125-5.0625a1.0932 1.0932 0 0 0 -0.0625 -0.15625c-0.52576-0.99751-1.5505-1.6327-2.6875-1.625-0.02096 0.000142-0.04147-0.000574-0.0625 0zm21.562 16a1.0932 1.0932 0 0 0 -0.15625 0.0625c-1.0691 0.33504-1.8069 1.0557-2.375 1.7188-0.56812 0.66307-1.0206 1.2903-1.4688 1.6875a1.0932 1.0932 0 0 0 -0.09375 0.09375c-2.2856 2.6132-4.8092 5.148-7.0625 7.9375a1.0932 1.0932 0 0 0 -0.125 0.1875c-1.1955 2.2412 0.93354 4.8468 3.3438 4.4062v0.03125c0.53186-0.05097 0.75848-0.03895 0.96875-0.03125-0.0352 0.09869-0.0074 0.05958-0.09375 0.21875a1.0932 1.0932 0 0 0 -0.09375 0.3125c-1.4858 6.7903-8.4056 11.961-15.344 11.344a1.0932 1.0932 0 0 0 -0.0625 0c-2.4235-0.0652-4.7759-1.0675-7.125-2.2188a1.0932 1.0932 0 0 0 -0.25 -0.0937c-1.2089-0.24726-2.2932 0.35854-2.9062 1.0625-0.61304 0.70396-0.98587 1.4864-1.2812 2.0313-1.0315 1.916-2.3632 3.8498-3.3438 6.0312a1.0932 1.0932 0 0 0 -0.0625 0.25c-0.12572 0.7099-0.02335 1.4168 0.28125 1.9688 0.3046 0.55199 0.74212 0.93997 1.1875 1.25 0.89076 0.62006 1.908 0.95861 2.5 1.25a1.0932 1.0932 0 0 0 0 0.0313c10.818 5.0716 24.53 2.5471 32.719-6.2188 0.0056-0.006-0.0056-0.0254 0-0.0313 4.4838-4.628 7.2952-10.753 7.9688-17.156 0.44352 0.01148 0.85087 0.01704 1.4062 0.03125 0.87616 0.02242 1.9298-0.03659 2.875-0.6875a1.0932 1.0932 0 0 0 0.09375 -0.09375c0.89862-0.77493 1.1472-1.9403 0.9375-2.9062-0.19489-0.89787-0.72103-1.6523-1.4062-2.2188l0.03125-0.03125c-2.8778-3.13-5.6807-6.4296-8.6875-9.5312a1.0932 1.0932 0 0 0 -0.125 -0.125c-0.72121-0.55556-1.5514-0.58863-2.1562-0.5625a1.0932 1.0932 0 0 0 -0.09375 0z"/>
 <path id="path4069" d="m56.895 57.616c-11.218-0.18779-22.03 7.2078-25.906 17.744-1.8999 4.8932-2.3787 10.323-1.3751 15.474-1.437 0.60333-3.4185 0.41427-4.375 1.8125-0.80952 1.3832 0.43854 2.735 1.6626 3.2773 3.5917 2.2709 7.1004 4.7167 10.744 6.8789 1.3429 0.41993 2.4475-0.7146 2.8101-1.916 1.9137-3.8702 4.0184-7.6714 5.8149-11.584 0.36224-1.6378-1.5476-2.8474-2.9659-2.1198-1.6836 0.78442-2.7384 0.48952-2.2837-1.6529-0.17317-7.3942 5.4753-14.375 12.778-15.657 1.5404-0.6098 4.0143 0.39525 4.8784-1.4449 0.44035-1.5714 0.06148-3.3179 0.1875-4.9555-0.13575-1.595 0.27955-3.3045-0.21875-4.8258-0.33232-0.63051-1.0355-1.0507-1.75-1.0312zm21.688 16c-1.5483 0.48523-2.2868 2.1664-3.4524 3.1995-2.3162 2.6482-4.8105 5.1635-7.0164 7.8942-0.78099 1.4641 0.71626 3.2238 2.2952 2.8438 1.5184-0.14552 3.0271-0.18919 1.936 1.8221-1.6101 7.3581-8.9737 12.877-16.503 12.207-2.7038-0.0727-5.198-1.1781-7.5715-2.3413-1.6324-0.33389-2.3668 1.3951-3.0038 2.5701-1.0717 1.9907-2.3846 3.874-3.3087 5.9299-0.34773 1.9636 2.0187 2.6463 3.3885 3.3205 10.374 4.8636 23.62 2.4299 31.459-5.977 4.551-4.6892 7.3664-11.012 7.8089-17.531 1.514-0.18706 3.2681 0.44414 4.5938-0.46875 1.2016-1.0362 0.57842-2.7744-0.5314-3.6078-2.8999-3.154-5.6857-6.453-8.6561-9.5172-0.41537-0.31997-0.9299-0.36568-1.4375-0.34375z" style="opacity:.1;color:#000000"/>
 <path id="path4071" style="opacity:.15;color:#000000" d="m56.895 58.523c-2.3479 0.0036-4.7029 0.29075-7 0.90625-14.067 3.7693-22.49 18.011-19.312 32.094l-3.9062 1.0625a1.0555 1.0555 0 0 0 -0.28125 1.9062l11.281 7.3125a1.0555 1.0555 0 0 0 1.5 -0.40625l6.0938-11.969a1.0555 1.0555 0 0 0 -1.2188 -1.5l-3.6875 0.96875c-1.7476-8.7008 3.4608-17.326 12.156-19.656 1.4411-0.38614 2.9049-0.59255 4.375-0.59375a1.0555 1.0555 0 0 0 1.0625 -1.0625v-8a1.0555 1.0555 0 0 0 -1.0625 -1.0625zm21.938 16a1.0555 1.0555 0 0 0 -0.71875 0.34375l-9 10a1.0555 1.0555 0 0 0 0.78125 1.7812h3.8438c-0.55848 8.8629-7.8379 15.875-16.844 15.875-2.9756 0-5.8937-0.76328-8.4688-2.25a1.0555 1.0555 0 0 0 -1.4375 0.375l-4 6.9375a1.0555 1.0555 0 0 0 0.375 1.4375c4.1146 2.3756 8.7843 3.625 13.531 3.625 14.565 0 26.364-11.575 26.938-26h4.0625a1.0555 1.0555 0 0 0 0.78125 -1.7812l-9-10a1.0555 1.0555 0 0 0 -0.84375 -0.34375z"/>
 <path id="path4073" d="m56.895 59.585c-2.2616 0.0035-4.5145 0.28438-6.7188 0.875-13.87 3.7165-22.123 17.974-18.406 31.844l-4.8125 1.3125 11.281 7.3125 6.0938-11.969-4.8125 1.2812c-2.573-9.6024 3.1164-19.458 12.719-22.031 1.526-0.40889 3.0902-0.62372 4.6562-0.625v-8zm22 16-9 10h5c0 9.9411-8.0589 18-18 18-3.1597 0-6.2637-0.82642-9-2.4062l-4 6.9375c3.9525 2.282 8.436 3.4688 13 3.4688 14.359 0 26-11.641 26-26h5l-9-10z" style="opacity:.3;color:#000000"/>
 <path id="path4075" d="m56.895 58.585c-2.2616 0.0035-4.5145 0.28438-6.7188 0.875-13.87 3.7165-22.123 17.974-18.406 31.844l-4.8125 1.3125 11.281 7.3125 6.0938-11.969-4.8125 1.2812c-2.573-9.6024 3.1164-19.458 12.719-22.031 1.526-0.40889 3.0902-0.62372 4.6562-0.625v-8zm22 16-9 10h5c0 9.9411-8.0589 18-18 18-3.1597 0-6.2637-0.82642-9-2.4062l-4 6.9375c3.9525 2.282 8.436 3.4688 13 3.4688 14.359 0 26-11.641 26-26h5l-9-10z" style="color:#000000;fill:url(#linearGradient41642)"/>
 <path id="path4077" d="m56.895 58.585c-2.2616 0.0035-4.5145 0.28438-6.7188 0.875-11.608 3.1103-19.265 13.592-19.281 25.062 0.44576-11.075 8.0118-21.043 19.281-24.062 2.2042-0.59062 4.4572-0.8715 6.7188-0.875v-1zm22 16-9 10h0.90625l8.0938-9 8.0938 9h0.90625l-9-10zm-4.0625 11c-0.52128 9.4737-8.3336 17-17.938 17-3.1597 0-6.2637-0.82642-9-2.4062l-4 6.9375c0.1459 0.0842 0.29018 0.16876 0.4375 0.25l3.5625-6.1875c2.7363 1.5798 5.8403 2.4062 9 2.4062 9.9411 0 18-8.0589 18-18h-0.0625zm-35.906 0.0625c0.0063 1.5193 0.18185 3.0565 0.59375 4.5938l4.2188-1.125 0.59375-1.1562-4.8125 1.2812c-0.321-1.201-0.521-2.401-0.593-3.594zm-7.375 5.7188-4.5938 1.25 1.0938 0.71875 3.7188-1.0312c-0.08287-0.30927-0.14771-0.62797-0.21875-0.9375z" style="color:#000000;fill:#fff"/>
 <path id="path4079" d="m56.895 65.585c-1.566 0.0013-3.1303 0.21611-4.6562 0.625-8.1389 2.1808-13.444 9.6003-13.312 17.656 0.30265-7.6639 5.5106-14.566 13.312-16.656 1.526-0.40889 3.0902-0.62372 4.6562-0.625v-1zm13.906 18-0.90625 1h4.9375c0.0183-0.33262 0.0625-0.66281 0.0625-1h-4.0938zm12.094 0c0 14.359-11.641 26-26 26-4.3955 0-8.7187-1.099-12.562-3.2188l-0.4375 0.75c3.9525 2.282 8.436 3.4688 13 3.4688 14.359 0 26-11.641 26-26h5l-0.90625-1h-4.0938zm-52 0.21875c-0.06341 2.1619 0.15179 4.3644 0.65625 6.5625l0.21875-0.0625c-0.5807-2.1672-0.8545-4.3556-0.875-6.5zm13.438 4.1562-0.59375 0.15625-5.5 10.812-10.188-6.5937-1.0938 0.28125 11.281 7.3125 6.0938-11.969z" style="opacity:.15;color:#000000"/>
</svg>
