<?xml version="1.0" encoding="UTF-8" standalone="no"?>
<!-- Created with Inkscape (http://www.inkscape.org/) -->
<svg id="svg3449" xmlns:rdf="http://www.w3.org/1999/02/22-rdf-syntax-ns#" xmlns="http://www.w3.org/2000/svg" height="128" width="128" version="1.0" xmlns:cc="http://creativecommons.org/ns#" xmlns:xlink="http://www.w3.org/1999/xlink" xmlns:dc="http://purl.org/dc/elements/1.1/">
 <metadata id="metadata56">
  <rdf:RDF>
   <cc:Work rdf:about="">
    <dc:format>image/svg+xml</dc:format>
    <dc:type rdf:resource="http://purl.org/dc/dcmitype/StillImage"/>
    <dc:title/>
   </cc:Work>
  </rdf:RDF>
 </metadata>
 <defs id="defs3451">
  <linearGradient id="linearGradient3514" y2="-9.1034" gradientUnits="userSpaceOnUse" x2="66.492" gradientTransform="matrix(.96826 0 0 .97948 2.179 .16587)" y1="-42.638" x1="67.952">
   <stop id="stop4620" style="stop-color:#37414b" offset="0"/>
   <stop id="stop4622" style="stop-color:#37414b;stop-opacity:0" offset="1"/>
  </linearGradient>
  <linearGradient id="linearGradient3516" y2="-11.847" gradientUnits="userSpaceOnUse" x2="58.98" gradientTransform="matrix(.96826 0 0 .97948 2.179 .16587)" y1="-118.55" x1="57.173">
   <stop id="stop4596" offset="0"/>
   <stop id="stop4598" style="stop-opacity:0" offset="1"/>
  </linearGradient>
  <linearGradient id="linearGradient3519" y2="50.369" gradientUnits="userSpaceOnUse" x2="76.558" gradientTransform="matrix(.96826 0 0 .97948 3.2423 -129.19)" y1="13.164" x1="76.558">
   <stop id="stop3392" style="stop-color:#425e7b" offset="0"/>
   <stop id="stop3394" style="stop-color:#7a91a7" offset="1"/>
  </linearGradient>
  <linearGradient id="linearGradient3521" y2="-8.7399" gradientUnits="userSpaceOnUse" x2="60.217" gradientTransform="matrix(.96826 0 0 .97948 2.179 .16587)" y1="-123.72" x1="60.395">
   <stop id="stop3392-4-8" style="stop-color:#425e7b" offset="0"/>
   <stop id="stop3394-8-0" style="stop-color:#7a91a7" offset="1"/>
  </linearGradient>
  <radialGradient id="radialGradient3349" gradientUnits="userSpaceOnUse" cy="45.647" cx="42.148" gradientTransform="matrix(.94690 0 0 1.139 3.5954 -29.89)" r="58.984">
   <stop id="stop3955" style="stop-color:#9cbbd9" offset="0"/>
   <stop id="stop3957" style="stop-color:#0080bc" offset="1"/>
  </radialGradient>
  <filter id="filter3174" color-interpolation-filters="sRGB">
   <feGaussianBlur id="feGaussianBlur3176" stdDeviation="1.71"/>
  </filter>
  <linearGradient id="ButtonShadow-1" x1="45.448" gradientUnits="userSpaceOnUse" y1="92.54" gradientTransform="scale(1.0059 .99417)" x2="45.448" y2="7.0165">
   <stop id="stop3750-0" offset="0"/>
   <stop id="stop3752-4" style="stop-opacity:.58824" offset="1"/>
  </linearGradient>
  <filter id="filter3174-8" color-interpolation-filters="sRGB">
   <feGaussianBlur id="feGaussianBlur3176-9" stdDeviation="1.71"/>
  </filter>
  <linearGradient id="ButtonShadow-3" y2="7.0165" gradientUnits="userSpaceOnUse" x2="45.448" gradientTransform="matrix(1.0059 0 0 .99417 119.23 972.7)" y1="92.54" x1="45.448">
   <stop id="stop3750-1" offset="0"/>
   <stop id="stop3752-0" style="stop-opacity:.58824" offset="1"/>
  </linearGradient>
  <linearGradient id="linearGradient4586" y2="508.42" gradientUnits="userSpaceOnUse" x2="417.75" gradientTransform="matrix(2.6667 0 0 2.6667 -1028.2 -1325.2)" y1="539.17" x1="417.75">
   <stop id="stop4126" style="stop-color:#bae9fe" offset="0"/>
   <stop id="stop4128" style="stop-color:#f5fcff" offset="1"/>
  </linearGradient>
 </defs>
 <rect id="rect892-2-7-2" ry="29.452" style="stroke:#d3d3d3;stroke-width:9.8448;fill:#37414b" transform="scale(1,-1)" height="116.16" width="116.08" y="-122.08" x="5.9224"/>
 <rect id="rect892" style="stroke:url(#linearGradient3521);stroke-width:.97385;fill:url(#linearGradient3519)" transform="scale(1,-1)" ry="29.296" height="115.54" width="114.22" y="-122.25" x="7.0394"/>
 <rect id="rect892-2" style="stroke:url(#linearGradient3516);stroke-width:.97385;fill:url(#linearGradient3514)" transform="scale(1,-1)" ry="28.993" height="114.35" width="114.22" y="-121.46" x="7.0599"/>
 <path id="rect895" style="fill:url(#radialGradient3349)" d="m33.051 7.2596c-7.969-2.4493-27.013 15.174-25.653 23.038-0.050142 0.97378-0.088772 1.9648-0.088772 2.9572v52.419c0 20.876 10.712 33.859 22.318 33.859h67.038c12.638 0 24.318-11.245 24.318-25.859v-64.017c0.7-10.928-21.283-24.659-25.926-22.618-47.846 0.8653-18.017 0.2236-62.003 0.2236z"/>
 <rect id="rect892-2-7-8" style="opacity:.15891;stroke:#000;stroke-width:4.8445;fill:none" transform="scale(1,-1)" ry="28.993" height="114.35" width="114.22" y="-121.16" x="6.8687"/>
 <rect id="rect892-2-7-1" style="opacity:.15891;stroke:#000;stroke-width:7.7512;fill:none" transform="scale(1,-1)" ry="28.993" height="114.35" width="114.22" y="-121.16" x="6.8687"/>
 <rect id="rect892-2-7-2-9" ry="28.067" style="stroke:#000;stroke-width:1.0489;fill:none" transform="scale(1,-1)" height="112.71" width="114.14" y="-120.31" x="7.0649"/>
 <path id="path1187" style="fill:#fff;fill-opacity:.057143" d="m33.017 7.2319c-23.707 0-26.027 0.6738-25.93 26.295-0.04334 0.71563-0.07674 1.4439-0.07674 2.1732v32.76c18.67-38.321 38.34-51.497 90.374-61.179-0.225-0.026-0.46-0.0303-0.691-0.0303-41.576 0.3874-25.652-0.0188-63.676-0.0188z"/>
 <g id="layer2" style="display:none" transform="translate(148.5 -54.67)">
  <rect id="rect3745" style="opacity:.9;filter:url(#filter3174);fill:url(#ButtonShadow-1)" rx="6" ry="6" height="85" width="86" y="7" x="5"/>
 </g>
 <rect id="rect3745-0" style="opacity:.9;filter:url(#filter3174-8);display:none;fill:url(#ButtonShadow-3)" transform="matrix(2.6667 0 0 2.6667 -191.7 -2715.6)" rx="6" ry="6" height="85" width="86" y="979.7" x="124.23"/>
 <g id="g4578" transform="translate(2.623 -9.2444)">
  <path id="path4136" style="fill-opacity:.058824" d="m63.973 33.788c-0.90917-0.02747-1.8211 0.1368-2.7357 0.1368-2.8883 8.2691-5.8839 16.499-8.7951 24.759 2.1168 0.02747 4.2364-0.02747 6.3522 0.02747 1.5472 0.05467 3.1684 0.70635 4.0225 2.0588 0.97763 1.5277 0.92285 3.4873 0.30669 5.144-2.8789 8.0983-5.7842 16.188-8.656 24.291-2.5413 0.02747-5.0829-0.0053-7.6247 0.01867-0.35325-0.008-0.72296 0.02747-1.0598-0.1096 3.2275-8.9007 6.3823-17.834 9.563-26.751-1.5171-0.024-3.0326 0.01067-4.5491-0.016-0.2464 0.48456-0.39981 0.99653-0.57509 1.5058-2.9255 8.227-5.8787 16.447-8.7949 24.678-0.1368 0.21893-0.1096 0.67075-0.43266 0.67349-2.4208 0.008-4.8427-0.008-7.2627 0.0027-0.43542-0.0027-0.87904 0.05467-1.3035-0.08213 6.64-18.415 13.127-36.881 19.77-55.294-12.976 2.775-24.14 12.481-28.963 24.81-1.9772 4.8809-2.8373 10.154-2.9474 15.403 0.1368 2.5187 0.31218 5.0451 0.79962 7.5277 1.5609 8.2667 5.7812 16.001 11.86 21.816 5.0459 4.8765 11.376 8.4052 18.168 10.167 6.6118-18.485 13.187-36.986 19.773-55.48 0.05467-0.1368 0.19173-0.40245 0.27387-0.53659 4.0652 0.02747 8.1319 0.008 12.2 0.01867 1.3337 0.024 2.7029-0.1368 4.0006 0.27651 1.4925 0.40245 2.8839 1.4784 3.3426 2.9978 0.33957 1.1991 0.1096 2.4722-0.32315 3.6158-2.5961 7.5765-5.3436 15.098-8.0234 22.642-0.66544 1.9657-2.6645 3.1983-4.6883 3.2686-3.1687 0.05467-6.3393-0.02133-9.5082 0.02747-2.9115 8.11-5.7957 16.229-8.6815 24.346 0.75309 0.32032 1.5555 0.0821 2.3414 0.1368 1.183 0.0821 2.3578-0.1368 3.5365-0.21893 7.7282-0.70909 15.22-3.7009 21.324-8.4857 4.8986-3.8186 8.9192-8.7608 11.637-14.346 2.3825-4.8061 3.7191-10.099 4.103-15.436-0.19173-1.8535-0.1368-3.7247-0.0275-5.5826-0.53-7.021-2.855-13.909-6.779-19.759-3.848-5.751-9.151-10.55-15.316-13.706-4.765-2.508-10.046-3.982-15.403-4.457-0.30123-0.05467-0.60795-0.08213-0.91192-0.1096zm14.617 29.504c-0.19173-0.0014-0.35872 0.02667-0.48741 0.16427-2.7779 7.7588-5.5303 15.529-8.3086 23.285 1.5226 0.008 3.0573 0.08213 4.5785-0.02747 2.6919-7.8242 5.558-15.587 8.294-23.395-1.1748-0.02667-2.3496 0.0027-3.5252-0.01867-0.16427 0.024-0.36696-0.0053-0.5532-0.008z"/>
  <path id="path4134-9" d="m63.973 32.722c-0.90917-0.02747-1.8211 0.1368-2.7357 0.1368-2.8883 8.2691-5.8839 16.499-8.7951 24.759 2.1168 0.02747 4.2364-0.02747 6.3522 0.02747 1.5472 0.05467 3.1684 0.70635 4.0225 2.0588 0.97763 1.5277 0.92285 3.4873 0.30669 5.144-2.8789 8.0983-5.7842 16.188-8.656 24.291-2.5413 0.02747-5.0829-0.0053-7.6247 0.01867-0.35325-0.008-0.72296 0.02747-1.0598-0.1096 3.2275-8.9007 6.3823-17.834 9.563-26.751-1.5171-0.024-3.0326 0.01067-4.5491-0.016-0.2464 0.48456-0.39981 0.99653-0.57509 1.5058-2.9255 8.227-5.8787 16.447-8.7949 24.678-0.1368 0.21893-0.1096 0.67075-0.43266 0.67349-2.4208 0.008-4.8427-0.008-7.2627 0.0027-0.43542-0.0027-0.87904 0.05467-1.3035-0.08213 6.64-18.415 13.127-36.881 19.77-55.294-12.976 2.775-24.14 12.481-28.963 24.81-1.9772 4.8809-2.8373 10.154-2.9474 15.403 0.1368 2.5187 0.31218 5.0451 0.79962 7.5277 1.5609 8.2667 5.7812 16.001 11.86 21.816 5.0459 4.8765 11.376 8.4052 18.168 10.167 6.6118-18.485 13.187-36.986 19.773-55.48 0.05467-0.1368 0.19173-0.40245 0.27387-0.53659 4.0652 0.02747 8.1319 0.008 12.2 0.01867 1.3337 0.024 2.7029-0.1368 4.0006 0.27651 1.4925 0.40245 2.8839 1.4784 3.3426 2.9978 0.33957 1.1991 0.1096 2.4722-0.32315 3.6158-2.5961 7.5765-5.3436 15.098-8.0234 22.642-0.66544 1.9657-2.6645 3.1983-4.6883 3.2686-3.1687 0.05467-6.3393-0.02133-9.5082 0.02747-2.9115 8.1101-5.7957 16.229-8.6815 24.346 0.75309 0.32032 1.5555 0.0821 2.3414 0.1368 1.183 0.0821 2.3578-0.1368 3.5365-0.21894 7.7282-0.70909 15.22-3.7009 21.324-8.4857 4.8986-3.8186 8.9192-8.7608 11.637-14.346 2.3825-4.8061 3.7191-10.099 4.103-15.436-0.19173-1.8535-0.1368-3.7247-0.0275-5.5826-0.52304-7.0196-2.8478-13.908-6.7725-19.757-3.8476-5.7512-9.1506-10.55-15.315-13.706-4.7655-2.5078-10.046-3.9818-15.403-4.4568-0.30123-0.05467-0.60795-0.08213-0.91192-0.1096zm14.617 29.504c-0.19173-0.0014-0.35872 0.02667-0.48741 0.16427-2.7779 7.7588-5.5303 15.529-8.3086 23.285 1.5226 0.008 3.0573 0.08213 4.5785-0.02747 2.6919-7.8242 5.558-15.587 8.294-23.395-1.1748-0.02667-2.3496 0.0027-3.5252-0.01867-0.16427 0.024-0.36696-0.0053-0.5532-0.008z" style="fill-opacity:.11765"/>
  <path id="path4130" style="fill-opacity:.23529" d="m63.973 31.655c-0.90917-0.02747-1.8211 0.1368-2.7357 0.1368-2.8883 8.2691-5.8839 16.499-8.7951 24.759 2.1168 0.02747 4.2364-0.02747 6.3522 0.02747 1.5472 0.05467 3.1684 0.70635 4.0225 2.0588 0.97763 1.5277 0.92285 3.4873 0.30669 5.144-2.8789 8.0983-5.7842 16.188-8.656 24.291-2.5413 0.02747-5.0829-0.0053-7.6247 0.01867-0.35325-0.008-0.72296 0.02747-1.0598-0.1096 3.2275-8.9007 6.3823-17.834 9.563-26.751-1.5171-0.024-3.0326 0.01067-4.5491-0.016-0.2464 0.48456-0.39981 0.99653-0.57509 1.5058-2.9255 8.227-5.8787 16.447-8.7949 24.678-0.1368 0.21893-0.1096 0.67075-0.43266 0.67349-2.4208 0.008-4.8427-0.008-7.2627 0.0027-0.43542-0.0027-0.87904 0.05467-1.3035-0.08213 6.64-18.415 13.127-36.881 19.77-55.294-12.976 2.775-24.14 12.481-28.963 24.81-1.9772 4.8809-2.8373 10.154-2.9474 15.403 0.1368 2.5187 0.31218 5.0451 0.79962 7.5277 1.5609 8.2667 5.7812 16.001 11.86 21.816 5.0459 4.8765 11.376 8.4052 18.168 10.167 6.6118-18.485 13.187-36.986 19.773-55.48 0.05467-0.1368 0.19173-0.40245 0.27387-0.53659 4.0652 0.02747 8.1319 0.008 12.2 0.01867 1.3337 0.024 2.7029-0.1368 4.0006 0.27651 1.4925 0.40245 2.8839 1.4784 3.3426 2.9978 0.33957 1.1991 0.1096 2.4722-0.32315 3.6158-2.5961 7.5765-5.3436 15.098-8.0234 22.642-0.66544 1.9657-2.6645 3.1983-4.6883 3.2686-3.1687 0.05467-6.3393-0.02133-9.5082 0.02747-2.9115 8.11-5.7957 16.229-8.6815 24.346 0.75309 0.32032 1.5555 0.0821 2.3414 0.1368 1.183 0.0821 2.3578-0.1368 3.5365-0.21893 7.7282-0.7091 15.22-3.7009 21.324-8.4857 4.8986-3.8186 8.9192-8.7608 11.637-14.346 2.3825-4.8061 3.7191-10.099 4.103-15.436-0.19173-1.8535-0.1368-3.7247-0.0275-5.5826-0.52304-7.0196-2.8478-13.908-6.7725-19.757-3.8476-5.7512-9.1506-10.55-15.315-13.706-4.7655-2.5078-10.046-3.9818-15.403-4.4568-0.30123-0.05467-0.60795-0.08213-0.91192-0.1096zm14.617 29.504c-0.19173-0.0014-0.35872 0.02667-0.48741 0.16427-2.7779 7.7588-5.5303 15.529-8.3086 23.285 1.5226 0.008 3.0573 0.08213 4.5785-0.02747 2.6919-7.8242 5.558-15.587 8.294-23.395-1.1748-0.02667-2.3496 0.0027-3.5252-0.01867-0.16427 0.024-0.36696-0.0053-0.5532-0.008z"/>
  <path id="path5" d="m63.973 30.588c-0.90917-0.02747-1.8211 0.1368-2.7357 0.1368-2.8883 8.2691-5.8839 16.499-8.7951 24.759 2.1168 0.02747 4.2364-0.02747 6.3522 0.02747 1.5472 0.05467 3.1684 0.70635 4.0225 2.0588 0.97763 1.5277 0.92285 3.4873 0.30669 5.144-2.8789 8.0983-5.7842 16.188-8.656 24.291-2.5413 0.02747-5.0829-0.0053-7.6247 0.01867-0.35325-0.008-0.72296 0.02747-1.0598-0.1096 3.2275-8.9007 6.3823-17.834 9.563-26.751-1.5171-0.024-3.0326 0.01067-4.5491-0.016-0.2464 0.48456-0.39981 0.99653-0.57509 1.5058-2.9255 8.227-5.8787 16.447-8.7949 24.678-0.1368 0.21893-0.1096 0.67075-0.43266 0.67349-2.4208 0.008-4.8427-0.008-7.2627 0.0027-0.43542-0.0027-0.87904 0.05467-1.3035-0.08213 6.64-18.415 13.127-36.881 19.77-55.294-12.976 2.775-24.14 12.481-28.963 24.81-1.9772 4.8809-2.8373 10.154-2.9474 15.403 0.1368 2.5187 0.31218 5.0451 0.79962 7.5277 1.5609 8.2667 5.7812 16.001 11.86 21.816 5.0459 4.8765 11.376 8.4052 18.168 10.167 6.6118-18.485 13.187-36.986 19.773-55.48 0.05467-0.1368 0.19173-0.40245 0.27387-0.53659 4.0652 0.02747 8.1319 0.008 12.2 0.01867 1.3337 0.024 2.7029-0.1368 4.0006 0.27651 1.4925 0.40245 2.8839 1.4784 3.3426 2.9978 0.33957 1.1991 0.1096 2.4722-0.32315 3.6158-2.5961 7.5765-5.3436 15.098-8.0234 22.642-0.66544 1.9657-2.6645 3.1983-4.6883 3.2686-3.1687 0.05467-6.3393-0.02133-9.5082 0.02747-2.9115 8.11-5.7957 16.229-8.6815 24.346 0.75309 0.32032 1.5555 0.0821 2.3414 0.1368 1.183 0.0821 2.3578-0.1368 3.5365-0.21893 7.7282-0.7091 15.22-3.7009 21.324-8.4857 4.8986-3.8186 8.9192-8.7608 11.637-14.346 2.3825-4.8061 3.7191-10.099 4.103-15.436-0.19173-1.8535-0.1368-3.7247-0.0275-5.5826-0.53-7.021-2.855-13.909-6.779-19.759-3.848-5.751-9.151-10.55-15.316-13.706-4.765-2.508-10.046-3.982-15.403-4.457-0.301-0.055-0.608-0.082-0.912-0.11zm14.617 29.504c-0.19173-0.0014-0.35872 0.02667-0.48741 0.16427-2.7779 7.7588-5.5303 15.529-8.3086 23.285 1.5226 0.008 3.0573 0.08213 4.5785-0.02747 2.6919-7.8242 5.558-15.587 8.294-23.395-1.1748-0.02667-2.3496 0.0027-3.5252-0.01867-0.16427 0.024-0.36696-0.0053-0.5532-0.008z" style="fill:url(#linearGradient4586)"/>
  <path id="path4138" style="fill:#0383bb;fill-opacity:.31373" d="m52.198 31.629c-0.28187 0.06028-0.55844 0.14156-0.83855 0.20833-6.3494 17.637-12.573 35.318-18.932 52.953 0.2375 0.07653 0.48447 0.09424 0.72917 0.09376 6.3844-17.738 12.644-35.523 19.042-53.255zm18.964 21.573c-0.08213 0.13413-0.22136 0.39966-0.27604 0.53646-6.5863 18.494-13.159 37-19.771 55.484-6.7919-1.7623-13.121-5.2954-18.167-10.172-6.0783-5.8144-10.298-13.546-11.859-21.812-0.42592-2.1693-0.60252-4.3711-0.73437-6.5729-0.0168 0.39284-0.0595 0.78435-0.0677 1.1771 0.1368 2.5187 0.31464 5.0486 0.80208 7.5312 1.5609 8.2667 5.7811 15.998 11.859 21.812 5.0459 4.8765 11.375 8.4044 18.167 10.167 6.6118-18.485 13.185-36.985 19.771-55.479 0.05467-0.1368 0.19392-0.40232 0.27604-0.53646 4.0652 0.02747 8.1302 0.01013 12.198 0.0208 1.3337 0.024 2.7022-0.13725 4 0.27604 1.4925 0.40245 2.8851 1.4754 3.3437 2.9948 0.01173 0.04109 0.0104 0.08376 0.0208 0.12499 0.13965-0.75136 0.18957-1.5122-0.0208-2.2552-0.45869-1.5194-1.8513-2.5975-3.3437-3-1.2978-0.41331-2.6663-0.25205-4-0.27604-4.0677-0.01067-8.1327 0.0067-12.198-0.0208zm-17.964 0.15624c-0.25099 0.70847-0.50535 1.4161-0.7552 2.125 2.1168 0.02747 4.2384-0.02888 6.3542 0.02613 1.5472 0.05467 3.1667 0.71004 4.0208 2.0625 0.35246 0.55075 0.52926 1.1631 0.63542 1.7917 0.24848-1.3439 0.11165-2.7597-0.63542-3.9271-0.85413-1.3525-2.4736-2.0026-4.0208-2.0573-1.8643-0.0484-3.7332-0.01147-5.599-0.0208zm28.714 6.7552c-2.5066 7.0918-5.0892 14.152-7.5365 21.266-1.27 0.09149-2.549 0.06088-3.8229 0.04168-0.25253 0.70632-0.50229 1.4137-0.75521 2.1198 1.5226 0.008 3.0569 0.08355 4.5781-0.02613 2.6919-7.8242 5.5556-15.588 8.2917-23.396-0.25163-0.0056-0.50358-0.0035-0.75521-0.0053zm-27.323 0.04165c-2.9248 8.2108-5.8362 16.431-8.8073 24.625 0.23053 0.09381 0.47843 0.10275 0.72396 0.10416 2.9729-8.2295 5.9044-16.484 8.8437-24.724-0.25344-0.004-0.50706-0.004-0.76042-0.0053zm47.75 7.8906c-0.0245 0.72101-0.0245 1.4409-0.005 2.1615 0.0179-0.53703 0.031-1.0738 0.0625-1.6094-0.0139-0.18448-0.0411-0.3678-0.0573-0.55208zm0.0104 4.6094c-0.43939 5.1295-1.7398 10.206-4.0313 14.828-2.7174 5.5853-6.7369 10.525-11.635 14.344-6.1038 4.7848-13.595 7.7805-21.323 8.4896-1.1786 0.0821-2.3535 0.30089-3.5365 0.21875-0.54424-0.0379-1.0972 0.0553-1.6354 0.0157-0.23469 0.66019-0.47362 1.319-0.70833 1.9792 0.75309 0.32032 1.5578 0.0807 2.3437 0.13541 1.183 0.0821 2.3578-0.13661 3.5365-0.21875 7.7282-0.70909 15.219-3.6996 21.323-8.4844 4.8986-3.8186 8.918-8.7636 11.635-14.349 2.3825-4.8061 3.7202-10.095 4.1042-15.432-0.0524-0.50662-0.0534-1.0174-0.0729-1.526z"/>
  <path id="path4143" style="fill:#fff;fill-opacity:.23529" d="m63.989 30.566-0.01573 0.02083c-0.90917-0.02747-1.8197 0.13542-2.7344 0.13542-2.8883 8.2691-5.8856 16.501-8.7969 24.76 0.2516 0.0032 0.50355 0.004 0.75521 0.0053 2.6728-7.5448 5.4018-15.072 8.0417-22.63 0.91464 0 1.8252-0.16288 2.7344-0.13542l0.01573-0.02083c0.30397 0.02747 0.61023 0.05471 0.91146 0.10938 5.3575 0.47499 10.641 1.9505 15.406 4.4583 6.1648 3.1563 11.465 7.9519 15.312 13.703 3.8216 5.6961 6.1174 12.381 6.7188 19.208 0.0179-0.52828 0.0264-1.0565 0.0573-1.5833-0.52-7.019-2.846-13.905-6.77-19.754-3.848-5.752-9.148-10.552-15.313-13.709-4.765-2.508-10.049-3.983-15.406-4.458-0.30123-0.05467-0.60748-0.08191-0.91146-0.10938zm-11.792 1.0625c-12.976 2.775-24.14 12.484-28.964 24.812-1.9772 4.8809-2.8378 10.153-2.9479 15.401 0.0174 0.31959 0.0486 0.6386 0.0677 0.95833 0.20748-4.8574 1.0508-9.713 2.8802-14.229 4.719-12.061 15.51-21.592 28.125-24.599 0.28103-0.78065 0.55699-1.5633 0.83855-2.3437zm26.391 28.464c-0.19173-0.0014-0.35568 0.02907-0.48438 0.16667-2.7779 7.7588-5.5291 15.525-8.3073 23.281 0.2532 0.0013 0.50668 0.0067 0.76042 0.0104 2.5207-7.0505 5.0225-14.111 7.5469-21.161 0.12869-0.1376 0.29264-0.16285 0.48438-0.16147 0.18624 0.0027 0.38782 0.0292 0.55208 0.0053 0.92381 0.0168 1.8476 0.0096 2.7708 0.01573 0.25104-0.71028 0.50608-1.4192 0.75521-2.1302-1.1748-0.02667-2.3504 0.0056-3.526-0.01573-0.16427 0.024-0.36584-0.0077-0.55208-0.0104zm-27.792 0.05208c-0.2464 0.48456-0.39764 1.0012-0.57292 1.5104-2.9255 8.227-5.8807 16.445-8.7969 24.677-0.1368 0.21893-0.10923 0.66913-0.4323 0.67188-2.4208 0.008-4.8404-0.0053-7.2604 0.0053-0.19178-0.0012-0.38549 0.0048-0.57812 0.0053-0.24475 0.68001-0.48402 1.3618-0.72917 2.0417 0.42446 0.1368 0.87188 0.08067 1.3073 0.08333 2.42-0.01067 4.8396 0.008 7.2604 0 0.32307-0.0027 0.2955-0.45815 0.4323-0.67708 2.9162-8.2316 5.8714-16.45 8.7969-24.677 0.17528-0.50923 0.32652-1.0206 0.57292-1.5052 1.2632 0.02213 2.5284 0.004 3.7917 0.0104 0.25291-0.71001 0.50722-1.4204 0.76042-2.1302-1.5171-0.024-3.0355 0.01093-4.5521-0.01573zm39.927 0.74479c-0.08579 0.45999-0.17957 0.92556-0.34375 1.3594-2.5961 7.5765-5.341 15.097-8.0208 22.641-0.66544 1.9657-2.6637 3.1953-4.6875 3.2656-3.1687 0.05467-6.3415-0.0176-9.5104 0.03125-2.9115 8.11-5.7965 16.227-8.6823 24.344 0.2316 0.0985 0.46932 0.13862 0.70833 0.15624 2.6511-7.457 5.2992-14.919 7.974-22.37 3.169-0.0488 6.3417 0.02864 9.5104-0.02613 2.0238-0.07035 4.0221-1.3051 4.6875-3.2708 2.6799-7.5436 5.4248-15.064 8.0208-22.641 0.41792-1.1044 0.63442-2.3269 0.34375-3.4896zm-27.27 0.61c-0.07669 0.41466-0.18285 0.82294-0.32812 1.2135-2.8789 8.0983-5.7844 16.189-8.6562 24.292-2.5413 0.02747-5.0832-0.0032-7.625 0.0208-0.11146-0.0025-0.22536-0.0045-0.33854-0.0053-0.24363 0.67442-0.47953 1.352-0.72396 2.026 0.33683 0.13707 0.70925 0.10139 1.0625 0.10939 2.5418-0.024 5.0837 0.01173 7.625-0.01573 2.8718-8.1029 5.7773-16.193 8.6562-24.292 0.39402-1.0594 0.51642-2.2339 0.32812-3.349zm38.88 10.839c-0.0273 0.81752-0.0155 1.6313 0.0157 2.4479 0.0173-0.20224 0.0584-0.40177 0.0729-0.60417-0.0633-0.6121-0.0721-1.2289-0.0885-1.8437z"/>
 </g>
</svg>
