<?xml version="1.0" encoding="UTF-8" standalone="no"?>
<!-- Created with Inkscape (http://www.inkscape.org/) -->
<svg id="svg3449" xmlns:rdf="http://www.w3.org/1999/02/22-rdf-syntax-ns#" xmlns="http://www.w3.org/2000/svg" height="128" width="128" version="1.0" xmlns:cc="http://creativecommons.org/ns#" xmlns:xlink="http://www.w3.org/1999/xlink" xmlns:dc="http://purl.org/dc/elements/1.1/">
 <metadata id="metadata56">
  <rdf:RDF>
   <cc:Work rdf:about="">
    <dc:format>image/svg+xml</dc:format>
    <dc:type rdf:resource="http://purl.org/dc/dcmitype/StillImage"/>
    <dc:title/>
   </cc:Work>
  </rdf:RDF>
 </metadata>
 <defs id="defs3451">
  <linearGradient id="linearGradient3514" y2="-9.1034" gradientUnits="userSpaceOnUse" x2="66.492" gradientTransform="matrix(.96826 0 0 .97948 2.179 .16587)" y1="-42.638" x1="67.952">
   <stop id="stop4620" style="stop-color:#37414b" offset="0"/>
   <stop id="stop4622" style="stop-color:#37414b;stop-opacity:0" offset="1"/>
  </linearGradient>
  <linearGradient id="linearGradient3516" y2="-11.847" gradientUnits="userSpaceOnUse" x2="58.98" gradientTransform="matrix(.96826 0 0 .97948 2.179 .16587)" y1="-118.55" x1="57.173">
   <stop id="stop4596" offset="0"/>
   <stop id="stop4598" style="stop-opacity:0" offset="1"/>
  </linearGradient>
  <linearGradient id="linearGradient3519" y2="50.369" gradientUnits="userSpaceOnUse" x2="76.558" gradientTransform="matrix(.96826 0 0 .97948 3.2423 -129.19)" y1="13.164" x1="76.558">
   <stop id="stop3392" style="stop-color:#425e7b" offset="0"/>
   <stop id="stop3394" style="stop-color:#7a91a7" offset="1"/>
  </linearGradient>
  <linearGradient id="linearGradient3521" y2="-8.7399" gradientUnits="userSpaceOnUse" x2="60.217" gradientTransform="matrix(.96826 0 0 .97948 2.179 .16587)" y1="-123.72" x1="60.395">
   <stop id="stop3392-4-8" style="stop-color:#425e7b" offset="0"/>
   <stop id="stop3394-8-0" style="stop-color:#7a91a7" offset="1"/>
  </linearGradient>
  <radialGradient id="radialGradient3349" gradientUnits="userSpaceOnUse" cy="45.647" cx="42.148" gradientTransform="matrix(.93295 0 0 1.1337 4.3411 -28.729)" r="58.984">
   <stop id="stop2699-5" style="stop-color:#ff0d0d" offset="0"/>
   <stop id="stop2701-7" style="stop-color:#940000" offset="1"/>
  </radialGradient>
  <filter id="filter3174-5" color-interpolation-filters="sRGB">
   <feGaussianBlur id="feGaussianBlur3176-4" stdDeviation="1.71"/>
  </filter>
  <linearGradient id="ButtonShadow-4" x1="45.448" gradientUnits="userSpaceOnUse" y1="92.54" gradientTransform="scale(1.0059 .99417)" x2="45.448" y2="7.0165">
   <stop id="stop3750-3" offset="0"/>
   <stop id="stop3752-57" style="stop-opacity:.58824" offset="1"/>
  </linearGradient>
  <filter id="filter3174-0" color-interpolation-filters="sRGB">
   <feGaussianBlur id="feGaussianBlur3176-9" stdDeviation="1.71"/>
  </filter>
  <filter id="filter3174-7" color-interpolation-filters="sRGB">
   <feGaussianBlur id="feGaussianBlur3176-7" stdDeviation="1.71"/>
  </filter>
  <clipPath id="clipPath3613-9">
   <rect id="rect3615-2" style="fill:#fff" rx="6" ry="6" height="84" width="84" y="6" x="6"/>
  </clipPath>
  <linearGradient id="linearGradient3613-3" x1="48" gradientUnits="userSpaceOnUse" y1="20.221" x2="48" y2="138.66">
   <stop id="stop3739-03" style="stop-color:#fff" offset="0"/>
   <stop id="stop3741-5" style="stop-color:#fff;stop-opacity:0" offset="1"/>
  </linearGradient>
  <filter id="filter3794-30" height="1.384" width="1.384" color-interpolation-filters="sRGB" y="-.192" x="-.192">
   <feGaussianBlur id="feGaussianBlur3796-38" stdDeviation="5.28"/>
  </filter>
  <filter id="filter3174-8" color-interpolation-filters="sRGB">
   <feGaussianBlur id="feGaussianBlur3176-3" stdDeviation="1.71"/>
  </filter>
  <clipPath id="clipPath3613-26">
   <rect id="rect3615-4" style="fill:#fff" rx="6" ry="6" height="84" width="84" y="6" x="6"/>
  </clipPath>
  <filter id="filter3794-67" height="1.384" width="1.384" color-interpolation-filters="sRGB" y="-.192" x="-.192">
   <feGaussianBlur id="feGaussianBlur3796-4" stdDeviation="5.28"/>
  </filter>
  <filter id="filter3174-4" color-interpolation-filters="sRGB">
   <feGaussianBlur id="feGaussianBlur3176-0" stdDeviation="1.71"/>
  </filter>
  <filter id="filter3174-1" color-interpolation-filters="sRGB">
   <feGaussianBlur id="feGaussianBlur3176-1" stdDeviation="1.71"/>
  </filter>
  <linearGradient id="linearGradient9285" y2="7.0165" gradientUnits="userSpaceOnUse" x2="45.448" gradientTransform="matrix(1.0059 0 0 .99417 -59.657 2.8358)" y1="92.54" x1="45.448">
   <stop id="stop3750-7" offset="0"/>
   <stop id="stop3752-3" style="stop-opacity:.58824" offset="1"/>
  </linearGradient>
 </defs>
 <rect id="rect892-2-7-2" ry="29.452" style="stroke:#d3d3d3;stroke-width:9.8448;fill:#37414b" transform="scale(1,-1)" height="116.16" width="116.08" y="-122.08" x="5.9224"/>
 <rect id="rect892" style="stroke:url(#linearGradient3521);stroke-width:.97385;fill:url(#linearGradient3519)" transform="scale(1,-1)" ry="29.296" height="115.54" width="114.22" y="-122.25" x="7.0394"/>
 <rect id="rect892-2" style="stroke:url(#linearGradient3516);stroke-width:.97385;fill:url(#linearGradient3514)" transform="scale(1,-1)" ry="28.993" height="114.35" width="114.22" y="-121.46" x="7.0599"/>
 <path id="rect895" style="fill:url(#radialGradient3349)" d="m30.919 8c-12.934 0.9317-22.217 14.969-22.832 23.179-0.0489 0.969-0.087 1.956-0.087 2.943v58.148c0 15.16 11.026 27.73 21.989 27.73h66.051c15.46 0 23.96-16.37 23.96-25.739v-63.72c1.8-7.114-8.34-23.852-25.548-22.516-47.141 0.8618-20.195-0.025-63.533-0.025z"/>
 <rect id="rect892-2-7-8" style="opacity:.15891;stroke:#000;stroke-width:4.8445;fill:none" transform="scale(1,-1)" ry="28.993" height="114.35" width="114.22" y="-121.16" x="6.8683"/>
 <rect id="rect892-2-7-1" style="opacity:.15891;stroke:#000;stroke-width:7.7512;fill:none" transform="scale(1,-1)" ry="28.993" height="114.35" width="114.22" y="-121.16" x="6.8686"/>
 <rect id="rect892-2-7-2-9" ry="28.067" style="stroke:#000;stroke-width:1.0489;fill:none" transform="scale(1,-1)" height="112.71" width="114.14" y="-120.31" x="7.0644"/>
 <path id="path1187" style="fill:#fff;fill-opacity:.057143" d="m32.415 6.0906c-14.891-4.3298-32.779 19.454-27.93 26.295-0.04334 0.71563-0.07674 1.4439-0.07674 2.1732v10.76c25.899-25.61 66.753-35.479 90.375-39.179-0.22473-0.02628-0.45986-0.03062-0.69067-0.03062-41.576 0.38742-23.653-0.01876-61.677-0.01875z"/>
 <g id="layer2" style="display:none" transform="translate(137.63 15.959)">
  <rect id="rect3745" style="opacity:.9;filter:url(#filter3174-5);fill:url(#ButtonShadow-4)" rx="6" ry="6" height="85" width="86" y="7" x="5"/>
 </g>
 <g id="layer2-3" style="display:none" transform="translate(146.29 14.997)">
  <rect id="rect3745-4" style="opacity:.9;filter:url(#filter3174-0);fill:url(#ButtonShadow-4)" rx="6" ry="6" height="85" width="86" y="7" x="5"/>
 </g>
 <g id="layer2-4" style="display:none" transform="translate(176.76 -8.736)">
  <rect id="rect3745-7" style="opacity:.9;filter:url(#filter3174-7);fill:url(#ButtonShadow-4)" rx="6" ry="6" height="85" width="86" y="7" x="5"/>
 </g>
 <g id="layer2-2" style="display:none" transform="translate(143.15 5.055)">
  <rect id="rect3745-9" style="opacity:.9;filter:url(#filter3174-8);fill:url(#ButtonShadow-4)" rx="6" ry="6" height="85" width="86" y="7" x="5"/>
 </g>
 <g id="layer5-4" style="display:none" transform="translate(143.15 5.055)">
  <rect id="rect3171-7" style="opacity:.3;filter:url(#filter3794-30);stroke:#fff;stroke-linecap:round;stroke-width:.5;fill:url(#linearGradient3613-3)" clip-path="url(#clipPath3613-9)" rx="12" ry="12" height="66" width="66" y="15" x="15"/>
 </g>
 <g id="layer2-1" style="display:none" transform="translate(160.47 -5.8175)">
  <rect id="rect3745-8" style="opacity:.9;filter:url(#filter3174-4);fill:url(#ButtonShadow-4)" rx="6" ry="6" height="85" width="86" y="7" x="5"/>
 </g>
 <g id="layer5-46" style="display:none" transform="translate(160.47 -5.8175)">
  <rect id="rect3171-2" style="opacity:.1;filter:url(#filter3794-67);stroke:#fff;stroke-linecap:round;stroke-width:.5;fill:url(#linearGradient3613-3)" clip-path="url(#clipPath3613-26)" rx="12" ry="12" height="66" width="66" y="15" x="15"/>
 </g>
 <rect id="rect3745-82" style="opacity:.9;filter:url(#filter3174-1);display:none;fill:url(#linearGradient9285)" rx="6" ry="6" height="85" width="86" y="9.8358" x="-54.657"/>
 <g id="layer1-8" transform="matrix(2.5636 0 0 2.5636 2.4744 -2572.3)">
  <g id="g4001" transform="translate(.59397 -.12997)">
   <rect id="rect2363" style="fill:none" transform="matrix(.91430 -.40503 .31004 .95072 0 0)" height="14.218" width="12.685" y="946.58" x="-301.95"/>
   <path id="path5074" d="m17.764 1023.9c1.474-1.6215 3.329-3.8945 5.3158-5.7852 0.45917-0.5958 2.5213-0.5904 3.1057 0.016l2.7801 3.5314 0.01146 1.3869-2.4695-1.1114c0.38753 1.2657 0.90048 2.5627 0 3.5064l-2.0252-2.8051-1.1278 1.8415c-1.4477-1.2061-0.91346-2.1919-0.97602-3.2441l-1.1079 2.6636c-1.8334 1.9935-2.4178 0.2402-3.5066 0z" style="fill:#fff;fill-rule:evenodd"/>
   <path id="path3971" style="stroke:#fff;stroke-linecap:round;stroke-width:0.623;fill:none" d="m26.466 1040-2.8228 0.8537-0.53415-2.1711-2.2131-0.288 1.9949-1.7767c0.0657-0.4416-7.1651-2.6543-7.3474-3.1313-0.22689-0.3574 2.6278-0.7501 2.7197-2.7722-0.92216 0.015-1.5777-0.3063-3.7086-0.8773 0 0-2.3385-0.3879-2.3646-0.8624-0.07706-0.5834 1.4986-1.5775 4.0499-4.463 2.5512-2.8854 6.078-7.6622 6.4031-7.8108 0.91202-0.7765 2.8259-0.7013 3.4874 0 0.38574 0.2143 5.5154 6.1463 8.492 10.079"/>
   <path id="path3966" style="fill:#fff" d="m19.125 1025.3c-3.7904-0.046-3.6687 2.2637-4.0625 2.8125-1.0625 0.062-0.1875 1.375 0.25 1.375s1.75-0.9375 3.4375-0.5625 3.6875 0 2.0625 1.5625-3.25 1.375-2.8125 2.25 0.9375 1.625 3.25 2.1875 2.8125 0.25 3.1875 1 0.0625 1 0.8125 0.375 2.6875-0.375 2-1.6875-2.125-0.375-0.75-1.5625 1-0.5625 2.125-1.6875 3.1875-0.8125 1.3125-1.75-2.25-0.875-4.125-1.125-1.5625 0.375-2.4375-0.9375-0.625-1.75-1.875-1.6875c-1.25 0.062-2.375-0.5625-2.375-0.5625z"/>
  </g>
 </g>
</svg>
