<?xml version="1.0" encoding="UTF-8" standalone="no"?>
<!-- Created with Inkscape (http://www.inkscape.org/) -->
<svg id="svg3449" xmlns:rdf="http://www.w3.org/1999/02/22-rdf-syntax-ns#" xmlns="http://www.w3.org/2000/svg" height="128" width="128" version="1.0" xmlns:cc="http://creativecommons.org/ns#" xmlns:xlink="http://www.w3.org/1999/xlink" xmlns:dc="http://purl.org/dc/elements/1.1/">
 <metadata id="metadata56">
  <rdf:RDF>
   <cc:Work rdf:about="">
    <dc:format>image/svg+xml</dc:format>
    <dc:type rdf:resource="http://purl.org/dc/dcmitype/StillImage"/>
    <dc:title/>
   </cc:Work>
  </rdf:RDF>
 </metadata>
 <defs id="defs3451">
  <linearGradient id="linearGradient3514" y2="-9.1034" gradientUnits="userSpaceOnUse" x2="66.492" gradientTransform="matrix(.96826 0 0 .97948 2.179 .16587)" y1="-42.638" x1="67.952">
   <stop id="stop4620" style="stop-color:#37414b" offset="0"/>
   <stop id="stop4622" style="stop-color:#37414b;stop-opacity:0" offset="1"/>
  </linearGradient>
  <linearGradient id="linearGradient3516" y2="-11.847" gradientUnits="userSpaceOnUse" x2="58.98" gradientTransform="matrix(.96826 0 0 .97948 2.179 .16587)" y1="-118.55" x1="57.173">
   <stop id="stop4596" offset="0"/>
   <stop id="stop4598" style="stop-opacity:0" offset="1"/>
  </linearGradient>
  <linearGradient id="linearGradient3519" y2="50.369" gradientUnits="userSpaceOnUse" x2="76.558" gradientTransform="matrix(.96826 0 0 .97948 3.2423 -129.19)" y1="13.164" x1="76.558">
   <stop id="stop3392" style="stop-color:#425e7b" offset="0"/>
   <stop id="stop3394" style="stop-color:#7a91a7" offset="1"/>
  </linearGradient>
  <linearGradient id="linearGradient3521" y2="-8.7399" gradientUnits="userSpaceOnUse" x2="60.217" gradientTransform="matrix(.96826 0 0 .97948 2.179 .16587)" y1="-123.72" x1="60.395">
   <stop id="stop3392-4-8" style="stop-color:#425e7b" offset="0"/>
   <stop id="stop3394-8-0" style="stop-color:#7a91a7" offset="1"/>
  </linearGradient>
  <filter id="filter3174-5" color-interpolation-filters="sRGB">
   <feGaussianBlur id="feGaussianBlur3176-4" stdDeviation="1.71"/>
  </filter>
  <linearGradient id="ButtonShadow-4" x1="45.448" gradientUnits="userSpaceOnUse" y1="92.54" gradientTransform="scale(1.0059 .99417)" x2="45.448" y2="7.0165">
   <stop id="stop3750-3" offset="0"/>
   <stop id="stop3752-57" style="stop-opacity:.58824" offset="1"/>
  </linearGradient>
  <filter id="filter3174-0" color-interpolation-filters="sRGB">
   <feGaussianBlur id="feGaussianBlur3176-9" stdDeviation="1.71"/>
  </filter>
  <filter id="filter3174-7" color-interpolation-filters="sRGB">
   <feGaussianBlur id="feGaussianBlur3176-7" stdDeviation="1.71"/>
  </filter>
  <clipPath id="clipPath3613-9">
   <rect id="rect3615-2" style="fill:#fff" rx="6" ry="6" height="84" width="84" y="6" x="6"/>
  </clipPath>
  <linearGradient id="linearGradient3613-3" x1="48" gradientUnits="userSpaceOnUse" y1="20.221" x2="48" y2="138.66">
   <stop id="stop3739-03" style="stop-color:#fff" offset="0"/>
   <stop id="stop3741-5" style="stop-color:#fff;stop-opacity:0" offset="1"/>
  </linearGradient>
  <filter id="filter3794-30" height="1.384" width="1.384" color-interpolation-filters="sRGB" y="-.192" x="-.192">
   <feGaussianBlur id="feGaussianBlur3796-38" stdDeviation="5.28"/>
  </filter>
  <filter id="filter3174-8" color-interpolation-filters="sRGB">
   <feGaussianBlur id="feGaussianBlur3176-3" stdDeviation="1.71"/>
  </filter>
  <clipPath id="clipPath3613-26">
   <rect id="rect3615-4" style="fill:#fff" rx="6" ry="6" height="84" width="84" y="6" x="6"/>
  </clipPath>
  <filter id="filter3794-67" height="1.384" width="1.384" color-interpolation-filters="sRGB" y="-.192" x="-.192">
   <feGaussianBlur id="feGaussianBlur3796-4" stdDeviation="5.28"/>
  </filter>
  <filter id="filter3174-4" color-interpolation-filters="sRGB">
   <feGaussianBlur id="feGaussianBlur3176-0" stdDeviation="1.71"/>
  </filter>
  <filter id="filter3174-1" color-interpolation-filters="sRGB">
   <feGaussianBlur id="feGaussianBlur3176-1" stdDeviation="1.71"/>
  </filter>
  <linearGradient id="linearGradient9285" y2="7.0165" gradientUnits="userSpaceOnUse" x2="45.448" gradientTransform="matrix(1.0059 0 0 .99417 -59.657 2.8358)" y1="92.54" x1="45.448">
   <stop id="stop3750-7" offset="0"/>
   <stop id="stop3752-3" style="stop-opacity:.58824" offset="1"/>
  </linearGradient>
  <linearGradient id="linearGradient3798" y2="6" spreadMethod="reflect" gradientUnits="userSpaceOnUse" y1="25" x2="17" x1="17">
   <stop id="stop3926-8" style="stop-color:#fff" offset="0"/>
   <stop id="stop3928-6" style="stop-color:#fff;stop-opacity:0" offset="1"/>
  </linearGradient>
  <radialGradient id="radialGradient3796" gradientUnits="userSpaceOnUse" cx="24" cy="9.4885" r="18.5" gradientTransform="matrix(0 1.3556 -4.0521 0 74.398 -14.127)">
   <stop id="stop3826" style="stop-color:#fff" offset="0"/>
   <stop id="stop3828" style="stop-color:#fff;stop-opacity:0" offset="1"/>
  </radialGradient>
 </defs>
 <rect id="rect892-2-7-2" ry="29.452" style="stroke:#d3d3d3;stroke-width:9.8448;fill:#37414b" transform="scale(1,-1)" height="116.16" width="116.08" y="-122.08" x="5.9224"/>
 <rect id="rect892" style="stroke:url(#linearGradient3521);stroke-width:.97385;fill:url(#linearGradient3519)" transform="scale(1,-1)" ry="29.296" height="115.54" width="114.22" y="-122.25" x="7.0394"/>
 <rect id="rect892-2" style="stroke:url(#linearGradient3516);stroke-width:.97385;fill:url(#linearGradient3514)" transform="scale(1,-1)" ry="28.993" height="114.35" width="114.22" y="-121.46" x="7.0599"/>
 <g id="g14613" transform="matrix(2.5631 0 0 2.5636 3.5181 .38874)">
  <rect id="rect810-5" style="fill:#a94daa" ry="10.607" height="43.689" width="43.689" y="2.969" x="1.7487"/>
  <g id="g3790" transform="matrix(1.1519 0 0 1 -4.0474 0)">
   <path id="path3701" style="opacity:.8;stroke:#fff;stroke-width:1px;fill:none" d="m5.5045 27.054c3.9837-10.13 7.8441 4.5211 10.51 1.9932 2.2971-2.1782 2.6016-8.4465 5.0448-10.763 2.1894-2.0761 3.7135 6.7104 4.204 7.1755 3.0084 2.8527 3.3035-4.641 4.6244-3.3884 2.1803 2.0674-0.25599 7.5307 2.102 9.7666 1.892 1.794 3.831-15.84 10.51-4.983"/>
   <path id="path3782" style="opacity:.4;fill:url(#radialGradient3796)" d="m21.781 18.406c-1.3027 0.7294-1.7392 2.3666-2.2812 3.6875-0.95312 2.4631-1.3026 5.3275-3.1875 7.3125-1.206 1.091-2.594-0.277-3.312-1.25-1.263-1.42-2.185-3.343-3.9688-4.187-1.6808-0.307-2.3811 1.743-2.9687 2.969-0.0747 0.378-0.301 0.422-0.5625 0.374v14.781c0 0.75632 0.61868 1.375 1.375 1.375h34.25c0.75632 0 1.375-0.61868 1.375-1.375v-14.343c-0.96327-1.4566-2.4681-3.6752-3.8125-4-1.8604-0.0089-2.6324 2.0861-3.375 3.4688-0.83098 1.6071-1.2481 3.4682-2.375 4.9062-1.6574 1.0257-2.4746-1.7975-2.5-3.0625-0.22952-2.0807 0.42872-4.3438-0.5625-6.2812-0.80059-0.67644-0.93293 1.734-1.5 2.3125-0.51917 1.813-3.2309 1.9132-3.75 0.09375-0.74117-2.1854-1.0679-4.605-2.4688-6.5l-0.219-0.188-0.157-0.094z"/>
   <path id="path3834-9-0" style="opacity:.3;stroke-width:1px;color:#000000;stroke:url(#linearGradient3798);stroke-linecap:square;fill:none" d="m17.5 6.5v37-37zm13 0v37-37z"/>
   <path id="text3934" style="opacity:.4;fill:#fff" d="m7.3565 40.948c0.4751 0.1111 0.75697-0.07106 0.84137-0.55289 0.12829-0.42882 0.74539-0.11582 1.0935-0.21111 0.27271 0.1955 0.1751 0.9449 0.69945 0.764 0.5641 0.108-0.0782-0.586-0.0925-0.863-0.2926-0.698-0.5853-1.395-0.8779-2.093-0.5318-0.18-0.5663 0.385-0.7407 0.741-0.3078 0.738-0.6155 1.477-0.9233 2.215zm1.132-1.288c0.13498-0.19158 0.26996-1.2328 0.40494-0.64381 0.21605 0.4401 0.32388 0.80362-0.30778 0.64381h-0.066855-0.030307zm2.0729-1.668c0.05632 0.8541-0.1394 1.7566 0.16 2.568 0.83113 1.1074 2.1809-0.06114 1.836-1.164v-1.404c-0.56843-0.16292-0.61926 0.19177-0.548 0.66855-0.02722 0.53631 0.06576 1.0913-0.072 1.6115-0.89872 0.66899-0.8684-0.69385-0.828-1.2771-0.10627-0.29488 0.23052-1.0328-0.20056-1.0029h-0.34744zm3.6305 1.96h1.224c-0.85626 1.5645-2.9128-0.68043-1.3-1.4085 0.5401-0.44656 1.6927 0.82844 1.7652 0.12423-0.66003-1.1674-2.6601-0.84557-2.8778 0.48732-0.32391 1.2699 1.2441 2.3009 2.331 1.6651 0.46392-0.12004 1.3027-1.5507 0.3885-1.3801h-1.5309v0.512zm6.5441 0.152c0.04622 1.5432 2.6306 0.78967 1.7658-0.53856-0.44807-0.16842-1.7539-1.1063-0.58281-1.0164 0.40564 0.72268 1.0764-0.22538 0.1745-0.526-1.3632-0.58059-1.6877 1.6705-0.2635 1.705 0.8218 0.5724-0.46602 1.0324-0.65571 0.376h-0.43829zm2.2941 0.844h1.588c0.17932-0.59912-0.27757-0.56203-0.7354-0.524-0.43763 0.23686-0.4455-0.79344-0.10403-0.688 0.41569-0.0055 0.9878 0.14552 0.79544-0.46798-0.18973-0.2278-1.0328 0.19774-0.996-0.25658-0.18764-0.59792 0.30244-0.51812 0.7354-0.49544 0.50442 0.18029 0.40775-0.79976-0.09653-0.524-0.37259 0.04532-0.92606-0.09025-1.1869 0.06686v2.8891zm2.0781 0c0.56844 0.16292 0.61926-0.19177 0.548-0.66855-0.24865-0.94574 1.6148-0.10336 1.34-1.3755 0.009-1.0563-1.154-0.91749-1.888-0.912v2.956zm0.548-1.648c-0.12553-0.5634 0.07752-1.144 0.72-0.6245 0.29418 0.54065-0.32521 0.67167-0.72 0.6245zm6.1629 1.648c0.56843 0.16292 0.61926-0.19177 0.548-0.66855v-1.4795c0.412 0.716 0.824 1.432 1.236 2.148 0.52234 0.11778 0.73681-0.07232 0.612-0.60169v-2.3543c-0.56844-0.16292-0.61926 0.19177-0.548 0.66855v1.4835c-0.408-0.71733-0.816-1.4347-1.224-2.152-0.52163-0.11306-0.75238 0.06475-0.624 0.60169v2.3543zm4.3689-3.008c-1.2616-0.08917-2.0625 1.5791-1.2075 2.5073 0.74405 0.9775 2.5201 0.57544 2.6973-0.66543 0.21123-0.91564-0.54418-1.8671-1.4898-1.8419zm-0.008 0.528c1.6788 0.0075 0.86097 2.8016-0.5625 1.8352-0.80922-0.50418-0.40867-1.8881 0.5625-1.8352zm2.8714 2.48c0.54088 0.18114 0.57583-0.37602 0.73755-0.74818 0.28482-0.73594 0.56963-1.4719 0.85445-2.2078-0.51608-0.14323-0.71665 0.15996-0.79915 0.63021l-0.57285 1.6178c-0.26533-0.74933-0.53067-1.4987-0.796-2.248-0.62196-0.14157-0.59839 0.15811-0.33324 0.62292l0.90924 2.3331z"/>
  </g>
 </g>
 <rect id="rect892-2-7-8" style="opacity:.15891;stroke:#000;stroke-width:4.8445;fill:none" transform="scale(1,-1)" ry="28.993" height="114.35" width="114.22" y="-121.16" x="6.8683"/>
 <rect id="rect892-2-7-1" style="opacity:.15891;stroke:#000;stroke-width:7.7512;fill:none" transform="scale(1,-1)" ry="28.993" height="114.35" width="114.22" y="-121.16" x="6.8686"/>
 <rect id="rect892-2-7-2-9" ry="28.067" style="stroke:#000;stroke-width:1.0489;fill:none" transform="scale(1,-1)" height="112.71" width="114.14" y="-120.31" x="7.0644"/>
 <path id="path1187" style="fill:#fff;fill-opacity:.057143" d="m32.415 6.0906c-14.891-4.3298-32.779 19.454-27.93 26.295-0.04334 0.71563-0.07674 1.4439-0.07674 2.1732v10.76c25.899-25.61 66.753-35.479 90.375-39.179-0.22473-0.02628-0.45986-0.03062-0.69067-0.03062-41.576 0.38742-23.653-0.01876-61.677-0.01875z"/>
 <g id="layer2" style="display:none" transform="translate(137.63 15.959)">
  <rect id="rect3745" style="opacity:.9;filter:url(#filter3174-5);fill:url(#ButtonShadow-4)" rx="6" ry="6" height="85" width="86" y="7" x="5"/>
 </g>
 <g id="layer2-3" style="display:none" transform="translate(146.29 14.997)">
  <rect id="rect3745-4" style="opacity:.9;filter:url(#filter3174-0);fill:url(#ButtonShadow-4)" rx="6" ry="6" height="85" width="86" y="7" x="5"/>
 </g>
 <g id="layer2-4" style="display:none" transform="translate(176.76 -8.736)">
  <rect id="rect3745-7" style="opacity:.9;filter:url(#filter3174-7);fill:url(#ButtonShadow-4)" rx="6" ry="6" height="85" width="86" y="7" x="5"/>
 </g>
 <g id="layer2-2" style="display:none" transform="translate(143.15 5.055)">
  <rect id="rect3745-9" style="opacity:.9;filter:url(#filter3174-8);fill:url(#ButtonShadow-4)" rx="6" ry="6" height="85" width="86" y="7" x="5"/>
 </g>
 <g id="layer5-4" style="display:none" transform="translate(143.15 5.055)">
  <rect id="rect3171-7" style="opacity:.3;filter:url(#filter3794-30);stroke:#fff;stroke-linecap:round;stroke-width:.5;fill:url(#linearGradient3613-3)" clip-path="url(#clipPath3613-9)" rx="12" ry="12" height="66" width="66" y="15" x="15"/>
 </g>
 <g id="layer2-1" style="display:none" transform="translate(160.47 -5.8175)">
  <rect id="rect3745-8" style="opacity:.9;filter:url(#filter3174-4);fill:url(#ButtonShadow-4)" rx="6" ry="6" height="85" width="86" y="7" x="5"/>
 </g>
 <g id="layer5-46" style="display:none" transform="translate(160.47 -5.8175)">
  <rect id="rect3171-2" style="opacity:.1;filter:url(#filter3794-67);stroke:#fff;stroke-linecap:round;stroke-width:.5;fill:url(#linearGradient3613-3)" clip-path="url(#clipPath3613-26)" rx="12" ry="12" height="66" width="66" y="15" x="15"/>
 </g>
 <rect id="rect3745-82" style="opacity:.9;filter:url(#filter3174-1);display:none;fill:url(#linearGradient9285)" rx="6" ry="6" height="85" width="86" y="9.8358" x="-54.657"/>
</svg>
