<?xml version="1.0" encoding="UTF-8" standalone="no"?>
<!-- Created with Inkscape (http://www.inkscape.org/) -->
<svg id="svg3449" xmlns:rdf="http://www.w3.org/1999/02/22-rdf-syntax-ns#" xmlns="http://www.w3.org/2000/svg" height="128" width="128" version="1.0" xmlns:cc="http://creativecommons.org/ns#" xmlns:xlink="http://www.w3.org/1999/xlink" xmlns:dc="http://purl.org/dc/elements/1.1/">
 <metadata id="metadata56">
  <rdf:RDF>
   <cc:Work rdf:about="">
    <dc:format>image/svg+xml</dc:format>
    <dc:type rdf:resource="http://purl.org/dc/dcmitype/StillImage"/>
    <dc:title/>
   </cc:Work>
  </rdf:RDF>
 </metadata>
 <defs id="defs3451">
  <linearGradient id="linearGradient3514" y2="-9.1034" gradientUnits="userSpaceOnUse" x2="66.492" gradientTransform="matrix(.96826 0 0 .97948 2.179 .16587)" y1="-42.638" x1="67.952">
   <stop id="stop4620" style="stop-color:#37414b" offset="0"/>
   <stop id="stop4622" style="stop-color:#37414b;stop-opacity:0" offset="1"/>
  </linearGradient>
  <linearGradient id="linearGradient3516" y2="-11.847" gradientUnits="userSpaceOnUse" x2="58.98" gradientTransform="matrix(.96826 0 0 .97948 2.179 .16587)" y1="-118.55" x1="57.173">
   <stop id="stop4596" offset="0"/>
   <stop id="stop4598" style="stop-opacity:0" offset="1"/>
  </linearGradient>
  <linearGradient id="linearGradient3519" y2="50.369" gradientUnits="userSpaceOnUse" x2="76.558" gradientTransform="matrix(.96826 0 0 .97948 3.2423 -129.19)" y1="13.164" x1="76.558">
   <stop id="stop3392" style="stop-color:#425e7b" offset="0"/>
   <stop id="stop3394" style="stop-color:#7a91a7" offset="1"/>
  </linearGradient>
  <linearGradient id="linearGradient3521" y2="-8.7399" gradientUnits="userSpaceOnUse" x2="60.217" gradientTransform="matrix(.96826 0 0 .97948 2.179 .16587)" y1="-123.72" x1="60.395">
   <stop id="stop3392-4-8" style="stop-color:#425e7b" offset="0"/>
   <stop id="stop3394-8-0" style="stop-color:#7a91a7" offset="1"/>
  </linearGradient>
  <linearGradient id="linearGradient4157" y2="19.37" gradientUnits="userSpaceOnUse" x2="121.09" gradientTransform="matrix(.99119 0 0 1.0631 .39948 -2.5782)" y1="19.37" x1="6.5311">
   <stop id="stop71" style="stop-color:#3b2a1c" offset="0"/>
   <stop id="stop73" style="stop-color:#966b4f" offset="1"/>
  </linearGradient>
  <linearGradient id="linearGradient4192" y2="31.742" gradientUnits="userSpaceOnUse" x2="121.11" y1="31.742" x1="6.5334">
   <stop id="stop4188" style="stop-color:#fff" offset="0"/>
   <stop id="stop4190" style="stop-color:#fff;stop-opacity:0" offset="1"/>
  </linearGradient>
  <linearGradient id="linearGradient4200" y2="30.574" gradientUnits="userSpaceOnUse" x2="121.37" gradientTransform="translate(0 -.70013)" y1="30.574" x1="6.7939">
   <stop id="stop4196" offset="0"/>
   <stop id="stop4198" style="stop-opacity:0" offset="1"/>
  </linearGradient>
  <linearGradient id="linearGradient11577" y2="8.1" gradientUnits="userSpaceOnUse" y1="6.1438" x2="19.387" x1="19.49">
   <stop id="stop10999-9-0" offset="0"/>
   <stop id="stop11001-6-1" style="stop-opacity:0" offset="1"/>
  </linearGradient>
  <filter id="filter3198-5" color-interpolation-filters="sRGB" width="1.1734" y="-.10752" x="-.086712" height="1.215">
   <feGaussianBlur id="feGaussianBlur3200-3" stdDeviation="0.71710775"/>
  </filter>
  <linearGradient id="linearGradient13639" y2="5.4565" gradientUnits="userSpaceOnUse" x2="36.358" gradientTransform="matrix(0 3.8171 -6.1772 0 129.98 -37.908)" y1="8.059" x1="32.892">
   <stop id="stop8591-7-2-1" style="stop-color:#fefefe" offset="0"/>
   <stop id="stop8593-2-4-5" style="stop-color:#cbcbcb" offset="1"/>
  </linearGradient>
  <radialGradient id="radialGradient13643" gradientUnits="userSpaceOnUse" cy="-16.639" cx="2.6083" gradientTransform="matrix(-5.7453 2.452e-7 -2.5955e-7 -6.0905 124.78 -36.865)" r="23">
   <stop id="stop4003" style="stop-color:#c0bebe" offset="0"/>
   <stop id="stop4005" style="stop-color:#f2f7f7" offset="1"/>
  </radialGradient>
  <linearGradient id="linearGradient4169">
   <stop id="stop4171-0" style="stop-color:#e2f4c4" offset="0"/>
   <stop id="stop4173" style="stop-color:#fdfff5" offset="1"/>
  </linearGradient>
  <linearGradient id="linearGradient16352" y2="2.0118" xlink:href="#linearGradient4169" gradientUnits="userSpaceOnUse" x2="10.41" gradientTransform="matrix(6.4167 0 0 6.4167 -270.89 -29.269)" y1="13.991" x1="10.41"/>
  <linearGradient id="linearGradient6194-0-2" gradientUnits="userSpaceOnUse" gradientTransform="matrix(13.527 20.526 20.526 -13.527 19.19 1021.1)">
   <stop id="stop6196-2-5" style="stop-color:#fff" offset="0"/>
   <stop id="stop6198-6-8" style="stop-color:#29282b" offset=".16850"/>
   <stop id="stop6200-9-9" style="stop-color:#868c95" offset=".26374"/>
   <stop id="stop6202-28-6" style="stop-color:#92979f" offset=".39560"/>
   <stop id="stop6204-43-4" style="stop-color:#737881" offset=".54212"/>
   <stop id="stop6206-1-8" style="stop-color:#70757e" offset=".62637"/>
   <stop id="stop6208-00-8" style="stop-color:#e4e6e8" offset=".71795"/>
   <stop id="stop6210-9-6" style="stop-color:#fff" offset=".79121"/>
   <stop id="stop6212-0-7" style="stop-color:#1d191a" offset="1"/>
  </linearGradient>
  <linearGradient id="linearGradient137480-7">
   <stop id="stop137482-0" style="stop-color:#5a5a5a" offset="0"/>
   <stop id="stop137484-8" style="stop-color:#101010" offset="1"/>
  </linearGradient>
  <linearGradient id="linearGradient17718" y2="-13.206" xlink:href="#linearGradient137480-7" gradientUnits="userSpaceOnUse" x2="1011.5" gradientTransform="matrix(2.8947 0 0 6.6489 -2896.1 25.779)" y1="-13.206" x1="1013.5"/>
  <linearGradient id="linearGradient17720" y2="-13.206" xlink:href="#linearGradient137480-7" gradientUnits="userSpaceOnUse" x2="1011.5" gradientTransform="matrix(2.8947 0 0 6.6489 -2896.1 1.7174)" y1="-13.206" x1="1013.5"/>
  <linearGradient id="linearGradient17722" y2="-13.206" xlink:href="#linearGradient137480-7" gradientUnits="userSpaceOnUse" x2="1011.5" gradientTransform="matrix(2.8947 0 0 6.6489 -2896.1 51.717)" y1="-13.206" x1="1013.5"/>
  <linearGradient id="linearGradient17724" y2="-34.625" xlink:href="#linearGradient6194-0-2" gradientUnits="userSpaceOnUse" x2="1012.4" gradientTransform="matrix(2.5 0 0 2.5 -2495.8 1.8358)" y1="-34.625" x1="1004.3"/>
  <linearGradient id="linearGradient17726" y2="-34.625" xlink:href="#linearGradient6194-0-2" gradientUnits="userSpaceOnUse" x2="1012.4" gradientTransform="matrix(2.5 0 0 2.5 -2495.8 6.8358)" y1="-34.625" x1="1004.3"/>
  <linearGradient id="linearGradient17728" y2="-34.625" xlink:href="#linearGradient6194-0-2" gradientUnits="userSpaceOnUse" x2="1012.4" gradientTransform="matrix(2.5 0 0 2.5 -2495.8 25.897)" y1="-34.625" x1="1004.3"/>
  <linearGradient id="linearGradient17730" y2="-34.625" xlink:href="#linearGradient6194-0-2" gradientUnits="userSpaceOnUse" x2="1012.4" gradientTransform="matrix(2.5 0 0 2.5 -2495.8 30.897)" y1="-34.625" x1="1004.3"/>
  <linearGradient id="linearGradient17732" y2="-34.625" xlink:href="#linearGradient6194-0-2" gradientUnits="userSpaceOnUse" x2="1012.4" gradientTransform="matrix(2.5 0 0 2.5 -2495.8 56.836)" y1="-34.625" x1="1004.3"/>
  <linearGradient id="linearGradient17734" y2="-34.625" xlink:href="#linearGradient6194-0-2" gradientUnits="userSpaceOnUse" x2="1012.4" gradientTransform="matrix(2.5 0 0 2.5 -2495.8 51.836)" y1="-34.625" x1="1004.3"/>
 </defs>
 <rect id="rect892-2-7-1" style="opacity:.15891;stroke:#000;stroke-width:7.7512;fill:none" transform="scale(1,-1)" ry="28.993" height="114.35" width="114.22" y="-121.16" x="6.8687"/>
 <rect id="rect892-2-7-2" ry="29.452" style="stroke:#d3d3d3;stroke-width:9.8448;fill:#37414b" transform="scale(1,-1)" height="116.16" width="116.08" y="-122.08" x="5.9224"/>
 <rect id="rect892" style="stroke:url(#linearGradient3521);stroke-width:.97385;fill:url(#linearGradient3519)" transform="scale(1,-1)" ry="29.296" height="115.54" width="114.22" y="-122.25" x="7.0394"/>
 <rect id="rect892-2" style="stroke:url(#linearGradient3516);stroke-width:.97385;fill:url(#linearGradient3514)" transform="scale(1,-1)" ry="28.993" height="114.35" width="114.22" y="-121.46" x="7.0599"/>
 <path id="path4159-5" style="stroke:url(#linearGradient4192);stroke-width:1px;fill:none" d="m7.0334 31.742h113.58z"/>
 <path id="path4322" d="m120.09 74.559c-1.82 3.831-41.638 40.371-56.018 45.741-69.19 4.26-58.724-19.48-56.838-84.917 4.797-34.382 28.284-28.298 90.407-27.48 28.999 8.074 22.189 27.125 22.449 66.656z" style="fill-rule:evenodd;fill:url(#radialGradient13643)"/>
 <path id="path4891" d="m25.685 5.7862c3.6386-0.3502 2.8432 14.02 2.8432 14.02s16.093-0.84846 16.525 1.9543c3.85-3.268-16.654-16.76-19.368-15.974z" style="opacity:.3;fill-rule:evenodd;filter:url(#filter3198-5)" transform="matrix(0 2.6586 -4.0239 0 144.6 .66614)"/>
 <rect id="rect4086" style="fill:#d55051;fill-opacity:.36782" ry="0" height="96" width="1" y="23.078" x="33.625"/>
 <rect id="rect4088" style="fill:#d55051;fill-opacity:.36782" ry="0" height="96" width="1" y="23.078" x="38.711"/>
 <path id="path4141" style="fill:url(#linearGradient4157)" d="m7.3686 29.599 112.55 0.000001c0.25-5.661-7.83-22.658-22.998-23.171l-67.252 0.3737c-11.278-0.1758-19.267 11.619-22.301 22.797z"/>
 <rect id="rect892-2-7-8" style="opacity:.15891;stroke:#000;stroke-width:4.8445;fill:none" transform="scale(1,-1)" ry="28.993" height="114.35" width="114.22" y="-121.16" x="6.8687"/>
 <rect id="rect892-2-7-2-9" ry="28.346" style="stroke:#000;stroke-width:1.054;fill:none" transform="scale(1,-1)" height="113.83" width="114.13" y="-120.31" x="7.0675"/>
 <path id="path1187" style="fill:#fff;fill-opacity:.057143" d="m11.029 30.411c-4.0662 0-7.3909 3.6093-7.9298 8.2949-0.04334 0.71563-0.07674 1.4439-0.07674 2.1732v28.76c25.898-25.61 66.752-35.479 90.374-39.179-0.22473-0.02628-0.45986-0.03062-0.69067-0.03062-41.576 0.38742-43.653-0.01876-81.677-0.01875z"/>
 <path id="path4159" style="stroke:url(#linearGradient4200);fill:none" d="m7.2939 29.874h113.58z"/>
 <g id="g17906" transform="matrix(2.3438 0 0 2.2539 224.79 41.695)"></g>
 <path id="path12" style="fill:#485861" d="m71.985 46.5v1.1602h0.73588c2.1271 0 2.864 0.27225 3.5988 1.3538l7.0741 10.71-6.3006 9.3195c-0.543 0.774-1.704 2.551-5.571 2.551v1.2032h1.7135c-0.91386 5.048-2.1318 7.4985-8.2504 7.4985h-5.1028c-1.8177 0-1.8961-0.2695-1.8961-1.547v-10.286h3.4431c3.7514 0 4.1736 1.241 4.1736 4.5282h0.96685v-10.211h-0.96685c0 3.2872-0.42219 4.485-4.1736 4.485h-3.4431v-9.244c0-1.2762 0.0784-1.547 1.8961-1.547h4.947c5.9171 0 6.9226 2.128 7.5414 7.5038h0.96685l-1.0796-8.664h-17.833l-0.73051-8.5835h-23.553l-0.69827 8.664h0.92924c0.54144-6.2262 1.1216-7.5038 6.9613-7.5038 0.69613 0 1.7027-0.002 2.0895 0.075 0.81215 0.155 0.81107 0.5825 0.81107 1.472v20.304c0 1.315 0 1.853-4.0608 1.853h-1.547v1.2032c1.5856-0.115 5.4938-0.1175 7.2728-0.1175s5.7624 0.0025 7.348 0.1175v-1.2032h-1.547c-4.0608 0-4.0608-0.538-4.0608-1.853v-20.304c0-0.7735-0.003-1.317 0.6929-1.472 0.42542-0.0775 1.4728-0.075 2.2076-0.075 5.7703 0 6.3738 1.2822 6.913 7.4232h-2.8522v1.1602h0.88628c2.9779 0 3.0563 0.42875 3.0563 1.821v20.186c0 1.392-0.07842 1.8155-3.0563 1.8155h-0.88628v1.2032h22.2l1.418-8.7018h6.5101v-1.2032c-1.779-0.0375-2.4386-1.0815-2.4386-1.7775 0-0.34825 0.11602-0.50425 0.38674-0.9295l5.452-8.0785 6.1126 9.2012c0.07733 0.155 0.19338 0.30825 0.19338 0.42425 0 0.464-0.85082 1.1215-2.5138 1.16v1.2032c1.3536-0.115 4.1768-0.1175 5.6077-0.1175 1.6243 0 3.4033 0.04 5.0276 0.1175v-1.2032h-0.73588c-2.011 0-2.8243-0.1925-3.6364-1.391l-8.1215-12.295 5.3016-7.7348c0.81215-1.2375 2.1228-2.4752 5.5647-2.514v-1.1602h-9.2012v1.1602c1.547 0.0375 2.3956 0.8885 2.3956 1.778 0 0.38675-0.0784 0.461-0.34914 0.8865l-4.4045 6.499-4.9524-7.4232c-0.07733-0.115-0.26858-0.425-0.26858-0.58 0-0.464 0.84652-1.1215 2.4708-1.1602v-1.1602c-1.3149 0.115-4.1381 0.1125-5.6077 0.1125-1.1989 0-3.5967-0.035-5.0276-0.1125z"/>
 <path id="path4065" style="fill:#231b09;fill-opacity:.28736" d="m6.8008 53.64v1h113.98v-1h-113.98z"/>
 <path id="path4063" style="fill:#231b09;fill-opacity:.28736" d="m8.5685 70.265v1h112.43v-1h-112.43z"/>
 <path id="path4061" style="fill:#231b09;fill-opacity:.28736" d="m6.8749 86.89v1h90.75v-1h-90.75z"/>
 <path id="rect4090" style="fill:#231b09;fill-opacity:.28736" d="m9.3749 103.52v1h73v-1h-73z"/>
 <path id="rect75" style="fill:#fff;fill-opacity:.19608" d="m120.12 45.328h-111.56v1.1875h111.56v-1.1875z"/>
 <path id="rect877" style="fill-opacity:.19608" d="m120.66 44.14h-113.55v1.1875h113.55v-1.1875z"/>
 <path id="path4893" d="m71.481 80.399s4.2044 36.928-6.3762 39.33c9.39 0.11002 45.865-29.927 54.993-45.071-7.2413 5.3727-33.084 6.8755-48.617 5.7407z" style="fill:url(#linearGradient13639);fill-rule:evenodd"/>
 <path id="path5692_2_" style="fill-opacity:.39216" d="m55.877 88.486-3.9724 0.393v16.239l3.9288-0.5675v-6.9407l5.2384 7.683 4.1034-1.3098-5.3693-7.3772 5.413-6.9845-4.1907-0.9605-5.1947 6.9845 0.04365-7.159zm-8.9489 3.9722c-0.04453 0-0.09752 0.025-0.13097 0.045l-1.5279 1.5715c-0.06508 0.0675-0.09158 0.1825-0.04368 0.262l1.7898 2.9685c-0.32128 0.54025-0.55806 1.1318-0.7421 1.7458l-3.3176 0.69875c-0.09253 0.025-0.1746 0.08-0.1746 0.175v2.1827c0 0.0925 0.08548 0.195 0.1746 0.2175l3.2303 0.78575c0.17212 0.71175 0.43323 1.3882 0.78576 2.0078l-1.8771 2.838c-0.05213 0.08-0.02375 0.195 0.04368 0.262l1.5279 1.5275c0.06508 0.0625 0.18258 0.095 0.26192 0.045l2.9248-1.7895c0.57508 0.33175 1.1779 0.6085 1.8334 0.7855l0.69845 3.274c0.01925 0.095 0.08028 0.175 0.1746 0.175h2.1827c0.092 0 0.1963-0.085 0.21828-0.175l0.78576-3.274c0.67569-0.1825 1.3316-0.48225 1.9207-0.82925l2.8811 1.9208c0.07933 0.05 0.19458 0.025 0.26192-0.045l1.5279-1.528c0.06545-0.0675 0.09175-0.1825 0.04368-0.26175l-1.0477-1.7458-0.34922 0.13c-0.04973 0.025-0.10172 0-0.13097-0.045 0 0-0.66025-1.0002-1.5279-2.2702-1.0372 2.03-3.1508 3.4052-5.5876 3.4052-3.462 0-6.286-2.7802-6.286-6.2425 0-2.5467 1.5297-4.7372 3.7105-5.7185v-1.6152c-0.3969 0.14-0.77054 0.2815-1.135 0.4805h-0.04368l-2.9248-1.921c-0.03977-0.025-0.08642-0.0475-0.13092-0.0425z"/>
 <rect id="rect4898" style="fill:url(#linearGradient16352);display:none" height="141.17" width="141.17" y="-29.269" x="-270.89"/>
 <rect id="rect4126" style="fill:url(#linearGradient16352);display:none" height="141.17" width="141.17" y="-29.269" x="-270.89"/>
 <g id="g17690" transform="translate(6.7746 -4.6002)">
  <path id="path19526" style="opacity:.26260;fill:#d79f5d" d="m81.132 36.922c-0.9309-1.2434 1.9041-3.4326-1.481-4.0596 0.9309 1.254-1.8935 3.4326 1.481 4.0596"/>
  <rect id="rect4881" style="fill:url(#linearGradient17718)" transform="rotate(90)" ry=".64922" height="12.5" width="5.5" y="-64.414" x="32.078"/>
  <rect id="rect4869" ry=".64922" style="fill:url(#linearGradient17720)" transform="rotate(90)" height="12.5" width="5.5" y="-88.475" x="32.078"/>
  <rect id="rect4855" style="fill:url(#linearGradient17722)" transform="rotate(90)" ry=".64922" height="12.5" width="5.5" y="-38.475" x="32.078"/>
  <rect id="rect4833" style="fill-opacity:.23529" transform="rotate(90)" ry="1.0443" height="3.7" width="12.5" y="-81.575" x="24.078"/>
  <rect id="rect4829" ry=".83261" style="fill-opacity:.23529" transform="rotate(90)" height="2.95" width="12.5" y="-81.2" x="23.328"/>
  <rect id="rect4835" ry="1.0443" style="fill-opacity:.23529" transform="rotate(90)" height="3.7" width="12.5" y="-86.575" x="24.078"/>
  <rect id="rect4837" style="fill-opacity:.23529" transform="rotate(90)" ry=".83261" height="2.95" width="12.5" y="-86.2" x="23.328"/>
  <rect id="rect4839" style="fill-opacity:.23529" transform="rotate(90)" ry="1.0443" height="3.7" width="12.5" y="-62.514" x="24.078"/>
  <rect id="rect4841" ry=".83261" style="fill-opacity:.23529" transform="rotate(90)" height="2.95" width="12.5" y="-62.139" x="23.328"/>
  <rect id="rect4843" ry="1.0443" style="fill-opacity:.23529" transform="rotate(90)" height="3.7" width="12.5" y="-57.514" x="24.078"/>
  <rect id="rect4845" style="fill-opacity:.23529" transform="rotate(90)" ry=".83261" height="2.95" width="12.5" y="-57.139" x="23.328"/>
  <rect id="rect4847" style="fill-opacity:.23529" transform="rotate(90)" ry="1.0443" height="3.7" width="12.5" y="-36.575" x="24.078"/>
  <rect id="rect4849" ry=".83261" style="fill-opacity:.23529" transform="rotate(90)" height="2.95" width="12.5" y="-36.2" x="23.328"/>
  <rect id="rect4851" ry="1.0443" style="fill-opacity:.23529" transform="rotate(90)" height="3.7" width="12.5" y="-31.575" x="24.078"/>
  <rect id="rect4853" style="fill-opacity:.23529" transform="rotate(90)" ry=".83261" height="2.95" width="12.5" y="-31.2" x="23.328"/>
  <rect id="rect4202" ry=".49392" style="fill:url(#linearGradient17724)" transform="rotate(90)" height="1.75" width="12.5" y="-85.6" x="22.578"/>
  <rect id="rect4770" style="fill:url(#linearGradient17726)" transform="rotate(90)" ry=".49392" height="1.75" width="12.5" y="-80.6" x="22.578"/>
  <rect id="rect4774" ry=".49392" style="fill:url(#linearGradient17728)" transform="rotate(90)" height="1.75" width="12.5" y="-61.539" x="22.578"/>
  <rect id="rect4778" style="fill:url(#linearGradient17730)" transform="rotate(90)" ry=".49392" height="1.75" width="12.5" y="-56.539" x="22.578"/>
  <rect id="rect4786" style="fill:url(#linearGradient17732)" transform="rotate(90)" ry=".49392" height="1.75" width="12.5" y="-30.6" x="22.578"/>
  <rect id="rect4790" ry=".49392" style="fill:url(#linearGradient17734)" transform="rotate(90)" height="1.75" width="12.5" y="-35.6" x="22.578"/>
  <path id="path4819" style="fill-opacity:.23529" d="m84.319 22.578c-0.27363 0-0.46875 0.195-0.46875 0.46875v11.562c0 0.27375 0.19512 0.46875 0.46875 0.46875s0.54688-0.195 0.54688-0.46875v-11.562c0-0.27375-0.27324-0.46875-0.54688-0.46875z"/>
  <path id="path4821" style="fill-opacity:.23529" d="m60.258 22.578c-0.27363 0-0.46875 0.195-0.46875 0.46875v11.562c0 0.27375 0.19512 0.46875 0.46875 0.46875s0.54688-0.195 0.54688-0.46875v-11.562c0-0.27375-0.27324-0.46875-0.54688-0.46875z"/>
  <path id="path4825" style="fill-opacity:.23529" d="m34.319 22.578c-0.27364 0-0.46875 0.195-0.46875 0.46875v11.562c0 0.27375 0.19512 0.46875 0.46875 0.46875s0.54687-0.195 0.54687-0.46875v-11.562c0-0.27375-0.27324-0.46875-0.54687-0.46875z"/>
  <path id="path4827" style="fill-opacity:.23529" d="m29.319 22.578c-0.27364 0-0.46875 0.195-0.46875 0.46875v11.562c0 0.27375 0.19512 0.46875 0.46875 0.46875s0.54687-0.195 0.54687-0.46875v-11.562c0-0.27375-0.27324-0.46875-0.54687-0.46875z"/>
 </g>
 <g id="g17813" transform="translate(3.9203)">
  <rect id="rect4902" style="fill:#495961;fill-opacity:.53725" ry="0" height="1" width="5.75" y="37.399" x="57.205"/>
  <rect id="rect4904" style="fill:#495961;fill-opacity:.53725" ry=".5" height="1" width="5.75" y="37.399" x="68.455"/>
  <rect id="rect4906" style="fill:#495961;fill-opacity:.53725" ry="0" height="1" width="5.75" y="37.399" x="79.705"/>
  <rect id="rect4908" style="fill:#495961;fill-opacity:.53725" ry="0" height="1" width="5.75" y="37.399" x="90.955"/>
  <rect id="rect4910" style="fill:#495961;fill-opacity:.53725" ry="0" height="1" width="5.75" y="37.399" x="102.2"/>
  <rect id="rect4912" style="fill:#495961;fill-opacity:.53725" ry="0" height="1" width="5.75" y="37.399" x="45.955"/>
  <rect id="rect4914" style="fill:#495961;fill-opacity:.53725" ry="0" height="1" width="5.75" y="37.399" x="34.705"/>
  <rect id="rect4916" style="fill:#495961;fill-opacity:.53725" ry="0" height="1" width="5.75" y="37.399" x="23.455"/>
  <rect id="rect4918" style="fill:#495961;fill-opacity:.53725" ry="0" height="1" width="5.75" y="37.399" x="12.205"/>
  <rect id="rect4920" style="fill:#f9fafa;fill-opacity:.83978" ry="0" height="1" width="5.75" y="38.149" x="57.205"/>
  <rect id="rect4922" style="fill:#f9fafa;fill-opacity:.83978" ry=".5" height="1" width="5.75" y="38.149" x="68.455"/>
  <rect id="rect4924" style="fill:#f9fafa;fill-opacity:.83978" ry="0" height="1" width="5.75" y="38.149" x="79.705"/>
  <rect id="rect4926" style="fill:#f9fafa;fill-opacity:.83978" ry="0" height="1" width="5.75" y="38.149" x="90.955"/>
  <rect id="rect4928" style="fill:#f9fafa;fill-opacity:.83978" ry="0" height="1" width="5.75" y="38.149" x="102.2"/>
  <rect id="rect4930" style="fill:#f9fafa;fill-opacity:.83978" ry="0" height="1" width="5.75" y="38.149" x="45.955"/>
  <rect id="rect4932" style="fill:#f9fafa;fill-opacity:.83978" ry="0" height="1" width="5.75" y="38.149" x="34.705"/>
  <rect id="rect4934" style="fill:#f9fafa;fill-opacity:.83978" ry="0" height="1" width="5.75" y="38.149" x="23.455"/>
  <rect id="rect4936" style="fill:#f9fafa;fill-opacity:.83978" ry="0" height="1" width="5.75" y="38.149" x="12.205"/>
 </g>
</svg>
