<?xml version="1.0" encoding="UTF-8" standalone="no"?>
<!-- Created with Inkscape (http://www.inkscape.org/) -->
<svg id="svg3449" xmlns:rdf="http://www.w3.org/1999/02/22-rdf-syntax-ns#" xmlns="http://www.w3.org/2000/svg" height="128" width="128" version="1.0" xmlns:cc="http://creativecommons.org/ns#" xmlns:xlink="http://www.w3.org/1999/xlink" xmlns:dc="http://purl.org/dc/elements/1.1/">
 <metadata id="metadata56">
  <rdf:RDF>
   <cc:Work rdf:about="">
    <dc:format>image/svg+xml</dc:format>
    <dc:type rdf:resource="http://purl.org/dc/dcmitype/StillImage"/>
    <dc:title/>
   </cc:Work>
  </rdf:RDF>
 </metadata>
 <defs id="defs3451">
  <linearGradient id="linearGradient3514" y2="-9.1034" gradientUnits="userSpaceOnUse" x2="66.492" gradientTransform="matrix(.96826 0 0 .97948 2.179 .16587)" y1="-42.638" x1="67.952">
   <stop id="stop4620" style="stop-color:#37414b" offset="0"/>
   <stop id="stop4622" style="stop-color:#37414b;stop-opacity:0" offset="1"/>
  </linearGradient>
  <linearGradient id="linearGradient3516" y2="-11.847" gradientUnits="userSpaceOnUse" x2="58.98" gradientTransform="matrix(.96826 0 0 .97948 2.179 .16587)" y1="-118.55" x1="57.173">
   <stop id="stop4596" offset="0"/>
   <stop id="stop4598" style="stop-opacity:0" offset="1"/>
  </linearGradient>
  <linearGradient id="linearGradient3519" y2="50.369" gradientUnits="userSpaceOnUse" x2="76.558" gradientTransform="matrix(.96826 0 0 .97948 3.2423 -129.19)" y1="13.164" x1="76.558">
   <stop id="stop3392" style="stop-color:#425e7b" offset="0"/>
   <stop id="stop3394" style="stop-color:#7a91a7" offset="1"/>
  </linearGradient>
  <linearGradient id="linearGradient3521" y2="-8.7399" gradientUnits="userSpaceOnUse" x2="60.217" gradientTransform="matrix(.96826 0 0 .97948 2.179 .16587)" y1="-123.72" x1="60.395">
   <stop id="stop3392-4-8" style="stop-color:#425e7b" offset="0"/>
   <stop id="stop3394-8-0" style="stop-color:#7a91a7" offset="1"/>
  </linearGradient>
  <linearGradient id="linearGradient4326-3" y2="7.0165" gradientUnits="userSpaceOnUse" y1="92.54" gradientTransform="matrix(1.0059 0 0 .99417 -18.086 54.302)" x2="45.448" x1="45.448">
   <stop id="stop3750-77-4" offset="0"/>
   <stop id="stop3752-4-7" style="stop-opacity:.58824" offset="1"/>
  </linearGradient>
  <filter id="filter3174-16-2" color-interpolation-filters="sRGB">
   <feGaussianBlur id="feGaussianBlur3176-5-4" stdDeviation="1.71"/>
  </filter>
  <linearGradient id="linearGradient3904-7" y2="7.0165" gradientUnits="userSpaceOnUse" y1="92.54" gradientTransform="matrix(1.0059 0 0 .99417 -156.15 .80109)" x2="45.448" x1="45.448">
   <stop id="stop3750-84-9" offset="0"/>
   <stop id="stop3752-3-9" style="stop-opacity:.58824" offset="1"/>
  </linearGradient>
  <filter id="filter3174-5-0" color-interpolation-filters="sRGB">
   <feGaussianBlur id="feGaussianBlur3176-94-4" stdDeviation="1.71"/>
  </filter>
  <linearGradient id="linearGradient16955-6" y2="7.0165" gradientUnits="userSpaceOnUse" y1="92.54" gradientTransform="matrix(1.0059 0 0 .99417 -207.46 -7.6017)" x2="45.448" x1="45.448">
   <stop id="stop3750-5-2" offset="0"/>
   <stop id="stop3752-25-2" style="stop-opacity:.58824" offset="1"/>
  </linearGradient>
  <filter id="filter3174-7-7" color-interpolation-filters="sRGB">
   <feGaussianBlur id="feGaussianBlur3176-34-3" stdDeviation="1.71"/>
  </filter>
  <linearGradient id="linearGradient7720-4" y2="7.0165" gradientUnits="userSpaceOnUse" y1="92.54" gradientTransform="matrix(1.0059 0 0 .99417 75.661 -1.5)" x2="45.448" x1="45.448">
   <stop id="stop3750-4-1" offset="0"/>
   <stop id="stop3752-6-7" style="stop-opacity:.58824" offset="1"/>
  </linearGradient>
  <filter id="filter3174-3-0" color-interpolation-filters="sRGB">
   <feGaussianBlur id="feGaussianBlur3176-3-0" stdDeviation="1.71"/>
  </filter>
  <linearGradient id="linearGradient6422-6" y2="7.0165" gradientUnits="userSpaceOnUse" y1="92.54" gradientTransform="matrix(1.0059 0 0 .99417 158.64 4.6017)" x2="45.448" x1="45.448">
   <stop id="stop3750-58" offset="0"/>
   <stop id="stop3752-14" style="stop-opacity:.58824" offset="1"/>
  </linearGradient>
  <filter id="filter3174-9" color-interpolation-filters="sRGB">
   <feGaussianBlur id="feGaussianBlur3176-11" stdDeviation="1.71"/>
  </filter>
 </defs>
 <rect id="rect892-2-7-2" ry="29.452" style="stroke:#d3d3d3;stroke-width:9.8448;fill:#37414b" transform="scale(1,-1)" height="116.16" width="116.08" y="-122.08" x="5.9224"/>
 <rect id="rect892" style="stroke:url(#linearGradient3521);stroke-width:.97385;fill:url(#linearGradient3519)" transform="scale(1,-1)" ry="29.296" height="115.54" width="114.22" y="-122.25" x="7.0394"/>
 <rect id="rect892-2" style="stroke:url(#linearGradient3516);stroke-width:.97385;fill:url(#linearGradient3514)" transform="scale(1,-1)" ry="28.993" height="114.35" width="114.22" y="-121.46" x="7.0599"/>
 <g id="layer1-0" style="fill:#d43246" transform="matrix(2.5636 0 0 2.5636 2.4744 -2572.3)">
  <rect id="rect849-2" style="fill:#d43246" ry="10.607" height="43.689" width="43.689" y="1006.5" x="2.1555"/>
 </g>
 <rect id="rect892-2-7-8" style="opacity:.15891;stroke:#000;stroke-width:4.8445;fill:none" transform="scale(1,-1)" ry="28.993" height="114.35" width="114.22" y="-121.16" x="6.8687"/>
 <rect id="rect892-2-7-1" style="opacity:.15891;stroke:#000;stroke-width:7.7512;fill:none" transform="scale(1,-1)" ry="28.993" height="114.35" width="114.22" y="-121.16" x="6.8687"/>
 <rect id="rect892-2-7-2-9" ry="28.067" style="stroke:#000;stroke-width:1.0489;fill:none" transform="scale(1,-1)" height="112.71" width="114.14" y="-120.31" x="7.0649"/>
 <path id="path1187" style="fill:#fff;fill-opacity:.057143" d="m33.017 7.2319c-23.707 0-26.027 0.6738-25.93 26.295-0.04334 0.71563-0.07674 1.4439-0.07674 2.1732v32.76c18.67-38.321 38.34-51.497 90.374-61.179-0.225-0.026-0.46-0.0303-0.691-0.0303-41.576 0.3874-25.652-0.0188-63.676-0.0188z"/>
 <rect id="rect3745" style="opacity:.9;filter:url(#filter3174-9);display:none;fill:url(#linearGradient6422-6)" transform="matrix(2.3333 0 0 2.3333 8 8)" rx="6" ry="6" height="85" width="86" y="11.602" x="163.64"/>
 <rect id="rect3745-9" style="opacity:.9;filter:url(#filter3174-3-0);display:none;fill:url(#linearGradient7720-4)" transform="matrix(2.3333 0 0 2.3333 8 8)" rx="6" ry="6" height="85" width="86" y="5.5" x="80.661"/>
 <rect id="rect3745-3" style="opacity:.9;filter:url(#filter3174-7-7);display:none;fill:url(#linearGradient16955-6)" transform="matrix(2.3333 0 0 2.3333 8 8)" rx="6" ry="6" height="85" width="86" y="-.60169" x="-202.46"/>
 <rect id="rect3745-97" style="opacity:.9;filter:url(#filter3174-5-0);display:none;fill:url(#linearGradient3904-7)" transform="matrix(2.3333 0 0 2.3333 8 8)" rx="6" ry="6" height="85" width="86" y="7.8011" x="-151.15"/>
 <rect id="rect3745-5" style="opacity:.9;filter:url(#filter3174-16-2);display:none;fill:url(#linearGradient4326-3)" transform="matrix(2.3333 0 0 2.3333 8 8)" rx="6" ry="6" height="85" width="86" y="61.302" x="-13.086"/>
 <path id="path33646" style="fill:#fff" d="m36 86.339c-1.925-0.82394-5.405-3.3486-7.7334-5.6103-11.051-10.735-8.9917-29.058 4.1814-37.202 8.3406-4.2344 18.936-4.7026 25.701 0.01072 5.5947 3.9321 7.512 6.8914 13.864 21.398 2.8882 6.5965 6.1391 12.797 7.2242 13.779 1.2764 1.1551 3.5558 1.7855 6.4563 1.7855 5.2412 0 8.3067-2.8294 8.3067-7.667 0-2.561-0.62003-3.2116-4.75-4.9848-10.861-4.663-13.539-6.275-15.344-9.2347-3.5666-5.8491-1.9854-12.296 4.0064-16.333 5.5622-3.7484 12.734-2.6435 17.577 2.7079 1.9568 2.1622 1.9575 2.2123 0.0565 3.6024-2.4044 1.7582-3.5312 1.7352-5.9867-0.12212-3.0862-2.3342-7.2654-1.8457-9.1777 1.0728-2.7508 4.1982-0.7402 6.8437 7.2125 9.4902 3.816 1.2699 8.226 3.6095 10.182 5.4017 3.0554 2.8 3.4587 3.7569 3.5283 8.3699 0.15337 10.167-8.7696 16.833-19.769 14.77-6.3436-1.1901-9.8218-5.4311-16.192-19.743-3.2133-7.2192-7.0794-14.374-8.5914-15.9-7.6448-7.7135-21.267-5.5682-26.287 4.14-2.1468 4.1515-1.8736 12.747 0.53052 16.69 3.0761 5.0451 7.4937 7.2328 14.615 7.2371 5.7191 0.004 6.4033-0.2551 10.714-4.0498l4.605-4.0535 1.5498 3.7092c1.4157 3.3883 1.4071 3.8669-0.0991 5.5313-0.90689 1.0021-3.9266 2.957-6.7104 4.3443-5.8717 2.926-14.012 3.2823-19.669 0.86104z"/>
</svg>
