<?xml version="1.0" encoding="UTF-8" standalone="no"?>
<!-- Created with Inkscape (http://www.inkscape.org/) -->
<svg id="svg3449" xmlns:rdf="http://www.w3.org/1999/02/22-rdf-syntax-ns#" xmlns="http://www.w3.org/2000/svg" height="128" width="128" version="1.0" xmlns:cc="http://creativecommons.org/ns#" xmlns:xlink="http://www.w3.org/1999/xlink" xmlns:dc="http://purl.org/dc/elements/1.1/">
 <metadata id="metadata56">
  <rdf:RDF>
   <cc:Work rdf:about="">
    <dc:format>image/svg+xml</dc:format>
    <dc:type rdf:resource="http://purl.org/dc/dcmitype/StillImage"/>
    <dc:title/>
   </cc:Work>
  </rdf:RDF>
 </metadata>
 <defs id="defs3451">
  <linearGradient id="linearGradient3514" y2="-9.1034" gradientUnits="userSpaceOnUse" x2="66.492" gradientTransform="matrix(.96826 0 0 .97948 2.179 .16587)" y1="-42.638" x1="67.952">
   <stop id="stop4620" style="stop-color:#37414b" offset="0"/>
   <stop id="stop4622" style="stop-color:#37414b;stop-opacity:0" offset="1"/>
  </linearGradient>
  <linearGradient id="linearGradient3516" y2="-11.847" gradientUnits="userSpaceOnUse" x2="58.98" gradientTransform="matrix(.96826 0 0 .97948 2.179 .16587)" y1="-118.55" x1="57.173">
   <stop id="stop4596" offset="0"/>
   <stop id="stop4598" style="stop-opacity:0" offset="1"/>
  </linearGradient>
  <linearGradient id="linearGradient3519" y2="50.369" gradientUnits="userSpaceOnUse" x2="76.558" gradientTransform="matrix(.96826 0 0 .97948 3.2423 -129.19)" y1="13.164" x1="76.558">
   <stop id="stop3392" style="stop-color:#425e7b" offset="0"/>
   <stop id="stop3394" style="stop-color:#7a91a7" offset="1"/>
  </linearGradient>
  <linearGradient id="linearGradient3521" y2="-8.7399" gradientUnits="userSpaceOnUse" x2="60.217" gradientTransform="matrix(.96826 0 0 .97948 2.179 .16587)" y1="-123.72" x1="60.395">
   <stop id="stop3392-4-8" style="stop-color:#425e7b" offset="0"/>
   <stop id="stop3394-8-0" style="stop-color:#7a91a7" offset="1"/>
  </linearGradient>
  <linearGradient id="linearGradient11406" y2="19.812" gradientUnits="userSpaceOnUse" x2="15.25" gradientTransform="matrix(2.6667 0 0 4.341 -1.4969e-7 -5.0231)" y1="8.4375" x1="12.938">
   <stop id="stop6594-0-2" style="stop-color:#fff;stop-opacity:.27451" offset="0"/>
   <stop id="stop6596-2-5" style="stop-color:#fff;stop-opacity:0" offset="1"/>
  </linearGradient>
  <filter id="filter3174" color-interpolation-filters="sRGB">
   <feGaussianBlur id="feGaussianBlur3176" stdDeviation="1.71"/>
  </filter>
  <linearGradient id="ButtonShadow-4" x1="45.448" gradientUnits="userSpaceOnUse" y1="92.54" gradientTransform="scale(1.0059 .99417)" x2="45.448" y2="7.0165">
   <stop id="stop3750-7" offset="0"/>
   <stop id="stop3752-9" style="stop-opacity:.58824" offset="1"/>
  </linearGradient>
  <filter id="filter3174-7" color-interpolation-filters="sRGB">
   <feGaussianBlur id="feGaussianBlur3176-1" stdDeviation="1.71"/>
  </filter>
  <filter id="filter3174-0" color-interpolation-filters="sRGB">
   <feGaussianBlur id="feGaussianBlur3176-4" stdDeviation="1.71"/>
  </filter>
  <filter id="filter3174-9" color-interpolation-filters="sRGB">
   <feGaussianBlur id="feGaussianBlur3176-16" stdDeviation="1.71"/>
  </filter>
  <clipPath id="clipPath3613-6">
   <rect id="rect3615-0" style="fill:#fff" rx="6" ry="6" height="84" width="84" y="6" x="6"/>
  </clipPath>
  <linearGradient id="linearGradient3613-76" x1="48" gradientUnits="userSpaceOnUse" y1="20.221" x2="48" y2="138.66">
   <stop id="stop3739-24" style="stop-color:#fff" offset="0"/>
   <stop id="stop3741-2" style="stop-color:#fff;stop-opacity:0" offset="1"/>
  </linearGradient>
  <filter id="filter3794-83" height="1.384" width="1.384" color-interpolation-filters="sRGB" y="-.192" x="-.192">
   <feGaussianBlur id="feGaussianBlur3796-4" stdDeviation="5.28"/>
  </filter>
  <filter id="filter3174-4" color-interpolation-filters="sRGB">
   <feGaussianBlur id="feGaussianBlur3176-8" stdDeviation="1.71"/>
  </filter>
  <filter id="filter3174-8" color-interpolation-filters="sRGB">
   <feGaussianBlur id="feGaussianBlur3176-7" stdDeviation="1.71"/>
  </filter>
  <radialGradient id="radialGradient5000" gradientUnits="userSpaceOnUse" cy="41.752" cx="48" gradientTransform="matrix(1.7146 6.6255e-8 -4.2857e-8 1.1091 -378.27 -85.681)" r="42">
   <stop id="stop3739-6" style="stop-color:#fff" offset="0"/>
   <stop id="stop3741-7" style="stop-color:#fff;stop-opacity:0" offset="1"/>
  </radialGradient>
  <linearGradient id="linearGradient5033" y2="7.0165" gradientUnits="userSpaceOnUse" x2="45.448" gradientTransform="matrix(1.0059 0 0 .99417 -243.97 -80.599)" y1="92.54" x1="45.448">
   <stop id="stop3750-87" offset="0"/>
   <stop id="stop3752-4" style="stop-opacity:.58824" offset="1"/>
  </linearGradient>
  <filter id="filter3174-6" color-interpolation-filters="sRGB">
   <feGaussianBlur id="feGaussianBlur3176-6" stdDeviation="1.71"/>
  </filter>
  <radialGradient id="radialGradient68905" gradientUnits="userSpaceOnUse" cx="42.148" cy="45.647" r="58.984" gradientTransform="matrix(.94690 0 0 1.139 -73.792 205.85)">
   <stop id="stop44117-9" style="stop-color:#f0936d" offset="0"/>
   <stop id="stop44119-3" style="stop-color:#db4a16" offset="1"/>
  </radialGradient>
  <linearGradient id="linearGradient69023" y2="63.893" gradientUnits="userSpaceOnUse" x2="36.357" gradientTransform="matrix(1.2166 0 0 1.2299 -127.92 13.228)" y1="6" x1="36.357">
   <stop id="stop3739-9" style="stop-color:#fff" offset="0"/>
   <stop id="stop3741-0" style="stop-color:#fff;stop-opacity:0" offset="1"/>
  </linearGradient>
  <radialGradient id="radialGradient69288" gradientUnits="userSpaceOnUse" cy="8.4498" cx="7.4957" gradientTransform="matrix(1.1005e-7 6.6285 -14.004 -1.2212e-7 237.4 -38.96)" r="20">
   <stop id="stop5430-8" style="stop-color:#5f5f5f" offset="0"/>
   <stop id="stop5432-3" style="stop-color:#4f4f4f" offset=".26238"/>
   <stop id="stop5434-1" style="stop-color:#3b3b3b" offset=".70495"/>
   <stop id="stop5436-8" style="stop-color:#2b2b2b" offset="1"/>
  </radialGradient>
  <linearGradient id="linearGradient69290" y2="3.899" gradientUnits="userSpaceOnUse" x2="24" gradientTransform="matrix(5.6643 0 0 2.8363 -16.869 -3.6903)" y1="44" x1="24">
   <stop id="stop5440-4" style="stop-color:#272727" offset="0"/>
   <stop id="stop5442-3" style="stop-color:#454545" offset="1"/>
  </linearGradient>
  <linearGradient id="linearGradient69371" y2="24" gradientUnits="userSpaceOnUse" x2="18" gradientTransform="matrix(0,1,1,0,-10,10)" y1="24" x1="10">
   <stop id="stop3780" offset="0"/>
   <stop id="stop3786" style="stop-opacity:0" offset=".5"/>
   <stop id="stop3782-8" style="stop-color:#fff" offset="1"/>
  </linearGradient>
  <linearGradient id="linearGradient69373" y2="26" gradientUnits="userSpaceOnUse" x2="9" y1="22" x1="9">
   <stop id="stop3747" style="stop-color:#8a8a8a" offset="0"/>
   <stop id="stop3753" style="stop-color:#d5d5d5" offset=".40964"/>
   <stop id="stop3755" style="stop-color:#6f6f6f" offset=".72741"/>
   <stop id="stop3749" style="stop-color:#373737" offset="1"/>
  </linearGradient>
  <linearGradient id="linearGradient69375" y2="24" spreadMethod="reflect" gradientUnits="userSpaceOnUse" x2="12" y1="24" x1="4">
   <stop id="stop3763" offset="0"/>
   <stop id="stop3769" style="stop-opacity:.19380" offset=".5"/>
   <stop id="stop3765" style="stop-opacity:0" offset="1"/>
  </linearGradient>
  <linearGradient id="linearGradient5337" y2="107.87" gradientUnits="userSpaceOnUse" x2="110.32" y1="12.251" x1="41">
   <stop id="stop5333" style="stop-color:#947f62" offset="0"/>
   <stop id="stop5335" style="stop-color:#7d6a50" offset="1"/>
  </linearGradient>
  <linearGradient id="linearGradient5369" y2="37.621" gradientUnits="userSpaceOnUse" x2="74.523" y1="89.247" x1="76.867">
   <stop id="stop5365" offset="0"/>
   <stop id="stop5367" style="stop-opacity:0" offset="1"/>
  </linearGradient>
 </defs>
 <rect id="rect892-2-7-2" ry="29.452" style="stroke:#d3d3d3;stroke-width:9.8448;fill:#37414b" transform="scale(1,-1)" height="116.16" width="116.08" y="-122.08" x="5.9224"/>
 <rect id="rect892" style="stroke:url(#linearGradient3521);stroke-width:.97385;fill:url(#linearGradient3519)" transform="scale(1,-1)" ry="29.296" height="115.54" width="114.22" y="-122.25" x="7.0394"/>
 <rect id="rect892-2" style="stroke:url(#linearGradient3516);stroke-width:.97385;fill:url(#linearGradient3514)" transform="scale(1,-1)" ry="28.993" height="114.35" width="114.22" y="-121.46" x="7.0599"/>
 <rect id="rect810" style="fill:url(#linearGradient5337)" ry="26.957" height="111.04" width="111.44" y="8.1211" x="8.145"/>
 <path id="rect6588" d="m7.2651 40.702c-3.6107-28.823 22.731-33.361 32.668-33.437l55.816 0.735c21.091 2.903 26.611 16.187 24.251 34.728l-112 30.388z" style="fill:url(#linearGradient11406)"/>
 <rect id="rect892-2-7-8" style="opacity:.15891;stroke:#000;stroke-width:4.8445;fill:none" transform="scale(1,-1)" ry="28.993" height="114.35" width="114.22" y="-121.16" x="6.8687"/>
 <path id="rect5505-21-3" d="m36.942 9.0732v110.62c-8.726-0.85-31.23-10.12-28.987-28.427l0.0369-57.542c0.5095-14.175 13.797-24.129 28.95-24.648z" style="stroke-linejoin:round;stroke-width:3.9092;color:#000000;stroke:url(#linearGradient69290);stroke-linecap:round;fill:url(#radialGradient69288)"/>
 <rect id="rect892-2-7-1" style="opacity:.15891;stroke:#000;stroke-width:7.7512;fill:none" transform="scale(1,-1)" ry="28.993" height="114.35" width="114.22" y="-121.16" x="6.8687"/>
 <rect id="rect892-2-7-2-9" ry="28.067" style="stroke:#000;stroke-width:1.0489;fill:none" transform="scale(1,-1)" height="112.71" width="114.14" y="-120.31" x="7.0649"/>
 <path id="path1187" style="fill:#fff;fill-opacity:.057143" d="m33.017 7.2319c-23.707 0-26.027 0.6738-25.93 26.295-0.04334 0.71563-0.07674 1.4439-0.07674 2.1732v32.76c18.67-38.321 38.34-51.497 90.374-61.179-0.225-0.026-0.46-0.0303-0.691-0.0303-41.576 0.3874-25.652-0.0188-63.676-0.0188z"/>
 <g id="layer2" style="display:none" transform="matrix(1.2166 0 0 1.2299 5.6049 3.1187)">
  <rect id="rect3745" style="opacity:.9;filter:url(#filter3174);fill:url(#ButtonShadow-4)" rx="6" ry="6" height="85" width="86" y="7" x="5"/>
 </g>
 <g id="layer2-6" style="display:none" transform="matrix(1.2166 0 0 1.2299 5.6049 3.1187)">
  <rect id="rect3745-8" style="opacity:.9;filter:url(#filter3174-7);fill:url(#ButtonShadow-4)" rx="6" ry="6" height="85" width="86" y="7" x="5"/>
 </g>
 <g id="layer2-69" style="display:none" transform="matrix(1.2166 0 0 1.2299 5.6049 3.1187)">
  <rect id="rect3745-4" style="opacity:.9;filter:url(#filter3174-0);fill:url(#ButtonShadow-4)" rx="6" ry="6" height="85" width="86" y="7" x="5"/>
 </g>
 <g id="layer2-64" style="display:none" transform="translate(-349.33 -29.687)">
  <rect id="rect3745-6" style="opacity:.9;filter:url(#filter3174-9);fill:url(#ButtonShadow-4)" rx="6" ry="6" height="85" width="86" y="7" x="5"/>
 </g>
 <g id="layer2-0" style="display:none" transform="matrix(1.2166 0 0 1.2299 5.6049 3.1187)">
  <rect id="rect3745-7" style="opacity:.9;filter:url(#filter3174-4);fill:url(#ButtonShadow-4)" rx="6" ry="6" height="85" width="86" y="7" x="5"/>
 </g>
 <g id="layer5-3" style="display:none" transform="matrix(1.2166 0 0 1.2299 5.6049 3.1187)">
  <rect id="rect3171-2" style="opacity:.1;filter:url(#filter3794-83);stroke:#fff;stroke-linecap:round;stroke-width:.5;fill:url(#linearGradient3613-76)" clip-path="url(#clipPath3613-6)" rx="12" ry="12" height="66" width="66" y="15" x="15"/>
 </g>
 <rect id="rect3745-75" style="opacity:.9;filter:url(#filter3174-8);display:none;fill:url(#linearGradient5033)" rx="6" ry="6" height="85" width="86" y="-73.599" x="-238.97"/>
 <path id="path3522" d="m-307.69-74.517c1.6501 2.2167 0.11258 5.9183 2.6015 5.8816 1.2119 1.714-2.4154 0.5113 0.20359 1.8323 1.5061 1.1866-1.5934 1.8645 0.27179 2.9294-2.1497 1.1097 0.34845 5.804 1.9451 6.9788 2.628 2.2132 1.1622-4.6857 4.0945-5.0446 1.5934-1.8197 4.3918-2.9878 6.3793-4.8184-1.9423-0.15774-3.0765-1.3671-1.237-2.1163 3.3855 3.4704 0.84891-1.6435-1.0251-2.4532 1.8134-0.57705 3.577-0.15448 3.3254-1.6514 1.9163-1.4025-1.8423-1.8553-3.1839-1.5383h-13.375zm-27.802 1.4478c-2.4498 0.6982-2.6206 6.5549-0.15835 3.3027 0.60434-1.3354 3.3971-2.9447 0.15835-3.3027zm11.446 0.20359c-1.4123 2.2153 0.20491 3.9915 1.3799 1.2894 0.83171-1.1283-0.61793-1.2481-1.3799-1.2894zm3.529 0.49767c-2.7288 1.2652-0.6726 4.2156-0.60506 4.8717 2.8746 0.99483 4.4732-0.65044 5.5607 2.1615 2.7352 1.5769-0.0538 4.3171-1.0806 5.0307 1.8493-1.6112 5.4042 4.3805 4.4722 1.2149-1.1118-0.81208 2.9852 1.3046 0.85962-1.3347-1.9561-3.1527 0.15527-1.4114 0.97995-0.67561 2.8049-2.5161-3.1736-2.8202-1.6812-5.4096-1.3078-1.0596-3.0229-4.2695-5.3387-3.6421-1.5502 2.0056-0.21416-4.37-2.4886-1.1796-0.11789 1.7834-0.0429 4.0465-0.70571 0.95682-0.44407-0.54087 0.764-1.7983 0.0273-1.9942zm-5.5649 0.02262c-1.8316 0.61085-1.7332 3.0865 0.51896 3.3519 0.77143-0.87963 0.30649-3.1853-0.51896-3.3519zm-7.1484 0.79175c-2.3791 0.56388-1.408 2.4829-0.67958 3.0233-2.9449 0.73792 4.4957 0.94313 0.79269 1.4105-3.0808 1.2308 2.9667 2.6809 3.9588 1.2216 3.8044 0.93074 0.13691-3.0465-0.19704-5.2025-1.6128-1.7315-0.0637 3.9915-1.5219 0.18441-0.50878 1.1305-2.1265 0.1666-2.353-0.63725zm75.601 0.24884c-3.1924 1.2499 1.9842 5.9664 0.69764 1.6755-0.12817-0.51812 0.2882-1.8871-0.69764-1.6755zm-66.666 1.9002c-2.2941 2.1567 2.916 3.9402-0.6589 5.5469-0.53601-2.0029-1.4583 1.0021-3.5035-0.61542-3.5159 1.4645-5.3139-0.76283-8.2575-2.2896-1.768-0.22016-1.1038 1.6805-1.2209 3.4602v14.755c1.7335 1.8245 0.67633 0.80498 0 0.30175 0.95147 3.2416-0.41957 7.9802 3.3308 9.8658 0.63757 1.183 3.3129 6.2231 3.4362 4.715-1.3412-1.4051-2.7174-5.6174-0.44789-1.863 2.0328 3.5688 4.7748 5.8835 8.7805 6.7328 2.1901 0.74522 3.9912 3.307 5.9171 2.7433 1.089 2.872-3.2274 5.6299 0.14491 8.3086 1.7605 2.7118 4.7162 4.4904 3.116 8.2976-1.1191 3.7183-0.63992 7.7697-1.6078 11.234-0.3004 2.1087 2.938 7.461 2.6575 3.1751 0.94557-2.9784 0.92064-6.2556 3.1476-8.3648 3.0471 0.02413 0.58237-3.2778 3.607-2.8464 1.8456-2.4201 2.3802-5.3071 5.4949-6.2681 0.37204-2.9376 5.1788-7.4366 0.21313-8.5803-1.3496-0.66545-4.8245-0.90473-4.559-1.2331 0.53804-2.9149-4.4935-3.7447-6.6342-4.9373-2.8108-1.9958-7.0342 3.3156-8.0245-1.261-0.59087-1.4399-2.7513-1.4633-1.7584-3.6852-1.7894 1.7803-5.2893 1.2392-4.373-2.1989 1.3916-2.8956 6.7356-3.0326 7.6463 0.45028-1.2644-3.8412 2.4439-6.8314 4.5025-9.5642 0.41916-1.3062 2.9097-2.4284 2.0527-0.69242 1.4602-0.05269 3.6733-2.6886 1.0794-1.472-0.0367-2.4039-2.273-1.7203-2.998-1.3789 1.3438-2.1336 8.245-0.96713 5.3551-4.4546-2.2393-0.90768-2.053-6.2044-4.318-3.2536 0.19059-1.8181-4.61-5.3771-4.5053-2.3283 0.58599 2.7281 0.10714 5.8709-1.1399 7.6591-0.26025-3.9976-7.0757-3.1141-6.1994-7.374 1.2694-2.0303 2.7528-4.8379 2.8942-4.5853 2.275-0.86894 4.1046-3.3965 1.4678-5.0581-0.14091 1.4482-1.983 4.4361-1.7237 0.82232-1.7058 2.0232-1.3162-3.2194-2.9138-3.7631zm54.45 1.4025c-3.9959 0.97784-5.5801 4.7958-7.5568 7.9582-2.9139 1.3142-2.8029 6.9583 0.45241 5.1557 0.87128 1.5223-0.60951 3.9217 1.9283 1.9312 2.047-2.7099 0.35794-7.0928 3.8414-8.8015 0.25373 1.3286-3.2133 6.2899 0.837 5.4744 3.6616 0.13821-2.6619 0.36497-0.88101 2.7047-1.8503-1.0982-0.88882 2.9993-3.304 2.0458-2.0923 1.1385-3.4643-0.52863-2.985-2.355-1.646 0.96057 0.51769 3.6704-2.3396 3.8333-0.64004 2.2737-5.9034 1.931-2.9102 4.2462 1.3289 3.4454-4.9515 0.21599-3.1685 4.3505 1.5254 4.0884 4.7224-1.3547 6.0194-2.4063 2.5025-1.9419 6.2107 3.3111 3.9588 3.5063 2.5251-0.33891 2.0062-2.7412-0.017-3.6713-1.0927-2.8349 3.459 1.3903 3.2066 2.8117 1.6059 3.0083 0.94461-3.0801 2.5788-0.38456-0.1908 2.8434 6.5742 0.66856 3.3444 4.2924-2.7769 0.55951-5.5101-0.71614-7.9008 0.10093-2.2251-0.01969-2.1135-2.398-2.9236-2.9935-2.8304 0.23004-6.3279 0.20403-8.2228 2.4914-2.049 2.8123-5.0038 6.7438-2.7705 10.335 2.2349 5.3215 7.7772 0.27603 10.963 3.4188 0.94693 1.3104-0.8206 2.868 1.2967 4.2874 0.7967 3.0235-0.90449 5.8943 1.0523 8.7846 1.0118 2.7182 1.6398 6.7866 5.4058 4.3028 3.9858-2.3994 2.9242-6.8227 6.2129-9.2726-2.6023-5.0381 3.1836-7.2471 4.6272-11.337-3.1539 0.46191-5.9638-2.6838-6.7258-5.8499-1.3249-1.5379-0.98367-3.8055 0.49633-0.91647 2.0343 1.9719 2.0782 7.8231 5.8413 4.813 1.7204-0.71984 6.4186-3.4657 2.6751-4.7153-2.413 1.7484-5.0752-5.2243-1.5318-1.18 2.576 1.0933 4.38 1.7447 4.38-1.8801v-29.497c-0.8024 0.82028-2.8638 2.3352-3.9043 1.3286-1.7904 0.24941-4.1539 3.7343-3.5912 0.36554-1.5562-0.10309-0.27859 3.0205-2.4166 3.1079-0.21529 1.6059-2.1599 0.29738-1.4294 1.8224-1.5006-1.0649-2.7707-4.427 0.18614-2.3167 4.391-1.3178-2.8956-4.2904-3.458-5.0089 0.94545-0.22662-1.0286-1.2122-1.2668-0.88224zm-36.24 0.88224c-1.4615 1.2182 2.7785 1.4476 0 0zm-19.522 0.65602c-1.6346 1.7105 2.6033 1.5724 0 0zm9.4784 1.6966c-1.2379 2.0286 1.829 0.74894 0 0zm27.101 2.3979c-1.4492 1.6691-3.362-0.43926-3.3932 0.99535 0.26265 0.43347 1.3147 3.5273 3.6194 1.2442 1.237-0.52171 0.74997-1.8369-0.22621-2.2395zm-30.856 0.99535c-2.7488 2.4015 4.6683 2.6227 0.58232 0.27543l-0.58232-0.27543zm36.262 6.6507c-1.9791 1.291 0.94944 4.0328-0.0431 5.3207-1.2401 2.1615 4.6083-0.15226 1.4846-1.8768-0.22257-1.4816-1.83-3.2894-1.4415-3.444zm-1.3347 2.6015c-2.7574 0.77986-0.62597 4.8062 0.35065 1.014 0.055-0.21986 0.12936-1.0214-0.35065-1.014zm-22.079 2.9182c-2.5652 1.7498-0.39843 3.4964 1.4816 2.7091-0.38595-1.0558-1.4642-1.721-1.4816-2.7091zm48.455 2.9408c1.28 0.6462-2.3455 1.7501-0.0498 2.8874 1.336 1.5717 0.83231 4.9455-1.3392 2.5576 0.40344-2.666-2.9436-4.657 1.389-5.445zm-6.5829 0.02262c-0.17366 1.7128 3.694 4.3751-0.47504 3.5063-2.2048 0.25872-5.507-0.06739-2.7294-2.8157 0.87765-0.52708 3.1821 1.8185 1.9829-0.37395 0.42514-0.02713 0.82107-0.18767 1.2216-0.3167zm-12.736 3.7099c-1.6081 1.0364 1.112 1.8311 0 0zm-40.379 9.6594c-0.2711 0.9048 5.086 1.8218 1.3893 0.37215l-0.55107-0.19405-0.83824-0.1781zm4.1624 1.2894c-1.6249 1.6502 3.3478 0.49302 0 0zm54.337 15.134c-3.5307 0.09113-3.0613 9.2016-0.60013 3.8108 0.2334-1.1698 1.1689-2.7138 0.60013-3.8108z" style="opacity:.2;fill:url(#radialGradient5000)"/>
 <g id="layer2-01" style="display:none" transform="translate(-314.29 59.754)">
  <rect id="rect3745-1" style="opacity:.9;filter:url(#filter3174-6);fill:url(#ButtonShadow-4)" rx="6" ry="6" height="85" width="86" y="7" x="5"/>
 </g>
 <path id="rect3728" d="m-113.32 20.607c-4.6841-0.16647-7.9912 4.6034-7.2994 9.0477 0.0221 29.163-0.0442 58.328 0.0331 87.49-1.0446 2.8268 5.4663 7.1448 3.9968 5.8152-3.8994-2.4461-2.5816-7.4071-2.8133-11.263 0.0208-27.704-0.0415-55.41 0.0311-83.113 0.25414-4.0085 4.3958-6.0784 7.9767-5.5167 25.52 0.02106 51.042-0.04206 76.561 0.03147 3.965 0.25693 6.0124 4.444 5.4568 8.0643-0.02847 29.09 0.05706 58.184-0.04282 87.272 0.50237 2.9902-6.2688 6.7991-1.3233 3.6789 3.7273-3.0954 2.2982-8.2542 2.5826-12.481-0.02506-27.467 0.05-54.937-0.03759-82.403-0.3053-4.5928-4.9895-7.2561-9.1869-6.6229h-75.935z" style="opacity:.25;fill:url(#linearGradient69023)"/>
 <g id="layer4" transform="matrix(1.2166 0 0 1.2299 -1.1345 3.5399)">
  <g id="g3799">
   <path id="path3773" style="opacity:.3;fill:url(#linearGradient69371)" d="m10 24c0-2.2091 1.7909-4 4-4s4 1.7909 4 4-1.7909 4-4 4-4-1.7909-4-4zm1 0c0 1.6569 1.3431 3 3 3s3-1.3431 3-3-1.3431-3-3-3-3 1.3431-3 3z"/>
   <path id="path3792" style="opacity:.3" d="m6 21v7h8c1.6464 0 3-1.5792 3-3.5 0-1.921-1.354-3.5-3-3.5h-8z"/>
   <path id="path3771" style="opacity:.6" d="m17 24a3 3 0 1 1 -6 0 3 3 0 1 1 6 0z"/>
   <rect id="rect3733" style="fill:url(#linearGradient69373)" rx="2" ry="2" height="4" width="12" y="22" x="4"/>
   <rect id="rect3759" style="opacity:.6;fill:url(#linearGradient69375)" rx="2" ry="2" height="4" width="12" y="22" x="4"/>
  </g>
  <use id="use3806" xlink:href="#g3799" transform="translate(0,12)" height="96" width="96" y="0" x="0"/>
  <use id="use3808" xlink:href="#g3799" transform="translate(0,24)" height="96" width="96" y="0" x="0"/>
  <use id="use3810" xlink:href="#g3799" transform="translate(0,36)" height="96" width="96" y="0" x="0"/>
  <use id="use3812" xlink:href="#g3799" transform="translate(0,48)" height="96" width="96" y="0" x="0"/>
 </g>
 <path id="rect895-7" style="fill:url(#radialGradient68905)" d="m-44.336 243c-7.9694-2.4493-27.013 15.175-25.653 23.038-0.05014 0.97378-0.08877 1.9648-0.08877 2.9572v52.419c0 20.876 10.712 33.859 22.318 33.859h67.038c12.638 0 24.318-11.245 24.318-25.859v-64.017c0.69568-10.93-21.287-24.662-25.93-22.621-47.846 0.86545-18.017 0.2237-62.003 0.22371z"/>
 <rect id="rect3650" style="opacity:.15;fill:#fff" height="112.16" width="1.2166" y="8.528" x="37.488"/>
 <rect id="rect3648" style="opacity:.4" height="112.16" width="1.2166" y="8.528" x="36.271"/>
 <path id="path5343-7" style="fill-opacity:.47727" d="m42.022 106.22c0-4.3333 0.11111-4.5 3-4.5 2.4788 0 2.9798-0.39089 2.884-2.25-0.0873-1.6932-0.22918-1.8169-0.57333-0.5-0.27707 1.0603-1.4138 1.75-2.884 1.75-1.9218 0-2.4267-0.52014-2.4267-2.5 0-1.5556 0.56667-2.5 1.5-2.5 1.3016 0 1.5-4.1667 1.5-31.5s-0.19841-31.5-1.5-31.5c-0.93333 0-1.5-0.94444-1.5-2.5 0-1.9799 0.50489-2.5 2.4267-2.5 1.4702 0 2.6069 0.68974 2.884 1.75 0.34415 1.3169 0.48603 1.1932 0.57333-0.5 0.0958-1.8591-0.40519-2.25-2.884-2.25-2.8333 0-3-0.22222-3-4 0-4 0-4 4-4 3.7778 0 4 0.16667 4 3 0 2.4788 0.39089 2.9798 2.25 2.884 1.6932-0.08729 1.8169-0.22918 0.5-0.57332-1.0603-0.27708-1.75-1.4138-1.75-2.884 0-1.9218 0.52014-2.4267 2.5-2.4267 1.5556 0 2.5 0.56667 2.5 1.5 0 1.2857 3 1.5 21 1.5s21-0.21429 21-1.5c0-0.93333 0.94444-1.5 2.5-1.5 1.8333 0 2.5 0.53333 2.5 2 0 1.1111-0.66667 2-1.5 2-0.825 0-1.5 0.45-1.5 1s0.9 1 2 1c1.5556 0 2-0.66667 2-3 0-2.8333 0.22222-3 4-3 4 0 4 0 4 4 0 3.7778-0.16667 4-3 4-2.3333 0-3 0.44444-3 2 0 1.1 0.45 2 1 2s1-0.675 1-1.5c0-0.83333 0.88889-1.5 2-1.5 1.4667 0 2 0.66667 2 2.5 0 1.5556-0.56667 2.5-1.5 2.5-1.3016 0-1.5 4.1667-1.5 31.5s0.19841 31.5 1.5 31.5c0.93333 0 1.5 0.94444 1.5 2.5 0 1.8333-0.53333 2.5-2 2.5-1.1111 0-2-0.66667-2-1.5 0-0.825-0.45-1.5-1-1.5s-1 1.125-1 2.5c0 2.1111 0.46667 2.5 3 2.5 2.7619 0 3 0.27778 3 3.5 0 3.4167-0.0952 3.5-4 3.5-3.7778 0-4-0.16667-4-3 0-2.3333-0.44444-3-2-3-1.1 0-2 0.45-2 1s0.675 1 1.5 1c0.83333 0 1.5 0.88889 1.5 2 0 1.4667-0.66667 2-2.5 2-1.5556 0-2.5-0.56667-2.5-1.5 0-1.2857-3-1.5-21-1.5-20.333 0-21 0.0635-21 2 0 1.4667-0.66667 2-2.5 2-1.9865 0-2.5-0.50331-2.5-2.4503 0-1.3477 0.7875-2.909 1.75-3.4696 1.5629-0.91029 1.5094-1.0225-0.5-1.0497-1.9106-0.0258-2.25 0.49762-2.25 3.4696 0 3.4167-0.0952 3.5-4 3.5h-4zm6 0c0-1.8333-0.53333-2.5-2-2.5s-2 0.66667-2 2.5 0.53333 2.5 2 2.5 2-0.66667 2-2.5zm63 0c0-2-0.5-2.5-2.5-2.5s-2.5 0.5-2.5 2.5 0.5 2.5 2.5 2.5 2.5-0.5 2.5-2.5zm-13-1.5c0-0.55-0.7063-1-1.5696-1-2.234 0-1.425-4.3853 0.89043-4.8268 1.1784-0.22468 2.0134 0.38921 2.3666 1.7398 0.80728 3.087 4.3125 2.7513 4.3125-0.41303 0-1.6048-0.56203-2.5-1.5696-2.5-2.5708 0-1.3553-4.4397 1.3196-4.8195 1.5134-0.21494 2.25 0.1943 2.25 1.25 0 0.86325 0.45 1.5696 1 1.5696 0.6455 0 1-11.167 1-31.5s-0.3545-31.5-1-31.5c-0.55 0-1 0.675-1 1.5 0 0.93333-0.94444 1.5-2.5 1.5-2 0-2.5-0.5-2.5-2.5 0-1.5556 0.56667-2.5 1.5-2.5 0.83333 0 1.5-0.88889 1.5-2 0-2.3858-3.4847-2.7853-4.3616-0.5-0.31658 0.825-1.4897 1.5-2.607 1.5-1.5001 0-2.0314-0.65379-2.0314-2.5 0-1.5556 0.56667-2.5 1.5-2.5 0.825 0 1.5-0.51738 1.5-1.1497 0-0.82991-2.5463-0.969-9.1536-0.5-5.0345 0.35736-14.597 0.70194-21.25 0.76574s-11.309 0.3218-10.346 0.57332c1.0603 0.27708 1.75 1.4138 1.75 2.884 0 1.9218-0.52014 2.4267-2.5 2.4267-1.5556 0-2.5-0.56667-2.5-1.5 0-0.83333-0.88889-1.5-2-1.5-1.3333 0-2 0.66667-2 2 0 1.1111 0.66667 2 1.5 2 0.93333 0 1.5 0.94444 1.5 2.5 0 1.9799-0.50489 2.5-2.4267 2.5-1.4702 0-2.6069-0.68974-2.884-1.75-0.25153-0.9625-0.45733 12.65-0.45733 30.25s0.2058 31.213 0.45733 30.25c0.27707-1.0603 1.4138-1.75 2.884-1.75 1.9218 0 2.4267 0.52014 2.4267 2.5 0 1.5556-0.56667 2.5-1.5 2.5-0.83333 0-1.5 0.88889-1.5 2 0 1.3333 0.66667 2 2 2 1.1111 0 2-0.66667 2-1.5 0-0.93332 0.94444-1.5 2.5-1.5 2 0 2.5 0.5 2.5 2.5 0 1.5556-0.56667 2.5-1.5 2.5-0.825 0-1.5 0.45-1.5 1 0 0.63492 7.6667 1 21 1s21-0.36508 21-1zm-34.583-20.753c0.30269-0.9625 1.66-5.465 3.0163-10.006l2.466-8.2556-2.3827-2.3827c-7.7008-7.7008-1.1358-20.599 10.485-20.599 12.497 0 18.214 12.368 9.934 21.494-1.7574 1.9371-1.7419 2.3164 0.48272 11.75l2.2988 9.7483h-13.425c-12.329 0-13.38-0.14291-12.875-1.75zm21.584-2.3334c0-0.59586-0.9169-4.6745-2.0376-9.0637l-2.0376-7.9803 3.0376-2.8375c7.6882-7.1818-0.14363-18.441-10.459-15.036-4.2272 1.3951-6.5031 4.3821-6.5031 8.535 0 3.0031 2.5696 6.8226 5.174 7.6907 0.98434 0.32811 0.64544 2.5694-1.4439 9.5491-1.5016 5.0162-2.7301 9.3692-2.7301 9.6733 0 0.30411 3.825 0.55293 8.5 0.55293 5.4362 0 8.5-0.39051 8.5-1.0834zm26 16.524c0-0.24254-0.45-0.44098-1-0.44098s-1 0.47656-1 1.059c0 0.58246 0.45 0.7809 1 0.44098s1-0.81648 1-1.059zm-62.998-75.441c0-1.3333-0.66667-2-2-2s-2 0.66667-2 2 0.66667 2 2 2 2-0.66667 2-2zm62.82-0.25c-0.20536-1.446-1.1236-2.3642-2.5696-2.5696-1.8325-0.26025-2.25 0.15726-2.25 2.25s0.47682 2.5696 2.5696 2.5696c2.0927 0 2.5102-0.41752 2.25-2.25z"/>
 <path id="path5343-1" style="fill:url(#linearGradient5369)" d="m62.94 84.013c0.30269-0.9625 1.66-5.465 3.0163-10.006l2.466-8.2556-2.3827-2.3827c-7.7008-7.7008-1.1358-20.599 10.485-20.599 12.497 0 18.214 12.368 9.934 21.494-1.7574 1.9371-1.7419 2.3164 0.48272 11.75l2.2988 9.7483h-13.425c-12.329 0-13.38-0.14291-12.875-1.75z"/>
 <path id="path5343" style="fill:#fff;fill-opacity:.72727" d="m41.37 106.29c0-4.3333 0.11111-4.5 3-4.5 2.4788 0 2.9798-0.39089 2.884-2.25-0.0873-1.6932-0.22918-1.8169-0.57333-0.5-0.27707 1.0603-1.4138 1.75-2.884 1.75-1.9218 0-2.4267-0.52014-2.4267-2.5 0-1.5556 0.56667-2.5 1.5-2.5 1.3016 0 1.5-4.1667 1.5-31.5s-0.19841-31.5-1.5-31.5c-0.93333 0-1.5-0.94444-1.5-2.5 0-1.9799 0.50489-2.5 2.4267-2.5 1.4702 0 2.6069 0.68974 2.884 1.75 0.34415 1.3169 0.48603 1.1932 0.57333-0.5 0.0958-1.8591-0.40519-2.25-2.884-2.25-2.8333 0-3-0.22222-3-4 0-4 0-4 4-4 3.7778 0 4 0.16667 4 3 0 2.4788 0.39089 2.9798 2.25 2.884 1.6932-0.08729 1.8169-0.22918 0.5-0.57332-1.0603-0.27708-1.75-1.4138-1.75-2.884 0-1.9218 0.52014-2.4267 2.5-2.4267 1.5556 0 2.5 0.56667 2.5 1.5 0 1.2857 3 1.5 21 1.5s21-0.21429 21-1.5c0-0.93333 0.94444-1.5 2.5-1.5 1.8333 0 2.5 0.53333 2.5 2 0 1.1111-0.66667 2-1.5 2-0.825 0-1.5 0.45-1.5 1s0.9 1 2 1c1.5556 0 2-0.66667 2-3 0-2.8333 0.22222-3 4-3 4 0 4 0 4 4 0 3.7778-0.16667 4-3 4-2.3333 0-3 0.44444-3 2 0 1.1 0.45 2 1 2s1-0.675 1-1.5c0-0.83333 0.88889-1.5 2-1.5 1.4667 0 2 0.66667 2 2.5 0 1.5556-0.56667 2.5-1.5 2.5-1.3016 0-1.5 4.1667-1.5 31.5s0.19841 31.5 1.5 31.5c0.93333 0 1.5 0.94444 1.5 2.5 0 1.8333-0.53333 2.5-2 2.5-1.1111 0-2-0.66667-2-1.5 0-0.825-0.45-1.5-1-1.5s-1 1.125-1 2.5c0 2.1111 0.46667 2.5 3 2.5 2.7619 0 3 0.27778 3 3.5 0 3.4167-0.0952 3.5-4 3.5-3.7778 0-4-0.16667-4-3 0-2.3333-0.44444-3-2-3-1.1 0-2 0.45-2 1s0.675 1 1.5 1c0.83333 0 1.5 0.88889 1.5 2 0 1.4667-0.66667 2-2.5 2-1.5556 0-2.5-0.56667-2.5-1.5 0-1.2857-3-1.5-21-1.5-20.333 0-21 0.0635-21 2 0 1.4667-0.66667 2-2.5 2-1.9865 0-2.5-0.50331-2.5-2.4503 0-1.3477 0.7875-2.909 1.75-3.4696 1.5629-0.91029 1.5094-1.0225-0.5-1.0497-1.9106-0.0258-2.25 0.49762-2.25 3.4696 0 3.4167-0.0952 3.5-4 3.5h-4zm6 0c0-1.8333-0.53333-2.5-2-2.5s-2 0.66667-2 2.5 0.53333 2.5 2 2.5 2-0.66667 2-2.5zm63 0c0-2-0.5-2.5-2.5-2.5s-2.5 0.5-2.5 2.5 0.5 2.5 2.5 2.5 2.5-0.5 2.5-2.5zm-13-1.5c0-0.55-0.7063-1-1.5696-1-2.234 0-1.425-4.3853 0.89043-4.8268 1.1784-0.22468 2.0134 0.38921 2.3666 1.7398 0.80728 3.087 4.3125 2.7513 4.3125-0.41303 0-1.6048-0.56203-2.5-1.5696-2.5-2.5708 0-1.3553-4.4397 1.3196-4.8195 1.5134-0.21494 2.25 0.1943 2.25 1.25 0 0.86325 0.45 1.5696 1 1.5696 0.6455 0 1-11.167 1-31.5s-0.3545-31.5-1-31.5c-0.55 0-1 0.675-1 1.5 0 0.93333-0.94444 1.5-2.5 1.5-2 0-2.5-0.5-2.5-2.5 0-1.5556 0.56667-2.5 1.5-2.5 0.83333 0 1.5-0.88889 1.5-2 0-2.3858-3.4847-2.7853-4.3616-0.5-0.31658 0.825-1.4897 1.5-2.607 1.5-1.5001 0-2.0314-0.65379-2.0314-2.5 0-1.5556 0.56667-2.5 1.5-2.5 0.825 0 1.5-0.51738 1.5-1.1497 0-0.82991-2.5463-0.969-9.1536-0.5-5.0345 0.35736-14.597 0.70194-21.25 0.76574s-11.309 0.3218-10.346 0.57332c1.0603 0.27708 1.75 1.4138 1.75 2.884 0 1.9218-0.52014 2.4267-2.5 2.4267-1.5556 0-2.5-0.56667-2.5-1.5 0-0.83333-0.88889-1.5-2-1.5-1.3333 0-2 0.66667-2 2 0 1.1111 0.66667 2 1.5 2 0.93333 0 1.5 0.94444 1.5 2.5 0 1.9799-0.50489 2.5-2.4267 2.5-1.4702 0-2.6069-0.68974-2.884-1.75-0.25153-0.9625-0.45733 12.65-0.45733 30.25s0.2058 31.213 0.45733 30.25c0.27707-1.0603 1.4138-1.75 2.884-1.75 1.9218 0 2.4267 0.52014 2.4267 2.5 0 1.5556-0.56667 2.5-1.5 2.5-0.83333 0-1.5 0.88889-1.5 2 0 1.3333 0.66667 2 2 2 1.1111 0 2-0.66667 2-1.5 0-0.93333 0.94444-1.5 2.5-1.5 2 0 2.5 0.5 2.5 2.5 0 1.5556-0.56667 2.5-1.5 2.5-0.825 0-1.5 0.45-1.5 1 0 0.63492 7.6667 1 21 1s21-0.36508 21-1zm-34.585-20.749c0.30269-0.9625 1.66-5.465 3.0163-10.006l2.466-8.2556-2.3827-2.3827c-7.7008-7.7008-1.1358-20.599 10.485-20.599 12.497 0 18.214 12.368 9.934 21.494-1.7574 1.9371-1.7419 2.3164 0.48272 11.75l2.2988 9.7483h-13.425c-12.329 0-13.38-0.14291-12.875-1.75zm21.585-2.333c0-0.59586-0.9169-4.6745-2.0376-9.0637l-2.0376-7.9803 3.0376-2.8375c7.688-7.182-0.143-18.441-10.459-15.036-4.227 1.395-6.503 4.382-6.503 8.535 0 3.0031 2.5696 6.8226 5.174 7.6907 0.98434 0.32811 0.64544 2.5694-1.4439 9.5491-1.5016 5.0162-2.7301 9.3692-2.7301 9.6733 0 0.30411 3.825 0.55293 8.5 0.55293 5.4362 0 8.5-0.39051 8.5-1.0834zm26 16.524c0-0.24254-0.45-0.44098-1-0.44098s-1 0.47656-1 1.059c0 0.58246 0.45 0.7809 1 0.44098s1-0.81648 1-1.059zm-63-75.441c0-1.3333-0.66667-2-2-2s-2 0.66667-2 2 0.66667 2 2 2 2-0.66667 2-2zm62.82-0.25c-0.20536-1.446-1.1236-2.3642-2.5696-2.5696-1.8325-0.26025-2.25 0.15726-2.25 2.25s0.47682 2.5696 2.5696 2.5696c2.0927 0 2.5102-0.41752 2.25-2.25z"/>
</svg>
