<?xml version="1.0" encoding="UTF-8" standalone="no"?>
<!-- Created with Inkscape (http://www.inkscape.org/) -->
<svg id="svg3449" xmlns:rdf="http://www.w3.org/1999/02/22-rdf-syntax-ns#" xmlns="http://www.w3.org/2000/svg" height="128" width="128" version="1.0" xmlns:cc="http://creativecommons.org/ns#" xmlns:xlink="http://www.w3.org/1999/xlink" xmlns:dc="http://purl.org/dc/elements/1.1/">
 <metadata id="metadata56">
  <rdf:RDF>
   <cc:Work rdf:about="">
    <dc:format>image/svg+xml</dc:format>
    <dc:type rdf:resource="http://purl.org/dc/dcmitype/StillImage"/>
    <dc:title/>
   </cc:Work>
  </rdf:RDF>
 </metadata>
 <defs id="defs3451">
  <linearGradient id="linearGradient3514" y2="-9.1034" gradientUnits="userSpaceOnUse" x2="66.492" gradientTransform="matrix(.96826 0 0 .97948 2.179 .16587)" y1="-42.638" x1="67.952">
   <stop id="stop4620" style="stop-color:#37414b" offset="0"/>
   <stop id="stop4622" style="stop-color:#37414b;stop-opacity:0" offset="1"/>
  </linearGradient>
  <linearGradient id="linearGradient3516" y2="-11.847" gradientUnits="userSpaceOnUse" x2="58.98" gradientTransform="matrix(.96826 0 0 .97948 2.179 .16587)" y1="-118.55" x1="57.173">
   <stop id="stop4596" offset="0"/>
   <stop id="stop4598" style="stop-opacity:0" offset="1"/>
  </linearGradient>
  <linearGradient id="linearGradient3519" y2="50.369" gradientUnits="userSpaceOnUse" x2="76.558" gradientTransform="matrix(.96826 0 0 .97948 3.2423 -129.19)" y1="13.164" x1="76.558">
   <stop id="stop3392" style="stop-color:#425e7b" offset="0"/>
   <stop id="stop3394" style="stop-color:#7a91a7" offset="1"/>
  </linearGradient>
  <linearGradient id="linearGradient3521" y2="-8.7399" gradientUnits="userSpaceOnUse" x2="60.217" gradientTransform="matrix(.96826 0 0 .97948 2.179 .16587)" y1="-123.72" x1="60.395">
   <stop id="stop3392-4-8" style="stop-color:#425e7b" offset="0"/>
   <stop id="stop3394-8-0" style="stop-color:#7a91a7" offset="1"/>
  </linearGradient>
  <radialGradient id="radialGradient3349" gradientUnits="userSpaceOnUse" cy="45.647" cx="42.148" gradientTransform="matrix(.94690 0 0 1.139 3.5954 -29.89)" r="58.984">
   <stop id="stop8006" style="stop-color:#ef916b" offset="0"/>
   <stop id="stop8008" style="stop-color:#db4916" offset="1"/>
  </radialGradient>
  <filter id="filter3174-1" color-interpolation-filters="sRGB">
   <feGaussianBlur id="feGaussianBlur3176-0" stdDeviation="1.71"/>
  </filter>
  <linearGradient id="ButtonShadow-9" x1="45.448" gradientUnits="userSpaceOnUse" y1="92.54" gradientTransform="scale(1.0059 .99417)" x2="45.448" y2="7.0165">
   <stop id="stop3750-6" offset="0"/>
   <stop id="stop3752-7" style="stop-opacity:.58824" offset="1"/>
  </linearGradient>
  <filter id="filter3174-9" color-interpolation-filters="sRGB">
   <feGaussianBlur id="feGaussianBlur3176-5" stdDeviation="1.71"/>
  </filter>
  <linearGradient id="linearGradient4238-5" y2="25" gradientUnits="userSpaceOnUse" x2="25" y1="57" x1="25">
   <stop id="stop3624-6-9-7-3-1" style="stop-color:#ba4712" offset="0"/>
   <stop id="stop3856-8-7-9-7-0" style="stop-color:#cf671c" offset=".5"/>
   <stop id="stop3626-0-8-7-8-5" style="stop-color:#e27f39" offset="1"/>
  </linearGradient>
  <filter id="filter3174-6" color-interpolation-filters="sRGB">
   <feGaussianBlur id="feGaussianBlur3176-1" stdDeviation="1.71"/>
  </filter>
 </defs>
 <rect id="rect892-2-7-2" ry="29.452" style="stroke:#d3d3d3;stroke-width:9.8448;fill:#37414b" transform="scale(1,-1)" height="116.16" width="116.08" y="-122.08" x="5.9224"/>
 <rect id="rect892" style="stroke:url(#linearGradient3521);stroke-width:.97385;fill:url(#linearGradient3519)" transform="scale(1,-1)" ry="29.296" height="115.54" width="114.22" y="-122.25" x="7.0394"/>
 <rect id="rect892-2" style="stroke:url(#linearGradient3516);stroke-width:.97385;fill:url(#linearGradient3514)" transform="scale(1,-1)" ry="28.993" height="114.35" width="114.22" y="-121.46" x="7.0599"/>
 <path id="rect895" style="fill:url(#radialGradient3349)" d="m30.571 7.0104c-13.128 0.936-22.55 15.04-23.173 23.288-0.050142 0.97378-0.088772 1.9648-0.088772 2.9572v58.419c0 15.229 11.191 27.859 22.318 27.859h67.038c15.69 0 24.318-16.445 24.318-25.859v-64.017c-0.21-5.933-12.29-21.682-25.926-22.618-47.846 0.8653-20.497-0.0256-64.483-0.0256z"/>
 <rect id="rect892-2-7-8" style="opacity:.15891;stroke:#000;stroke-width:4.8445;fill:none" transform="scale(1,-1)" ry="28.993" height="114.35" width="114.22" y="-121.16" x="6.8683"/>
 <rect id="rect892-2-7-1" style="opacity:.15891;stroke:#000;stroke-width:7.7512;fill:none" transform="scale(1,-1)" ry="28.993" height="114.35" width="114.22" y="-121.16" x="6.8686"/>
 <rect id="rect892-2-7-2-9" ry="28.067" style="stroke:#000;stroke-width:1.0489;fill:none" transform="scale(1,-1)" height="112.71" width="114.14" y="-120.31" x="7.0644"/>
 <path id="path1187" style="fill:#fff;fill-opacity:.057143" d="m37.509 10.721c-14.891-4.3296-32.78 19.454-27.93 26.295-0.04334 0.71563-0.07674 1.4439-0.07674 2.1732v10.76c25.898-25.61 66.753-35.478 90.374-39.178-0.22473-0.02628-0.45986-0.03062-0.69067-0.03062-41.576 0.38742-23.653-0.01876-61.677-0.01875z"/>
 <g id="layer2" style="display:none" transform="translate(187.88 23.742)">
  <rect id="rect3745" style="opacity:.9;filter:url(#filter3174-1);fill:url(#ButtonShadow-9)" rx="6" ry="6" height="85" width="86" y="7" x="5"/>
 </g>
 <g id="layer2-2" style="display:none" transform="matrix(1.2166 0 0 1.2299 5.6049 3.1187)">
  <rect id="rect3745-5" style="opacity:.9;filter:url(#filter3174-9);fill:url(#ButtonShadow-9)" rx="6" ry="6" height="85" width="86" y="7" x="5"/>
 </g>
 <path id="path3397-3-2-5" style="opacity:.05;color:#000000;fill:url(#linearGradient4238-5)" d="m23.625 22.125a3.6626 3.6626 0 0 0 -2.7188 1.6875l-2.5 3.875-4.5312-1a3.6626 3.6626 0 0 0 -4.3438 4.375l1 4.4062-3.9062 2.4375a3.6626 3.6626 0 0 0 0 6.1875l3.9062 2.4375-1 4.4062a3.6626 3.6626 0 0 0 4.3438 4.375l4.5312-1 2.5 3.875a3.6626 3.6626 0 0 0 6.1875 0l2.5-3.875 4.5312 1a3.6626 3.6626 0 0 0 4.3438 -4.375l-1-4.4062 3.9062-2.4375a3.6626 3.6626 0 0 0 0 -6.1875l-3.9062-2.4375 1-4.4062a3.6626 3.6626 0 0 0 -4.344 -4.374l-4.5312 1-2.5-3.875a3.6626 3.6626 0 0 0 -3.469 -1.688zm0.375 15.094c0.2413 0.29026 0.47719 0.58429 0.71875 0.875a3.6626 3.6626 0 0 0 -0.719 1.312 3.6626 3.6626 0 0 0 -0.719 -1.312c0.242-0.291 0.478-0.585 0.719-0.875z" transform="translate(0,-16)"/>
 <g id="layer2-8" style="display:none" transform="matrix(1.2166 0 0 1.2299 162.3 9.178)">
  <rect id="rect3745-8" style="opacity:.9;filter:url(#filter3174-6);fill:url(#ButtonShadow-9)" rx="6" ry="6" height="85" width="86" y="7" x="5"/>
 </g>
 <path id="path5571" style="fill:#fff" d="m17.238 101.84c-0.916-0.92-1.238-7.53-1.238-25.418 0-20.179 0.24596-24.382 1.4873-25.412 1.8626-1.5458 4.5487-0.58913 5.1857 1.8469 0.46964 1.7959 0.58435 1.7958 4.1165-0.005 6.166-3.1436 14.495-1.752 19.899 3.3246l2.2157 2.0815 3.0226-2.5433c8.9962-7.5698 21.486-5.3843 27.246 4.7676 1.9157 3.3761 2.3294 5.7727 2.5925 15.017 0.38964 13.691 0.69386 15.094 3.9211 18.085 4.3335 4.0162 14.555 2.6288 16.934-2.2982 0.4744-0.98284 1.0914-10.289 1.3712-20.68 0.43583-16.189 0.7471-19.043 2.1748-19.942 1.2075-0.75998 2.1022-0.68682 3.25 0.26578 1.3639 1.1319 1.5838 4.6187 1.5838 25.11 0 13.088-0.27314 24.508-0.60699 25.378-0.77867 2.0292-4.3339 2.0449-5.8104 0.0257-1.0284-1.4064-1.4238-1.407-4.1102-0.006-3.9529 2.0612-11.162 1.9726-15.401-0.18931-1.8859-0.96165-4.8109-3.4766-6.5-5.5888-3.0007-3.7525-3.0826-4.1423-3.5711-17-0.54181-14.26-1.3154-16.737-5.98-19.149-5.4029-2.7939-11.505-1.3905-14.756 3.3938-1.4754 2.1711-1.8458 5.6231-2.264 21.096l-0.5 18.5h-2.5-2.5l-0.51383-18.5c-0.42734-15.386-0.80838-18.937-2.264-21.096-4.3096-6.392-14.298-6.5263-18.42-0.24771-1.5186 2.3136-1.881 5.665-2.3023 21.295-0.62879 2.4916 1.468 24.725-5.7617 17.887zm72.333-57.411c-3.492-3.492-1.104-9.429 3.792-9.429 4.1835 0 6.0974 6.3685 2.8084 9.345-2.2967 2.0785-4.5761 2.1073-6.5998 0.08356zm-15.371-1.629c-1.9014-1.9014-1.4106-5.9848 1.3967-11.618 6.7041-13.453 25.551-14.519 33.729-1.9064 4.235 6.5313 4.7673 12.984 1.1846 14.359-2.24 0.858-4.51-1.464-4.51-4.61 0-6.885-8.196-12.961-15.608-11.571-4.3745 0.82066-9.0419 5.1382-9.9105 9.1677-1.5046 6.98-3.509 8.9512-6.282 6.1781z"/>
</svg>
