<?xml version="1.0" encoding="UTF-8" standalone="no"?>
<!-- Created with Inkscape (http://www.inkscape.org/) -->
<svg id="svg3449" xmlns:rdf="http://www.w3.org/1999/02/22-rdf-syntax-ns#" xmlns="http://www.w3.org/2000/svg" height="128" width="128" version="1.0" xmlns:cc="http://creativecommons.org/ns#" xmlns:xlink="http://www.w3.org/1999/xlink" xmlns:dc="http://purl.org/dc/elements/1.1/">
 <metadata id="metadata56">
  <rdf:RDF>
   <cc:Work rdf:about="">
    <dc:format>image/svg+xml</dc:format>
    <dc:type rdf:resource="http://purl.org/dc/dcmitype/StillImage"/>
    <dc:title/>
   </cc:Work>
  </rdf:RDF>
 </metadata>
 <defs id="defs3451">
  <linearGradient id="linearGradient3514" y2="-9.1034" gradientUnits="userSpaceOnUse" x2="66.492" gradientTransform="matrix(.96826 0 0 .97948 2.179 .16587)" y1="-42.638" x1="67.952">
   <stop id="stop4620" style="stop-color:#37414b" offset="0"/>
   <stop id="stop4622" style="stop-color:#37414b;stop-opacity:0" offset="1"/>
  </linearGradient>
  <linearGradient id="linearGradient3516" y2="-11.847" gradientUnits="userSpaceOnUse" x2="58.98" gradientTransform="matrix(.96826 0 0 .97948 2.179 .16587)" y1="-118.55" x1="57.173">
   <stop id="stop4596" offset="0"/>
   <stop id="stop4598" style="stop-opacity:0" offset="1"/>
  </linearGradient>
  <linearGradient id="linearGradient3519" y2="50.369" gradientUnits="userSpaceOnUse" x2="76.558" gradientTransform="matrix(.96826 0 0 .97948 3.2423 -129.19)" y1="13.164" x1="76.558">
   <stop id="stop3392" style="stop-color:#425e7b" offset="0"/>
   <stop id="stop3394" style="stop-color:#7a91a7" offset="1"/>
  </linearGradient>
  <linearGradient id="linearGradient3521" y2="-8.7399" gradientUnits="userSpaceOnUse" x2="60.217" gradientTransform="matrix(.96826 0 0 .97948 2.179 .16587)" y1="-123.72" x1="60.395">
   <stop id="stop3392-4-8" style="stop-color:#425e7b" offset="0"/>
   <stop id="stop3394-8-0" style="stop-color:#7a91a7" offset="1"/>
  </linearGradient>
  <radialGradient id="radialGradient3349" gradientUnits="userSpaceOnUse" cy="45.647" cx="42.148" gradientTransform="matrix(.94690 0 0 1.139 3.5954 -29.89)" r="58.984">
   <stop id="stop2699-5" style="stop-color:#656565" offset="0"/>
   <stop id="stop2701-7" style="stop-color:#2e2e2e" offset="1"/>
  </radialGradient>
  <filter id="filter3174-5" color-interpolation-filters="sRGB">
   <feGaussianBlur id="feGaussianBlur3176-4" stdDeviation="1.71"/>
  </filter>
  <linearGradient id="ButtonShadow-4" x1="45.448" gradientUnits="userSpaceOnUse" y1="92.54" gradientTransform="scale(1.0059 .99417)" x2="45.448" y2="7.0165">
   <stop id="stop3750-3" offset="0"/>
   <stop id="stop3752-57" style="stop-opacity:.58824" offset="1"/>
  </linearGradient>
  <filter id="filter3174-0" color-interpolation-filters="sRGB">
   <feGaussianBlur id="feGaussianBlur3176-9" stdDeviation="1.71"/>
  </filter>
  <filter id="filter3174-7" color-interpolation-filters="sRGB">
   <feGaussianBlur id="feGaussianBlur3176-7" stdDeviation="1.71"/>
  </filter>
  <clipPath id="clipPath3613-9">
   <rect id="rect3615-2" style="fill:#fff" rx="6" ry="6" height="84" width="84" y="6" x="6"/>
  </clipPath>
  <linearGradient id="linearGradient3613-3" x1="48" gradientUnits="userSpaceOnUse" y1="20.221" x2="48" y2="138.66">
   <stop id="stop3739-03" style="stop-color:#fff" offset="0"/>
   <stop id="stop3741-5" style="stop-color:#fff;stop-opacity:0" offset="1"/>
  </linearGradient>
  <filter id="filter3794-30" height="1.384" width="1.384" color-interpolation-filters="sRGB" y="-.192" x="-.192">
   <feGaussianBlur id="feGaussianBlur3796-38" stdDeviation="5.28"/>
  </filter>
  <filter id="filter3174-8" color-interpolation-filters="sRGB">
   <feGaussianBlur id="feGaussianBlur3176-3" stdDeviation="1.71"/>
  </filter>
  <clipPath id="clipPath3613-26">
   <rect id="rect3615-4" style="fill:#fff" rx="6" ry="6" height="84" width="84" y="6" x="6"/>
  </clipPath>
  <filter id="filter3794-67" height="1.384" width="1.384" color-interpolation-filters="sRGB" y="-.192" x="-.192">
   <feGaussianBlur id="feGaussianBlur3796-4" stdDeviation="5.28"/>
  </filter>
  <filter id="filter3174-4" color-interpolation-filters="sRGB">
   <feGaussianBlur id="feGaussianBlur3176-0" stdDeviation="1.71"/>
  </filter>
  <linearGradient id="linearGradient5589" y2="9.0402" gradientUnits="userSpaceOnUse" x2="49.958" gradientTransform="matrix(2.6709 0 0 2.6709 -7.6149 -23.338)" y1="54.525" x1="4.2849">
   <stop id="stop855" style="stop-color:#2a7f0d" offset="0"/>
   <stop id="stop857" style="stop-color:#90e32e" offset="1"/>
  </linearGradient>
  <linearGradient id="linearGradient29210" y2="3.357" gradientUnits="userSpaceOnUse" y1="128.95" gradientTransform="translate(-.17381 .080131)" x2="127.87" x1="5.2756">
   <stop id="stop29231" style="stop-color:#2a800e" offset="0"/>
   <stop id="stop29233" style="stop-color:#8ee12d" offset="1"/>
  </linearGradient>
 </defs>
 <rect id="rect892-2-7-2" ry="29.452" style="stroke:#d3d3d3;stroke-width:9.8448;fill:#37414b" transform="scale(1,-1)" height="116.16" width="116.08" y="-122.08" x="5.9224"/>
 <rect id="rect892" style="stroke:url(#linearGradient3521);stroke-width:.97385;fill:url(#linearGradient3519)" transform="scale(1,-1)" ry="29.296" height="115.54" width="114.22" y="-122.25" x="7.0394"/>
 <rect id="rect892-2" style="stroke:url(#linearGradient3516);stroke-width:.97385;fill:url(#linearGradient3514)" transform="scale(1,-1)" ry="28.993" height="114.35" width="114.22" y="-121.46" x="7.0599"/>
 <path id="rect895" style="fill:url(#radialGradient3349)" d="m30.571 7.0104c-13.128 0.936-22.55 15.04-23.173 23.288-0.050142 0.97378-0.088772 1.9648-0.088772 2.9572v58.419c0 15.229 11.191 27.859 22.318 27.859h67.038c15.69 0 24.318-16.445 24.318-25.859v-64.017c-0.21-5.933-12.29-21.682-25.926-22.618-47.846 0.8653-20.497-0.0256-64.483-0.0256z"/>
 <path id="path24" style="fill:url(#linearGradient5589)" d="m120.59 40.513c-32.672 0.61399-62.516 17.361-62.516 17.361s1.2462 16.706 10.099 35.139h15.525c-6.3714-14.647-6.9277-28.045-6.9277-28.045s17.275-14.846 43.82-15.274zm-0.83466 21.033c-17.099 0.90562-28.963 8.5137-28.963 8.5137s-0.0039 11.185 5.5922 22.953h13.271c-3.993-8.62-4.0898-17.11-4.0898-17.11s6.8012-4.7242 15.024-5.3419v-9.0145c-0.27658 0-0.56076-0.02625-0.83466 0z"/>
 <rect id="rect892-2-7-8" style="opacity:.15891;stroke:#000;stroke-width:4.8445;fill:none" transform="scale(1,-1)" ry="28.993" height="114.35" width="114.22" y="-121.16" x="6.8683"/>
 <path id="rect895-7" style="fill:url(#linearGradient29210)" d="m6.7472 90.54c-0.14938 3.1104-0.089295-1.8621-0.089295 1.3764 0 15.229 11.257 27.859 22.45 27.859h67.435c15.783 0 24.462-16.445 24.462-25.859v-4.0173c-33.965 0.207-35.66 1.06-114.25 0.636z"/>
 <rect id="rect892-2-7-1" style="opacity:.15891;stroke:#000;stroke-width:7.7512;fill:none" transform="scale(1,-1)" ry="28.993" height="114.35" width="114.22" y="-121.16" x="6.8686"/>
 <rect id="rect892-2-7-2-9" ry="28.067" style="stroke:#000;stroke-width:1.0489;fill:none" transform="scale(1,-1)" height="112.71" width="114.14" y="-120.31" x="7.0644"/>
 <path id="path1187" style="fill:#fff;fill-opacity:.057143" d="m32.415 6.0906c-14.891-4.3298-32.779 19.454-27.93 26.295-0.04334 0.71563-0.07674 1.4439-0.07674 2.1732v10.76c25.899-25.61 66.753-35.479 90.375-39.179-0.22473-0.02628-0.45986-0.03062-0.69067-0.03062-41.576 0.38742-23.653-0.01876-61.677-0.01875z"/>
 <g id="layer2" style="display:none" transform="translate(137.63 15.959)">
  <rect id="rect3745" style="opacity:.9;filter:url(#filter3174-5);fill:url(#ButtonShadow-4)" rx="6" ry="6" height="85" width="86" y="7" x="5"/>
 </g>
 <g id="layer2-3" style="display:none" transform="translate(146.29 14.997)">
  <rect id="rect3745-4" style="opacity:.9;filter:url(#filter3174-0);fill:url(#ButtonShadow-4)" rx="6" ry="6" height="85" width="86" y="7" x="5"/>
 </g>
 <g id="layer2-4" style="display:none" transform="translate(176.76 -8.736)">
  <rect id="rect3745-7" style="opacity:.9;filter:url(#filter3174-7);fill:url(#ButtonShadow-4)" rx="6" ry="6" height="85" width="86" y="7" x="5"/>
 </g>
 <g id="layer2-2" style="display:none" transform="translate(143.15 5.055)">
  <rect id="rect3745-9" style="opacity:.9;filter:url(#filter3174-8);fill:url(#ButtonShadow-4)" rx="6" ry="6" height="85" width="86" y="7" x="5"/>
 </g>
 <g id="layer5-4" style="display:none" transform="translate(143.15 5.055)">
  <rect id="rect3171-7" style="opacity:.3;filter:url(#filter3794-30);stroke:#fff;stroke-linecap:round;stroke-width:.5;fill:url(#linearGradient3613-3)" clip-path="url(#clipPath3613-9)" rx="12" ry="12" height="66" width="66" y="15" x="15"/>
 </g>
 <g id="layer2-1" style="display:none" transform="translate(160.47 -5.8175)">
  <rect id="rect3745-8" style="opacity:.9;filter:url(#filter3174-4);fill:url(#ButtonShadow-4)" rx="6" ry="6" height="85" width="86" y="7" x="5"/>
 </g>
 <g id="layer5-46" style="display:none" transform="translate(160.47 -5.8175)">
  <rect id="rect3171-2" style="opacity:.1;filter:url(#filter3794-67);stroke:#fff;stroke-linecap:round;stroke-width:.5;fill:url(#linearGradient3613-3)" clip-path="url(#clipPath3613-26)" rx="12" ry="12" height="66" width="66" y="15" x="15"/>
 </g>
 <rect id="rect1526" style="fill:none" ry="0" height="48" width="48" y="20.615" x="139.94"/>
 <path id="path4316" d="m78.003 21.391 2.2402 6.1302h-4.5513l2.3111-6.1302zm-2.4008-2.3874-5.1641 13.085h3.6465l0.8173-2.3129h6.1114l0.77365 2.3129h3.9592l-5.2037-13.087-4.9402 0.0013zm-10.368 13.09h3.6991v-13.094l-3.7-0.000525 0.0009 13.095zm-25.685-13.095-3.087 10.378-2.958-10.378l-3.9922-0.000525 4.2239 13.095h5.3303l4.2568-13.095h-3.7747zm14.955 2.8513h1.5903c2.3068 0 3.7988 1.0361 3.7988 3.7236 0 2.6888-1.492 3.7249-3.7988 3.7249h-1.5903v-7.4484zm-3.6683-2.8513v13.095h5.9985c3.1961 0 4.239-0.53182 5.367-1.723 0.7975-0.83659 1.3129-2.6736 1.3129-4.6804 0-1.8404-0.43643-3.4826-1.197-4.505-1.37-1.83-3.344-2.187-6.291-2.187h-5.1904zm-35.048-0.02887v13.113h3.731v-9.9566h2.8906c0.95745 0 1.6396 0.23887 2.101 0.73027 0.58491 0.62344 0.8236 1.6286 0.8236 3.4676v5.7579h3.6152v-7.245c0-5.1707-3.296-5.8679-6.5204-5.8679l-6.641 0.01155zm29.093 0.02887 0.001 13.095h3.6982v-13.095l-3.6996-0.000525z"/>
 <path id="path22" style="fill:#fff" d="m78.003 20.341 2.2402 6.1302h-4.5513l2.3111-6.1302zm-2.4008-2.3874-5.1641 13.085h3.6465l0.8173-2.3129h6.1114l0.77365 2.3129h3.9592l-5.2037-13.087-4.9402 0.0013zm-10.368 13.09h3.6991v-13.094l-3.7-0.000525 0.0009 13.095zm-25.685-13.095-3.087 10.378-2.958-10.378l-3.9922-0.000525 4.2239 13.095h5.3303l4.2568-13.095h-3.7747zm14.955 2.8513h1.5903c2.3068 0 3.7988 1.0361 3.7988 3.7236 0 2.6888-1.492 3.7249-3.7988 3.7249h-1.5903v-7.4484zm-3.6683-2.8513v13.095h5.9985c3.1961 0 4.239-0.53182 5.367-1.723 0.7975-0.83659 1.3129-2.6736 1.3129-4.6804 0-1.8404-0.43643-3.4826-1.197-4.505-1.37-1.83-3.344-2.187-6.291-2.187h-5.1904zm-35.048-0.02887v13.113h3.731v-9.9566h2.8906c0.95745 0 1.6396 0.23888 2.101 0.73028 0.58491 0.62344 0.8236 1.6285 0.8236 3.4676v5.7579h3.6152v-7.245c0-5.1707-3.296-5.8679-6.5204-5.8679l-6.641 0.01155zm29.093 0.02887 0.001 13.095h3.6982v-13.095l-3.6996-0.000525z"/>
</svg>
