<?xml version="1.0" encoding="UTF-8" standalone="no"?>
<!-- Created with Inkscape (http://www.inkscape.org/) -->
<svg id="svg3449" xmlns:rdf="http://www.w3.org/1999/02/22-rdf-syntax-ns#" xmlns="http://www.w3.org/2000/svg" height="128" width="128" version="1.0" xmlns:cc="http://creativecommons.org/ns#" xmlns:xlink="http://www.w3.org/1999/xlink" xmlns:dc="http://purl.org/dc/elements/1.1/">
 <metadata id="metadata56">
  <rdf:RDF>
   <cc:Work rdf:about="">
    <dc:format>image/svg+xml</dc:format>
    <dc:type rdf:resource="http://purl.org/dc/dcmitype/StillImage"/>
    <dc:title/>
   </cc:Work>
  </rdf:RDF>
 </metadata>
 <defs id="defs3451">
  <linearGradient id="linearGradient3514" y2="-9.1034" gradientUnits="userSpaceOnUse" x2="66.492" gradientTransform="matrix(.96826 0 0 .97948 2.179 .16587)" y1="-42.638" x1="67.952">
   <stop id="stop4620" style="stop-color:#37414b" offset="0"/>
   <stop id="stop4622" style="stop-color:#37414b;stop-opacity:0" offset="1"/>
  </linearGradient>
  <linearGradient id="linearGradient3516" y2="-11.847" gradientUnits="userSpaceOnUse" x2="58.98" gradientTransform="matrix(.96826 0 0 .97948 2.179 .16587)" y1="-118.55" x1="57.173">
   <stop id="stop4596" offset="0"/>
   <stop id="stop4598" style="stop-opacity:0" offset="1"/>
  </linearGradient>
  <linearGradient id="linearGradient3519" y2="50.369" gradientUnits="userSpaceOnUse" x2="76.558" gradientTransform="matrix(.96826 0 0 .97948 3.2423 -129.19)" y1="13.164" x1="76.558">
   <stop id="stop3392" style="stop-color:#425e7b" offset="0"/>
   <stop id="stop3394" style="stop-color:#7a91a7" offset="1"/>
  </linearGradient>
  <linearGradient id="linearGradient3521" y2="-8.7399" gradientUnits="userSpaceOnUse" x2="60.217" gradientTransform="matrix(.96826 0 0 .97948 2.179 .16587)" y1="-123.72" x1="60.395">
   <stop id="stop3392-4-8" style="stop-color:#425e7b" offset="0"/>
   <stop id="stop3394-8-0" style="stop-color:#7a91a7" offset="1"/>
  </linearGradient>
  <radialGradient id="radialGradient3349" gradientUnits="userSpaceOnUse" cy="45.647" cx="42.148" gradientTransform="matrix(.94690 0 0 1.139 3.5954 -29.89)" r="58.984">
   <stop id="stop2699-5" style="stop-color:#50bbd9" offset="0"/>
   <stop id="stop2701-7" style="stop-color:#3c82ab" offset="1"/>
  </radialGradient>
  <filter id="filter3174" color-interpolation-filters="sRGB">
   <feGaussianBlur id="feGaussianBlur3176" stdDeviation="1.71"/>
  </filter>
  <linearGradient id="ButtonShadow-1" x1="45.448" gradientUnits="userSpaceOnUse" y1="92.54" gradientTransform="scale(1.0059 .99417)" x2="45.448" y2="7.0165">
   <stop id="stop3750-87" offset="0"/>
   <stop id="stop3752-56" style="stop-opacity:.58824" offset="1"/>
  </linearGradient>
  <linearGradient id="linearGradient4504" y2="106.1" gradientUnits="userSpaceOnUse" x2="68.469" gradientTransform="matrix(.95108 0 0 .93495 -8.5899 -2.4903)" y1="32.188" x1="68.469">
   <stop id="stop3547" style="stop-color:#fafafa" offset="0"/>
   <stop id="stop3671" style="stop-color:#dcdcdc" offset=".5"/>
   <stop id="stop3674" style="stop-color:#c8c8c8" offset=".5"/>
   <stop id="stop3549" style="stop-color:#ebebeb" offset="1"/>
  </linearGradient>
  <linearGradient id="linearGradient11187" y2="142.14" gradientUnits="userSpaceOnUse" x2="702.73" gradientTransform="matrix(.9297 .3684 -.3684 .9297 -479.92 -252.36)" y1="150.15" x1="702.73">
   <stop id="stop4729" style="stop-color:#fff" offset="0"/>
   <stop id="stop4731" style="stop-color:#dadada" offset="1"/>
  </linearGradient>
  <linearGradient id="linearGradient11189" y2="97.434" gradientUnits="userSpaceOnUse" x2="654.86" gradientTransform="translate(-564,45)" y1="139.06" x1="654.86">
   <stop id="stop4820" style="stop-color:#fff;stop-opacity:0.18" offset="0"/>
   <stop id="stop4822" style="stop-color:#fff;stop-opacity:0.3" offset="1"/>
  </linearGradient>
 </defs>
 <rect id="rect892-2-7-2" ry="29.452" style="stroke:#d3d3d3;stroke-width:9.8448;fill:#37414b" transform="scale(1,-1)" height="116.16" width="116.08" y="-122.08" x="5.9224"/>
 <rect id="rect892" style="stroke:url(#linearGradient3521);stroke-width:.97385;fill:url(#linearGradient3519)" transform="scale(1,-1)" ry="29.296" height="115.54" width="114.22" y="-122.25" x="7.0394"/>
 <rect id="rect892-2" style="stroke:url(#linearGradient3516);stroke-width:.97385;fill:url(#linearGradient3514)" transform="scale(1,-1)" ry="28.993" height="114.35" width="114.22" y="-121.46" x="7.0599"/>
 <path id="rect895" style="fill:url(#radialGradient3349)" d="m33.051 7.2596c-7.969-2.4493-27.013 15.174-25.653 23.038-0.050142 0.97378-0.088772 1.9648-0.088772 2.9572v52.419c0 20.876 10.712 33.859 22.318 33.859h67.038c12.638 0 24.318-11.245 24.318-25.859v-64.017c0.7-10.928-21.283-24.659-25.926-22.618-47.846 0.8653-18.017 0.2236-62.003 0.2236z"/>
 <rect id="rect892-2-7-8" style="opacity:.15891;stroke:#000;stroke-width:4.8445;fill:none" transform="scale(1,-1)" ry="28.993" height="114.35" width="114.22" y="-121.16" x="6.8687"/>
 <rect id="rect892-2-7-1" style="opacity:.15891;stroke:#000;stroke-width:7.7512;fill:none" transform="scale(1,-1)" ry="28.993" height="114.35" width="114.22" y="-121.16" x="6.8687"/>
 <rect id="rect892-2-7-2-9" ry="28.067" style="stroke:#000;stroke-width:1.0489;fill:none" transform="scale(1,-1)" height="112.71" width="114.14" y="-120.31" x="7.0649"/>
 <path id="path1187" style="fill:#fff;fill-opacity:.057143" d="m33.017 7.2319c-23.707 0-26.027 0.6738-25.93 26.295-0.04334 0.71563-0.07674 1.4439-0.07674 2.1732v32.76c18.67-38.321 38.34-51.497 90.374-61.179-0.225-0.026-0.46-0.0303-0.691-0.0303-41.576 0.3874-25.652-0.0188-63.676-0.0188z"/>
 <g id="layer2" style="display:none" transform="matrix(1.44 0 0 1.44 -4.952 -6.9671)">
  <rect id="rect3745" style="opacity:.9;filter:url(#filter3174);fill:url(#ButtonShadow-1)" rx="6" ry="6" height="85" width="86" y="7" x="5"/>
 </g>
 <g id="g4560" style="opacity:.8;display:none" transform="matrix(1.44 0 0 1.44 -266.14 -150.39)">
  <g id="g4562">
   <defs id="defs4564">
    <path id="SVGID_6_" d="m122.43 204c4.702 0 8.571-3.87 8.571-8.572v-62.86c0-4.7-3.87-8.57-8.57-8.57h-62.858c-4.703 0-8.572 3.87-8.572 8.57v62.857c0 4.702 3.869 8.572 8.572 8.572h62.857z"/>
   </defs>
   <clipPath id="SVGID_7_">
    <use id="use4568" xlink:href="#SVGID_6_" height="1" width="1" y="0" x="0"/>
   </clipPath>
   <g id="g4570" style="opacity:.85" clip-path="url(#SVGID_7_)">
    <g id="g4572">
     <path id="path4574" style="opacity:.2" d="m68.783 191.42 1.592-2.228c-0.054-0.068-0.11-0.133-0.166-0.199l-1.552 2.172c0.048 0.082 0.081 0.172 0.126 0.255z"/>
     <path id="path4576" style="opacity:.2" d="m62.377 190.48c-1.125 0.007-2.211 0.458-3.006 1.253-0.907 0.908-1.264 1.99-1.234 3.042 0.07-0.912 0.451-1.829 1.234-2.61 0.795-0.797 1.881-1.248 3.006-1.254 2.579 0.067 4.096 2.052 4.214 4.101 0.088-2.193-1.452-4.461-4.214-4.532z"/>
     <path id="path4578" style="opacity:.2" d="m56.097 191.16-1.554-2.176c-0.054 0.07-0.112 0.133-0.163 0.204l1.592 2.228c0.043-0.085 0.079-0.172 0.125-0.256z"/>
     <path id="path4580" style="opacity:.2" d="m72.282 196.17-2.924 0.486c-0.153 0.59-0.411 1.144-0.702 1.676l0.126 0.174c0.235-0.454 0.446-0.921 0.575-1.418l2.924-0.487c0.063-0.563 0.1-1.131 0.09-1.698-0.009 0.422-0.043 0.845-0.089 1.267z"/>
     <path id="path4582" style="opacity:.2" d="m55.972 198.5 0.125-0.174c-0.308-0.524-0.529-1.094-0.7-1.676l-2.925-0.486c-0.062-0.381-0.084-0.763-0.091-1.145-0.014 0.525 0.005 1.053 0.091 1.574l2.925 0.486c0.143 0.494 0.335 0.969 0.575 1.421z"/>
     <path id="path4584" style="opacity:.2" d="m68.362 202.74-2.404-1.718c-0.525 0.309-1.091 0.531-1.674 0.7l-0.488 2.924c-0.528 0.082-1.064 0.103-1.597 0.103-0.417-0.004-0.831-0.052-1.242-0.103l-0.488-2.924c-0.589-0.152-1.142-0.41-1.674-0.7l-2.405 1.718c-0.703-0.511-1.298-1.145-1.846-1.813l-0.166 0.23c0.594 0.744 1.239 1.454 2.012 2.014l2.405-1.718c0.532 0.291 1.084 0.549 1.674 0.701l0.488 2.924c0.412 0.05 0.825 0.098 1.242 0.103 0.533 0 1.07-0.021 1.597-0.103l0.488-2.924c0.583-0.168 1.149-0.391 1.674-0.701l2.404 1.718c0.743-0.594 1.452-1.239 2.012-2.014l-0.163-0.226c-0.533 0.681-1.173 1.269-1.849 1.809z"/>
    </g>
    <g id="g4586">
     <path id="path4588" style="opacity:.2" d="m87.333 203.38 1.592-2.229c-0.055-0.067-0.111-0.133-0.167-0.199l-1.551 2.172c0.047 0.083 0.082 0.172 0.126 0.256z"/>
     <path id="path4590" style="opacity:.2" d="m80.926 202.44c-1.125 0.006-2.209 0.458-3.006 1.253-0.906 0.907-1.263 1.99-1.233 3.042 0.071-0.913 0.45-1.827 1.233-2.611 0.796-0.794 1.88-1.246 3.006-1.253 2.579 0.067 4.096 2.052 4.214 4.101 0.089-2.193-1.452-4.461-4.214-4.532z"/>
     <path id="path4592" style="opacity:.2" d="m74.646 203.12-1.556-2.176c-0.052 0.068-0.11 0.132-0.162 0.203l1.592 2.228c0.044-0.085 0.081-0.173 0.126-0.255z"/>
     <path id="path4594" style="opacity:.2" d="m90.831 208.12-2.923 0.486c-0.152 0.591-0.411 1.144-0.7 1.676l0.125 0.175c0.235-0.455 0.446-0.921 0.575-1.419l2.923-0.487c0.064-0.563 0.1-1.131 0.092-1.698-0.013 0.423-0.045 0.847-0.092 1.267z"/>
     <path id="path4596" style="opacity:.2" d="m74.521 210.46 0.125-0.175c-0.309-0.524-0.531-1.092-0.701-1.676l-2.924-0.486c-0.062-0.379-0.085-0.762-0.092-1.144-0.014 0.526 0.006 1.053 0.092 1.574l2.924 0.488c0.145 0.492 0.338 0.967 0.576 1.419z"/>
     <path id="path4598" style="opacity:.2" d="m86.911 214.7-2.404-1.717c-0.524 0.309-1.092 0.529-1.675 0.7l-0.486 2.924c-0.529 0.082-1.065 0.103-1.598 0.103-0.417-0.005-0.83-0.053-1.242-0.103l-0.487-2.924c-0.589-0.153-1.143-0.41-1.675-0.7l-2.404 1.717c-0.702-0.511-1.298-1.145-1.847-1.814l-0.166 0.231c0.595 0.744 1.24 1.453 2.013 2.013l2.404-1.717c0.532 0.29 1.086 0.548 1.675 0.7l0.487 2.924c0.413 0.05 0.826 0.098 1.242 0.103 0.533 0 1.07-0.021 1.598-0.103l0.486-2.924c0.583-0.169 1.15-0.392 1.675-0.7l2.404 1.717c0.743-0.594 1.452-1.238 2.014-2.013l-0.163-0.228c-0.534 0.683-1.176 1.271-1.851 1.811z"/>
    </g>
    <g id="g4600">
     <path id="path4602" style="opacity:.2" d="m87.333 119.33 1.592-2.229c-0.055-0.068-0.111-0.133-0.167-0.199l-1.551 2.172c0.047 0.081 0.082 0.171 0.126 0.256z"/>
     <path id="path4604" style="opacity:.2" d="m80.926 118.4c-1.125 0.005-2.209 0.457-3.006 1.253-0.906 0.907-1.263 1.989-1.233 3.041 0.071-0.912 0.45-1.827 1.233-2.611 0.796-0.795 1.88-1.247 3.006-1.252 2.579 0.066 4.096 2.051 4.214 4.1 0.089-2.193-1.452-4.46-4.214-4.531z"/>
     <path id="path4606" style="opacity:.2" d="m74.646 119.07-1.556-2.176c-0.052 0.068-0.11 0.132-0.162 0.203l1.592 2.229c0.044-0.085 0.081-0.173 0.126-0.256z"/>
     <path id="path4608" style="opacity:.2" d="m90.831 124.08-2.923 0.486c-0.152 0.591-0.411 1.142-0.7 1.675l0.125 0.175c0.235-0.455 0.446-0.922 0.575-1.419l2.923-0.486c0.064-0.563 0.1-1.131 0.092-1.697-0.013 0.421-0.045 0.845-0.092 1.266z"/>
     <path id="path4610" style="opacity:.2" d="m74.521 126.41 0.125-0.175c-0.309-0.525-0.531-1.092-0.701-1.675l-2.924-0.486c-0.062-0.381-0.085-0.762-0.092-1.144-0.014 0.527 0.006 1.052 0.092 1.574l2.924 0.487c0.145 0.491 0.338 0.966 0.576 1.419z"/>
     <path id="path4612" style="opacity:.2" d="m86.911 130.65-2.404-1.716c-0.524 0.309-1.092 0.531-1.675 0.699l-0.486 2.924c-0.529 0.082-1.065 0.104-1.598 0.104-0.417-0.005-0.83-0.052-1.242-0.104l-0.487-2.924c-0.589-0.152-1.143-0.41-1.675-0.699l-2.404 1.716c-0.702-0.51-1.298-1.144-1.847-1.812l-0.166 0.231c0.595 0.743 1.24 1.452 2.013 2.013l2.404-1.717c0.532 0.29 1.086 0.548 1.675 0.701l0.487 2.924c0.413 0.05 0.826 0.098 1.242 0.102 0.533 0 1.07-0.021 1.598-0.102l0.486-2.924c0.583-0.17 1.15-0.392 1.675-0.701l2.404 1.717c0.743-0.594 1.452-1.239 2.014-2.013l-0.163-0.228c-0.534 0.682-1.176 1.27-1.851 1.809z"/>
    </g>
    <g id="g4614">
     <path id="path4616" style="opacity:.2" d="m69.638 172.89 2.3-1.485c-0.025-0.083-0.054-0.165-0.08-0.248l-2.244 1.448c0.015 0.095 0.014 0.19 0.024 0.285z"/>
     <path id="path4618" style="opacity:.2" d="m64.026 169.66c-1.047-0.408-2.223-0.388-3.256 0.058-1.176 0.51-1.908 1.385-2.268 2.373 0.403-0.822 1.094-1.533 2.109-1.972 1.033-0.447 2.207-0.467 3.256-0.058 2.374 1.012 3.053 3.416 2.408 5.365 0.89-2.007 0.291-4.682-2.249-5.766z"/>
     <path id="path4620" style="opacity:.2" d="m57.938 167.98-0.645-2.596c-0.074 0.044-0.153 0.081-0.225 0.129l0.659 2.658c0.072-0.063 0.139-0.131 0.211-0.191z"/>
     <path id="path4622" style="opacity:.2" d="m71.143 178.59-2.897-0.625c-0.36 0.494-0.803 0.911-1.269 1.299l0.051 0.21c0.388-0.336 0.755-0.693 1.057-1.11l2.899 0.625c0.266-0.501 0.509-1.014 0.71-1.545-0.167 0.391-0.353 0.772-0.551 1.146z"/>
     <path id="path4624" style="opacity:.2" d="m55.118 174.75 0.182-0.117c-0.093-0.602-0.092-1.211-0.035-1.815l-2.539-1.53c0.081-0.376 0.202-0.739 0.337-1.096-0.207 0.484-0.383 0.98-0.495 1.497l2.54 1.53c-0.049 0.509-0.045 1.022 0.01 1.531z"/>
     <path id="path4626" style="opacity:.2" d="m65.076 183.26-1.603-2.483c-0.601 0.094-1.21 0.091-1.815 0.035l-1.529 2.539c-0.522-0.119-1.029-0.296-1.524-0.494-0.385-0.158-0.751-0.353-1.117-0.552l0.625-2.899c-0.492-0.358-0.912-0.801-1.299-1.268l-2.868 0.711c-0.465-0.733-0.785-1.542-1.049-2.364l-0.24 0.153c0.28 0.908 0.619 1.806 1.131 2.613l2.868-0.711c0.388 0.466 0.807 0.909 1.298 1.268l-0.624 2.9c0.365 0.198 0.732 0.394 1.117 0.552 0.496 0.196 1.002 0.374 1.524 0.493l1.529-2.541c0.604 0.057 1.213 0.059 1.815-0.033l1.602 2.482c0.908-0.278 1.807-0.618 2.613-1.13l-0.068-0.272c-0.748 0.438-1.56 0.747-2.386 1.001z"/>
    </g>
    <g id="g4628">
     <path id="path4630" style="opacity:.2" d="m88.236 184.52 2.302-1.485c-0.025-0.082-0.056-0.164-0.081-0.247l-2.244 1.448c0.016 0.095 0.013 0.192 0.023 0.284z"/>
     <path id="path4632" style="opacity:.2" d="m82.625 181.3c-1.047-0.407-2.223-0.388-3.255 0.059-1.177 0.509-1.909 1.384-2.267 2.373 0.402-0.822 1.091-1.533 2.108-1.974 1.033-0.446 2.207-0.466 3.256-0.058 2.373 1.012 3.052 3.417 2.407 5.366 0.889-2.006 0.293-4.684-2.249-5.766z"/>
     <path id="path4634" style="opacity:.2" d="m76.537 179.61-0.645-2.596c-0.075 0.044-0.151 0.081-0.225 0.128l0.659 2.658c0.072-0.061 0.138-0.13 0.211-0.19z"/>
     <path id="path4636" style="opacity:.2" d="m89.74 190.22-2.896-0.62c-0.36 0.493-0.803 0.911-1.27 1.299l0.053 0.209c0.385-0.337 0.754-0.694 1.057-1.108l2.898 0.625c0.265-0.501 0.509-1.016 0.709-1.547-0.165 0.391-0.352 0.772-0.551 1.147z"/>
     <path id="path4638" style="opacity:.2" d="m73.717 186.39 0.181-0.118c-0.093-0.601-0.09-1.21-0.034-1.815l-2.54-1.53c0.082-0.375 0.202-0.74 0.336-1.096-0.207 0.485-0.383 0.98-0.496 1.498l2.54 1.528c-0.046 0.511-0.041 1.023 0.013 1.533z"/>
     <path id="path4640" style="opacity:.2" d="m83.674 194.9-1.602-2.483c-0.602 0.096-1.211 0.094-1.815 0.037l-1.53 2.539c-0.521-0.119-1.027-0.296-1.523-0.494-0.385-0.157-0.751-0.354-1.118-0.551l0.625-2.898c-0.492-0.359-0.911-0.802-1.3-1.268l-2.867 0.711c-0.465-0.732-0.784-1.542-1.049-2.365l-0.24 0.155c0.279 0.907 0.619 1.807 1.13 2.611l2.868-0.709c0.388 0.465 0.807 0.908 1.299 1.267l-0.625 2.899c0.365 0.198 0.733 0.395 1.118 0.552 0.496 0.196 1.002 0.375 1.524 0.494l1.528-2.542c0.606 0.058 1.214 0.061 1.815-0.033l1.602 2.48c0.91-0.277 1.806-0.617 2.613-1.128l-0.069-0.272c-0.744 0.436-1.558 0.746-2.384 0.998z"/>
    </g>
    <g id="g4642">
     <path id="path4644" style="opacity:.2" d="m87.333 160.77 1.592-2.228c-0.055-0.068-0.111-0.134-0.167-0.2l-1.551 2.173c0.047 0.082 0.082 0.171 0.126 0.255z"/>
     <path id="path4646" style="opacity:.2" d="m80.926 159.84c-1.125 0.007-2.209 0.458-3.006 1.252-0.906 0.908-1.263 1.991-1.233 3.042 0.071-0.912 0.45-1.828 1.233-2.61 0.796-0.796 1.88-1.247 3.006-1.253 2.579 0.066 4.096 2.052 4.214 4.102 0.089-2.193-1.452-4.461-4.214-4.533z"/>
     <path id="path4648" style="opacity:.2" d="m74.646 160.52-1.556-2.18c-0.052 0.068-0.11 0.132-0.162 0.203l1.592 2.228c0.044-0.085 0.081-0.173 0.126-0.255z"/>
     <path id="path4650" style="opacity:.2" d="m90.831 165.52-2.923 0.487c-0.152 0.589-0.411 1.143-0.7 1.675l0.125 0.175c0.235-0.455 0.446-0.922 0.575-1.42l2.923-0.487c0.064-0.563 0.1-1.131 0.092-1.698-0.013 0.423-0.045 0.847-0.092 1.268z"/>
     <path id="path4652" style="opacity:.2" d="m74.521 167.85 0.125-0.175c-0.309-0.525-0.531-1.092-0.701-1.675l-2.924-0.487c-0.062-0.38-0.085-0.762-0.092-1.145-0.014 0.526 0.006 1.053 0.092 1.575l2.924 0.487c0.145 0.493 0.338 0.968 0.576 1.42z"/>
     <path id="path4654" style="opacity:.2" d="m86.911 172.1-2.404-1.717c-0.524 0.309-1.092 0.532-1.675 0.7l-0.486 2.924c-0.529 0.081-1.065 0.102-1.598 0.102-0.417-0.004-0.83-0.052-1.242-0.102l-0.487-2.924c-0.589-0.153-1.143-0.411-1.675-0.7l-2.404 1.717c-0.702-0.511-1.298-1.145-1.847-1.813l-0.166 0.232c0.595 0.743 1.24 1.452 2.013 2.012l2.404-1.717c0.532 0.29 1.086 0.547 1.675 0.702l0.487 2.924c0.413 0.049 0.826 0.098 1.242 0.102 0.533 0 1.07-0.021 1.598-0.102l0.486-2.924c0.583-0.17 1.15-0.393 1.675-0.702l2.404 1.717c0.743-0.593 1.452-1.237 2.014-2.012l-0.163-0.227c-0.534 0.68-1.176 1.268-1.851 1.808z"/>
    </g>
    <g id="g4656">
     <path id="path4658" style="opacity:.2" d="m88.236 141.92 2.302-1.485c-0.025-0.082-0.056-0.165-0.081-0.248l-2.244 1.449c0.016 0.094 0.013 0.19 0.023 0.284z"/>
     <path id="path4660" style="opacity:.2" d="m82.625 138.69c-1.047-0.408-2.223-0.389-3.255 0.059-1.177 0.509-1.909 1.384-2.267 2.373 0.402-0.822 1.091-1.533 2.108-1.974 1.033-0.445 2.207-0.466 3.256-0.057 2.373 1.011 3.052 3.416 2.407 5.364 0.889-2.005 0.293-4.68-2.249-5.765z"/>
     <path id="path4662" style="opacity:.2" d="m76.537 137-0.645-2.596c-0.075 0.045-0.151 0.082-0.225 0.128l0.659 2.66c0.072-0.062 0.138-0.132 0.211-0.192z"/>
     <path id="path4664" style="opacity:.2" d="m89.74 147.62-2.896-0.625c-0.36 0.492-0.803 0.911-1.27 1.299l0.053 0.209c0.385-0.336 0.754-0.692 1.057-1.108l2.898 0.625c0.265-0.5 0.509-1.015 0.709-1.545-0.165 0.39-0.352 0.771-0.551 1.145z"/>
     <path id="path4666" style="opacity:.2" d="m73.717 143.78 0.181-0.116c-0.093-0.602-0.09-1.211-0.034-1.816l-2.54-1.528c0.082-0.376 0.202-0.74 0.336-1.097-0.207 0.484-0.383 0.98-0.496 1.498l2.54 1.528c-0.046 0.509-0.041 1.023 0.013 1.531z"/>
     <path id="path4668" style="opacity:.2" d="m83.674 152.29-1.602-2.483c-0.602 0.094-1.211 0.092-1.815 0.035l-1.53 2.54c-0.521-0.12-1.027-0.297-1.523-0.495-0.385-0.157-0.751-0.354-1.118-0.552l0.625-2.898c-0.492-0.359-0.911-0.802-1.3-1.268l-2.867 0.712c-0.465-0.734-0.784-1.542-1.049-2.366l-0.24 0.154c0.279 0.909 0.619 1.807 1.13 2.612l2.868-0.711c0.388 0.466 0.807 0.908 1.299 1.268l-0.625 2.899c0.365 0.198 0.733 0.396 1.118 0.553 0.496 0.196 1.002 0.374 1.524 0.493l1.528-2.541c0.606 0.058 1.214 0.06 1.815-0.033l1.602 2.482c0.91-0.278 1.806-0.617 2.613-1.13l-0.069-0.271c-0.744 0.437-1.558 0.747-2.384 1z"/>
    </g>
    <g id="g4670">
     <path id="path4672" style="opacity:.2" d="m125.74 203.38 1.592-2.229c-0.055-0.067-0.111-0.133-0.166-0.199l-1.553 2.172c0.049 0.083 0.082 0.172 0.127 0.256z"/>
     <path id="path4674" style="opacity:.2" d="m119.33 202.44c-1.125 0.006-2.209 0.458-3.005 1.253-0.907 0.907-1.264 1.99-1.233 3.042 0.069-0.913 0.448-1.827 1.233-2.611 0.796-0.794 1.88-1.246 3.005-1.253 2.579 0.067 4.096 2.052 4.215 4.101 0.088-2.193-1.453-4.461-4.215-4.532z"/>
     <path id="path4676" style="opacity:.2" d="m113.05 203.12-1.555-2.176c-0.054 0.068-0.112 0.132-0.163 0.203l1.592 2.228c0.045-0.085 0.081-0.173 0.126-0.255z"/>
     <path id="path4678" style="opacity:.2" d="m129.24 208.12-2.923 0.486c-0.153 0.591-0.411 1.144-0.702 1.676l0.126 0.175c0.234-0.455 0.446-0.921 0.576-1.419l2.924-0.487c0.064-0.563 0.1-1.131 0.091-1.698-0.011 0.423-0.045 0.847-0.092 1.267z"/>
     <path id="path4680" style="opacity:.2" d="m112.93 210.46 0.126-0.175c-0.31-0.524-0.531-1.092-0.7-1.676l-2.924-0.486c-0.063-0.379-0.085-0.762-0.092-1.144-0.016 0.526 0.006 1.053 0.092 1.574l2.924 0.488c0.143 0.492 0.336 0.967 0.574 1.419z"/>
     <path id="path4682" style="opacity:.2" d="m125.32 214.7-2.405-1.717c-0.522 0.309-1.091 0.529-1.674 0.7l-0.486 2.924c-0.53 0.082-1.065 0.103-1.599 0.103-0.417-0.005-0.831-0.053-1.243-0.103l-0.486-2.924c-0.589-0.153-1.144-0.41-1.674-0.7l-2.404 1.717c-0.703-0.511-1.3-1.145-1.848-1.814l-0.166 0.231c0.594 0.744 1.239 1.453 2.013 2.013l2.404-1.717c0.531 0.29 1.085 0.548 1.674 0.7l0.486 2.924c0.413 0.05 0.827 0.098 1.243 0.103 0.533 0 1.069-0.021 1.599-0.103l0.486-2.924c0.583-0.169 1.15-0.392 1.674-0.7l2.405 1.717c0.742-0.594 1.451-1.238 2.013-2.013l-0.164-0.228c-0.531 0.683-1.174 1.271-1.848 1.811z"/>
    </g>
    <g id="g4684">
     <path id="path4686" style="opacity:.2" d="m125.74 119.33 1.592-2.229c-0.055-0.068-0.111-0.133-0.166-0.199l-1.553 2.172c0.049 0.081 0.082 0.171 0.127 0.256z"/>
     <path id="path4688" style="opacity:.2" d="m119.33 118.4c-1.125 0.005-2.209 0.457-3.005 1.253-0.907 0.907-1.264 1.989-1.233 3.041 0.069-0.912 0.448-1.827 1.233-2.611 0.796-0.795 1.88-1.247 3.005-1.252 2.579 0.066 4.096 2.051 4.215 4.1 0.088-2.193-1.453-4.46-4.215-4.531z"/>
     <path id="path4690" style="opacity:.2" d="m113.05 119.07-1.555-2.176c-0.054 0.068-0.112 0.132-0.163 0.203l1.592 2.229c0.045-0.085 0.081-0.173 0.126-0.256z"/>
     <path id="path4692" style="opacity:.2" d="m129.24 124.08-2.923 0.486c-0.153 0.591-0.411 1.142-0.702 1.675l0.126 0.175c0.234-0.455 0.446-0.922 0.576-1.419l2.924-0.486c0.064-0.563 0.1-1.131 0.091-1.697-0.011 0.421-0.045 0.845-0.092 1.266z"/>
     <path id="path4694" style="opacity:.2" d="m112.93 126.41 0.126-0.175c-0.31-0.525-0.531-1.092-0.7-1.675l-2.924-0.486c-0.063-0.381-0.085-0.762-0.092-1.144-0.016 0.527 0.006 1.052 0.092 1.574l2.924 0.487c0.143 0.491 0.336 0.966 0.574 1.419z"/>
     <path id="path4696" style="opacity:.2" d="m125.32 130.65-2.405-1.716c-0.522 0.309-1.091 0.531-1.674 0.699l-0.486 2.924c-0.53 0.082-1.065 0.104-1.599 0.104-0.417-0.005-0.831-0.052-1.243-0.104l-0.486-2.924c-0.589-0.152-1.144-0.41-1.674-0.699l-2.404 1.716c-0.703-0.51-1.3-1.144-1.848-1.812l-0.166 0.231c0.594 0.743 1.239 1.452 2.013 2.013l2.404-1.717c0.531 0.29 1.085 0.548 1.674 0.701l0.486 2.924c0.413 0.05 0.827 0.098 1.243 0.102 0.533 0 1.069-0.021 1.599-0.102l0.486-2.924c0.583-0.17 1.15-0.392 1.674-0.701l2.405 1.717c0.742-0.594 1.451-1.239 2.013-2.013l-0.164-0.228c-0.531 0.682-1.174 1.27-1.848 1.809z"/>
    </g>
    <g id="g4698">
     <path id="path4700" style="opacity:.2" d="m126.64 184.52 2.302-1.485c-0.025-0.082-0.056-0.164-0.081-0.247l-2.244 1.448c0.015 0.095 0.013 0.192 0.023 0.284z"/>
     <path id="path4702" style="opacity:.2" d="m121.03 181.3c-1.048-0.407-2.223-0.388-3.256 0.059-1.177 0.509-1.908 1.384-2.267 2.373 0.402-0.822 1.091-1.533 2.108-1.974 1.034-0.446 2.207-0.466 3.257-0.058 2.374 1.012 3.052 3.417 2.408 5.366 0.888-2.006 0.291-4.684-2.25-5.766z"/>
     <path id="path4704" style="opacity:.2" d="m114.94 179.61-0.644-2.596c-0.075 0.044-0.152 0.081-0.226 0.128l0.66 2.658c0.071-0.061 0.138-0.13 0.21-0.19z"/>
     <path id="path4706" style="opacity:.2" d="m128.15 190.22-2.897-0.625c-0.359 0.493-0.803 0.911-1.269 1.299l0.052 0.209c0.386-0.337 0.755-0.694 1.056-1.108l2.899 0.625c0.266-0.501 0.509-1.016 0.711-1.547-0.167 0.391-0.352 0.772-0.552 1.147z"/>
     <path id="path4708" style="opacity:.2" d="m112.12 186.39 0.181-0.118c-0.094-0.601-0.091-1.21-0.035-1.815l-2.54-1.53c0.083-0.375 0.201-0.74 0.338-1.096-0.208 0.485-0.385 0.98-0.497 1.498l2.54 1.528c-0.047 0.511-0.042 1.023 0.013 1.533z"/>
     <path id="path4710" style="opacity:.2" d="m122.08 194.9-1.602-2.483c-0.602 0.096-1.211 0.094-1.815 0.037l-1.529 2.539c-0.521-0.119-1.027-0.296-1.523-0.494-0.385-0.157-0.752-0.354-1.119-0.551l0.627-2.898c-0.492-0.359-0.911-0.802-1.3-1.268l-2.868 0.711c-0.466-0.732-0.785-1.542-1.049-2.365l-0.239 0.155c0.278 0.907 0.617 1.807 1.129 2.611l2.868-0.709c0.388 0.465 0.807 0.908 1.299 1.267l-0.625 2.899c0.367 0.198 0.732 0.395 1.118 0.552 0.496 0.196 1.002 0.375 1.524 0.494l1.528-2.542c0.605 0.058 1.213 0.061 1.815-0.033l1.602 2.48c0.91-0.277 1.808-0.617 2.613-1.128l-0.068-0.272c-0.747 0.436-1.56 0.746-2.386 0.998z"/>
    </g>
    <g id="g4712">
     <path id="path4714" style="opacity:.2" d="m125.74 160.77 1.592-2.228c-0.055-0.068-0.111-0.134-0.166-0.2l-1.553 2.173c0.049 0.082 0.082 0.171 0.127 0.255z"/>
     <path id="path4716" style="opacity:.2" d="m119.33 159.84c-1.125 0.007-2.209 0.458-3.005 1.252-0.907 0.908-1.264 1.991-1.233 3.042 0.069-0.912 0.448-1.828 1.233-2.61 0.796-0.796 1.88-1.247 3.005-1.253 2.579 0.066 4.096 2.052 4.215 4.102 0.088-2.193-1.453-4.461-4.215-4.533z"/>
     <path id="path4718" style="opacity:.2" d="m113.05 160.52-1.555-2.176c-0.054 0.068-0.112 0.132-0.163 0.203l1.592 2.228c0.045-0.085 0.081-0.173 0.126-0.255z"/>
     <path id="path4720" style="opacity:.2" d="m129.24 165.52-2.923 0.487c-0.153 0.589-0.411 1.143-0.702 1.675l0.126 0.175c0.234-0.455 0.446-0.922 0.576-1.42l2.924-0.487c0.064-0.563 0.1-1.131 0.091-1.698-0.011 0.423-0.045 0.847-0.092 1.268z"/>
     <path id="path4722" style="opacity:.2" d="m112.93 167.85 0.126-0.175c-0.31-0.525-0.531-1.092-0.7-1.675l-2.924-0.487c-0.063-0.38-0.085-0.762-0.092-1.145-0.016 0.526 0.006 1.053 0.092 1.575l2.924 0.487c0.143 0.493 0.336 0.968 0.574 1.42z"/>
     <path id="path4724" style="opacity:.2" d="m125.32 172.1-2.405-1.717c-0.522 0.309-1.091 0.532-1.674 0.7l-0.486 2.924c-0.53 0.081-1.065 0.102-1.599 0.102-0.417-0.004-0.831-0.052-1.243-0.102l-0.486-2.924c-0.589-0.153-1.144-0.411-1.674-0.7l-2.404 1.717c-0.703-0.511-1.3-1.145-1.848-1.813l-0.166 0.232c0.594 0.743 1.239 1.452 2.013 2.012l2.404-1.717c0.531 0.29 1.085 0.547 1.674 0.702l0.486 2.924c0.413 0.049 0.827 0.098 1.243 0.102 0.533 0 1.069-0.021 1.599-0.102l0.486-2.924c0.583-0.17 1.15-0.393 1.674-0.702l2.405 1.717c0.742-0.593 1.451-1.237 2.013-2.012l-0.164-0.227c-0.531 0.68-1.174 1.268-1.848 1.808z"/>
    </g>
    <g id="g4726">
     <path id="path4733" style="opacity:.2;fill:url(#linearGradient11187)" d="m123.39 133.44c0.361 0.148 0.704 0.335 1.045 0.522l-0.625 2.898c0.493 0.357 0.912 0.801 1.299 1.268l2.867-0.711c0.514 0.804 0.852 1.702 1.132 2.612l-2.484 1.602c0.094 0.602 0.092 1.21 0.036 1.815l2.539 1.53c-0.203 0.931-0.601 1.803-1.047 2.64l-2.897-0.625c-0.359 0.492-0.803 0.912-1.269 1.299l0.713 2.867c-0.806 0.514-1.705 0.853-2.613 1.13l-1.602-2.482c-0.602 0.095-1.211 0.091-1.815 0.034l-1.529 2.54c-0.521-0.119-1.027-0.296-1.523-0.494-0.385-0.158-0.752-0.354-1.119-0.552l0.627-2.899c-0.492-0.359-0.911-0.801-1.3-1.268l-2.868 0.712c-0.512-0.806-0.851-1.703-1.13-2.612l2.483-1.602c-0.093-0.602-0.091-1.211-0.034-1.816l-2.54-1.528c0.203-0.933 0.6-1.803 1.047-2.641l2.896 0.625c0.36-0.493 0.803-0.909 1.268-1.298l-0.711-2.869c0.806-0.512 1.704-0.852 2.613-1.128l1.601 2.482c0.603-0.095 1.211-0.091 1.815-0.035l1.531-2.54c0.548 0.119 1.074 0.317 1.594 0.524zm-2.355 5.247c-1.048-0.408-2.223-0.389-3.256 0.059-4.135 1.788-2.932 8.048 1.57 8.154 4.737 0.116 6.014-6.368 1.686-8.213z"/>
     <g id="g4735">
      <path id="path4737" style="opacity:.2" d="m126.64 141.92 2.302-1.485c-0.025-0.082-0.056-0.165-0.081-0.248l-2.244 1.449c0.015 0.094 0.013 0.19 0.023 0.284z"/>
      <path id="path4739" style="opacity:.2" d="m121.03 138.69c-1.048-0.408-2.223-0.389-3.256 0.059-1.177 0.509-1.908 1.384-2.267 2.373 0.402-0.822 1.091-1.533 2.108-1.974 1.034-0.445 2.207-0.466 3.257-0.057 2.374 1.011 3.052 3.416 2.408 5.364 0.888-2.005 0.291-4.68-2.25-5.765z"/>
      <path id="path4741" style="opacity:.2" d="m114.94 137-0.644-2.596c-0.075 0.045-0.152 0.082-0.226 0.128l0.66 2.66c0.071-0.062 0.138-0.132 0.21-0.192z"/>
      <path id="path4743" style="opacity:.2" d="m128.15 147.62-2.897-0.625c-0.359 0.492-0.803 0.911-1.269 1.299l0.052 0.209c0.386-0.336 0.755-0.692 1.056-1.108l2.899 0.625c0.266-0.5 0.509-1.015 0.711-1.545-0.167 0.39-0.352 0.771-0.552 1.145z"/>
      <path id="path4745" style="opacity:.2" d="m112.12 143.78 0.181-0.116c-0.094-0.602-0.091-1.211-0.035-1.816l-2.54-1.528c0.083-0.376 0.201-0.74 0.338-1.097-0.208 0.484-0.385 0.98-0.497 1.498l2.54 1.528c-0.047 0.509-0.042 1.023 0.013 1.531z"/>
     </g>
    </g>
    <g id="g4747">
     <path id="path4749" style="opacity:.2" d="m68.783 150.12 1.592-2.228c-0.054-0.068-0.11-0.133-0.166-0.2l-1.552 2.174c0.048 0.082 0.081 0.172 0.126 0.254z"/>
     <path id="path4751" style="opacity:.2" d="m62.377 149.19c-1.125 0.005-2.211 0.458-3.006 1.253-0.907 0.907-1.264 1.989-1.234 3.041 0.07-0.911 0.451-1.827 1.234-2.609 0.795-0.796 1.881-1.247 3.006-1.252 2.579 0.065 4.096 2.051 4.214 4.099 0.088-2.194-1.452-4.461-4.214-4.532z"/>
     <path id="path4753" style="opacity:.2" d="m56.097 149.87-1.554-2.176c-0.054 0.068-0.112 0.132-0.163 0.204l1.592 2.228c0.043-0.085 0.079-0.173 0.125-0.256z"/>
     <path id="path4755" style="opacity:.2" d="m72.282 154.87-2.924 0.487c-0.153 0.59-0.411 1.142-0.702 1.675l0.126 0.176c0.235-0.456 0.446-0.923 0.575-1.42l2.924-0.487c0.063-0.563 0.1-1.131 0.09-1.698-0.009 0.423-0.043 0.847-0.089 1.267z"/>
     <path id="path4757" style="opacity:.2" d="m55.972 157.21 0.125-0.176c-0.308-0.526-0.529-1.093-0.7-1.675l-2.925-0.487c-0.062-0.379-0.084-0.761-0.091-1.143-0.014 0.526 0.005 1.053 0.091 1.574l2.925 0.487c0.143 0.491 0.335 0.966 0.575 1.42z"/>
     <path id="path4759" style="opacity:.2" d="m68.362 161.45-2.404-1.717c-0.525 0.309-1.091 0.531-1.674 0.7l-0.488 2.925c-0.528 0.081-1.064 0.102-1.597 0.102-0.417-0.005-0.831-0.052-1.242-0.102l-0.488-2.925c-0.589-0.153-1.142-0.41-1.674-0.7l-2.405 1.717c-0.703-0.51-1.298-1.144-1.846-1.813l-0.166 0.231c0.594 0.744 1.239 1.454 2.012 2.013l2.405-1.718c0.532 0.291 1.084 0.549 1.674 0.701l0.488 2.925c0.412 0.049 0.825 0.096 1.242 0.102 0.533 0 1.07-0.021 1.597-0.102l0.488-2.925c0.583-0.17 1.149-0.391 1.674-0.701l2.404 1.718c0.743-0.594 1.452-1.239 2.012-2.013l-0.163-0.226c-0.533 0.681-1.173 1.269-1.849 1.808z"/>
    </g>
    <g id="g4761">
     <path id="path4763" style="opacity:.2" d="m69.638 131.59 2.3-1.484c-0.025-0.083-0.054-0.165-0.08-0.248l-2.244 1.449c0.015 0.095 0.014 0.19 0.024 0.283z"/>
     <path id="path4765" style="opacity:.2" d="m64.026 128.37c-1.047-0.409-2.223-0.389-3.256 0.058-1.176 0.509-1.908 1.384-2.268 2.373 0.403-0.821 1.094-1.533 2.109-1.973 1.033-0.446 2.207-0.466 3.256-0.057 2.374 1.012 3.053 3.416 2.408 5.365 0.89-2.007 0.291-4.684-2.249-5.766z"/>
     <path id="path4767" style="opacity:.2" d="m57.938 126.68-0.644-2.596c-0.075 0.045-0.153 0.082-0.226 0.129l0.66 2.658c0.071-0.062 0.138-0.13 0.21-0.191z"/>
     <path id="path4769" style="opacity:.2" d="m71.143 137.29-2.897-0.626c-0.36 0.493-0.803 0.912-1.269 1.3l0.051 0.21c0.388-0.336 0.755-0.693 1.057-1.109l2.899 0.625c0.266-0.5 0.509-1.015 0.71-1.546-0.167 0.391-0.353 0.772-0.551 1.146z"/>
     <path id="path4771" style="opacity:.2" d="m55.118 133.46 0.182-0.12c-0.093-0.602-0.092-1.211-0.035-1.815l-2.539-1.529c0.081-0.375 0.202-0.739 0.337-1.097-0.207 0.484-0.383 0.981-0.495 1.498l2.54 1.529c-0.049 0.511-0.045 1.024 0.01 1.532z"/>
     <path id="path4773" style="opacity:.2" d="m65.076 141.96-1.603-2.483c-0.601 0.093-1.21 0.092-1.815 0.035l-1.529 2.54c-0.522-0.119-1.029-0.296-1.524-0.494-0.385-0.157-0.751-0.354-1.117-0.552l0.625-2.898c-0.492-0.359-0.912-0.803-1.299-1.269l-2.868 0.712c-0.465-0.732-0.785-1.542-1.049-2.366l-0.24 0.154c0.28 0.91 0.619 1.807 1.131 2.613l2.868-0.711c0.388 0.465 0.807 0.909 1.298 1.268l-0.624 2.899c0.365 0.198 0.732 0.394 1.117 0.552 0.496 0.196 1.002 0.375 1.524 0.493l1.529-2.539c0.604 0.057 1.213 0.059 1.815-0.034l1.602 2.484c0.908-0.279 1.807-0.619 2.613-1.131l-0.068-0.272c-0.748 0.437-1.56 0.747-2.386 0.999z"/>
    </g>
    <g id="g4775">
     <path id="path4777" style="opacity:.2" d="m106.21 191.42 1.592-2.228c-0.053-0.068-0.111-0.133-0.166-0.199l-1.552 2.172c0.049 0.082 0.082 0.172 0.126 0.255z"/>
     <path id="path4779" style="opacity:.2" d="m99.806 190.48c-1.125 0.007-2.209 0.458-3.005 1.253-0.906 0.908-1.265 1.99-1.234 3.042 0.072-0.912 0.45-1.829 1.234-2.61 0.796-0.797 1.881-1.248 3.005-1.254 2.58 0.067 4.096 2.052 4.215 4.101 0.087-2.193-1.454-4.461-4.215-4.532z"/>
     <path id="path4781" style="opacity:.2" d="m93.525 191.16-1.555-2.176c-0.053 0.07-0.111 0.133-0.163 0.204l1.592 2.228c0.045-0.085 0.081-0.172 0.126-0.256z"/>
     <path id="path4783" style="opacity:.2" d="m109.71 196.17-2.924 0.486c-0.151 0.59-0.411 1.144-0.7 1.676l0.125 0.174c0.235-0.454 0.445-0.921 0.576-1.418l2.924-0.487c0.063-0.563 0.1-1.131 0.092-1.698-0.013 0.422-0.046 0.845-0.093 1.267z"/>
     <path id="path4785" style="opacity:.2" d="m93.399 198.5 0.125-0.174c-0.308-0.524-0.53-1.094-0.7-1.676l-2.924-0.49c-0.062-0.381-0.085-0.763-0.091-1.145-0.014 0.525 0.006 1.053 0.091 1.574l2.924 0.486c0.145 0.494 0.338 0.969 0.575 1.421z"/>
     <path id="path4787" style="opacity:.2" d="m105.79 202.74-2.403-1.718c-0.525 0.309-1.091 0.531-1.675 0.7l-0.487 2.924c-0.527 0.082-1.063 0.103-1.597 0.103-0.416-0.004-0.83-0.052-1.243-0.103l-0.486-2.924c-0.59-0.152-1.143-0.41-1.675-0.7l-2.404 1.718c-0.703-0.511-1.296-1.145-1.848-1.813l-0.165 0.23c0.594 0.744 1.239 1.454 2.013 2.014l2.404-1.718c0.532 0.291 1.084 0.549 1.675 0.701l0.486 2.924c0.413 0.05 0.827 0.098 1.243 0.103 0.533 0 1.069-0.021 1.597-0.103l0.487-2.924c0.583-0.168 1.149-0.391 1.675-0.701l2.403 1.718c0.743-0.594 1.454-1.239 2.014-2.014l-0.164-0.226c-0.533 0.681-1.174 1.269-1.85 1.809z"/>
    </g>
    <g id="g4789">
     <path id="path4791" style="opacity:.2" d="m107.07 172.89 2.302-1.485c-0.025-0.083-0.054-0.165-0.081-0.248l-2.243 1.448c0.013 0.095 0.012 0.19 0.022 0.285z"/>
     <path id="path4793" style="opacity:.2" d="m101.46 169.66c-1.049-0.408-2.223-0.388-3.256 0.058-1.176 0.51-1.908 1.385-2.268 2.373 0.401-0.822 1.092-1.533 2.108-1.972 1.032-0.447 2.207-0.467 3.256-0.058 2.374 1.012 3.053 3.416 2.409 5.365 0.888-2.007 0.291-4.682-2.249-5.766z"/>
     <path id="path4795" style="opacity:.2" d="m95.367 167.98-0.643-2.596c-0.077 0.044-0.154 0.081-0.229 0.129l0.661 2.658c0.072-0.063 0.138-0.131 0.211-0.191z"/>
     <path id="path4797" style="opacity:.2" d="m108.57 178.59-2.899-0.625c-0.358 0.494-0.801 0.911-1.268 1.299l0.052 0.21c0.386-0.336 0.755-0.693 1.059-1.11l2.896 0.625c0.267-0.501 0.51-1.014 0.71-1.545-0.165 0.391-0.352 0.772-0.55 1.146z"/>
     <path id="path4799" style="opacity:.2" d="m92.547 174.75 0.18-0.117c-0.091-0.602-0.091-1.211-0.033-1.815l-2.54-1.53c0.082-0.376 0.201-0.739 0.336-1.096-0.207 0.484-0.383 0.98-0.495 1.497l2.539 1.53c-0.047 0.509-0.042 1.022 0.013 1.531z"/>
     <path id="path4801-8" style="opacity:.2" d="m102.5 183.26-1.603-2.483c-0.601 0.094-1.21 0.091-1.814 0.035l-1.53 2.539c-0.521-0.119-1.026-0.296-1.523-0.494-0.386-0.158-0.752-0.353-1.118-0.552l0.625-2.899c-0.491-0.358-0.91-0.801-1.299-1.268l-2.867 0.711c-0.466-0.733-0.785-1.542-1.05-2.364l-0.239 0.153c0.279 0.908 0.618 1.806 1.129 2.613l2.868-0.711c0.388 0.466 0.807 0.909 1.299 1.268l-0.626 2.9c0.367 0.198 0.732 0.394 1.119 0.552 0.495 0.196 1.001 0.374 1.522 0.493l1.531-2.541c0.604 0.057 1.211 0.059 1.814-0.033l1.602 2.482c0.91-0.278 1.807-0.618 2.613-1.13l-0.067-0.272c-0.746 0.438-1.56 0.747-2.386 1.001z"/>
    </g>
    <g id="g4803">
     <path id="path4805" style="opacity:.2" d="m106.21 150.12 1.592-2.228c-0.053-0.068-0.111-0.133-0.166-0.2l-1.552 2.174c0.049 0.082 0.082 0.172 0.126 0.254z"/>
     <path id="path4807" style="opacity:.2" d="m99.806 149.19c-1.125 0.005-2.209 0.458-3.005 1.253-0.906 0.907-1.265 1.989-1.234 3.041 0.072-0.911 0.45-1.827 1.234-2.609 0.796-0.796 1.881-1.247 3.005-1.252 2.58 0.065 4.096 2.051 4.215 4.099 0.087-2.194-1.454-4.461-4.215-4.532z"/>
     <path id="path4809" style="opacity:.2" d="m93.525 149.87-1.555-2.176c-0.053 0.068-0.111 0.132-0.163 0.204l1.592 2.228c0.045-0.085 0.081-0.173 0.126-0.256z"/>
     <path id="path4811" style="opacity:.2" d="m109.71 154.87-2.924 0.487c-0.151 0.59-0.411 1.142-0.7 1.675l0.125 0.176c0.235-0.456 0.445-0.923 0.576-1.42l2.924-0.487c0.063-0.563 0.1-1.131 0.092-1.698-0.013 0.423-0.046 0.847-0.093 1.267z"/>
     <path id="path4813" style="opacity:.2" d="m93.399 157.21 0.125-0.176c-0.308-0.526-0.53-1.093-0.7-1.675l-2.924-0.49c-0.062-0.379-0.085-0.761-0.091-1.143-0.014 0.526 0.006 1.053 0.091 1.574l2.924 0.487c0.145 0.491 0.338 0.966 0.575 1.42z"/>
     <path id="path4815" style="opacity:.2" d="m105.79 161.45-2.403-1.717c-0.525 0.309-1.091 0.531-1.675 0.7l-0.487 2.925c-0.527 0.081-1.063 0.102-1.597 0.102-0.416-0.005-0.83-0.052-1.243-0.102l-0.486-2.925c-0.59-0.153-1.143-0.41-1.675-0.7l-2.404 1.717c-0.703-0.51-1.296-1.144-1.848-1.813l-0.165 0.231c0.594 0.744 1.239 1.454 2.013 2.013l2.404-1.718c0.532 0.291 1.084 0.549 1.675 0.701l0.486 2.925c0.413 0.049 0.827 0.096 1.243 0.102 0.533 0 1.069-0.021 1.597-0.102l0.487-2.925c0.583-0.17 1.149-0.391 1.675-0.701l2.403 1.718c0.743-0.594 1.454-1.239 2.014-2.013l-0.164-0.226c-0.533 0.681-1.174 1.269-1.85 1.808z"/>
    </g>
    <g id="g4817">
     <path id="path4824" style="fill:url(#linearGradient11189)" d="m69.357 196.65 2.925-0.486c0.105-0.945 0.155-1.9 0-2.841l-2.925-0.489c-0.169-0.581-0.392-1.148-0.7-1.674l1.717-2.404c-0.594-0.741-1.239-1.451-2.012-2.012l-2.404 1.718c-0.533-0.291-1.085-0.548-1.674-0.701l-0.488-2.924c-0.386-0.048-0.772-0.097-1.163-0.099-0.56-0.002-1.123 0.008-1.676 0.099l-0.488 2.924c-0.582 0.169-1.149 0.392-1.674 0.701l-2.404-1.718c-0.743 0.593-1.451 1.238-2.012 2.012l1.718 2.404c-0.292 0.533-0.548 1.085-0.701 1.674l-2.924 0.489c-0.105 0.942-0.155 1.898 0 2.841l2.924 0.486c0.17 0.582 0.392 1.15 0.701 1.676l-1.718 2.402c0.594 0.743 1.239 1.453 2.012 2.013l2.405-1.718c0.533 0.29 1.085 0.548 1.673 0.7l0.488 2.924c0.412 0.05 0.825 0.099 1.242 0.103 0.533 0 1.069-0.021 1.597-0.103l0.487-2.924c0.582-0.169 1.149-0.391 1.674-0.7l2.404 1.718c0.743-0.593 1.452-1.239 2.013-2.013l-1.718-2.402c0.291-0.532 0.549-1.086 0.701-1.676zm-5.523 2.092c-4.224 1.56-7.649-3.818-4.462-7.004 0.794-0.795 1.88-1.247 3.006-1.253 4.702 0.12 5.904 6.617 1.456 8.257zm24.072 6.053c-0.169-0.583-0.392-1.149-0.7-1.675l1.718-2.404c-0.594-0.741-1.24-1.451-2.013-2.011l-2.404 1.718c-0.532-0.291-1.084-0.549-1.675-0.7l-0.486-2.925c-0.387-0.047-0.774-0.097-1.164-0.1-0.56-0.001-1.123 0.009-1.677 0.1l-0.487 2.925c-0.583 0.168-1.15 0.391-1.675 0.7l-2.403-1.718c-0.742 0.593-1.453 1.238-2.012 2.011l1.718 2.404c-0.291 0.533-0.548 1.085-0.701 1.675l-2.924 0.487c-0.106 0.943-0.155 1.898 0 2.841l2.924 0.486c0.17 0.583 0.392 1.151 0.701 1.675l-1.718 2.403c0.594 0.743 1.24 1.452 2.012 2.012l2.404-1.716c0.532 0.289 1.086 0.547 1.675 0.699l0.487 2.924c0.413 0.05 0.826 0.099 1.243 0.103 0.533 0 1.069-0.021 1.597-0.103l0.486-2.924c0.583-0.169 1.15-0.391 1.675-0.699l2.404 1.716c0.742-0.593 1.452-1.238 2.013-2.012l-1.718-2.403c0.291-0.532 0.549-1.085 0.7-1.675l2.924-0.486c0.106-0.945 0.156-1.899 0-2.841l-2.924-0.487zm-5.521 5.907c-4.226 1.559-7.649-3.818-4.463-7.004 0.796-0.795 1.88-1.247 3.005-1.253 4.702 0.12 5.904 6.615 1.458 8.257zm-8.44-86.14c0.17 0.583 0.392 1.15 0.701 1.675l-1.718 2.404c0.595 0.742 1.24 1.452 2.013 2.011l2.404-1.716c0.532 0.289 1.086 0.547 1.675 0.699l0.487 2.924c0.413 0.051 0.826 0.099 1.242 0.104 0.533 0 1.07-0.022 1.598-0.104l0.486-2.924c0.583-0.168 1.15-0.391 1.675-0.699l2.404 1.716c0.743-0.594 1.452-1.239 2.014-2.011l-1.718-2.404c0.29-0.533 0.548-1.084 0.7-1.675l2.923-0.486c0.106-0.944 0.156-1.898 0-2.841l-2.923-0.487c-0.169-0.583-0.392-1.149-0.7-1.674l1.718-2.405c-0.594-0.741-1.24-1.451-2.014-2.012l-2.404 1.72c-0.532-0.291-1.085-0.548-1.675-0.701l-0.486-2.924c-0.387-0.047-0.774-0.096-1.164-0.099-0.56-0.001-1.123 0.009-1.677 0.099l-0.487 2.924c-0.582 0.169-1.149 0.391-1.675 0.701l-2.403-1.718c-0.742 0.594-1.453 1.239-2.013 2.012l1.718 2.403c-0.29 0.534-0.548 1.086-0.701 1.675l-2.924 0.487c-0.106 0.943-0.155 1.899 0 2.841l2.924 0.485zm3.975-4.912c0.796-0.796 1.88-1.248 3.006-1.253 4.703 0.121 5.904 6.616 1.458 8.257-4.225 1.559-7.65-3.818-4.464-7.004zm-9.675 58.313 2.897 0.625c0.446-0.838 0.844-1.708 1.045-2.64l-2.539-1.53c0.056-0.604 0.059-1.212-0.034-1.815l2.484-1.6c-0.278-0.908-0.617-1.806-1.13-2.612l-2.868 0.71c-0.386-0.465-0.805-0.908-1.297-1.267l0.625-2.899c-0.342-0.186-0.684-0.374-1.045-0.521-0.519-0.208-1.046-0.406-1.595-0.526l-1.53 2.541c-0.604-0.058-1.213-0.06-1.815 0.033l-1.602-2.481c-0.909 0.278-1.807 0.617-2.613 1.129l0.711 2.868c-0.466 0.388-0.909 0.807-1.268 1.298l-2.898-0.624c-0.446 0.838-0.843 1.708-1.046 2.64l2.54 1.53c-0.057 0.604-0.059 1.214 0.035 1.815l-2.483 1.601c0.278 0.91 0.618 1.807 1.13 2.612l2.867-0.712c0.388 0.467 0.807 0.909 1.3 1.267l-0.625 2.899c0.366 0.198 0.732 0.395 1.118 0.553 0.496 0.197 1.002 0.375 1.524 0.493l1.528-2.539c0.605 0.056 1.213 0.059 1.815-0.036l1.603 2.483c0.908-0.277 1.806-0.616 2.612-1.129l-0.712-2.867c0.463-0.386 0.906-0.803 1.266-1.297zm-5.906-0.09c-4.502-0.107-5.705-6.368-1.569-8.156 1.033-0.446 2.208-0.466 3.256-0.058 4.327 1.844 3.051 8.326-1.687 8.214zm24.505 11.726 2.896 0.625c0.447-0.839 0.845-1.708 1.048-2.64l-2.54-1.53c0.057-0.605 0.059-1.213-0.035-1.815l2.482-1.603c-0.278-0.907-0.617-1.806-1.129-2.611l-2.868 0.712c-0.388-0.467-0.806-0.909-1.299-1.267l0.625-2.899c-0.341-0.187-0.685-0.373-1.045-0.52-0.521-0.208-1.047-0.406-1.596-0.526l-1.53 2.542c-0.604-0.058-1.212-0.06-1.815 0.034l-1.601-2.483c-0.909 0.279-1.807 0.617-2.612 1.129l0.712 2.868c-0.466 0.388-0.909 0.807-1.269 1.298l-2.897-0.624c-0.447 0.838-0.844 1.709-1.047 2.641l2.54 1.529c-0.057 0.604-0.06 1.215 0.034 1.816l-2.481 1.601c0.278 0.909 0.617 1.807 1.129 2.612l2.867-0.711c0.388 0.466 0.808 0.909 1.299 1.268l-0.625 2.898c0.366 0.197 0.732 0.395 1.118 0.551 0.495 0.197 1.002 0.375 1.523 0.494l1.53-2.539c0.604 0.057 1.213 0.06 1.815-0.037l1.602 2.483c0.91-0.277 1.807-0.617 2.613-1.129l-0.711-2.87c0.465-0.39 0.907-0.808 1.267-1.3zm-5.906-0.091c-4.502-0.106-5.704-6.367-1.569-8.154 1.032-0.447 2.208-0.466 3.255-0.059 4.329 1.844 3.052 8.327-1.686 8.213zm-9.917-26.832c-0.106 0.942-0.155 1.899 0 2.84l2.924 0.487c0.17 0.583 0.392 1.15 0.701 1.675l-1.718 2.404c0.595 0.742 1.24 1.452 2.013 2.011l2.404-1.717c0.532 0.289 1.086 0.547 1.675 0.7l0.487 2.924c0.413 0.049 0.826 0.098 1.242 0.102 0.533 0 1.07-0.02 1.598-0.102l0.486-2.924c0.583-0.168 1.15-0.392 1.675-0.7l2.404 1.717c0.743-0.593 1.452-1.238 2.014-2.011l-1.718-2.403c0.29-0.533 0.548-1.086 0.7-1.675l2.923-0.487c0.106-0.945 0.156-1.9 0-2.841l-2.923-0.487c-0.169-0.582-0.392-1.15-0.7-1.674l1.718-2.404c-0.594-0.741-1.24-1.451-2.014-2.012l-2.404 1.717c-0.532-0.29-1.085-0.548-1.675-0.7l-0.486-2.924c-0.387-0.048-0.774-0.097-1.164-0.1-0.56-0.001-1.123 0.01-1.677 0.1l-0.487 2.925c-0.582 0.169-1.149 0.391-1.675 0.699l-2.403-1.72c-0.742 0.594-1.453 1.239-2.013 2.012l1.718 2.404c-0.29 0.533-0.548 1.085-0.701 1.674l-2.924 0.487zm6.899-1.585c0.796-0.795 1.88-1.247 3.006-1.253 4.703 0.122 5.904 6.617 1.458 8.257-4.225 1.559-7.65-3.819-4.464-7.004zm-5.375-13.212 2.868-0.712c0.388 0.466 0.808 0.909 1.299 1.268l-0.625 2.898c0.366 0.199 0.732 0.395 1.118 0.552 0.495 0.198 1.002 0.376 1.523 0.495l1.53-2.541c0.604 0.058 1.213 0.06 1.815-0.034l1.602 2.483c0.91-0.278 1.807-0.616 2.613-1.131l-0.712-2.866c0.467-0.388 0.91-0.807 1.269-1.299l2.897 0.625c0.446-0.838 0.845-1.709 1.048-2.641l-2.54-1.529c0.056-0.605 0.058-1.213-0.035-1.816l2.483-1.602c-0.279-0.909-0.617-1.807-1.129-2.612l-2.869 0.711c-0.388-0.467-0.806-0.91-1.299-1.268l0.625-2.898c-0.341-0.188-0.685-0.375-1.045-0.521-0.521-0.208-1.047-0.406-1.596-0.526l-1.53 2.541c-0.603-0.058-1.212-0.06-1.814 0.034l-1.603-2.482c-0.908 0.277-1.806 0.617-2.612 1.128l0.713 2.868c-0.466 0.389-0.909 0.806-1.269 1.299l-2.898-0.625c-0.446 0.838-0.844 1.709-1.046 2.641l2.54 1.529c-0.058 0.604-0.06 1.215 0.033 1.815l-2.481 1.603c0.276 0.91 0.615 1.808 1.127 2.613zm6.825-9.132c1.032-0.447 2.208-0.466 3.255-0.059 4.329 1.845 3.051 8.328-1.686 8.213-4.502-0.106-5.705-6.366-1.569-8.154zm46.945 66.048c-0.169-0.583-0.392-1.149-0.702-1.675l1.719-2.404c-0.595-0.741-1.24-1.451-2.013-2.011l-2.405 1.718c-0.531-0.291-1.084-0.549-1.674-0.7l-0.486-2.925c-0.386-0.047-0.775-0.097-1.165-0.1-0.56-0.001-1.123 0.009-1.677 0.1l-0.487 2.925c-0.583 0.168-1.149 0.391-1.675 0.7l-2.403-1.718c-0.743 0.593-1.453 1.238-2.012 2.011l1.717 2.404c-0.291 0.533-0.548 1.085-0.701 1.675l-2.924 0.487c-0.106 0.943-0.157 1.898 0 2.841l2.924 0.486c0.169 0.583 0.392 1.151 0.701 1.675l-1.717 2.403c0.593 0.743 1.239 1.452 2.012 2.012l2.403-1.716c0.533 0.289 1.086 0.547 1.675 0.699l0.487 2.924c0.412 0.05 0.826 0.099 1.243 0.103 0.533 0 1.069-0.021 1.598-0.103l0.486-2.924c0.583-0.169 1.151-0.391 1.675-0.699l2.404 1.716c0.742-0.593 1.452-1.238 2.012-2.012l-1.718-2.403c0.291-0.532 0.549-1.085 0.7-1.675l2.924-0.486c0.106-0.945 0.156-1.899 0-2.841l-2.921-0.487zm-5.523 5.907c-4.225 1.559-7.648-3.818-4.463-7.004 0.796-0.795 1.88-1.247 3.005-1.253 4.703 0.12 5.905 6.615 1.458 8.257zm-8.438-86.14c0.169 0.583 0.393 1.15 0.7 1.675l-1.718 2.404c0.594 0.742 1.239 1.452 2.013 2.011l2.404-1.716c0.531 0.289 1.085 0.547 1.674 0.699l0.486 2.924c0.413 0.051 0.827 0.099 1.243 0.104 0.533 0 1.069-0.022 1.599-0.104l0.486-2.924c0.583-0.168 1.15-0.391 1.674-0.699l2.405 1.716c0.742-0.594 1.451-1.239 2.013-2.011l-1.719-2.404c0.291-0.533 0.55-1.084 0.702-1.675l2.923-0.486c0.106-0.944 0.156-1.898 0-2.841l-2.923-0.487c-0.169-0.583-0.392-1.149-0.702-1.674l1.719-2.405c-0.595-0.741-1.24-1.451-2.013-2.012l-2.405 1.718c-0.531-0.291-1.084-0.548-1.674-0.7l-0.486-2.925c-0.386-0.048-0.775-0.097-1.165-0.099-0.56-0.002-1.123 0.009-1.677 0.099l-0.487 2.925c-0.583 0.169-1.149 0.391-1.675 0.7l-2.403-1.718c-0.743 0.595-1.453 1.24-2.012 2.012l1.717 2.405c-0.291 0.533-0.548 1.085-0.701 1.674l-2.924 0.487c-0.106 0.943-0.157 1.899 0 2.841l2.926 0.486zm3.975-4.912c0.796-0.796 1.88-1.248 3.005-1.253 4.703 0.121 5.905 6.616 1.458 8.257-4.225 1.559-7.648-3.818-4.463-7.004zm-2.653 61.26-2.898-0.624c-0.447 0.837-0.843 1.708-1.046 2.64l2.54 1.53c-0.057 0.604-0.059 1.214 0.035 1.815l-2.482 1.602c0.278 0.909 0.617 1.807 1.13 2.613l2.867-0.712c0.389 0.467 0.807 0.91 1.299 1.268l-0.626 2.899c0.366 0.198 0.732 0.396 1.118 0.551 0.496 0.197 1.002 0.375 1.524 0.494l1.53-2.539c0.604 0.057 1.213 0.06 1.815-0.036l1.601 2.482c0.91-0.277 1.808-0.616 2.614-1.129l-0.712-2.867c0.465-0.389 0.909-0.806 1.268-1.299l2.897 0.625c0.446-0.84 0.845-1.709 1.046-2.641l-2.538-1.53c0.056-0.605 0.058-1.212-0.036-1.815l2.483-1.603c-0.28-0.908-0.617-1.805-1.131-2.61l-2.867 0.71c-0.387-0.466-0.807-0.908-1.299-1.267l0.625-2.899c-0.342-0.187-0.684-0.374-1.046-0.521-0.52-0.208-1.046-0.406-1.595-0.526l-1.531 2.541c-0.604-0.058-1.212-0.061-1.814 0.034l-1.602-2.482c-0.909 0.277-1.807 0.616-2.612 1.128l0.711 2.869c-0.465 0.388-0.907 0.807-1.268 1.299zm4.101 0.443c1.032-0.447 2.208-0.466 3.256-0.059 4.328 1.844 3.051 8.327-1.686 8.213-4.502-0.107-5.704-6.366-1.57-8.154zm8.538-19.165c-0.169-0.582-0.392-1.149-0.702-1.674l1.719-2.404c-0.595-0.742-1.24-1.451-2.013-2.013l-2.405 1.718c-0.531-0.291-1.084-0.548-1.674-0.701l-0.486-2.924c-0.386-0.048-0.775-0.096-1.165-0.1-0.56-0.001-1.123 0.01-1.677 0.1l-0.487 2.924c-0.583 0.17-1.149 0.391-1.675 0.701l-2.403-1.718c-0.743 0.595-1.453 1.24-2.012 2.013l1.717 2.404c-0.291 0.533-0.548 1.085-0.701 1.674l-2.924 0.488c-0.106 0.942-0.157 1.899 0 2.84l2.924 0.487c0.169 0.583 0.392 1.15 0.701 1.675l-1.717 2.403c0.593 0.743 1.239 1.452 2.012 2.012l2.403-1.717c0.533 0.289 1.086 0.548 1.675 0.701l0.487 2.924c0.412 0.049 0.826 0.098 1.243 0.102 0.533 0 1.069-0.021 1.598-0.102l0.486-2.924c0.583-0.169 1.151-0.393 1.675-0.701l2.404 1.717c0.742-0.593 1.452-1.237 2.012-2.012l-1.718-2.403c0.291-0.533 0.549-1.086 0.7-1.675l2.924-0.487c0.106-0.945 0.156-1.899 0-2.84l-2.921-0.488zm-5.523 5.907c-4.225 1.559-7.648-3.818-4.463-7.005 0.796-0.795 1.88-1.247 3.005-1.252 4.703 0.12 5.905 6.616 1.458 8.257zm-6.456-16.36 0.625-2.899c-0.492-0.359-0.911-0.802-1.299-1.268l-2.868 0.711c-0.512-0.805-0.851-1.703-1.129-2.612l0.239-0.154c0.265 0.823 0.583 1.633 1.049 2.366l2.868-0.712c0.389 0.466 0.808 0.909 1.3 1.268l-0.627 2.898c0.368 0.199 0.733 0.395 1.119 0.552 0.495 0.198 1.002 0.376 1.523 0.495l1.529-2.54c0.604 0.057 1.214 0.059 1.815-0.035l1.602 2.483c0.826-0.253 1.639-0.563 2.385-1.001l0.069 0.271c-0.805 0.512-1.704 0.851-2.612 1.13l-1.602-2.482c-0.602 0.094-1.209 0.091-1.815 0.033l-1.528 2.541c-0.521-0.119-1.028-0.297-1.524-0.493-0.387-0.158-0.752-0.355-1.119-0.552zm-58.94 3.62c0.171 0.583 0.392 1.149 0.7 1.675l-1.717 2.403c0.594 0.743 1.239 1.453 2.012 2.012l2.405-1.717c0.532 0.291 1.084 0.547 1.674 0.7l0.488 2.924c0.412 0.05 0.825 0.097 1.242 0.102 0.533 0 1.07-0.021 1.597-0.102l0.488-2.924c0.583-0.169 1.149-0.391 1.674-0.7l2.404 1.717c0.743-0.593 1.452-1.238 2.012-2.012l-1.717-2.403c0.291-0.533 0.548-1.085 0.7-1.675l2.925-0.487c0.105-0.943 0.155-1.897 0-2.84l-2.925-0.487c-0.169-0.583-0.392-1.149-0.7-1.674l1.717-2.405c-0.594-0.741-1.239-1.452-2.012-2.011l-2.404 1.717c-0.533-0.291-1.085-0.548-1.674-0.699l-0.488-2.925c-0.386-0.047-0.772-0.096-1.163-0.098-0.56-0.003-1.123 0.008-1.676 0.098l-0.488 2.925c-0.582 0.169-1.149 0.391-1.674 0.699l-2.404-1.717c-0.743 0.593-1.451 1.239-2.012 2.011l1.718 2.405c-0.292 0.532-0.548 1.084-0.701 1.674l-2.924 0.487c-0.105 0.943-0.155 1.898 0 2.84l2.923 0.487zm3.977-4.912c0.794-0.796 1.88-1.248 3.006-1.253 4.702 0.121 5.904 6.617 1.458 8.257-4.227 1.558-7.652-3.818-4.464-7.004zm-4.073-17.103-2.483 1.601c0.278 0.911 0.618 1.808 1.129 2.613l2.868-0.712c0.388 0.467 0.807 0.909 1.299 1.269l-0.625 2.898c0.366 0.198 0.732 0.395 1.117 0.552 0.496 0.198 1.002 0.375 1.524 0.494l1.529-2.54c0.604 0.057 1.213 0.059 1.815-0.035l1.603 2.483c0.908-0.277 1.806-0.617 2.612-1.131l-0.712-2.866c0.466-0.388 0.909-0.807 1.269-1.3l2.897 0.626c0.446-0.839 0.844-1.708 1.045-2.641l-2.539-1.53c0.056-0.605 0.059-1.214-0.034-1.815l2.482-1.604c-0.278-0.908-0.617-1.806-1.13-2.611l-2.868 0.712c-0.386-0.467-0.805-0.909-1.297-1.267l0.625-2.899c-0.342-0.186-0.684-0.373-1.045-0.521-0.519-0.208-1.046-0.405-1.595-0.525l-1.53 2.539c-0.604-0.057-1.213-0.059-1.815 0.035l-1.602-2.482c-0.909 0.277-1.807 0.617-2.613 1.129l0.711 2.868c-0.466 0.389-0.909 0.806-1.268 1.299l-2.898-0.625c-0.446 0.838-0.843 1.709-1.046 2.64l2.54 1.529c-0.057 0.606-0.058 1.215 0.035 1.817zm5.47-4.918c1.033-0.446 2.208-0.466 3.256-0.058 4.328 1.845 3.051 8.326-1.687 8.213-4.502-0.106-5.705-6.366-1.569-8.155zm46.017 68.228 2.924-0.486c0.105-0.945 0.155-1.9 0-2.841l-2.924-0.489c-0.17-0.581-0.393-1.148-0.701-1.674l1.717-2.404c-0.593-0.741-1.238-1.451-2.013-2.012l-2.403 1.718c-0.532-0.291-1.085-0.548-1.675-0.701l-0.486-2.924c-0.387-0.048-0.774-0.097-1.164-0.099-0.56-0.002-1.123 0.008-1.677 0.099l-0.486 2.924c-0.583 0.169-1.151 0.392-1.675 0.701l-2.404-1.718c-0.743 0.593-1.452 1.238-2.013 2.012l1.717 2.404c-0.29 0.533-0.548 1.085-0.7 1.674l-2.924 0.489c-0.106 0.942-0.154 1.898 0 2.841l2.924 0.486c0.17 0.582 0.392 1.15 0.7 1.676l-1.717 2.402c0.594 0.743 1.239 1.453 2.013 2.013l2.404-1.718c0.532 0.29 1.084 0.548 1.675 0.7l0.486 2.924c0.413 0.05 0.827 0.099 1.243 0.103 0.533 0 1.069-0.021 1.597-0.103l0.487-2.924c0.583-0.169 1.149-0.391 1.675-0.7l2.403 1.718c0.743-0.593 1.454-1.239 2.014-2.013l-1.718-2.402c0.289-0.532 0.549-1.086 0.701-1.676zm-5.523 2.092c-4.225 1.56-7.65-3.818-4.463-7.004 0.796-0.795 1.881-1.247 3.005-1.253 4.702 0.12 5.905 6.617 1.458 8.257zm7.132-30.355-2.869 0.712c-0.388-0.465-0.806-0.908-1.299-1.267l0.624-2.899c-0.34-0.186-0.682-0.374-1.043-0.521-0.521-0.208-1.049-0.406-1.597-0.526l-1.53 2.541c-0.604-0.058-1.212-0.06-1.815 0.033l-1.602-2.481c-0.908 0.278-1.806 0.617-2.612 1.129l0.712 2.868c-0.467 0.388-0.909 0.807-1.269 1.297l-2.898-0.624c-0.445 0.838-0.843 1.708-1.045 2.64l2.54 1.53c-0.058 0.604-0.059 1.214 0.033 1.815l-2.481 1.601c0.279 0.91 0.618 1.807 1.13 2.612l2.867-0.712c0.389 0.467 0.808 0.909 1.299 1.267l-0.625 2.899c0.366 0.198 0.732 0.395 1.118 0.553 0.496 0.197 1.002 0.375 1.523 0.493l1.53-2.539c0.604 0.056 1.214 0.059 1.814-0.036l1.603 2.483c0.909-0.277 1.806-0.616 2.611-1.129l-0.711-2.867c0.466-0.388 0.909-0.807 1.267-1.299l2.898 0.625c0.447-0.838 0.844-1.708 1.048-2.639l-2.54-1.531c0.055-0.604 0.059-1.213-0.036-1.815l2.482-1.603c-0.275-0.906-0.614-1.805-1.127-2.61zm-8.628 9.486c-4.502-0.107-5.704-6.368-1.569-8.156 1.032-0.446 2.207-0.466 3.256-0.058 4.327 1.844 3.051 8.326-1.687 8.214zm9.942-23.005c0.106-0.943 0.155-1.897 0-2.84l-2.924-0.487c-0.17-0.583-0.392-1.149-0.7-1.674l1.718-2.405c-0.594-0.741-1.239-1.452-2.014-2.011l-2.403 1.717c-0.533-0.291-1.085-0.548-1.675-0.699l-0.487-2.925c-0.385-0.047-0.772-0.096-1.163-0.098-0.56-0.003-1.123 0.008-1.677 0.098l-0.486 2.925c-0.583 0.169-1.15 0.391-1.675 0.699l-2.403-1.717c-0.743 0.593-1.452 1.239-2.013 2.011l1.717 2.405c-0.29 0.532-0.548 1.084-0.7 1.674l-2.925 0.487c-0.106 0.943-0.154 1.898 0 2.84l2.925 0.487c0.169 0.583 0.392 1.149 0.7 1.675l-1.717 2.403c0.594 0.743 1.239 1.453 2.013 2.012l2.403-1.717c0.531 0.291 1.086 0.547 1.675 0.7l0.486 2.924c0.414 0.05 0.828 0.097 1.243 0.102 0.533 0 1.069-0.021 1.597-0.102l0.486-2.924c0.583-0.169 1.15-0.391 1.675-0.7l2.403 1.717c0.743-0.593 1.454-1.238 2.013-2.012l-1.717-2.403c0.29-0.533 0.549-1.085 0.7-1.675l2.925-0.487zm-8.446 2.578c-4.225 1.559-7.65-3.817-4.463-7.003 0.796-0.796 1.881-1.248 3.005-1.253 4.702 0.121 5.905 6.617 1.458 8.256zm-8.57-25.922c-0.058 0.604-0.059 1.214 0.033 1.815l-2.481 1.601c0.279 0.911 0.618 1.808 1.13 2.613l2.867-0.712c0.389 0.467 0.808 0.909 1.299 1.269l-0.625 2.898c0.366 0.198 0.732 0.395 1.118 0.552 0.496 0.198 1.002 0.375 1.523 0.494l1.53-2.54c0.604 0.057 1.214 0.059 1.814-0.035l1.603 2.483c0.909-0.277 1.806-0.617 2.611-1.131l-0.711-2.866c0.466-0.388 0.909-0.807 1.267-1.3l2.898 0.626c0.447-0.839 0.844-1.708 1.048-2.641l-2.54-1.53c0.055-0.605 0.059-1.214-0.036-1.815l2.482-1.604c-0.278-0.908-0.616-1.806-1.128-2.611l-2.868 0.712c-0.388-0.467-0.806-0.909-1.297-1.267l0.624-2.899c-0.341-0.186-0.684-0.373-1.045-0.521-0.521-0.208-1.049-0.405-1.596-0.525l-1.53 2.539c-0.605-0.057-1.213-0.059-1.814 0.035l-1.602-2.482c-0.909 0.277-1.806 0.617-2.613 1.129l0.712 2.868c-0.467 0.389-0.91 0.806-1.269 1.299l-2.899-0.625c-0.445 0.838-0.843 1.709-1.045 2.64l2.54 1.531zm5.505-3.102c1.032-0.446 2.207-0.466 3.256-0.058 4.328 1.845 3.051 8.326-1.687 8.213-4.502-0.106-5.704-6.366-1.569-8.155z"/>
     <g id="g4826">
      <path id="path4828" style="opacity:.2" d="m107.07 131.59 2.302-1.484c-0.025-0.083-0.054-0.165-0.081-0.248l-2.243 1.449c0.013 0.095 0.012 0.19 0.022 0.283z"/>
      <path id="path4830" style="opacity:.2" d="m101.46 128.37c-1.049-0.409-2.223-0.389-3.256 0.058-1.176 0.509-1.908 1.384-2.268 2.373 0.401-0.821 1.092-1.533 2.108-1.973 1.032-0.446 2.207-0.466 3.256-0.057 2.374 1.012 3.053 3.416 2.409 5.365 0.888-2.007 0.291-4.684-2.249-5.766z"/>
      <path id="path4832" style="opacity:.2" d="m95.367 126.68-0.643-2.596c-0.077 0.045-0.154 0.082-0.229 0.129l0.661 2.658c0.072-0.062 0.138-0.13 0.211-0.191z"/>
      <path id="path4834" style="opacity:.2" d="m108.57 137.29-2.899-0.626c-0.358 0.493-0.801 0.912-1.268 1.3l0.052 0.21c0.386-0.336 0.755-0.693 1.059-1.109l2.896 0.625c0.267-0.5 0.51-1.015 0.71-1.546-0.165 0.391-0.352 0.772-0.55 1.146z"/>
      <path id="path4836" style="opacity:.2" d="m92.547 133.46 0.18-0.118c-0.091-0.602-0.091-1.211-0.033-1.815l-2.54-1.529c0.082-0.375 0.201-0.739 0.336-1.097-0.207 0.484-0.383 0.981-0.495 1.498l2.539 1.529c-0.047 0.511-0.042 1.024 0.013 1.532z"/>
      <path id="path4838" style="opacity:.2" d="m102.5 141.96-1.603-2.483c-0.601 0.093-1.21 0.092-1.814 0.035l-1.53 2.54c-0.521-0.119-1.026-0.296-1.523-0.494-0.386-0.157-0.752-0.354-1.118-0.552l0.625-2.898c-0.491-0.359-0.91-0.803-1.299-1.269l-2.867 0.712c-0.466-0.732-0.785-1.542-1.05-2.366l-0.239 0.154c0.279 0.91 0.618 1.807 1.129 2.613l2.868-0.711c0.388 0.465 0.807 0.909 1.299 1.268l-0.626 2.899c0.367 0.198 0.732 0.394 1.119 0.552 0.495 0.196 1.001 0.375 1.522 0.493l1.531-2.539c0.604 0.057 1.211 0.059 1.814-0.034l1.602 2.484c0.91-0.279 1.807-0.619 2.613-1.131l-0.067-0.272c-0.746 0.437-1.56 0.747-2.386 0.999z"/>
     </g>
    </g>
   </g>
  </g>
 </g>
 <path id="path5967" style="opacity:.05" d="m64.168 24.668c-18.673 0-33.165 17.852-33.165 38.88 0 21.027 14.478 38.97 33.165 38.97s33.165-17.943 33.165-38.97c0-21.028-14.492-38.88-33.165-38.88zm0 13.14c2.6142 0 4.0167 0.5002 5.175 1.395 1.1328 0.87509 2.0765 2.2734 2.88 4.5 1.5712 4.3542 2.025 11.655 2.025 19.845 0.000002 8.1577-0.53044 15.411-2.16 19.8-0.82436 2.2205-1.8391 3.7037-2.97 4.59-1.1648 0.91292-2.483 1.395-4.95 1.395-2.536 0-3.8728-0.48513-5.04-1.395-1.1142-0.86857-2.1072-2.3563-2.925-4.59-1.6064-4.3875-2.115-11.631-2.115-19.8 0.000002-8.1786 0.47485-15.441 2.07-19.8 0.80185-2.1911 1.8164-3.6491 2.97-4.545 1.1789-0.9156 2.4915-1.395 5.04-1.395z"/>
 <path id="path5963" style="opacity:.1" d="m64.168 26.153c-17.733 0-31.68 17.037-31.68 37.395 0 20.357 13.937 37.485 31.68 37.485s31.68-17.128 31.68-37.485c0-20.358-13.947-37.395-31.68-37.395zm0 10.17c2.8239 0 4.6449 0.60522 6.075 1.71 1.4206 1.0974 2.5122 2.7839 3.375 5.175 1.7107 4.741 2.115 12.102 2.115 20.34 0.000002 8.2149-0.48013 15.528-2.25 20.295-0.88756 2.3907-2.0468 4.1534-3.465 5.265-1.4234 1.1156-3.1663 1.71-5.85 1.71-2.7483 0-4.5114-0.59632-5.94-1.71-1.4149-1.103-2.5426-2.8686-3.42-5.265-1.7443-4.7641-2.205-12.072-2.205-20.295 0.000002-8.229 0.42385-15.551 2.16-20.295 0.86797-2.3718 2.0319-4.1069 3.465-5.22 1.4343-1.1139 3.1802-1.71 5.94-1.71z"/>
 <path id="path5959" style="opacity:.15" d="m64.168 27.548c-16.845 0-30.285 16.269-30.285 36s13.435 36.09 30.285 36.09 30.285-16.359 30.285-36.09-13.44-36-30.285-36zm0 7.38c3.0406 0 5.2364 0.7166 6.93 2.025s2.907 3.2608 3.825 5.805c1.8361 5.0883 2.205 12.511 2.205 20.79 0.000003 8.2642-0.44298 15.68-2.34 20.79-0.94851 2.5549-2.2375 4.5353-3.915 5.85s-3.7968 2.025-6.705 2.025c-2.9686 0-5.11-0.71146-6.795-2.025s-2.9354-3.2973-3.87-5.85c-1.8693-5.1054-2.295-12.519-2.295-20.79 0.000002-8.272 0.38631-15.697 2.25-20.79 0.93185-2.5463 2.2289-4.4955 3.915-5.805s3.8145-2.025 6.795-2.025z"/>
 <path id="path5953" d="m64.168 29.033c-15.892 0-28.8 15.465-28.8 34.532 0 19.068 12.908 34.588 28.8 34.588s28.8-15.52 28.8-34.588-12.908-34.532-28.8-34.532zm0 4.4237c13.165 0 14.428 13.476 14.428 30.109 0.000006 16.632-1.75 30.136-14.428 30.136-12.902 0-14.428-13.504-14.428-30.136 0.000003-16.632 1.4857-30.109 14.428-30.109z" style="opacity:.3"/>
 <path id="path3539" d="m64.168 27.593c-15.892 0-28.8 15.465-28.8 34.532 0 19.068 12.908 34.588 28.8 34.588s28.8-15.52 28.8-34.588-12.908-34.532-28.8-34.532zm0 4.4237c13.165 0 14.428 13.476 14.428 30.109 0.000006 16.632-1.75 30.136-14.428 30.136-12.902 0-14.428-13.504-14.428-30.136 0.000003-16.632 1.4857-30.109 14.428-30.109z" style="fill:url(#linearGradient4504)"/>
 <path id="path5935" d="m64.168 27.593c-15.892 0-28.8 15.447-28.8 34.515 0 0.2382-0.004 0.48293 0 0.72 0.32492-18.73 13.112-33.795 28.8-33.795s28.475 15.065 28.8 33.795c0.004-0.23707 0-0.4818 0-0.72 0-19.068-12.908-34.515-28.8-34.515zm14.445 35.1c-0.04291 16.357-1.9194 29.565-14.445 29.565-11.289 0-13.886-10.348-14.355-24.075 0.34444 14.421 2.6838 25.515 14.355 25.515 12.678 0 14.445-13.518 14.445-30.15 0-0.29473 0.000853-0.56231 0-0.855z" style="opacity:.75;fill:#fff"/>
 <path id="path5944" d="m64.168 30.563c-11.711 0-14.017 11.093-14.355 25.515 0.46132-13.722 3.0303-24.075 14.355-24.075 11.52 0 13.933 10.353 14.355 24.075-0.30461-14.422-2.4423-25.515-14.355-25.515zm-28.8 30.825c-0.0042 0.24309 0 0.4757 0 0.72 0 19.068 12.908 34.605 28.8 34.605s28.8-15.537 28.8-34.605c0-0.2443 0.0042-0.47691 0-0.72-0.31694 18.74-13.107 33.885-28.8 33.885s-28.483-15.145-28.8-33.885z" style="opacity:.15"/>
</svg>
