<?xml version="1.0" encoding="UTF-8" standalone="no"?>
<!-- Created with Inkscape (http://www.inkscape.org/) -->
<svg id="svg3449" xmlns:rdf="http://www.w3.org/1999/02/22-rdf-syntax-ns#" xmlns="http://www.w3.org/2000/svg" height="128" width="128" version="1.0" xmlns:cc="http://creativecommons.org/ns#" xmlns:xlink="http://www.w3.org/1999/xlink" xmlns:dc="http://purl.org/dc/elements/1.1/">
 <metadata id="metadata56">
  <rdf:RDF>
   <cc:Work rdf:about="">
    <dc:format>image/svg+xml</dc:format>
    <dc:type rdf:resource="http://purl.org/dc/dcmitype/StillImage"/>
    <dc:title/>
   </cc:Work>
  </rdf:RDF>
 </metadata>
 <defs id="defs3451">
  <linearGradient id="linearGradient3514" y2="-9.1034" gradientUnits="userSpaceOnUse" x2="66.492" gradientTransform="matrix(.96826 0 0 .97948 2.179 .16587)" y1="-42.638" x1="67.952">
   <stop id="stop4620" style="stop-color:#37414b" offset="0"/>
   <stop id="stop4622" style="stop-color:#37414b;stop-opacity:0" offset="1"/>
  </linearGradient>
  <linearGradient id="linearGradient3516" y2="-11.847" gradientUnits="userSpaceOnUse" x2="58.98" gradientTransform="matrix(.96826 0 0 .97948 2.179 .16587)" y1="-118.55" x1="57.173">
   <stop id="stop4596" offset="0"/>
   <stop id="stop4598" style="stop-opacity:0" offset="1"/>
  </linearGradient>
  <linearGradient id="linearGradient3519" y2="50.369" gradientUnits="userSpaceOnUse" x2="76.558" gradientTransform="matrix(.96826 0 0 .97948 3.2423 -129.19)" y1="13.164" x1="76.558">
   <stop id="stop3392" style="stop-color:#425e7b" offset="0"/>
   <stop id="stop3394" style="stop-color:#7a91a7" offset="1"/>
  </linearGradient>
  <linearGradient id="linearGradient3521" y2="-8.7399" gradientUnits="userSpaceOnUse" x2="60.217" gradientTransform="matrix(.96826 0 0 .97948 2.179 .16587)" y1="-123.72" x1="60.395">
   <stop id="stop3392-4-8" style="stop-color:#425e7b" offset="0"/>
   <stop id="stop3394-8-0" style="stop-color:#7a91a7" offset="1"/>
  </linearGradient>
  <radialGradient id="radialGradient3349" gradientUnits="userSpaceOnUse" cy="45.647" cx="42.148" gradientTransform="matrix(.94690 0 0 1.139 3.5954 -29.89)" r="58.984">
   <stop id="stop8767" style="stop-color:#cd8051" offset="0"/>
   <stop id="stop8769" style="stop-color:#914112" offset="1"/>
  </radialGradient>
  <filter id="filter3174" color-interpolation-filters="sRGB">
   <feGaussianBlur id="feGaussianBlur3176" stdDeviation="1.71"/>
  </filter>
  <linearGradient id="ButtonShadow-1" x1="45.448" gradientUnits="userSpaceOnUse" y1="92.54" gradientTransform="scale(1.0059 .99417)" x2="45.448" y2="7.0165">
   <stop id="stop3750-0" offset="0"/>
   <stop id="stop3752-4" style="stop-opacity:.58824" offset="1"/>
  </linearGradient>
  <filter id="filter3174-5" color-interpolation-filters="sRGB">
   <feGaussianBlur id="feGaussianBlur3176-5" stdDeviation="1.71"/>
  </filter>
  <linearGradient id="linearGradient8771" y2="-16" gradientUnits="userSpaceOnUse" x2="56" y1="72" x1="56">
   <stop id="stop3846" style="stop-color:#582100" offset="0"/>
   <stop id="stop3848" style="stop-color:#582100;stop-opacity:0" offset="1"/>
  </linearGradient>
 </defs>
 <rect id="rect892-2-7-2" ry="29.452" style="stroke:#d3d3d3;stroke-width:9.8448;fill:#37414b" transform="scale(1,-1)" height="116.16" width="116.08" y="-122.08" x="5.9224"/>
 <rect id="rect892" style="stroke:url(#linearGradient3521);stroke-width:.97385;fill:url(#linearGradient3519)" transform="scale(1,-1)" ry="29.296" height="115.54" width="114.22" y="-122.25" x="7.0394"/>
 <rect id="rect892-2" style="stroke:url(#linearGradient3516);stroke-width:.97385;fill:url(#linearGradient3514)" transform="scale(1,-1)" ry="28.993" height="114.35" width="114.22" y="-121.46" x="7.0599"/>
 <path id="rect895" style="fill:url(#radialGradient3349)" d="m33.051 7.2596c-7.969-2.4493-27.013 15.174-25.653 23.038-0.050142 0.97378-0.088772 1.9648-0.088772 2.9572v52.419c0 20.876 10.712 33.859 22.318 33.859h67.038c12.638 0 24.318-11.245 24.318-25.859v-64.017c0.7-10.928-21.283-24.659-25.926-22.618-47.846 0.8653-18.017 0.2236-62.003 0.2236z"/>
 <rect id="rect892-2-7-8" style="opacity:.15891;stroke:#000;stroke-width:4.8445;fill:none" transform="scale(1,-1)" ry="28.993" height="114.35" width="114.22" y="-121.16" x="6.8687"/>
 <rect id="rect892-2-7-1" style="opacity:.15891;stroke:#000;stroke-width:7.7512;fill:none" transform="scale(1,-1)" ry="28.993" height="114.35" width="114.22" y="-121.16" x="6.8687"/>
 <rect id="rect892-2-7-2-9" ry="28.067" style="stroke:#000;stroke-width:1.0489;fill:none" transform="scale(1,-1)" height="112.71" width="114.14" y="-120.31" x="7.0649"/>
 <path id="path1187" style="fill:#fff;fill-opacity:.057143" d="m33.017 7.2319c-23.707 0-26.027 0.6738-25.93 26.295-0.04334 0.71563-0.07674 1.4439-0.07674 2.1732v32.76c18.67-38.321 38.34-51.497 90.374-61.179-0.225-0.026-0.46-0.0303-0.691-0.0303-41.576 0.3874-25.652-0.0188-63.676-0.0188z"/>
 <g id="layer2" style="display:none" transform="translate(148.5 -54.67)">
  <rect id="rect3745" style="opacity:.9;filter:url(#filter3174);fill:url(#ButtonShadow-1)" rx="6" ry="6" height="85" width="86" y="7" x="5"/>
 </g>
 <g id="g8740" transform="matrix(1.4423 0 0 1.443 -7.2295 -3.9804)">
  <g id="layer2-0" style="display:none">
   <rect id="rect3745-1" style="opacity:.9;filter:url(#filter3174-5);fill:url(#ButtonShadow-1)" rx="6" ry="6" height="85" width="86" y="7" x="5"/>
  </g>
  <g id="layer1-6">
   <path id="path3901" d="m47.812 20.781a0.73049 0.73049 0 0 0 -0.374 0.219l-13.907 15.562a0.73049 0.73049 0 0 0 0.344 1.219l5.687 1.469-12.687 12.156a0.73049 0.73049 0 0 0 0.3125 1.25l5.874 1.469-12.562 11.5a0.73049 0.73049 0 0 0 0.34375 1.25l21.969 4.5938v4.0312a0.73049 0.73049 0 0 0 0.71875 0.71875h8.9375a0.73049 0.73049 0 0 0 0.718 -0.719v-4.0312l21.968-4.594a0.73049 0.73049 0 0 0 0.344 -1.25l-12.562-11.5 5.875-1.4688a0.73049 0.73049 0 0 0 0.3125 -1.25l-12.688-12.156 5.687-1.469a0.73049 0.73049 0 0 0 0.344 -1.219l-13.907-15.562a0.73049 0.73049 0 0 0 -0.53125 -0.21875h-0.0625a0.73049 0.73049 0 0 0 -0.15625 0zm0.157 0.219h0.062l13.907 15.562-6.969 1.813 13.656 13.063-7.187 1.812 13.562 12.406-22.531 4.719v4.625h-8.9375v-4.625l-22.532-4.719 13.562-12.406-7.187-1.812 13.656-13.063-6.969-1.813 13.907-15.562z" style="opacity:.15;fill:#e9c6af"/>
   <path id="path2836" d="m47.965 21-13.907 15.56 6.9712 1.8-13.659 13.08 7.1835 1.8l-13.554 12.42 22.541 4.7v4.64h8.9174v-4.62l22.542-4.72-13.553-12.42 7.183-1.8-13.659-13.08 6.971-1.8-13.907-15.56h-0.07077" style="opacity:.5;fill:url(#linearGradient8771)"/>
   <path id="path3890" d="m47.969 21-13.907 15.562 6.969 1.813-13.656 13.063 7.187 1.812-13.562 12.406 22.531 4.719v4.625h8.9375v-4.625l22.532-4.719-13.562-12.406 7.187-1.812-13.656-13.063 6.969-1.813-13.907-15.562h-0.062zm0.031 3.062l10.188 11.375-3.7188 0.96875a2.0411 2.0411 0 0 0 -0.90625 3.4375l11 10.531-3.625 0.90625a2.0411 2.0411 0 0 0 -0.876 3.469l10.625 9.7188-18.625 3.9062a2.0411 2.0411 0 0 0 -1.625 2v2.5938h-4.875v-2.5938a2.0411 2.0411 0 0 0 -1.625 -2l-18.625-3.906 10.626-9.719a2.0411 2.0411 0 0 0 -0.875 -3.4688l-3.625-0.90625 11-10.531a2.0411 2.0411 0 0 0 -0.90625 -3.4375l-3.72-0.968 10.188-11.376z" style="opacity:.05;fill:#520"/>
   <path id="path3852" d="m34.781 36.75-0.71875 0.8125 6.1562 1.5938 0.8125-0.78125-6.25-1.625zm26.438 0-6.25 1.625 0.8125 0.78125l6.156-1.594-0.719-0.812zm-33.031 14.906-0.813 0.782 6.344 1.593 0.843-0.781-6.374-1.594zm39.625 0-6.375 1.5938 0.84375 0.78125l6.343-1.593-0.813-0.782zm-45.938 14.188-0.875 0.812 22.531 4.719v-1l-21.656-4.531zm52.25 0-21.656 4.5312v1l22.531-4.719-0.875-0.812zm-30.594 9.156v1h8.9375v-1h-8.9375z" style="opacity:.3;fill:#ffb584"/>
   <path id="path3861" d="m47.969 21-13.907 15.562 0.719 0.188 13.188-14.75h0.062l13.188 14.75 0.719-0.188-13.907-15.562h-0.0625zm-7.75 18.156l-12.844 12.282 0.813 0.218 12.843-12.281-0.812-0.219zm15.562 0l-0.812 0.219 12.843 12.281 0.813-0.218-12.844-12.282zm-22.062 14.875-12.719 11.625 0.875 0.188 12.687-11.594-0.843-0.219zm28.562 0l-0.843 0.219 12.687 11.594 0.875-0.188-12.719-11.625z" style="opacity:.2"/>
   <path id="path3874" d="m47.969 21-13.907 15.562 6.969 1.813-13.656 13.063 7.187 1.812-13.562 12.406 22.531 4.719v4.625h8.9375v-4.625l22.532-4.719-13.562-12.406 7.187-1.812-13.656-13.063 6.969-1.813-13.907-15.562h-0.062zm0.031 1.844 11.625 13.031-4.969 1.281a1.252 1.252 0 0 0 -0.5625 2.125l12 11.5-4.9688 1.25a1.252 1.252 0 0 0 -0.53125 2.1562l11.75 10.75-20.125 4.2188a1.252 1.252 0 0 0 -1 1.2188v3.375h-6.4375v-3.375a1.252 1.252 0 0 0 -1 -1.2188l-20.125-4.2188 11.75-10.75a1.252 1.252 0 0 0 -0.532 -2.156l-4.9688-1.25 12-11.5a1.252 1.252 0 0 0 -0.5625 -2.125l-4.969-1.281 11.625-13.031z" style="opacity:.15;fill:#4a1d00"/>
   <path id="path3870" d="m47.969 21-13.907 15.562 6.969 1.813-13.656 13.063 7.187 1.812-13.562 12.406 22.531 4.719v4.625h8.9375v-4.625l22.532-4.719-13.562-12.406 7.187-1.812-13.656-13.063 6.969-1.813-13.907-15.562h-0.062zm0.031 1 12.688 14.188-5.907 1.531a0.6904 0.6904 0 0 0 -0.281 1.156l12.75 12.219-5.9688 1.5a0.6904 0.6904 0 0 0 -0.312 1.156l12.562 11.5-21.219 4.4375a0.6904 0.6904 0 0 0 -0.53125 0.6875v3.9375h-7.5625v-3.9375a0.6904 0.6904 0 0 0 -0.53 -0.688l-21.219-4.438 12.562-11.5a0.6904 0.6904 0 0 0 -0.3125 -1.1562l-5.968-1.5 12.75-12.219a0.6904 0.6904 0 0 0 -0.281 -1.156l-5.907-1.531 12.688-14.188z" style="opacity:.2;fill:#4a1d00"/>
  </g>
 </g>
</svg>
