<?xml version="1.0" encoding="UTF-8" standalone="no"?>
<!-- Created with Inkscape (http://www.inkscape.org/) -->
<svg id="svg3449" xmlns:rdf="http://www.w3.org/1999/02/22-rdf-syntax-ns#" xmlns="http://www.w3.org/2000/svg" height="128" width="128" version="1.0" xmlns:cc="http://creativecommons.org/ns#" xmlns:xlink="http://www.w3.org/1999/xlink" xmlns:dc="http://purl.org/dc/elements/1.1/">
 <metadata id="metadata56">
  <rdf:RDF>
   <cc:Work rdf:about="">
    <dc:format>image/svg+xml</dc:format>
    <dc:type rdf:resource="http://purl.org/dc/dcmitype/StillImage"/>
    <dc:title/>
   </cc:Work>
  </rdf:RDF>
 </metadata>
 <defs id="defs3451">
  <linearGradient id="linearGradient3514" y2="-9.1034" gradientUnits="userSpaceOnUse" x2="66.492" gradientTransform="matrix(.96826 0 0 .97948 2.179 .16587)" y1="-42.638" x1="67.952">
   <stop id="stop4620" style="stop-color:#37414b" offset="0"/>
   <stop id="stop4622" style="stop-color:#37414b;stop-opacity:0" offset="1"/>
  </linearGradient>
  <linearGradient id="linearGradient3516" y2="-11.847" gradientUnits="userSpaceOnUse" x2="58.98" gradientTransform="matrix(.96826 0 0 .97948 2.179 .16587)" y1="-118.55" x1="57.173">
   <stop id="stop4596" offset="0"/>
   <stop id="stop4598" style="stop-opacity:0" offset="1"/>
  </linearGradient>
  <linearGradient id="linearGradient3519" y2="50.369" gradientUnits="userSpaceOnUse" x2="76.558" gradientTransform="matrix(.96826 0 0 .97948 3.2423 -129.19)" y1="13.164" x1="76.558">
   <stop id="stop3392" style="stop-color:#425e7b" offset="0"/>
   <stop id="stop3394" style="stop-color:#7a91a7" offset="1"/>
  </linearGradient>
  <linearGradient id="linearGradient3521" y2="-8.7399" gradientUnits="userSpaceOnUse" x2="60.217" gradientTransform="matrix(.96826 0 0 .97948 2.179 .16587)" y1="-123.72" x1="60.395">
   <stop id="stop3392-4-8" style="stop-color:#425e7b" offset="0"/>
   <stop id="stop3394-8-0" style="stop-color:#7a91a7" offset="1"/>
  </linearGradient>
  <radialGradient id="radialGradient3349" gradientUnits="userSpaceOnUse" cy="45.647" cx="42.148" gradientTransform="matrix(.94690 0 0 1.139 3.5954 -29.89)" r="58.984">
   <stop id="stop8006" style="stop-color:#e28f47" offset="0"/>
   <stop id="stop8008" style="stop-color:#c76a29" offset="1"/>
  </radialGradient>
  <filter id="filter3174-1" color-interpolation-filters="sRGB">
   <feGaussianBlur id="feGaussianBlur3176-0" stdDeviation="1.71"/>
  </filter>
  <linearGradient id="ButtonShadow-9" x1="45.448" gradientUnits="userSpaceOnUse" y1="92.54" gradientTransform="scale(1.0059 .99417)" x2="45.448" y2="7.0165">
   <stop id="stop3750-6" offset="0"/>
   <stop id="stop3752-7" style="stop-opacity:.58824" offset="1"/>
  </linearGradient>
  <filter id="filter3174-9" color-interpolation-filters="sRGB">
   <feGaussianBlur id="feGaussianBlur3176-5" stdDeviation="1.71"/>
  </filter>
  <linearGradient id="linearGradient4238" y2="25" gradientUnits="userSpaceOnUse" x2="25" y1="57" x1="25">
   <stop id="stop3624-6-9-7-3" style="stop-color:#ba4712" offset="0"/>
   <stop id="stop3856-8-7-9-7" style="stop-color:#cf671c" offset=".5"/>
   <stop id="stop3626-0-8-7-8" style="stop-color:#e27f39" offset="1"/>
  </linearGradient>
  <linearGradient id="linearGradient4296" y2="1028.4" xlink:href="#linearGradient9845-9" gradientUnits="userSpaceOnUse" x2="36.026" y1="1028.4" x1="11.974"/>
  <linearGradient id="linearGradient9845-9">
   <stop id="stop9847-6" style="stop-color:#fff" offset="0"/>
   <stop id="stop9849-1" style="stop-color:#fff;stop-opacity:.49485" offset="1"/>
  </linearGradient>
  <radialGradient id="radialGradient4935" gradientUnits="userSpaceOnUse" cy="5.3052" cx="12.466" gradientTransform="matrix(1.6396 0 0 1.35 13.561 18.475)" r="10.5">
   <stop id="stop8649" style="stop-color:#8fb1dc" offset="0"/>
   <stop id="stop8651" style="stop-color:#3465a4" offset="1"/>
  </radialGradient>
  <linearGradient id="linearGradient3466" y2="-1.99" gradientUnits="userSpaceOnUse" y1="-12.742" gradientTransform="matrix(1.4293 0 0 1.4293 -54.902 39.018)" x2="59.919" x1="63.397">
   <stop id="stop4875-6" style="stop-color:#fff" offset="0"/>
   <stop id="stop4877-6" style="stop-color:#fff;stop-opacity:0" offset="1"/>
  </linearGradient>
 </defs>
 <rect id="rect892-2-7-2" ry="29.452" style="stroke:#d3d3d3;stroke-width:9.8448;fill:#37414b" transform="scale(1,-1)" height="116.16" width="116.08" y="-122.08" x="5.9224"/>
 <rect id="rect892" style="stroke:url(#linearGradient3521);stroke-width:.97385;fill:url(#linearGradient3519)" transform="scale(1,-1)" ry="29.296" height="115.54" width="114.22" y="-122.25" x="7.0394"/>
 <rect id="rect892-2" style="stroke:url(#linearGradient3516);stroke-width:.97385;fill:url(#linearGradient3514)" transform="scale(1,-1)" ry="28.993" height="114.35" width="114.22" y="-121.46" x="7.0599"/>
 <path id="rect895" style="fill:url(#radialGradient3349)" d="m30.571 7.0104c-13.128 0.936-22.55 15.04-23.173 23.288-0.050142 0.97378-0.088772 1.9648-0.088772 2.9572v58.419c0 15.229 11.191 27.859 22.318 27.859h67.038c15.69 0 24.318-16.445 24.318-25.859v-64.017c-0.21-5.933-12.29-21.682-25.926-22.618-47.846 0.8653-20.497-0.0256-64.483-0.0256z"/>
 <rect id="rect892-2-7-8" style="opacity:.15891;stroke:#000;stroke-width:4.8445;fill:none" transform="scale(1,-1)" ry="28.993" height="114.35" width="114.22" y="-121.16" x="6.8683"/>
 <rect id="rect892-2-7-1" style="opacity:.15891;stroke:#000;stroke-width:7.7512;fill:none" transform="scale(1,-1)" ry="28.993" height="114.35" width="114.22" y="-121.16" x="6.8686"/>
 <rect id="rect892-2-7-2-9" ry="28.067" style="stroke:#000;stroke-width:1.0489;fill:none" transform="scale(1,-1)" height="112.71" width="114.14" y="-120.31" x="7.0644"/>
 <path id="path1187" style="fill:#fff;fill-opacity:.057143" d="m37.509 10.721c-14.891-4.3296-32.78 19.454-27.93 26.295-0.04334 0.71563-0.07674 1.4439-0.07674 2.1732v10.76c25.898-25.61 66.753-35.478 90.374-39.178-0.22473-0.02628-0.45986-0.03062-0.69067-0.03062-41.576 0.38742-23.653-0.01876-61.677-0.01875z"/>
 <g id="layer2" style="display:none" transform="translate(187.88 23.742)">
  <rect id="rect3745" style="opacity:.9;filter:url(#filter3174-1);fill:url(#ButtonShadow-9)" rx="6" ry="6" height="85" width="86" y="7" x="5"/>
 </g>
 <g id="layer2-2" style="display:none" transform="matrix(1.2166 0 0 1.2299 5.6049 3.1187)">
  <rect id="rect3745-5" style="opacity:.9;filter:url(#filter3174-9);fill:url(#ButtonShadow-9)" rx="6" ry="6" height="85" width="86" y="7" x="5"/>
 </g>
 <g id="layer1-63" transform="matrix(2.5636 0 0 2.5636 2.1081 -.089212)">
  <path id="path3397-3-2" style="opacity:.05;color:#000000;fill:url(#linearGradient4238)" d="m23.625 22.125a3.6626 3.6626 0 0 0 -2.7188 1.6875l-2.5 3.875-4.5312-1a3.6626 3.6626 0 0 0 -4.3438 4.375l1 4.4062-3.9062 2.4375a3.6626 3.6626 0 0 0 0 6.1875l3.9062 2.4375-1 4.4062a3.6626 3.6626 0 0 0 4.3438 4.375l4.5312-1 2.5 3.875a3.6626 3.6626 0 0 0 6.1875 0l2.5-3.875 4.5312 1a3.6626 3.6626 0 0 0 4.3438 -4.375l-1-4.4062 3.9062-2.4375a3.6626 3.6626 0 0 0 0 -6.1875l-3.9062-2.4375 1-4.4062a3.6626 3.6626 0 0 0 -4.344 -4.374l-4.5312 1-2.5-3.875a3.6626 3.6626 0 0 0 -3.469 -1.688zm0.375 15.094c0.2413 0.29026 0.47719 0.58429 0.71875 0.875a3.6626 3.6626 0 0 0 -0.719 1.312 3.6626 3.6626 0 0 0 -0.719 -1.312c0.242-0.291 0.478-0.585 0.719-0.875z" transform="translate(0,-16)"/>
  <path id="path3397-3" style="opacity:.1;color:#000000;fill:url(#linearGradient4238)" d="m24 23.188a2.5916 2.5916 0 0 0 -2.1875 1.1875l-2.9062 4.5-5.25-1.1562a2.5916 2.5916 0 0 0 -3.094 3.092l1.1562 5.1562-4.5312 2.8438a2.5916 2.5916 0 0 0 0 4.375l4.5312 2.8438-1.1562 5.1562a2.5916 2.5916 0 0 0 3.0938 3.0938l5.25-1.1562 2.9062 4.5a2.5916 2.5916 0 0 0 4.375 0l2.9062-4.5 5.25 1.1562a2.5916 2.5916 0 0 0 3.095 -3.093l-1.157-5.157 4.531-2.843a2.5916 2.5916 0 0 0 0 -4.375l-4.531-2.844 1.157-5.157a2.5916 2.5916 0 0 0 -3.0938 -3.0938l-5.25 1.1562-2.9062-4.5a2.5916 2.5916 0 0 0 -2.188 -1.186zm0 12.375c0.73723 0.88559 1.4798 1.7671 2.2188 2.6562a2.5916 2.5916 0 0 0 -1.313 2.281v5.4062h-1.8125v-5.4062a2.5916 2.5916 0 0 0 -1.3125 -2.2812c0.738-0.889 1.481-1.771 2.218-2.657z" transform="translate(0,-16)"/>
  <path id="path3397" style="opacity:.25;color:#000000;fill:url(#linearGradient4238)" d="m23.844 24.25a1.5251 1.5251 0 0 0 -1.125 0.71875l-3.2812 5.125-6-1.3438a1.5251 1.5251 0 0 0 -1.8438 1.8438l1.3125 5.875-5.1562 3.25a1.5251 1.5251 0 0 0 0 2.5625l5.1562 3.25-1.3125 5.875a1.5251 1.5251 0 0 0 1.844 1.843l6-1.3438 3.2812 5.125a1.5251 1.5251 0 0 0 2.5625 0l3.2812-5.125 6 1.3438a1.5251 1.5251 0 0 0 1.8438 -1.8438l-1.3125-5.875 5.1562-3.25a1.5251 1.5251 0 0 0 0 -2.5625l-5.1562-3.25 1.3125-5.875a1.5251 1.5251 0 0 0 -1.845 -1.843l-6 1.3438-3.2812-5.125a1.5251 1.5251 0 0 0 -1.437 -0.719zm0.156 9.594c1.4185 1.7 2.8278 3.4163 4.25 5.125h-0.75a1.5251 1.5251 0 0 0 -1.531 1.531v6.4688h-3.9375v-6.4688a1.5251 1.5251 0 0 0 -1.532 -1.531h-0.75c1.4222-1.7087 2.8315-3.425 4.25-5.125z" transform="translate(0,-16)"/>
  <path id="path4547-4" style="stroke-width:.98543;color:#000000;stroke:#fff;fill:#f7f7f7" d="m24 9.7812-3.875 6.0308-7.031-1.562 1.562 6.938-6.0935 3.812 6.0935 3.812-1.562 6.938 7.031-1.562 3.875 6.031 3.875-6.031 7.031 1.562-1.562-6.938 6.094-3.812-6.094-3.812 1.562-6.938-7.031 1.562-3.875-6.0308zm0 5.7188c2.5 2.9825 5 6.0175 7.5 9h-4v8h-7v-8h-4c2.5-2.9825 5-6.0175 7.5-9z"/>
 </g>
 <g id="g6811" transform="matrix(2 0 0 2 30.242 30.791)">
  <path id="path2555" style="stroke-linejoin:round;stroke:#204a87;stroke-linecap:round;stroke-width:1.0001;fill:url(#radialGradient4935)" d="m33.989 20.5c-7.4507 0-13.489 6.0386-13.489 13.489 0 7.4507 6.0387 13.511 13.489 13.511 7.4507 0 13.511-6.0599 13.511-13.511 0-7.4507-6.0599-13.489-13.511-13.489z"/>
  <path id="path8655" style="opacity:.4;stroke:url(#linearGradient3466);stroke-width:1.0003;fill:none" d="m46.5 34c0 6.9037-5.5968 12.5-12.5 12.5-6.9035 0-12.5-5.5967-12.5-12.5 0-6.9034 5.5965-12.499 12.5-12.499 6.9029 0 12.5 5.596 12.5 12.499z"/>
 </g>
 <g id="layer1-9" style="stroke:url(#linearGradient4296)" transform="matrix(2 0 0 2 50.17 -1957.8)">
  <g id="g3033" style="stroke:url(#linearGradient4296)" transform="translate(0 .000016881)">
   <path id="path3019" style="stroke:url(#linearGradient4296);stroke-width:1px;fill:none" d="m13.062 1023.8c7.5696-0.1889 13.822 0.063 21.567 0"/>
   <path id="path3031" d="m12.531 1028.2h22.937" style="stroke:url(#linearGradient4296);stroke-width:1px;fill:none"/>
   <path id="path3033" style="stroke:url(#linearGradient4296);stroke-width:1px;fill:none" d="m13.062 1032.4c8.1417-0.028 14.486-0.031 21.567 0"/>
   <g id="g3019" style="stroke:url(#linearGradient4296)" transform="translate(-.47915)">
    <path id="path3021" style="stroke:url(#linearGradient4296);stroke-width:1px;fill:none" d="m24.479 1039.8v-22.937"/>
    <path id="path3029" d="m19.881 1039.1c-2.7498-6.3145-2.5396-14.235 0-21.138" style="stroke:url(#linearGradient4296);stroke-width:1px;fill:none"/>
    <path id="path3017" style="stroke:url(#linearGradient4296);stroke-width:1px;fill:none" d="m29.078 1039.1c2.7498-6.3145 2.5396-14.235 0-21.138"/>
   </g>
   <path id="path3012" style="fill-opacity:0;stroke:url(#linearGradient4296);stroke-linecap:round;stroke-width:.78989" d="m33.057 27.317c0 5.028-4.076 9.104-9.104 9.104s-9.104-4.076-9.104-9.104 4.076-9.104 9.104-9.104 9.104 4.076 9.104 9.104z" transform="matrix(1.266 0 0 1.266 -6.3248 993.78)"/>
  </g>
 </g>
</svg>
