<?xml version="1.0" encoding="UTF-8" standalone="no"?>
<!-- Created with Inkscape (http://www.inkscape.org/) -->
<svg id="svg3449" xmlns:rdf="http://www.w3.org/1999/02/22-rdf-syntax-ns#" xmlns="http://www.w3.org/2000/svg" height="128" width="128" version="1.0" xmlns:cc="http://creativecommons.org/ns#" xmlns:xlink="http://www.w3.org/1999/xlink" xmlns:dc="http://purl.org/dc/elements/1.1/">
 <metadata id="metadata56">
  <rdf:RDF>
   <cc:Work rdf:about="">
    <dc:format>image/svg+xml</dc:format>
    <dc:type rdf:resource="http://purl.org/dc/dcmitype/StillImage"/>
    <dc:title/>
   </cc:Work>
  </rdf:RDF>
 </metadata>
 <defs id="defs3451">
  <linearGradient id="linearGradient3514" y2="-9.1034" gradientUnits="userSpaceOnUse" x2="66.492" gradientTransform="matrix(.96826 0 0 .97948 2.179 .16587)" y1="-42.638" x1="67.952">
   <stop id="stop4620" style="stop-color:#37414b" offset="0"/>
   <stop id="stop4622" style="stop-color:#37414b;stop-opacity:0" offset="1"/>
  </linearGradient>
  <linearGradient id="linearGradient3516" y2="-11.847" gradientUnits="userSpaceOnUse" x2="58.98" gradientTransform="matrix(.96826 0 0 .97948 2.179 .16587)" y1="-118.55" x1="57.173">
   <stop id="stop4596" offset="0"/>
   <stop id="stop4598" style="stop-opacity:0" offset="1"/>
  </linearGradient>
  <linearGradient id="linearGradient3519" y2="50.369" gradientUnits="userSpaceOnUse" x2="76.558" gradientTransform="matrix(.96826 0 0 .97948 3.2423 -129.19)" y1="13.164" x1="76.558">
   <stop id="stop3392" style="stop-color:#425e7b" offset="0"/>
   <stop id="stop3394" style="stop-color:#7a91a7" offset="1"/>
  </linearGradient>
  <linearGradient id="linearGradient3521" y2="-8.7399" gradientUnits="userSpaceOnUse" x2="60.217" gradientTransform="matrix(.96826 0 0 .97948 2.179 .16587)" y1="-123.72" x1="60.395">
   <stop id="stop3392-4-8" style="stop-color:#425e7b" offset="0"/>
   <stop id="stop3394-8-0" style="stop-color:#7a91a7" offset="1"/>
  </linearGradient>
  <radialGradient id="radialGradient3349" gradientUnits="userSpaceOnUse" cy="45.647" cx="42.148" gradientTransform="matrix(.0084350 1.8886 -1.5444 .0068980 113.65 -57.814)" r="58.984">
   <stop id="stop4855" style="stop-color:#b8b8b8" offset="0"/>
   <stop id="stop4857" style="stop-color:#fff" offset="1"/>
  </radialGradient>
  <filter id="filter3174" color-interpolation-filters="sRGB">
   <feGaussianBlur id="feGaussianBlur3176" stdDeviation="1.71"/>
  </filter>
  <linearGradient id="ButtonShadow-1" x1="45.448" gradientUnits="userSpaceOnUse" y1="92.54" gradientTransform="scale(1.0059 .99417)" x2="45.448" y2="7.0165">
   <stop id="stop3750-87" offset="0"/>
   <stop id="stop3752-56" style="stop-opacity:.58824" offset="1"/>
  </linearGradient>
  <filter id="filter3174-5" color-interpolation-filters="sRGB">
   <feGaussianBlur id="feGaussianBlur3176-70" stdDeviation="1.71"/>
  </filter>
  <linearGradient id="linearGradient6303" y2="13.937" gradientUnits="userSpaceOnUse" x2="14.134" gradientTransform="matrix(1 0 0 1.4586 0 -3.23)" y1="45.621" x1="36.417">
   <stop id="stop6299" style="stop-color:#fff;stop-opacity:.25604" offset="0"/>
   <stop id="stop6301" style="stop-color:#fff;stop-opacity:.38164" offset="1"/>
  </linearGradient>
  <filter id="filter3174-2" color-interpolation-filters="sRGB">
   <feGaussianBlur id="feGaussianBlur3176-78" stdDeviation="1.71"/>
  </filter>
  <filter id="filter3174-24" color-interpolation-filters="sRGB">
   <feGaussianBlur id="feGaussianBlur3176-0" stdDeviation="1.71"/>
  </filter>
  <filter id="filter3174-8" color-interpolation-filters="sRGB">
   <feGaussianBlur id="feGaussianBlur3176-9" stdDeviation="1.71"/>
  </filter>
  <linearGradient id="linearGradient7604" y2="7.0165" gradientUnits="userSpaceOnUse" x2="45.448" gradientTransform="matrix(1.0059 0 0 .99417 -189.19 -21.187)" y1="92.54" x1="45.448">
   <stop id="stop3750-3" offset="0"/>
   <stop id="stop3752-7" style="stop-opacity:.58824" offset="1"/>
  </linearGradient>
  <filter id="filter3174-0" color-interpolation-filters="sRGB">
   <feGaussianBlur id="feGaussianBlur3176-2" stdDeviation="1.71"/>
  </filter>
  <clipPath id="clipPath3613-6">
   <rect id="rect3615-3" style="fill:#fff" rx="6" ry="6" height="84" width="84" y="6" x="6"/>
  </clipPath>
  <linearGradient id="linearGradient3613-39" x1="48" gradientUnits="userSpaceOnUse" y1="20.221" x2="48" y2="138.66">
   <stop id="stop3739-85" style="stop-color:#fff" offset="0"/>
   <stop id="stop3741-16" style="stop-color:#fff;stop-opacity:0" offset="1"/>
  </linearGradient>
  <filter id="filter3794-0" height="1.384" width="1.384" color-interpolation-filters="sRGB" y="-.192" x="-.192">
   <feGaussianBlur id="feGaussianBlur3796-2" stdDeviation="5.28"/>
  </filter>
  <filter id="filter3174-6" color-interpolation-filters="sRGB">
   <feGaussianBlur id="feGaussianBlur3176-27" stdDeviation="1.71"/>
  </filter>
  <filter id="filter3174-46" color-interpolation-filters="sRGB">
   <feGaussianBlur id="feGaussianBlur3176-8" stdDeviation="1.71"/>
  </filter>
  <linearGradient id="linearGradient10101" y2="7.0165" gradientUnits="userSpaceOnUse" x2="45.448" gradientTransform="matrix(1.0059 0 0 .99417 -177.65 -42.339)" y1="92.54" x1="45.448">
   <stop id="stop3750-45" offset="0"/>
   <stop id="stop3752-50" style="stop-opacity:.58824" offset="1"/>
  </linearGradient>
  <linearGradient id="linearGradient3750" x1="16" gradientUnits="userSpaceOnUse" y1="40" x2="48" y2="40">
   <stop id="stop3746" style="stop-color:#167fff" offset="0"/>
   <stop id="stop3748" style="stop-color:#0063db" offset="1"/>
  </linearGradient>
  <linearGradient id="linearGradient3742" x1="16" gradientUnits="userSpaceOnUse" y1="40" x2="48" y2="40">
   <stop id="stop3738" style="stop-color:#ff41a3" offset="0"/>
   <stop id="stop3740" style="stop-color:#ff0084" offset="1"/>
  </linearGradient>
  <filter id="filter3174-004" color-interpolation-filters="sRGB">
   <feGaussianBlur id="feGaussianBlur3176-97" stdDeviation="1.71"/>
  </filter>
 </defs>
 <rect id="rect892" style="stroke:url(#linearGradient3521);stroke-width:.97385;fill:url(#linearGradient3519)" transform="scale(1,-1)" ry="29.296" height="115.54" width="114.22" y="-122.25" x="7.0394"/>
 <rect id="rect892-2" style="stroke:url(#linearGradient3516);stroke-width:.97385;fill:url(#linearGradient3514)" transform="scale(1,-1)" ry="28.993" height="114.35" width="114.22" y="-121.46" x="7.0599"/>
 <path id="rect895" style="fill:url(#radialGradient3349)" d="m33.051 7.2596c-7.969-2.4493-27.013 15.174-25.653 23.038-0.050142 0.97378-0.088772 1.9648-0.088772 2.9572v52.419c0 20.876 10.712 33.859 22.318 33.859h67.038c12.638 0 24.318-11.245 24.318-25.859v-64.017c0.7-10.928-21.283-24.659-25.926-22.618-47.846 0.8653-18.017 0.2236-62.003 0.2236z"/>
 <path id="path1187" style="opacity:.68238;fill:url(#linearGradient6303)" d="m36.537 7.6204c-8.869 0.7824-26.296 4.9186-29.527 41.221v47.783c18.67-55.894 33.784-75.414 85.818-89.536-0.225-0.0381-0.46-0.0444-0.691-0.0444-41.576 0.5651-17.576 0.5768-55.6 0.5768z"/>
 <rect id="rect892-2-7-8" style="opacity:.15891;stroke:#000;stroke-width:4.8445;fill:none" transform="scale(1,-1)" ry="28.993" height="114.35" width="114.22" y="-121.16" x="6.8687"/>
 <rect id="rect892-2-7-1" style="opacity:.15891;stroke:#000;stroke-width:7.7512;fill:none" transform="scale(1,-1)" ry="28.993" height="114.35" width="114.22" y="-121.16" x="6.8687"/>
 <g id="layer2" style="display:none" transform="matrix(1.44 0 0 1.44 -4.952 -6.9671)">
  <rect id="rect3745" style="opacity:.9;filter:url(#filter3174);fill:url(#ButtonShadow-1)" rx="6" ry="6" height="85" width="86" y="7" x="5"/>
 </g>
 <g id="layer2-1" style="display:none" transform="translate(183.21 82.968)">
  <rect id="rect3745-9" style="opacity:.9;filter:url(#filter3174-5);fill:url(#ButtonShadow-1)" rx="6" ry="6" height="85" width="86" y="7" x="5"/>
 </g>
 <g id="layer2-2" style="display:none" transform="translate(52.694 146.84)">
  <path id="rect3745-94" style="opacity:.9;filter:url(#filter3174-2);fill:url(#ButtonShadow-1)" d="m11 7c-3.324 0-6 2.676-6 6v73c0 3.324 2.676 6 6 6h74c3.324 0 6-2.676 6-6v-73c0-3.324-2.676-6-6-6h-74zm-1 4h6v4h-6v-4zm70 0h6v4h-6v-4zm-70 8h6v4h-6v-4zm70 0h6v4h-6v-4zm-70 8h6v4h-6v-4zm70 0h6v4h-6v-4zm-70 8h6v4h-6v-4zm70 0h6v4h-6v-4zm-70 8h6v4h-6v-4zm70 0h6v4h-6v-4zm-70 8h6v4h-6v-4zm70 0h6v4h-6v-4zm-70 8h6v4h-6v-4zm70 0h6v4h-6v-4zm-70 8h6v4h-6v-4zm70 0h6v4h-6v-4zm-70 8h6v4h-6v-4zm70 0h6v4h-6v-4zm-70 8h6v4h-6v-4zm70 0h6v4h-6v-4z"/>
 </g>
 <rect id="rect892-2-7-2-9" ry="28.067" style="stroke:#000;stroke-width:1.0489;fill:none" transform="scale(1,-1)" height="112.71" width="114.14" y="-120.31" x="7.0649"/>
 <g id="layer2-20" style="display:none" transform="translate(-287.93 37.655)">
  <rect id="rect3745-8" style="opacity:.9;filter:url(#filter3174-24);fill:url(#ButtonShadow-1)" rx="6" ry="6" height="85" width="86" y="7" x="5"/>
 </g>
 <rect id="rect3745-7" style="opacity:.9;filter:url(#filter3174-8);display:none;fill:url(#linearGradient7604)" rx="6" ry="6" height="85" width="86" y="-14.187" x="-184.19"/>
 <g id="layer2-0" style="display:none" transform="translate(218.22 18.71)">
  <rect id="rect3745-6" style="opacity:.9;filter:url(#filter3174-0);fill:url(#ButtonShadow-1)" rx="6" ry="6" height="85" width="86" y="7" x="5"/>
 </g>
 <g id="layer2-28" style="display:none" transform="translate(46.266 133.26)">
  <rect id="rect3745-3" style="opacity:.9;filter:url(#filter3174-6);fill:url(#ButtonShadow-1)" rx="6" ry="6" height="85" width="86" y="7" x="5"/>
 </g>
 <g id="layer5-0" style="display:none" transform="translate(46.266 133.26)">
  <rect id="rect3171" style="opacity:.1;filter:url(#filter3794-0);stroke:#fff;stroke-linecap:round;stroke-width:.5;fill:url(#linearGradient3613-39)" clip-path="url(#clipPath3613-6)" rx="12" ry="12" height="66" width="66" y="15" x="15"/>
 </g>
 <rect id="rect3745-5" style="opacity:.9;filter:url(#filter3174-46);display:none;fill:url(#linearGradient10101)" rx="6" ry="6" height="85" width="86" y="-35.339" x="-172.65"/>
 <g id="g10466" transform="matrix(1.3904 0 0 1.3904 -2.7373 -4.128)">
  <g id="layer2-6" style="display:none">
   <rect id="rect3745-82" style="opacity:.9;filter:url(#filter3174-004);fill:url(#ButtonShadow-1)" rx="6" ry="6" height="85" width="86" y="7" x="5"/>
  </g>
  <g id="layer4">
   <path id="path2407" d="m17.986 67.983h-2.986v-3.6828h3.0536v-0.73846c0-4.0433 1.6473-5.452 4.8967-5.452 0.88012 0 1.854 0.15649 2.3729 0.26099l-0.24814 3.2345c-0.33841-0.13043-0.9739-0.20874-1.5831-0.20874-1.038 0-1.4442 0.83472-1.4442 2.1652v0.73858h3.1853v3.6828h-3.1853v10.003h-4.0618v-10.003z" style="fill:#0063db"/>
   <rect id="rect2409" style="fill:#0063db" height="20.061" width="4.0921" y="57.925" x="28.062"/>
   <rect id="rect2411" style="fill:#0063db" height="3.8049" width="4.0923" y="58.136" x="35.994"/>
   <rect id="rect2413" style="fill:#0063db" height="13.752" width="3.9933" y="64.235" x="35.994"/>
   <path id="path2415" d="m53.005 68.38c-0.75748-0.51615-1.515-0.74874-2.502-0.74874-1.7904 0-3.1677 1.3945-3.1677 3.7189 0 2.1435 1.6069 3.5378 3.3973 3.5378 0.94123 0 1.8825-0.23221 2.5709-0.64554l0.09182 3.4605c-1.0331 0.38766-2.2724 0.59419-3.3743 0.59419-3.9483 0-6.9552-2.5825-6.9552-7.0244 0-4.4678 3.0069-7.0502 6.9552-7.0502 1.2396 0 2.3412 0.23246 3.2824 0.74887l-0.2985 3.4086z" style="fill:#0063db"/>
   <path id="polygon2417" d="m69.739 64.136-5.0736 6.568 5.4613 7.2827h-5.337l-4.4142-6.6627h-0.05176v6.6627h-4.0578v-19.863h4.0578v12.065h0.05176l4.5694-6.0519h4.7942z" style="fill:#0063db"/>
   <path id="path2419" d="m80.884 67.855c-0.4779-0.15468-0.95593-0.15468-1.4575-0.15468-2.0071 0-3.1303 1.5751-3.1303 4.2094v6.0773h-4.3009v-13.851h3.9186v2.4792h0.04785c0.74054-1.7045 1.8159-2.7891 3.6798-2.7891 0.5014 0 1.0272 0.0774 1.4577 0.15481l-0.21527 3.8737z" style="fill:#ff0084"/>
   <path id="path3732" d="m48 40a16 16 0 1 1 -32 0 16 16 0 1 1 32 0z" style="color:#000000;fill:url(#linearGradient3750)" transform="matrix(0 .9375 -.9375 0 68.5 4)"/>
   <path id="path3734" d="m48 40a16 16 0 1 1 -32 0 16 16 0 1 1 32 0z" style="color:#000000;fill:url(#linearGradient3742)" transform="matrix(0 .9375 -.9375 0 102.5 4)"/>
   <path id="path3780" d="m31 19c-8.2843 0-15 6.7157-15 15s6.7157 15 15 15 15-6.7157 15-15-6.7157-15-15-15zm0 2c7.2038 0 13 5.7962 13 13s-5.7962 13-13 13-13-5.7962-13-13 5.7962-13 13-13z" style="opacity:0.08;color:#000000"/>
   <path id="path3773" d="m31 19c-8.2843 0-15 6.7157-15 15s6.7157 15 15 15 15-6.7157 15-15-6.7157-15-15-15zm0 0.875c7.808 0 14.125 6.317 14.125 14.125s-6.317 14.125-14.125 14.125-14.125-6.317-14.125-14.125 6.317-14.125 14.125-14.125z" style="opacity:.15;color:#000000"/>
   <path id="path3761" d="m16.031 34.5c-0.005 0.168-0.031 0.331-0.031 0.5 0 8.2843 6.7157 15 15 15s15-6.7157 15-15c0-0.16922-0.02569-0.33214-0.03125-0.5-0.267 8.05-6.854 14.5-14.969 14.5s-14.702-6.45-14.969-14.5z" style="color:#000000;fill:#fff"/>
   <path id="path3771" d="m50.031 34.5c-0.005 0.168-0.031 0.331-0.031 0.5 0 8.2843 6.7157 15 15 15s15-6.7157 15-15c0-0.16922-0.02569-0.33214-0.03125-0.5-0.267 8.05-6.854 14.5-14.969 14.5s-14.702-6.45-14.969-14.5z" style="color:#000000;fill:#fff"/>
   <path id="path3787" d="m65 19c-8.2843 0-15 6.7157-15 15s6.7157 15 15 15 15-6.7157 15-15-6.7157-15-15-15zm0 2c7.2038 0 13 5.7962 13 13s-5.7962 13-13 13-13-5.7962-13-13 5.7962-13 13-13z" style="opacity:0.08;color:#000000"/>
   <path id="path3789" d="m65 19c-8.2843 0-15 6.7157-15 15s6.7157 15 15 15 15-6.7157 15-15-6.7157-15-15-15zm0 0.875c7.808 0 14.125 6.317 14.125 14.125s-6.317 14.125-14.125 14.125-14.125-6.317-14.125-14.125 6.317-14.125 14.125-14.125z" style="opacity:.15;color:#000000"/>
   <path id="path3752" d="m31 19c-8.2843 0-15 6.7157-15 15 0 0.16922 0.02569 0.33214 0.03125 0.5 0.267-8.05 6.854-14.5 14.969-14.5s14.702 6.45 14.969 14.5c0.005-0.168 0.031-0.331 0.031-0.5 0-8.284-6.716-15-15-15z" style="opacity:.3;color:#000000"/>
   <path id="path3791" d="m65 19c-8.2843 0-15 6.7157-15 15 0 0.16922 0.02569 0.33214 0.03125 0.5 0.267-8.05 6.854-14.5 14.969-14.5s14.702 6.45 14.969 14.5c0.005-0.168 0.031-0.331 0.031-0.5 0-8.284-6.716-15-15-15z" style="opacity:.3;color:#000000"/>
  </g>
 </g>
</svg>
