<?xml version="1.0" encoding="UTF-8" standalone="no"?>
<!-- Created with Inkscape (http://www.inkscape.org/) -->
<svg id="svg3449" xmlns:rdf="http://www.w3.org/1999/02/22-rdf-syntax-ns#" xmlns="http://www.w3.org/2000/svg" height="128" width="128" version="1.0" xmlns:cc="http://creativecommons.org/ns#" xmlns:xlink="http://www.w3.org/1999/xlink" xmlns:dc="http://purl.org/dc/elements/1.1/">
 <metadata id="metadata56">
  <rdf:RDF>
   <cc:Work rdf:about="">
    <dc:format>image/svg+xml</dc:format>
    <dc:type rdf:resource="http://purl.org/dc/dcmitype/StillImage"/>
    <dc:title/>
   </cc:Work>
  </rdf:RDF>
 </metadata>
 <defs id="defs3451">
  <linearGradient id="linearGradient3514" y2="-9.1034" gradientUnits="userSpaceOnUse" x2="66.492" gradientTransform="matrix(.96826 0 0 .97948 2.179 .16587)" y1="-42.638" x1="67.952">
   <stop id="stop4620" style="stop-color:#37414b" offset="0"/>
   <stop id="stop4622" style="stop-color:#37414b;stop-opacity:0" offset="1"/>
  </linearGradient>
  <linearGradient id="linearGradient3516" y2="-11.847" gradientUnits="userSpaceOnUse" x2="58.98" gradientTransform="matrix(.96826 0 0 .97948 2.179 .16587)" y1="-118.55" x1="57.173">
   <stop id="stop4596" offset="0"/>
   <stop id="stop4598" style="stop-opacity:0" offset="1"/>
  </linearGradient>
  <linearGradient id="linearGradient3519" y2="50.369" gradientUnits="userSpaceOnUse" x2="76.558" gradientTransform="matrix(.96826 0 0 .97948 3.2423 -129.19)" y1="13.164" x1="76.558">
   <stop id="stop3392" style="stop-color:#425e7b" offset="0"/>
   <stop id="stop3394" style="stop-color:#7a91a7" offset="1"/>
  </linearGradient>
  <linearGradient id="linearGradient3521" y2="-8.7399" gradientUnits="userSpaceOnUse" x2="60.217" gradientTransform="matrix(.96826 0 0 .97948 2.179 .16587)" y1="-123.72" x1="60.395">
   <stop id="stop3392-4-8" style="stop-color:#425e7b" offset="0"/>
   <stop id="stop3394-8-0" style="stop-color:#7a91a7" offset="1"/>
  </linearGradient>
  <radialGradient id="radialGradient3349" gradientUnits="userSpaceOnUse" cy="45.647" cx="42.148" gradientTransform="matrix(.94690 0 0 1.139 3.5954 -29.89)" r="58.984">
   <stop id="stop8006" style="stop-color:#9cf300" offset="0"/>
   <stop id="stop8008" style="stop-color:#66a000" offset="1"/>
  </radialGradient>
  <linearGradient id="linearGradient3087-462-170-890-278-6">
   <stop id="stop3193-4" style="stop-color:#484848" offset="0"/>
   <stop id="stop3195-7" style="stop-color:#878787" offset="0"/>
   <stop id="stop3197-8" style="stop-color:#6b6b6b" offset="0"/>
   <stop id="stop3199-8" style="stop-color:#4d4d4d" offset=".75"/>
   <stop id="stop3201-1" style="stop-color:#4e4e4e" offset="1"/>
  </linearGradient>
  <filter id="filter3174-1" color-interpolation-filters="sRGB">
   <feGaussianBlur id="feGaussianBlur3176-0" stdDeviation="1.71"/>
  </filter>
  <linearGradient id="ButtonShadow-9" x1="45.448" gradientUnits="userSpaceOnUse" y1="92.54" gradientTransform="scale(1.0059 .99417)" x2="45.448" y2="7.0165">
   <stop id="stop3750-6" offset="0"/>
   <stop id="stop3752-7" style="stop-opacity:.58824" offset="1"/>
  </linearGradient>
  <linearGradient id="linearGradient3920" y2="15.894" gradientUnits="userSpaceOnUse" y1="16.83" gradientTransform="matrix(-.82408 -.17203 -.66735 .46464 59.273 13.092)" x2="22.697" x1="20.723">
   <stop id="stop7569" offset="0"/>
   <stop id="stop7571" style="stop-opacity:0" offset="1"/>
  </linearGradient>
  <linearGradient id="linearGradient3268-8">
   <stop id="stop3270-9" style="stop-color:#fff" offset="0"/>
   <stop id="stop3272-5" style="stop-color:#d8d8d8" offset="1"/>
  </linearGradient>
  <linearGradient id="linearGradient2874" y2="24.034" xlink:href="#linearGradient3268-8" gradientUnits="userSpaceOnUse" y1="6.123" gradientTransform="matrix(1.62 0 0 1.62 -35.059 1.6774)" x2="39.906" x1="39.906"/>
  <linearGradient id="linearGradient2868" y2="7.0925" gradientUnits="userSpaceOnUse" y1="12.911" gradientTransform="matrix(1.3445 0 0 1.3445 -24.05 4.4305)" x2="40.007" x1="40.007">
   <stop id="stop4224-6" style="stop-color:#fff" offset="0"/>
   <stop id="stop4226-71" style="stop-color:#fff;stop-opacity:0" offset="1"/>
  </linearGradient>
  <linearGradient id="linearGradient8167" y2="13.427" xlink:href="#linearGradient3268-8" gradientUnits="userSpaceOnUse" x2="43.219" y1="13.427" x1="29.367"/>
  <linearGradient id="linearGradient8175" y2="13.368" xlink:href="#linearGradient3087-462-170-890-278-6" gradientUnits="userSpaceOnUse" x2="43.95" y1="13.368" x1="28.621"/>
  <linearGradient id="linearGradient8183" y2="13.428" gradientUnits="userSpaceOnUse" x2="43.22" y1="13.428" x1="29.369">
   <stop id="stop3639" style="stop-color:#f0f0f0" offset="0"/>
   <stop id="stop3641" style="stop-color:#dcdcdc" offset="1"/>
  </linearGradient>
  <linearGradient id="linearGradient8191" y2="13.458" xlink:href="#linearGradient3087-462-170-890-278-6" gradientUnits="userSpaceOnUse" x2="43.949" y1="13.458" x1="29.529"/>
 </defs>
 <rect id="rect892-2-7-2" ry="29.452" style="stroke:#d3d3d3;stroke-width:9.8448;fill:#37414b" transform="scale(1,-1)" height="116.16" width="116.08" y="-122.08" x="5.9224"/>
 <rect id="rect892" style="stroke:url(#linearGradient3521);stroke-width:.97385;fill:url(#linearGradient3519)" transform="scale(1,-1)" ry="29.296" height="115.54" width="114.22" y="-122.25" x="7.0394"/>
 <rect id="rect892-2" style="stroke:url(#linearGradient3516);stroke-width:.97385;fill:url(#linearGradient3514)" transform="scale(1,-1)" ry="28.993" height="114.35" width="114.22" y="-121.46" x="7.0599"/>
 <path id="rect895" style="fill:url(#radialGradient3349)" d="m30.571 7.0104c-13.128 0.936-22.55 15.04-23.173 23.288-0.050142 0.97378-0.088772 1.9648-0.088772 2.9572v58.419c0 15.229 11.191 27.859 22.318 27.859h67.038c15.69 0 24.318-16.445 24.318-25.859v-64.017c-0.21-5.933-12.29-21.682-25.926-22.618-47.846 0.8653-20.497-0.0256-64.483-0.0256z"/>
 <rect id="rect892-2-7-8" style="opacity:.15891;stroke:#000;stroke-width:4.8445;fill:none" transform="scale(1,-1)" ry="28.993" height="114.35" width="114.22" y="-121.16" x="6.8683"/>
 <rect id="rect892-2-7-1" style="opacity:.15891;stroke:#000;stroke-width:7.7512;fill:none" transform="scale(1,-1)" ry="28.993" height="114.35" width="114.22" y="-121.16" x="6.8686"/>
 <rect id="rect892-2-7-2-9" ry="28.067" style="stroke:#000;stroke-width:1.0489;fill:none" transform="scale(1,-1)" height="112.71" width="114.14" y="-120.31" x="7.0644"/>
 <path id="path1187" style="fill:#fff;fill-opacity:.057143" d="m37.509 10.721c-14.891-4.3296-32.78 19.454-27.93 26.295-0.04334 0.71563-0.07674 1.4439-0.07674 2.1732v10.76c25.898-25.61 66.753-35.478 90.374-39.178-0.22473-0.02628-0.45986-0.03062-0.69067-0.03062-41.576 0.38742-23.653-0.01876-61.677-0.01875z"/>
 <g id="layer2" style="display:none" transform="translate(187.88 23.742)">
  <rect id="rect3745" style="opacity:.9;filter:url(#filter3174-1);fill:url(#ButtonShadow-9)" rx="6" ry="6" height="85" width="86" y="7" x="5"/>
 </g>
 <g id="layer1-5" transform="matrix(2.5636 0 0 2.5636 1.0095 2.8406)">
  <path id="use6159" style="stroke-dashoffset:0.7;stroke:url(#linearGradient8191);stroke-linecap:round;stroke-width:2.187;fill:none" d="m30.622 17.378c1.8196 0.3799 5.8376-1.0812 8.9688-3.2613s4.1957-4.2577 2.3762-4.6375"/>
  <path id="use6161" style="stroke-dashoffset:0.7;stroke:url(#linearGradient8183);stroke-linecap:round;stroke-width:0.729;fill:none" d="m32.998 12.74c-3.1312 2.1801-4.1957 4.2577-2.3762 4.6375 1.8196 0.3799 5.8376-1.0812 8.9688-3.2613s4.1957-4.2577 2.3762-4.6375c-1.8196-0.3799-5.8376 1.0812-8.9688 3.2613z"/>
  <path id="path2463" style="fill-rule:evenodd;stroke:#5e5e5e;stroke-width:.81px;fill:url(#linearGradient2874)" d="m23.261 10.587-15.39 15.947 13.365 13.213 15.795-15.39v-13.77h-13.77zm6.48 4.86c1.3414 0 2.43 1.0886 2.43 2.43s-1.0886 2.43-2.43 2.43-2.43-1.0886-2.43-2.43 1.0886-2.43 2.43-2.43z"/>
  <path id="path2935" d="m23.615 11.372c-4.8769 5.0541-9.7538 10.108-14.631 15.162 4.0837 4.0331 8.1675 8.0662 12.251 12.099 5.0034-4.8769 10.007-9.7538 15.01-14.631v-12.631h-12.631z" style="stroke-width:.81px;color:#000000;stroke:#d6d6d6;fill:none"/>
  <path id="use6163" style="stroke-dashoffset:0.7;stroke:url(#linearGradient8175);stroke-linecap:round;stroke-width:2.187;fill:none" d="m42.51 11.346c1.1592-1.8911-0.68455-2.4933-4.1155-1.344-3.431 1.1492-7.1563 3.6167-8.3155 5.5078-0.57521 0.9384-0.46916 1.5404 0.31836 1.807"/>
  <path id="path3294" style="opacity:.6;stroke:url(#linearGradient2868);stroke-width:.81px;fill:none" d="m29.732 14.641c2.0347-0.07173 3.7124 2.0891 3.1333 4.0428-0.43004 1.9171-2.7906 3.0219-4.5345 2.1082-1.795-0.79286-2.4206-3.3171-1.1904-4.8501 0.59764-0.80872 1.5847-1.3087 2.5916-1.3009z"/>
  <path id="use6167" style="stroke-dashoffset:0.7;stroke:url(#linearGradient8167);stroke-linecap:round;stroke-width:0.729;fill:none" d="m40.44 13.488c2.8069-2.2127 3.2278-4.0353 0.9394-4.0684-2.2884-0.033-6.4236 1.7359-9.2305 3.9486-2.7641 2.179-3.2238 3.9811-1.0372 4.0658"/>
  <path id="use6169" style="opacity:.10407;stroke-dashoffset:0.7;stroke:url(#linearGradient3920);stroke-linecap:round;stroke-width:0.729;fill:none" d="m32.149 13.368c-2.7645 2.179-3.2244 3.9814-1.0377 4.0661"/>
 </g>
 <g id="g4257" style="stroke:#4b4b4b;stroke-width:2" transform="matrix(.99797 -.063667 .063667 .99797 -4.3467 3.4786)">
  <path id="path4249" d="m41.424 73.395 15.064-14.436" style="stroke:#4b4b4b;stroke-width:2;fill:none"/>
  <path id="path4251" d="m49.584 82.182 16.318-15.063" style="stroke:#4b4b4b;stroke-width:2;fill:none"/>
  <path id="path4253" d="m65.275 77.789-18.829-21.968" style="stroke:#4b4b4b;stroke-width:2;fill:none"/>
  <path id="path4255" d="m38.914 62.725 18.201 21.34" style="stroke:#4b4b4b;stroke-width:2;fill:none"/>
 </g>
</svg>
