<?xml version="1.0" encoding="UTF-8" standalone="no"?>
<!-- Created with Inkscape (http://www.inkscape.org/) -->
<svg id="svg3449" xmlns:rdf="http://www.w3.org/1999/02/22-rdf-syntax-ns#" xmlns="http://www.w3.org/2000/svg" height="128" width="128" version="1.0" xmlns:cc="http://creativecommons.org/ns#" xmlns:xlink="http://www.w3.org/1999/xlink" xmlns:dc="http://purl.org/dc/elements/1.1/">
 <metadata id="metadata56">
  <rdf:RDF>
   <cc:Work rdf:about="">
    <dc:format>image/svg+xml</dc:format>
    <dc:type rdf:resource="http://purl.org/dc/dcmitype/StillImage"/>
    <dc:title/>
   </cc:Work>
  </rdf:RDF>
 </metadata>
 <defs id="defs3451">
  <linearGradient id="linearGradient3514" y2="-9.1034" gradientUnits="userSpaceOnUse" x2="66.492" gradientTransform="matrix(.96826 0 0 .97948 2.179 .16587)" y1="-42.638" x1="67.952">
   <stop id="stop4620" style="stop-color:#37414b" offset="0"/>
   <stop id="stop4622" style="stop-color:#37414b;stop-opacity:0" offset="1"/>
  </linearGradient>
  <linearGradient id="linearGradient3516" y2="-11.847" gradientUnits="userSpaceOnUse" x2="58.98" gradientTransform="matrix(.96826 0 0 .97948 2.179 .16587)" y1="-118.55" x1="57.173">
   <stop id="stop4596" offset="0"/>
   <stop id="stop4598" style="stop-opacity:0" offset="1"/>
  </linearGradient>
  <linearGradient id="linearGradient3519" y2="50.369" gradientUnits="userSpaceOnUse" x2="76.558" gradientTransform="matrix(.96826 0 0 .97948 3.2423 -129.19)" y1="13.164" x1="76.558">
   <stop id="stop3392" style="stop-color:#425e7b" offset="0"/>
   <stop id="stop3394" style="stop-color:#7a91a7" offset="1"/>
  </linearGradient>
  <linearGradient id="linearGradient3521" y2="-8.7399" gradientUnits="userSpaceOnUse" x2="60.217" gradientTransform="matrix(.96826 0 0 .97948 2.179 .16587)" y1="-123.72" x1="60.395">
   <stop id="stop3392-4-8" style="stop-color:#425e7b" offset="0"/>
   <stop id="stop3394-8-0" style="stop-color:#7a91a7" offset="1"/>
  </linearGradient>
  <radialGradient id="radialGradient3349" gradientUnits="userSpaceOnUse" cy="45.647" cx="42.148" gradientTransform="matrix(.94690 -.033779 .040605 1.1383 1.7419 -28.433)" r="58.984">
   <stop id="stop7563" style="stop-color:#7cc94f" offset="0"/>
   <stop id="stop7565" style="stop-color:#589b32" offset="1"/>
  </radialGradient>
  <filter id="filter3174-5" color-interpolation-filters="sRGB">
   <feGaussianBlur id="feGaussianBlur3176-4" stdDeviation="1.71"/>
  </filter>
  <linearGradient id="ButtonShadow-4" x1="45.448" gradientUnits="userSpaceOnUse" y1="92.54" gradientTransform="scale(1.0059 .99417)" x2="45.448" y2="7.0165">
   <stop id="stop3750-3" offset="0"/>
   <stop id="stop3752-57" style="stop-opacity:.58824" offset="1"/>
  </linearGradient>
  <filter id="filter3174-0" color-interpolation-filters="sRGB">
   <feGaussianBlur id="feGaussianBlur3176-9" stdDeviation="1.71"/>
  </filter>
  <filter id="filter3174-7" color-interpolation-filters="sRGB">
   <feGaussianBlur id="feGaussianBlur3176-7" stdDeviation="1.71"/>
  </filter>
  <clipPath id="clipPath3613-9">
   <rect id="rect3615-2" style="fill:#fff" rx="6" ry="6" height="84" width="84" y="6" x="6"/>
  </clipPath>
  <linearGradient id="linearGradient3613-3" x1="48" gradientUnits="userSpaceOnUse" y1="20.221" x2="48" y2="138.66">
   <stop id="stop3739-03" style="stop-color:#fff" offset="0"/>
   <stop id="stop3741-5" style="stop-color:#fff;stop-opacity:0" offset="1"/>
  </linearGradient>
  <filter id="filter3794-30" height="1.384" width="1.384" color-interpolation-filters="sRGB" y="-.192" x="-.192">
   <feGaussianBlur id="feGaussianBlur3796-38" stdDeviation="5.28"/>
  </filter>
  <filter id="filter3174-8" color-interpolation-filters="sRGB">
   <feGaussianBlur id="feGaussianBlur3176-3" stdDeviation="1.71"/>
  </filter>
  <clipPath id="clipPath3613-26">
   <rect id="rect3615-4" style="fill:#fff" rx="6" ry="6" height="84" width="84" y="6" x="6"/>
  </clipPath>
  <filter id="filter3794-67" height="1.384" width="1.384" color-interpolation-filters="sRGB" y="-.192" x="-.192">
   <feGaussianBlur id="feGaussianBlur3796-4" stdDeviation="5.28"/>
  </filter>
  <filter id="filter3174-4" color-interpolation-filters="sRGB">
   <feGaussianBlur id="feGaussianBlur3176-0" stdDeviation="1.71"/>
  </filter>
  <filter id="filter3174-1" color-interpolation-filters="sRGB">
   <feGaussianBlur id="feGaussianBlur3176-1" stdDeviation="1.71"/>
  </filter>
  <linearGradient id="linearGradient9285" y2="7.0165" gradientUnits="userSpaceOnUse" x2="45.448" gradientTransform="matrix(1.0059 0 0 .99417 -59.657 2.8358)" y1="92.54" x1="45.448">
   <stop id="stop3750-7" offset="0"/>
   <stop id="stop3752-3" style="stop-opacity:.58824" offset="1"/>
  </linearGradient>
  <clipPath id="clipPath3613-76">
   <rect id="rect3615-6" style="fill:#fff" rx="6" ry="6" height="84" width="84" y="6" x="6"/>
  </clipPath>
  <filter id="filter3794-4" height="1.384" width="1.384" color-interpolation-filters="sRGB" y="-.192" x="-.192">
   <feGaussianBlur id="feGaussianBlur3796-04" stdDeviation="5.28"/>
  </filter>
  <filter id="filter3174-06" color-interpolation-filters="sRGB">
   <feGaussianBlur id="feGaussianBlur3176-91" stdDeviation="1.71"/>
  </filter>
  <filter id="filter3174-45" color-interpolation-filters="sRGB">
   <feGaussianBlur id="feGaussianBlur3176-46" stdDeviation="1.71"/>
  </filter>
  <filter id="filter3174-17" color-interpolation-filters="sRGB">
   <feGaussianBlur id="feGaussianBlur3176-33" stdDeviation="1.71"/>
  </filter>
  <clipPath id="clipPath3613-20">
   <rect id="rect3615-20" style="fill:#fff" rx="6" ry="6" height="84" width="84" y="6" x="6"/>
  </clipPath>
  <filter id="filter3794-7" height="1.384" width="1.384" color-interpolation-filters="sRGB" y="-.192" x="-.192">
   <feGaussianBlur id="feGaussianBlur3796-06" stdDeviation="5.28"/>
  </filter>
  <filter id="filter3174-2" color-interpolation-filters="sRGB">
   <feGaussianBlur id="feGaussianBlur3176-6" stdDeviation="1.71"/>
  </filter>
  <linearGradient id="linearGradient8272" y2="25.169" gradientUnits="userSpaceOnUse" x2="45.384" gradientTransform="matrix(.84376 0 0 .84472 58.041 54.102)" y1="63.298" x1="45.384">
   <stop id="stop3822-7" style="stop-color:#00a8e1" offset="0"/>
   <stop id="stop3824-8" style="stop-color:#5dceff" offset="1"/>
  </linearGradient>
  <linearGradient id="linearGradient8327" y2="7.0165" gradientUnits="userSpaceOnUse" x2="45.448" gradientTransform="matrix(1.0059 0 0 .99417 199.61 15.454)" y1="92.54" x1="45.448">
   <stop id="stop3750-60" offset="0"/>
   <stop id="stop3752-38" style="stop-opacity:.58824" offset="1"/>
  </linearGradient>
 </defs>
 <rect id="rect892-2-7-2" ry="29.452" style="stroke:#d3d3d3;stroke-width:9.8448;fill:#37414b" transform="scale(1,-1)" height="116.16" width="116.08" y="-122.08" x="5.9224"/>
 <rect id="rect892" style="stroke:url(#linearGradient3521);stroke-width:.97385;fill:url(#linearGradient3519)" transform="scale(1,-1)" ry="29.296" height="115.54" width="114.22" y="-122.25" x="7.0394"/>
 <rect id="rect892-2" style="stroke:url(#linearGradient3516);stroke-width:.97385;fill:url(#linearGradient3514)" transform="scale(1,-1)" ry="28.993" height="114.35" width="114.22" y="-121.46" x="7.0599"/>
 <path id="rect895" style="fill:url(#radialGradient3349)" d="m30.571 7.0104c-13.128 0.936-22.55 15.04-23.173 23.288-0.050142 0.97378-0.088772 1.9648-0.088772 2.9572v58.419c0 15.229 11.191 27.859 22.318 27.859h67.038c15.69 0 24.318-16.445 24.318-25.859v-64.017c-0.21-5.933-12.29-21.682-25.926-22.618-47.846 0.8653-20.497-0.0256-64.483-0.0256z"/>
 <rect id="rect892-2-7-8" style="opacity:.15891;stroke:#000;stroke-width:4.8445;fill:none" transform="scale(1,-1)" ry="28.993" height="114.35" width="114.22" y="-121.16" x="6.8683"/>
 <rect id="rect892-2-7-1" style="opacity:.15891;stroke:#000;stroke-width:7.7512;fill:none" transform="scale(1,-1)" ry="28.993" height="114.35" width="114.22" y="-121.16" x="6.8686"/>
 <rect id="rect892-2-7-2-9" ry="28.067" style="stroke:#000;stroke-width:1.0489;fill:none" transform="scale(1,-1)" height="112.71" width="114.14" y="-120.31" x="7.0644"/>
 <g id="layer2" style="display:none" transform="translate(137.63 15.959)">
  <rect id="rect3745" style="opacity:.9;filter:url(#filter3174-5);fill:url(#ButtonShadow-4)" rx="6" ry="6" height="85" width="86" y="7" x="5"/>
 </g>
 <g id="layer2-3" style="display:none" transform="translate(146.29 14.997)">
  <rect id="rect3745-4" style="opacity:.9;filter:url(#filter3174-0);fill:url(#ButtonShadow-4)" rx="6" ry="6" height="85" width="86" y="7" x="5"/>
 </g>
 <g id="layer2-4" style="display:none" transform="translate(176.76 -8.736)">
  <rect id="rect3745-7" style="opacity:.9;filter:url(#filter3174-7);fill:url(#ButtonShadow-4)" rx="6" ry="6" height="85" width="86" y="7" x="5"/>
 </g>
 <g id="layer2-2" style="display:none" transform="translate(143.15 5.055)">
  <rect id="rect3745-9" style="opacity:.9;filter:url(#filter3174-8);fill:url(#ButtonShadow-4)" rx="6" ry="6" height="85" width="86" y="7" x="5"/>
 </g>
 <g id="layer5-4" style="display:none" transform="translate(143.15 5.055)">
  <rect id="rect3171-7" style="opacity:.3;filter:url(#filter3794-30);stroke:#fff;stroke-linecap:round;stroke-width:.5;fill:url(#linearGradient3613-3)" clip-path="url(#clipPath3613-9)" rx="12" ry="12" height="66" width="66" y="15" x="15"/>
 </g>
 <g id="layer2-1" style="display:none" transform="translate(160.47 -5.8175)">
  <rect id="rect3745-8" style="opacity:.9;filter:url(#filter3174-4);fill:url(#ButtonShadow-4)" rx="6" ry="6" height="85" width="86" y="7" x="5"/>
 </g>
 <g id="layer5-46" style="display:none" transform="translate(160.47 -5.8175)">
  <rect id="rect3171-2" style="opacity:.1;filter:url(#filter3794-67);stroke:#fff;stroke-linecap:round;stroke-width:.5;fill:url(#linearGradient3613-3)" clip-path="url(#clipPath3613-26)" rx="12" ry="12" height="66" width="66" y="15" x="15"/>
 </g>
 <rect id="rect3745-82" style="opacity:.9;filter:url(#filter3174-1);display:none;fill:url(#linearGradient9285)" rx="6" ry="6" height="85" width="86" y="9.8358" x="-54.657"/>
 <style id="style1470" type="text/css"/>
 <g id="layer2-9" style="display:none" transform="translate(-132.38 3.7839)">
  <rect id="rect3745-827" style="opacity:.9;filter:url(#filter3174-06);fill:url(#ButtonShadow-4)" rx="6" ry="6" height="85" width="86" y="7" x="5"/>
 </g>
 <g id="layer5" transform="translate(-132.38 3.7839)">
  <rect id="rect3171" style="opacity:.1;filter:url(#filter3794-4);stroke:#fff;stroke-linecap:round;stroke-width:.5;fill:url(#linearGradient3613-3)" clip-path="url(#clipPath3613-76)" rx="12" ry="12" height="66" width="66" y="15" x="15"/>
 </g>
 <rect id="rect3745-74" style="opacity:.9;filter:url(#filter3174-45);display:none;fill:url(#ButtonShadow-4)" transform="matrix(1.1352 0 0 1.3226 15.015 .16604)" rx="6" ry="6" height="85" width="86" y="7" x="5"/>
 <g id="layer2-7" style="display:none" transform="translate(10.047 -115.26)">
  <rect id="rect3745-93" style="opacity:.9;filter:url(#filter3174-17);fill:url(#ButtonShadow-4)" rx="6" ry="6" height="85" width="86" y="7" x="5"/>
 </g>
 <rect id="rect3745-85" style="opacity:.9;filter:url(#filter3174-2);display:none;fill:url(#linearGradient8327)" rx="6" ry="6" height="85" width="86" y="22.454" x="204.61"/>
 <rect id="rect3171-4" style="opacity:.1;filter:url(#filter3794-7);stroke:#fff;stroke-linecap:round;stroke-width:.5;fill:url(#linearGradient3613-3)" transform="matrix(1.4286 0 0 1.4286 -4.5715 -6.0005)" clip-path="url(#clipPath3613-20)" rx="12" ry="12" height="66" width="66" y="15" x="15"/>
 <path id="path3701" style="opacity:0.08" d="m96.843 73.839c-3.179 0.000037-6.058 0.92788-8.317 2.7844-2.4877 2.013-3.833 4.9588-3.833 8.2447v0.6509c0-0.000499 0.000056 0.21746 0 0.21696-0.000041-0.000497 0.03621 0.25362 0.03621 0.25313-0.000089-0.00049 0.07241 0.21744 0.07225 0.21696-0.000138-0.000479 0.0725 0.21743 0.07225 0.21696-0.000187-0.000462 0.10877 0.21741 0.10843 0.21697-0.000235-0.000443 0.10878 0.21738 0.10843 0.21696-0.000284-0.000417 0.14496 0.18119 0.14463 0.1808-0.000308-0.000386 0.145 0.18116 0.14465 0.1808-0.000348-0.000352 0.18119 0.14496 0.18081 0.14464-0.000389-0.000317 0.18121 0.14492 0.1808 0.14464-0.000422-0.000277 0.2174 0.10871 0.21697 0.10848-0.000437-0.000233 0.21743 0.10867 0.21696 0.10848-0.000462-0.000188 0.21744 0.07246 0.21697 0.07232-0.000469-0.000142 0.21745 0.07241 0.21697 0.07232-0.000486-0.000093 0.25363 0.03621 0.25312 0.03616-0.000494-0.000046 0.21746-0.000005 0.21697 0h6.1835c-0.0092 0.008-0.02738 0.02823-0.03621 0.03616-0.29403 0.26781-0.52419 0.4601-0.6509 0.57857-0.11339 0.10603-0.16904 0.16924-0.1808 0.1808-0.01037 0.01007-0.055 0.0514-0.10842 0.10848 0.09176-0.09799 0.03491-0.04727-0.07225 0.07232 0.12707-0.14175 0.07906-0.06608-0.03621 0.07232-0.08598 0.10321-0.07638 0.08019-0.10843 0.14464-0.01434 0.02889-0.029 0.05291-0.03621 0.07232-0.0049 0.0058 0.0041 0.03108 0 0.03616-0.0024 0.0026-0.03442-0.0022-0.03621 0-0.0049 0.01807-0.0375 0.11222-0.03621 0.10848-1.2899 1.5875-2.1335 3.4488-2.1335 5.4603v2.3143c0-0.000504 0.000056 0.21746 0 0.21696-0.000049-0.000504 0.03621 0.25361 0.03621 0.25312-0.000089-0.000495 0.07241 0.21744 0.07225 0.21695-0.000146-0.000477 0.0725 0.21744 0.07225 0.21698-0.000187-0.000468 0.10877 0.2174 0.10843 0.21695-0.000235-0.000432 0.10876 0.21739 0.10842 0.21698-0.000276-0.000423 0.14496 0.18118 0.14464 0.18079-0.000315-0.000387 0.145 0.18116 0.14464 0.18081-0.000348-0.00036 0.18119 0.14496 0.18081 0.14464-0.00038-0.000315 0.18122 0.14492 0.1808 0.14465-0.000413-0.000288 0.2174 0.10871 0.21697 0.10849-0.000437-0.000243 0.21743 0.10867 0.21697 0.10847-0.000462-0.00018 0.21744 0.07245 0.21697 0.07236-0.00047-0.000144 0.21745 0.07245 0.21697 0.07227a1.1975 1.1975 0 0 0 -0.43393 0.28929c-1.2147 1.2595-1.7719 2.9518-1.7719 4.6648-0.000017 1.7327 0.63255 3.3794 1.8442 4.5924 1.2211 1.2225 2.8826 1.9165 4.6647 1.9165 1.5646 0 3.0265-0.60604 4.1947-1.5911a1.1975 1.1975 0 0 0 0.18081 -0.10843c0.008-0.006 0.0287 0.006 0.0362 0a1.1975 1.1975 0 0 0 0.25313 -0.1808 1.1975 1.1975 0 0 0 0.25313 -0.39777c1.0124-1.1779 1.591-2.6717 1.5911-4.2308-0.00003-1.7391-0.62787-3.3952-1.8442-4.6286-0.002-0.0027-0.0353 0.0018-0.0362 0-0.002-0.0036 0.00005-0.03609 0-0.03609-0.12798-0.12977-0.29587-0.20816-0.43393-0.32545 0.068-0.01656 0.14495-0.03618 0.14464-0.03609-0.00047 0.000135 0.21743-0.07254 0.21696-0.07236-0.00046 0.00018 0.21741-0.10872 0.21698-0.1085-0.00045 0.000243 0.21738-0.10875 0.21695-0.10849-0.00042 0.000288 0.18119-0.14495 0.18081-0.14463-0.00038 0.000315 0.18115-0.145 0.1808-0.14465-0.00034 0.000351 0.14496-0.18119 0.14465-0.1808-0.00031 0.000387 0.14492-0.18122 0.14464-0.18081-0.00028 0.000423 0.10877-0.2174 0.10843-0.21695-0.00023 0.000432 0.10865-0.21744 0.10842-0.21698-0.00018 0.000468 0.0725-0.21743 0.0724-0.21695-0.00015 0.000477 0.0724-0.21746 0.0723-0.21697-0.00009 0.000495 0.0362-0.25362 0.0362-0.25312-0.00004 0.000504 0-0.21746 0-0.21696v-1.4103c0 0.27003-0.0238 0.12887 0.10843-0.07225 0.13227-0.2012 0.38674-0.50164 0.8317-0.86787 0.005-0.0057-0.006-0.03013 0-0.03613 0.0795-0.07233 0.21309-0.17589 0.21696-0.18081 1.6607-1.308 2.7955-2.2162 3.5076-3.1098 0.008-0.0097 0.0285-0.02643 0.0362-0.03615 1.563-1.8571 2.4228-4.1686 2.4228-6.6898-0.00003-3.2662-1.4302-6.1983-4.0139-8.1724-2.326-1.7631-5.2116-2.6759-8.3532-2.6759z"/>
 <path id="path3696" style="opacity:.15" d="m96.843 75.033c-2.9453 0.000034-5.5268 0.86233-7.5576 2.5313-2.2199 1.7963-3.3991 4.3357-3.3991 7.3045v0.6509a1.1823 1.1823 0 0 0 1.1933 1.1933h7.2683a1.1823 1.1823 0 0 0 1.1933 -1.2295c-0.02025-0.62839 0.09767-1.0588 0.36161-1.4464 0.21014-0.30855 0.32264-0.36159 0.8317-0.36161 0.35544 0.000013 0.57082 0.095 0.8317 0.32545a1.1823 1.1823 0 0 0 0.03618 0c0.23403 0.19297 0.25311 0.24997 0.25312 0.54241-0.000009 0.37624-0.3151 1.1214-1.3741 2.0612-1.0805 0.97358-1.906 1.7022-2.4589 2.2058-0.27647 0.25182-0.46616 0.43965-0.61474 0.57857-0.07428 0.06946-0.13066 0.13152-0.1808 0.1808-0.02511 0.02463-0.04261 0.04063-0.07225 0.07232-0.0065 0.008-0.02689 0.02584-0.03621 0.03616-0.0092 0.0103-0.02292 0.0202-0.03621 0.03616-0.01328 0.01598-0.01304 0.04055-0.03621 0.07232-0.023 0.03177-0.10808 0.1438-0.10843 0.14464-1.208 1.4428-1.9165 3.1054-1.9165 4.8456v2.3143a1.1823 1.1823 0 0 0 1.1933 1.1933h7.4853a1.1823 1.1823 0 0 0 1.1933 -1.1933v-1.4103c0-0.3096 0.32953-1.0206 1.3741-1.8804 0.0203-0.01596 0.0161-0.02033 0.0362-0.03613 1.8532-1.4585 2.945-2.3496 3.5438-3.1098 0.0116-0.0129 0.0252-0.02322 0.0362-0.03616 1.3884-1.6496 2.1335-3.6726 2.1335-5.9304-0.00002-2.9291-1.2371-5.4698-3.5438-7.2322-2.1051-1.5956-4.7148-2.4227-7.6299-2.4228zm-0.79553 23.975c-1.4806 0.000009-2.8387 0.55939-3.8331 1.5549a1.1823 1.1823 0 0 0 -0.03621 0c-0.97313 1.009-1.4464 2.3802-1.4464 3.8331-0.000016 1.4529 0.50936 2.7864 1.4826 3.7607 0.9944 0.99555 2.3525 1.5549 3.8331 1.5549 1.4628 0 2.8266-0.53326 3.7969-1.5188v-0.0362h0.03618c0.98132-0.96893 1.4826-2.3196 1.4826-3.7607-0.00001-1.4481-0.52801-2.7923-1.5187-3.7969-0.0063-0.007 0.0063-0.0287 0-0.0361-0.97129-0.99468-2.327-1.5549-3.7969-1.5549z"/>
 <path id="path3689" d="m106.82 84.676c-0.00002 2.0274-0.62102 3.7709-1.863 5.2305-0.378 0.48658-1.512 1.4732-3.402 2.9599-1.242 1.0002-1.863 1.9327-1.863 2.7977v1.4191h-7.4926v-2.3112c0-1.5408 0.594-2.9734 1.782-4.2979 0.02697-0.05405 1.1205-1.0542 3.2805-3.0005 1.188-1.0542 1.782-2.0273 1.782-2.9194-0.000009-0.59466-0.22952-1.0812-0.68849-1.4597-0.45903-0.40544-0.99903-0.60818-1.62-0.6082-0.81002 0.000024-1.4175 0.29737-1.8225 0.89203-0.40502 0.5947-0.59403 1.311-0.56702 2.149h-7.2496v-0.64874c0-2.6761 0.9855-4.8115 2.9565-6.4064 1.809-1.4867 4.077-2.23 6.8041-2.2301 2.7 0.000032 4.995 0.71635 6.8851 2.149 2.052 1.5678 3.078 3.6627 3.078 6.2847m-6.6421 19.706c-0.00001 1.2164-0.39151 2.203-1.1745 2.9599-0.75602 0.7839-1.7415 1.1758-2.9565 1.1758s-2.214-0.39194-2.997-1.1758c-0.75602-0.75687-1.134-1.7435-1.134-2.9599s0.37799-2.2165 1.134-3.0004c0.783-0.78389 1.782-1.1758 2.997-1.1758s2.2005 0.39196 2.9565 1.1758c0.78299 0.78391 1.1745 1.7841 1.1745 3.0004" style="opacity:.3"/>
 <path id="path3706" d="m44.012 22.853c-7.2039-0.213-14.12 4.0074-17.481 10.34-4.3296 7.9-4.6992 17.532-2.5918 26.154 1.582 6.1695 5.1807 12.205 11.192 14.92 3.1037 1.9821 8.0043 0.4398 8.479 5.0554 2.415 5.1381 8.6158 6.695 13.835 6.1129 1.7166-0.01646 4.2716-0.28714 4.4298-2.4824-0.12124-2.0155 0.25695-4.1221-0.21697-6.075-0.7529-2.7175-4.9028-0.04225-5.1342-2.9711-1.2335-2.2225 1.4118-3.2003 2.6391-4.5865 4.8034-5.8699 6.385-13.84 5.858-21.263 0.96448 0.94969 2.434 0.51709 3.6522 0.61474 0.09407 5.8514-0.22767 11.721 0.25043 17.557 0.25113 4.2909 3.0618 8.4496 7.4037 9.4191 4.2924 1.1124 8.963 0.92727 13.175-0.36153 1.8232-1.1847 0.95623-3.5883 1.1572-5.3887-0.13634-1.8353 0.30569-3.7766-0.28929-5.5318-1.4297-2.2173-4.3723-0.72309-6.4851-1.1166-1.5191-0.61896-0.56218-3.2257-0.81938-4.6817v-9.8955c1.9305-0.14522 3.9728 0.31908 5.8219-0.28929 1.9535-1.1168 1.0669-3.628 1.2656-5.4611-0.1437-1.9546 0.31648-4.0201-0.28928-5.8934-1.1168-1.9535-3.628-1.0668-5.4611-1.2656-1.6516 0.52805-1.3823-0.86487-1.3372-2.0335-0.1097-2.4732 0.22648-5.0084-0.18081-7.4406-0.91808-2.1307-3.4646-1.3279-5.2711-1.4048-1.7393 0.21142-3.6582-0.29222-5.2517 0.53692-1.4261 1.2544-1.138 3.4141-1.7078 5.0993-0.37089 1.7476-0.74181 3.4951-1.1127 5.2427-1.7748 0.1248-4.2873-0.5988-5.171 1.4826-0.3583 1.139-0.10449 2.3656-0.1808 3.5438-1.6516-7.7018-6.8394-15.245-14.815-17.249-1.7458-0.47027-3.5559-0.68762-5.3626-0.68703zm0 13.886c4.058-0.12058 4.8183 4.9 5.2612 7.9649 0.4237 5.2117 0.65714 10.807-1.6219 15.647-1.5765 3.6036-7.2615 2.4949-7.9517-1.2059-1.7675-5.4628-1.7341-11.457-0.60136-17.05 0.59814-2.393 1.862-5.6941 4.9137-5.3556z" style="opacity:0.08"/>
 <path id="path3702" style="opacity:.15" d="m44.012 24.082c-5.7254 0.000051-10.521 2.165-14.067 6.3643-4.026 4.7628-6.0027 11.173-6.0027 19.093 0 5.8998 1.1411 11.084 3.4714 15.513a1.2009 1.2009 0 0 0 0 0.03616c3.4024 6.3392 8.8484 9.6787 15.766 9.9442 0.85263 3.1394 2.2691 5.8151 4.8094 7.413 2.782 1.7499 6.5903 2.2491 11.644 1.4826a1.2009 1.2009 0 0 0 1.0125 -1.1933v-4.8817a1.2009 1.2009 0 0 0 -1.3018 -1.1933c-2.0506 0.18899-2.8802-0.20222-3.4714-0.97634-0.55285-0.7238-0.86418-2.2309-1.0487-4.1585 1.2103-0.85486 2.3568-1.7956 3.363-3.0014a1.2009 1.2009 0 0 0 0.03621 0c3.864-4.638 5.716-11.028 5.716-18.985 0-5.952-1.196-11.156-3.616-15.585-3.585-6.451-9.181-9.872-16.309-9.872zm36.595 1.9527-6.8706 0.18081a1.2009 1.2009 0 0 0 -1.121 0.94018l-2.0973 9.8358h-3.9054a1.2009 1.2009 0 0 0 -1.1933 1.1933v8.0639a1.2009 1.2009 0 0 0 1.1933 1.1933h3.2906v14.247c-0.000008 4.3194 0.54186 7.4673 1.9527 9.5465 0.0081 0.01157 0.02827 0.02466 0.03621 0.03616 1.8081 2.7221 5.4146 3.8692 10.378 3.8692 1.7102-0.000004 3.7749-0.24007 6.2197-0.75938a1.2009 1.2009 0 0 0 0.94019 -1.1571v-7.6661a1.2009 1.2009 0 0 0 -1.2656 -1.1933c-1.6373 0.09153-2.845 0.14465-3.6161 0.14464-1.2062 0.000008-1.8985-0.27146-2.0973-0.43393-0.03005-0.024-0.22182-0.26873-0.36161-0.8317s-0.25314-1.396-0.25312-2.4589v-13.343h5.8942a1.2009 1.2009 0 0 0 1.1933 -1.1933v-8.0639a1.2009 1.2009 0 0 0 -1.1933 -1.1933h-5.8942v-9.7634a1.2009 1.2009 0 0 0 -1.2295 -1.1933zm-36.595 9.4741c2.2688 0.000017 3.7436 0.92482 4.9179 3.1822 1.1742 2.2573 1.8442 5.9218 1.8442 10.921-0.000016 4.9987-0.66896 8.6895-1.8442 10.957-1.1752 2.2673-2.6518 3.1822-4.9179 3.1822-2.3131 0.000004-3.8283-0.93971-5.0264-3.2183-1.198-2.2786-1.8804-5.973-1.8804-10.993-0.000016-0.40151-0.000016-0.7924 0-1.1933v-0.03616c0.12869-4.5341 0.87929-7.8681 2.0612-9.9081 1.1855-2.0462 2.6417-2.8928 4.8456-2.8929z"/>
 <path id="path3698" d="m44.012 25.275c-5.4341 0.000048-9.8251 1.977-13.163 5.9304-3.8082 4.5051-5.7134 10.611-5.7134 18.334 0 5.7463 1.1018 10.741 3.3268 14.971 3.3803 6.2979 8.5746 9.438 15.549 9.438 1.5069 6.73 5.6637 10.27 15.441 8.7871v-4.8817c-4.5514 0.41949-5.5395-2.082-5.8942-6.509v-0.28929c1.3692-0.87342 2.612-1.9575 3.7246-3.2906 3.637-4.3671 5.4602-10.456 5.4603-18.225-0.000041-5.7922-1.1609-10.777-3.4714-15.007-3.4231-6.1599-8.4993-9.2571-15.26-9.2572zm36.631 1.9527-6.8706 0.1808-2.2781 10.776h-4.8817v8.0639h4.4839v15.441c-0.000008 4.2292 0.60322 7.1947 1.7719 8.8956 1.4716 2.2525 4.5973 3.363 9.4018 3.363 1.6015-0.000003 3.5859-0.21755 5.9665-0.72322v-7.6661c-1.6448 0.09195-2.866 0.14465-3.6884 0.14464-1.3418 0.000009-2.294-0.22735-2.8567-0.68706-0.69255-0.55163-1.0487-1.9783-1.0487-4.2308v-14.537h7.0875v-8.0639h-7.0875v-10.957zm-36.631 7.0875c5.3057 0.000039 7.9554 5.0907 7.9554 15.296-0.000041 10.205-2.6497 15.332-7.9554 15.332-5.3914 0.000009-8.1-5.1532-8.1-15.405-0.000008-0.4137-0.000008-0.81571 0-1.2295 0.25672-9.3319 2.9654-13.994 8.1-13.994z" style="opacity:.3"/>
 <path id="path3665" d="m44.012 24.118c-5.4341 0.000049-9.8251 1.977-13.163 5.9304-3.8082 4.5051-5.7134 10.611-5.7134 18.334 0 5.7463 1.1018 10.741 3.3268 14.971 3.3803 6.2979 8.5746 9.438 15.549 9.438 1.5069 6.73 5.6637 10.27 15.441 8.7871v-4.8817c-4.5514 0.41948-5.5395-2.082-5.8942-6.509v-0.28929c1.3692-0.87342 2.612-1.9575 3.7246-3.2906 3.637-4.3671 5.4602-10.456 5.4603-18.225 0-5.792-1.161-10.777-3.472-15.007-3.423-6.16-8.499-9.257-15.26-9.257zm36.631 1.9527-6.8706 0.18081-2.2781 10.776h-4.8817v8.0639h4.4839v15.441c-0.000008 4.2292 0.60322 7.1947 1.7719 8.8956 1.4716 2.2525 4.5973 3.363 9.4018 3.363 1.6015-0.000003 3.5859-0.21755 5.9665-0.72322v-7.6661c-1.6448 0.09195-2.866 0.14465-3.6884 0.14464-1.3418 0.000009-2.294-0.22735-2.8567-0.68706-0.69255-0.55163-1.0487-1.9783-1.0487-4.2308v-14.537h7.0875v-8.0639h-7.0875v-10.957zm-36.631 7.0875c5.3057 0.000038 7.9554 5.0907 7.9554 15.296-0.000041 10.205-2.6497 15.332-7.9554 15.332-5.3914 0.00001-8.1-5.1532-8.1-15.405-0.000008-0.41371-0.000008-0.81572 0-1.2295 0.25672-9.3319 2.9654-13.994 8.1-13.994z" style="fill:#fff"/>
 <path id="path3695" d="m106.82 83.519c-0.00002 2.0274-0.62102 3.7709-1.863 5.2305-0.378 0.48657-1.512 1.4732-3.402 2.9599-1.242 1.0002-1.863 1.9327-1.863 2.7977v1.4191h-7.4926v-2.3112c0-1.5408 0.594-2.9734 1.782-4.2979 0.02697-0.05405 1.1205-1.0542 3.2805-3.0005 1.188-1.0542 1.782-2.0273 1.782-2.9194-0.000009-0.59466-0.22952-1.0812-0.68849-1.4597-0.45903-0.40544-0.99903-0.60818-1.62-0.6082-0.81002 0.000023-1.4175 0.29737-1.8225 0.89203-0.40502 0.5947-0.59403 1.311-0.56702 2.149h-7.2496v-0.64874c0-2.6761 0.9855-4.8115 2.9565-6.4064 1.809-1.4867 4.077-2.23 6.8041-2.2301 2.7 0.000031 4.995 0.71635 6.8851 2.149 2.052 1.5678 3.078 3.6627 3.078 6.2847m-6.6421 19.706c-0.00001 1.2164-0.39151 2.203-1.1745 2.9599-0.75602 0.7839-1.7415 1.1758-2.9565 1.1758s-2.214-0.39195-2.997-1.1758c-0.75602-0.75687-1.134-1.7435-1.134-2.9599s0.37799-2.2165 1.134-3.0004c0.783-0.7839 1.782-1.1759 2.997-1.1759s2.2005 0.39196 2.9565 1.1759c0.78299 0.78391 1.1745 1.784 1.1745 3.0004" style="fill:url(#linearGradient8272)"/>
 <path id="path2908" d="m96.843 75.069c-2.727 0.000032-4.9892 0.75529-6.7982 2.242-1.971 1.5949-2.9652 3.7244-2.9652 6.4005v0.6509h0.03621c0.11945-2.4371 1.0857-4.4027 2.929-5.8942 1.809-1.4867 4.0712-2.2419 6.7982-2.242 2.7 0.000032 5.0167 0.73703 6.9067 2.1696 1.8809 1.4371 2.8806 3.3183 3.0375 5.6411 0.009-0.17323 0.0362-0.32867 0.0362-0.50625-0.00002-2.622-1.0217-4.7242-3.0737-6.292-1.89-1.4326-4.2067-2.1696-6.9067-2.1697zm2.0973 8.9317c-0.20672 0.72015-0.7419 1.4966-1.6634 2.3143-2.16 1.9463-3.2636 2.9473-3.2906 3.0014-1.188 1.3245-1.7719 2.7624-1.7719 4.3031v1.1571c-0.000016-1.5407 0.58386-2.9786 1.7719-4.3031 0.02697-0.05405 1.1306-1.0551 3.2906-3.0014 1.188-1.0542 1.7719-2.037 1.7719-2.929 0-0.2051-0.05391-0.36304-0.10843-0.54241zm-2.8929 15.043c-1.215 0.000009-2.2184 0.40942-3.0014 1.1933-0.756 0.7839-1.121 1.785-1.121 3.0014 0 0.20238 0.01523 0.38891 0.03621 0.57858 0.10484-0.95404 0.45459-1.7693 1.0848-2.4228 0.783-0.78389 1.7863-1.1933 3.0014-1.1933 1.215 0.00001 2.2092 0.40941 2.9652 1.1933 0.65272 0.65348 1.0124 1.4688 1.121 2.4228 0.0216-0.18967 0.0362-0.3762 0.0362-0.57858-0.00002-1.2164-0.37415-2.2174-1.1571-3.0014-0.75602-0.7839-1.7502-1.1933-2.9652-1.1933z" style="opacity:.3;fill:#fff"/>
</svg>
