<?xml version="1.0" encoding="UTF-8" standalone="no"?>
<!-- Created with Inkscape (http://www.inkscape.org/) -->
<svg id="svg4511" xmlns:rdf="http://www.w3.org/1999/02/22-rdf-syntax-ns#" xmlns="http://www.w3.org/2000/svg" height="48px" width="48px" version="1.1" xmlns:cc="http://creativecommons.org/ns#" xmlns:xlink="http://www.w3.org/1999/xlink" xmlns:dc="http://purl.org/dc/elements/1.1/">
 <defs id="defs4513">
  <filter id="filter3174" color-interpolation-filters="sRGB">
   <feGaussianBlur id="feGaussianBlur3176" stdDeviation="1.71"/>
  </filter>
  <linearGradient id="linearGradient3254" y2="7.0165" gradientUnits="userSpaceOnUse" x2="45.448" gradientTransform="matrix(1.0059 0 0 .99417 -175.86 -30.712)" y1="92.54" x1="45.448">
   <stop id="stop3750" offset="0"/>
   <stop id="stop3752" style="stop-opacity:.58824" offset="1"/>
  </linearGradient>
  <filter id="filter3174-7" color-interpolation-filters="sRGB">
   <feGaussianBlur id="feGaussianBlur3176-58" stdDeviation="1.71"/>
  </filter>
  <linearGradient id="linearGradient8374" y2="7.0165" gradientUnits="userSpaceOnUse" x2="45.448" gradientTransform="matrix(1.0059 0 0 .99417 108.29 -24.643)" y1="92.54" x1="45.448">
   <stop id="stop3750-50" offset="0"/>
   <stop id="stop3752-42" style="stop-opacity:.58824" offset="1"/>
  </linearGradient>
  <filter id="filter3174-41" color-interpolation-filters="sRGB">
   <feGaussianBlur id="feGaussianBlur3176-9" stdDeviation="1.71"/>
  </filter>
  <linearGradient id="ButtonShadow-6" x1="45.448" gradientUnits="userSpaceOnUse" y1="92.54" gradientTransform="scale(1.0059 .99417)" x2="45.448" y2="7.0165">
   <stop id="stop3750-9" offset="0"/>
   <stop id="stop3752-33" style="stop-opacity:.58824" offset="1"/>
  </linearGradient>
  <filter id="filter3174-57" color-interpolation-filters="sRGB">
   <feGaussianBlur id="feGaussianBlur3176-42" stdDeviation="1.71"/>
  </filter>
  <filter id="filter3174-76" color-interpolation-filters="sRGB">
   <feGaussianBlur id="feGaussianBlur3176-51" stdDeviation="1.71"/>
  </filter>
  <filter id="filter3174-3" color-interpolation-filters="sRGB">
   <feGaussianBlur id="feGaussianBlur3176-47" stdDeviation="1.71"/>
  </filter>
  <filter id="filter3174-65" color-interpolation-filters="sRGB">
   <feGaussianBlur id="feGaussianBlur3176-0" stdDeviation="1.71"/>
  </filter>
  <linearGradient id="linearGradient10848" y2="-23.714" gradientUnits="userSpaceOnUse" x2="46.689" y1="-23.714" x1="2">
   <stop id="stop4329" style="stop-color:#f0f0f0" offset="0"/>
   <stop id="stop4331" style="stop-color:#b4b4b4" offset="1"/>
  </linearGradient>
  <linearGradient id="linearGradient10968" y2="7.0165" gradientUnits="userSpaceOnUse" x2="45.448" gradientTransform="matrix(1.0059 0 0 .99417 88.061 -64.071)" y1="92.54" x1="45.448">
   <stop id="stop3750-53" offset="0"/>
   <stop id="stop3752-85" style="stop-opacity:.58824" offset="1"/>
  </linearGradient>
  <linearGradient id="linearGradient4327-0">
   <stop id="stop4329-1" style="stop-color:#f0f0f0" offset="0"/>
   <stop id="stop4331-2" style="stop-color:#b4b4b4" offset="1"/>
  </linearGradient>
  <linearGradient id="linearGradient11027" y2="-23.714" xlink:href="#linearGradient4327-0" gradientUnits="userSpaceOnUse" y1="-23.714" gradientTransform="translate(.084022 .11383)" x2="46.689" x1="2"/>
  <linearGradient id="linearGradient11061" y2="-23.714" gradientUnits="userSpaceOnUse" y1="-23.714" gradientTransform="translate(.037143 -2.7143)" x2="46.689" x1="2">
   <stop id="stop4629" style="stop-color:#de7b7b" offset="0"/>
   <stop id="stop4633" style="stop-color:#721b1b" offset="1"/>
  </linearGradient>
  <linearGradient id="linearGradient11086" y2="-24.286" gradientUnits="userSpaceOnUse" x2="46.327" gradientTransform="translate(.39955)" y1="-24.286" x1="1.5305">
   <stop id="stop3226" style="stop-color:#c88080" offset="0"/>
   <stop id="stop3228" style="stop-color:#6d2e2e" offset="1"/>
  </linearGradient>
  <linearGradient id="linearGradient11109" y2="-23.714" xlink:href="#linearGradient4327-0" gradientUnits="userSpaceOnUse" y1="-23.714" gradientTransform="translate(.35675 .62270)" x2="46.689" x1="2"/>
  <linearGradient id="linearGradient11134" y2="-21.458" xlink:href="#linearGradient4327-0" gradientUnits="userSpaceOnUse" x2="46.773" y1="-21.458" x1="1.9769"/>
  <linearGradient id="linearGradient11142" y2="-23.714" xlink:href="#linearGradient4327-0" gradientUnits="userSpaceOnUse" x2="46.689" y1="-23.714" x1="2"/>
  <linearGradient id="linearGradient11150" y2="-19.535" gradientUnits="userSpaceOnUse" x2="47.046" y1="-19.535" x1="2.7547">
   <stop id="stop3599" style="stop-color:#dcdcdc" offset="0"/>
   <stop id="stop3601" style="stop-color:#f5f5f5" offset="1"/>
  </linearGradient>
  <filter id="filter3174-34" color-interpolation-filters="sRGB">
   <feGaussianBlur id="feGaussianBlur3176-01" stdDeviation="1.71"/>
  </filter>
  <linearGradient id="linearGradient4603" y2="7.0165" gradientUnits="userSpaceOnUse" x2="45.448" gradientTransform="matrix(1.0059 0 0 .99417 -25.979 57.897)" y1="92.54" x1="45.448">
   <stop id="stop3750-96" offset="0"/>
   <stop id="stop3752-39" style="stop-opacity:.58824" offset="1"/>
  </linearGradient>
  <filter id="filter3174-2" color-interpolation-filters="sRGB">
   <feGaussianBlur id="feGaussianBlur3176-44" stdDeviation="1.71"/>
  </filter>
  <filter id="filter4180-8" height="3.8298" width="1.2289" color-interpolation-filters="sRGB" y="-1.4149" x="-.11445">
   <feGaussianBlur id="feGaussianBlur4182-1" stdDeviation="3.5372897"/>
  </filter>
  <radialGradient id="radialGradient4138-7" cx="48" gradientUnits="userSpaceOnUse" cy="84" r="30" gradientTransform="matrix(1.0667 0 0 .066667 -3.2 77.4)">
   <stop id="stop3315-1" style="stop-color:#4dbeff" offset="0"/>
   <stop id="stop4186-5" style="stop-color:#1379ff;stop-opacity:.65041" offset=".67213"/>
   <stop id="stop3317-6" style="stop-color:#06f;stop-opacity:0" offset="1"/>
  </radialGradient>
  <filter id="filter3174-1" color-interpolation-filters="sRGB">
   <feGaussianBlur id="feGaussianBlur3176-512" stdDeviation="1.71"/>
  </filter>
  <filter id="filter4180-5" height="3.8298" width="1.2289" color-interpolation-filters="sRGB" y="-1.4149" x="-.11445">
   <feGaussianBlur id="feGaussianBlur4182-16" stdDeviation="3.5372897"/>
  </filter>
  <filter id="filter3174-10" color-interpolation-filters="sRGB">
   <feGaussianBlur id="feGaussianBlur3176-017" stdDeviation="1.71"/>
  </filter>
  <filter id="filter3174-93" color-interpolation-filters="sRGB">
   <feGaussianBlur id="feGaussianBlur3176-3" stdDeviation="1.71"/>
  </filter>
  <filter id="filter4180-7" height="3.8298" width="1.2289" color-interpolation-filters="sRGB" y="-1.4149" x="-.11445">
   <feGaussianBlur id="feGaussianBlur4182-6" stdDeviation="3.5372897"/>
  </filter>
  <filter id="filter3174-19" color-interpolation-filters="sRGB">
   <feGaussianBlur id="feGaussianBlur3176-19" stdDeviation="1.71"/>
  </filter>
  <linearGradient id="linearGradient3908" x1="5" gradientUnits="userSpaceOnUse" y1="64" gradientTransform="matrix(-.52730 .52730 -.52730 -.52730 123.49 79)" x2="123" y2="64">
   <stop id="stop3249" style="stop-color:#fff;stop-opacity:0" offset="0"/>
   <stop id="stop3255" style="stop-color:#ffdc4f;stop-opacity:0" offset="0.3"/>
   <stop id="stop3295" style="stop-color:#f685af;stop-opacity:.43922" offset=".5"/>
   <stop id="stop3257" style="stop-color:#ffdc4f;stop-opacity:0" offset="0.7"/>
   <stop id="stop3253" style="stop-color:#fff;stop-opacity:0" offset="1"/>
  </linearGradient>
  <filter id="filter3174-31" color-interpolation-filters="sRGB">
   <feGaussianBlur id="feGaussianBlur3176-76" stdDeviation="1.71"/>
  </filter>
  <linearGradient id="linearGradient13399" x1="69.649" xlink:href="#ButtonShadow-6" gradientUnits="userSpaceOnUse" y1="89.131" gradientTransform="matrix(1.8663 0 0 2.2236 160.55 -78.137)" x2="69.016" y2="34.714"/>
  <filter id="filter3222" color-interpolation-filters="sRGB">
   <feGaussianBlur id="feGaussianBlur3224" stdDeviation="1.27575"/>
  </filter>
  <radialGradient id="radialGradient2924" cx="59.894" gradientUnits="userSpaceOnUse" cy="61.922" r="33.714" gradientTransform="matrix(1 0 0 .83754 0 10.06)">
   <stop id="stop3344" style="stop-opacity:0" offset="0"/>
   <stop id="stop3350" style="stop-opacity:0" offset="0.85"/>
   <stop id="stop2810" style="stop-opacity:.65625" offset="1"/>
  </radialGradient>
  <linearGradient id="linearGradient2926" x1="26.18" gradientUnits="userSpaceOnUse" y1="61.922" x2="93.608" y2="61.922">
   <stop id="stop3332" style="stop-color:#fff;stop-opacity:.20312" offset="0"/>
   <stop id="stop3334" style="stop-color:#fff;stop-opacity:.67969" offset="1"/>
  </linearGradient>
  <linearGradient id="linearGradient2928" x1="25.22" gradientUnits="userSpaceOnUse" y1="61.922" x2="94.568" y2="61.922">
   <stop id="stop3364" style="stop-color:#4d4d4d" offset="0"/>
   <stop id="stop3366" style="stop-color:#fff" offset="1"/>
  </linearGradient>
  <linearGradient id="linearGradient13393" x1="73.016" gradientUnits="userSpaceOnUse" y1="89.131" gradientTransform="matrix(1.3461 0 0 1.617 -24.621 -21.393)" x2="73.016" y2="34.607">
   <stop id="stop2788" style="stop-color:#d5aed1" offset="0"/>
   <stop id="stop2790" style="stop-color:#f9ecd2" offset="1"/>
  </linearGradient>
  <linearGradient id="linearGradient13390" x1="5" gradientUnits="userSpaceOnUse" y1="64" gradientTransform="matrix(.52730 .52730 -.52730 .52730 56 11.506)" x2="123" y2="64">
   <stop id="stop3235" style="stop-color:#fff;stop-opacity:0" offset="0"/>
   <stop id="stop3297" style="stop-color:#fff;stop-opacity:0" offset="0.3"/>
   <stop id="stop3241" style="stop-color:#fff" offset=".5"/>
   <stop id="stop3299" style="stop-color:#fff;stop-opacity:0" offset="0.7"/>
   <stop id="stop3237" style="stop-color:#fff;stop-opacity:0" offset="1"/>
  </linearGradient>
  <linearGradient id="linearGradient13387" x1="5" xlink:href="#linearGradient3265" gradientUnits="userSpaceOnUse" y1="64" gradientTransform="matrix(-.38603 .63801 -.63801 -.38603 121.54 62.873)" x2="123" y2="64"/>
  <linearGradient id="linearGradient3265">
   <stop id="stop3267" style="stop-color:#fff;stop-opacity:0" offset="0"/>
   <stop id="stop3269" style="stop-color:#add8e4;stop-opacity:0" offset="0.35"/>
   <stop id="stop3271" style="stop-color:#a3d2e0;stop-opacity:.45098" offset=".5"/>
   <stop id="stop3273" style="stop-color:#add8e4;stop-opacity:0" offset="0.65"/>
   <stop id="stop3882" style="stop-color:#fff;stop-opacity:0" offset="1"/>
  </linearGradient>
  <linearGradient id="linearGradient13384" x1="5" xlink:href="#linearGradient3265" gradientUnits="userSpaceOnUse" y1="64" gradientTransform="matrix(-.65332 .35952 -.35952 -.65332 120.82 97.803)" x2="123" y2="64"/>
  <linearGradient id="linearGradient13921" x1="50.875" gradientUnits="userSpaceOnUse" y1="34.75" x2="50.875" y2="79.819">
   <stop id="stop13372" style="stop-color:#fff" offset="0"/>
   <stop id="stop13374" style="stop-color:#fff;stop-opacity:0" offset="1"/>
  </linearGradient>
  <linearGradient id="linearGradient12520" y2="7.0165" xlink:href="#ButtonShadow-6" gradientUnits="userSpaceOnUse" x2="45.448" gradientTransform="scale(1.0059 .99417)" y1="92.54" x1="45.448"/>
  <filter id="filter3174-75" color-interpolation-filters="sRGB">
   <feGaussianBlur id="feGaussianBlur3176-2" stdDeviation="1.71"/>
  </filter>
  <filter id="filter3174-0" color-interpolation-filters="sRGB">
   <feGaussianBlur id="feGaussianBlur3176-92" stdDeviation="1.71"/>
  </filter>
  <clipPath id="clipPath3997-2-8">
   <path id="path3999-5-9" d="m16 11c-2.216 0-4 1.784-4 4v52c0 2.216 1.784 4 4 4h64c2.216 0 4-1.784 4-4v-52c0-2.216-1.784-4-4-4h-64zm32 9c12.15 0 22 8.9543 22 20s-9.8497 20-22 20c-4.0043 0-7.7657-0.95681-11-2.6562l3-4.75c2.3556 1.2408 5.0816 1.9375 8 1.9375 8.8366 0 16-6.498 16-14.531 0-8.0332-7.1634-14.531-16-14.531s-16 6.498-16 14.531h4l-3.5 5.4688-3.5 5.4375-3.5-5.4375-3.5-5.468h4c0-11.046 9.85-20 22-20zm0 7.2812c1.108 0 2 0.80523 2 1.8125v10.156l6.5 5.9062c0.78347 0.71225 0.88657 1.7338 0.25 2.3125l-0.53125 0.5c-0.63657 0.5787-1.779 0.46224-2.5625-0.25l-7.0625-6.4375c-0.1-0.09-0.204-0.171-0.282-0.28-0.401-0.51-0.511-1.108-0.312-1.594v-10.312c0-1.0073 0.892-1.8125 2-1.8125z" style="fill:#ff2a2a"/>
  </clipPath>
  <filter id="filter4001-3-6" height="1.5256" width="1.4417" color-interpolation-filters="sRGB" y="-.26279" x="-.22085">
   <feGaussianBlur id="feGaussianBlur4003-3-0" stdDeviation="4.6125071"/>
  </filter>
  <linearGradient id="linearGradient14272" y2="32" gradientUnits="userSpaceOnUse" x2="56" gradientTransform="matrix(.55438 0 0 .52294 -2.0926 -10.243)" y1="76" x1="56">
   <stop id="stop3769-0-8" style="stop-color:#9a0000;stop-opacity:.70732" offset="0"/>
   <stop id="stop3771-2-6" style="stop-color:#9a0000;stop-opacity:.31373" offset="1"/>
  </linearGradient>
 </defs>
 <metadata id="metadata4516">
  <rdf:RDF>
   <cc:Work rdf:about="">
    <dc:format>image/svg+xml</dc:format>
    <dc:type rdf:resource="http://purl.org/dc/dcmitype/StillImage"/>
    <dc:title/>
   </cc:Work>
  </rdf:RDF>
 </metadata>
 <g id="layer1">
  <rect id="rect810-9" style="opacity:.52991;stroke:#000;fill:#333" transform="scale(1,-1)" ry="10.607" height="43.689" width="43.689" y="-46.112" x="2.5506"/>
  <rect id="rect810" style="stroke:url(#linearGradient11142);fill:url(#linearGradient10848)" transform="scale(1,-1)" ry="10.607" height="43.689" width="43.689" y="-45.559" x="2.5"/>
  <rect id="rect3745" style="opacity:.9;filter:url(#filter3174);display:none;fill:url(#linearGradient3254)" rx="6" ry="6" height="85" width="86" y="-23.712" x="-170.86"/>
  <rect id="rect3745-1" style="opacity:.9;filter:url(#filter3174-7);display:none;fill:url(#linearGradient8374)" rx="6" ry="6" height="85" width="86" y="-17.643" x="113.29"/>
  <g id="layer2" style="display:none" transform="translate(-111.44 -124.36)">
   <rect id="rect3745-9" style="opacity:.9;filter:url(#filter3174-41);fill:url(#ButtonShadow-6)" rx="6" ry="6" height="85" width="86" y="7" x="5"/>
  </g>
  <g id="layer2-7" style="display:none" transform="translate(-218.05 -238.16)">
   <rect id="rect3745-2" style="opacity:.9;filter:url(#filter3174-57);fill:url(#ButtonShadow-6)" rx="6" ry="6" height="85" width="86" y="7" x="5"/>
  </g>
  <g id="layer2-1" style="display:none" transform="translate(-106.2 -48.076)">
   <path id="rect3745-24" style="opacity:.9;filter:url(#filter3174-76);fill:url(#ButtonShadow-6)" d="m11 7c-3.324 0-6 2.676-6 6v73c0 3.324 2.676 6 6 6h74c3.324 0 6-2.676 6-6v-73c0-3.324-2.676-6-6-6h-5v2.5c1.4703 0.7406 2.5 2.2424 2.5 4 0 2.484-2.016 4.5-4.5 4.5s-4.5-2.016-4.5-4.5c0-1.7576 1.0297-3.2594 2.5-4v-2.5h-8v2.5c1.4703 0.7406 2.5 2.2424 2.5 4 0 2.484-2.016 4.5-4.5 4.5s-4.5-2.016-4.5-4.5c0-1.7576 1.0297-3.2594 2.5-4v-2.5h-8v2.5c1.4703 0.7406 2.5 2.2424 2.5 4 0 2.484-2.016 4.5-4.5 4.5s-4.5-2.016-4.5-4.5c0-1.7576 1.0297-3.2594 2.5-4v-2.5h-8v2.5c1.4703 0.7406 2.5 2.2424 2.5 4 0 2.484-2.016 4.5-4.5 4.5s-4.5-2.016-4.5-4.5c0-1.7576 1.0297-3.2594 2.5-4v-2.5h-8v2.5c1.4703 0.7406 2.5 2.2424 2.5 4 0 2.484-2.016 4.5-4.5 4.5s-4.5-2.016-4.5-4.5c0-1.7576 1.0297-3.2594 2.5-4v-2.5h-8v2.5c1.4703 0.7406 2.5 2.2424 2.5 4 0 2.484-2.016 4.5-4.5 4.5s-4.5-2.016-4.5-4.5c0-1.7576 1.0297-3.2594 2.5-4v-2.5h-5z"/>
  </g>
  <g id="layer2-0" style="display:none" transform="translate(28.835 -121.51)">
   <rect id="rect3745-5" style="opacity:.9;filter:url(#filter3174-3);fill:url(#ButtonShadow-6)" rx="6" ry="6" height="85" width="86" y="7" x="5"/>
  </g>
  <rect id="rect3745-19" style="opacity:.9;filter:url(#filter3174-65);display:none;fill:url(#linearGradient10968)" rx="6" ry="6" height="85" width="86" y="-57.071" x="93.061"/>
  <rect id="rect810-4-0" style="stroke:url(#linearGradient11086);fill:url(#linearGradient11061)" transform="scale(1,-1)" ry="10.607" height="39.403" width="43.796" y="-43.987" x="2.43"/>
  <rect id="rect810-4" style="stroke:url(#linearGradient11134);fill:url(#linearGradient11027)" transform="scale(1,-1)" ry="10.607" height="39.403" width="43.796" y="-41.159" x="2.4769"/>
  <rect id="rect810-4-8" style="stroke:url(#linearGradient11150);fill:url(#linearGradient11109)" transform="scale(1,-1)" ry="10.607" height="36.373" width="44.099" y="-37.62" x="2.4466"/>
  <rect id="rect3745-51" style="opacity:.9;filter:url(#filter3174-34);display:none;fill:url(#linearGradient4603)" rx="6" ry="6" height="85" width="86" y="64.897" x="-20.979"/>
  <g id="layer2-3" style="display:none" transform="translate(-13.859 48.458)">
   <rect id="rect3745-7" style="opacity:.9;filter:url(#filter3174-2);fill:url(#ButtonShadow-6)" rx="6" ry="6" height="85" width="86" y="7" x="5"/>
  </g>
  <g id="layer2-75" style="display:none" transform="translate(-10.286 84.214)">
   <rect id="rect3745-20" style="opacity:.9;filter:url(#filter3174-1);fill:url(#ButtonShadow-6)" rx="6" ry="6" height="85" width="86" y="7" x="5"/>
  </g>
  <g id="layer5-3" style="display:none" transform="translate(-10.286 84.214)">
   <rect id="rect3323" style="opacity:.6;filter:url(#filter4180-8);display:inline;fill:#06f" rx="6.7435" ry="6" height="6" width="74.179" y="80" x="10.911"/>
   <rect id="rect3311" style="fill:url(#radialGradient4138-7);display:inline" rx="5.8182" ry="4" height="4" width="64" y="81" x="16"/>
  </g>
  <g id="layer2-37" style="display:none" transform="translate(22.857 122.64)">
   <rect id="rect3745-6" style="opacity:.9;filter:url(#filter3174-10);fill:url(#ButtonShadow-6)" rx="6" ry="6" height="85" width="86" y="7" x="5"/>
  </g>
  <g id="layer5-2" style="display:none" transform="translate(22.857 122.64)">
   <rect id="rect3323-7" style="opacity:.6;filter:url(#filter4180-5);display:inline;fill:#06f" rx="6.7435" ry="6" height="6" width="74.179" y="80" x="10.911"/>
   <rect id="rect3311-0" style="fill:url(#radialGradient4138-7);display:inline" rx="5.8182" ry="4" height="4" width="64" y="81" x="16"/>
  </g>
  <g id="layer2-17" style="display:none" transform="translate(15.342 112.14)">
   <rect id="rect3745-4" style="opacity:.9;filter:url(#filter3174-93);fill:url(#ButtonShadow-6)" rx="6" ry="6" height="85" width="86" y="7" x="5"/>
  </g>
  <g id="layer2-19" style="display:none" transform="translate(119.69 80.928)">
   <rect id="rect3745-72" style="opacity:.9;filter:url(#filter3174-19);fill:url(#ButtonShadow-6)" rx="6" ry="6" height="85" width="86" y="7" x="5"/>
  </g>
  <g id="layer5-4" style="display:none" transform="translate(119.69 80.928)">
   <rect id="rect3323-5" style="opacity:.6;filter:url(#filter4180-7);display:inline;fill:#06f" rx="6.7435" ry="6" height="6" width="74.179" y="80" x="10.911"/>
   <rect id="rect3311-1" style="fill:url(#radialGradient4138-7);display:inline" rx="5.8182" ry="4" height="4" width="64" y="81" x="16"/>
  </g>
  <g id="layer2-4" style="display:none" transform="translate(194.03 83.353)">
   <rect id="rect3745-3" style="opacity:.9;filter:url(#filter3174-31);fill:url(#linearGradient12520)" rx="6" ry="6" height="85" width="86" y="7" x="5"/>
  </g>
  <g id="layer5-02" style="display:none" transform="translate(194.03 83.353)">
   <g id="g3836" style="display:inline" transform="matrix(.70718 0 0 .70718 23.398 -22.712)">
    <path id="path3185" style="opacity:.6;fill-rule:evenodd;filter:url(#filter3222);display:inline;fill:url(#linearGradient13399)" transform="matrix(.74180 0 0 .75620 -146.02 35.217)" d="m272.33-0.94868c-33.672 0-61 27.104-61 60.5s27.328 60.5 61 60.5 61-27.104 61-60.5-27.328-60.5-61-60.5zm0 40c11.316-0.000001 20.5 9.184 20.5 20.5s-9.184 20.5-20.5 20.5-20.5-9.184-20.5-20.5 9.184-20.5 20.5-20.5z"/>
    <path id="path3307" style="opacity:.3;fill:#fff;display:inline;fill-rule:evenodd" d="m56 58.416c-11.216 0-20.321 9.105-20.321 20.321s9.105 20.321 20.321 20.321 20.321-9.105 20.321-20.321-9.105-20.321-20.321-20.321zm0 14.355c3.293 0 5.9657 2.6726 5.9657 5.9657 0 3.293-2.6726 5.9657-5.9657 5.9657-3.293 0-5.9657-2.6726-5.9657-5.9657 0-3.293 2.6726-5.9657 5.9657-5.9657z"/>
    <path id="path3328" style="opacity:.5;fill-rule:evenodd;stroke:url(#linearGradient2926);stroke-linecap:round;stroke-width:3.4273;display:inline;fill:url(#radialGradient2924)" transform="matrix(0 .37644 -.45222 0 84.002 56.19)" d="m92.58 61.922a32.686 27.208 0 1 1 -65.371 0 32.686 27.208 0 1 1 65.371 0z"/>
    <path id="path3352" style="opacity:.6;stroke:url(#linearGradient2928);stroke-linecap:round;stroke-width:7.54;display:inline;fill:none" transform="matrix(0 .17111 -.20555 0 68.728 68.488)" d="m92.58 61.922a32.686 27.208 0 1 1 -65.371 0 32.686 27.208 0 1 1 65.371 0z"/>
    <path id="path3170" style="fill:url(#linearGradient13393);display:inline;fill-rule:evenodd" d="m56 34.74c-24.286 0-43.997 19.711-43.997 43.997s19.711 43.997 43.997 43.997 43.997-19.711 43.997-43.997-19.711-43.997-43.997-43.997zm0 28.337c8.6442-0.000001 15.66 7.0156 15.66 15.66 0 8.6442-7.0156 15.66-15.66 15.66-8.6442-0.000002-15.66-7.0156-15.66-15.66 0-8.6442 7.0156-15.66 15.66-15.66z"/>
    <path id="path3230" style="opacity:.6;fill:url(#linearGradient13390);display:inline;fill-rule:evenodd" d="m87.11 47.89c-17.173-17.173-45.048-17.173-62.221 0s-17.173 45.048-0.000001 62.221 45.048 17.173 62.221 0 17.173-45.048 0-62.221zm-20.037 20.037c6.1124 6.1124 6.1124 16.034-0.000007 22.146-6.1124 6.1124-16.034 6.1124-22.146 0-6.1124-6.1124-6.1124-16.034 0-22.146 6.1124-6.1124 16.034-6.1124 22.146 0.000001z"/>
    <path id="path3259" style="opacity:.6;fill:url(#linearGradient13387);display:inline;fill-rule:evenodd" d="m93.643 101.78c12.567-20.783 5.912-47.85-14.867-60.423-20.779-12.572-47.846-5.912-60.419 14.867-12.572 20.779-5.912 47.846 14.867 60.416 20.779 12.58 47.846 5.91 60.419-14.86zm-24.245-14.673c-4.4749 7.3958-14.109 9.7664-21.505 5.2916-7.3958-4.4749-9.7664-14.109-5.2916-21.505 4.4749-7.3958 14.109-9.7664 21.505-5.2916 7.3958 4.4749 9.7664 14.109 5.2915 21.505z"/>
    <path id="path3231" style="opacity:.6;fill:url(#linearGradient13384);display:inline;fill-rule:evenodd" d="m77.212 117.55c21.277-11.71 29.038-38.484 17.334-59.762-11.709-21.277-38.48-29.043-59.758-17.334-21.277 11.709-29.043 38.48-17.334 59.756 11.709 21.277 38.48 29.043 59.757 17.334zm-13.662-24.83c-7.573 4.167-17.102 1.403-21.27-6.17-4.167-7.573-1.403-17.102 6.17-21.27 7.5733-4.1675 17.102-1.4034 21.27 6.1698 4.1675 7.5733 1.4034 17.102-6.1699 21.27z"/>
    <path id="path3243" style="fill:url(#linearGradient3908);display:inline;fill-rule:evenodd" d="m87.11 110.11c17.173-17.173 17.173-45.048 0-62.221s-45.048-17.173-62.221 0-17.173 45.048-0.000001 62.221 45.048 17.173 62.221 0.00001zm-20.037-20.037c-6.1124 6.1124-16.034 6.1124-22.146-0.000003-6.1124-6.1124-6.1124-16.034 0.000002-22.146 6.1124-6.1124 16.034-6.1124 22.146 0 6.1124 6.1124 6.1124 16.034 0 22.146z"/>
    <path id="path3304" style="opacity:.15;stroke:#000;stroke-linecap:round;stroke-width:9.0479;display:inline;fill:none" transform="matrix(.57037 0 0 .68518 21.839 36.309)" d="m92.58 61.922a32.686 27.208 0 1 1 -65.371 0 32.686 27.208 0 1 1 65.371 0z"/>
    <path id="path13401" style="opacity:.8;fill:url(#linearGradient13921);display:inline;fill-rule:evenodd" d="m56 34.75c-24.286-0.000001-44 19.714-44 44 0 21.988 16.168 40.214 37.25 43.469-20.527-3.25-36.25-21.07-36.25-42.501 0-23.736 19.264-43 43-43s43 19.264 43 43c0 21.435-15.723 39.253-36.25 42.5 21.082-3.26 37.25-21.48 37.25-43.47-0.000003-24.286-19.714-44-44-44zm-14.312 50.312c2.1695 5.8155 7.7437 9.9687 14.312 9.9688 6.5688 0 12.143-4.1532 14.312-9.9688-2.4327 5.4945-7.9201 9.3438-14.312 9.3438-6.3924 0-11.88-3.8492-14.312-9.3438z"/>
   </g>
  </g>
  <g id="layer2-8" style="display:none" transform="translate(8.4129 68.678)">
   <rect id="rect3745-62" style="opacity:.9;filter:url(#filter3174-75);fill:url(#ButtonShadow-6)" rx="6" ry="6" height="85" width="86" y="7" x="5"/>
  </g>
  <g id="layer2-15" style="display:none" transform="translate(234.56 .78719)">
   <rect id="rect3745-61" style="opacity:.9;filter:url(#filter3174-0);fill:url(#ButtonShadow-6)" rx="6" ry="6" height="85" width="86" y="7" x="5"/>
  </g>
  <path id="path4090" d="m24.518 6.4915c-6.7359 0-12.196 5.1508-12.196 11.505h-2.2175l1.9403 3.1376 1.9403 3.1376 1.9403-3.1376 1.9403-3.1376h-2.2175c0-4.621 3.9713-8.3671 8.8701-8.3671s8.8701 3.7461 8.8701 8.3671-3.9713 8.3671-8.8701 8.3671c-1.6179 0-3.1291-0.41382-4.4351-1.1276l-1.6631 2.7291c1.7931 0.97758 3.8783 1.5361 6.0982 1.5361 6.7359 0 12.196-5.1508 12.196-11.505 0-6.3539-5.4605-11.505-12.196-11.505zm0 4.1835c-0.61426 0-1.1088 0.46646-1.1088 1.0459v5.9321c-0.1101 0.27942-0.04937 0.62191 0.17324 0.91515 0.04274 0.06256 0.10039 0.11104 0.15592 0.16342l3.9153 3.7096c0.43434 0.40971 1.0677 0.46362 1.4206 0.13074l0.29452-0.27781c0.3529-0.33289 0.29575-0.93033-0.1386-1.34l-3.6035-3.3828v-5.8504c0-0.57942-0.49451-1.0459-1.1088-1.0459z" style="opacity:.7;color:#000000;fill:url(#linearGradient14272)"/>
  <path id="path4017" d="m24.518 6.4915c-6.7359 0-12.196 5.1508-12.196 11.505h-2.2175l1.9403 3.1458 1.9403 3.1278 1.9403-3.1278 1.9403-3.1458h-2.2175c0-4.621 3.9713-8.3589 8.8701-8.3589s8.8701 3.7379 8.8701 8.3589-3.9713 8.3589-8.8701 8.3589c-1.6179 0-3.1291-0.40075-4.4351-1.1145l-1.6631 2.7324c1.7931 0.97758 3.8783 1.528 6.0982 1.528 6.7359 0 12.196-5.1508 12.196-11.505 0-6.3539-5.4605-11.505-12.196-11.505zm0 0.57523c6.4604 0 11.642 4.9215 11.642 10.929 0 6.008-5.1816 10.929-11.642 10.929-1.9083 0-3.6822-0.48156-5.2666-1.2404l1.0568-1.7437c1.2776 0.61087 2.6871 0.98868 4.2098 0.98868 5.1737 0 9.4245-3.9672 9.4245-8.9341s-4.2508-8.9341-9.4245-8.9341-9.4245 3.9672-9.4245 8.9341a0.56077 0.58187 0 0 0 0.55438 0.57524h1.2127l-1.4033 2.247v0.01797l-1.4726 2.3549-1.4726-2.3549v-0.01797l-1.4033-2.247h1.2127a0.56077 0.58187 0 0 0 0.55438 -0.57524c0-6.008 5.1816-10.929 11.642-10.929zm0 3.6132c-0.61426 0-1.1088 0.4632-1.1088 1.0426v5.9321c-0.1101 0.27942-0.04937 0.62355 0.17324 0.91678 0.04274 0.06256 0.10039 0.10941 0.15592 0.16178l3.9153 3.7031c0.43434 0.40971 1.0677 0.4767 1.4206 0.14381l0.29452-0.28762c0.3529-0.33289 0.29575-0.92052-0.1386-1.3302l-3.6035-3.3975v-5.8422c0-0.57942-0.49451-1.0426-1.1088-1.0426zm0 0.57524c0.34259 0 0.55438 0.23144 0.55438 0.46738v5.8422a0.56077 0.58187 0 0 0 0.17324 0.43143l3.6035 3.3975c0.1275 0.12027 0.18252 0.24468 0.19057 0.32357 0.008 0.07889-0.0082 0.1025-0.05197 0.14381l-0.29452 0.28762c-0.07812 0.07369-0.40223 0.09777-0.65833-0.14381l-3.9153-3.7031c-0.07532-0.07105-0.10507-0.09891-0.08662-0.07191a0.56077 0.58187 0 0 0 -0.01732 -0.01797c-0.121-0.158-0.108-0.284-0.086-0.34a0.56077 0.58187 0 0 0 0.03465 -0.21571v-5.9321c0-0.23594 0.21179-0.46738 0.55438-0.46738z" style="opacity:.05;color:#000000"/>
  <path id="path3995" style="opacity:.8;color:#000000;filter:url(#filter4001-3-6);fill:#fff" d="m48 18.938c-12.279 0-22.315 8.8302-22.938 20h-3.0625a1.0685 1.0685 0 0 0 -0.90625 1.625l3.5 5.4688a1.0685 1.0685 0 0 0 0 0.03125l3.5 5.4375a1.0685 1.0685 0 0 0 1.8125 0l3.5-5.4375a1.0685 1.0685 0 0 0 0 -0.03125l3.5-5.4688a1.0685 1.0685 0 0 0 -0.906 -1.624h-2.8125c0.58156-6.5692 6.3388-11.826 13.719-12.312-1.0846 0.42941-1.9688 1.2454-1.9688 2.4688v10.312h0.03125c-0.16313 0.77238-0.02043 1.5803 0.46875 2.2188 0.0086 0.0112 0.02251 0.02016 0.03125 0.03125 0.1773 0.23428 0.34827 0.35354 0.40625 0.40625l7.063 6.437c1.1231 1.021 2.8399 1.3047 4 0.25l0.53125-0.5c0.57106-0.51914 0.82542-1.2879 0.75-2-0.07542-0.71211-0.43741-1.3636-1-1.875l-6.1562-5.5938v-9.6875c0-1.2233-0.88416-2.0393-1.9688-2.4688 7.7827 0.5129 13.844 6.3104 13.844 13.375 0 7.3981-6.6247 13.469-14.938 13.469-2.7484 0-5.2992-0.65322-7.5-1.8125a1.0685 1.0685 0 0 0 -1.4062 0.375l-3 4.75a1.0685 1.0685 0 0 0 0.40625 1.5c3.39 1.782 7.326 2.781 11.5 2.781 12.675 0 23.062-9.381 23.062-21.062s-10.387-21.062-23.062-21.062z" clip-path="url(#clipPath3997-2-8)" transform="matrix(.55438 0 0 .57524 -2.0926 -5.0132)"/>
  <path id="path3973" d="m24.518 6.4915c-6.7359 0-12.196 5.1508-12.196 11.505h-2.2175l0.34649 0.57524h1.871c0-6.3539 5.4605-11.505 12.196-11.505 6.6339 0 12.035 4.9962 12.196 11.217 0.0025-0.09562 0-0.19144 0-0.28762 0-6.3539-5.4605-11.505-12.196-11.505zm0 4.1884c-0.61426 0-1.1088 0.4632-1.1088 1.0426v0.57524c0-0.57942 0.49451-1.0426 1.1088-1.0426 0.61426 0 1.1088 0.46319 1.1088 1.0426v-0.57524c0-0.57942-0.49451-1.0426-1.1088-1.0426zm1.1088 6.8848v0.57524l3.6035 3.3975c0.1582 0.14923 0.27263 0.30817 0.32916 0.48536 0.12129-0.33002 0.0016-0.74856-0.32916-1.0606l-3.6035-3.3975zm-2.2175 0.08988c-0.06785 0.17218-0.0598 0.36346 0 0.55726v-0.55726zm-7.7267 0.34154c-0.01357 0.1893-0.03465 0.38269-0.03465 0.57524h1.871l0.34649-0.57524h-2.1829zm17.688 0.28762c-0.16073 4.4878-4.056 8.0713-8.8528 8.0713-1.6179 0-3.1291-0.40075-4.4351-1.1145l-1.6631 2.7324c0.08835 0.04817 0.18744 0.07972 0.27719 0.12583l1.386-2.283c1.3059 0.71377 2.8172 1.1145 4.4351 1.1145 4.8988 0 8.8701-3.7379 8.8701-8.3589 0-0.09627-0.0139-0.19213-0.01732-0.28762z" style="opacity:.2;color:#000000"/>
  <path id="path4017-4" d="m24.592 6.407c-6.7359 0-12.196 5.1508-12.196 11.505h-2.2175l1.9403 3.1458 1.9403 3.1278 1.9403-3.1278 1.9403-3.1458h-2.2175c0-4.621 3.9713-8.3589 8.8701-8.3589s8.8701 3.7379 8.8701 8.3589-3.9713 8.3589-8.8701 8.3589c-1.6179 0-3.1291-0.40075-4.4351-1.1145l-1.6631 2.7324c1.7931 0.97758 3.8783 1.528 6.0982 1.528 6.7359 0 12.196-5.1508 12.196-11.505 0-6.3539-5.4605-11.505-12.196-11.505zm0 4.1884c-0.61426 0-1.1088 0.4632-1.1088 1.0426v5.9321c-0.1101 0.27942-0.04937 0.62355 0.17324 0.91678 0.04274 0.06256 0.10039 0.10941 0.15592 0.16178l3.9153 3.7031c0.43434 0.40971 1.0677 0.4767 1.4206 0.14381l0.29452-0.28762c0.3529-0.33289 0.29575-0.92052-0.1386-1.3302l-3.6035-3.3975v-5.8422c0-0.57942-0.49451-1.0426-1.1088-1.0426z" style="fill-opacity:.48529;color:#000000;fill:#800000"/>
 </g>
</svg>
