<?xml version="1.0" encoding="UTF-8" standalone="no"?>
<!-- Created with Inkscape (http://www.inkscape.org/) -->
<svg id="svg3449" xmlns:rdf="http://www.w3.org/1999/02/22-rdf-syntax-ns#" xmlns="http://www.w3.org/2000/svg" height="128" width="128" version="1.0" xmlns:cc="http://creativecommons.org/ns#" xmlns:xlink="http://www.w3.org/1999/xlink" xmlns:dc="http://purl.org/dc/elements/1.1/">
 <metadata id="metadata56">
  <rdf:RDF>
   <cc:Work rdf:about="">
    <dc:format>image/svg+xml</dc:format>
    <dc:type rdf:resource="http://purl.org/dc/dcmitype/StillImage"/>
    <dc:title/>
   </cc:Work>
  </rdf:RDF>
 </metadata>
 <defs id="defs3451">
  <linearGradient id="linearGradient3514" y2="-9.1034" gradientUnits="userSpaceOnUse" x2="66.492" gradientTransform="matrix(.96826 0 0 .97948 2.179 .16587)" y1="-42.638" x1="67.952">
   <stop id="stop4620" style="stop-color:#37414b" offset="0"/>
   <stop id="stop4622" style="stop-color:#37414b;stop-opacity:0" offset="1"/>
  </linearGradient>
  <linearGradient id="linearGradient3516" y2="-11.847" gradientUnits="userSpaceOnUse" x2="58.98" gradientTransform="matrix(.96826 0 0 .97948 2.179 .16587)" y1="-118.55" x1="57.173">
   <stop id="stop4596" offset="0"/>
   <stop id="stop4598" style="stop-opacity:0" offset="1"/>
  </linearGradient>
  <linearGradient id="linearGradient3519" y2="50.369" gradientUnits="userSpaceOnUse" x2="76.558" gradientTransform="matrix(.96826 0 0 .97948 3.2423 -129.19)" y1="13.164" x1="76.558">
   <stop id="stop3392" style="stop-color:#425e7b" offset="0"/>
   <stop id="stop3394" style="stop-color:#7a91a7" offset="1"/>
  </linearGradient>
  <linearGradient id="linearGradient3521" y2="-8.7399" gradientUnits="userSpaceOnUse" x2="60.217" gradientTransform="matrix(.96826 0 0 .97948 2.179 .16587)" y1="-123.72" x1="60.395">
   <stop id="stop3392-4-8" style="stop-color:#425e7b" offset="0"/>
   <stop id="stop3394-8-0" style="stop-color:#7a91a7" offset="1"/>
  </linearGradient>
  <radialGradient id="radialGradient3349" gradientUnits="userSpaceOnUse" cy="45.647" cx="42.148" gradientTransform="matrix(.94690 0 0 1.139 3.5954 -29.89)" r="58.984">
   <stop id="stop8006" style="stop-color:#efa975" offset="0"/>
   <stop id="stop8008" style="stop-color:#c76a29" offset="1"/>
  </radialGradient>
  <filter id="filter3174-1" color-interpolation-filters="sRGB">
   <feGaussianBlur id="feGaussianBlur3176-0" stdDeviation="1.71"/>
  </filter>
  <linearGradient id="ButtonShadow-9" x1="45.448" gradientUnits="userSpaceOnUse" y1="92.54" gradientTransform="scale(1.0059 .99417)" x2="45.448" y2="7.0165">
   <stop id="stop3750-6" offset="0"/>
   <stop id="stop3752-7" style="stop-opacity:.58824" offset="1"/>
  </linearGradient>
  <filter id="filter3174-9" color-interpolation-filters="sRGB">
   <feGaussianBlur id="feGaussianBlur3176-5" stdDeviation="1.71"/>
  </filter>
 </defs>
 <rect id="rect892-2-7-2" ry="29.452" style="stroke:#d3d3d3;stroke-width:9.8448;fill:#37414b" transform="scale(1,-1)" height="116.16" width="116.08" y="-122.08" x="5.9224"/>
 <rect id="rect892" style="stroke:url(#linearGradient3521);stroke-width:.97385;fill:url(#linearGradient3519)" transform="scale(1,-1)" ry="29.296" height="115.54" width="114.22" y="-122.25" x="7.0394"/>
 <rect id="rect892-2" style="stroke:url(#linearGradient3516);stroke-width:.97385;fill:url(#linearGradient3514)" transform="scale(1,-1)" ry="28.993" height="114.35" width="114.22" y="-121.46" x="7.0599"/>
 <path id="rect895" style="fill:url(#radialGradient3349)" d="m30.571 7.0104c-13.128 0.936-22.55 15.04-23.173 23.288-0.050142 0.97378-0.088772 1.9648-0.088772 2.9572v58.419c0 15.229 11.191 27.859 22.318 27.859h67.038c15.69 0 24.318-16.445 24.318-25.859v-64.017c-0.21-5.933-12.29-21.682-25.926-22.618-47.846 0.8653-20.497-0.0256-64.483-0.0256z"/>
 <rect id="rect892-2-7-8" style="opacity:.15891;stroke:#000;stroke-width:4.8445;fill:none" transform="scale(1,-1)" ry="28.993" height="114.35" width="114.22" y="-121.16" x="6.8683"/>
 <rect id="rect892-2-7-1" style="opacity:.15891;stroke:#000;stroke-width:7.7512;fill:none" transform="scale(1,-1)" ry="28.993" height="114.35" width="114.22" y="-121.16" x="6.8686"/>
 <rect id="rect892-2-7-2-9" ry="28.067" style="stroke:#000;stroke-width:1.0489;fill:none" transform="scale(1,-1)" height="112.71" width="114.14" y="-120.31" x="7.0644"/>
 <path id="path1187" style="fill:#fff;fill-opacity:.057143" d="m37.509 10.721c-14.891-4.3296-32.78 19.454-27.93 26.295-0.04334 0.71563-0.07674 1.4439-0.07674 2.1732v10.76c25.898-25.61 66.753-35.478 90.374-39.178-0.22473-0.02628-0.45986-0.03062-0.69067-0.03062-41.576 0.38742-23.653-0.01876-61.677-0.01875z"/>
 <g id="layer2" style="display:none" transform="translate(187.88 23.742)">
  <rect id="rect3745" style="opacity:.9;filter:url(#filter3174-1);fill:url(#ButtonShadow-9)" rx="6" ry="6" height="85" width="86" y="7" x="5"/>
 </g>
 <g id="layer2-2" style="display:none" transform="matrix(1.2166 0 0 1.2299 5.6049 3.1187)">
  <rect id="rect3745-5" style="opacity:.9;filter:url(#filter3174-9);fill:url(#ButtonShadow-9)" rx="6" ry="6" height="85" width="86" y="7" x="5"/>
 </g>
 <g id="layer1-5" transform="matrix(2.5636 0 0 2.5636 2.4744 -2572.3)">
  <g id="g845" transform="translate(-2.5943 -.85579)">
   <path id="path812" style="fill:#fff" d="m13.078 1031.2c-0.02285 0.2893-0.0625 0.5798-0.0625 0.875 0 6.067 4.9329 11 11 11s10.969-4.933 10.969-11c0-0.2952-0.03965-0.5857-0.0625-0.875h-21.844z"/>
   <rect id="rect818" style="fill:#fff" height="1.1364" width="13.637" y="1042.6" x="17.181"/>
   <path id="path820" style="fill:#fff" d="m36.185 1029.5c-2.198 0-3.9879 1.7899-3.9879 3.9879 0 2.1981 1.7899 3.988 3.9879 3.988s3.9879-1.7899 3.9879-3.988c0-2.198-1.7899-3.9879-3.9879-3.9879zm0 0.5526c1.9032 0 3.4354 1.5322 3.4354 3.4353 0 1.9032-1.5322 3.4355-3.4354 3.4355s-3.4354-1.5323-3.4354-3.4355c0-1.9031 1.5322-3.4353 3.4354-3.4353z"/>
   <g id="text830" style="fill:#fff" transform="matrix(0 -.59782 .59782 0 16.121 1043)">
    <path id="path835" d="m40.632 4.0035q-0.08 2.2-1.28 3.6-1.2 1.36-3.36 1.36-1.4 0-2.32-0.56-0.88-0.56-1.64-1.24-0.76-0.72-1.48-1.28t-1.72-0.56q-1.64 0-2.44 0.92t-0.84 2.32l-1.56-0.04q0-2.12 1.16-3.56t3.44-1.44q1.44 0 2.4 0.64 0.96 0.6 1.64 1.24 0.92 0.92 1.6 1.44 0.72 0.48 1.84 0.48 1.52 0 2.2-1 0.72-1 0.8-2.36l1.56 0.04z"/>
   </g>
   <g id="g837" style="fill:#fff" transform="matrix(0 -.59782 .59782 0 19.896 1043)">
    <path id="path839" d="m47.391 4.0035q-0.1125 2.2-1.7999 3.6-1.6874 1.36-4.7248 1.36-1.9687 0-3.2623-0.56-1.2374-0.56-2.3061-1.24-1.0687-0.72-2.0812-1.28t-2.4186-0.56q-2.3061 0-3.4311 0.92-1.1249 0.92-1.1812 2.32l-2.1936-0.04q0-2.12 1.6312-3.56t4.8373-1.44q2.0249 0 3.3748 0.64 1.3499 0.6 2.3061 1.24 1.2937 0.92 2.2499 1.44 1.0125 0.48 2.5874 0.48 2.1374 0 3.0936-1 1.0125-1 1.1249-2.36l2.1936 0.04z"/>
   </g>
   <g id="g841" style="fill:#fff" transform="matrix(0 -.59782 .59782 0 23.821 1043)">
    <path id="path843" d="m40.632 4.0035q-0.08 2.2-1.28 3.6-1.2 1.36-3.36 1.36-1.4 0-2.32-0.56-0.88-0.56-1.64-1.24-0.76-0.72-1.48-1.28t-1.72-0.56q-1.64 0-2.44 0.92t-0.84 2.32l-1.56-0.04q0-2.12 1.16-3.56t3.44-1.44q1.44 0 2.4 0.64 0.96 0.6 1.64 1.24 0.92 0.92 1.6 1.44 0.72 0.48 1.84 0.48 1.52 0 2.2-1 0.72-1 0.8-2.36l1.56 0.04z"/>
   </g>
  </g>
 </g>
</svg>
