<?xml version="1.0" encoding="UTF-8" standalone="no"?>
<!-- Created with Inkscape (http://www.inkscape.org/) -->
<svg id="svg3449" xmlns:rdf="http://www.w3.org/1999/02/22-rdf-syntax-ns#" xmlns="http://www.w3.org/2000/svg" height="128" width="128" version="1.0" xmlns:cc="http://creativecommons.org/ns#" xmlns:xlink="http://www.w3.org/1999/xlink" xmlns:dc="http://purl.org/dc/elements/1.1/">
 <metadata id="metadata56">
  <rdf:RDF>
   <cc:Work rdf:about="">
    <dc:format>image/svg+xml</dc:format>
    <dc:type rdf:resource="http://purl.org/dc/dcmitype/StillImage"/>
    <dc:title/>
   </cc:Work>
  </rdf:RDF>
 </metadata>
 <defs id="defs3451">
  <linearGradient id="linearGradient3514" y2="-9.1034" gradientUnits="userSpaceOnUse" x2="66.492" gradientTransform="matrix(.96826 0 0 .97948 2.179 .16587)" y1="-42.638" x1="67.952">
   <stop id="stop4620" style="stop-color:#37414b" offset="0"/>
   <stop id="stop4622" style="stop-color:#37414b;stop-opacity:0" offset="1"/>
  </linearGradient>
  <linearGradient id="linearGradient3516" y2="-11.847" gradientUnits="userSpaceOnUse" x2="58.98" gradientTransform="matrix(.96826 0 0 .97948 2.179 .16587)" y1="-118.55" x1="57.173">
   <stop id="stop4596" offset="0"/>
   <stop id="stop4598" style="stop-opacity:0" offset="1"/>
  </linearGradient>
  <linearGradient id="linearGradient3519" y2="50.369" gradientUnits="userSpaceOnUse" x2="76.558" gradientTransform="matrix(.96826 0 0 .97948 3.2423 -129.19)" y1="13.164" x1="76.558">
   <stop id="stop3392" style="stop-color:#425e7b" offset="0"/>
   <stop id="stop3394" style="stop-color:#7a91a7" offset="1"/>
  </linearGradient>
  <linearGradient id="linearGradient3521" y2="-8.7399" gradientUnits="userSpaceOnUse" x2="60.217" gradientTransform="matrix(.96826 0 0 .97948 2.179 .16587)" y1="-123.72" x1="60.395">
   <stop id="stop3392-4-8" style="stop-color:#425e7b" offset="0"/>
   <stop id="stop3394-8-0" style="stop-color:#7a91a7" offset="1"/>
  </linearGradient>
  <radialGradient id="radialGradient3349" gradientUnits="userSpaceOnUse" cy="45.647" cx="42.148" gradientTransform="matrix(.94690 0 0 1.139 3.5954 -29.89)" r="58.984">
   <stop id="stop7563" style="stop-color:#ff4141" offset="0"/>
   <stop id="stop7565" style="stop-color:#9c0000" offset="1"/>
  </radialGradient>
  <filter id="filter3174-5" color-interpolation-filters="sRGB">
   <feGaussianBlur id="feGaussianBlur3176-4" stdDeviation="1.71"/>
  </filter>
  <linearGradient id="ButtonShadow-4" x1="45.448" gradientUnits="userSpaceOnUse" y1="92.54" gradientTransform="scale(1.0059 .99417)" x2="45.448" y2="7.0165">
   <stop id="stop3750-3" offset="0"/>
   <stop id="stop3752-57" style="stop-opacity:.58824" offset="1"/>
  </linearGradient>
  <filter id="filter3174-0" color-interpolation-filters="sRGB">
   <feGaussianBlur id="feGaussianBlur3176-9" stdDeviation="1.71"/>
  </filter>
  <filter id="filter3174-7" color-interpolation-filters="sRGB">
   <feGaussianBlur id="feGaussianBlur3176-7" stdDeviation="1.71"/>
  </filter>
  <clipPath id="clipPath3613-9">
   <rect id="rect3615-2" style="fill:#fff" rx="6" ry="6" height="84" width="84" y="6" x="6"/>
  </clipPath>
  <linearGradient id="linearGradient3613-3" x1="48" gradientUnits="userSpaceOnUse" y1="20.221" x2="48" y2="138.66">
   <stop id="stop3739-03" style="stop-color:#fff" offset="0"/>
   <stop id="stop3741-5" style="stop-color:#fff;stop-opacity:0" offset="1"/>
  </linearGradient>
  <filter id="filter3794-30" height="1.384" width="1.384" color-interpolation-filters="sRGB" y="-.192" x="-.192">
   <feGaussianBlur id="feGaussianBlur3796-38" stdDeviation="5.28"/>
  </filter>
  <filter id="filter3174-8" color-interpolation-filters="sRGB">
   <feGaussianBlur id="feGaussianBlur3176-3" stdDeviation="1.71"/>
  </filter>
  <clipPath id="clipPath3613-26">
   <rect id="rect3615-4" style="fill:#fff" rx="6" ry="6" height="84" width="84" y="6" x="6"/>
  </clipPath>
  <filter id="filter3794-67" height="1.384" width="1.384" color-interpolation-filters="sRGB" y="-.192" x="-.192">
   <feGaussianBlur id="feGaussianBlur3796-4" stdDeviation="5.28"/>
  </filter>
  <filter id="filter3174-4" color-interpolation-filters="sRGB">
   <feGaussianBlur id="feGaussianBlur3176-0" stdDeviation="1.71"/>
  </filter>
  <filter id="filter3174-1" color-interpolation-filters="sRGB">
   <feGaussianBlur id="feGaussianBlur3176-1" stdDeviation="1.71"/>
  </filter>
  <linearGradient id="linearGradient9285" y2="7.0165" gradientUnits="userSpaceOnUse" x2="45.448" gradientTransform="matrix(1.0059 0 0 .99417 -59.657 2.8358)" y1="92.54" x1="45.448">
   <stop id="stop3750-7" offset="0"/>
   <stop id="stop3752-3" style="stop-opacity:.58824" offset="1"/>
  </linearGradient>
 </defs>
 <rect id="rect892-2-7-2" ry="29.452" style="stroke:#d3d3d3;stroke-width:9.8448;fill:#37414b" transform="scale(1,-1)" height="116.16" width="116.08" y="-122.08" x="5.9224"/>
 <rect id="rect892" style="stroke:url(#linearGradient3521);stroke-width:.97385;fill:url(#linearGradient3519)" transform="scale(1,-1)" ry="29.296" height="115.54" width="114.22" y="-122.25" x="7.0394"/>
 <rect id="rect892-2" style="stroke:url(#linearGradient3516);stroke-width:.97385;fill:url(#linearGradient3514)" transform="scale(1,-1)" ry="28.993" height="114.35" width="114.22" y="-121.46" x="7.0599"/>
 <path id="rect895" style="fill:url(#radialGradient3349)" d="m30.571 7.0104c-13.128 0.936-22.55 15.04-23.173 23.288-0.050142 0.97378-0.088772 1.9648-0.088772 2.9572v58.419c0 15.229 11.191 27.859 22.318 27.859h67.038c15.69 0 24.318-16.445 24.318-25.859v-64.017c-0.21-5.933-12.29-21.682-25.926-22.618-47.846 0.8653-20.497-0.0256-64.483-0.0256z"/>
 <rect id="rect892-2-7-8" style="opacity:.15891;stroke:#000;stroke-width:4.8445;fill:none" transform="scale(1,-1)" ry="28.993" height="114.35" width="114.22" y="-121.16" x="6.8683"/>
 <rect id="rect892-2-7-1" style="opacity:.15891;stroke:#000;stroke-width:7.7512;fill:none" transform="scale(1,-1)" ry="28.993" height="114.35" width="114.22" y="-121.16" x="6.8686"/>
 <rect id="rect892-2-7-2-9" ry="28.067" style="stroke:#000;stroke-width:1.0489;fill:none" transform="scale(1,-1)" height="112.71" width="114.14" y="-120.31" x="7.0644"/>
 <path id="path1187" style="fill:#fff;fill-opacity:.057143" d="m32.415 6.0906c-14.891-4.3298-32.779 19.454-27.93 26.295-0.04334 0.71563-0.07674 1.4439-0.07674 2.1732v10.76c25.899-25.61 66.753-35.479 90.375-39.179-0.22473-0.02628-0.45986-0.03062-0.69067-0.03062-41.576 0.38742-23.653-0.01876-61.677-0.01875z"/>
 <g id="layer2" style="display:none" transform="translate(137.63 15.959)">
  <rect id="rect3745" style="opacity:.9;filter:url(#filter3174-5);fill:url(#ButtonShadow-4)" rx="6" ry="6" height="85" width="86" y="7" x="5"/>
 </g>
 <g id="layer2-3" style="display:none" transform="translate(146.29 14.997)">
  <rect id="rect3745-4" style="opacity:.9;filter:url(#filter3174-0);fill:url(#ButtonShadow-4)" rx="6" ry="6" height="85" width="86" y="7" x="5"/>
 </g>
 <g id="layer2-4" style="display:none" transform="translate(176.76 -8.736)">
  <rect id="rect3745-7" style="opacity:.9;filter:url(#filter3174-7);fill:url(#ButtonShadow-4)" rx="6" ry="6" height="85" width="86" y="7" x="5"/>
 </g>
 <g id="layer2-2" style="display:none" transform="translate(143.15 5.055)">
  <rect id="rect3745-9" style="opacity:.9;filter:url(#filter3174-8);fill:url(#ButtonShadow-4)" rx="6" ry="6" height="85" width="86" y="7" x="5"/>
 </g>
 <g id="layer5-4" style="display:none" transform="translate(143.15 5.055)">
  <rect id="rect3171-7" style="opacity:.3;filter:url(#filter3794-30);stroke:#fff;stroke-linecap:round;stroke-width:.5;fill:url(#linearGradient3613-3)" clip-path="url(#clipPath3613-9)" rx="12" ry="12" height="66" width="66" y="15" x="15"/>
 </g>
 <g id="layer2-1" style="display:none" transform="translate(160.47 -5.8175)">
  <rect id="rect3745-8" style="opacity:.9;filter:url(#filter3174-4);fill:url(#ButtonShadow-4)" rx="6" ry="6" height="85" width="86" y="7" x="5"/>
 </g>
 <g id="layer5-46" style="display:none" transform="translate(160.47 -5.8175)">
  <rect id="rect3171-2" style="opacity:.1;filter:url(#filter3794-67);stroke:#fff;stroke-linecap:round;stroke-width:.5;fill:url(#linearGradient3613-3)" clip-path="url(#clipPath3613-26)" rx="12" ry="12" height="66" width="66" y="15" x="15"/>
 </g>
 <rect id="rect3745-82" style="opacity:.9;filter:url(#filter3174-1);display:none;fill:url(#linearGradient9285)" rx="6" ry="6" height="85" width="86" y="9.8358" x="-54.657"/>
 <path id="path5226" style="opacity:.81304;fill:#fff" d="m59.431 105.6c-5.0959-0.91474-9.0442-2.9708-12.702-6.6144-2.0182-2.0105-3.7781-4.4203-4.642-6.356-0.23565-0.52804-3.3386-8.0316-6.8953-16.675-4.1445-10.071-6.5321-16.083-6.6485-16.741-0.48743-2.7553 1.3961-5.7119 4.1707-6.547 2.31-0.69521 5.0515 0.20984 6.3951 2.1112 0.29394 0.41598 2.4907 5.3267 4.8817 10.913l4.3473 10.156 0.084-22.597 0.084-22.597 0.55329-1.1238c0.63242-1.2846 1.5248-2.1466 2.8921-2.7939 1.2475-0.59058 3.3665-0.62144 4.5875-0.0668 0.57907 0.26302 0.82432 0.30864 0.8712 0.16207 0.0358-0.1122 0.0947-0.88469 0.13068-1.7166 0.0524-1.2127 0.15177-1.6808 0.50081-2.3606 0.57859-1.127 1.6243-2.1458 2.79-2.7182 0.84245-0.41372 1.1354-0.46674 2.5486-0.46126 1.4109 0.006 1.7011 0.0605 2.4942 0.47271 1.26 0.65491 2.2939 1.6655 2.8386 2.7747 0.44118 0.89837 0.46861 1.0922 0.52231 3.6916 0.0513 2.4818 0.0833 2.732 0.33614 2.6235 3.0829-1.324 6.5747-0.13291 8.0195 2.7356 0.48368 0.96032 0.49097 1.0169 0.54969 4.2708l0.0595 3.2976 0.8675-0.33327c1.2276-0.47161 3.074-0.4506 4.3957 0.05 1.372 0.51967 2.7499 1.8936 3.2562 3.2468l0.3684 0.98465-0.0548 21.199c-0.0542 20.955-0.0589 21.216-0.41187 22.643-1.3244 5.3542-3.9776 9.7969-7.7455 12.97-3.4028 2.8654-7.4256 4.7287-11.709 5.4235-1.9104 0.30985-5.9461 0.29733-7.7362-0.024zm8.0226-3.1086c8.5058-1.6775 15.318-8.8389 16.416-17.257 0.24115-1.8495 0.38869-40.184 0.15879-41.256-0.34128-1.5913-1.9979-2.5873-3.571-2.1468-0.85837 0.24033-1.8123 1.1526-2.0962 2.0048-0.13374 0.40141-0.19035 3.741-0.19035 11.23 0 6.9888-0.0596 10.77-0.17305 10.982-0.2636 0.49255-1.1173 0.86967-1.6859 0.74477-0.26943-0.0591-0.64209-0.30107-0.82808-0.53754-0.33347-0.42393-0.33822-0.65412-0.34095-16.5l-0.003-16.07-0.37538-0.65967c-0.81935-1.4398-2.9182-1.8733-4.2291-0.87347-1.2732 0.97111-1.1787-0.34528-1.2725 17.724l-0.084 16.191-0.47156 0.40556c-0.60272 0.51836-1.3114 0.51835-1.9141-0.00003l-0.47156-0.40559-0.084-20.91-0.084-20.91-0.4593-0.60213c-0.92116-1.2076-2.8767-1.4763-4.0777-0.56018-1.2725 0.97059-1.1676-0.8779-1.2614 22.233-0.0938 23.105 0.0227 21.164-1.2794 21.338-0.53841 0.0721-0.7347 0.0122-1.1156-0.34101l-0.46218-0.42854-0.004-16.437c-0.004-17.188-0.0302-17.879-0.72926-18.946-0.58788-0.89718-1.9047-1.4146-3.0524-1.1992-0.7221 0.13546-1.7308 0.98917-2.0383 1.7251-0.18743 0.44858-0.22707 5.1336-0.22707 26.837v26.293l-0.51711 0.43511c-0.58916 0.49575-0.97715 0.54016-1.6553 0.18948-0.55083-0.28485 0.0505 1.0406-7.1654-15.795-3.3294-7.7678-5.3538-12.286-5.6618-12.637-0.5889-0.67071-1.4373-0.96931-2.4347-0.85689-1.797 0.20255-2.9575 2.099-2.3431 3.829 0.15103 0.42526 1.9674 4.8892 4.0363 9.9199s4.8789 11.869 6.2444 15.197c1.3655 3.3278 2.7476 6.5799 3.0713 7.227 2.2087 4.4146 6.1685 7.9884 10.879 9.8187 3.8155 1.4824 7.4997 1.8023 11.552 1.0031z"/>
</svg>
