<?xml version="1.0" encoding="UTF-8" standalone="no"?>
<!-- Created with Inkscape (http://www.inkscape.org/) -->
<svg id="svg4511" xmlns:rdf="http://www.w3.org/1999/02/22-rdf-syntax-ns#" xmlns="http://www.w3.org/2000/svg" height="48px" width="48px" version="1.1" xmlns:cc="http://creativecommons.org/ns#" xmlns:xlink="http://www.w3.org/1999/xlink" xmlns:dc="http://purl.org/dc/elements/1.1/">
 <defs id="defs4513">
  <filter id="filter3174" color-interpolation-filters="sRGB">
   <feGaussianBlur id="feGaussianBlur3176" stdDeviation="1.71"/>
  </filter>
  <linearGradient id="linearGradient3254" y2="7.0165" gradientUnits="userSpaceOnUse" x2="45.448" gradientTransform="matrix(1.0059 0 0 .99417 -175.86 -30.712)" y1="92.54" x1="45.448">
   <stop id="stop3750" offset="0"/>
   <stop id="stop3752" style="stop-opacity:.58824" offset="1"/>
  </linearGradient>
  <filter id="filter3174-7" color-interpolation-filters="sRGB">
   <feGaussianBlur id="feGaussianBlur3176-58" stdDeviation="1.71"/>
  </filter>
  <linearGradient id="linearGradient8374" y2="7.0165" gradientUnits="userSpaceOnUse" x2="45.448" gradientTransform="matrix(1.0059 0 0 .99417 108.29 -24.643)" y1="92.54" x1="45.448">
   <stop id="stop3750-50" offset="0"/>
   <stop id="stop3752-42" style="stop-opacity:.58824" offset="1"/>
  </linearGradient>
  <filter id="filter3174-41" color-interpolation-filters="sRGB">
   <feGaussianBlur id="feGaussianBlur3176-9" stdDeviation="1.71"/>
  </filter>
  <linearGradient id="ButtonShadow-6" x1="45.448" gradientUnits="userSpaceOnUse" y1="92.54" gradientTransform="scale(1.0059 .99417)" x2="45.448" y2="7.0165">
   <stop id="stop3750-9" offset="0"/>
   <stop id="stop3752-33" style="stop-opacity:.58824" offset="1"/>
  </linearGradient>
  <filter id="filter3174-57" color-interpolation-filters="sRGB">
   <feGaussianBlur id="feGaussianBlur3176-42" stdDeviation="1.71"/>
  </filter>
  <filter id="filter3174-76" color-interpolation-filters="sRGB">
   <feGaussianBlur id="feGaussianBlur3176-51" stdDeviation="1.71"/>
  </filter>
  <filter id="filter3174-3" color-interpolation-filters="sRGB">
   <feGaussianBlur id="feGaussianBlur3176-47" stdDeviation="1.71"/>
  </filter>
  <filter id="filter3174-65" color-interpolation-filters="sRGB">
   <feGaussianBlur id="feGaussianBlur3176-0" stdDeviation="1.71"/>
  </filter>
  <linearGradient id="linearGradient10848" y2="-23.714" gradientUnits="userSpaceOnUse" x2="46.689" y1="-23.714" x1="2">
   <stop id="stop4329" style="stop-color:#f0f0f0" offset="0"/>
   <stop id="stop4331" style="stop-color:#b4b4b4" offset="1"/>
  </linearGradient>
  <linearGradient id="linearGradient10968" y2="7.0165" gradientUnits="userSpaceOnUse" x2="45.448" gradientTransform="matrix(1.0059 0 0 .99417 88.061 -64.071)" y1="92.54" x1="45.448">
   <stop id="stop3750-53" offset="0"/>
   <stop id="stop3752-85" style="stop-opacity:.58824" offset="1"/>
  </linearGradient>
  <linearGradient id="linearGradient4327-0">
   <stop id="stop4329-1" style="stop-color:#f0f0f0" offset="0"/>
   <stop id="stop4331-2" style="stop-color:#b4b4b4" offset="1"/>
  </linearGradient>
  <linearGradient id="linearGradient11027" y2="-23.714" xlink:href="#linearGradient4327-0" gradientUnits="userSpaceOnUse" y1="-23.714" gradientTransform="translate(.084022 .11383)" x2="46.689" x1="2"/>
  <linearGradient id="linearGradient11061" y2="-23.714" gradientUnits="userSpaceOnUse" y1="-23.714" gradientTransform="translate(.037143 -2.7143)" x2="46.689" x1="2">
   <stop id="stop4629" style="stop-color:#de7b7b" offset="0"/>
   <stop id="stop4633" style="stop-color:#721b1b" offset="1"/>
  </linearGradient>
  <linearGradient id="linearGradient11086" y2="-24.286" gradientUnits="userSpaceOnUse" x2="46.327" gradientTransform="translate(.39955)" y1="-24.286" x1="1.5305">
   <stop id="stop3226" style="stop-color:#c88080" offset="0"/>
   <stop id="stop3228" style="stop-color:#6d2e2e" offset="1"/>
  </linearGradient>
  <linearGradient id="linearGradient11134" y2="-21.458" xlink:href="#linearGradient4327-0" gradientUnits="userSpaceOnUse" x2="46.773" y1="-21.458" x1="1.9769"/>
  <linearGradient id="linearGradient11142" y2="-23.714" xlink:href="#linearGradient4327-0" gradientUnits="userSpaceOnUse" x2="46.689" y1="-23.714" x1="2"/>
  <filter id="filter3174-34" color-interpolation-filters="sRGB">
   <feGaussianBlur id="feGaussianBlur3176-01" stdDeviation="1.71"/>
  </filter>
  <linearGradient id="linearGradient4603" y2="7.0165" gradientUnits="userSpaceOnUse" x2="45.448" gradientTransform="matrix(1.0059 0 0 .99417 -25.979 57.897)" y1="92.54" x1="45.448">
   <stop id="stop3750-96" offset="0"/>
   <stop id="stop3752-39" style="stop-opacity:.58824" offset="1"/>
  </linearGradient>
  <filter id="filter3174-2" color-interpolation-filters="sRGB">
   <feGaussianBlur id="feGaussianBlur3176-44" stdDeviation="1.71"/>
  </filter>
  <filter id="filter3174-05" color-interpolation-filters="sRGB">
   <feGaussianBlur id="feGaussianBlur3176-36" stdDeviation="1.71"/>
  </filter>
  <filter id="filter3174-93" color-interpolation-filters="sRGB">
   <feGaussianBlur id="feGaussianBlur3176-84" stdDeviation="1.71"/>
  </filter>
  <linearGradient id="linearGradient15094" y2="138.66" gradientUnits="userSpaceOnUse" y1="20.221" x2="48" x1="48">
   <stop id="stop3739-0-7" style="stop-color:#fff" offset="0"/>
   <stop id="stop3741-6" style="stop-color:#fff;stop-opacity:0" offset="1"/>
  </linearGradient>
  <filter id="filter3174-41-6" color-interpolation-filters="sRGB">
   <feGaussianBlur id="feGaussianBlur3176-6" stdDeviation="1.71"/>
  </filter>
  <filter id="filter3794-6-0" height="1.384" width="1.384" color-interpolation-filters="sRGB" y="-.192" x="-.192">
   <feGaussianBlur id="feGaussianBlur3796-7-6" stdDeviation="5.28"/>
  </filter>
  <clipPath id="clipPath3613-57">
   <rect id="rect3615-6" style="fill:#fff" rx="6" ry="6" height="84" width="84" y="6" x="6"/>
  </clipPath>
  <clipPath id="clipPath2862">
   <path id="path2864" style="fill:#f0f" d="m0 0v96h96v-96h-96zm12 6h72c3.324 0 6 2.676 6 6v72c0 3.324-2.676 6-6 6h-72c-3.324 0-6-2.676-6-6v-72c0-3.324 2.676-6 6-6z"/>
  </clipPath>
  <radialGradient id="radialGradient10938" gradientUnits="userSpaceOnUse" cx="19182" cy="17598" r="16756" gradientTransform="matrix(1 0 0 1.0499 0 -877.7)">
   <stop id="stop2314" style="stop-color:#e3ebf3" offset="0"/>
   <stop id="stop2316" style="stop-color:#cedceb;stop-opacity:.39216" offset="1"/>
  </radialGradient>
  <filter id="filter3174-2-1" color-interpolation-filters="sRGB">
   <feGaussianBlur id="feGaussianBlur3176-5-1" stdDeviation="1.71"/>
  </filter>
  <filter id="filter3174-58" color-interpolation-filters="sRGB">
   <feGaussianBlur id="feGaussianBlur3176-2" stdDeviation="1.71"/>
  </filter>
  <filter id="filter3174-9-2" color-interpolation-filters="sRGB">
   <feGaussianBlur id="feGaussianBlur3176-7-0" stdDeviation="1.71"/>
  </filter>
  <filter id="filter3174-50" color-interpolation-filters="sRGB">
   <feGaussianBlur id="feGaussianBlur3176-221" stdDeviation="1.71"/>
  </filter>
  <linearGradient id="linearGradient6967" y2="48" gradientUnits="userSpaceOnUse" x2="88" gradientTransform="matrix(.70711 -.70711 .70711 .70711 -190.99 118.92)" y1="48" x1="8">
   <stop id="stop4237" style="stop-color:#fff;stop-opacity:0" offset="0"/>
   <stop id="stop4245" style="stop-color:#fff;stop-opacity:0" offset=".25"/>
   <stop id="stop4243" style="stop-color:#fff;stop-opacity:.70161" offset=".5"/>
   <stop id="stop4247" style="stop-color:#fff;stop-opacity:0" offset=".75"/>
   <stop id="stop4239" style="stop-color:#fff;stop-opacity:0" offset="1"/>
  </linearGradient>
  <linearGradient id="linearGradient6974" y2="7.0165" gradientUnits="userSpaceOnUse" x2="45.448" gradientTransform="matrix(1.0059 0 0 .99417 147.83 -84.36)" y1="92.54" x1="45.448">
   <stop id="stop3750-9-1" offset="0"/>
   <stop id="stop3752-46" style="stop-opacity:.58824" offset="1"/>
  </linearGradient>
  <linearGradient id="linearGradient6977" y2="7.0165" gradientUnits="userSpaceOnUse" x2="45.448" gradientTransform="matrix(1.0059 0 0 .99417 195.43 -36.377)" y1="92.54" x1="45.448">
   <stop id="stop3750-25" offset="0"/>
   <stop id="stop3752-40" style="stop-opacity:.58824" offset="1"/>
  </linearGradient>
  <linearGradient id="linearGradient6983" y2="7.0165" gradientUnits="userSpaceOnUse" x2="45.448" gradientTransform="matrix(1.0059 0 0 .99417 136.81 -31.941)" y1="92.54" x1="45.448">
   <stop id="stop3750-22" offset="0"/>
   <stop id="stop3752-05" style="stop-opacity:.58824" offset="1"/>
  </linearGradient>
  <linearGradient id="linearGradient7012" y2="-23.714" xlink:href="#linearGradient4327-0" gradientUnits="userSpaceOnUse" x2="46.689" gradientTransform="matrix(1.0015 0 0 .99234 .52129 .29380)" y1="-23.714" x1="2"/>
  <radialGradient id="radialGradient6525" gradientUnits="userSpaceOnUse" cy="120.43" cx="53.143" gradientTransform="matrix(1.5 0 0 1.1094 -27.714 -36.597)" r="16">
   <stop id="stop3921-9" style="stop-opacity:.38095" offset="0"/>
   <stop id="stop3923-7" style="stop-opacity:.23256" offset=".78125"/>
   <stop id="stop3925" offset="1"/>
  </radialGradient>
  <linearGradient id="linearGradient6554" y2="64" gradientUnits="userSpaceOnUse" x2="47" gradientTransform="matrix(.56334 0 0 .70945 -2.3868 -13.543)" y1="68" x1="47">
   <stop id="stop4137" style="stop-color:#cacaca" offset="0"/>
   <stop id="stop4139" style="stop-color:#f5f5f5" offset="1"/>
  </linearGradient>
  <linearGradient id="linearGradient6589" y2="87.04" gradientUnits="userSpaceOnUse" x2="77.726" gradientTransform="matrix(.56334 0 0 .70945 -8.6645 -20.105)" y1="83.089" x1="77.726">
   <stop id="stop4100" style="stop-color:#7c8181" offset="0"/>
   <stop id="stop4102" style="stop-color:#dfe0e0" offset="1"/>
  </linearGradient>
  <radialGradient id="radialGradient6591" gradientUnits="userSpaceOnUse" cy="85" cx="77.5" gradientTransform="matrix(.56334 0 0 .28378 -8.6645 16.077)" r="2.5">
   <stop id="stop4108" style="stop-color:#a0ff0e" offset="0"/>
   <stop id="stop4110" style="stop-color:#5ce500" offset="1"/>
  </radialGradient>
  <radialGradient id="radialGradient6631" gradientUnits="userSpaceOnUse" cy="39" cx="48" gradientTransform="matrix(1.2675 0 0 .87948 -36.044 -16.24)" r="10">
   <stop id="stop4016" style="stop-color:#fff" offset="0"/>
   <stop id="stop4018-64" style="stop-color:#fff;stop-opacity:0" offset="1"/>
  </radialGradient>
 </defs>
 <metadata id="metadata4516">
  <rdf:RDF>
   <cc:Work rdf:about="">
    <dc:format>image/svg+xml</dc:format>
    <dc:type rdf:resource="http://purl.org/dc/dcmitype/StillImage"/>
    <dc:title/>
   </cc:Work>
  </rdf:RDF>
 </metadata>
 <g id="layer1">
  <rect id="rect810-9" style="opacity:.52991;stroke:#000;fill:#333" transform="scale(1,-1)" ry="10.607" height="43.689" width="43.689" y="-46.112" x="2.5506"/>
  <rect id="rect810" style="stroke:url(#linearGradient11142);fill:url(#linearGradient10848)" transform="scale(1,-1)" ry="10.607" height="43.689" width="43.689" y="-45.559" x="2.5"/>
  <rect id="rect3745" style="opacity:.9;filter:url(#filter3174);display:none;fill:url(#linearGradient3254)" rx="6" ry="6" height="85" width="86" y="-23.712" x="-170.86"/>
  <rect id="rect3745-1" style="opacity:.9;filter:url(#filter3174-7);display:none;fill:url(#linearGradient8374)" rx="6" ry="6" height="85" width="86" y="-17.643" x="113.29"/>
  <g id="layer2" style="display:none" transform="translate(-111.44 -124.36)">
   <rect id="rect3745-9" style="opacity:.9;filter:url(#filter3174-41);fill:url(#ButtonShadow-6)" rx="6" ry="6" height="85" width="86" y="7" x="5"/>
  </g>
  <g id="layer2-7" style="display:none" transform="translate(-218.05 -238.16)">
   <rect id="rect3745-2" style="opacity:.9;filter:url(#filter3174-57);fill:url(#ButtonShadow-6)" rx="6" ry="6" height="85" width="86" y="7" x="5"/>
  </g>
  <g id="layer2-1" style="display:none" transform="translate(-106.2 -48.076)">
   <path id="rect3745-24" style="opacity:.9;filter:url(#filter3174-76);fill:url(#ButtonShadow-6)" d="m11 7c-3.324 0-6 2.676-6 6v73c0 3.324 2.676 6 6 6h74c3.324 0 6-2.676 6-6v-73c0-3.324-2.676-6-6-6h-5v2.5c1.4703 0.7406 2.5 2.2424 2.5 4 0 2.484-2.016 4.5-4.5 4.5s-4.5-2.016-4.5-4.5c0-1.7576 1.0297-3.2594 2.5-4v-2.5h-8v2.5c1.4703 0.7406 2.5 2.2424 2.5 4 0 2.484-2.016 4.5-4.5 4.5s-4.5-2.016-4.5-4.5c0-1.7576 1.0297-3.2594 2.5-4v-2.5h-8v2.5c1.4703 0.7406 2.5 2.2424 2.5 4 0 2.484-2.016 4.5-4.5 4.5s-4.5-2.016-4.5-4.5c0-1.7576 1.0297-3.2594 2.5-4v-2.5h-8v2.5c1.4703 0.7406 2.5 2.2424 2.5 4 0 2.484-2.016 4.5-4.5 4.5s-4.5-2.016-4.5-4.5c0-1.7576 1.0297-3.2594 2.5-4v-2.5h-8v2.5c1.4703 0.7406 2.5 2.2424 2.5 4 0 2.484-2.016 4.5-4.5 4.5s-4.5-2.016-4.5-4.5c0-1.7576 1.0297-3.2594 2.5-4v-2.5h-8v2.5c1.4703 0.7406 2.5 2.2424 2.5 4 0 2.484-2.016 4.5-4.5 4.5s-4.5-2.016-4.5-4.5c0-1.7576 1.0297-3.2594 2.5-4v-2.5h-5z"/>
  </g>
  <g id="layer2-0" style="display:none" transform="translate(28.835 -121.51)">
   <rect id="rect3745-5" style="opacity:.9;filter:url(#filter3174-3);fill:url(#ButtonShadow-6)" rx="6" ry="6" height="85" width="86" y="7" x="5"/>
  </g>
  <rect id="rect3745-19" style="opacity:.9;filter:url(#filter3174-65);display:none;fill:url(#linearGradient10968)" rx="6" ry="6" height="85" width="86" y="-57.071" x="93.061"/>
  <rect id="rect810-4-0" style="stroke:url(#linearGradient11086);fill:url(#linearGradient11061)" transform="scale(1,-1)" ry="10.607" height="39.403" width="43.796" y="-43.987" x="2.43"/>
  <rect id="rect810-4" style="stroke:url(#linearGradient11134);fill:url(#linearGradient11027)" transform="scale(1,-1)" ry="10.607" height="39.403" width="43.796" y="-41.159" x="2.4769"/>
  <rect id="rect810-4-8" style="stroke:#c4c4c4;stroke-width:.99689;fill:url(#linearGradient7012)" transform="scale(1,-1)" ry="10.525" height="36.094" width="44.164" y="-37.656" x="2.6142"/>
  <rect id="rect3745-51" style="opacity:.9;filter:url(#filter3174-34);display:none;fill:url(#linearGradient4603)" rx="6" ry="6" height="85" width="86" y="64.897" x="-20.979"/>
  <g id="layer2-3" style="display:none" transform="translate(-13.859 48.458)">
   <rect id="rect3745-7" style="opacity:.9;filter:url(#filter3174-2);fill:url(#ButtonShadow-6)" rx="6" ry="6" height="85" width="86" y="7" x="5"/>
  </g>
  <rect id="rect3745-73" style="opacity:.9;filter:url(#filter3174-50);display:none;fill:url(#linearGradient6983)" rx="6" ry="6" height="85" width="86" y="-24.941" x="141.81"/>
  <g id="layer2-9" style="display:none" transform="translate(-140.8 131.3)">
   <rect id="rect3745-5-3" style="opacity:.9;filter:url(#filter3174-9-2);fill:url(#ButtonShadow-6)" rx="6" ry="6" height="85" width="86" y="7" x="5"/>
  </g>
  <rect id="rect3745-34" style="opacity:.9;filter:url(#filter3174-58);display:none;fill:url(#linearGradient6977)" rx="6" ry="6" height="85" width="86" y="-29.377" x="200.43"/>
  <rect id="rect3745-2-1" style="opacity:.9;filter:url(#filter3174-2-1);display:none;fill:url(#linearGradient6974)" rx="6" ry="6" height="85" width="86" y="-77.359" x="152.83"/>
  <rect id="rect3745-8" style="opacity:.9;filter:url(#filter3174-41-6);display:none;fill:url(#ButtonShadow-6)" transform="translate(-171.11 70.916)" clip-path="url(#clipPath2862)" rx="6" ry="6" height="85" width="86" y="7" x="5"/>
  <path id="path4230" d="m-151.39 90.632c-15.621 15.621-15.621 40.948 0 56.569s40.948 15.621 56.569 0 15.621-40.948 0-56.569-40.948-15.621-56.569 0zm1.4142 1.4142c14.84-14.84 38.9-14.84 53.74 0s14.84 38.9 0 53.74-38.9 14.84-53.74 0-14.84-38.9 0-53.74z" style="opacity:.6;fill:url(#linearGradient6967);display:none"/>
  <rect id="rect3171" style="opacity:.1;filter:url(#filter3794-6-0);stroke:#fff;stroke-linecap:round;stroke-width:.5;display:none;fill:url(#linearGradient15094)" transform="translate(-171.11 70.916)" clip-path="url(#clipPath3613-57)" rx="12" ry="12" height="66" width="66" y="15" x="15"/>
  <g id="layer2-7-6" style="display:none" transform="translate(43.624 65.139)">
   <path id="rect3745-3" style="opacity:.9;filter:url(#filter3174-93);fill:url(#ButtonShadow-6)" d="m11 7c-2.8841 0-5.26 2.0143-5.8438 4.7188 2.5086 0.0336 4.5313 2.0773 4.5312 4.5938 0 2.5374-2.0563 4.5938-4.5938 4.5938-0.031404 0-0.062496 0.000628-0.09375 0v7.1562c0.031254-0.000628 0.062346 0 0.09375 0 2.5374 0 4.5938 2.0563 4.5938 4.5938 0 2.5374-2.0563 4.5937-4.5938 4.5938-0.031404 0-0.062496 0.000628-0.09375 0v7.1562c0.031254-0.000628 0.062346 0 0.09375 0 2.5374 0 4.5938 2.0563 4.5938 4.5938 0 2.5374-2.0563 4.5937-4.5938 4.5938-0.031404 0-0.062496 0.000628-0.09375 0l0.0002 7.156c0.031254-0.000628 0.062346 0 0.09375 0 2.5374 0 4.5938 2.0563 4.5938 4.5938 0 2.5374-2.0563 4.5938-4.5938 4.5938-0.031404 0-0.062496 0.000628-0.09375 0v7.1562c0.031254-0.000628 0.062346 0 0.09375 0 2.5374-0.000004 4.5938 2.0563 4.5938 4.5938 0 2.5374-2.0563 4.5938-4.5938 4.5938-0.031404 0-0.062496 0.000628-0.09375 0 0.1444 3.193 2.7693 5.718 6 5.718h0.21875c-0.000628-0.03125 0-0.06235 0-0.09375 0-2.5374 2.0563-4.5937 4.5938-4.5938 2.5374 0 4.5938 2.0563 4.5938 4.5938 0 0.0314 0.000628 0.0625 0 0.09375h7.1562c-0.000628-0.03125 0-0.06235 0-0.09375 0-2.5374 2.0563-4.5937 4.5938-4.5938 2.5374 0 4.5938 2.0563 4.5938 4.5938 0 0.0314 0.000628 0.0625 0 0.09375h7.1562c-0.000628-0.03125 0-0.06235 0-0.09375 0-2.5374 2.0563-4.5937 4.5938-4.5938 2.5374 0 4.5937 2.0563 4.5938 4.5938 0 0.0314 0.000628 0.0625 0 0.09375h7.155c-0.000628-0.03125 0-0.06235 0-0.09375 0-2.5374 2.0563-4.5937 4.5938-4.5938 2.5374 0 4.5937 2.0563 4.5938 4.5938 0 0.0314 0.000628 0.0625 0 0.09375h7.1562c-0.000628-0.03125 0-0.06235 0-0.09375-0.000005-2.5374 2.0563-4.5937 4.5938-4.5938 2.5374 0 4.5937 2.0563 4.5938 4.5938 0 0.01047 0.00007 0.0208 0 0.03125 2.8652-0.36646 5.0861-2.7222 5.2188-5.6562-0.03125 0.000628-0.06235 0-0.09375 0-2.5374-0.000003-4.5937-2.0563-4.5938-4.5938 0-2.5374 2.0563-4.5938 4.5938-4.5938 0.0314 0 0.0625-0.000628 0.09375 0v-7.1562c-0.03125 0.000628-0.06235 0-0.09375 0-2.5374 0.000001-4.5937-2.0563-4.5938-4.5938 0-2.5374 2.0563-4.5937 4.5938-4.5938 0.0314 0 0.0625-0.000628 0.09375 0v-7.1562c-0.03125 0.000628-0.06235 0-0.09375 0-2.5374 0.000001-4.5937-2.0563-4.5938-4.5938 0-2.5374 2.0563-4.5937 4.5938-4.5938 0.0314 0 0.0625-0.000628 0.09375 0v-7.155c-0.03125 0.000628-0.06235 0-0.09375 0-2.5374 0.000001-4.5937-2.0563-4.5938-4.5938 0-2.5374 2.0563-4.5937 4.5938-4.5938 0.0314 0 0.0625-0.000628 0.09375 0v-7.1562c-0.03125 0.000628-0.06235 0-0.09375 0-2.5374 0.000001-4.5937-2.0563-4.5938-4.5938 0-2.5165 2.0227-4.5602 4.5312-4.5938-0.53737-2.4896-2.5803-4.4006-5.1562-4.6875-0.42886 2.094-2.2798 3.6562-4.5 3.6562-2.2307 0-4.0826-1.5787-4.5-3.6875h-7.3438c-0.41736 2.1088-2.2693 3.6875-4.5 3.6875s-4.0826-1.5787-4.5-3.6875h-7.343c-0.417 2.1088-2.269 3.688-4.5 3.688s-4.083-1.5792-4.5-3.688h-7.3438c-0.41736 2.1088-2.2693 3.6875-4.5 3.6875s-4.0826-1.5787-4.5-3.6875h-7.344c-0.41736 2.1088-2.2693 3.6875-4.5 3.6875s-4.0826-1.5787-4.5-3.6875h-0.312z"/>
  </g>
  <g id="layer2-72" style="display:none" transform="matrix(.37556 0 0 .47297 6.6974 -1.0646)">
   <rect id="rect3745-1-7" style="opacity:.9;filter:url(#filter3174-05);fill:url(#ButtonShadow-6)" rx="6" ry="6" height="85" width="86" y="7" x="5"/>
  </g>
  <g id="layer1-00" transform="matrix(.37556 0 0 .28816 6.6974 15.768)">
   <path id="path3893" style="opacity:.3;color:#000000;fill:url(#radialGradient6525)" d="m48 78.75c-9.9411 0-18 5.0368-18 11.25h36c0-6.213-8.059-11.25-18-11.25z"/>
   <path id="path3908" style="opacity:.2;color:#000000;fill:#fff" d="m48 77.75c-9.9411 0-18 5.0368-18 11.25h0.09375c0.808-5.746 8.503-10.25 17.906-10.25 9.4032 0 17.098 4.5041 17.906 10.25h0.094c0-6.213-8.059-11.25-18-11.25z"/>
  </g>
  <g id="layer7" style="display:none" transform="matrix(.37556 0 0 .47297 6.6974 -1.0646)">
   <path id="path3875" style="opacity:.05;color:#000000;display:inline;fill:#2ad4ff" transform="translate(-100)" d="m15.719 1.9688c-1.493 0.0825-2.614 1.0465-3.188 2.1562-0.548 1.0611-0.683 2.2478-0.531 3.375h-0.03125c0.024 23.07-0.054 46.142 0.031 69.219a1.051 1.051 0 0 0 0 0.09375c0.35901 4.7471 5.0677 7.7194 9.5 7.1875v0.03125c18.403-0.024 36.808 0.054 55.219-0.031a1.051 1.051 0 0 0 0.09375 0c4.747-0.359 7.719-5.068 7.187-9.5h0.03125c-0.021-22.98 0.042-45.958-0.031-68.938a1.051 1.051 0 0 0 -0.031 -0.1245c-0.18-1.3444-1.03-2.3877-2.063-2.9375-0.976-0.5198-2.113-0.653-3.187-0.5v-0.03125h-62.938a1.051 1.051 0 0 0 -0.0625 0z"/>
   <path id="path3869" style="opacity:.1;color:#000000;display:inline;fill:#2ad4ff" d="m-84.219 3.0312c-2.2449 0.12423-3.0568 2.5373-2.75 4.4557 0.02417 23.073-0.04838 46.149 0.03633 69.22 0.31218 4.1279 4.5076 6.8058 8.4194 6.2615 18.406-0.02414 36.815 0.04833 55.22-0.03633 4.1279-0.31218 6.8058-4.5076 6.2615-8.4194-0.02085-22.982 0.0417-45.975-0.03125-68.951-0.26616-1.9874-2.4187-2.8507-4.2121-2.5312h-62.944z"/>
   <path id="path3864" style="opacity:.15;color:#000000;display:inline;fill:#2ad4ff" d="m-84.188 4a2.0046 2.0046 0 0 0 -1.812 2v70c0 3.2917 2.7083 6 6 6h56c3.2917 0 6-2.7083 6-6v-70a2.0046 2.0046 0 0 0 -2 -2h-64a2.0046 2.0046 0 0 0 -0.1875 0z"/>
   <path id="path3862" style="opacity:.3;color:#000000;display:inline;fill:#2ad4ff" transform="translate(-100)" d="m15.906 4.9688a1.0242 1.0242 0 0 0 -0.937 1.0312v70c0 2.7656 2.2656 5.0312 5.0312 5.0312h56c2.7656 0 5.0312-2.2656 5.0312-5.0312v-70a1.0242 1.0242 0 0 0 -1.031 -1.0312h-64a1.0242 1.0242 0 0 0 -0.09375 0z"/>
  </g>
  <path id="path4012" style="opacity:.3;color:#000000;fill:url(#radialGradient6631)" d="m37.472 18.06a12.675 8.7948 0 0 1 -25.35 0 12.675 8.7948 0 1 1 25.35 0z"/>
  <g id="text4048" style="stroke-opacity:.60448;stroke:#8f8f8f;stroke-width:.070302;fill:#808080" transform="matrix(1.2675 0 0 1.5963 -36.044 -44.57)">
   <path id="path4053" d="m39.028 44.231c-0.000001 0.06781-0.01333 0.13029-0.04 0.18743-0.02591 0.05714-0.06629 0.10667-0.12115 0.14858-0.05486 0.04115-0.1242 0.07353-0.20801 0.09715-0.08305 0.02286-0.18172 0.03429-0.29601 0.03429-0.20039 0-0.35658-0.03505-0.46858-0.10515s-0.18324-0.17143-0.21372-0.30401l0.21143-0.04229c0.01067 0.04191 0.02705 0.08 0.04914 0.11429 0.0221 0.03429 0.05181 0.064 0.08915 0.08915 0.0381 0.02438 0.08495 0.04343 0.14058 0.05714 0.05562 0.01372 0.12229 0.02057 0.20001 0.02057 0.06476 0 0.12419-0.0053 0.17829-0.016 0.0541-0.01143 0.10057-0.02857 0.13943-0.05143s0.06895-0.05219 0.09029-0.088c0.02209-0.03657 0.03314-0.08 0.03314-0.13029-0.000001-0.05257-0.01219-0.09524-0.03657-0.128-0.02362-0.03276-0.05715-0.05981-0.10057-0.08114-0.04343-0.02133-0.09524-0.03924-0.15543-0.05372s-0.12686-0.03009-0.2-0.04686c-0.04496-0.0099-0.09029-0.02057-0.136-0.032-0.04495-0.01219-0.08838-0.02629-0.13029-0.04229-0.04115-0.01676-0.08-0.03619-0.11658-0.05829-0.03657-0.0221-0.06819-0.04838-0.09486-0.07886-0.02667-0.03124-0.04762-0.06705-0.06286-0.10743-0.01524-0.04114-0.02286-0.08838-0.02286-0.14172 0-0.07619 0.01524-0.14134 0.04572-0.19543 0.03124-0.05486 0.07429-0.09981 0.12915-0.13486s0.11962-0.06057 0.19429-0.07657 0.15543-0.024 0.24229-0.024c0.09981 0.000001 0.18515 0.008 0.25601 0.024 0.07086 0.01524 0.13067 0.03848 0.17943 0.06972s0.08762 0.0701 0.11658 0.11657c0.02971 0.04572 0.05333 0.09905 0.07086 0.16l-0.21486 0.03771c-0.01067-0.03886-0.02629-0.07353-0.04686-0.104-0.01981-0.03048-0.0461-0.056-0.07886-0.07657s-0.07276-0.03619-0.12-0.04686c-0.04648-0.01067-0.10134-0.016-0.16458-0.016-0.07467 0.000001-0.13753 0.0069-0.18858 0.02057-0.05029 0.01295-0.09105 0.03086-0.12229 0.05372-0.03048 0.02286-0.05257 0.04991-0.06629 0.08114-0.01295 0.03048-0.01943 0.06362-0.01943 0.09943 0 0.048 0.01181 0.08762 0.03543 0.11886 0.02438 0.03048 0.05714 0.056 0.09829 0.07657 0.04114 0.02057 0.08876 0.03772 0.14286 0.05143s0.11162 0.02743 0.17258 0.04114c0.04952 0.01143 0.09867 0.02324 0.14743 0.03543 0.04952 0.01143 0.09676 0.02553 0.14172 0.04229 0.04495 0.016 0.08686 0.03505 0.12572 0.05714 0.03962 0.0221 0.07391 0.04914 0.10286 0.08114s0.05143 0.06972 0.06743 0.11315c0.01676 0.04343 0.02514 0.09448 0.02514 0.15315" style="stroke:#8f8f8f;stroke-width:.070302;stroke-opacity:.60448"/>
   <path id="path4055" d="m40.016 44.676v-0.78402c-0.000001-0.06019-0.0038-0.11048-0.01143-0.15086-0.0076-0.04038-0.02057-0.07276-0.03886-0.09714-0.01752-0.02514-0.04076-0.04267-0.06972-0.05257-0.02895-0.01067-0.06438-0.016-0.10629-0.016-0.04343 0.000001-0.08267 0.0088-0.11772 0.02629-0.03505 0.01676-0.06515 0.04153-0.09029 0.07429-0.02438 0.032-0.04343 0.072-0.05714 0.12-0.01295 0.04724-0.01943 0.10172-0.01943 0.16343v0.71659h-0.20458v-0.9726c0-0.0259-0.000381-0.05295-0.0011-0.08114 0-0.02895-0.000381-0.056-0.0011-0.08114-0.000762-0.0259-0.0015-0.048-0.0023-0.06629-0.000762-0.01828-0.0015-0.03009-0.0023-0.03543h0.19429c0.000762 0.0038 0.0015 0.0141 0.0023 0.03086 0.000762 0.01676 0.0015 0.03619 0.0023 0.05829 0.0015 0.02134 0.0027 0.04343 0.0034 0.06629 0.000761 0.0221 0.0011 0.04076 0.0011 0.056h0.0034c0.01829-0.03581 0.0381-0.06819 0.05943-0.09714s0.0461-0.05333 0.07429-0.07314c0.02895-0.02057 0.06171-0.03619 0.09829-0.04686 0.03733-0.01143 0.08038-0.01714 0.12915-0.01714 0.09372 0.000001 0.16762 0.01867 0.22172 0.056 0.05486 0.03733 0.09295 0.09676 0.11429 0.17829h0.0034c0.01829-0.03581 0.03886-0.06819 0.06172-0.09714s0.04952-0.05333 0.08-0.07314c0.03048-0.02057 0.06476-0.03619 0.10286-0.04686 0.03809-0.01143 0.08152-0.01714 0.13029-0.01714 0.06248 0.000001 0.11619 0.0084 0.16115 0.02514 0.04571 0.01676 0.08305 0.04267 0.112 0.07772s0.05029 0.08038 0.064 0.136c0.01371 0.05486 0.02057 0.12038 0.02057 0.19658v0.82402h-0.20343v-0.78402c-0.000002-0.06019-0.0038-0.11048-0.01143-0.15086-0.0076-0.04038-0.02057-0.07276-0.03886-0.09714-0.01753-0.02514-0.04077-0.04267-0.06972-0.05257-0.02895-0.01067-0.06438-0.016-0.10629-0.016-0.04343 0.000001-0.08267 0.0084-0.11772 0.02514-0.03505 0.016-0.06515 0.04-0.09029 0.072-0.02438 0.032-0.04343 0.072-0.05714 0.12-0.01295 0.048-0.01943 0.10362-0.01943 0.16686v0.71659h-0.20343" style="stroke:#8f8f8f;stroke-width:.070302;stroke-opacity:.60448"/>
   <path id="path4057" d="m41.563 44.699c-0.12419 0-0.21753-0.03276-0.28001-0.09829s-0.09372-0.15543-0.09372-0.26972c0-0.08153 0.01524-0.14819 0.04572-0.20001 0.03124-0.05257 0.07162-0.09372 0.12115-0.12343 0.05029-0.02971 0.10743-0.05029 0.17143-0.06172s0.12915-0.0179 0.19543-0.01943l0.27772-0.0046v-0.06743c-0.000001-0.05105-0.0053-0.09448-0.016-0.13029-0.01067-0.03581-0.02705-0.06476-0.04914-0.08686-0.0221-0.02209-0.04991-0.03809-0.08343-0.048-0.03276-0.01067-0.07162-0.016-0.11657-0.016-0.03962 0.000001-0.07543 0.003-0.10743 0.0091-0.032 0.0053-0.05981 0.01562-0.08343 0.03086-0.02362 0.01448-0.04267 0.03467-0.05714 0.06057-0.01448 0.02514-0.024 0.05715-0.02857 0.096l-0.21486-0.01943c0.0076-0.04876 0.0221-0.09333 0.04343-0.13372 0.02133-0.04114 0.05143-0.07657 0.09029-0.10629 0.03962-0.02971 0.08876-0.05257 0.14743-0.06857 0.05943-0.01676 0.13105-0.02514 0.21486-0.02514 0.15543 0.000001 0.27239 0.03581 0.35087 0.10743 0.07848 0.07086 0.11772 0.17372 0.11772 0.30858v0.53259c-0.000001 0.06095 0.008 0.10705 0.024 0.13829 0.016 0.03048 0.04648 0.04572 0.09143 0.04572 0.01143 0 0.02286-0.000762 0.03429-0.0023 0.01143-0.0015 0.02248-0.0034 0.03314-0.0057v0.128c-0.02591 0.0061-0.05181 0.01067-0.07772 0.01371-0.02515 0.003-0.05219 0.0046-0.08115 0.0046-0.03886 0-0.07238-0.005-0.10057-0.01486-0.02743-0.01067-0.04991-0.02629-0.06743-0.04686-0.01753-0.02133-0.03086-0.04724-0.04-0.07772-0.0091-0.03124-0.01486-0.06743-0.01714-0.10857h-0.0069c-0.0221 0.03962-0.04648 0.07543-0.07314 0.10743-0.02591 0.032-0.05638 0.05943-0.09143 0.08229-0.03505 0.0221-0.07505 0.03924-0.12 0.05143-0.04419 0.01219-0.09524 0.01829-0.15315 0.01829m0.04686-0.15429c0.06553 0 0.12267-0.01181 0.17143-0.03543 0.04952-0.02438 0.09029-0.05524 0.12229-0.09257 0.03276-0.03733 0.05714-0.0781 0.07314-0.12229s0.024-0.08648 0.024-0.12686v-0.10172l-0.22515 0.0046c-0.05029 0.000763-0.09829 0.0046-0.144 0.01143-0.04495 0.0061-0.08458 0.01867-0.11886 0.03771-0.03429 0.01905-0.06172 0.04572-0.08229 0.08-0.01981 0.03429-0.02972 0.07924-0.02972 0.13486 0 0.06705 0.01791 0.11886 0.05372 0.15543 0.03657 0.03657 0.08838 0.05486 0.15543 0.05486" style="stroke:#8f8f8f;stroke-width:.070302;stroke-opacity:.60448"/>
   <path id="path4059" d="m42.555 44.676v-0.9486c0-0.0259-0.000381-0.05219-0.0011-0.07886 0-0.02743-0.000381-0.05371-0.0011-0.07886-0.000762-0.02514-0.0015-0.04876-0.0023-0.07086-0.000762-0.0221-0.0015-0.0419-0.0023-0.05943h0.19429c0.000761 0.01752 0.0015 0.03772 0.0023 0.06057 0.0015 0.0221 0.0027 0.04496 0.0034 0.06857 0.0015 0.02362 0.0023 0.04648 0.0023 0.06857 0.000762 0.02134 0.0011 0.03962 0.0011 0.05486h0.0046c0.01448-0.04724 0.02971-0.088 0.04572-0.12229 0.01676-0.03505 0.03619-0.06362 0.05829-0.08572 0.0221-0.02286 0.04838-0.03962 0.07886-0.05029 0.03048-0.01143 0.06743-0.01714 0.11086-0.01714 0.01676 0.000001 0.03276 0.0015 0.048 0.0046 0.01524 0.0023 0.02705 0.0046 0.03543 0.0069v0.18858c-0.01372-0.0038-0.02972-0.0065-0.048-0.008-0.01829-0.0023-0.03886-0.0034-0.06172-0.0034-0.04724 0.000001-0.08762 0.01067-0.12115 0.032-0.03276 0.02134-0.05981 0.05105-0.08114 0.08915-0.02057 0.03733-0.03581 0.08229-0.04572 0.13486-0.0099 0.05181-0.01486 0.10858-0.01486 0.17029v0.64459h-0.20572" style="stroke:#8f8f8f;stroke-width:.070302;stroke-opacity:.60448"/>
   <path id="path4061" d="m43.808 44.667c-0.03124 0.0084-0.06324 0.01486-0.096 0.01943-0.032 0.0053-0.06934 0.008-0.112 0.008-0.16458 0-0.24686-0.09334-0.24686-0.28001v-0.82516h-0.14286v-0.14972h0.15086l0.06057-0.27658h0.13715v0.27658h0.22858v0.14972h-0.22858v0.78059c0 0.05943 0.0095 0.10134 0.02857 0.12572 0.01981 0.02362 0.05371 0.03543 0.10172 0.03543 0.01981 0 0.03886-0.0015 0.05714-0.0046 0.01905-0.003 0.03962-0.0069 0.06172-0.01143v0.152" style="stroke:#8f8f8f;stroke-width:.070302;stroke-opacity:.60448"/>
   <path id="path4063" d="m45.278 44.231c-0.000001 0.06781-0.01333 0.13029-0.04 0.18743-0.02591 0.05714-0.06629 0.10667-0.12115 0.14858-0.05486 0.04115-0.1242 0.07353-0.20801 0.09715-0.08305 0.02286-0.18172 0.03429-0.29601 0.03429-0.20039 0-0.35658-0.03505-0.46858-0.10515s-0.18324-0.17143-0.21372-0.30401l0.21143-0.04229c0.01067 0.04191 0.02705 0.08 0.04914 0.11429 0.0221 0.03429 0.05181 0.064 0.08915 0.08915 0.0381 0.02438 0.08495 0.04343 0.14058 0.05714 0.05562 0.01372 0.12229 0.02057 0.2 0.02057 0.06476 0 0.12419-0.0053 0.17829-0.016 0.0541-0.01143 0.10057-0.02857 0.13943-0.05143s0.06895-0.05219 0.09029-0.088c0.02209-0.03657 0.03314-0.08 0.03314-0.13029-0.000001-0.05257-0.01219-0.09524-0.03657-0.128-0.02362-0.03276-0.05715-0.05981-0.10057-0.08114-0.04343-0.02133-0.09524-0.03924-0.15543-0.05372s-0.12686-0.03009-0.2-0.04686c-0.04495-0.0099-0.09029-0.02057-0.136-0.032-0.04495-0.01219-0.08838-0.02629-0.13029-0.04229-0.04115-0.01676-0.08-0.03619-0.11658-0.05829-0.03657-0.0221-0.06819-0.04838-0.09486-0.07886-0.02667-0.03124-0.04762-0.06705-0.06286-0.10743-0.01524-0.04114-0.02286-0.08838-0.02286-0.14172-0.000001-0.07619 0.01524-0.14134 0.04572-0.19543 0.03124-0.05486 0.07429-0.09981 0.12915-0.13486s0.11962-0.06057 0.19429-0.07657 0.15543-0.024 0.24229-0.024c0.09981 0.000001 0.18515 0.008 0.25601 0.024 0.07086 0.01524 0.13067 0.03848 0.17943 0.06972s0.08762 0.0701 0.11658 0.11657c0.02971 0.04572 0.05333 0.09905 0.07086 0.16l-0.21486 0.03771c-0.01067-0.03886-0.02629-0.07353-0.04686-0.104-0.01981-0.03048-0.0461-0.056-0.07886-0.07657s-0.07276-0.03619-0.12-0.04686c-0.04648-0.01067-0.10134-0.016-0.16458-0.016-0.07467 0.000001-0.13753 0.0069-0.18858 0.02057-0.05029 0.01295-0.09105 0.03086-0.12229 0.05372-0.03048 0.02286-0.05257 0.04991-0.06629 0.08114-0.01295 0.03048-0.01943 0.06362-0.01943 0.09943-0.000001 0.048 0.01181 0.08762 0.03543 0.11886 0.02438 0.03048 0.05714 0.056 0.09829 0.07657 0.04114 0.02057 0.08876 0.03772 0.14286 0.05143s0.11162 0.02743 0.17258 0.04114c0.04952 0.01143 0.09867 0.02324 0.14743 0.03543 0.04952 0.01143 0.09676 0.02553 0.14172 0.04229 0.04495 0.016 0.08686 0.03505 0.12572 0.05714 0.03962 0.0221 0.07391 0.04914 0.10286 0.08114s0.05143 0.06972 0.06743 0.11315c0.01676 0.04343 0.02514 0.09448 0.02514 0.15315" style="stroke:#8f8f8f;stroke-width:.070302;stroke-opacity:.60448"/>
   <path id="path4065" d="m45.702 44.052c0 0.07086 0.005 0.136 0.01486 0.19543 0.01067 0.05943 0.02819 0.11086 0.05257 0.15429 0.02438 0.04267 0.05638 0.07581 0.096 0.09943 0.04038 0.02362 0.08991 0.03543 0.14858 0.03543 0.07314 0 0.1341-0.01981 0.18286-0.05943 0.04952-0.03962 0.08-0.10057 0.09143-0.18286l0.20801 0.01371c-0.0069 0.05105-0.02172 0.10019-0.04457 0.14743-0.02286 0.04724-0.0541 0.08877-0.09372 0.12458-0.03886 0.03581-0.08648 0.06476-0.14286 0.08686-0.05638 0.02133-0.12153 0.032-0.19543 0.032-0.09676 0-0.17905-0.01638-0.24686-0.04914s-0.12305-0.07772-0.16572-0.13486c-0.04191-0.05791-0.07238-0.12572-0.09143-0.20343-0.01905-0.07848-0.02857-0.16343-0.02857-0.25486-0.000001-0.08305 0.0069-0.15619 0.02057-0.21943 0.01372-0.064 0.03276-0.11962 0.05714-0.16686 0.02514-0.048 0.05448-0.088 0.088-0.12 0.03352-0.03276 0.06972-0.05867 0.10858-0.07772 0.03962-0.01981 0.08114-0.0339 0.12457-0.04229 0.04343-0.0091 0.08724-0.01371 0.13143-0.01371 0.06933 0.000001 0.13105 0.0095 0.18515 0.02857 0.0541 0.01905 0.10057 0.04534 0.13943 0.07886 0.03962 0.03276 0.07162 0.07162 0.096 0.11657 0.02438 0.04496 0.04152 0.09334 0.05143 0.14515l-0.21143 0.016c-0.01067-0.06857-0.03772-0.12305-0.08114-0.16343-0.04343-0.04038-0.10515-0.06057-0.18515-0.06057-0.05867 0.000001-0.10781 0.0099-0.14743 0.02971-0.03886 0.01905-0.07048 0.04838-0.09486 0.088-0.02438 0.03886-0.04191 0.088-0.05257 0.14743-0.0099 0.05943-0.01486 0.12915-0.01486 0.20915" style="stroke:#8f8f8f;stroke-width:.070302;stroke-opacity:.60448"/>
   <path id="path4067" d="m47.031 44.699c-0.12419 0-0.21753-0.03276-0.28001-0.09829s-0.09372-0.15543-0.09372-0.26972c0-0.08153 0.01524-0.14819 0.04572-0.20001 0.03124-0.05257 0.07162-0.09372 0.12115-0.12343 0.05029-0.02971 0.10743-0.05029 0.17143-0.06172s0.12914-0.0179 0.19543-0.01943l0.27772-0.0046v-0.06743c-0.000001-0.05105-0.0053-0.09448-0.016-0.13029-0.01067-0.03581-0.02705-0.06476-0.04914-0.08686-0.0221-0.02209-0.04991-0.03809-0.08343-0.048-0.03276-0.01067-0.07162-0.016-0.11658-0.016-0.03962 0.000001-0.07543 0.003-0.10743 0.0091-0.032 0.0053-0.05981 0.01562-0.08343 0.03086-0.02362 0.01448-0.04267 0.03467-0.05714 0.06057-0.01448 0.02514-0.024 0.05715-0.02857 0.096l-0.21486-0.01943c0.0076-0.04876 0.0221-0.09333 0.04343-0.13372 0.02133-0.04114 0.05143-0.07657 0.09029-0.10629 0.03962-0.02971 0.08876-0.05257 0.14743-0.06857 0.05943-0.01676 0.13105-0.02514 0.21486-0.02514 0.15543 0.000001 0.27239 0.03581 0.35087 0.10743 0.07848 0.07086 0.11772 0.17372 0.11772 0.30858v0.53259c-0.000001 0.06095 0.008 0.10705 0.024 0.13829 0.016 0.03048 0.04648 0.04572 0.09143 0.04572 0.01143 0 0.02286-0.000762 0.03429-0.0023 0.01143-0.0015 0.02248-0.0034 0.03314-0.0057v0.128c-0.02591 0.0061-0.05181 0.01067-0.07772 0.01371-0.02515 0.003-0.05219 0.0046-0.08114 0.0046-0.03886 0-0.07238-0.005-0.10058-0.01486-0.02743-0.01067-0.04991-0.02629-0.06743-0.04686-0.01752-0.02133-0.03086-0.04724-0.04-0.07772-0.0091-0.03124-0.01486-0.06743-0.01714-0.10857h-0.0069c-0.0221 0.03962-0.04648 0.07543-0.07314 0.10743-0.02591 0.032-0.05638 0.05943-0.09143 0.08229-0.03505 0.0221-0.07505 0.03924-0.12 0.05143-0.04419 0.01219-0.09524 0.01829-0.15315 0.01829m0.04686-0.15429c0.06553 0 0.12267-0.01181 0.17143-0.03543 0.04952-0.02438 0.09029-0.05524 0.12229-0.09257 0.03276-0.03733 0.05714-0.0781 0.07314-0.12229s0.024-0.08648 0.024-0.12686v-0.10172l-0.22515 0.0046c-0.05029 0.000763-0.09829 0.0046-0.144 0.01143-0.04495 0.0061-0.08457 0.01867-0.11886 0.03771-0.03429 0.01905-0.06172 0.04572-0.08229 0.08-0.01981 0.03429-0.02971 0.07924-0.02971 0.13486 0 0.06705 0.0179 0.11886 0.05372 0.15543 0.03657 0.03657 0.08838 0.05486 0.15543 0.05486" style="stroke:#8f8f8f;stroke-width:.070302;stroke-opacity:.60448"/>
   <path id="path4069" d="m48.803 44.676v-0.78402c-0.000001-0.06019-0.0046-0.11048-0.01371-0.15086-0.0084-0.04038-0.02248-0.07276-0.04229-0.09714-0.01981-0.02514-0.0461-0.04267-0.07886-0.05257-0.032-0.01067-0.072-0.016-0.12-0.016-0.04876 0.000001-0.09296 0.0088-0.13258 0.02629-0.03886 0.01676-0.07238 0.04153-0.10057 0.07429-0.02743 0.032-0.04876 0.072-0.064 0.12-0.01524 0.04724-0.02286 0.10172-0.02286 0.16343v0.71659h-0.20572v-0.9726c0-0.0259-0.000381-0.05295-0.0011-0.08114 0-0.02895-0.000381-0.056-0.0011-0.08114-0.000762-0.0259-0.0015-0.048-0.0023-0.06629-0.000762-0.01828-0.0015-0.03009-0.0023-0.03543h0.19429c0.000761 0.0038 0.0015 0.0141 0.0023 0.03086 0.000761 0.01676 0.0015 0.03619 0.0023 0.05829 0.0015 0.02134 0.0027 0.04343 0.0034 0.06629 0.000762 0.0221 0.0011 0.04076 0.0011 0.056h0.0034c0.01981-0.03581 0.04152-0.06819 0.06514-0.09714s0.05105-0.05333 0.08229-0.07314c0.03124-0.02057 0.06705-0.03619 0.10743-0.04686 0.04038-0.01143 0.08724-0.01714 0.14058-0.01714 0.06857 0.000001 0.12762 0.0084 0.17715 0.02514 0.04952 0.01676 0.09029 0.04267 0.12229 0.07772s0.05524 0.08038 0.06972 0.136c0.01524 0.05486 0.02286 0.12038 0.02286 0.19658v0.82402h-0.20686" style="stroke:#8f8f8f;stroke-width:.070302;stroke-opacity:.60448"/>
   <path id="path4071" d="m50.223 43.244v0.59887h0.89831v0.18058h-0.89831v0.65259h-0.21829v-1.6103h1.144v0.17829h-0.92574" style="stroke:#8f8f8f;stroke-width:.070302;stroke-opacity:.60448"/>
   <path id="path4073" d="m52.449 44.676-0.184-0.47087h-0.73373l-0.18515 0.47087h-0.22629l0.65716-1.6103h0.24801l0.64688 1.6103h-0.22286m-0.45601-1.1726c-0.01219-0.03048-0.024-0.06133-0.03543-0.09257-0.01067-0.03124-0.02019-0.05943-0.02857-0.08457-0.0084-0.0259-0.01562-0.04724-0.02172-0.064-0.0053-0.01752-0.0084-0.02819-0.0091-0.032-0.0015 0.0038-0.005 0.01448-0.01029 0.032-0.0053 0.01753-0.01257 0.03924-0.02172 0.06515-0.0084 0.02591-0.01829 0.05448-0.02972 0.08572-0.01067 0.03124-0.02172 0.0621-0.03314 0.09257l-0.20572 0.52916h0.6023l-0.20686-0.53144" style="stroke:#8f8f8f;stroke-width:.070302;stroke-opacity:.60448"/>
   <path id="path4075" d="m54.207 44.311v0.36458h-0.19429v-0.36458h-0.75888v-0.16l0.73716-1.0857h0.216v1.0835h0.22629v0.16229h-0.22629m-0.19429-1.0137c-0.0015 0.0038-0.0053 0.01143-0.01143 0.02286-0.0061 0.01067-0.01295 0.02286-0.02057 0.03657-0.0076 0.01372-0.01562 0.02781-0.024 0.04229-0.0076 0.01372-0.01448 0.02515-0.02057 0.03429l-0.41258 0.60802c-0.0038 0.0061-0.0095 0.0141-0.01714 0.024-0.0069 0.0099-0.0141 0.02019-0.02172 0.03086-0.0076 0.0099-0.01524 0.01981-0.02286 0.02971-0.0076 0.0099-0.01372 0.01752-0.01829 0.02286h0.56916v-0.85145" style="stroke:#8f8f8f;stroke-width:.070302;stroke-opacity:.60448"/>
   <path id="path4077" d="m54.621 44.676v-0.14515c0.03886-0.08915 0.0861-0.16762 0.14172-0.23544 0.05638-0.06857 0.11543-0.13029 0.17715-0.18515 0.06171-0.05562 0.12267-0.10705 0.18286-0.15429 0.06095-0.04724 0.11581-0.09448 0.16458-0.14172 0.04876-0.04724 0.088-0.09676 0.11772-0.14858 0.03048-0.05181 0.04572-0.11048 0.04572-0.176-0.000001-0.04571-0.0069-0.08572-0.02057-0.12-0.01372-0.03505-0.03353-0.06438-0.05943-0.088-0.02591-0.02362-0.05714-0.04114-0.09372-0.05257-0.03581-0.01219-0.07581-0.01828-0.12-0.01829-0.04115 0.000002-0.08 0.0057-0.11658 0.01714-0.03581 0.01143-0.06781 0.02857-0.096 0.05143s-0.05143 0.05143-0.06972 0.08572c-0.01752 0.03353-0.02895 0.07277-0.03429 0.11772l-0.21029-0.01943c0.0069-0.0579 0.02286-0.11238 0.048-0.16343s0.05981-0.09562 0.104-0.13372c0.04419-0.03886 0.09714-0.06933 0.15886-0.09143 0.06248-0.02209 0.13448-0.03314 0.21601-0.03314 0.08 0.000001 0.15124 0.0095 0.21372 0.02857 0.06248 0.01905 0.11505 0.04724 0.15772 0.08457 0.04343 0.03733 0.07657 0.08343 0.09943 0.13829s0.03428 0.1181 0.03429 0.18972c-0.000001 0.0541-0.0099 0.10553-0.02972 0.15429-0.01905 0.04877-0.04496 0.09524-0.07772 0.13943-0.032 0.04419-0.06934 0.08686-0.112 0.128-0.04267 0.04115-0.08724 0.08153-0.13372 0.12115-0.04648 0.03886-0.09334 0.07772-0.14058 0.11658-0.04724 0.0381-0.09181 0.07657-0.13372 0.11543-0.04115 0.03886-0.0781 0.07848-0.11086 0.11886-0.03276 0.03962-0.05829 0.08114-0.07657 0.12458h0.84002v0.17486h-1.0663" style="stroke:#8f8f8f;stroke-width:.070302;stroke-opacity:.60448"/>
   <path id="path4079" d="m57.016 43.87c-0.000001 0.15467-0.01486 0.28496-0.04457 0.39087-0.02895 0.10515-0.06896 0.19048-0.12 0.25601-0.05029 0.06476-0.10972 0.11124-0.17829 0.13943s-0.14172 0.04229-0.21943 0.04229c-0.07848 0-0.15162-0.0141-0.21944-0.04229-0.06781-0.02819-0.12686-0.07467-0.17715-0.13943-0.04953-0.06476-0.08877-0.14972-0.11772-0.25486-0.02819-0.10591-0.04229-0.23658-0.04229-0.39201 0-0.16229 0.0141-0.29639 0.04229-0.4023 0.02895-0.10667 0.06857-0.19162 0.11886-0.25486s0.10972-0.10743 0.17829-0.13258c0.06857-0.0259 0.14324-0.03886 0.22401-0.03886 0.07695 0.000001 0.14896 0.01295 0.21601 0.03886 0.06781 0.02515 0.12686 0.06934 0.17715 0.13258s0.08991 0.1482 0.11886 0.25486c0.02895 0.10591 0.04343 0.24001 0.04343 0.4023m-0.20915 0c-0.000001-0.128-0.0076-0.23429-0.02286-0.31887-0.01524-0.08534-0.03772-0.15315-0.06743-0.20343-0.02972-0.05105-0.06629-0.08686-0.10972-0.10743-0.04267-0.02133-0.09143-0.032-0.14629-0.032-0.05791 0.000002-0.10896 0.01067-0.15315 0.032-0.04419 0.02134-0.08153 0.05753-0.112 0.10858-0.02972 0.05029-0.05219 0.1181-0.06743 0.20343-0.01524 0.08458-0.02286 0.19048-0.02286 0.31772 0 0.12343 0.0076 0.22744 0.02286 0.31201 0.016 0.08457 0.03886 0.15277 0.06857 0.20458 0.03048 0.05105 0.06743 0.088 0.11086 0.11086 0.04343 0.0221 0.09296 0.03314 0.14858 0.03314 0.0541 0 0.10286-0.01105 0.14629-0.03314 0.04343-0.02286 0.08-0.05981 0.10972-0.11086 0.03048-0.05181 0.05371-0.12 0.06972-0.20458 0.01676-0.08457 0.02514-0.18858 0.02514-0.31201" style="stroke:#8f8f8f;stroke-width:.070302;stroke-opacity:.60448"/>
   <path id="path4081" d="m58.319 43.87c-0.000002 0.15467-0.01486 0.28496-0.04457 0.39087-0.02895 0.10515-0.06895 0.19048-0.12 0.25601-0.05029 0.06476-0.10972 0.11124-0.17829 0.13943s-0.14172 0.04229-0.21943 0.04229c-0.07848 0-0.15162-0.0141-0.21944-0.04229-0.06781-0.02819-0.12686-0.07467-0.17715-0.13943-0.04953-0.06476-0.08876-0.14972-0.11772-0.25486-0.02819-0.10591-0.04229-0.23658-0.04229-0.39201 0-0.16229 0.0141-0.29639 0.04229-0.4023 0.02895-0.10667 0.06857-0.19162 0.11886-0.25486s0.10972-0.10743 0.17829-0.13258c0.06857-0.0259 0.14324-0.03886 0.22401-0.03886 0.07695 0.000001 0.14896 0.01295 0.21601 0.03886 0.06781 0.02515 0.12686 0.06934 0.17715 0.13258s0.08991 0.1482 0.11886 0.25486c0.02895 0.10591 0.04343 0.24001 0.04343 0.4023m-0.20915 0c-0.000001-0.128-0.0076-0.23429-0.02286-0.31887-0.01524-0.08534-0.03772-0.15315-0.06743-0.20343-0.02972-0.05105-0.06629-0.08686-0.10972-0.10743-0.04267-0.02133-0.09143-0.032-0.14629-0.032-0.05791 0.000002-0.10896 0.01067-0.15315 0.032-0.04419 0.02134-0.08153 0.05753-0.112 0.10858-0.02972 0.05029-0.05219 0.1181-0.06743 0.20343-0.01524 0.08458-0.02286 0.19048-0.02286 0.31772-0.000001 0.12343 0.0076 0.22744 0.02286 0.31201 0.016 0.08457 0.03886 0.15277 0.06857 0.20458 0.03048 0.05105 0.06743 0.088 0.11086 0.11086 0.04343 0.0221 0.09295 0.03314 0.14858 0.03314 0.0541 0 0.10286-0.01105 0.14629-0.03314 0.04343-0.02286 0.08-0.05981 0.10972-0.11086 0.03048-0.05181 0.05372-0.12 0.06972-0.20458 0.01676-0.08457 0.02514-0.18858 0.02514-0.31201" style="stroke:#8f8f8f;stroke-width:.070302;stroke-opacity:.60448"/>
  </g>
  <g id="g6585" transform="translate(-.14286 -.21429)">
   <path id="path4096" style="fill:url(#linearGradient6589)" d="m34.149 38.802c-0.6053 0-1.1091 0.63444-1.1091 1.3967 0 0.7623 0.50377 1.3967 1.1091 1.3967h1.69c0.6053 0 1.1091-0.63444 1.1091-1.3967 0-0.7623-0.50377-1.3967-1.1091-1.3967h-1.69z"/>
   <rect id="rect3485" style="stroke-opacity:.25;stroke:#000;stroke-width:.31610;fill:url(#radialGradient6591)" rx=".56334" ry=".70945" height="1.4189" width="2.8167" y="39.489" x="33.586"/>
  </g>
  <path id="path4147" style="opacity:.05;color:#000000" d="m17.33 31.152c-0.92318 0-1.69 0.80169-1.69 1.7668 0 0.96513 0.76684 1.7668 1.69 1.7668h14.647c0.92318 0 1.69-0.80168 1.69-1.7668 0-0.96513-0.76684-1.7668-1.69-1.7668h-14.647z"/>
  <rect id="rect4141" style="opacity:.15;color:#000000" rx="1.1267" ry="1.0348" height="2.1284" width="16.9" y="32.571" x="16.203"/>
  <rect id="rect4125" style="color:#000000;fill:url(#linearGradient6554)" rx="1.1267" ry="1.0642" height="2.1284" width="16.9" y="31.862" x="16.203"/>
  <path id="rect4155" d="m17.33 31.862c-0.62418 0-1.1267 0.47462-1.1267 1.0642 0 0.12384 0.0296 0.24436 0.07042 0.35473 0.15349-0.41504 0.56319-0.70946 1.0563-0.70946h14.647c0.49307 0 0.90278 0.29441 1.0563 0.70946 0.04081-0.11036 0.07042-0.23089 0.07042-0.35473 0-0.58956-0.5025-1.0642-1.1267-1.0642h-14.647z" style="opacity:.6;color:#000000;fill:#fff"/>
  <rect id="rect4151" style="opacity:.15;color:#000000" height="2.1284" width=".56334" y="31.862" x="21.837"/>
  <rect id="rect4153" style="opacity:.15;color:#000000" height="2.1284" width=".56334" y="31.862" x="27.47"/>
  <g id="text4164" style="fill:#666" transform="matrix(.56334 0 0 .70945 -2.3868 -14.962)">
   <path id="path4194" d="m36.316 63.042c-0.05859 0.000001-0.1106 0.0098-0.15601 0.0293-0.04492 0.01953-0.08276 0.04736-0.11352 0.0835-0.03027 0.03613-0.05322 0.07959-0.06885 0.13037s-0.02344 0.10718-0.02344 0.16919 0.0083 0.1189 0.0249 0.17066c0.01709 0.05127 0.04126 0.09546 0.07251 0.13257 0.03174 0.03711 0.07031 0.06592 0.11572 0.08643 0.0459 0.02051 0.09741 0.03076 0.15454 0.03076 0.04004 0.000001 0.07642-0.0051 0.10913-0.01538 0.0332-0.01074 0.06299-0.02564 0.08936-0.04468 0.02685-0.01904 0.05078-0.0415 0.07178-0.06738 0.02099-0.02637 0.03955-0.05542 0.05566-0.08716l0.11426 0.05713c-0.01856 0.03857-0.04151 0.07446-0.06885 0.10767-0.02734 0.0332-0.05957 0.06201-0.09668 0.08643-0.03662 0.02441-0.07837 0.0437-0.12524 0.05786-0.04639 0.01367-0.09839 0.02051-0.15601 0.02051-0.0835 0-0.15674-0.01318-0.21973-0.03955-0.0625-0.02686-0.11499-0.06396-0.15747-0.11133-0.04199-0.04785-0.07349-0.10449-0.09448-0.16992-0.021-0.06543-0.03149-0.13696-0.03149-0.2146-0.000001-0.08057 0.01099-0.15332 0.03296-0.21826 0.02246-0.06494 0.05493-0.12012 0.09741-0.16553 0.04297-0.0459 0.0957-0.08105 0.1582-0.10547 0.0625-0.0249 0.13379-0.03735 0.21387-0.03735 0.10986 0.000001 0.20166 0.02148 0.27539 0.06445s0.12793 0.10669 0.1626 0.19116l-0.13257 0.04395c-0.0098-0.02441-0.02295-0.04761-0.03955-0.06958-0.0166-0.02246-0.03735-0.04223-0.06226-0.05933-0.0249-0.01709-0.0542-0.03076-0.08789-0.04101-0.0332-0.01025-0.07129-0.01538-0.11426-0.01538"/>
   <path id="path4196" d="m37.915 63.454c-0.000001 0.08057-0.01172 0.15381-0.03516 0.21973-0.02295 0.06592-0.0564 0.12231-0.10034 0.16919-0.04395 0.04687-0.09766 0.08301-0.16113 0.1084-0.06348 0.02539-0.1355 0.03809-0.21606 0.03809-0.08496 0-0.15942-0.01318-0.22339-0.03955-0.06396-0.02686-0.11719-0.06396-0.15967-0.11133-0.04248-0.04785-0.07446-0.10449-0.09595-0.16992-0.02148-0.06543-0.03223-0.13696-0.03223-0.2146 0-0.08057 0.01123-0.15332 0.03369-0.21826s0.05542-0.12012 0.09888-0.16553c0.04346-0.0459 0.09692-0.08105 0.1604-0.10547 0.06396-0.0249 0.13721-0.03735 0.21973-0.03735 0.08203 0.000001 0.15478 0.01245 0.21826 0.03735 0.06396 0.0249 0.11743 0.0603 0.1604 0.1062 0.04346 0.0459 0.07641 0.10132 0.09888 0.16626 0.02246 0.06494 0.03369 0.13721 0.03369 0.2168m-0.14282 0c-0.000001-0.06201-0.0081-0.11841-0.02417-0.16919-0.01563-0.05078-0.03906-0.09424-0.07031-0.13037-0.03076-0.03613-0.06909-0.06396-0.11499-0.0835-0.0459-0.01953-0.09888-0.0293-0.15894-0.0293-0.06152 0.000001-0.11548 0.0098-0.16186 0.0293-0.04639 0.01953-0.08521 0.04736-0.11646 0.0835-0.03076 0.03613-0.05396 0.07959-0.06958 0.13037-0.01514 0.05078-0.02271 0.10718-0.02271 0.16919s0.0078 0.1189 0.02344 0.17066c0.01611 0.05127 0.03955 0.0957 0.07031 0.1333 0.03125 0.03711 0.06982 0.06616 0.11572 0.08716 0.04639 0.02051 0.09961 0.03076 0.15967 0.03076 0.06445 0 0.11987-0.0105 0.16626-0.03149 0.04687-0.021 0.0852-0.05005 0.11499-0.08716 0.03027-0.0376 0.05249-0.08227 0.06665-0.13403 0.01465-0.05176 0.02197-0.10815 0.02197-0.16919"/>
   <path id="path4198" d="m38.907 63.253c-0.000001 0.04492-0.0076 0.08691-0.02271 0.12598-0.01465 0.03858-0.03687 0.07227-0.06665 0.10107-0.0293 0.02832-0.06616 0.05078-0.1106 0.06738-0.04443 0.0166-0.09619 0.0249-0.15527 0.0249h-0.30322v0.4021h-0.13989v-1.032h0.43433c0.06103 0.000001 0.11426 0.0076 0.15967 0.02271 0.04541 0.01465 0.08325 0.03565 0.11352 0.06299 0.03027 0.02686 0.05298 0.05957 0.06811 0.09814 0.01514 0.03809 0.0227 0.08032 0.02271 0.12671m-0.14062 0.0015c0-0.06543-0.02002-0.11499-0.06006-0.14868-0.04004-0.03418-0.1001-0.05127-0.18018-0.05127h-0.27759v0.40723h0.28345c0.08057 0 0.13965-0.01782 0.17725-0.05347 0.03808-0.03564 0.05713-0.08691 0.05713-0.15381"/>
   <path id="path4200" d="m39.557 63.547v0.42773h-0.13916v-0.42773l-0.39697-0.60425h0.15381l0.31421 0.49146 0.31274-0.49146h0.15381l-0.39844 0.60425"/>
   <path id="path4202" d="m46.709 63.253c-0.000001 0.04492-0.0076 0.08691-0.02271 0.12598-0.01465 0.03858-0.03687 0.07227-0.06665 0.10107-0.0293 0.02832-0.06616 0.05078-0.1106 0.06738-0.04443 0.0166-0.09619 0.0249-0.15527 0.0249h-0.30322v0.4021h-0.13989v-1.032h0.43433c0.06103 0.000001 0.11426 0.0076 0.15967 0.02271 0.04541 0.01465 0.08325 0.03565 0.11352 0.06299 0.03027 0.02686 0.05298 0.05957 0.06811 0.09814 0.01514 0.03809 0.0227 0.08032 0.02271 0.12671m-0.14062 0.0015c-0.000001-0.06543-0.02002-0.11499-0.06006-0.14868-0.04004-0.03418-0.1001-0.05127-0.18018-0.05127h-0.27759v0.40723h0.28345c0.08057 0 0.13965-0.01782 0.17725-0.05347 0.03809-0.03564 0.05713-0.08691 0.05713-0.15381"/>
   <path id="path4204" d="m47.611 63.975v-0.47827h-0.55811v0.47827h-0.13989v-1.032h0.13989v0.43652h0.55811v-0.43652h0.13989v1.032h-0.13989"/>
   <path id="path4206" d="m48.969 63.454c-0.000001 0.08057-0.01172 0.15381-0.03516 0.21973-0.02295 0.06592-0.0564 0.12231-0.10034 0.16919-0.04395 0.04687-0.09766 0.08301-0.16113 0.1084-0.06348 0.02539-0.1355 0.03809-0.21606 0.03809-0.08496 0-0.15942-0.01318-0.22339-0.03955-0.06396-0.02686-0.11719-0.06396-0.15967-0.11133-0.04248-0.04785-0.07446-0.10449-0.09595-0.16992-0.02148-0.06543-0.03223-0.13696-0.03223-0.2146 0-0.08057 0.01123-0.15332 0.03369-0.21826s0.05542-0.12012 0.09888-0.16553c0.04346-0.0459 0.09692-0.08105 0.1604-0.10547 0.06396-0.0249 0.13721-0.03735 0.21973-0.03735 0.08203 0.000001 0.15478 0.01245 0.21826 0.03735 0.06396 0.0249 0.11743 0.0603 0.1604 0.1062 0.04346 0.0459 0.07641 0.10132 0.09888 0.16626 0.02246 0.06494 0.03369 0.13721 0.03369 0.2168m-0.14282 0c-0.000001-0.06201-0.0081-0.11841-0.02417-0.16919-0.01563-0.05078-0.03906-0.09424-0.07031-0.13037-0.03076-0.03613-0.06909-0.06396-0.11499-0.0835-0.0459-0.01953-0.09888-0.0293-0.15894-0.0293-0.06152 0.000001-0.11548 0.0098-0.16186 0.0293-0.04639 0.01953-0.08521 0.04736-0.11646 0.0835-0.03076 0.03613-0.05396 0.07959-0.06958 0.13037-0.01514 0.05078-0.02271 0.10718-0.02271 0.16919s0.0078 0.1189 0.02344 0.17066c0.01611 0.05127 0.03955 0.0957 0.07031 0.1333 0.03125 0.03711 0.06982 0.06616 0.11572 0.08716 0.04639 0.02051 0.09961 0.03076 0.15967 0.03076 0.06445 0 0.11987-0.0105 0.16626-0.03149 0.04687-0.021 0.0852-0.05005 0.11499-0.08716 0.03027-0.0376 0.05249-0.08227 0.06665-0.13403 0.01465-0.05176 0.02197-0.10815 0.02197-0.16919"/>
   <path id="path4208" d="m49.567 63.057v0.91772h-0.13916v-0.91772h-0.35449v-0.11426h0.84814v0.11426h-0.35449"/>
   <path id="path4210" d="m51.025 63.454c-0.000001 0.08057-0.01172 0.15381-0.03516 0.21973-0.02295 0.06592-0.0564 0.12231-0.10034 0.16919-0.04395 0.04687-0.09766 0.08301-0.16113 0.1084-0.06348 0.02539-0.1355 0.03809-0.21606 0.03809-0.08496 0-0.15942-0.01318-0.22339-0.03955-0.06397-0.02686-0.11719-0.06396-0.15967-0.11133-0.04248-0.04785-0.07446-0.10449-0.09595-0.16992-0.02148-0.06543-0.03223-0.13696-0.03223-0.2146-0.000001-0.08057 0.01123-0.15332 0.03369-0.21826s0.05542-0.12012 0.09888-0.16553c0.04346-0.0459 0.09692-0.08105 0.1604-0.10547 0.06396-0.0249 0.13721-0.03735 0.21973-0.03735 0.08203 0.000001 0.15478 0.01245 0.21826 0.03735 0.06396 0.0249 0.11743 0.0603 0.1604 0.1062 0.04346 0.0459 0.07641 0.10132 0.09888 0.16626 0.02246 0.06494 0.03369 0.13721 0.03369 0.2168m-0.14282 0c-0.000001-0.06201-0.0081-0.11841-0.02417-0.16919-0.01563-0.05078-0.03906-0.09424-0.07031-0.13037-0.03076-0.03613-0.06909-0.06396-0.11499-0.0835-0.0459-0.01953-0.09888-0.0293-0.15894-0.0293-0.06152 0.000001-0.11548 0.0098-0.16186 0.0293-0.04639 0.01953-0.08521 0.04736-0.11646 0.0835-0.03076 0.03613-0.05396 0.07959-0.06958 0.13037-0.01514 0.05078-0.02271 0.10718-0.02271 0.16919s0.0078 0.1189 0.02344 0.17066c0.01611 0.05127 0.03955 0.0957 0.07031 0.1333 0.03125 0.03711 0.06982 0.06616 0.11572 0.08716 0.04639 0.02051 0.09961 0.03076 0.15967 0.03076 0.06445 0 0.11987-0.0105 0.16626-0.03149 0.04687-0.021 0.0852-0.05005 0.11499-0.08716 0.03027-0.0376 0.05249-0.08227 0.06665-0.13403 0.01465-0.05176 0.02197-0.10815 0.02197-0.16919"/>
   <path id="path4212" d="m55.795 63.975v-1.032h0.78296v0.11426h-0.64307v0.33105h0.59912v0.11279h-0.59912v0.35962h0.6731v0.11426h-0.81299"/>
   <path id="path4214" d="m57.675 63.975v-0.68848c-0.000001-0.0249 0.000243-0.05029 0.000732-0.07617 0.000487-0.02588 0.0012-0.04956 0.0022-0.07105 0.000976-0.0249 0.0022-0.04907 0.0037-0.07251-0.0068 0.0249-0.01392 0.04956-0.02124 0.07397-0.0063 0.021-0.01343 0.04346-0.02124 0.06738-0.0073 0.02344-0.01465 0.04468-0.02197 0.06372l-0.2666 0.70312h-0.09814l-0.27026-0.70312c-0.0029-0.0073-0.0061-0.01587-0.0095-0.02564-0.0029-0.0098-0.0063-0.02002-0.01025-0.03076-0.0034-0.01123-0.0071-0.02246-0.01099-0.03369-0.0034-0.01172-0.0068-0.02319-0.01025-0.03442-0.0083-0.02588-0.01636-0.05273-0.02417-0.08057 0.000488 0.02734 0.0012 0.05444 0.0022 0.0813 0.000976 0.02295 0.0017 0.04712 0.0022 0.07251 0.000488 0.0249 0.000733 0.04687 0.000733 0.06592v0.68848h-0.12451v-1.032h0.18384l0.27466 0.71558c0.0034 0.0098 0.0076 0.02246 0.01245 0.03809 0.0049 0.01514 0.0095 0.03076 0.01392 0.04687 0.0044 0.01611 0.0083 0.03149 0.01172 0.04614 0.0039 0.01416 0.0066 0.02515 0.0081 0.03296 0.0015-0.0078 0.0041-0.01904 0.0081-0.03369 0.0039-0.01465 0.0083-0.03003 0.01318-0.04614 0.0054-0.01611 0.0105-0.03174 0.01538-0.04687 0.0049-0.01514 0.0093-0.02759 0.01318-0.03735l0.26953-0.71558h0.17944v1.032h-0.12598"/>
   <path id="path4216" d="m58.78 63.975-0.11792-0.30176h-0.47022l-0.11865 0.30176h-0.14502l0.42114-1.032h0.15894l0.41455 1.032h-0.14282m-0.29224-0.75146c-0.0078-0.01953-0.01538-0.0393-0.02271-0.05933-0.0068-0.02002-0.01294-0.03809-0.01831-0.0542-0.0054-0.0166-0.01001-0.03027-0.01392-0.04102-0.0034-0.01123-0.0054-0.01807-0.0059-0.02051-0.000977 0.0024-0.0032 0.0093-0.0066 0.02051-0.0034 0.01123-0.0081 0.02515-0.01392 0.04175-0.0054 0.0166-0.01172 0.03491-0.01904 0.05493-0.0068 0.02002-0.01392 0.0398-0.02124 0.05933l-0.13184 0.33911h0.38599l-0.13257-0.34058"/>
   <path id="path4218" d="m59.066 63.975v-1.032h0.13989v1.032h-0.13989"/>
   <path id="path4220" d="m59.466 63.975v-1.032h0.13989v0.91772h0.52148v0.11426h-0.66138"/>
  </g>
 </g>
</svg>
