<?xml version="1.0" encoding="UTF-8" standalone="no"?>
<!-- Created with Inkscape (http://www.inkscape.org/) -->
<svg id="svg3449" xmlns:rdf="http://www.w3.org/1999/02/22-rdf-syntax-ns#" xmlns="http://www.w3.org/2000/svg" height="128" width="128" version="1.0" xmlns:cc="http://creativecommons.org/ns#" xmlns:xlink="http://www.w3.org/1999/xlink" xmlns:dc="http://purl.org/dc/elements/1.1/">
 <metadata id="metadata56">
  <rdf:RDF>
   <cc:Work rdf:about="">
    <dc:format>image/svg+xml</dc:format>
    <dc:type rdf:resource="http://purl.org/dc/dcmitype/StillImage"/>
    <dc:title/>
   </cc:Work>
  </rdf:RDF>
 </metadata>
 <defs id="defs3451">
  <linearGradient id="linearGradient3514" y2="-9.1034" gradientUnits="userSpaceOnUse" x2="66.492" gradientTransform="matrix(.96826 0 0 .97948 2.179 .16587)" y1="-42.638" x1="67.952">
   <stop id="stop4620" style="stop-color:#37414b" offset="0"/>
   <stop id="stop4622" style="stop-color:#37414b;stop-opacity:0" offset="1"/>
  </linearGradient>
  <linearGradient id="linearGradient3516" y2="-11.847" gradientUnits="userSpaceOnUse" x2="58.98" gradientTransform="matrix(.96826 0 0 .97948 2.179 .16587)" y1="-118.55" x1="57.173">
   <stop id="stop4596" offset="0"/>
   <stop id="stop4598" style="stop-opacity:0" offset="1"/>
  </linearGradient>
  <linearGradient id="linearGradient3519" y2="50.369" gradientUnits="userSpaceOnUse" x2="76.558" gradientTransform="matrix(.96826 0 0 .97948 3.2423 -129.19)" y1="13.164" x1="76.558">
   <stop id="stop3392" style="stop-color:#425e7b" offset="0"/>
   <stop id="stop3394" style="stop-color:#7a91a7" offset="1"/>
  </linearGradient>
  <linearGradient id="linearGradient3521" y2="-8.7399" gradientUnits="userSpaceOnUse" x2="60.217" gradientTransform="matrix(.96826 0 0 .97948 2.179 .16587)" y1="-123.72" x1="60.395">
   <stop id="stop3392-4-8" style="stop-color:#425e7b" offset="0"/>
   <stop id="stop3394-8-0" style="stop-color:#7a91a7" offset="1"/>
  </linearGradient>
  <radialGradient id="radialGradient3349" gradientUnits="userSpaceOnUse" cy="45.647" cx="42.148" gradientTransform="matrix(.94690 0 0 1.139 3.5954 -29.89)" r="58.984">
   <stop id="stop44117" style="stop-color:#95ba1a" offset="0"/>
   <stop id="stop44119" style="stop-color:#678112" offset="1"/>
  </radialGradient>
  <linearGradient id="linearGradient11406" y2="19.812" gradientUnits="userSpaceOnUse" x2="15.25" gradientTransform="matrix(2.6667 0 0 4.341 -1.4969e-7 -5.0231)" y1="8.4375" x1="12.938">
   <stop id="stop6594-0-2" style="stop-color:#fff;stop-opacity:.27451" offset="0"/>
   <stop id="stop6596-2-5" style="stop-color:#fff;stop-opacity:0" offset="1"/>
  </linearGradient>
  <filter id="filter3174" color-interpolation-filters="sRGB">
   <feGaussianBlur id="feGaussianBlur3176" stdDeviation="1.71"/>
  </filter>
  <linearGradient id="ButtonShadow-4" x1="45.448" gradientUnits="userSpaceOnUse" y1="92.54" gradientTransform="scale(1.0059 .99417)" x2="45.448" y2="7.0165">
   <stop id="stop3750-7" offset="0"/>
   <stop id="stop3752-9" style="stop-opacity:.58824" offset="1"/>
  </linearGradient>
  <filter id="filter3174-7" color-interpolation-filters="sRGB">
   <feGaussianBlur id="feGaussianBlur3176-1" stdDeviation="1.71"/>
  </filter>
 </defs>
 <rect id="rect892-2-7-2" ry="29.452" style="stroke:#d3d3d3;stroke-width:9.8448;fill:#37414b" transform="scale(1,-1)" height="116.16" width="116.08" y="-122.08" x="5.9224"/>
 <rect id="rect892" style="stroke:url(#linearGradient3521);stroke-width:.97385;fill:url(#linearGradient3519)" transform="scale(1,-1)" ry="29.296" height="115.54" width="114.22" y="-122.25" x="7.0394"/>
 <rect id="rect892-2" style="stroke:url(#linearGradient3516);stroke-width:.97385;fill:url(#linearGradient3514)" transform="scale(1,-1)" ry="28.993" height="114.35" width="114.22" y="-121.46" x="7.0599"/>
 <path id="rect895" style="fill:url(#radialGradient3349)" d="m33.051 7.2596c-7.969-2.4493-27.013 15.174-25.653 23.038-0.050142 0.97378-0.088772 1.9648-0.088772 2.9572v52.419c0 20.876 10.712 33.859 22.318 33.859h67.038c12.638 0 24.318-11.245 24.318-25.859v-64.017c0.7-10.928-21.283-24.659-25.926-22.618-47.846 0.8653-18.017 0.2236-62.003 0.2236z"/>
 <path id="rect6588" d="m7.2651 40.702c-3.6107-28.823 22.731-33.361 32.668-33.437l55.816 0.735c21.091 2.903 26.611 16.187 24.251 34.728l-112 30.388z" style="fill:url(#linearGradient11406)"/>
 <rect id="rect892-2-7-8" style="opacity:.15891;stroke:#000;stroke-width:4.8445;fill:none" transform="scale(1,-1)" ry="28.993" height="114.35" width="114.22" y="-121.16" x="6.8687"/>
 <rect id="rect892-2-7-1" style="opacity:.15891;stroke:#000;stroke-width:7.7512;fill:none" transform="scale(1,-1)" ry="28.993" height="114.35" width="114.22" y="-121.16" x="6.8687"/>
 <rect id="rect892-2-7-2-9" ry="28.067" style="stroke:#000;stroke-width:1.0489;fill:none" transform="scale(1,-1)" height="112.71" width="114.14" y="-120.31" x="7.0649"/>
 <path id="path1187" style="fill:#fff;fill-opacity:.057143" d="m33.017 7.2319c-23.707 0-26.027 0.6738-25.93 26.295-0.04334 0.71563-0.07674 1.4439-0.07674 2.1732v32.76c18.67-38.321 38.34-51.497 90.374-61.179-0.225-0.026-0.46-0.0303-0.691-0.0303-41.576 0.3874-25.652-0.0188-63.676-0.0188z"/>
 <g id="layer2" style="display:none" transform="matrix(1.2166 0 0 1.2299 5.6049 3.1187)">
  <rect id="rect3745" style="opacity:.9;filter:url(#filter3174);fill:url(#ButtonShadow-4)" rx="6" ry="6" height="85" width="86" y="7" x="5"/>
 </g>
 <g id="layer2-6" style="display:none" transform="matrix(1.2166 0 0 1.2299 5.6049 3.1187)">
  <rect id="rect3745-8" style="opacity:.9;filter:url(#filter3174-7);fill:url(#ButtonShadow-4)" rx="6" ry="6" height="85" width="86" y="7" x="5"/>
 </g>
 <g id="g14659" transform="matrix(.21875 0 0 .21875 8 8)">
  <path id="path14645" style="fill:#fff" d="m164.83 143.63c21.81-6.1 44.52-8.16 67.09-8.83 44.25-0.22 89.49 6.8 129.27 27.04 4.3 2.93 9.82 4.58 12.62 9.28 2.63 4.41 3.43 10.77-0.27 14.82-0.07 0.43-0.22 1.3-0.29 1.73-4.16 5.07-11.56 7.75-17.72 4.82-32.14-18.9-69.75-25.87-106.55-27.94-8.89-0.02-17.79-0.08-26.68 0.05-17.28 1.38-34.71 3.07-51.37 8.16-5.12 1.71-11.27 1.39-15.45-2.34-5.8-4.64-7.11-13.75-2.78-19.81 2.81-3.9 7.51-6.06 12.13-6.98z"/>
  <path id="path14647" style="fill:#fff" d="m209.46 190.8c19.78-1.91 39.77-1.33 59.46 1.33 27.77 4.26 55.2 12.89 79.18 27.75 6.39 3.75 7.32 13.3 2.41 18.64-3.82 4.06-10.42 5.09-15.25 2.28-22.54-13.86-48.5-21.26-74.56-24.86-27.63-3.05-56.04-2.13-82.82 5.89-5.33 1.76-12.02 0.28-15-4.77-3.83-5.33-2.05-13.26 3.32-16.83 4.49-2.66 9.77-3.32 14.73-4.69 9.39-2.28 18.91-3.88 28.53-4.74z"/>
  <path id="path14649" style="fill:#fff" d="m230.28 241.39c22.84-0.64 45.79 2.5 67.47 9.77 11.12 4.48 22.22 9.2 32.38 15.66 2.2 1.34 3.09 3.92 3.79 6.27 1.41 7.17-6.91 14.13-13.63 10.65-6.53-3.54-12.87-7.53-19.84-10.19-6.21-2.19-12.32-4.71-18.71-6.37-33.15-9.08-68.4-7.04-101.61 0.64-4.02 1.19-8.68-0.45-11.01-3.95-3.8-4.9-1.42-13.41 4.83-14.91 18.4-4.69 37.37-7.06 56.33-7.57z"/>
  <path id="path14651" style="fill:#fff" d="m196.85 295.52c15.48-3.33 31.51-4.16 47.25-2.32 20.78 2.34 41.41 8.43 59.2 19.61 17.01 10.17 31.26 24.68 41.93 41.32-6 2.7-11.27 6.88-17.19 9.8-10.28 4.96-20.78 9.72-31.96 12.25-1.36 0.3-2.65 0.86-3.92 1.39-6.23-11.78-16.11-21.53-27.82-27.85-12.68-6.33-27.13-8.96-41.23-7.99-14.68 0.8-29.03 6.64-40.05 16.38-1.54 1.33-3.32 2.33-5.11 3.28-13.45-7.43-25.66-17.03-36.42-27.98-2.04-2.26-4.2-4.45-5.67-7.15 17.23-15.28 38.38-26.2 60.99-30.74z"/>
 </g>
</svg>
