<?xml version="1.0" encoding="UTF-8" standalone="no"?>
<!-- Created with Inkscape (http://www.inkscape.org/) -->
<svg id="svg3449" xmlns:rdf="http://www.w3.org/1999/02/22-rdf-syntax-ns#" xmlns="http://www.w3.org/2000/svg" height="128" width="128" version="1.0" xmlns:cc="http://creativecommons.org/ns#" xmlns:xlink="http://www.w3.org/1999/xlink" xmlns:dc="http://purl.org/dc/elements/1.1/">
 <metadata id="metadata56">
  <rdf:RDF>
   <cc:Work rdf:about="">
    <dc:format>image/svg+xml</dc:format>
    <dc:type rdf:resource="http://purl.org/dc/dcmitype/StillImage"/>
    <dc:title/>
   </cc:Work>
  </rdf:RDF>
 </metadata>
 <defs id="defs3451">
  <linearGradient id="linearGradient3514" y2="-9.1034" gradientUnits="userSpaceOnUse" x2="66.492" gradientTransform="matrix(.96826 0 0 .97948 2.179 .16587)" y1="-42.638" x1="67.952">
   <stop id="stop4620" style="stop-color:#37414b" offset="0"/>
   <stop id="stop4622" style="stop-color:#37414b;stop-opacity:0" offset="1"/>
  </linearGradient>
  <linearGradient id="linearGradient3516" y2="-11.847" gradientUnits="userSpaceOnUse" x2="58.98" gradientTransform="matrix(.96826 0 0 .97948 2.179 .16587)" y1="-118.55" x1="57.173">
   <stop id="stop4596" offset="0"/>
   <stop id="stop4598" style="stop-opacity:0" offset="1"/>
  </linearGradient>
  <linearGradient id="linearGradient3519" y2="50.369" gradientUnits="userSpaceOnUse" x2="76.558" gradientTransform="matrix(.96826 0 0 .97948 3.2423 -129.19)" y1="13.164" x1="76.558">
   <stop id="stop3392" style="stop-color:#425e7b" offset="0"/>
   <stop id="stop3394" style="stop-color:#7a91a7" offset="1"/>
  </linearGradient>
  <linearGradient id="linearGradient3521" y2="-8.7399" gradientUnits="userSpaceOnUse" x2="60.217" gradientTransform="matrix(.96826 0 0 .97948 2.179 .16587)" y1="-123.72" x1="60.395">
   <stop id="stop3392-4-8" style="stop-color:#425e7b" offset="0"/>
   <stop id="stop3394-8-0" style="stop-color:#7a91a7" offset="1"/>
  </linearGradient>
  <linearGradient id="linearGradient4919-1" y2="39.267" gradientUnits="userSpaceOnUse" x2="6.2377" gradientTransform="matrix(0 1.9844 -1 0 47.134 1008.9)" y1="42.891" x1="6.221">
   <stop id="stop14782-0-9-0" style="stop-color:#d3ba00" offset="0"/>
   <stop id="stop14784-4-4-6" style="stop-color:#d3ba00;stop-opacity:0" offset="1"/>
  </linearGradient>
  <linearGradient id="linearGradient4921-6" y2="31.347" gradientUnits="userSpaceOnUse" x2="18.968" gradientTransform="matrix(.93474 0 0 1.1494 1006.3 -50.98)" y1="20.166" x1="16.965">
   <stop id="stop14863-9-5" style="stop-color:#fff" offset="0"/>
   <stop id="stop14865-2-6" style="stop-color:#fff;stop-opacity:0" offset="1"/>
  </linearGradient>
  <linearGradient id="linearGradient4923-8" y2="19.5" xlink:href="#linearGradient6215-9-1" gradientUnits="userSpaceOnUse" x2="27" gradientTransform="matrix(0 -.66667 -1 0 47.12 1046.8)" y1="19.5" x1="24"/>
  <linearGradient id="linearGradient6215-9-1">
   <stop id="stop6217-1-3" style="stop-color:#cfb900" offset="0"/>
   <stop id="stop6219-1-9" style="stop-color:#e2d44d" offset="0.21"/>
   <stop id="stop6221-4-9" style="stop-color:#9a8b00" offset="0.84"/>
   <stop id="stop6223-8-3" style="stop-color:#cfb900" offset="1"/>
  </linearGradient>
  <linearGradient id="linearGradient4926-9" y2="19.5" xlink:href="#linearGradient6215-9-1" gradientUnits="userSpaceOnUse" x2="4.3284" gradientTransform="matrix(-.66667 0 0 -1 34.454 1034.8)" y1="19.5" x1="8"/>
  <linearGradient id="linearGradient4928-5" y2="11.5" xlink:href="#linearGradient6215-9-1" gradientUnits="userSpaceOnUse" x2="4.7127" gradientTransform="matrix(-.66667 0 0 -1 25.454 1034.8)" y1="11.5" x1="12.647"/>
  <linearGradient id="linearGradient4930-5" y2="19.5" xlink:href="#linearGradient6215-9-1" gradientUnits="userSpaceOnUse" x2="4.3284" gradientTransform="matrix(0 .66667 -1 0 47.12 1008.5)" y1="19.5" x1="8"/>
  <radialGradient id="radialGradient4513-1" gradientUnits="userSpaceOnUse" cy="3.99" cx="23.896" gradientTransform="matrix(0 1.2316 -1.6257 0 18.487 -28.721)" r="20.397">
   <stop id="stop2778-5" style="stop-color:#8badea" offset="0"/>
   <stop id="stop2780-5" style="stop-color:#6396cd" offset=".26238"/>
   <stop id="stop2782-6" style="stop-color:#3b7caf" offset=".66094"/>
   <stop id="stop2784-3" style="stop-color:#194c70" offset="1"/>
  </radialGradient>
  <linearGradient id="linearGradient4515-6" y2="3.0816" gradientUnits="userSpaceOnUse" x2="18.379" gradientTransform="matrix(.51604 0 0 .51604 -.38499 -.38499)" y1="44.98" x1="18.379">
   <stop id="stop2788-7" style="stop-color:#1f4b6a" offset="0"/>
   <stop id="stop2790-7" style="stop-color:#4083c2" offset="1"/>
  </linearGradient>
  <linearGradient id="linearGradient4517-5" y2="5.4676" gradientUnits="userSpaceOnUse" x2="63.397" gradientTransform="matrix(1.0863 0 0 1.0862 -55.567 15.814)" y1="-12.489" x1="63.397">
   <stop id="stop4875-7" style="stop-color:#fff" offset="0"/>
   <stop id="stop4877-0" style="stop-color:#fff;stop-opacity:0" offset="1"/>
  </linearGradient>
  <radialGradient id="radialGradient51755" gradientUnits="userSpaceOnUse" cy="45.647" cx="42.148" gradientTransform="matrix(.94690 0 0 1.139 3.5954 -29.89)" r="58.984">
   <stop id="stop14983-1-3" style="stop-color:#628430" offset="0"/>
   <stop id="stop14985-7-0" style="stop-color:#364d17" offset="1"/>
  </radialGradient>
 </defs>
 <rect id="rect892-2-7-2" ry="29.452" style="stroke:#d3d3d3;stroke-width:9.8448;fill:#37414b" transform="scale(1,-1)" height="116.16" width="116.08" y="-122.08" x="5.9224"/>
 <rect id="rect892" style="stroke:url(#linearGradient3521);stroke-width:.97385;fill:url(#linearGradient3519)" transform="scale(1,-1)" ry="29.296" height="115.54" width="114.22" y="-122.25" x="7.0394"/>
 <rect id="rect892-2" style="stroke:url(#linearGradient3516);stroke-width:.97385;fill:url(#linearGradient3514)" transform="scale(1,-1)" ry="28.993" height="114.35" width="114.22" y="-121.46" x="7.0599"/>
 <path id="rect895" style="fill:url(#radialGradient51755)" d="m33.051 7.2596c-7.969-2.4493-27.013 15.174-25.653 23.038-0.050142 0.97378-0.088772 1.9648-0.088772 2.9572v52.419c0 20.876 10.712 33.859 22.318 33.859h67.038c12.638 0 24.318-11.245 24.318-25.859v-64.017c0.7-10.928-21.283-24.659-25.926-22.618-47.846 0.8653-18.017 0.2236-62.003 0.2236z"/>
 <rect id="rect892-2-7-8" style="opacity:.15891;stroke:#000;stroke-width:4.8445;fill:none" transform="scale(1,-1)" ry="28.993" height="114.35" width="114.22" y="-121.16" x="6.8687"/>
 <rect id="rect892-2-7-1" style="opacity:.15891;stroke:#000;stroke-width:7.7512;fill:none" transform="scale(1,-1)" ry="28.993" height="114.35" width="114.22" y="-121.16" x="6.8687"/>
 <rect id="rect892-2-7-2-9" ry="28.067" style="stroke:#000;stroke-width:1.0489;fill:none" transform="scale(1,-1)" height="112.71" width="114.14" y="-120.31" x="7.0649"/>
 <path id="path1187" style="fill:#fff;fill-opacity:.057143" d="m33.017 7.2319c-23.707 0-26.027 0.6738-25.93 26.295-0.04334 0.71563-0.07674 1.4439-0.07674 2.1732v32.76c18.67-38.321 38.34-51.497 90.374-61.179-0.225-0.026-0.46-0.0303-0.691-0.0303-41.576 0.3874-25.652-0.0188-63.676-0.0188z"/>
 <g id="g4894" transform="matrix(2.5039 0 0 2.5062 2.4521 -2513.3)">
  <path id="path14957" style="color:#000000;stroke:#305526;stroke-width:.5;display:block;fill:none" d="m23.648 1030.8-0.5309 0.064-1.8922 2.4244h-4.6038v-17.059h-3.9332"/>
  <path id="path14826" style="color:#000000;stroke:#305526;stroke-width:.5;display:block;fill:none" d="m4.1595 1021.3 5.645 0.055 2.7914 1.901v14.009l2.0245 2.0442 3.0336 0.044 5.9613-8.0431-0.047 8.11 3.9897-0.1875v-8.9375"/>
  <path id="path14842" style="color:#000000;stroke:#305526;stroke-width:.5;display:block;fill:none" d="m4.1595 1025.3 5.7807 0.055 2.6665 1.9009"/>
  <path id="path14844" style="color:#000000;stroke:#305526;stroke-width:.5;display:block;fill:none" d="m4.1595 1028.3 5.7807 0.055 2.6665 1.9009"/>
  <path id="path14846" style="color:#000000;stroke:#305526;stroke-width:.5;display:block;fill:none" d="m4.1595 1031.4 5.7807 0.055 2.6665 1.9009"/>
  <path id="path14796" style="color:#000000;display:block;fill:url(#linearGradient4919-1)" d="m7.5268 1021.5c-0.1242-0.5651-0.6639-0.7188-0.9063-0.7188h-4.4062v2h4.4062c0.277 0 0.9063-0.2003 0.9063-1 0-0.098 0.018-0.2005 0-0.2812zm0 3c-0.1242-0.5651-0.6639-0.7188-0.9063-0.7188h-4.4062v2h4.4062c0.277 0 0.9063-0.2003 0.9063-1 0-0.098 0.018-0.2005 0-0.2812zm0 3.0312c-0.1242-0.5651-0.6639-0.75-0.9063-0.75h-4.4062v2h4.4062c0.277 0 0.9063-0.2003 0.9063-1 0-0.098 0.018-0.1693 0-0.25zm0 3c-0.1242-0.5651-0.6639-0.75-0.9063-0.75h-4.4062v2h4.4062c0.277 0 0.9063-0.2003 0.9063-1 0-0.098 0.018-0.1693 0-0.25zm0 3c-0.1242-0.5651-0.6639-0.75-0.9063-0.75h-4.4062v2h4.4062c0.277 0 0.9063-0.2003 0.9063-1 0-0.098 0.018-0.1693 0-0.25z"/>
  <path id="path15029" style="color:#000000;stroke:#305526;stroke-width:.5;display:block;fill:none" d="m27.62 1012.3-1.0625-2.9687h-1.875-10.062l-0.063 7"/>
  <rect id="rect14857" style="color:#000000;stroke:#2e3436;display:block;fill:#555753" rx=".94194" transform="rotate(90)" ry=".94194" width="16.056" y="-29.617" x="1013.3" height="7.9305"/>
  <rect id="rect14859" style="opacity:.17045;color:#000000;stroke:url(#linearGradient4921-6);display:block;fill:none" rx="0" transform="rotate(90)" ry="0" width="14.116" y="-28.61" x="1014.2" height="5.8817"/>
  <path id="path15031" style="color:#000000;stroke:#305526;stroke-width:.5;display:block;fill:none" d="m25.62 1012.3-1.0625-2.9844"/>
  <path id="path15033" style="color:#000000;stroke:#305526;stroke-width:.5;display:block;fill:#98a332" d="m23.62 1012.3-1.5-3"/>
  <path id="rect14875" style="color:#000000;display:block;fill:url(#linearGradient4923-8)" d="m28.12 1028.8h-1v2h1v-2zm-2 0h-1v2h1v-2zm-2 0h-1v2h1v-2z"/>
  <path id="rect14901" style="color:#000000;display:block;fill:url(#linearGradient4926-9)" d="m31.12 1014.8h-2v1h2v-1zm0 2h-2v1h2v-1zm0 2h-2v1h2v-1zm0 2h-2v1h2v-1zm0 2h-2v1h2v-1zm0 2h-2v1h2v-1zm0 2h-2v1h2v-1z"/>
  <path id="path14959" style="color:#000000;stroke:#305526;stroke-width:.5;display:block;fill:none" d="m20.26 1015.3-3.6391 1.0606v1.9446l3.6391-1.0607"/>
  <path id="path14961" style="color:#000000;stroke:#305526;stroke-width:.5;display:block;fill:none" d="m20.26 1019.3-3.6391 1.0606v1.9446l3.6391-1.0607"/>
  <path id="path14963" style="color:#000000;stroke:#305526;stroke-width:.5;display:block;fill:none" d="m20.36 1023.3-3.7391 1.0606v1.9446l3.7391-1.0607"/>
  <path id="path14965" style="color:#000000;stroke:#305526;stroke-width:.5;display:block;fill:none" d="m20.338 1027.3-3.7171 1.0606"/>
  <path id="rect14929" style="color:#000000;display:block;fill:url(#linearGradient4928-5)" d="m22.12 1014.8h-2v1h2v-1zm0 2h-2v1h2v-1zm0 2h-2v1h2v-1zm0 2h-2v1h2v-1zm0 2h-2v1h2v-1zm0 2h-2v1h2v-1zm0 2h-2v1h2v-1z"/>
  <path id="path15005" style="stroke-linejoin:round;color:#000000;stroke:#334560;stroke-linecap:round;stroke-width:.5;display:block;fill:#477ec5" d="m28.12 1041.3a1.4857 1.4857 0 1 1 0 -2.9714 1.4857 1.4857 0 1 1 0 2.9714z"/>
  <path id="path15007" style="stroke-linejoin:round;color:#000000;stroke:#334560;stroke-linecap:round;stroke-width:.5;display:block;fill:#477ec5" d="m23.135 1041.3a1.4857 1.4857 0 1 1 0 -2.9714 1.4857 1.4857 0 1 1 0 2.9714z"/>
  <path id="path15009" style="stroke-linejoin:round;color:#000000;stroke:#334560;stroke-linecap:round;stroke-width:.5;display:block;fill:#477ec5" d="m18.106 1041.3a1.4857 1.4857 0 1 1 0 -2.9714 1.4857 1.4857 0 1 1 0 2.9714z"/>
  <path id="path14848" style="color:#000000;stroke:#305526;stroke-width:.5;display:block;fill:none" d="m4.1595 1034.3 5.7807 0.055 2.6665 1.9009"/>
  <path id="rect14869" style="color:#000000;display:block;fill:url(#linearGradient4930-5)" d="m28.12 1011.8h-1v2h1v-2zm-2 0h-1v2h1v-2zm-2 0h-1v2h1v-2z"/>
 </g>
 <g id="layer1-3" transform="matrix(2.5039 0 0 2.5062 69.754 69.84)">
  <path id="path2555" style="stroke-linejoin:round;stroke:url(#linearGradient4515-6);stroke-linecap:round;stroke-width:1.0037;fill:url(#radialGradient4513-1)" d="m12 1.5018c-5.7926 0-10.498 4.7057-10.498 10.498 0 5.7926 4.7057 10.498 10.498 10.498 5.7926 0 10.498-4.7057 10.498-10.498 0-5.7926-4.7057-10.498-10.498-10.498z"/>
  <path id="path2463" style="opacity:.4;stroke:url(#linearGradient4517-5);fill:none" d="m21.5 12c0 5.2469-4.2536 9.5003-9.4999 9.5003-5.2468 0-9.5001-4.2535-9.5001-9.5003 0-5.2466 4.2534-9.4997 9.5001-9.4997 5.2463 0 9.4999 4.253 9.4999 9.4997z"/>
  <path id="text3482" style="opacity:.2" d="m9 10.851c0.13386 0.36388 0.28452 0.65884 0.60545 0.25553 0.39788-0.23673 1.731-1.2744 1.5976-0.25798-0.42688 1.8808-0.94648 3.7418-1.3438 5.6285-0.41543 1.033 0.52793 1.9674 1.5129 1.2956 1.0469-0.43158 1.9478-1.1346 2.8681-1.7794-0.12558-0.30796-0.20927-0.75035-0.55625-0.34761-0.4556 0.20679-1.4507 1.1817-1.6355 0.37762 0.3827-2.0366 1.0918-3.9978 1.545-6.0181 0.417-0.9285-0.265-2.1023-1.284-1.3339-1.222 0.5321-2.243 1.4009-3.31 2.1799zm4.534-6.8494c-1.247-0.0661-1.898 1.9431-0.714 2.4929 0.961 0.3941 2.007-0.5915 1.773-1.5763-0.073-0.5128-0.534-0.9339-1.059-0.9166h-0.000001z"/>
  <path id="path3536" style="fill:#fff" d="m9 11.851c0.13386 0.36388 0.28452 0.65884 0.60545 0.25553 0.39788-0.23673 1.731-1.2744 1.5976-0.25798-0.42688 1.8808-0.94648 3.7418-1.3438 5.6285-0.41543 1.033 0.52793 1.9674 1.5129 1.2956 1.0469-0.43158 1.9478-1.1346 2.8681-1.7794-0.12558-0.30796-0.20927-0.75035-0.55625-0.34761-0.4556 0.20679-1.4507 1.1817-1.6355 0.37762 0.3827-2.0366 1.0918-3.9978 1.545-6.0181 0.417-0.929-0.265-2.1023-1.284-1.3339-1.222 0.5319-2.243 1.4009-3.31 2.1799zm4.5338-6.8497c-1.2464-0.066145-1.8981 1.9431-0.71361 2.4929 0.96093 0.39409 2.0072-0.59147 1.7725-1.5763-0.073-0.5125-0.534-0.9336-1.059-0.9163h-0.000001z"/>
 </g>
</svg>
