<?xml version="1.0" encoding="UTF-8" standalone="no"?>
<!-- Created with Inkscape (http://www.inkscape.org/) -->
<svg id="svg3449" xmlns:rdf="http://www.w3.org/1999/02/22-rdf-syntax-ns#" xmlns="http://www.w3.org/2000/svg" height="128" width="128" version="1.0" xmlns:cc="http://creativecommons.org/ns#" xmlns:xlink="http://www.w3.org/1999/xlink" xmlns:dc="http://purl.org/dc/elements/1.1/">
 <metadata id="metadata56">
  <rdf:RDF>
   <cc:Work rdf:about="">
    <dc:format>image/svg+xml</dc:format>
    <dc:type rdf:resource="http://purl.org/dc/dcmitype/StillImage"/>
    <dc:title/>
   </cc:Work>
  </rdf:RDF>
 </metadata>
 <defs id="defs3451">
  <linearGradient id="linearGradient3514" y2="-9.1034" gradientUnits="userSpaceOnUse" x2="66.492" gradientTransform="matrix(.96826 0 0 .97948 2.179 .16587)" y1="-42.638" x1="67.952">
   <stop id="stop4620" style="stop-color:#37414b" offset="0"/>
   <stop id="stop4622" style="stop-color:#37414b;stop-opacity:0" offset="1"/>
  </linearGradient>
  <linearGradient id="linearGradient3516" y2="-11.847" gradientUnits="userSpaceOnUse" x2="58.98" gradientTransform="matrix(.96826 0 0 .97948 2.179 .16587)" y1="-118.55" x1="57.173">
   <stop id="stop4596" offset="0"/>
   <stop id="stop4598" style="stop-opacity:0" offset="1"/>
  </linearGradient>
  <linearGradient id="linearGradient3519" y2="50.369" gradientUnits="userSpaceOnUse" x2="76.558" gradientTransform="matrix(.96826 0 0 .97948 3.2423 -129.19)" y1="13.164" x1="76.558">
   <stop id="stop3392" style="stop-color:#425e7b" offset="0"/>
   <stop id="stop3394" style="stop-color:#7a91a7" offset="1"/>
  </linearGradient>
  <linearGradient id="linearGradient3521" y2="-8.7399" gradientUnits="userSpaceOnUse" x2="60.217" gradientTransform="matrix(.96826 0 0 .97948 2.179 .16587)" y1="-123.72" x1="60.395">
   <stop id="stop3392-4-8" style="stop-color:#425e7b" offset="0"/>
   <stop id="stop3394-8-0" style="stop-color:#7a91a7" offset="1"/>
  </linearGradient>
  <radialGradient id="radialGradient3349" gradientUnits="userSpaceOnUse" cy="45.647" cx="42.148" gradientTransform="matrix(.94690 0 0 1.139 3.5954 -29.89)" r="58.984">
   <stop id="stop8006" style="stop-color:#ef916b" offset="0"/>
   <stop id="stop8008" style="stop-color:#db4916" offset="1"/>
  </radialGradient>
  <filter id="filter3174-1" color-interpolation-filters="sRGB">
   <feGaussianBlur id="feGaussianBlur3176-0" stdDeviation="1.71"/>
  </filter>
  <linearGradient id="ButtonShadow-9" x1="45.448" gradientUnits="userSpaceOnUse" y1="92.54" gradientTransform="scale(1.0059 .99417)" x2="45.448" y2="7.0165">
   <stop id="stop3750-6" offset="0"/>
   <stop id="stop3752-7" style="stop-opacity:.58824" offset="1"/>
  </linearGradient>
  <filter id="filter3174-9" color-interpolation-filters="sRGB">
   <feGaussianBlur id="feGaussianBlur3176-5" stdDeviation="1.71"/>
  </filter>
  <linearGradient id="linearGradient4238-5" y2="25" gradientUnits="userSpaceOnUse" x2="25" y1="57" x1="25">
   <stop id="stop3624-6-9-7-3-1" style="stop-color:#ba4712" offset="0"/>
   <stop id="stop3856-8-7-9-7-0" style="stop-color:#cf671c" offset=".5"/>
   <stop id="stop3626-0-8-7-8-5" style="stop-color:#e27f39" offset="1"/>
  </linearGradient>
  <linearGradient id="linearGradient4589-1">
   <stop id="stop4591-7" style="stop-color:#6e6e6e" offset="0"/>
   <stop id="stop4593-8" style="stop-color:#333" offset="1"/>
  </linearGradient>
  <filter id="filter3174-6" color-interpolation-filters="sRGB">
   <feGaussianBlur id="feGaussianBlur3176-1" stdDeviation="1.71"/>
  </filter>
  <radialGradient id="radialGradient40761" xlink:href="#linearGradient4589-1" gradientUnits="userSpaceOnUse" cy="973.21" cx="123.25" gradientTransform="matrix(-.93053 0 0 3.1985 205.44 -3059.3)" r="5"/>
  <radialGradient id="radialGradient40768" xlink:href="#linearGradient4589-1" gradientUnits="userSpaceOnUse" cy="973.69" cx="120.46" gradientTransform="matrix(.93053 0 0 3.1985 -77.441 -3059.3)" r="5"/>
  <linearGradient id="linearGradient40771" y2="1010.4" gradientUnits="userSpaceOnUse" x2="152" gradientTransform="matrix(.95156 0 0 .96201 -80.649 -874.61)" y1="953.36" x1="152">
   <stop id="stop5107-4" style="stop-color:#f5f5f5" offset="0"/>
   <stop id="stop5109-4" style="stop-color:#ebebeb" offset="1"/>
  </linearGradient>
  <linearGradient id="linearGradient40774" y2="938.9" spreadMethod="reflect" gradientUnits="userSpaceOnUse" x2="180.72" gradientTransform="matrix(.93053 0 0 .94075 -77.441 -857.08)" y1="938.9" x1="145.69">
   <stop id="stop4269-4" style="stop-color:#6e6e6e" offset="0"/>
   <stop id="stop4271-7" style="stop-color:#333" offset="1"/>
  </linearGradient>
 </defs>
 <rect id="rect892-2-7-2" ry="29.452" style="stroke:#d3d3d3;stroke-width:9.8448;fill:#37414b" transform="scale(1,-1)" height="116.16" width="116.08" y="-122.08" x="5.9224"/>
 <rect id="rect892" style="stroke:url(#linearGradient3521);stroke-width:.97385;fill:url(#linearGradient3519)" transform="scale(1,-1)" ry="29.296" height="115.54" width="114.22" y="-122.25" x="7.0394"/>
 <rect id="rect892-2" style="stroke:url(#linearGradient3516);stroke-width:.97385;fill:url(#linearGradient3514)" transform="scale(1,-1)" ry="28.993" height="114.35" width="114.22" y="-121.46" x="7.0599"/>
 <path id="rect895" style="fill:url(#radialGradient3349)" d="m30.571 7.0104c-13.128 0.936-22.55 15.04-23.173 23.288-0.050142 0.97378-0.088772 1.9648-0.088772 2.9572v58.419c0 15.229 11.191 27.859 22.318 27.859h67.038c15.69 0 24.318-16.445 24.318-25.859v-64.017c-0.21-5.933-12.29-21.682-25.926-22.618-47.846 0.8653-20.497-0.0256-64.483-0.0256z"/>
 <rect id="rect892-2-7-8" style="opacity:.15891;stroke:#000;stroke-width:4.8445;fill:none" transform="scale(1,-1)" ry="28.993" height="114.35" width="114.22" y="-121.16" x="6.8683"/>
 <rect id="rect892-2-7-1" style="opacity:.15891;stroke:#000;stroke-width:7.7512;fill:none" transform="scale(1,-1)" ry="28.993" height="114.35" width="114.22" y="-121.16" x="6.8686"/>
 <rect id="rect892-2-7-2-9" ry="28.067" style="stroke:#000;stroke-width:1.0489;fill:none" transform="scale(1,-1)" height="112.71" width="114.14" y="-120.31" x="7.0644"/>
 <path id="path1187" style="fill:#fff;fill-opacity:.057143" d="m37.509 10.721c-14.891-4.3296-32.78 19.454-27.93 26.295-0.04334 0.71563-0.07674 1.4439-0.07674 2.1732v10.76c25.898-25.61 66.753-35.478 90.374-39.178-0.22473-0.02628-0.45986-0.03062-0.69067-0.03062-41.576 0.38742-23.653-0.01876-61.677-0.01875z"/>
 <g id="layer2" style="display:none" transform="translate(187.88 23.742)">
  <rect id="rect3745" style="opacity:.9;filter:url(#filter3174-1);fill:url(#ButtonShadow-9)" rx="6" ry="6" height="85" width="86" y="7" x="5"/>
 </g>
 <g id="layer2-2" style="display:none" transform="matrix(1.2166 0 0 1.2299 5.6049 3.1187)">
  <rect id="rect3745-5" style="opacity:.9;filter:url(#filter3174-9);fill:url(#ButtonShadow-9)" rx="6" ry="6" height="85" width="86" y="7" x="5"/>
 </g>
 <path id="path3397-3-2-5" style="opacity:.05;color:#000000;fill:url(#linearGradient4238-5)" d="m23.625 22.125a3.6626 3.6626 0 0 0 -2.7188 1.6875l-2.5 3.875-4.5312-1a3.6626 3.6626 0 0 0 -4.3438 4.375l1 4.4062-3.9062 2.4375a3.6626 3.6626 0 0 0 0 6.1875l3.9062 2.4375-1 4.4062a3.6626 3.6626 0 0 0 4.3438 4.375l4.5312-1 2.5 3.875a3.6626 3.6626 0 0 0 6.1875 0l2.5-3.875 4.5312 1a3.6626 3.6626 0 0 0 4.3438 -4.375l-1-4.4062 3.9062-2.4375a3.6626 3.6626 0 0 0 0 -6.1875l-3.9062-2.4375 1-4.4062a3.6626 3.6626 0 0 0 -4.344 -4.374l-4.5312 1-2.5-3.875a3.6626 3.6626 0 0 0 -3.469 -1.688zm0.375 15.094c0.2413 0.29026 0.47719 0.58429 0.71875 0.875a3.6626 3.6626 0 0 0 -0.719 1.312 3.6626 3.6626 0 0 0 -0.719 -1.312c0.242-0.291 0.478-0.585 0.719-0.875z" transform="translate(0,-16)"/>
 <g id="layer2-8" style="display:none" transform="matrix(1.2166 0 0 1.2299 162.3 9.178)">
  <rect id="rect3745-8" style="opacity:.9;filter:url(#filter3174-6);fill:url(#ButtonShadow-9)" rx="6" ry="6" height="85" width="86" y="7" x="5"/>
 </g>
 <path id="path4542" style="opacity:.05" d="m71.109 41.285c-0.003 0.000235-0.22515 0.03792-0.22811 0.03843-0.0029 0.000519-0.22521 0.03764-0.22811 0.03843-0.0029 0.000799-0.2253 0.0758-0.22811 0.07687-0.0028 0.0011-0.18739 0.07554-0.19009 0.07687-0.0027 0.0014-0.18753 0.11372-0.19009 0.1153-0.0026 0.0016-0.18769 0.11348-0.19009 0.11531-0.0024 0.0018-0.18787 0.1517-0.19009 0.15374-0.0022 0.0021-0.15005 0.1515-0.15207 0.15374-0.0021 0.0022-0.15027 0.18975-0.15207 0.19218-0.0018 0.0025-0.11248 0.18959-0.11405 0.19218-0.0016 0.0026-0.11274 0.18945-0.11405 0.19218-0.0013 0.0027-0.07498 0.18934-0.07603 0.19218-0.0011 0.0028-0.07525 0.22768-0.07604 0.23061-0.000789 0.003-0.03751 0.22762-0.03802 0.23061-0.000511 0.003-0.03779 0.22759-0.03802 0.23061-0.000192 0.0025 0.0015 0.13925 0 0.19218-0.000294 0.01058-0.000008 0.03793 0 0.03843v36.898h-9.8086v-22.177c0.000023-0.0016 0.000056-0.11369 0-0.11531-0.000056-0.0016 0.000135-0.11371 0-0.1153-0.000135-0.0016-0.0378-0.11372-0.03802-0.1153-0.000214-0.0016 0.000293-0.11373 0-0.11531-0.000293-0.0016-0.03765-0.11374-0.03802-0.1153-0.000371-0.0016-0.03757-0.11377-0.03802-0.11531-0.000448-0.0016 0.000523-0.11379 0-0.1153-0.000524-0.0015-0.07544-0.11382-0.07604-0.1153-0.000597-0.0015-0.03735-0.11386-0.03802-0.11531-0.000671-0.0015-0.03728-0.11389-0.03802-0.1153-0.000741-0.0015-0.07522-0.07549-0.07603-0.07687-0.000811-0.0014-0.03714-0.11396-0.03802-0.1153-0.000878-0.0014-0.0751-0.11401-0.07603-0.1153-0.000943-0.0014-0.07503-0.07563-0.07604-0.07687-0.001-0.0012-0.07496-0.07568-0.07603-0.07687-0.0011-0.0012-0.07492-0.11417-0.07604-0.1153-0.0011-0.0011-0.11287-0.07579-0.11405-0.07687-0.0012-0.0011-0.07481-0.07585-0.07603-0.07687-0.0012-0.001-0.07476-0.07592-0.07604-0.07687-0.0013-0.000953-0.11273-0.07598-0.11405-0.07687-0.0013-0.000888-0.11269-0.03761-0.11405-0.03843-0.0013-0.000819-0.07464-0.07612-0.07604-0.07687-0.0015-0.000749-0.11262-0.03776-0.11405-0.03843-0.0015-0.000678-0.11258-0.03783-0.11405-0.03843-0.0015-0.000604-0.11256-0.07634-0.11405-0.07687-0.0015-0.000528-0.11253 0.000453-0.11405 0-0.0016-0.000452-0.11251-0.03807-0.11405-0.03843-0.0016-0.000375-0.1125-0.03814-0.11405-0.03843-0.0016-0.000296-0.11248 0.000217-0.11405 0-0.0016-0.000216-0.11247-0.0383-0.11405-0.03843-0.0016-0.000136-0.11246 0.000057-0.11405 0-0.0016-0.000057-0.11246-0.000023-0.11405 0h-1.1405l5.3225-11.261c0.000897-0.0018 0.07526-0.11342 0.07603-0.11531 0.00078-0.0018 0.03736-0.15182 0.03802-0.15374 0.000661-0.002 0.03748-0.15178 0.03802-0.15374 0.000539-0.002 0.0376-0.15175 0.03802-0.15374 0.000415-0.002 0.03773-0.11329 0.03802-0.11531 0.00029-0.002-0.000163-0.15171 0-0.15374 0.000163-0.002-0.000035-0.1517 0-0.15374 0.000035-0.0021 0.000092-0.15171 0-0.15374-0.000092-0.0021 0.000219-0.15172 0-0.15374-0.000219-0.002-0.03768-0.15173-0.03802-0.15374-0.000345-0.002 0.000471-0.15176 0-0.15374-0.00047-0.002-0.03742-0.1518-0.03802-0.15374-0.000594-0.002-0.07532-0.15184-0.07604-0.15374-0.000714-0.0018-0.03719-0.11345-0.03802-0.11531-0.000832-0.0018-0.07509-0.15194-0.07604-0.15374-0.000946-0.0018-0.07498-0.11357-0.07603-0.11531-0.0011-0.0017-0.07487-0.15208-0.07604-0.15374-0.0012-0.0017-0.07477-0.11372-0.07603-0.11531-0.0012-0.0016-0.11269-0.1138-0.11405-0.1153-0.0013-0.0015-0.11259-0.11389-0.11405-0.1153-0.0015-0.0014-0.11252-0.07555-0.11405-0.07687-0.0016-0.0014-0.11244-0.11409-0.11405-0.1153-0.0016-0.0012-0.11236-0.07576-0.11405-0.07687-0.0017-0.0011-0.15031-0.07587-0.15207-0.07687-0.0017-0.000996-0.11224-0.07598-0.11405-0.07687-0.0018-0.000882-0.1502-0.03767-0.15207-0.03843-0.0018-0.000764-0.11214-0.07623-0.11405-0.07687-0.0019-0.000642-0.15012-0.03792-0.15207-0.03844-0.0019-0.000519-0.15009-0.03804-0.15207-0.03843-0.0019-0.000392-0.15007 0.000266-0.15207 0-0.0019-0.000265-0.15006-0.0383-0.15207-0.03843-0.0021-0.000136-0.15006 0.000009-0.15207 0h-16.652c-0.0016-0.000023-0.11246-0.000056-0.11405 0-0.0016 0.000057-0.11247-0.000136-0.11405 0-0.0016 0.000137-0.11248 0.03821-0.11405 0.03843-0.0016 0.000217-0.1125-0.000296-0.11405 0-0.0016 0.000297-0.11251 0.03805-0.11405 0.03843-0.0016 0.000376-0.11253 0.03798-0.11405 0.03844-0.0016 0.000452-0.11256-0.000529-0.11405 0-0.0015 0.000528-0.11258 0.07627-0.11405 0.07687-0.0015 0.000604-0.11262 0.03776-0.11405 0.03843-0.0015 0.000678-0.11264 0.03769-0.11405 0.03843-0.0015 0.000749-0.07467 0.07605-0.07604 0.07687-0.0013 0.00082-0.11273 0.03755-0.11405 0.03844-0.0013 0.000888-0.11278 0.07591-0.11405 0.07687-0.0013 0.000953-0.07481 0.07585-0.07604 0.07687-0.0012 0.001-0.07485 0.07579-0.07603 0.07687-0.0012 0.0011-0.11293 0.07574-0.11405 0.07687-0.0011 0.0011-0.07496 0.11411-0.07604 0.1153-0.0011 0.0012-0.07502 0.07563-0.07603 0.07687-0.001 0.0012-0.07509 0.07558-0.07604 0.07687-0.000943 0.0014-0.07516 0.11396-0.07603 0.1153-0.000879 0.0014-0.0372 0.11393-0.03802 0.11531-0.00081 0.0014-0.07529 0.07545-0.07603 0.07687-0.000741 0.0015-0.03735 0.11385-0.03802 0.1153-0.00067 0.0015-0.03742 0.11382-0.03802 0.11531-0.000597 0.0015-0.07551 0.11379-0.07603 0.1153-0.000523 0.0015 0.000448 0.11377 0 0.11531-0.000448 0.0016-0.03764 0.11374-0.03802 0.1153-0.000371 0.0016-0.03773 0.11373-0.03802 0.1153-0.000293 0.0016 0.000214 0.11372 0 0.11531-0.000214 0.0016-0.03788 0.11371-0.03802 0.1153-0.000135 0.0016 0.000056 0.11369 0 0.11531-0.000056 0.0016-0.000023 0.11369 0 0.1153l0.15207 35.975s-0.04408 4.3069 2.205 9.0323c2.2561 4.74 7.0347 9.9845 15.929 11.723 5.3136 1.0384 12.271 0.38967 18.058-0.46122 5.7719-0.84857 10.309-1.9525 10.341-1.9602 0.000514-0.000106 0.02616 0.003 0.03802 0 0.04981-0.01252 0.14996-0.03781 0.15207-0.03843 0.0026-0.000783 0.18755-0.07586 0.19009-0.07687 0.0026-0.001 0.18764-0.07565 0.19009-0.07687 0.0024-0.0012 0.18776-0.07544 0.19009-0.07687 0.0023-0.0015 0.14987-0.11368 0.15207-0.11531 0.0022-0.0016 0.18803-0.15193 0.19009-0.15374 0.0021-0.0018 0.11216-0.11332 0.11405-0.11531 0.0019-0.002 0.15035-0.1516 0.15207-0.15374 0.0017-0.0021 0.11252-0.18989 0.11405-0.19218 0.0016-0.0023 0.11271-0.15134 0.11405-0.15374 0.0013-0.0025 0.07492-0.18966 0.07604-0.19218 0.0011-0.0025 0.07512-0.18958 0.07603-0.19218 0.000908-0.0026 0.07535-0.18951 0.07604-0.19218 0.000684-0.0027 0.03757-0.18946 0.03802-0.19218 0.000455-0.0027 0.0378-0.22786 0.03802-0.23061 0.000222-0.0027 0.000011-0.18942 0-0.19218l-0.03802-51.964c0.000023-0.0016 0.000056-0.11369 0-0.1153-0.000056-0.0016 0.000135-0.11371 0-0.11531s-0.0378-0.11372-0.03802-0.1153c-0.000214-0.0016 0.000294-0.11373 0-0.11531-0.000293-0.0016-0.03765-0.11374-0.03802-0.1153-0.000371-0.0016-0.03757-0.11377-0.03802-0.1153-0.000448-0.0016 0.000523-0.11379 0-0.11531-0.000523-0.0015-0.07544-0.11382-0.07603-0.1153-0.000597-0.0015-0.03735-0.11385-0.03802-0.11531-0.00067-0.0015-0.03727-0.11389-0.03802-0.1153-0.000741-0.0015-0.07522-0.07549-0.07604-0.07687-0.00081-0.0014-0.03714-0.11396-0.03802-0.11531-0.000879-0.0014-0.07509-0.11401-0.07604-0.1153-0.000943-0.0014-0.07502-0.07563-0.07604-0.07687-0.001-0.0012-0.07496-0.07568-0.07603-0.07687-0.0011-0.0012-0.07492-0.11417-0.07604-0.1153-0.0011-0.0011-0.11287-0.07579-0.11405-0.07687-0.0012-0.0011-0.07481-0.07585-0.07604-0.07687-0.0012-0.001-0.07476-0.07591-0.07604-0.07687-0.0013-0.000953-0.11273-0.07599-0.11405-0.07687-0.0013-0.000888-0.11269-0.03761-0.11405-0.03844-0.0013-0.000819-0.07464-0.07612-0.07604-0.07687-0.0015-0.000749-0.11262-0.03776-0.11405-0.03843-0.0015-0.000678-0.11258-0.03783-0.11405-0.03843-0.0015-0.000604-0.11256-0.07634-0.11405-0.07687-0.0015-0.000529-0.11253 0.000452-0.11405 0-0.0016-0.000453-0.11251-0.03805-0.11405-0.03844-0.0016-0.000375-0.1125-0.03814-0.11405-0.03843-0.0016-0.000296-0.11248 0.000217-0.11405 0-0.0016-0.000216-0.11247-0.0383-0.11405-0.03843-0.0016-0.000136-0.11246 0.000057-0.11405 0-0.0016-0.000056-0.11246-0.000023-0.11405 0l-14.523-0.03843c-0.000587-0.000027-0.02395 0.000016-0.03802 0-0.05624-0.000065-0.14973-0.000109-0.15207 0a1.1413 1.1539 0 0 0 -0.03802 0z"/>
 <path id="path4538" style="opacity:.1" d="m71.299 42.438a1.2366 1.2502 0 0 0 -1.2546 1.2684v38.089h-12.09v-23.33a1.2366 1.2502 0 0 0 -1.253 -1.268h-2.9274l6.0828-12.914a1.2366 1.2502 0 0 0 -1.1025 -1.8065h-16.652a1.2366 1.2502 0 0 0 -1.2546 1.2684l0.15207 35.975s-0.03888 4.0578 2.091 8.5326 6.5771 9.4362 15.131 11.108c5.0321 0.98335 11.938 0.34421 17.678-0.49966 5.7399-0.84387 10.265-1.9218 10.265-1.9218a1.2366 1.2502 0 0 0 0.98846 -1.2299l-0.03802-51.964a1.2366 1.2502 0 0 0 -1.2546 -1.2684l-14.561-0.03843z"/>
 <path id="path4532" d="m42.102 43.763 0.157 35.973s-0.18921 15.197 16.201 18.4c9.4268 1.8421 27.438-2.4296 27.438-2.4296l-0.02461-51.944-14.574-0.0569v39.358h-14.599v-24.598h-4.8663l6.9093-14.702z" style="opacity:.3"/>
 <path id="path5380" style="opacity:.05;block-progression:tb;text-indent:0;color:#000000;text-transform:none" d="m63.913 20.051c-14.392 0-21.899 7.4526-25.212 14.758-1.9357 4.2685-2.5536 8.4088-2.7625 11.171-3.8167 2.6039-6.2811 8.5285-6.2811 15.464 0 4.5372 1.0726 8.647 2.8498 11.701 1.7772 3.0536 4.3451 5.1192 7.2989 5.1447a0.83671 0.8459 0 0 0 0.84329 -0.85255v-31.574-0.08815c0.22209-2.3629 0.80128-5.697 2.2972-8.9959 2.7571-6.0799 8.0929-11.965 20.966-11.965 12.87 0 18.214 5.9136 20.995 12.024 1.9003 4.1744 2.3432 8.3701 2.4426 10.613 0.000317 0.0075-0.000307 0.0223 0 0.02935v29.957a0.83671 0.8459 0 0 0 0.84329 0.85255c2.9537-0.02549 5.5217-2.0911 7.2989-5.1447s2.8498-7.1634 2.8498-11.701c0-6.9932-2.5221-12.956-6.3974-15.522-0.233-2.781-0.876-6.873-2.793-11.083-3.335-7.327-10.846-14.788-25.24-14.788z"/>
 <path id="path5367" d="m63.913 20.892c-14.111 0-21.249 7.1877-24.456 14.258-1.9448 4.2885-2.5524 8.545-2.7334 11.23-3.6241 2.204-6.2229 8.1-6.2229 15.052 0 8.805 4.1598 15.948 9.3053 15.993v-31.662c0.22268-2.4313 0.81814-5.8946 2.3845-9.3487 2.8479-6.2801 8.5892-12.465 21.722-12.465 13.131 0 18.88 6.2156 21.751 12.524 1.9742 4.3368 2.4294 8.6625 2.5299 10.966v29.986c5.1455-0.0444 9.3053-7.1877 9.3053-15.993 0-7.0293-2.6519-12.995-6.3392-15.14-0.206-2.713-0.841-6.893-2.762-11.112-3.229-7.094-10.371-14.288-24.484-14.288z" style="opacity:.15;block-progression:tb;text-indent:0;color:#000000;text-transform:none"/>
 <path id="path4798-5" d="m63.913 19.963c-14.111 0-21.249 7.1877-24.456 14.258-3.2063 7.0706-2.7916 14.052-2.7916 14.052l3.0242-0.14699s-0.3471-6.3612 2.5008-12.641c2.8479-6.2801 8.5892-12.465 21.722-12.465 13.131 0 18.88 6.2156 21.751 12.524 2.8716 6.3081 2.559 12.671 2.559 12.671l3.0242 0.17639s0.37956-7.0467-2.8498-14.141c-3.228-7.093-10.37-14.287-24.483-14.287z" style="block-progression:tb;text-indent:0;color:#000000;text-transform:none;fill:url(#linearGradient40774)"/>
 <path id="path4784-1" d="m42.102 42.533 0.157 35.973s-0.18921 15.197 16.201 18.4c9.4268 1.8421 27.438-2.4296 27.438-2.4296l-0.02461-51.944-14.574-0.0569v39.358h-14.599v-24.598h-4.8663l6.9093-14.702z" style="fill:url(#linearGradient40771)"/>
 <path id="path4786-4" d="m39.806 44.499c-5.1455 0.0444-9.3053 7.1877-9.3053 15.993 0 8.805 4.1598 15.948 9.3053 15.993v-31.985z" style="fill:url(#radialGradient40768)"/>
 <path id="path4790-9" style="opacity:.6;stroke-linejoin:round;stroke:#333;stroke-linecap:round;stroke-width:3.0137;fill:none" d="m29.141 74.428a13.004 19.786 0 0 1 0 -27.981"/>
 <path id="path4792-0" style="opacity:.4;stroke-linejoin:round;stroke:#333;stroke-linecap:round;stroke-width:3.0437;fill:none" d="m19.638 67.17a19.094 26.013 0 0 1 0 -13.465"/>
 <path id="path4794-1" style="opacity:.6;stroke-linejoin:round;stroke:#333;stroke-linecap:round;stroke-width:3.0137;fill:none" d="m98.859 74.428a13.004 19.786 0 0 0 0 -27.981"/>
 <path id="path4796-4" style="opacity:.4;stroke-linejoin:round;stroke:#333;stroke-linecap:round;stroke-width:3.0437;fill:none" d="m108.36 67.17a19.094 26.013 0 0 0 0 -13.465"/>
 <path id="path5344" d="m88.194 44.499c5.1455 0.0444 9.3053 7.1877 9.3053 15.993 0 8.805-4.1598 15.948-9.3053 15.993v-31.985z" style="fill:url(#radialGradient40761)"/>
 <path id="path4523" d="m71.299 42.476v1.2299l14.561 0.03843v-1.2299l-14.561-0.03844zm-29.198 0.03844v1.2299h16.081l0.57026-1.2299h-16.652zm10.303 14.721-0.57026 1.2299h4.8663v-1.2299h-4.296zm4.296 24.598v1.2299h14.599v-1.2299h-14.599z" style="fill:#fff"/>
</svg>
