<?xml version="1.0" encoding="UTF-8" standalone="no"?>
<!-- Created with Inkscape (http://www.inkscape.org/) -->
<svg id="svg3449" xmlns:rdf="http://www.w3.org/1999/02/22-rdf-syntax-ns#" xmlns="http://www.w3.org/2000/svg" height="128" width="128" version="1.0" xmlns:cc="http://creativecommons.org/ns#" xmlns:xlink="http://www.w3.org/1999/xlink" xmlns:dc="http://purl.org/dc/elements/1.1/">
 <metadata id="metadata56">
  <rdf:RDF>
   <cc:Work rdf:about="">
    <dc:format>image/svg+xml</dc:format>
    <dc:type rdf:resource="http://purl.org/dc/dcmitype/StillImage"/>
    <dc:title/>
   </cc:Work>
  </rdf:RDF>
 </metadata>
 <defs id="defs3451">
  <linearGradient id="linearGradient3514" y2="-9.1034" gradientUnits="userSpaceOnUse" x2="66.492" gradientTransform="matrix(.96826 0 0 .97948 2.179 .16587)" y1="-42.638" x1="67.952">
   <stop id="stop4620" style="stop-color:#37414b" offset="0"/>
   <stop id="stop4622" style="stop-color:#37414b;stop-opacity:0" offset="1"/>
  </linearGradient>
  <linearGradient id="linearGradient3516" y2="-11.847" gradientUnits="userSpaceOnUse" x2="58.98" gradientTransform="matrix(.96826 0 0 .97948 2.179 .16587)" y1="-118.55" x1="57.173">
   <stop id="stop4596" offset="0"/>
   <stop id="stop4598" style="stop-opacity:0" offset="1"/>
  </linearGradient>
  <linearGradient id="linearGradient3519" y2="50.369" gradientUnits="userSpaceOnUse" x2="76.558" gradientTransform="matrix(.96826 0 0 .97948 3.2423 -129.19)" y1="13.164" x1="76.558">
   <stop id="stop3392" style="stop-color:#425e7b" offset="0"/>
   <stop id="stop3394" style="stop-color:#7a91a7" offset="1"/>
  </linearGradient>
  <linearGradient id="linearGradient3521" y2="-8.7399" gradientUnits="userSpaceOnUse" x2="60.217" gradientTransform="matrix(.96826 0 0 .97948 2.179 .16587)" y1="-123.72" x1="60.395">
   <stop id="stop3392-4-8" style="stop-color:#425e7b" offset="0"/>
   <stop id="stop3394-8-0" style="stop-color:#7a91a7" offset="1"/>
  </linearGradient>
  <radialGradient id="radialGradient3349" gradientUnits="userSpaceOnUse" cy="45.647" cx="42.148" gradientTransform="matrix(.94690 0 0 1.139 3.5954 -29.89)" r="58.984">
   <stop id="stop2699-5" style="stop-color:#868686" offset="0"/>
   <stop id="stop2701-7" style="stop-color:#4a4a4a" offset="1"/>
  </radialGradient>
  <clipPath id="clipPath3613">
   <rect id="rect3615" style="fill:#fff" rx="6" ry="6" height="84" width="84" y="6" x="6"/>
  </clipPath>
  <filter id="filter3794" height="1.384" width="1.384" color-interpolation-filters="sRGB" y="-.192" x="-.192">
   <feGaussianBlur id="feGaussianBlur3796" stdDeviation="5.28"/>
  </filter>
  <linearGradient id="linearGradient3623" y2="138.66" gradientUnits="userSpaceOnUse" y1="20.221" x2="48" x1="48">
   <stop id="stop3739-0" style="stop-color:#fff" offset="0"/>
   <stop id="stop3741-2" style="stop-color:#fff;stop-opacity:0" offset="1"/>
  </linearGradient>
  <filter id="filter3174-5" color-interpolation-filters="sRGB">
   <feGaussianBlur id="feGaussianBlur3176-4" stdDeviation="1.71"/>
  </filter>
  <linearGradient id="ButtonShadow-4" x1="45.448" gradientUnits="userSpaceOnUse" y1="92.54" gradientTransform="scale(1.0059 .99417)" x2="45.448" y2="7.0165">
   <stop id="stop3750-3" offset="0"/>
   <stop id="stop3752-57" style="stop-opacity:.58824" offset="1"/>
  </linearGradient>
  <filter id="filter3174-0" color-interpolation-filters="sRGB">
   <feGaussianBlur id="feGaussianBlur3176-9" stdDeviation="1.71"/>
  </filter>
  <filter id="filter3174-7" color-interpolation-filters="sRGB">
   <feGaussianBlur id="feGaussianBlur3176-7" stdDeviation="1.71"/>
  </filter>
  <linearGradient id="linearGradient3979-3" x1="16" gradientUnits="userSpaceOnUse" y1="48" gradientTransform="matrix(0,1,-1,0,96,0)" x2="80" y2="48">
   <stop id="stop4283-9-18-8" style="stop-color:#1e1e1e" offset="0"/>
   <stop id="stop4285-8-1-3" style="stop-color:#505050" offset="1"/>
  </linearGradient>
 </defs>
 <rect id="rect892-2-7-2" ry="29.452" style="stroke:#d3d3d3;stroke-width:9.8448;fill:#37414b" transform="scale(1,-1)" height="116.16" width="116.08" y="-122.08" x="5.9224"/>
 <rect id="rect892" style="stroke:url(#linearGradient3521);stroke-width:.97385;fill:url(#linearGradient3519)" transform="scale(1,-1)" ry="29.296" height="115.54" width="114.22" y="-122.25" x="7.0394"/>
 <rect id="rect892-2" style="stroke:url(#linearGradient3516);stroke-width:.97385;fill:url(#linearGradient3514)" transform="scale(1,-1)" ry="28.993" height="114.35" width="114.22" y="-121.46" x="7.0599"/>
 <path id="rect895" style="fill:url(#radialGradient3349)" d="m30.571 7.0104c-13.128 0.936-22.55 15.04-23.173 23.288-0.050142 0.97378-0.088772 1.9648-0.088772 2.9572v58.419c0 15.229 11.191 27.859 22.318 27.859h67.038c15.69 0 24.318-16.445 24.318-25.859v-64.017c-0.21-5.933-12.29-21.682-25.926-22.618-47.846 0.8653-20.497-0.0256-64.483-0.0256z"/>
 <rect id="rect892-2-7-8" style="opacity:.15891;stroke:#000;stroke-width:4.8445;fill:none" transform="scale(1,-1)" ry="28.993" height="114.35" width="114.22" y="-121.16" x="6.8683"/>
 <rect id="rect892-2-7-1" style="opacity:.15891;stroke:#000;stroke-width:7.7512;fill:none" transform="scale(1,-1)" ry="28.993" height="114.35" width="114.22" y="-121.16" x="6.8686"/>
 <rect id="rect892-2-7-2-9" ry="28.067" style="stroke:#000;stroke-width:1.0489;fill:none" transform="scale(1,-1)" height="112.71" width="114.14" y="-120.31" x="7.0644"/>
 <path id="path1187" style="fill:#fff;fill-opacity:.057143" d="m32.415 6.0906c-14.891-4.3298-32.779 19.454-27.93 26.295-0.04334 0.71563-0.07674 1.4439-0.07674 2.1732v10.76c25.899-25.61 66.753-35.479 90.375-39.179-0.22473-0.02628-0.45986-0.03062-0.69067-0.03062-41.576 0.38742-23.653-0.01876-61.677-0.01875z"/>
 <g id="layer5" transform="matrix(1.2749 0 0 1.2634 3.2695 3.3707)">
  <rect id="rect3171" style="opacity:.3;filter:url(#filter3794);stroke:#fff;stroke-linecap:round;stroke-width:.5;fill:url(#linearGradient3623)" clip-path="url(#clipPath3613)" rx="12" ry="12" height="66" width="66" y="15" x="15"/>
 </g>
 <g id="layer4-6" transform="translate(16.465 17.28)">
  <path id="rect3186" style="color:#000000;fill:url(#linearGradient3979-3)" d="m80 48c0-2.216-1.784-4-4-4h-10c-2.216 0-4 1.784-4 4s1.784 4 4 4h10c2.216 0 4-1.784 4-4zm-8.188-19.812c0-1.0225-0.40403-2.029-1.1875-2.8125-1.5669-1.5669-4.0893-1.5669-5.6562 0l-7.0625 7.0625c-1.5669 1.5669-1.5669 4.0893 0 5.6562s4.0893 1.5669 5.6562 0l7.0625-7.0625c0.78347-0.78347 1.1875-1.8213 1.1875-2.8438zm0 39.625c0-1.0225-0.40403-2.0603-1.1875-2.8438l-7.0625-7.0625c-1.5669-1.5669-4.0893-1.5669-5.6562 0s-1.5669 4.0893 0 5.6562l7.0625 7.0625c1.5669 1.5669 4.0893 1.5669 5.6562 0 0.78347-0.78347 1.1875-1.79 1.1875-2.8125zm-19.812-47.813c0-2.216-1.784-4-4-4s-4 1.784-4 4v10c0 2.216 1.784 4 4 4s4-1.784 4-4v-10zm0 46c0-2.216-1.784-4-4-4s-4 1.784-4 4v10c0 2.216 1.784 4 4 4s4-1.784 4-4v-10zm-12.719-30.719c0-1.0225-0.40403-2.0603-1.1875-2.8438l-7.0625-7.0625c-1.5669-1.5669-4.0893-1.5669-5.6562 0s-1.5669 4.0893 0 5.6562l7.0625 7.0625c1.5669 1.5669 4.0893 1.5669 5.6562 0 0.78347-0.78347 1.1875-1.79 1.1875-2.8125zm0 25.438c0-1.0225-0.40403-2.029-1.1875-2.8125-1.5669-1.5669-4.0893-1.5669-5.6562 0l-7.0625 7.0625c-1.5669 1.5669-1.5669 4.0893 0 5.6562s4.0893 1.5669 5.6562 0l7.0625-7.0625c0.78347-0.78347 1.1875-1.8213 1.1875-2.8438zm-5.281-12.719c0-2.216-1.784-4-4-4h-10c-2.216 0-4 1.784-4 4s1.784 4 4 4h10c2.216 0 4-1.784 4-4z"/>
  <path id="path3999" style="opacity:.2;color:#000000" d="m48 16c-2.216 0-4 1.784-4 4v10c0 2.216 1.784 4 4 4s4-1.784 4-4v-10c0-2.216-1.784-4-4-4zm0 0.96875c1.7025 0 3.0312 1.3287 3.0312 3.0312v10c0 1.7025-1.3287 3.0312-3.0312 3.0312s-3.0312-1.3287-3.0312-3.0312v-10c0-1.7025 1.3287-3.0312 3.0312-3.0312zm-19.812 7.219c-1.0223 0-2.029 0.40402-2.8125 1.1875-1.5669 1.5669-1.5669 4.0893 0 5.6562l7.0625 7.0625c1.5669 1.5669 4.0893 1.5669 5.6562 0 0.78347-0.78347 1.1875-1.79 1.1875-2.8125s-0.40403-2.0603-1.1875-2.8438l-7.063-7.063c-0.783-0.783-1.821-1.187-2.843-1.187zm39.625 0c-1.0223 0-2.0603 0.40402-2.8438 1.1875l-7.0625 7.0625c-1.5669 1.5669-1.5669 4.0893 0 5.6562s4.0893 1.5669 5.6562 0l7.0625-7.0625c0.78347-0.78347 1.1875-1.8213 1.1875-2.8438s-0.40403-2.029-1.1875-2.8125c-0.78347-0.78348-1.7902-1.1875-2.8125-1.1875zm-39.625 0.96875c0.77027 0 1.5552 0.30523 2.1562 0.90625l7.0625 7.0625c0.60107 0.60107 0.90625 1.3858 0.90625 2.1562 0 0.77046-0.29619 1.5149-0.90625 2.125-1.204 1.204-3.0773 1.204-4.2812 0l-7.0625-7.0625c-1.204-1.204-1.204-3.0773 0-4.2812 0.61002-0.61002 1.3547-0.90625 2.125-0.90625zm39.625 0c0.77027 0 1.515 0.29623 2.125 0.90625 0.61006 0.61006 0.90625 1.3545 0.90625 2.125 0 0.77046-0.30518 1.5552-0.90625 2.1562l-7.0625 7.0625c-1.204 1.204-3.0773 1.204-4.2812 0-1.204-1.204-1.204-3.0773 0-4.2812l7.0625-7.0625c0.60102-0.60102 1.386-0.90625 2.1562-0.90625zm-47.813 18.843c-2.216 0-4 1.784-4 4s1.784 4 4 4h10c2.216 0 4-1.784 4-4s-1.784-4-4-4h-10zm46 0c-2.216 0-4 1.784-4 4s1.784 4 4 4h10c2.216 0 4-1.784 4-4s-1.784-4-4-4h-10zm-46 0.96875h10c1.7025 0 3.0312 1.3287 3.0312 3.0312s-1.3287 3.0312-3.0312 3.0312h-10c-1.7025 0-3.0312-1.3287-3.0312-3.0312s1.3287-3.0312 3.0312-3.0312zm46 0h10c1.7025 0 3.0312 1.3287 3.0312 3.0312s-1.3287 3.0312-3.0312 3.0312h-10c-1.7025 0-3.0312-1.3287-3.0312-3.0312s1.3287-3.0312 3.0312-3.0312zm-30.75 11.75c-1.0223 0-2.029 0.40403-2.8125 1.1875l-7.0625 7.0625c-1.5669 1.5669-1.5669 4.0893 0 5.6562s4.0893 1.5669 5.6562 0l7.0625-7.0625c0.78347-0.78347 1.1875-1.8213 1.1875-2.8438s-0.40403-2.029-1.1875-2.8125c-0.78347-0.78347-1.8214-1.1875-2.8438-1.1875zm25.5 0c-1.0223 0-2.0603 0.40403-2.8438 1.1875-1.5669 1.5669-1.5669 4.0893 0 5.6562l7.0625 7.0625c1.5669 1.5669 4.0893 1.5669 5.6562 0 0.78347-0.78347 1.1875-1.79 1.1875-2.8125s-0.40403-2.0603-1.1875-2.8438l-7.0625-7.0625c-0.78347-0.78347-1.7902-1.1875-2.8125-1.1875zm-25.5 0.96875c0.77027 0 1.5552 0.30523 2.1562 0.90625 0.61006 0.61006 0.90625 1.3545 0.90625 2.125 0 0.77046-0.30518 1.5552-0.90625 2.1562l-7.0625 7.0625c-1.204 1.204-3.0773 1.204-4.2812 0-1.204-1.204-1.204-3.0773 0-4.2812l7.0625-7.0625c0.61002-0.61002 1.3547-0.90625 2.125-0.90625zm25.5 0c0.77027 0 1.515 0.29623 2.125 0.90625l7.0625 7.0625c0.60107 0.60107 0.90625 1.3858 0.90625 2.1562 0 0.77046-0.29619 1.5149-0.90625 2.125-1.204 1.204-3.0773 1.204-4.2812 0l-7.0625-7.0625c-1.204-1.204-1.204-3.0773 0-4.2812 0.601-0.6 1.386-0.905 2.156-0.905zm-12.75 4.312c-2.216 0-4 1.784-4 4v10c0 2.216 1.784 4 4 4s4-1.784 4-4v-10c0-2.216-1.784-4-4-4zm0 0.96875c1.7025 0 3.0312 1.3287 3.0312 3.0312v10c0 1.7025-1.3287 3.0312-3.0312 3.0312s-3.0312-1.3287-3.0312-3.0312v-10c0-1.7025 1.3287-3.0312 3.0312-3.0312z"/>
  <path id="path4008" style="opacity:.05;color:#000000" d="m48 16c-2.216 0-4 1.784-4 4v10c0 2.216 1.784 4 4 4s4-1.784 4-4v-10c0-2.216-1.784-4-4-4zm0 2c1.1434 0 2 0.85655 2 2v10c0 1.1434-0.85655 2-2 2s-2-0.85655-2-2v-10c0-1.1434 0.85655-2 2-2zm-19.812 6.1875c-1.0223 0-2.029 0.40402-2.8125 1.1875-1.5669 1.5669-1.5669 4.0893 0 5.6562l7.0625 7.0625c1.5669 1.5669 4.0893 1.5669 5.6562 0 0.78347-0.78347 1.1875-1.79 1.1875-2.8125s-0.40403-2.0603-1.1875-2.8438l-7.063-7.063c-0.783-0.783-1.821-1.187-2.843-1.187zm39.625 0c-1.0223 0-2.0603 0.40402-2.8438 1.1875l-7.0625 7.0625c-1.5669 1.5669-1.5669 4.0893 0 5.6562s4.0893 1.5669 5.6562 0l7.0625-7.0625c0.78347-0.78347 1.1875-1.8213 1.1875-2.8438s-0.40403-2.029-1.1875-2.8125c-0.78347-0.78348-1.7902-1.1875-2.8125-1.1875zm-39.625 2c0.49581 0 1.0351 0.19139 1.4375 0.59375l7.0625 7.0625c0.40244 0.40244 0.59375 0.94146 0.59375 1.4375s-0.17252 0.98502-0.59375 1.4062c-0.80872 0.80872-2.035 0.80872-2.8438 0l-7.0625-7.0625c-0.80872-0.80872-0.80872-2.035 0-2.8438 0.42114-0.42114 0.91044-0.59375 1.4062-0.59375zm39.625 0c0.49581 0 0.98511 0.17261 1.4062 0.59375 0.42123 0.42123 0.59375 0.91021 0.59375 1.4062 0 0.49604-0.1913 1.0351-0.59375 1.4375l-7.0625 7.0625c-0.80872 0.80872-2.035 0.80872-2.8438 0-0.80872-0.80872-0.80872-2.035 0-2.8438l7.0625-7.0625c0.40235-0.40235 0.94169-0.59375 1.4375-0.59375zm-47.813 17.812c-2.216 0-4 1.784-4 4s1.784 4 4 4h10c2.216 0 4-1.784 4-4s-1.784-4-4-4h-10zm46 0c-2.216 0-4 1.784-4 4s1.784 4 4 4h10c2.216 0 4-1.784 4-4s-1.784-4-4-4h-10zm-46 2h10c1.1434 0 2 0.85655 2 2s-0.85655 2-2 2h-10c-1.1434 0-2-0.85655-2-2s0.85655-2 2-2zm46 0h10c1.1434 0 2 0.85655 2 2s-0.85655 2-2 2h-10c-1.1434 0-2-0.85655-2-2s0.85655-2 2-2zm-30.75 10.719c-1.0223 0-2.029 0.40403-2.8125 1.1875l-7.0625 7.0625c-1.5669 1.5669-1.5669 4.0893 0 5.6562s4.0893 1.5669 5.6562 0l7.0625-7.0625c0.78347-0.78347 1.1875-1.8213 1.1875-2.8438s-0.40403-2.029-1.1875-2.8125c-0.78347-0.78347-1.8214-1.1875-2.8438-1.1875zm25.5 0c-1.0223 0-2.0603 0.40403-2.8438 1.1875-1.5669 1.5669-1.5669 4.0893 0 5.6562l7.0625 7.0625c1.5669 1.5669 4.0893 1.5669 5.6562 0 0.78347-0.78347 1.1875-1.79 1.1875-2.8125s-0.40403-2.0603-1.1875-2.8438l-7.0625-7.0625c-0.78347-0.78347-1.7902-1.1875-2.8125-1.1875zm-25.5 2c0.49581 0 1.0351 0.1914 1.4375 0.59375 0.42123 0.42123 0.59375 0.91021 0.59375 1.4062 0 0.49604-0.1913 1.0351-0.59375 1.4375l-7.0625 7.0625c-0.80872 0.80872-2.035 0.80872-2.8438 0-0.80872-0.80872-0.80872-2.035 0-2.8438l7.0625-7.0625c0.42114-0.42114 0.91044-0.59375 1.4062-0.59375zm25.5 0c0.49581 0 0.98511 0.17261 1.4062 0.59375l7.0625 7.0625c0.40244 0.40244 0.59375 0.94146 0.59375 1.4375s-0.17252 0.98502-0.59375 1.4062c-0.80872 0.80872-2.035 0.80872-2.8438 0l-7.0625-7.0625c-0.80872-0.80872-0.80872-2.035 0-2.8438 0.40235-0.40235 0.94169-0.59375 1.4375-0.59375zm-12.75 3.281c-2.216 0-4 1.784-4 4v10c0 2.216 1.784 4 4 4s4-1.784 4-4v-10c0-2.216-1.784-4-4-4zm0 2c1.1434 0 2 0.85655 2 2v10c0 1.1434-0.85655 2-2 2s-2-0.85655-2-2v-10c0-1.1434 0.85655-2 2-2z"/>
  <path id="path3981" style="opacity:.6;color:#000000" d="m48 16c-2.216 0-4 1.784-4 4v1c0-2.216 1.784-4 4-4s4 1.784 4 4v-1c0-2.216-1.784-4-4-4zm-19.812 8.1875c-1.0223 0-2.029 0.40402-2.8125 1.1875-0.9089 0.9089-1.2705 2.1336-1.125 3.3125 0.10882-0.84641 0.4721-1.6596 1.125-2.3125 1.5669-1.5669 4.0893-1.5669 5.6562 0l7.0625 7.0625c0.65312 0.65312 1.0447 1.4934 1.1562 2.3438 0.02226-0.16828 0.03125-0.32988 0.03125-0.5 0-1.0225-0.40403-2.0603-1.1875-2.8438l-7.063-7.063c-0.783-0.783-1.821-1.187-2.843-1.187zm39.625 0c-1.0223 0-2.0603 0.40402-2.8438 1.1875l-7.0625 7.0625c-0.9089 0.9089-1.2705 2.1336-1.125 3.3125 0.10882-0.84641 0.4721-1.6596 1.125-2.3125l7.0625-7.0625c1.5669-1.5669 4.0893-1.5669 5.6562 0 0.65312 0.65312 1.0447 1.4693 1.1562 2.3125 0.02226-0.16972 0.03125-0.32988 0.03125-0.5 0-1.0225-0.40403-2.029-1.1875-2.8125-0.78347-0.78348-1.7902-1.1875-2.8125-1.1875zm-47.813 19.812c-2.216 0-4 1.784-4 4 0 0.17065 0.04196 0.33509 0.0625 0.5 0.247-1.977 1.893-3.5 3.938-3.5h10c2.0454 0 3.6913 1.5235 3.9375 3.5 0.02-0.165 0.062-0.329 0.062-0.5 0-2.216-1.784-4-4-4h-10zm46 0c-2.216 0-4 1.784-4 4 0 0.17065 0.04196 0.33509 0.0625 0.5 0.247-1.977 1.893-3.5 3.938-3.5h10c2.0454 0 3.6913 1.5235 3.9375 3.5 0.02-0.165 0.062-0.329 0.062-0.5 0-2.216-1.784-4-4-4h-10zm-30.75 12.719c-1.0223 0-2.029 0.40403-2.8125 1.1875l-7.0625 7.0625c-0.91405 0.91405-1.2773 2.1588-1.125 3.3438 0.10535-0.85352 0.46696-1.6857 1.125-2.3438l7.0625-7.0625c1.5669-1.5669 4.0893-1.5669 5.6562 0 0.65312 0.65312 1.0447 1.4693 1.1562 2.3125 0.02226-0.16972 0.03125-0.32988 0.03125-0.5 0-1.0225-0.40403-2.029-1.1875-2.8125-0.78347-0.78347-1.8214-1.1875-2.8438-1.1875zm25.5 0c-1.0223 0-2.0603 0.40403-2.8438 1.1875-0.91405 0.91405-1.2773 2.1588-1.125 3.3438 0.10535-0.85352 0.46696-1.6857 1.125-2.3438 1.5669-1.5669 4.0893-1.5669 5.6562 0l7.0625 7.0625c0.65312 0.65312 1.0447 1.4934 1.1562 2.3438 0.02226-0.16828 0.03125-0.32988 0.03125-0.5 0-1.0225-0.40403-2.0603-1.1875-2.8438l-7.0625-7.0625c-0.783-0.783-1.79-1.187-2.812-1.187zm-12.75 5.281c-2.216 0-4 1.784-4 4v1c0-2.216 1.784-4 4-4s4 1.784 4 4v-1c0-2.216-1.784-4-4-4z"/>
  <path id="path3990" style="opacity:.6;color:#000000;fill:#fff" d="m24.25 28.688c-0.15234 1.185 0.21095 2.4297 1.125 3.3438l7.0625 7.0625c1.5669 1.5669 4.0893 1.5669 5.6562 0 0.78347-0.78347 1.1875-1.79 1.1875-2.8125 0-0.17012-0.009-0.33028-0.03125-0.5-0.11151 0.84316-0.50313 1.6594-1.1562 2.3125-1.5669 1.5669-4.0893 1.5669-5.6562 0l-7.063-7.063c-0.658-0.658-1.02-1.49-1.125-2.343zm47.531 0c-0.11151 0.85038-0.50313 1.6906-1.1562 2.3438l-7.0625 7.0625c-1.5669 1.5669-4.0893 1.5669-5.6562 0-0.65804-0.65804-1.0197-1.4902-1.125-2.3438-0.15234 1.185 0.21095 2.4297 1.125 3.3438 1.5669 1.5669 4.0893 1.5669 5.6562 0l7.0625-7.0625c0.78347-0.78347 1.1875-1.8213 1.1875-2.8438 0-0.17012-0.009-0.33172-0.03125-0.5zm-27.781 1.312v1c0 2.216 1.784 4 4 4s4-1.784 4-4v-1c0 2.216-1.784 4-4 4s-4-1.784-4-4zm-27.938 18.5c-0.02 0.165-0.062 0.329-0.062 0.5 0 2.216 1.784 4 4 4h10c2.216 0 4-1.784 4-4 0-0.17065-0.04196-0.33509-0.0625-0.5-0.247 1.977-1.893 3.5-3.938 3.5h-10c-2.0454 0-3.6913-1.5235-3.9375-3.5zm46 0c-0.02 0.165-0.062 0.329-0.062 0.5 0 2.216 1.784 4 4 4h10c2.216 0 4-1.784 4-4 0-0.17065-0.04196-0.33509-0.0625-0.5-0.247 1.977-1.893 3.5-3.938 3.5h-10c-2.0454 0-3.6913-1.5235-3.9375-3.5zm-22.812 12.719c-0.11151 0.85038-0.50313 1.6906-1.1562 2.3438l-7.0625 7.0625c-1.5669 1.5669-4.0893 1.5669-5.6562 0-0.6529-0.6529-1.0162-1.4661-1.125-2.3125-0.14551 1.1789 0.2161 2.4036 1.125 3.3125 1.5669 1.5669 4.0893 1.5669 5.6562 0l7.0625-7.0625c0.78347-0.78347 1.1875-1.8213 1.1875-2.8438 0-0.17012-0.009-0.33172-0.03125-0.5zm17.531 0.031c-0.14551 1.1789 0.2161 2.4036 1.125 3.3125l7.0625 7.0625c1.5669 1.5669 4.0893 1.5669 5.6562 0 0.78347-0.78347 1.1875-1.79 1.1875-2.8125 0-0.17012-0.009-0.33028-0.03125-0.5-0.11151 0.84316-0.50313 1.6594-1.1562 2.3125-1.5669 1.5669-4.0893 1.5669-5.6562 0l-7.0625-7.0625c-0.653-0.652-1.016-1.466-1.125-2.312zm-12.781 14.75v1c0 2.216 1.784 4 4 4s4-1.784 4-4v-1c0 2.216-1.784 4-4 4s-4-1.784-4-4z"/>
 </g>
 <g id="layer2" style="display:none" transform="translate(137.63 15.959)">
  <rect id="rect3745" style="opacity:.9;filter:url(#filter3174-5);fill:url(#ButtonShadow-4)" rx="6" ry="6" height="85" width="86" y="7" x="5"/>
 </g>
 <g id="layer2-3" style="display:none" transform="translate(146.29 14.997)">
  <rect id="rect3745-4" style="opacity:.9;filter:url(#filter3174-0);fill:url(#ButtonShadow-4)" rx="6" ry="6" height="85" width="86" y="7" x="5"/>
 </g>
 <g id="layer2-4" style="display:none" transform="translate(176.76 -8.736)">
  <rect id="rect3745-7" style="opacity:.9;filter:url(#filter3174-7);fill:url(#ButtonShadow-4)" rx="6" ry="6" height="85" width="86" y="7" x="5"/>
 </g>
</svg>
