<?xml version="1.0" encoding="UTF-8" standalone="no"?>
<!-- Created with Inkscape (http://www.inkscape.org/) -->
<svg id="svg3449" xmlns:rdf="http://www.w3.org/1999/02/22-rdf-syntax-ns#" xmlns="http://www.w3.org/2000/svg" height="128" width="128" version="1.0" xmlns:cc="http://creativecommons.org/ns#" xmlns:xlink="http://www.w3.org/1999/xlink" xmlns:dc="http://purl.org/dc/elements/1.1/">
 <metadata id="metadata56">
  <rdf:RDF>
   <cc:Work rdf:about="">
    <dc:format>image/svg+xml</dc:format>
    <dc:type rdf:resource="http://purl.org/dc/dcmitype/StillImage"/>
    <dc:title/>
   </cc:Work>
  </rdf:RDF>
 </metadata>
 <defs id="defs3451">
  <linearGradient id="linearGradient3514" y2="-9.1034" gradientUnits="userSpaceOnUse" x2="66.492" gradientTransform="matrix(.96826 0 0 .97948 2.179 .16587)" y1="-42.638" x1="67.952">
   <stop id="stop4620" style="stop-color:#37414b" offset="0"/>
   <stop id="stop4622" style="stop-color:#37414b;stop-opacity:0" offset="1"/>
  </linearGradient>
  <linearGradient id="linearGradient3516" y2="-11.847" gradientUnits="userSpaceOnUse" x2="58.98" gradientTransform="matrix(.96826 0 0 .97948 2.179 .16587)" y1="-118.55" x1="57.173">
   <stop id="stop4596" offset="0"/>
   <stop id="stop4598" style="stop-opacity:0" offset="1"/>
  </linearGradient>
  <linearGradient id="linearGradient3519" y2="50.369" gradientUnits="userSpaceOnUse" x2="76.558" gradientTransform="matrix(.96826 0 0 .97948 3.2423 -129.19)" y1="13.164" x1="76.558">
   <stop id="stop3392" style="stop-color:#425e7b" offset="0"/>
   <stop id="stop3394" style="stop-color:#7a91a7" offset="1"/>
  </linearGradient>
  <linearGradient id="linearGradient3521" y2="-8.7399" gradientUnits="userSpaceOnUse" x2="60.217" gradientTransform="matrix(.96826 0 0 .97948 2.179 .16587)" y1="-123.72" x1="60.395">
   <stop id="stop3392-4-8" style="stop-color:#425e7b" offset="0"/>
   <stop id="stop3394-8-0" style="stop-color:#7a91a7" offset="1"/>
  </linearGradient>
  <radialGradient id="radialGradient3349" gradientUnits="userSpaceOnUse" cy="45.647" cx="42.148" gradientTransform="matrix(.94690 0 0 1.139 3.5954 -29.89)" r="58.984">
   <stop id="stop3955" style="stop-color:#9cbbd9" offset="0"/>
   <stop id="stop3957" style="stop-color:#0080bc" offset="1"/>
  </radialGradient>
  <filter id="filter3174" color-interpolation-filters="sRGB">
   <feGaussianBlur id="feGaussianBlur3176" stdDeviation="1.71"/>
  </filter>
  <linearGradient id="ButtonShadow-1" x1="45.448" gradientUnits="userSpaceOnUse" y1="92.54" gradientTransform="scale(1.0059 .99417)" x2="45.448" y2="7.0165">
   <stop id="stop3750-0" offset="0"/>
   <stop id="stop3752-4" style="stop-opacity:.58824" offset="1"/>
  </linearGradient>
  <filter id="filter3174-8" color-interpolation-filters="sRGB">
   <feGaussianBlur id="feGaussianBlur3176-9" stdDeviation="1.71"/>
  </filter>
  <linearGradient id="ButtonShadow-3" y2="7.0165" gradientUnits="userSpaceOnUse" x2="45.448" gradientTransform="matrix(1.0059 0 0 .99417 119.23 972.7)" y1="92.54" x1="45.448">
   <stop id="stop3750-1" offset="0"/>
   <stop id="stop3752-0" style="stop-opacity:.58824" offset="1"/>
  </linearGradient>
  <linearGradient id="linearGradient137480">
   <stop id="stop137482" style="stop-color:#5a5a5a" offset="0"/>
   <stop id="stop137484" style="stop-color:#101010" offset="1"/>
  </linearGradient>
  <linearGradient id="linearGradient6194" gradientUnits="userSpaceOnUse" gradientTransform="matrix(13.527 20.526 20.526 -13.527 19.19 1021.1)">
   <stop id="stop6196" style="stop-color:#fff" offset="0"/>
   <stop id="stop6198" style="stop-color:#29282b" offset=".16850"/>
   <stop id="stop6200" style="stop-color:#868c95" offset=".26374"/>
   <stop id="stop6202" style="stop-color:#92979f" offset=".39560"/>
   <stop id="stop6204" style="stop-color:#737881" offset=".54212"/>
   <stop id="stop6206" style="stop-color:#70757e" offset=".62637"/>
   <stop id="stop6208" style="stop-color:#e4e6e8" offset=".71795"/>
   <stop id="stop6210" style="stop-color:#fff" offset=".79121"/>
   <stop id="stop6212" style="stop-color:#1d191a" offset="1"/>
  </linearGradient>
  <linearGradient id="linearGradient11420" y2="1019.4" gradientUnits="userSpaceOnUse" x2="29.041" gradientTransform="matrix(2.5 0 0 2.5 4 -2498.4)" y1="1041.4" x1="29.041">
   <stop id="stop4206" style="stop-color:#bfd7f9" offset="0"/>
   <stop id="stop4208" style="stop-color:#f6f9fe" offset="1"/>
  </linearGradient>
  <linearGradient id="linearGradient11422" y2="-13.206" xlink:href="#linearGradient137480" gradientUnits="userSpaceOnUse" x2="1011.5" gradientTransform="matrix(1.1579 0 0 2.6596 -159.62 23.577)" y1="-13.206" x1="1013.5"/>
  <linearGradient id="linearGradient11424" y2="-34.625" xlink:href="#linearGradient6194" gradientUnits="userSpaceOnUse" x2="1012.4" gradientTransform="translate(.50003 22)" y1="-34.625" x1="1004.3"/>
  <linearGradient id="linearGradient11426" y2="-34.625" xlink:href="#linearGradient6194" gradientUnits="userSpaceOnUse" x2="1012.4" gradientTransform="translate(.50003 20)" y1="-34.625" x1="1004.3"/>
 </defs>
 <rect id="rect892-2-7-2" ry="29.452" style="stroke:#d3d3d3;stroke-width:9.8448;fill:#37414b" transform="scale(1,-1)" height="116.16" width="116.08" y="-122.08" x="5.9224"/>
 <rect id="rect892" style="stroke:url(#linearGradient3521);stroke-width:.97385;fill:url(#linearGradient3519)" transform="scale(1,-1)" ry="29.296" height="115.54" width="114.22" y="-122.25" x="7.0394"/>
 <rect id="rect892-2" style="stroke:url(#linearGradient3516);stroke-width:.97385;fill:url(#linearGradient3514)" transform="scale(1,-1)" ry="28.993" height="114.35" width="114.22" y="-121.46" x="7.0599"/>
 <path id="rect895" style="fill:url(#radialGradient3349)" d="m33.051 7.2596c-7.969-2.4493-27.013 15.174-25.653 23.038-0.050142 0.97378-0.088772 1.9648-0.088772 2.9572v52.419c0 20.876 10.712 33.859 22.318 33.859h67.038c12.638 0 24.318-11.245 24.318-25.859v-64.017c0.7-10.928-21.283-24.659-25.926-22.618-47.846 0.8653-18.017 0.2236-62.003 0.2236z"/>
 <rect id="rect892-2-7-8" style="opacity:.15891;stroke:#000;stroke-width:4.8445;fill:none" transform="scale(1,-1)" ry="28.993" height="114.35" width="114.22" y="-121.16" x="6.8687"/>
 <rect id="rect892-2-7-1" style="opacity:.15891;stroke:#000;stroke-width:7.7512;fill:none" transform="scale(1,-1)" ry="28.993" height="114.35" width="114.22" y="-121.16" x="6.8687"/>
 <rect id="rect892-2-7-2-9" ry="28.067" style="stroke:#000;stroke-width:1.0489;fill:none" transform="scale(1,-1)" height="112.71" width="114.14" y="-120.31" x="7.0649"/>
 <path id="path1187" style="fill:#fff;fill-opacity:.057143" d="m33.017 7.2319c-23.707 0-26.027 0.6738-25.93 26.295-0.04334 0.71563-0.07674 1.4439-0.07674 2.1732v32.76c18.67-38.321 38.34-51.497 90.374-61.179-0.225-0.026-0.46-0.0303-0.691-0.0303-41.576 0.3874-25.652-0.0188-63.676-0.0188z"/>
 <g id="layer2" style="display:none" transform="translate(148.5 -54.67)">
  <rect id="rect3745" style="opacity:.9;filter:url(#filter3174);fill:url(#ButtonShadow-1)" rx="6" ry="6" height="85" width="86" y="7" x="5"/>
 </g>
 <rect id="rect3745-0" style="opacity:.9;filter:url(#filter3174-8);display:none;fill:url(#ButtonShadow-3)" transform="matrix(2.6667 0 0 2.6667 -191.7 -2715.6)" rx="6" ry="6" height="85" width="86" y="979.7" x="124.23"/>
 <g id="g4138" transform="matrix(2.5 0 0 2.5 -1.25 -2499.7)">
  <rect id="rect4855" style="fill:url(#linearGradient11422)" transform="rotate(90)" ry=".25969" height="5" width="2.2" y="-12.5" x="1011.7"/>
  <rect id="rect4847" style="fill-opacity:.23529" transform="rotate(90)" ry=".41772" height="1.48" width="5" y="-11.74" x="1008.5"/>
  <rect id="rect4849" ry=".33304" style="fill-opacity:.23529" transform="rotate(90)" height="1.18" width="5" y="-11.59" x="1008.2"/>
  <rect id="rect4851" ry=".41772" style="fill-opacity:.23529" transform="rotate(90)" height="1.48" width="5" y="-9.74" x="1008.5"/>
  <rect id="rect4853" style="fill-opacity:.23529" transform="rotate(90)" ry=".33304" height="1.18" width="5" y="-9.59" x="1008.2"/>
  <g id="g4865" transform="translate(-3.6245 .000012383)">
   <rect id="rect4786" ry=".19757" style="fill:url(#linearGradient11424)" transform="rotate(90)" height="0.7" width="5" y="-12.975" x="1007.9"/>
   <rect id="rect4790" style="fill:url(#linearGradient11426)" transform="rotate(90)" ry=".19757" height="0.7" width="5" y="-14.975" x="1007.9"/>
  </g>
  <path id="path4827" style="fill-opacity:.23529" d="m8.8375 1007.9c-0.10945 0-0.1875 0.078-0.1875 0.1875v4.625c0 0.1095 0.07805 0.1875 0.1875 0.1875s0.21875-0.078 0.21875-0.1875v-4.625c0-0.1095-0.1093-0.1875-0.21875-0.1875z"/>
 </g>
 <g id="g4158" transform="matrix(2.5 0 0 2.5 79.25 -2499.7)">
  <rect id="rect4160" ry=".25969" style="fill:url(#linearGradient11422)" transform="rotate(90)" height="5" width="2.2" y="-12.5" x="1011.7"/>
  <rect id="rect4162" ry=".41772" style="fill-opacity:.23529" transform="rotate(90)" height="1.48" width="5" y="-11.74" x="1008.5"/>
  <rect id="rect4164" style="fill-opacity:.23529" transform="rotate(90)" ry=".33304" height="1.18" width="5" y="-11.59" x="1008.2"/>
  <rect id="rect4166" style="fill-opacity:.23529" transform="rotate(90)" ry=".41772" height="1.48" width="5" y="-9.74" x="1008.5"/>
  <rect id="rect4168" ry=".33304" style="fill-opacity:.23529" transform="rotate(90)" height="1.18" width="5" y="-9.59" x="1008.2"/>
  <g id="g4170" transform="translate(-3.6245 .000012383)">
   <rect id="rect4172" style="fill:url(#linearGradient11424)" transform="rotate(90)" ry=".19757" height="0.7" width="5" y="-12.975" x="1007.9"/>
   <rect id="rect4174" ry=".19757" style="fill:url(#linearGradient11426)" transform="rotate(90)" height="0.7" width="5" y="-14.975" x="1007.9"/>
  </g>
  <path id="path4176" style="fill-opacity:.23529" d="m8.8375 1007.9c-0.10945 0-0.1875 0.078-0.1875 0.1875v4.625c0 0.1095 0.07805 0.1875 0.1875 0.1875s0.21875-0.078 0.21875-0.1875v-4.625c0-0.1095-0.1093-0.1875-0.21875-0.1875z"/>
 </g>
 <g id="g11412" transform="translate(0,-15)">
  <path id="path4216" style="fill-opacity:.058824" d="m44.9 53c-4.9051 0-9.0024 1.2042-12.219 2.731v5.8722c2.8948-1.448 6.7524-2.8142 11.577-2.8142 8.202 0 12.703 3.0525 12.703 8.683 0 5.5475-4.2618 8.6045-12.062 8.6045h-6.1072v5.5498h5.8693c9.7298 0 15.037 3.6182 15.037 10.29 0 6.6752-5.2296 10.294-14.718 10.294-5.7092 0-10.291-1.6902-13.587-3.5382v5.9468c3.619 1.85 8.445 3.38 14.315 3.38 14.554 0 19.78-8.202 19.78-15.923 0-9.8898-9.6476-13.748-9.6476-13.748s6.9148-2.8152 6.9148-10.857c0-6.997-4.668-14.472-17.855-14.472zm45.11 0.72275-9.8899 6.2735v6.835l10.698-7.079v47.608h5.7886v-53.637h-6.5963z"/>
  <path id="path4214" d="m44.9 52c-4.9051 0-9.0024 1.2042-12.219 2.731v5.8722c2.8948-1.448 6.7524-2.8142 11.577-2.8142 8.202 0 12.703 3.0525 12.703 8.683 0 5.5475-4.2618 8.6045-12.062 8.6045h-6.1072v5.5498h5.8693c9.7298 0 15.037 3.6182 15.037 10.29 0 6.6752-5.2296 10.294-14.718 10.294-5.7092 0-10.291-1.6902-13.587-3.5382v5.9468c3.619 1.85 8.445 3.38 14.315 3.38 14.554 0 19.78-8.202 19.78-15.923 0-9.8898-9.6476-13.748-9.6476-13.748s6.9148-2.8152 6.9148-10.857c0-6.997-4.668-14.472-17.855-14.472zm45.11 0.72275-9.8899 6.2735v6.835l10.698-7.079v47.608h5.7886v-53.637h-6.5963z" style="fill-opacity:.11765"/>
  <path id="path4210" style="fill-opacity:.23529" d="m44.9 51c-4.9051 0-9.0024 1.2042-12.219 2.731v5.8722c2.8948-1.448 6.7524-2.8142 11.577-2.8142 8.202 0 12.703 3.0525 12.703 8.683 0 5.5475-4.2618 8.6045-12.062 8.6045h-6.1072v5.5498h5.8693c9.7298 0 15.037 3.6182 15.037 10.29 0 6.6752-5.2296 10.294-14.718 10.294-5.7092 0-10.291-1.6902-13.587-3.5382v5.9468c3.619 1.85 8.445 3.38 14.315 3.38 14.554 0 19.78-8.202 19.78-15.923 0-9.8898-9.6476-13.748-9.6476-13.748s6.9148-2.8152 6.9148-10.857c0-6.997-4.668-14.472-17.855-14.472zm45.11 0.72275-9.8899 6.2735v6.835l10.698-7.079v47.608h5.7886v-53.637h-6.5963z"/>
  <path id="path4189" d="m44.9 50c-4.9051 0-9.0024 1.2042-12.219 2.731v5.8722c2.8948-1.448 6.7524-2.8142 11.577-2.8142 8.202 0 12.703 3.0525 12.703 8.683 0 5.5475-4.2618 8.6045-12.062 8.6045h-6.1072v5.5498h5.8693c9.7298 0 15.037 3.6182 15.037 10.29 0 6.6752-5.2296 10.294-14.718 10.294-5.7092 0-10.291-1.6902-13.587-3.5382v5.9468c3.619 1.85 8.445 3.38 14.315 3.38 14.554 0 19.78-8.202 19.78-15.923 0-9.8898-9.6476-13.748-9.6476-13.748s6.9148-2.8152 6.9148-10.857c0-6.997-4.668-14.472-17.855-14.472zm45.11 0.72275-9.8899 6.2735v6.835l10.698-7.079v47.608h5.7886v-53.637h-6.5963z" style="fill:url(#linearGradient11420)"/>
  <path id="path4218" d="m44.259 54.79c-4.8247 0-8.6823 1.3645-11.577 2.8125v1.001c2.8948-1.448 6.7524-2.8125 11.577-2.8125 7.9481 0 12.382 2.8874 12.651 8.1885 0.009-0.17422 0.0537-0.32835 0.0537-0.50781 0-5.6305-4.5031-8.6816-12.705-8.6816zm46.558 0.96191-10.698 7.0801v1.001l10.698-7.0801v-1.001zm-28.096 8.335c-0.34864 7.5585-6.8799 10.244-6.8799 10.244s0.5536 0.27729 0.97656 0.48828c1.8731-1.081 5.9375-4.1243 5.9375-10.347 0-0.12822-0.03102-0.25724-0.03418-0.38574zm-23.926 13.54v1.001h5.8691c9.4905 0 14.756 3.4485 15.01 9.8096 0.0075-0.17485 0.0245-0.34319 0.0245-0.52246 0-6.672-5.3044-10.288-15.034-10.288h-5.8691zm26.67 11.04c-0.2619 7.5428-5.5719 15.332-19.756 15.332-5.87 0-10.698-1.5269-14.316-3.3789v1.001c3.618 1.85 8.446 3.38 14.316 3.38 14.554 0 19.78-8.2019 19.78-15.923 0-0.14222-0.0205-0.27042-0.0245-0.41016zm25.352 14.692v1.001h5.791v-1.001h-5.791z" style="fill:#1767d5;fill-opacity:.31373"/>
  <path id="path4223" d="m44.898 50c-4.9051 0-9.0003 1.2027-12.217 2.7295v1.001c3.2165-1.5268 7.3117-2.7295 12.217-2.7295 12.946 0 17.653 7.2033 17.822 14.087 0.0095-0.2066 0.03418-0.40128 0.03418-0.61524 0.001-6.999-4.668-14.474-17.856-14.474zm45.112 0.72266-9.8926 6.2744v1.001l9.8926-6.2744h6.5967v-1.001h-6.5967zm-33.1 14.257c-0.26609 5.2115-4.4641 8.0957-12.012 8.0957h-6.1035v1.001h6.1035c7.7999 0 12.065-3.056 12.065-8.6035 0-0.1743-0.0451-0.32383-0.0537-0.49316zm-0.09278 10.835c-0.54778 0.31616-0.97656 0.5127-0.97656 0.5127s9.3552 3.762 9.624 13.34c0.0067-0.19705 0.0245-0.39424 0.0245-0.59082 0-8.2905-6.4792-12.168-8.6719-13.262zm2.8564 13.623c-0.27266 6.3359-5.4586 9.7705-14.692 9.7705-5.7092 0-10.292-1.6872-13.589-3.5352v1.001c3.2969 1.848 7.8796 3.5352 13.589 3.5352 9.4886 0 14.717-3.6177 14.717-10.293 0-0.1641-0.018-0.31811-0.0245-0.47851z" style="fill:#fff;fill-opacity:.23529"/>
 </g>
</svg>
