<?xml version="1.0" encoding="UTF-8" standalone="no"?>
<!-- Created with Inkscape (http://www.inkscape.org/) -->
<svg id="svg3449" xmlns:rdf="http://www.w3.org/1999/02/22-rdf-syntax-ns#" xmlns="http://www.w3.org/2000/svg" height="128" width="128" version="1.0" xmlns:cc="http://creativecommons.org/ns#" xmlns:xlink="http://www.w3.org/1999/xlink" xmlns:dc="http://purl.org/dc/elements/1.1/">
 <metadata id="metadata56">
  <rdf:RDF>
   <cc:Work rdf:about="">
    <dc:format>image/svg+xml</dc:format>
    <dc:type rdf:resource="http://purl.org/dc/dcmitype/StillImage"/>
    <dc:title/>
   </cc:Work>
  </rdf:RDF>
 </metadata>
 <defs id="defs3451">
  <linearGradient id="linearGradient3514" y2="-9.1034" gradientUnits="userSpaceOnUse" x2="66.492" gradientTransform="matrix(.96826 0 0 .97948 2.179 .16587)" y1="-42.638" x1="67.952">
   <stop id="stop4620" style="stop-color:#37414b" offset="0"/>
   <stop id="stop4622" style="stop-color:#37414b;stop-opacity:0" offset="1"/>
  </linearGradient>
  <linearGradient id="linearGradient3516" y2="-11.847" gradientUnits="userSpaceOnUse" x2="58.98" gradientTransform="matrix(.96826 0 0 .97948 2.179 .16587)" y1="-118.55" x1="57.173">
   <stop id="stop4596" offset="0"/>
   <stop id="stop4598" style="stop-opacity:0" offset="1"/>
  </linearGradient>
  <linearGradient id="linearGradient3519" y2="50.369" gradientUnits="userSpaceOnUse" x2="76.558" gradientTransform="matrix(.96826 0 0 .97948 3.2423 -129.19)" y1="13.164" x1="76.558">
   <stop id="stop3392" style="stop-color:#425e7b" offset="0"/>
   <stop id="stop3394" style="stop-color:#7a91a7" offset="1"/>
  </linearGradient>
  <linearGradient id="linearGradient3521" y2="-8.7399" gradientUnits="userSpaceOnUse" x2="60.217" gradientTransform="matrix(.96826 0 0 .97948 2.179 .16587)" y1="-123.72" x1="60.395">
   <stop id="stop3392-4-8" style="stop-color:#425e7b" offset="0"/>
   <stop id="stop3394-8-0" style="stop-color:#7a91a7" offset="1"/>
  </linearGradient>
  <linearGradient id="linearGradient4326-3" y2="7.0165" gradientUnits="userSpaceOnUse" y1="92.54" gradientTransform="matrix(1.0059 0 0 .99417 -18.086 54.302)" x2="45.448" x1="45.448">
   <stop id="stop3750-77-4" offset="0"/>
   <stop id="stop3752-4-7" style="stop-opacity:.58824" offset="1"/>
  </linearGradient>
  <filter id="filter3174-16-2" color-interpolation-filters="sRGB">
   <feGaussianBlur id="feGaussianBlur3176-5-4" stdDeviation="1.71"/>
  </filter>
  <linearGradient id="linearGradient3904-7" y2="7.0165" gradientUnits="userSpaceOnUse" y1="92.54" gradientTransform="matrix(1.0059 0 0 .99417 -156.15 .80109)" x2="45.448" x1="45.448">
   <stop id="stop3750-84-9" offset="0"/>
   <stop id="stop3752-3-9" style="stop-opacity:.58824" offset="1"/>
  </linearGradient>
  <filter id="filter3174-5-0" color-interpolation-filters="sRGB">
   <feGaussianBlur id="feGaussianBlur3176-94-4" stdDeviation="1.71"/>
  </filter>
  <linearGradient id="linearGradient16955-6" y2="7.0165" gradientUnits="userSpaceOnUse" y1="92.54" gradientTransform="matrix(1.0059 0 0 .99417 -207.46 -7.6017)" x2="45.448" x1="45.448">
   <stop id="stop3750-5-2" offset="0"/>
   <stop id="stop3752-25-2" style="stop-opacity:.58824" offset="1"/>
  </linearGradient>
  <filter id="filter3174-7-7" color-interpolation-filters="sRGB">
   <feGaussianBlur id="feGaussianBlur3176-34-3" stdDeviation="1.71"/>
  </filter>
  <linearGradient id="linearGradient7720-4" y2="7.0165" gradientUnits="userSpaceOnUse" y1="92.54" gradientTransform="matrix(1.0059 0 0 .99417 75.661 -1.5)" x2="45.448" x1="45.448">
   <stop id="stop3750-4-1" offset="0"/>
   <stop id="stop3752-6-7" style="stop-opacity:.58824" offset="1"/>
  </linearGradient>
  <filter id="filter3174-3-0" color-interpolation-filters="sRGB">
   <feGaussianBlur id="feGaussianBlur3176-3-0" stdDeviation="1.71"/>
  </filter>
  <linearGradient id="linearGradient6422-6" y2="7.0165" gradientUnits="userSpaceOnUse" y1="92.54" gradientTransform="matrix(1.0059 0 0 .99417 158.64 4.6017)" x2="45.448" x1="45.448">
   <stop id="stop3750-58" offset="0"/>
   <stop id="stop3752-14" style="stop-opacity:.58824" offset="1"/>
  </linearGradient>
  <filter id="filter3174-9" color-interpolation-filters="sRGB">
   <feGaussianBlur id="feGaussianBlur3176-11" stdDeviation="1.71"/>
  </filter>
 </defs>
 <rect id="rect892-2-7-2" ry="29.452" style="stroke:#d3d3d3;stroke-width:9.8448;fill:#37414b" transform="scale(1,-1)" height="116.16" width="116.08" y="-122.08" x="5.9224"/>
 <rect id="rect892" style="stroke:url(#linearGradient3521);stroke-width:.97385;fill:url(#linearGradient3519)" transform="scale(1,-1)" ry="29.296" height="115.54" width="114.22" y="-122.25" x="7.0394"/>
 <rect id="rect892-2" style="stroke:url(#linearGradient3516);stroke-width:.97385;fill:url(#linearGradient3514)" transform="scale(1,-1)" ry="28.993" height="114.35" width="114.22" y="-121.46" x="7.0599"/>
 <g id="layer1-0" transform="matrix(2.5636 0 0 2.5636 2.4744 -2572.3)">
  <rect id="rect849-2" style="fill:#d4004b" ry="10.607" height="43.689" width="43.689" y="1006.5" x="2.1555"/>
  <path id="path823" d="m23.088 1047c-0.50268-0.2158-1.9602-1.0355-2.0929-1.1771-0.01694-0.018-0.18313-0.1145-0.36934-0.2138-0.83229-0.4453-3.2368-1.9415-3.1215-1.9423 0.02673-0.0001 0.16043 0.057 0.29708 0.1259 0.17577 0.09 0.27083 0.1075 0.32491 0.064 0.05405-0.045 0.14277-0.028 0.30287 0.058 0.12454 0.067 0.26424 0.1216 0.31045 0.1216 0.08231 0 0.72108 0.4143 1.2707 0.8241 0.15235 0.1132 0.29588 0.1959 0.31896 0.1827 0.02308-0.014 0.07847 0.025 0.12311 0.087 0.10535 0.1425 0.42008 0.3433 0.4661 0.2973 0.01964-0.02 0.0034-0.035-0.03612-0.035-0.0395 0-0.07182-0.028-0.07182-0.062 0-0.037 0.04832-0.032 0.12066 0.014 0.08737 0.055 0.1001 0.09 0.04617 0.1231-0.05614 0.037-0.05174 0.064 0.01784 0.109 0.11997 0.079 0.20229 0.079 0.15389 0-0.06593-0.1061 0.04931-0.062 0.46167 0.179 0.22006 0.1288 0.39251 0.2675 0.3832 0.309-0.0094 0.041 0.01103 0.058 0.04507 0.037 0.08341-0.051 1.7125 0.7663 1.7569 0.8821 0.03794 0.099-0.06721 0.1921-0.21533 0.1909-0.05078 0-0.27239-0.077-0.49245-0.1726zm-1.2311-0.889c0-0.044-0.05749-0.083-0.12776-0.09-0.1047-0.014-0.11446 0-0.05402 0.079 0.09146 0.1105 0.18178 0.1147 0.18178 0.014zm-0.28673-0.1947c0.02404-0.062 0.0047-0.077-0.06507-0.051-0.05588 0.021-0.08341 0.014-0.06294-0.022 0.01999-0.033-0.01815-0.059-0.08479-0.059-0.11298 0-0.11164 0.014 0.01991 0.1089 0.17104 0.1315 0.15172 0.1288 0.1929 0.023zm-3.7553-2.8315c-0.96255-0.6422-1.2139-0.8342-1.0929-0.8342 0.02373 0 0.28159 0.1482 0.57303 0.3293 0.29144 0.181 0.6407 0.3927 0.77612 0.4705 0.51765 0.297 1.0157 0.6328 1.0157 0.6849 0 0.1502-0.30855-0.014-1.2719-0.6505zm-1.4115-0.1018c-1.7931-1.1046-4.2372-2.84-4.8725-3.4599-0.20885-0.2039-0.32317-0.3666-0.32317-0.46 0-0.1218 0.02213-0.1387 0.1385-0.102 0.19817 0.06 0.2566 0.098 0.48698 0.3058 0.11304 0.1019 0.38558 0.3233 0.60564 0.491 0.22006 0.1676 0.42782 0.3264 0.46167 0.3527 0.03386 0.025 0.23583 0.1732 0.44883 0.3264 0.213 0.1533 0.37183 0.3036 0.35295 0.3342-0.01887 0.031-0.002 0.075 0.03774 0.1005 0.045 0.028 0.05558 0.018 0.02815-0.027-0.05458-0.088-0.0032-0.091 0.15378 0 0.06644 0.035 0.10646 0.088 0.08895 0.116-0.01752 0.028 0.01632 0.048 0.07522 0.042 0.07297 0 0.10068 0.028 0.08706 0.1074-0.01432 0.084 0.007 0.1063 0.07454 0.079 0.05656-0.022 0.19674 0.05 0.349 0.1763 0.13995 0.1175 0.28087 0.2126 0.31315 0.2126 0.07762 0 1.1592 0.6424 1.6063 0.9542 0.19427 0.1358 0.35355 0.2788 0.35395 0.3187 0.00039 0.04 0.09075 0.147 0.20079 0.2381l0.20006 0.1657-0.29515-0.1654c-0.38078-0.2133-0.52216-0.1695-0.18111 0.057 0.23365 0.1546 0.30316 0.2179 0.23963 0.2179-0.0116 0-0.29558-0.1691-0.63095-0.3757zm-3.4118-2.5498c-0.04283-0.051-0.0939-0.077-0.11348-0.058-0.01959 0.02 0.0051 0.06 0.05494 0.094 0.13031 0.082 0.14734 0.073 0.05853-0.034zm7.0494 2.122c-0.13542-0.1372-0.50938-0.4216-0.83101-0.6337-0.70962-0.4679-0.82593-0.5305-0.58478-0.3152l0.18467 0.165-0.277-0.1592c-0.15235-0.088-0.277-0.1851-0.277-0.2168 0-0.032-0.02521-0.08-0.05603-0.1089-0.03255-0.03-0.03749-0.02-0.01175 0.025 0.05974 0.1033-0.0153 0.094-0.25919-0.037-0.11213-0.059-0.23737-0.176-0.27831-0.2581-0.04096-0.082-0.15695-0.1746-0.2578-0.2057-0.10085-0.031-0.29416-0.1076-0.42958-0.1716l-0.24623-0.1146 0.24623 0.023c0.13542 0.014 0.30162 0.042 0.36934 0.068 0.11497 0.042 0.11598 0.04 0.01538-0.042-0.26494-0.2183 0.04972-0.2323 0.3675-0.017 0.12236 0.083 0.24675 0.1358 0.27643 0.1174 0.02969-0.018 0.0931 0 0.14091 0.038 0.04782 0.04 0.12014 0.053 0.1607 0.027 0.04582-0.028 0.05765-0.02 0.0312 0.023-0.0507 0.082 0.42974 0.4035 0.5198 0.3477 0.03344-0.022 0.05319 0 0.04388 0.037-0.0094 0.041 0.02157 0.088 0.06859 0.1047 0.05194 0.018 0.06881 0 0.04297-0.038-0.02341-0.038 0.05286 0 0.16945 0.07 0.11659 0.075 0.20806 0.1654 0.20325 0.1992-0.0048 0.034 0.03282 0.064 0.08359 0.065 0.05078 0 0.20034 0.04 0.33235 0.085 0.18763 0.063 0.21902 0.094 0.14379 0.1358-0.11149 0.062-0.30687 0-0.25714-0.074 0.01849-0.03-0.01018-0.038-0.06387-0.017-0.073 0.028-0.01999 0.092 0.21094 0.2532 0.23605 0.1653 0.29592 0.2383 0.25509 0.3114-0.03958 0.071-0.0035 0.1287 0.13982 0.2253 0.18992 0.1287 0.25261 0.2804 0.1316 0.3197-0.03386 0.014-0.17236-0.092-0.30778-0.2281zm-0.7796 0.1464c-0.12992-0.034-0.20088-0.2047-0.08528-0.2047 0.15291 0 0.2801 0.073 0.2801 0.1604 0 0.088-0.01667 0.092-0.19482 0.044zm0.54877-0.062c-0.05924-0.015-0.10773-0.055-0.10773-0.088 0-0.077-0.27021-0.3284-0.60017-0.5563-0.14389-0.099-0.26161-0.195-0.26161-0.2122 0-0.075 0.83777 0.5191 1.0418 0.7386 0.14744 0.1587 0.13852 0.1732-0.07228 0.1175zm0.35395-0.6673c-0.13542-0.048-0.25844-0.09-0.27338-0.09-0.01495 0 0.02661-0.041 0.09234-0.09 0.09235-0.068 0.10292-0.1048 0.0465-0.1623-0.10275-0.1048 0.05545-0.2565 0.20692-0.1991 0.086 0.032 0.06966-0.014-0.06973-0.2004-0.10012-0.133-0.14167-0.2123-0.09234-0.1753 0.04934 0.037 0.1451 0.087 0.2128 0.1076 0.11437 0.038 0.11546 0.034 0.01538-0.044-0.13898-0.1075-0.1373-0.1589 0.0041-0.1217 0.08029 0.022 0.30129-0.1631 0.78484-0.6537 0.37019-0.3757 0.68202-0.724 0.69296-0.7737 0.04889-0.2223-1.4781-1.5075-1.7905-1.5066-0.0597 0-0.15666-0.027-0.21545-0.059-0.20434-0.1146-0.6889-0.2453-0.77831-0.2111-0.08491 0.032-0.22314 0.3362-0.56915 1.2498l-0.1493 0.3942 0.17171 0.1903c0.09444 0.1047 0.22018 0.2402 0.27943 0.3007 0.11755 0.1202 0.14366 0.1967 0.04688 0.1372-0.03434-0.022-0.04553 0-0.02568 0.054 0.01934 0.051 0.07162 0.077 0.11618 0.06s0.0958-0.014 0.11387 0.023c0.06258 0.102-0.23705 0.042-0.50788-0.1004-0.32449-0.1704-0.59871-0.2211-0.49045-0.091 0.03832 0.047 0.04812 0.083 0.02181 0.083s0.0038 0.057 0.06696 0.1273c0.08782 0.098 0.09662 0.1387 0.03741 0.1748-0.06014 0.037-0.05617 0.065 0.01782 0.1273 0.05239 0.044 0.09525 0.1075 0.09525 0.1427 0 0.035-0.05066 0.017-0.11257-0.038-0.13283-0.1203-0.22139-0.1344-0.15748-0.025 0.02475 0.042-0.01517 0.024-0.0887-0.04-0.15941-0.1401-0.17988-0.211-0.02596-0.091 0.09681 0.076 0.09947 0.073 0.02627-0.02-0.04479-0.058-0.11813-0.091-0.16297-0.074-0.04515 0.017-0.15301-0.062-0.24172-0.1787-0.16248-0.213-0.20443-0.3523-0.1061-0.3523 0.02975 0 0.1996-0.1386 0.37744-0.3082 0.31566-0.3011 0.33204-0.3344 0.68949-1.4005 0.20138-0.6006 0.38171-1.252 0.40072-1.4477 0.01902-0.1957 0.05671-0.3695 0.08378-0.3862 0.02705-0.017 0.01315-0.1061-0.03105-0.1982-0.04413-0.092-0.15507-0.3241-0.24652-0.515-0.09144-0.1909-0.33541-0.648-0.54215-1.0158-0.47658-0.8476-1.032-1.9614-1.032-2.0692 0-0.045-0.02344-0.1089-0.05209-0.1416-0.02865-0.033-0.11506-0.2985-0.19202-0.592-0.12527-0.4774-0.13716-0.6386-0.1135-1.5387 0.0246-0.9364 0.03779-1.0293 0.19202-1.35 0.09108-0.1895 0.16598-0.4113 0.16644-0.4925 0.0013-0.2277 0.06848-0.4274 0.13079-0.389 0.03085 0.02 0.05211 0.014 0.04727-0.015-0.02319-0.133 0.02225-0.2619 0.20331-0.5741 0.10801-0.1862 0.2032-0.3796 0.21151-0.4297 0.0083-0.05 0.09569-0.1609 0.19416-0.2463 0.09846-0.085 0.25437-0.288 0.34646-0.4506 0.2371-0.4188 1.0105-1.3236 1.6907-1.9779 0.31904-0.3069 0.83192-0.8097 1.1397-1.1172 0.30781-0.3075 0.77945-0.7505 1.0481-0.9848 0.26864-0.2342 0.57464-0.5089 0.67999-0.6105 0.10535-0.1018 0.3426-0.3084 0.52723-0.4597 0.57746-0.4732 1.3032-1.11 1.7579-1.5427 0.24054-0.229 0.54524-0.4848 0.67712-0.5686 0.13187-0.083 0.29254-0.2113 0.35704-0.2835 0.12196-0.1358 0.31413-0.1679 0.46002-0.074 0.04864 0.031 0.06457 0.087 0.03736 0.1301-0.0261 0.042-0.05042 0.1331-0.05405 0.2019-0.008 0.1519-0.16047 0.2196-0.16047 0.071 0-0.087-0.0164-0.092-0.09234-0.028-0.15295 0.1274-0.10972 0.2385 0.09022 0.2329 0.10726 0 0.16656-0.031 0.14379-0.068-0.02342-0.038 0.0017-0.047 0.06369-0.023 0.0785 0.03 0.10244 0 0.10244-0.113 0-0.1233 0.03083-0.1521 0.16143-0.1521 0.12073 0 0.14601-0.02 0.10025-0.076-0.0723-0.091-0.05099-0.2815 0.04185-0.3744 0.03621-0.035 0.06582-0.1147 0.06582-0.1731 0-0.059 0.05725-0.1473 0.12723-0.1964 0.0912-0.064 0.13166-0.1678 0.1429-0.3669 0.01635-0.2896 0.1707-0.5967 0.30069-0.5985 0.04863 0 0.04265-0.023-0.0168-0.06-0.07745-0.051-0.07867-0.07-0.0074-0.116 0.04665-0.03 0.06819-0.082 0.04789-0.1146-0.03638-0.059 0.16203-0.346 0.44016-0.6366 0.07809-0.082 0.27821-0.3033 0.44472-0.4925 0.32218-0.3661 0.74549-0.5985 0.84773-0.4656 0.17055 0.2218 0.10182 0.4374-0.08895 0.279-0.08339-0.07-0.09293-0.057-0.07425 0.1019 0.01951 0.1654 0.0034 0.1836-0.17862 0.2013-0.21538 0.022-0.26772 0.1075-0.09234 0.1536 0.08106 0.022 0.07345 0.03-0.03077 0.035-0.07618 0-0.1385-0.022-0.1385-0.055 0-0.034-0.08309-0.06-0.18467-0.06-0.13519 0-0.18442 0.028-0.18373 0.1076 0.002 0.2201 0.07495 0.25 0.39917 0.1642 0.39782-0.1061 0.38054-0.1076 0.41795 0.035 0.02344 0.09 0.08396 0.1232 0.22263 0.1232 0.21946 0 0.22202 0 0.09683 0.2486-0.09884 0.1912-0.4906 0.4285-0.70732 0.4285-0.08774 0-0.15606 0.065-0.21463 0.2056-0.04725 0.1132-0.19127 0.2833-0.32003 0.378-0.12876 0.094-0.44944 0.3968-0.71262 0.6714-0.52066 0.5434-0.56459 0.6898-0.24676 0.823l0.17126 0.073-0.19473-0.032-0.19473-0.032 0.01246 0.2654c0.0074 0.1568 0.04052 0.2598 0.08116 0.2518 0.03782-0.014 0.08438 0.027 0.10346 0.077 0.03905 0.1019-0.11619 0.1273-0.1769 0.028-0.07403-0.1203-0.13576-0.057-0.37435 0.3823-0.43639 0.8031-1.0573 1.5025-2.6419 2.9752-1.1575 1.0761-1.4493 1.261-0.60399 0.3827 0.37878-0.3934 0.7356-0.8062 0.79294-0.917 0.05733-0.1103 0.20634-0.2998 0.33112-0.4198 0.12478-0.1204 0.35571-0.414 0.51319-0.6532 0.17622-0.2675 0.42918-0.5458 0.65779-0.7232 0.37138-0.2886 0.92509-0.9634 0.92509-1.1278 0-0.1785-0.6086-0.2906-0.62326-0.1146-0.0042 0.051-0.01118 0.1146-0.01538 0.1428-0.02423 0.1587-0.72633 1.0567-1.1431 1.462-0.56419 0.5486-0.99034 0.8464-1.9732 1.3791-1.0611 0.5752-1.869 1.211-1.9186 1.5098-0.01117 0.068-0.08009 0.1508-0.153 0.1845-0.07292 0.034-0.3559 0.3159-0.62885 0.6268-0.4571 0.5207-0.5238 0.6325-0.84492 1.416-0.93 2.2687-1.4469 4.4857-1.1557 4.9569 0.02486 0.04 0.04798 0.1372 0.05139 0.2146 0.0064 0.1463 0.21759 0.4161 0.21759 0.278 0-0.1372 0.19194-0.076 0.46307 0.1452 0.14759 0.1217 0.28382 0.2179 0.30275 0.2155h0.08058c0.05519 0.0002 0.3043 0.2089 0.72329 0.6065 0.79395 0.7532 3.4113 2.4962 3.9358 2.6211 0.09951 0.024 0.25568 0.096 0.34706 0.1614 0.38405 0.2735 1.1379 0.3483 2.0504 0.2037 0.31116-0.05 0.25041 0.068-0.12012 0.2319-0.163 0.073-0.2998 0.1868-0.35516 0.2977-0.08678 0.174-0.08417 0.1827 0.07301 0.2403 0.16003 0.058 0.15906 0.059-0.05241 0.064-0.27452 0-0.68957-0.1048-0.76946-0.2048-0.06597-0.082-1.1263-0.6517-1.2143-0.6517-0.02903 0-0.11393-0.057-0.18869-0.1275-0.07477-0.07-0.22595-0.1701-0.33598-0.2224-0.11004-0.053-0.20006-0.1202-0.20006-0.1498 0-0.03-0.03491-0.054-0.07757-0.054-0.04265 0-0.14857-0.067-0.23534-0.1463-0.08677-0.08-0.21809-0.1655-0.29183-0.1888-0.07372-0.023-0.16271-0.096-0.19772-0.1616-0.03501-0.065-0.0973-0.1189-0.13843-0.1174-0.04797 0-0.04166 0.025 0.01756 0.067 0.08208 0.058 0.08208 0.062 0 0.04-0.05078-0.014-0.09234-0.064-0.09234-0.1117 0-0.05-0.06479-0.091-0.14762-0.095-0.08118 0-0.20132-0.073-0.26696-0.1539-0.06564-0.08-0.09808-0.1061-0.0721-0.057 0.05216 0.099-0.29079-0.1217-0.51302-0.3295-0.43744-0.4086-0.46653-0.4326-0.3812-0.3143 0.08571 0.1188 0.08385 0.1203-0.06566 0.023-0.08464-0.054-0.15389-0.1287-0.15389-0.1634 0-0.035-0.02521-0.088-0.05605-0.116-0.03255-0.03-0.03748-0.02-0.01174 0.026 0.07826 0.1358-0.07578 0.082-0.28401-0.099-0.11121-0.096-0.29915-0.2251-0.41765-0.285-0.1185-0.059-0.35633-0.2368-0.52852-0.3933-0.64262-0.5839-0.7026-0.6318-0.7026-0.562 0 0.1047 0.63959 0.7575 1.0395 1.0615 0.19003 0.1443 0.35474 0.2834 0.36603 0.3088 0.01132 0.026 0.05104 0.047 0.08836 0.047s0.12596 0.055 0.19696 0.1217c0.07101 0.067 0.3498 0.2738 0.61953 0.4601 1.2506 0.8638 1.7183 1.169 2.1939 1.4312 0.28189 0.1553 0.76184 0.4206 1.0665 0.5896 1.2948 0.7176 1.541 0.829 2.0036 0.9061 0.25224 0.043 0.50634 0.1019 0.56467 0.1316 0.07203 0.038 0.33556 0 0.82143-0.1358 0.738-0.197 1.176-0.2086 1.4065-0.037 0.1641 0.1218-0.0055 0.5076-0.41631 0.9467-0.3259 0.3485-0.34734 0.3871-0.21476 0.3871 0.31668 0 1.774-0.8284 2.3229-1.3205 0.13901-0.1244 0.19651-0.1515 0.17121-0.08-0.02096 0.059-0.01132 0.1075 0.02152 0.1075 0.0328 0 0.05963-0.023 0.05963-0.052 0-0.028 0.09763-0.1046 0.21695-0.1688 0.11932-0.064 0.27012-0.2186 0.3351-0.3433 0.11432-0.2194 0.15852-0.2806 0.49916-0.6913 0.08726-0.1047 0.24646-0.3208 0.35378-0.4791 0.23609-0.3482 1.1188-2.0937 1.1189-2.2127 0.00006-0.047 0.08009-0.2372 0.1778-0.4234 0.22986-0.4381 0.65947-1.6751 0.70546-2.0314 0.01967-0.1524 0.1198-0.5345 0.22252-0.8492s0.18677-0.6264 0.18677-0.6925c0-0.3078-0.41191 0.014-0.99554 0.7751-0.15672 0.2047-0.32924 0.4089-0.38338 0.4538-0.31492 0.2613 0.13887-0.8479 0.62342-1.524l0.29383-0.41 0.005-0.5233c0.0027-0.2876 0.0116-0.8556 0.01992-1.2617l0.01501-0.7388 0.12174 0.4617c0.06695 0.254 0.1374 0.5239 0.15654 0.6002 0.02595 0.1032 0.07962 0.1387 0.21112 0.1387 0.23278 0 0.25191-0.092 0.22842-1.0901-0.01047-0.4437 0.0035-0.7928 0.03112-0.7756 0.02755 0.017 0.02932-0.075 0.004-0.2059-0.02541-0.1302-0.04941-0.3061-0.05336-0.3908-0.004-0.085-0.03083-0.206-0.05975-0.2695-0.04694-0.1034-0.06377-0.095-0.1575 0.088l-0.10493 0.2028 0.007-0.3282c0.0048-0.23-0.0187-0.3366-0.07864-0.3568-0.05181-0.017-0.06862 0-0.04265 0.041 0.03117 0.051-0.0011 0.053-0.11855 0.014-0.23778-0.091-0.29469-0.076-0.25772 0.065 0.02685 0.1032 0.0076 0.1231-0.10054 0.1075-0.07353-0.014-0.13601-0.047-0.13884-0.08-0.0028-0.034-0.03824-0.1417-0.07866-0.2394-0.04043-0.098-0.06377-0.1875-0.05187-0.1993 0.01188-0.014 0.16645 0.051 0.34346 0.1386 0.43846 0.2185 0.46435 0.1444 0.04358-0.1245-0.36927-0.2363-0.40345-0.2741-0.23594-0.2607 0.11833 0.014 0.12146-0.035 0.0624-0.8841-0.01767-0.2538-0.02155-0.3648-0.0087-0.2462 0.01288 0.1188 0.05049 0.3124 0.08349 0.4309 0.03298 0.1189 0.0732 0.3124 0.08933 0.4309 0.05471 0.4014 0.0757 0.4504 0.25415 0.5927 0.22212 0.1772 0.24525 0.1401 0.30204-0.485 0.03227-0.3552 0.0661-0.4771 0.13236-0.4771 0.04895 0 0.10496 0.041 0.12444 0.092 0.04774 0.1243 0.12997 0.1158 0.1645-0.015 0.02174-0.083 0.02978-0.076 0.03529 0.027 0.0096 0.1807-0.10525 0.242-0.20301 0.109-0.11069-0.1514-0.13945-0.071-0.18655 0.5264-0.02922 0.3703-0.02253 0.4963 0.02287 0.4309 0.03529-0.051 0.06459-0.1562 0.0651-0.2344 0.000584-0.079 0.02833-0.126 0.06249-0.1048 0.03386 0.022 0.06155 0.014 0.06155-0.03 0-0.048 0.03507-0.048 0.11906 0 0.17164 0.092 0.18851 0.082 0.19059-0.1061 0.0037-0.3275 0.12581 0.023 0.20151 0.5783 0.07136 0.5233 0.0746 0.5303 0.33132 0.7069 0.36948 0.2543 0.37783 0.3132 0.01989 0.1401-0.16927-0.082-0.3356-0.1484-0.36962-0.1484-0.09082 0-0.07547 0.1645 0.03539 0.3789 0.06696 0.1287 0.11009 0.4526 0.1385 1.0379l0.04126 0.85 0.33856-0.1974c0.21694-0.1274 0.37722-0.274 0.44619-0.4102 0.13471-0.2661 0.13774-0.1428 0.0079 0.3202-0.09611 0.3425-0.2373 0.4864-0.38677 0.3941-0.03132-0.02-0.13545 0-0.23139 0.038-0.09594 0.041-0.22654 0.075-0.2902 0.077-0.06367 0-0.137 0.06-0.16299 0.1302-0.04305 0.116-0.0246 0.126 0.20809 0.123h0.25532l0.0023 0.2593c0.0017 0.1972-0.06883 0.3879-0.29436 0.796-0.16386 0.2966-0.30974 0.6488-0.32598 0.7873-0.03668 0.3123 0.0703 0.1779 0.12745-0.1604 0.03547-0.2099 0.21366-0.467 0.21366-0.3083 0 0.035-0.02373 0.08-0.05276 0.098s-0.06817 0.182-0.087 0.3644c-0.07085 0.6866-1.0729 3.4277-1.4519 3.972-0.06231 0.09-0.19129 0.3704-0.28662 0.6243-0.35052 0.9337-0.7805 1.88-1.0745 2.3647-0.36701 0.6052-0.8806 1.2426-0.98266 1.2195-0.04117-0.014-0.05584 0.014-0.03257 0.051 0.02326 0.038-0.04938 0.163-0.16139 0.2785-0.22348 0.2307-0.32089 0.2693-0.25839 0.1019 0.03575-0.095 0.02816-0.098-0.06641-0.022-0.08399 0.068-0.08973 0.098-0.0269 0.1372 0.05918 0.037 0.02407 0.1004-0.13559 0.2405-0.63162 0.557-1.5193 1.0377-2.2875 1.2388-0.2823 0.073-0.56057 0.1823-0.61836 0.2411-0.17156 0.1742-0.79111 0.3821-1.1568 0.3883-0.25433 0-0.43781-0.04-0.73748-0.1781-0.288-0.133-0.36502-0.191-0.277-0.2096 0.17358-0.037-1.8993-0.3687-2.3249-0.3725-0.24012 0-0.35412-0.028-0.35448-0.08-0.000387-0.042-0.19596-0.1974-0.43483-0.3449-0.23887-0.1472-0.41924-0.283-0.40084-0.3014 0.01841-0.018 0.13852 0.035 0.26692 0.1217 0.35108 0.2324 0.75394 0.4271 0.75394 0.3646 0-0.03-0.08274-0.09-0.18389-0.1316-0.10114-0.042-0.16895-0.1005-0.15069-0.1302 0.01825-0.03-0.0146-0.035-0.07303-0.014-0.08494 0.033-0.09726 0.017-0.06149-0.076 0.02458-0.064 0.02686-0.099 0.0051-0.076-0.02183 0.022-0.16645-0.014-0.3214-0.08-0.20191-0.087-0.294-0.1005-0.32508-0.051-0.03025 0.05-0.12479 0.024-0.31281-0.082-0.91002-0.5156-1.0879-0.6227-1.2543-0.7562-0.54569-0.4378-1.323-1.0085-1.5389-1.1298l-0.24623-0.1386 0.20903 0.1861c0.1743 0.1554 0.18609 0.1804 0.07095 0.1502-0.12774-0.034-0.13191-0.027-0.05571 0.096 0.04529 0.073 0.09808 0.1316 0.11731 0.1316s0.47655 0.3027 1.0163 0.6728c2.1385 1.4666 2.3663 1.6329 2.3663 1.7259 0 0.027-0.15126 0.163-0.33614 0.3025-0.18488 0.14-0.55397 0.4545-0.82021 0.6999-0.26624 0.2453-0.60998 0.5484-0.76386 0.6733-0.27885 0.2264-0.27982 0.2286-0.2887 0.6383-0.01231 0.5703-0.01047 0.5683-0.40723 0.4255zm2.0773-2.9147c-0.17789-0.1621-0.3995-0.3339-0.49245-0.3817-0.14588-0.075-1.345-0.8491-1.8002-1.1619-0.21491-0.1478-0.43089-0.2592-0.43089-0.2224 0 0.017 0.07618 0.074 0.16928 0.1289 0.17263 0.1005 0.05405 0.098-0.19431 0-0.08912-0.037-0.07559 0 0.05633 0.1469 0.16629 0.1865 0.26016 0.2564 0.18812 0.14-0.08261-0.1329 0.15098-0.1061 0.28185 0.034 0.18141 0.1934 1.2114 0.9308 1.6224 1.1617 0.16928 0.095 0.35246 0.2107 0.40707 0.2568 0.05461 0.047 0.16224 0.096 0.23917 0.1104 0.07692 0.014 0.15459 0.041 0.17258 0.059 0.01798 0.018 0.04887 0.031 0.06862 0.03 0.01975 0-0.10964-0.1357-0.28754-0.2975zm2.6728-0.9616c0-0.053-0.05441-0.092-0.12825-0.091-0.126 0-0.12615 0-0.0088 0.092 0.14556 0.1103 0.13699 0.1103 0.13699 0zm0.3283-0.2453c0-0.04-0.4259-0.2166-0.51536-0.2147-0.03819 0 0.04137 0.053 0.1768 0.1173 0.26016 0.1232 0.33856 0.1456 0.33856 0.096zm0.80023-0.1548c-0.18621-0.099-0.38011-0.1801-0.43089-0.1814-0.05078 0 0.07388 0.077 0.277 0.177 0.47902 0.2331 0.59297 0.2363 0.15389 0zm-0.55401 0.038c0-0.014-0.05541-0.038-0.12311-0.055-0.06772-0.018-0.12311 0-0.12311 0.025 0 0.03 0.05541 0.055 0.12311 0.055 0.06772 0 0.12311-0.014 0.12311-0.025zm-0.89256-0.1465c-0.03386-0.026-0.06157-0.08-0.06157-0.1232 0-0.044-0.12465-0.1516-0.277-0.241-0.24899-0.1465-0.26514-0.1494-0.15974-0.03 0.06596 0.075 0.08598 0.1331 0.04576 0.1331-0.0775 0-0.30542-0.2386-0.32347-0.3386-0.0116-0.064-0.38101-0.3336-0.85523-0.6237-0.33446-0.2046-1.5845-1.0334-1.9705-1.3065-0.26819-0.1897-0.80184-0.3467-0.71806-0.2111 0.02148 0.035 0.11802 0.079 0.21452 0.098 0.09649 0.02 0.63923 0.3484 1.2061 0.7312 0.56683 0.3829 1.1325 0.7582 1.257 0.8337 0.12452 0.075 0.19667 0.1387 0.16033 0.1387-0.03633 0-0.38952-0.1912-0.78484-0.4261-0.39532-0.2348-0.71877-0.4182-0.71877-0.4075 0 0.027 1.1295 0.8888 1.4393 1.0983 0.36199 0.2447 0.70701 0.4201 0.89303 0.4536 0.08838 0.015 0.24379 0.082 0.34536 0.1473 0.17178 0.1103 0.44686 0.1754 0.30778 0.074zm-2.617-0.1836c-0.000583-0.025-0.21163-0.1518-0.4692-0.2809-0.56306-0.282-1.5263-0.9012-1.9922-1.2805-0.49248-0.4011-0.57399-0.4208-0.18191-0.044 0.45135 0.4337 1.1774 0.9313 1.9355 1.3263 0.63044 0.3284 0.70929 0.3594 0.70774 0.2791zm3.0736 0.024c-0.01414-0.014-0.0949-0.055-0.17954-0.096-0.1451-0.07-0.14707-0.068-0.03439 0.023 0.09805 0.077 0.29842 0.1474 0.21394 0.075zm0.52869-0.3174c-0.23681-0.1528-0.43995-0.2494-0.45141-0.2151-0.01146 0.034-0.0522 0.062-0.0905 0.062-0.12 0-1.5181-0.7293-1.7052-0.8895-0.14892-0.1274-0.73422-0.5263-0.77245-0.5263-0.08653 0 0.06195 0.1345 0.2686 0.244 0.12476 0.067 0.19632 0.1218 0.159 0.1231-0.1104 0-0.48746-0.2804-0.47122-0.3557 0.0082-0.038-0.07489-0.1161-0.18467-0.1724-0.10978-0.056-0.31255-0.1952-0.45058-0.3079-0.13804-0.1131-0.35964-0.2502-0.49245-0.3056-0.23815-0.099-0.23999-0.099-0.13362 0.018 0.05932 0.065 0.08701 0.1426 0.06157 0.1707-0.02546 0.028-0.0109 0.031 0.03234 0 0.04872-0.028 0.14824 0.03 0.26161 0.1506 0.10063 0.1075 0.18296 0.1802 0.18296 0.1612 0-0.018 0.06431 0.027 0.14289 0.102 0.23243 0.2206 0.58034 0.4557 1.6115 1.0885 0.16928 0.1034 0.41858 0.2695 0.554 0.3678 0.13542 0.098 0.25455 0.1556 0.26472 0.1273 0.01018-0.028 0.14538 0.02 0.30046 0.1062 0.20758 0.116 0.30825 0.1414 0.38162 0.096 0.12216-0.074 0.45391 0 0.56113 0.1331 0.04226 0.051 0.14962 0.092 0.23858 0.092 0.13514 0 0.09091-0.047-0.26882-0.2781zm1.1385-0.091c-0.12127-0.077-0.26389-0.077-0.21545 0 0.02093 0.034 0.09873 0.06 0.17291 0.06 0.10965 0 0.11761-0.014 0.04253-0.06zm-7.079-0.7042c0-0.015-0.0277-0.044-0.06157-0.065-0.03386-0.022-0.06155-0.014-0.06155 0.027 0 0.035 0.0277 0.065 0.06155 0.065 0.03386 0 0.06157-0.014 0.06157-0.027zm4.3797-0.927c0-0.033-0.02978-0.068-0.06617-0.08-0.03639-0.014-0.06617 0.025-0.06617 0.08 0 0.057 0.02978 0.092 0.06617 0.08 0.03639-0.014 0.06617-0.048 0.06617-0.08zm-0.80947-0.4243c0-0.014-0.04298-0.041-0.09553-0.06-0.05478-0.022-0.07949-0.014-0.05793 0.024 0.03615 0.058 0.15345 0.087 0.15345 0.037zm-2.0314-0.5584c0-0.015-0.06232-0.062-0.1385-0.1018-0.12558-0.067-0.13062-0.064-0.05401 0.028 0.07865 0.094 0.19252 0.1387 0.19252 0.074zm-0.92211-0.4317c-0.04283-0.051-0.10217-0.094-0.13188-0.094-0.0297 0-0.0055 0.051 0.05371 0.1132 0.12694 0.133 0.19134 0.1173 0.07818-0.02zm-0.06279-1.0458c0-0.015-0.06232-0.059-0.1385-0.096-0.133-0.065-0.13375-0.064-0.01902 0.028 0.12559 0.1005 0.15752 0.1147 0.15752 0.067zm-2.3831-3.0499c-0.02428-0.094-0.0088-0.1147 0.06178-0.088 0.10779 0.041 0.14744-0.065 0.16094-0.4343 0.01547-0.4228 0.12914-0.9657 0.30932-1.4774 0.09537-0.2708 0.20853-0.6033 0.25148-0.7388 0.04295-0.1358 0.09099-0.2808 0.10675-0.3231 0.01578-0.042-0.0025-0.076-0.04028-0.076-0.07623 0-0.18266 0.2206-0.55284 1.1454-0.20327 0.5078-0.26067 0.7451-0.31259 1.2927-0.07779 0.8203-0.07855 0.9025-0.0079 0.8588 0.03068-0.018 0.04118-0.091 0.02336-0.1584zm17.453-1.6043c-0.01217-0.037-0.04838-0.067-0.08053-0.067-0.03217 0-0.06842 0.03-0.08054 0.067-0.01217 0.037 0.02411 0.067 0.08054 0.067s0.09266-0.03 0.08053-0.067zm-16.286-2.4537c0.19697-0.4155 0.1971-0.4167 0.02998-0.2502-0.08493 0.085-0.21333 0.2904-0.28536 0.457-0.13027 0.3015-0.13028 0.3025-0.0044 0.1886 0.06964-0.062 0.18652-0.241 0.25974-0.3954zm1.2782-1.2351c0-0.034-0.01218-0.06-0.02715-0.06-0.01495 0-0.04428 0.028-0.06519 0.06-0.02093 0.034-0.0087 0.06 0.02715 0.06s0.06519-0.027 0.06519-0.06zm-3.4164 17.265c-0.10156-0.083-0.15697-0.1515-0.12311-0.1515s0.14466 0.068 0.24622 0.1515c0.10156 0.083 0.15697 0.1514 0.12311 0.1514s-0.14466-0.068-0.24623-0.1514zm0.25648-0.5008c-0.02257-0.023-0.04103-0.07-0.04103-0.1048 0-0.038 0.02867-0.035 0.07284 0.014 0.04006 0.04 0.05853 0.088 0.04103 0.1046-0.0175 0.017-0.05027 0.014-0.07284-0.014zm-2.1155-0.1628c-0.02708-0.044-0.11772-0.1274-0.20142-0.1847-0.19868-0.1359-0.10322-0.1344 0.12731 0 0.09834 0.057 0.17878 0.1415 0.17878 0.1847 0 0.1018-0.04216 0.1005-0.10466 0zm2.1048-0.1047c-0.02069-0.034 0.0055-0.06 0.05835-0.06 0.05279 0 0.09597-0.031 0.09597-0.07 0-0.038-0.05437-0.055-0.12392-0.037-0.08194 0.022-0.14523-0.014-0.18683-0.085-0.0753-0.1415-0.04006-0.1415 0.27325 0l0.2395 0.1061-0.15934 0.1046c-0.09706 0.063-0.17405 0.08-0.19696 0.044zm2.1513-0.1565c-0.11475-0.092-0.11398-0.094 0.01902-0.028 0.07618 0.037 0.1385 0.08 0.1385 0.096 0 0.047-0.03192 0.034-0.15751-0.067zm-4.8014-0.1849c-0.11475-0.092-0.11398-0.094 0.01902-0.028 0.07618 0.037 0.1385 0.08 0.1385 0.096 0 0.047-0.03192 0.034-0.15751-0.067zm4.1708-0.2173c-0.14209-0.1046-0.25835-0.203-0.25835-0.2189 0-0.048 0.37139 0.1867 0.47534 0.3013 0.14361 0.1582 0.07442 0.1316-0.21699-0.082zm17.413-12.28c0.003-0.073 0.01753-0.087 0.03719-0.037 0.01778 0.044 0.0156 0.098-0.0048 0.1175-0.02046 0.02-0.035-0.015-0.03233-0.08zm0.05669-0.2141c0-0.035-0.03462-0.045-0.07694-0.02-0.04232 0.026-0.02418-0.015 0.04032-0.09 0.14667-0.1671 0.149-0.1668 0.11325 0.02-0.02966 0.1553-0.07662 0.2096-0.07662 0.09zm0.59505-2.2533c-0.02257-0.023-0.04103-0.07-0.04103-0.1047 0-0.038 0.02867-0.035 0.07284 0.014 0.04006 0.04 0.05853 0.088 0.04103 0.1047-0.0175 0.017-0.05027 0.014-0.07284-0.014zm-0.11799-0.3134c-0.16005-0.099-0.22428-0.2023-0.12311-0.1973 0.07174 0 0.42343 0.305 0.35395 0.3036-0.03386 0-0.13772-0.048-0.23084-0.1061zm-2.3238-0.2191c0-0.045 0.07228-0.1493 0.16062-0.2313 0.08835-0.082 0.18354-0.2047 0.21155-0.2724 0.04644-0.1118 0.05126-0.1132 0.05483-0.014 0.0051 0.1475-0.16337 0.4308-0.31105 0.523-0.0918 0.057-0.11595 0.055-0.11595-0.014zm0.98381-4.1818c-0.000584-0.4147-0.03075-1.0032-0.06702-1.308-0.07268-0.6107-0.12024-3.9726-0.05262-3.7205 0.02325 0.087 0.07365 1.0286 0.11202 2.0929 0.03836 1.0645 0.08539 2.3301 0.1045 2.8126 0.02371 0.5988 0.014 0.8772-0.03051 0.8772-0.04236 0-0.06564-0.2647-0.06636-0.7542zm-1.3167 0.308c-0.01867-0.1779-0.06382-0.6696-0.10029-1.0928-0.06692-0.7763-0.34982-3.0916-0.39869-3.2624-0.06264-0.219-0.22653-1.7244-0.30829-2.8317-0.04876-0.6601-0.13052-1.4634-0.1817-1.785-0.18301-0.7527 0.03038-4.2564-0.0021-2.1853-0.01358 0.8413-0.005 1.0742 0.02723 0.7354 0.31146-2.6415 0.28859 0.218 0.27906 1.0157-0.03305 2.6151-0.03484 2.6013 0.42609 3.3167 0.23801 0.3695 0.28991 0.6048 0.47759 2.1651 0.18961 1.5763 0.20173 1.7717 0.11626 1.8748-0.13809 0.1664-0.18674 0.5457-0.18783 1.4647-0.000955 0.8978-0.08103 1.2152-0.14734 0.5848zm-0.21871-4.613c-0.03732-0.2405-0.09628-0.4817-0.13103-0.536-0.09376-0.1466-0.02633 0.9023 0.0728 1.1324l0.07959 0.1846 0.02325-0.1717c0.01273-0.095-0.0073-0.3688-0.0446-0.6093zm-6.2811 0.2074c0-0.074 0.11678-0.1612 0.15948-0.119 0.01549 0.015-0.014 0.064-0.06564 0.1062-0.0585 0.048-0.09382 0.054-0.09382 0.014zm2.2776-0.5269c0-0.014 0.04847-0.06 0.10773-0.1075 0.09763-0.076 0.09981-0.075 0.02325 0.023-0.08041 0.102-0.13096 0.1359-0.13096 0.085zm0.01245-0.6448c-0.06339-0.04-0.05925-0.068 0.02008-0.133 0.08228-0.068 0.10878-0.07 0.14992 0 0.0275 0.045 0.08771 0.06 0.13381 0.038 0.04609-0.025 0.03005 0-0.03565 0.054-0.13635 0.1104-0.1581 0.1146-0.26815 0.044zm0.24914-0.4467c0.0085-0.038-0.0925-0.1061-0.22437-0.1538-0.36754-0.1316-0.43159-0.2023-0.30626-0.3407 0.14366-0.1588 0.42371-0.1472 0.54253 0.023 0.10624 0.1516 0.13089 0.5403 0.03427 0.5403-0.03386 0-0.05463-0.031-0.04617-0.068zm4.9188-2.0861c0-0.085 0.014-0.1188 0.03104-0.076 0.01707 0.042 0.01707 0.1117 0 0.1537s-0.03104 0.014-0.03104-0.076zm-0.05284-1.0464c0-0.1863 0.01161-0.2626 0.02564-0.1695 0.01415 0.094 0.01415 0.2456 0 0.3387-0.01414 0.094-0.02564 0.017-0.02564-0.1692z" style="fill:#fff"/>
 </g>
 <rect id="rect892-2-7-8" style="opacity:.15891;stroke:#000;stroke-width:4.8445;fill:none" transform="scale(1,-1)" ry="28.993" height="114.35" width="114.22" y="-121.16" x="6.8687"/>
 <rect id="rect892-2-7-1" style="opacity:.15891;stroke:#000;stroke-width:7.7512;fill:none" transform="scale(1,-1)" ry="28.993" height="114.35" width="114.22" y="-121.16" x="6.8687"/>
 <rect id="rect892-2-7-2-9" ry="28.067" style="stroke:#000;stroke-width:1.0489;fill:none" transform="scale(1,-1)" height="112.71" width="114.14" y="-120.31" x="7.0649"/>
 <path id="path1187" style="fill:#fff;fill-opacity:.057143" d="m33.017 7.2319c-23.707 0-26.027 0.6738-25.93 26.295-0.04334 0.71563-0.07674 1.4439-0.07674 2.1732v32.76c18.67-38.321 38.34-51.497 90.374-61.179-0.225-0.026-0.46-0.0303-0.691-0.0303-41.576 0.3874-25.652-0.0188-63.676-0.0188z"/>
 <rect id="rect3745" style="opacity:.9;filter:url(#filter3174-9);display:none;fill:url(#linearGradient6422-6)" transform="matrix(2.3333 0 0 2.3333 8 8)" rx="6" ry="6" height="85" width="86" y="11.602" x="163.64"/>
 <rect id="rect3745-9" style="opacity:.9;filter:url(#filter3174-3-0);display:none;fill:url(#linearGradient7720-4)" transform="matrix(2.3333 0 0 2.3333 8 8)" rx="6" ry="6" height="85" width="86" y="5.5" x="80.661"/>
 <rect id="rect3745-3" style="opacity:.9;filter:url(#filter3174-7-7);display:none;fill:url(#linearGradient16955-6)" transform="matrix(2.3333 0 0 2.3333 8 8)" rx="6" ry="6" height="85" width="86" y="-.60169" x="-202.46"/>
 <rect id="rect3745-97" style="opacity:.9;filter:url(#filter3174-5-0);display:none;fill:url(#linearGradient3904-7)" transform="matrix(2.3333 0 0 2.3333 8 8)" rx="6" ry="6" height="85" width="86" y="7.8011" x="-151.15"/>
 <rect id="rect3745-5" style="opacity:.9;filter:url(#filter3174-16-2);display:none;fill:url(#linearGradient4326-3)" transform="matrix(2.3333 0 0 2.3333 8 8)" rx="6" ry="6" height="85" width="86" y="61.302" x="-13.086"/>
</svg>
