<?xml version="1.0" encoding="UTF-8" standalone="no"?>
<!-- Created with Inkscape (http://www.inkscape.org/) -->
<svg id="svg5453" xmlns:rdf="http://www.w3.org/1999/02/22-rdf-syntax-ns#" xmlns="http://www.w3.org/2000/svg" height="64" width="64" version="1.1" xmlns:cc="http://creativecommons.org/ns#" xmlns:xlink="http://www.w3.org/1999/xlink" xmlns:dc="http://purl.org/dc/elements/1.1/">
 <defs id="defs5455">
  <linearGradient id="linearGradient10385" y2="50.369" gradientUnits="userSpaceOnUse" x2="76.558" gradientTransform="matrix(.49210 0 0 .49742 385.71 -548.91)" y1="13.164" x1="76.558">
   <stop id="stop3392" style="stop-color:#425e7b" offset="0"/>
   <stop id="stop3394" style="stop-color:#7a91a7" offset="1"/>
  </linearGradient>
  <linearGradient id="linearGradient10387" y2="-8.7399" gradientUnits="userSpaceOnUse" x2="60.217" gradientTransform="matrix(.49210 0 0 .49742 385.17 -483.22)" y1="-123.72" x1="60.395">
   <stop id="stop3392-4-8" style="stop-color:#425e7b" offset="0"/>
   <stop id="stop3394-8-0" style="stop-color:#7a91a7" offset="1"/>
  </linearGradient>
  <linearGradient id="linearGradient10389" y2="-9.1034" gradientUnits="userSpaceOnUse" x2="66.492" gradientTransform="matrix(.49210 0 0 .49742 385.17 -483.22)" y1="-42.638" x1="67.952">
   <stop id="stop4620" style="stop-color:#37414b" offset="0"/>
   <stop id="stop4622" style="stop-color:#37414b;stop-opacity:0" offset="1"/>
  </linearGradient>
  <linearGradient id="linearGradient10391" y2="-11.847" gradientUnits="userSpaceOnUse" x2="58.98" gradientTransform="matrix(.49210 0 0 .49742 385.17 -483.22)" y1="-118.55" x1="57.173">
   <stop id="stop4596" offset="0"/>
   <stop id="stop4598" style="stop-opacity:0" offset="1"/>
  </linearGradient>
  <radialGradient id="radialGradient10393" gradientUnits="userSpaceOnUse" cy="45.647" cx="42.148" gradientTransform="matrix(.61708 -.029284 .027419 .57778 378.91 469.39)" r="58.984">
   <stop id="stop10770" style="stop-color:#89b6e1" offset="0"/>
   <stop id="stop10772" style="stop-color:#649ad6" offset="1"/>
  </radialGradient>
  <linearGradient id="linearGradient10395" y2="497.8" gradientUnits="userSpaceOnUse" x2="404.57" gradientTransform="matrix(.82366 0 0 1 79.52 -2.625)" y1="477.8" x1="384.57">
   <stop id="stop4235" style="stop-color:#2f75dc" offset="0"/>
   <stop id="stop4237" style="stop-color:#6084d1;stop-opacity:0" offset="1"/>
  </linearGradient>
 </defs>
 <metadata id="metadata5458">
  <rdf:RDF>
   <cc:Work rdf:about="">
    <dc:format>image/svg+xml</dc:format>
    <dc:type rdf:resource="http://purl.org/dc/dcmitype/StillImage"/>
    <dc:title/>
   </cc:Work>
  </rdf:RDF>
 </metadata>
 <g id="layer1" transform="translate(-384.57 -483.8)">
  <g id="g10374" transform="translate(.00071696 -.0055850)">
   <rect id="rect892" ry="14.878" style="stroke:url(#linearGradient10387);stroke-width:.49475;fill:url(#linearGradient10385)" transform="scale(1,-1)" height="58.676" width="58.048" y="-545.39" x="387.64"/>
   <rect id="rect892-2" ry="14.724" style="stroke:url(#linearGradient10391);stroke-width:.49475;fill:url(#linearGradient10389)" transform="scale(1,-1)" height="58.07" width="58.048" y="-544.99" x="387.65"/>
   <path id="rect895" style="fill:url(#radialGradient10393)" d="m400.86 486.99c-4.0503-1.2438-13.729 7.7065-13.038 11.7-0.0255 0.49454-0.0451 0.99781-0.0451 1.5018v26.621c0 10.602 5.4442 17.195 11.343 17.195h34.071c6.4231 0 12.359-5.7106 12.359-13.133v-32.511c0.35356-5.551-10.819-12.524-13.178-11.488-24.317 0.43952-9.1565 0.11361-31.511 0.11361z"/>
   <path id="path4230" d="m399.57 487.17 21.415 26 0.82366 1 23.886-16.743-3.125-4.6318-19.938-1.625-2.471-4z" style="fill:url(#linearGradient10395);fill-rule:evenodd"/>
   <rect id="rect892-2-7-8" ry="14.724" style="opacity:.15891;stroke:#000;stroke-width:2.4612;fill:none" transform="scale(1,-1)" height="58.07" width="58.048" y="-544.83" x="387.55"/>
   <rect id="rect892-2-7-2-9" style="stroke:#000;stroke-width:.53286;fill:none" transform="scale(1,-1)" ry="14.254" height="57.239" width="58.008" y="-544.4" x="387.65"/>
   <rect id="rect892-2-7-1" ry="14.724" style="opacity:.15891;stroke:#000;stroke-width:3.9379;fill:none" transform="scale(1,-1)" height="58.07" width="58.048" y="-544.83" x="387.55"/>
   <path id="path1187" style="fill:#fff;fill-opacity:.057143" d="m400.84 486.97c-12.048 0-13.227 0.34219-13.178 13.354-0.022 0.36343-0.039 0.73329-0.039 1.1037v16.637c9.4888-19.461 19.486-26.153 45.93-31.07-0.11421-0.0133-0.23371-0.0156-0.35102-0.0156-21.13 0.19676-13.037-0.01-32.362-0.01z"/>
  </g>
  <path id="path2996-6" style="fill:#f2f2f2" d="m416.68 493.48c-1.476 5.9049-7.5329 11.3-0.4783 18.145-6.253-6.01-0.83178-10.771 0.49325-15.963 1.278 4.6683 5.9053 8.9271 2.257 14.214 4.4349-6.1333-0.82731-11.016-2.2719-16.397zm-0.4783 18.145c0.20435 0.1983 0.40097 0.3971 0.62777 0.59787l0.0149-0.0149c-0.22654-0.19654-0.441-0.38905-0.64271-0.58292z"/>
  <path id="path2996-0" style="fill:#f2f2f2" d="m416.32 519.37l-0.0149 0.0149c0.22654 0.19655 0.441 0.38905 0.64271 0.58292-0.20435-0.19829-0.40097-0.3971-0.62776-0.59787zm0.62776 0.59787c6.253 6.0102 0.83186 10.771-0.49324 15.963-1.278-4.6683-5.9054-8.927-2.257-14.214-4.4349 6.1334 0.82735 11.016 2.2719 16.397 1.476-5.905 7.5329-11.3 0.4783-18.145z"/>
  <path id="path2996-76" style="fill:#f2f2f2" d="m419.16 518.29c-0.0315 0.30336-0.0433 0.59574-0.0598 0.88186 0.0175-0.27923 0.0407-0.56891 0.0747-0.86691 0.29992-0.003 0.58736 0.004 0.86691 0.0149-0.28651-0.0131-0.57662-0.0301-0.88186-0.0299zm-0.0598 0.88186c-0.56512 9.808 7.5361 9.697 12.615 13.049-2.6511-5.0892-1.963-12.542-10.104-13.751 7.0015 1.1133 6.3452 7.6646 8.6392 12.122-4.487-2.9294-11.693-2.7631-11.15-11.419zm2.5111-0.7025c-0.2299-0.0341-0.45824-0.0806-0.7025-0.10462 0.2437 0.0244 0.47527 0.0685 0.7025 0.10462z"/>
  <path id="path2996-6-2" style="fill:#f2f2f2" d="m427.6 512.06c-2.1638-0.0189-4.4173 0.84513-6.8606 3.363 6.0104-6.2533 10.771-0.83153 15.963 0.49325-4.6684 1.2782-8.9273 5.905-14.214 2.257 6.1331 4.4346 11.016-0.84199 16.397-2.2869-3.7974-0.94902-7.3858-3.7923-11.285-3.8264zm-6.8606 3.363c-0.1983 0.20436-0.39709 0.40096-0.59787 0.62777l0.0149 0.0149c0.19656-0.22655 0.38904-0.44099 0.58292-0.64271z"/>
  <path id="path2996" style="fill:#f2f2f2" d="m433.04 500.67c-5.0893 2.6513-12.542 1.963-13.751 10.104 1.1136-7.0016 7.6645-6.345 12.122-8.6392-2.9295 4.487-2.7632 11.693-11.419 11.15 9.8079 0.56464 9.6967-7.5359 13.049-12.615zm-13.049 12.615c-0.27923-0.0175-0.56891-0.0407-0.86691-0.0747-0.003-0.29992 0.004-0.58736 0.015-0.86691-0.0131 0.28651-0.0301 0.57663-0.0299 0.88186 0.30335 0.0315 0.59574 0.0433 0.88186 0.0598zm-0.70249-2.5111c-0.0355 0.23897-0.0801 0.4779-0.10463 0.7324 0.0247-0.24935 0.0677-0.50026 0.10463-0.7324z"/>
  <path id="path2996-0-0" style="fill:#f2f2f2" d="m405.47 511.67c-3.8978 0.10207-7.4296 3.0205-11.21 4.0356 5.9049 1.4757 11.299 7.5183 18.145 0.46335-6.0104 6.2532-10.771 0.83154-15.963-0.49324 4.6685-1.2782 8.9272-5.905 14.214-2.257-1.8241-1.3189-3.5365-1.792-5.1865-1.7488zm6.9353 4.499c0.19831-0.20436 0.39709-0.40096 0.59787-0.62776l-0.0149-0.0149c-0.19656 0.22655-0.38903 0.44099-0.58292 0.64271z"/>
  <path id="path2996-6-3-7" style="fill:#f2f2f2" d="m401.39 499.46c2.6512 5.0894 1.9622 12.543 10.104 13.751-7.0016-1.1133-6.3451-7.6646-8.6392-12.122 4.4871 2.9293 11.693 2.7631 11.15 11.419 0.56507-9.808-7.536-9.6969-12.615-13.049zm12.615 13.049c-0.0175 0.27923-0.0407 0.56891-0.0747 0.86691-0.29992 0.003-0.58736-0.004-0.86691-0.0149 0.28651 0.0131 0.57662 0.0301 0.88186 0.0299 0.0315-0.30335 0.0433-0.59574 0.0598-0.88186z"/>
  <path id="path2996-6-3" style="fill:#f2f2f2" d="m412.28 518.32c-8.8058 0.0301-8.8131 7.7592-12.047 12.66 5.0895-2.6515 12.542-1.9621 13.751-10.104-1.1137 7.0016-7.6645 6.345-12.122 8.6392 2.9296-4.4872 2.7631-11.693 11.419-11.15-0.34476-0.0198-0.68063-0.0459-1.0014-0.0448zm1.0014 0.0448c0.27923 0.0175 0.56891 0.0407 0.86691 0.0747 0.003 0.29992-0.004 0.58736-0.0149 0.86691 0.0131-0.28651 0.0301-0.57662 0.0299-0.88186-0.30335-0.0315-0.59574-0.0433-0.88186-0.0598z"/>
  <path id="path2996-7-8-8" style="fill:#f2f2f2" d="m416.74 500.68c0.93478 3.4146 4.661 6.4796 0.0919 10.585-4.6397-4.0253-0.96724-7.155-0.0919-10.585z"/>
  <path id="path2996-7-8-1" style="fill:#f2f2f2" d="m416.4 530.91c-0.93475-3.4146-4.6609-6.4796-0.0918-10.585 4.6396 4.0253 0.9672 7.1551 0.0918 10.585z"/>
  <path id="path2996-7-8-6" style="fill:#f2f2f2" d="m426.9 526.87c-1.6201-3.1477-0.94733-7.9255-7.0896-7.8606-0.69644 6.103 4.1253 5.9254 7.0896 7.8606z"/>
  <path id="path2996-7-8-8-0" style="fill:#f2f2f2" d="m431.69 515.96c-3.4146 0.93492-6.4798 4.6612-10.585 0.0924 4.0256-4.6398 7.1551-0.96761 10.585-0.0924z"/>
  <path id="path2996-7-8" style="fill:#f2f2f2" d="m427.68 505.49c-3.1478 1.6202-7.9256 0.94769-7.861 7.09 6.103 0.69614 5.9256-4.1256 7.861-7.09z"/>
  <path id="path2996-7-8-1-8" style="fill:#f2f2f2" d="m401.46 515.63c3.4146-0.9349 6.4798-4.6612 10.585-0.0923-4.0256 4.6398-7.1552 0.96758-10.585 0.0923z"/>
  <path id="path2996-7-8-8-1-3" style="fill:#f2f2f2" d="m406.21 504.82c1.6201 3.1477 0.94738 7.9255 7.0897 7.8607 0.69642-6.103-4.1254-5.9255-7.0897-7.8607z"/>
  <path id="path2996-7-8-8-1" style="fill:#f2f2f2" d="m405.59 526.16c3.1478-1.6203 7.9256-0.94773 7.861-7.0901-6.103-0.69615-5.9256 4.1257-7.861 7.0901z"/>
  <path id="path3404" style="stroke:#f2f2f2;stroke-width:2.3635;fill:none" d="m5 558.26a4.6429 4.4643 0 1 1 -9.2857 0 4.6429 4.4643 0 1 1 9.2857 0z" transform="matrix(.48903 .54372 -.57217 .51604 735.82 227.52)"/>
 </g>
</svg>
