<?xml version="1.0" encoding="UTF-8" standalone="no"?>
<!-- Created with Inkscape (http://www.inkscape.org/) -->
<svg id="svg5453" xmlns:rdf="http://www.w3.org/1999/02/22-rdf-syntax-ns#" xmlns="http://www.w3.org/2000/svg" height="64" width="64" version="1.1" xmlns:cc="http://creativecommons.org/ns#" xmlns:xlink="http://www.w3.org/1999/xlink" xmlns:dc="http://purl.org/dc/elements/1.1/">
 <defs id="defs5455">
  <linearGradient id="linearGradient10385" y2="50.369" gradientUnits="userSpaceOnUse" x2="76.558" gradientTransform="matrix(.49210 0 0 .49742 385.71 -548.91)" y1="13.164" x1="76.558">
   <stop id="stop3392" style="stop-color:#425e7b" offset="0"/>
   <stop id="stop3394" style="stop-color:#7a91a7" offset="1"/>
  </linearGradient>
  <linearGradient id="linearGradient10387" y2="-8.7399" gradientUnits="userSpaceOnUse" x2="60.217" gradientTransform="matrix(.49210 0 0 .49742 385.17 -483.22)" y1="-123.72" x1="60.395">
   <stop id="stop3392-4-8" style="stop-color:#425e7b" offset="0"/>
   <stop id="stop3394-8-0" style="stop-color:#7a91a7" offset="1"/>
  </linearGradient>
  <linearGradient id="linearGradient10389" y2="-9.1034" gradientUnits="userSpaceOnUse" x2="66.492" gradientTransform="matrix(.49210 0 0 .49742 385.17 -483.22)" y1="-42.638" x1="67.952">
   <stop id="stop4620" style="stop-color:#37414b" offset="0"/>
   <stop id="stop4622" style="stop-color:#37414b;stop-opacity:0" offset="1"/>
  </linearGradient>
  <linearGradient id="linearGradient10391" y2="-11.847" gradientUnits="userSpaceOnUse" x2="58.98" gradientTransform="matrix(.49210 0 0 .49742 385.17 -483.22)" y1="-118.55" x1="57.173">
   <stop id="stop4596" offset="0"/>
   <stop id="stop4598" style="stop-opacity:0" offset="1"/>
  </linearGradient>
  <radialGradient id="radialGradient10393" gradientUnits="userSpaceOnUse" cy="45.647" cx="42.148" gradientTransform="matrix(.61708 -.029284 .027419 .57778 378.91 469.39)" r="58.984">
   <stop id="stop10770" style="stop-color:#89b6e1" offset="0"/>
   <stop id="stop10772" style="stop-color:#649ad6" offset="1"/>
  </radialGradient>
  <linearGradient id="linearGradient10395" y2="497.8" gradientUnits="userSpaceOnUse" x2="404.57" gradientTransform="matrix(.82366 0 0 1 79.52 -2.625)" y1="477.8" x1="384.57">
   <stop id="stop4235" style="stop-color:#2f75dc" offset="0"/>
   <stop id="stop4237" style="stop-color:#6084d1;stop-opacity:0" offset="1"/>
  </linearGradient>
  <linearGradient id="linearGradient5747-9" y2="8.5" gradientUnits="userSpaceOnUse" x2="30.514" gradientTransform="matrix(2.625 0 0 2.625 210.06 -45.862)" y1="39.392" x1="30.514">
   <stop id="stop4660-9-6" style="stop-color:#c4dcf4" offset="0"/>
   <stop id="stop4662-5-1" style="stop-color:#f6fbfe;stop-opacity:.99608" offset="1"/>
  </linearGradient>
 </defs>
 <metadata id="metadata5458">
  <rdf:RDF>
   <cc:Work rdf:about="">
    <dc:format>image/svg+xml</dc:format>
    <dc:type rdf:resource="http://purl.org/dc/dcmitype/StillImage"/>
    <dc:title/>
   </cc:Work>
  </rdf:RDF>
 </metadata>
 <g id="layer1" transform="translate(-384.57 -483.8)">
  <g id="g10374" transform="translate(.00071696 -.0055850)">
   <rect id="rect892" ry="14.878" style="stroke:url(#linearGradient10387);stroke-width:.49475;fill:url(#linearGradient10385)" transform="scale(1,-1)" height="58.676" width="58.048" y="-545.39" x="387.64"/>
   <rect id="rect892-2" ry="14.724" style="stroke:url(#linearGradient10391);stroke-width:.49475;fill:url(#linearGradient10389)" transform="scale(1,-1)" height="58.07" width="58.048" y="-544.99" x="387.65"/>
   <path id="rect895" style="fill:url(#radialGradient10393)" d="m400.86 486.99c-4.0503-1.2438-13.729 7.7065-13.038 11.7-0.0255 0.49454-0.0451 0.99781-0.0451 1.5018v26.621c0 10.602 5.4442 17.195 11.343 17.195h34.071c6.4231 0 12.359-5.7106 12.359-13.133v-32.511c0.35356-5.551-10.819-12.524-13.178-11.488-24.317 0.43952-9.1565 0.11361-31.511 0.11361z"/>
   <path id="path4230" d="m399.57 487.17 21.415 26 0.82366 1 23.886-16.743-3.125-4.6318-19.938-1.625-2.471-4z" style="fill:url(#linearGradient10395);fill-rule:evenodd"/>
   <rect id="rect892-2-7-8" ry="14.724" style="opacity:.15891;stroke:#000;stroke-width:2.4612;fill:none" transform="scale(1,-1)" height="58.07" width="58.048" y="-544.83" x="387.55"/>
   <rect id="rect892-2-7-2-9" style="stroke:#000;stroke-width:.53286;fill:none" transform="scale(1,-1)" ry="14.254" height="57.239" width="58.008" y="-544.4" x="387.65"/>
   <rect id="rect892-2-7-1" ry="14.724" style="opacity:.15891;stroke:#000;stroke-width:3.9379;fill:none" transform="scale(1,-1)" height="58.07" width="58.048" y="-544.83" x="387.55"/>
   <path id="path1187" style="fill:#fff;fill-opacity:.057143" d="m400.84 486.97c-12.048 0-13.227 0.34219-13.178 13.354-0.022 0.36343-0.039 0.73329-0.039 1.1037v16.637c9.4888-19.461 19.486-26.153 45.93-31.07-0.11421-0.0133-0.23371-0.0156-0.35102-0.0156-21.13 0.19676-13.037-0.01-32.362-0.01z"/>
  </g>
  <g id="g5739" transform="matrix(.43047 0 0 .43047 299.03 507.74)">
   <path id="path4670" style="fill-opacity:.058824;color:#000000;fill-rule:evenodd" d="m273.06-20.139c-21.793 0-39.508 17.259-40.344 38.847 13.4-9.4568 36.193-24.974 41.846-25.384 1.8757-2.3759 8.3228-4.2968 9.49-4.2554l-3.3838 4.2554s-0.0564 4.2932-1.3074 5.127c11.675 7.8021 17.252 35.808 19.636 52.808l-1.0049 0.80493c9.4191-7.4012 15.494-18.869 15.494-31.777 0-22.326-18.1-40.426-40.426-40.426zm-0.57422 33.212c-3.1405 0.09371-9.5223 9.4788-16.801 19.529-3.4978 4.8293-8.031 11.438-11.361 16.017l-2.3994-2.6199c6.8481-11.213 15.373-24.895 14.96-25.399-0.0882-0.042-0.20317-0.126-0.32812-0.10762-2.3197 0.35151-11.631 11.956-18.293 20.298 7.0335 11.909 19.964 19.923 34.797 19.923 9.0037 0 17.291-2.9798 24.01-7.957-4.976-15.206-14.587-39.518-24.256-39.575-0.094-0.01838-0.2268-0.10762-0.32812-0.10762zm-23.456 3.9273c-2.8724-0.021-10.215 2.5758-16.314 4.927 0.24255 6.0272 1.7879 11.709 4.3886 16.775 1.2263-1.8526 3.3472-4.8953 4.6143-6.7573 4.8464-7.1221 9.6135-13.425 8.5107-14.725-0.19687-0.21709-0.63454-0.21788-1.1997-0.2205zm-16.36 2.5532c-0.005 0.24649-0.036 0.48562-0.036 0.73316 0 0.33933 0.043 0.66756 0.0512 1.0049l-0.0157-1.738zm4.5117 19.313c0.25305 0.48733 0.51762 0.96521 0.78954 1.4407l-0.78954-1.4407z"/>
   <path id="path4668" style="fill-opacity:.11765;color:#000000;fill-rule:evenodd" d="m273.06-21.189c-21.793 0-39.508 17.259-40.344 38.847 13.4-9.4568 36.193-24.974 41.846-25.384 1.8757-2.3759 8.3228-4.2968 9.49-4.2554l-3.3838 4.2554s-0.0564 4.2932-1.3074 5.127c11.675 7.8021 17.252 35.808 19.636 52.808l-1.0049 0.80493c9.4191-7.4012 15.494-18.869 15.494-31.777 0-22.326-18.1-40.426-40.426-40.426zm-0.57422 33.212c-3.1405 0.09371-9.5223 9.4788-16.801 19.529-3.4978 4.8293-8.031 11.438-11.361 16.017l-2.3994-2.6199c6.8481-11.213 15.373-24.895 14.96-25.399-0.0882-0.042-0.20317-0.126-0.32812-0.10762-2.3197 0.35151-11.631 11.956-18.293 20.298 7.0335 11.909 19.964 19.923 34.797 19.923 9.0037 0 17.291-2.9798 24.01-7.957-4.976-15.206-14.587-39.518-24.256-39.575-0.094-0.01838-0.2268-0.10762-0.32812-0.10762zm-23.456 3.9273c-2.8724-0.021-10.215 2.5758-16.314 4.927 0.24255 6.0272 1.7879 11.709 4.3886 16.775 1.2263-1.8526 3.3472-4.8953 4.6143-6.7573 4.8464-7.1221 9.6135-13.425 8.5107-14.725-0.19687-0.21709-0.63454-0.21788-1.1997-0.2205zm-16.36 2.5532c-0.005 0.24649-0.036 0.48562-0.036 0.73316 0 0.33933 0.043 0.66756 0.0512 1.0049l-0.0157-1.738zm4.5117 19.313c0.25305 0.48733 0.51762 0.96521 0.78954 1.4407l-0.78954-1.4407z"/>
   <path id="path4664" style="fill-opacity:.23529;color:#000000;fill-rule:evenodd" d="m273.06-22.239c-21.793 0-39.508 17.259-40.344 38.847 13.4-9.4568 36.193-24.974 41.846-25.384 1.8757-2.3759 8.3228-4.2968 9.49-4.2554l-3.3838 4.2554s-0.0564 4.2932-1.3074 5.127c11.675 7.8021 17.252 35.808 19.636 52.808l-1.0049 0.80493c9.4191-7.4012 15.494-18.869 15.494-31.777 0-22.326-18.1-40.426-40.426-40.426zm-0.57422 33.212c-3.1405 0.09371-9.5223 9.4788-16.801 19.529-3.4978 4.8293-8.031 11.438-11.361 16.017l-2.3994-2.6199c6.8481-11.213 15.373-24.895 14.96-25.399-0.0882-0.042-0.20317-0.126-0.32812-0.10762-2.3197 0.35151-11.631 11.956-18.293 20.298 7.0335 11.909 19.964 19.923 34.797 19.923 9.0037 0 17.291-2.9798 24.01-7.957-4.976-15.206-14.587-39.518-24.256-39.575-0.094-0.01838-0.2268-0.10762-0.32812-0.10762zm-23.456 3.9273c-2.8724-0.021-10.215 2.5758-16.314 4.927 0.24255 6.0272 1.7879 11.709 4.3886 16.775 1.2263-1.8526 3.3472-4.8953 4.6143-6.7573 4.8464-7.1221 9.6135-13.425 8.5107-14.725-0.19687-0.21709-0.63454-0.21788-1.1997-0.2205zm-16.36 2.5532c-0.005 0.24649-0.036 0.48562-0.036 0.73316 0 0.33933 0.043 0.66756 0.0512 1.0049l-0.0157-1.738zm4.5117 19.313c0.25305 0.48733 0.51762 0.96521 0.78954 1.4407l-0.78954-1.4407z"/>
   <path id="path3910-7" style="color:#000000;fill-rule:evenodd;fill:url(#linearGradient5747-9)" d="m273.06-23.288c-21.793 0-39.508 17.259-40.344 38.847 13.4-9.4568 36.193-24.974 41.846-25.384 1.8758-2.376 8.3228-4.2968 9.49-4.2554l-3.3838 4.2554s-0.0565 4.2932-1.3074 5.127c11.675 7.8021 17.252 35.808 19.636 52.808l-1.0049 0.80493c9.4191-7.4011 15.494-18.869 15.494-31.777 0-22.326-18.1-40.426-40.426-40.426zm-0.57422 33.212c-3.1405 0.09358-9.5223 9.4788-16.801 19.529-3.4978 4.8294-8.031 11.438-11.361 16.017l-2.3994-2.6199c6.8481-11.213 15.373-24.895 14.96-25.399-0.0882-0.042-0.20317-0.12605-0.32812-0.10768-2.3196 0.35151-11.631 11.956-18.293 20.298 7.0335 11.909 19.964 19.923 34.797 19.923 9.0037 0 17.291-2.9798 24.01-7.957-4.976-15.206-14.587-39.518-24.256-39.575-0.094-0.01706-0.2268-0.10768-0.32812-0.10768zm-23.456 3.9272c-2.8724-0.021-10.215 2.5758-16.314 4.927 0.24254 6.0272 1.7879 11.709 4.3887 16.775 1.2263-1.8527 3.3472-4.8953 4.6143-6.7573 4.8464-7.1221 9.6135-13.425 8.5107-14.725-0.19693-0.21709-0.63455-0.21782-1.1997-0.22045zm-16.36 2.5532c-0.004 0.24649-0.0359 0.48561-0.0359 0.73315 0 0.33933 0.0429 0.66756 0.0513 1.0049l-0.0154-1.738zm4.5117 19.313c0.25291 0.48733 0.51762 0.9652 0.78955 1.4407l-0.78955-1.4407z"/>
   <path id="path4672" style="fill-opacity:.31373;color:#000000;fill-rule:evenodd;fill:#2274c3" d="m284.06-16.182c-1.1672-0.04147-7.6142 1.8794-9.49 4.2554-5.628 0.40781-28.223 15.777-41.646 25.245-0.0703 0.74574-0.17063 1.4835-0.19995 2.2405 13.4-9.4568 36.193-24.974 41.846-25.384 1.3591-1.7215 5.084-3.18 7.4956-3.8503l1.9944-2.5071zm-3.8862 10.023c-0.19029 0.64821-0.43629 1.2155-0.80493 1.4612 11.265 7.5282 16.819 33.779 19.339 50.89 0.0983-0.08098 0.18958-0.16934 0.28711-0.25121-2.3321-16.602-7.7182-43.575-18.821-52.1zm18.821 52.1c0.003 0.02074 0.007 0.04591 0.0102 0.06665l-0.28711 0.23071c0.0858 0.58358 0.19806 1.2387 0.27686 1.7996 8.8296-7.4136 14.499-18.469 14.499-30.9 0-0.26317-0.036-0.51732-0.041-0.7793-0.38495 11.893-5.9426 22.434-14.458 29.583zm0 2.0969c-0.33868 0.28437-0.64668 0.6033-0.99463 0.87671l1.0049-0.80493c-0.003-0.02231-0.007-0.04945-0.0102-0.07177zm-49.01-34.073c-1.1626 2.6819-4.6776 7.4739-8.2544 12.73-1.2671 1.862-3.3879 4.9047-4.6143 6.7573-2.3045-4.4894-3.7239-9.4774-4.199-14.745-0.0617 0.02362-0.12829 0.04812-0.1897 0.07177 0.24254 6.0272 1.7879 11.709 4.3887 16.775 0.16753-0.25308 0.43417-0.63141 0.63062-0.92285 1.2416-1.8421 2.8896-4.2268 3.9836-5.8345 4.8464-7.1221 9.6135-13.425 8.5107-14.725-0.0549-0.06048-0.16656-0.07605-0.25636-0.10768zm-17.303 2.4404c-0.004 0.24649-0.0359 0.48561-0.0359 0.73315 0 0.33933 0.0429 0.66756 0.0513 1.0049l-0.0154-1.738zm23.886 0.93823c-0.19157 0.02903-0.44649 0.15886-0.72803 0.33325-2.4219 4.4258-8.6299 14.441-13.894 23.061 0.0594 0.072 0.11954 0.14374 0.17944 0.21533l0.57935 0.63574c6.697-10.948 14.588-23.653 14.191-24.138-0.0882-0.042-0.20317-0.12605-0.32812-0.10768zm-14.443 23.61-0.1897-0.20509c0.002-0.0039 0.008-0.0063 0.0102-0.01024-1.055-1.2788-2.0328-2.6216-2.9275-4.0247-0.23841 0.29829-0.51105 0.63701-0.74341 0.92798 1.0828 1.8334 2.3231 3.5599 3.6709 5.1936 0.24715-0.40467 0.48729-0.79449 0.73828-1.2048-0.19225-0.22-0.3713-0.45261-0.55883-0.67676zm-0.17944 1.8816c-0.003 0.0052-0.007 0.01-0.0102 0.01549l0.21533 0.23583c-0.0695-0.08287-0.13624-0.16779-0.20509-0.25121zm0.20509 0.25121c7.4074 8.835 18.488 14.479 30.921 14.479 9.0037 0 17.291-2.9798 24.01-7.957-0.17461-0.53361-0.39864-1.1476-0.58447-1.7021-6.6147 4.7266-14.675 7.5571-23.425 7.5571-10.824 0-20.624-4.2778-27.87-11.213-0.26679 0.37084-0.61264 0.87127-0.86645 1.2202l-2.1841-2.384zm-4.9578-7.3674c0.25292 0.48732 0.51762 0.9652 0.78955 1.4407l-0.78955-1.4407z"/>
   <path id="path4677" style="fill-opacity:.23529;color:#000000;fill-rule:evenodd;fill:#fff" d="m273.06-23.288c-21.793 0-39.508 17.259-40.344 38.847 0.0285-0.02021 0.0688-0.04646 0.0974-0.06665 1.3978-21.058 18.835-37.729 40.247-37.729 22.194 0 40.194 17.892 40.406 40.036 0.004-0.22105 0.0205-0.43947 0.0205-0.66138 0.00003-22.326-18.1-40.426-40.426-40.426zm10.992 10.259c-0.16687-0.006-0.62529 0.10954-0.97925 0.17944l-2.4045 3.0249s-0.0565 4.2932-1.3074 5.127c0.17288 0.11553 0.33223 0.27561 0.50244 0.3999 0.7561-1.4621 0.80493-4.4758 0.80493-4.4758l3.3838-4.2554zm-11.566 22.953c-3.1405 0.093581-9.5223 9.4788-16.801 19.529-3.4978 4.8294-8.031 11.438-11.361 16.017l-2.0149-2.1995c-0.002 0.0034-0.003 0.0071-0.005 0.01024 0.7786 0.91697 1.5845 1.8066 2.4404 2.6506 3.2901-4.549 7.5721-10.776 10.941-15.427 7.2787-10.05 13.661-19.435 16.801-19.529 0.10133 0 0.23407 0.09056 0.32813 0.10768 9.4993 0.05618 18.916 23.481 23.963 38.724 0.0955-0.06946 0.1974-0.1297 0.29224-0.19995-4.976-15.206-14.587-39.518-24.256-39.575-0.0941-0.01706-0.2268-0.10768-0.32813-0.10768zm-23.456 3.9272c-2.8724-0.021-10.215 2.5758-16.314 4.927 0.0138 0.34377 0.0752 0.67367 0.0974 1.0151 6.0801-2.3415 13.359-4.912 16.217-4.8911 0.56516 0.0026 1.0028 0.0034 1.1997 0.22045 0.0152 0.01785 0.0179 0.04683 0.0308 0.06665 0.12254-0.48804 0.15632-0.8972-0.0308-1.1177-0.19693-0.21709-0.63455-0.21782-1.1997-0.22045zm-16.36 2.5532c-0.004 0.24649-0.0359 0.48561-0.0359 0.73315 0 0.17312 0.0136 0.34267 0.0256 0.51269 0.004-0.06476 0.009-0.12931 0.0103-0.19483l0.005 0.46655c0.004 0.07332 0.008 0.14648 0.0103 0.22045l-0.0154-1.738zm23.886 0.93823c-2.3196 0.35151-11.631 11.956-18.293 20.298 0.11787 0.19955 0.25311 0.38712 0.37427 0.58447 6.628-8.2968 15.626-19.464 17.914-19.826 0.25093-0.52212 0.38965-0.87955 0.33325-0.94849-0.0882-0.042-0.20317-0.12605-0.32812-0.10768zm-19.375 19.426 0.78955 1.4407c-0.27193-0.47547-0.5365-0.95337-0.78955-1.4407zm61.662 11.397c-0.29069 0.24176-0.55363 0.51482-0.85108 0.74854l0.86133-0.69214c-0.003-0.01811-0.008-0.03838-0.0102-0.05638z"/>
  </g>
 </g>
</svg>
