<?xml version="1.0" encoding="UTF-8" standalone="no"?>
<!-- Created with Inkscape (http://www.inkscape.org/) -->
<svg id="svg5453" xmlns:rdf="http://www.w3.org/1999/02/22-rdf-syntax-ns#" xmlns="http://www.w3.org/2000/svg" height="64" width="64" version="1.1" xmlns:cc="http://creativecommons.org/ns#" xmlns:xlink="http://www.w3.org/1999/xlink" xmlns:dc="http://purl.org/dc/elements/1.1/">
 <defs id="defs5455">
  <linearGradient id="linearGradient10385" y2="50.369" gradientUnits="userSpaceOnUse" x2="76.558" gradientTransform="matrix(.49210 0 0 .49742 385.71 -548.91)" y1="13.164" x1="76.558">
   <stop id="stop3392" style="stop-color:#425e7b" offset="0"/>
   <stop id="stop3394" style="stop-color:#7a91a7" offset="1"/>
  </linearGradient>
  <linearGradient id="linearGradient10387" y2="-8.7399" gradientUnits="userSpaceOnUse" x2="60.217" gradientTransform="matrix(.49210 0 0 .49742 385.17 -483.22)" y1="-123.72" x1="60.395">
   <stop id="stop3392-4-8" style="stop-color:#425e7b" offset="0"/>
   <stop id="stop3394-8-0" style="stop-color:#7a91a7" offset="1"/>
  </linearGradient>
  <linearGradient id="linearGradient10389" y2="-9.1034" gradientUnits="userSpaceOnUse" x2="66.492" gradientTransform="matrix(.49210 0 0 .49742 385.17 -483.22)" y1="-42.638" x1="67.952">
   <stop id="stop4620" style="stop-color:#37414b" offset="0"/>
   <stop id="stop4622" style="stop-color:#37414b;stop-opacity:0" offset="1"/>
  </linearGradient>
  <linearGradient id="linearGradient10391" y2="-11.847" gradientUnits="userSpaceOnUse" x2="58.98" gradientTransform="matrix(.49210 0 0 .49742 385.17 -483.22)" y1="-118.55" x1="57.173">
   <stop id="stop4596" offset="0"/>
   <stop id="stop4598" style="stop-opacity:0" offset="1"/>
  </linearGradient>
  <radialGradient id="radialGradient10393" gradientUnits="userSpaceOnUse" cy="45.647" cx="42.148" gradientTransform="matrix(.61708 -.029284 .027419 .57778 378.91 469.39)" r="58.984">
   <stop id="stop10770" style="stop-color:#89b6e1" offset="0"/>
   <stop id="stop10772" style="stop-color:#649ad6" offset="1"/>
  </radialGradient>
  <linearGradient id="linearGradient10395" y2="497.8" gradientUnits="userSpaceOnUse" x2="404.57" gradientTransform="matrix(.82366 0 0 1 79.52 -2.625)" y1="477.8" x1="384.57">
   <stop id="stop4235" style="stop-color:#2f75dc" offset="0"/>
   <stop id="stop4237" style="stop-color:#6084d1;stop-opacity:0" offset="1"/>
  </linearGradient>
 </defs>
 <metadata id="metadata5458">
  <rdf:RDF>
   <cc:Work rdf:about="">
    <dc:format>image/svg+xml</dc:format>
    <dc:type rdf:resource="http://purl.org/dc/dcmitype/StillImage"/>
    <dc:title/>
   </cc:Work>
  </rdf:RDF>
 </metadata>
 <g id="layer1" transform="translate(-384.57 -483.8)">
  <g id="g10374" transform="translate(.00071696 -.0055850)">
   <rect id="rect892" ry="14.878" style="stroke:url(#linearGradient10387);stroke-width:.49475;fill:url(#linearGradient10385)" transform="scale(1,-1)" height="58.676" width="58.048" y="-545.39" x="387.64"/>
   <rect id="rect892-2" ry="14.724" style="stroke:url(#linearGradient10391);stroke-width:.49475;fill:url(#linearGradient10389)" transform="scale(1,-1)" height="58.07" width="58.048" y="-544.99" x="387.65"/>
   <path id="rect895" style="fill:url(#radialGradient10393)" d="m400.86 486.99c-4.0503-1.2438-13.729 7.7065-13.038 11.7-0.0255 0.49454-0.0451 0.99781-0.0451 1.5018v26.621c0 10.602 5.4442 17.195 11.343 17.195h34.071c6.4231 0 12.359-5.7106 12.359-13.133v-32.511c0.35356-5.551-10.819-12.524-13.178-11.488-24.317 0.43952-9.1565 0.11361-31.511 0.11361z"/>
   <path id="path4230" d="m399.57 487.17 21.415 26 0.82366 1 23.886-16.743-3.125-4.6318-19.938-1.625-2.471-4z" style="fill:url(#linearGradient10395);fill-rule:evenodd"/>
   <rect id="rect892-2-7-8" ry="14.724" style="opacity:.15891;stroke:#000;stroke-width:2.4612;fill:none" transform="scale(1,-1)" height="58.07" width="58.048" y="-544.83" x="387.55"/>
   <rect id="rect892-2-7-2-9" style="stroke:#000;stroke-width:.53286;fill:none" transform="scale(1,-1)" ry="14.254" height="57.239" width="58.008" y="-544.4" x="387.65"/>
   <rect id="rect892-2-7-1" ry="14.724" style="opacity:.15891;stroke:#000;stroke-width:3.9379;fill:none" transform="scale(1,-1)" height="58.07" width="58.048" y="-544.83" x="387.55"/>
   <path id="path1187" style="fill:#fff;fill-opacity:.057143" d="m400.84 486.97c-12.048 0-13.227 0.34219-13.178 13.354-0.022 0.36343-0.039 0.73329-0.039 1.1037v16.637c9.4888-19.461 19.486-26.153 45.93-31.07-0.11421-0.0133-0.23371-0.0156-0.35102-0.0156-21.13 0.19676-13.037-0.01-32.362-0.01z"/>
  </g>
  <g id="g5304" transform="matrix(.53144 0 0 .53144 383.09 480.42)">
   <g id="g4102" style="fill-opacity:.058824" transform="matrix(.84219 0 0 .84219 9.1 -764.24)">
    <path id="path4104" d="m64 940.36c-26.51 0-48 21.49-48 48s21.49 48 48 48 48-21.49 48-48-21.49-48-48-48zm0 4c20.155 0 37.145 13.552 42.355 32.04-4.4877 9.2564-10.873 17.59-18.65 24.325-3.7358 3.2352-7.8145 6.1193-12.32 8.15s-9.4611 3.1829-14.395 2.9c-3.7069-0.2126-7.3687-1.2452-10.615-3.045 8.6032-4.6618 16.366-10.877 22.72-18.32 4.1708-4.8852 7.8199-10.437 9.225-16.705 0.70253-3.134 0.82158-6.4161 0.165-9.56s-2.1102-6.1399-4.31-8.48c-2.1491-2.2861-4.9703-3.9055-7.995-4.74-3.0247-0.83446-6.2434-0.89907-9.33-0.335-6.1731 1.1281-11.685 4.7158-16.105 9.17-7.7917 7.8511-12.609 18.929-11.725 29.955 0.44179 5.5129 2.2892 10.93 5.455 15.465 0.70664 1.0122 1.4835 1.9764 2.315 2.89-4.6118 1.614-9.387 2.7629-14.23 3.41-4.158-6.7188-6.56-14.638-6.56-23.12 0-24.301 19.699-44 44-44zm0.28 8.89c3.093 0.004 6.2071 0.94057 8.675 2.805 2.2235 1.6798 3.871 4.0695 4.805 6.695 0.93397 2.6255 1.1737 5.4766 0.855 8.245-0.63732 5.5368-3.4305 10.614-6.805 15.05-5.9751 7.8538-13.917 14.14-22.75 18.54-0.90412 0.4504-1.8226 0.8785-2.745 1.29-1.922-1.6819-3.5693-3.6768-4.825-5.9-2.6238-4.6456-3.4891-10.164-2.98-15.475 0.50906-5.311 2.3316-10.43 4.78-15.17 2.8388-5.4962 6.7082-10.702 12.125-13.69 2.7084-1.4938 5.772-2.3942 8.865-2.39zm43.325 29.22c0.25778 1.9268 0.395 3.8926 0.395 5.89 0 24.301-19.699 44-44 44-13.647 0-25.844-6.2128-33.915-15.965 4.9814-1.1314 9.8501-2.7565 14.52-4.825 2.0422 1.5553 4.2976 2.8309 6.695 3.75 6.9042 2.6469 14.743 2.2639 21.73-0.155 6.9873-2.4189 13.183-6.7606 18.585-11.81 6.4346-6.0152 11.86-13.105 15.99-20.885z" style="fill-opacity:.058824"/>
   </g>
   <g id="g4098" style="fill-opacity:.11765" transform="matrix(.84219 0 0 .84219 9.1 -765.29)">
    <path id="path4100" style="fill-opacity:.11765" d="m64 940.36c-26.51 0-48 21.49-48 48s21.49 48 48 48 48-21.49 48-48-21.49-48-48-48zm0 4c20.155 0 37.145 13.552 42.355 32.04-4.4877 9.2564-10.873 17.59-18.65 24.325-3.7358 3.2352-7.8145 6.1193-12.32 8.15s-9.4611 3.1829-14.395 2.9c-3.7069-0.2126-7.3687-1.2452-10.615-3.045 8.6032-4.6618 16.366-10.877 22.72-18.32 4.1708-4.8852 7.8199-10.437 9.225-16.705 0.70253-3.134 0.82158-6.4161 0.165-9.56s-2.1102-6.1399-4.31-8.48c-2.1491-2.2861-4.9703-3.9055-7.995-4.74-3.0247-0.83446-6.2434-0.89907-9.33-0.335-6.1731 1.1281-11.685 4.7158-16.105 9.17-7.7917 7.8511-12.609 18.929-11.725 29.955 0.44179 5.5129 2.2892 10.93 5.455 15.465 0.70664 1.0122 1.4835 1.9764 2.315 2.89-4.6118 1.614-9.387 2.7629-14.23 3.41-4.158-6.7188-6.56-14.638-6.56-23.12 0-24.301 19.699-44 44-44zm0.28 8.89c3.093 0.004 6.2071 0.94057 8.675 2.805 2.2235 1.6798 3.871 4.0695 4.805 6.695 0.93397 2.6255 1.1737 5.4766 0.855 8.245-0.63732 5.5368-3.4305 10.614-6.805 15.05-5.9751 7.8538-13.917 14.14-22.75 18.54-0.90412 0.4504-1.8226 0.8785-2.745 1.29-1.922-1.6819-3.5693-3.6768-4.825-5.9-2.6238-4.6456-3.4891-10.164-2.98-15.475 0.50906-5.311 2.3316-10.43 4.78-15.17 2.8388-5.4962 6.7082-10.702 12.125-13.69 2.7084-1.4938 5.772-2.3942 8.865-2.39zm43.325 29.22c0.25778 1.9268 0.395 3.8926 0.395 5.89 0 24.301-19.699 44-44 44-13.647 0-25.844-6.2128-33.915-15.965 4.9814-1.1314 9.8501-2.7565 14.52-4.825 2.0422 1.5553 4.2976 2.8309 6.695 3.75 6.9042 2.6469 14.743 2.2639 21.73-0.155 6.9873-2.4189 13.183-6.7606 18.585-11.81 6.4346-6.0152 11.86-13.105 15.99-20.885z"/>
   </g>
   <g id="g4094" style="fill-opacity:.23529" transform="matrix(.84219 0 0 .84219 9.1 -766.34)">
    <path id="path4096" d="m64 940.36c-26.51 0-48 21.49-48 48s21.49 48 48 48 48-21.49 48-48-21.49-48-48-48zm0 4c20.155 0 37.145 13.552 42.355 32.04-4.4877 9.2564-10.873 17.59-18.65 24.325-3.7358 3.2352-7.8145 6.1193-12.32 8.15s-9.4611 3.1829-14.395 2.9c-3.7069-0.2126-7.3687-1.2452-10.615-3.045 8.6032-4.6618 16.366-10.877 22.72-18.32 4.1708-4.8852 7.8199-10.437 9.225-16.705 0.70253-3.134 0.82158-6.4161 0.165-9.56s-2.1102-6.1399-4.31-8.48c-2.1491-2.2861-4.9703-3.9055-7.995-4.74-3.0247-0.83446-6.2434-0.89907-9.33-0.335-6.1731 1.1281-11.685 4.7158-16.105 9.17-7.7917 7.8511-12.609 18.929-11.725 29.955 0.44179 5.5129 2.2892 10.93 5.455 15.465 0.70664 1.0122 1.4835 1.9764 2.315 2.89-4.6118 1.614-9.387 2.7629-14.23 3.41-4.158-6.7188-6.56-14.638-6.56-23.12 0-24.301 19.699-44 44-44zm0.28 8.89c3.093 0.004 6.2071 0.94057 8.675 2.805 2.2235 1.6798 3.871 4.0695 4.805 6.695 0.93397 2.6255 1.1737 5.4766 0.855 8.245-0.63732 5.5368-3.4305 10.614-6.805 15.05-5.9751 7.8538-13.917 14.14-22.75 18.54-0.90412 0.4504-1.8226 0.8785-2.745 1.29-1.922-1.6819-3.5693-3.6768-4.825-5.9-2.6238-4.6456-3.4891-10.164-2.98-15.475 0.50906-5.311 2.3316-10.43 4.78-15.17 2.8388-5.4962 6.7082-10.702 12.125-13.69 2.7084-1.4938 5.772-2.3942 8.865-2.39zm43.325 29.22c0.25778 1.9268 0.395 3.8926 0.395 5.89 0 24.301-19.699 44-44 44-13.647 0-25.844-6.2128-33.915-15.965 4.9814-1.1314 9.8501-2.7565 14.52-4.825 2.0422 1.5553 4.2976 2.8309 6.695 3.75 6.9042 2.6469 14.743 2.2639 21.73-0.155 6.9873-2.4189 13.183-6.7606 18.585-11.81 6.4346-6.0152 11.86-13.105 15.99-20.885z" style="fill-opacity:.23529"/>
   </g>
   <g id="g5317" style="fill:#fff" transform="matrix(.84219 0 0 .84219 9.1 -767.39)">
    <path id="path5319" style="fill:#fff" d="m64 940.36c-26.51 0-48 21.49-48 48s21.49 48 48 48 48-21.49 48-48-21.49-48-48-48zm0 4c20.155 0 37.145 13.552 42.355 32.04-4.4877 9.2564-10.873 17.59-18.65 24.325-3.7358 3.2352-7.8145 6.1193-12.32 8.15s-9.4611 3.1829-14.395 2.9c-3.7069-0.2126-7.3687-1.2452-10.615-3.045 8.6032-4.6618 16.366-10.877 22.72-18.32 4.1708-4.8852 7.8199-10.437 9.225-16.705 0.70253-3.134 0.82158-6.4161 0.165-9.56s-2.1102-6.1399-4.31-8.48c-2.1491-2.2861-4.9703-3.9055-7.995-4.74-3.0247-0.83446-6.2434-0.89907-9.33-0.335-6.1731 1.1281-11.685 4.7158-16.105 9.17-7.7917 7.8511-12.609 18.929-11.725 29.955 0.44179 5.5129 2.2892 10.93 5.455 15.465 0.70664 1.0122 1.4835 1.9764 2.315 2.89-4.6118 1.614-9.387 2.7629-14.23 3.41-4.158-6.7188-6.56-14.638-6.56-23.12 0-24.301 19.699-44 44-44zm0.28 8.89c3.093 0.004 6.2071 0.94057 8.675 2.805 2.2235 1.6798 3.871 4.0695 4.805 6.695 0.93397 2.6255 1.1737 5.4766 0.855 8.245-0.63732 5.5368-3.4305 10.614-6.805 15.05-5.9751 7.8538-13.917 14.14-22.75 18.54-0.90412 0.4504-1.8226 0.8785-2.745 1.29-1.922-1.6819-3.5693-3.6768-4.825-5.9-2.6238-4.6456-3.4891-10.164-2.98-15.475 0.50906-5.311 2.3316-10.43 4.78-15.17 2.8388-5.4962 6.7082-10.702 12.125-13.69 2.7084-1.4938 5.772-2.3942 8.865-2.39zm43.325 29.22c0.25778 1.9268 0.395 3.8926 0.395 5.89 0 24.301-19.699 44-44 44-13.647 0-25.844-6.2128-33.915-15.965 4.9814-1.1314 9.8501-2.7565 14.52-4.825 2.0422 1.5553 4.2976 2.8309 6.695 3.75 6.9042 2.6469 14.743 2.2639 21.73-0.155 6.9873-2.4189 13.183-6.7606 18.585-11.81 6.4346-6.0152 11.86-13.105 15.99-20.885z"/>
   </g>
   <path id="path4085" style="fill:#3787df;fill-opacity:.31373" d="m63 25.846c-20.466 0-37.058 16.587-37.058 37.052 0 0.412 0.03279 0.81659 0.04614 1.2253 0.47044-20.057 16.842-36.181 37.011-36.181 16.5 0 30.454 10.798 35.253 25.701 0.13731-0.27311 0.28705-0.54012 0.42041-0.81519-4.387-15.57-18.698-26.982-35.672-26.982zm0.23583 7.4853c-2.6049-0.0034-5.1838 0.75681-7.4648 2.0149-4.562 2.5161-7.8221 6.8965-10.213 11.525-2.062 3.9923-3.5959 8.3035-4.0247 12.776-0.12177 1.2704-0.12366 2.5521-0.05127 3.8298 0.01628-0.57651-0.0037-1.1551 0.05127-1.7278 0.42872-4.4728 1.9627-8.7841 4.0247-12.776 2.3908-4.6289 5.6509-9.0144 10.213-11.531 2.281-1.2581 4.86-2.0133 7.4648-2.0098 2.6049 0.0026 5.2275 0.7882 7.3059 2.3584 1.8726 1.4147 3.2586 3.4285 4.0452 5.6396 0.44889 1.2619 0.69 2.5898 0.7793 3.9272 0.12495-2.0393-0.09537-4.1015-0.7793-6.0242-0.787-2.21-2.173-4.224-4.045-5.639-2.079-1.57-4.701-2.36-7.306-2.363zm15.647 13.838c-0.06263 1.1389-0.20688 2.2763-0.4563 3.3889-1.1833 5.2787-4.2547 9.9541-7.7673 14.068-5.3515 6.2681-11.888 11.506-19.134 15.432 0.64668 0.35854 1.3178 0.66797 1.9995 0.95361 6.4466-3.7792 12.282-8.5999 17.134-14.284 3.5126-4.1143 6.584-8.7896 7.7673-14.068 0.40293-1.7974 0.56031-3.654 0.4563-5.491zm20.841 10.772c-3.4784 6.5521-8.0493 12.525-13.469 17.591-4.5491 4.2526-9.768 7.9091-15.653 9.9463-5.8846 2.0371-12.484 2.3574-18.298 0.12818-2.0191-0.77406-3.9197-1.8484-5.6396-3.1582-3.933 1.7421-8.0325 3.1128-12.228 4.0657 0.49279 0.59547 1.0404 1.1389 1.5688 1.7022 3.6474-0.92399 7.2191-2.1421 10.659-3.6658 1.7199 1.3098 3.6205 2.3841 5.6396 3.1582 5.8146 2.2292 12.413 1.9038 18.298-0.1333 5.8846-2.0372 11.103-5.6937 15.653-9.9463 5.4192-5.066 9.9901-11.038 13.469-17.591 0.1628 1.217 0.24441 2.4606 0.28711 3.7119 0.007-0.2858 0.0461-0.56371 0.0461-0.85107 0-1.6822-0.11616-3.335-0.33325-4.9578zm-62.841 4.4399c-0.06927 1.2504-0.075 2.5076 0.02573 3.7632 0.37209 4.6429 1.9276 9.2032 4.5937 13.022 0.18656 0.26723 0.41233 0.5047 0.61011 0.76392 0.4456-0.14453 0.89598-0.27592 1.3381-0.43066-0.70027-0.76941-1.3531-1.5828-1.9482-2.4353-2.6662-3.8192-4.2217-8.3795-4.5937-13.022-0.04439-0.55386-0.01496-1.1075-0.02573-1.6611zm-14.258 1.5688c-0.0091 0.35268-0.05127 0.69616-0.05127 1.051 0 22.326 18.1 40.426 40.426 40.426s40.426-18.1 40.426-40.426c0-0.35487-0.0422-0.69835-0.0513-1.051-0.56208 21.836-18.403 39.375-40.375 39.375s-39.813-17.539-40.375-39.375z"/>
  </g>
 </g>
</svg>
