<?xml version="1.0" encoding="UTF-8" standalone="no"?>
<!-- Created with Inkscape (http://www.inkscape.org/) -->
<svg id="svg2" xmlns:rdf="http://www.w3.org/1999/02/22-rdf-syntax-ns#" xmlns="http://www.w3.org/2000/svg" height="16" viewBox="0 0 16 16" width="16" version="1.1" xmlns:cc="http://creativecommons.org/ns#" xmlns:xlink="http://www.w3.org/1999/xlink" xmlns:dc="http://purl.org/dc/elements/1.1/">
 <metadata id="metadata7">
  <rdf:RDF>
   <cc:Work rdf:about="">
    <dc:format>image/svg+xml</dc:format>
    <dc:type rdf:resource="http://purl.org/dc/dcmitype/StillImage"/>
    <dc:title/>
   </cc:Work>
  </rdf:RDF>
 </metadata>
 <g id="layer1" transform="translate(0 -1036.4)">
  <path id="path3324" style="opacity:.9;fill:#f2f2f2" d="m11.639 1038.4c-0.67945 0-1.2296 0.5441-1.2296 1.2149 0 0.6707 0.55017 1.2148 1.2296 1.2148 0.67945 0 1.2296-0.5441 1.2296-1.2148 0-0.6708-0.55017-1.2149-1.2296-1.2149zm-2.5968 0.9515c-0.75831 0.0001-1.5271 0.1892-2.2185 0.5267-0.024583 0.012-0.039919 0.034-0.047294 0.059-0.00747 0.026-0.00596 0.054 0.0086 0.077l0.99745 1.5589c0.025271 0.04 0.07662 0.056 0.12038 0.038 0.36917-0.1542 0.75226-0.2294 1.1393-0.2294 1.4238 0 2.6659 1.0424 2.8892 2.4255 0.0075 0.046 0.04709 0.081 0.09459 0.081h1.8745c0.02734 0 0.0547-0.01 0.07309-0.029 0.01839-0.02 0.02835-0.045 0.0258-0.072-0.1011-1.0262-0.54515-2.0198-1.2468-2.7908-0.03166-0.035-0.08466-0.038-0.12468-0.013-0.28293 0.1805-0.60394 0.2761-0.92866 0.2761-0.94732 0-1.7154-0.7604-1.7154-1.6906 0.0000987 0 0-0.033 0-0.034 0-0.046-0.03517-0.09-0.081688-0.098-0.2962-0.051-0.58373-0.085-0.85987-0.085zm-3.0096 1.0195c-0.012983 0.01-0.028026 0.01-0.038696 0.017-0.81309 0.6188-1.4229 1.4889-1.7197 2.4511-0.011605 0.038-0.00123 0.077 0.030097 0.1019 0.40861 0.3197 0.6535 0.812 0.6535 1.3168 0 0.5049-0.2448 0.9971-0.6535 1.3168-0.031177 0.024-0.041697 0.064-0.030097 0.102 0.29453 0.954 0.89949 1.8208 1.7026 2.4382 0.021535 0.017 0.046143 0.026 0.073089 0.021 0.026849-0.01 0.049839-0.024 0.064491-0.047l1.0061-1.5547c0.025667-0.04 0.018693-0.092-0.017197-0.1232-0.63027-0.5479-0.99315-1.3335-0.99315-2.1536 0-0.8263 0.36489-1.6141 1.0018-2.1622 0.035895-0.031 0.046965-0.083 0.021499-0.1232l-0.99746-1.5589c-0.014555-0.023-0.037642-0.038-0.064491-0.043h-0.038696zm-2.7731 2.6676c-0.6951-0.1-1.2595 0.5-1.2595 1.1 0 0.6866 0.56435 1.2404 1.2597 1.2404 0.69536 0 1.2597-0.5538 1.2597-1.2404 0-0.6865-0.56435-1.2446-1.2597-1.2446zm10.641 1.6057-1.8745 0.01c-0.0473 0.0001-0.09131 0.035-0.09888 0.081-0.22628 1.3728-1.465 2.4085-2.8849 2.4085-0.3916 0-0.77893-0.08-1.1522-0.2378-0.043666-0.018-0.094715-0.01-0.12038 0.034l-1.0061 1.559c-0.014653 0.023-0.015881 0.05-0.0086 0.076 0.00728 0.026 0.022804 0.047 0.047294 0.06 0.69675 0.3446 1.4729 0.5267 2.24 0.5267 0.2845 0 0.58153-0.028 0.88137-0.081 0.042088-0.01 0.072373-0.039 0.077388-0.081 0.09992-0.8526 0.8297-1.4953 1.6983-1.4953 0.26926 0 0.54638 0.067 0.79538 0.1954 0.03786 0.02 0.08179 0.013 0.11178-0.017 0.78526-0.7912 1.2817-1.8344 1.393-2.931 0.0028-0.027-0.0073-0.052-0.0258-0.072-0.01849-0.02-0.04575-0.03-0.07309-0.03zm-2.2142 3.2835c-0.69536 0-1.2597 0.5531-1.2597 1.2361s0.56435 1.2361 1.2597 1.2361c0.69536 0 1.2597-0.5531 1.2597-1.2361s-0.56435-1.2361-1.2597-1.2361z"/>
 </g>
</svg>
