<?xml version="1.0" encoding="UTF-8" standalone="no"?>
<!-- Created with Inkscape (http://www.inkscape.org/) -->
<svg id="svg2" xmlns:rdf="http://www.w3.org/1999/02/22-rdf-syntax-ns#" xmlns="http://www.w3.org/2000/svg" height="16" viewBox="0 0 16 16" width="16" version="1.1" xmlns:cc="http://creativecommons.org/ns#" xmlns:dc="http://purl.org/dc/elements/1.1/">
 <metadata id="metadata7">
  <rdf:RDF>
   <cc:Work rdf:about="">
    <dc:format>image/svg+xml</dc:format>
    <dc:type rdf:resource="http://purl.org/dc/dcmitype/StillImage"/>
    <dc:title/>
   </cc:Work>
  </rdf:RDF>
 </metadata>
 <g id="layer1" transform="translate(0 -1036.4)">
  <rect id="rect4077" style="fill:#f2f2f2" ry="0" height="5" width=".99287" y="1045.4" x="3.0071"/>
  <rect id="rect4079" style="fill:#f2f2f2" height="1" width="2" y="1044.4" x="2"/>
  <rect id="rect4081" style="fill:#f2f2f2" height=".99998" width="10" y="1049.4" x="3"/>
  <rect id="rect4083" style="fill:#f2f2f2" height="6" width="1" y="1044.4" x="12"/>
  <rect id="rect4085" style="fill:#f2f2f2" height="1" width="2" y="1044.4" x="12"/>
  <rect id="rect4087" style="fill:#f2f2f2" transform="rotate(45)" height="7.493" width=".99287" y="729.57" x="739.89"/>
  <path id="rect4089" style="fill:#f2f2f2" d="m8.7012 2.6992l-0.7012 0.7031 1.4434 1.4415 0.7016-0.7012-1.4438-1.4434zm4.1558 4.1563l-0.701 0.7011 1.143 1.1426 0.701-0.7012-1.143-1.1425z" transform="translate(0 1036.4)"/>
  <path id="path4091" style="fill:#f2f2f2" d="m8 1039.8-0.7071-0.7 0.7071-0.7l0.70712 0.7001z"/>
  <rect id="rect4093" style="fill:#f2f2f2" height="4" width="2" y="1046.4" x="7"/>
  <rect id="rect4095" style="fill:#f2f2f2" height="3" width="1.0071" y="1039.4" x="11"/>
 </g>
</svg>
