<?xml version="1.0" encoding="UTF-8" standalone="no"?>
<!-- Created with Inkscape (http://www.inkscape.org/) -->
<svg id="svg2" xmlns:rdf="http://www.w3.org/1999/02/22-rdf-syntax-ns#" xmlns="http://www.w3.org/2000/svg" height="16" viewBox="0 0 16 16" width="16" version="1.1" xmlns:cc="http://creativecommons.org/ns#" xmlns:xlink="http://www.w3.org/1999/xlink" xmlns:dc="http://purl.org/dc/elements/1.1/">
 <metadata id="metadata7">
  <rdf:RDF>
   <cc:Work rdf:about="">
    <dc:format>image/svg+xml</dc:format>
    <dc:type rdf:resource="http://purl.org/dc/dcmitype/StillImage"/>
    <dc:title/>
   </cc:Work>
  </rdf:RDF>
 </metadata>
 <g id="layer1" transform="translate(0 -1036.4)">
  <path id="Symbol" d="m3.2402 1039.6c-1.6536 1.6475-1.6536 4.3218 0 5.9694 1.4416 1.4363 3.6624 1.6275 5.3048 0.5595 0.27918 0.014 0.72936 0.052 0.88934 0.2332 0.21782 0.2462-0.09009 0.8218 0.32765 1.197l2.598 2.6325s0.48195 0.5148 1.2326-0.2332c0.75065-0.7479 0.23404-1.228 0.23404-1.228l-2.598-2.6325c-0.37661-0.4162-0.95428-0.1095-1.2014-0.3264-0.18148-0.1595-0.22003-0.608-0.23404-0.8861 1.0719-1.6365 0.87989-3.8492-0.56169-5.2854-1.6536-1.6476-4.3377-1.6476-5.9913 0zm1.0142 0.9793c0.51121-0.5093 1.2176-0.8083 1.9971-0.8083 1.559 0 2.824 1.2603 2.824 2.8136 0 1.5534-1.265 2.8138-2.824 2.8138s-2.824-1.2604-2.824-2.8138c0-0.7766 0.31572-1.496 0.82693-2.0053z" style="opacity:.9;fill:#f2f2f2;fill-opacity:.90196"/>
 </g>
</svg>
