<?xml version="1.0" encoding="UTF-8" standalone="no"?>
<!-- Created with Inkscape (http://www.inkscape.org/) -->
<svg id="svg2" xmlns:rdf="http://www.w3.org/1999/02/22-rdf-syntax-ns#" xmlns="http://www.w3.org/2000/svg" xmlns:osb="http://www.openswatchbook.org/uri/2009/osb" height="16" width="16" version="1.1" xmlns:cc="http://creativecommons.org/ns#" xmlns:xlink="http://www.w3.org/1999/xlink" xmlns:dc="http://purl.org/dc/elements/1.1/">
 <defs id="defs4">
  <filter id="filter3174-3" color-interpolation-filters="sRGB">
   <feGaussianBlur id="feGaussianBlur3176-6" stdDeviation="1.71"/>
  </filter>
  <filter id="filter3794-6" height="1.384" width="1.384" color-interpolation-filters="sRGB" y="-.192" x="-.192">
   <feGaussianBlur id="feGaussianBlur3796-9" stdDeviation="5.28"/>
  </filter>
  <clipPath id="clipPath4355-3">
   <rect id="rect4357-1" style="fill:#fff" rx="6" ry="6" height="80" width="84" y="6" x="6"/>
  </clipPath>
  <filter id="filter3174-7" color-interpolation-filters="sRGB">
   <feGaussianBlur id="feGaussianBlur3176-63" stdDeviation="1.71"/>
  </filter>
  <filter id="filter3794-69" height="1.384" width="1.384" color-interpolation-filters="sRGB" y="-.192" x="-.192">
   <feGaussianBlur id="feGaussianBlur3796-0" stdDeviation="5.28"/>
  </filter>
  <clipPath id="clipPath4355-6">
   <rect id="rect4357-2" style="fill:#fff" rx="6" ry="6" height="80" width="84" y="6" x="6"/>
  </clipPath>
 </defs>
 <metadata id="metadata7">
  <rdf:RDF>
   <cc:Work rdf:about="">
    <dc:format>image/svg+xml</dc:format>
    <dc:type rdf:resource="http://purl.org/dc/dcmitype/StillImage"/>
    <dc:title/>
   </cc:Work>
  </rdf:RDF>
 </metadata>
 <g id="layer1" transform="translate(0 -1036.4)">
  <path id="rect4079" style="fill:#f2f2f2" d="m2 0.5625v1 3 1 5.9995 1h12v-1-6.9995-1-1h-5l-2-2h-4-1zm1 1h3.5938l1 1h-0.5938l-2 2h-2v-3zm0 4h10v5.9995h-10v-5.9995zm5 7.3755c-0.1591 0-0.2812 0.153-0.2812 0.312v0.344h-0.6563c-0.1653 0-0.2813 0.116-0.2813 0.281v0.344h-4c-0.1652 0-0.2812 0.147-0.2812 0.312v0.031c0 0.166 0.116 0.282 0.2812 0.282h4v0.468c0 0.166 0.116 0.282 0.2813 0.282h1.875c0.1653 0 0.2813-0.116 0.2813-0.282v-0.468h4.0002c0.165 0 0.281-0.116 0.281-0.282v-0.031c0-0.165-0.116-0.312-0.281-0.312h-4.0002v-0.344c0-0.165-0.116-0.281-0.2813-0.281h-0.6563v-0.344c0-0.159-0.1221-0.312-0.2812-0.312zm-0.4375 1h0.875c0.1591 0 0.3125 0.122 0.3125 0.281v0.75c0 0.159-0.1534 0.312-0.3125 0.312h-0.875c-0.1591 0-0.3125-0.153-0.3125-0.312v-0.75c0-0.159 0.1534-0.281 0.3125-0.281z" transform="translate(0 1036.4)"/>
  <rect id="rect3745" style="opacity:.9;filter:url(#filter3174-7);display:none" transform="matrix(.512 0 0 .512 -32.522 1016.2)" rx="6" ry="6" height="85" width="86" y="7" x="5"/>
  <rect id="rect3171" style="opacity:.1;filter:url(#filter3794-69);stroke:#fff;stroke-linecap:round;stroke-width:.5;display:none" transform="matrix(.512 0 0 .512 -32.522 1016.2)" clip-path="url(#clipPath4355-6)" rx="12" ry="12" height="62" width="66" y="15" x="15"/>
  <rect id="rect3745-7" style="opacity:.9;filter:url(#filter3174-3);display:none" transform="matrix(.512 0 0 .512 -32.571 1020.4)" rx="6" ry="6" height="85" width="86" y="7" x="5"/>
  <rect id="rect3171-6" style="opacity:.1;filter:url(#filter3794-6);stroke:#fff;stroke-linecap:round;stroke-width:.5;display:none" transform="matrix(.512 0 0 .512 -32.571 1020.4)" clip-path="url(#clipPath4355-3)" rx="12" ry="12" height="62" width="66" y="15" x="15"/>
 </g>
</svg>
