<?xml version="1.0" encoding="UTF-8" standalone="no"?>
<!-- Created with Inkscape (http://www.inkscape.org/) -->
<svg id="svg2" xmlns:rdf="http://www.w3.org/1999/02/22-rdf-syntax-ns#" xmlns="http://www.w3.org/2000/svg" xmlns:osb="http://www.openswatchbook.org/uri/2009/osb" height="24" width="24" version="1.1" xmlns:cc="http://creativecommons.org/ns#" xmlns:xlink="http://www.w3.org/1999/xlink" xmlns:dc="http://purl.org/dc/elements/1.1/">
 <defs id="defs4">
  <linearGradient id="linearGradient836" y2="1030.2" gradientUnits="userSpaceOnUse" x2="-3.3402" gradientTransform="matrix(2.1716 0 0 2.1716 19.342 -1205.8)" y1="1038.6" x1="-3.3402">
   <stop id="stop832" style="stop-color:#007fc6" offset="0"/>
   <stop id="stop834" style="stop-color:#079af2" offset="1"/>
  </linearGradient>
  <filter id="filter3174-4" color-interpolation-filters="sRGB">
   <feGaussianBlur id="feGaussianBlur3176-7" stdDeviation="1.71"/>
  </filter>
  <filter id="filter3794-64" height="1.384" width="1.384" color-interpolation-filters="sRGB" y="-.192" x="-.192">
   <feGaussianBlur id="feGaussianBlur3796-5" stdDeviation="5.28"/>
  </filter>
  <clipPath id="clipPath4355-9">
   <rect id="rect4357-0" style="fill:#fff" rx="6" ry="6" height="80" width="84" y="6" x="6"/>
  </clipPath>
  <filter id="filter3174-3-8" color-interpolation-filters="sRGB">
   <feGaussianBlur id="feGaussianBlur3176-6-2" stdDeviation="1.71"/>
  </filter>
  <filter id="filter3794-6-0" height="1.384" width="1.384" color-interpolation-filters="sRGB" y="-.192" x="-.192">
   <feGaussianBlur id="feGaussianBlur3796-9-6" stdDeviation="5.28"/>
  </filter>
  <clipPath id="clipPath4355-3-3">
   <rect id="rect4357-1-2" style="fill:#fff" rx="6" ry="6" height="80" width="84" y="6" x="6"/>
  </clipPath>
  <filter id="filter3174-0" color-interpolation-filters="sRGB">
   <feGaussianBlur id="feGaussianBlur3176-4" stdDeviation="1.71"/>
  </filter>
  <filter id="filter3794-3" height="1.384" width="1.384" color-interpolation-filters="sRGB" y="-.192" x="-.192">
   <feGaussianBlur id="feGaussianBlur3796-4" stdDeviation="5.28"/>
  </filter>
  <clipPath id="clipPath4355-90">
   <rect id="rect4357-10" style="fill:#fff" rx="6" ry="6" height="80" width="84" y="6" x="6"/>
  </clipPath>
  <filter id="filter7554-6" color-interpolation-filters="sRGB">
   <feBlend id="feBlend7556-3" mode="darken" in2="BackgroundImage"/>
  </filter>
 </defs>
 <metadata id="metadata7">
  <rdf:RDF>
   <cc:Work rdf:about="">
    <dc:format>image/svg+xml</dc:format>
    <dc:type rdf:resource="http://purl.org/dc/dcmitype/StillImage"/>
    <dc:title/>
   </cc:Work>
  </rdf:RDF>
 </metadata>
 <g id="layer1" transform="translate(0 -1028.4)">
  <rect id="rect846" style="fill-opacity:.094118" ry="1.6409" height="20" width="20" y="1030.4" x="2"/>
  <rect id="rect844" style="fill-opacity:.17647" ry="1.5874" height="19.349" width="19.349" y="1030.7" x="2.3257"/>
  <rect id="rect838" style="fill-opacity:.35294" ry="1.534" height="18.697" width="18.697" y="1031" x="2.6515"/>
  <rect id="rect848" style="fill-opacity:.42672" ry="1.5153" height="18.469" width="18.469" y="1031.1" x="2.7654"/>
  <rect id="rect828" style="fill:url(#linearGradient836)" ry="1.4805" height="18.046" width="18.046" y="1031.3" x="2.9772"/>
  <g id="g1261" style="fill-opacity:.066667" transform="matrix(.40625 0 0 .40625 5.5 1035.4)"></g>
  <g id="g1269" style="fill-opacity:.13725" transform="matrix(.40625 0 0 .40625 5.5 1034.9)"></g>
  <g id="g1277" style="fill-opacity:.27451" transform="matrix(.40625 0 0 .40625 5.5 1034.3)"></g>
  <g id="layer1-7" style="fill:#fff" transform="matrix(.729 0 0 .729 -303.45 649.04)">
   <g id="layer2-4" style="display:none;fill:#fff" transform="translate(353.57 481.73)">
    <rect id="rect3745-8" style="opacity:.9;filter:url(#filter3174-0);fill:#fff" rx="6" ry="6" height="85" width="86" y="7" x="5"/>
   </g>
   <g id="layer5-0" style="display:none;fill:#fff" transform="translate(353.57 481.73)">
    <rect id="rect3171-63" style="opacity:.1;filter:url(#filter3794-3);stroke:#fff;stroke-linecap:round;stroke-width:.5;fill:#fff" clip-path="url(#clipPath4355-90)" rx="12" ry="12" height="62" width="66" y="15" x="15"/>
   </g>
   <g id="layer2-5-0" style="fill:#fff;display:none" transform="translate(353.47 490.07)">
    <rect id="rect3745-7-1" style="opacity:.9;filter:url(#filter3174-3-8);fill:#fff" rx="6" ry="6" height="85" width="86" y="7" x="5"/>
   </g>
   <g id="layer5-1-5" style="fill:#fff;display:none" transform="translate(353.47 490.07)">
    <rect id="rect3171-6-3" style="opacity:.1;filter:url(#filter3794-6-0);stroke:#fff;stroke-linecap:round;stroke-width:.5;fill:#fff" clip-path="url(#clipPath4355-3-3)" rx="12" ry="12" height="62" width="66" y="15" x="15"/>
   </g>
   <rect id="rect3745-9" style="opacity:.9;filter:url(#filter3174-4);display:none;fill:#fff" rx="6" ry="6" height="85" width="86" y="566.21" x="401.69"/>
   <rect id="rect3171-0" style="opacity:.1;filter:url(#filter3794-64);stroke:#fff;stroke-linecap:round;stroke-width:.5;display:none;fill:#fff" clip-path="url(#clipPath4355-9)" rx="12" transform="translate(396.69 559.21)" ry="12" width="66" y="15" x="15" height="62"/>
   <path id="rect3267" style="display:block;fill:#fff" d="m435.52 528.79c-0.0269-0.004-0.0592 0.001-0.087 0.009l-0.77429 0.20879c-0.11135 0.0298-0.17824 0.14775-0.1479 0.261l0.1044 0.40019c-0.18488 0.10639-0.35766 0.23493-0.50459 0.3828l-0.3567-0.2088c-0.0508-0.0293-0.10466-0.0395-0.15659-0.0261-0.0519 0.0134-0.10168 0.0458-0.1305 0.0957l-0.40019 0.70469c-0.0576 0.0998-0.0232 0.22847 0.0783 0.2871l0.3567 0.20879c-0.0546 0.20118-0.0786 0.41309-0.0783 0.62639l-0.40019 0.1044c-0.11325 0.0303-0.18644 0.14095-0.1566 0.2523l0.2088 0.78298c0.0298 0.11135 0.14774 0.17825 0.26099 0.1479l0.40019-0.1044c0.1064 0.18488 0.23493 0.34896 0.3828 0.49589l-0.2001 0.3654c-0.0586 0.10154-0.0302 0.22076 0.0696 0.27839l0.70469 0.4089c0.0998 0.0576 0.21977 0.0232 0.27839-0.0783l0.2088-0.3654c0.20118 0.0546 0.41308 0.0873 0.62639 0.087l0.1044 0.4002c0.0303 0.11325 0.14965 0.17773 0.26099 0.14789l0.78299-0.20879c0.11135-0.0298 0.16954-0.14775 0.1392-0.261l-0.1044-0.39149c0.18488-0.10639 0.35766-0.24363 0.50459-0.3915l0.3567 0.2088c0.10153 0.0586 0.22946 0.0302 0.28709-0.0696l0.40889-0.70469c0.0576-0.0998 0.0145-0.22847-0.087-0.28709l-0.3567-0.2001c0.0546-0.20118 0.0873-0.41308 0.087-0.62639l0.39149-0.1131c0.11325-0.0303 0.18644-0.14095 0.1566-0.25229l-0.20879-0.78299c-0.0298-0.11134-0.14775-0.17824-0.261-0.1479l-0.40019 0.1044c-0.10639-0.18488-0.23493-0.34896-0.3828-0.49589l0.2088-0.35669c0.0586-0.10154 0.0216-0.22947-0.0783-0.2871l-0.70469-0.40889c-0.0998-0.0576-0.21977-0.0232-0.27839 0.0783l-0.2088 0.36539c-0.20118-0.0546-0.41308-0.0873-0.62639-0.087l-0.1044-0.40019c-0.0227-0.0849-0.0933-0.14469-0.174-0.1566zm0.2349 2.0532c0.41104-0.0246 0.79408 0.24805 0.90479 0.66119 0.12651 0.47215-0.15424 0.95226-0.62639 1.0788-0.47216 0.12651-0.96097-0.15424-1.0875-0.62639-0.12651-0.47216 0.15424-0.95227 0.62639-1.0788 0.059-0.0158 0.12398-0.0313 0.1827-0.0348zm-4.2629 2.81c-0.21912 0-0.40019 0.17732-0.40019 0.40019v0.79169c-0.39181 0.10439-0.76234 0.26188-1.1049 0.46109l-0.56549-0.56549c-0.0788-0.0788-0.16773-0.11223-0.2697-0.1131-0.10197-0.00083-0.20962 0.0356-0.28709 0.1131l-1.0875 1.0875c-0.15494 0.15495-0.14887 0.3992 0.009 0.5568l0.55679 0.56549c-0.19922 0.34253-0.3567 0.71307-0.46109 1.1049h-0.78299c-0.22287 0-0.40889 0.18107-0.40889 0.40019v1.5312c0 0.21912 0.18602 0.40019 0.40889 0.40019h0.78299c0.10439 0.39181 0.26187 0.76234 0.46109 1.1049l-0.55679 0.55679c-0.15759 0.15759-0.16366 0.41055-0.009 0.56549l1.0875 1.0875c0.15494 0.15495 0.39919 0.1489 0.55679-0.009l0.56549-0.55679c0.34254 0.19921 0.71307 0.3567 1.1049 0.46109v0.78299c0 0.22287 0.18107 0.40889 0.40019 0.40889h1.5312c0.21912 0 0.40019-0.18602 0.40019-0.40889v-0.78299c0.39181-0.10439 0.76234-0.26188 1.1049-0.46109l0.56549 0.55679c0.15759 0.15759 0.40185 0.16364 0.55679 0.009l1.0875-1.0875c0.15495-0.15494 0.14888-0.4079-0.009-0.56549l-0.55679-0.55679c0.19922-0.34254 0.3567-0.71307 0.46109-1.1049h0.78299c0.22286 0 0.40889-0.18107 0.40889-0.40019v-1.5312c0-0.21912-0.18603-0.40019-0.40889-0.40019h-0.78299c-0.10439-0.39181-0.26187-0.76235-0.46109-1.1049l0.55679-0.56549c0.15759-0.1576 0.16366-0.40185 0.009-0.5568l-1.0875-1.0875c-0.15494-0.15494-0.3992-0.15759-0.55679 0l-0.56549 0.56549c-0.34254-0.19921-0.71307-0.3567-1.1049-0.46109v-0.79169c0-0.22287-0.18107-0.40019-0.40019-0.40019h-1.5312zm0.76559 3.8801c0.92919 0 1.6791 0.75858 1.6791 1.6878 0 0.92919-0.74988 1.6791-1.6791 1.6791-0.92919 0-1.6791-0.74988-1.6791-1.6791 0-0.92919 0.74988-1.6878 1.6791-1.6878z"/>
  </g>
 </g>
</svg>
