<?xml version="1.0" encoding="UTF-8" standalone="no"?>
<!-- Created with Inkscape (http://www.inkscape.org/) -->
<svg id="svg2" xmlns:rdf="http://www.w3.org/1999/02/22-rdf-syntax-ns#" xmlns="http://www.w3.org/2000/svg" height="24" width="24" version="1.1" xmlns:cc="http://creativecommons.org/ns#" xmlns:xlink="http://www.w3.org/1999/xlink" xmlns:dc="http://purl.org/dc/elements/1.1/">
 <defs id="defs4">
  <linearGradient id="linearGradient836" y2="1030.2" gradientUnits="userSpaceOnUse" x2="-3.3402" gradientTransform="matrix(2.1716 0 0 2.1716 19.342 -1205.8)" y1="1038.6" x1="-3.3402">
   <stop id="stop832" style="stop-color:#0080c7" offset="0"/>
   <stop id="stop834" style="stop-color:#0799f1" offset="1"/>
  </linearGradient>
 </defs>
 <metadata id="metadata7">
  <rdf:RDF>
   <cc:Work rdf:about="">
    <dc:format>image/svg+xml</dc:format>
    <dc:type rdf:resource="http://purl.org/dc/dcmitype/StillImage"/>
    <dc:title/>
   </cc:Work>
  </rdf:RDF>
 </metadata>
 <g id="layer1" transform="translate(0 -1028.4)">
  <rect id="rect846" style="fill-opacity:.094118" ry="1.6409" height="20" width="20" y="1030.4" x="2"/>
  <rect id="rect844" style="fill-opacity:.17647" ry="1.5874" height="19.349" width="19.349" y="1030.7" x="2.3257"/>
  <rect id="rect838" style="fill-opacity:.35294" ry="1.534" height="18.697" width="18.697" y="1031" x="2.6515"/>
  <rect id="rect848" style="fill-opacity:.42672" ry="1.5153" height="18.469" width="18.469" y="1031.1" x="2.7654"/>
  <rect id="rect828" style="fill:url(#linearGradient836)" ry="1.4805" height="18.046" width="18.046" y="1031.3" x="2.9772"/>
  <g id="layer1-1" style="fill:#fff" transform="matrix(.875 0 0 .875 2.375 129.17)">
   <path id="rect4085" d="m11 1049.4c4.432 0 8-3.568 8-8 0-1.4417-0.38287-2.7893-1.0449-3.9551l-0.73828 0.7383c0.49737 0.9629 0.7832 2.0543 0.7832 3.2168 0 3.878-3.122 7-7 7-1.1625 0-2.2539-0.2858-3.2168-0.7832l-0.73828 0.7383c1.1658 0.662 2.5134 1.0449 3.9551 1.0449zm-6.9551-4.0449 0.73828-0.7383c-0.4974-1.1-0.7832-2.2-0.7832-3.3 0-3.878 3.122-7 7-7 1.1625 0 2.2539 0.2858 3.2168 0.7832l0.73828-0.7383c-1.1658-0.662-2.5134-1.0449-3.9551-1.0449-4.432 0-8 3.568-8 8 0 1.4417 0.38287 2.7893 1.0449 3.9551z" style="fill:#fff"/>
  </g>
 </g>
</svg>
