<?xml version="1.0" encoding="UTF-8" standalone="no"?>
<!-- Created with Inkscape (http://www.inkscape.org/) -->
<svg id="svg3815" xmlns:rdf="http://www.w3.org/1999/02/22-rdf-syntax-ns#" xmlns="http://www.w3.org/2000/svg" height="22" width="22" version="1.1" xmlns:cc="http://creativecommons.org/ns#" xmlns:xlink="http://www.w3.org/1999/xlink" xmlns:dc="http://purl.org/dc/elements/1.1/">
 <defs id="defs3817">
  <filter id="filter3174" color-interpolation-filters="sRGB">
   <feGaussianBlur id="feGaussianBlur3176" stdDeviation="1.71"/>
  </filter>
  <filter id="filter3794" height="1.384" width="1.384" color-interpolation-filters="sRGB" y="-.192" x="-.192">
   <feGaussianBlur id="feGaussianBlur3796" stdDeviation="5.28"/>
  </filter>
  <clipPath id="clipPath4355">
   <rect id="rect4357" style="fill:#fff" rx="6" ry="6" height="80" width="84" y="6" x="6"/>
  </clipPath>
 </defs>
 <metadata id="metadata3820">
  <rdf:RDF>
   <cc:Work rdf:about="">
    <dc:format>image/svg+xml</dc:format>
    <dc:type rdf:resource="http://purl.org/dc/dcmitype/StillImage"/>
    <dc:title/>
   </cc:Work>
  </rdf:RDF>
 </metadata>
 <g id="layer1" transform="translate(-461.71 -525.79)">
  <rect id="rect3745" style="opacity:.9;filter:url(#filter3174);display:none;fill:#4d4d4d" transform="matrix(.36331 0 0 .36331 536.21 442.45)" rx="6" ry="6" height="85" width="86" y="7" x="5"/>
  <rect id="rect3171" style="opacity:.1;filter:url(#filter3794);stroke:#fff;stroke-linecap:round;stroke-width:.5;display:none;fill:#4d4d4d" transform="matrix(.36331 0 0 .36331 536.21 442.45)" clip-path="url(#clipPath4355)" rx="12" ry="12" height="62" width="66" y="15" x="15"/>
  <path id="path10385-0-4" style="fill:#4d4d4d" d="m471.13 532.23c0.0462-0.47237 0.0975-0.48679 1.4959-0.4202l1.4481 0.069-0.0476 1.3786c-0.0262 0.75821-0.0948 1.4215-0.15261 1.4741-0.0578 0.0525-0.273 0.0718-0.47829 0.0428-0.3137-0.0443-0.36889-0.18883-0.34597-0.90597 0.015-0.46929-0.0212-0.90662-0.0805-0.97184-0.0593-0.0652-0.50808-0.13179-0.99731-0.14793-0.87302-0.0288-0.8886-0.0384-0.84168-0.51846zm3.6763 3.9323c0.0452-0.32016 0.2667-0.36693 1.4964-0.31608l1.4433 0.0597-0.069 1.4486c-0.059 1.24-0.124 1.4511-0.45112 1.4659-0.54209 0.0245-0.66617-0.19464-0.61528-1.0865 0.0246-0.43041 0.008-0.82309-0.0371-0.8726-0.045-0.0495-0.43363-0.0992-0.86361-0.11047-0.8976-0.0235-0.97613-0.0746-0.90357-0.58856z"/>
  <path id="path10108" style="stroke:#4d4d4d;stroke-width:.2;fill:#4d4d4d" d="m468.61 533.76c-0.26854 0.34047-0.46848 0.70482-0.64745 1.0532l0.73994-0.67268 6.2643 6.8907-0.73994 0.67267c0.36377-0.14506 0.74547-0.30948 1.1099-0.54445l-3.3844-3.7228zm5.6168 7.9438-6.2643-6.8907c-2.1526 4.1897 1.889 8.6354 6.2643 6.8907z"/>
  <path id="path10446" style="fill:#4d4d4d;fill-rule:evenodd" d="m478.63 531.41c-2.9721-3.2693-8.0316-3.5102-11.301-0.53813-3.2693 2.972-3.5102 8.0316-0.53814 11.301 2.9721 3.2693 8.0316 3.5102 11.301 0.53814 3.2693-2.9721 3.5102-8.0316 0.53814-11.301zm-0.97499 0.88635c2.4825 2.7308 2.2813 6.957-0.4495 9.4396-2.7308 2.4825-6.957 2.2813-9.4396-0.4495-2.4825-2.7308-2.2813-6.957 0.4495-9.4396 2.7308-2.4825 6.957-2.2813 9.4396 0.4495z"/>
 </g>
</svg>
