<?xml version="1.0" encoding="UTF-8" standalone="no"?>
<!-- Created with Inkscape (http://www.inkscape.org/) -->
<svg id="svg3815" xmlns:rdf="http://www.w3.org/1999/02/22-rdf-syntax-ns#" xmlns="http://www.w3.org/2000/svg" height="22" width="22" version="1.1" xmlns:cc="http://creativecommons.org/ns#" xmlns:xlink="http://www.w3.org/1999/xlink" xmlns:dc="http://purl.org/dc/elements/1.1/">
 <defs id="defs3817">
  <filter id="filter3174" color-interpolation-filters="sRGB">
   <feGaussianBlur id="feGaussianBlur3176" stdDeviation="1.71"/>
  </filter>
  <filter id="filter3794" height="1.384" width="1.384" color-interpolation-filters="sRGB" y="-.192" x="-.192">
   <feGaussianBlur id="feGaussianBlur3796" stdDeviation="5.28"/>
  </filter>
  <clipPath id="clipPath4355">
   <rect id="rect4357" style="fill:#fff" rx="6" ry="6" height="80" width="84" y="6" x="6"/>
  </clipPath>
 </defs>
 <metadata id="metadata3820">
  <rdf:RDF>
   <cc:Work rdf:about="">
    <dc:format>image/svg+xml</dc:format>
    <dc:type rdf:resource="http://purl.org/dc/dcmitype/StillImage"/>
    <dc:title/>
   </cc:Work>
  </rdf:RDF>
 </metadata>
 <g id="layer1" transform="translate(-461.71 -525.79)">
  <rect id="rect3745" style="opacity:.9;filter:url(#filter3174);display:none;fill:#4d4d4d" transform="matrix(.36331 0 0 .36331 536.21 442.45)" rx="6" ry="6" height="85" width="86" y="7" x="5"/>
  <rect id="rect3171" style="opacity:.1;filter:url(#filter3794);stroke:#fff;stroke-linecap:round;stroke-width:.5;display:none;fill:#4d4d4d" transform="matrix(.36331 0 0 .36331 536.21 442.45)" clip-path="url(#clipPath4355)" rx="12" ry="12" height="62" width="66" y="15" x="15"/>
  <g id="g11074" transform="matrix(-1 0 0 1 945.37 0)">
   <g id="g10914" transform="translate(0 1.5322)">
    <path id="path10446" style="fill:#4d4d4d;fill-rule:evenodd" d="m472.71 527.26c-4.4183 0-8 3.5817-8 8s3.5817 8 8 8 8-3.5817 8-8-3.5817-8-8-8zm0 1.3125c3.6906 0 6.6875 2.9969 6.6875 6.6875s-2.9969 6.6875-6.6875 6.6875-6.6875-2.9969-6.6875-6.6875 2.9969-6.6875 6.6875-6.6875z"/>
   </g>
   <path id="path10217" style="fill-rule:evenodd;stroke:#4d4d4d;stroke-width:.1;fill:#4d4d4d" d="m10 16c0 1.6569-1.3431 3-3 3s-3-1.3431-3-3 1.3431-3 3-3 3 1.3431 3 3z" transform="translate(461.71 525.79)"/>
   <path id="path10217-5" d="m18.875 8.4688c-0.45478 0-0.89503 0.10015-1.2812 0.28125 0.17876 0.66855 0.28125 1.3818 0.28125 2.125 0 1.1152-0.23921 2.1674-0.625 3.0938 0.46696 0.2998 1.0289 0.5 1.625 0.5 1.6569 0 3-1.3431 3-3s-1.3431-3-3-3z" style="fill-rule:evenodd;stroke:#4d4d4d;stroke-width:.1;fill:#4d4d4d" transform="translate(461.71 525.79)"/>
   <rect id="rect10260" style="fill-rule:evenodd;stroke:#4d4d4d;stroke-width:.1;fill:#4d4d4d" transform="translate(461.71 525.79)" ry="1" height="4" width="2" y="6" x="13"/>
   <path id="path10262" style="fill:#4d4d4d" d="m18 13c-2 1-4 1-7-3 1 3 3 5 6 5 1-1 0.3045-1.3045 1-2z" transform="translate(461.71 525.79)"/>
  </g>
 </g>
</svg>
