<?xml version="1.0" encoding="UTF-8" standalone="no"?>
<!-- Created with Inkscape (http://www.inkscape.org/) -->
<svg id="svg3815" xmlns:rdf="http://www.w3.org/1999/02/22-rdf-syntax-ns#" xmlns="http://www.w3.org/2000/svg" xmlns:osb="http://www.openswatchbook.org/uri/2009/osb" height="22" width="22" version="1.1" xmlns:cc="http://creativecommons.org/ns#" xmlns:xlink="http://www.w3.org/1999/xlink" xmlns:dc="http://purl.org/dc/elements/1.1/">
 <defs id="defs3817">
  <filter id="filter3174" color-interpolation-filters="sRGB">
   <feGaussianBlur id="feGaussianBlur3176" stdDeviation="1.71"/>
  </filter>
  <filter id="filter3794" height="1.384" width="1.384" color-interpolation-filters="sRGB" y="-.192" x="-.192">
   <feGaussianBlur id="feGaussianBlur3796" stdDeviation="5.28"/>
  </filter>
  <clipPath id="clipPath4355">
   <rect id="rect4357" style="fill:#fff" rx="6" ry="6" height="80" width="84" y="6" x="6"/>
  </clipPath>
 </defs>
 <metadata id="metadata3820">
  <rdf:RDF>
   <cc:Work rdf:about="">
    <dc:format>image/svg+xml</dc:format>
    <dc:type rdf:resource="http://purl.org/dc/dcmitype/StillImage"/>
    <dc:title/>
   </cc:Work>
  </rdf:RDF>
 </metadata>
 <g id="layer1" transform="translate(-461.71 -525.79)">
  <rect id="rect3745" style="opacity:.9;filter:url(#filter3174);display:none;fill:#4d4d4d" transform="matrix(.36331 0 0 .36331 536.21 442.45)" rx="6" ry="6" height="85" width="86" y="7" x="5"/>
  <rect id="rect3171" style="opacity:.1;filter:url(#filter3794);stroke:#fff;stroke-linecap:round;stroke-width:.5;display:none;fill:#4d4d4d" transform="matrix(.36331 0 0 .36331 536.21 442.45)" clip-path="url(#clipPath4355)" rx="12" ry="12" height="62" width="66" y="15" x="15"/>
  <path id="path11473" style="fill:#4d4d4d" d="m469.88 528.81c-0.59496 0.006-1.0253 0.13691-0.875 0.4375 0.098 0.19604 0.38206 0.3394 0.625 0.3125 0.24329-0.0269 0.35748 0.10735 0.25 0.28125-0.10748 0.17391 0.21121 0.3125 0.71875 0.3125h0.90625c-0.28451 0.66232-0.36359 1.076-0.34375 1.3438-0.005 0.005 0.004 0.0266 0 0.0312-0.27253 0.28105-0.4886 0.25901-1.1875 0.0937-1.9526-0.4617-3.9825 0.60228-4.7812 2.5-0.50036 1.1888-0.42844 1.4536 0.25 1.0938 0.28021-0.14862 1.8964-0.50648 3.5938-0.8125 1.6973-0.30602 3.1458-0.64923 3.2188-0.75 0.0728-0.10077 0.024-0.31112-0.125-0.5-0.19287-0.24459-0.14797-0.47169 0.1875-0.96875 0.0448 0.0354 0.0962 0.0688 0.125 0.125 1.1526 0.33906 1.4247-1.4795 1.9062-1.0938 2.0616 1.6513 1.7081 5.914 1.2188 10.562-0.18706 1.2438-0.46151 2.3419-1 3h1.375c0.6384 0 1.2305-8.0362 0.75-10.188-0.81196-3.6357-1.5695-4.8125-3.125-4.8125-0.56464 0-1.4045-0.22294-1.875-0.53125-0.45427-0.29766-1.2175-0.44324-1.8125-0.4375zm3.625 1.875c0.15492 0.0236 0.15873 0.19261-0.0312 0.5-0.12923 0.20909-0.60172 0.382-1.0312 0.375-0.37656-0.006-0.54544 0.003-0.53125-0.0625 0.0142-0.0654 0.22683-0.19985 0.65625-0.4375 0.4766-0.26376 0.78258-0.39858 0.9375-0.375zm-1.1562 3.7812c-0.33043 0.008-0.98263 0.12978-1.6562 0.3125-1.5738 0.4269-1.6026 0.46307-1.3438 0.875 0.6775 1.0782 0.9428 2.012 0.8125 2.7812l-0.15625 0.8125 0.8125-0.5c1.0042-0.65524 1.7368-1.8956 1.875-3.1562 0.0565-0.51534 0.00024-1.0032-0.125-1.0938-0.0313-0.0226-0.10861-0.0341-0.21875-0.0312zm-5.7188 0.96875c-0.11411 0.0116-0.20334 0.0318-0.3125 0.0625-0.84084 0.23669-1.01 0.58794-0.21875 0.46875 0.81653-0.12301 1.5485 0.27088 2 1.0625 0.46092 0.80811 0.23862 1.7552-0.46875 1.9688-0.67745 0.20446-0.42365 0.5432 0.375 0.5 0.40612-0.0219 0.90976-0.26249 1.125-0.5 0.53156-0.58664 0.43058-1.8564-0.1875-2.5625-0.61533-0.70297-1.5137-1.0815-2.3125-1zm10.906 0.5c-0.47747 0.056-0.43317 0.47307 0.21875 1.125 0.30811 0.30806 0.4587 0.5625 0.3125 0.5625-0.14619 0 0.10207 0.41615 0.5625 0.90625 0.46043 0.49011 1.121 0.875 1.4688 0.875 0.55455 0 0.58747-0.14011 0.25-1.1562-0.48957-1.4742-0.9362-1.9196-2.1562-2.2188-0.2766-0.0678-0.49709-0.11241-0.65625-0.0937zm-11.812 0.65625c-0.76492 0.0738-0.82786 0.41663-0.28125 1.375 0.56018 0.98212 1.1177 1.3481 1.6562 1.0625 0.3702-0.1965 0.41825-0.4005 0.34375-1.0312-0.10897-0.92298-0.82027-1.493-1.7188-1.4062z"/>
 </g>
</svg>
