<?xml version="1.0" encoding="UTF-8" standalone="no"?>
<!-- Created with Inkscape (http://www.inkscape.org/) -->
<svg id="svg4511" xmlns:rdf="http://www.w3.org/1999/02/22-rdf-syntax-ns#" xmlns="http://www.w3.org/2000/svg" height="48px" width="48px" version="1.1" xmlns:cc="http://creativecommons.org/ns#" xmlns:xlink="http://www.w3.org/1999/xlink" xmlns:dc="http://purl.org/dc/elements/1.1/">
 <defs id="defs4513">
  <filter id="filter3174" color-interpolation-filters="sRGB">
   <feGaussianBlur id="feGaussianBlur3176" stdDeviation="1.71"/>
  </filter>
  <linearGradient id="linearGradient3254" y2="7.0165" gradientUnits="userSpaceOnUse" x2="45.448" gradientTransform="matrix(1.0059 0 0 .99417 -175.86 -30.712)" y1="92.54" x1="45.448">
   <stop id="stop3750" offset="0"/>
   <stop id="stop3752" style="stop-opacity:.58824" offset="1"/>
  </linearGradient>
  <filter id="filter3174-7" color-interpolation-filters="sRGB">
   <feGaussianBlur id="feGaussianBlur3176-58" stdDeviation="1.71"/>
  </filter>
  <linearGradient id="linearGradient8374" y2="7.0165" gradientUnits="userSpaceOnUse" x2="45.448" gradientTransform="matrix(1.0059 0 0 .99417 108.29 -24.643)" y1="92.54" x1="45.448">
   <stop id="stop3750-50" offset="0"/>
   <stop id="stop3752-42" style="stop-opacity:.58824" offset="1"/>
  </linearGradient>
  <filter id="filter3174-41" color-interpolation-filters="sRGB">
   <feGaussianBlur id="feGaussianBlur3176-9" stdDeviation="1.71"/>
  </filter>
  <linearGradient id="ButtonShadow-6" x1="45.448" gradientUnits="userSpaceOnUse" y1="92.54" gradientTransform="scale(1.0059 .99417)" x2="45.448" y2="7.0165">
   <stop id="stop3750-9" offset="0"/>
   <stop id="stop3752-33" style="stop-opacity:.58824" offset="1"/>
  </linearGradient>
  <filter id="filter3174-57" color-interpolation-filters="sRGB">
   <feGaussianBlur id="feGaussianBlur3176-42" stdDeviation="1.71"/>
  </filter>
  <filter id="filter3174-76" color-interpolation-filters="sRGB">
   <feGaussianBlur id="feGaussianBlur3176-51" stdDeviation="1.71"/>
  </filter>
  <filter id="filter3174-3" color-interpolation-filters="sRGB">
   <feGaussianBlur id="feGaussianBlur3176-47" stdDeviation="1.71"/>
  </filter>
  <filter id="filter3174-65" color-interpolation-filters="sRGB">
   <feGaussianBlur id="feGaussianBlur3176-0" stdDeviation="1.71"/>
  </filter>
  <linearGradient id="linearGradient10848" y2="-23.714" gradientUnits="userSpaceOnUse" x2="46.689" y1="-23.714" x1="2">
   <stop id="stop4329" style="stop-color:#f0f0f0" offset="0"/>
   <stop id="stop4331" style="stop-color:#b4b4b4" offset="1"/>
  </linearGradient>
  <linearGradient id="linearGradient10968" y2="7.0165" gradientUnits="userSpaceOnUse" x2="45.448" gradientTransform="matrix(1.0059 0 0 .99417 88.061 -64.071)" y1="92.54" x1="45.448">
   <stop id="stop3750-53" offset="0"/>
   <stop id="stop3752-85" style="stop-opacity:.58824" offset="1"/>
  </linearGradient>
  <linearGradient id="linearGradient4327-0">
   <stop id="stop4329-1" style="stop-color:#f0f0f0" offset="0"/>
   <stop id="stop4331-2" style="stop-color:#b4b4b4" offset="1"/>
  </linearGradient>
  <linearGradient id="linearGradient11027" y2="-23.714" xlink:href="#linearGradient4327-0" gradientUnits="userSpaceOnUse" y1="-23.714" gradientTransform="translate(.084022 .11383)" x2="46.689" x1="2"/>
  <linearGradient id="linearGradient11061" y2="-23.714" gradientUnits="userSpaceOnUse" y1="-23.714" gradientTransform="translate(.037143 -2.7143)" x2="46.689" x1="2">
   <stop id="stop4629" style="stop-color:#d59e62" offset="0"/>
   <stop id="stop4633" style="stop-color:#d59e62" offset="1"/>
  </linearGradient>
  <linearGradient id="linearGradient11086" y2="-24.286" gradientUnits="userSpaceOnUse" x2="46.327" gradientTransform="translate(.39955)" y1="-24.286" x1="1.5305">
   <stop id="stop3226" style="stop-color:#cc8538" offset="0"/>
   <stop id="stop3228" style="stop-color:#cc8538" offset="1"/>
  </linearGradient>
  <linearGradient id="linearGradient11109" y2="-23.714" xlink:href="#linearGradient4327-0" gradientUnits="userSpaceOnUse" y1="-23.714" gradientTransform="translate(.35675 .62270)" x2="46.689" x1="2"/>
  <linearGradient id="linearGradient11134" y2="-21.458" xlink:href="#linearGradient4327-0" gradientUnits="userSpaceOnUse" x2="46.773" y1="-21.458" x1="1.9769"/>
  <linearGradient id="linearGradient11142" y2="-23.714" xlink:href="#linearGradient4327-0" gradientUnits="userSpaceOnUse" x2="46.689" y1="-23.714" x1="2"/>
  <linearGradient id="linearGradient11150" y2="-19.535" gradientUnits="userSpaceOnUse" x2="47.046" y1="-19.535" x1="2.7547">
   <stop id="stop3599" style="stop-color:#dcdcdc" offset="0"/>
   <stop id="stop3601" style="stop-color:#f5f5f5" offset="1"/>
  </linearGradient>
  <filter id="filter3174-34" color-interpolation-filters="sRGB">
   <feGaussianBlur id="feGaussianBlur3176-01" stdDeviation="1.71"/>
  </filter>
  <linearGradient id="linearGradient4603" y2="7.0165" gradientUnits="userSpaceOnUse" x2="45.448" gradientTransform="matrix(1.0059 0 0 .99417 -25.979 57.897)" y1="92.54" x1="45.448">
   <stop id="stop3750-96" offset="0"/>
   <stop id="stop3752-39" style="stop-opacity:.58824" offset="1"/>
  </linearGradient>
  <filter id="filter3174-2" color-interpolation-filters="sRGB">
   <feGaussianBlur id="feGaussianBlur3176-44" stdDeviation="1.71"/>
  </filter>
  <linearGradient id="linearGradient4702" y2="85.062" gradientUnits="userSpaceOnUse" x2="20.179" y1="85.062" x1="16">
   <stop id="stop3378" style="stop-color:#767676" offset="0"/>
   <stop id="stop3380" style="stop-color:#fdfdfd" offset="1"/>
  </linearGradient>
  <radialGradient id="radialGradient4704" gradientUnits="userSpaceOnUse" cy="85.062" cx="18.089" gradientTransform="matrix(1 0 0 1.0043 0 -.36352)" r="2.0893">
   <stop id="stop3368" style="stop-color:#c1ff97" offset="0"/>
   <stop id="stop3370" style="stop-color:#30c700" offset="1"/>
  </radialGradient>
  <linearGradient id="linearGradient4706" y2="88.011" gradientUnits="userSpaceOnUse" x2="67.071" gradientTransform="matrix(1 0 0 -1 -15.859 216.46)" y1="80" x1="67.071">
   <stop id="stop3739-88" style="stop-color:#fff" offset="0"/>
   <stop id="stop3741-16" style="stop-color:#fff;stop-opacity:0" offset="1"/>
  </linearGradient>
  <linearGradient id="linearGradient4708" y2="88.011" gradientUnits="userSpaceOnUse" x2="67.071" gradientTransform="translate(-15.859 48.458)" y1="80" x1="67.071">
   <stop id="stop4227" offset="0"/>
   <stop id="stop4229" style="stop-color:#484848" offset="1"/>
  </linearGradient>
  <filter id="filter4180-8" height="3.8298" width="1.2289" color-interpolation-filters="sRGB" y="-1.4149" x="-.11445">
   <feGaussianBlur id="feGaussianBlur4182-1" stdDeviation="3.5372897"/>
  </filter>
  <radialGradient id="radialGradient4138-7" cx="48" gradientUnits="userSpaceOnUse" cy="84" r="30" gradientTransform="matrix(1.0667 0 0 .066667 -3.2 77.4)">
   <stop id="stop3315-1" style="stop-color:#4dbeff" offset="0"/>
   <stop id="stop4186-5" style="stop-color:#1379ff;stop-opacity:.65041" offset=".67213"/>
   <stop id="stop3317-6" style="stop-color:#06f;stop-opacity:0" offset="1"/>
  </radialGradient>
  <filter id="filter3174-1" color-interpolation-filters="sRGB">
   <feGaussianBlur id="feGaussianBlur3176-512" stdDeviation="1.71"/>
  </filter>
  <filter id="filter4180-5" height="3.8298" width="1.2289" color-interpolation-filters="sRGB" y="-1.4149" x="-.11445">
   <feGaussianBlur id="feGaussianBlur4182-16" stdDeviation="3.5372897"/>
  </filter>
  <filter id="filter3174-10" color-interpolation-filters="sRGB">
   <feGaussianBlur id="feGaussianBlur3176-017" stdDeviation="1.71"/>
  </filter>
  <filter id="filter3174-93" color-interpolation-filters="sRGB">
   <feGaussianBlur id="feGaussianBlur3176-3" stdDeviation="1.71"/>
  </filter>
  <filter id="filter4180-7" height="3.8298" width="1.2289" color-interpolation-filters="sRGB" y="-1.4149" x="-.11445">
   <feGaussianBlur id="feGaussianBlur4182-6" stdDeviation="3.5372897"/>
  </filter>
  <filter id="filter3174-19" color-interpolation-filters="sRGB">
   <feGaussianBlur id="feGaussianBlur3176-19" stdDeviation="1.71"/>
  </filter>
  <linearGradient id="linearGradient2918-5" x1="32.251" xlink:href="#ButtonShadow-0-19" gradientUnits="userSpaceOnUse" y1="6.1317" gradientTransform="matrix(1.0238 0 0 1.0119 -1.1429 -98.071)" x2="32.251" y2="90.239"/>
  <linearGradient id="linearGradient3721-91" x1="32.251" xlink:href="#ButtonShadow-0-19" gradientUnits="userSpaceOnUse" y1="6.1317" gradientTransform="translate(0,-97)" x2="32.251" y2="90.239"/>
  <linearGradient id="ButtonShadow-0-19" x1="45.448" gradientUnits="userSpaceOnUse" y1="92.54" gradientTransform="matrix(1.0059 0 0 .99417 100 0)" x2="45.448" y2="7.0165">
   <stop id="stop3750-8-20" offset="0"/>
   <stop id="stop3752-5-657" style="stop-opacity:.58824" offset="1"/>
  </linearGradient>
  <filter id="filter3407" height="1.2629" width="1.2208" color-interpolation-filters="sRGB" y="-.13143" x="-.1104">
   <feGaussianBlur id="feGaussianBlur3409" stdDeviation="2.3"/>
  </filter>
  <clipPath id="clipPath3403">
   <path id="path3405" d="m-72.688 6.9062v67.5h82.344v-67.5h-82.344zm40.688 13.094c13.248 0 24 8.96 24 20s-10.752 20-24 20-24-8.96-24-20 10.752-20 24-20zm5.7188 2.25-2.8438 8.9062c1.8843 0.42334 3.5657 1.2266 4.9062 2.3438l7.844-6.5c-2.867-2.3892-5.9898-3.8755-9.9062-4.75zm-5.719 10.25c-4.968 0-9 3.36-9 7.5s4.032 7.5 9 7.5 9-3.36 9-7.5-4.032-7.5-9-7.5zm0 2.5c3.312 0 6 2.24 6 5-0.000001 2.76-2.688 5-6 5-3.312-0.000001-6-2.24-6-5s2.688-5 6-5zm0 1.6562c-2.208 0-4 1.5038-4 3.3438s1.792 3.3437 4 3.3438c2.208 0 4-1.5038 4-3.3438s-1.792-3.3438-4-3.3438zm-7.781 9.844-7.781 6.5c2.867 2.3892 5.9898 3.8755 9.9062 4.75l2.8438-8.9062c-1.901-0.418-3.586-1.222-4.938-2.344h-0.03125z" style="fill:#fff"/>
  </clipPath>
  <linearGradient id="linearGradient3908" x1="5" gradientUnits="userSpaceOnUse" y1="64" gradientTransform="matrix(-.52730 .52730 -.52730 -.52730 123.49 79)" x2="123" y2="64">
   <stop id="stop3249" style="stop-color:#fff;stop-opacity:0" offset="0"/>
   <stop id="stop3255" style="stop-color:#ffdc4f;stop-opacity:0" offset="0.3"/>
   <stop id="stop3295" style="stop-color:#f685af;stop-opacity:.43922" offset=".5"/>
   <stop id="stop3257" style="stop-color:#ffdc4f;stop-opacity:0" offset="0.7"/>
   <stop id="stop3253" style="stop-color:#fff;stop-opacity:0" offset="1"/>
  </linearGradient>
  <linearGradient id="linearGradient3338" x1="71.672" xlink:href="#linearGradient3448-3" gradientUnits="userSpaceOnUse" y1="89" x2="71.672" y2="85.982"/>
  <linearGradient id="linearGradient3317" x1="46.178" gradientUnits="userSpaceOnUse" y1="80" x2="46.178" y2="84.029">
   <stop id="stop4227-3" offset="0"/>
   <stop id="stop4229-6" style="stop-color:#484848" offset="1"/>
  </linearGradient>
  <filter id="filter3829-05" height="1.3598" width="1.2454" color-interpolation-filters="sRGB" y="-.17991" x="-.12268">
   <feGaussianBlur id="feGaussianBlur3831-89" stdDeviation="3.5487715"/>
  </filter>
  <clipPath id="clipPath3785-0">
   <rect id="rect3787-8" style="fill:#fff" rx="6" ry="6" height="72" width="84" y="6" x="6"/>
  </clipPath>
  <linearGradient id="linearGradient3781-4" x1="15.656" xlink:href="#linearGradient3220-8" gradientUnits="userSpaceOnUse" y1="69.394" gradientTransform="matrix(1.1166 0 0 1.1166 .80470 -5.6759)" x2="46.595" y2="39.821"/>
  <linearGradient id="linearGradient3551-17" x1="18.743" xlink:href="#linearGradient3220-8" gradientUnits="userSpaceOnUse" y1="8.0469" gradientTransform="matrix(1,0,0,-1,0,84)" x2="109.19" y2="68.517"/>
  <linearGradient id="linearGradient3460-96" x1="90" xlink:href="#linearGradient3448-3" gradientUnits="userSpaceOnUse" y1="81.915" x2="21.335" y2="81.915"/>
  <linearGradient id="linearGradient3454-3" x1="6" xlink:href="#linearGradient3448-3" gradientUnits="userSpaceOnUse" y1="75.5" gradientTransform="matrix(-1,0,0,1,96,-2)" x2="45.219" y2="75.5"/>
  <linearGradient id="linearGradient3287-2" x1="6" gradientUnits="userSpaceOnUse" y1="77.094" gradientTransform="matrix(-1 0 0 1 96.031 0)" x2="32.031" y2="77.094">
   <stop id="stop3275-20" style="stop-color:#7a7a7a" offset="0"/>
   <stop id="stop3281-7" style="stop-color:#f9f9f9" offset=".14636"/>
   <stop id="stop3283-26" style="stop-color:#c9c9c9" offset=".37254"/>
   <stop id="stop3277-6" style="stop-color:#dedede;stop-opacity:0" offset="1"/>
  </linearGradient>
  <linearGradient id="linearGradient3279-2" x1="6" gradientUnits="userSpaceOnUse" y1="77.094" x2="32" y2="77.094">
   <stop id="stop3324-8" style="stop-color:#7a7a7a" offset="0"/>
   <stop id="stop3326-06" style="stop-color:#f9f9f9" offset=".20320"/>
   <stop id="stop3328-42" style="stop-color:#c9c9c9" offset=".42969"/>
   <stop id="stop3330-8" style="stop-color:#dedede;stop-opacity:0" offset="1"/>
  </linearGradient>
  <linearGradient id="linearGradient3179-2" x1="46" gradientUnits="userSpaceOnUse" y1="6" x2="46" y2="78">
   <stop id="stop4329-53" style="stop-color:#f0f0f0" offset="0"/>
   <stop id="stop4331-91" style="stop-color:#b4b4b4" offset="1"/>
  </linearGradient>
  <linearGradient id="linearGradient3188-077" x1="36.357" gradientUnits="userSpaceOnUse" y1="6" x2="36.357" y2="63.893">
   <stop id="stop3739-77" style="stop-color:#fff" offset="0"/>
   <stop id="stop3741-9" style="stop-color:#fff;stop-opacity:0" offset="1"/>
  </linearGradient>
  <filter id="filter3174-31" color-interpolation-filters="sRGB">
   <feGaussianBlur id="feGaussianBlur3176-76" stdDeviation="1.71"/>
  </filter>
  <linearGradient id="linearGradient3220-8">
   <stop id="stop3222-7" style="stop-color:#fff" offset="0"/>
   <stop id="stop3224-1" style="stop-color:#bfbfbf;stop-opacity:0" offset="1"/>
  </linearGradient>
  <linearGradient id="linearGradient3448-3">
   <stop id="stop3450-67" offset="0"/>
   <stop id="stop3452-12" style="stop-opacity:0" offset="1"/>
  </linearGradient>
  <linearGradient id="linearGradient13399" x1="69.649" xlink:href="#ButtonShadow-6" gradientUnits="userSpaceOnUse" y1="89.131" gradientTransform="matrix(1.8663 0 0 2.2236 160.55 -78.137)" x2="69.016" y2="34.714"/>
  <filter id="filter3222" color-interpolation-filters="sRGB">
   <feGaussianBlur id="feGaussianBlur3224" stdDeviation="1.27575"/>
  </filter>
  <radialGradient id="radialGradient2924" cx="59.894" gradientUnits="userSpaceOnUse" cy="61.922" r="33.714" gradientTransform="matrix(1 0 0 .83754 0 10.06)">
   <stop id="stop3344" style="stop-opacity:0" offset="0"/>
   <stop id="stop3350" style="stop-opacity:0" offset="0.85"/>
   <stop id="stop2810" style="stop-opacity:.65625" offset="1"/>
  </radialGradient>
  <linearGradient id="linearGradient2926" x1="26.18" gradientUnits="userSpaceOnUse" y1="61.922" x2="93.608" y2="61.922">
   <stop id="stop3332" style="stop-color:#fff;stop-opacity:.20312" offset="0"/>
   <stop id="stop3334" style="stop-color:#fff;stop-opacity:.67969" offset="1"/>
  </linearGradient>
  <linearGradient id="linearGradient2928" x1="25.22" gradientUnits="userSpaceOnUse" y1="61.922" x2="94.568" y2="61.922">
   <stop id="stop3364" style="stop-color:#4d4d4d" offset="0"/>
   <stop id="stop3366" style="stop-color:#fff" offset="1"/>
  </linearGradient>
  <linearGradient id="linearGradient13393" x1="73.016" gradientUnits="userSpaceOnUse" y1="89.131" gradientTransform="matrix(1.3461 0 0 1.617 -24.621 -21.393)" x2="73.016" y2="34.607">
   <stop id="stop2788" style="stop-color:#d5aed1" offset="0"/>
   <stop id="stop2790" style="stop-color:#f9ecd2" offset="1"/>
  </linearGradient>
  <linearGradient id="linearGradient13390" x1="5" gradientUnits="userSpaceOnUse" y1="64" gradientTransform="matrix(.52730 .52730 -.52730 .52730 56 11.506)" x2="123" y2="64">
   <stop id="stop3235" style="stop-color:#fff;stop-opacity:0" offset="0"/>
   <stop id="stop3297" style="stop-color:#fff;stop-opacity:0" offset="0.3"/>
   <stop id="stop3241" style="stop-color:#fff" offset=".5"/>
   <stop id="stop3299" style="stop-color:#fff;stop-opacity:0" offset="0.7"/>
   <stop id="stop3237" style="stop-color:#fff;stop-opacity:0" offset="1"/>
  </linearGradient>
  <linearGradient id="linearGradient13387" x1="5" xlink:href="#linearGradient3265" gradientUnits="userSpaceOnUse" y1="64" gradientTransform="matrix(-.38603 .63801 -.63801 -.38603 121.54 62.873)" x2="123" y2="64"/>
  <linearGradient id="linearGradient3265">
   <stop id="stop3267" style="stop-color:#fff;stop-opacity:0" offset="0"/>
   <stop id="stop3269" style="stop-color:#add8e4;stop-opacity:0" offset="0.35"/>
   <stop id="stop3271" style="stop-color:#a3d2e0;stop-opacity:.45098" offset=".5"/>
   <stop id="stop3273" style="stop-color:#add8e4;stop-opacity:0" offset="0.65"/>
   <stop id="stop3882" style="stop-color:#fff;stop-opacity:0" offset="1"/>
  </linearGradient>
  <linearGradient id="linearGradient13384" x1="5" xlink:href="#linearGradient3265" gradientUnits="userSpaceOnUse" y1="64" gradientTransform="matrix(-.65332 .35952 -.35952 -.65332 120.82 97.803)" x2="123" y2="64"/>
  <linearGradient id="linearGradient13921" x1="50.875" gradientUnits="userSpaceOnUse" y1="34.75" x2="50.875" y2="79.819">
   <stop id="stop13372" style="stop-color:#fff" offset="0"/>
   <stop id="stop13374" style="stop-color:#fff;stop-opacity:0" offset="1"/>
  </linearGradient>
  <linearGradient id="linearGradient12520" y2="7.0165" xlink:href="#ButtonShadow-6" gradientUnits="userSpaceOnUse" x2="45.448" gradientTransform="scale(1.0059 .99417)" y1="92.54" x1="45.448"/>
  <linearGradient id="linearGradient12562" y2="19.987" gradientUnits="userSpaceOnUse" x2="52.929" gradientTransform="translate(0 0.0000025)" y1="60" x1="52.929">
   <stop id="stop3769-84" style="stop-color:#4d4d4d;stop-opacity:.70732" offset="0"/>
   <stop id="stop3771-13" style="stop-color:#4d4d4d;stop-opacity:.25203" offset="1"/>
  </linearGradient>
  <filter id="filter4118" height="1.504" width="1.4582" color-interpolation-filters="sRGB" y="-.252" x="-.22909">
   <feGaussianBlur id="feGaussianBlur4120" stdDeviation="4.2000002"/>
  </filter>
  <clipPath id="clipPath4114">
   <path id="path4116" d="m12.094 6c-3.3796 0-6.094 2.7144-6.094 6.094v67.812c0 3.38 2.7144 6.094 6.094 6.094h71.812c3.38 0 6.094-2.714 6.094-6.094v-67.812c0-3.3796-2.714-6.094-6.094-6.094h-71.812zm32.875 18h6.0625c0.8658 0 1.5625 0.6682 1.5625 1.4688v2.8125c1.548 0.374 3.053 0.94 4.406 1.656l2.1875-2c0.62268-0.56608 1.6065-0.5878 2.2188-0.03125l4.3125 3.9062c0.61221 0.55656 0.59137 1.4339-0.03125 2l-2.2188 2.0312c0.78715 1.2304 1.4313 2.5614 1.8438 3.9688h3.0938c0.879-0.001 1.592 0.65 1.592 1.437v5.5c0 0.7871-0.71316 1.4375-1.5938 1.4375h-3.0938c-0.41248 1.4074-1.0566 2.7383-1.8438 3.9688l2.2188 2.0312c0.62268 0.56608 0.64352 1.4434 0.03125 2l-4.3125 3.9062c-0.61222 0.55656-1.5961 0.53484-2.2188-0.03125l-2.1875-2c-1.3534 0.71559-2.8581 1.2813-4.4062 1.6562v2.8125c0 0.8-0.697 1.468-1.563 1.468h-6.0625c-0.86581 0-1.5625-0.6682-1.5625-1.4688v-2.8125c-1.548-0.374-3.053-0.94-4.406-1.656l-2.1875 2c-0.31134 0.28304-0.69084 0.4344-1.0938 0.4375-0.40291 0.0031-0.8189-0.12797-1.125-0.40625l-4.3125-3.9062c-0.61221-0.55656-0.59136-1.4339 0.03125-2l2.2188-2.0312c-0.786-1.23-1.43-2.561-1.842-3.968h-3.0938c-0.881 0-1.594-0.651-1.594-1.438v-5.5c0-0.7871 0.71315-1.4375 1.5938-1.4375h3.0938c0.41249-1.4074 1.0566-2.7383 1.8438-3.9688l-2.22-2.031c-0.62268-0.56608-0.64353-1.4434-0.03125-2l4.3125-3.9062c0.61221-0.55656 1.5961-0.53483 2.2188 0.03125l2.1875 2c1.3534-0.71559 2.8581-1.2813 4.4062-1.6562v-2.8125c0-0.8 0.697-1.468 1.563-1.468zm3.031 13.969c-3.6714 0-6.6562 2.6936-6.6562 6.0312 0 3.3377 2.9848 6.0312 6.6562 6.0312s6.6562-2.6936 6.6562-6.0312c0-3.3377-2.9848-6.0312-6.6562-6.0312z" style="fill:#f0f"/>
  </clipPath>
  <filter id="filter3174-75" color-interpolation-filters="sRGB">
   <feGaussianBlur id="feGaussianBlur3176-2" stdDeviation="1.71"/>
  </filter>
  <linearGradient id="linearGradient14378" y2="45.017" gradientUnits="userSpaceOnUse" x2="20.759" gradientTransform="matrix(1.0233 0 0 -.93023 23.442 63.395)" y1="1" x1="20.759">
   <stop id="stop3769-26" style="stop-color:#4d4d4d;stop-opacity:.70732" offset="0"/>
   <stop id="stop3771-5" style="stop-color:#4d4d4d;stop-opacity:.31373" offset="1"/>
  </linearGradient>
 </defs>
 <metadata id="metadata4516">
  <rdf:RDF>
   <cc:Work rdf:about="">
    <dc:format>image/svg+xml</dc:format>
    <dc:type rdf:resource="http://purl.org/dc/dcmitype/StillImage"/>
    <dc:title/>
   </cc:Work>
  </rdf:RDF>
 </metadata>
 <g id="layer1">
  <rect id="rect810-9" style="opacity:.52991;stroke:#000;fill:#333" transform="scale(1,-1)" ry="10.607" height="43.689" width="43.689" y="-46.112" x="2.5506"/>
  <rect id="rect810" style="stroke:url(#linearGradient11142);fill:url(#linearGradient10848)" transform="scale(1,-1)" ry="10.607" height="43.689" width="43.689" y="-45.559" x="2.5"/>
  <rect id="rect3745" style="opacity:.9;filter:url(#filter3174);display:none;fill:url(#linearGradient3254)" rx="6" ry="6" height="85" width="86" y="-23.712" x="-170.86"/>
  <rect id="rect3745-1" style="opacity:.9;filter:url(#filter3174-7);display:none;fill:url(#linearGradient8374)" rx="6" ry="6" height="85" width="86" y="-17.643" x="113.29"/>
  <g id="layer2" style="display:none" transform="translate(-111.44 -124.36)">
   <rect id="rect3745-9" style="opacity:.9;filter:url(#filter3174-41);fill:url(#ButtonShadow-6)" rx="6" ry="6" height="85" width="86" y="7" x="5"/>
  </g>
  <g id="layer2-7" style="display:none" transform="translate(-218.05 -238.16)">
   <rect id="rect3745-2" style="opacity:.9;filter:url(#filter3174-57);fill:url(#ButtonShadow-6)" rx="6" ry="6" height="85" width="86" y="7" x="5"/>
  </g>
  <g id="layer2-1" style="display:none" transform="translate(-106.2 -48.076)">
   <path id="rect3745-24" style="opacity:.9;filter:url(#filter3174-76);fill:url(#ButtonShadow-6)" d="m11 7c-3.324 0-6 2.676-6 6v73c0 3.324 2.676 6 6 6h74c3.324 0 6-2.676 6-6v-73c0-3.324-2.676-6-6-6h-5v2.5c1.4703 0.7406 2.5 2.2424 2.5 4 0 2.484-2.016 4.5-4.5 4.5s-4.5-2.016-4.5-4.5c0-1.7576 1.0297-3.2594 2.5-4v-2.5h-8v2.5c1.4703 0.7406 2.5 2.2424 2.5 4 0 2.484-2.016 4.5-4.5 4.5s-4.5-2.016-4.5-4.5c0-1.7576 1.0297-3.2594 2.5-4v-2.5h-8v2.5c1.4703 0.7406 2.5 2.2424 2.5 4 0 2.484-2.016 4.5-4.5 4.5s-4.5-2.016-4.5-4.5c0-1.7576 1.0297-3.2594 2.5-4v-2.5h-8v2.5c1.4703 0.7406 2.5 2.2424 2.5 4 0 2.484-2.016 4.5-4.5 4.5s-4.5-2.016-4.5-4.5c0-1.7576 1.0297-3.2594 2.5-4v-2.5h-8v2.5c1.4703 0.7406 2.5 2.2424 2.5 4 0 2.484-2.016 4.5-4.5 4.5s-4.5-2.016-4.5-4.5c0-1.7576 1.0297-3.2594 2.5-4v-2.5h-8v2.5c1.4703 0.7406 2.5 2.2424 2.5 4 0 2.484-2.016 4.5-4.5 4.5s-4.5-2.016-4.5-4.5c0-1.7576 1.0297-3.2594 2.5-4v-2.5h-5z"/>
  </g>
  <g id="layer2-0" style="display:none" transform="translate(28.835 -121.51)">
   <rect id="rect3745-5" style="opacity:.9;filter:url(#filter3174-3);fill:url(#ButtonShadow-6)" rx="6" ry="6" height="85" width="86" y="7" x="5"/>
  </g>
  <rect id="rect3745-19" style="opacity:.9;filter:url(#filter3174-65);display:none;fill:url(#linearGradient10968)" rx="6" ry="6" height="85" width="86" y="-57.071" x="93.061"/>
  <rect id="rect810-4-0" style="stroke:url(#linearGradient11086);fill:url(#linearGradient11061)" transform="scale(1,-1)" ry="10.607" height="39.403" width="43.796" y="-43.987" x="2.43"/>
  <rect id="rect810-4" style="stroke:url(#linearGradient11134);fill:url(#linearGradient11027)" transform="scale(1,-1)" ry="10.607" height="39.403" width="43.796" y="-41.159" x="2.4769"/>
  <rect id="rect810-4-8" style="stroke:url(#linearGradient11150);fill:url(#linearGradient11109)" transform="scale(1,-1)" ry="10.607" height="36.373" width="44.099" y="-37.62" x="2.4466"/>
  <rect id="rect3745-51" style="opacity:.9;filter:url(#filter3174-34);display:none;fill:url(#linearGradient4603)" rx="6" ry="6" height="85" width="86" y="64.897" x="-20.979"/>
  <g id="layer2-3" style="display:none" transform="translate(-13.859 48.458)">
   <rect id="rect3745-7" style="opacity:.9;filter:url(#filter3174-2);fill:url(#ButtonShadow-6)" rx="6" ry="6" height="85" width="86" y="7" x="5"/>
  </g>
  <g id="g4674" transform="matrix(.25 0 0 .25 15.095 6.9188)">
   <g id="g3318" transform="translate(-13.859 48.458)">
    <path id="path3374" style="fill:url(#linearGradient4702)" transform="matrix(0 1.6709 1.6638 0 -122.04 53.283)" d="m20.179 85.062a2.0893 2.0982 0 1 1 -4.1786 0 2.0893 2.0982 0 1 1 4.1786 0z"/>
    <path id="path3364" style="stroke-opacity:.53182;stroke:#000;stroke-linecap:square;stroke-width:.84050;fill:url(#radialGradient4704)" transform="matrix(1.1923 0 0 1.1872 -2.0769 -17.48)" d="m20.179 85.062a2.0893 2.0982 0 1 1 -4.1786 0 2.0893 2.0982 0 1 1 4.1786 0z"/>
   </g>
   <path id="path4237" style="fill:url(#linearGradient4706)" d="m41.141 136.96c-0.81756 0-1.5-0.68244-1.5-1.5v-6c0-0.81756 0.68244-1.5 1.5-1.5s1.5 0.68244 1.5 1.5v6c0 0.81756-0.68244 1.5-1.5 1.5zm4 0c-0.81756 0-1.5-0.68244-1.5-1.5v-6c0-0.81756 0.68244-1.5 1.5-1.5s1.5 0.68244 1.5 1.5v6c0 0.81756-0.68244 1.5-1.5 1.5zm4 0c-0.81756 0-1.5-0.68244-1.5-1.5v-6c0-0.81756 0.68244-1.5 1.5-1.5s1.5 0.68244 1.5 1.5v6c0 0.81756-0.68244 1.5-1.5 1.5zm4 0c-0.81756 0-1.5-0.68244-1.5-1.5v-6c0-0.81756 0.68244-1.5 1.5-1.5s1.5 0.68244 1.5 1.5v6c0 0.81756-0.68244 1.5-1.5 1.5zm4 0c-0.81756 0-1.5-0.68244-1.5-1.5v-6c0-0.81756 0.68244-1.5 1.5-1.5s1.5 0.68244 1.5 1.5v6c0 0.81756-0.68244 1.5-1.5 1.5zm4 0c-0.81756 0-1.5-0.68244-1.5-1.5v-6c0-0.81756 0.68244-1.5 1.5-1.5s1.5 0.68244 1.5 1.5v6c0 0.81756-0.68244 1.5-1.5 1.5zm4 0c-0.81756 0-1.5-0.68244-1.5-1.5v-6c0-0.81756 0.68244-1.5 1.5-1.5s1.5 0.68244 1.5 1.5v6c0 0.81756-0.68244 1.5-1.5 1.5z"/>
   <path id="rect4210" style="fill:url(#linearGradient4708)" d="m41.141 128.46c-0.554 0-1 0.446-1 1v6c0 0.554 0.446 1 1 1s1-0.446 1-1v-6c0-0.554-0.446-1-1-1zm4 0c-0.554 0-1 0.446-1 1v6c0 0.554 0.446 1 1 1s1-0.446 1-1v-6c0-0.554-0.446-1-1-1zm4 0c-0.554 0-1 0.446-1 1v6c0 0.554 0.446 1 1 1s1-0.446 1-1v-6c0-0.554-0.446-1-1-1zm4 0c-0.554 0-1 0.446-1 1v6c0 0.554 0.446 1 1 1s1-0.446 1-1v-6c0-0.554-0.446-1-1-1zm4 0c-0.554 0-1 0.446-1 1v6c0 0.554 0.446 1 1 1s1-0.446 1-1v-6c0-0.554-0.446-1-1-1zm4 0c-0.554 0-1 0.446-1 1v6c0 0.554 0.446 1 1 1s1-0.446 1-1v-6c0-0.554-0.446-1-1-1zm4 0c-0.554 0-1 0.446-1 1v6c0 0.554 0.446 1 1 1s1-0.446 1-1v-6c0-0.554-0.446-1-1-1z"/>
  </g>
  <g id="layer2-75" style="display:none" transform="translate(-10.286 84.214)">
   <rect id="rect3745-20" style="opacity:.9;filter:url(#filter3174-1);fill:url(#ButtonShadow-6)" rx="6" ry="6" height="85" width="86" y="7" x="5"/>
  </g>
  <g id="layer5-3" style="display:none" transform="translate(-10.286 84.214)">
   <rect id="rect3323" style="opacity:.6;filter:url(#filter4180-8);display:inline;fill:#06f" rx="6.7435" ry="6" height="6" width="74.179" y="80" x="10.911"/>
   <rect id="rect3311" style="fill:url(#radialGradient4138-7);display:inline" rx="5.8182" ry="4" height="4" width="64" y="81" x="16"/>
  </g>
  <g id="layer2-37" style="display:none" transform="translate(22.857 122.64)">
   <rect id="rect3745-6" style="opacity:.9;filter:url(#filter3174-10);fill:url(#ButtonShadow-6)" rx="6" ry="6" height="85" width="86" y="7" x="5"/>
  </g>
  <g id="layer5-2" style="display:none" transform="translate(22.857 122.64)">
   <rect id="rect3323-7" style="opacity:.6;filter:url(#filter4180-5);display:inline;fill:#06f" rx="6.7435" ry="6" height="6" width="74.179" y="80" x="10.911"/>
   <rect id="rect3311-0" style="fill:url(#radialGradient4138-7);display:inline" rx="5.8182" ry="4" height="4" width="64" y="81" x="16"/>
  </g>
  <g id="layer2-17" style="display:none" transform="translate(15.342 112.14)">
   <rect id="rect3745-4" style="opacity:.9;filter:url(#filter3174-93);fill:url(#ButtonShadow-6)" rx="6" ry="6" height="85" width="86" y="7" x="5"/>
  </g>
  <g id="layer2-19" style="display:none" transform="translate(119.69 80.928)">
   <rect id="rect3745-72" style="opacity:.9;filter:url(#filter3174-19);fill:url(#ButtonShadow-6)" rx="6" ry="6" height="85" width="86" y="7" x="5"/>
  </g>
  <g id="layer5-4" style="display:none" transform="translate(119.69 80.928)">
   <rect id="rect3323-5" style="opacity:.6;filter:url(#filter4180-7);display:inline;fill:#06f" rx="6.7435" ry="6" height="6" width="74.179" y="80" x="10.911"/>
   <rect id="rect3311-1" style="fill:url(#radialGradient4138-7);display:inline" rx="5.8182" ry="4" height="4" width="64" y="81" x="16"/>
  </g>
  <g id="layer2-4" style="display:none" transform="translate(194.03 83.353)">
   <rect id="rect3745-3" style="opacity:.9;filter:url(#filter3174-31);fill:url(#linearGradient12520)" rx="6" ry="6" height="85" width="86" y="7" x="5"/>
  </g>
  <g id="layer7" transform="translate(194.03 83.353)">
   <path id="path3786" style="opacity:0.08;fill:url(#linearGradient2918-5)" transform="scale(1,-1)" d="m12-95.031c-5.5111 0-10.031 4.5202-10.031 10.031v71c0 5.5111 4.5202 10.031 10.031 10.031h72c5.5111 0 10.031-4.5202 10.031-10.031v-71c0-5.5111-4.5202-10.031-10.031-10.031h-72z"/>
   <path id="path3778" style="opacity:.1;fill:url(#linearGradient2918-5)" transform="scale(1,-1)" d="m12-94.031c-4.9716 0-9.0312 4.0596-9.0312 9.0312v71c0 4.9716 4.0596 9.0312 9.0312 9.0312h72c4.9716 0 9.0312-4.0596 9.0312-9.0312v-71c0-4.9716-4.0596-9.0312-9.0312-9.0312h-72z"/>
   <path id="path3770" style="opacity:.2;fill:url(#linearGradient2918-5)" transform="scale(1,-1)" d="m12-93c-4.4091 0-8 3.5909-8 8v71c0 4.4091 3.5909 8 8 8h72c4.4091 0 8-3.5909 8-8v-71c0-4.4091-3.5909-8-8-8h-72z"/>
   <rect id="rect3723" style="opacity:.3;fill:url(#linearGradient2918-5)" transform="scale(1,-1)" rx="7" ry="7" height="85" width="86" y="-92" x="5"/>
   <rect id="rect3716" style="opacity:.45;fill:url(#linearGradient3721-91)" transform="scale(1,-1)" rx="6" ry="6" height="84" width="84" y="-91" x="6"/>
  </g>
  <g id="layer1-9" transform="translate(194.03 83.353)">
   <path id="rect3728" style="opacity:.5;fill:url(#linearGradient3188-077)" d="m12 6c-3.324 0-6 2.676-6 6v2 68 2c0 0.33472 0.04135 0.6507 0.09375 0.96875 0.0487 0.2956 0.09704 0.59692 0.1875 0.875 0.00988 0.03038 0.020892 0.0636 0.03125 0.09375 0.098865 0.28777 0.23488 0.54745 0.375 0.8125 0.14459 0.27351 0.31562 0.53562 0.5 0.78125 0.18438 0.24564 0.37378 0.47347 0.59375 0.6875 0.43995 0.42806 0.94291 0.81453 1.5 1.0938 0.27854 0.13961 0.57347 0.24695 0.875 0.34375-0.2562-0.10022-0.48671-0.23627-0.71875-0.375-0.00741-0.0044-0.023866 0.0045-0.03125 0-0.031933-0.0193-0.062293-0.04251-0.09375-0.0625-0.1204-0.0767-0.23102-0.16351-0.34375-0.25-0.10617-0.0808-0.21328-0.16111-0.3125-0.25-0.1778-0.162-0.3473-0.346-0.4999-0.531-0.1075-0.131-0.2183-0.266-0.3124-0.407-0.0251-0.038-0.0385-0.086-0.0626-0.125-0.0647-0.103-0.1302-0.204-0.1874-0.312-0.1011-0.195-0.2057-0.416-0.2813-0.625-0.008-0.022-0.0236-0.041-0.0313-0.063-0.0318-0.092-0.0358-0.187-0.0624-0.281-0.0304-0.107-0.0704-0.203-0.0938-0.313-0.0729-0.341-0.125-0.698-0.125-1.062v-2-68-2c0-2.782 2.2182-5 5-5h2 68 2c2.7818 0 5 2.2182 5 5v2 68 2c0 0.3643-0.05212 0.72099-0.125 1.0625-0.04415 0.20689-0.08838 0.39766-0.15625 0.59375-0.0077 0.02195-0.0233 0.04069-0.03125 0.0625-0.06274 0.17374-0.13838 0.36745-0.21875 0.53125-0.04158 0.0828-0.07904 0.16995-0.125 0.25-0.0546 0.09721-0.12677 0.18835-0.1875 0.28125-0.09411 0.14096-0.20492 0.276-0.3125 0.40625-0.14317 0.17445-0.30314 0.347-0.46875 0.5-0.01117 0.0102-0.01998 0.02115-0.03125 0.03125-0.13839 0.12556-0.28509 0.23444-0.4375 0.34375-0.10257 0.07315-0.20432 0.15336-0.3125 0.21875-0.0074 0.0045-0.02384-0.0044-0.03125 0-0.23204 0.13873-0.46255 0.27478-0.71875 0.375 0.30153-0.0968 0.59646-0.20414 0.875-0.34375 0.55709-0.27922 1.0601-0.66569 1.5-1.0938 0.21997-0.21403 0.40937-0.44186 0.59375-0.6875s0.35541-0.50774 0.5-0.78125c0.14012-0.26505 0.27614-0.52473 0.375-0.8125 0.01041-0.03078 0.02133-0.06274 0.03125-0.09375 0.09046-0.27808 0.1388-0.5794 0.1875-0.875 0.053-0.318 0.094-0.634 0.094-0.969v-2-68-2c0-3.324-2.676-6-6-6h-72z"/>
   <path id="rect3243" style="fill:#cacaca" d="m90 64.188v19.812c0 3.324-2.676 6-6 6h-72c-3.324 0-6-2.676-6-6v-19.812h84z"/>
   <path id="path3285" style="opacity:.8;fill:url(#linearGradient3287-2)" d="m90.031 64.188v19.812c0 3.324-2.676 6-6 6h-20.031v-25.812h26.031z"/>
   <path id="path3263" style="opacity:.8;fill:url(#linearGradient3279-2)" d="m6 64.188v19.812c0 3.324 2.676 6 6 6h20v-25.812h-26z"/>
   <path id="path3299" style="opacity:.2;fill:url(#linearGradient3460-96)" d="m90 64.188v19.812c0 3.324-2.676 6-6 6h-72c-3.324 0-6-2.676-6-6v-19.812h84z"/>
   <rect id="rect3308-7" style="fill:url(#linearGradient3317)" rx="2" ry="2" height="4" width="64" y="80" x="16"/>
   <path id="rect3319" style="fill:#ececec" d="m16.062 82.5c-0.04 0.16-0.062 0.327-0.062 0.5 0 1.108 0.892 2 2 2h60c1.108 0 2-0.892 2-2 0-0.17312-0.02152-0.34-0.0625-0.5-0.222 0.864-1.003 1.5-1.938 1.5h-60c-0.93488 0-1.7162-0.636-1.9375-1.5z"/>
   <rect id="rect3330" style="opacity:.5;fill:url(#linearGradient3338)" rx="0" ry="0" height="3.947" width="10" y="85.053" x="67"/>
   <rect id="rect3328" style="fill:#f2f2f2" height="2" width="8" y="86" x="68"/>
  </g>
  <g id="layer3-3" transform="translate(194.03 83.353)">
   <rect id="rect3171" style="fill:url(#linearGradient3179-2)" rx="6" ry="6" height="70" width="84" y="6" x="6"/>
   <path id="rect3213" style="opacity:.7;fill:url(#linearGradient3551-17)" d="m12 76c-3.324 0-6-2.676-6-6v-58c0-3.324 2.676-6 6-6h72c3.324 0 6 2.676 6 6v58c0 3.324-2.676 6-6 6h-72zm0-2h72c2.7818 0 5-2.1954 5-4.9375v-57.125c0-2.7416-2.218-4.937-5-4.937h-72c-2.7818 0-5 2.1954-5 4.938v57.125c0 2.742 2.2182 4.937 5 4.937z"/>
   <path id="path3443" style="opacity:.1;fill:url(#linearGradient3454-3)" d="m90 70v1c0 3.324-2.676 6-6 6h-72c-3.324 0-6-2.676-6-6v-1c0 2.9849 2.1528 5.4349 5 5.9062 0.327 0.066 0.652 0.094 1 0.094h72c0.1663 0 0.33719-0.01811 0.5-0.03125 0.04161-0.0041 0.08371 0.0051 0.125 0 0.128-0.013 0.25-0.042 0.375-0.063 2.847-0.471 5-2.921 5-5.906z"/>
   <path id="path3295" style="opacity:.3;filter:url(#filter3829-05);fill:url(#linearGradient3781-4);fill-rule:evenodd" d="m72.786 73.317c-35.288-1.657-40.13-12.747-16.572-37.751-26.655 8.432-39.266 20.289-48.634 28.373-9.9501 8.663-0.591 19.841 10.354 18.913 11.343-0.0075 45.802-2.0979 54.851-9.5351z" clip-path="url(#clipPath3785-0)" transform="translate(0,-2)"/>
  </g>
  <g id="layer4-5" transform="matrix(.5 0 0 .5 132.78 68.604)">
   <path id="path3340" style="fill:url(#linearGradient12562)" d="m48 20c-13.248 0-24 8.96-24 20s10.752 20 24 20c13.248 0.000001 24-8.96 24-20s-10.752-20-24-20zm5.7188 2.2656c3.9164 0.8745 7.0392 2.3504 9.9062 4.7396l-7.8438 6.5104c-1.34-1.117-3.022-1.947-4.906-2.37l2.8438-8.8802zm-5.719 10.234c4.968-0.000001 9 3.36 9 7.5-0.000001 4.14-4.032 7.5-9 7.5-4.968 0.000001-9-3.36-9-7.5 0.000001-4.14 4.032-7.5 9-7.5zm0 2.5c-3.312-0.000001-6 2.24-6 5s2.688 5 6 5c3.312 0.000001 6-2.24 6-5s-2.688-5-6-5zm0 1.6667c2.208 0 4 1.4933 4 3.3333s-1.792 3.3333-4 3.3333c-2.208-0.001-4-1.494-4-3.334 0.000001-1.84 1.792-3.3333 4-3.3333zm-7.7812 9.8177h0.03125c1.3516 1.1217 3.0374 1.9522 4.9375 2.3698l-2.8438 8.8802c-3.9164-0.8745-7.0392-2.3504-9.9062-4.7396l7.7812-6.5104z"/>
   <path id="path3383" style="opacity:.4" d="m48 20c-13.248 0-24 8.96-24 20 0 0.16712-0.0049 0.33386 0 0.5 0.319-10.809 10.953-19.5 24-19.5s23.681 8.691 24 19.5c0.005-0.166 0-0.333 0-0.5 0-11.04-10.752-20-24-20zm15 7.531-7.219 5.969c-1.2709-1.0591-2.8588-1.809-4.625-2.25l-0.281 0.906c1.8843 0.42334 3.5657 1.2266 4.9062 2.3438l7.844-6.5c-0.203-0.169-0.42-0.309-0.625-0.469zm-15 7.469c-3.312-0.000001-6 2.24-6 5 0 0.1725 0.01075 0.33198 0.03125 0.5 0.308-2.52 2.864-4.5 5.969-4.5s5.6613 1.9797 5.9688 4.5c0.02-0.168 0.031-0.328 0.031-0.5 0-2.76-2.688-5-6-5zm-8.9688 5.5c-0.012 0.163-0.031 0.334-0.031 0.5 0 4.14 4.032 7.5 9 7.5s9-3.36 9-7.5c0-0.16575-0.01852-0.33692-0.03125-0.5-0.30516 3.9103-4.1996 7-8.9688 7-4.7691 0.000001-8.6636-3.0897-8.9688-7zm5.0312 0c-0.031 0.168-0.062 0.325-0.062 0.5 0 1.84 1.792 3.3437 4 3.3438 2.208 0 4-1.5038 4-3.3438 0-0.1748-0.03133-0.33244-0.0625-0.5-0.2969 1.5962-1.9393 2.8438-3.9375 2.8438-1.9982-0.000002-3.6406-1.2475-3.9375-2.8438zm0.84375 9.25-2.5625 8c-3.64-0.813-6.581-2.18-9.282-4.281l-0.624 0.531c2.867 2.3892 5.9898 3.8755 9.9062 4.75l2.844-8.906c-0.099-0.022-0.184-0.07-0.282-0.094z"/>
   <path id="path3401" style="opacity:.8;filter:url(#filter3407);stroke:#fff;stroke-linecap:square;stroke-width:2;fill:none" d="m-32 20c-13.248 0-24 8.96-24 20s10.752 20 24 20c13.248 0.000001 24-8.96 24-20s-10.752-20-24-20zm5.7188 2.2656c3.9164 0.8745 7.0392 2.3504 9.9062 4.7396l-7.8438 6.5104c-1.3405-1.1171-3.0219-1.9465-4.9062-2.3698l2.8438-8.8802zm-5.719 10.234c4.968-0.000001 9 3.36 9 7.5-0.000001 4.14-4.032 7.5-9 7.5-4.968 0.000001-9-3.36-9-7.5 0.000001-4.14 4.032-7.5 9-7.5zm0 2.5c-3.312-0.000001-6 2.24-6 5s2.688 5 6 5c3.312 0.000001 6-2.24 6-5s-2.688-5-6-5zm0 1.6667c2.208 0 4 1.4933 4 3.3333s-1.792 3.3333-4 3.3333c-2.208-0.001-4-1.494-4-3.334 0.000001-1.84 1.792-3.3333 4-3.3333zm-7.7812 9.8177h0.03125c1.3516 1.1217 3.0374 1.9522 4.9375 2.3698l-2.8438 8.8802c-3.9164-0.8745-7.0392-2.3504-9.9062-4.7396l7.7812-6.5104z" clip-path="url(#clipPath3403)" transform="translate(80)"/>
  </g>
  <g id="layer5-02" style="display:none" transform="translate(194.03 83.353)">
   <g id="g3836" style="display:inline" transform="matrix(.70718 0 0 .70718 23.398 -22.712)">
    <path id="path3185" style="opacity:.6;fill-rule:evenodd;filter:url(#filter3222);display:inline;fill:url(#linearGradient13399)" transform="matrix(.74180 0 0 .75620 -146.02 35.217)" d="m272.33-0.94868c-33.672 0-61 27.104-61 60.5s27.328 60.5 61 60.5 61-27.104 61-60.5-27.328-60.5-61-60.5zm0 40c11.316-0.000001 20.5 9.184 20.5 20.5s-9.184 20.5-20.5 20.5-20.5-9.184-20.5-20.5 9.184-20.5 20.5-20.5z"/>
    <path id="path3307" style="opacity:.3;fill:#fff;display:inline;fill-rule:evenodd" d="m56 58.416c-11.216 0-20.321 9.105-20.321 20.321s9.105 20.321 20.321 20.321 20.321-9.105 20.321-20.321-9.105-20.321-20.321-20.321zm0 14.355c3.293 0 5.9657 2.6726 5.9657 5.9657 0 3.293-2.6726 5.9657-5.9657 5.9657-3.293 0-5.9657-2.6726-5.9657-5.9657 0-3.293 2.6726-5.9657 5.9657-5.9657z"/>
    <path id="path3328" style="opacity:.5;fill-rule:evenodd;stroke:url(#linearGradient2926);stroke-linecap:round;stroke-width:3.4273;display:inline;fill:url(#radialGradient2924)" transform="matrix(0 .37644 -.45222 0 84.002 56.19)" d="m92.58 61.922a32.686 27.208 0 1 1 -65.371 0 32.686 27.208 0 1 1 65.371 0z"/>
    <path id="path3352" style="opacity:.6;stroke:url(#linearGradient2928);stroke-linecap:round;stroke-width:7.54;display:inline;fill:none" transform="matrix(0 .17111 -.20555 0 68.728 68.488)" d="m92.58 61.922a32.686 27.208 0 1 1 -65.371 0 32.686 27.208 0 1 1 65.371 0z"/>
    <path id="path3170" style="fill:url(#linearGradient13393);display:inline;fill-rule:evenodd" d="m56 34.74c-24.286 0-43.997 19.711-43.997 43.997s19.711 43.997 43.997 43.997 43.997-19.711 43.997-43.997-19.711-43.997-43.997-43.997zm0 28.337c8.6442-0.000001 15.66 7.0156 15.66 15.66 0 8.6442-7.0156 15.66-15.66 15.66-8.6442-0.000002-15.66-7.0156-15.66-15.66 0-8.6442 7.0156-15.66 15.66-15.66z"/>
    <path id="path3230" style="opacity:.6;fill:url(#linearGradient13390);display:inline;fill-rule:evenodd" d="m87.11 47.89c-17.173-17.173-45.048-17.173-62.221 0s-17.173 45.048-0.000001 62.221 45.048 17.173 62.221 0 17.173-45.048 0-62.221zm-20.037 20.037c6.1124 6.1124 6.1124 16.034-0.000007 22.146-6.1124 6.1124-16.034 6.1124-22.146 0-6.1124-6.1124-6.1124-16.034 0-22.146 6.1124-6.1124 16.034-6.1124 22.146 0.000001z"/>
    <path id="path3259" style="opacity:.6;fill:url(#linearGradient13387);display:inline;fill-rule:evenodd" d="m93.643 101.78c12.567-20.783 5.912-47.85-14.867-60.423-20.779-12.572-47.846-5.912-60.419 14.867-12.572 20.779-5.912 47.846 14.867 60.416 20.779 12.58 47.846 5.91 60.419-14.86zm-24.245-14.673c-4.4749 7.3958-14.109 9.7664-21.505 5.2916-7.3958-4.4749-9.7664-14.109-5.2916-21.505 4.4749-7.3958 14.109-9.7664 21.505-5.2916 7.3958 4.4749 9.7664 14.109 5.2915 21.505z"/>
    <path id="path3231" style="opacity:.6;fill:url(#linearGradient13384);display:inline;fill-rule:evenodd" d="m77.212 117.55c21.277-11.71 29.038-38.484 17.334-59.762-11.709-21.277-38.48-29.043-59.758-17.334-21.277 11.709-29.043 38.48-17.334 59.756 11.709 21.277 38.48 29.043 59.757 17.334zm-13.662-24.83c-7.573 4.167-17.102 1.403-21.27-6.17-4.167-7.573-1.403-17.102 6.17-21.27 7.5733-4.1675 17.102-1.4034 21.27 6.1698 4.1675 7.5733 1.4034 17.102-6.1699 21.27z"/>
    <path id="path3243" style="fill:url(#linearGradient3908);display:inline;fill-rule:evenodd" d="m87.11 110.11c17.173-17.173 17.173-45.048 0-62.221s-45.048-17.173-62.221 0-17.173 45.048-0.000001 62.221 45.048 17.173 62.221 0.00001zm-20.037-20.037c-6.1124 6.1124-16.034 6.1124-22.146-0.000003-6.1124-6.1124-6.1124-16.034 0.000002-22.146 6.1124-6.1124 16.034-6.1124 22.146 0 6.1124 6.1124 6.1124 16.034 0 22.146z"/>
    <path id="path3304" style="opacity:.15;stroke:#000;stroke-linecap:round;stroke-width:9.0479;display:inline;fill:none" transform="matrix(.57037 0 0 .68518 21.839 36.309)" d="m92.58 61.922a32.686 27.208 0 1 1 -65.371 0 32.686 27.208 0 1 1 65.371 0z"/>
    <path id="path13401" style="opacity:.8;fill:url(#linearGradient13921);display:inline;fill-rule:evenodd" d="m56 34.75c-24.286-0.000001-44 19.714-44 44 0 21.988 16.168 40.214 37.25 43.469-20.527-3.25-36.25-21.07-36.25-42.501 0-23.736 19.264-43 43-43s43 19.264 43 43c0 21.435-15.723 39.253-36.25 42.5 21.082-3.26 37.25-21.48 37.25-43.47-0.000003-24.286-19.714-44-44-44zm-14.312 50.312c2.1695 5.8155 7.7437 9.9687 14.312 9.9688 6.5688 0 12.143-4.1532 14.312-9.9688-2.4327 5.4945-7.9201 9.3438-14.312 9.3438-6.3924 0-11.88-3.8492-14.312-9.3438z"/>
   </g>
  </g>
  <g id="layer2-8" style="display:none" transform="translate(8.4129 68.678)">
   <rect id="rect3745-62" style="opacity:.9;filter:url(#filter3174-75);fill:url(#ButtonShadow-6)" rx="6" ry="6" height="85" width="86" y="7" x="5"/>
  </g>
  <g id="layer4-0" transform="matrix(.5 0 0 .5 .41295 -1.1793)">
   <path id="path4067" style="filter:url(#filter4118);display:block;fill:#fff" d="m44.962 64c-0.86581 0-1.5669-0.65294-1.5669-1.4535v-2.8198c-1.5481-0.37498-3.0274-0.94138-4.3808-1.657l-2.2064 2.0058c-0.31134 0.28304-0.68429 0.43294-1.0872 0.43605-0.40291 0.0031-0.81308-0.1287-1.1192-0.40698l-4.317-3.924c-0.61221-0.55656-0.5907-1.4397 0.03191-2.0058l2.2064-2.0058c-0.78715-1.2304-1.4102-2.5752-1.8227-3.9826h-3.1017c-0.8806 0-1.5988-0.63732-1.5988-1.4244v-5.5233c0-0.7871 0.71823-1.4244 1.5988-1.4244h3.1017c0.41249-1.4074 1.0355-2.7522 1.8227-3.9826l-2.2064-2.0058c-0.62268-0.56608-0.64419-1.4493-0.03191-2.0058l4.3169-3.9244c0.61221-0.55656 1.5837-0.537 2.2064 0.02908l2.2064 2.0058c1.3534-0.71559 2.8327-1.282 4.3808-1.657v-2.8198c0-0.8 0.701-1.453 1.567-1.453h6.0756c0.8658 0 1.5669 0.65294 1.5669 1.4535v2.8198c1.5481 0.37498 3.0274 0.94138 4.3808 1.657l2.2064-2.0058c0.62268-0.56608 1.5942-0.58563 2.2064-0.02908l4.3168 3.9244c0.61221 0.55656 0.5907 1.4397-0.03192 2.0058l-2.2064 2.0058c0.78715 1.2304 1.4102 2.5752 1.8227 3.9826h3.1017c0.8806 0 1.5988 0.63732 1.5988 1.4244v5.5233c0 0.7871-0.71824 1.4244-1.5988 1.4244h-3.1017c-0.41248 1.4074-1.0355 2.7522-1.8227 3.9826l2.2064 2.0058c0.62268 0.56608 0.6442 1.4493 0.03192 2.0058l-4.3168 3.9244c-0.61222 0.55656-1.5837 0.53701-2.2064-0.02908l-2.2064-2.0058c-1.3534 0.71559-2.8327 1.282-4.3808 1.657v2.8198c0 0.80055-0.70105 1.4535-1.5669 1.4535h-6.0756zm3.0378-13.953c3.6714 0 6.6511-2.7088 6.6511-6.0465s-2.9797-6.0465-6.6511-6.0465-6.6511 2.7088-6.6511 6.0465 2.9797 6.0465 6.6511 6.0465z" clip-path="url(#clipPath4114)" transform="translate(0,-2)"/>
   <path id="rect3267" style="display:block;fill:url(#linearGradient14378)" d="m44.962 62c-0.86581 0-1.5669-0.65294-1.5669-1.4535v-2.8198c-1.5481-0.37498-3.0274-0.94138-4.3808-1.657l-2.2064 2.0058c-0.31134 0.28304-0.68429 0.43294-1.0872 0.43605-0.40291 0.0031-0.81308-0.1287-1.1192-0.40698l-4.317-3.924c-0.61221-0.55656-0.5907-1.4397 0.03191-2.0058l2.2064-2.0058c-0.78715-1.2304-1.4102-2.5752-1.8227-3.9826h-3.1017c-0.8806 0-1.5988-0.63732-1.5988-1.4244v-5.5233c0-0.7871 0.71823-1.4244 1.5988-1.4244h3.1017c0.41249-1.4074 1.0355-2.7522 1.8227-3.9826l-2.2064-2.0058c-0.62268-0.56608-0.64419-1.4493-0.03191-2.0058l4.3169-3.9244c0.61221-0.55656 1.5837-0.537 2.2064 0.02908l2.2064 2.0058c1.3534-0.71559 2.8327-1.282 4.3808-1.657v-2.8198c0-0.8 0.701-1.453 1.567-1.453h6.0756c0.8658 0 1.5669 0.65294 1.5669 1.4535v2.8198c1.5481 0.37498 3.0274 0.94138 4.3808 1.657l2.2064-2.0058c0.62268-0.56608 1.5942-0.58563 2.2064-0.02908l4.3168 3.9244c0.61221 0.55656 0.5907 1.4397-0.03192 2.0058l-2.2064 2.0058c0.78715 1.2304 1.4102 2.5752 1.8227 3.9826h3.1017c0.8806 0 1.5988 0.63732 1.5988 1.4244v5.5233c0 0.7871-0.71824 1.4244-1.5988 1.4244h-3.1017c-0.41248 1.4074-1.0355 2.7522-1.8227 3.9826l2.2064 2.0058c0.62268 0.56608 0.6442 1.4493 0.03192 2.0058l-4.3168 3.9244c-0.61222 0.55656-1.5837 0.53701-2.2064-0.02908l-2.2064-2.0058c-1.3534 0.71559-2.8327 1.282-4.3808 1.657v2.8198c0 0.80055-0.70105 1.4535-1.5669 1.4535h-6.0756zm3.0378-13.953c3.6714 0 6.6511-2.7088 6.6511-6.0465s-2.9797-6.0465-6.6511-6.0465-6.6511 2.7088-6.6511 6.0465 2.9797 6.0465 6.6511 6.0465z"/>
   <path id="path4044" style="opacity:.4;display:block" d="m44.969 22c-0.86581 0-1.5625 0.6682-1.5625 1.4688v1c0-0.801 0.697-1.469 1.563-1.469h6.0625c0.8658 0 1.5625 0.6682 1.5625 1.4688v-1c0-0.801-0.697-1.469-1.563-1.469h-6.0625zm-9.5625 3.5c-0.29329 0.04824-0.58292 0.19754-0.8125 0.40625l-4.3125 3.9062c-0.43929 0.39931-0.54491 0.97092-0.34375 1.4688 0.07436-0.16991 0.19068-0.32961 0.34375-0.46875l4.3125-3.9062c0.61221-0.55656 1.5961-0.53483 2.2188 0.03125l2.1875 2c1.3534-0.71559 2.8581-1.2813 4.4062-1.6562v-1c-1.548 0.375-3.053 0.941-4.406 1.657l-2.1875-2c-0.389-0.354-0.917-0.518-1.406-0.438zm24.906 0c-0.39724 0.0061-0.81366 0.15446-1.125 0.4375l-2.1875 2c-1.3534-0.71559-2.8581-1.2813-4.4062-1.6562v1c1.548 0.374 3.053 0.94 4.406 1.656l2.1875-2c0.62268-0.56608 1.6065-0.5878 2.2188-0.03125l4.3125 3.9062c0.15305 0.13914 0.2694 0.29884 0.34375 0.46875 0.20114-0.49783 0.09549-1.0694-0.34375-1.4688l-4.3125-3.9062c-0.308-0.279-0.698-0.413-1.096-0.407zm-28.156 9c-0.60307 1.0492-1.1275 2.1483-1.4688 3.3125h-3.0938c-0.88 0-1.593 0.651-1.593 1.438v1c0-0.7871 0.71315-1.4375 1.5938-1.4375h3.0938c0.41249-1.4074 1.0566-2.7383 1.8438-3.9688l-0.376-0.343zm31.688 0-0.375 0.34375c0.78715 1.2304 1.4313 2.5614 1.8438 3.9688h3.0938c0.88-0.001 1.593 0.65 1.593 1.437v-1c0-0.7871-0.71316-1.4375-1.5938-1.4375h-3.0938c-0.341-1.164-0.865-2.263-1.468-3.312zm-22.469 8.125c-0.0083 0.12349-0.03125 0.24963-0.03125 0.375 0 3.3377 2.9848 6.0312 6.6562 6.0312s6.6562-2.6936 6.6562-6.0312c0-0.12537-0.02296-0.25151-0.03125-0.375-0.34081 3.0478-3.183 5.4062-6.625 5.4062s-6.2842-2.3585-6.625-5.4062zm-9.219 7.875-1.844 1.688c-0.46696 0.42456-0.59804 1.0215-0.375 1.5312 0.07921-0.19604 0.19909-0.37131 0.375-0.53125l2.2188-2.0312c-0.136-0.213-0.249-0.438-0.375-0.657zm31.688 0c-0.12598 0.21917-0.23899 0.44364-0.375 0.65625l2.2188 2.0312c0.17593 0.15994 0.29578 0.33521 0.375 0.53125 0.22306-0.50973 0.09201-1.1067-0.375-1.5312l-1.844-1.687z"/>
  </g>
 </g>
</svg>
