<?xml version="1.0" encoding="UTF-8" standalone="no"?>
<!-- Created with Inkscape (http://www.inkscape.org/) -->
<svg id="svg4511" xmlns:rdf="http://www.w3.org/1999/02/22-rdf-syntax-ns#" xmlns="http://www.w3.org/2000/svg" height="48px" width="48px" version="1.1" xmlns:cc="http://creativecommons.org/ns#" xmlns:xlink="http://www.w3.org/1999/xlink" xmlns:dc="http://purl.org/dc/elements/1.1/">
 <defs id="defs4513">
  <filter id="filter3174" color-interpolation-filters="sRGB">
   <feGaussianBlur id="feGaussianBlur3176" stdDeviation="1.71"/>
  </filter>
  <linearGradient id="linearGradient3254" y2="7.0165" gradientUnits="userSpaceOnUse" x2="45.448" gradientTransform="matrix(1.0059 0 0 .99417 -175.86 -30.712)" y1="92.54" x1="45.448">
   <stop id="stop3750" offset="0"/>
   <stop id="stop3752" style="stop-opacity:.58824" offset="1"/>
  </linearGradient>
  <filter id="filter3174-7" color-interpolation-filters="sRGB">
   <feGaussianBlur id="feGaussianBlur3176-58" stdDeviation="1.71"/>
  </filter>
  <linearGradient id="linearGradient8374" y2="7.0165" gradientUnits="userSpaceOnUse" x2="45.448" gradientTransform="matrix(1.0059 0 0 .99417 108.29 -24.643)" y1="92.54" x1="45.448">
   <stop id="stop3750-50" offset="0"/>
   <stop id="stop3752-42" style="stop-opacity:.58824" offset="1"/>
  </linearGradient>
  <filter id="filter3174-41" color-interpolation-filters="sRGB">
   <feGaussianBlur id="feGaussianBlur3176-9" stdDeviation="1.71"/>
  </filter>
  <linearGradient id="ButtonShadow-6" x1="45.448" gradientUnits="userSpaceOnUse" y1="92.54" gradientTransform="scale(1.0059 .99417)" x2="45.448" y2="7.0165">
   <stop id="stop3750-9" offset="0"/>
   <stop id="stop3752-33" style="stop-opacity:.58824" offset="1"/>
  </linearGradient>
  <filter id="filter3174-57" color-interpolation-filters="sRGB">
   <feGaussianBlur id="feGaussianBlur3176-42" stdDeviation="1.71"/>
  </filter>
  <filter id="filter3174-76" color-interpolation-filters="sRGB">
   <feGaussianBlur id="feGaussianBlur3176-51" stdDeviation="1.71"/>
  </filter>
  <filter id="filter3174-3" color-interpolation-filters="sRGB">
   <feGaussianBlur id="feGaussianBlur3176-47" stdDeviation="1.71"/>
  </filter>
  <filter id="filter3174-65" color-interpolation-filters="sRGB">
   <feGaussianBlur id="feGaussianBlur3176-0" stdDeviation="1.71"/>
  </filter>
  <linearGradient id="linearGradient10848" y2="-23.714" gradientUnits="userSpaceOnUse" x2="46.689" y1="-23.714" x1="2">
   <stop id="stop4329" style="stop-color:#f0f0f0" offset="0"/>
   <stop id="stop4331" style="stop-color:#b4b4b4" offset="1"/>
  </linearGradient>
  <linearGradient id="linearGradient10968" y2="7.0165" gradientUnits="userSpaceOnUse" x2="45.448" gradientTransform="matrix(1.0059 0 0 .99417 88.061 -64.071)" y1="92.54" x1="45.448">
   <stop id="stop3750-53" offset="0"/>
   <stop id="stop3752-85" style="stop-opacity:.58824" offset="1"/>
  </linearGradient>
  <linearGradient id="linearGradient4327-0">
   <stop id="stop4329-1" style="stop-color:#f0f0f0" offset="0"/>
   <stop id="stop4331-2" style="stop-color:#b4b4b4" offset="1"/>
  </linearGradient>
  <linearGradient id="linearGradient11027" y2="-23.714" xlink:href="#linearGradient4327-0" gradientUnits="userSpaceOnUse" y1="-23.714" gradientTransform="translate(.084022 .11383)" x2="46.689" x1="2"/>
  <linearGradient id="linearGradient11061" y2="-23.714" gradientUnits="userSpaceOnUse" y1="-23.714" gradientTransform="translate(.037143 -2.7143)" x2="46.689" x1="2">
   <stop id="stop4629" style="stop-color:#d59e62" offset="0"/>
   <stop id="stop4633" style="stop-color:#d59e62" offset="1"/>
  </linearGradient>
  <linearGradient id="linearGradient11086" y2="-24.286" gradientUnits="userSpaceOnUse" x2="46.327" gradientTransform="translate(.39955)" y1="-24.286" x1="1.5305">
   <stop id="stop3226" style="stop-color:#cc8538" offset="0"/>
   <stop id="stop3228" style="stop-color:#cc8538" offset="1"/>
  </linearGradient>
  <linearGradient id="linearGradient11109" y2="-23.714" xlink:href="#linearGradient4327-0" gradientUnits="userSpaceOnUse" y1="-23.714" gradientTransform="translate(.35675 .62270)" x2="46.689" x1="2"/>
  <linearGradient id="linearGradient11134" y2="-21.458" xlink:href="#linearGradient4327-0" gradientUnits="userSpaceOnUse" x2="46.773" y1="-21.458" x1="1.9769"/>
  <linearGradient id="linearGradient11142" y2="-23.714" xlink:href="#linearGradient4327-0" gradientUnits="userSpaceOnUse" x2="46.689" y1="-23.714" x1="2"/>
  <linearGradient id="linearGradient11150" y2="-19.535" gradientUnits="userSpaceOnUse" x2="47.046" y1="-19.535" x1="2.7547">
   <stop id="stop3599" style="stop-color:#dcdcdc" offset="0"/>
   <stop id="stop3601" style="stop-color:#f5f5f5" offset="1"/>
  </linearGradient>
  <filter id="filter3174-34" color-interpolation-filters="sRGB">
   <feGaussianBlur id="feGaussianBlur3176-01" stdDeviation="1.71"/>
  </filter>
  <linearGradient id="linearGradient4603" y2="7.0165" gradientUnits="userSpaceOnUse" x2="45.448" gradientTransform="matrix(1.0059 0 0 .99417 -25.979 57.897)" y1="92.54" x1="45.448">
   <stop id="stop3750-96" offset="0"/>
   <stop id="stop3752-39" style="stop-opacity:.58824" offset="1"/>
  </linearGradient>
  <filter id="filter3174-2" color-interpolation-filters="sRGB">
   <feGaussianBlur id="feGaussianBlur3176-44" stdDeviation="1.71"/>
  </filter>
  <linearGradient id="linearGradient4702" y2="85.062" gradientUnits="userSpaceOnUse" x2="20.179" y1="85.062" x1="16">
   <stop id="stop3378" style="stop-color:#767676" offset="0"/>
   <stop id="stop3380" style="stop-color:#fdfdfd" offset="1"/>
  </linearGradient>
  <radialGradient id="radialGradient4704" gradientUnits="userSpaceOnUse" cy="85.062" cx="18.089" gradientTransform="matrix(1 0 0 1.0043 0 -.36352)" r="2.0893">
   <stop id="stop3368" style="stop-color:#c1ff97" offset="0"/>
   <stop id="stop3370" style="stop-color:#30c700" offset="1"/>
  </radialGradient>
  <linearGradient id="linearGradient4706" y2="88.011" gradientUnits="userSpaceOnUse" x2="67.071" gradientTransform="matrix(1 0 0 -1 -15.859 216.46)" y1="80" x1="67.071">
   <stop id="stop3739-88" style="stop-color:#fff" offset="0"/>
   <stop id="stop3741-16" style="stop-color:#fff;stop-opacity:0" offset="1"/>
  </linearGradient>
  <linearGradient id="linearGradient4708" y2="88.011" gradientUnits="userSpaceOnUse" x2="67.071" gradientTransform="translate(-15.859 48.458)" y1="80" x1="67.071">
   <stop id="stop4227" offset="0"/>
   <stop id="stop4229" style="stop-color:#484848" offset="1"/>
  </linearGradient>
  <filter id="filter4180-8" height="3.8298" width="1.2289" color-interpolation-filters="sRGB" y="-1.4149" x="-.11445">
   <feGaussianBlur id="feGaussianBlur4182-1" stdDeviation="3.5372897"/>
  </filter>
  <radialGradient id="radialGradient4138-7" cx="48" gradientUnits="userSpaceOnUse" cy="84" r="30" gradientTransform="matrix(1.0667 0 0 .066667 -3.2 77.4)">
   <stop id="stop3315-1" style="stop-color:#4dbeff" offset="0"/>
   <stop id="stop4186-5" style="stop-color:#1379ff;stop-opacity:.65041" offset=".67213"/>
   <stop id="stop3317-6" style="stop-color:#06f;stop-opacity:0" offset="1"/>
  </radialGradient>
  <filter id="filter3174-1" color-interpolation-filters="sRGB">
   <feGaussianBlur id="feGaussianBlur3176-512" stdDeviation="1.71"/>
  </filter>
  <filter id="filter4180-5" height="3.8298" width="1.2289" color-interpolation-filters="sRGB" y="-1.4149" x="-.11445">
   <feGaussianBlur id="feGaussianBlur4182-16" stdDeviation="3.5372897"/>
  </filter>
  <filter id="filter3174-10" color-interpolation-filters="sRGB">
   <feGaussianBlur id="feGaussianBlur3176-017" stdDeviation="1.71"/>
  </filter>
  <filter id="filter3174-93" color-interpolation-filters="sRGB">
   <feGaussianBlur id="feGaussianBlur3176-3" stdDeviation="1.71"/>
  </filter>
  <linearGradient id="linearGradient4192">
   <stop id="stop4194" style="stop-color:#fff" offset="0"/>
   <stop id="stop4196" style="stop-color:#fff;stop-opacity:0" offset="1"/>
  </linearGradient>
  <linearGradient id="linearGradient4236">
   <stop id="stop4238" style="stop-color:#ffdf39" offset="0"/>
   <stop id="stop4240" style="stop-color:#eb9c00;stop-opacity:0" offset="1"/>
  </linearGradient>
  <linearGradient id="linearGradient6364" y2="32.988" xlink:href="#linearGradient4192" gradientUnits="userSpaceOnUse" x2="53" gradientTransform="matrix(.5 0 0 .5 .63505 -5.3571)" y1="74" x1="53"/>
  <linearGradient id="linearGradient6366" y2="72" gradientUnits="userSpaceOnUse" x2="48" gradientTransform="matrix(.5 0 0 .5 .63505 -5.3571)" y1="24" x1="48">
   <stop id="stop4178" offset="0"/>
   <stop id="stop4180" style="stop-color:#393939" offset="1"/>
  </linearGradient>
  <linearGradient id="linearGradient6368" y2="24" xlink:href="#linearGradient4192" gradientUnits="userSpaceOnUse" x2="48" gradientTransform="matrix(.5 0 0 .5 .63505 -5.3571)" y1="72" x1="48"/>
  <radialGradient id="radialGradient6370" xlink:href="#linearGradient4192" gradientUnits="userSpaceOnUse" cy="70" cx="48" gradientTransform="matrix(.59375 0 0 .28125 -3.865 8.1429)" r="16"/>
  <linearGradient id="linearGradient6373" y2="61" xlink:href="#linearGradient4236" gradientUnits="userSpaceOnUse" x2="33" gradientTransform="matrix(.25 0 0 .5 9.635 -5.3571)" y1="68" x1="33"/>
  <linearGradient id="linearGradient6375" y2="61" xlink:href="#linearGradient4236" gradientUnits="userSpaceOnUse" x2="33" gradientTransform="matrix(.25 0 0 .5 11.635 -5.3571)" y1="68" x1="33"/>
  <linearGradient id="linearGradient6377" y2="61" xlink:href="#linearGradient4236" gradientUnits="userSpaceOnUse" x2="33" gradientTransform="matrix(.25 0 0 .5 13.635 -5.3571)" y1="68" x1="33"/>
  <linearGradient id="linearGradient6379" y2="61" xlink:href="#linearGradient4236" gradientUnits="userSpaceOnUse" x2="33" gradientTransform="matrix(.25 0 0 .5 15.635 -5.3571)" y1="68" x1="33"/>
  <linearGradient id="linearGradient6382" y2="61" xlink:href="#linearGradient4236" gradientUnits="userSpaceOnUse" x2="33" gradientTransform="matrix(.25 0 0 .5 17.635 -5.3571)" y1="68" x1="33"/>
  <linearGradient id="linearGradient6384" y2="61" xlink:href="#linearGradient4236" gradientUnits="userSpaceOnUse" x2="33" gradientTransform="matrix(.25 0 0 .5 19.635 -5.3571)" y1="68" x1="33"/>
  <linearGradient id="linearGradient6386" y2="61" xlink:href="#linearGradient4236" gradientUnits="userSpaceOnUse" x2="33" gradientTransform="matrix(.25 0 0 .5 21.635 -5.3571)" y1="68" x1="33"/>
  <linearGradient id="linearGradient6388" y2="61" xlink:href="#linearGradient4236" gradientUnits="userSpaceOnUse" x2="33" gradientTransform="matrix(.25 0 0 .5 23.635 -5.3571)" y1="68" x1="33"/>
  <filter id="filter3174-54" color-interpolation-filters="sRGB">
   <feGaussianBlur id="feGaussianBlur3176-53" stdDeviation="1.71"/>
  </filter>
  <linearGradient id="linearGradient5046-8" y2="11.016" gradientUnits="userSpaceOnUse" x2="19" gradientTransform="matrix(0 -3 2.9653 0 -52.445 157.91)" y1="11.016" x1="11">
   <stop id="stop3185-9-3-2" style="stop-color:#c80000" offset="0"/>
   <stop id="stop3187-6-6-0" style="stop-color:#f3604d" offset="1"/>
  </linearGradient>
 </defs>
 <metadata id="metadata4516">
  <rdf:RDF>
   <cc:Work rdf:about="">
    <dc:format>image/svg+xml</dc:format>
    <dc:type rdf:resource="http://purl.org/dc/dcmitype/StillImage"/>
    <dc:title/>
   </cc:Work>
  </rdf:RDF>
 </metadata>
 <g id="layer1">
  <rect id="rect810-9" style="opacity:.52991;stroke:#000;fill:#333" transform="scale(1,-1)" ry="10.607" height="43.689" width="43.689" y="-46.112" x="2.5506"/>
  <rect id="rect810" style="stroke:url(#linearGradient11142);fill:url(#linearGradient10848)" transform="scale(1,-1)" ry="10.607" height="43.689" width="43.689" y="-45.559" x="2.5"/>
  <rect id="rect3745" style="opacity:.9;filter:url(#filter3174);display:none;fill:url(#linearGradient3254)" rx="6" ry="6" height="85" width="86" y="-23.712" x="-170.86"/>
  <rect id="rect3745-1" style="opacity:.9;filter:url(#filter3174-7);display:none;fill:url(#linearGradient8374)" rx="6" ry="6" height="85" width="86" y="-17.643" x="113.29"/>
  <g id="layer2" style="display:none" transform="translate(-111.44 -124.36)">
   <rect id="rect3745-9" style="opacity:.9;filter:url(#filter3174-41);fill:url(#ButtonShadow-6)" rx="6" ry="6" height="85" width="86" y="7" x="5"/>
  </g>
  <g id="layer2-7" style="display:none" transform="translate(-218.05 -238.16)">
   <rect id="rect3745-2" style="opacity:.9;filter:url(#filter3174-57);fill:url(#ButtonShadow-6)" rx="6" ry="6" height="85" width="86" y="7" x="5"/>
  </g>
  <g id="layer2-1" style="display:none" transform="translate(-106.2 -48.076)">
   <path id="rect3745-24" style="opacity:.9;filter:url(#filter3174-76);fill:url(#ButtonShadow-6)" d="m11 7c-3.324 0-6 2.676-6 6v73c0 3.324 2.676 6 6 6h74c3.324 0 6-2.676 6-6v-73c0-3.324-2.676-6-6-6h-5v2.5c1.4703 0.7406 2.5 2.2424 2.5 4 0 2.484-2.016 4.5-4.5 4.5s-4.5-2.016-4.5-4.5c0-1.7576 1.0297-3.2594 2.5-4v-2.5h-8v2.5c1.4703 0.7406 2.5 2.2424 2.5 4 0 2.484-2.016 4.5-4.5 4.5s-4.5-2.016-4.5-4.5c0-1.7576 1.0297-3.2594 2.5-4v-2.5h-8v2.5c1.4703 0.7406 2.5 2.2424 2.5 4 0 2.484-2.016 4.5-4.5 4.5s-4.5-2.016-4.5-4.5c0-1.7576 1.0297-3.2594 2.5-4v-2.5h-8v2.5c1.4703 0.7406 2.5 2.2424 2.5 4 0 2.484-2.016 4.5-4.5 4.5s-4.5-2.016-4.5-4.5c0-1.7576 1.0297-3.2594 2.5-4v-2.5h-8v2.5c1.4703 0.7406 2.5 2.2424 2.5 4 0 2.484-2.016 4.5-4.5 4.5s-4.5-2.016-4.5-4.5c0-1.7576 1.0297-3.2594 2.5-4v-2.5h-8v2.5c1.4703 0.7406 2.5 2.2424 2.5 4 0 2.484-2.016 4.5-4.5 4.5s-4.5-2.016-4.5-4.5c0-1.7576 1.0297-3.2594 2.5-4v-2.5h-5z"/>
  </g>
  <g id="layer2-0" style="display:none" transform="translate(28.835 -121.51)">
   <rect id="rect3745-5" style="opacity:.9;filter:url(#filter3174-3);fill:url(#ButtonShadow-6)" rx="6" ry="6" height="85" width="86" y="7" x="5"/>
  </g>
  <rect id="rect3745-19" style="opacity:.9;filter:url(#filter3174-65);display:none;fill:url(#linearGradient10968)" rx="6" ry="6" height="85" width="86" y="-57.071" x="93.061"/>
  <rect id="rect810-4-0" style="stroke:url(#linearGradient11086);fill:url(#linearGradient11061)" transform="scale(1,-1)" ry="10.607" height="39.403" width="43.796" y="-43.987" x="2.43"/>
  <rect id="rect810-4" style="stroke:url(#linearGradient11134);fill:url(#linearGradient11027)" transform="scale(1,-1)" ry="10.607" height="39.403" width="43.796" y="-41.159" x="2.4769"/>
  <rect id="rect810-4-8" style="stroke:url(#linearGradient11150);fill:url(#linearGradient11109)" transform="scale(1,-1)" ry="10.607" height="36.373" width="44.099" y="-37.62" x="2.4466"/>
  <rect id="rect3745-51" style="opacity:.9;filter:url(#filter3174-34);display:none;fill:url(#linearGradient4603)" rx="6" ry="6" height="85" width="86" y="64.897" x="-20.979"/>
  <g id="layer2-3" style="display:none" transform="translate(-13.859 48.458)">
   <rect id="rect3745-7" style="opacity:.9;filter:url(#filter3174-2);fill:url(#ButtonShadow-6)" rx="6" ry="6" height="85" width="86" y="7" x="5"/>
  </g>
  <g id="g4674" transform="matrix(.25 0 0 .25 15.095 6.9188)">
   <g id="g3318" transform="translate(-13.859 48.458)">
    <path id="path3374" style="fill:url(#linearGradient4702)" transform="matrix(0 1.6709 1.6638 0 -122.04 53.283)" d="m20.179 85.062a2.0893 2.0982 0 1 1 -4.1786 0 2.0893 2.0982 0 1 1 4.1786 0z"/>
    <path id="path3364" style="stroke-opacity:.53182;stroke:#000;stroke-linecap:square;stroke-width:.84050;fill:url(#radialGradient4704)" transform="matrix(1.1923 0 0 1.1872 -2.0769 -17.48)" d="m20.179 85.062a2.0893 2.0982 0 1 1 -4.1786 0 2.0893 2.0982 0 1 1 4.1786 0z"/>
   </g>
   <path id="path4237" style="fill:url(#linearGradient4706)" d="m41.141 136.96c-0.81756 0-1.5-0.68244-1.5-1.5v-6c0-0.81756 0.68244-1.5 1.5-1.5s1.5 0.68244 1.5 1.5v6c0 0.81756-0.68244 1.5-1.5 1.5zm4 0c-0.81756 0-1.5-0.68244-1.5-1.5v-6c0-0.81756 0.68244-1.5 1.5-1.5s1.5 0.68244 1.5 1.5v6c0 0.81756-0.68244 1.5-1.5 1.5zm4 0c-0.81756 0-1.5-0.68244-1.5-1.5v-6c0-0.81756 0.68244-1.5 1.5-1.5s1.5 0.68244 1.5 1.5v6c0 0.81756-0.68244 1.5-1.5 1.5zm4 0c-0.81756 0-1.5-0.68244-1.5-1.5v-6c0-0.81756 0.68244-1.5 1.5-1.5s1.5 0.68244 1.5 1.5v6c0 0.81756-0.68244 1.5-1.5 1.5zm4 0c-0.81756 0-1.5-0.68244-1.5-1.5v-6c0-0.81756 0.68244-1.5 1.5-1.5s1.5 0.68244 1.5 1.5v6c0 0.81756-0.68244 1.5-1.5 1.5zm4 0c-0.81756 0-1.5-0.68244-1.5-1.5v-6c0-0.81756 0.68244-1.5 1.5-1.5s1.5 0.68244 1.5 1.5v6c0 0.81756-0.68244 1.5-1.5 1.5zm4 0c-0.81756 0-1.5-0.68244-1.5-1.5v-6c0-0.81756 0.68244-1.5 1.5-1.5s1.5 0.68244 1.5 1.5v6c0 0.81756-0.68244 1.5-1.5 1.5z"/>
   <path id="rect4210" style="fill:url(#linearGradient4708)" d="m41.141 128.46c-0.554 0-1 0.446-1 1v6c0 0.554 0.446 1 1 1s1-0.446 1-1v-6c0-0.554-0.446-1-1-1zm4 0c-0.554 0-1 0.446-1 1v6c0 0.554 0.446 1 1 1s1-0.446 1-1v-6c0-0.554-0.446-1-1-1zm4 0c-0.554 0-1 0.446-1 1v6c0 0.554 0.446 1 1 1s1-0.446 1-1v-6c0-0.554-0.446-1-1-1zm4 0c-0.554 0-1 0.446-1 1v6c0 0.554 0.446 1 1 1s1-0.446 1-1v-6c0-0.554-0.446-1-1-1zm4 0c-0.554 0-1 0.446-1 1v6c0 0.554 0.446 1 1 1s1-0.446 1-1v-6c0-0.554-0.446-1-1-1zm4 0c-0.554 0-1 0.446-1 1v6c0 0.554 0.446 1 1 1s1-0.446 1-1v-6c0-0.554-0.446-1-1-1zm4 0c-0.554 0-1 0.446-1 1v6c0 0.554 0.446 1 1 1s1-0.446 1-1v-6c0-0.554-0.446-1-1-1z"/>
  </g>
  <g id="layer2-75" style="display:none" transform="translate(-10.286 84.214)">
   <rect id="rect3745-20" style="opacity:.9;filter:url(#filter3174-1);fill:url(#ButtonShadow-6)" rx="6" ry="6" height="85" width="86" y="7" x="5"/>
  </g>
  <g id="layer5-3" style="display:none" transform="translate(-10.286 84.214)">
   <rect id="rect3323" style="opacity:.6;filter:url(#filter4180-8);display:inline;fill:#06f" rx="6.7435" ry="6" height="6" width="74.179" y="80" x="10.911"/>
   <rect id="rect3311" style="fill:url(#radialGradient4138-7);display:inline" rx="5.8182" ry="4" height="4" width="64" y="81" x="16"/>
  </g>
  <g id="layer2-37" style="display:none" transform="translate(22.857 122.64)">
   <rect id="rect3745-6" style="opacity:.9;filter:url(#filter3174-10);fill:url(#ButtonShadow-6)" rx="6" ry="6" height="85" width="86" y="7" x="5"/>
  </g>
  <g id="layer5-2" style="display:none" transform="translate(22.857 122.64)">
   <rect id="rect3323-7" style="opacity:.6;filter:url(#filter4180-5);display:inline;fill:#06f" rx="6.7435" ry="6" height="6" width="74.179" y="80" x="10.911"/>
   <rect id="rect3311-0" style="fill:url(#radialGradient4138-7);display:inline" rx="5.8182" ry="4" height="4" width="64" y="81" x="16"/>
  </g>
  <g id="layer2-17" style="display:none" transform="translate(15.342 112.14)">
   <rect id="rect3745-4" style="opacity:.9;filter:url(#filter3174-93);fill:url(#ButtonShadow-6)" rx="6" ry="6" height="85" width="86" y="7" x="5"/>
  </g>
  <g id="g6347" transform="translate(-.99967)">
   <path id="path4188" style="opacity:.6;color:#000000;fill:url(#linearGradient6364)" d="m20.541 5.6585a0.9922 0.9922 0 0 0 -0.89062 0.98438v1.0156h-1.0156a0.9922 0.9922 0 0 0 -0.98438 0.98438v1.0156h-3.5156c-1.3635 0-2.4844 1.1209-2.4844 2.4844v17c0 1.3635 1.1209 2.4844 2.4844 2.4844h21c1.3635 0 2.4844-1.1209 2.4844-2.4844v-17c0-1.3635-1.1209-2.4844-2.4844-2.4844h-3.5156v-1.0156a0.9922 0.9922 0 0 0 -0.98438 -0.98438h-1.0156v-1.0156a0.9922 0.9922 0 0 0 -0.98438 -0.98438h-8a0.9922 0.9922 0 0 0 -0.09375 0z"/>
   <path id="rect4162" style="color:#000000;fill:url(#linearGradient6366)" d="m20.635 6.6429v2h-2v2h-4.5c-0.831 0-1.5 0.669-1.5 1.5v17c0 0.831 0.669 1.5 1.5 1.5h21c0.831 0 1.5-0.669 1.5-1.5v-17c0-0.831-0.669-1.5-1.5-1.5h-4.5v-2h-2v-2h-8z"/>
   <path id="path4200" style="opacity:.15;color:#000000" d="m20.635 5.6429v1h8v-1h-8zm-2 2v1h2v-1h-2zm10 0v1h2v-1h-2zm-14.5 2c-0.831 0-1.5 0.669-1.5 1.5v1c0-0.831 0.669-1.5 1.5-1.5h4.5v-1h-4.5zm16.5 0v1h4.5c0.831 0 1.5 0.669 1.5 1.5v-1c0-0.831-0.669-1.5-1.5-1.5h-4.5z"/>
   <path id="path4209" style="opacity:.2;color:#000000;fill:url(#linearGradient6368)" d="m20.635 6.6429v2h-2v2h-4.5c-0.831 0-1.5 0.669-1.5 1.5v17c0 0.831 0.669 1.5 1.5 1.5h21c0.831 0 1.5-0.669 1.5-1.5v-17c0-0.831-0.669-1.5-1.5-1.5h-4.5v-2h-2v-2h-8zm0.98438 0.98438h6.0312v1.0156a0.98748 0.98748 0 0 0 0.98438 0.98438h1.0156v1.0156a0.98748 0.98748 0 0 0 0.98438 0.98438h4.5c0.30107 0 0.51562 0.21456 0.51562 0.51562v17c0 0.30107-0.21456 0.51562-0.51562 0.51562h-21c-0.30107 0-0.51562-0.21456-0.51562-0.51562v-17c0-0.30107 0.21456-0.51562 0.51562-0.51562h4.5a0.98748 0.98748 0 0 0 0.98438 -0.98438v-1.0156h1.0156a0.98748 0.98748 0 0 0 0.98438 -0.98438v-1.0156z"/>
   <rect id="rect4224" style="opacity:.2;color:#000000;fill:url(#radialGradient6370)" height="9" width="19" y="21.643" x="15.135"/>
   <rect id="rect4234" style="color:#000000;fill:url(#linearGradient6373)" height="3.5" width=".5" y="25.143" x="17.635"/>
   <path id="path4276" style="opacity:.3;color:#000000" d="m20.635 6.1429v0.5h8v-0.5h-8zm-2 2v0.5h2v-0.5h-2zm10 0v0.5h2v-0.5h-2zm-14.5 2c-0.831 0-1.5 0.669-1.5 1.5v0.5c0-0.831 0.669-1.5 1.5-1.5h4.5v-0.5h-4.5zm16.5 0v0.5h4.5c0.831 0 1.5 0.669 1.5 1.5v-0.5c0-0.831-0.669-1.5-1.5-1.5h-4.5z"/>
   <rect id="rect4314" style="color:#000000;fill:url(#linearGradient6375)" height="3.5" width=".5" y="25.143" x="19.635"/>
   <rect id="rect4318" style="color:#000000;fill:url(#linearGradient6377)" height="3.5" width=".5" y="25.143" x="21.635"/>
   <rect id="rect4322" style="color:#000000;fill:url(#linearGradient6379)" height="3.5" width=".5" y="25.143" x="23.635"/>
   <rect id="rect4326" style="color:#000000;fill:url(#linearGradient6382)" height="3.5" width=".5" y="25.143" x="25.635"/>
   <rect id="rect4330" style="color:#000000;fill:url(#linearGradient6384)" height="3.5" width=".5" y="25.143" x="27.635"/>
   <rect id="rect4334" style="color:#000000;fill:url(#linearGradient6386)" height="3.5" width=".5" y="25.143" x="29.635"/>
   <rect id="rect4338" style="color:#000000;fill:url(#linearGradient6388)" height="3.5" width=".5" y="25.143" x="31.635"/>
  </g>
  <g id="layer2-2" style="display:none" transform="translate(-91.781 40.907)">
   <rect id="rect3745-55" style="opacity:.9;filter:url(#filter3174-54);fill:url(#ButtonShadow-6)" rx="6" ry="6" height="85" width="86" y="7" x="5"/>
  </g>
  <g id="g5114" transform="matrix(.5 0 0 .5 45.681 -27.734)">
   <path id="path3761" style="opacity:.1;fill-rule:evenodd" d="m-25.937 99.938c0.000723-0.000084-0.09447 0.03137-0.09375 0.03125 0.000718-0.00012-0.09446 0.000155-0.09375 0 0.000711-0.000155-0.09445 0.03144-0.09375 0.03125 0.001-0.00026-0.126 0.0316-0.125 0.0313 0.001-0.00033-0.12598 0.0629-0.125 0.0625 0.000978-0.00041-0.1572 0.063-0.15625 0.0625 0.000946-0.00048-0.12591 0.0631-0.125 0.0625 0.000908-0.00054-0.09462 0.0944-0.09375 0.0937 0.000866-0.00061-0.12582 0.0632-0.125 0.0625 0.00082-0.00067-0.09452 0.0945-0.09375 0.0937 0.000577-0.00055-0.06575 0.0652-0.09375 0.0937-0.0093 0.01-0.03143 0.0315-0.03125 0.0313l-6 6.0625c0.000953-0.001-0.12585 0.15734-0.125 0.15625 0.000853-0.001-0.0945 0.12617-0.09375 0.125 0.000746-0.001-0.09438 0.15748-0.09375 0.15625 0.000632-0.001-0.09426 0.18879-0.09375 0.1875 0.000513-0.001-0.06289 0.15758-0.0625 0.15625 0.000389-0.001-0.03151 0.18886-0.03125 0.1875 0.000261-0.001-0.03138 0.18888-0.03125 0.1875 0.000131-0.001 0 0.18888 0 0.1875 0-0.001 0.000131 0.18888 0 0.1875-0.000131-0.001 0.03151 0.18886 0.03125 0.1875-0.000261-0.001 0.03164 0.18883 0.03125 0.1875-0.000389-0.001 0.06301 0.15754 0.0625 0.15625-0.000513-0.001 0.09438 0.18873 0.09375 0.1875-0.000632-0.001 0.0945 0.15742 0.09375 0.15625-0.000746-0.001 0.0946 0.12609 0.09375 0.125-0.000853-0.001 0.12595 0.15725 0.125 0.15625l4.5 4.5625-4.5 4.5625c0.000953-0.001-0.12585 0.15734-0.125 0.15625 0.000853-0.001-0.0945 0.12617-0.09375 0.125 0.000746-0.001-0.09438 0.15748-0.09375 0.15625 0.000632-0.001-0.09426 0.18879-0.09375 0.1875 0.000513-0.001-0.06289 0.15758-0.0625 0.15625 0.000389-0.001-0.03151 0.18886-0.03125 0.1875 0.000261-0.001-0.03138 0.18888-0.03125 0.1875 0.000131-0.001 0 0.18888 0 0.1875 0-0.001 0.000131 0.18888 0 0.1875-0.000131-0.001 0.03151 0.18886 0.03125 0.1875-0.000261-0.001 0.03164 0.18883 0.03125 0.1875-0.000389-0.001 0.06301 0.15754 0.0625 0.15625-0.000513-0.001 0.09438 0.18873 0.09375 0.1875-0.000632-0.001 0.0945 0.15742 0.09375 0.15625-0.000746-0.001 0.0946 0.12609 0.09375 0.125-0.000853-0.001 0.12595 0.15725 0.125 0.15625l6.0312 6.0938c-0.000987-0.001 0.12608 0.12593 0.125 0.125-0.0011-0.00093 0.15742 0.12582 0.15625 0.125-0.0012-0.00082 0.15749 0.0944 0.15625 0.0937-0.0012-0.0007 0.1888 0.0943 0.1875 0.0937-0.0013-0.00057 0.18885 0.0629 0.1875 0.0625-0.0014-0.00044 0.15764 0.0628 0.15625 0.0625-0.0014-0.00031 0.18892 0.0314 0.1875 0.0313-0.0014-0.00017 0.22018 0.00003 0.21875 0-0.0014-0.00003 0.18892-0.00011 0.1875 0-0.0014 0.00011 0.1889-0.0315 0.1875-0.0313-0.0014 0.00025 0.18887-0.0316 0.1875-0.0313-0.0014 0.00038 0.15758-0.063 0.15625-0.0625-0.0013 0.00051 0.18877-0.0631 0.1875-0.0625-0.0013 0.00064 0.15746-0.0945 0.15625-0.0937-0.0012 0.00076 0.15737-0.12588 0.15625-0.125-0.0011 0.00088 0.15728-0.12598 0.15625-0.125l4.5938-4.5625 4.4062 4.5c-0.000508-0.00053 0.06303 0.063 0.0625 0.0625-0.000534-0.0005 0.09431 0.063 0.09375 0.0625-0.000559-0.00048 0.06308 0.063 0.0625 0.0625-0.000582-0.00045 0.09435 0.0629 0.09375 0.0625-0.000604-0.00042 0.06312 0.0629 0.0625 0.0625-0.000624-0.00039 0.09439 0.0628 0.09375 0.0625-0.000643-0.00035 0.09441 0.0316 0.09375 0.0313-0.00066-0.00032 0.09443 0.0315 0.09375 0.0313-0.000675-0.00029 0.06319 0.0315 0.0625 0.0313-0.000689-0.00025 0.09445 0.0315 0.09375 0.0313-0.0007-0.00022 0.09446 0.0314 0.09375 0.0313-0.000711-0.00018 0.12572 0.0314 0.125 0.0313-0.000719-0.00015 0.09448 0.0314 0.09375 0.0313-0.000725-0.00011 0.09448 0.00007 0.09375 0s0.09448 0.00004 0.09375 0c-0.000733-0.00004 0.09448 0 0.09375 0-0.000734 0 0.09448-0.00004 0.09375 0-0.000733 0.00004 0.09448-0.00007 0.09375 0s0.09448-0.00011 0.09375 0c-0.000725 0.00011 0.09447-0.0314 0.09375-0.0313-0.000719 0.00015 0.12571-0.0314 0.125-0.0313-0.000711 0.00018 0.09445-0.0315 0.09375-0.0313-0.0007 0.00022 0.09444-0.0315 0.09375-0.0313-0.000689 0.00025 0.06318-0.0315 0.0625-0.0313-0.000675 0.00029 0.09441-0.0316 0.09375-0.0313-0.00066 0.00032 0.09439-0.0316 0.09375-0.0313-0.000643 0.00035 0.09437-0.0629 0.09375-0.0625-0.000624 0.00039 0.0631-0.0629 0.0625-0.0625-0.000604 0.00042 0.09433-0.063 0.09375-0.0625-0.000582 0.00045 0.06306-0.063 0.0625-0.0625-0.000559 0.00048 0.09428-0.063 0.09375-0.0625-0.000534 0.0005 0.06301-0.063 0.0625-0.0625l6.2188-6.2812c-0.000982 0.001 0.12588-0.15737 0.125-0.15625-0.000876 0.001 0.12576-0.15745 0.125-0.15625-0.000762 0.001 0.09439-0.15752 0.09375-0.15625-0.000641 0.001 0.06301-0.18883 0.0625-0.1875-0.000513 0.001 0.06288-0.15762 0.0625-0.15625-0.000381 0.001 0.0315-0.1889 0.03125-0.1875-0.000245 0.001 0.03136-0.18892 0.03125-0.1875-0.000106 0.001-0.000033-0.18892 0-0.1875 0.000033 0.001-0.000172-0.22016 0-0.21875 0.000172 0.001-0.03156-0.18889-0.03125-0.1875 0.00031 0.001-0.06294-0.1576-0.0625-0.15625 0.000444 0.001-0.06307-0.1888-0.0625-0.1875 0.000574 0.001-0.09445-0.18874-0.09375-0.1875 0.000699 0.001-0.09457-0.15742-0.09375-0.15625 0.000817 0.001-0.12593-0.15733-0.125-0.15625 0.000927 0.001-0.12603-0.12599-0.125-0.125l-4.4062-4.3125 4.4062-4.3125c-0.001 0.00099 0.12593-0.12608 0.125-0.125-0.000927 0.001 0.12582-0.15742 0.125-0.15625-0.000817 0.001 0.09445-0.15749 0.09375-0.15625-0.000699 0.001 0.09432-0.1888 0.09375-0.1875-0.000574 0.001 0.06294-0.18885 0.0625-0.1875-0.000444 0.001 0.06281-0.15764 0.0625-0.15625-0.00031 0.001 0.03142-0.18891 0.03125-0.1875-0.000172 0.001 0.000033-0.22017 0-0.21875-0.000033 0.001-0.000106-0.18892 0-0.1875 0.000106 0.001-0.0315-0.1889-0.03125-0.1875 0.000245 0.001-0.03163-0.18887-0.03125-0.1875 0.000381 0.001-0.06301-0.15758-0.0625-0.15625 0.000513 0.001-0.06314-0.18877-0.0625-0.1875 0.000641 0.001-0.09451-0.15745-0.09375-0.15625 0.000762 0.001-0.12588-0.15737-0.125-0.15625 0.000876 0.001-0.12598-0.15728-0.125-0.15625l-6.2188-6.2812c0.000508 0.00053-0.06303-0.063-0.0625-0.0625 0.000534 0.0005-0.09431-0.063-0.09375-0.0625 0.000559 0.00048-0.06308-0.063-0.0625-0.0625 0.000582 0.00045-0.09435-0.0629-0.09375-0.0625 0.000604 0.00042-0.06312-0.0629-0.0625-0.0625 0.000624 0.00039-0.09439-0.0628-0.09375-0.0625 0.000643 0.00035-0.09441-0.0316-0.09375-0.0313 0.00066 0.00032-0.09443-0.0315-0.09375-0.0313 0.000675 0.00029-0.06319-0.0315-0.0625-0.0313 0.000689 0.00025-0.09445-0.0315-0.09375-0.0313 0.0007 0.00022-0.09446-0.0314-0.09375-0.0313 0.000711 0.00018-0.12572-0.0314-0.125-0.0313 0.000719 0.00015-0.09448-0.03136-0.09375-0.03125 0.000725 0.00011-0.09448-0.000074-0.09375 0s-0.09448-0.000037-0.09375 0c0.000733 0.000037-0.09448 0-0.09375 0 0.000734 0-0.09448 0.000037-0.09375 0 0.000733-0.000037-0.09448 0.000074-0.09375 0s-0.09448 0.00011-0.09375 0c0.000725-0.00011-0.09447 0.0314-0.09375 0.03125 0.000719-0.00015-0.12571 0.0314-0.125 0.0313 0.000711-0.00018-0.09445 0.0315-0.09375 0.0313 0.0007-0.00022-0.09444 0.0315-0.09375 0.0313 0.000689-0.00025-0.06318 0.0315-0.0625 0.0313 0.000675-0.00029-0.09441 0.0316-0.09375 0.0313 0.00066-0.00032-0.09439 0.0316-0.09375 0.0313 0.000643-0.00035-0.09437 0.0629-0.09375 0.0625 0.000624-0.00039-0.0631 0.0629-0.0625 0.0625 0.000604-0.00042-0.09433 0.063-0.09375 0.0625 0.000582-0.00045-0.06306 0.063-0.0625 0.0625 0.000559-0.00048-0.09428 0.063-0.09375 0.0625 0.000534-0.0005-0.06301 0.063-0.0625 0.0625l-4.4062 4.5-4.5625-4.5312c0.000171 0.00017-0.02075-0.0212-0.03125-0.0313-0.021-0.0201-0.06286-0.0628-0.0625-0.0625 0.000539 0.00049-0.06306-0.063-0.0625-0.0625 0.000563 0.00046-0.06309-0.0629-0.0625-0.0625 0.000585 0.00044-0.09436-0.0317-0.09375-0.0313 0.000606 0.00041-0.09438-0.0629-0.09375-0.0625 0.000626 0.00037-0.06314-0.0628-0.0625-0.0625 0.000644 0.00034-0.09441-0.0316-0.09375-0.0313 0.00066 0.00031-0.09443-0.0315-0.09375-0.0313 0.000675 0.00028-0.09444-0.0315-0.09375-0.0313 0.000688 0.00024-0.09445-0.0315-0.09375-0.0313 0.000699 0.00021-0.09446-0.0314-0.09375-0.0313 0.000708 0.00017-0.09447-0.03139-0.09375-0.03125 0.000716 0.000136-0.09447-0.0001-0.09375 0 0.000722 0.0001-0.09448-0.03131-0.09375-0.03125 0.000726 0.000064-0.09448-0.000028-0.09375 0 0.000728 0.000028-0.09448 0.000009-0.09375 0a0.99658 0.99658 0 0 0 -0.0625 0c0.000726-0.000047-0.09447 0.000084-0.09375 0z"/>
   <path id="path3757" style="opacity:.15;fill-rule:evenodd" d="m-25.968 100.97a0.95278 0.95278 0 0 0 -0.46875 0.28125l-6.0312 6.0938a0.95278 0.95278 0 0 0 0 1.3125l5.1875 5.25-5.1875 5.25a0.95278 0.95278 0 0 0 0 1.3125l6.0312 6.0938a0.95278 0.95278 0 0 0 1.3438 0.0313l5.2812-5.25 5.125 5.2188a0.95278 0.95278 0 0 0 1.375 0l6.2188-6.2812a0.95278 0.95278 0 0 0 -0.03125 -1.3438l-5.1562-5.0312 5.1562-5.0312a0.95278 0.95278 0 0 0 0.03125 -1.3438l-6.2188-6.2812a0.95278 0.95278 0 0 0 -1.375 0l-5.125 5.2188-5.2812-5.25a0.95278 0.95278 0 0 0 -0.875 -0.25z"/>
   <path id="path3751" style="opacity:.3;fill-rule:evenodd" d="m-31.781 119.81 6.0232 6.0938 5.9305-5.9062 5.8378 5.9062 6.2085-6.2812-5.8378-5.7188 5.8378-5.7188-6.2085-6.2812-5.8378 5.9062-5.9305-5.9062-6.0232 6.0938 5.8378 5.9062-5.8378 5.9062z"/>
   <path id="path7165" style="fill:url(#linearGradient5046-8);fill-rule:evenodd" d="m-31.781 118.81 6.0232 6.0938 5.9305-5.9062 5.8378 5.9062 6.2085-6.2812-5.8378-5.7188 5.8378-5.7188-6.2085-6.2812-5.8378 5.9062-5.9305-5.9062-6.0232 6.0938 5.8378 5.9062-5.8378 5.9062z"/>
   <path id="path2970" style="opacity:.2;fill:#fff;fill-rule:evenodd" d="m-25.749 100.91-6.0312 6.0938 1 1 5.0312-5.0938 5.9375 5.9062 5.8125-5.9062 5.2188 5.25 1-0.96875-6.2188-6.2812-5.8125 5.9062-5.9375-5.9062zm-0.19483 11.976-5.8364 5.9304 1 1 4.8438-4.9062-0.0073-2.0242zm12.343 0.0473-0.02282 1.9769 4.8438 4.75 1-1.0312-5.8209-5.6957z"/>
  </g>
 </g>
</svg>
