<?xml version="1.0" encoding="UTF-8" standalone="no"?>
<!-- Created with Inkscape (http://www.inkscape.org/) -->

<svg
   xmlns:dc="http://purl.org/dc/elements/1.1/"
   xmlns:cc="http://creativecommons.org/ns#"
   xmlns:rdf="http://www.w3.org/1999/02/22-rdf-syntax-ns#"
   xmlns:svg="http://www.w3.org/2000/svg"
   xmlns="http://www.w3.org/2000/svg"
   xmlns:sodipodi="http://sodipodi.sourceforge.net/DTD/sodipodi-0.dtd"
   xmlns:inkscape="http://www.inkscape.org/namespaces/inkscape"
   id="svg5453"
   height="64"
   width="64"
   version="1.1"
   inkscape:version="0.48.4 r9939"
   sodipodi:docname="folder-pictures.svg">
  <sodipodi:namedview
     pagecolor="#ffffff"
     bordercolor="#666666"
     borderopacity="1"
     objecttolerance="10"
     gridtolerance="10"
     guidetolerance="10"
     inkscape:pageopacity="0"
     inkscape:pageshadow="2"
     inkscape:window-width="1360"
     inkscape:window-height="707"
     id="namedview44"
     showgrid="false"
     inkscape:zoom="5.2149125"
     inkscape:cx="102.4969"
     inkscape:cy="32.17643"
     inkscape:window-x="-2"
     inkscape:window-y="33"
     inkscape:window-maximized="1"
     inkscape:current-layer="svg5453" />
  <defs
     id="defs5455">
    <radialGradient
       id="radialGradient10754"
       gradientUnits="userSpaceOnUse"
       cy="45.647"
       cx="42.148"
       gradientTransform="matrix(.61708 -.029284 .027419 .57778 378.91 469.39)"
       r="58.984">
      <stop
         id="stop10770"
         style="stop-color:#89b6e1"
         offset="0" />
      <stop
         id="stop10772"
         style="stop-color:#649ad6"
         offset="1" />
    </radialGradient>
    <linearGradient
       id="linearGradient10757"
       y2="-9.1034"
       gradientUnits="userSpaceOnUse"
       x2="66.492"
       gradientTransform="matrix(.49210 0 0 .49742 385.17 -483.22)"
       y1="-42.638"
       x1="67.952">
      <stop
         id="stop4620"
         style="stop-color:#37414b"
         offset="0" />
      <stop
         id="stop4622"
         style="stop-color:#37414b;stop-opacity:0"
         offset="1" />
    </linearGradient>
    <linearGradient
       id="linearGradient10759"
       y2="-11.847"
       gradientUnits="userSpaceOnUse"
       x2="58.98"
       gradientTransform="matrix(.49210 0 0 .49742 385.17 -483.22)"
       y1="-118.55"
       x1="57.173">
      <stop
         id="stop4596"
         offset="0" />
      <stop
         id="stop4598"
         style="stop-opacity:0"
         offset="1" />
    </linearGradient>
    <linearGradient
       id="linearGradient10762"
       y2="50.369"
       gradientUnits="userSpaceOnUse"
       x2="76.558"
       gradientTransform="matrix(.49210 0 0 .49742 385.71 -548.91)"
       y1="13.164"
       x1="76.558">
      <stop
         id="stop3392"
         style="stop-color:#425e7b"
         offset="0" />
      <stop
         id="stop3394"
         style="stop-color:#7a91a7"
         offset="1" />
    </linearGradient>
    <linearGradient
       id="linearGradient10764"
       y2="-8.7399"
       gradientUnits="userSpaceOnUse"
       x2="60.217"
       gradientTransform="matrix(.49210 0 0 .49742 385.17 -483.22)"
       y1="-123.72"
       x1="60.395">
      <stop
         id="stop3392-4-8"
         style="stop-color:#425e7b"
         offset="0" />
      <stop
         id="stop3394-8-0"
         style="stop-color:#7a91a7"
         offset="1" />
    </linearGradient>
    <linearGradient
       id="linearGradient10784"
       y2="499.8"
       gradientUnits="userSpaceOnUse"
       x2="414.57"
       gradientTransform="matrix(1 0 0 .73190 0 134)"
       y1="541.8"
       x1="414.57">
      <stop
         id="stop4174-8"
         style="stop-color:#6298d5"
         offset="0" />
      <stop
         id="stop4176-2"
         style="stop-color:#8ab7e1"
         offset="1" />
    </linearGradient>
    <linearGradient
       id="linearGradient10787"
       y2="497.8"
       gradientUnits="userSpaceOnUse"
       x2="404.57"
       gradientTransform="matrix(.82366 0 0 1 79.52 -2.625)"
       y1="477.8"
       x1="384.57">
      <stop
         id="stop4235"
         style="stop-color:#345671"
         offset="0" />
      <stop
         id="stop4237"
         style="stop-color:#345671;stop-opacity:0"
         offset="1" />
    </linearGradient>
    <linearGradient
       id="linearGradient10790"
       y2="505.8"
       gradientUnits="userSpaceOnUse"
       x2="414.57"
       gradientTransform="matrix(1 0 0 .99954 0 -15.757)"
       y1="523.8"
       x1="414.57">
      <stop
         id="stop4234-5"
         style="stop-color:#3d6584"
         offset="0" />
      <stop
         id="stop4236-4"
         style="stop-color:#4a7ba3"
         offset="1" />
    </linearGradient>
  </defs>
  <metadata
     id="metadata5458">
    <rdf:RDF>
      <cc:Work
         rdf:about="">
        <dc:format>image/svg+xml</dc:format>
        <dc:type
           rdf:resource="http://purl.org/dc/dcmitype/StillImage" />
        <dc:title></dc:title>
      </cc:Work>
    </rdf:RDF>
  </metadata>
  <g
     id="layer1"
     transform="translate(-384.57 -483.8)">
    <rect
       id="rect892"
       style="stroke:url(#linearGradient10764);stroke-width:.49475;fill:url(#linearGradient10762)"
       transform="scale(1,-1)"
       ry="14.878"
       height="58.676"
       width="58.048"
       y="-545.39"
       x="387.64" />
    <rect
       id="rect892-2"
       style="stroke:url(#linearGradient10759);stroke-width:.49475;fill:url(#linearGradient10757)"
       transform="scale(1,-1)"
       ry="14.724"
       height="58.07"
       width="58.048"
       y="-544.99"
       x="387.65" />
    <path
       id="rect895"
       style="fill:url(#radialGradient10754)"
       d="m400.86 486.99c-4.0503-1.2438-13.729 7.7065-13.038 11.7-0.0255 0.49454-0.0451 0.99781-0.0451 1.5018v26.621c0 10.602 5.4442 17.195 11.343 17.195h34.071c6.4231 0 12.359-5.7106 12.359-13.133v-32.511c0.35356-5.551-10.819-12.524-13.178-11.488-24.317 0.43952-9.1565 0.11361-31.511 0.11361z" />
    <path
       id="rect4180-7"
       style="fill:url(#linearGradient10790)"
       d="m399.57 486.8c-11.787 4.2518-11.933 10.12-12 16l0.99999 14c0.0394 0.55233 0.446 1 1 1h54c0.55399 0 1-0.44626 1-1 0.40329-1.1593-1-17 1-17v-2c-0.58693-1.4928-1.2465-2.8404-2-4-3-4-7.313-5.9978-12-7h-17z" />
    <path
       id="path4230"
       style="fill:url(#linearGradient10787);fill-rule:evenodd"
       d="m399.57 487.17 21.415 26 0.82366 1 23.886-16.743-3.125-4.6318-19.938-1.625-2.471-4z" />
    <path
       id="rect4113-1"
       style="fill:url(#linearGradient10784)"
       d="m406.57 499.8-3 2.9286h-16v0.73214h0.002c-0.00005 0.003-0.002 0.006-0.002 0.009v26.349 0.73214h1 56 1v-0.73214-26.349-0.009-3.6607h-39z" />
    <path
       id="path4151"
       style="fill:#2f6db0"
       d="m387.45 530.67v1h1 56 1v-1h-1-56-1z" />
    <path
       id="path4224"
       style="fill-opacity:.23529;fill:#fff;fill-rule:evenodd"
       d="m387.57 503.8v1h17l2-5-3 4z" />
    <path
       id="path4228"
       style="fill:#345671;fill-rule:evenodd"
       d="m387.57 502.7v1.1h16l3-4-5 2.9z" />
    <rect
       id="rect892-2-7-8"
       style="opacity:.15891;stroke:#000;stroke-width:2.4612;fill:none"
       transform="scale(1,-1)"
       ry="14.724"
       height="58.07"
       width="58.048"
       y="-544.83"
       x="387.55" />
    <rect
       id="rect892-2-7-2-9"
       ry="14.254"
       style="stroke:#000;stroke-width:.53286;fill:none"
       transform="scale(1,-1)"
       height="57.239"
       width="58.008"
       y="-544.4"
       x="387.65" />
    <rect
       id="rect892-2-7-1"
       style="opacity:.15891;stroke:#000;stroke-width:3.9379;fill:none"
       transform="scale(1,-1)"
       ry="14.724"
       height="58.07"
       width="58.048"
       y="-544.83"
       x="387.55" />
    <path
       id="path1187"
       style="fill:#fff;fill-opacity:.057143"
       d="m400.84 486.97c-12.048 0-13.227 0.34219-13.178 13.354-0.022 0.36343-0.039 0.73329-0.039 1.1037v16.637c9.4888-19.461 19.486-26.153 45.93-31.07-0.11421-0.0133-0.23371-0.0156-0.35102-0.0156-21.13 0.19676-13.037-0.01-32.362-0.01z" />
  </g>
  <path
     style="opacity:0.9;color:#000000;fill:#387ecc;fill-opacity:1;fill-rule:nonzero;stroke:none;stroke-width:1;marker:none;visibility:visible;display:inline;overflow:visible;enable-background:accumulate"
     d="m 30.16188,44.901486 c -0.18486,-0.08 -0.37689,-0.2553 -0.47645,-0.43497 -0.0655,-0.11826 -0.0752,-0.4555 -0.095,-3.29659 l -0.022,-3.16485 -0.11792,-0.17796 c -0.0649,-0.0979 -0.19342,-0.22485 -0.28571,-0.28217 l -0.1678,-0.1042 -3.16682,-0.022 c -3.00449,-0.0208 -3.17348,-0.0262 -3.2967,-0.10461 -0.20967,-0.13343 -0.33069,-0.25782 -0.41988,-0.43155 -0.0781,-0.1522 -0.0836,-0.27948 -0.0836,-1.93447 l 0,-1.77155 0.12654,-0.19932 c 0.0696,-0.10963 0.20311,-0.24688 0.2967,-0.305 l 0.17017,-0.10567 3.19007,-0.022 3.19007,-0.022 0.17814,-0.1178 c 0.098,-0.0648 0.22509,-0.19323 0.28246,-0.28543 l 0.10431,-0.16762 0.022,-3.1616 c 0.0121,-1.73887 0.0397,-3.20111 0.0615,-3.24941 0.0849,-0.18902 0.25964,-0.37849 0.4356,-0.47245 0.18205,-0.0972 0.20542,-0.0984 1.94251,-0.0984 1.73709,0 1.76046,0.001 1.94251,0.0984 0.17597,0.094 0.35066,0.28343 0.43561,0.47245 0.0217,0.0483 0.0494,1.512 0.0614,3.25266 l 0.022,3.16485 0.11792,0.17796 c 0.0649,0.0979 0.19343,0.22486 0.28571,0.28218 l 0.1678,0.10421 3.18681,0.022 3.18681,0.022 0.17017,0.10567 c 0.0936,0.0581 0.22711,0.19537 0.2967,0.305 l 0.12654,0.19932 0,1.77155 c 0,1.65499 -0.005,1.78227 -0.0836,1.93447 -0.0892,0.17373 -0.21021,0.29812 -0.41988,0.43155 -0.12322,0.0784 -0.29221,0.0838 -3.2967,0.10461 l -3.16682,0.022 -0.1678,0.1042 c -0.0923,0.0573 -0.22085,0.18429 -0.28571,0.28217 l -0.11792,0.17796 -0.022,3.16485 c -0.0241,3.47751 -0.008,3.27607 -0.29278,3.54675 -0.26446,0.25094 -0.29876,0.25497 -2.15636,0.2531 -1.42361,-0.001 -1.73007,-0.0127 -1.85855,-0.0683 z"
     id="path3085"
     inkscape:connector-curvature="0" />
</svg>
