<?xml version="1.0" encoding="UTF-8" standalone="no"?>
<!-- Created with Inkscape (http://www.inkscape.org/) -->
<svg id="svg5453" xmlns:rdf="http://www.w3.org/1999/02/22-rdf-syntax-ns#" xmlns="http://www.w3.org/2000/svg" height="64" width="64" version="1.1" xmlns:cc="http://creativecommons.org/ns#" xmlns:xlink="http://www.w3.org/1999/xlink" xmlns:dc="http://purl.org/dc/elements/1.1/">
 <defs id="defs5455">
  <linearGradient id="linearGradient10385" y2="50.369" gradientUnits="userSpaceOnUse" x2="76.558" gradientTransform="matrix(.49210 0 0 .49742 385.71 -548.91)" y1="13.164" x1="76.558">
   <stop id="stop3392" style="stop-color:#425e7b" offset="0"/>
   <stop id="stop3394" style="stop-color:#7a91a7" offset="1"/>
  </linearGradient>
  <linearGradient id="linearGradient10387" y2="-8.7399" gradientUnits="userSpaceOnUse" x2="60.217" gradientTransform="matrix(.49210 0 0 .49742 385.17 -483.22)" y1="-123.72" x1="60.395">
   <stop id="stop3392-4-8" style="stop-color:#425e7b" offset="0"/>
   <stop id="stop3394-8-0" style="stop-color:#7a91a7" offset="1"/>
  </linearGradient>
  <linearGradient id="linearGradient10389" y2="-9.1034" gradientUnits="userSpaceOnUse" x2="66.492" gradientTransform="matrix(.49210 0 0 .49742 385.17 -483.22)" y1="-42.638" x1="67.952">
   <stop id="stop4620" style="stop-color:#37414b" offset="0"/>
   <stop id="stop4622" style="stop-color:#37414b;stop-opacity:0" offset="1"/>
  </linearGradient>
  <linearGradient id="linearGradient10391" y2="-11.847" gradientUnits="userSpaceOnUse" x2="58.98" gradientTransform="matrix(.49210 0 0 .49742 385.17 -483.22)" y1="-118.55" x1="57.173">
   <stop id="stop4596" offset="0"/>
   <stop id="stop4598" style="stop-opacity:0" offset="1"/>
  </linearGradient>
  <radialGradient id="radialGradient10393" gradientUnits="userSpaceOnUse" cy="45.647" cx="42.148" gradientTransform="matrix(.61708 -.029284 .027419 .57778 378.91 469.39)" r="58.984">
   <stop id="stop10770" style="stop-color:#89b6e1" offset="0"/>
   <stop id="stop10772" style="stop-color:#649ad6" offset="1"/>
  </radialGradient>
  <linearGradient id="linearGradient10395" y2="497.8" gradientUnits="userSpaceOnUse" x2="404.57" gradientTransform="matrix(.82366 0 0 1 79.52 -2.625)" y1="477.8" x1="384.57">
   <stop id="stop4235" style="stop-color:#2f75dc" offset="0"/>
   <stop id="stop4237" style="stop-color:#6084d1;stop-opacity:0" offset="1"/>
  </linearGradient>
  <linearGradient id="linearGradient6422-1-5" y2="7.0165" gradientUnits="userSpaceOnUse" y1="92.54" gradientTransform="matrix(1.0059 0 0 .99417 158.64 4.6017)" x2="45.448" x1="45.448">
   <stop id="stop3750-15-2" offset="0"/>
   <stop id="stop3752-80-7" style="stop-opacity:.58824" offset="1"/>
  </linearGradient>
  <filter id="filter3174-04-1" color-interpolation-filters="sRGB">
   <feGaussianBlur id="feGaussianBlur3176-50-1" stdDeviation="1.71"/>
  </filter>
  <linearGradient id="linearGradient7720-9-1" y2="7.0165" gradientUnits="userSpaceOnUse" y1="92.54" gradientTransform="matrix(1.0059 0 0 .99417 75.661 -1.5)" x2="45.448" x1="45.448">
   <stop id="stop3750-4-2-3" offset="0"/>
   <stop id="stop3752-6-20-3" style="stop-opacity:.58824" offset="1"/>
  </linearGradient>
  <filter id="filter3174-3-8-9" color-interpolation-filters="sRGB">
   <feGaussianBlur id="feGaussianBlur3176-3-4-7" stdDeviation="1.71"/>
  </filter>
  <linearGradient id="linearGradient16955-2-8" y2="7.0165" gradientUnits="userSpaceOnUse" y1="92.54" gradientTransform="matrix(1.0059 0 0 .99417 -207.46 -7.6017)" x2="45.448" x1="45.448">
   <stop id="stop3750-5-85-2" offset="0"/>
   <stop id="stop3752-25-5-0" style="stop-opacity:.58824" offset="1"/>
  </linearGradient>
  <filter id="filter3174-7-18-4" color-interpolation-filters="sRGB">
   <feGaussianBlur id="feGaussianBlur3176-34-51-5" stdDeviation="1.71"/>
  </filter>
  <linearGradient id="linearGradient3904-0-3" y2="7.0165" gradientUnits="userSpaceOnUse" y1="92.54" gradientTransform="matrix(1.0059 0 0 .99417 -156.15 .80109)" x2="45.448" x1="45.448">
   <stop id="stop3750-84-0-3" offset="0"/>
   <stop id="stop3752-3-81-4" style="stop-opacity:.58824" offset="1"/>
  </linearGradient>
  <filter id="filter3174-5-80-8" color-interpolation-filters="sRGB">
   <feGaussianBlur id="feGaussianBlur3176-94-4-6" stdDeviation="1.71"/>
  </filter>
  <linearGradient id="linearGradient4326-0-4" y2="7.0165" gradientUnits="userSpaceOnUse" y1="92.54" gradientTransform="matrix(1.0059 0 0 .99417 -18.086 54.302)" x2="45.448" x1="45.448">
   <stop id="stop3750-77-40-9" offset="0"/>
   <stop id="stop3752-4-7-4" style="stop-opacity:.58824" offset="1"/>
  </linearGradient>
  <filter id="filter3174-16-6-3" color-interpolation-filters="sRGB">
   <feGaussianBlur id="feGaussianBlur3176-5-24-5" stdDeviation="1.71"/>
  </filter>
  <linearGradient id="ButtonShadow-72-11-3" y2="7.0165" gradientUnits="userSpaceOnUse" x2="45.448" gradientTransform="scale(1.0059 .99417)" y1="92.54" x1="45.448">
   <stop id="stop3750-3-8-8" offset="0"/>
   <stop id="stop3752-64-3-4" style="stop-opacity:.58824" offset="1"/>
  </linearGradient>
  <filter id="filter3174-39-6-5" color-interpolation-filters="sRGB">
   <feGaussianBlur id="feGaussianBlur3176-09-52-7" stdDeviation="1.71"/>
  </filter>
  <linearGradient id="linearGradient18633-17-7" y2="7.0165" gradientUnits="userSpaceOnUse" y1="92.54" gradientTransform="matrix(1.0059 0 0 .99417 88.5 -29.623)" x2="45.448" x1="45.448">
   <stop id="stop3750-844-4-0" offset="0"/>
   <stop id="stop3752-94-6-7" style="stop-opacity:.58824" offset="1"/>
  </linearGradient>
  <filter id="filter3174-11-0-1" color-interpolation-filters="sRGB">
   <feGaussianBlur id="feGaussianBlur3176-00-3-3" stdDeviation="1.71"/>
  </filter>
  <filter id="filter3174-13-95-7" color-interpolation-filters="sRGB">
   <feGaussianBlur id="feGaussianBlur3176-26-7-2" stdDeviation="1.71"/>
  </filter>
  <filter id="filter3174-899-4-7" color-interpolation-filters="sRGB">
   <feGaussianBlur id="feGaussianBlur3176-55-56-9" stdDeviation="1.71"/>
  </filter>
  <filter id="filter3174-66-9-1" color-interpolation-filters="sRGB">
   <feGaussianBlur id="feGaussianBlur3176-219-2-8" stdDeviation="1.71"/>
  </filter>
  <filter id="filter3174-50-2-3" color-interpolation-filters="sRGB">
   <feGaussianBlur id="feGaussianBlur3176-348-7-0" stdDeviation="1.71"/>
  </filter>
 </defs>
 <metadata id="metadata5458">
  <rdf:RDF>
   <cc:Work rdf:about="">
    <dc:format>image/svg+xml</dc:format>
    <dc:type rdf:resource="http://purl.org/dc/dcmitype/StillImage"/>
    <dc:title/>
   </cc:Work>
  </rdf:RDF>
 </metadata>
 <g id="layer1" transform="translate(-384.57 -483.8)">
  <g id="g10374" transform="translate(.00071696 -.0055850)">
   <rect id="rect892" ry="14.878" style="stroke:url(#linearGradient10387);stroke-width:.49475;fill:url(#linearGradient10385)" transform="scale(1,-1)" height="58.676" width="58.048" y="-545.39" x="387.64"/>
   <rect id="rect892-2" ry="14.724" style="stroke:url(#linearGradient10391);stroke-width:.49475;fill:url(#linearGradient10389)" transform="scale(1,-1)" height="58.07" width="58.048" y="-544.99" x="387.65"/>
   <path id="rect895" style="fill:url(#radialGradient10393)" d="m400.86 486.99c-4.0503-1.2438-13.729 7.7065-13.038 11.7-0.0255 0.49454-0.0451 0.99781-0.0451 1.5018v26.621c0 10.602 5.4442 17.195 11.343 17.195h34.071c6.4231 0 12.359-5.7106 12.359-13.133v-32.511c0.35356-5.551-10.819-12.524-13.178-11.488-24.317 0.43952-9.1565 0.11361-31.511 0.11361z"/>
   <path id="path4230" d="m399.57 487.17 21.415 26 0.82366 1 23.886-16.743-3.125-4.6318-19.938-1.625-2.471-4z" style="fill:url(#linearGradient10395);fill-rule:evenodd"/>
   <rect id="rect892-2-7-8" ry="14.724" style="opacity:.15891;stroke:#000;stroke-width:2.4612;fill:none" transform="scale(1,-1)" height="58.07" width="58.048" y="-544.83" x="387.55"/>
   <rect id="rect892-2-7-2-9" style="stroke:#000;stroke-width:.53286;fill:none" transform="scale(1,-1)" ry="14.254" height="57.239" width="58.008" y="-544.4" x="387.65"/>
   <rect id="rect892-2-7-1" ry="14.724" style="opacity:.15891;stroke:#000;stroke-width:3.9379;fill:none" transform="scale(1,-1)" height="58.07" width="58.048" y="-544.83" x="387.55"/>
   <path id="path1187" style="fill:#fff;fill-opacity:.057143" d="m400.84 486.97c-12.048 0-13.227 0.34219-13.178 13.354-0.022 0.36343-0.039 0.73329-0.039 1.1037v16.637c9.4888-19.461 19.486-26.153 45.93-31.07-0.11421-0.0133-0.23371-0.0156-0.35102-0.0156-21.13 0.19676-13.037-0.01-32.362-0.01z"/>
  </g>
  <g id="g292321" transform="matrix(1.1904 0 0 1.1906 388.29 487.29)">
   <rect id="rect3745-06" style="opacity:.9;filter:url(#filter3174-04-1);display:none;fill:url(#linearGradient6422-1-5)" rx="6" ry="6" height="85" width="86" y="11.602" x="163.64"/>
   <rect id="rect3745-9-61" style="opacity:.9;filter:url(#filter3174-3-8-9);display:none;fill:url(#linearGradient7720-9-1)" rx="6" ry="6" height="85" width="86" y="5.5" x="80.661"/>
   <rect id="rect3745-3-1" style="opacity:.9;filter:url(#filter3174-7-18-4);display:none;fill:url(#linearGradient16955-2-8)" rx="6" ry="6" height="85" width="86" y="-.60169" x="-202.46"/>
   <rect id="rect3745-97-3" style="opacity:.9;filter:url(#filter3174-5-80-8);display:none;fill:url(#linearGradient3904-0-3)" rx="6" ry="6" height="85" width="86" y="7.8011" x="-151.15"/>
   <rect id="rect3745-5-5" style="opacity:.9;filter:url(#filter3174-16-6-3);display:none;fill:url(#linearGradient4326-0-4)" rx="6" ry="6" height="85" width="86" y="61.302" x="-13.086"/>
   <g id="layer2" style="display:none" transform="translate(2.8475 -122.92)">
    <rect id="rect3745-1-33" style="opacity:.9;filter:url(#filter3174-39-6-5);fill:url(#ButtonShadow-72-11-3)" rx="6" ry="6" height="85" width="86" y="7" x="5"/>
   </g>
   <rect id="rect3745-0-42" style="opacity:.9;filter:url(#filter3174-11-0-1);display:none;fill:url(#linearGradient18633-17-7)" rx="6" ry="6" height="85" width="86" y="-22.623" x="93.5"/>
   <g id="layer2-0-7" style="display:none" transform="translate(-63.245 46.823)">
    <rect id="rect3745-7-6" style="opacity:.9;filter:url(#filter3174-13-95-7);fill:url(#ButtonShadow-72-11-3)" rx="6" ry="6" height="85" width="86" y="7" x="5"/>
   </g>
   <g id="layer2-9-9" style="display:none" transform="translate(-35.72 63.218)">
    <rect id="rect3745-4-06" style="opacity:.9;filter:url(#filter3174-899-4-7);fill:url(#ButtonShadow-72-11-3)" rx="6" ry="6" height="85" width="86" y="7" x="5"/>
   </g>
   <g id="layer2-05" style="display:none" transform="translate(139.25 17.484)">
    <rect id="rect3745-6" style="opacity:.9;filter:url(#filter3174-66-9-1);fill:url(#ButtonShadow-72-11-3)" rx="6" ry="6" height="85" width="86" y="7" x="5"/>
   </g>
   <g id="layer2-3-9" style="display:none" transform="translate(-22.976 45.385)">
    <rect id="rect3745-40" style="opacity:.9;filter:url(#filter3174-50-2-3);fill:url(#ButtonShadow-72-11-3)" rx="6" ry="6" height="85" width="86" y="7" x="5"/>
   </g>
   <rect id="rect810-5" ry="8.8174" style="stroke:#b2cbe5;stroke-width:.83142;fill:#78afd3;fill-opacity:.51316" transform="matrix(.49982 -.86613 .86592 .50018 0 0)" height="36.319" width="36.328" y="14.385" x="-27.015"/>
   <rect id="rect810-4" style="stroke:#7da7d3;fill:#1e5290" ry="7.0085" height="28.868" width="28.868" y="9.692" x="9.152"/>
   <g id="layer4" transform="matrix(.53144 0 0 .53144 -2.4474 -2.0406)">
    <path id="path3914" style="color:#000000;fill:#143b69" d="m36 31.031a0.95512 0.95512 0 0 0 -0.969 0.969v34a0.95512 0.95512 0 0 0 0.969 0.969h10a0.95512 0.95512 0 0 0 0.969 -0.969v-11.031h11.031a0.95512 0.95512 0 0 0 0.969 -0.969v-8a0.95512 0.95512 0 0 0 -0.969 -0.969h-11.031v-4.0625h15.031a0.95512 0.95512 0 0 0 0.969 -0.968v-8a0.95512 0.95512 0 0 0 -0.969 -0.969h-26z"/>
    <path id="rect2922" style="color:#000000;fill:#fff" d="m36 32v34h10v-12h12v-8h-12v-6h16v-8h-26z"/>
   </g>
  </g>
 </g>
</svg>
