<?xml version="1.0" encoding="UTF-8" standalone="no"?>
<!-- Created with Inkscape (http://www.inkscape.org/) -->
<svg id="svg3449" xmlns:rdf="http://www.w3.org/1999/02/22-rdf-syntax-ns#" xmlns="http://www.w3.org/2000/svg" height="128" width="128" version="1.0" xmlns:cc="http://creativecommons.org/ns#" xmlns:xlink="http://www.w3.org/1999/xlink" xmlns:dc="http://purl.org/dc/elements/1.1/">
 <metadata id="metadata56">
  <rdf:RDF>
   <cc:Work rdf:about="">
    <dc:format>image/svg+xml</dc:format>
    <dc:type rdf:resource="http://purl.org/dc/dcmitype/StillImage"/>
    <dc:title/>
   </cc:Work>
  </rdf:RDF>
 </metadata>
 <defs id="defs3451">
  <linearGradient id="linearGradient3514" y2="-9.1034" gradientUnits="userSpaceOnUse" x2="66.492" gradientTransform="matrix(.96826 0 0 .97948 2.179 .16587)" y1="-42.638" x1="67.952">
   <stop id="stop4620" style="stop-color:#37414b" offset="0"/>
   <stop id="stop4622" style="stop-color:#37414b;stop-opacity:0" offset="1"/>
  </linearGradient>
  <linearGradient id="linearGradient3516" y2="-11.847" gradientUnits="userSpaceOnUse" x2="58.98" gradientTransform="matrix(.96826 0 0 .97948 2.179 .16587)" y1="-118.55" x1="57.173">
   <stop id="stop4596" offset="0"/>
   <stop id="stop4598" style="stop-opacity:0" offset="1"/>
  </linearGradient>
  <linearGradient id="linearGradient3519" y2="50.369" gradientUnits="userSpaceOnUse" x2="76.558" gradientTransform="matrix(.96826 0 0 .97948 3.2423 -129.19)" y1="13.164" x1="76.558">
   <stop id="stop3392" style="stop-color:#425e7b" offset="0"/>
   <stop id="stop3394" style="stop-color:#7a91a7" offset="1"/>
  </linearGradient>
  <linearGradient id="linearGradient3521" y2="-8.7399" gradientUnits="userSpaceOnUse" x2="60.217" gradientTransform="matrix(.96826 0 0 .97948 2.179 .16587)" y1="-123.72" x1="60.395">
   <stop id="stop3392-4-8" style="stop-color:#425e7b" offset="0"/>
   <stop id="stop3394-8-0" style="stop-color:#7a91a7" offset="1"/>
  </linearGradient>
  <linearGradient id="linearGradient4192" y2="31.742" gradientUnits="userSpaceOnUse" x2="121.11" y1="31.742" x1="6.5334">
   <stop id="stop4188" style="stop-color:#fff" offset="0"/>
   <stop id="stop4190" style="stop-color:#fff;stop-opacity:0" offset="1"/>
  </linearGradient>
  <linearGradient id="linearGradient11577" y2="8.1" gradientUnits="userSpaceOnUse" y1="6.1438" x2="19.387" x1="19.49">
   <stop id="stop10999-9-0" offset="0"/>
   <stop id="stop11001-6-1" style="stop-opacity:0" offset="1"/>
  </linearGradient>
  <filter id="filter3198-5" color-interpolation-filters="sRGB" width="1.1734" y="-.10752" x="-.086712" height="1.215">
   <feGaussianBlur id="feGaussianBlur3200-3" stdDeviation="0.71710775"/>
  </filter>
  <linearGradient id="linearGradient6921" y2="5.4565" gradientUnits="userSpaceOnUse" x2="36.358" gradientTransform="matrix(0 3.6478 -6.0832 0 129.49 -30.924)" y1="8.059" x1="32.892">
   <stop id="stop8591-7-2-1" style="stop-color:#fefefe" offset="0"/>
   <stop id="stop8593-2-4-5" style="stop-color:#cbcbcb" offset="1"/>
  </linearGradient>
  <radialGradient id="radialGradient6925" gradientUnits="userSpaceOnUse" cy="-16.639" cx="2.6083" gradientTransform="matrix(-5.7453 2.452e-7 -2.5955e-7 -6.0905 124.78 -36.865)" r="23">
   <stop id="stop5983" style="stop-color:#f7650a" offset="0"/>
   <stop id="stop5985" style="stop-color:#ff8d46" offset="1"/>
  </radialGradient>
  <style id="style1246" type="text/css">.fil0 {fill:#1F1A17}</style>
  <style id="style1115" type="text/css">.fil0 {fill:#1F1A17}</style>
  <style id="style1246-3" type="text/css">.fil0 {fill:#1F1A17}</style>
  <style id="style1115-1" type="text/css">.fil0 {fill:#1F1A17}</style>
  <style id="style1246-0" type="text/css">.fil0 {fill:#1F1A17}</style>
  <style id="style1115-7" type="text/css">.fil0 {fill:#1F1A17}</style>
  <linearGradient id="linearGradient17463" y2="9" gradientUnits="userSpaceOnUse" x2="24.25" gradientTransform="matrix(2.6667 0 0 2.6667 -195.18 -6.7238)" y1="39" x1="24.25">
   <stop id="stop4272-93" style="stop-color:#ffd4b9" offset="0"/>
   <stop id="stop4274-5" style="stop-color:#fff9f5" offset="1"/>
  </linearGradient>
 </defs>
 <rect id="rect892-2-7-1" style="opacity:.15891;stroke:#000;stroke-width:7.7512;fill:none" transform="scale(1,-1)" ry="28.993" height="114.35" width="114.22" y="-121.16" x="6.8687"/>
 <rect id="rect892" style="stroke:url(#linearGradient3521);stroke-width:.97385;fill:url(#linearGradient3519)" transform="scale(1,-1)" ry="29.296" height="115.54" width="114.22" y="-122.25" x="7.0394"/>
 <rect id="rect892-2" style="stroke:url(#linearGradient3516);stroke-width:.97385;fill:url(#linearGradient3514)" transform="scale(1,-1)" ry="28.993" height="114.35" width="114.22" y="-121.46" x="7.0599"/>
 <path id="path4159-5" style="stroke:url(#linearGradient4192);stroke-width:1px;fill:none" d="m7.0334 31.742h113.58z"/>
 <path id="path4322" d="m120.09 74.559c-1.82 3.831-41.638 40.371-56.018 45.741-66.185 6.38-58.724-19.48-56.838-84.917 4.797-34.382 28.284-28.298 90.407-27.48 28.999 8.074 22.189 27.125 22.449 66.656z" style="fill-rule:evenodd;fill:url(#radialGradient6925)"/>
 <g id="g17455" transform="matrix(.81 0 0 .81 170.39 16.609)">
  <path id="path4282" style="fill-opacity:.058824" d="m-171.18 20.476v16h16c26.592 0 48 21.408 48 48v16h16v-16c0-35.456-28.544-64-64-64h-16zm0 32v16h16c8.864 0 16 7.136 16 16v16h16v-16c0-17.728-14.272-32-32-32h-16zm9.3333 29.333c-5.1707 0-9.3333 4.1627-9.3333 9.3333 0 5.1707 4.1627 9.3333 9.3333 9.3333 5.1707 0 9.3333-4.1627 9.3333-9.3333 0-5.1707-4.1627-9.3333-9.3333-9.3333z"/>
  <path id="path4280" style="fill-opacity:.11765" d="m-171.18 19.41v16h16c26.592 0 48 21.408 48 48v16h16v-16c0-35.456-28.544-64-64-64h-16zm0 32v16h16c8.864 0 16 7.136 16 16v16h16v-16c0-17.728-14.272-32-32-32h-16zm9.3333 29.333c-5.1707 0-9.3333 4.1627-9.3333 9.3333 0 5.1707 4.1627 9.3333 9.3333 9.3333 5.1707 0 9.3333-4.1627 9.3333-9.3333 0-5.1707-4.1627-9.3333-9.3333-9.3333z"/>
  <path id="path4276" style="fill-opacity:.23529" d="m-171.18 18.343v16h16c26.592 0 48 21.408 48 48v16h16v-16c0-35.456-28.544-64-64-64h-16zm0 32v16h16c8.864 0 16 7.136 16 16v16h16v-16c0-17.728-14.272-32-32-32h-16zm9.3333 29.333c-5.1707 0-9.3333 4.1627-9.3333 9.3333 0 5.1707 4.1627 9.3333 9.3333 9.3333 5.1707 0 9.3333-4.1627 9.3333-9.3333 0-5.1707-4.1627-9.3333-9.3333-9.3333z"/>
  <path id="rect4116" style="fill:url(#linearGradient17463)" d="m-171.18 17.276v16h16c26.592 0 48 21.408 48 48v16h16v-16c0-35.456-28.544-64-64-64h-16zm0 32v16h16c8.864 0 16 7.136 16 16v16h16v-16c0-17.728-14.272-32-32-32h-16zm9.3333 29.333c-5.1707 0-9.3333 4.1627-9.3333 9.3333 0 5.1707 4.1627 9.3333 9.3333 9.3333 5.1707 0 9.3333-4.1627 9.3333-9.3333 0-5.1707-4.1627-9.3333-9.3333-9.3333z"/>
  <path id="path4099" style="fill:#ff6605;fill-opacity:.31373" d="m-171.18 31.141v2.1354h16c26.592 0 48 21.408 48 48v-2.1354c0-26.592-21.408-48-48-48h-16zm0 32v2.1354h16c8.864 0 16 7.136 16 16v-2.1354c0-8.864-7.136-16-16-16h-16zm0.10417 23.734c-0.0406 0.35473-0.10417 0.70176-0.10417 1.0677 0 5.1707 4.1627 9.3333 9.3333 9.3333 5.1707 0 9.3333-4.1627 9.3333-9.3333 0-0.36595-0.0636-0.71298-0.10416-1.0677-0.53283 4.6575-4.4244 8.2656-9.2292 8.2656-4.8047 0-8.6963-3.6082-9.2292-8.2656zm31.896 8.2656v2.1354h16v-2.1354h-16zm32 0v2.1354h16v-2.1354h-16z"/>
  <path id="path4104" style="fill:#fff;fill-opacity:.23529" d="m-171.18 17.276v1.0677h16c35.456 0 64 28.544 64 64v-1.0677c0-35.456-28.544-64-64-64h-16zm0 32v1.0677h16c17.728 0 32 14.272 32 32v-1.0677c0-17.728-14.272-32-32-32h-16zm9.3333 29.333c-5.1707 0-9.3333 4.1627-9.3333 9.3333 0 0.18208 0.0419 0.3518 0.0521 0.53125 0.28166-4.9138 4.2944-8.7969 9.2812-8.7969s8.9996 3.883 9.2812 8.7969c0.0102-0.17945 0.0521-0.34916 0.0521-0.53125 0-5.1707-4.1627-9.3333-9.3333-9.3333z"/>
 </g>
 <rect id="rect892-2-7-8" style="opacity:.15891;stroke:#000;stroke-width:4.8445;fill:none" transform="scale(1,-1)" ry="28.993" height="114.35" width="114.22" y="-121.16" x="6.8687"/>
 <g id="g17906" transform="matrix(2.3438 0 0 2.2539 224.79 41.695)"></g>
 <path id="path4891" d="m25.685 5.7862c3.6386-0.3502 2.8432 14.02 2.8432 14.02s16.093-0.84846 16.525 1.9543c3.85-3.268-16.654-16.76-19.368-15.974z" style="opacity:.3;fill-rule:evenodd;filter:url(#filter3198-5)" transform="matrix(0 2.6586 -4.0239 0 144.6 .66614)"/>
 <path id="path4893" d="m120.08 74.021c-2.5978 9.0661-48.197 8.1132-48.197 8.1132s3.0089 37.274-10.414 38.176c7.898 2.3435 47.822-27.079 56.811-41.551 1.1551-1.8595 1.7994-3.4722 1.7994-4.7388z" style="fill:url(#linearGradient6921);fill-rule:evenodd"/>
</svg>
