<?xml version="1.0" encoding="UTF-8" standalone="no"?>
<!-- Created with Inkscape (http://www.inkscape.org/) -->
<svg id="svg3449" xmlns:rdf="http://www.w3.org/1999/02/22-rdf-syntax-ns#" xmlns="http://www.w3.org/2000/svg" height="128" width="128" version="1.0" xmlns:cc="http://creativecommons.org/ns#" xmlns:xlink="http://www.w3.org/1999/xlink" xmlns:dc="http://purl.org/dc/elements/1.1/">
 <metadata id="metadata56">
  <rdf:RDF>
   <cc:Work rdf:about="">
    <dc:format>image/svg+xml</dc:format>
    <dc:type rdf:resource="http://purl.org/dc/dcmitype/StillImage"/>
    <dc:title/>
   </cc:Work>
  </rdf:RDF>
 </metadata>
 <defs id="defs3451">
  <linearGradient id="linearGradient3514" y2="-9.1034" gradientUnits="userSpaceOnUse" x2="66.492" gradientTransform="matrix(.96826 0 0 .97948 2.179 .16587)" y1="-42.638" x1="67.952">
   <stop id="stop4620" style="stop-color:#37414b" offset="0"/>
   <stop id="stop4622" style="stop-color:#37414b;stop-opacity:0" offset="1"/>
  </linearGradient>
  <linearGradient id="linearGradient3516" y2="-11.847" gradientUnits="userSpaceOnUse" x2="58.98" gradientTransform="matrix(.96826 0 0 .97948 2.179 .16587)" y1="-118.55" x1="57.173">
   <stop id="stop4596" offset="0"/>
   <stop id="stop4598" style="stop-opacity:0" offset="1"/>
  </linearGradient>
  <linearGradient id="linearGradient3519" y2="50.369" gradientUnits="userSpaceOnUse" x2="76.558" gradientTransform="matrix(.96826 0 0 .97948 3.2423 -129.19)" y1="13.164" x1="76.558">
   <stop id="stop3392" style="stop-color:#425e7b" offset="0"/>
   <stop id="stop3394" style="stop-color:#7a91a7" offset="1"/>
  </linearGradient>
  <linearGradient id="linearGradient3521" y2="-8.7399" gradientUnits="userSpaceOnUse" x2="60.217" gradientTransform="matrix(.96826 0 0 .97948 2.179 .16587)" y1="-123.72" x1="60.395">
   <stop id="stop3392-4-8" style="stop-color:#425e7b" offset="0"/>
   <stop id="stop3394-8-0" style="stop-color:#7a91a7" offset="1"/>
  </linearGradient>
  <radialGradient id="radialGradient3349" gradientUnits="userSpaceOnUse" cy="45.647" cx="42.148" gradientTransform="matrix(.94690 0 0 1.139 3.5954 -29.89)" r="58.984">
   <stop id="stop10962" style="stop-color:#fff0a2" offset="0"/>
   <stop id="stop10964" style="stop-color:#edca32" offset="1"/>
  </radialGradient>
  <linearGradient id="linearGradient10997" y2="9.0002" gradientUnits="userSpaceOnUse" x2="24.13" gradientTransform="matrix(2.6667 0 0 2.6667 -136.9 2.566)" y1="39" x1="24.13">
   <stop id="stop4344" style="stop-color:#fff2b9" offset="0"/>
   <stop id="stop4346" style="stop-color:#fffdf5" offset="1"/>
  </linearGradient>
 </defs>
 <rect id="rect892" style="stroke:url(#linearGradient3521);stroke-width:.97385;fill:url(#linearGradient3519)" transform="scale(1,-1)" ry="29.296" height="115.54" width="114.22" y="-122.25" x="7.0394"/>
 <rect id="rect892-2" style="stroke:url(#linearGradient3516);stroke-width:.97385;fill:url(#linearGradient3514)" transform="scale(1,-1)" ry="28.993" height="114.35" width="114.22" y="-121.46" x="7.0599"/>
 <path id="rect895" style="fill:url(#radialGradient3349)" d="m33.051 7.2596c-7.969-2.4493-27.013 15.174-25.653 23.038-0.050142 0.97378-0.088772 1.9648-0.088772 2.9572v52.419c0 20.876 10.712 33.859 22.318 33.859h67.038c12.638 0 24.318-11.245 24.318-25.859v-64.017c0.7-10.928-21.283-24.659-25.926-22.618-47.846 0.8653-18.017 0.2236-62.003 0.2236z"/>
 <rect id="rect892-2-7-8" style="opacity:.15891;stroke:#000;stroke-width:4.8445;fill:none" transform="scale(1,-1)" ry="28.993" height="114.35" width="114.22" y="-121.16" x="6.8687"/>
 <rect id="rect892-2-7-1" style="opacity:.15891;stroke:#000;stroke-width:7.7512;fill:none" transform="scale(1,-1)" ry="28.993" height="114.35" width="114.22" y="-121.16" x="6.8687"/>
 <rect id="rect892-2-7-2-9" ry="28.067" style="stroke:#000;stroke-width:1.0489;fill:none" transform="scale(1,-1)" height="112.71" width="114.14" y="-120.31" x="7.0649"/>
 <path id="path1187" style="fill:#fff;fill-opacity:.057143" d="m33.017 7.2319c-23.707 0-26.027 0.6738-25.93 26.295-0.04334 0.71563-0.07674 1.4439-0.07674 2.1732v32.76c18.67-38.321 38.34-51.497 90.374-61.179-0.225-0.026-0.46-0.0303-0.691-0.0303-41.576 0.3874-25.652-0.0188-63.676-0.0188z"/>
 <g id="g10989" transform="translate(137.06 -4.9831)">
  <path id="path4354" style="fill-opacity:.058824" d="m-72.902 29.766c-4.558 0-20.759 27.236-25.385 45.151-0.82528 2.5776-1.2813 5.3237-1.2813 8.1823 0 14.773 11.893 26.667 26.667 26.667 14.773 0 26.667-11.893 26.667-26.667 0-2.915-0.47645-5.7118-1.3333-8.3333-4.732-17.917-21.017-45-25.335-45z"/>
  <path id="path4352" style="fill-opacity:.11765" d="m-72.902 28.699c-4.558 0-20.759 27.236-25.385 45.151-0.82528 2.5776-1.2813 5.3237-1.2813 8.1823 0 14.773 11.893 26.667 26.667 26.667 14.773 0 26.667-11.893 26.667-26.667 0-2.915-0.47645-5.7118-1.3333-8.3333-4.732-17.916-21.017-45-25.335-45z"/>
  <path id="path4348" style="fill-opacity:.23529" d="m-72.902 27.633c-4.558 0-20.759 27.236-25.385 45.151-0.82528 2.5776-1.2813 5.3237-1.2813 8.1823 0 14.773 11.893 26.667 26.667 26.667 14.773 0 26.667-11.893 26.667-26.667 0-2.915-0.47645-5.7118-1.3333-8.3333-4.732-17.917-21.017-45-25.335-45z"/>
  <path id="rect4254" style="fill:url(#linearGradient10997)" d="m-72.902 26.566c-4.558 0-20.759 27.236-25.385 45.151-0.82529 2.5776-1.2813 5.3237-1.2813 8.1823 0 14.773 11.893 26.667 26.667 26.667 14.773 0 26.667-11.893 26.667-26.667 0-2.9151-0.47645-5.7118-1.3333-8.3333-4.732-17.917-21.017-45-25.335-45z"/>
  <path id="path4356" style="fill:#ffda2d;fill-opacity:.31373" d="m-99.522 78.707c-0.0178 0.39749-0.04687 0.79061-0.04687 1.1927 0 14.773 11.893 26.667 26.667 26.667 14.773 0 26.667-11.893 26.667-26.667 0-0.39334-0.02976-0.77777-0.04688-1.1667-0.51069 14.317-12.174 25.698-26.62 25.698-14.455 0-26.122-11.394-26.62-25.724z"/>
  <path id="path4361" style="fill:#fff;fill-opacity:.23529" d="m-72.902 26.566c-4.558 0-20.759 27.236-25.385 45.151-0.82529 2.5776-1.2813 5.3237-1.2813 8.1823 0 0.16 0.01813 0.31465 0.0208 0.47396 0.05885-2.644 0.49278-5.1909 1.2604-7.5885 4.6268-17.915 20.827-45.151 25.385-45.151 4.3182 0 20.603 27.083 25.333 45 0.7992 2.4451 1.2479 5.0463 1.3073 7.75 0.0029-0.16288 0.02604-0.32078 0.02604-0.48438 0-2.9151-0.47645-5.7118-1.3333-8.3333-4.73-17.917-21.015-45-25.333-45z"/>
 </g>
</svg>
