<?xml version="1.0" encoding="UTF-8" standalone="no"?>
<!-- Created with Inkscape (http://www.inkscape.org/) -->
<svg id="svg3449" xmlns:rdf="http://www.w3.org/1999/02/22-rdf-syntax-ns#" xmlns="http://www.w3.org/2000/svg" height="128" width="128" version="1.0" xmlns:cc="http://creativecommons.org/ns#" xmlns:xlink="http://www.w3.org/1999/xlink" xmlns:dc="http://purl.org/dc/elements/1.1/">
 <metadata id="metadata56">
  <rdf:RDF>
   <cc:Work rdf:about="">
    <dc:format>image/svg+xml</dc:format>
    <dc:type rdf:resource="http://purl.org/dc/dcmitype/StillImage"/>
    <dc:title/>
   </cc:Work>
  </rdf:RDF>
 </metadata>
 <defs id="defs3451">
  <linearGradient id="linearGradient3514" y2="-9.1034" gradientUnits="userSpaceOnUse" x2="66.492" gradientTransform="matrix(.96826 0 0 .97948 2.179 .16587)" y1="-42.638" x1="67.952">
   <stop id="stop4620" style="stop-color:#37414b" offset="0"/>
   <stop id="stop4622" style="stop-color:#37414b;stop-opacity:0" offset="1"/>
  </linearGradient>
  <linearGradient id="linearGradient3516" y2="-11.847" gradientUnits="userSpaceOnUse" x2="58.98" gradientTransform="matrix(.96826 0 0 .97948 2.179 .16587)" y1="-118.55" x1="57.173">
   <stop id="stop4596" offset="0"/>
   <stop id="stop4598" style="stop-opacity:0" offset="1"/>
  </linearGradient>
  <linearGradient id="linearGradient3519" y2="50.369" gradientUnits="userSpaceOnUse" x2="76.558" gradientTransform="matrix(.96826 0 0 .97948 3.2423 -129.19)" y1="13.164" x1="76.558">
   <stop id="stop3392" style="stop-color:#425e7b" offset="0"/>
   <stop id="stop3394" style="stop-color:#7a91a7" offset="1"/>
  </linearGradient>
  <linearGradient id="linearGradient3521" y2="-8.7399" gradientUnits="userSpaceOnUse" x2="60.217" gradientTransform="matrix(.96826 0 0 .97948 2.179 .16587)" y1="-123.72" x1="60.395">
   <stop id="stop3392-4-8" style="stop-color:#425e7b" offset="0"/>
   <stop id="stop3394-8-0" style="stop-color:#7a91a7" offset="1"/>
  </linearGradient>
  <linearGradient id="linearGradient4192" y2="31.742" gradientUnits="userSpaceOnUse" x2="121.11" y1="31.742" x1="6.5334">
   <stop id="stop4188" style="stop-color:#fff" offset="0"/>
   <stop id="stop4190" style="stop-color:#fff;stop-opacity:0" offset="1"/>
  </linearGradient>
  <linearGradient id="linearGradient11577" y2="8.1" gradientUnits="userSpaceOnUse" y1="6.1438" x2="19.387" x1="19.49">
   <stop id="stop10999-9-0" offset="0"/>
   <stop id="stop11001-6-1" style="stop-opacity:0" offset="1"/>
  </linearGradient>
  <filter id="filter3198-5" color-interpolation-filters="sRGB" width="1.1734" y="-.10752" x="-.086712" height="1.215">
   <feGaussianBlur id="feGaussianBlur3200-3" stdDeviation="0.71710775"/>
  </filter>
  <linearGradient id="linearGradient6921" y2="5.4565" gradientUnits="userSpaceOnUse" x2="36.358" gradientTransform="matrix(0 3.6478 -6.0832 0 129.49 -30.924)" y1="8.059" x1="32.892">
   <stop id="stop8591-7-2-1" style="stop-color:#fefefe" offset="0"/>
   <stop id="stop8593-2-4-5" style="stop-color:#cbcbcb" offset="1"/>
  </linearGradient>
  <radialGradient id="radialGradient6925" gradientUnits="userSpaceOnUse" cy="-16.639" cx="2.6083" gradientTransform="matrix(-5.7453 2.452e-7 -2.5955e-7 -6.0905 124.78 -36.865)" r="23">
   <stop id="stop5983" style="stop-color:#f7650a" offset="0"/>
   <stop id="stop5985" style="stop-color:#ff8d46" offset="1"/>
  </radialGradient>
  <style id="style1246" type="text/css">.fil0 {fill:#1F1A17}</style>
  <style id="style1115" type="text/css">.fil0 {fill:#1F1A17}</style>
  <style id="style1246-3" type="text/css">.fil0 {fill:#1F1A17}</style>
  <style id="style1115-1" type="text/css">.fil0 {fill:#1F1A17}</style>
  <style id="style1246-0" type="text/css">.fil0 {fill:#1F1A17}</style>
  <style id="style1115-7" type="text/css">.fil0 {fill:#1F1A17}</style>
  <linearGradient id="linearGradient13070" y2="9" gradientUnits="userSpaceOnUse" x2="27" gradientTransform="matrix(2.6667 0 0 2.6667 127.42 -2.0909)" y1="39" x1="27">
   <stop id="stop4462" style="stop-color:#f8c5c0" offset="0"/>
   <stop id="stop4464" style="stop-color:#fff8f5" offset="1"/>
  </linearGradient>
 </defs>
 <rect id="rect892-2-7-1" style="opacity:.15891;stroke:#000;stroke-width:7.7512;fill:none" transform="scale(1,-1)" ry="28.993" height="114.35" width="114.22" y="-121.16" x="6.8687"/>
 <rect id="rect892" style="stroke:url(#linearGradient3521);stroke-width:.97385;fill:url(#linearGradient3519)" transform="scale(1,-1)" ry="29.296" height="115.54" width="114.22" y="-122.25" x="7.0394"/>
 <rect id="rect892-2" style="stroke:url(#linearGradient3516);stroke-width:.97385;fill:url(#linearGradient3514)" transform="scale(1,-1)" ry="28.993" height="114.35" width="114.22" y="-121.46" x="7.0599"/>
 <path id="path4322" d="m120.09 74.559c-1.82 3.831-41.638 40.371-56.018 45.741-66.185 6.38-58.724-19.48-56.838-84.917 4.797-34.382 28.284-28.298 90.407-27.48 28.999 8.074 22.189 27.125 22.449 66.656z" style="fill-rule:evenodd;fill:url(#radialGradient6925)"/>
 <g id="g13060" transform="translate(-127.29 .78973)">
  <path id="path4472" style="fill-opacity:.058824" d="m225.77 25.109-74.344 74.344 5.6562 5.6562 74.344-74.344-5.6562-5.6562zm-50.349 16-18.339 18.344-5.6562 5.6562 5.6562 5.6562 9.9166 9.9167 5.6563-5.6562-9.9166-9.9167 18.344-18.344-5.6614-5.6562zm40.432 8.4271-5.6563 5.6562 9.9167 9.9167-18.344 18.344 5.6562 5.6562 18.344-18.344 5.6562-5.6562-5.6562-5.6562-9.9167-9.9167z"/>
  <path id="path4470" style="fill-opacity:.11765" d="m225.77 24.042-74.344 74.344 5.6562 5.6562 74.344-74.344-5.6562-5.6562zm-50.349 16-18.339 18.344-5.6562 5.6562 5.6562 5.6562 9.9166 9.9167 5.6563-5.6562-9.9166-9.9167 18.344-18.344-5.6614-5.6562zm40.432 8.4271-5.6563 5.6562 9.9167 9.9167-18.344 18.344 5.6562 5.6562 18.344-18.344 5.6562-5.6562-5.6562-5.6562-9.9167-9.9167z"/>
  <path id="path4466" style="fill-opacity:.23529" d="m225.77 22.976-74.344 74.344 5.6562 5.6562 74.344-74.344-5.6562-5.6562zm-50.349 16-18.339 18.344-5.6562 5.6562 5.6562 5.6562 9.9166 9.9167 5.6563-5.6562-9.9166-9.9167 18.344-18.344-5.6614-5.6562zm40.432 8.4271-5.6563 5.6562 9.9167 9.9167-18.344 18.344 5.6562 5.6562 18.344-18.344 5.6562-5.6562-5.6562-5.6562-9.9167-9.9167z"/>
  <rect id="rect4370" style="fill:none" ry="0" height="80" width="80" y="21.909" x="151.42"/>
  <rect id="rect4387" style="fill:none" ry="0" height="48" width="48" y="37.909" x="151.42"/>
  <path id="rect4397" style="fill:url(#linearGradient13070)" d="m225.77 21.909-74.344 74.344 5.6562 5.6563 74.344-74.344-5.6562-5.6562zm-50.349 16-18.339 18.344-5.6562 5.6562 5.6562 5.6562 9.9167 9.9167 5.6562-5.6562-9.9167-9.9167 18.344-18.344-5.6614-5.6562zm40.432 8.4271-5.6562 5.6562 9.9166 9.9167-18.344 18.344 5.6562 5.6562 18.344-18.344 5.6562-5.6562-5.6562-5.6562-9.9167-9.9167z"/>
  <path id="path4104" style="fill:#e74231;fill-opacity:.31373" d="m230.36 26.498-73.276 73.276-4.5885-4.5885-1.0677 1.0677 5.6562 5.6563 74.344-74.344-1.0677-1.0677zm-50.344 16-17.276 17.276 1.0677 1.0677 17.276-17.276-1.0677-1.0677zm31.25 8.4271-1.0677 1.0677 8.849 8.849 1.0677-1.0677-8.849-8.849zm-58.771 9.9167-1.0677 1.0677 5.6562 5.6562 9.9167 9.9167 5.6562-5.6562-1.0677-1.0677-4.5885 4.5885-9.9167-9.9167-4.5885-4.5885zm77.864 0-4.5885 4.5885-18.344 18.344-4.5885-4.5885-1.0677 1.0677 5.6562 5.6562 18.344-18.344 5.6562-5.6562-1.0677-1.0677z"/>
  <path id="path4109" style="fill:#fff;fill-opacity:.23529" d="m225.77 21.909-74.344 74.344 0.53124 0.53125 73.812-73.807 5.125 5.1198 0.53125-0.53125-5.6562-5.6562zm-50.349 16-18.339 18.344-5.6562 5.6562 0.53124 0.53125 5.125-5.1198 18.339-18.344 5.125 5.125 0.53645-0.53646-5.6614-5.6562zm40.432 8.4271-5.6562 5.6562 0.53125 0.53125 5.125-5.1198 9.9167 9.9167 5.125 5.1198 0.53125-0.53125-5.6562-5.6562-9.9167-9.9167zm-52.583 16.104-0.53125 0.53646 9.3854 9.3802 0.53125-0.53125-9.3854-9.3854zm56.312 0-17.812 17.812 0.53125 0.53125 17.812-17.807-0.53124-0.53646z"/>
 </g>
 <rect id="rect892-2-7-8" style="opacity:.15891;stroke:#000;stroke-width:4.8445;fill:none" transform="scale(1,-1)" ry="28.993" height="114.35" width="114.22" y="-121.16" x="6.8687"/>
 <g id="g17906" transform="matrix(2.3438 0 0 2.2539 224.79 41.695)"></g>
 <path id="path4891" d="m25.685 5.7862c3.6386-0.3502 2.8432 14.02 2.8432 14.02s16.093-0.84846 16.525 1.9543c3.85-3.268-16.654-16.76-19.368-15.974z" style="opacity:.3;fill-rule:evenodd;filter:url(#filter3198-5)" transform="matrix(0 2.6586 -4.0239 0 144.6 .66614)"/>
 <path id="path4893" d="m120.08 74.021c-2.5978 9.0661-48.197 8.1132-48.197 8.1132s3.0089 37.274-10.414 38.176c7.898 2.3435 47.822-27.079 56.811-41.551 1.1551-1.8595 1.7994-3.4722 1.7994-4.7388z" style="fill:url(#linearGradient6921);fill-rule:evenodd"/>
</svg>
