<?xml version="1.0" encoding="UTF-8" standalone="no"?>
<!-- Created with Inkscape (http://www.inkscape.org/) -->
<svg id="svg3449" xmlns:rdf="http://www.w3.org/1999/02/22-rdf-syntax-ns#" xmlns="http://www.w3.org/2000/svg" height="128" width="128" version="1.0" xmlns:cc="http://creativecommons.org/ns#" xmlns:xlink="http://www.w3.org/1999/xlink" xmlns:dc="http://purl.org/dc/elements/1.1/">
 <metadata id="metadata56">
  <rdf:RDF>
   <cc:Work rdf:about="">
    <dc:format>image/svg+xml</dc:format>
    <dc:type rdf:resource="http://purl.org/dc/dcmitype/StillImage"/>
    <dc:title/>
   </cc:Work>
  </rdf:RDF>
 </metadata>
 <defs id="defs3451">
  <linearGradient id="linearGradient3514" y2="-9.1034" gradientUnits="userSpaceOnUse" x2="66.492" gradientTransform="matrix(.96826 0 0 .97948 2.179 .16587)" y1="-42.638" x1="67.952">
   <stop id="stop4620" style="stop-color:#37414b" offset="0"/>
   <stop id="stop4622" style="stop-color:#37414b;stop-opacity:0" offset="1"/>
  </linearGradient>
  <linearGradient id="linearGradient3516" y2="-11.847" gradientUnits="userSpaceOnUse" x2="58.98" gradientTransform="matrix(.96826 0 0 .97948 2.179 .16587)" y1="-118.55" x1="57.173">
   <stop id="stop4596" offset="0"/>
   <stop id="stop4598" style="stop-opacity:0" offset="1"/>
  </linearGradient>
  <linearGradient id="linearGradient3519" y2="50.369" gradientUnits="userSpaceOnUse" x2="76.558" gradientTransform="matrix(.96826 0 0 .97948 3.2423 -129.19)" y1="13.164" x1="76.558">
   <stop id="stop3392" style="stop-color:#425e7b" offset="0"/>
   <stop id="stop3394" style="stop-color:#7a91a7" offset="1"/>
  </linearGradient>
  <linearGradient id="linearGradient3521" y2="-8.7399" gradientUnits="userSpaceOnUse" x2="60.217" gradientTransform="matrix(.96826 0 0 .97948 2.179 .16587)" y1="-123.72" x1="60.395">
   <stop id="stop3392-4-8" style="stop-color:#425e7b" offset="0"/>
   <stop id="stop3394-8-0" style="stop-color:#7a91a7" offset="1"/>
  </linearGradient>
  <linearGradient id="linearGradient4192" y2="31.742" gradientUnits="userSpaceOnUse" x2="121.11" y1="31.742" x1="6.5334">
   <stop id="stop4188" style="stop-color:#fff" offset="0"/>
   <stop id="stop4190" style="stop-color:#fff;stop-opacity:0" offset="1"/>
  </linearGradient>
  <linearGradient id="linearGradient11577" y2="8.1" gradientUnits="userSpaceOnUse" y1="6.1438" x2="19.387" x1="19.49">
   <stop id="stop10999-9-0" offset="0"/>
   <stop id="stop11001-6-1" style="stop-opacity:0" offset="1"/>
  </linearGradient>
  <filter id="filter3198-5" color-interpolation-filters="sRGB" width="1.1734" y="-.10752" x="-.086712" height="1.215">
   <feGaussianBlur id="feGaussianBlur3200-3" stdDeviation="0.71710775"/>
  </filter>
  <linearGradient id="linearGradient6921" y2="5.4565" gradientUnits="userSpaceOnUse" x2="36.358" gradientTransform="matrix(0 3.6545 -5.7477 0 128.63 -31.851)" y1="8.059" x1="32.892">
   <stop id="stop8591-7-2-1" style="stop-color:#fefefe" offset="0"/>
   <stop id="stop8593-2-4-5" style="stop-color:#cbcbcb" offset="1"/>
  </linearGradient>
  <radialGradient id="radialGradient6925" gradientUnits="userSpaceOnUse" cy="-16.639" cx="2.6083" gradientTransform="matrix(-5.7453 2.452e-7 -2.5955e-7 -6.0905 124.78 -36.865)" r="23">
   <stop id="stop6709" style="stop-color:#f097ba" offset="0"/>
   <stop id="stop6711" style="stop-color:#d04c78" offset="1"/>
  </radialGradient>
  <style id="style1246" type="text/css">.fil0 {fill:#1F1A17}</style>
  <style id="style1115" type="text/css">.fil0 {fill:#1F1A17}</style>
  <style id="style1246-3" type="text/css">.fil0 {fill:#1F1A17}</style>
  <style id="style1115-1" type="text/css">.fil0 {fill:#1F1A17}</style>
  <style id="style1246-0" type="text/css">.fil0 {fill:#1F1A17}</style>
  <style id="style1115-7" type="text/css">.fil0 {fill:#1F1A17}</style>
  <style id="style1246-9" type="text/css">.fil0 {fill:#1F1A17}</style>
  <style id="style1115-3" type="text/css">.fil0 {fill:#1F1A17}</style>
  <style id="style874" type="text/css">.fil0 {fill:#1F1A17}</style>
  <linearGradient id="linearGradient6914-4" y2="9" gradientUnits="userSpaceOnUse" x2="20.474" gradientTransform="matrix(2.6667 0 0 2.6667 -202.63 19.171)" y1="39" x1="20.474">
   <stop id="stop4300-3" style="stop-color:#f3c5d4" offset="0"/>
   <stop id="stop4302-4" style="stop-color:#fef6f9" offset="1"/>
  </linearGradient>
 </defs>
 <rect id="rect892-2-7-1" style="opacity:.15891;stroke:#000;stroke-width:7.7512;fill:none" transform="scale(1,-1)" ry="28.993" height="114.35" width="114.22" y="-121.16" x="6.8687"/>
 <rect id="rect892" style="stroke:url(#linearGradient3521);stroke-width:.97385;fill:url(#linearGradient3519)" transform="scale(1,-1)" ry="29.296" height="115.54" width="114.22" y="-122.25" x="7.0394"/>
 <rect id="rect892-2" style="stroke:url(#linearGradient3516);stroke-width:.97385;fill:url(#linearGradient3514)" transform="scale(1,-1)" ry="28.993" height="114.35" width="114.22" y="-121.46" x="7.0599"/>
 <path id="path4159-5" style="stroke:url(#linearGradient4192);stroke-width:1px;fill:none" d="m7.0334 31.742h113.58z"/>
 <path id="path4322" d="m120.09 74.559c-1.82 3.831-41.638 40.371-56.018 45.741-66.185 6.38-58.724-19.48-56.838-84.917 4.797-34.382 28.284-28.298 90.407-27.48 28.999 8.074 22.189 27.125 22.449 66.656z" style="fill-rule:evenodd;fill:url(#radialGradient6925)"/>
 <g id="g6906" transform="matrix(-1 0 0 1 -75.865 -25.049)">
  <path id="path4306-9" style="fill-opacity:.058824" d="m-178.63 46.371v61.333h61.333v18.667l18.667-18.667v-61.333h-80zm8 8h64v45.333h-56v-8h-8v-8h8v-8h-8v-21.333zm8 21.333h8v-8h-8v8zm8-8h8v-8h-8v8zm8 0v8h8v-8h-8zm-16 16v8h8v-8h-8z"/>
  <path id="path4304-5" style="fill-opacity:.11765" d="m-178.63 45.304v61.333h61.333v18.667l18.667-18.667v-61.333h-80zm8 8h64v45.333h-56v-8h-8v-8h8v-8h-8v-21.333zm8 21.333h8v-8h-8v8zm8-8h8v-8h-8v8zm8 0v8h8v-8h-8zm-16 16v8h8v-8h-8z"/>
  <path id="path4300-3" style="fill-opacity:.23529" d="m-178.63 44.237v61.333h61.333v18.667l18.667-18.667v-61.333h-80zm8 8h64v45.333h-56v-8h-8v-8h8v-8h-8v-21.333zm8 21.333h8v-8h-8v8zm8-8h8v-8h-8v8zm8 0v8h8v-8h-8zm-16 16v8h8v-8h-8z"/>
  <path id="rect4239-3" style="fill:url(#linearGradient6914-4)" d="m-178.63 43.171v61.333h61.333v18.667l18.667-18.667v-61.333h-80zm8 8h64v45.333h-56v-8h-8v-8h8v-8h-8v-21.333zm8 21.333h8v-8h-8v8zm8-8h8v-8h-8v8zm8 0v8h8v-8h-8zm-16 16v8h8v-8h-8z"/>
  <path id="path4308-0" style="fill:#de4e81;fill-opacity:.31373" d="m-170.63 49.035v2.1354h64v-2.1354h-64zm16 13.333v2.1354h8v-2.1354h-8zm-8 8v2.1354h8v-2.1354h-8zm16 0v2.1354h8v-2.1354h-8zm-24 8v2.1354h8v-2.1354h-8zm8 8v2.1354h8v-2.1354h-8zm-16 16v2.1354h61.333v-2.1354h-61.333zm80 0-18.667 18.667v2.1354l18.667-18.667v-2.1354z"/>
  <path id="path4313-1" style="fill:#fff;fill-opacity:.23529" d="m-178.63 43.171v1.0677h80v-1.0677h-80zm24 13.333v1.0677h8v-1.0677h-8zm-8 8v1.0677h8v-1.0677h-8zm16 0v1.0677h8v-1.0677h-8zm-24 8v1.0677h8v-1.0677h-8zm8 8v1.0677h8v-1.0677h-8zm-8 8v1.0677h8v-1.0677h-8zm8 8v1.0677h56v-1.0677h-56z"/>
 </g>
 <rect id="rect892-2-7-8" style="opacity:.15891;stroke:#000;stroke-width:4.8445;fill:none" transform="scale(1,-1)" ry="28.993" height="114.35" width="114.22" y="-121.16" x="6.8687"/>
 <rect id="rect892-2-7-2-9" ry="28.067" style="stroke:#000;stroke-width:1.0489;fill:none" transform="scale(1,-1)" height="112.71" width="114.14" y="-120.31" x="7.0649"/>
 <g id="g17906" transform="matrix(2.3438 0 0 2.2539 224.79 41.695)"></g>
 <path id="path4891" d="m25.685 5.7862c3.6386-0.3502 2.8432 14.02 2.8432 14.02s16.093-0.84846 16.525 1.9543c3.85-3.268-16.654-16.76-19.368-15.974z" style="opacity:.3;fill-rule:evenodd;filter:url(#filter3198-5)" transform="matrix(0 2.6586 -4.0239 0 144.6 .66614)"/>
 <path id="path4893" d="m119.73 73.288c-2.4545 9.0829-45.538 8.1282-45.538 8.1282s2.8429 37.343-9.8394 38.247c7.4623 2.3478 45.184-27.13 53.678-41.628 1.0914-1.863 1.7002-3.4786 1.7002-4.7476z" style="fill:url(#linearGradient6921);fill-rule:evenodd"/>
</svg>
