<?xml version="1.0" encoding="UTF-8" standalone="no"?>
<!-- Created with Inkscape (http://www.inkscape.org/) -->
<svg id="svg3449" xmlns:rdf="http://www.w3.org/1999/02/22-rdf-syntax-ns#" xmlns="http://www.w3.org/2000/svg" height="128" width="128" version="1.0" xmlns:cc="http://creativecommons.org/ns#" xmlns:xlink="http://www.w3.org/1999/xlink" xmlns:dc="http://purl.org/dc/elements/1.1/">
 <metadata id="metadata56">
  <rdf:RDF>
   <cc:Work rdf:about="">
    <dc:format>image/svg+xml</dc:format>
    <dc:type rdf:resource="http://purl.org/dc/dcmitype/StillImage"/>
    <dc:title/>
   </cc:Work>
  </rdf:RDF>
 </metadata>
 <defs id="defs3451">
  <linearGradient id="linearGradient3514" y2="-9.1034" gradientUnits="userSpaceOnUse" x2="66.492" gradientTransform="matrix(.96826 0 0 .97948 2.179 .16587)" y1="-42.638" x1="67.952">
   <stop id="stop4620" style="stop-color:#37414b" offset="0"/>
   <stop id="stop4622" style="stop-color:#37414b;stop-opacity:0" offset="1"/>
  </linearGradient>
  <linearGradient id="linearGradient3516" y2="-11.847" gradientUnits="userSpaceOnUse" x2="58.98" gradientTransform="matrix(.96826 0 0 .97948 2.179 .16587)" y1="-118.55" x1="57.173">
   <stop id="stop4596" offset="0"/>
   <stop id="stop4598" style="stop-opacity:0" offset="1"/>
  </linearGradient>
  <linearGradient id="linearGradient3519" y2="50.369" gradientUnits="userSpaceOnUse" x2="76.558" gradientTransform="matrix(.96826 0 0 .97948 3.2423 -129.19)" y1="13.164" x1="76.558">
   <stop id="stop3392" style="stop-color:#425e7b" offset="0"/>
   <stop id="stop3394" style="stop-color:#7a91a7" offset="1"/>
  </linearGradient>
  <linearGradient id="linearGradient3521" y2="-8.7399" gradientUnits="userSpaceOnUse" x2="60.217" gradientTransform="matrix(.96826 0 0 .97948 2.179 .16587)" y1="-123.72" x1="60.395">
   <stop id="stop3392-4-8" style="stop-color:#425e7b" offset="0"/>
   <stop id="stop3394-8-0" style="stop-color:#7a91a7" offset="1"/>
  </linearGradient>
  <linearGradient id="linearGradient11577" y2="8.1" gradientUnits="userSpaceOnUse" y1="6.1438" x2="19.387" x1="19.49">
   <stop id="stop10999-9-0" offset="0"/>
   <stop id="stop11001-6-1" style="stop-opacity:0" offset="1"/>
  </linearGradient>
  <radialGradient id="radialGradient3382-9" gradientUnits="userSpaceOnUse" cy="-16.639" cx="2.6083" gradientTransform="matrix(9.2228e-8 1.4278 -2.2909 6.4501e-8 -14.117 4.9249)" r="23">
   <stop id="stop6546-7-5" style="stop-color:#f0f0f0" offset="0"/>
   <stop id="stop6548-9-0" style="stop-color:#d2d2d2" offset="1"/>
  </radialGradient>
  <style id="style1246" type="text/css">.fil0 {fill:#1F1A17}</style>
  <style id="style1115" type="text/css">.fil0 {fill:#1F1A17}</style>
  <style id="style3290" type="text/css">.fil2 {fill:#11A861}
    .fil0 {fill:#3777E3}
    .fil1 {fill:#FFCF63}</style>
  <filter id="filter4009-8" height="1.1597" width="1.2245" color-interpolation-filters="sRGB" y="-.079874" x="-.11224">
   <feGaussianBlur id="feGaussianBlur4011-6" stdDeviation="6.7803529"/>
  </filter>
  <filter id="filter4005-7" height="1.1529" width="1.2447" color-interpolation-filters="sRGB" y="-.076451" x="-.12233">
   <feGaussianBlur id="feGaussianBlur4007-7" stdDeviation="6.7803529"/>
  </filter>
  <filter id="filter4001-9" height="1.2573" width="1.1499" color-interpolation-filters="sRGB" y="-.12866" x="-.074929">
   <feGaussianBlur id="feGaussianBlur4003-7" stdDeviation="6.7803529"/>
  </filter>
  <filter id="filter3997-0" height="1.2208" width="1.1631" color-interpolation-filters="sRGB" y="-.11038" x="-.081571">
   <feGaussianBlur id="feGaussianBlur3999-7" stdDeviation="6.7803529"/>
  </filter>
  <filter id="filter3993-8" height="1.1447" width="1.2982" color-interpolation-filters="sRGB" y="-.072374" x="-.14909">
   <feGaussianBlur id="feGaussianBlur3995-4" stdDeviation="6.7803529"/>
  </filter>
  <filter id="filter3989-9" color-interpolation-filters="sRGB">
   <feGaussianBlur id="feGaussianBlur3991-1" stdDeviation="6.7803529"/>
  </filter>
  <filter id="filter3985-9" height="1.3108" width="1.1436" color-interpolation-filters="sRGB" y="-.15539" x="-.071801">
   <feGaussianBlur id="feGaussianBlur3987-0" stdDeviation="6.7803529"/>
  </filter>
  <filter id="filter4009" height="1.1597" width="1.2245" color-interpolation-filters="sRGB" y="-.079874" x="-.11224">
   <feGaussianBlur id="feGaussianBlur4011" stdDeviation="6.7803529"/>
  </filter>
  <filter id="filter4005" height="1.1529" width="1.2447" color-interpolation-filters="sRGB" y="-.076451" x="-.12233">
   <feGaussianBlur id="feGaussianBlur4007" stdDeviation="6.7803529"/>
  </filter>
  <filter id="filter4001" height="1.2573" width="1.1499" color-interpolation-filters="sRGB" y="-.12866" x="-.074929">
   <feGaussianBlur id="feGaussianBlur4003" stdDeviation="6.7803529"/>
  </filter>
  <filter id="filter3997" height="1.2208" width="1.1631" color-interpolation-filters="sRGB" y="-.11038" x="-.081571">
   <feGaussianBlur id="feGaussianBlur3999" stdDeviation="6.7803529"/>
  </filter>
  <filter id="filter3993" height="1.1447" width="1.2982" color-interpolation-filters="sRGB" y="-.072374" x="-.14909">
   <feGaussianBlur id="feGaussianBlur3995" stdDeviation="6.7803529"/>
  </filter>
  <filter id="filter3989" color-interpolation-filters="sRGB">
   <feGaussianBlur id="feGaussianBlur3991" stdDeviation="6.7803529"/>
  </filter>
  <filter id="filter3985" height="1.3108" width="1.1436" color-interpolation-filters="sRGB" y="-.15539" x="-.071801">
   <feGaussianBlur id="feGaussianBlur3987" stdDeviation="6.7803529"/>
  </filter>
  <linearGradient id="linearGradient14049" y2="55.288" gradientUnits="userSpaceOnUse" x2="379.75" gradientTransform="matrix(1.1667 0 0 1.1667 -145.83 -66.395)" y1="120.85" x1="379.75">
   <stop id="stop4107" style="stop-color:#034ab2" offset="0"/>
   <stop id="stop4109" style="stop-color:#66ecf7" offset="1"/>
  </linearGradient>
 </defs>
 <rect id="rect892-2-7-1" style="opacity:.15891;stroke:#000;stroke-width:7.7512;fill:none" transform="scale(1,-1)" ry="28.993" height="114.35" width="114.22" y="-121.16" x="6.8687"/>
 <rect id="rect892" style="stroke:url(#linearGradient3521);stroke-width:.97385;fill:url(#linearGradient3519)" transform="scale(1,-1)" ry="29.296" height="115.54" width="114.22" y="-122.25" x="7.0394"/>
 <rect id="rect892-2" style="stroke:url(#linearGradient3516);stroke-width:.97385;fill:url(#linearGradient3514)" transform="scale(1,-1)" ry="28.993" height="114.35" width="114.22" y="-121.46" x="7.0599"/>
 <g id="g14613" transform="matrix(0 2.6832 -2.7101 0 126.94 .046408)">
  <g id="layer1-7" transform="matrix(.99081 0 0 1.4848 .23097 -6.5159)">
   <path id="path4322" d="m27.794 5.7425c12.14 0.0144 14.403 0.8397 17.099 5.7745 0.323 2.66 0.151 5.345 0.107 8.495 1.652 17.048-7.327 14.594-31.941 14.125-12.933-1.192-10.645-7.029-10.337-22.467 3.0371-7.2073 10.203-5.863 25.072-5.9275z" style="fill-rule:evenodd;fill:url(#radialGradient3382-9)"/>
  </g>
 </g>
 <rect id="rect892-2-7-8" style="opacity:.15891;stroke:#000;stroke-width:4.8445;fill:none" transform="scale(1,-1)" ry="28.993" height="114.35" width="114.22" y="-121.16" x="6.8687"/>
 <rect id="rect892-2-7-2-9" ry="28.067" style="stroke:#000;stroke-width:1.0489;fill:none" transform="scale(1,-1)" height="112.71" width="114.14" y="-120.31" x="7.0649"/>
 <g id="g17906" transform="matrix(2.3438 0 0 2.2539 224.79 41.695)"></g>
 <path id="path3095" d="m324.39 135.62c-45.381 3.2742-125.15 80.453-113.93 80.062 92.777-3.2339 150.73 2.1051 223.12 24.581 10.719 3.328-11.566-97.11-109.18-104.64z" style="filter:url(#filter3985);enable-background:new;display:none;fill:#dbdbdb" transform="matrix(.17756 0 0 .17763 5.6577 26.512)"/>
 <path id="path3097" d="m186.38 72.15c-25.8 37.48-29.04 184.14-22.38 175.11 54.89-74.46 186.45-166.41 264.91-203.43 96.99-45.773-185.1-40.189-242.53 28.32z" style="stroke-width:0;filter:url(#filter3989);enable-background:new;display:none;fill:#dbdbdb" transform="matrix(.17756 0 0 .17763 5.6577 26.512)"/>
 <path id="path3099" d="m69.552 231.68c14.867 43 110.01 100.17 106.74 89.43-27.05-88.8-36.84-146.17-33.79-221.91 0.45-11.213-90.845 36.22-72.948 132.48z" style="filter:url(#filter3993);enable-background:new;display:none;fill:#dbdbdb" transform="matrix(.17756 0 0 .17763 5.6577 26.512)"/>
 <path id="path3101" d="m81.977 372.85c42.137 17.165 147.84-16.699 137.61-21.316-84.613-38.194-134.2-68.649-189.15-120.86-8.1358-7.7313-32.643 92.188 51.541 142.18z" style="filter:url(#filter3997);enable-background:new;display:none;fill:#dbdbdb" transform="matrix(.17756 0 0 .17763 5.6577 26.512)"/>
 <g id="g14041" transform="translate(-200.84 26.228)">
  <path id="path4488" style="fill-opacity:.058824;color:#000000" d="m264.84 0.7721c-21.263 0-38.5 17.237-38.5 38.5s17.237 38.5 38.5 38.5c5.57 0 10.861-1.1895 15.641-3.3177l-3.3177-7.4375c-3.763 1.6735-7.939 2.5886-12.323 2.5886-16.753 0-30.333-13.581-30.333-30.333 0-16.753 13.581-30.333 30.333-30.333 16.753 0 30.333 13.581 30.333 30.333h8.1667c0-21.263-17.237-38.5-38.5-38.5zm-8.1667 18.667s-5.8333 0-5.8333 5.8334v31.5h8.1666v-7-4.6667-16.333c0-0.80635 0.0125-1.1646 1.1667-1.1302 0.51728 0.015 1.2524-0.0365 2.3333-0.0365 7.0819 0.000025 12.833 2.4818 12.833 10.5-0.00003 6.5047-2.3334 9.3333-9.3334 10.5v8.1667c11.25-0.21925 17.935-9.698 17.5-18.667-0.4353-8.9686-7-18.667-21.255-18.667h-5.5781zm41.781 23.479c-1.8987-0.0475-3.603 1.2492-4.0469 3.1719-0.5073 2.1974 0.86515 4.3781 3.0625 4.8854s4.3781-0.82868 4.8854-3.026c0.5073-2.1974-0.86515-4.4146-3.0625-4.9219-0.27467-0.0635-0.5673-0.1025-0.83855-0.10925zm-4.8125 11.01c-1.3106 0.025-2.5865 0.67728-3.3542 1.8594-1.2283 1.8913-0.6882 4.4228 1.2031 5.651 1.8914 1.2283 4.4228 0.68822 5.651-1.2031s0.68822-4.4228-1.2031-5.651c-0.70925-0.4606-1.5105-0.67055-2.2969-0.65625zm-8.3125 8.75c-0.78545 0.0405-1.5486 0.29312-2.224 0.80208-1.801 1.3572-2.1593 3.9229-0.8021 5.724s3.9229 2.1593 5.724 0.8021c1.801-1.3572 2.1593-3.8864 0.80208-5.6875-0.84825-1.1257-2.1909-1.7083-3.5-1.6406z"/>
  <path id="path4486" d="m264.84-0.2279c-21.263 0-38.5 17.237-38.5 38.5s17.237 38.5 38.5 38.5c5.57 0 10.861-1.1895 15.641-3.3177l-3.3177-7.4375c-3.763 1.6735-7.939 2.5886-12.323 2.5886-16.753 0-30.333-13.581-30.333-30.333 0-16.753 13.581-30.333 30.333-30.333 16.753 0 30.333 13.581 30.333 30.333h8.1667c0-21.263-17.237-38.5-38.5-38.5zm-8.1667 18.667s-5.8333 0-5.8333 5.8334v31.5h8.1666v-7-4.6667-16.333c0-0.80635 0.0125-1.1646 1.1667-1.1302 0.51728 0.015 1.2524-0.0365 2.3333-0.0365 7.0819 0.000025 12.833 2.4818 12.833 10.5-0.00003 6.5047-2.3334 9.3333-9.3334 10.5v8.1667c11.25-0.21925 17.935-9.698 17.5-18.667-0.4353-8.9686-7-18.667-21.255-18.667h-5.5781zm41.781 23.479c-1.8987-0.0475-3.603 1.2492-4.0469 3.1719-0.5073 2.1974 0.86515 4.3781 3.0625 4.8854s4.3781-0.82868 4.8854-3.026c0.5073-2.1974-0.86515-4.4146-3.0625-4.9219-0.27467-0.0635-0.5673-0.1025-0.83855-0.10925zm-4.8125 11.01c-1.3106 0.025-2.5865 0.67728-3.3542 1.8594-1.2283 1.8913-0.6882 4.4228 1.2031 5.651 1.8914 1.2283 4.4228 0.68822 5.651-1.2031s0.68822-4.4228-1.2031-5.651c-0.70925-0.4606-1.5105-0.67055-2.2969-0.65625zm-8.3125 8.75c-0.78545 0.0405-1.5486 0.29312-2.224 0.80208-1.801 1.3572-2.1593 3.9229-0.8021 5.724s3.9229 2.1593 5.724 0.8021c1.801-1.3572 2.1593-3.8864 0.80208-5.6875-0.84825-1.1257-2.1909-1.7083-3.5-1.6406z" style="fill-opacity:.11765;color:#000000"/>
  <path id="path4482" style="fill-opacity:.23529;color:#000000" d="m264.84-1.2279c-21.263 0-38.5 17.237-38.5 38.5s17.237 38.5 38.5 38.5c5.57 0 10.861-1.1895 15.641-3.3177l-3.3177-7.4375c-3.763 1.6735-7.939 2.5886-12.323 2.5886-16.753 0-30.333-13.581-30.333-30.333 0-16.753 13.581-30.333 30.333-30.333 16.753 0 30.333 13.581 30.333 30.333h8.1667c0-21.263-17.237-38.5-38.5-38.5zm-8.1667 18.667s-5.8333 0-5.8333 5.8334v31.5h8.1666v-7-4.6667-16.333c0-0.80635 0.0125-1.1646 1.1667-1.1302 0.51728 0.015 1.2524-0.0365 2.3333-0.0365 7.0819 0.000025 12.833 2.4818 12.833 10.5-0.00003 6.5047-2.3334 9.3333-9.3334 10.5v8.1667c11.25-0.21925 17.935-9.698 17.5-18.667-0.4353-8.9686-7-18.667-21.255-18.667h-5.5781zm41.781 23.479c-1.8987-0.0475-3.603 1.2492-4.0469 3.1719-0.5073 2.1974 0.86515 4.3781 3.0625 4.8854s4.3781-0.82868 4.8854-3.026c0.5073-2.1974-0.86515-4.4146-3.0625-4.9219-0.27467-0.0635-0.5673-0.1025-0.83855-0.10925zm-4.8125 11.01c-1.3106 0.025-2.5865 0.67728-3.3542 1.8594-1.2283 1.8913-0.6882 4.4228 1.2031 5.651 1.8914 1.2283 4.4228 0.68822 5.651-1.2031s0.68822-4.4228-1.2031-5.651c-0.70925-0.4606-1.5105-0.67055-2.2969-0.65625zm-8.3125 8.75c-0.78545 0.0405-1.5486 0.29312-2.224 0.80208-1.801 1.3572-2.1593 3.9229-0.8021 5.724s3.9229 2.1593 5.724 0.8021c1.801-1.3572 2.1593-3.8864 0.80208-5.6875-0.84825-1.1257-2.1909-1.7083-3.5-1.6406z"/>
  <path id="path4155" d="m264.84-2.2279c-21.263 0-38.5 17.237-38.5 38.5s17.237 38.5 38.5 38.5c5.57 0 10.861-1.1895 15.641-3.3177l-3.3177-7.4375c-3.763 1.6735-7.939 2.5886-12.323 2.5886-16.753 0-30.333-13.581-30.333-30.333 0-16.753 13.581-30.333 30.333-30.333 16.753 0 30.333 13.581 30.333 30.333h8.1667c0-21.263-17.237-38.5-38.5-38.5zm-8.1667 18.667s-5.8333 0-5.8333 5.8334v31.5h8.1666v-7-4.6667-16.333c0-0.80635 0.0125-1.1646 1.1667-1.1302 0.51728 0.015 1.2524-0.0365 2.3333-0.0365 7.0819 0.000025 12.833 2.4818 12.833 10.5-0.00003 6.5047-2.3334 9.3333-9.3334 10.5v8.1667c11.25-0.21925 17.935-9.698 17.5-18.667-0.4353-8.9686-7-18.667-21.255-18.667h-5.5781zm41.781 23.479c-1.8987-0.0475-3.603 1.2492-4.0469 3.1719-0.5073 2.1974 0.86515 4.3781 3.0625 4.8854s4.3781-0.82868 4.8854-3.026c0.5073-2.1974-0.86515-4.4146-3.0625-4.9219-0.27467-0.0635-0.5673-0.1025-0.83855-0.10925zm-4.8125 11.01c-1.3106 0.025-2.5865 0.67728-3.3542 1.8594-1.2283 1.8913-0.6882 4.4228 1.2031 5.651 1.8914 1.2283 4.4228 0.68822 5.651-1.2031s0.68822-4.4228-1.2031-5.651c-0.70925-0.4606-1.5105-0.67055-2.2969-0.65625zm-8.3125 8.75c-0.78545 0.0405-1.5486 0.29312-2.224 0.80208-1.801 1.3572-2.1593 3.9229-0.8021 5.724s3.9229 2.1593 5.724 0.8021c1.801-1.3572 2.1593-3.8864 0.80208-5.6875-0.84825-1.1257-2.1909-1.7083-3.5-1.6406z" style="color:#000000;fill:url(#linearGradient14049)"/>
  <path id="path4490" style="fill-opacity:.31373;color:#000000" d="m264.84 3.9381c-16.753 0-30.332 13.579-30.332 30.332 0 0.33746 0.0379 0.66617 0.0488 1.001 0.53279-16.285 13.869-29.331 30.283-29.331 16.753 0 30.332 13.579 30.332 30.332h8.169c0-0.67602-0.0681-1.3345-0.10255-2.002h-8.0664c0.00001-16.753-13.579-30.332-30.332-30.332zm-2.334 18.667c-1.081 0-1.8167 0.05408-2.334 0.03908-1.1542-0.03439-1.167 0.32157-1.167 1.1279v2.002c0-0.80635 0.0128-1.1672 1.167-1.1328 0.51728 0.015 1.253-0.03418 2.334-0.03418 6.7563 0.000025 12.288 2.2685 12.783 9.4385 0.0127-0.31736 0.0488-0.60559 0.0488-0.94238-0.00005-8.0182-5.7501-10.498-12.832-10.498zm20.986 12.339c-0.48744 8.3801-7.0017 16.622-17.485 16.826v2.002c11.25-0.21925 17.935-9.6983 17.5-18.667-0.002-0.05345-0.0115-0.10763-0.0147-0.16113zm-57.104 0.32715c-0.009 0.33588-0.0488 0.66301-0.0488 1.001 0 21.263 17.238 38.501 38.501 38.501 5.57 0 10.86-1.1921 15.64-3.3203l-0.76172-1.7041c-4.582 1.9252-9.5964 3.0225-14.878 3.0225-20.925 0-37.917-16.704-38.452-37.5zm68.052 7.7148c-0.009 0.03542-0.0259 0.06667-0.0342 0.10255-0.50731 2.1974 0.86905 4.3804 3.0664 4.8877s4.3755-0.82997 4.8828-3.0273c0.15003-0.64983 0.1173-1.2957-0.0342-1.9043-0.55038 2.1364-2.6856 3.4291-4.8486 2.9297-1.5477-0.35731-2.6716-1.5495-3.0322-2.9883zm-43.599 8.7842v2.002h8.1641v-2.002h-8.1641zm46.821 2.2363c-0.10678 0.42468-0.27073 0.84284-0.52247 1.2305-1.2282 1.8914-3.7581 2.4294-5.6494 1.2012-0.89478-0.58108-1.473-1.4583-1.7188-2.417-0.41206 1.6463 0.2163 3.4432 1.7188 4.4189 1.8914 1.2283 4.4212 0.6853 5.6494-1.2061 0.64623-0.99509 0.79449-2.1611 0.52247-3.2275zm-8.1494 8.7207c-0.21602 0.87473-0.70309 1.6915-1.4844 2.2803-1.801 1.3572-4.3655 1.0003-5.7227-0.80078-0.33182-0.44034-0.56264-0.92774-0.69336-1.4307-0.28064 1.1509-0.0743 2.409 0.69336 3.4277 1.3572 1.8011 3.9216 2.158 5.7227 0.80078 1.3656-1.029 1.8965-2.729 1.4844-4.2773z"/>
  <path id="path4495" style="fill-opacity:.23529;color:#000000;fill:#fff" d="m264.84-2.2289c-21.263 0-38.501 17.238-38.501 38.501 0 0.16815 0.0223 0.3304 0.0244 0.49805 0.27226-21.029 17.383-37.998 38.477-37.998 20.925 0 37.916 16.704 38.452 37.5h0.0488c0.00001-21.263-17.238-38.501-38.501-38.501zm-8.169 18.667s-5.8301 0.0016-5.8301 5.835v1.001c0-5.8333 5.8301-5.835 5.8301-5.835h5.5811c14.255 0 20.82 9.6983 21.255 18.667 0.003-0.33398 0.0163-0.6679 0-1.001-0.4353-8.9687-6.9997-18.667-21.255-18.667h-5.5811zm18.643 19.141c-0.1201 6.1497-2.4892 8.8882-9.3066 10.024v1.001c7-1.1667 9.331-3.9934 9.3311-10.498-0.00001-0.18348-0.0185-0.34962-0.0245-0.52734zm-40.781 1.1914c-0.003 0.16915-0.0245 0.33311-0.0245 0.50293 0 16.753 13.579 30.332 30.332 30.332 4.3839 0 8.5612-0.91442 12.324-2.5879l2.9346 6.582c0.12445-0.05385 0.2571-0.09137 0.38086-0.14648l-3.3154-7.4365c-3.7629 1.6735-7.9402 2.5879-12.324 2.5879-16.584 0-30.039-13.314-30.308-29.834zm63.921 3.1494c-1.8987-0.0475-3.604 1.2462-4.0478 3.1689-0.11328 0.49067-0.12102 0.97963-0.0586 1.4502 0.0175-0.14982 0.0238-0.2987 0.0586-0.44922 0.4439-1.9227 2.1492-3.2213 4.0478-3.1738 0.27125 0.0067 0.56517 0.0488 0.83984 0.1123 1.7096 0.3947 2.906 1.8264 3.1201 3.4766 0.24013-2.0437-1.0716-4.0046-3.1201-4.4775-0.27467-0.0635-0.56859-0.10068-0.83984-0.10742zm-4.8096 11.011c-1.3106 0.025-2.5868 0.67337-3.3545 1.8555-0.54315 0.83637-0.72274 1.7962-0.61035 2.7148 0.0741-0.59284 0.26327-1.1794 0.61035-1.7139 0.76768-1.1821 2.0439-1.8354 3.3545-1.8604 0.78635-0.01425 1.5857 0.19858 2.2949 0.65918 1.0617 0.68946 1.6801 1.792 1.8164 2.959 0.19825-1.5126-0.45225-3.0741-1.8164-3.96-0.70925-0.4606-1.5086-0.6686-2.2949-0.6543zm-8.3154 8.75c-0.78545 0.0405-1.5463 0.29183-2.2217 0.80078-1.189 0.896-1.734 2.3146-1.5869 3.6963 0.14505-1.0362 0.68639-2.0167 1.5869-2.6953 0.6754-0.50895 1.4362-0.76516 2.2217-0.80566 1.3091-0.06765 2.6527 0.51495 3.501 1.6406 0.45772 0.60742 0.7033 1.3018 0.78125 2.002 0.14212-1.0242-0.10478-2.1003-0.78125-2.998-0.84825-1.1257-2.1919-1.7083-3.501-1.6406z"/>
 </g>
 <path id="path3103" d="m203.89 453.63c40.287-21.145 82.546-123.78 72.421-118.94-83.746 40.058-139 58.333-214.34 66.674-11.155 1.235 49.428 84.386 141.92 52.263z" style="filter:url(#filter4001);enable-background:new;display:none;fill:#dbdbdb" transform="matrix(.17756 0 0 .17763 5.6577 26.512)"/>
 <path id="path3105" d="m345.96 410.03c9.8413-44.421-41.301-142.93-44.134-132.07-23.435 89.827-45.125 143.83-87.365 206.77-6.2545 9.3191 96.362 16.69 131.5-74.696z" style="filter:url(#filter4005);enable-background:new;display:none;fill:#dbdbdb" transform="matrix(.17756 0 0 .17763 5.6577 26.512)"/>
 <path id="path3107" d="m401.89 270.24c-27.37-36.34-135.48-61.47-129.07-52.26 53.056 76.178 80.014 127.75 100.41 200.76 3.0202 10.809 75.297-62.406 28.659-148.49z" style="filter:url(#filter4009);enable-background:new;display:none;fill:#dbdbdb" transform="matrix(.17756 0 0 .17763 5.6577 26.512)"/>
 <path id="path3095-7" d="m324.39 135.62c-45.381 3.2742-125.15 80.453-113.93 80.062 92.777-3.2339 150.73 2.1051 223.12 24.581 10.719 3.328-11.566-97.11-109.18-104.64z" style="filter:url(#filter3985-9);enable-background:new;display:none;fill:#dbdbdb" transform="matrix(.17756 0 0 .17763 -472.59 -18.987)"/>
 <path id="path3097-4" d="m186.38 72.15c-25.8 37.48-29.04 184.14-22.38 175.11 54.89-74.46 186.45-166.41 264.91-203.43 96.99-45.773-185.1-40.189-242.53 28.32z" style="stroke-width:0;filter:url(#filter3989-9);enable-background:new;display:none;fill:#dbdbdb" transform="matrix(.17756 0 0 .17763 -472.59 -18.987)"/>
 <path id="path3099-9" d="m69.552 231.68c14.867 43 110.01 100.17 106.74 89.43-27.05-88.8-36.84-146.17-33.79-221.91 0.45-11.213-90.845 36.22-72.948 132.48z" style="filter:url(#filter3993-8);enable-background:new;display:none;fill:#dbdbdb" transform="matrix(.17756 0 0 .17763 -472.59 -18.987)"/>
 <path id="path3101-4" d="m81.977 372.85c42.137 17.165 147.84-16.699 137.61-21.316-84.613-38.194-134.2-68.649-189.15-120.86-8.1358-7.7313-32.643 92.188 51.541 142.18z" style="filter:url(#filter3997-0);enable-background:new;display:none;fill:#dbdbdb" transform="matrix(.17756 0 0 .17763 -472.59 -18.987)"/>
 <path id="path3103-3" d="m203.89 453.63c40.287-21.145 82.546-123.78 72.421-118.94-83.746 40.058-139 58.333-214.34 66.674-11.155 1.235 49.428 84.386 141.92 52.263z" style="filter:url(#filter4001-9);enable-background:new;display:none;fill:#dbdbdb" transform="matrix(.17756 0 0 .17763 -472.59 -18.987)"/>
 <path id="path3105-1" d="m345.96 410.03c9.8413-44.421-41.301-142.93-44.134-132.07-23.435 89.827-45.125 143.83-87.365 206.77-6.2545 9.3191 96.362 16.69 131.5-74.696z" style="filter:url(#filter4005-7);enable-background:new;display:none;fill:#dbdbdb" transform="matrix(.17756 0 0 .17763 -472.59 -18.987)"/>
 <path id="path3107-0" d="m401.89 270.24c-27.37-36.34-135.48-61.47-129.07-52.26 53.056 76.178 80.014 127.75 100.41 200.76 3.0202 10.809 75.297-62.406 28.659-148.49z" style="filter:url(#filter4009-8);enable-background:new;display:none;fill:#dbdbdb" transform="matrix(.17756 0 0 .17763 -472.59 -18.987)"/>
</svg>
