<?xml version="1.0" encoding="UTF-8" standalone="no"?>
<!-- Created with Inkscape (http://www.inkscape.org/) -->
<svg id="svg3449" xmlns:rdf="http://www.w3.org/1999/02/22-rdf-syntax-ns#" xmlns="http://www.w3.org/2000/svg" height="128" width="128" version="1.0" xmlns:cc="http://creativecommons.org/ns#" xmlns:xlink="http://www.w3.org/1999/xlink" xmlns:dc="http://purl.org/dc/elements/1.1/">
 <metadata id="metadata56">
  <rdf:RDF>
   <cc:Work rdf:about="">
    <dc:format>image/svg+xml</dc:format>
    <dc:type rdf:resource="http://purl.org/dc/dcmitype/StillImage"/>
    <dc:title/>
   </cc:Work>
  </rdf:RDF>
 </metadata>
 <defs id="defs3451">
  <linearGradient id="linearGradient3514" y2="-9.1034" gradientUnits="userSpaceOnUse" x2="66.492" gradientTransform="matrix(.96826 0 0 .97948 2.179 .16587)" y1="-42.638" x1="67.952">
   <stop id="stop4620" style="stop-color:#37414b" offset="0"/>
   <stop id="stop4622" style="stop-color:#37414b;stop-opacity:0" offset="1"/>
  </linearGradient>
  <linearGradient id="linearGradient3516" y2="-11.847" gradientUnits="userSpaceOnUse" x2="58.98" gradientTransform="matrix(.96826 0 0 .97948 2.179 .16587)" y1="-118.55" x1="57.173">
   <stop id="stop4596" offset="0"/>
   <stop id="stop4598" style="stop-opacity:0" offset="1"/>
  </linearGradient>
  <linearGradient id="linearGradient3519" y2="50.369" gradientUnits="userSpaceOnUse" x2="76.558" gradientTransform="matrix(.96826 0 0 .97948 3.2423 -129.19)" y1="13.164" x1="76.558">
   <stop id="stop3392" style="stop-color:#425e7b" offset="0"/>
   <stop id="stop3394" style="stop-color:#7a91a7" offset="1"/>
  </linearGradient>
  <linearGradient id="linearGradient3521" y2="-8.7399" gradientUnits="userSpaceOnUse" x2="60.217" gradientTransform="matrix(.96826 0 0 .97948 2.179 .16587)" y1="-123.72" x1="60.395">
   <stop id="stop3392-4-8" style="stop-color:#425e7b" offset="0"/>
   <stop id="stop3394-8-0" style="stop-color:#7a91a7" offset="1"/>
  </linearGradient>
  <linearGradient id="linearGradient4192" y2="31.742" gradientUnits="userSpaceOnUse" x2="121.11" y1="31.742" x1="6.5334">
   <stop id="stop4188" style="stop-color:#fff" offset="0"/>
   <stop id="stop4190" style="stop-color:#fff;stop-opacity:0" offset="1"/>
  </linearGradient>
  <linearGradient id="linearGradient11577" y2="8.1" gradientUnits="userSpaceOnUse" y1="6.1438" x2="19.387" x1="19.49">
   <stop id="stop10999-9-0" offset="0"/>
   <stop id="stop11001-6-1" style="stop-opacity:0" offset="1"/>
  </linearGradient>
  <filter id="filter3198-5" color-interpolation-filters="sRGB" width="1.1734" y="-.10752" x="-.086712" height="1.215">
   <feGaussianBlur id="feGaussianBlur3200-3" stdDeviation="0.71710775"/>
  </filter>
  <linearGradient id="linearGradient6921" y2="5.4565" gradientUnits="userSpaceOnUse" x2="36.358" gradientTransform="matrix(0 3.8171 -6.1772 0 129.98 -37.908)" y1="8.059" x1="32.892">
   <stop id="stop8591-7-2-1" style="stop-color:#fefefe" offset="0"/>
   <stop id="stop8593-2-4-5" style="stop-color:#cbcbcb" offset="1"/>
  </linearGradient>
  <radialGradient id="radialGradient6925" gradientUnits="userSpaceOnUse" cy="-16.639" cx="2.6083" gradientTransform="matrix(-5.7453 2.452e-7 -2.5955e-7 -6.0905 124.78 -36.865)" r="23">
   <stop id="stop12946" style="stop-color:#e43839" offset="0"/>
   <stop id="stop12948" style="stop-color:#e35757" offset="1"/>
  </radialGradient>
  <linearGradient id="linearGradient12942" y2="1013.4" gradientUnits="userSpaceOnUse" x2="25.433" gradientTransform="translate(207.73 -943.12)" y1="1043.4" x1="25.433">
   <stop id="stop4378" style="stop-color:#f5c3c3" offset="0"/>
   <stop id="stop4380" style="stop-color:#fef6f6" offset="1"/>
  </linearGradient>
 </defs>
 <rect id="rect892-2-7-1" style="opacity:.15891;stroke:#000;stroke-width:7.7512;fill:none" transform="scale(1,-1)" ry="28.993" height="114.35" width="114.22" y="-121.16" x="6.8687"/>
 <rect id="rect892" style="stroke:url(#linearGradient3521);stroke-width:.97385;fill:url(#linearGradient3519)" transform="scale(1,-1)" ry="29.296" height="115.54" width="114.22" y="-122.25" x="7.0394"/>
 <rect id="rect892-2" style="stroke:url(#linearGradient3516);stroke-width:.97385;fill:url(#linearGradient3514)" transform="scale(1,-1)" ry="28.993" height="114.35" width="114.22" y="-121.46" x="7.0599"/>
 <path id="path4322" d="m120.09 74.559c-1.82 3.831-41.638 40.371-56.018 45.741-66.185 6.38-58.724-19.48-56.838-84.917 4.797-34.382 28.284-28.298 90.407-27.48 28.999 8.074 22.189 27.125 22.449 66.656z" style="fill-rule:evenodd;fill:url(#radialGradient6925)"/>
 <g id="g12933" transform="matrix(2 0 0 2 -400.16 -107.57)">
  <g id="g12925">
   <path id="path4388" d="m230.22 71.44c-1.1506 0.062-2.3264 0.7846-2.3076 2.9739 0.21603 2.9451 0.91666 5.312 1.5933 7.6659 0.018 0.044 0.0121 0.1202-0.0139 0.1732-0.026 0.052-0.0766 0.1845-0.11157 0.2926-0.38336 1.088-0.81558 2.0897-1.2732 3.1227-1.226 2.7167-2.8221 5.6254-4.2618 7.9494-1.1088 1.6625-2.2344 3.4252-3.3154 4.7528-0.87781 0.9237-1.5609 1.8417-2.6718 2.2291-0.10036 0-0.2092 0.08-0.2092-0.1652-0.0581-0.5246 0.30026-1.5242 0.90854-2.247 0-0.057 0.8552-1.0091 1.5939-1.6779 0.77204-0.7383 1.5076-1.1188 2.069-1.5659 0.28518-0.2271 0.52537-0.4715 0.7025-0.7885 0-0.037-0.45777 0.2211-1.2512 0.6248-0.31844 0.1689-0.65201 0.3527-0.98425 0.5374-0.9065 0.7357-5.5737 2.63-3.8135 5.2624 1.0564 1.1574 2.2111 0.9055 3.0882 0.617 2.8556-1.342 4.5699-4.371 6.1187-7.2984 0.13913-0.2407 0.21479-0.3834 0.40845-0.4916 3.3046-1.0292 6.3086-1.9509 9.705-2.438 0.11227-0.024 0.19944 0.056 0.54359 0.2819 2.6838 1.7868 4.7014 2.6636 7.0834 2.6636 1.1589 0.019 1.5374-0.2411 2.4029-0.9076 0.22891-0.2286 0.60301-0.8114 0.5432-1.0344-0.55293 0.4306-1.3716 0.8414-1.9797 0.8414-1.9292 0-3.0486-0.5713-4.2438-1.1405-0.56282-0.2667-1.1787-0.6187-1.6816-0.9295-0.16568-0.095-0.0862-0.076 0.11955-0.1413 2.2128-0.1732 5.0392-0.444 6.5163 0.054 1.0258 0.2746 1.3385 0.9149 1.3385 1.2851 0.23834-0.8886 0.28313-1.5491-0.68269-2.2817-1.9878-1.1464-6.3864-0.2204-8.7781-0.069-2.6255-1.7953-3.928-3.5653-4.8055-4.8405-0.65654-0.9121-1.0169-1.8636-1.5144-2.882-0.2025-0.4997-0.22639-0.5877-0.1534-0.8598 0.177-0.6019 0.3336-1.1756 0.49412-1.7614 0.18764-0.666 0.35955-1.3298 0.52998-2.0082 0.11316-0.4777 0.21383-0.998 0.28093-1.3754 0.036-0.2215 0.0315-0.5547 0.0315-0.9297 0-2.2544-0.8711-3.4944-2.019-3.4944zm1.4121 2.2428c0.27154 1.063 0.10892 2.1196-0.12086 3.0882-0.23818 0.9131-0.54863 1.9009-0.76908 2.6863-0.23452 0.8742-0.30045 0.4612-0.35385 0.2621-0.0133-0.066-0.0469-0.2084-0.0737-0.3165-0.0797-0.3209-0.20777-0.9013-0.26499-1.2022-0.2134-1.1221-0.29385-1.779-0.3427-2.7724-0.0158-0.6098 0.10541-4.8941 1.9252-1.7455zm-1.3593 9.8122c0.69843 1.3656 1.4623 2.6196 2.1956 3.6882 0.72951 1.0167 1.4599 1.6865 2.3556 2.5692 0.4246 0.4242 0.0353 0.3934-0.11614 0.4339-2.8437 0.4804-5.5651 1.6312-8.135 2.5437 1.5869-2.9727 2.6463-6.5362 3.4748-9.3206 0.0759-0.2829 0.13716-0.067 0.22514 0.086z" style="fill-opacity:.058824"/>
   <path id="path4386" style="fill-opacity:.11765" d="m230.22 71.04c-1.1506 0.062-2.3264 0.7846-2.3076 2.9739 0.21603 2.9451 0.91666 5.312 1.5933 7.6659 0.018 0.044 0.0121 0.1202-0.0139 0.1732-0.026 0.052-0.0766 0.1845-0.11157 0.2926-0.38336 1.088-0.81558 2.0897-1.2732 3.1227-1.226 2.7167-2.8221 5.6254-4.2618 7.9494-1.1088 1.6625-2.2344 3.4252-3.3154 4.7528-0.87781 0.9237-1.5609 1.8417-2.6718 2.2291-0.10036 0-0.2092 0.08-0.2092-0.1652-0.0581-0.5246 0.30026-1.5242 0.90854-2.247 0-0.057 0.8552-1.0091 1.5939-1.6779 0.77204-0.7383 1.5076-1.1188 2.069-1.5659 0.28518-0.2271 0.52537-0.4715 0.7025-0.7885 0-0.037-0.45777 0.2211-1.2512 0.6248-0.31844 0.1689-0.65201 0.3527-0.98425 0.5374-0.9065 0.7357-5.5737 2.63-3.8135 5.2624 1.0564 1.1574 2.2111 0.9055 3.0882 0.617 2.8556-1.342 4.5699-4.371 6.1187-7.2984 0.13913-0.2407 0.21479-0.3834 0.40845-0.4916 3.3046-1.0292 6.3086-1.9509 9.705-2.438 0.11227-0.024 0.19944 0.056 0.54359 0.2819 2.6838 1.7868 4.7014 2.6636 7.0834 2.6636 1.1589 0.019 1.5374-0.2411 2.4029-0.9076 0.22891-0.2286 0.60301-0.8114 0.5432-1.0344-0.55293 0.4306-1.3716 0.8414-1.9797 0.8414-1.9292 0-3.0486-0.5713-4.2438-1.1405-0.56282-0.2667-1.1787-0.6187-1.6816-0.9295-0.16568-0.095-0.0862-0.076 0.11955-0.1413 2.2128-0.1732 5.0392-0.444 6.5163 0.054 1.0258 0.2746 1.3385 0.9149 1.3385 1.2851 0.23834-0.8886 0.28313-1.5491-0.68269-2.2817-1.9878-1.1464-6.3864-0.2204-8.7781-0.069-2.6255-1.7953-3.928-3.5653-4.8055-4.8405-0.65654-0.9121-1.0169-1.8636-1.5144-2.882-0.2025-0.4997-0.22639-0.5877-0.1534-0.8598 0.177-0.6019 0.3336-1.1756 0.49412-1.7614 0.18764-0.666 0.35955-1.3298 0.52998-2.0082 0.11316-0.4777 0.21383-0.998 0.28093-1.3754 0.036-0.2215 0.0315-0.5547 0.0315-0.9297 0-2.2544-0.8711-3.4944-2.019-3.4944zm1.4121 2.2428c0.27154 1.063 0.10892 2.1196-0.12086 3.0882-0.23818 0.9131-0.54863 1.9009-0.76908 2.6863-0.23452 0.8742-0.30045 0.4612-0.35385 0.2621-0.0133-0.066-0.0469-0.2084-0.0737-0.3165-0.0797-0.3209-0.20777-0.9013-0.26499-1.2022-0.2134-1.1221-0.29385-1.779-0.3427-2.7724-0.0158-0.6098 0.10541-4.8941 1.9252-1.7455zm-1.3593 9.8122c0.69843 1.3656 1.4623 2.6196 2.1956 3.6882 0.72951 1.0167 1.4599 1.6865 2.3556 2.5692 0.4246 0.4242 0.0353 0.3934-0.11614 0.4339-2.8437 0.4804-5.5651 1.6312-8.135 2.5437 1.5869-2.9727 2.6463-6.5362 3.4748-9.3206 0.0759-0.2829 0.13716-0.067 0.22514 0.086z"/>
   <path id="path4382" d="m230.22 70.64c-1.1506 0.062-2.3264 0.7846-2.3076 2.9739 0.21603 2.9451 0.91666 5.312 1.5933 7.6659 0.018 0.044 0.0121 0.1202-0.0139 0.1732-0.026 0.052-0.0766 0.1845-0.11157 0.2926-0.38336 1.088-0.81558 2.0897-1.2732 3.1227-1.226 2.7167-2.8221 5.6254-4.2618 7.9494-1.1088 1.6625-2.2344 3.4252-3.3154 4.7528-0.87781 0.9237-1.5609 1.8417-2.6718 2.2291-0.10036 0-0.2092 0.08-0.2092-0.1652-0.0581-0.5246 0.30026-1.5242 0.90854-2.247 0-0.057 0.8552-1.0091 1.5939-1.6779 0.77204-0.7383 1.5076-1.1188 2.069-1.5659 0.28518-0.2271 0.52537-0.4715 0.7025-0.7885 0-0.037-0.45777 0.2211-1.2512 0.6248-0.31844 0.1689-0.65201 0.3527-0.98425 0.5374-0.9065 0.7357-5.5737 2.63-3.8135 5.2624 1.0564 1.1574 2.2111 0.9055 3.0882 0.617 2.8556-1.342 4.5699-4.371 6.1187-7.2984 0.13913-0.2407 0.21479-0.3834 0.40845-0.4916 3.3046-1.0292 6.3086-1.9509 9.705-2.438 0.11227-0.024 0.19944 0.056 0.54359 0.2819 2.6838 1.7868 4.7014 2.6636 7.0834 2.6636 1.1589 0.019 1.5374-0.2411 2.4029-0.9076 0.22891-0.2286 0.60301-0.8114 0.5432-1.0344-0.55293 0.4306-1.3716 0.8414-1.9797 0.8414-1.9292 0-3.0486-0.5713-4.2438-1.1405-0.56282-0.2667-1.1787-0.6187-1.6816-0.9295-0.16568-0.095-0.0862-0.076 0.11955-0.1413 2.2128-0.1732 5.0392-0.444 6.5163 0.054 1.0258 0.2746 1.3385 0.9149 1.3385 1.2851 0.23834-0.8886 0.28313-1.5491-0.68269-2.2817-1.9878-1.1464-6.3864-0.2204-8.7781-0.069-2.6255-1.7953-3.928-3.5653-4.8055-4.8405-0.65654-0.9121-1.0169-1.8636-1.5144-2.882-0.2025-0.4997-0.22639-0.5877-0.1534-0.8598 0.177-0.6019 0.3336-1.1756 0.49412-1.7614 0.18764-0.666 0.35955-1.3298 0.52998-2.0082 0.11316-0.4777 0.21383-0.998 0.28093-1.3754 0.036-0.2215 0.0315-0.5547 0.0315-0.9297 0-2.2544-0.8711-3.4944-2.019-3.4944zm1.4121 2.2428c0.27154 1.063 0.10892 2.1196-0.12086 3.0882-0.23818 0.9131-0.54863 1.9009-0.76908 2.6863-0.23452 0.8742-0.30045 0.4612-0.35385 0.2621-0.0133-0.066-0.0469-0.2084-0.0737-0.3165-0.0797-0.3209-0.20777-0.9013-0.26499-1.2022-0.2134-1.1221-0.29385-1.779-0.3427-2.7724-0.0158-0.6098 0.10541-4.8941 1.9252-1.7455zm-1.3593 9.8122c0.69843 1.3656 1.4623 2.6196 2.1956 3.6882 0.72951 1.0167 1.4599 1.6865 2.3556 2.5692 0.4246 0.4242 0.0353 0.3934-0.11614 0.4339-2.8437 0.4804-5.5651 1.6312-8.135 2.5437 1.5869-2.9727 2.6463-6.5362 3.4748-9.3206 0.0759-0.2829 0.13716-0.067 0.22514 0.086z" style="fill-opacity:.23529"/>
   <path id="path4290" style="fill:url(#linearGradient12942)" d="m230.22 70.24c-1.1506 0.062-2.3264 0.7846-2.3076 2.9739 0.21603 2.9451 0.91666 5.312 1.5933 7.6659 0.018 0.044 0.0121 0.1202-0.0139 0.1732-0.026 0.052-0.0766 0.1845-0.11157 0.2926-0.38336 1.088-0.81558 2.0897-1.2732 3.1227-1.226 2.7167-2.8221 5.6254-4.2618 7.9494-1.1088 1.6625-2.2344 3.4252-3.3154 4.7528-0.87781 0.9237-1.5609 1.8417-2.6718 2.2291-0.10036 0-0.2092 0.08-0.2092-0.1652-0.0581-0.5246 0.30026-1.5242 0.90854-2.247 0-0.057 0.8552-1.0091 1.5939-1.6779 0.77204-0.7383 1.5076-1.1188 2.069-1.5659 0.28518-0.2271 0.52537-0.4715 0.7025-0.7885 0-0.037-0.45777 0.2211-1.2512 0.6248-0.31844 0.1689-0.65201 0.3527-0.98425 0.5374-0.9065 0.7357-5.5737 2.63-3.8135 5.2624 1.0564 1.1574 2.2111 0.9055 3.0882 0.617 2.8556-1.342 4.5699-4.371 6.1187-7.2984 0.13913-0.2407 0.21479-0.3834 0.40845-0.4916 3.3046-1.0292 6.3086-1.9509 9.705-2.438 0.11227-0.024 0.19944 0.056 0.54359 0.2819 2.6838 1.7868 4.7014 2.6636 7.0834 2.6636 1.1589 0.019 1.5374-0.2411 2.4029-0.9076 0.22891-0.2286 0.60301-0.8114 0.5432-1.0344-0.55293 0.4306-1.3716 0.8414-1.9797 0.8414-1.9292 0-3.0486-0.5713-4.2438-1.1405-0.56282-0.2667-1.1787-0.6187-1.6816-0.9295-0.16568-0.095-0.0862-0.076 0.11955-0.1413 2.2128-0.1732 5.0392-0.444 6.5163 0.054 1.0258 0.2746 1.3385 0.9149 1.3385 1.2851 0.23834-0.8886 0.28313-1.5491-0.68269-2.2817-1.9878-1.1464-6.3864-0.2204-8.7781-0.069-2.6255-1.7953-3.928-3.5653-4.8055-4.8405-0.65654-0.9121-1.0169-1.8636-1.5144-2.882-0.2025-0.4997-0.22639-0.5877-0.1534-0.8598 0.177-0.6019 0.3336-1.1756 0.49412-1.7614 0.18764-0.666 0.35955-1.3298 0.52998-2.0082 0.11316-0.4777 0.21383-0.998 0.28093-1.3754 0.036-0.2215 0.0315-0.5547 0.0315-0.9297 0-2.2544-0.8711-3.4944-2.019-3.4944zm1.4121 2.2428c0.27154 1.063 0.10892 2.1196-0.12086 3.0882-0.23818 0.9131-0.54863 1.9009-0.76908 2.6863-0.23452 0.8742-0.30045 0.4612-0.35385 0.2621-0.0133-0.066-0.0469-0.2084-0.0737-0.3165-0.0797-0.3209-0.20777-0.9013-0.26499-1.2022-0.2134-1.1221-0.29385-1.779-0.3427-2.7724-0.0158-0.6098 0.10541-4.8941 1.9252-1.7455zm-1.3593 9.8122c0.69843 1.3656 1.4623 2.6196 2.1956 3.6882 0.72951 1.0167 1.4599 1.6865 2.3556 2.5692 0.4246 0.4242 0.0353 0.3934-0.11614 0.4339-2.8437 0.4804-5.5651 1.6312-8.135 2.5437 1.5869-2.9727 2.6463-6.5362 3.4748-9.3206 0.0759-0.2829 0.13716-0.067 0.22514 0.086z"/>
   <path id="path4390" style="fill:#dc2728;fill-opacity:.31373" d="m230.56 70.542c-0.80107-0.09477-0.86534 2.4294-0.85352 2.8867 0.005 0.09429 0.0162 0.165 0.0215 0.25391 0.0458-1.2222 0.33939-3.9068 1.9043-1.1992 0.0674 0.26374 0.10547 0.52736 0.125 0.78906 0.0365-0.52128 0.0117-1.0549-0.125-1.5898-0.45495-0.78715-0.80524-1.109-1.0723-1.1406zm-2.6152 2.1504c-0.0154 0.1679-0.0348 0.33217-0.0332 0.52148 0.20452 2.7881 0.84469 5.0558 1.4863 7.2871 0.0329-0.09571 0.0717-0.20405 0.0937-0.24805 0.026-0.053 0.0317-0.12983 0.0137-0.17383-0.65424-2.276-1.3212-4.5756-1.5606-7.3867zm4.2774 0.71484c-0.004 0.15376 0.002 0.34665-0.0156 0.45508-0.0671 0.3774-0.16809 0.89925-0.28125 1.377-0.17044 0.6784-0.34166 1.3418-0.5293 2.0078-0.16051 0.5858-0.31714 1.1598-0.49414 1.7617-0.0538 0.20046-0.0255 0.34903 0.0586 0.58789 0.15183-0.52445 0.29424-1.0351 0.43555-1.5508 0.18763-0.666 0.35886-1.3294 0.52929-2.0078 0.11316-0.4777 0.21416-0.9976 0.28125-1.375 0.036-0.2215 0.0312-0.55469 0.0312-0.92969 0-0.11534-0.0111-0.21618-0.0156-0.32617zm-2.1211 7.875c-0.0178 0.01715-0.0357 0.05623-0.0547 0.12695-0.82846 2.7844-1.8878 6.3476-3.4746 9.3203 0.15893-0.05643 0.33016-0.1197 0.49024-0.17773 1.3188-2.7531 2.2447-5.8559 2.9844-8.3418 0.0756-0.28189 0.13909-0.06696 0.22657 0.08594 0.69822 1.365 1.4623 2.6193 2.1953 3.6875 0.63364 0.88309 1.2866 1.5176 2.0293 2.2441 0.0699-0.01263 0.13894-0.02918 0.20898-0.04102 0.15139-0.0405 0.54179-0.0094 0.11719-0.43359-0.89573-0.8827-1.626-1.5536-2.3555-2.5703-0.73332-1.0686-1.4969-2.3219-2.1953-3.6875-0.066-0.11475-0.11851-0.26434-0.17188-0.21289zm12.414 7.0957c-1.1678 0.0271-2.4268 0.13801-3.5332 0.22461-0.20572 0.0653-0.28677 0.04563-0.12109 0.14062 0.3111 0.19226 0.66519 0.39404 1.0234 0.58789 2.0359-0.16013 4.3274-0.30851 5.6133 0.125 0.54221 0.14515 0.87524 0.39283 1.0781 0.64844 0.0634-0.04432 0.13336-0.0876 0.19141-0.13281 0.0201 0.07484-0.0184 0.19532-0.0742 0.32422 0.0871 0.16248 0.14258 0.32005 0.14258 0.44531 0.12492-0.46575 0.19282-0.8683 0.0937-1.252-0.0256 0.14682-0.0509 0.29134-0.0937 0.45117 0-0.3702-0.31213-1.0106-1.3379-1.2852-0.73857-0.249-1.8146-0.30444-2.9824-0.27734zm-6.3223 0.58984c-2.4493 0.35126-4.6951 0.93268-6.9961 1.6133-0.88288 0.32134-1.7743 0.64715-2.625 0.94922 0.0306-0.05723 0.0577-0.11813 0.0879-0.17578-0.0582 0.0181-0.11354 0.03457-0.17188 0.05273-0.19365 0.1082-0.26908 0.24953-0.4082 0.49023-1.5488 2.9274-3.2636 5.9568-6.1191 7.2988-0.56723 0.18656-1.2496 0.35197-1.9473 0.13672-0.0524 0.02147-0.10182 0.04743-0.15625 0.06641-0.10036 0-0.20898 0.07919-0.20898-0.16602-0.001-0.01253 0.005-0.03186 0.004-0.04492-0.26205-0.13448-0.52346-0.32906-0.7793-0.60938-0.17997-0.26915-0.27751-0.52798-0.33398-0.78125-0.11201 0.49148-0.0426 1.0189 0.33398 1.582 1.0564 1.1574 2.2107 0.90568 3.0879 0.61719 2.8556-1.342 4.5703-4.3714 6.1191-7.2988 0.13913-0.2407 0.21455-0.38399 0.4082-0.49219 3.3046-1.0292 6.3086-1.9504 9.7051-2.4375 0.11228-0.024 0.20078 0.05535 0.54492 0.28125 2.6838 1.7868 4.7001 2.6641 7.082 2.6641 1.1588 0.019 1.5388-0.2417 2.4043-0.9082 0.22892-0.2286 0.60278-0.8102 0.54297-1.0332-0.30028 0.23384-0.67785 0.45569-1.0586 0.61524-0.55249 0.38174-0.98848 0.54015-1.8887 0.52539-2.382 0-4.3983-0.87531-7.082-2.6621-0.34414-0.2259-0.43264-0.3072-0.54492-0.2832zm-13.271 3.9863c0-0.037-0.45654 0.2213-1.25 0.625-0.31845 0.1689-0.65214 0.35241-0.98438 0.53711-0.082 0.06655-0.22338 0.15309-0.35937 0.23828-0.0598 0.0535-0.11744 0.09663-0.17774 0.1543-0.73873 0.6688-1.5938 1.6207-1.5938 1.6777-0.60828 0.7228-0.96633 1.7234-0.9082 2.248 0 0.13263 0.033 0.16737 0.0781 0.17383 0.12916-0.51248 0.41449-1.1273 0.83008-1.6211 0-0.057 0.85502-1.0089 1.5938-1.6777 0.77204-0.7383 1.509-1.1193 2.0703-1.5664 0.28518-0.2271 0.52404-0.47206 0.70118-0.78906z"/>
   <path id="path4095" style="fill:#fff;fill-opacity:.23529" d="m230.22 70.24c-1.1506 0.062-2.3274 0.78531-2.3086 2.9746 0.004 0.04906 0.0118 0.09189 0.0156 0.14062 0.0783-1.9756 1.1919-2.6555 2.293-2.7148 1.1187 0 1.967 1.1854 2.0098 3.332 0.00017-0.08944 0.008-0.14217 0.008-0.23828 0.00001-2.2544-0.86968-3.4941-2.0176-3.4941zm1.5391 3.8223c-0.0354 0.5181-0.13316 1.0255-0.24805 1.5098-0.23818 0.9131-0.54908 1.9001-0.76953 2.6855-0.23453 0.8742-0.30011 0.46082-0.35352 0.26172-0.0133-0.066-0.0474-0.20831-0.0742-0.31641-0.0797-0.3209-0.20839-0.90027-0.26562-1.2012-0.20328-1.0689-0.28243-1.7289-0.33203-2.6465-0.00079 0.07529-0.0109 0.23058-0.01 0.27344 0.0488 0.9934 0.12839 1.6513 0.34179 2.7734 0.0572 0.3009 0.18593 0.88027 0.26563 1.2012 0.0269 0.1081 0.0609 0.25041 0.0742 0.31641 0.0534 0.1991 0.11899 0.61248 0.35351-0.26172 0.22045-0.7854 0.53136-1.7724 0.76954-2.6855 0.14418-0.60778 0.24742-1.2532 0.24804-1.9102zm-0.85938 6.166c-0.0655 0.25474-0.0405 0.35428 0.15625 0.83984 0.49744 1.0184 0.85714 1.9707 1.5137 2.8828 0.87747 1.2752 2.1792 3.0445 4.8047 4.8398 2.3918-0.1514 6.7914-1.0761 8.7793 0.07031 0.55466 0.42072 0.7697 0.81802 0.8125 1.248 0.0667-0.59327-0.0897-1.1002-0.8125-1.6484-1.9878-1.1464-6.3875-0.22171-8.7793-0.07031-2.6255-1.7953-3.9272-3.5646-4.8047-4.8398-0.65653-0.9121-1.0162-1.8625-1.5137-2.8809-0.0867-0.214-0.12862-0.33162-0.15625-0.44141zm-1.4375 0.90234c-0.0267 0.06419-0.0562 0.13506-0.082 0.21484-0.38335 1.088-0.81586 2.09-1.2734 3.123-1.226 2.7167-2.822 5.6252-4.2617 7.9492-1.1088 1.6625-2.2354 3.4263-3.3164 4.7539-0.87781 0.9237-1.561 1.8411-2.6719 2.2285-0.0768 0-0.15724 0.04487-0.1914-0.04297-0.009 0.09546-0.0261 0.20008-0.0176 0.27734 0 0.2452 0.10863 0.16602 0.20898 0.16602 1.1109-0.3874 1.7941-1.3048 2.6719-2.2285 1.081-1.3276 2.2076-3.0914 3.3164-4.7539 1.4397-2.324 3.0357-5.2325 4.2617-7.9492 0.45758-1.033 0.89009-2.035 1.2734-3.123 0.035-0.1081 0.0853-0.24097 0.11133-0.29297 0.026-0.053 0.0317-0.12788 0.0137-0.17188-0.0143-0.04982-0.0286-0.10055-0.043-0.15039zm5.3633 7.8242c-0.0444 0.0074-0.0864 0.02249-0.11914 0.03125-2.7556 0.46551-5.3893 1.5593-7.8887 2.457-0.082 0.1624-0.1611 0.32906-0.24609 0.48828 2.5699-0.9125 5.291-2.0645 8.1348-2.5449 0.15104-0.04041 0.5391-0.01046 0.11914-0.43164zm4.4375 0.82617c-0.0912 0.0073-0.19195 0.01449-0.28125 0.02148-0.20572 0.0653-0.28677 0.04758-0.12109 0.14258 0.50291 0.3108 1.1188 0.66104 1.6816 0.92773 1.1953 0.5692 2.3149 1.1406 4.2441 1.1406 0.55415 0 1.275-0.34217 1.8184-0.72852 0.10391-0.18396 0.16945-0.36008 0.1582-0.47461-0.003-0.0078-0.0122-0.01561-0.0156-0.02344-0.55258 0.4255-1.3593 0.82812-1.9609 0.82812-1.9292 0-3.0489-0.57142-4.2442-1.1406-0.42444-0.20113-0.8657-0.44946-1.2793-0.69336zm-16.342 3.1738c0-0.037-0.45654 0.2213-1.25 0.625-0.31845 0.1689-0.65214 0.35241-0.98438 0.53711-0.78703 0.63874-4.4043 2.1535-4.1934 4.2637 0.23717-1.9019 3.4568-3.2655 4.1934-3.8633 0.33224-0.1847 0.66593-0.36821 0.98438-0.53711 0.40566-0.20639 0.42481-0.21001 0.63867-0.32031 0.24271-0.20499 0.45471-0.4248 0.61133-0.70508z"/>
  </g>
 </g>
 <rect id="rect892-2-7-8" style="opacity:.15891;stroke:#000;stroke-width:4.8445;fill:none" transform="scale(1,-1)" ry="28.993" height="114.35" width="114.22" y="-121.16" x="6.8687"/>
 <rect id="rect892-2-7-2-9" ry="28.067" style="stroke:#000;stroke-width:1.0489;fill:none" transform="scale(1,-1)" height="112.71" width="114.14" y="-120.31" x="7.0649"/>
 <g id="g17906" transform="matrix(2.3438 0 0 2.2539 224.79 41.695)"></g>
 <path id="path4891" d="m25.685 5.7862c3.6386-0.3502 2.8432 14.02 2.8432 14.02s16.093-0.84846 16.525 1.9543c3.85-3.268-16.654-16.76-19.368-15.974z" style="opacity:.3;fill-rule:evenodd;filter:url(#filter3198-5)" transform="matrix(0 2.6586 -4.0239 0 144.6 .66614)"/>
 <path id="path4893" d="m120.42 71.909c-2.6379 9.487-48.941 8.4899-48.941 8.4899s3.0553 39.005-10.575 39.949c8.02 2.4523 48.56-28.337 57.689-43.48 1.1729-1.9458 1.8272-3.6334 1.8272-4.9589z" style="fill:url(#linearGradient6921);fill-rule:evenodd"/>
</svg>
