<?xml version="1.0" encoding="UTF-8" standalone="no"?>
<!-- Created with Inkscape (http://www.inkscape.org/) -->
<svg id="svg3449" xmlns:rdf="http://www.w3.org/1999/02/22-rdf-syntax-ns#" xmlns="http://www.w3.org/2000/svg" height="128" width="128" version="1.0" xmlns:cc="http://creativecommons.org/ns#" xmlns:xlink="http://www.w3.org/1999/xlink" xmlns:dc="http://purl.org/dc/elements/1.1/">
 <metadata id="metadata56">
  <rdf:RDF>
   <cc:Work rdf:about="">
    <dc:format>image/svg+xml</dc:format>
    <dc:type rdf:resource="http://purl.org/dc/dcmitype/StillImage"/>
    <dc:title/>
   </cc:Work>
  </rdf:RDF>
 </metadata>
 <defs id="defs3451">
  <linearGradient id="linearGradient3514" y2="-9.1034" gradientUnits="userSpaceOnUse" x2="66.492" gradientTransform="matrix(.96826 0 0 .97948 2.179 .16587)" y1="-42.638" x1="67.952">
   <stop id="stop4620" style="stop-color:#37414b" offset="0"/>
   <stop id="stop4622" style="stop-color:#37414b;stop-opacity:0" offset="1"/>
  </linearGradient>
  <linearGradient id="linearGradient3516" y2="-11.847" gradientUnits="userSpaceOnUse" x2="58.98" gradientTransform="matrix(.96826 0 0 .97948 2.179 .16587)" y1="-118.55" x1="57.173">
   <stop id="stop4596" offset="0"/>
   <stop id="stop4598" style="stop-opacity:0" offset="1"/>
  </linearGradient>
  <linearGradient id="linearGradient3519" y2="50.369" gradientUnits="userSpaceOnUse" x2="76.558" gradientTransform="matrix(.96826 0 0 .97948 3.2423 -129.19)" y1="13.164" x1="76.558">
   <stop id="stop3392" style="stop-color:#425e7b" offset="0"/>
   <stop id="stop3394" style="stop-color:#7a91a7" offset="1"/>
  </linearGradient>
  <linearGradient id="linearGradient3521" y2="-8.7399" gradientUnits="userSpaceOnUse" x2="60.217" gradientTransform="matrix(.96826 0 0 .97948 2.179 .16587)" y1="-123.72" x1="60.395">
   <stop id="stop3392-4-8" style="stop-color:#425e7b" offset="0"/>
   <stop id="stop3394-8-0" style="stop-color:#7a91a7" offset="1"/>
  </linearGradient>
  <linearGradient id="linearGradient4192" y2="31.742" gradientUnits="userSpaceOnUse" x2="121.11" y1="31.742" x1="6.5334">
   <stop id="stop4188" style="stop-color:#fff" offset="0"/>
   <stop id="stop4190" style="stop-color:#fff;stop-opacity:0" offset="1"/>
  </linearGradient>
  <linearGradient id="linearGradient11577" y2="8.1" gradientUnits="userSpaceOnUse" y1="6.1438" x2="19.387" x1="19.49">
   <stop id="stop10999-9-0" offset="0"/>
   <stop id="stop11001-6-1" style="stop-opacity:0" offset="1"/>
  </linearGradient>
  <filter id="filter3198-5" color-interpolation-filters="sRGB" width="1.1734" y="-.10752" x="-.086712" height="1.215">
   <feGaussianBlur id="feGaussianBlur3200-3" stdDeviation="0.71710775"/>
  </filter>
  <linearGradient id="linearGradient6921" y2="5.4565" gradientUnits="userSpaceOnUse" x2="36.358" gradientTransform="matrix(0 3.8171 -6.1772 0 129.98 -37.908)" y1="8.059" x1="32.892">
   <stop id="stop8591-7-2-1" style="stop-color:#fefefe" offset="0"/>
   <stop id="stop8593-2-4-5" style="stop-color:#cbcbcb" offset="1"/>
  </linearGradient>
  <radialGradient id="radialGradient6925" gradientUnits="userSpaceOnUse" cy="-16.639" cx="2.6083" gradientTransform="matrix(-5.7453 2.452e-7 -2.5955e-7 -6.0905 124.78 -36.865)" r="23">
   <stop id="stop6546-7-5" style="stop-color:#7b7b7b" offset="0"/>
   <stop id="stop6548-9-0" style="stop-color:#404040" offset="1"/>
  </radialGradient>
  <linearGradient id="linearGradient7367-8" y2="9" gradientUnits="userSpaceOnUse" x2="28.991" gradientTransform="matrix(2.006 0 0 2.006 224.28 23.302)" y1="39" x1="28.991">
   <stop id="stop4159-4" style="stop-color:#dadcde" offset="0"/>
   <stop id="stop4161-7" style="stop-color:#fafafa" offset="1"/>
  </linearGradient>
 </defs>
 <rect id="rect892-2-7-1" style="opacity:.15891;stroke:#000;stroke-width:7.7512;fill:none" transform="scale(1,-1)" ry="28.993" height="114.35" width="114.22" y="-121.16" x="6.8687"/>
 <rect id="rect892" style="stroke:url(#linearGradient3521);stroke-width:.97385;fill:url(#linearGradient3519)" transform="scale(1,-1)" ry="29.296" height="115.54" width="114.22" y="-122.25" x="7.0394"/>
 <rect id="rect892-2" style="stroke:url(#linearGradient3516);stroke-width:.97385;fill:url(#linearGradient3514)" transform="scale(1,-1)" ry="28.993" height="114.35" width="114.22" y="-121.46" x="7.0599"/>
 <path id="path4322" d="m120.09 74.559c-1.82 3.831-41.638 40.371-56.018 45.741-66.185 6.38-58.724-19.48-56.838-84.917 4.797-34.382 28.284-28.298 90.407-27.48 28.999 8.074 22.189 27.125 22.449 66.656z" style="fill-rule:evenodd;fill:url(#radialGradient6925)"/>
 <g id="g7376" transform="translate(-209.12 -8.54)">
  <path id="path4169" style="fill-opacity:.058824" d="m272.43 43.763c-16.67 0-30.09 13.42-30.09 30.09s13.42 30.09 30.09 30.09 30.09-13.42 30.09-30.09-13.42-30.09-30.09-30.09zm0 6.018c13.336 0 24.072 10.736 24.072 24.072s-10.736 24.072-24.072 24.072-24.072-10.736-24.072-24.072 10.736-24.072 24.072-24.072zm-9.7217 8.2356v31.673h4.3965v-13.616h5.5629c1.1515 0 2.0936 0.11214 2.8263 0.33647 0.73277 0.20937 1.3309 0.54583 1.7945 1.0094 0.46358 0.46359 0.815 1.0617 1.0542 1.7945 0.25422 0.71781 0.47105 1.5851 0.65051 2.602 0.17953 1.0019 0.35143 2.1609 0.51592 3.4768 0.17954 1.301 0.42619 2.7665 0.74023 4.3965h4.7106c-0.47853-1.5552-0.8225-2.9759-1.0318-4.2619-0.20929-1.301-0.38873-2.4749-0.53835-3.5217-0.14945-1.0618-0.31404-2.0039-0.49348-2.8263-0.16449-0.83744-0.44862-1.5702-0.85239-2.1983-0.38878-0.64302-0.93461-1.1814-1.6375-1.615-0.68789-0.44862-1.63-0.81502-2.8263-1.0991 0.89726-0.34395 1.7048-0.75518 2.4226-1.2337 0.7178-0.47851 1.3234-1.0393 1.8169-1.6823 0.50844-0.65799 0.89724-1.3907 1.1664-2.1983 0.26916-0.82248 0.40375-1.7422 0.40375-2.759 0-1.5702-0.31402-2.8862-0.9421-3.9479-0.62806-1.0617-1.458-1.9141-2.4899-2.5571-1.0169-0.64302-2.1833-1.0991-3.4993-1.3683-1.316-0.26918-2.6618-0.40377-4.0376-0.40377zm4.3741 3.8806h4.6208c0.80754 0 1.63 0.04493 2.4674 0.1346 0.85239 0.07482 1.6225 0.28413 2.3104 0.62808 0.6879 0.329 1.2487 0.8225 1.6824 1.4805 0.43366 0.65797 0.65051 1.5552 0.65051 2.6917 0 1.0917-0.17191 2.0188-0.51592 2.7815-0.32899 0.7477-0.79257 1.3533-1.3907 1.8169-0.58321 0.46359-1.2711 0.80007-2.0637 1.0094-0.79257 0.20935-1.6449 0.31404-2.5571 0.31404h-5.204z"/>
  <path id="path4167" d="m272.43 42.961c-16.67 0-30.09 13.42-30.09 30.09s13.42 30.09 30.09 30.09 30.09-13.42 30.09-30.09-13.42-30.09-30.09-30.09zm0 6.018c13.336 0 24.072 10.736 24.072 24.072s-10.736 24.072-24.072 24.072-24.072-10.736-24.072-24.072 10.736-24.072 24.072-24.072zm-9.7217 8.2356v31.673h4.3965v-13.616h5.5629c1.1515 0 2.0936 0.11214 2.8263 0.33647 0.73277 0.20937 1.3309 0.54583 1.7945 1.0094 0.46358 0.46359 0.815 1.0617 1.0542 1.7945 0.25422 0.71781 0.47105 1.5851 0.65051 2.602 0.17953 1.0019 0.35143 2.1609 0.51592 3.4768 0.17954 1.301 0.42619 2.7665 0.74023 4.3965h4.7106c-0.47853-1.5552-0.8225-2.9759-1.0318-4.2619-0.20929-1.301-0.38873-2.4749-0.53835-3.5217-0.14945-1.0618-0.31404-2.0039-0.49348-2.8263-0.16449-0.83744-0.44862-1.5702-0.85239-2.1983-0.38878-0.64302-0.93461-1.1814-1.6375-1.615-0.68789-0.44862-1.63-0.81502-2.8263-1.0991 0.89726-0.34395 1.7048-0.75518 2.4226-1.2337 0.7178-0.47851 1.3234-1.0393 1.8169-1.6823 0.50844-0.65799 0.89724-1.3907 1.1664-2.1983 0.26916-0.82248 0.40375-1.7422 0.40375-2.759 0-1.5702-0.31402-2.8862-0.9421-3.9479-0.62806-1.0617-1.458-1.9141-2.4899-2.5571-1.0169-0.64302-2.1833-1.0991-3.4993-1.3683-1.316-0.26918-2.6618-0.40377-4.0376-0.40377zm4.3741 3.8806h4.6208c0.80754 0 1.63 0.04493 2.4674 0.1346 0.85239 0.07482 1.6225 0.28413 2.3104 0.62808 0.6879 0.329 1.2487 0.8225 1.6824 1.4805 0.43366 0.65797 0.65051 1.5552 0.65051 2.6917 0 1.0917-0.17191 2.0188-0.51592 2.7815-0.32899 0.7477-0.79257 1.3533-1.3907 1.8169-0.58321 0.46359-1.2711 0.80007-2.0637 1.0094-0.79257 0.20935-1.645 0.31404-2.5571 0.31404h-5.204z" style="fill-opacity:.11765"/>
  <path id="path4163" style="fill-opacity:.23529" d="m272.43 42.158c-16.67 0-30.09 13.42-30.09 30.09s13.42 30.09 30.09 30.09 30.09-13.42 30.09-30.09-13.42-30.09-30.09-30.09zm0 6.018c13.336 0 24.072 10.736 24.072 24.072s-10.736 24.072-24.072 24.072-24.072-10.736-24.072-24.072 10.736-24.072 24.072-24.072zm-9.7217 8.2356v31.673h4.3965v-13.616h5.5629c1.1515 0 2.0936 0.11214 2.8263 0.33647 0.73277 0.20937 1.3309 0.54583 1.7945 1.0094 0.46358 0.46359 0.815 1.0617 1.0542 1.7945 0.25422 0.71781 0.47105 1.5851 0.65051 2.602 0.17953 1.0019 0.35143 2.1609 0.51592 3.4768 0.17954 1.301 0.42619 2.7665 0.74023 4.3965h4.7106c-0.47853-1.5552-0.8225-2.9759-1.0318-4.2619-0.20929-1.301-0.38873-2.4749-0.53835-3.5217-0.14945-1.0618-0.31404-2.0039-0.49348-2.8263-0.16449-0.83744-0.44862-1.5702-0.85239-2.1983-0.38878-0.64302-0.93461-1.1814-1.6375-1.615-0.68789-0.44862-1.63-0.81502-2.8263-1.0991 0.89726-0.34395 1.7048-0.75518 2.4226-1.2337 0.7178-0.47851 1.3234-1.0393 1.8169-1.6823 0.50844-0.65799 0.89724-1.3907 1.1664-2.1983 0.26916-0.82248 0.40375-1.7422 0.40375-2.759 0-1.5702-0.31402-2.8862-0.9421-3.9479-0.62806-1.0617-1.458-1.9141-2.4899-2.5571-1.0169-0.64302-2.1833-1.0991-3.4993-1.3683-1.316-0.26918-2.6618-0.40377-4.0376-0.40377zm4.3741 3.8806h4.6208c0.80754 0 1.63 0.04493 2.4674 0.1346 0.85239 0.07482 1.6225 0.28413 2.3104 0.62808 0.6879 0.329 1.2487 0.8225 1.6824 1.4805 0.43366 0.65797 0.65051 1.5552 0.65051 2.6917 0 1.0917-0.17191 2.0188-0.51592 2.7815-0.32899 0.7477-0.79257 1.3533-1.3907 1.8169-0.58321 0.46359-1.2711 0.80007-2.0637 1.0094-0.79257 0.20935-1.645 0.31404-2.5571 0.31404h-5.204z"/>
  <path id="rect4114" d="m272.43 41.356c-16.67 0-30.09 13.42-30.09 30.09s13.42 30.09 30.09 30.09 30.09-13.42 30.09-30.09-13.42-30.09-30.09-30.09zm0 6.018c13.336 0 24.072 10.736 24.072 24.072s-10.736 24.072-24.072 24.072-24.072-10.736-24.072-24.072 10.736-24.072 24.072-24.072zm-9.7217 8.2356v31.673h4.3965v-13.616h5.5629c1.1515 0 2.0936 0.11216 2.8263 0.33647 0.73276 0.20936 1.3309 0.54583 1.7945 1.0094 0.46359 0.46359 0.81501 1.0618 1.0543 1.7945 0.25421 0.7178 0.47105 1.5851 0.65051 2.602 0.17945 1.0019 0.35142 2.1609 0.51591 3.4768 0.17946 1.301 0.42621 2.7665 0.74023 4.3965h4.7106c-0.47854-1.5552-0.82249-2.9759-1.0318-4.2619-0.2093-1.301-0.38874-2.4749-0.53835-3.5217-0.14955-1.0617-0.31404-2.0039-0.49348-2.8263-0.1645-0.83744-0.44862-1.5702-0.85239-2.1983-0.3888-0.64302-0.93463-1.1814-1.6375-1.615-0.68789-0.44863-1.63-0.81501-2.8263-1.0991 0.89725-0.34395 1.7048-0.75518 2.4226-1.2337 0.7178-0.47853 1.3234-1.0393 1.8169-1.6823 0.50844-0.65799 0.89725-1.3907 1.1664-2.1983 0.26917-0.82248 0.40376-1.7421 0.40376-2.759 0-1.5702-0.31403-2.8861-0.94211-3.9479-0.62806-1.0617-1.458-1.9141-2.4899-2.5572-1.0169-0.64302-2.1833-1.0991-3.4993-1.3683-1.316-0.26917-2.6245-0.40376-4.0376-0.40376zm4.3741 3.8806h4.6208c0.80751 0 1.63 0.04485 2.4674 0.13458 0.85238 0.07476 1.6225 0.28413 2.3104 0.62807 0.68789 0.329 1.2487 0.82249 1.6823 1.4805 0.43367 0.65799 0.65051 1.5552 0.65051 2.6917 0 1.0917-0.17198 2.0188-0.51592 2.7815-0.32898 0.7477-0.79258 1.3534-1.3907 1.8169-0.58322 0.46359-1.2711 0.80006-2.0637 1.0094-0.79257 0.20936-1.645 0.31404-2.5572 0.31404h-5.204z" style="fill:url(#linearGradient7367-8)"/>
  <path id="path4171" d="m272.43 45.768c-13.336 0-24.072 10.736-24.072 24.072 0 0.27119 0.0304 0.53421 0.0392 0.80318 0.42446-12.958 10.968-23.269 24.033-23.269s23.608 10.311 24.033 23.269c0.009-0.26898 0.0392-0.53199 0.0392-0.80318 0-13.336-10.736-24.072-24.072-24.072zm-5.3465 12.118v1.6024h4.6193c0.80751 0 1.6309 0.0474 2.4683 0.13713 0.85238 0.07476 1.6237 0.28293 2.3116 0.62688 0.68789 0.329 1.2471 0.82302 1.6808 1.481 0.33274 0.50487 0.49458 1.1959 0.57202 1.9825 0.0301-0.29423 0.0784-0.57417 0.0784-0.89721 0-1.1365-0.21672-2.0337-0.65038-2.6916-0.43368-0.65797-0.99291-1.1481-1.6808-1.4771-0.68788-0.34395-1.4592-0.55597-2.3116-0.63079-0.83745-0.08967-1.6608-0.13322-2.4683-0.13322zm16.26 5.0777c-0.0483 0.74354-0.15049 1.4469-0.35653 2.0765-0.26919 0.80752-0.65912 1.54-1.1676 2.198-0.4935 0.64302-1.1001 1.2062-1.8179 1.6847-0.71778 0.47855-1.524 0.89021-2.4213 1.2342 0.76151 0.18084 1.38 0.40679 1.9355 0.6543 0.16072-0.09567 0.33322-0.18427 0.48583-0.28601 0.7178-0.47853 1.3244-1.0378 1.8179-1.6808 0.50844-0.65799 0.89838-1.3905 1.1676-2.198 0.26917-0.82248 0.40355-1.7414 0.40355-2.7582 0-0.32054-0.0208-0.62529-0.047-0.92464zm-40.964 7.6792c-0.007 0.2696-0.0392 0.53182-0.0392 0.80318 0 16.67 13.42 30.09 30.09 30.09s30.09-13.42 30.09-30.09c0-0.27136-0.0321-0.53359-0.0392-0.80318-0.42662 16.292-13.652 29.287-30.051 29.287s-29.624-12.994-30.051-29.287zm24.724 1.4183v1.6064h5.5635c1.1515 0 2.096 0.11264 2.8288 0.33694 0.73276 0.20936 1.3309 0.54335 1.7944 1.0069 0.46359 0.46359 0.81466 1.0617 1.0539 1.7944 0.25421 0.7178 0.47093 1.5846 0.65039 2.6015 0.17945 1.0019 0.34876 2.1632 0.51325 3.4792 0.17946 1.301 0.42647 2.766 0.7405 4.396h4.7133c-0.17214-0.55946-0.30934-1.0817-0.44665-1.6064h-4.2667c-0.31404-1.63-0.56096-3.095-0.7405-4.396-0.16449-1.316-0.33372-2.4733-0.51325-3.4752-0.17946-1.0169-0.39617-1.8837-0.65039-2.6015-0.23925-0.73275-0.59035-1.3308-1.0539-1.7944-0.46359-0.46359-1.0617-0.80147-1.7944-1.0108-0.73273-0.22433-1.6773-0.33694-2.8288-0.33694zm-4.396 13.615v1.6064h4.396v-1.6064z" style="fill:#4b4f55;fill-opacity:.31373"/>
  <path id="path4176" d="m272.43 41.356c-16.67 0-30.09 13.42-30.09 30.09 0 0.13502 0.0178 0.26504 0.0196 0.39963 0.21677-16.481 13.536-29.686 30.07-29.686s29.854 13.206 30.07 29.686c0.002-0.13459 0.0196-0.26461 0.0196-0.39963 0-16.67-13.42-30.09-30.09-30.09zm-0.0102 14.254h-9.7126v0.80318h9.7126c1.4143 0 2.7235 0.13436 4.0394 0.40355 1.316 0.26916 2.4819 0.72435 3.4987 1.3674 1.0318 0.64302 1.8598 1.4967 2.4879 2.5584 0.56429 0.95393 0.86342 2.1227 0.92072 3.487 0.004-0.11685 0.0235-0.22132 0.0235-0.34086 0-1.5702-0.31615-2.8876-0.94423-3.9493-0.62806-1.0617-1.4561-1.9154-2.4879-2.5584-1.0169-0.64303-2.1828-1.0982-3.4987-1.3674-1.4255-0.23941-2.6251-0.39061-4.0394-0.40355zm6.355 9.2621c-0.0433 0.889-0.18486 1.6851-0.478 2.3351-0.32898 0.7477-0.79272 1.3544-1.3909 1.8179-0.58321 0.46359-1.2683 0.79757-2.0608 1.0069-0.79257 0.20936-1.6467 0.28425-2.5584 0.31344h-5.2031v0.80318h5.2031c0.91173-0.02919 1.7659-0.10409 2.5584-0.31344 0.79257-0.20935 1.4776-0.54725 2.0608-1.0108 0.59817-0.46357 1.0619-1.0663 1.3909-1.814 0.34401-0.76266 0.51717-1.6901 0.51717-2.7818 0-0.13262-0.0333-0.23043-0.0392-0.35654zm-30.397 6.974c-0.002 0.1357-0.0196 0.26729-0.0196 0.40355 0 13.336 10.736 24.072 24.072 24.072s24.072-10.736 24.072-24.072c0-0.13625-0.0174-0.26785-0.0197-0.40355-0.21416 13.148-10.851 23.672-24.052 23.672s-23.838-10.524-24.052-23.672zm30.272 0.239c-0.34447 0.16776-0.69361 0.33386-1.0696 0.47799 1.1963 0.28411 2.137 0.64841 2.8248 1.097 0.70287 0.43368 1.2489 0.9751 1.6377 1.6181 0.40377 0.62806 0.68963 1.3605 0.85412 2.198 0.17944 0.82248 0.34422 1.7631 0.49367 2.8249 0.14962 1.0468 0.32747 2.2212 0.53676 3.5223 0.17169 1.0547 0.45826 2.2238 0.81102 3.4596h0.22332c-0.47853-1.5552-0.825-2.9767-1.0343-4.2628-0.2093-1.301-0.38715-2.4755-0.53676-3.5223-0.14955-1.0617-0.31423-2.0024-0.49367-2.8249-0.16449-0.83744-0.45034-1.5699-0.85412-2.198-0.38879-0.64302-0.93485-1.1805-1.6377-1.6142-0.45841-0.29897-1.071-0.54984-1.7552-0.77576z" style="fill:#fff"/>
 </g>
 <rect id="rect892-2-7-8" style="opacity:.15891;stroke:#000;stroke-width:4.8445;fill:none" transform="scale(1,-1)" ry="28.993" height="114.35" width="114.22" y="-121.16" x="6.8687"/>
 <rect id="rect892-2-7-2-9" ry="28.067" style="stroke:#000;stroke-width:1.0489;fill:none" transform="scale(1,-1)" height="112.71" width="114.14" y="-120.31" x="7.0649"/>
 <g id="g17906" transform="matrix(2.3438 0 0 2.2539 224.79 41.695)"></g>
 <path id="path4891" d="m25.685 5.7862c3.6386-0.3502 2.8432 14.02 2.8432 14.02s16.093-0.84846 16.525 1.9543c3.85-3.268-16.654-16.76-19.368-15.974z" style="opacity:.3;fill-rule:evenodd;filter:url(#filter3198-5)" transform="matrix(0 2.6586 -4.0239 0 144.6 .66614)"/>
 <path id="path4893" d="m120.42 71.909c-2.6379 9.487-48.941 8.4899-48.941 8.4899s3.0553 39.005-10.575 39.949c8.02 2.4523 48.56-28.337 57.689-43.48 1.1729-1.9458 1.8272-3.6334 1.8272-4.9589z" style="fill:url(#linearGradient6921);fill-rule:evenodd"/>
</svg>
