<?xml version="1.0" encoding="UTF-8" standalone="no"?>
<!-- Created with Inkscape (http://www.inkscape.org/) -->
<svg id="svg3449" xmlns:rdf="http://www.w3.org/1999/02/22-rdf-syntax-ns#" xmlns="http://www.w3.org/2000/svg" height="128" width="128" version="1.0" xmlns:cc="http://creativecommons.org/ns#" xmlns:xlink="http://www.w3.org/1999/xlink" xmlns:dc="http://purl.org/dc/elements/1.1/">
 <metadata id="metadata56">
  <rdf:RDF>
   <cc:Work rdf:about="">
    <dc:format>image/svg+xml</dc:format>
    <dc:type rdf:resource="http://purl.org/dc/dcmitype/StillImage"/>
    <dc:title/>
   </cc:Work>
  </rdf:RDF>
 </metadata>
 <defs id="defs3451">
  <linearGradient id="linearGradient3514" y2="-9.1034" gradientUnits="userSpaceOnUse" x2="66.492" gradientTransform="matrix(.96826 0 0 .97948 2.179 .16587)" y1="-42.638" x1="67.952">
   <stop id="stop4620" style="stop-color:#37414b" offset="0"/>
   <stop id="stop4622" style="stop-color:#37414b;stop-opacity:0" offset="1"/>
  </linearGradient>
  <linearGradient id="linearGradient3516" y2="-11.847" gradientUnits="userSpaceOnUse" x2="58.98" gradientTransform="matrix(.96826 0 0 .97948 2.179 .16587)" y1="-118.55" x1="57.173">
   <stop id="stop4596" offset="0"/>
   <stop id="stop4598" style="stop-opacity:0" offset="1"/>
  </linearGradient>
  <linearGradient id="linearGradient3519" y2="50.369" gradientUnits="userSpaceOnUse" x2="76.558" gradientTransform="matrix(.96826 0 0 .97948 3.2423 -129.19)" y1="13.164" x1="76.558">
   <stop id="stop3392" style="stop-color:#425e7b" offset="0"/>
   <stop id="stop3394" style="stop-color:#7a91a7" offset="1"/>
  </linearGradient>
  <linearGradient id="linearGradient3521" y2="-8.7399" gradientUnits="userSpaceOnUse" x2="60.217" gradientTransform="matrix(.96826 0 0 .97948 2.179 .16587)" y1="-123.72" x1="60.395">
   <stop id="stop3392-4-8" style="stop-color:#425e7b" offset="0"/>
   <stop id="stop3394-8-0" style="stop-color:#7a91a7" offset="1"/>
  </linearGradient>
  <linearGradient id="linearGradient4192" y2="31.742" gradientUnits="userSpaceOnUse" x2="121.11" y1="31.742" x1="6.5334">
   <stop id="stop4188" style="stop-color:#fff" offset="0"/>
   <stop id="stop4190" style="stop-color:#fff;stop-opacity:0" offset="1"/>
  </linearGradient>
  <linearGradient id="linearGradient11577" y2="8.1" gradientUnits="userSpaceOnUse" y1="6.1438" x2="19.387" x1="19.49">
   <stop id="stop10999-9-0" offset="0"/>
   <stop id="stop11001-6-1" style="stop-opacity:0" offset="1"/>
  </linearGradient>
  <filter id="filter3198-5" color-interpolation-filters="sRGB" width="1.1734" y="-.10752" x="-.086712" height="1.215">
   <feGaussianBlur id="feGaussianBlur3200-3" stdDeviation="0.71710775"/>
  </filter>
  <linearGradient id="linearGradient6921" y2="5.4565" gradientUnits="userSpaceOnUse" x2="36.358" gradientTransform="matrix(0 3.8171 -6.1772 0 129.98 -37.908)" y1="8.059" x1="32.892">
   <stop id="stop8591-7-2-1" style="stop-color:#fefefe" offset="0"/>
   <stop id="stop8593-2-4-5" style="stop-color:#cbcbcb" offset="1"/>
  </linearGradient>
  <radialGradient id="radialGradient6925" gradientUnits="userSpaceOnUse" cy="-16.639" cx="2.6083" gradientTransform="matrix(-5.7453 2.452e-7 -2.5955e-7 -6.0905 124.78 -36.865)" r="23">
   <stop id="stop5983" style="stop-color:#eb8742" offset="0"/>
   <stop id="stop5985" style="stop-color:#ca2110" offset="1"/>
  </radialGradient>
  <style id="style1246" type="text/css">.fil0 {fill:#1F1A17}</style>
  <style id="style1115" type="text/css">.fil0 {fill:#1F1A17}</style>
  <style id="style1246-3" type="text/css">.fil0 {fill:#1F1A17}</style>
  <style id="style1115-1" type="text/css">.fil0 {fill:#1F1A17}</style>
  <style id="style1246-0" type="text/css">.fil0 {fill:#1F1A17}</style>
  <style id="style1115-7" type="text/css">.fil0 {fill:#1F1A17}</style>
  <linearGradient id="linearGradient6341" y2="9" gradientUnits="userSpaceOnUse" x2="23.553" gradientTransform="matrix(2.6667 0 0 2.6667 -186.07 -6.3478)" y1="38.999" x1="23.553">
   <stop id="stop4453-2" style="stop-color:#befacf" offset="0"/>
   <stop id="stop4455-8" style="stop-color:#f6fef9" offset="1"/>
  </linearGradient>
 </defs>
 <rect id="rect892-2-7-1" style="opacity:.15891;stroke:#000;stroke-width:7.7512;fill:none" transform="scale(1,-1)" ry="28.993" height="114.35" width="114.22" y="-121.16" x="6.8687"/>
 <rect id="rect892" style="stroke:url(#linearGradient3521);stroke-width:.97385;fill:url(#linearGradient3519)" transform="scale(1,-1)" ry="29.296" height="115.54" width="114.22" y="-122.25" x="7.0394"/>
 <rect id="rect892-2" style="stroke:url(#linearGradient3516);stroke-width:.97385;fill:url(#linearGradient3514)" transform="scale(1,-1)" ry="28.993" height="114.35" width="114.22" y="-121.46" x="7.0599"/>
 <path id="path4159-5" style="stroke:url(#linearGradient4192);stroke-width:1px;fill:none" d="m7.0334 31.742h113.58z"/>
 <path id="path4322" d="m120.09 74.559c-1.82 3.831-41.638 40.371-56.018 45.741-66.185 6.38-58.724-19.48-56.838-84.917 4.797-34.382 28.284-28.298 90.407-27.48 28.999 8.074 22.189 27.125 22.449 66.656z" style="fill-rule:evenodd;fill:url(#radialGradient6925)"/>
 <rect id="rect892-2-7-8" style="opacity:.15891;stroke:#000;stroke-width:4.8445;fill:none" transform="scale(1,-1)" ry="28.993" height="114.35" width="114.22" y="-121.16" x="6.8687"/>
 <rect id="rect892-2-7-2-9" ry="28.067" style="stroke:#000;stroke-width:1.0489;fill:none" transform="scale(1,-1)" height="112.71" width="114.14" y="-120.31" x="7.0649"/>
 <g id="g17906" transform="matrix(2.3438 0 0 2.2539 224.79 41.695)"></g>
 <g id="g6332" transform="matrix(.9 0 0 .9 173.18 10.783)">
  <path id="path4720" style="fill-opacity:.058824" d="m-156.74 20.852c-2.9547 0-5.3333 2.3787-5.3333 5.3333 0 2.1375 1.2553 3.9604 3.0625 4.8125 2.7852 28.23 21.154 51.74 46.437 61.854h-39.568c-0.9215-1.5888-2.6228-2.6667-4.599-2.6667-2.9547 0-5.3333 2.3787-5.3333 5.3333 0 2.9547 2.3787 5.3333 5.3333 5.3333 1.9762 0 3.6775-1.0779 4.599-2.6667h70.068v-0.06773-5.3333c-0.88616 0.03333-1.7721 0.06773-2.6667 0.06773-31.518 0-57.976-20.828-66.464-49.521 2.4057 1.8189 5.2242 3.1129 8.2917 3.7448 0.84184 1.8336 2.6818 3.1094 4.8385 3.1094 2.9547 0 5.3333-2.3787 5.3333-5.3333 0-2.9547-2.3787-5.3333-5.3333-5.3333-1.7708 0-3.3227 0.86685-4.2917 2.1875-5.5532-1.3458-9.8887-5.6714-11.234-11.224 1.324-0.96864 2.1927-2.5235 2.1927-4.2969 0-2.9547-2.3787-5.3333-5.3333-5.3333zm0 2.6667c1.4773 0 2.6667 1.1893 2.6667 2.6667 0 1.4773-1.1893 2.6667-2.6667 2.6667-1.4773 0-2.6667-1.1893-2.6667-2.6667 0-1.4773 1.1893-2.6667 2.6667-2.6667zm1.7708 7.6771c-0.13493 0.04853-0.27165 0.0872-0.41144 0.12507 0.14-0.0368 0.2763-0.07733 0.41144-0.12507zm-0.80728 0.224c-0.31285 0.05867-0.63264 0.09893-0.96354 0.09893 0.33013 0 0.65032-0.04213 0.96354-0.09893zm17.703 10.766c1.4773 0 2.6667 1.1893 2.6667 2.6667 0 1.4773-1.1893 2.6667-2.6667 2.6667-1.4773 0-2.6667-1.1893-2.6667-2.6667 0-1.4773 1.1893-2.6667 2.6667-2.6667zm-5.0052 0.88541c-0.0504 0.14213-0.0971 0.28475-0.13547 0.43229 0.0395-0.14693 0.084-0.29064 0.13547-0.43229zm-0.22907 0.81251c-0.0573 0.3148-0.0989 0.63685-0.0989 0.96875 0-0.33347 0.0395-0.65397 0.0989-0.96875zm-13.432 48.969c1.4773 0 2.6667 1.1893 2.6667 2.6667 0 1.4773-1.1893 2.6667-2.6667 2.6667-1.4773 0-2.6667-1.1893-2.6667-2.6667 0-1.4773 1.1893-2.6667 2.6667-2.6667zm5.0938 1.1562c0.0187 0.0592 0.036 0.11707 0.052 0.17707-0.016-0.06027-0.0347-0.1176-0.052-0.17707zm0.052 2.8438c-0.016 0.06-0.0339 0.11787-0.052 0.17707 0.0187-0.05947 0.0365-0.1168 0.052-0.17707z"/>
  <path id="path4718" style="fill-opacity:.11765" d="m-156.74 19.786c-2.9547 0-5.3333 2.3787-5.3333 5.3333 0 2.1375 1.2553 3.9604 3.0625 4.8125 2.7852 28.23 21.154 51.74 46.437 61.854h-39.568c-0.9215-1.5888-2.6228-2.6667-4.599-2.6667-2.9547 0-5.3333 2.3787-5.3333 5.3333 0 2.9547 2.3787 5.3333 5.3333 5.3333 1.9762 0 3.6775-1.0779 4.599-2.6667h70.068v-0.06773-5.3333c-0.88616 0.03333-1.7721 0.06773-2.6667 0.06773-31.518 0-57.976-20.828-66.464-49.521 2.4057 1.8189 5.2242 3.1129 8.2917 3.7448 0.84184 1.8336 2.6818 3.1094 4.8385 3.1094 2.9547 0 5.3333-2.3787 5.3333-5.3333 0-2.9547-2.3787-5.3333-5.3333-5.3333-1.7708 0-3.3227 0.86685-4.2917 2.1875-5.5532-1.3458-9.8887-5.6714-11.234-11.224 1.324-0.96864 2.1927-2.5235 2.1927-4.2969 0-2.9547-2.3787-5.3333-5.3333-5.3333zm0 2.6667c1.4773 0 2.6667 1.1893 2.6667 2.6667 0 1.4773-1.1893 2.6667-2.6667 2.6667-1.4773 0-2.6667-1.1893-2.6667-2.6667 0-1.4773 1.1893-2.6667 2.6667-2.6667zm1.7708 7.6771c-0.13493 0.04853-0.27165 0.0872-0.41144 0.12507 0.14-0.0368 0.2763-0.07733 0.41144-0.12507zm-0.80728 0.224c-0.31285 0.05867-0.63264 0.09893-0.96354 0.09893 0.33013 0 0.65032-0.04213 0.96354-0.09893zm17.703 10.766c1.4773 0 2.6667 1.1893 2.6667 2.6667 0 1.4773-1.1893 2.6667-2.6667 2.6667-1.4773 0-2.6667-1.1893-2.6667-2.6667 0-1.4773 1.1893-2.6667 2.6667-2.6667zm-5.0052 0.88541c-0.0504 0.14213-0.0971 0.28475-0.13547 0.43229 0.0395-0.14693 0.084-0.29064 0.13547-0.43229zm-0.22907 0.81251c-0.0573 0.3148-0.0989 0.63685-0.0989 0.96875 0-0.33347 0.0395-0.65397 0.0989-0.96875zm-13.432 48.969c1.4773 0 2.6667 1.1893 2.6667 2.6667 0 1.4773-1.1893 2.6667-2.6667 2.6667-1.4773 0-2.6667-1.1893-2.6667-2.6667 0-1.4773 1.1893-2.6667 2.6667-2.6667zm5.0938 1.1562c0.0187 0.0592 0.036 0.11707 0.052 0.17707-0.016-0.06027-0.0347-0.1176-0.052-0.17707zm0.052 2.8438c-0.016 0.06-0.0339 0.11787-0.052 0.17707 0.0187-0.05947 0.0365-0.1168 0.052-0.17707z"/>
  <path id="path4714" style="fill-opacity:.23529" d="m-156.74 18.719c-2.9547 0-5.3333 2.3787-5.3333 5.3333 0 2.1375 1.2553 3.9604 3.0625 4.8125 2.7852 28.23 21.154 51.74 46.437 61.854h-39.568c-0.9215-1.5888-2.6228-2.6667-4.599-2.6667-2.9547 0-5.3333 2.3787-5.3333 5.3333 0 2.9547 2.3787 5.3333 5.3333 5.3333 1.9762 0 3.6775-1.0779 4.599-2.6667h70.068v-0.06773-5.3333c-0.88616 0.03333-1.7721 0.06773-2.6667 0.06773-31.518 0-57.976-20.828-66.464-49.521 2.4057 1.8189 5.2242 3.1129 8.2917 3.7448 0.84184 1.8336 2.6818 3.1094 4.8385 3.1094 2.9547 0 5.3333-2.3787 5.3333-5.3333 0-2.9547-2.3787-5.3333-5.3333-5.3333-1.7708 0-3.3227 0.86685-4.2917 2.1875-5.5532-1.3458-9.8887-5.6714-11.234-11.224 1.324-0.96864 2.1927-2.5235 2.1927-4.2969 0-2.9547-2.3787-5.3333-5.3333-5.3333zm0 2.6667c1.4773 0 2.6667 1.1893 2.6667 2.6667 0 1.4773-1.1893 2.6667-2.6667 2.6667-1.4773 0-2.6667-1.1893-2.6667-2.6667 0-1.4773 1.1893-2.6667 2.6667-2.6667zm1.7708 7.6771c-0.13493 0.04853-0.27165 0.0872-0.41144 0.12507 0.14-0.0368 0.2763-0.07733 0.41144-0.12507zm-0.80728 0.224c-0.31285 0.05867-0.63264 0.09893-0.96354 0.09893 0.33013 0 0.65032-0.04213 0.96354-0.09893zm17.703 10.766c1.4773 0 2.6667 1.1893 2.6667 2.6667 0 1.4773-1.1893 2.6667-2.6667 2.6667-1.4773 0-2.6667-1.1893-2.6667-2.6667 0-1.4773 1.1893-2.6667 2.6667-2.6667zm-5.0052 0.88541c-0.0504 0.14213-0.0971 0.28475-0.13547 0.43229 0.0395-0.14693 0.084-0.29064 0.13547-0.43229zm-0.22907 0.81251c-0.0573 0.3148-0.0989 0.63685-0.0989 0.96875 0-0.33347 0.0395-0.65397 0.0989-0.96875zm-13.432 48.969c1.4773 0 2.6667 1.1893 2.6667 2.6667 0 1.4773-1.1893 2.6667-2.6667 2.6667-1.4773 0-2.6667-1.1893-2.6667-2.6667 0-1.4773 1.1893-2.6667 2.6667-2.6667zm5.0938 1.1562c0.0187 0.0592 0.036 0.11707 0.052 0.17707-0.016-0.06027-0.0347-0.1176-0.052-0.17707zm0.052 2.8438c-0.016 0.06-0.0339 0.11787-0.052 0.17707 0.0187-0.05947 0.0365-0.1168 0.052-0.17707z"/>
  <path id="path4663" style="fill:url(#linearGradient6341)" d="m-156.74 17.652c-2.9547 0-5.3333 2.3787-5.3333 5.3333 0 2.1375 1.2553 3.9604 3.0625 4.8125 2.7852 28.23 21.154 51.74 46.437 61.854h-39.568c-0.9215-1.5888-2.6228-2.6667-4.599-2.6667-2.9547 0-5.3333 2.3787-5.3333 5.3333 0 2.9547 2.3787 5.3333 5.3333 5.3333 1.9762 0 3.6775-1.0779 4.599-2.6667h70.068v-0.06771-5.3333c-0.88616 0.03324-1.7721 0.06771-2.6667 0.06771-31.518 0-57.976-20.828-66.464-49.521 2.4057 1.8189 5.2242 3.1129 8.2917 3.7448 0.84186 1.8336 2.6819 3.1094 4.8385 3.1094 2.9547 0 5.3333-2.3787 5.3333-5.3333 0-2.9547-2.3787-5.3333-5.3333-5.3333-1.7707 0-3.3227 0.86686-4.2917 2.1875-5.5532-1.3458-9.8888-5.6714-11.234-11.224 1.324-0.96863 2.1927-2.5235 2.1927-4.2969 0-2.9547-2.3787-5.3333-5.3333-5.3333zm0 2.6667c1.4773 0 2.6667 1.1893 2.6667 2.6667 0 1.4773-1.1893 2.6667-2.6667 2.6667-1.4773 0-2.6667-1.1893-2.6667-2.6667 0-1.4773 1.1893-2.6667 2.6667-2.6667zm1.7708 7.6771c-0.13493 0.04861-0.27166 0.08728-0.41145 0.12499 0.13994-0.0368 0.27631-0.07741 0.41145-0.12499zm-0.80729 0.22397c-0.31283 0.05855-0.63262 0.09894-0.96354 0.09894 0.33012 0 0.65032-0.04208 0.96354-0.09896zm17.703 10.766c1.4773 0 2.6667 1.1893 2.6667 2.6667 0 1.4773-1.1893 2.6667-2.6667 2.6667-1.4773 0-2.6667-1.1893-2.6667-2.6667 0-1.4773 1.1893-2.6667 2.6667-2.6667zm-5.0052 0.88542c-0.0504 0.14221-0.097 0.28473-0.13541 0.43229 0.0394-0.14704 0.084-0.29064 0.13541-0.43229zm-0.22917 0.8125c-0.0575 0.3148-0.099 0.63686-0.099 0.96875 0-0.33347 0.0396-0.65397 0.099-0.96875zm-13.432 48.969c1.4773 0 2.6667 1.1893 2.6667 2.6667 0 1.4773-1.1893 2.6667-2.6667 2.6667-1.4773 0-2.6667-1.1893-2.6667-2.6667 0-1.4773 1.1893-2.6667 2.6667-2.6667zm5.0938 1.1562c0.0181 0.05912 0.0359 0.11709 0.0521 0.17709-0.0155-0.06019-0.0346-0.11773-0.0521-0.17709zm0.0521 2.8437c-0.0163 0.05997-0.0339 0.11795-0.0521 0.17709 0.0176-0.05933 0.0366-0.11688 0.0521-0.17709z"/>
  <rect id="rect4336" style="fill:#f0f" ry="2.6667" height="5.3333" width="5.3333" y="89.652" x="-87.407"/>
  <path id="path4722" style="fill:#dc1414;fill-opacity:.31373" d="m-156.74 18.183c-1.4773 0-2.6667 1.1893-2.6667 2.6667 0 0.38027 0.0817 0.74097 0.22394 1.0677 0.41037-0.94255 1.3457-1.599 2.4427-1.599s2.0324 0.6564 2.4427 1.599c0.14223-0.32673 0.22396-0.68744 0.22396-1.0677 0-1.4773-1.1893-2.6667-2.6667-2.6667zm-5.1927 3.625c-0.0851 0.37954-0.14063 0.77111-0.14063 1.1771 0 2.1375 1.2553 3.9604 3.0625 4.8125 2.605 26.404 18.848 48.672 41.625 59.719h4.8125c-25.283-10.114-43.652-33.624-46.437-61.854-1.5254-0.71924-2.6058-2.1463-2.9219-3.8542zm10.401 0.05208c-0.26141 1.3447-1.0037 2.5081-2.0677 3.2865 0.1375 0.56732 0.32802 1.1112 0.52605 1.651 1.0095-0.96668 1.6667-2.2982 1.6667-3.8125 0-0.38677-0.0475-0.76201-0.12498-1.125zm13.458 14.99c-1.4773 0-2.6667 1.1893-2.6667 2.6667 0 0.38027 0.0817 0.74097 0.22394 1.0677 0.41037-0.94255 1.3457-1.599 2.4427-1.599s2.0324 0.6564 2.4427 1.599c0.14223-0.32673 0.22396-0.68744 0.22396-1.0677 0-1.4773-1.1893-2.6667-2.6667-2.6667zm-13.13 1.1458c0.27806 0.94004 0.62652 1.8481 0.94271 2.7708 2.1923 1.4738 4.6661 2.5567 7.349 3.1094 0.84186 1.8336 2.6819 3.1094 4.8385 3.1094 2.9547 0 5.3333-2.3787 5.3333-5.3333 0-0.36227-0.0412-0.71566-0.10938-1.0573-0.49568 2.4347-2.6386 4.2552-5.224 4.2552-2.1567 0-3.9967-1.2758-4.8385-3.1094-3.0675-0.63192-5.886-1.9259-8.2917-3.7448zm-5.5365 49.521c-1.4773 0-2.6667 1.1893-2.6667 2.6667 0 0.38027 0.0817 0.74097 0.22394 1.0677 0.41037-0.94256 1.3457-1.599 2.4427-1.599s2.0324 0.6564 2.4427 1.599c0.14223-0.32673 0.22396-0.68744 0.22396-1.0677 0-1.4773-1.1893-2.6667-2.6667-2.6667zm-5.224 3.7448c-0.0682 0.34163-0.10938 0.69502-0.10938 1.0573 0 2.9547 2.3787 5.3333 5.3333 5.3333 1.9762 0 3.6775-1.0779 4.599-2.6667h70.068v-0.06771-2.0677h-70.068c-0.9215 1.5888-2.6228 2.6667-4.599 2.6667-2.5853 0-4.7283-1.8205-5.224-4.2552z"/>
  <path id="path4727" style="fill:#fff;fill-opacity:.23529" d="m-156.74 17.652c-2.9547 0-5.3333 2.3787-5.3333 5.3333 0 0.15211 0.05 0.28883 0.0625 0.4375 0.31322-2.6519 2.532-4.7031 5.2708-4.7031 2.7549 0 4.9838 2.0754 5.276 4.75 0.0152-0.16332 0.0573-0.31684 0.0573-0.48438 0-2.9547-2.3787-5.3333-5.3333-5.3333zm-2.5625 5.8646c-0.0374 0.17855-0.10416 0.34646-0.10416 0.53646 0 1.4773 1.1893 2.6667 2.6667 2.6667 1.4773 0 2.6667-1.1893 2.6667-2.6667 0-0.19-0.0667-0.35791-0.10416-0.53646-0.25169 1.2123-1.2734 2.1354-2.5625 2.1354s-2.3108-0.9231-2.5625-2.1354zm5.9635 4.5937c-0.0906 0.07579-0.16498 0.16976-0.26042 0.23957 1.3456 5.5525 5.6812 9.8782 11.234 11.224 0.96898-1.3206 2.5209-2.1875 4.2917-2.1875 2.771 0 5.0104 2.0996 5.2812 4.7969 0.0176-0.17713 0.0521-0.34931 0.0521-0.53124 0-2.9547-2.3787-5.3333-5.3333-5.3333-1.7707 0-3.3227 0.86686-4.2917 2.1875-5.2689-1.2769-9.4112-5.251-10.974-10.396zm2.1354 13.089c8.4875 28.693 34.946 49.521 66.464 49.521 0.89459 0 1.7805-0.03437 2.6667-0.06771v-1.0677c-0.88616 0.03324-1.7721 0.06771-2.6667 0.06771-31.003 0-57.072-20.171-65.995-48.141-0.15286-0.10907-0.31907-0.19933-0.46875-0.3125zm10.568 0.98438c-0.0374 0.17855-0.10416 0.34646-0.10416 0.53646 0 1.4773 1.1893 2.6667 2.6667 2.6667 1.4773 0 2.6667-1.1893 2.6667-2.6667 0-0.19-0.0668-0.35791-0.10416-0.53646-0.25169 1.2123-1.2734 2.1354-2.5625 2.1354s-2.3108-0.9231-2.5625-2.1354zm-16.104 44.802c-2.9547 0-5.3333 2.3787-5.3333 5.3333 0 0.18192 0.0345 0.35411 0.0521 0.53125 0.27085-2.6973 2.5103-4.7969 5.2812-4.7969 1.9762 0 3.6775 1.0779 4.599 2.6667h39.568c-0.82196-0.32882-1.6148-0.71087-2.4219-1.0677h-37.146c-0.9215-1.5888-2.6228-2.6667-4.599-2.6667zm-2.5625 5.8646c-0.0374 0.17855-0.10416 0.34646-0.10416 0.53646 0 1.4773 1.1893 2.6667 2.6667 2.6667 1.4773 0 2.6667-1.1893 2.6667-2.6667 0-0.19-0.0667-0.35791-0.10416-0.53646-0.25169 1.2123-1.2734 2.1354-2.5625 2.1354s-2.3108-0.9231-2.5625-2.1354z"/>
 </g>
 <path id="path4891" d="m25.685 5.7862c3.6386-0.3502 2.8432 14.02 2.8432 14.02s16.093-0.84846 16.525 1.9543c3.85-3.268-16.654-16.76-19.368-15.974z" style="opacity:.3;fill-rule:evenodd;filter:url(#filter3198-5);fill:#da0000" transform="matrix(0 2.6586 -4.0239 0 144.6 .66614)"/>
 <path id="path4893" d="m120.42 71.909c-2.6379 9.487-48.941 8.4899-48.941 8.4899s3.0553 39.005-10.575 39.949c8.02 2.4523 48.56-28.337 57.689-43.48 1.1729-1.9458 1.8272-3.6334 1.8272-4.9589z" style="fill:url(#linearGradient6921);fill-rule:evenodd"/>
 <path id="rect846-0-6" d="m0 120v2.8333c0 2.8728 2.2939 5.1667 5.1667 5.1667h117.67c2.8728 0 5.1667-2.2939 5.1667-5.1667v-2.8333c0 2.8728-2.2939 5.1667-5.1667 5.1667h-117.67c-2.8761 0-5.17-2.3-5.17-5.17z"/>
 <path id="rect4280-1" style="fill-opacity:.39216" d="m5.1667 0.000029117c-2.8728 0-5.1667 2.2939-5.1667 5.1667v114.83c0 2.1157 1.2801 3.864 3.0833 4.6667-0.82491-0.8888-1.3333-2.0864-1.3333-3.4165v-114.5c0-2.7952 2.2051-5 5-5h114.5c2.7949 0 5 2.2048 5 5v114.5c0 1.3301-0.50842 2.5277-1.3333 3.4165 1.8033-0.80267 3.0833-2.5509 3.0833-4.6667v-114.83c0-2.8728-2.2939-5.1667-5.1667-5.1667h-117.67z"/>
</svg>
