<?xml version="1.0" encoding="UTF-8" standalone="no"?>
<!-- Created with Inkscape (http://www.inkscape.org/) -->
<svg id="svg3449" xmlns:rdf="http://www.w3.org/1999/02/22-rdf-syntax-ns#" xmlns="http://www.w3.org/2000/svg" height="128" width="128" version="1.0" xmlns:cc="http://creativecommons.org/ns#" xmlns:xlink="http://www.w3.org/1999/xlink" xmlns:dc="http://purl.org/dc/elements/1.1/">
 <metadata id="metadata56">
  <rdf:RDF>
   <cc:Work rdf:about="">
    <dc:format>image/svg+xml</dc:format>
    <dc:type rdf:resource="http://purl.org/dc/dcmitype/StillImage"/>
    <dc:title/>
   </cc:Work>
  </rdf:RDF>
 </metadata>
 <defs id="defs3451">
  <linearGradient id="linearGradient3514" y2="-9.1034" gradientUnits="userSpaceOnUse" x2="66.492" gradientTransform="matrix(.96826 0 0 .97948 2.179 .16587)" y1="-42.638" x1="67.952">
   <stop id="stop4620" style="stop-color:#37414b" offset="0"/>
   <stop id="stop4622" style="stop-color:#37414b;stop-opacity:0" offset="1"/>
  </linearGradient>
  <linearGradient id="linearGradient3516" y2="-11.847" gradientUnits="userSpaceOnUse" x2="58.98" gradientTransform="matrix(.96826 0 0 .97948 2.179 .16587)" y1="-118.55" x1="57.173">
   <stop id="stop4596" offset="0"/>
   <stop id="stop4598" style="stop-opacity:0" offset="1"/>
  </linearGradient>
  <linearGradient id="linearGradient3519" y2="50.369" gradientUnits="userSpaceOnUse" x2="76.558" gradientTransform="matrix(.96826 0 0 .97948 3.2423 -129.19)" y1="13.164" x1="76.558">
   <stop id="stop3392" style="stop-color:#425e7b" offset="0"/>
   <stop id="stop3394" style="stop-color:#7a91a7" offset="1"/>
  </linearGradient>
  <linearGradient id="linearGradient3521" y2="-8.7399" gradientUnits="userSpaceOnUse" x2="60.217" gradientTransform="matrix(.96826 0 0 .97948 2.179 .16587)" y1="-123.72" x1="60.395">
   <stop id="stop3392-4-8" style="stop-color:#425e7b" offset="0"/>
   <stop id="stop3394-8-0" style="stop-color:#7a91a7" offset="1"/>
  </linearGradient>
  <linearGradient id="linearGradient4192" y2="31.742" gradientUnits="userSpaceOnUse" x2="121.11" y1="31.742" x1="6.5334">
   <stop id="stop4188" style="stop-color:#fff" offset="0"/>
   <stop id="stop4190" style="stop-color:#fff;stop-opacity:0" offset="1"/>
  </linearGradient>
  <linearGradient id="linearGradient11577" y2="8.1" gradientUnits="userSpaceOnUse" y1="6.1438" x2="19.387" x1="19.49">
   <stop id="stop10999-9-0" offset="0"/>
   <stop id="stop11001-6-1" style="stop-opacity:0" offset="1"/>
  </linearGradient>
  <radialGradient id="radialGradient3382-9" gradientUnits="userSpaceOnUse" cy="-16.639" cx="2.6083" gradientTransform="matrix(9.2228e-8 1.4278 -2.2909 6.4501e-8 -14.117 4.9249)" r="23">
   <stop id="stop6546-7-5" style="stop-color:#f0f0f0" offset="0"/>
   <stop id="stop6548-9-0" style="stop-color:#d2d2d2" offset="1"/>
  </radialGradient>
  <style id="style1246" type="text/css">.fil0 {fill:#1F1A17}</style>
  <style id="style1115" type="text/css">.fil0 {fill:#1F1A17}</style>
  <linearGradient id="linearGradient13399" y2="6.9364" gradientUnits="userSpaceOnUse" x2="36.802" gradientTransform="matrix(.89121 0 0 .89121 .48645 1006.7)" y1="41.361" x1="36.802">
   <stop id="stop1481-6" style="stop-color:#1b9bf9" offset="0"/>
   <stop id="stop1483-7" style="stop-color:#6bc0f7" offset="1"/>
  </linearGradient>
 </defs>
 <rect id="rect892-2-7-1" style="opacity:.15891;stroke:#000;stroke-width:7.7512;fill:none" transform="scale(1,-1)" ry="28.993" height="114.35" width="114.22" y="-121.16" x="6.8687"/>
 <rect id="rect892" style="stroke:url(#linearGradient3521);stroke-width:.97385;fill:url(#linearGradient3519)" transform="scale(1,-1)" ry="29.296" height="115.54" width="114.22" y="-122.25" x="7.0394"/>
 <rect id="rect892-2" style="stroke:url(#linearGradient3516);stroke-width:.97385;fill:url(#linearGradient3514)" transform="scale(1,-1)" ry="28.993" height="114.35" width="114.22" y="-121.46" x="7.0599"/>
 <g id="g14613" transform="matrix(0 2.6832 -2.7101 0 126.94 .046408)">
  <g id="layer1-7" transform="matrix(.99081 0 0 1.4848 .23097 -6.5159)">
   <path id="path4322" d="m27.794 5.7425c12.14 0.0144 14.403 0.8397 17.099 5.7745 0.323 2.66 0.151 5.345 0.107 8.495 1.652 17.048-7.327 14.594-31.941 14.125-12.933-1.192-10.645-7.029-10.337-22.467 3.0371-7.2073 10.203-5.863 25.072-5.9275z" style="fill-rule:evenodd;fill:url(#radialGradient3382-9)"/>
  </g>
 </g>
 <rect id="rect892-2-7-8" style="opacity:.15891;stroke:#000;stroke-width:4.8445;fill:none" transform="scale(1,-1)" ry="28.993" height="114.35" width="114.22" y="-121.16" x="6.8687"/>
 <rect id="rect892-2-7-2-9" ry="28.067" style="stroke:#000;stroke-width:1.0489;fill:none" transform="scale(1,-1)" height="112.71" width="114.14" y="-120.31" x="7.0649"/>
 <g id="g17906" transform="matrix(2.3438 0 0 2.2539 224.79 41.695)"></g>
 <g id="g13387" transform="translate(-218.77 5.538)">
  <circle id="path4192-9" style="fill-opacity:.058824" d="m 39.400003,1029.5621 c 0,8.5052 -6.894814,15.4 -15.399999,15.4 -8.505185,0 -15.3999998,-6.8948 -15.3999998,-15.4 0,-8.5052 6.8948148,-15.4 15.3999998,-15.4 8.505185,0 15.399999,6.8948 15.399999,15.4 z" cx="24" transform="matrix(2.5 0 0 2.5 222.77 -2513.9)" cy="1029.6" r="15.4"/>
  <circle id="path4190-5" style="fill-opacity:.11765" d="m 39.400003,1029.1622 c 0,8.5052 -6.894814,15.4 -15.399999,15.4 -8.505185,0 -15.3999998,-6.8948 -15.3999998,-15.4 0,-8.5052 6.8948148,-15.4 15.3999998,-15.4 8.505185,0 15.399999,6.8948 15.399999,15.4 z" cx="24" transform="matrix(2.5 0 0 2.5 222.77 -2513.9)" cy="1029.2" r="15.4"/>
  <circle id="path4186-9" style="fill-opacity:.23529" d="m 39.400003,1028.7622 c 0,8.5052 -6.894814,15.4 -15.399999,15.4 -8.505185,0 -15.3999998,-6.8948 -15.3999998,-15.4 0,-8.5052 6.8948148,-15.4 15.3999998,-15.4 8.505185,0 15.399999,6.8948 15.399999,15.4 z" cx="24" transform="matrix(2.5 0 0 2.5 222.77 -2513.9)" cy="1028.8" r="15.4"/>
  <circle id="path4172-7" style="fill:url(#linearGradient13399)" d="m 39.400003,1028.3622 c 0,8.5052 -6.894814,15.4 -15.399999,15.4 -8.505185,0 -15.3999998,-6.8948 -15.3999998,-15.4 0,-8.5052 6.8948148,-15.4 15.3999998,-15.4 8.505185,0 15.399999,6.8948 15.399999,15.4 z" cx="24" transform="matrix(2.5 0 0 2.5 222.77 -2513.9)" cy="1028.4" r="15.4"/>
  <path id="path4178" style="fill-opacity:.058824" transform="matrix(3.092 0 0 4.1383 47.838 -4186.1)" d="m72.342 1031.2v-10.27l8.8939 5.1349z"/>
  <path id="path4176" style="fill-opacity:.11765" d="m72.342 1031.2v-10.27l8.8939 5.1349z" transform="matrix(3.092 0 0 4.1383 47.838 -4187.1)"/>
  <path id="path4195-1" style="fill:#055d9b;fill-opacity:.31373" d="m244.32 55.962c-0.009 0.336-0.0488 0.663-0.0488 1.001 0 21.263 17.238 38.501 38.501 38.501s38.501-17.238 38.501-38.501c0-0.338-0.0402-0.665-0.0488-1.001-0.53532 20.796-17.527 37.5-38.452 37.5s-37.917-16.704-38.452-37.5z"/>
  <path id="path4200-7" style="fill:#fff;fill-opacity:.23529" d="m282.77 18.462c-21.263 0-38.501 17.238-38.501 38.501 0 0.1675 0.0222 0.3305 0.0245 0.498 0.27227-21.028 17.383-37.998 38.477-37.998 21.093 0 38.204 16.97 38.477 37.998 0.002-0.1675 0.0245-0.32975 0.0245-0.498-0.00009-21.263-17.238-38.501-38.501-38.501z"/>
  <path id="path4174" style="fill-opacity:.23529" transform="matrix(3.092 0 0 4.1383 47.838 -4188.1)" d="m72.342 1031.2v-10.27l8.8939 5.1349z"/>
  <path id="path4153" style="fill:#fff" d="m72.342 1031.2v-10.27l8.8939 5.1349z" transform="matrix(3.092 0 0 4.1383 47.838 -4189.1)"/>
 </g>
</svg>
