<?xml version="1.0" encoding="UTF-8" standalone="no"?>
<!-- Created with Inkscape (http://www.inkscape.org/) -->
<svg id="svg2408" xmlns:rdf="http://www.w3.org/1999/02/22-rdf-syntax-ns#" xmlns="http://www.w3.org/2000/svg" height="96" width="96" version="1.0" xmlns:cc="http://creativecommons.org/ns#" xmlns:xlink="http://www.w3.org/1999/xlink" xmlns:dc="http://purl.org/dc/elements/1.1/">
 <defs id="defs2410">
  <linearGradient id="ButtonShadow" y2="7.0165" gradientUnits="userSpaceOnUse" x2="45.448" gradientTransform="scale(1.0059 .99417)" y1="92.54" x1="45.448">
   <stop id="stop3750" offset="0"/>
   <stop id="stop3752" style="stop-opacity:.58824" offset="1"/>
  </linearGradient>
  <filter id="filter3174" color-interpolation-filters="sRGB">
   <feGaussianBlur id="feGaussianBlur3176" stdDeviation="1.71"/>
  </filter>
  <filter id="filter3794" height="1.384" width="1.384" color-interpolation-filters="sRGB" y="-.192" x="-.192">
   <feGaussianBlur id="feGaussianBlur3796" stdDeviation="5.28"/>
  </filter>
  <linearGradient id="linearGradient3613" y2="138.66" gradientUnits="userSpaceOnUse" x2="48" y1="20.221" x1="48">
   <stop id="stop3739" style="stop-color:#fff" offset="0"/>
   <stop id="stop3741" style="stop-color:#fff;stop-opacity:0" offset="1"/>
  </linearGradient>
  <clipPath id="clipPath4355">
   <rect id="rect4357" style="fill:#fff" rx="6" ry="6" height="80" width="84" y="6" x="6"/>
  </clipPath>
  <linearGradient id="standardGradient">
   <stop id="stop4283-9" style="stop-color:#1e1e1e" offset="0"/>
   <stop id="stop4285-8" style="stop-color:#505050" offset="1"/>
  </linearGradient>
  <linearGradient id="linearGradient4299" y2="18.098" xlink:href="#standardGradient" gradientUnits="userSpaceOnUse" x2="11.162" gradientTransform="matrix(3.6988 0 0 2.8914 10.902 13.338)" y1="5.6551" x1="11.162"/>
  <filter id="filter4303" color-interpolation-filters="sRGB">
   <feGaussianBlur id="feGaussianBlur4305" stdDeviation="0.63"/>
  </filter>
  <clipPath id="clipPath4309">
   <path id="path4311" style="opacity:.8;fill:url(#linearGradient4299)" d="m60.036 30v9.2961c0 5.4651-1.0244 6.6428-6.4895 6.6428l-11.546 0.061v-10l-20 15 20 15v-10h18.235c5.435 0 9.765-4.524 9.765-9.959v-16.041z"/>
  </clipPath>
 </defs>
 <metadata id="metadata2413">
  <rdf:RDF>
   <cc:Work rdf:about="">
    <dc:format>image/svg+xml</dc:format>
    <dc:type rdf:resource="http://purl.org/dc/dcmitype/StillImage"/>
    <dc:title/>
   </cc:Work>
  </rdf:RDF>
 </metadata>
 <g id="layer2" style="display:none">
  <rect id="rect3745" style="opacity:.9;filter:url(#filter3174);fill:url(#ButtonShadow)" rx="6" ry="6" height="85" width="86" y="7" x="5"/>
 </g>
 <g id="layer5" style="display:none">
  <rect id="rect3171" style="opacity:.1;filter:url(#filter3794);stroke:#fff;stroke-linecap:round;stroke-width:.5;fill:url(#linearGradient3613)" clip-path="url(#clipPath4355)" rx="12" ry="12" height="62" width="66" y="15" x="15"/>
 </g>
 <g id="layer6">
  <path id="path3890" style="opacity:.6;fill:#fff" d="m70 46.031c0 5.435-4.315 9.969-9.75 9.969h-18.25v1h18.25c5.435 0 9.75-4.534 9.75-9.969v-1zm-47.344 5.469-0.656 0.5 20 15v-1l-19.344-14.5z"/>
  <path id="Symbol" style="opacity:.8;fill:url(#linearGradient4299)" d="m60.036 30v9.2961c0 5.4651-1.0244 6.6428-6.4895 6.6428l-11.546 0.061v-10l-20 15 20 15v-10h18.235c5.435 0 9.765-4.524 9.765-9.959v-16.041z"/>
  <path id="path4301" style="opacity:.4;filter:url(#filter4303);stroke:#000;stroke-width:2;fill:none" clip-path="url(#clipPath4309)" d="m60.036 31v9.2961c0 5.4651-1.0244 6.6428-6.4895 6.6428l-11.546 0.061v-10l-20 15 20 15v-10h18.235c5.435 0 9.765-4.524 9.765-9.959v-16.041z"/>
 </g>
</svg>
