<?xml version="1.0" encoding="UTF-8" standalone="no"?>
<!-- Created with Inkscape (http://www.inkscape.org/) -->
<svg id="svg5453" xmlns:rdf="http://www.w3.org/1999/02/22-rdf-syntax-ns#" xmlns="http://www.w3.org/2000/svg" height="64" width="64" version="1.1" xmlns:cc="http://creativecommons.org/ns#" xmlns:xlink="http://www.w3.org/1999/xlink" xmlns:dc="http://purl.org/dc/elements/1.1/">
 <defs id="defs5455">
  <radialGradient id="radialGradient10754" gradientUnits="userSpaceOnUse" cy="45.647" cx="42.148" gradientTransform="matrix(.61708 -.029284 .027419 .57778 378.91 469.39)" r="58.984">
   <stop id="stop10770" style="stop-color:#e1b789" offset="0"/>
   <stop id="stop10772" style="stop-color:#d7a167" offset="1"/>
  </radialGradient>
  <linearGradient id="linearGradient10757" y2="-9.1034" gradientUnits="userSpaceOnUse" x2="66.492" gradientTransform="matrix(.49210 0 0 .49742 385.17 -483.22)" y1="-42.638" x1="67.952">
   <stop id="stop4620" style="stop-color:#37414b" offset="0"/>
   <stop id="stop4622" style="stop-color:#37414b;stop-opacity:0" offset="1"/>
  </linearGradient>
  <linearGradient id="linearGradient10759" y2="-11.847" gradientUnits="userSpaceOnUse" x2="58.98" gradientTransform="matrix(.49210 0 0 .49742 385.17 -483.22)" y1="-118.55" x1="57.173">
   <stop id="stop4596" offset="0"/>
   <stop id="stop4598" style="stop-opacity:0" offset="1"/>
  </linearGradient>
  <linearGradient id="linearGradient10762" y2="50.369" gradientUnits="userSpaceOnUse" x2="76.558" gradientTransform="matrix(.49210 0 0 .49742 385.71 -548.91)" y1="13.164" x1="76.558">
   <stop id="stop3392" style="stop-color:#425e7b" offset="0"/>
   <stop id="stop3394" style="stop-color:#7a91a7" offset="1"/>
  </linearGradient>
  <linearGradient id="linearGradient10764" y2="-8.7399" gradientUnits="userSpaceOnUse" x2="60.217" gradientTransform="matrix(.49210 0 0 .49742 385.17 -483.22)" y1="-123.72" x1="60.395">
   <stop id="stop3392-4-8" style="stop-color:#425e7b" offset="0"/>
   <stop id="stop3394-8-0" style="stop-color:#7a91a7" offset="1"/>
  </linearGradient>
  <linearGradient id="linearGradient10784" y2="499.8" gradientUnits="userSpaceOnUse" x2="414.57" gradientTransform="matrix(1 0 0 .73190 0 134)" y1="541.8" x1="414.57">
   <stop id="stop4174-8" style="stop-color:#d59e62" offset="0"/>
   <stop id="stop4176-2" style="stop-color:#e1b78a" offset="1"/>
  </linearGradient>
  <linearGradient id="linearGradient10787" y2="497.8" gradientUnits="userSpaceOnUse" x2="404.57" gradientTransform="matrix(.82366 0 0 1 79.52 -2.625)" y1="477.8" x1="384.57">
   <stop id="stop4235" style="stop-color:#715434" offset="0"/>
   <stop id="stop4237" style="stop-color:#715434;stop-opacity:0" offset="1"/>
  </linearGradient>
  <linearGradient id="linearGradient10790" y2="505.8" gradientUnits="userSpaceOnUse" x2="414.57" gradientTransform="matrix(1 0 0 .99954 0 -15.757)" y1="523.8" x1="414.57">
   <stop id="stop4234-5" style="stop-color:#84623d" offset="0"/>
   <stop id="stop4236-4" style="stop-color:#a3784a" offset="1"/>
  </linearGradient>
 </defs>
 <metadata id="metadata5458">
  <rdf:RDF>
   <cc:Work rdf:about="">
    <dc:format>image/svg+xml</dc:format>
    <dc:type rdf:resource="http://purl.org/dc/dcmitype/StillImage"/>
    <dc:title/>
   </cc:Work>
  </rdf:RDF>
 </metadata>
 <g id="layer1" transform="translate(-384.57 -483.8)">
  <rect id="rect892" style="stroke:url(#linearGradient10764);stroke-width:.49475;fill:url(#linearGradient10762)" transform="scale(1,-1)" ry="14.878" height="58.676" width="58.048" y="-545.39" x="387.64"/>
  <rect id="rect892-2" style="stroke:url(#linearGradient10759);stroke-width:.49475;fill:url(#linearGradient10757)" transform="scale(1,-1)" ry="14.724" height="58.07" width="58.048" y="-544.99" x="387.65"/>
  <path id="rect895" style="fill:url(#radialGradient10754)" d="m400.86 486.99c-4.0503-1.2438-13.729 7.7065-13.038 11.7-0.0255 0.49454-0.0451 0.99781-0.0451 1.5018v26.621c0 10.602 5.4442 17.195 11.343 17.195h34.071c6.4231 0 12.359-5.7106 12.359-13.133v-32.511c0.35356-5.551-10.819-12.524-13.178-11.488-24.317 0.43952-9.1565 0.11361-31.511 0.11361z"/>
  <path id="rect4180-7" style="fill:url(#linearGradient10790)" d="m399.57 486.8c-11.787 4.2518-11.933 10.12-12 16l0.99999 14c0.0394 0.55233 0.446 1 1 1h54c0.55399 0 1-0.44626 1-1 0.40329-1.1593-1-17 1-17v-2c-0.58693-1.4928-1.2465-2.8404-2-4-3-4-7.313-5.9978-12-7h-17z"/>
  <path id="path4230" style="fill:url(#linearGradient10787);fill-rule:evenodd" d="m399.57 487.17 21.415 26 0.82366 1 23.886-16.743-3.125-4.6318-19.938-1.625-2.471-4z"/>
  <path id="rect4113-1" style="fill:url(#linearGradient10784)" d="m406.57 499.8-3 2.9286h-16v0.73214h0.002c-0.00005 0.003-0.002 0.006-0.002 0.009v26.349 0.73214h1 56 1v-0.73214-26.349-0.009-3.6607h-39z"/>
  <path id="path4151" style="fill:#b0722f" d="m387.45 530.67v1h1 56 1v-1h-1-56-1z"/>
  <path id="path4224" style="fill-opacity:.23529;fill:#fff;fill-rule:evenodd" d="m387.57 503.8v1h17l2-5-3 4z"/>
  <path id="path4228" style="fill:#715434;fill-rule:evenodd" d="m387.57 502.7v1.1h16l3-4-5 2.9z"/>
  <rect id="rect892-2-7-8" style="opacity:.15891;stroke:#000;stroke-width:2.4612;fill:none" transform="scale(1,-1)" ry="14.724" height="58.07" width="58.048" y="-544.83" x="387.55"/>
  <rect id="rect892-2-7-2-9" ry="14.254" style="stroke:#000;stroke-width:.53286;fill:none" transform="scale(1,-1)" height="57.239" width="58.008" y="-544.4" x="387.65"/>
  <rect id="rect892-2-7-1" style="opacity:.15891;stroke:#000;stroke-width:3.9379;fill:none" transform="scale(1,-1)" ry="14.724" height="58.07" width="58.048" y="-544.83" x="387.55"/>
  <path id="path1187" style="fill:#fff;fill-opacity:.057143" d="m400.84 486.97c-12.048 0-13.227 0.34219-13.178 13.354-0.022 0.36343-0.039 0.73329-0.039 1.1037v16.637c9.4888-19.461 19.486-26.153 45.93-31.07-0.11421-0.0133-0.23371-0.0156-0.35102-0.0156-21.13 0.19676-13.037-0.01-32.362-0.01z"/>
  <path id="path3984-0-3-4-7" d="m420.37 508.8c-0.78848 0.0168-1.5774 0.29094-2.2213 0.83504-2.0706 1.7498-0.46235 3.5678-2.268 5.0938-1.8057 1.5259-3.4056-0.29793-5.4763 1.4519v0.003c-0.4599 0.38865-0.79176 0.86989-0.99243 1.3899-0.001 0.004-0.001 0.007-0.003 0.0108-0.0403 0.10576-0.0749 0.21192-0.10447 0.32055-0.0131 0.0483-0.0275 0.0968-0.0385 0.14546-0.001 0.005-0.001 0.0108-0.003 0.0162-0.0225 0.10266-0.0392 0.20571-0.0523 0.30978-0.00011 0.00074 0.00011 0.001 0 0.003-0.00074 0.005-0.002 0.0107-0.003 0.0162-0.006 0.0485-0.0101 0.0968-0.0138 0.14546-0.003 0.0366-0.007 0.0738-0.008 0.11044-0.00074 0.0186-0.002 0.0379-0.003 0.0565-0.00017 0.006 0.00014 0.0126 0 0.0189-0.00073 0.0488-0.00073 0.0966 0 0.14545 0.00043 0.025 0.001 0.0505 0.003 0.0754 0.001 0.0366 0.005 0.0738 0.008 0.11044 0.004 0.0542 0.01 0.1076 0.0166 0.16162 0.00011 0.00074-0.00011 0.001 0 0.003 0.0129 0.10407 0.0296 0.20712 0.0523 0.30977 0.001 0.005 0.001 0.0108 0.003 0.0162 0.0112 0.0489 0.0252 0.0969 0.0385 0.14546 0.0295 0.10862 0.0641 0.21479 0.10447 0.32054 0.001 0.004 0.001 0.007 0.003 0.0108 0.20067 0.52005 0.53253 1.0013 0.99243 1.39v0.003c2.0707 1.7498 3.6706-0.074 5.4763 1.4519s0.19738 3.3439 2.268 5.0938c1.4717 1.2437 3.6929 1.0811 4.9622-0.36095s1.1061-3.6184-0.36563-4.8621c-2.0706-1.7498-3.6706 0.0767-5.4763-1.4492-0.91216-0.77082-0.95213-1.6182-1.0364-2.4916 0.0843-0.87348 0.12427-1.7208 1.0364-2.4916 1.8057-1.5259 3.4056 0.30062 5.4763-1.4492 1.4717-1.2436 1.6349-3.4201 0.36563-4.8621-0.71395-0.81113-1.7271-1.2176-2.7409-1.196z" style="color:#000000;fill-rule:evenodd;fill:#cc8538"/>
 </g>
</svg>
