<?xml version="1.0" encoding="UTF-8" standalone="no"?>
<!-- Created with Inkscape (http://www.inkscape.org/) -->

<svg
   xmlns:dc="http://purl.org/dc/elements/1.1/"
   xmlns:cc="http://creativecommons.org/ns#"
   xmlns:rdf="http://www.w3.org/1999/02/22-rdf-syntax-ns#"
   xmlns:svg="http://www.w3.org/2000/svg"
   xmlns="http://www.w3.org/2000/svg"
   xmlns:sodipodi="http://sodipodi.sourceforge.net/DTD/sodipodi-0.dtd"
   xmlns:inkscape="http://www.inkscape.org/namespaces/inkscape"
   id="svg5453"
   height="64"
   width="64"
   version="1.1"
   inkscape:version="0.48.4 r9939"
   sodipodi:docname="folder-cloud.svg">
  <sodipodi:namedview
     pagecolor="#ffffff"
     bordercolor="#666666"
     borderopacity="1"
     objecttolerance="10"
     gridtolerance="10"
     guidetolerance="10"
     inkscape:pageopacity="0"
     inkscape:pageshadow="2"
     inkscape:window-width="1360"
     inkscape:window-height="707"
     id="namedview44"
     showgrid="false"
     inkscape:zoom="5.2149125"
     inkscape:cx="53.257482"
     inkscape:cy="13.265246"
     inkscape:window-x="-2"
     inkscape:window-y="33"
     inkscape:window-maximized="1"
     inkscape:current-layer="svg5453" />
  <defs
     id="defs5455">
    <radialGradient
       id="radialGradient10754"
       gradientUnits="userSpaceOnUse"
       cy="45.647"
       cx="42.148"
       gradientTransform="matrix(.61708 -.029284 .027419 .57778 378.91 469.39)"
       r="58.984">
      <stop
         id="stop10770"
         style="stop-color:#e1b789"
         offset="0" />
      <stop
         id="stop10772"
         style="stop-color:#d7a167"
         offset="1" />
    </radialGradient>
    <linearGradient
       id="linearGradient10757"
       y2="-9.1034"
       gradientUnits="userSpaceOnUse"
       x2="66.492"
       gradientTransform="matrix(.49210 0 0 .49742 385.17 -483.22)"
       y1="-42.638"
       x1="67.952">
      <stop
         id="stop4620"
         style="stop-color:#37414b"
         offset="0" />
      <stop
         id="stop4622"
         style="stop-color:#37414b;stop-opacity:0"
         offset="1" />
    </linearGradient>
    <linearGradient
       id="linearGradient10759"
       y2="-11.847"
       gradientUnits="userSpaceOnUse"
       x2="58.98"
       gradientTransform="matrix(.49210 0 0 .49742 385.17 -483.22)"
       y1="-118.55"
       x1="57.173">
      <stop
         id="stop4596"
         offset="0" />
      <stop
         id="stop4598"
         style="stop-opacity:0"
         offset="1" />
    </linearGradient>
    <linearGradient
       id="linearGradient10762"
       y2="50.369"
       gradientUnits="userSpaceOnUse"
       x2="76.558"
       gradientTransform="matrix(.49210 0 0 .49742 385.71 -548.91)"
       y1="13.164"
       x1="76.558">
      <stop
         id="stop3392"
         style="stop-color:#425e7b"
         offset="0" />
      <stop
         id="stop3394"
         style="stop-color:#7a91a7"
         offset="1" />
    </linearGradient>
    <linearGradient
       id="linearGradient10764"
       y2="-8.7399"
       gradientUnits="userSpaceOnUse"
       x2="60.217"
       gradientTransform="matrix(.49210 0 0 .49742 385.17 -483.22)"
       y1="-123.72"
       x1="60.395">
      <stop
         id="stop3392-4-8"
         style="stop-color:#425e7b"
         offset="0" />
      <stop
         id="stop3394-8-0"
         style="stop-color:#7a91a7"
         offset="1" />
    </linearGradient>
    <linearGradient
       id="linearGradient10784"
       y2="499.8"
       gradientUnits="userSpaceOnUse"
       x2="414.57"
       gradientTransform="matrix(1 0 0 .73190 0 134)"
       y1="541.8"
       x1="414.57">
      <stop
         id="stop4174-8"
         style="stop-color:#d59e62"
         offset="0" />
      <stop
         id="stop4176-2"
         style="stop-color:#e1b78a"
         offset="1" />
    </linearGradient>
    <linearGradient
       id="linearGradient10787"
       y2="497.8"
       gradientUnits="userSpaceOnUse"
       x2="404.57"
       gradientTransform="matrix(.82366 0 0 1 79.52 -2.625)"
       y1="477.8"
       x1="384.57">
      <stop
         id="stop4235"
         style="stop-color:#715434"
         offset="0" />
      <stop
         id="stop4237"
         style="stop-color:#715434;stop-opacity:0"
         offset="1" />
    </linearGradient>
    <linearGradient
       id="linearGradient10790"
       y2="505.8"
       gradientUnits="userSpaceOnUse"
       x2="414.57"
       gradientTransform="matrix(1 0 0 .99954 0 -15.757)"
       y1="523.8"
       x1="414.57">
      <stop
         id="stop4234-5"
         style="stop-color:#84623d"
         offset="0" />
      <stop
         id="stop4236-4"
         style="stop-color:#a3784a"
         offset="1" />
    </linearGradient>
  </defs>
  <metadata
     id="metadata5458">
    <rdf:RDF>
      <cc:Work
         rdf:about="">
        <dc:format>image/svg+xml</dc:format>
        <dc:type
           rdf:resource="http://purl.org/dc/dcmitype/StillImage" />
        <dc:title></dc:title>
      </cc:Work>
    </rdf:RDF>
  </metadata>
  <g
     id="layer1"
     transform="translate(-384.57 -483.8)">
    <rect
       id="rect892"
       style="stroke:url(#linearGradient10764);stroke-width:.49475;fill:url(#linearGradient10762)"
       transform="scale(1,-1)"
       ry="14.878"
       height="58.676"
       width="58.048"
       y="-545.39"
       x="387.64" />
    <rect
       id="rect892-2"
       style="stroke:url(#linearGradient10759);stroke-width:.49475;fill:url(#linearGradient10757)"
       transform="scale(1,-1)"
       ry="14.724"
       height="58.07"
       width="58.048"
       y="-544.99"
       x="387.65" />
    <path
       id="rect895"
       style="fill:url(#radialGradient10754)"
       d="m400.86 486.99c-4.0503-1.2438-13.729 7.7065-13.038 11.7-0.0255 0.49454-0.0451 0.99781-0.0451 1.5018v26.621c0 10.602 5.4442 17.195 11.343 17.195h34.071c6.4231 0 12.359-5.7106 12.359-13.133v-32.511c0.35356-5.551-10.819-12.524-13.178-11.488-24.317 0.43952-9.1565 0.11361-31.511 0.11361z" />
    <path
       id="rect4180-7"
       style="fill:url(#linearGradient10790)"
       d="m399.57 486.8c-11.787 4.2518-11.933 10.12-12 16l0.99999 14c0.0394 0.55233 0.446 1 1 1h54c0.55399 0 1-0.44626 1-1 0.40329-1.1593-1-17 1-17v-2c-0.58693-1.4928-1.2465-2.8404-2-4-3-4-7.313-5.9978-12-7h-17z" />
    <path
       id="path4230"
       style="fill:url(#linearGradient10787);fill-rule:evenodd"
       d="m399.57 487.17 21.415 26 0.82366 1 23.886-16.743-3.125-4.6318-19.938-1.625-2.471-4z" />
    <path
       id="rect4113-1"
       style="fill:url(#linearGradient10784)"
       d="m406.57 499.8-3 2.9286h-16v0.73214h0.002c-0.00005 0.003-0.002 0.006-0.002 0.009v26.349 0.73214h1 56 1v-0.73214-26.349-0.009-3.6607h-39z" />
    <path
       id="path4151"
       style="fill:#b0722f"
       d="m387.45 530.67v1h1 56 1v-1h-1-56-1z" />
    <path
       id="path4224"
       style="fill-opacity:.23529;fill:#fff;fill-rule:evenodd"
       d="m387.57 503.8v1h17l2-5-3 4z" />
    <path
       id="path4228"
       style="fill:#715434;fill-rule:evenodd"
       d="m387.57 502.7v1.1h16l3-4-5 2.9z" />
    <rect
       id="rect892-2-7-8"
       style="opacity:.15891;stroke:#000;stroke-width:2.4612;fill:none"
       transform="scale(1,-1)"
       ry="14.724"
       height="58.07"
       width="58.048"
       y="-544.83"
       x="387.55" />
    <rect
       id="rect892-2-7-2-9"
       ry="14.254"
       style="stroke:#000;stroke-width:.53286;fill:none"
       transform="scale(1,-1)"
       height="57.239"
       width="58.008"
       y="-544.4"
       x="387.65" />
    <rect
       id="rect892-2-7-1"
       style="opacity:.15891;stroke:#000;stroke-width:3.9379;fill:none"
       transform="scale(1,-1)"
       ry="14.724"
       height="58.07"
       width="58.048"
       y="-544.83"
       x="387.55" />
    <path
       id="path1187"
       style="fill:#fff;fill-opacity:.057143"
       d="m400.84 486.97c-12.048 0-13.227 0.34219-13.178 13.354-0.022 0.36343-0.039 0.73329-0.039 1.1037v16.637c9.4888-19.461 19.486-26.153 45.93-31.07-0.11421-0.0133-0.23371-0.0156-0.35102-0.0156-21.13 0.19676-13.037-0.01-32.362-0.01z" />
  </g>
  <g
     id="g4098"
     transform="translate(-40.890566,-2.143742)">
    <path
       id="rect4519-9"
       d="m 80.866425,26.743496 c -2.270827,0 -4.247387,1.288575 -5.287564,3.181288 -0.668536,-0.285525 -1.407046,-0.452367 -2.18336,-0.475006 -0.0592,-0.0026 -0.119339,-0.0042 -0.179169,-0.0042 -0.0495,0 -0.09872,9.13e-4 -0.147918,0.0021 -0.01739,6e-4 -0.03475,0.0013 -0.05208,0.0021 -3.075413,0.09878 -5.537567,2.46639 -5.537567,5.372981 0,0.340118 0.0314,0.669087 0.09583,0.991679 -2.374442,0.743589 -4.085466,2.836887 -4.085466,5.31882 0,3.108051 2.66949,5.610484 5.985489,5.610484 l 6.218825,0 c 0.441596,0 0.872503,-0.04122 1.287515,-0.120834 0.408978,0.07932 0.831776,0.120834 1.264599,0.120834 l 6.579246,0 c 3.507921,0 6.331326,-2.894023 6.331326,-6.487577 0,-2.869634 -1.809016,-5.288255 -4.320885,-6.147991 0.06816,-0.372984 0.100001,-0.754683 0.100001,-1.147931 0,-3.433162 -2.717472,-6.216741 -6.068823,-6.216741 z"
       style="color:#000000;fill:none;stroke:#cc8538;stroke-width:0.80000001;stroke-miterlimit:4;stroke-opacity:1;stroke-dasharray:none;marker:none;visibility:visible;display:inline;overflow:visible;enable-background:accumulate"
       inkscape:connector-curvature="0" />
    <path
       id="rect4519-9-8"
       d="m 72,24.65625 c -2.270827,0 -4.241073,1.294787 -5.28125,3.1875 -0.668536,-0.285525 -1.411186,-0.446111 -2.1875,-0.46875 -0.0592,-0.0026 -0.12767,0 -0.1875,0 -0.0495,0 -0.0758,-0.0012 -0.125,0 -0.01739,6e-4 -0.04517,-8e-4 -0.0625,0 -3.075413,0.09878 -5.53125,2.468409 -5.53125,5.375 0,0.340118 0.02932,0.646158 0.09375,0.96875 -2.374442,0.743589 -4.09375,2.861817 -4.09375,5.34375 0,3.108051 2.684001,5.59375 6,5.59375 l 4.125,0 c -0.816489,-0.958779 -1.3125,-2.17238 -1.3125,-3.5 0,-2.481933 1.719308,-4.568911 4.09375,-5.3125 -0.06443,-0.322592 -0.09375,-0.659882 -0.09375,-1 0,-2.906591 2.455837,-5.27622 5.53125,-5.375 0.01733,-8e-4 0.04511,6e-4 0.0625,0 0.0492,-0.0012 0.10675,0 0.15625,0 0.05983,0 0.09705,-0.0026 0.15625,0 0.776314,0.02264 1.518964,0.183225 2.1875,0.46875 0.447464,-0.814208 1.069589,-1.495126 1.8125,-2.03125 -1.027774,-1.937908 -3.039696,-3.25 -5.34375,-3.25 z"
       style="color:#000000;fill:#cc8538;fill-opacity:1;stroke:#cc8538;stroke-width:0.80000001;stroke-miterlimit:4;stroke-opacity:1;stroke-dasharray:none;marker:none;visibility:visible;display:inline;overflow:visible;enable-background:accumulate"
       inkscape:connector-curvature="0" />
  </g>
</svg>
