<?xml version="1.0" encoding="UTF-8" standalone="no"?>
<!-- Created with Inkscape (http://www.inkscape.org/) -->

<svg
   xmlns:dc="http://purl.org/dc/elements/1.1/"
   xmlns:cc="http://creativecommons.org/ns#"
   xmlns:rdf="http://www.w3.org/1999/02/22-rdf-syntax-ns#"
   xmlns:svg="http://www.w3.org/2000/svg"
   xmlns="http://www.w3.org/2000/svg"
   xmlns:xlink="http://www.w3.org/1999/xlink"
   xmlns:sodipodi="http://sodipodi.sourceforge.net/DTD/sodipodi-0.dtd"
   xmlns:inkscape="http://www.inkscape.org/namespaces/inkscape"
   id="svg5453"
   height="64"
   width="64"
   version="1.1"
   inkscape:version="0.48.4 r9939"
   sodipodi:docname="folders-ubuntu.svg">
  <sodipodi:namedview
     pagecolor="#ffffff"
     bordercolor="#666666"
     borderopacity="1"
     objecttolerance="10"
     gridtolerance="10"
     guidetolerance="10"
     inkscape:pageopacity="0"
     inkscape:pageshadow="2"
     inkscape:window-width="1360"
     inkscape:window-height="707"
     id="namedview44"
     showgrid="false"
     inkscape:zoom="3.6875"
     inkscape:cx="-12.881356"
     inkscape:cy="32"
     inkscape:window-x="-2"
     inkscape:window-y="33"
     inkscape:window-maximized="1"
     inkscape:current-layer="svg5453" />
  <defs
     id="defs5455">
    <radialGradient
       id="radialGradient10754"
       gradientUnits="userSpaceOnUse"
       cy="45.647"
       cx="42.148"
       gradientTransform="matrix(0.61708,-0.029284,0.027419,0.57778,378.91,469.39)"
       r="58.984">
      <stop
         id="stop10770"
         style="stop-color:#e1b789"
         offset="0" />
      <stop
         id="stop10772"
         style="stop-color:#d7a167"
         offset="1" />
    </radialGradient>
    <linearGradient
       id="linearGradient10757"
       y2="-9.1034"
       gradientUnits="userSpaceOnUse"
       x2="66.492"
       gradientTransform="matrix(0.4921,0,0,0.49742,385.17,-483.22)"
       y1="-42.638"
       x1="67.952">
      <stop
         id="stop4620"
         style="stop-color:#37414b"
         offset="0" />
      <stop
         id="stop4622"
         style="stop-color:#37414b;stop-opacity:0"
         offset="1" />
    </linearGradient>
    <linearGradient
       id="linearGradient10759"
       y2="-11.847"
       gradientUnits="userSpaceOnUse"
       x2="58.98"
       gradientTransform="matrix(0.4921,0,0,0.49742,385.17,-483.22)"
       y1="-118.55"
       x1="57.173">
      <stop
         id="stop4596"
         offset="0" />
      <stop
         id="stop4598"
         style="stop-opacity:0"
         offset="1" />
    </linearGradient>
    <linearGradient
       id="linearGradient10762"
       y2="50.369"
       gradientUnits="userSpaceOnUse"
       x2="76.558"
       gradientTransform="matrix(0.4921,0,0,0.49742,385.71,-548.91)"
       y1="13.164"
       x1="76.558">
      <stop
         id="stop3392"
         style="stop-color:#425e7b"
         offset="0" />
      <stop
         id="stop3394"
         style="stop-color:#7a91a7"
         offset="1" />
    </linearGradient>
    <linearGradient
       id="linearGradient10764"
       y2="-8.7399"
       gradientUnits="userSpaceOnUse"
       x2="60.217"
       gradientTransform="matrix(0.4921,0,0,0.49742,385.17,-483.22)"
       y1="-123.72"
       x1="60.395">
      <stop
         id="stop3392-4-8"
         style="stop-color:#425e7b"
         offset="0" />
      <stop
         id="stop3394-8-0"
         style="stop-color:#7a91a7"
         offset="1" />
    </linearGradient>
    <linearGradient
       id="linearGradient10784"
       y2="499.8"
       gradientUnits="userSpaceOnUse"
       x2="414.57"
       gradientTransform="matrix(1,0,0,0.7319,0,134)"
       y1="541.8"
       x1="414.57">
      <stop
         id="stop4174-8"
         style="stop-color:#d59e62"
         offset="0" />
      <stop
         id="stop4176-2"
         style="stop-color:#e1b78a"
         offset="1" />
    </linearGradient>
    <linearGradient
       id="linearGradient10787"
       y2="497.8"
       gradientUnits="userSpaceOnUse"
       x2="404.57"
       gradientTransform="matrix(0.82366,0,0,1,79.52,-2.625)"
       y1="477.8"
       x1="384.57">
      <stop
         id="stop4235"
         style="stop-color:#715434"
         offset="0" />
      <stop
         id="stop4237"
         style="stop-color:#715434;stop-opacity:0"
         offset="1" />
    </linearGradient>
    <linearGradient
       id="linearGradient10790"
       y2="505.8"
       gradientUnits="userSpaceOnUse"
       x2="414.57"
       gradientTransform="matrix(1,0,0,0.99954,0,-15.757)"
       y1="523.8"
       x1="414.57">
      <stop
         id="stop4234-5"
         style="stop-color:#84623d"
         offset="0" />
      <stop
         id="stop4236-4"
         style="stop-color:#a3784a"
         offset="1" />
    </linearGradient>
    <linearGradient
       inkscape:collect="always"
       xlink:href="#linearGradient10784"
       id="linearGradient3030"
       gradientUnits="userSpaceOnUse"
       gradientTransform="matrix(1,0,0,0.7319,-384.57,-349.8)"
       x1="414.57"
       y1="541.8"
       x2="414.57"
       y2="499.8" />
    <linearGradient
       inkscape:collect="always"
       xlink:href="#linearGradient10787"
       id="linearGradient3033"
       gradientUnits="userSpaceOnUse"
       gradientTransform="matrix(0.82366,0,0,1,-305.05,-486.425)"
       x1="384.57"
       y1="477.8"
       x2="404.57"
       y2="497.8" />
    <linearGradient
       inkscape:collect="always"
       xlink:href="#linearGradient10790"
       id="linearGradient3036"
       gradientUnits="userSpaceOnUse"
       gradientTransform="matrix(1,0,0,0.99954,-384.57,-499.557)"
       x1="414.57"
       y1="523.8"
       x2="414.57"
       y2="505.8" />
    <radialGradient
       inkscape:collect="always"
       xlink:href="#radialGradient10754"
       id="radialGradient3039"
       gradientUnits="userSpaceOnUse"
       gradientTransform="matrix(0.61708,-0.029284,0.027419,0.57778,-5.66,-14.41)"
       cx="42.148"
       cy="45.647"
       r="58.984" />
    <linearGradient
       inkscape:collect="always"
       xlink:href="#linearGradient10757"
       id="linearGradient3042"
       gradientUnits="userSpaceOnUse"
       gradientTransform="matrix(0.4921,0,0,0.49742,0.6,0.58)"
       x1="67.952"
       y1="-42.638"
       x2="66.492"
       y2="-9.1034" />
    <linearGradient
       inkscape:collect="always"
       xlink:href="#linearGradient10759"
       id="linearGradient3044"
       gradientUnits="userSpaceOnUse"
       gradientTransform="matrix(0.4921,0,0,0.49742,0.6,0.58)"
       x1="57.173"
       y1="-118.55"
       x2="58.98"
       y2="-11.847" />
    <linearGradient
       inkscape:collect="always"
       xlink:href="#linearGradient10762"
       id="linearGradient3047"
       gradientUnits="userSpaceOnUse"
       gradientTransform="matrix(0.4921,0,0,0.49742,1.14,-65.11)"
       x1="76.558"
       y1="13.164"
       x2="76.558"
       y2="50.369" />
    <linearGradient
       inkscape:collect="always"
       xlink:href="#linearGradient10764"
       id="linearGradient3049"
       gradientUnits="userSpaceOnUse"
       gradientTransform="matrix(0.4921,0,0,0.49742,0.6,0.58)"
       x1="60.395"
       y1="-123.72"
       x2="60.217"
       y2="-8.7399" />
  </defs>
  <metadata
     id="metadata5458">
    <rdf:RDF>
      <cc:Work
         rdf:about="">
        <dc:format>image/svg+xml</dc:format>
        <dc:type
           rdf:resource="http://purl.org/dc/dcmitype/StillImage" />
        <dc:title />
      </cc:Work>
    </rdf:RDF>
  </metadata>
  <rect
     x="3.0700147"
     y="-61.590015"
     width="58.048"
     height="58.675999"
     ry="14.878"
     transform="scale(1,-1)"
     style="fill:url(#linearGradient3047);stroke:url(#linearGradient3049);stroke-width:0.49474999"
     id="rect892" />
  <rect
     x="3.079994"
     y="-61.189991"
     width="58.048"
     height="58.07"
     ry="14.724"
     transform="scale(1,-1)"
     style="fill:url(#linearGradient3042);stroke:url(#linearGradient3044);stroke-width:0.49474999"
     id="rect892-2" />
  <path
     inkscape:connector-curvature="0"
     d="M 16.29,3.19 C 12.2397,1.9462 2.561,10.8965 3.252,14.89 3.2265,15.38454 3.2069,15.88781 3.2069,16.3918 v 26.621 c 0,10.602 5.4442,17.195 11.343,17.195 h 34.071 c 6.4231,0 12.359,-5.7106 12.359,-13.133 V 14.5638 C 61.33346,9.0128 50.1609,2.0398 47.8019,3.0758 23.4849,3.51532 38.6454,3.18941 16.2909,3.18941 z"
     style="fill:url(#radialGradient3039)"
     id="rect895" />
  <path
     inkscape:connector-curvature="0"
     d="M 15,3 C 3.213,7.2518 3.067,13.12 3,19 l 0.99999,14 c 0.0394,0.55233 0.446,1 1,1 h 54 c 0.55399,0 1,-0.44626 1,-1 0.40329,-1.1593 -1,-17 1,-17 v -2 c -0.58693,-1.4928 -1.2465,-2.8404 -2,-4 -3,-4 -7.313,-5.9978 -12,-7 h -17 z"
     style="fill:url(#linearGradient3036)"
     id="rect4180-7" />
  <path
     inkscape:connector-curvature="0"
     d="m 15,3.37 21.415,26 0.82366,1 23.886,-16.743 -3.125,-4.6318 -19.938,-1.625 -2.471,-4 z"
     style="fill:url(#linearGradient3033);fill-rule:evenodd"
     id="path4230" />
  <path
     inkscape:connector-curvature="0"
     d="m 22,16 -3,2.9286 H 3 v 0.73214 h 0.002 c -5e-5,0.003 -0.002,0.006 -0.002,0.009 v 26.349 0.73214 h 1 56 1 v -0.73214 -26.349 -0.009 -3.6607 H 22 z"
     style="fill:url(#linearGradient3030)"
     id="rect4113-1" />
  <path
     inkscape:connector-curvature="0"
     d="m 2.88,46.87 v 1 h 1 56 1 v -1 h -1 -56 -1 z"
     style="fill:#b0722f"
     id="path4151" />
  <path
     inkscape:connector-curvature="0"
     d="m 3,20 v 1 h 17 l 2,-5 -3,4 z"
     style="fill:#ffffff;fill-opacity:0.23528999;fill-rule:evenodd"
     id="path4224" />
  <path
     inkscape:connector-curvature="0"
     d="M 3,18.9 V 20 h 16 l 3,-4 -5,2.9 z"
     style="fill:#715434;fill-rule:evenodd"
     id="path4228" />
  <rect
     x="2.9799879"
     y="-61.030018"
     width="58.048"
     height="58.07"
     ry="14.724"
     transform="scale(1,-1)"
     style="opacity:0.15891;fill:none;stroke:#000000;stroke-width:2.4612"
     id="rect892-2-7-8" />
  <rect
     x="3.079994"
     y="-60.600025"
     width="58.007999"
     height="57.238998"
     transform="scale(1,-1)"
     style="fill:none;stroke:#000000;stroke-width:0.53285998"
     ry="14.254"
     id="rect892-2-7-2-9" />
  <rect
     x="2.9799879"
     y="-61.030018"
     width="58.048"
     height="58.07"
     ry="14.724"
     transform="scale(1,-1)"
     style="opacity:0.15891;fill:none;stroke:#000000;stroke-width:3.93790007"
     id="rect892-2-7-1" />
  <path
     inkscape:connector-curvature="0"
     d="M 16.27,3.17 C 4.222,3.17 3.043,3.51219 3.092,16.524 3.07,16.88743 3.053,17.25729 3.053,17.6277 v 16.637 c 9.4888,-19.461 19.486,-26.153 45.93,-31.07 -0.11421,-0.0133 -0.23371,-0.0156 -0.35102,-0.0156 -21.13,0.19676 -13.037,-0.01 -32.362,-0.01 z"
     style="fill:#ffffff;fill-opacity:0.05714303"
     id="path1187" />
  <path
     inkscape:connector-curvature="0"
     style="opacity:0.90000000000000002;fill:#cc8538;fill-opacity:1"
     d="m 38.07,25 c -1.1324,0 -2.0494,0.90684 -2.0494,2.0248 0,1.1179 0.91695,2.0248 2.0494,2.0248 1.13245,0 2.0494,-0.90685 2.0494,-2.0248 C 40.1194,25.9069 39.20245,25 38.07,25 z m -4.328,1.5858 c -1.2638,1.6e-4 -2.5452,0.31531 -3.6975,0.87788 -0.041,0.0201 -0.0665,0.0557 -0.0788,0.0991 -0.0125,0.0434 -0.01,0.0892 0.0143,0.12744 l 1.6624,2.5982 c 0.0421,0.0661 0.1277,0.094 0.20064,0.0637 0.61528,-0.25699 1.2538,-0.3823 1.8989,-0.3823 2.373,0 4.4432,1.7373 4.8153,4.0425 0.0125,0.0774 0.0785,0.13451 0.15764,0.13451 h 3.1242 c 0.0456,0 0.0912,-0.0162 0.12181,-0.0496 0.0307,-0.0333 0.0473,-0.0753 0.043,-0.12036 -0.1685,-1.7104 -0.90859,-3.3664 -2.078,-4.6513 -0.0528,-0.0583 -0.14109,-0.0638 -0.2078,-0.0212 -0.47155,0.30088 -1.0066,0.46018 -1.5478,0.46018 -1.5789,0 -2.8589,-1.2673 -2.8591,-2.8177 1.6e-4,-8.5e-4 0,-0.054 0,-0.0566 0,-0.0772 -0.0586,-0.14955 -0.13615,-0.16283 -0.49367,-0.0845 -0.97288,-0.14159 -1.4331,-0.14159 z m -5.0159,1.6991 c -0.0216,0.005 -0.0467,0.0146 -0.0645,0.0283 -1.3552,1.0312 -2.3714,2.4815 -2.8662,4.085 -0.0194,0.0627 -0.002,0.12911 0.0502,0.16991 0.68101,0.53294 1.0892,1.3533 1.0892,2.1947 0,0.84142 -0.40799,1.6618 -1.0892,2.1947 -0.052,0.0406 -0.0695,0.10709 -0.0502,0.16992 0.49089,1.59 1.4992,3.0348 2.8376,4.0637 0.0359,0.0277 0.0769,0.0432 0.12181,0.0354 0.0447,-0.008 0.0831,-0.0402 0.10749,-0.0779 l 1.6768,-2.5912 c 0.0428,-0.0662 0.0312,-0.15332 -0.0286,-0.20531 -1.0504,-0.91315 -1.6553,-2.2225 -1.6553,-3.5894 0,-1.3771 0.60816,-2.69 1.6696,-3.6035 0.0598,-0.0516 0.0783,-0.13875 0.0359,-0.20531 l -1.6624,-2.5982 c -0.0242,-0.0379 -0.0627,-0.063 -0.10748,-0.0708 -0.0224,-0.004 -0.0429,-0.005 -0.0645,0 z m -4.6218,4.446 c -1.1589,0 -2.0995,0.9301 -2.0995,2.0743 0,1.1442 0.94059,2.0673 2.0995,2.0673 1.15891,0 2.0995,-0.92303 2.0995,-2.0673 0,-1.1442 -0.94059,-2.0743 -2.0995,-2.0743 z m 17.735,2.6761 -3.1242,0.007 c -0.0788,1.7e-4 -0.15219,0.0578 -0.16481,0.13452 -0.37714,2.288 -2.4417,4.0142 -4.8081,4.0142 -0.65266,0 -1.2982,-0.13315 -1.9204,-0.39646 -0.0728,-0.0306 -0.15786,-0.009 -0.20064,0.0566 l -1.6768,2.5982 c -0.0244,0.038 -0.0265,0.0839 -0.0143,0.12743 0.0121,0.0434 0.038,0.079 0.0788,0.0991 1.1612,0.57438 2.4548,0.87787 3.7333,0.87787 0.47418,0 0.96922,-0.0469 1.469,-0.13451 0.0702,-0.0122 0.12062,-0.0647 0.12898,-0.13451 0.16652,-1.421 1.3828,-2.492 2.8304,-2.492 0.44877,0 0.91064,0.11191 1.3256,0.32566 0.0631,0.0325 0.13632,0.0221 0.18631,-0.0283 1.3088,-1.3186 2.1361,-3.0572 2.3217,-4.885 0.005,-0.0449 -0.0122,-0.0868 -0.043,-0.12035 -0.0308,-0.0335 -0.0763,-0.0497 -0.12182,-0.0496 z m -3.6903,5.4726 c -1.1589,0 -2.0995,0.92185 -2.0995,2.0602 0,1.1383 0.94059,2.0602 2.0995,2.0602 1.15891,0 2.0995,-0.92185 2.0995,-2.0602 0,-1.1383 -0.94059,-2.0602 -2.0995,-2.0602 z"
     id="path3324" />
</svg>
