<?xml version="1.0" encoding="UTF-8" standalone="no"?>
<!-- Created with Inkscape (http://www.inkscape.org/) -->

<svg
   xmlns:dc="http://purl.org/dc/elements/1.1/"
   xmlns:cc="http://creativecommons.org/ns#"
   xmlns:rdf="http://www.w3.org/1999/02/22-rdf-syntax-ns#"
   xmlns:svg="http://www.w3.org/2000/svg"
   xmlns="http://www.w3.org/2000/svg"
   xmlns:sodipodi="http://sodipodi.sourceforge.net/DTD/sodipodi-0.dtd"
   xmlns:inkscape="http://www.inkscape.org/namespaces/inkscape"
   id="svg5453"
   height="64"
   width="64"
   version="1.1"
   inkscape:version="0.48.4 r9939"
   sodipodi:docname="folder-copycom.svg">
  <sodipodi:namedview
     pagecolor="#ffffff"
     bordercolor="#666666"
     borderopacity="1"
     objecttolerance="10"
     gridtolerance="10"
     guidetolerance="10"
     inkscape:pageopacity="0"
     inkscape:pageshadow="2"
     inkscape:window-width="1360"
     inkscape:window-height="707"
     id="namedview44"
     showgrid="false"
     inkscape:zoom="5.2149125"
     inkscape:cx="30.630065"
     inkscape:cy="13.265246"
     inkscape:window-x="-2"
     inkscape:window-y="33"
     inkscape:window-maximized="1"
     inkscape:current-layer="svg5453" />
  <defs
     id="defs5455">
    <radialGradient
       id="radialGradient10754"
       gradientUnits="userSpaceOnUse"
       cy="45.647"
       cx="42.148"
       gradientTransform="matrix(.61708 -.029284 .027419 .57778 378.91 469.39)"
       r="58.984">
      <stop
         id="stop10770"
         style="stop-color:#e1b789"
         offset="0" />
      <stop
         id="stop10772"
         style="stop-color:#d7a167"
         offset="1" />
    </radialGradient>
    <linearGradient
       id="linearGradient10757"
       y2="-9.1034"
       gradientUnits="userSpaceOnUse"
       x2="66.492"
       gradientTransform="matrix(.49210 0 0 .49742 385.17 -483.22)"
       y1="-42.638"
       x1="67.952">
      <stop
         id="stop4620"
         style="stop-color:#37414b"
         offset="0" />
      <stop
         id="stop4622"
         style="stop-color:#37414b;stop-opacity:0"
         offset="1" />
    </linearGradient>
    <linearGradient
       id="linearGradient10759"
       y2="-11.847"
       gradientUnits="userSpaceOnUse"
       x2="58.98"
       gradientTransform="matrix(.49210 0 0 .49742 385.17 -483.22)"
       y1="-118.55"
       x1="57.173">
      <stop
         id="stop4596"
         offset="0" />
      <stop
         id="stop4598"
         style="stop-opacity:0"
         offset="1" />
    </linearGradient>
    <linearGradient
       id="linearGradient10762"
       y2="50.369"
       gradientUnits="userSpaceOnUse"
       x2="76.558"
       gradientTransform="matrix(.49210 0 0 .49742 385.71 -548.91)"
       y1="13.164"
       x1="76.558">
      <stop
         id="stop3392"
         style="stop-color:#425e7b"
         offset="0" />
      <stop
         id="stop3394"
         style="stop-color:#7a91a7"
         offset="1" />
    </linearGradient>
    <linearGradient
       id="linearGradient10764"
       y2="-8.7399"
       gradientUnits="userSpaceOnUse"
       x2="60.217"
       gradientTransform="matrix(.49210 0 0 .49742 385.17 -483.22)"
       y1="-123.72"
       x1="60.395">
      <stop
         id="stop3392-4-8"
         style="stop-color:#425e7b"
         offset="0" />
      <stop
         id="stop3394-8-0"
         style="stop-color:#7a91a7"
         offset="1" />
    </linearGradient>
    <linearGradient
       id="linearGradient10784"
       y2="499.8"
       gradientUnits="userSpaceOnUse"
       x2="414.57"
       gradientTransform="matrix(1 0 0 .73190 0 134)"
       y1="541.8"
       x1="414.57">
      <stop
         id="stop4174-8"
         style="stop-color:#d59e62"
         offset="0" />
      <stop
         id="stop4176-2"
         style="stop-color:#e1b78a"
         offset="1" />
    </linearGradient>
    <linearGradient
       id="linearGradient10787"
       y2="497.8"
       gradientUnits="userSpaceOnUse"
       x2="404.57"
       gradientTransform="matrix(.82366 0 0 1 79.52 -2.625)"
       y1="477.8"
       x1="384.57">
      <stop
         id="stop4235"
         style="stop-color:#715434"
         offset="0" />
      <stop
         id="stop4237"
         style="stop-color:#715434;stop-opacity:0"
         offset="1" />
    </linearGradient>
    <linearGradient
       id="linearGradient10790"
       y2="505.8"
       gradientUnits="userSpaceOnUse"
       x2="414.57"
       gradientTransform="matrix(1 0 0 .99954 0 -15.757)"
       y1="523.8"
       x1="414.57">
      <stop
         id="stop4234-5"
         style="stop-color:#84623d"
         offset="0" />
      <stop
         id="stop4236-4"
         style="stop-color:#a3784a"
         offset="1" />
    </linearGradient>
  </defs>
  <metadata
     id="metadata5458">
    <rdf:RDF>
      <cc:Work
         rdf:about="">
        <dc:format>image/svg+xml</dc:format>
        <dc:type
           rdf:resource="http://purl.org/dc/dcmitype/StillImage" />
        <dc:title></dc:title>
      </cc:Work>
    </rdf:RDF>
  </metadata>
  <g
     id="layer1"
     transform="translate(-384.57 -483.8)">
    <rect
       id="rect892"
       style="stroke:url(#linearGradient10764);stroke-width:.49475;fill:url(#linearGradient10762)"
       transform="scale(1,-1)"
       ry="14.878"
       height="58.676"
       width="58.048"
       y="-545.39"
       x="387.64" />
    <rect
       id="rect892-2"
       style="stroke:url(#linearGradient10759);stroke-width:.49475;fill:url(#linearGradient10757)"
       transform="scale(1,-1)"
       ry="14.724"
       height="58.07"
       width="58.048"
       y="-544.99"
       x="387.65" />
    <path
       id="rect895"
       style="fill:url(#radialGradient10754)"
       d="m400.86 486.99c-4.0503-1.2438-13.729 7.7065-13.038 11.7-0.0255 0.49454-0.0451 0.99781-0.0451 1.5018v26.621c0 10.602 5.4442 17.195 11.343 17.195h34.071c6.4231 0 12.359-5.7106 12.359-13.133v-32.511c0.35356-5.551-10.819-12.524-13.178-11.488-24.317 0.43952-9.1565 0.11361-31.511 0.11361z" />
    <path
       id="rect4180-7"
       style="fill:url(#linearGradient10790)"
       d="m399.57 486.8c-11.787 4.2518-11.933 10.12-12 16l0.99999 14c0.0394 0.55233 0.446 1 1 1h54c0.55399 0 1-0.44626 1-1 0.40329-1.1593-1-17 1-17v-2c-0.58693-1.4928-1.2465-2.8404-2-4-3-4-7.313-5.9978-12-7h-17z" />
    <path
       id="path4230"
       style="fill:url(#linearGradient10787);fill-rule:evenodd"
       d="m399.57 487.17 21.415 26 0.82366 1 23.886-16.743-3.125-4.6318-19.938-1.625-2.471-4z" />
    <path
       id="rect4113-1"
       style="fill:url(#linearGradient10784)"
       d="m406.57 499.8-3 2.9286h-16v0.73214h0.002c-0.00005 0.003-0.002 0.006-0.002 0.009v26.349 0.73214h1 56 1v-0.73214-26.349-0.009-3.6607h-39z" />
    <path
       id="path4151"
       style="fill:#b0722f"
       d="m387.45 530.67v1h1 56 1v-1h-1-56-1z" />
    <path
       id="path4224"
       style="fill-opacity:.23529;fill:#fff;fill-rule:evenodd"
       d="m387.57 503.8v1h17l2-5-3 4z" />
    <path
       id="path4228"
       style="fill:#715434;fill-rule:evenodd"
       d="m387.57 502.7v1.1h16l3-4-5 2.9z" />
    <rect
       id="rect892-2-7-8"
       style="opacity:.15891;stroke:#000;stroke-width:2.4612;fill:none"
       transform="scale(1,-1)"
       ry="14.724"
       height="58.07"
       width="58.048"
       y="-544.83"
       x="387.55" />
    <rect
       id="rect892-2-7-2-9"
       ry="14.254"
       style="stroke:#000;stroke-width:.53286;fill:none"
       transform="scale(1,-1)"
       height="57.239"
       width="58.008"
       y="-544.4"
       x="387.65" />
    <rect
       id="rect892-2-7-1"
       style="opacity:.15891;stroke:#000;stroke-width:3.9379;fill:none"
       transform="scale(1,-1)"
       ry="14.724"
       height="58.07"
       width="58.048"
       y="-544.83"
       x="387.55" />
    <path
       id="path1187"
       style="fill:#fff;fill-opacity:.057143"
       d="m400.84 486.97c-12.048 0-13.227 0.34219-13.178 13.354-0.022 0.36343-0.039 0.73329-0.039 1.1037v16.637c9.4888-19.461 19.486-26.153 45.93-31.07-0.11421-0.0133-0.23371-0.0156-0.35102-0.0156-21.13 0.19676-13.037-0.01-32.362-0.01z" />
  </g>
  <g
     id="g3125"
     transform="translate(-1.9411256,1.4482753)">
    <g
       style="fill:#cc8538;fill-opacity:1"
       transform="matrix(0.22113757,0,0,0.22113757,-20.871816,-79.452064)"
       id="g3778">
      <path
         inkscape:connector-curvature="0"
         id="path3776"
         d="m 278.41831,456.48979 -0.0126,0.0124 -1.52485,0 -77.37187,0 -1.52484,0 0,1.54996 0,78.66453 0,1.55622 0.0815,0 -0.006,0.006 19.22686,17.63929 0,0.57103 1.60642,0 77.20873,0 1.60642,0 0,-1.63152 0,-78.50139 0,-1.60643 0.0439,-0.0504 -19.33355,-18.21032 z m -75.54582,3.11245 72.48358,0 0,15.12299 -56.2311,0 -16.25248,-15.12299 z m 75.53328,0.30749 15.71908,14.8155 -15.71908,0 0,-14.8155 z m -77.37188,1.29266 16.25248,15.12298 0,0.0314 0,58.81015 -16.25248,0 0,-73.96449 z m 19.45905,16.78588 54.86312,0 0,57.17862 -54.86313,0 0,-57.17862 z m 57.91283,0 16.08932,0 0,73.65701 -16.08932,-15.96383 0,-57.69318 z m -76.75065,60.28479 15.63125,0 0,14.32603 -15.63125,-14.32603 z m 18.83782,0 56.38797,0 0.68398,0 15.07905,14.95983 -72.151,0 0,-14.95983 z"
         style="font-size:medium;font-style:normal;font-variant:normal;font-weight:normal;font-stretch:normal;text-indent:0;text-align:start;text-decoration:none;line-height:normal;letter-spacing:normal;word-spacing:normal;text-transform:none;direction:ltr;block-progression:tb;writing-mode:lr-tb;text-anchor:start;baseline-shift:baseline;color:#000000;fill:#cc8538;fill-opacity:1;stroke:none;stroke-width:18.95079041;marker:none;visibility:visible;display:inline;overflow:visible;enable-background:accumulate;font-family:Sans;-inkscape-font-specification:Sans" />
    </g>
    <path
       d="m 54.131939,61.87299 c 0,2.761423 -2.238576,5 -5,5 -2.761424,0 -5,-2.238577 -5,-5 0,-2.761424 2.238576,-5 5,-5 2.761424,0 5,2.238576 5,5 z"
       sodipodi:ry="5"
       sodipodi:rx="5"
       sodipodi:cy="61.87299"
       sodipodi:cx="49.131939"
       id="path3754"
       style="fill:#cc8538;fill-opacity:1;fill-rule:nonzero;stroke:none"
       sodipodi:type="arc"
       transform="matrix(0.26536525,0,0,0.26536525,17.178887,15.347211)" />
    <path
       d="m 69.131943,61.87299 c 0,2.761423 -2.238577,5 -5,5 -2.761424,0 -5,-2.238577 -5,-5 0,-2.761424 2.238576,-5 5,-5 2.761423,0 5,2.238576 5,5 z"
       sodipodi:ry="5"
       sodipodi:rx="5"
       sodipodi:cy="61.87299"
       sodipodi:cx="64.131943"
       id="path3756"
       style="fill:#cc8538;fill-opacity:1;fill-rule:nonzero;stroke:none"
       sodipodi:type="arc"
       transform="matrix(0.26536525,0,0,0.26536525,17.178887,15.347211)" />
    <path
       d="m 84.131943,61.87299 c 0,2.761423 -2.238577,5 -5,5 -2.761424,0 -5,-2.238577 -5,-5 0,-2.761424 2.238576,-5 5,-5 2.761423,0 5,2.238576 5,5 z"
       sodipodi:ry="5"
       sodipodi:rx="5"
       sodipodi:cy="61.87299"
       sodipodi:cx="79.131943"
       id="path3758"
       style="fill:#cc8538;fill-opacity:1;fill-rule:nonzero;stroke:none"
       sodipodi:type="arc"
       transform="matrix(0.26536525,0,0,0.26536525,17.178887,15.347211)" />
  </g>
</svg>
