<?xml version="1.0" encoding="UTF-8" standalone="no"?>
<!-- Created with Inkscape (http://www.inkscape.org/) -->

<svg
   xmlns:dc="http://purl.org/dc/elements/1.1/"
   xmlns:cc="http://creativecommons.org/ns#"
   xmlns:rdf="http://www.w3.org/1999/02/22-rdf-syntax-ns#"
   xmlns:svg="http://www.w3.org/2000/svg"
   xmlns="http://www.w3.org/2000/svg"
   xmlns:xlink="http://www.w3.org/1999/xlink"
   xmlns:sodipodi="http://sodipodi.sourceforge.net/DTD/sodipodi-0.dtd"
   xmlns:inkscape="http://www.inkscape.org/namespaces/inkscape"
   id="svg5453"
   height="64"
   width="64"
   version="1.1"
   inkscape:version="0.48.4 r9939"
   sodipodi:docname="folder-wine.svg">
  <sodipodi:namedview
     pagecolor="#ffffff"
     bordercolor="#666666"
     borderopacity="1"
     objecttolerance="10"
     gridtolerance="10"
     guidetolerance="10"
     inkscape:pageopacity="0"
     inkscape:pageshadow="2"
     inkscape:window-width="727"
     inkscape:window-height="480"
     id="namedview44"
     showgrid="false"
     inkscape:zoom="3.6875"
     inkscape:cx="32"
     inkscape:cy="32"
     inkscape:window-x="0"
     inkscape:window-y="35"
     inkscape:window-maximized="0"
     inkscape:current-layer="svg5453" />
  <defs
     id="defs5455">
    <radialGradient
       id="radialGradient10754"
       gradientUnits="userSpaceOnUse"
       cy="45.647"
       cx="42.148"
       gradientTransform="matrix(0.61708,-0.029284,0.027419,0.57778,378.91,469.39)"
       r="58.984">
      <stop
         id="stop10770"
         style="stop-color:#e1b789"
         offset="0" />
      <stop
         id="stop10772"
         style="stop-color:#d7a167"
         offset="1" />
    </radialGradient>
    <linearGradient
       id="linearGradient10757"
       y2="-9.1034"
       gradientUnits="userSpaceOnUse"
       x2="66.492"
       gradientTransform="matrix(0.4921,0,0,0.49742,385.17,-483.22)"
       y1="-42.638"
       x1="67.952">
      <stop
         id="stop4620"
         style="stop-color:#37414b"
         offset="0" />
      <stop
         id="stop4622"
         style="stop-color:#37414b;stop-opacity:0"
         offset="1" />
    </linearGradient>
    <linearGradient
       id="linearGradient10759"
       y2="-11.847"
       gradientUnits="userSpaceOnUse"
       x2="58.98"
       gradientTransform="matrix(0.4921,0,0,0.49742,385.17,-483.22)"
       y1="-118.55"
       x1="57.173">
      <stop
         id="stop4596"
         offset="0" />
      <stop
         id="stop4598"
         style="stop-opacity:0"
         offset="1" />
    </linearGradient>
    <linearGradient
       id="linearGradient10762"
       y2="50.369"
       gradientUnits="userSpaceOnUse"
       x2="76.558"
       gradientTransform="matrix(0.4921,0,0,0.49742,385.71,-548.91)"
       y1="13.164"
       x1="76.558">
      <stop
         id="stop3392"
         style="stop-color:#425e7b"
         offset="0" />
      <stop
         id="stop3394"
         style="stop-color:#7a91a7"
         offset="1" />
    </linearGradient>
    <linearGradient
       id="linearGradient10764"
       y2="-8.7399"
       gradientUnits="userSpaceOnUse"
       x2="60.217"
       gradientTransform="matrix(0.4921,0,0,0.49742,385.17,-483.22)"
       y1="-123.72"
       x1="60.395">
      <stop
         id="stop3392-4-8"
         style="stop-color:#425e7b"
         offset="0" />
      <stop
         id="stop3394-8-0"
         style="stop-color:#7a91a7"
         offset="1" />
    </linearGradient>
    <linearGradient
       id="linearGradient10784"
       y2="499.8"
       gradientUnits="userSpaceOnUse"
       x2="414.57"
       gradientTransform="matrix(1,0,0,0.7319,0,134)"
       y1="541.8"
       x1="414.57">
      <stop
         id="stop4174-8"
         style="stop-color:#d59e62"
         offset="0" />
      <stop
         id="stop4176-2"
         style="stop-color:#e1b78a"
         offset="1" />
    </linearGradient>
    <linearGradient
       id="linearGradient10787"
       y2="497.8"
       gradientUnits="userSpaceOnUse"
       x2="404.57"
       gradientTransform="matrix(0.82366,0,0,1,79.52,-2.625)"
       y1="477.8"
       x1="384.57">
      <stop
         id="stop4235"
         style="stop-color:#715434"
         offset="0" />
      <stop
         id="stop4237"
         style="stop-color:#715434;stop-opacity:0"
         offset="1" />
    </linearGradient>
    <linearGradient
       id="linearGradient10790"
       y2="505.8"
       gradientUnits="userSpaceOnUse"
       x2="414.57"
       gradientTransform="matrix(1,0,0,0.99954,0,-15.757)"
       y1="523.8"
       x1="414.57">
      <stop
         id="stop4234-5"
         style="stop-color:#84623d"
         offset="0" />
      <stop
         id="stop4236-4"
         style="stop-color:#a3784a"
         offset="1" />
    </linearGradient>
    <linearGradient
       inkscape:collect="always"
       xlink:href="#linearGradient10784"
       id="linearGradient3030"
       gradientUnits="userSpaceOnUse"
       gradientTransform="matrix(1,0,0,0.7319,-384.57,-349.8)"
       x1="414.57"
       y1="541.8"
       x2="414.57"
       y2="499.8" />
    <linearGradient
       inkscape:collect="always"
       xlink:href="#linearGradient10787"
       id="linearGradient3033"
       gradientUnits="userSpaceOnUse"
       gradientTransform="matrix(0.82366,0,0,1,-305.05,-486.425)"
       x1="384.57"
       y1="477.8"
       x2="404.57"
       y2="497.8" />
    <linearGradient
       inkscape:collect="always"
       xlink:href="#linearGradient10790"
       id="linearGradient3036"
       gradientUnits="userSpaceOnUse"
       gradientTransform="matrix(1,0,0,0.99954,-384.57,-499.557)"
       x1="414.57"
       y1="523.8"
       x2="414.57"
       y2="505.8" />
    <radialGradient
       inkscape:collect="always"
       xlink:href="#radialGradient10754"
       id="radialGradient3039"
       gradientUnits="userSpaceOnUse"
       gradientTransform="matrix(0.61708,-0.029284,0.027419,0.57778,-5.66,-14.41)"
       cx="42.148"
       cy="45.647"
       r="58.984" />
    <linearGradient
       inkscape:collect="always"
       xlink:href="#linearGradient10757"
       id="linearGradient3042"
       gradientUnits="userSpaceOnUse"
       gradientTransform="matrix(0.4921,0,0,0.49742,0.6,0.58)"
       x1="67.952"
       y1="-42.638"
       x2="66.492"
       y2="-9.1034" />
    <linearGradient
       inkscape:collect="always"
       xlink:href="#linearGradient10759"
       id="linearGradient3044"
       gradientUnits="userSpaceOnUse"
       gradientTransform="matrix(0.4921,0,0,0.49742,0.6,0.58)"
       x1="57.173"
       y1="-118.55"
       x2="58.98"
       y2="-11.847" />
    <linearGradient
       inkscape:collect="always"
       xlink:href="#linearGradient10762"
       id="linearGradient3047"
       gradientUnits="userSpaceOnUse"
       gradientTransform="matrix(0.4921,0,0,0.49742,1.14,-65.11)"
       x1="76.558"
       y1="13.164"
       x2="76.558"
       y2="50.369" />
    <linearGradient
       inkscape:collect="always"
       xlink:href="#linearGradient10764"
       id="linearGradient3049"
       gradientUnits="userSpaceOnUse"
       gradientTransform="matrix(0.4921,0,0,0.49742,0.6,0.58)"
       x1="60.395"
       y1="-123.72"
       x2="60.217"
       y2="-8.7399" />
  </defs>
  <metadata
     id="metadata5458">
    <rdf:RDF>
      <cc:Work
         rdf:about="">
        <dc:format>image/svg+xml</dc:format>
        <dc:type
           rdf:resource="http://purl.org/dc/dcmitype/StillImage" />
        <dc:title />
      </cc:Work>
    </rdf:RDF>
  </metadata>
  <rect
     x="3.0700147"
     y="-61.590015"
     width="58.048"
     height="58.675999"
     ry="14.878"
     transform="scale(1,-1)"
     style="fill:url(#linearGradient3047);stroke:url(#linearGradient3049);stroke-width:0.49474999"
     id="rect892" />
  <rect
     x="3.079994"
     y="-61.189991"
     width="58.048"
     height="58.07"
     ry="14.724"
     transform="scale(1,-1)"
     style="fill:url(#linearGradient3042);stroke:url(#linearGradient3044);stroke-width:0.49474999"
     id="rect892-2" />
  <path
     inkscape:connector-curvature="0"
     d="M 16.29,3.19 C 12.2397,1.9462 2.561,10.8965 3.252,14.89 3.2265,15.38454 3.2069,15.88781 3.2069,16.3918 v 26.621 c 0,10.602 5.4442,17.195 11.343,17.195 h 34.071 c 6.4231,0 12.359,-5.7106 12.359,-13.133 V 14.5638 C 61.33346,9.0128 50.1609,2.0398 47.8019,3.0758 23.4849,3.51532 38.6454,3.18941 16.2909,3.18941 z"
     style="fill:url(#radialGradient3039)"
     id="rect895" />
  <path
     inkscape:connector-curvature="0"
     d="M 15,3 C 3.213,7.2518 3.067,13.12 3,19 l 0.99999,14 c 0.0394,0.55233 0.446,1 1,1 h 54 c 0.55399,0 1,-0.44626 1,-1 0.40329,-1.1593 -1,-17 1,-17 v -2 c -0.58693,-1.4928 -1.2465,-2.8404 -2,-4 -3,-4 -7.313,-5.9978 -12,-7 h -17 z"
     style="fill:url(#linearGradient3036)"
     id="rect4180-7" />
  <path
     inkscape:connector-curvature="0"
     d="m 15,3.37 21.415,26 0.82366,1 23.886,-16.743 -3.125,-4.6318 -19.938,-1.625 -2.471,-4 z"
     style="fill:url(#linearGradient3033);fill-rule:evenodd"
     id="path4230" />
  <path
     inkscape:connector-curvature="0"
     d="m 22,16 -3,2.9286 H 3 v 0.73214 h 0.002 c -5e-5,0.003 -0.002,0.006 -0.002,0.009 v 26.349 0.73214 h 1 56 1 v -0.73214 -26.349 -0.009 -3.6607 H 22 z"
     style="fill:url(#linearGradient3030)"
     id="rect4113-1" />
  <path
     inkscape:connector-curvature="0"
     d="m 2.88,46.87 v 1 h 1 56 1 v -1 h -1 -56 -1 z"
     style="fill:#b0722f"
     id="path4151" />
  <path
     inkscape:connector-curvature="0"
     d="m 3,20 v 1 h 17 l 2,-5 -3,4 z"
     style="fill:#ffffff;fill-opacity:0.23528999;fill-rule:evenodd"
     id="path4224" />
  <path
     inkscape:connector-curvature="0"
     d="M 3,18.9 V 20 h 16 l 3,-4 -5,2.9 z"
     style="fill:#715434;fill-rule:evenodd"
     id="path4228" />
  <rect
     x="2.9799879"
     y="-61.030018"
     width="58.048"
     height="58.07"
     ry="14.724"
     transform="scale(1,-1)"
     style="opacity:0.15891;fill:none;stroke:#000000;stroke-width:2.4612"
     id="rect892-2-7-8" />
  <rect
     x="3.079994"
     y="-60.600025"
     width="58.007999"
     height="57.238998"
     transform="scale(1,-1)"
     style="fill:none;stroke:#000000;stroke-width:0.53285998"
     ry="14.254"
     id="rect892-2-7-2-9" />
  <rect
     x="2.9799879"
     y="-61.030018"
     width="58.048"
     height="58.07"
     ry="14.724"
     transform="scale(1,-1)"
     style="opacity:0.15891;fill:none;stroke:#000000;stroke-width:3.93790007"
     id="rect892-2-7-1" />
  <path
     inkscape:connector-curvature="0"
     d="M 16.27,3.17 C 4.222,3.17 3.043,3.51219 3.092,16.524 3.07,16.88743 3.053,17.25729 3.053,17.6277 v 16.637 c 9.4888,-19.461 19.486,-26.153 45.93,-31.07 -0.11421,-0.0133 -0.23371,-0.0156 -0.35102,-0.0156 -21.13,0.19676 -13.037,-0.01 -32.362,-0.01 z"
     style="fill:#ffffff;fill-opacity:0.05714303"
     id="path1187" />
  <path
     inkscape:connector-curvature="0"
     style="opacity:0.90000000000000002;fill:#cc8538;fill-opacity:1"
     d="m 29.44,25 c -1.126,0.0172 -2.4585,0.29957 -4.1222,0.98218 l -2.2025,7.5152 c 1.7638,-0.72252 3.164,-1.0508 4.3305,-1.0417 1.7688,0.013 3.0099,0.72976 4.1668,1.503 l 2.1876,-7.4854 c -1.2012,-0.806 -2.4837,-1.502 -4.3603,-1.4733 z m 5.5062,2.262 -2.1876,7.53 c 1.9166,1.2893 4.2347,2.3467 8.4825,0.46133 l 2.1876,-7.4854 c -4.4306,1.8164 -6.5644,0.77594 -8.4825,-0.50597 z m -8.0658,6.6223 c -1.125,0.0271 -2.464,0.31944 -4.1222,0.99706 h -0.0298 l -2.1578,7.4705 c 4.4394,-1.821 6.529,-0.76245 8.4527,0.52085 l 2.2173,-7.5598 c -1.1979,-0.80688 -2.4853,-1.4739 -4.3603,-1.4286 z m 5.521,2.1727 -2.1727,7.4556 c 1.9201,1.2917 4.0331,2.3256 8.4676,0.50597 l 2.1132,-7.2771 c -4.5181,1.5326 -6.4858,0.59841 -8.408,-0.68455 z"
     id="path5142" />
</svg>
