<?xml version="1.0" encoding="UTF-8" standalone="no"?>
<!-- Created with Inkscape (http://www.inkscape.org/) -->
<svg id="svg5453" xmlns:rdf="http://www.w3.org/1999/02/22-rdf-syntax-ns#" xmlns="http://www.w3.org/2000/svg" height="64" width="64" version="1.1" xmlns:cc="http://creativecommons.org/ns#" xmlns:xlink="http://www.w3.org/1999/xlink" xmlns:dc="http://purl.org/dc/elements/1.1/">
 <defs id="defs5455">
  <linearGradient id="linearGradient10385" y2="50.369" gradientUnits="userSpaceOnUse" x2="76.558" gradientTransform="matrix(.49210 0 0 .49742 385.71 -548.91)" y1="13.164" x1="76.558">
   <stop id="stop3392" style="stop-color:#425e7b" offset="0"/>
   <stop id="stop3394" style="stop-color:#7a91a7" offset="1"/>
  </linearGradient>
  <linearGradient id="linearGradient10387" y2="-8.7399" gradientUnits="userSpaceOnUse" x2="60.217" gradientTransform="matrix(.49210 0 0 .49742 385.17 -483.22)" y1="-123.72" x1="60.395">
   <stop id="stop3392-4-8" style="stop-color:#425e7b" offset="0"/>
   <stop id="stop3394-8-0" style="stop-color:#7a91a7" offset="1"/>
  </linearGradient>
  <linearGradient id="linearGradient10389" y2="-9.1034" gradientUnits="userSpaceOnUse" x2="66.492" gradientTransform="matrix(.49210 0 0 .49742 385.17 -483.22)" y1="-42.638" x1="67.952">
   <stop id="stop4620" style="stop-color:#37414b" offset="0"/>
   <stop id="stop4622" style="stop-color:#37414b;stop-opacity:0" offset="1"/>
  </linearGradient>
  <linearGradient id="linearGradient10391" y2="-11.847" gradientUnits="userSpaceOnUse" x2="58.98" gradientTransform="matrix(.49210 0 0 .49742 385.17 -483.22)" y1="-118.55" x1="57.173">
   <stop id="stop4596" offset="0"/>
   <stop id="stop4598" style="stop-opacity:0" offset="1"/>
  </linearGradient>
  <radialGradient id="radialGradient10393" gradientUnits="userSpaceOnUse" cy="45.647" cx="42.148" gradientTransform="matrix(.61708 -.029284 .027419 .57778 378.91 469.39)" r="58.984">
   <stop id="stop10770" style="stop-color:#e1b789" offset="0"/>
   <stop id="stop10772" style="stop-color:#d7a167" offset="1"/>
  </radialGradient>
  <linearGradient id="linearGradient10395" y2="497.8" gradientUnits="userSpaceOnUse" x2="404.57" gradientTransform="matrix(.82366 0 0 1 79.52 -2.625)" y1="477.8" x1="384.57">
   <stop id="stop4235" style="stop-color:#dc892f" offset="0"/>
   <stop id="stop4237" style="stop-color:#6084d1;stop-opacity:0" offset="1"/>
  </linearGradient>
  <linearGradient id="linearGradient6422" y2="7.0165" gradientUnits="userSpaceOnUse" y1="92.54" gradientTransform="matrix(1.0059 0 0 .99417 158.64 4.6017)" x2="45.448" x1="45.448">
   <stop id="stop3750-44" offset="0"/>
   <stop id="stop3752-49" style="stop-opacity:.58824" offset="1"/>
  </linearGradient>
  <filter id="filter3174-63" color-interpolation-filters="sRGB">
   <feGaussianBlur id="feGaussianBlur3176-63" stdDeviation="1.71"/>
  </filter>
  <linearGradient id="linearGradient7720" y2="7.0165" gradientUnits="userSpaceOnUse" y1="92.54" gradientTransform="matrix(1.0059 0 0 .99417 75.661 -1.5)" x2="45.448" x1="45.448">
   <stop id="stop3750-4-5" offset="0"/>
   <stop id="stop3752-6-2" style="stop-opacity:.58824" offset="1"/>
  </linearGradient>
  <filter id="filter3174-3-1" color-interpolation-filters="sRGB">
   <feGaussianBlur id="feGaussianBlur3176-3-6" stdDeviation="1.71"/>
  </filter>
  <linearGradient id="linearGradient16955" y2="7.0165" gradientUnits="userSpaceOnUse" y1="92.54" gradientTransform="matrix(1.0059 0 0 .99417 -207.46 -7.6017)" x2="45.448" x1="45.448">
   <stop id="stop3750-5-57" offset="0"/>
   <stop id="stop3752-25-90" style="stop-opacity:.58824" offset="1"/>
  </linearGradient>
  <filter id="filter3174-7-3" color-interpolation-filters="sRGB">
   <feGaussianBlur id="feGaussianBlur3176-34-9" stdDeviation="1.71"/>
  </filter>
  <linearGradient id="linearGradient3904" y2="7.0165" gradientUnits="userSpaceOnUse" y1="92.54" gradientTransform="matrix(1.0059 0 0 .99417 -156.15 .80109)" x2="45.448" x1="45.448">
   <stop id="stop3750-84-18" offset="0"/>
   <stop id="stop3752-3-7" style="stop-opacity:.58824" offset="1"/>
  </linearGradient>
  <filter id="filter3174-5-4" color-interpolation-filters="sRGB">
   <feGaussianBlur id="feGaussianBlur3176-94-970" stdDeviation="1.71"/>
  </filter>
  <linearGradient id="linearGradient4326" y2="7.0165" gradientUnits="userSpaceOnUse" y1="92.54" gradientTransform="matrix(1.0059 0 0 .99417 -18.086 54.302)" x2="45.448" x1="45.448">
   <stop id="stop3750-77-3" offset="0"/>
   <stop id="stop3752-4-1" style="stop-opacity:.58824" offset="1"/>
  </linearGradient>
  <filter id="filter3174-16-8" color-interpolation-filters="sRGB">
   <feGaussianBlur id="feGaussianBlur3176-5-25" stdDeviation="1.71"/>
  </filter>
  <linearGradient id="ButtonShadow-72-2" y2="7.0165" gradientUnits="userSpaceOnUse" x2="45.448" gradientTransform="scale(1.0059 .99417)" y1="92.54" x1="45.448">
   <stop id="stop3750-3-7" offset="0"/>
   <stop id="stop3752-64-17" style="stop-opacity:.58824" offset="1"/>
  </linearGradient>
  <filter id="filter3174-39-4" color-interpolation-filters="sRGB">
   <feGaussianBlur id="feGaussianBlur3176-09-6" stdDeviation="1.71"/>
  </filter>
  <linearGradient id="linearGradient18633-1" y2="7.0165" gradientUnits="userSpaceOnUse" y1="92.54" gradientTransform="matrix(1.0059 0 0 .99417 88.5 -29.623)" x2="45.448" x1="45.448">
   <stop id="stop3750-844-1" offset="0"/>
   <stop id="stop3752-94-3" style="stop-opacity:.58824" offset="1"/>
  </linearGradient>
  <filter id="filter3174-11-57" color-interpolation-filters="sRGB">
   <feGaussianBlur id="feGaussianBlur3176-00-48" stdDeviation="1.71"/>
  </filter>
  <filter id="filter3174-13-9" color-interpolation-filters="sRGB">
   <feGaussianBlur id="feGaussianBlur3176-26-0" stdDeviation="1.71"/>
  </filter>
  <filter id="filter3174-899-2" color-interpolation-filters="sRGB">
   <feGaussianBlur id="feGaussianBlur3176-55-8" stdDeviation="1.71"/>
  </filter>
 </defs>
 <metadata id="metadata5458">
  <rdf:RDF>
   <cc:Work rdf:about="">
    <dc:format>image/svg+xml</dc:format>
    <dc:type rdf:resource="http://purl.org/dc/dcmitype/StillImage"/>
    <dc:title/>
   </cc:Work>
  </rdf:RDF>
 </metadata>
 <g id="layer1" transform="translate(-384.57 -483.8)">
  <g id="g10374" transform="translate(.00071696 -.0055850)">
   <rect id="rect892" ry="14.878" style="stroke:url(#linearGradient10387);stroke-width:.49475;fill:url(#linearGradient10385)" transform="scale(1,-1)" height="58.676" width="58.048" y="-545.39" x="387.64"/>
   <rect id="rect892-2" ry="14.724" style="stroke:url(#linearGradient10391);stroke-width:.49475;fill:url(#linearGradient10389)" transform="scale(1,-1)" height="58.07" width="58.048" y="-544.99" x="387.65"/>
   <path id="rect895" style="fill:url(#radialGradient10393)" d="m400.86 486.99c-4.0503-1.2438-13.729 7.7065-13.038 11.7-0.0255 0.49454-0.0451 0.99781-0.0451 1.5018v26.621c0 10.602 5.4442 17.195 11.343 17.195h34.071c6.4231 0 12.359-5.7106 12.359-13.133v-32.511c0.35356-5.551-10.819-12.524-13.178-11.488-24.317 0.43952-9.1565 0.11361-31.511 0.11361z"/>
   <path id="path4230" d="m399.57 487.17 21.415 26 0.82366 1 23.886-16.743-3.125-4.6318-19.938-1.625-2.471-4z" style="fill:url(#linearGradient10395);fill-rule:evenodd"/>
   <rect id="rect892-2-7-8" ry="14.724" style="opacity:.15891;stroke:#000;stroke-width:2.4612;fill:none" transform="scale(1,-1)" height="58.07" width="58.048" y="-544.83" x="387.55"/>
   <rect id="rect892-2-7-2-9" style="stroke:#000;stroke-width:.53286;fill:none" transform="scale(1,-1)" ry="14.254" height="57.239" width="58.008" y="-544.4" x="387.65"/>
   <rect id="rect892-2-7-1" ry="14.724" style="opacity:.15891;stroke:#000;stroke-width:3.9379;fill:none" transform="scale(1,-1)" height="58.07" width="58.048" y="-544.83" x="387.55"/>
   <path id="path1187" style="fill:#fff;fill-opacity:.057143" d="m400.84 486.97c-12.048 0-13.227 0.34219-13.178 13.354-0.022 0.36343-0.039 0.73329-0.039 1.1037v16.637c9.4888-19.461 19.486-26.153 45.93-31.07-0.11421-0.0133-0.23371-0.0156-0.35102-0.0156-21.13 0.19676-13.037-0.01-32.362-0.01z"/>
  </g>
  <g id="g210104" transform="matrix(1.3624 0 0 1.3624 383.26 482.54)">
   <rect id="rect3745-34" style="opacity:.9;filter:url(#filter3174-63);display:none;fill:url(#linearGradient6422)" rx="6" ry="6" height="85" width="86" y="11.602" x="163.64"/>
   <rect id="rect3745-9-69" style="opacity:.9;filter:url(#filter3174-3-1);display:none;fill:url(#linearGradient7720)" rx="6" ry="6" height="85" width="86" y="5.5" x="80.661"/>
   <rect id="rect3745-3-4" style="opacity:.9;filter:url(#filter3174-7-3);display:none;fill:url(#linearGradient16955)" rx="6" ry="6" height="85" width="86" y="-.60169" x="-202.46"/>
   <rect id="rect3745-97-5" style="opacity:.9;filter:url(#filter3174-5-4);display:none;fill:url(#linearGradient3904)" rx="6" ry="6" height="85" width="86" y="7.8011" x="-151.15"/>
   <rect id="rect3745-5-2" style="opacity:.9;filter:url(#filter3174-16-8);display:none;fill:url(#linearGradient4326)" rx="6" ry="6" height="85" width="86" y="61.302" x="-13.086"/>
   <g id="layer2-3" style="display:none" transform="translate(2.8475 -122.92)">
    <rect id="rect3745-1-3" style="opacity:.9;filter:url(#filter3174-39-4);fill:url(#ButtonShadow-72-2)" rx="6" ry="6" height="85" width="86" y="7" x="5"/>
   </g>
   <rect id="rect3745-0" style="opacity:.9;filter:url(#filter3174-11-57);display:none;fill:url(#linearGradient18633-1)" rx="6" ry="6" height="85" width="86" y="-22.623" x="93.5"/>
   <g id="layer2-0" style="display:none" transform="translate(-63.245 46.823)">
    <rect id="rect3745-7-3" style="opacity:.9;filter:url(#filter3174-13-9);fill:url(#ButtonShadow-72-2)" rx="6" ry="6" height="85" width="86" y="7" x="5"/>
   </g>
   <g id="layer2-9" style="display:none" transform="translate(-35.72 63.218)">
    <rect id="rect3745-4-0" style="opacity:.9;filter:url(#filter3174-899-2);fill:url(#ButtonShadow-72-2)" rx="6" ry="6" height="85" width="86" y="7" x="5"/>
   </g>
   <g id="g3150" style="fill:#fff" transform="matrix(-.087903 -.019877 -.020469 .085359 -.22490 -7.6046)">
    <path id="path3152" style="fill:#fff;fill-rule:evenodd" d="m-506.25 308.2c-39.482-45.47-3.8907-35.252 13.749-89.114 16.846-51.44 116.31 190.39 163.8 86.603-25.601 91.542-137.69 48.413-177.54 2.511z"/>
    <path id="path3154" style="fill:#fff;fill-rule:evenodd" d="m-371.79 452.24c-55.445 23.499-34.729-7.1931-80.504-40.614-43.717-31.918 217.02-51.786 132.98-129.02 79.151 52.636 3.4958 145.91-52.476 169.63z"/>
    <path id="path3156" style="fill:#fff;fill-rule:evenodd" d="m-193.23 368.86c5.215 59.993-17.573 30.806-63.503 64.013-43.865 31.714 17.811-222.4-81.61-166.34 74.519-59.011 139.85 41.763 145.11 102.33z"/>
    <path id="path3158" style="fill:#fff;fill-rule:evenodd" d="m-217.36 173.29c58.668 13.579 23.868 26.232 41.257 80.176 16.607 51.518-206.01-85.664-183.42 26.213-33.095-89.107 82.935-120.1 142.16-106.39z"/>
    <path id="path3160" style="fill:#fff;fill-rule:evenodd" d="m-410.8 135.79c31.044-51.601 32.324-14.594 89.001-14.462 54.129 0.12596-145.13 169.46-31.748 182.54-94.973 3.9398-88.591-115.99-57.252-168.08z"/>
   </g>
  </g>
 </g>
</svg>
