<?xml version="1.0" encoding="UTF-8" standalone="no"?>
<!-- Created with Inkscape (http://www.inkscape.org/) -->
<svg id="svg3869" xmlns:rdf="http://www.w3.org/1999/02/22-rdf-syntax-ns#" xmlns="http://www.w3.org/2000/svg" height="22" width="22" version="1.1" xmlns:cc="http://creativecommons.org/ns#" xmlns:dc="http://purl.org/dc/elements/1.1/">
 <metadata id="metadata3874">
  <rdf:RDF>
   <cc:Work rdf:about="">
    <dc:format>image/svg+xml</dc:format>
    <dc:type rdf:resource="http://purl.org/dc/dcmitype/StillImage"/>
    <dc:title/>
   </cc:Work>
  </rdf:RDF>
 </metadata>
 <g id="layer1" transform="translate(-326 -534.36)">
  <g id="g3076" transform="translate(28,-7)">
   <g id="g3071" transform="matrix(.75 0 0 .75 76.061 138.97)">
    <g id="layer1-7" transform="translate(-24.051 3.722)">
     <path id="rect4170-1" style="fill:#f2f2f2" d="m332.76 541.02-0.70703-0.70703 4.9492-4.9492 4.9492 4.9492-0.70703 0.70703l-2.24-0.66 0.00001 2.5 0.00001 4.5v1h-4-0.00002v-1-4.5-2.5z"/>
    </g>
    <path id="rect4170-6" style="fill:#f2f2f2" d="m310.22 553.5 0.00001-2.5 0.00001-4.5v-1h-4-0.00002v1 4.5 2.5l-2.2422-0.65625-0.70703 0.70703 4.9492 4.9492 4.9492-4.9492-0.70703-0.70703z"/>
   </g>
   <path id="rect4170-60" style="fill:#f2f2f2" d="m311 551.36h2.4688l3.4648 6h-2.9336l-1 2h-8l-1-2h-2.9336l3.4648-6h2.4688v-1h-1.8906-1.1543l-3.9551 6.8496v1.4609 2.6894h4 10 4v-2.6894-1.4609l-3.9551-6.8496h-0.0449-3z"/>
  </g>
 </g>
</svg>
