<?xml version="1.0" encoding="UTF-8" standalone="no"?>
<!-- Created with Inkscape (http://www.inkscape.org/) -->
<svg id="svg3815" xmlns:rdf="http://www.w3.org/1999/02/22-rdf-syntax-ns#" xmlns="http://www.w3.org/2000/svg" height="22" width="22" version="1.1" xmlns:cc="http://creativecommons.org/ns#" xmlns:xlink="http://www.w3.org/1999/xlink" xmlns:dc="http://purl.org/dc/elements/1.1/">
 <defs id="defs3817">
  <filter id="filter3174" color-interpolation-filters="sRGB">
   <feGaussianBlur id="feGaussianBlur3176" stdDeviation="1.71"/>
  </filter>
  <filter id="filter3794" height="1.384" width="1.384" color-interpolation-filters="sRGB" y="-.192" x="-.192">
   <feGaussianBlur id="feGaussianBlur3796" stdDeviation="5.28"/>
  </filter>
  <clipPath id="clipPath4355">
   <rect id="rect4357" style="fill:#fff" rx="6" ry="6" height="80" width="84" y="6" x="6"/>
  </clipPath>
  <clipPath id="clipPath4355-4">
   <rect id="rect4357-8" style="fill:#fff" rx="6" ry="6" height="80" width="84" y="6" x="6"/>
  </clipPath>
  <filter id="filter3794-3" height="1.384" width="1.384" color-interpolation-filters="sRGB" y="-.192" x="-.192">
   <feGaussianBlur id="feGaussianBlur3796-6" stdDeviation="5.28"/>
  </filter>
  <filter id="filter3174-0" color-interpolation-filters="sRGB">
   <feGaussianBlur id="feGaussianBlur3176-2" stdDeviation="1.71"/>
  </filter>
 </defs>
 <metadata id="metadata3820">
  <rdf:RDF>
   <cc:Work rdf:about="">
    <dc:format>image/svg+xml</dc:format>
    <dc:type rdf:resource="http://purl.org/dc/dcmitype/StillImage"/>
    <dc:title/>
   </cc:Work>
  </rdf:RDF>
 </metadata>
 <g id="layer1" transform="translate(-461.71 -525.79)">
  <rect id="rect3745" style="opacity:.9;filter:url(#filter3174);display:none;fill:#f2f2f2" transform="matrix(.36331 0 0 .36331 536.21 442.45)" rx="6" ry="6" height="85" width="86" y="7" x="5"/>
  <rect id="rect3171" style="opacity:.1;filter:url(#filter3794);stroke:#fff;stroke-linecap:round;stroke-width:.5;display:none;fill:#f2f2f2" transform="matrix(.36331 0 0 .36331 536.21 442.45)" clip-path="url(#clipPath4355)" rx="12" ry="12" height="62" width="66" y="15" x="15"/>
  <path id="path10446" style="fill:#f2f2f2;fill-rule:evenodd" d="m472.71 528.79c-4.4183 0-8 3.5817-8 8s3.5817 8 8 8 8-3.5817 8-8-3.5817-8-8-8zm0 1.3176c3.6906 0 6.6824 2.9918 6.6824 6.6824s-2.9918 6.6824-6.6824 6.6824-6.6824-2.9918-6.6824-6.6824 2.9918-6.6824 6.6824-6.6824z"/>
  <path id="path10989" style="fill:#f2f2f2" d="m471.85 540.63c-0.63207-0.0552-1.1288-0.21946-1.3082-0.43266-0.18601-0.22106-0.23267-0.59002-0.0924-0.73033 0.12979-0.12979 0.33815-0.12618 1.2909 0.0223 0.50265 0.0784 0.6221 0.0854 1.4407 0.085 0.49092-0.00028 1.0499-0.016 1.2422-0.035 1.0225-0.10095 1.7312-0.47124 2.3326-1.2188 0.20321-0.2526 0.21008-0.23426 0.0509 0.13577-0.51573 1.1986-1.5024 1.8978-3.0041 2.1291-0.39675 0.0611-1.4807 0.0859-1.9526 0.0447z"/>
  <g id="layer1-3">
   <rect id="rect3745-8" style="opacity:.9;filter:url(#filter3174-0);display:none;fill:#f2f2f2" rx="6" transform="matrix(.36331 0 0 .36331 536.21 442.45)" ry="6" width="86" y="7" x="5" height="85"/>
   <rect id="rect3171-1" style="opacity:.1;filter:url(#filter3794-3);stroke:#fff;stroke-linecap:round;stroke-width:.5;display:none;fill:#f2f2f2" clip-path="url(#clipPath4355-4)" rx="12" transform="matrix(.36331 0 0 .36331 536.21 442.45)" ry="12" width="66" y="15" x="15" height="62"/>
   <path id="path10385-8" d="m468.33 535.42c-0.28446-0.31432-0.24131-0.39515 0.71466-1.3393l1.0174-1.0047 1.0252 1.0252c0.98907 0.98906 1.013 1.0362 0.67891 1.3385-0.32838 0.29717-0.38456 0.28058-1.0874-0.32099l-0.74107-0.63432-0.58284 0.63504c-0.32054 0.34929-0.61417 0.63505-0.65249 0.63505-0.0383 0-0.20587-0.15053-0.37237-0.3345zm5.3772 0.0662c-0.3824-0.38241-0.28187-0.57347 0.82659-1.571l0.91136-0.82016 0.91967 0.90584c0.98664 0.97181 1.0802 1.2044 0.63345 1.5752-0.24164 0.20054-0.39399 0.1323-0.97827-0.43822l-0.69204-0.67578-0.66122 0.66122c-0.60783 0.60783-0.68532 0.63713-0.95954 0.36291z" style="fill:#f2f2f2"/>
  </g>
 </g>
</svg>
