<?xml version="1.0" encoding="UTF-8" standalone="no"?>
<!-- Created with Inkscape (http://www.inkscape.org/) -->
<svg id="svg3815" xmlns:rdf="http://www.w3.org/1999/02/22-rdf-syntax-ns#" xmlns="http://www.w3.org/2000/svg" height="22" width="22" version="1.1" xmlns:cc="http://creativecommons.org/ns#" xmlns:xlink="http://www.w3.org/1999/xlink" xmlns:dc="http://purl.org/dc/elements/1.1/">
 <defs id="defs3817">
  <filter id="filter3174" color-interpolation-filters="sRGB">
   <feGaussianBlur id="feGaussianBlur3176" stdDeviation="1.71"/>
  </filter>
  <filter id="filter3794" height="1.384" width="1.384" color-interpolation-filters="sRGB" y="-.192" x="-.192">
   <feGaussianBlur id="feGaussianBlur3796" stdDeviation="5.28"/>
  </filter>
  <clipPath id="clipPath4355">
   <rect id="rect4357" style="fill:#fff" rx="6" ry="6" height="80" width="84" y="6" x="6"/>
  </clipPath>
 </defs>
 <metadata id="metadata3820">
  <rdf:RDF>
   <cc:Work rdf:about="">
    <dc:format>image/svg+xml</dc:format>
    <dc:type rdf:resource="http://purl.org/dc/dcmitype/StillImage"/>
    <dc:title/>
   </cc:Work>
  </rdf:RDF>
 </metadata>
 <g id="layer1" transform="translate(-461.71 -525.79)">
  <rect id="rect3745" style="opacity:.9;filter:url(#filter3174);display:none;fill:#f2f2f2" transform="matrix(.36331 0 0 .36331 536.21 442.45)" rx="6" ry="6" height="85" width="86" y="7" x="5"/>
  <rect id="rect3171" style="opacity:.1;filter:url(#filter3794);stroke:#fff;stroke-linecap:round;stroke-width:.5;display:none;fill:#f2f2f2" transform="matrix(.36331 0 0 .36331 536.21 442.45)" clip-path="url(#clipPath4355)" rx="12" ry="12" height="62" width="66" y="15" x="15"/>
  <path id="path10446" style="fill:#f2f2f2;fill-rule:evenodd" d="m472.71 528.79c-4.4183 0-8 3.5817-8 8s3.5817 8 8 8 8-3.5817 8-8-3.5817-8-8-8zm0 1.3176c3.6906 0 6.6824 2.9918 6.6824 6.6824s-2.9918 6.6824-6.6824 6.6824-6.6824-2.9918-6.6824-6.6824 2.9918-6.6824 6.6824-6.6824z"/>
  <path id="path10989" style="fill:#f2f2f2" d="m479.33 535.62c-0.0143-0.0143-0.15211 0.001-0.30629 0.0345-0.15418 0.0333-0.42365 0.0776-0.59883 0.0985l-0.3185 0.038-0.0536 0.14422c-0.2956 0.79571-0.93047 1.346-1.815 1.5731-0.23546 0.0605-0.35922 0.0721-0.75166 0.0707-0.42083-0.002-0.49589-0.0103-0.72034-0.0843-0.84502-0.27869-1.3362-0.96338-1.413-1.9697-0.0205-0.269-0.022-0.27298-0.1182-0.30926-0.14866-0.0561-0.78872-0.071-0.97435-0.0227l-0.15659 0.0407-0.0249 0.28187c-0.0915 1.0338-0.56757 1.6993-1.4157 1.979-0.22444 0.074-0.2995 0.0828-0.72034 0.0843-0.39244 0.001-0.51619-0.0102-0.75166-0.0707-0.88448-0.22714-1.5194-0.77742-1.815-1.5731l-0.0536-0.14422-0.3185-0.038c-0.17517-0.0209-0.44464-0.0652-0.59882-0.0985s-0.29201-0.0488-0.3063-0.0345c-0.0472 0.0472 0.28192-1.2156 0.28192-1.2156 0.0126 0.00028 0.14966 0.0275 0.30469 0.0604 0.44642 0.0949 0.46118 0.0923 0.53947-0.093l0.00003 0.00008c0.0558-0.13202 0.0892-0.16733 0.20776-0.2198 0.24354-0.10773 0.41468-0.12541 1.4764-0.15258 1.5057-0.0385 2.2478 0.0125 2.6281 0.18076 0.11561 0.0511 0.14257 0.0526 0.25393 0.0139 0.45211-0.15706 1.1708-0.16975 1.6871-0.0298 0.27652 0.075 0.27939 0.0751 0.41052 0.0171 0.38324-0.16953 1.1214-0.22058 2.6308-0.18196 1.0617 0.0272 1.2329 0.0448 1.4764 0.15258 0.11931 0.0528 0.15187 0.0875 0.2092 0.22322l0.0679 0.1607 0.16536-0.0194c0.091-0.0107 0.26972-0.0424 0.39726-0.0704l0.23189-0.051s0.30951 1.2721 0.26221 1.2248zm-7.4768 5.0135c-0.63207-0.0552-1.1288-0.21946-1.3082-0.43266-0.18601-0.22106-0.23267-0.59002-0.0924-0.73033 0.12979-0.12979 0.33815-0.12618 1.2909 0.0223 0.50265 0.0784 0.6221 0.0854 1.4407 0.085 0.49092-0.00028 1.0499-0.016 1.2422-0.035 1.0225-0.10095 1.7312-0.47124 2.3326-1.2188 0.20321-0.2526 0.21008-0.23426 0.0509 0.13577-0.51573 1.1986-1.5024 1.8978-3.0041 2.1291-0.39675 0.0611-1.4807 0.0859-1.9526 0.0447z"/>
 </g>
</svg>
