<?xml version="1.0" encoding="UTF-8" standalone="no"?>
<!-- Created with Inkscape (http://www.inkscape.org/) -->
<svg id="svg3815" xmlns:rdf="http://www.w3.org/1999/02/22-rdf-syntax-ns#" xmlns="http://www.w3.org/2000/svg" height="22" width="22" version="1.1" xmlns:cc="http://creativecommons.org/ns#" xmlns:xlink="http://www.w3.org/1999/xlink" xmlns:dc="http://purl.org/dc/elements/1.1/">
 <defs id="defs3817">
  <filter id="filter3174" color-interpolation-filters="sRGB">
   <feGaussianBlur id="feGaussianBlur3176" stdDeviation="1.71"/>
  </filter>
  <filter id="filter3794" height="1.384" width="1.384" color-interpolation-filters="sRGB" y="-.192" x="-.192">
   <feGaussianBlur id="feGaussianBlur3796" stdDeviation="5.28"/>
  </filter>
  <clipPath id="clipPath4355">
   <rect id="rect4357" style="fill:#fff" rx="6" ry="6" height="80" width="84" y="6" x="6"/>
  </clipPath>
 </defs>
 <metadata id="metadata3820">
  <rdf:RDF>
   <cc:Work rdf:about="">
    <dc:format>image/svg+xml</dc:format>
    <dc:type rdf:resource="http://purl.org/dc/dcmitype/StillImage"/>
    <dc:title/>
   </cc:Work>
  </rdf:RDF>
 </metadata>
 <g id="layer1" transform="translate(-461.71 -525.79)">
  <path id="path11298" style="fill:#f2f2f2" d="m472.01 544.76c-0.70299-0.0579-1.6216-0.27735-2.266-0.54129-1.0624-0.43514-1.8619-0.96747-2.6766-1.7822-0.6878-0.6878-1.1173-1.2847-1.5304-2.1267-0.48555-0.9898-0.72206-1.8753-0.80341-3.0078-0.0753-1.0478 0.0952-2.25 0.46044-3.2467 0.26539-0.72423 0.77504-1.6323 1.2574-2.2404 0.25275-0.31864 0.81698-0.89192 1.1645-1.1832 0.85572-0.71719 2.0093-1.3041 3.1229-1.5888 0.67725-0.17315 1.153-0.22825 1.9708-0.22825 0.81784 0 1.2936 0.0551 1.9708 0.22825 1.0557 0.26993 2.153 0.81448 3.0085 1.493 0.33208 0.26341 0.89973 0.82529 1.1923 1.1801 1.287 1.5612 1.9469 3.604 1.8046 5.5859-0.0573 0.79693-0.21514 1.5619-0.46052 2.231-0.1401 0.38209-0.52305 1.1672-0.72182 1.4799-0.65427 1.0293-1.6176 1.9839-2.6252 2.6017-1.446 0.88651-3.1485 1.2871-4.8682 1.1454zm1.3739-0.99963c1.2929-0.12816 2.493-0.59972 3.5601-1.3989 0.3909-0.29275 1.0552-0.95761 1.3473-1.3485 2.0794-2.7823 1.8494-6.5885-0.54804-9.0716-1.4947-1.5481-3.5813-2.3208-5.7079-2.1139-2.7467 0.26728-5.1093 2.154-5.9691 4.7669-0.72103 2.1912-0.33191 4.5564 1.0546 6.4102 0.29211 0.39056 0.98763 1.0865 1.37 1.3709 1.4369 1.0685 3.1612 1.5566 4.893 1.3849zm-1.393-1.0162c-2.2979-0.27676-4.234-1.8595-4.9656-4.0594-0.50684-1.5239-0.38639-3.1572 0.33879-4.5938 0.87429-1.732 2.4594-2.8871 4.4237-3.2237 0.47032-0.0806 1.443-0.0728 1.9299 0.0155 2.2204 0.40256 3.9746 1.9109 4.6763 4.0207 0.49925 1.5011 0.38997 3.1115-0.30749 4.5312-1.1238 2.2876-3.5669 3.614-6.0956 3.3094zm-0.5-2.9292c0.76484-0.53166 1.406-0.97874 1.4248-0.99351 0.0216-0.017 0.57054 0.3459 1.4965 0.98938 0.80432 0.55893 1.4657 1.0123 1.4698 1.0076 0.004-0.005-0.22294-0.76795-0.50442-1.696-0.28148-0.92801-0.50824-1.6969-0.5039-1.7087 0.004-0.0118 0.63367-0.49494 1.3985-1.0737 0.76484-0.57879 1.3946-1.063 1.3996-1.076s-0.53648-0.0328-1.2031-0.0439c-0.66664-0.0111-1.466-0.029-1.7764-0.0396l-0.56436-0.0193-0.57508-1.6546c-0.3163-0.91002-0.58407-1.6601-0.59504-1.6669-0.011-0.007-0.27972 0.73603-0.5972 1.6507l-0.57723 1.663-0.51337 0.0234c-0.28235 0.0129-1.0899 0.034-1.7946 0.0469l-1.2812 0.0235 1.412 1.07c0.7766 0.58847 1.4178 1.0807 1.425 1.0938 0.007 0.0131-0.20902 0.75504-0.48035 1.6488-0.57936 1.9084-0.54273 1.778-0.49068 1.7464 0.0222-0.0135 0.6661-0.45947 1.4309-0.99114z"/>
  <rect id="rect3745" style="opacity:.9;filter:url(#filter3174);display:none;fill:#f2f2f2" transform="matrix(.36331 0 0 .36331 536.21 442.45)" rx="6" ry="6" height="85" width="86" y="7" x="5"/>
  <rect id="rect3171" style="opacity:.1;filter:url(#filter3794);stroke:#fff;stroke-linecap:round;stroke-width:.5;display:none;fill:#f2f2f2" transform="matrix(.36331 0 0 .36331 536.21 442.45)" clip-path="url(#clipPath4355)" rx="12" ry="12" height="62" width="66" y="15" x="15"/>
 </g>
</svg>
