<?xml version="1.0" encoding="UTF-8" standalone="no"?>
<!-- Created with Inkscape (http://www.inkscape.org/) -->
<svg id="svg3815" xmlns:rdf="http://www.w3.org/1999/02/22-rdf-syntax-ns#" xmlns="http://www.w3.org/2000/svg" height="22" width="22" version="1.1" xmlns:cc="http://creativecommons.org/ns#" xmlns:xlink="http://www.w3.org/1999/xlink" xmlns:dc="http://purl.org/dc/elements/1.1/">
 <defs id="defs3817">
  <filter id="filter3174" color-interpolation-filters="sRGB">
   <feGaussianBlur id="feGaussianBlur3176" stdDeviation="1.71"/>
  </filter>
  <filter id="filter3794" height="1.384" width="1.384" color-interpolation-filters="sRGB" y="-.192" x="-.192">
   <feGaussianBlur id="feGaussianBlur3796" stdDeviation="5.28"/>
  </filter>
  <clipPath id="clipPath4355">
   <rect id="rect4357" style="fill:#fff" rx="6" ry="6" height="80" width="84" y="6" x="6"/>
  </clipPath>
 </defs>
 <metadata id="metadata3820">
  <rdf:RDF>
   <cc:Work rdf:about="">
    <dc:format>image/svg+xml</dc:format>
    <dc:type rdf:resource="http://purl.org/dc/dcmitype/StillImage"/>
    <dc:title/>
   </cc:Work>
  </rdf:RDF>
 </metadata>
 <g id="layer1" transform="translate(-461.71 -525.79)">
  <rect id="rect3745" style="opacity:.9;filter:url(#filter3174);display:none;fill:#f2f2f2" transform="matrix(.36331 0 0 .36331 536.21 442.45)" rx="6" ry="6" height="85" width="86" y="7" x="5"/>
  <rect id="rect3171" style="opacity:.1;filter:url(#filter3794);stroke:#fff;stroke-linecap:round;stroke-width:.5;display:none;fill:#f2f2f2" transform="matrix(.36331 0 0 .36331 536.21 442.45)" clip-path="url(#clipPath4355)" rx="12" ry="12" height="62" width="66" y="15" x="15"/>
  <path id="path10446" style="fill:#f2f2f2;fill-rule:evenodd" d="m472.71 528.79c-4.4183 0-8 3.5817-8 8s3.5817 8 8 8 8-3.5817 8-8-3.5817-8-8-8zm0 1.3176c3.6906 0 6.6824 2.9918 6.6824 6.6824s-2.9918 6.6824-6.6824 6.6824-6.6824-2.9918-6.6824-6.6824 2.9918-6.6824 6.6824-6.6824z"/>
  <path id="path10111" style="fill:#f2f2f2" d="m471.96 541.51c-0.23404-0.0759-0.68153-0.31962-0.92727-0.505-0.13409-0.10116-0.49568-0.47377-0.80352-0.82802-0.59157-0.68073-0.86463-0.91906-1.4225-1.2415l-0.34359-0.19862 0.31827-0.19382c0.4709-0.28677 1.017-0.67528 1.5586-1.1088 0.26451-0.21175 0.5778-0.42221 0.69621-0.4677l0.21528-0.0827 0.54409 0.21781c0.47197 0.18893 0.59444 0.21781 0.92379 0.21781 0.32936 0 0.45182-0.0289 0.92379-0.21781l0.54409-0.21781 0.21528 0.084c0.1184 0.0462 0.51144 0.31416 0.8734 0.5955 0.36197 0.28134 0.89056 0.66297 1.1746 0.84807l0.51652 0.33653-0.26339 0.14648c-0.60395 0.33589-0.86064 0.55427-1.4567 1.2393-0.63671 0.73174-0.99932 1.0441-1.4644 1.2613-0.25132 0.1174-0.34749 0.13134-0.9872 0.14308-0.3898 0.007-0.7657-0.005-0.8353-0.028zm1.658-2.1136c0.28539-0.13042 0.51799-0.25051 0.51688-0.26684-0.00081-0.0164-0.1927-0.11792-0.42574-0.22575-0.41067-0.19004-0.43278-0.19447-0.71937-0.14399-0.20416 0.036-0.37874 0.0356-0.56398-0.00081-0.25714-0.0508-0.28595-0.0449-0.69406 0.14399-0.23418 0.10837-0.42669 0.20886-0.4278 0.22331-0.004 0.0376 0.92811 0.4594 1.1243 0.50927 0.30355 0.0771 0.65059 0.007 1.1898-0.239zm-5.78-4.7002c-0.38921-0.51028-0.37468-1.1468 0.0322-1.4134 0.10548-0.0691 0.16917-0.0666 0.6479 0.0258 0.292 0.0563 0.99561 0.18646 1.5636 0.28904 0.96691 0.17464 1.0392 0.19536 1.1361 0.32554 0.12427 0.16696 0.13869 0.54568 0.0294 0.77223l-0.0733 0.15187-1.6001 0.0134-1.6001 0.0134zm6.4113 0.11322c-0.18673-0.22779-0.17123-0.78703 0.0265-0.96027 0.13614-0.11923 3.1236-0.64535 3.2629-0.57466 0.18713 0.0949 0.30914 0.31418 0.33266 0.59776 0.0249 0.30075-0.0531 0.53869-0.2702 0.82325l-0.13517 0.17721h-1.5825c-1.2046 0-1.5949-0.015-1.6344-0.0633z"/>
 </g>
</svg>
