<?xml version="1.0" encoding="UTF-8" standalone="no"?>
<!-- Created with Inkscape (http://www.inkscape.org/) -->
<svg id="svg3815" xmlns:rdf="http://www.w3.org/1999/02/22-rdf-syntax-ns#" xmlns="http://www.w3.org/2000/svg" height="22" width="22" version="1.1" xmlns:cc="http://creativecommons.org/ns#" xmlns:xlink="http://www.w3.org/1999/xlink" xmlns:dc="http://purl.org/dc/elements/1.1/">
 <defs id="defs3817">
  <filter id="filter3174" color-interpolation-filters="sRGB">
   <feGaussianBlur id="feGaussianBlur3176" stdDeviation="1.71"/>
  </filter>
  <filter id="filter3794" height="1.384" width="1.384" color-interpolation-filters="sRGB" y="-.192" x="-.192">
   <feGaussianBlur id="feGaussianBlur3796" stdDeviation="5.28"/>
  </filter>
  <clipPath id="clipPath4355">
   <rect id="rect4357" style="fill:#fff" rx="6" ry="6" height="80" width="84" y="6" x="6"/>
  </clipPath>
  <clipPath id="clipPath4355-2">
   <rect id="rect4357-3" style="fill:#fff" rx="6" ry="6" height="80" width="84" y="6" x="6"/>
  </clipPath>
  <filter id="filter3794-4" height="1.384" width="1.384" color-interpolation-filters="sRGB" y="-.192" x="-.192">
   <feGaussianBlur id="feGaussianBlur3796-7" stdDeviation="5.28"/>
  </filter>
  <filter id="filter3174-4" color-interpolation-filters="sRGB">
   <feGaussianBlur id="feGaussianBlur3176-7" stdDeviation="1.71"/>
  </filter>
 </defs>
 <metadata id="metadata3820">
  <rdf:RDF>
   <cc:Work rdf:about="">
    <dc:format>image/svg+xml</dc:format>
    <dc:type rdf:resource="http://purl.org/dc/dcmitype/StillImage"/>
    <dc:title/>
   </cc:Work>
  </rdf:RDF>
 </metadata>
 <g id="layer1" transform="translate(-461.71 -525.79)">
  <rect id="rect3745" style="opacity:.9;filter:url(#filter3174);display:none;fill:#f2f2f2" transform="matrix(.36331 0 0 .36331 536.21 442.45)" rx="6" ry="6" height="85" width="86" y="7" x="5"/>
  <rect id="rect3171" style="opacity:.1;filter:url(#filter3794);stroke:#fff;stroke-linecap:round;stroke-width:.5;display:none;fill:#f2f2f2" transform="matrix(.36331 0 0 .36331 536.21 442.45)" clip-path="url(#clipPath4355)" rx="12" ry="12" height="62" width="66" y="15" x="15"/>
  <path id="path10446-4" style="fill:#f2f2f2;fill-rule:evenodd" d="m472.71 528.79c-4.4183 0-8 3.5817-8 8s3.5817 8 8 8 8-3.5817 8-8-3.5817-8-8-8zm0 1.3176c3.6906 0 6.6824 2.9918 6.6824 6.6824s-2.9918 6.6824-6.6824 6.6824-6.6824-2.9918-6.6824-6.6824 2.9918-6.6824 6.6824-6.6824z"/>
  <path id="path10385-8-4" style="fill:#f2f2f2" d="m468.82 535.28c-0.45864-1.0066 0.86155-1.893 1.6016-1.0752 0.66613 0.73606 0.26699 1.5381-0.76545 1.5381-0.48144 0-0.6737-0.10644-0.83611-0.46288zm6.0609 0.0988c-0.29839-0.55754-0.2352-0.90395 0.22349-1.2252 0.60004-0.42028 1.0332-0.36263 1.3922 0.18527 0.47762 0.72894 0.10996 1.4041-0.76465 1.4041-0.45615 0-0.71564-0.11102-0.85109-0.3641z"/>
  <path id="path10385-8-4-2" style="fill:#f2f2f2" d="m469.22 540.58-0.0981-0.45748 3.4977-0.94862 3.4977-0.94862 0.0981 0.45748 0.0981 0.45748-3.4977 0.94862-3.4977 0.94862z"/>
  <g id="layer1-5">
   <rect id="rect3745-4" style="opacity:.9;filter:url(#filter3174-4);display:none;fill:#f2f2f2" rx="6" transform="matrix(.36331 0 0 .36331 536.21 442.45)" ry="6" width="86" y="7" x="5" height="85"/>
   <rect id="rect3171-4" style="opacity:.1;filter:url(#filter3794-4);stroke:#fff;stroke-linecap:round;stroke-width:.5;display:none;fill:#f2f2f2" clip-path="url(#clipPath4355-2)" rx="12" transform="matrix(.36331 0 0 .36331 536.21 442.45)" ry="12" width="66" y="15" x="15" height="62"/>
   <text id="text10872" style="font-size:10px;letter-spacing:0px;word-spacing:0px;font-family:Sans;line-height:125%;fill:#f2f2f2" y="533.29077" x="475.41406" xml:space="preserve"><tspan id="tspan10874" y="533.29077" x="475.41406" style="font-weight:bold;fill:#f2f2f2">?</tspan></text>
   <text id="text10872-7" style="font-size:5px;letter-spacing:0px;word-spacing:0px;font-family:Sans;line-height:125%;fill:#f2f2f2" y="533.79077" x="472.71429" xml:space="preserve"><tspan id="tspan10874-1" y="533.79077" x="472.71429" style="font-weight:bold;fill:#f2f2f2">?</tspan></text>
  </g>
 </g>
</svg>
