<?xml version="1.0" encoding="UTF-8" standalone="no"?>
<!-- Created with Inkscape (http://www.inkscape.org/) -->
<svg id="svg3815" xmlns:rdf="http://www.w3.org/1999/02/22-rdf-syntax-ns#" xmlns="http://www.w3.org/2000/svg" height="22" width="22" version="1.1" xmlns:cc="http://creativecommons.org/ns#" xmlns:xlink="http://www.w3.org/1999/xlink" xmlns:dc="http://purl.org/dc/elements/1.1/">
 <defs id="defs3817">
  <filter id="filter3174" color-interpolation-filters="sRGB">
   <feGaussianBlur id="feGaussianBlur3176" stdDeviation="1.71"/>
  </filter>
  <filter id="filter3794" height="1.384" width="1.384" color-interpolation-filters="sRGB" y="-.192" x="-.192">
   <feGaussianBlur id="feGaussianBlur3796" stdDeviation="5.28"/>
  </filter>
  <clipPath id="clipPath4355">
   <rect id="rect4357" style="fill:#fff" rx="6" ry="6" height="80" width="84" y="6" x="6"/>
  </clipPath>
 </defs>
 <metadata id="metadata3820">
  <rdf:RDF>
   <cc:Work rdf:about="">
    <dc:format>image/svg+xml</dc:format>
    <dc:type rdf:resource="http://purl.org/dc/dcmitype/StillImage"/>
    <dc:title/>
   </cc:Work>
  </rdf:RDF>
 </metadata>
 <g id="layer1" transform="translate(-461.71 -525.79)">
  <rect id="rect3745" style="opacity:.9;filter:url(#filter3174);display:none;fill:#f2f2f2" transform="matrix(.36331 0 0 .36331 536.21 442.45)" rx="6" ry="6" height="85" width="86" y="7" x="5"/>
  <rect id="rect3171" style="opacity:.1;filter:url(#filter3794);stroke:#fff;stroke-linecap:round;stroke-width:.5;display:none;fill:#f2f2f2" transform="matrix(.36331 0 0 .36331 536.21 442.45)" clip-path="url(#clipPath4355)" rx="12" ry="12" height="62" width="66" y="15" x="15"/>
  <path id="path10446" style="fill:#f2f2f2;fill-rule:evenodd" d="m472.71 528.79c-4.4183 0-8 3.5817-8 8s3.5817 8 8 8 8-3.5817 8-8-3.5817-8-8-8zm0 1.3176c3.6906 0 6.6824 2.9918 6.6824 6.6824s-2.9918 6.6824-6.6824 6.6824-6.6824-2.9918-6.6824-6.6824 2.9918-6.6824 6.6824-6.6824z"/>
  <path id="path10385-4" style="fill:#f2f2f2" d="m471.96 540.12c-0.55426-0.55426-0.52245-1.1614 0.0816-1.5571 1.1212-0.73464 2.2201 0.33931 1.4889 1.4551-0.40815 0.62292-1.0105 0.66204-1.5705 0.10205zm3.3105-4.0784c-0.00083-0.0907-0.33177-0.39-0.73553-0.665-0.95047-0.64733-1.1811-1.0875-0.92417-1.7634 0.21856-0.57486 0.9679-0.72745 1.4085-0.28682 0.18762 0.18761 0.35939 0.18256 0.74122-0.0218 0.934-0.49986 1.7307 0.15878 1.3678 1.1308-0.15896 0.42573-1.8554 1.8924-1.8579 1.6062zm-6.2602-0.74201c-1.3926-1.193-0.81783-2.8082 0.70858-1.9913 0.30563 0.16357 0.48521 0.16357 0.64879 0 0.64655-0.64655 1.7728 0.12123 1.489 1.0152-0.12883 0.40591-1.5719 1.6629-1.893 1.6488-0.0974-0.004-0.52651-0.30701-0.95346-0.67274z"/>
 </g>
</svg>
