<?xml version="1.0" encoding="UTF-8" standalone="no"?>
<!-- Created with Inkscape (http://www.inkscape.org/) -->
<svg id="svg3815" xmlns:rdf="http://www.w3.org/1999/02/22-rdf-syntax-ns#" xmlns="http://www.w3.org/2000/svg" height="22" width="22" version="1.1" xmlns:cc="http://creativecommons.org/ns#" xmlns:xlink="http://www.w3.org/1999/xlink" xmlns:dc="http://purl.org/dc/elements/1.1/">
 <defs id="defs3817">
  <filter id="filter3174" color-interpolation-filters="sRGB">
   <feGaussianBlur id="feGaussianBlur3176" stdDeviation="1.71"/>
  </filter>
  <filter id="filter3794" height="1.384" width="1.384" color-interpolation-filters="sRGB" y="-.192" x="-.192">
   <feGaussianBlur id="feGaussianBlur3796" stdDeviation="5.28"/>
  </filter>
  <clipPath id="clipPath4355">
   <rect id="rect4357" style="fill:#fff" rx="6" ry="6" height="80" width="84" y="6" x="6"/>
  </clipPath>
 </defs>
 <metadata id="metadata3820">
  <rdf:RDF>
   <cc:Work rdf:about="">
    <dc:format>image/svg+xml</dc:format>
    <dc:type rdf:resource="http://purl.org/dc/dcmitype/StillImage"/>
    <dc:title/>
   </cc:Work>
  </rdf:RDF>
 </metadata>
 <g id="layer1" transform="translate(-461.71 -525.79)">
  <rect id="rect3745" style="opacity:.9;filter:url(#filter3174);display:none;fill:#f2f2f2" transform="matrix(.36331 0 0 .36331 536.21 442.45)" rx="6" ry="6" height="85" width="86" y="7" x="5"/>
  <rect id="rect3171" style="opacity:.1;filter:url(#filter3794);stroke:#fff;stroke-linecap:round;stroke-width:.5;display:none;fill:#f2f2f2" transform="matrix(.36331 0 0 .36331 536.21 442.45)" clip-path="url(#clipPath4355)" rx="12" ry="12" height="62" width="66" y="15" x="15"/>
  <g id="g10914" transform="translate(0 1.5322)">
   <path id="path10446" d="m11 3c-4.4183 0-8 3.5817-8 8s3.5817 8 8 8 8-3.5817 8-8-3.5817-8-8-8zm0 1.3125c3.6906 0 6.6875 2.9969 6.6875 6.6875s-2.9969 6.6875-6.6875 6.6875-6.6875-2.997-6.6875-6.688c0-3.6906 2.9969-6.6875 6.6875-6.6875zm-2.6562 2.9688-1 1c-0.956 0.9441-1.0033 1.0294-0.7188 1.3437 0.1665 0.184 0.3367 0.3438 0.375 0.3438 0.03832 0 0.30446-0.30696 0.625-0.65625l0.59375-0.625 0.75 0.625c0.7028 0.6015 0.7653 0.6408 1.0932 0.3436 0.335-0.3023 0.302-0.3546-0.687-1.3437l-1.0312-1.0313zm5.3752 0.0312-0.907 0.8125c-1.108 0.9975-1.194 1.1801-0.812 1.5625 0.27422 0.27422 0.32967 0.26408 0.9375-0.34375l0.6875-0.6875 0.6875 0.6875c0.58428 0.57052 0.72711 0.63804 0.96875 0.4375 0.44675-0.37076 0.36164-0.59069-0.625-1.5625l-0.938-0.9063zm-6.3752 5.6875c-0.049892 0.02301-0.089675 0.07006-0.125 0.125-0.3272 0.50887-0.06404 0.78777 1.2188 1.2188 1.6296 0.54752 3.3874 0.48881 5.0625-0.125 1.1491-0.42104 1.2878-0.58984 0.96875-1.0938-0.1389-0.21945-0.32634-0.20142-1.1562 0.15625-1.3738 0.59234-3.5843 0.5956-4.9688 0-0.6155-0.264-0.8504-0.35-1-0.281z" style="fill:#f2f2f2;fill-rule:evenodd" transform="translate(461.71 525.79)"/>
  </g>
  <path id="path10101" style="fill:#f2f2f2;fill-rule:evenodd" d="m472.65 527.79c-4.4183 0-8 0.78642-8 1.7565 0 0.57447 1.2768 1.0792 3.2188 1.3997 1.336-0.86587 2.983-1.3997 4.7812-1.3997s3.4452 0.53386 4.7812 1.3997c1.942-0.32049 3.2188-0.82526 3.2188-1.3997 0-0.9701-3.5817-1.7565-8-1.7565z"/>
 </g>
</svg>
