<?xml version="1.0" encoding="UTF-8" standalone="no"?>
<!-- Created with Inkscape (http://www.inkscape.org/) -->
<svg id="svg3815" xmlns:rdf="http://www.w3.org/1999/02/22-rdf-syntax-ns#" xmlns="http://www.w3.org/2000/svg" height="22" width="22" version="1.1" xmlns:cc="http://creativecommons.org/ns#" xmlns:xlink="http://www.w3.org/1999/xlink" xmlns:dc="http://purl.org/dc/elements/1.1/">
 <defs id="defs3817">
  <filter id="filter3174" color-interpolation-filters="sRGB">
   <feGaussianBlur id="feGaussianBlur3176" stdDeviation="1.71"/>
  </filter>
  <filter id="filter3794" height="1.384" width="1.384" color-interpolation-filters="sRGB" y="-.192" x="-.192">
   <feGaussianBlur id="feGaussianBlur3796" stdDeviation="5.28"/>
  </filter>
  <clipPath id="clipPath4355">
   <rect id="rect4357" style="fill:#fff" rx="6" ry="6" height="80" width="84" y="6" x="6"/>
  </clipPath>
 </defs>
 <metadata id="metadata3820">
  <rdf:RDF>
   <cc:Work rdf:about="">
    <dc:format>image/svg+xml</dc:format>
    <dc:type rdf:resource="http://purl.org/dc/dcmitype/StillImage"/>
    <dc:title/>
   </cc:Work>
  </rdf:RDF>
 </metadata>
 <g id="layer1" transform="translate(-461.71 -525.79)">
  <path id="path10110" style="fill:#f2f2f2" d="m11 3c-4.4183 0-8 3.5817-8 8 0 4.418 3.5817 8 8 8 2.209 0 4.209-0.896 5.656-2.344 0.093-0.093 0.193-0.184 0.282-0.281l0.281 0.406 0.437-0.437c0.251-0.238 0.488-0.435 0.5-0.438s-0.219-0.201-0.5-0.468v-0.032c0.271-0.409 0.526-0.824 0.719-1.281 0.405-0.957 0.625-2.02 0.625-3.125 0-4.4183-3.582-8-8-8zm0 1.3125c3.691 0 6.688 2.9969 6.688 6.6875 0 0.923-0.193 1.794-0.532 2.594-0.126 0.297-0.276 0.59-0.468 0.844-0.252-0.236-0.476-0.428-0.532-0.407-0.079 0.031-0.125-0.037-0.125-0.219 0-0.216-0.05-0.25-0.219-0.25-0.181 0-0.188-0.035-0.156-0.312l0.032-0.312h-4.782-4.7498l0.0938 0.468c0.064 0.258 0.163 0.687 0.2188 0.969l0.125 0.531h4.3442c4.308 0 4.374-0.011 4.374-0.187 0-0.338 0.229-0.174 0.719 0.531 0.026 0.037 0.037 0.027 0.063 0.062-0.12 0.141-0.245 0.276-0.375 0.407-1.211 1.21-2.874 1.969-4.719 1.969-3.6906 0-6.6875-2.997-6.6875-6.688 0-3.6906 2.9969-6.6875 6.6875-6.6875zm-3.75 8.8755h0.1562c0.1233 0 0.2188 0.095 0.2188 0.218v0.5h0.4062v-0.5c0-0.123 0.0955-0.218 0.2188-0.218h0.1562c0.1233 0 0.2188 0.095 0.2188 0.218v0.5h0.4062v-0.5c0-0.123 0.0955-0.218 0.2188-0.218h0.1562c0.1233 0 0.2188 0.095 0.2188 0.218v0.5h0.406v-0.5c0-0.123 0.096-0.218 0.219-0.218h0.156c0.124 0 0.219 0.095 0.219 0.218v0.5h0.406v-0.5c0-0.123 0.096-0.218 0.219-0.218h0.156c0.124 0 0.219 0.095 0.219 0.218v0.5h0.406v-0.5c0-0.123 0.096-0.218 0.219-0.218h0.156c0.124 0 0.219 0.095 0.219 0.218v0.5h0.406v-0.5c0-0.123 0.096-0.218 0.219-0.218h0.156c0.124 0 0.219 0.095 0.219 0.218v0.5h0.406v-0.5c0-0.123 0.096-0.218 0.219-0.218h0.156c0.124 0 0.219 0.095 0.219 0.218v0.5h0.187c0.047 0 0.094 0.048 0.094 0.094v0.188c0 0.046-0.047 0.093-0.094 0.093h-0.187v0.157c0 0.123-0.095 0.218-0.219 0.218h-0.156c-0.123 0-0.219-0.095-0.219-0.218v-0.157h-0.406v0.157c0 0.123-0.095 0.218-0.219 0.218h-0.156c-0.123 0-0.219-0.095-0.219-0.218v-0.157h-0.406v0.157c0 0.123-0.095 0.218-0.219 0.218h-0.156c-0.123 0-0.219-0.095-0.219-0.218v-0.157h-0.406v0.157c0 0.123-0.095 0.218-0.219 0.218h-0.156c-0.123 0-0.219-0.095-0.219-0.218v-0.157h-0.406v0.157c0 0.123-0.095 0.218-0.219 0.218h-0.156c-0.123 0-0.219-0.095-0.219-0.218v-0.157h-0.406v0.157c0 0.123-0.0955 0.218-0.2188 0.218h-0.1562c-0.1232 0-0.2188-0.095-0.2188-0.218v-0.157h-0.4062v0.157c0 0.123-0.0955 0.218-0.2188 0.218h-0.1562c-0.1232 0-0.2188-0.095-0.2188-0.218v-0.157h-0.4062v0.157c0 0.123-0.0955 0.218-0.2188 0.218h-0.1562c-0.1232 0-0.2188-0.095-0.2188-0.218v-0.157h-0.3124c-0.0463 0-0.0938-0.047-0.0938-0.093v-0.188c0-0.046 0.0475-0.094 0.0938-0.094h0.3124v-0.5c0-0.123 0.0955-0.218 0.2188-0.218zm7.969 0.562c0.055-0.005 0.122 0 0.219 0 0.316 0 0.399 0.012 0.437 0.156 0.049 0.187-0.057 0.255-0.156 0.094-0.04-0.064-0.101-0.072-0.188 0-0.096 0.08-0.108 0.158-0.031 0.25 0.082 0.099 0.038 0.125-0.188 0.125-0.259 0-0.25-0.022-0.25-0.313 0-0.232-0.008-0.297 0.157-0.312zm0.312 0.344c0.011-0.008 0.037 0 0.063 0 0.192 0 0.522 0.386 0.375 0.437-0.062 0.022-0.092 0.078-0.063 0.125 0.033 0.053 0.11 0.034 0.188-0.031 0.091-0.076 0.099-0.136 0.031-0.219-0.068-0.081-0.073-0.142 0-0.187 0.059-0.037 0.278 0.125 0.531 0.375 0.241 0.237 0.442 0.401 0.688 0.594l0.687 0.718-0.343 0.282c-0.197 0.167-0.389 0.313-0.438 0.312s-0.183-0.108-0.281-0.25-0.43-0.565-0.719-0.938c-0.289-0.372-0.501-0.718-0.469-0.75 0.032-0.031-0.018-0.135-0.125-0.25-0.112-0.119-0.157-0.194-0.125-0.218zm1.844 1.625c-0.101-0.014-0.183 0.063-0.125 0.156 0.028 0.046-0.035 0.065-0.125 0.031-0.141-0.053-0.139-0.038-0.031 0.094 0.151 0.186 0.229 0.176 0.375 0 0.081-0.098 0.068-0.151 0-0.219-0.028-0.027-0.06-0.058-0.094-0.062z" transform="translate(461.71 525.79)"/>
  <rect id="rect3745" style="opacity:.9;filter:url(#filter3174);display:none;fill:#f2f2f2" transform="matrix(.36331 0 0 .36331 536.21 442.45)" rx="6" ry="6" height="85" width="86" y="7" x="5"/>
  <rect id="rect3171" style="opacity:.1;filter:url(#filter3794);stroke:#fff;stroke-linecap:round;stroke-width:.5;display:none;fill:#f2f2f2" transform="matrix(.36331 0 0 .36331 536.21 442.45)" clip-path="url(#clipPath4355)" rx="12" ry="12" height="62" width="66" y="15" x="15"/>
  <g id="g10149" transform="translate(2.9786 -1)">
   <path id="path10385-3" d="m466.08 536.3c-0.33591-0.3359-0.22018-0.5119 1.0431-1.5863 1.2041-1.024 1.2216-1.0321 1.5189-0.70357 0.34178 0.37766 0.45102 0.22977-1.2005 1.6253-0.56279 0.47558-1.0544 0.8647-1.0924 0.8647-0.0381 0-0.15914-0.0901-0.2692-0.20013zm5.6606-0.92896c-1.1876-1.0862-1.2169-1.1315-0.9109-1.408 0.30284-0.27366 0.37-0.23873 1.5946 0.82925 1.1971 1.044 1.2614 1.1338 1.0101 1.4114-0.14758 0.16305-0.31296 0.29494-0.36755 0.29309-0.0546-0.004-0.65141-0.50843-1.3263-1.1257z" style="fill:#f2f2f2"/>
   <g id="g10531" transform="translate(-3 .80031)">
    <path id="path10385-7-0" style="fill:#f2f2f2" d="m474.08 533.76c-0.90779 1.7555 0.39562 4.3625 1.4375 2.875 0.18747-0.26765 0.3125-0.89126 0.3125-1.5z"/>
    <path id="path10385-7-0-9" style="fill:#f2f2f2" d="m471.52 533.76c0.90779 1.7555-0.39562 4.3625-1.4375 2.875-0.18747-0.26765-0.3125-0.89126-0.3125-1.5z"/>
   </g>
  </g>
 </g>
</svg>
