<?xml version="1.0" encoding="UTF-8" standalone="no"?>
<!-- Created with Inkscape (http://www.inkscape.org/) -->
<svg id="svg3815" xmlns:rdf="http://www.w3.org/1999/02/22-rdf-syntax-ns#" xmlns="http://www.w3.org/2000/svg" height="22" width="22" version="1.1" xmlns:cc="http://creativecommons.org/ns#" xmlns:xlink="http://www.w3.org/1999/xlink" xmlns:dc="http://purl.org/dc/elements/1.1/">
 <defs id="defs3817">
  <filter id="filter3174" color-interpolation-filters="sRGB">
   <feGaussianBlur id="feGaussianBlur3176" stdDeviation="1.71"/>
  </filter>
  <filter id="filter3794" height="1.384" width="1.384" color-interpolation-filters="sRGB" y="-.192" x="-.192">
   <feGaussianBlur id="feGaussianBlur3796" stdDeviation="5.28"/>
  </filter>
  <clipPath id="clipPath4355">
   <rect id="rect4357" style="fill:#fff" rx="6" ry="6" height="80" width="84" y="6" x="6"/>
  </clipPath>
 </defs>
 <metadata id="metadata3820">
  <rdf:RDF>
   <cc:Work rdf:about="">
    <dc:format>image/svg+xml</dc:format>
    <dc:type rdf:resource="http://purl.org/dc/dcmitype/StillImage"/>
    <dc:title/>
   </cc:Work>
  </rdf:RDF>
 </metadata>
 <g id="layer1" transform="translate(-461.71 -525.79)">
  <rect id="rect3745" style="opacity:.9;filter:url(#filter3174);display:none;fill:#f2f2f2" transform="matrix(.36331 0 0 .36331 536.21 442.45)" rx="6" ry="6" height="85" width="86" y="7" x="5"/>
  <rect id="rect3171" style="opacity:.1;filter:url(#filter3794);stroke:#fff;stroke-linecap:round;stroke-width:.5;display:none;fill:#f2f2f2" transform="matrix(.36331 0 0 .36331 536.21 442.45)" clip-path="url(#clipPath4355)" rx="12" ry="12" height="62" width="66" y="15" x="15"/>
  <path id="path11225" style="fill:#f2f2f2;fill-opacity:.94118" d="m470.84 542.78c-6.254-4.6976-8.0421-10.674-3.875-12.95 1.1886-0.64944 3.0882-0.53979 4.1264 0.23819 0.85766 0.64263 1.5888 2.5816 1.1657 3.0914-0.16024 0.19308-0.21531 0.47408-0.12237 0.62446 0.0929 0.15037 0.0573 0.34246-0.0793 0.42686-0.35585 0.21992-0.36867 2.9088-0.0149 3.1274 0.18804 0.11622 0.0912 0.40283-0.26506 0.78464-0.30872 0.33085-0.64019 0.98022-0.73661 1.443-0.15671 0.75225-0.11373 0.72249 0.40522-0.2805 0.31929-0.61711 0.76311-1.259 0.98627-1.4263 0.30883-0.23162 0.32768-0.38234 0.0789-0.63113-0.24879-0.24879-0.23938-0.32685 0.0394-0.32685 0.3362 0 1.3847 0.7261 2.6283 1.8202 0.4632 0.40751 0.48604 0.39044 0.32678-0.24413-0.0942-0.37525-0.0258-0.97804 0.15194-1.3395l0.32318-0.65726-0.53885 0.66817c-0.59855 0.74219-0.61305 0.74047-2.09-0.24742-0.78404-0.52442-1.0493-0.89578-1.0519-1.4726-0.002-0.51314 0.14293-0.77139 0.43384-0.77139 0.24052 0 0.35776-0.12872 0.26053-0.28603-0.0972-0.15732-0.20436-0.88643-0.23807-1.6202-0.0568-1.2364 0.0175-1.3994 1.0134-2.2231 2.9075-2.4048 6.942-0.65338 6.942 3.0135 0 2.5192-1.2252 4.8338-3.9633 7.487-1.4438 1.399-3.5963 3.1447-3.8908 3.1554-0.0771 0.003-0.98415-0.62878-2.0156-1.4035z"/>
 </g>
</svg>
