<?xml version="1.0" encoding="UTF-8" standalone="no"?>
<!-- Created with Inkscape (http://www.inkscape.org/) -->
<svg id="svg3815" xmlns:rdf="http://www.w3.org/1999/02/22-rdf-syntax-ns#" xmlns="http://www.w3.org/2000/svg" height="22" width="22" version="1.1" xmlns:cc="http://creativecommons.org/ns#" xmlns:xlink="http://www.w3.org/1999/xlink" xmlns:dc="http://purl.org/dc/elements/1.1/">
 <defs id="defs3817">
  <filter id="filter3174" color-interpolation-filters="sRGB">
   <feGaussianBlur id="feGaussianBlur3176" stdDeviation="1.71"/>
  </filter>
  <filter id="filter3794" height="1.384" width="1.384" color-interpolation-filters="sRGB" y="-.192" x="-.192">
   <feGaussianBlur id="feGaussianBlur3796" stdDeviation="5.28"/>
  </filter>
  <clipPath id="clipPath4355">
   <rect id="rect4357" style="fill:#fff" rx="6" ry="6" height="80" width="84" y="6" x="6"/>
  </clipPath>
 </defs>
 <metadata id="metadata3820">
  <rdf:RDF>
   <cc:Work rdf:about="">
    <dc:format>image/svg+xml</dc:format>
    <dc:type rdf:resource="http://purl.org/dc/dcmitype/StillImage"/>
    <dc:title/>
   </cc:Work>
  </rdf:RDF>
 </metadata>
 <g id="layer1" transform="translate(-461.71 -525.79)">
  <rect id="rect3745" style="opacity:.9;filter:url(#filter3174);display:none;fill:#f2f2f2" transform="matrix(.36331 0 0 .36331 536.21 442.45)" rx="6" ry="6" height="85" width="86" y="7" x="5"/>
  <rect id="rect3171" style="opacity:.1;filter:url(#filter3794);stroke:#fff;stroke-linecap:round;stroke-width:.5;display:none;fill:#f2f2f2" transform="matrix(.36331 0 0 .36331 536.21 442.45)" clip-path="url(#clipPath4355)" rx="12" ry="12" height="62" width="66" y="15" x="15"/>
  <path id="path11572" style="fill:#f2f2f2" d="m473.93 529.93c-1.0472 0.006-1.2934 0.70078-1.2001 1.7929l0.0314 0.99229c-0.61796 1.1692-1.3007 2.3381-2.2136 3.4577 0.009 0.0282-0.11495 0.0188-0.22984-0.0178-0.0948-0.0302-0.57624-0.0375-2.6054-0.0373-1.5312 0.00008-2.5258 0.0109-2.5842 0.0271-0.28891 0.0804-0.4517 0.38264-0.40624 0.75396 0.0123 0.10026 0.0352 0.36554 0.0517 0.58944s0.0662 0.85896 0.11025 1.4112c0.15075 1.8905 0.21565 2.7143 0.25868 3.2839 0.0759 1.0052 0.0788 1.0281 0.15775 1.1628 0.0861 0.14702 0.19467 0.22974 0.36553 0.27733 0.10003 0.0279 0.59427 0.0343 2.3391 0.0305l2.2119-0.005 0.12891-0.0636c0.20306-0.10333 0.3193-0.36193 0.34264-0.59877 0.0142-0.19369 0.0246-0.22962 0.067-0.23577 0.0337-0.005 0.68389 0.45259 0.77347 0.39437 0.11335 0.0235 0.96233 0.0298 3.2474 0.0237l3.0939-0.008 0.21458-0.0755c0.8946-0.31632 1.3934-1.1164 1.1967-1.9193l-0.0466-0.18912c0.15887-0.18096 0.32014-0.36931 0.39607-0.60301-0.0112-0.0181-0.007-0.0229 0.011-0.0119 0.0192 0.0118 0.0502-0.0462 0.0857-0.16114 0.13213-0.44916-0.23791-1.053 0.11025-1.1059 0-0.018 0.0308-0.0563 0.0687-0.0848 0.0614-0.0475 0.23754-0.43454 0.28412-0.5148 0.081-0.25322 0.079-0.64221-0.005-0.87524-0.0297-0.0824-0.025-0.0925 0.12382-0.25698 0.0851-0.094 0.16219-0.20023 0.17132-0.23662 0.009-0.0364 0.0393-0.0893 0.067-0.11704 0.0277-0.0277 0.05-0.0664 0.05-0.0865s0.0181-0.0735 0.0407-0.11873c0.0604-0.12112 0.0938-0.44557 0.0661-0.64117-0.0454-0.32082-0.16272-0.54528-0.38504-0.73701-0.14195-0.12242-0.31027-0.21183-0.35112-0.18658-0.0171 0.0106-0.0232 0.006-0.0136-0.009 0.01-0.016-0.0486-0.0491-0.13824-0.078-0.14453-0.0466-0.30138-0.0503-2.2416-0.0585l-2.0863-0.009 0.0144-0.0865c0.008-0.0479 0.0456-0.26445 0.0831-0.48088 0.0376-0.21644 0.10796-0.64999 0.15605-0.96345 0.0829-0.54006 0.0856-0.58487 0.056-0.8549-0.0366-0.3337-0.17384-0.86999-0.32822-1.2849-0.24358-0.64921-0.3933-1.087-1.0126-1.413-0.18901-0.0576-0.28593-0.0704-0.52753-0.0704zm-0.0695 0.58265c0.0198-0.00059 0.0399 0.00041 0.0611 0.002 0.15279-0.00014 0.28567 0.0173 0.39353 0.0517 0.33999 0.10856 0.40353 0.57364 0.56738 0.94649 0.19119 0.48015 0.28101 0.71336 0.32737 1.15 0.0407 0.27077 0.04 0.27726-0.0797 1.0262-0.0215 0.13434-0.059 0.37249-0.0831 0.52922-0.0572 0.37224-0.22275 1.2646-0.25528 1.3773l-0.0254 0.0882h2.3968c2.056 0 2.4127 0.006 2.5112 0.0407 0.0632 0.0223 0.12769 0.0326 0.14333 0.0229 0.0179-0.0111 0.0208-0.005 0.007 0.0178-0.0163 0.0263-0.0104 0.0317 0.0237 0.0187 0.0256-0.01 0.0407-0.008 0.0331 0.004-0.0199 0.0322 0.15901 0.19977 0.18658 0.17471 0.0126-0.0115 0.0149-0.007 0.005 0.0102-0.01 0.0171 0.002 0.0782 0.0263 0.1357 0.25731 0.63558-0.48336 0.91618-0.71156 1.3086-0.0209 0.11903 0.0767 0.0672 0.134 0.21881 0.17017 0.18348 0.19668 0.50938 0.0645 0.79722-0.0838 0.18239-0.3548 0.4691-0.52583 0.55636-0.0762 0.0389-0.12123 0.0848-0.14163 0.14333-0.0286 0.082-0.025 0.0905 0.089 0.19082 0.12915 0.11369 0.20609 0.28457 0.20609 0.45798-0.0152 0.43283-0.38126 0.71465-0.75991 1.0686-0.0277 0.0792-0.0235 0.0894 0.0679 0.16284 0.20955 0.16854 0.28144 0.46864 0.17895 0.74972-0.13594 0.35958-0.48213 0.64847-0.91171 0.82776l-3.0396 0.004c-1.6718 0.002-3.0787-0.005-3.1261-0.0161-0.28014-0.0286-0.41572-0.1646-0.6488-0.3562-0.16685-0.0941-0.2483-0.11021-0.56739-0.1111-0.16419-0.00046-0.27716-0.006-0.25104-0.0136 0.0448-0.0124 0.0475-0.15571 0.0475-2.5189v-2.5053c1.1398-0.49416 1.3262-1.3397 1.8582-1.9871 0.53967-0.84303 0.77014-1.3233 1.2102-2.1288 0.0598-0.15977 0.0605-0.17038 0.0416-1.1848-0.006-0.34166-0.0661-1.2419 0.54703-1.2603zm-1.0415 2.1678c0.002 0.00038 0.005 0.005 0.008 0.0127 0.008 0.0196 0.006 0.0427-0.003 0.0517s-0.0147-0.007-0.0136-0.0356c0.00082-0.0198 0.004-0.0295 0.008-0.0288zm0.38335 0.29854c0.0211 0 0.0323 0.01 0.0246 0.0221-0.008 0.0124-0.0189 0.0229-0.0246 0.0229-0.006 0-0.0169-0.0105-0.0246-0.0229-0.008-0.0124 0.004-0.0221 0.0246-0.0221z"/>
  <path id="path11572-0" style="fill:#f2f2f2" d="m451.55 531.17c0.009 0.0282-0.11495 0.0188-0.22984-0.0178-0.0948-0.0302-0.57624-0.0375-2.6054-0.0373-1.5312 0.00008-2.5258 0.0109-2.5842 0.0271-0.28891 0.0804-0.4517 0.38264-0.40624 0.75396 0.0123 0.10026 0.0352 0.36554 0.0517 0.58944s0.0662 0.85896 0.11025 1.4112c0.15075 1.8905 0.21565 2.7143 0.25868 3.2839 0.0759 1.0052 0.0788 1.0281 0.15775 1.1628 0.0861 0.14702 0.19467 0.22974 0.36553 0.27733 0.10003 0.0279 0.59427 0.0343 2.3391 0.0305l2.2119-0.005 0.12891-0.0636m0.0614-1.4742c-0.16419-0.00046-0.27716-0.006-0.25104-0.0136 0.0448-0.0124 0.0475-0.15571 0.0475-2.5189v-2.5053m-4.9083-0.38571 2.1627 0.007 2.1618 0.007v3.1753 3.1753l-1.9074 0.007c-1.5124 0.006-1.9091-0.00008-1.9176-0.0271-0.006-0.0188-0.0173-0.11941-0.0246-0.2239-0.0294-0.41941-0.18384-2.3914-0.23493-2.9989-0.0144-0.17166-0.0393-0.47087-0.0551-0.66491-0.0158-0.19405-0.0402-0.46884-0.0543-0.61064-0.014-0.14181-0.0333-0.42575-0.0433-0.631-0.0136-0.28144-0.0265-0.37316-0.0534-0.37316-0.0281 0-0.0357-0.0901-0.0348-0.42066l0.00085-0.42067zm3.1982 4.9122c-0.29977 0-0.54279 0.24301-0.54279 0.54279 0 0.29977 0.24302 0.54278 0.54279 0.54278 0.29978 0 0.54279-0.24301 0.54279-0.54278 0-0.29978-0.24301-0.54279-0.54279-0.54279z"/>
 </g>
</svg>
