<?xml version="1.0" encoding="UTF-8" standalone="no"?>
<!-- Created with Inkscape (http://www.inkscape.org/) -->
<svg id="svg3815" xmlns:rdf="http://www.w3.org/1999/02/22-rdf-syntax-ns#" xmlns="http://www.w3.org/2000/svg" height="22" width="22" version="1.1" xmlns:cc="http://creativecommons.org/ns#" xmlns:xlink="http://www.w3.org/1999/xlink" xmlns:dc="http://purl.org/dc/elements/1.1/">
 <defs id="defs3817">
  <filter id="filter3174" color-interpolation-filters="sRGB">
   <feGaussianBlur id="feGaussianBlur3176" stdDeviation="1.71"/>
  </filter>
  <filter id="filter3794" height="1.384" width="1.384" color-interpolation-filters="sRGB" y="-.192" x="-.192">
   <feGaussianBlur id="feGaussianBlur3796" stdDeviation="5.28"/>
  </filter>
  <clipPath id="clipPath4355">
   <rect id="rect4357" style="fill:#fff" rx="6" ry="6" height="80" width="84" y="6" x="6"/>
  </clipPath>
 </defs>
 <metadata id="metadata3820">
  <rdf:RDF>
   <cc:Work rdf:about="">
    <dc:format>image/svg+xml</dc:format>
    <dc:type rdf:resource="http://purl.org/dc/dcmitype/StillImage"/>
    <dc:title/>
   </cc:Work>
  </rdf:RDF>
 </metadata>
 <g id="layer1" transform="translate(-461.71 -525.79)">
  <rect id="rect3745" style="opacity:.9;filter:url(#filter3174);display:none;fill:#f2f2f2" transform="matrix(.36331 0 0 .36331 536.21 442.45)" rx="6" ry="6" height="85" width="86" y="7" x="5"/>
  <rect id="rect3171" style="opacity:.1;filter:url(#filter3794);stroke:#fff;stroke-linecap:round;stroke-width:.5;display:none;fill:#f2f2f2" transform="matrix(.36331 0 0 .36331 536.21 442.45)" clip-path="url(#clipPath4355)" rx="12" ry="12" height="62" width="66" y="15" x="15"/>
  <path id="path11572" style="fill:#f2f2f2" d="m467.62 529.92c-1.5312 0.00008-2.5353 0.015-2.5938 0.0312-0.28891 0.0804-0.45171 0.37868-0.40625 0.75 0.0123 0.10026 0.046 0.36985 0.0625 0.59375s0.0497 0.85396 0.0937 1.4062c0.15075 1.8905 0.23822 2.7117 0.28125 3.2812 0.0759 1.0052 0.0773 1.0216 0.15625 1.1562 0.0861 0.14702 0.17289 0.23366 0.34375 0.28125 0.10003 0.0279 0.59894 0.035 2.3438 0.0312h1.9375v0.0312c0.83011 0.00009 0.84775 0.003 0.84375 0-0.11647-0.005-0.27719-0.0226-0.25-0.0312 0.11489-0.0366 0.22775-0.0594 0.21875-0.0312 0.0146 0.018 0.0167 0.0445 0.0312 0.0625 0.0144 0.00065 0.0167-0.0006 0.0312 0 0.88493 1.0986 1.551 2.261 2.1562 3.4062l-0.0312 1c-0.0933 1.0921 0.17158 1.7752 1.2188 1.7812 0.2416 0 0.31099-0.005 0.5-0.0625 0.61934-0.3259 0.78767-0.78829 1.0312-1.4375 0.15438-0.41489 0.2759-0.94755 0.3125-1.2812 0.0296-0.27003 0.0516-0.30369-0.0312-0.84375-0.0481-0.31346-0.11865-0.75231-0.15625-0.96875-0.0375-0.21643-0.0858-0.42085-0.0937-0.46875l-0.0312-0.0937h2.0938c1.9402-0.008 2.1055-0.0159 2.25-0.0625 0.0896-0.0289 0.135-0.0778 0.125-0.0937-0.01-0.015 0.0141-0.0106 0.0312 0 0.0408 0.0253 0.2018-0.0651 0.34375-0.1875 0.22232-0.19173 0.3296-0.39793 0.375-0.71875 0.0277-0.1956-0.002-0.53513-0.0625-0.65625-0.0226-0.0452-0.0312-0.1049-0.0312-0.125s-0.0348-0.0661-0.0625-0.0937c-0.0277-0.0277-0.0535-0.0574-0.0625-0.0937-0.009-0.0364-0.0711-0.156-0.15625-0.25-0.14882-0.16448-0.1547-0.1676-0.125-0.25 0.084-0.23303 0.081-0.62178 0-0.875-0.0466-0.0803-0.21985-0.48375-0.28125-0.53125-0.0379-0.0285-0.0625-0.0445-0.0625-0.0625-0.34816-0.0529 0.007-0.67584-0.125-1.125-0.0355-0.11494-0.0745-0.16805-0.0937-0.15625-0.0759-0.2337-0.24738-0.44404-0.40625-0.625l0.0625-0.1875c0.19674-0.80282-0.2929-1.5899-1.1875-1.9062l-0.21875-0.0625-3.0938-0.0312c-2.2851-0.006-3.1366 0.008-3.25 0.0312-0.0896-0.0582-0.74755 0.41125-0.78125 0.40625-0.0424-0.006-0.0483-0.0563-0.0625-0.25-0.0233-0.23684-0.14069-0.49042-0.34375-0.59375l-0.125-0.0625h-0.125c-0.003-0.001-0.0893 0.001-0.0937 0-0.11977-0.0275-0.54418-0.0314-2.5-0.0312zm4.125 1.0938c0.0474-0.0111 1.4532-0.002 3.125 0h3.0312c0.42958 0.17929 0.77031 0.45292 0.90625 0.8125 0.10249 0.28108 0.0533 0.58146-0.15625 0.75-0.0914 0.0734-0.12145 0.1083-0.0937 0.1875 0.37865 0.35397 0.76605 0.62967 0.78125 1.0625 0 0.17341-0.0896 0.32381-0.21875 0.4375-0.114 0.10032-0.12235 0.1055-0.0937 0.1875 0.0204 0.0585 0.08 0.11735 0.15625 0.15625 0.17103 0.0873 0.44745 0.38011 0.53125 0.5625 0.13218 0.28784 0.10767 0.59777-0.0625 0.78125-0.0573 0.15161-0.17715 0.0997-0.15625 0.21875 0.2282 0.39245 0.97606 0.67692 0.71875 1.3125-0.0243 0.0575-0.0412 0.13915-0.0312 0.15625-0.0276-0.0251-0.2074 0.1553-0.1875 0.1875 0.008 0.012-0.006 0.01-0.0312 0-0.0341-0.013-0.0476-0.0263-0.0312 0 0.0138 0.0228 0.0179 0.0423 0 0.0312-0.0156-0.01-0.0931 0.009-0.15625 0.0312-0.0985 0.0347-0.44396 0.0312-2.5 0.0312h-2.4062l0.0312 0.0937c0.0325 0.11276 0.1928 1.0028 0.25 1.375 0.0241 0.15673 0.0722 0.39691 0.0937 0.53125 0.1197 0.74895 0.13445 0.76048 0.0937 1.0312-0.0464 0.43667-0.15256 0.64485-0.34375 1.125-0.16385 0.37285-0.22251 0.86019-0.5625 0.96875-0.10786 0.0344-0.25346 0.0314-0.40625 0.0312-0.0212 0.002-0.0427 0.00059-0.0625 0-0.61313-0.0184-0.53725-0.90834-0.53125-1.25 0.0189-1.0144 0.0285-1.0277-0.0312-1.1875-0.44011-0.80541-0.67908-1.282-1.2188-2.125-0.53205-0.6474-0.73516-1.5058-1.875-2v-2.5c0-2.3632 0.0136-2.4876-0.0312-2.5-0.0261-0.008 0.0858-0.0308 0.25-0.0312 0.31909-0.00089 0.39565 0.00035 0.5625-0.0937 0.23308-0.1916 0.37611-0.3464 0.65625-0.375z"/>
 </g>
</svg>
