<?xml version="1.0" encoding="UTF-8" standalone="no"?>
<!-- Created with Inkscape (http://www.inkscape.org/) -->
<svg id="svg3815" xmlns:rdf="http://www.w3.org/1999/02/22-rdf-syntax-ns#" xmlns="http://www.w3.org/2000/svg" xmlns:osb="http://www.openswatchbook.org/uri/2009/osb" height="22" width="22" version="1.1" xmlns:cc="http://creativecommons.org/ns#" xmlns:xlink="http://www.w3.org/1999/xlink" xmlns:dc="http://purl.org/dc/elements/1.1/">
 <defs id="defs3817">
  <filter id="filter3174" color-interpolation-filters="sRGB">
   <feGaussianBlur id="feGaussianBlur3176" stdDeviation="1.71"/>
  </filter>
  <filter id="filter3794" height="1.384" width="1.384" color-interpolation-filters="sRGB" y="-.192" x="-.192">
   <feGaussianBlur id="feGaussianBlur3796" stdDeviation="5.28"/>
  </filter>
  <clipPath id="clipPath4355">
   <rect id="rect4357" style="fill:#fff" rx="6" ry="6" height="80" width="84" y="6" x="6"/>
  </clipPath>
 </defs>
 <metadata id="metadata3820">
  <rdf:RDF>
   <cc:Work rdf:about="">
    <dc:format>image/svg+xml</dc:format>
    <dc:type rdf:resource="http://purl.org/dc/dcmitype/StillImage"/>
    <dc:title/>
   </cc:Work>
  </rdf:RDF>
 </metadata>
 <g id="layer1" transform="translate(-461.71 -525.79)">
  <rect id="rect3745" style="opacity:.9;filter:url(#filter3174);display:none;fill:#f2f2f2" transform="matrix(.36331 0 0 .36331 536.21 442.45)" rx="6" ry="6" height="85" width="86" y="7" x="5"/>
  <rect id="rect3171" style="opacity:.1;filter:url(#filter3794);stroke:#fff;stroke-linecap:round;stroke-width:.5;display:none;fill:#f2f2f2" transform="matrix(.36331 0 0 .36331 536.21 442.45)" clip-path="url(#clipPath4355)" rx="12" ry="12" height="62" width="66" y="15" x="15"/>
  <path id="path11473" style="fill:#f2f2f2" d="m472.14 544.64c-0.0771-0.0839-0.14024-0.33619-0.14024-0.56065s-0.16566-0.51306-0.36813-0.64133c-0.35061-0.22211-0.35061-0.23355 0-0.24018 0.312-0.006 0.36813-0.23262 0.36813-1.487 0-1.1973-0.0581-1.4558-0.3043-1.3531-0.59757 0.24941-2.583-0.57263-3.1484-1.3036-0.68587-0.88658-0.68882-1.3064-0.0105-1.4916 0.82728-0.22584 1.8039 0.081 2.6714 0.83924l0.79183 0.69214v-1.0137c0-0.8213-0.0799-1.0364-0.42072-1.1334-0.2314-0.0658-0.42072-0.2214-0.42072-0.34574s0.97879-1.2425 2.1751-2.4849c1.1963-1.2423 2.2897-2.4916 2.4297-2.7762 0.33904-0.68906 0.5533-0.49605 0.8442 0.76051 0.46437 2.0059-0.55562 4.0448-2.4086 4.8145-0.88431 0.36733-0.93683 0.43845-0.93683 1.2686v0.87943l0.96379-0.73891c0.76467-0.58625 1.1739-0.73891 1.9809-0.73891 0.55942 0 1.0793 0.0676 1.1553 0.15034 0.076 0.0827-0.0127 0.46779-0.19716 0.85579-0.41787 0.87893-1.7404 1.6339-2.9673 1.6939-0.87231 0.0427-0.93277 0.0873-0.93413 0.69027-0.001 0.5566 0.0632 0.62604 0.47185 0.50847l0.47331-0.13617-0.47331 0.37746c-0.39781 0.31725-0.47332 0.59204-0.47332 1.7224 0 1.2564-0.0323 1.3449-0.49084 1.3449-0.26997 0-0.55395-0.0686-0.63108-0.15254zm-2.4648-9.3617c-0.62654-1.1026-0.75149-2.515-0.32153-3.6343l0.34324-0.89351 0.37482 0.76019c0.34501 0.69972 1.1102 1.2899 2.2909 1.7668 0.45109 0.18222 0.4295 0.23674-0.59592 1.5047-0.58519 0.72361-1.1904 1.3156-1.3449 1.3156-0.15453 0-0.4905-0.36878-0.74661-0.81952zm2.5383-2.8659c-0.91458-0.21018-1.7323-1.1955-1.6452-1.9823 0.0353-0.31858 0.3229-0.78845 0.63918-1.0442 0.62197-0.50285 1.0177-0.38022 0.58842 0.18235-0.44821 0.58742-0.0798 1.4858 0.76715 1.8707 0.82966 0.37706 1.6356 0.26294 2.2253-0.31509 0.57142-0.56012 0.65747-0.18665 0.11468 0.49775-0.56375 0.71082-1.649 1.0299-2.6896 0.79076zm0.2945-2.1476c-0.42986-0.46756-0.48374-0.65334-0.29858-1.0296 0.26912-0.54695 0.92975-0.58721 1.9591-0.1194 1.0044 0.45648 1.1528 0.79105 0.57614 1.299-0.67738 0.59661-1.6076 0.53425-2.2367-0.14993z"/>
 </g>
</svg>
