<?xml version="1.0" encoding="UTF-8" standalone="no"?>
<!-- Created with Inkscape (http://www.inkscape.org/) -->
<svg id="svg3449" xmlns:rdf="http://www.w3.org/1999/02/22-rdf-syntax-ns#" xmlns="http://www.w3.org/2000/svg" height="128" width="128" version="1.0" xmlns:cc="http://creativecommons.org/ns#" xmlns:xlink="http://www.w3.org/1999/xlink" xmlns:dc="http://purl.org/dc/elements/1.1/">
 <metadata id="metadata56">
  <rdf:RDF>
   <cc:Work rdf:about="">
    <dc:format>image/svg+xml</dc:format>
    <dc:type rdf:resource="http://purl.org/dc/dcmitype/StillImage"/>
    <dc:title/>
   </cc:Work>
  </rdf:RDF>
 </metadata>
 <defs id="defs3451">
  <linearGradient id="linearGradient3514" y2="-9.1034" gradientUnits="userSpaceOnUse" x2="66.492" gradientTransform="matrix(.96826 0 0 .97948 2.179 .16587)" y1="-42.638" x1="67.952">
   <stop id="stop4620" style="stop-color:#37414b" offset="0"/>
   <stop id="stop4622" style="stop-color:#37414b;stop-opacity:0" offset="1"/>
  </linearGradient>
  <linearGradient id="linearGradient3516" y2="-11.847" gradientUnits="userSpaceOnUse" x2="58.98" gradientTransform="matrix(.96826 0 0 .97948 2.179 .16587)" y1="-118.55" x1="57.173">
   <stop id="stop4596" offset="0"/>
   <stop id="stop4598" style="stop-opacity:0" offset="1"/>
  </linearGradient>
  <linearGradient id="linearGradient3519" y2="50.369" gradientUnits="userSpaceOnUse" x2="76.558" gradientTransform="matrix(.96826 0 0 .97948 3.2423 -129.19)" y1="13.164" x1="76.558">
   <stop id="stop3392" style="stop-color:#425e7b" offset="0"/>
   <stop id="stop3394" style="stop-color:#7a91a7" offset="1"/>
  </linearGradient>
  <linearGradient id="linearGradient3521" y2="-8.7399" gradientUnits="userSpaceOnUse" x2="60.217" gradientTransform="matrix(.96826 0 0 .97948 2.179 .16587)" y1="-123.72" x1="60.395">
   <stop id="stop3392-4-8" style="stop-color:#425e7b" offset="0"/>
   <stop id="stop3394-8-0" style="stop-color:#7a91a7" offset="1"/>
  </linearGradient>
  <radialGradient id="radialGradient3349" gradientUnits="userSpaceOnUse" cy="45.647" cx="42.148" gradientTransform="matrix(.94690 -.033779 .040605 1.1383 1.7419 -28.433)" r="58.984">
   <stop id="stop7563" style="stop-color:#7cc94f" offset="0"/>
   <stop id="stop7565" style="stop-color:#589b32" offset="1"/>
  </radialGradient>
  <filter id="filter3174-5" color-interpolation-filters="sRGB">
   <feGaussianBlur id="feGaussianBlur3176-4" stdDeviation="1.71"/>
  </filter>
  <linearGradient id="ButtonShadow-4" x1="45.448" gradientUnits="userSpaceOnUse" y1="92.54" gradientTransform="scale(1.0059 .99417)" x2="45.448" y2="7.0165">
   <stop id="stop3750-3" offset="0"/>
   <stop id="stop3752-57" style="stop-opacity:.58824" offset="1"/>
  </linearGradient>
  <filter id="filter3174-0" color-interpolation-filters="sRGB">
   <feGaussianBlur id="feGaussianBlur3176-9" stdDeviation="1.71"/>
  </filter>
  <filter id="filter3174-7" color-interpolation-filters="sRGB">
   <feGaussianBlur id="feGaussianBlur3176-7" stdDeviation="1.71"/>
  </filter>
  <clipPath id="clipPath3613-9">
   <rect id="rect3615-2" style="fill:#fff" rx="6" ry="6" height="84" width="84" y="6" x="6"/>
  </clipPath>
  <linearGradient id="linearGradient3613-3" x1="48" gradientUnits="userSpaceOnUse" y1="20.221" x2="48" y2="138.66">
   <stop id="stop3739-03" style="stop-color:#fff" offset="0"/>
   <stop id="stop3741-5" style="stop-color:#fff;stop-opacity:0" offset="1"/>
  </linearGradient>
  <filter id="filter3794-30" height="1.384" width="1.384" color-interpolation-filters="sRGB" y="-.192" x="-.192">
   <feGaussianBlur id="feGaussianBlur3796-38" stdDeviation="5.28"/>
  </filter>
  <filter id="filter3174-8" color-interpolation-filters="sRGB">
   <feGaussianBlur id="feGaussianBlur3176-3" stdDeviation="1.71"/>
  </filter>
  <clipPath id="clipPath3613-26">
   <rect id="rect3615-4" style="fill:#fff" rx="6" ry="6" height="84" width="84" y="6" x="6"/>
  </clipPath>
  <filter id="filter3794-67" height="1.384" width="1.384" color-interpolation-filters="sRGB" y="-.192" x="-.192">
   <feGaussianBlur id="feGaussianBlur3796-4" stdDeviation="5.28"/>
  </filter>
  <filter id="filter3174-4" color-interpolation-filters="sRGB">
   <feGaussianBlur id="feGaussianBlur3176-0" stdDeviation="1.71"/>
  </filter>
  <filter id="filter3174-1" color-interpolation-filters="sRGB">
   <feGaussianBlur id="feGaussianBlur3176-1" stdDeviation="1.71"/>
  </filter>
  <linearGradient id="linearGradient9285" y2="7.0165" gradientUnits="userSpaceOnUse" x2="45.448" gradientTransform="matrix(1.0059 0 0 .99417 -59.657 2.8358)" y1="92.54" x1="45.448">
   <stop id="stop3750-7" offset="0"/>
   <stop id="stop3752-3" style="stop-opacity:.58824" offset="1"/>
  </linearGradient>
  <filter id="filter3174-06" color-interpolation-filters="sRGB">
   <feGaussianBlur id="feGaussianBlur3176-91" stdDeviation="1.71"/>
  </filter>
  <filter id="filter3174-45" color-interpolation-filters="sRGB">
   <feGaussianBlur id="feGaussianBlur3176-46" stdDeviation="1.71"/>
  </filter>
  <filter id="filter3174-17" color-interpolation-filters="sRGB">
   <feGaussianBlur id="feGaussianBlur3176-33" stdDeviation="1.71"/>
  </filter>
  <filter id="filter3174-2" color-interpolation-filters="sRGB">
   <feGaussianBlur id="feGaussianBlur3176-6" stdDeviation="1.71"/>
  </filter>
  <linearGradient id="linearGradient8327" y2="7.0165" gradientUnits="userSpaceOnUse" x2="45.448" gradientTransform="matrix(1.0059 0 0 .99417 199.61 15.454)" y1="92.54" x1="45.448">
   <stop id="stop3750-60" offset="0"/>
   <stop id="stop3752-38" style="stop-opacity:.58824" offset="1"/>
  </linearGradient>
  <filter id="filter3174-54" color-interpolation-filters="sRGB">
   <feGaussianBlur id="feGaussianBlur3176-69" stdDeviation="1.71"/>
  </filter>
  <linearGradient id="linearGradient8554" y2="7.0165" gradientUnits="userSpaceOnUse" x2="45.448" gradientTransform="matrix(1.0059 0 0 .99417 -111.8 8.6962)" y1="92.54" x1="45.448">
   <stop id="stop3750-62" offset="0"/>
   <stop id="stop3752-52" style="stop-opacity:.58824" offset="1"/>
  </linearGradient>
  <filter id="filter3174-24" color-interpolation-filters="sRGB">
   <feGaussianBlur id="feGaussianBlur3176-64" stdDeviation="1.71"/>
  </filter>
  <linearGradient id="linearGradient8844" y2="7.0165" gradientUnits="userSpaceOnUse" x2="45.448" gradientTransform="matrix(1.0059 0 0 .99417 -182.89 .27657)" y1="92.54" x1="45.448">
   <stop id="stop3750-9" offset="0"/>
   <stop id="stop3752-48" style="stop-opacity:.58824" offset="1"/>
  </linearGradient>
 </defs>
 <rect id="rect892" style="stroke:url(#linearGradient3521);stroke-width:.97385;fill:url(#linearGradient3519)" transform="scale(1,-1)" ry="29.296" height="115.54" width="114.22" y="-122.25" x="7.0394"/>
 <rect id="rect892-2" style="stroke:url(#linearGradient3516);stroke-width:.97385;fill:url(#linearGradient3514)" transform="scale(1,-1)" ry="28.993" height="114.35" width="114.22" y="-121.46" x="7.0599"/>
 <path id="rect895" style="fill:url(#radialGradient3349)" d="m30.571 7.0104c-13.128 0.936-22.55 15.04-23.173 23.288-0.050142 0.97378-0.088772 1.9648-0.088772 2.9572v58.419c0 15.229 11.191 27.859 22.318 27.859h67.038c15.69 0 24.318-16.445 24.318-25.859v-64.017c-0.21-5.933-12.29-21.682-25.926-22.618-47.846 0.8653-20.497-0.0256-64.483-0.0256z"/>
 <rect id="rect892-2-7-8" style="opacity:.15891;stroke:#000;stroke-width:4.8445;fill:none" transform="scale(1,-1)" ry="28.993" height="114.35" width="114.22" y="-121.16" x="6.8683"/>
 <rect id="rect892-2-7-1" style="opacity:.15891;stroke:#000;stroke-width:7.7512;fill:none" transform="scale(1,-1)" ry="28.993" height="114.35" width="114.22" y="-121.16" x="6.8686"/>
 <rect id="rect892-2-7-2-9" ry="28.067" style="stroke:#000;stroke-width:1.0489;fill:none" transform="scale(1,-1)" height="112.71" width="114.14" y="-120.31" x="7.0644"/>
 <g id="layer2" style="display:none" transform="translate(137.63 15.959)">
  <rect id="rect3745" style="opacity:.9;filter:url(#filter3174-5);fill:url(#ButtonShadow-4)" rx="6" ry="6" height="85" width="86" y="7" x="5"/>
 </g>
 <g id="layer2-3" style="display:none" transform="translate(146.29 14.997)">
  <rect id="rect3745-4" style="opacity:.9;filter:url(#filter3174-0);fill:url(#ButtonShadow-4)" rx="6" ry="6" height="85" width="86" y="7" x="5"/>
 </g>
 <g id="layer2-4" style="display:none" transform="translate(176.76 -8.736)">
  <rect id="rect3745-7" style="opacity:.9;filter:url(#filter3174-7);fill:url(#ButtonShadow-4)" rx="6" ry="6" height="85" width="86" y="7" x="5"/>
 </g>
 <g id="layer2-2" style="display:none" transform="translate(143.15 5.055)">
  <rect id="rect3745-9" style="opacity:.9;filter:url(#filter3174-8);fill:url(#ButtonShadow-4)" rx="6" ry="6" height="85" width="86" y="7" x="5"/>
 </g>
 <g id="layer5-4" style="display:none" transform="translate(143.15 5.055)">
  <rect id="rect3171-7" style="opacity:.3;filter:url(#filter3794-30);stroke:#fff;stroke-linecap:round;stroke-width:.5;fill:url(#linearGradient3613-3)" clip-path="url(#clipPath3613-9)" rx="12" ry="12" height="66" width="66" y="15" x="15"/>
 </g>
 <g id="layer2-1" style="display:none" transform="translate(160.47 -5.8175)">
  <rect id="rect3745-8" style="opacity:.9;filter:url(#filter3174-4);fill:url(#ButtonShadow-4)" rx="6" ry="6" height="85" width="86" y="7" x="5"/>
 </g>
 <g id="layer5-46" style="display:none" transform="translate(160.47 -5.8175)">
  <rect id="rect3171-2" style="opacity:.1;filter:url(#filter3794-67);stroke:#fff;stroke-linecap:round;stroke-width:.5;fill:url(#linearGradient3613-3)" clip-path="url(#clipPath3613-26)" rx="12" ry="12" height="66" width="66" y="15" x="15"/>
 </g>
 <rect id="rect3745-82" style="opacity:.9;filter:url(#filter3174-1);display:none;fill:url(#linearGradient9285)" rx="6" ry="6" height="85" width="86" y="9.8358" x="-54.657"/>
 <style id="style1470" type="text/css"/>
 <g id="layer2-9" style="display:none" transform="translate(-132.38 3.7839)">
  <rect id="rect3745-827" style="opacity:.9;filter:url(#filter3174-06);fill:url(#ButtonShadow-4)" rx="6" ry="6" height="85" width="86" y="7" x="5"/>
 </g>
 <rect id="rect3745-74" style="opacity:.9;filter:url(#filter3174-45);display:none;fill:url(#ButtonShadow-4)" transform="matrix(1.1352 0 0 1.3226 15.015 .16604)" rx="6" ry="6" height="85" width="86" y="7" x="5"/>
 <g id="layer2-7" style="display:none" transform="translate(10.047 -115.26)">
  <rect id="rect3745-93" style="opacity:.9;filter:url(#filter3174-17);fill:url(#ButtonShadow-4)" rx="6" ry="6" height="85" width="86" y="7" x="5"/>
 </g>
 <rect id="rect3745-85" style="opacity:.9;filter:url(#filter3174-2);display:none;fill:url(#linearGradient8327)" rx="6" ry="6" height="85" width="86" y="22.454" x="204.61"/>
 <rect id="rect3745-1" style="opacity:.9;filter:url(#filter3174-54);display:none;fill:url(#linearGradient8554)" rx="6" ry="6" height="85" width="86" y="15.696" x="-106.8"/>
 <rect id="rect3745-6" style="opacity:.9;filter:url(#filter3174-24);display:none;fill:url(#linearGradient8844)" rx="6" ry="6" height="85" width="86" y="7.2766" x="-177.89"/>
 <path id="path6612" style="fill:#fff" d="m81.45 103.65c-3.6754-1.6677-8.2091-6.8392-9.097-10.377-0.3553-1.4156-0.0873-4.1189 0.59548-6.0072 1.1246-3.1099 1.0318-3.6564-0.98445-5.8027l-2.2259-2.3694-4.0469 2.0646c-15.477 7.895-37.233-2.028-40.216-18.343-1.333-7.297 3.705-15.789 11.439-19.276 3.423-1.544 3.865-2.083 3.014-3.674-0.549-1.026-1.813-1.865-2.808-1.865-2.4088 0-5.3823-3.3985-4.9477-5.6549 0.53518-2.7789 5.4054-4.0963 8.5472-2.312 3.9947 2.2686 5.011 4.5026 3.0393 6.6813-2.4676 2.7267-0.94989 3.91 5.9122 4.6095 3.3939 0.34595 8.0285 1.3723 10.299 2.2808 4.0245 1.6103 4.1886 1.5953 6.5228-0.59769 2.2423-2.1065 2.2957-2.4003 0.8407-4.6209-4.3489-6.6372 4.5102-11.927 13.127-7.8378 9.3474 4.4356 4.8084 13.514-5.9501 11.901-3.7372-0.56042-4.3436-0.3525-5.9 2.0229-1.7124 2.6134-1.6904 2.6966 1.7068 6.457 1.8929 2.0952 3.9981 5.4957 4.6783 7.5567 1.6572 5.0213 0.78707 12.965-1.804 16.469l-2.0899 2.8268 2.0518 1.8569c1.6304 1.4755 3.6582 1.8573 9.8723 1.8591 8.7357 0.002 11.531 1.3456 15.806 7.5942 2.873 4.1997 2.3953 9.1359-1.2354 12.767-3.015 3.015-11.398 3.9445-16.146 1.7902zm-18.589-39.433c0.683-4.831 0.97-9.495 0.636-10.365-1.847-4.813-20.497-6.5-20.497-1.853 0 0.51057 1.9457 0.88926 4.3239 0.84152 2.3781-0.0477 5.3031 0.22402 6.5 0.60389 4.3294 1.3741 2.0278 2.5103-4.8285 2.3837-5.5981-0.10338-7.4284 0.25233-9.1148 1.7714-2.9264 2.6361-4.1063 6.1105-2.8637 8.4323 1.3806 2.5796 7.9845 4.2987 11.451 2.9808 3.411-1.298 3.532-1.284 3.532 0.388 0 1.1814 4.7583 3.125 8.5587 3.496 0.58946 0.0575 1.6097-3.7896 2.3018-8.6798zm-17.611 0.121c-1.922-0.776-1.484-3.142 0.809-4.369 2.105-1.127 7.941-0.425 7.941 0.955 0 0.42105-0.82293 1.5103-1.8287 2.4205-1.7906 1.6204-4.428 1.9987-6.9213 0.99271z"/>
</svg>
