<?xml version="1.0" encoding="UTF-8" standalone="no"?>
<!-- Created with Inkscape (http://www.inkscape.org/) -->
<svg id="svg3449" xmlns:rdf="http://www.w3.org/1999/02/22-rdf-syntax-ns#" xmlns="http://www.w3.org/2000/svg" height="128" width="128" version="1.0" xmlns:cc="http://creativecommons.org/ns#" xmlns:xlink="http://www.w3.org/1999/xlink" xmlns:dc="http://purl.org/dc/elements/1.1/">
 <metadata id="metadata56">
  <rdf:RDF>
   <cc:Work rdf:about="">
    <dc:format>image/svg+xml</dc:format>
    <dc:type rdf:resource="http://purl.org/dc/dcmitype/StillImage"/>
    <dc:title/>
   </cc:Work>
  </rdf:RDF>
 </metadata>
 <defs id="defs3451">
  <linearGradient id="linearGradient3514" y2="-9.1034" gradientUnits="userSpaceOnUse" x2="66.492" gradientTransform="matrix(.96826 0 0 .97948 2.179 .16587)" y1="-42.638" x1="67.952">
   <stop id="stop4620" style="stop-color:#37414b" offset="0"/>
   <stop id="stop4622" style="stop-color:#37414b;stop-opacity:0" offset="1"/>
  </linearGradient>
  <linearGradient id="linearGradient3516" y2="-11.847" gradientUnits="userSpaceOnUse" x2="58.98" gradientTransform="matrix(.96826 0 0 .97948 2.179 .16587)" y1="-118.55" x1="57.173">
   <stop id="stop4596" offset="0"/>
   <stop id="stop4598" style="stop-opacity:0" offset="1"/>
  </linearGradient>
  <linearGradient id="linearGradient3519" y2="50.369" gradientUnits="userSpaceOnUse" x2="76.558" gradientTransform="matrix(.96826 0 0 .97948 3.2423 -129.19)" y1="13.164" x1="76.558">
   <stop id="stop3392" style="stop-color:#425e7b" offset="0"/>
   <stop id="stop3394" style="stop-color:#7a91a7" offset="1"/>
  </linearGradient>
  <linearGradient id="linearGradient3521" y2="-8.7399" gradientUnits="userSpaceOnUse" x2="60.217" gradientTransform="matrix(.96826 0 0 .97948 2.179 .16587)" y1="-123.72" x1="60.395">
   <stop id="stop3392-4-8" style="stop-color:#425e7b" offset="0"/>
   <stop id="stop3394-8-0" style="stop-color:#7a91a7" offset="1"/>
  </linearGradient>
  <radialGradient id="radialGradient3349" gradientUnits="userSpaceOnUse" cy="45.647" cx="42.148" gradientTransform="matrix(.94690 0 0 1.139 3.5954 -29.89)" r="58.984">
   <stop id="stop2699-5" style="stop-color:#e0b586" offset="0"/>
   <stop id="stop2701-7" style="stop-color:#d7a167" offset="1"/>
  </radialGradient>
  <linearGradient id="linearGradient11577" y2="8.1" gradientUnits="userSpaceOnUse" x2="19.387" y1="6.1438" x1="19.49">
   <stop id="stop10999-9-0" offset="0"/>
   <stop id="stop11001-6-1" style="stop-opacity:0" offset="1"/>
  </linearGradient>
  <radialGradient id="radialGradient6214-3" gradientUnits="userSpaceOnUse" cy="-523.8" cx="408.57" gradientTransform="matrix(2.2916 0 0 2.2916 -872.28 1135.3)" r="24">
   <stop id="stop4771-4" style="stop-color:#fff" offset="0"/>
   <stop id="stop4773-9" style="stop-color:#fff;stop-opacity:0" offset="1"/>
  </radialGradient>
 </defs>
 <rect id="rect892" style="stroke:url(#linearGradient3521);stroke-width:.97385;fill:url(#linearGradient3519)" transform="scale(1,-1)" ry="29.296" height="115.54" width="114.22" y="-122.25" x="7.0394"/>
 <rect id="rect892-2" style="stroke:url(#linearGradient3516);stroke-width:.97385;fill:url(#linearGradient3514)" transform="scale(1,-1)" ry="28.993" height="114.35" width="114.22" y="-121.46" x="7.0599"/>
 <path id="rect895" style="fill:url(#radialGradient3349)" d="m26.571 7.0104c-4.7037 0-18.55 16.911-19.173 23.287-0.050142 0.97378-0.088772 1.9648-0.088772 2.9572v52.419c0 22.085 6.6279 33.859 22.318 33.859h67.038c15.69 0 24.318-3.7744 24.318-25.859v-64.017c-0.21-5.933-21.655-22.618-25.926-22.618-47.846 0.8653-24.497-0.0256-68.483-0.0256z"/>
 <rect id="rect892-2-7-8" style="opacity:.15891;stroke:#000;stroke-width:4.8445;fill:none" transform="scale(1,-1)" ry="28.993" height="114.35" width="114.22" y="-121.16" x="6.8687"/>
 <rect id="rect892-2-7-1" style="opacity:.15891;stroke:#000;stroke-width:7.7512;fill:none" transform="scale(1,-1)" ry="28.993" height="114.35" width="114.22" y="-121.16" x="6.8687"/>
 <rect id="rect892-2-7-2-9" ry="28.067" style="stroke:#000;stroke-width:1.0489;fill:none" transform="scale(1,-1)" height="112.71" width="114.14" y="-120.31" x="7.0649"/>
 <g id="g17906" transform="matrix(2.3438 0 0 2.2539 107.99 32.097)"></g>
 <path id="rect4600" style="opacity:.95;fill:#fff;fill-opacity:.11765" d="m13.227 10.002v4.2251h-4.2251c-0.00393 0.07564 0 0.13823 0 0.21484v0.50129h4.2251v3.8671h-4.2251v0.71612h4.2251v3.8671h-4.2251v0.71612h4.2251v3.8671h-4.2251v0.71612h4.2251v3.8671h-4.2251v0.71612h4.2251v3.8671h-4.2251v0.71612h4.2251v3.8671h-4.2251v0.71612h4.2251v3.8671h-4.2251v0.71612h4.2251v3.8671h-4.2251v0.71612h4.2251v3.8671h-4.2251v0.71612h4.2251v3.8671h-4.2251v0.71612h4.2251v3.8671h-4.2251v0.71612h4.2251v3.8671h-4.2251v0.71612h4.2251v3.8671h-4.2251v0.71612h4.2251v3.8671h-4.2251v0.71612h4.2251v3.8671h-4.2251v0.71612h4.2251v3.8671h-4.2251v0.71612h4.2251v3.8671h-4.2251v0.71612h4.2251v3.8671h-4.2251v0.71612h4.2251v3.8671h-4.2251v0.71613h4.2251v3.8671h-4.2251v0.71613h4.2251v3.8671h-4.2251v0.71612h4.2251v3.8671h-4.2251v0.50128c0 0.0765-0.00393 0.1392 0 0.21484h4.2251v4.2251c0.07565 0.004 0.13823 0 0.21484 0h0.50129v-4.2251h3.8671v4.2251h0.71612v-4.2251h3.8671v4.2251h0.71612v-4.2251h3.8671v4.2251h0.71612v-4.2251h3.8671v4.2251h0.71613v-4.2251h3.8671v4.2251h0.71612v-4.2251h3.8671v4.2251h0.71612v-4.2251h3.8671v4.2251h0.71612v-4.2251h3.8671v4.2251h0.71612v-4.2251h3.8671v4.2251h0.71612v-4.2251h3.8671v4.2251h0.71612v-4.2251h3.8671v4.2251h0.71613v-4.2251h3.8671v4.2251h0.71612v-4.2251h3.8671v4.2251h0.71613v-4.2251h3.8671v4.2251h0.71612v-4.2251h3.8671v4.2251h0.71613v-4.2251h3.8671v4.2251h0.71612v-4.2251h3.8671v4.2251h0.71613v-4.2251h3.8671v4.2251h0.71612v-4.2251h3.8671v4.2251h0.71612v-4.2251h3.8671v4.2251h0.71613v-4.2251h3.8671v4.2251h0.71613v-4.2251h3.8671v4.2251h0.50129c0.0765 0 0.13919 0.004 0.21483 0v-4.2251h4.2251c0.004-0.0757 0-0.13823 0-0.21484v-0.50128h-4.2251v-3.8671h4.2251v-0.71612h-4.2251v-3.8671h4.2251v-0.71613h-4.2251v-3.8671h4.2251v-0.71613h-4.2251v-3.8671h4.2251v-0.71612h-4.2251v-3.8671h4.2251v-0.71612h-4.2251v-3.8671h4.2251v-0.71612h-4.2251v-3.8671h4.2251v-0.71612h-4.2251v-3.8671h4.2251v-0.71612h-4.2251v-3.8671h4.2251v-0.71612h-4.2251v-3.8671h4.2251v-0.71612h-4.2251v-3.8671h4.2251v-0.71612h-4.2251v-3.8671h4.2251v-0.71612h-4.2251v-3.8671h4.2251v-0.71612h-4.2251v-3.8671h4.2251v-0.71612h-4.2251v-3.8671h4.2251v-0.71612h-4.2251v-3.8671h4.2251v-0.71612h-4.2251v-3.8671h4.2251v-0.71612h-4.2251v-3.8671h4.2251v-0.71612h-4.2251v-3.8671h4.2251v-0.71612h-4.2251v-3.8671h4.2251v-0.71612h-4.2251v-3.8671h4.2251v-0.71612h-4.2251v-3.8671h4.2251v-0.50129c0-0.07661 0.004-0.13919 0-0.21484h-4.2251v-4.2251c-0.0757-0.0039-0.13823 0-0.21483 0h-0.50129v4.2251h-3.8671v-4.2251h-0.71613v4.2251h-3.8671v-4.2251h-0.71613v4.2251h-3.8671v-4.2251h-0.71612v4.2251h-3.8671v-4.2251h-0.71612v4.2251h-3.8671v-4.2251h-0.71613v4.2251h-3.8671v-4.2251h-0.71612v4.2251h-3.8671v-4.2251h-0.71613v4.2251h-3.8671v-4.2251h-0.71612v4.2251h-3.8671v-4.2251h-0.71613v4.2251h-3.8671v-4.2251h-0.71612v4.2251h-3.8671v-4.2251h-0.71613v4.2251h-3.8671v-4.2251h-0.71612v4.2251h-3.8671v-4.2251h-0.71612v4.2251h-3.8671v-4.2251h-0.71612v4.2251h-3.8671v-4.2251h-0.71612v4.2251h-3.8671v-4.2251h-0.71612v4.2251h-3.8671v-4.2251h-0.71612v4.2251h-3.8671v-4.2251h-0.71613v4.2251h-3.8671v-4.2251h-0.71612v4.2251h-3.8671v-4.2251h-0.71612v4.2251h-3.8671v-4.2251h-0.71612v4.2251h-3.8671v-4.2251h-0.50129c-0.07661 0-0.13919-0.0039-0.21484 0zm0.71612 4.9413h3.8671v3.8671h-3.8671v-3.8671zm4.5832 0h3.8671v3.8671h-3.8671v-3.8671zm4.5832 0h3.8671v3.8671h-3.8671v-3.8671zm4.5832 0h3.8671v3.8671h-3.8671v-3.8671zm4.5832 0h3.8671v3.8671h-3.8671v-3.8671zm4.5832 0h3.8671v3.8671h-3.8671v-3.8671zm4.5832 0h3.8671v3.8671h-3.8671v-3.8671zm4.5832 0h3.8671v3.8671h-3.8671v-3.8671zm4.5832 0h3.8671v3.8671h-3.8671v-3.8671zm4.5832 0h3.8671v3.8671h-3.8671v-3.8671zm4.5832 0h3.8671v3.8671h-3.8671v-3.8671zm4.5832 0h3.8671v3.8671h-3.8671v-3.8671zm4.5832 0h3.8671v3.8671h-3.8671v-3.8671zm4.5832 0h3.8671v3.8671h-3.8671v-3.8671zm4.5832 0h3.8671v3.8671h-3.8671v-3.8671zm4.5832 0h3.8671v3.8671h-3.8671v-3.8671zm4.5832 0h3.8671v3.8671h-3.8671v-3.8671zm4.5832 0h3.8671v3.8671h-3.8671v-3.8671zm4.5832 0h3.8671v3.8671h-3.8671v-3.8671zm4.5832 0h3.8671v3.8671h-3.8671v-3.8671zm4.5832 0h3.8671v3.8671h-3.8671v-3.8671zm4.5832 0h3.8671v3.8671h-3.8671v-3.8671zm-96.247 4.5832h3.8671v3.8671h-3.8671v-3.8671zm4.5832 0h3.8671v3.8671h-3.8671v-3.8671zm4.5832 0h3.8671v3.8671h-3.8671v-3.8671zm4.5832 0h3.8671v3.8671h-3.8671v-3.8671zm4.5832 0h3.8671v3.8671h-3.8671v-3.8671zm4.5832 0h3.8671v3.8671h-3.8671v-3.8671zm4.5832 0h3.8671v3.8671h-3.8671v-3.8671zm4.5832 0h3.8671v3.8671h-3.8671v-3.8671zm4.5832 0h3.8671v3.8671h-3.8671v-3.8671zm4.5832 0h3.8671v3.8671h-3.8671v-3.8671zm4.5832 0h3.8671v3.8671h-3.8671v-3.8671zm4.5832 0h3.8671v3.8671h-3.8671v-3.8671zm4.5832 0h3.8671v3.8671h-3.8671v-3.8671zm4.5832 0h3.8671v3.8671h-3.8671v-3.8671zm4.5832 0h3.8671v3.8671h-3.8671v-3.8671zm4.5832 0h3.8671v3.8671h-3.8671v-3.8671zm4.5832 0h3.8671v3.8671h-3.8671v-3.8671zm4.5832 0h3.8671v3.8671h-3.8671v-3.8671zm4.5832 0h3.8671v3.8671h-3.8671v-3.8671zm4.5832 0h3.8671v3.8671h-3.8671v-3.8671zm4.5832 0h3.8671v3.8671h-3.8671v-3.8671zm4.5832 0h3.8671v3.8671h-3.8671v-3.8671zm-96.247 4.5832h3.8671v3.8671h-3.8671v-3.8671zm4.5832 0h3.8671v3.8671h-3.8671v-3.8671zm4.5832 0h3.8671v3.8671h-3.8671v-3.8671zm4.5832 0h3.8671v3.8671h-3.8671v-3.8671zm4.5832 0h3.8671v3.8671h-3.8671v-3.8671zm4.5832 0h3.8671v3.8671h-3.8671v-3.8671zm4.5832 0h3.8671v3.8671h-3.8671v-3.8671zm4.5832 0h3.8671v3.8671h-3.8671v-3.8671zm4.5832 0h3.8671v3.8671h-3.8671v-3.8671zm4.5832 0h3.8671v3.8671h-3.8671v-3.8671zm4.5832 0h3.8671v3.8671h-3.8671v-3.8671zm4.5832 0h3.8671v3.8671h-3.8671v-3.8671zm4.5832 0h3.8671v3.8671h-3.8671v-3.8671zm4.5832 0h3.8671v3.8671h-3.8671v-3.8671zm4.5832 0h3.8671v3.8671h-3.8671v-3.8671zm4.5832 0h3.8671v3.8671h-3.8671v-3.8671zm4.5832 0h3.8671v3.8671h-3.8671v-3.8671zm4.5832 0h3.8671v3.8671h-3.8671v-3.8671zm4.5832 0h3.8671v3.8671h-3.8671v-3.8671zm4.5832 0h3.8671v3.8671h-3.8671v-3.8671zm4.5832 0h3.8671v3.8671h-3.8671v-3.8671zm4.5832 0h3.8671v3.8671h-3.8671v-3.8671zm-96.247 4.5832h3.8671v3.8671h-3.8671v-3.8671zm4.5832 0h3.8671v3.8671h-3.8671v-3.8671zm4.5832 0h3.8671v3.8671h-3.8671v-3.8671zm4.5832 0h3.8671v3.8671h-3.8671v-3.8671zm4.5832 0h3.8671v3.8671h-3.8671v-3.8671zm4.5832 0h3.8671v3.8671h-3.8671v-3.8671zm4.5832 0h3.8671v3.8671h-3.8671v-3.8671zm4.5832 0h3.8671v3.8671h-3.8671v-3.8671zm4.5832 0h3.8671v3.8671h-3.8671v-3.8671zm4.5832 0h3.8671v3.8671h-3.8671v-3.8671zm4.5832 0h3.8671v3.8671h-3.8671v-3.8671zm4.5832 0h3.8671v3.8671h-3.8671v-3.8671zm4.5832 0h3.8671v3.8671h-3.8671v-3.8671zm4.5832 0h3.8671v3.8671h-3.8671v-3.8671zm4.5832 0h3.8671v3.8671h-3.8671v-3.8671zm4.5832 0h3.8671v3.8671h-3.8671v-3.8671zm4.5832 0h3.8671v3.8671h-3.8671v-3.8671zm4.5832 0h3.8671v3.8671h-3.8671v-3.8671zm4.5832 0h3.8671v3.8671h-3.8671v-3.8671zm4.5832 0h3.8671v3.8671h-3.8671v-3.8671zm4.5832 0h3.8671v3.8671h-3.8671v-3.8671zm4.5832 0h3.8671v3.8671h-3.8671v-3.8671zm-96.247 4.5832h3.8671v3.8671h-3.8671v-3.8671zm4.5832 0h3.8671v3.8671h-3.8671v-3.8671zm4.5832 0h3.8671v3.8671h-3.8671v-3.8671zm4.5832 0h3.8671v3.8671h-3.8671v-3.8671zm4.5832 0h3.8671v3.8671h-3.8671v-3.8671zm4.5832 0h3.8671v3.8671h-3.8671v-3.8671zm4.5832 0h3.8671v3.8671h-3.8671v-3.8671zm4.5832 0h3.8671v3.8671h-3.8671v-3.8671zm4.5832 0h3.8671v3.8671h-3.8671v-3.8671zm4.5832 0h3.8671v3.8671h-3.8671v-3.8671zm4.5832 0h3.8671v3.8671h-3.8671v-3.8671zm4.5832 0h3.8671v3.8671h-3.8671v-3.8671zm4.5832 0h3.8671v3.8671h-3.8671v-3.8671zm4.5832 0h3.8671v3.8671h-3.8671v-3.8671zm4.5832 0h3.8671v3.8671h-3.8671v-3.8671zm4.5832 0h3.8671v3.8671h-3.8671v-3.8671zm4.5832 0h3.8671v3.8671h-3.8671v-3.8671zm4.5832 0h3.8671v3.8671h-3.8671v-3.8671zm4.5832 0h3.8671v3.8671h-3.8671v-3.8671zm4.5832 0h3.8671v3.8671h-3.8671v-3.8671zm4.5832 0h3.8671v3.8671h-3.8671v-3.8671zm4.5832 0h3.8671v3.8671h-3.8671v-3.8671zm-96.247 4.5832h3.8671v3.8671h-3.8671v-3.8671zm4.5832 0h3.8671v3.8671h-3.8671v-3.8671zm4.5832 0h3.8671v3.8671h-3.8671v-3.8671zm4.5832 0h3.8671v3.8671h-3.8671v-3.8671zm4.5832 0h3.8671v3.8671h-3.8671v-3.8671zm4.5832 0h3.8671v3.8671h-3.8671v-3.8671zm4.5832 0h3.8671v3.8671h-3.8671v-3.8671zm4.5832 0h3.8671v3.8671h-3.8671v-3.8671zm4.5832 0h3.8671v3.8671h-3.8671v-3.8671zm4.5832 0h3.8671v3.8671h-3.8671v-3.8671zm4.5832 0h3.8671v3.8671h-3.8671v-3.8671zm4.5832 0h3.8671v3.8671h-3.8671v-3.8671zm4.5832 0h3.8671v3.8671h-3.8671v-3.8671zm4.5832 0h3.8671v3.8671h-3.8671v-3.8671zm4.5832 0h3.8671v3.8671h-3.8671v-3.8671zm4.5832 0h3.8671v3.8671h-3.8671v-3.8671zm4.5832 0h3.8671v3.8671h-3.8671v-3.8671zm4.5832 0h3.8671v3.8671h-3.8671v-3.8671zm4.5832 0h3.8671v3.8671h-3.8671v-3.8671zm4.5832 0h3.8671v3.8671h-3.8671v-3.8671zm4.5832 0h3.8671v3.8671h-3.8671v-3.8671zm4.5832 0h3.8671v3.8671h-3.8671v-3.8671zm-96.247 4.5832h3.8671v3.8671h-3.8671v-3.8671zm4.5832 0h3.8671v3.8671h-3.8671v-3.8671zm4.5832 0h3.8671v3.8671h-3.8671v-3.8671zm4.5832 0h3.8671v3.8671h-3.8671v-3.8671zm4.5832 0h3.8671v3.8671h-3.8671v-3.8671zm4.5832 0h3.8671v3.8671h-3.8671v-3.8671zm4.5832 0h3.8671v3.8671h-3.8671v-3.8671zm4.5832 0h3.8671v3.8671h-3.8671v-3.8671zm4.5832 0h3.8671v3.8671h-3.8671v-3.8671zm4.5832 0h3.8671v3.8671h-3.8671v-3.8671zm4.5832 0h3.8671v3.8671h-3.8671v-3.8671zm4.5832 0h3.8671v3.8671h-3.8671v-3.8671zm4.5832 0h3.8671v3.8671h-3.8671v-3.8671zm4.5832 0h3.8671v3.8671h-3.8671v-3.8671zm4.5832 0h3.8671v3.8671h-3.8671v-3.8671zm4.5832 0h3.8671v3.8671h-3.8671v-3.8671zm4.5832 0h3.8671v3.8671h-3.8671v-3.8671zm4.5832 0h3.8671v3.8671h-3.8671v-3.8671zm4.5832 0h3.8671v3.8671h-3.8671v-3.8671zm4.5832 0h3.8671v3.8671h-3.8671v-3.8671zm4.5832 0h3.8671v3.8671h-3.8671v-3.8671zm4.5832 0h3.8671v3.8671h-3.8671v-3.8671zm-96.247 4.5832h3.8671v3.8671h-3.8671v-3.8671zm4.5832 0h3.8671v3.8671h-3.8671v-3.8671zm4.5832 0h3.8671v3.8671h-3.8671v-3.8671zm4.5832 0h3.8671v3.8671h-3.8671v-3.8671zm4.5832 0h3.8671v3.8671h-3.8671v-3.8671zm4.5832 0h3.8671v3.8671h-3.8671v-3.8671zm4.5832 0h3.8671v3.8671h-3.8671v-3.8671zm4.5832 0h3.8671v3.8671h-3.8671v-3.8671zm4.5832 0h3.8671v3.8671h-3.8671v-3.8671zm4.5832 0h3.8671v3.8671h-3.8671v-3.8671zm4.5832 0h3.8671v3.8671h-3.8671v-3.8671zm4.5832 0h3.8671v3.8671h-3.8671v-3.8671zm4.5832 0h3.8671v3.8671h-3.8671v-3.8671zm4.5832 0h3.8671v3.8671h-3.8671v-3.8671zm4.5832 0h3.8671v3.8671h-3.8671v-3.8671zm4.5832 0h3.8671v3.8671h-3.8671v-3.8671zm4.5832 0h3.8671v3.8671h-3.8671v-3.8671zm4.5832 0h3.8671v3.8671h-3.8671v-3.8671zm4.5832 0h3.8671v3.8671h-3.8671v-3.8671zm4.5832 0h3.8671v3.8671h-3.8671v-3.8671zm4.5832 0h3.8671v3.8671h-3.8671v-3.8671zm4.5832 0h3.8671v3.8671h-3.8671v-3.8671zm-96.247 4.5832h3.8671v3.8671h-3.8671v-3.8671zm4.5832 0h3.8671v3.8671h-3.8671v-3.8671zm4.5832 0h3.8671v3.8671h-3.8671v-3.8671zm4.5832 0h3.8671v3.8671h-3.8671v-3.8671zm4.5832 0h3.8671v3.8671h-3.8671v-3.8671zm4.5832 0h3.8671v3.8671h-3.8671v-3.8671zm4.5832 0h3.8671v3.8671h-3.8671v-3.8671zm4.5832 0h3.8671v3.8671h-3.8671v-3.8671zm4.5832 0h3.8671v3.8671h-3.8671v-3.8671zm4.5832 0h3.8671v3.8671h-3.8671v-3.8671zm4.5832 0h3.8671v3.8671h-3.8671v-3.8671zm4.5832 0h3.8671v3.8671h-3.8671v-3.8671zm4.5832 0h3.8671v3.8671h-3.8671v-3.8671zm4.5832 0h3.8671v3.8671h-3.8671v-3.8671zm4.5832 0h3.8671v3.8671h-3.8671v-3.8671zm4.5832 0h3.8671v3.8671h-3.8671v-3.8671zm4.5832 0h3.8671v3.8671h-3.8671v-3.8671zm4.5832 0h3.8671v3.8671h-3.8671v-3.8671zm4.5832 0h3.8671v3.8671h-3.8671v-3.8671zm4.5832 0h3.8671v3.8671h-3.8671v-3.8671zm4.5832 0h3.8671v3.8671h-3.8671v-3.8671zm4.5832 0h3.8671v3.8671h-3.8671v-3.8671zm-96.247 4.5832h3.8671v3.8671h-3.8671v-3.8671zm4.5832 0h3.8671v3.8671h-3.8671v-3.8671zm4.5832 0h3.8671v3.8671h-3.8671v-3.8671zm4.5832 0h3.8671v3.8671h-3.8671v-3.8671zm4.5832 0h3.8671v3.8671h-3.8671v-3.8671zm4.5832 0h3.8671v3.8671h-3.8671v-3.8671zm4.5832 0h3.8671v3.8671h-3.8671v-3.8671zm4.5832 0h3.8671v3.8671h-3.8671v-3.8671zm4.5832 0h3.8671v3.8671h-3.8671v-3.8671zm4.5832 0h3.8671v3.8671h-3.8671v-3.8671zm4.5832 0h3.8671v3.8671h-3.8671v-3.8671zm4.5832 0h3.8671v3.8671h-3.8671v-3.8671zm4.5832 0h3.8671v3.8671h-3.8671v-3.8671zm4.5832 0h3.8671v3.8671h-3.8671v-3.8671zm4.5832 0h3.8671v3.8671h-3.8671v-3.8671zm4.5832 0h3.8671v3.8671h-3.8671v-3.8671zm4.5832 0h3.8671v3.8671h-3.8671v-3.8671zm4.5832 0h3.8671v3.8671h-3.8671v-3.8671zm4.5832 0h3.8671v3.8671h-3.8671v-3.8671zm4.5832 0h3.8671v3.8671h-3.8671v-3.8671zm4.5832 0h3.8671v3.8671h-3.8671v-3.8671zm4.5832 0h3.8671v3.8671h-3.8671v-3.8671zm-96.247 4.5832h3.8671v3.8671h-3.8671v-3.8671zm4.5832 0h3.8671v3.8671h-3.8671v-3.8671zm4.5832 0h3.8671v3.8671h-3.8671v-3.8671zm4.5832 0h3.8671v3.8671h-3.8671v-3.8671zm4.5832 0h3.8671v3.8671h-3.8671v-3.8671zm4.5832 0h3.8671v3.8671h-3.8671v-3.8671zm4.5832 0h3.8671v3.8671h-3.8671v-3.8671zm4.5832 0h3.8671v3.8671h-3.8671v-3.8671zm4.5832 0h3.8671v3.8671h-3.8671v-3.8671zm4.5832 0h3.8671v3.8671h-3.8671v-3.8671zm4.5832 0h3.8671v3.8671h-3.8671v-3.8671zm4.5832 0h3.8671v3.8671h-3.8671v-3.8671zm4.5832 0h3.8671v3.8671h-3.8671v-3.8671zm4.5832 0h3.8671v3.8671h-3.8671v-3.8671zm4.5832 0h3.8671v3.8671h-3.8671v-3.8671zm4.5832 0h3.8671v3.8671h-3.8671v-3.8671zm4.5832 0h3.8671v3.8671h-3.8671v-3.8671zm4.5832 0h3.8671v3.8671h-3.8671v-3.8671zm4.5832 0h3.8671v3.8671h-3.8671v-3.8671zm4.5832 0h3.8671v3.8671h-3.8671v-3.8671zm4.5832 0h3.8671v3.8671h-3.8671v-3.8671zm4.5832 0h3.8671v3.8671h-3.8671v-3.8671zm-96.247 4.5832h3.8671v3.8671h-3.8671v-3.8671zm4.5832 0h3.8671v3.8671h-3.8671v-3.8671zm4.5832 0h3.8671v3.8671h-3.8671v-3.8671zm4.5832 0h3.8671v3.8671h-3.8671v-3.8671zm4.5832 0h3.8671v3.8671h-3.8671v-3.8671zm4.5832 0h3.8671v3.8671h-3.8671v-3.8671zm4.5832 0h3.8671v3.8671h-3.8671v-3.8671zm4.5832 0h3.8671v3.8671h-3.8671v-3.8671zm4.5832 0h3.8671v3.8671h-3.8671v-3.8671zm4.5832 0h3.8671v3.8671h-3.8671v-3.8671zm4.5832 0h3.8671v3.8671h-3.8671v-3.8671zm4.5832 0h3.8671v3.8671h-3.8671v-3.8671zm4.5832 0h3.8671v3.8671h-3.8671v-3.8671zm4.5832 0h3.8671v3.8671h-3.8671v-3.8671zm4.5832 0h3.8671v3.8671h-3.8671v-3.8671zm4.5832 0h3.8671v3.8671h-3.8671v-3.8671zm4.5832 0h3.8671v3.8671h-3.8671v-3.8671zm4.5832 0h3.8671v3.8671h-3.8671v-3.8671zm4.5832 0h3.8671v3.8671h-3.8671v-3.8671zm4.5832 0h3.8671v3.8671h-3.8671v-3.8671zm4.5832 0h3.8671v3.8671h-3.8671v-3.8671zm4.5832 0h3.8671v3.8671h-3.8671v-3.8671zm-96.247 4.5832h3.8671v3.8671h-3.8671v-3.8671zm4.5832 0h3.8671v3.8671h-3.8671v-3.8671zm4.5832 0h3.8671v3.8671h-3.8671v-3.8671zm4.5832 0h3.8671v3.8671h-3.8671v-3.8671zm4.5832 0h3.8671v3.8671h-3.8671v-3.8671zm4.5832 0h3.8671v3.8671h-3.8671v-3.8671zm4.5832 0h3.8671v3.8671h-3.8671v-3.8671zm4.5832 0h3.8671v3.8671h-3.8671v-3.8671zm4.5832 0h3.8671v3.8671h-3.8671v-3.8671zm4.5832 0h3.8671v3.8671h-3.8671v-3.8671zm4.5832 0h3.8671v3.8671h-3.8671v-3.8671zm4.5832 0h3.8671v3.8671h-3.8671v-3.8671zm4.5832 0h3.8671v3.8671h-3.8671v-3.8671zm4.5832 0h3.8671v3.8671h-3.8671v-3.8671zm4.5832 0h3.8671v3.8671h-3.8671v-3.8671zm4.5832 0h3.8671v3.8671h-3.8671v-3.8671zm4.5832 0h3.8671v3.8671h-3.8671v-3.8671zm4.5832 0h3.8671v3.8671h-3.8671v-3.8671zm4.5832 0h3.8671v3.8671h-3.8671v-3.8671zm4.5832 0h3.8671v3.8671h-3.8671v-3.8671zm4.5832 0h3.8671v3.8671h-3.8671v-3.8671zm4.5832 0h3.8671v3.8671h-3.8671v-3.8671zm-96.247 4.5832h3.8671v3.8671h-3.8671v-3.8671zm4.5832 0h3.8671v3.8671h-3.8671v-3.8671zm4.5832 0h3.8671v3.8671h-3.8671v-3.8671zm4.5832 0h3.8671v3.8671h-3.8671v-3.8671zm4.5832 0h3.8671v3.8671h-3.8671v-3.8671zm4.5832 0h3.8671v3.8671h-3.8671v-3.8671zm4.5832 0h3.8671v3.8671h-3.8671v-3.8671zm4.5832 0h3.8671v3.8671h-3.8671v-3.8671zm4.5832 0h3.8671v3.8671h-3.8671v-3.8671zm4.5832 0h3.8671v3.8671h-3.8671v-3.8671zm4.5832 0h3.8671v3.8671h-3.8671v-3.8671zm4.5832 0h3.8671v3.8671h-3.8671v-3.8671zm4.5832 0h3.8671v3.8671h-3.8671v-3.8671zm4.5832 0h3.8671v3.8671h-3.8671v-3.8671zm4.5832 0h3.8671v3.8671h-3.8671v-3.8671zm4.5832 0h3.8671v3.8671h-3.8671v-3.8671zm4.5832 0h3.8671v3.8671h-3.8671v-3.8671zm4.5832 0h3.8671v3.8671h-3.8671v-3.8671zm4.5832 0h3.8671v3.8671h-3.8671v-3.8671zm4.5832 0h3.8671v3.8671h-3.8671v-3.8671zm4.5832 0h3.8671v3.8671h-3.8671v-3.8671zm4.5832 0h3.8671v3.8671h-3.8671v-3.8671zm-96.247 4.5832h3.8671v3.8671h-3.8671v-3.8671zm4.5832 0h3.8671v3.8671h-3.8671v-3.8671zm4.5832 0h3.8671v3.8671h-3.8671v-3.8671zm4.5832 0h3.8671v3.8671h-3.8671v-3.8671zm4.5832 0h3.8671v3.8671h-3.8671v-3.8671zm4.5832 0h3.8671v3.8671h-3.8671v-3.8671zm4.5832 0h3.8671v3.8671h-3.8671v-3.8671zm4.5832 0h3.8671v3.8671h-3.8671v-3.8671zm4.5832 0h3.8671v3.8671h-3.8671v-3.8671zm4.5832 0h3.8671v3.8671h-3.8671v-3.8671zm4.5832 0h3.8671v3.8671h-3.8671v-3.8671zm4.5832 0h3.8671v3.8671h-3.8671v-3.8671zm4.5832 0h3.8671v3.8671h-3.8671v-3.8671zm4.5832 0h3.8671v3.8671h-3.8671v-3.8671zm4.5832 0h3.8671v3.8671h-3.8671v-3.8671zm4.5832 0h3.8671v3.8671h-3.8671v-3.8671zm4.5832 0h3.8671v3.8671h-3.8671v-3.8671zm4.5832 0h3.8671v3.8671h-3.8671v-3.8671zm4.5832 0h3.8671v3.8671h-3.8671v-3.8671zm4.5832 0h3.8671v3.8671h-3.8671v-3.8671zm4.5832 0h3.8671v3.8671h-3.8671v-3.8671zm4.5832 0h3.8671v3.8671h-3.8671v-3.8671zm-96.247 4.5832h3.8671v3.8671h-3.8671v-3.8671zm4.5832 0h3.8671v3.8671h-3.8671v-3.8671zm4.5832 0h3.8671v3.8671h-3.8671v-3.8671zm4.5832 0h3.8671v3.8671h-3.8671v-3.8671zm4.5832 0h3.8671v3.8671h-3.8671v-3.8671zm4.5832 0h3.8671v3.8671h-3.8671v-3.8671zm4.5832 0h3.8671v3.8671h-3.8671v-3.8671zm4.5832 0h3.8671v3.8671h-3.8671v-3.8671zm4.5832 0h3.8671v3.8671h-3.8671v-3.8671zm4.5832 0h3.8671v3.8671h-3.8671v-3.8671zm4.5832 0h3.8671v3.8671h-3.8671v-3.8671zm4.5832 0h3.8671v3.8671h-3.8671v-3.8671zm4.5832 0h3.8671v3.8671h-3.8671v-3.8671zm4.5832 0h3.8671v3.8671h-3.8671v-3.8671zm4.5832 0h3.8671v3.8671h-3.8671v-3.8671zm4.5832 0h3.8671v3.8671h-3.8671v-3.8671zm4.5832 0h3.8671v3.8671h-3.8671v-3.8671zm4.5832 0h3.8671v3.8671h-3.8671v-3.8671zm4.5832 0h3.8671v3.8671h-3.8671v-3.8671zm4.5832 0h3.8671v3.8671h-3.8671v-3.8671zm4.5832 0h3.8671v3.8671h-3.8671v-3.8671zm4.5832 0h3.8671v3.8671h-3.8671v-3.8671zm-96.247 4.5832h3.8671v3.8671h-3.8671v-3.8671zm4.5832 0h3.8671v3.8671h-3.8671v-3.8671zm4.5832 0h3.8671v3.8671h-3.8671v-3.8671zm4.5832 0h3.8671v3.8671h-3.8671v-3.8671zm4.5832 0h3.8671v3.8671h-3.8671v-3.8671zm4.5832 0h3.8671v3.8671h-3.8671v-3.8671zm4.5832 0h3.8671v3.8671h-3.8671v-3.8671zm4.5832 0h3.8671v3.8671h-3.8671v-3.8671zm4.5832 0h3.8671v3.8671h-3.8671v-3.8671zm4.5832 0h3.8671v3.8671h-3.8671v-3.8671zm4.5832 0h3.8671v3.8671h-3.8671v-3.8671zm4.5832 0h3.8671v3.8671h-3.8671v-3.8671zm4.5832 0h3.8671v3.8671h-3.8671v-3.8671zm4.5832 0h3.8671v3.8671h-3.8671v-3.8671zm4.5832 0h3.8671v3.8671h-3.8671v-3.8671zm4.5832 0h3.8671v3.8671h-3.8671v-3.8671zm4.5832 0h3.8671v3.8671h-3.8671v-3.8671zm4.5832 0h3.8671v3.8671h-3.8671v-3.8671zm4.5832 0h3.8671v3.8671h-3.8671v-3.8671zm4.5832 0h3.8671v3.8671h-3.8671v-3.8671zm4.5832 0h3.8671v3.8671h-3.8671v-3.8671zm4.5832 0h3.8671v3.8671h-3.8671v-3.8671zm-96.247 4.5832h3.8671v3.8671h-3.8671v-3.8671zm4.5832 0h3.8671v3.8671h-3.8671v-3.8671zm4.5832 0h3.8671v3.8671h-3.8671v-3.8671zm4.5832 0h3.8671v3.8671h-3.8671v-3.8671zm4.5832 0h3.8671v3.8671h-3.8671v-3.8671zm4.5832 0h3.8671v3.8671h-3.8671v-3.8671zm4.5832 0h3.8671v3.8671h-3.8671v-3.8671zm4.5832 0h3.8671v3.8671h-3.8671v-3.8671zm4.5832 0h3.8671v3.8671h-3.8671v-3.8671zm4.5832 0h3.8671v3.8671h-3.8671v-3.8671zm4.5832 0h3.8671v3.8671h-3.8671v-3.8671zm4.5832 0h3.8671v3.8671h-3.8671v-3.8671zm4.5832 0h3.8671v3.8671h-3.8671v-3.8671zm4.5832 0h3.8671v3.8671h-3.8671v-3.8671zm4.5832 0h3.8671v3.8671h-3.8671v-3.8671zm4.5832 0h3.8671v3.8671h-3.8671v-3.8671zm4.5832 0h3.8671v3.8671h-3.8671v-3.8671zm4.5832 0h3.8671v3.8671h-3.8671v-3.8671zm4.5832 0h3.8671v3.8671h-3.8671v-3.8671zm4.5832 0h3.8671v3.8671h-3.8671v-3.8671zm4.5832 0h3.8671v3.8671h-3.8671v-3.8671zm4.5832 0h3.8671v3.8671h-3.8671v-3.8671zm-96.247 4.5832h3.8671v3.8671h-3.8671v-3.8671zm4.5832 0h3.8671v3.8671h-3.8671v-3.8671zm4.5832 0h3.8671v3.8671h-3.8671v-3.8671zm4.5832 0h3.8671v3.8671h-3.8671v-3.8671zm4.5832 0h3.8671v3.8671h-3.8671v-3.8671zm4.5832 0h3.8671v3.8671h-3.8671v-3.8671zm4.5832 0h3.8671v3.8671h-3.8671v-3.8671zm4.5832 0h3.8671v3.8671h-3.8671v-3.8671zm4.5832 0h3.8671v3.8671h-3.8671v-3.8671zm4.5832 0h3.8671v3.8671h-3.8671v-3.8671zm4.5832 0h3.8671v3.8671h-3.8671v-3.8671zm4.5832 0h3.8671v3.8671h-3.8671v-3.8671zm4.5832 0h3.8671v3.8671h-3.8671v-3.8671zm4.5832 0h3.8671v3.8671h-3.8671v-3.8671zm4.5832 0h3.8671v3.8671h-3.8671v-3.8671zm4.5832 0h3.8671v3.8671h-3.8671v-3.8671zm4.5832 0h3.8671v3.8671h-3.8671v-3.8671zm4.5832 0h3.8671v3.8671h-3.8671v-3.8671zm4.5832 0h3.8671v3.8671h-3.8671v-3.8671zm4.5832 0h3.8671v3.8671h-3.8671v-3.8671zm4.5832 0h3.8671v3.8671h-3.8671v-3.8671zm4.5832 0h3.8671v3.8671h-3.8671v-3.8671zm-96.247 4.5832h3.8671v3.8671h-3.8671v-3.8671zm4.5832 0h3.8671v3.8671h-3.8671v-3.8671zm4.5832 0h3.8671v3.8671h-3.8671v-3.8671zm4.5832 0h3.8671v3.8671h-3.8671v-3.8671zm4.5832 0h3.8671v3.8671h-3.8671v-3.8671zm4.5832 0h3.8671v3.8671h-3.8671v-3.8671zm4.5832 0h3.8671v3.8671h-3.8671v-3.8671zm4.5832 0h3.8671v3.8671h-3.8671v-3.8671zm4.5832 0h3.8671v3.8671h-3.8671v-3.8671zm4.5832 0h3.8671v3.8671h-3.8671v-3.8671zm4.5832 0h3.8671v3.8671h-3.8671v-3.8671zm4.5832 0h3.8671v3.8671h-3.8671v-3.8671zm4.5832 0h3.8671v3.8671h-3.8671v-3.8671zm4.5832 0h3.8671v3.8671h-3.8671v-3.8671zm4.5832 0h3.8671v3.8671h-3.8671v-3.8671zm4.5832 0h3.8671v3.8671h-3.8671v-3.8671zm4.5832 0h3.8671v3.8671h-3.8671v-3.8671zm4.5832 0h3.8671v3.8671h-3.8671v-3.8671zm4.5832 0h3.8671v3.8671h-3.8671v-3.8671zm4.5832 0h3.8671v3.8671h-3.8671v-3.8671zm4.5832 0h3.8671v3.8671h-3.8671v-3.8671zm4.5832 0h3.8671v3.8671h-3.8671v-3.8671zm-96.247 4.5832h3.8671v3.8671h-3.8671v-3.8671zm4.5832 0h3.8671v3.8671h-3.8671v-3.8671zm4.5832 0h3.8671v3.8671h-3.8671v-3.8671zm4.5832 0h3.8671v3.8671h-3.8671v-3.8671zm4.5832 0h3.8671v3.8671h-3.8671v-3.8671zm4.5832 0h3.8671v3.8671h-3.8671v-3.8671zm4.5832 0h3.8671v3.8671h-3.8671v-3.8671zm4.5832 0h3.8671v3.8671h-3.8671v-3.8671zm4.5832 0h3.8671v3.8671h-3.8671v-3.8671zm4.5832 0h3.8671v3.8671h-3.8671v-3.8671zm4.5832 0h3.8671v3.8671h-3.8671v-3.8671zm4.5832 0h3.8671v3.8671h-3.8671v-3.8671zm4.5832 0h3.8671v3.8671h-3.8671v-3.8671zm4.5832 0h3.8671v3.8671h-3.8671v-3.8671zm4.5832 0h3.8671v3.8671h-3.8671v-3.8671zm4.5832 0h3.8671v3.8671h-3.8671v-3.8671zm4.5832 0h3.8671v3.8671h-3.8671v-3.8671zm4.5832 0h3.8671v3.8671h-3.8671v-3.8671zm4.5832 0h3.8671v3.8671h-3.8671v-3.8671zm4.5832 0h3.8671v3.8671h-3.8671v-3.8671zm4.5832 0h3.8671v3.8671h-3.8671v-3.8671zm4.5832 0h3.8671v3.8671h-3.8671v-3.8671zm-96.247 4.5832h3.8671v3.8671h-3.8671v-3.8671zm4.5832 0h3.8671v3.8671h-3.8671v-3.8671zm4.5832 0h3.8671v3.8671h-3.8671v-3.8671zm4.5832 0h3.8671v3.8671h-3.8671v-3.8671zm4.5832 0h3.8671v3.8671h-3.8671v-3.8671zm4.5832 0h3.8671v3.8671h-3.8671v-3.8671zm4.5832 0h3.8671v3.8671h-3.8671v-3.8671zm4.5832 0h3.8671v3.8671h-3.8671v-3.8671zm4.5832 0h3.8671v3.8671h-3.8671v-3.8671zm4.5832 0h3.8671v3.8671h-3.8671v-3.8671zm4.5832 0h3.8671v3.8671h-3.8671v-3.8671zm4.5832 0h3.8671v3.8671h-3.8671v-3.8671zm4.5832 0h3.8671v3.8671h-3.8671v-3.8671zm4.5832 0h3.8671v3.8671h-3.8671v-3.8671zm4.5832 0h3.8671v3.8671h-3.8671v-3.8671zm4.5832 0h3.8671v3.8671h-3.8671v-3.8671zm4.5832 0h3.8671v3.8671h-3.8671v-3.8671zm4.5832 0h3.8671v3.8671h-3.8671v-3.8671zm4.5832 0h3.8671v3.8671h-3.8671v-3.8671zm4.5832 0h3.8671v3.8671h-3.8671v-3.8671zm4.5832 0h3.8671v3.8671h-3.8671v-3.8671zm4.5832 0h3.8671v3.8671h-3.8671v-3.8671z"/>
 <rect id="rect4767" ry="4.4561" style="opacity:0.28;fill:url(#radialGradient6214-3)" transform="scale(1,-1)" height="110" width="110" y="-120" x="9.0018"/>
 <path id="rect4696" style="opacity:.95;fill:#fff;fill-opacity:.19608" d="m17.81 10.002v8.8083h-8.8083v0.71612h8.8083v22.2h-8.8083v0.71612h8.8083v22.2h-8.8083v0.71612h8.8083v22.2h-8.8083v0.71612h8.8083v22.2h-8.8083v0.71612h8.8083v8.8083h0.71612v-8.8083h22.2v8.8083h0.71612v-8.8083h22.2v8.8083h0.71613v-8.8083h22.2v8.8083h0.71612v-8.8083h22.2v8.8083h0.71613v-8.8083h8.8083v-0.71612h-8.8083v-22.2h8.8083v-0.71612h-8.8083v-22.2h8.8083v-0.71612h-8.8083v-22.2h8.8083v-0.71612h-8.8083v-22.2h8.8083v-0.71612h-8.8083v-8.8083h-0.71613v8.8083h-22.2v-8.8083h-0.71612v8.8083h-22.2v-8.8083h-0.71613v8.8083h-22.2v-8.8083h-0.71612v8.8083h-22.2v-8.8083h-0.71612zm0.71612 9.5244h22.2v22.2h-22.2v-22.2zm22.916 0h22.2v22.2h-22.2v-22.2zm22.916 0h22.2v22.2h-22.2v-22.2zm22.916 0h22.2v22.2h-22.2v-22.2zm-68.748 22.916h22.2v22.2h-22.2v-22.2zm22.916 0h22.2v22.2h-22.2v-22.2zm22.916 0h22.2v22.2h-22.2v-22.2zm22.916 0h22.2v22.2h-22.2v-22.2zm-68.748 22.916h22.2v22.2h-22.2v-22.2zm22.916 0h22.2v22.2h-22.2v-22.2zm22.916 0h22.2v22.2h-22.2v-22.2zm22.916 0h22.2v22.2h-22.2v-22.2zm-68.748 22.916h22.2v22.2h-22.2v-22.2zm22.916 0h22.2v22.2h-22.2v-22.2zm22.916 0h22.2v22.2h-22.2v-22.2zm22.916 0h22.2v22.2h-22.2v-22.2z"/>
 <path id="rect4159" style="fill-opacity:.23529;fill:#fff;fill-rule:evenodd" d="m52.439 29.734c-0.38334 0.0479-0.76294 0.17027-1.1196 0.37619-1.4267 0.82367-1.9119 2.6352-1.0883 4.0619l1.5585 2.705c-4.8314 3.1751-8.0225 8.6182-8.0835 14.841h-0.0092v0.63145c-1.1512-1.004-2.6447-1.6301-4.2992-1.6301-3.6322 0-6.5563 2.9241-6.5563 6.5563v14.962c0 3.6322 2.9241 6.5563 6.5563 6.5563 1.6545 0 3.148-0.62611 4.2992-1.6301v4.2545c0 2.9677 2.3885 5.3606 5.3561 5.3606h1.2405c-0.01375 0.16958-0.04927 0.33278-0.04927 0.50605v6.4489c0 3.6322 2.9241 6.5563 6.5563 6.5563s6.5564-2.9241 6.5564-6.5563v-6.4489c0-0.17325-0.03623-0.33627-0.04923-0.50605h1.4599c-0.0137 0.16958-0.04923 0.33278-0.04923 0.50605v6.4489c0 3.6322 2.9241 6.5563 6.5563 6.5563s6.5563-2.9241 6.5563-6.5563v-6.4489c0-0.17325-0.03623-0.33627-0.04923-0.50605h1.2405c2.9677 0 5.3561-2.3929 5.3561-5.3606v-4.1962c1.142 0.96806 2.6019 1.5719 4.2231 1.5719 3.6322 0 6.5563-2.9241 6.5563-6.5563v-14.962c0-3.6322-2.9241-6.5563-6.5563-6.5563-1.6212 0-3.0811 0.60381-4.2231 1.5719v-0.57322h-0.0092c-0.063-6.224-3.254-11.667-8.085-14.842l1.5585-2.705c0.82369-1.4267 0.33844-3.2382-1.0883-4.0619-0.35664-0.20601-0.73624-0.32818-1.1196-0.37619-1.15-0.14391-2.3245 0.39441-2.9423 1.4644l-1.8988 3.2871c-1.4042-0.35013-2.8686-0.55532-4.3843-0.55532h-4.7471c-1.5157 0-2.9801 0.20533-4.3843 0.55532l-1.8988-3.2871c-0.61776-1.07-1.7922-1.6085-2.9423-1.4644zm0.11206 1.5182c0.49065-0.06095 0.99064 0.17095 1.2539 0.62696l1.7958 3.1125c-0.80919 0.28865-1.592 0.62467-2.3422 1.0211l-1.6525-2.8662c-0.3511-0.60812-0.14231-1.382 0.46577-1.7331 0.15193-0.08777 0.31564-0.14093 0.47919-0.16133zm22.974 0c0.16362 0.02063 0.32715 0.07333 0.4792 0.16133 0.6081 0.3511 0.81686 1.125 0.46576 1.7331l-1.653 2.866c-0.75025-0.3964-1.533-0.73242-2.3422-1.0211l1.7958-3.1125c0.26333-0.45605 0.76329-0.68787 1.2539-0.62696zm-13.592 4.7068h4.2097c8.3088 0 15.092 6.2904 15.867 14.389h-35.943c0.77486-8.0987 7.5581-14.389 15.867-14.389zm-5.6517 5.5398c-1.0023 0-1.8092 0.80694-1.8092 1.8093 0 1.0023 0.80692 1.8093 1.8092 1.8093s1.8093-0.80692 1.8093-1.8093c0-1.0023-0.80694-1.8093-1.8093-1.8093zm15.477 0c-1.0023 0-1.8093 0.80694-1.8093 1.8093 0 1.0023 0.80691 1.8093 1.8093 1.8093 1.0023 0 1.8093-0.80692 1.8093-1.8093 0-1.0023-0.80692-1.8093-1.8093-1.8093zm-25.706 9.1269v1.0927h-0.05385c0.0069-0.3672 0.02544-0.73127 0.05385-1.0927zm35.97 0c0.02846 0.36143 0.04697 0.7255 0.05361 1.0927h-0.05361v-1.0927zm-35.97 2.0153h35.97v4.2948 3.8066c0.0092-0.01375 0.01371-0.03025 0.02296-0.04469v11.541c0 0.13658 0.03204 0.26415 0.04033 0.39855v7.3625c0 2.6331-2.1229 4.7516-4.756 4.7516h-26.584c-2.6331 0-4.756-2.1184-4.756-4.7516v-19.387c0.02337 0.04194 0.03919 0.08823 0.06278 0.12993v-0.85087-0.46128-2.4945-4.2948zm-6.6549 0.37172c2.3641 0 4.2679 1.9038 4.2679 4.2679v14.953c0 2.3641-1.9038 4.2679-4.2679 4.2679s-4.2679-1.9038-4.2679-4.2679v-14.953c0-2.3641 1.9039-4.2679 4.2679-4.2679zm49.204 0c2.3641 0 4.2679 1.9038 4.2679 4.2679v14.953c0 2.3641-1.9039 4.2679-4.2679 4.2679-2.2155 0-4.0043-1.6775-4.2231-3.8335v-12.777-3.0408c0.21679-2.1582 2.006-3.838 4.2231-3.838zm-35.854 33.767h8.1059c0.0092 0.11091 0.03575 0.21816 0.03575 0.33139v6.7982c0 2.2646-1.8241 4.0887-4.0888 4.0887-2.2646 0-4.0888-1.8241-4.0888-4.0887v-6.7982c0-0.11321 0.02681-0.22045 0.03575-0.33139zm14.474 0h8.1059c0.0092 0.11091 0.0357 0.21816 0.0357 0.33139v6.7982c0 2.2646-1.8241 4.0887-4.0888 4.0887-2.2646 0-4.0888-1.8241-4.0888-4.0887v-6.7982c0-0.11321 0.0268-0.22045 0.0358-0.33139z"/>
 <path id="path4521" style="fill:#fff;fill-opacity:.70588" d="m52.439 29.732c-0.38332 0.04789-0.76225 0.17004-1.1189 0.37596-1.3342 0.7703-1.826 2.402-1.2129 3.7775 0.4778-0.26887 0.99485-0.50536 1.4904-0.76086-0.33377-0.60473-0.1265-1.3628 0.47443-1.7097 0.15193-0.08777 0.31535-0.1407 0.4789-0.1611 0.49068-0.06096 0.9899 0.17049 1.2532 0.62659l1.2174 2.108c0.49978-0.36608 0.94599-0.69458 1.3785-1.016l-1.021-1.772c-0.617-1.07-1.79-1.612-2.94-1.468zm23.198 0c-1.15-0.14391-2.3227 0.398-2.9405 1.468l-1.9022 3.2852c-1.405-0.35-2.866-0.555-4.382-0.555h-3.764c-0.61472 0.48002-1.1343 1.0733-1.5352 1.8082-0.47851 0.07975-0.92693 0.20647-1.3517 0.38043 0.71122-0.09625 1.4322-0.1611 2.1707-0.1611h2.0902c0.49689-0.32969 0.99769-0.6853 1.4949-1.007-0.09968 0.39725-0.27467 0.7277-0.51471 1.007h1.1413c1.1383 0 2.2425 0.12902 3.312 0.35359 0.63443-0.5515 1.2835-1.0866 1.8753-1.6784 0.54428-0.54432 1.2485-0.94909 2.0722-1.2487l0.86829-1.5038c0.2633-0.45607 0.76253-0.6875 1.2532-0.62659 0.16362 0.02063 0.32685 0.0731 0.47889 0.1611 0.60813 0.35112 0.81659 1.124 0.46548 1.7321l-1.6515 2.8645c-0.5665-0.29933-1.1669-0.53374-1.7679-0.76982-0.26031 0.21449-0.50727 0.44704-0.77876 0.64449-0.38975 0.28352-0.82479 0.56653-1.2263 0.85039 1.3327 0.42814 2.594 1.0206 3.7461 1.7634 0.68101-0.40529 1.3658-0.80958 2.1036-1.1726-0.20532-0.14781-0.39691-0.31285-0.60869-0.45204l1.5575-2.7033c0.82367-1.4267 0.33911-3.2402-1.0876-4.0639-0.35666-0.20601-0.7356-0.32795-1.1189-0.37596zm-23.721 3.952c-0.45497 0.35112-0.90683 0.70384-1.3472 1.0697l0.98915 1.7187c0.46799-0.33737 0.92741-0.64958 1.3964-0.98914zm9.1483 0.28645c-1.3001 0.04675-2.5663 0.21174-3.7819 0.51472l-0.13429-0.23722c-1.0787 0.52698-1.8702 1.2738-2.3229 2.2692-1.4667 0.83822-2.7209 1.5779-3.7685 2.2065-0.94295 0.62865-1.8294 1.4675-2.6675 2.5153-0.64967 0.24408-1.217 0.52711-1.741 0.83249-0.7744 1.1839-1.4042 2.4644-1.8843 3.8222 0.9437-0.66312 1.8987-1.3243 2.8331-1.9917 0.3252-0.2323 0.65049-0.47372 0.97569-0.70716 2.0775-3.1916 5.2646-5.5834 9.0275-6.6374 1.0662-0.8002 2.1292-1.5865 3.1956-2.399 0.08387-0.06301 0.18356-0.12489 0.26855-0.18791zm16.171 3.6164c-0.67681 0.4024-1.3589 0.80639-2.023 1.2084 0.57475 0.39746 1.1265 0.81673 1.6426 1.2845 0.5485-0.37791 1.0321-0.77302 1.3875-1.1995 0.17691 0 0.29406-0.04835 0.44754-0.06715-0.46253-0.43405-0.94771-0.84292-1.4546-1.2263zm2.108 1.8484c-0.3654 0.1886-0.73769 0.40747-1.101 0.6982-0.2419 0.18127-0.52565 0.34028-0.83696 0.48786 0.42016 0.41968 0.81934 0.86029 1.1905 1.3248 0.65185-0.3739 1.3085-0.73139 1.9604-1.101-0.3827-0.48958-0.78224-0.96311-1.2129-1.4098zm1.6873 2.0141c-0.52636 0.28542-0.95475 0.61999-1.2084 1.0428-0.29703 0-0.52776 0.044-0.72507 0.11183 0.36884 0.51414 0.70497 1.049 1.0115 1.6068 0.34756-0.21518 0.84929-0.49572 0.96675-0.61318-0.13429 0.40126-0.41013 0.7122-0.75639 0.98465 0.30087 0.58422 0.55966 1.1977 0.78771 1.8216 0.65506-0.43636 1.3091-0.83139 1.9648-1.2487-0.24797-0.61557-0.5385-1.2067-0.85039-1.7858-0.01144 0.02292-0.03806 0.04492-0.04923 0.06715 0 0.10495-0.25524 0.1611-0.77878 0.1611 0.21014-0.21037 0.41251-0.36915 0.62212-0.47441 0.01833-0.01833 0.03946-0.02314 0.05823-0.04033-0.31796-0.5657-0.66743-1.1084-1.0428-1.6336zm-9.2692 0.04927c-1.0023 0-1.8127 0.80584-1.8127 1.8082 0 0.39796 0.15537 0.74477 0.3715 1.0428 0.12558-0.099 0.25787-0.18126 0.38042-0.28645 0.72816-0.72816 1.5138-1.407 2.3453-2.032-0.32738-0.32965-0.78109-0.53261-1.2845-0.53261zm-15.723 0.04927c-0.65473 0.09052-1.197 0.49725-1.4322 1.0921 0.07378-0.04858 0.14529-0.09923 0.21931-0.14781 0.40422-0.33286 0.8082-0.62767 1.2129-0.94437zm1.2487 0.29539c-0.80103 0.56602-1.6043 1.131-2.4616 1.7545h-0.29539c0.143 0.85747 0.85069 1.5173 1.75 1.5173 1.0024 0 1.8127-0.80586 1.8127-1.8082 0-0.62194-0.33031-1.1382-0.80561-1.4636zm16.26 1.3517c-0.65336 0.373-1.3359 0.72052-2.0588 1.0249-0.31534 0.13268-0.61062 0.28567-0.91304 0.43414 0.31802 0.2785 0.72815 0.461 1.186 0.461 1.0024 0 1.8082-0.80586 1.8082-1.8082 0-0.03965-0.02061-0.07265-0.02287-0.11183zm-25.999 1.8306c-1.043 0.84741-2.1325 1.6593-3.2762 2.4258-0.20693 0.81698-0.34727 1.6571-0.43861 2.5153 0.8582-0.60044 1.7415-1.1726 2.6048-1.7679 0.26152-1.1062 0.63237-2.1708 1.11-3.1733zm35.94 1.3875c-0.25989 0.16064-0.52205 0.32373-0.84143 0.48337-0.37295 0.37287-0.74192 0.64859-1.1144 0.85486 0.18814 0.7043 0.32511 1.4264 0.41624 2.1662 0.18287-0.11572 0.35802-0.2433 0.54155-0.35804 0.50477-0.33125 1.0366-0.62297 1.5486-0.94439-0.13864-0.75302-0.32176-1.4856-0.55051-2.202zm-37.26 2.8018c-0.22412 0.21564-0.44652 0.48172-0.67135 0.81904-0.41895 0.52386-0.94237 0.89597-1.571 1.1055l-0.25063 0.17462c-0.0046 0.13589-0.02544 0.26615-0.02681 0.40282h-0.0092v0.63108c-0.219-0.189-0.459-0.348-0.7-0.509l-2.0812 1.468c1.2446 0.47395 2.1944 1.5045 2.5646 2.7973 0.16912-0.05088 0.33778-0.09396 0.50576-0.09396-0.11389 0.22687-0.24889 0.3969-0.39386 0.53261 0.04171 0.24032 0.0715 0.48589 0.0715 0.73849v1.0742c0.5193-0.41803 1.0671-0.82067 1.5754-1.2442v0.0046l0.47443 0.461c0.21037 0.10496 0.31331 0.26548 0.31331 0.47441 0 0.52386-0.21106 0.89595-0.63108 1.1055-0.41886 0.10496-0.88602 0.2549-1.4098 0.46547-0.21014 0.21037-0.31778 0.36473-0.31778 0.46994v0.31778h-0.0046v2.2513c0.69541-0.48064 1.3868-0.96174 2.0499-1.4591 0.09167 0 0.18126 0.05248 0.27302 0.1297v-0.71612c0.02337 0.04194 0.03896 0.088 0.06256 0.1297v-0.85486-0.461-2.493-2.3497c-0.0046 0.0046-0.01833 0.0046-0.02292 0.0092-0.10496 0.10496-0.36876 0.15674-0.78771 0.15674 0.21014-0.4189 0.47349-0.63106 0.78771-0.63106 0.0092-0.0023 0.01375-0.01146 0.02292-0.01375v-1.468h4.8561c0.34346-0.55915 0.70095-1.0726 1.0921-1.4993l0.78771-0.7922h-6.7225c0.03667-0.38332 0.09808-0.75758 0.1611-1.1323zm38.021 0.82353c-0.11458 0.10748-0.23729 0.20143-0.3491 0.31328-0.41907-0.21037-0.83426-0.15652-1.2532 0.15675-0.23734 0.23711-0.41052 0.52828-0.5863 0.82353 0.0044 0.12856 0.01606 0.25551 0.01833 0.38492h-0.05361v-0.3357c-0.0461 0.07975-0.11458 0.13497-0.15674 0.21931-0.86593 0.23086-1.6818 0.58431-2.4527 1.0384h2.6093v0.87722c0.81333-0.46407 1.5937-0.96909 2.3542-1.4993v-0.29988h-0.0092c-0.0044-0.56972-0.06373-1.1229-0.12077-1.6784zm-25.194 0.30882-2.2916 2.2916h14.873c0.67403-0.76365 1.5963-1.5278 2.7749-2.2916zm18.279 0c-0.45133 0.2051-0.91662 0.44251-1.4412 0.7922-0.50026 0.50039-1.1714 0.99904-1.938 1.4993h3.858c1.1428-0.78877 2.3134-1.5419 3.4821-2.2916zm-31.281 0.27749v1.0921h-0.05362c0.0069-0.36718 0.02521-0.73061 0.05362-1.0921zm-6.6553 0.09396c-0.0307 0-0.0589 0.0092-0.0896 0.0092l-0.81906 0.41175c-0.83806 0.52386-1.5171 1.2072-2.0409 2.0454-0.41904 0-0.73925 0.09877-0.94884 0.30884-0.21037 0.10495-0.42163 0.15674-0.63106 0.15674-0.49897 0.33262-1.0133 0.72754-1.5173 1.0876-0.32644 0.78043-0.51022 1.6362-0.51022 2.5377v0.72057c0.81299-0.62143 1.6385-1.2365 2.4616-1.8529 0.49741-1.8058 2.1274-3.133 4.0953-3.133 0.04744 0 0.09144 0.01603 0.13864 0.01833 0.80928-0.58534 1.6204-1.174 2.4392-1.7545-0.79032-0.3456-1.6564-0.55498-2.578-0.55498zm49.206 0c-0.64382 0-1.2519 0.1155-1.835 0.29092-0.0749 0.15835-0.23569 0.30584-0.51022 0.4431-0.62855 0.21037-1.0438 0.41265-1.2532 0.62212l-1.571 1.2621c-0.36174 0.21656-0.89808 0.4948-1.4099 0.76086v2.305c1.0466-0.66889 2.0908-1.2803 3.1375-1.8037 0.10633-0.05729 0.20739-0.12489 0.31329-0.18356 0.54075-0.59742 1.2449-1.042 2.0499-1.2532 0.52862-0.34928 1.0552-0.69965 1.5665-1.0831l1.5173-1.016c-0.637-0.203-1.302-0.343-2.007-0.343zm-51.508 0.435c-0.96925 0.36278-1.819 0.94152-2.5064 1.6873 0.84413-0.55807 1.6694-1.1254 2.5064-1.6873zm54.496 0.31331c-0.71445 0.52315-1.4191 1.0475-2.1841 1.5575l-0.0896 0.0582c0.82624 0.1391 1.5617 0.51662 2.1528 1.0563 0.67675-0.42983 1.3452-0.85864 1.9693-1.2621-0.52448-0.57744-1.1477-1.0495-1.8484-1.4098zm2.1528 1.7813c-0.23344 0.40346-0.77635 0.85298-1.6739 1.3517-0.05386 0.02383-0.07289 0.03025-0.12536 0.05362 0.44414 0.56515 0.74665 1.2375 0.85933 1.9827 0.68778-0.38332 1.3831-0.75604 2.0946-1.0921-0.23233-0.85004-0.62714-1.6225-1.1547-2.296zm-48.821 1.7769c0.10496 0.0314 0.21289 0.10083 0.31778 0.20578 0 0.10496-0.05384 0.15675-0.15674 0.15675-0.10496 0.10495-0.30769 0.14781-0.62212 0.14781 0-0.21037 0.04515-0.36049 0.14781-0.46549 0.10495-0.0534 0.20831-0.0699 0.31331-0.04469zm39.579 1.1861-1.383 0.89961c-0.21037 0-0.36927 0.09877-0.47443 0.30882 0 0.21014-0.1077 0.42168-0.31778 0.63108-0.10701 0.03827-0.19891 0.08593-0.30434 0.12535v1.929c0.74138-0.47553 1.5676-0.98314 2.3542-1.477v-1.7769c0.02296-0.22045 0.07177-0.4308 0.12536-0.64002zm10.567 0.17004c-0.69727 0.51664-1.4334 1.0049-2.202 1.468v2.6138c0.74841-0.52141 1.5015-1.0459 2.1975-1.4636 0.03117-0.02062 0.06303-0.03392 0.09395-0.05362v-1.6694c0-0.30675-0.04923-0.59985-0.0896-0.89514zm-59.934 0.85037c-0.61312 0.38448-1.2319 0.77231-1.844 1.1323-0.15079 0.14093-0.3013 0.24896-0.45206 0.38492v2.0767c0.65088-0.40823 1.1955-0.79191 1.8798-1.2084 0.14322-0.08731 0.26922-0.17233 0.41175-0.25959v-2.0767c0-0.01603 0.0046-0.03253 0.0046-0.04927zm49.242 1.7903c-0.21036 0.14643-0.42777 0.28237-0.62659 0.43861-0.54762 0.43029-1.1278 0.84991-1.7052 1.2666v2.202c0.07011-0.04285 0.21633-0.12031 0.28196-0.1611 0.59002-0.39326 1.2938-0.72756 2.0499-1.0383v-1.8395zm10.782 0.20143c-0.60754 0.32472-1.2168 0.64852-1.8261 1.0294-0.14551 0.08364-0.30599 0.16752-0.46547 0.25063v2.672c0.7554-0.45016 1.5484-0.93614 2.2915-1.374zm-60.028 0.59526c-0.09304 0.03506-0.16935 0.08273-0.26406 0.11641-0.10496 0-0.14781 0.10771-0.14781 0.31776 0 0.10495 0.04515 0.15674 0.14781 0.15674-0.21037 0.41893-0.78913 0.83863-1.7321 1.2577-0.11068 0.04904-0.19043 0.1061-0.29541 0.15674v2.0633c0.06095-0.0016 0.07265-0.01833 0.13864-0.01833 0 0.27953-0.05087 0.48765-0.13864 0.64898v1.7948c0.76954-0.53979 1.5169-1.0802 2.2915-1.6202zm10.857 1.716c-0.79438 0.52991-1.5481 1.0744-2.3229 1.6112v2.8286c0.77454-0.55706 1.5486-0.94615 2.3229-1.1458zm-11.431 0.76535h0.0046c0.41886 0.21014 0.47182 0.47344 0.15675 0.78771-0.21037 0.21037-0.53419 0.21037-0.95333 0 0-0.21037 0.11229-0.26182 0.32224-0.15674 0.31399 0 0.46996-0.21128 0.46996-0.63106zm60.601 0.26406c-0.0351 0.01604-0.05727 0.033-0.09395 0.04927-0.94299 0.31487-1.5227 0.7293-1.7321 1.2532-0.15514 0.15514-0.30956 0.27022-0.46547 0.39835v2.5243c0.7674-0.50133 1.5297-0.99015 2.2915-1.4859zm-10.782 0.546c-0.60675 0.53967-1.1878 1.1036-1.7321 1.7052-0.22893-0.07654-0.4129-0.07837-0.59974-0.08501v2.1931l1.0742-0.53708c-0.20533 0.40903-0.56946 0.66458-1.0742 0.77428v2.6272c0.77316-0.48474 1.5291-0.96242 2.3318-1.4546v-2.3274c-0.0495 0.07333-0.12901 0.14643-0.16568 0.2193-0.10495 0.10496-0.35994 0.15675-0.77878 0.15675 0-0.45039 0.32534-0.69699 0.94437-0.76086zm-38.388 1.7365c-0.762 0.58383-1.5486 1.1386-2.3229 1.7097v2.6183c0.78034-0.55143 1.5632-1.1038 2.3229-1.665zm-10.858 0.93543c-0.09098 0.03896-0.16843 0.09785-0.26406 0.1297-0.6287 0.21037-1.1518 0.72827-1.571 1.5665-0.16362 0.04675-0.29823 0.12283-0.45653 0.17462v1.8484c0.66944-0.47448 1.3419-0.94838 2.0275-1.3919 0.08525-0.05523 0.17852-0.10175 0.26406-0.15674zm60.028 0.4431c-0.82738 0.52691-1.5817 1.1301-2.2915 1.7768v2.8063c0.7629-0.49299 1.5466-0.98039 2.2915-1.477zm-60.028 3.1419c-0.74536 0.51719-1.5103 1.0138-2.2915 1.4949v1.3785c0 0.19181 0.04217 0.37195 0.0582 0.55947 0.74291-0.46249 1.4899-0.95032 2.2334-1.4546zm49.246 0.22824c-0.3263 0.19226-0.64414 0.42032-0.94436 0.72059-0.40938 0.20556-0.87739 0.50825-1.3875 0.91304v1.0115c0 0.13658 0.03204 0.26392 0.04033 0.39832v1.2084c0.74012-0.48527 1.5335-1.002 2.2916-1.4993zm-38.388 0.52814c-0.65233 0.2364-1.3536 0.53944-2.1618 0.98016-0.06256 0.02842-0.10037 0.0692-0.1611 0.09854v1.0339c0 0.62194-0.13864 1.2091-0.37596 1.7411 0.87796-0.53465 1.7784-1.0676 2.6988-1.6023zm49.17 2.1259c-0.8716 0.52175-1.7469 1.0683-2.6183 1.6157-0.63817 1.5507-2.1526 2.6407-3.9386 2.6407-0.09945 0-0.19318-0.02063-0.29092-0.02681-0.83419 0.54586-1.7161 1.0726-2.6362 1.5889 0.87982 0.45117 1.8647 0.72953 2.9271 0.72953 0.37736 0 0.74144-0.05111 1.101-0.11183 1.392-0.85378 2.7911-1.712 4.1534-2.5511 0.80479-1.0871 1.3005-2.4229 1.3024-3.8849zm-60.001 0.24169-2.0812 1.4098c0.16729 0.64142 0.42064 1.2466 0.76086 1.7948 0.61942-0.42917 1.2584-0.85811 1.9067-1.28-0.33941-0.56948-0.54446-1.2218-0.58633-1.9246zm49.407 1.0563c-0.68404 0.4935-1.3289 0.9886-1.9201 1.4814l-0.47441 0.46547-0.08503 0.0896v1.7724c1.1807-0.69364 2.3593-1.3836 3.5403-2.0857-0.47981-0.47596-0.84885-1.0611-1.0607-1.7231zm-38.576 0.55498-0.27302 0.13887c-2.208 1.5333-4.5846 3.0235-7.0447 4.4846 0.2411 0.02658 0.47663 0.0715 0.72506 0.0715 1.6545 0 3.1499-0.62512 4.3011-1.6291v1.0294c0.09694-0.06417 0.1941-0.11893 0.29092-0.18356 0.65762-0.45213 1.3275-0.85919 2.0007-1.2621zm-9.0006 1.665c-0.2051 0.29589-0.39069 0.61646-0.54157 0.99359-0.44906-0.18035-0.99031-0.08478-1.5933 0.19685 0.52613 0.50708 1.135 0.92184 1.8082 1.2308 0.59286-0.38098 1.1946-0.75799 1.8261-1.1189 0.31237-0.2232 0.56538-0.35996 0.86828-0.56841-0.87878-0.0092-1.6936-0.27414-2.3676-0.73402zm9.0006 1.6694c-0.24742 0.19158-0.47003 0.35543-0.74745 0.57737-0.41906 0.41902-0.83407 0.78221-1.2532 1.0966-0.09212 0.07378-0.19547 0.12512-0.29092 0.19249v2.117c0 0.0644 0.01604 0.12398 0.01833 0.18791 0.5239-0.44856 1.0396-0.90527 1.5262-1.3919 0.41883 0.21037 0.41883 0.42177 0 0.63108-0.41906 0.21014-0.5273 0.51644-0.31778 0.93541-0.40502 0.11573-0.78086 0.26589-1.1458 0.42967 0.12306 0.83167 0.41984 1.6048 0.87722 2.2647 0.77848-0.55074 1.554-1.1065 2.2692-1.6694-0.58016-0.78748-0.93543-1.7489-0.93543-2.8063zm38.388 1.3248c-0.31915 0.16729-0.61552 0.34133-0.94436 0.50576-0.46811 0.23406-0.89797 0.47968-1.3472 0.72059v0.01375c0 2.6331-2.1245 4.7532-4.7577 4.7532h-3.0793c-0.28093 0.20716-0.53406 0.41698-0.7161 0.64449h-1.571c0 0.31367 0.0495 0.47443 0.15217 0.47443h0.15674c-0.46361 0.2853-0.89122 0.61066-1.3427 0.90857h4.3996c0.0092 0.11091 0.0357 0.21793 0.0357 0.3312v0.21037c2.8715-1.7063 5.8612-3.4949 8.9603-5.3529 0.01833-0.18333 0.05361-0.362 0.05361-0.55051zm-37.023 4.5741c-0.77582 0.56536-1.5516 1.0957-2.3274 1.5933 0.5668 0.65178 1.2781 1.165 2.0991 1.4815 0.36743-0.2831 0.74106-0.54581 1.101-0.85039 0.44003-0.34576 0.89847-0.6498 1.3472-0.96676-0.85419-0.21679-1.6222-0.65024-2.2199-1.2577zm3.8804 1.4188c-0.74064 0.53193-1.5384 1.0087-2.3855 1.4322-0.25269 0.16843-0.52647 0.32967-0.78324 0.4968 0.31966 0.05912 0.64738 0.09854 0.98465 0.09854h1.2442c-0.01375 0.16958-0.04927 0.33249-0.04927 0.50576v0.70716c1.4065-0.84803 2.7844-1.7101 4.1131-2.5959 0.21014 0 0.25735 0.10771 0.15216 0.31778-0.10496 0.10496-0.15216 0.26546-0.15216 0.47443-0.39837 0.18585-0.77529 0.39315-1.1637 0.59077h7.6579c0.0092 0.11091 0.03575 0.21793 0.03575 0.3312v5.0889c0.02292-0.01147 0.04492-0.02842 0.06714-0.04033 0.80068-0.42385 1.5988-0.87532 2.399-1.3427v-3.5313c0-0.17324-0.03623-0.33595-0.04924-0.50576h1.4636c-0.0137 0.16958-0.04923 0.33249-0.04923 0.50576v2.6988c0.52572-0.32272 1.0494-0.63532 1.5754-0.97569l0.89068-0.88618v-1.0115c0-0.1132 0.0268-0.22022 0.0357-0.3312h2.5959c0.32676-0.37743 0.6256-0.8167 0.87724-1.383 0.24619-0.24621 0.45635-0.41627 0.69372-0.64451h-3.7596c-1.5333 0.93176-3.4394 1.1532-5.7289 0.64451-0.41895 0-0.63108-0.10771-0.63108-0.31778 0-0.07425 0.1187-0.20235 0.22389-0.32674zm31.598 0.43864c-0.27251 0.05179-0.5464 0.11458-0.81904 0.20578-0.62863 0.10496-0.83166 0.36863-0.62212 0.78774 0 0.03117-0.03553 0.0275-0.0447 0.04927 0.55214-0.26679 1.06-0.61186 1.4859-1.0428zm-1.7545 0.99359c-0.39656 0-1.0446 0.20533-1.9111 0.58184 0.72462-0.01833 1.4078-0.17874 2.032-0.45651-0.06277-0.01833-0.12077-0.04537-0.12077-0.12535zm-28.358 0.83249c-0.84908 0.44725-1.6751 0.91856-2.4751 1.4233v3.0748c0.79415-0.51815 1.614-1.0141 2.3811-1.562 0.02887-0.01833 0.05615-0.03025 0.08501-0.04927v-2.7928c0-0.03208 0.0046-0.06279 0.0092-0.09396zm25.109 0.734c-0.15743 0.23432-0.29128 0.48946-0.367 0.7922-0.4189-0.21037-0.73482-0.15652-0.94436 0.15675-0.21014 0.31493-0.41254 0.57366-0.62213 0.78324-0.17805-0.05958-0.35472-0.08525-0.53261-0.09396v4.5204c0 1.0633-0.41317 2.0177-1.0742 2.7436 1.1341-0.66871 2.2827-1.3116 3.4418-1.9425 0.04793-0.32064 0.09854-0.64135 0.09854-0.97569zm-10.643 1.6202c-0.80888 0.59096-1.6159 1.1851-2.4661 1.7769v2.5869c0.20876-0.10748 0.43664-0.21472 0.64449-0.32224 0.60276-0.33258 1.2149-0.71177 1.8216-1.0607zm-14.474 2.391c-0.23567 0.12695-0.47145 0.27536-0.70714 0.39832-0.57301 0.31257-1.179 0.69044-1.759 1.016v0.55947c0 0.61417 0.11206 1.196 0.26855 1.7589 0.76917-0.4324 1.5034-0.91621 2.211-1.4412-0.0017-0.04881-0.01375-0.09419-0.01375-0.14322zm10.504 0.31778c-0.66821-0.000873-1.1581 0.23402-1.4725 0.70267-0.20991 0.42087-0.50156 0.63874-0.85486 0.68478v0.4431c0 0.73787-0.21106 1.4176-0.55051 2.0141 0.98431-0.49178 1.9811-0.98092 2.945-1.4725 0.02593-0.23824 0.0715-0.47072 0.0715-0.7161v-1.6426c-0.044-0.002-0.09625-0.01375-0.13887-0.01375zm4.0057 2.1931c-0.09533 0.03094-0.18447 0.0699-0.29092 0.08502-0.62861 0.10495-0.9354 0.46788-0.9354 1.0966-0.36611 0-0.68466 0.0364-0.99362 0.0807 0.17714 0.62139 0.42032 1.2106 0.76088 1.741 0.70049-0.34304 1.3931-0.68536 2.1125-1.0294-0.21037 0.83818-0.73718 1.305-1.5754 1.4098-0.06853 0.009-0.14987 0.0339-0.2193 0.0447 0.76896 1.0066 1.8129 1.7766 3.0345 2.202 1.0495-0.69692 2.1096-1.3876 3.1822-2.0499-0.3285 0.0846-0.66935 0.14323-1.0249 0.14323-2.14 0-3.8648-1.6335-4.0505-3.7238zm-14.439 0.38043c-0.66938 0.47312-1.3624 0.9336-2.1036 1.3696 0.54638 1.4686 1.592 2.6723 2.945 3.4239 0.77069-0.40739 1.539-0.84173 2.3095-1.3159 0.12352-0.0598 0.23493-0.12374 0.35804-0.18355-0.86086-0.10702-1.6348-0.47073-2.2423-1.0249-0.20854 0.19662-0.45456 0.35318-0.7922 0.42072-0.41906 0.10495-0.83405 0.36855-1.2532 0.78771-0.21037-0.21037-0.0023-0.47345 0.6221-0.78771 0.53264-0.22847 0.8887-0.39704 1.2577-0.56843-0.55931-0.56899-0.95074-1.3018-1.101-2.1215zm9.0454 2.1752c-0.05271 0.0264-0.132 0.0928-0.2372 0.19685 0.31459 0.10495 0.31459 0.20831 0 0.3133-0.21037 0-0.52972 0.0539-0.94886 0.15674-0.31457 0.10496-0.62107 0.26553-0.93541 0.47441-0.31491 0.21037-0.36686 0.52529-0.15675 0.9444-0.94294-0.21038-1.7819-0.0541-2.5153 0.46993-0.39152 0.32633-0.92409 0.57299-1.5173 0.77878 0.41412 0.0814 0.84583 0.1297 1.2845 0.1297 2.4325 0 4.5211-1.3278 5.6528-3.2852-0.2667-0.0183-0.46957-0.0591-0.55051-0.13887 0-0.0524-0.02337-0.0667-0.07608-0.0403zm14.806 0.67136c-0.49663 0.21083-0.95496 0.47789-1.374 0.79219-0.7334 0.5239-1.5724 0.99072-2.5154 1.4099-0.17393 0.17393-0.37383 0.33546-0.56393 0.50126 1.8434-0.25453 3.434-1.2523 4.4533-2.7033z"/>
 <path id="path4637" style="fill-opacity:.23529;fill-rule:evenodd" d="m52.551 31.252c-0.16362 0.02062-0.32699 0.07333-0.47892 0.1611-0.55101 0.31814-0.75233 0.97849-0.52814 1.553 0.10198-0.25588 0.27041-0.48671 0.52814-0.63553 0.15193-0.08777 0.31537-0.1407 0.47892-0.1611 0.49065-0.06096 0.98988 0.17049 1.2532 0.62659l1.3696 2.3766c0.14506-0.05546 0.27845-0.13108 0.42518-0.18356l-1.795-3.11c-0.263-0.456-0.763-0.688-1.253-0.627zm22.974 0c-0.49065-0.06095-0.98988 0.1705-1.2532 0.62657l-1.7947 3.1106c0.14666 0.05225 0.28021 0.12787 0.4252 0.18356l1.3695-2.3766c0.26333-0.45607 0.76255-0.6875 1.2532-0.62659 0.16362 0.02063 0.32685 0.0731 0.47889 0.1611 0.25609 0.14781 0.42569 0.37724 0.52815 0.63106 0.2216-0.57363 0.02061-1.2312-0.52815-1.5486-0.15193-0.088-0.31527-0.14048-0.47889-0.1611zm-25.623 2.0185c-0.06967 0.61085-0.0012 1.2414 0.33118 1.8171l1.1905 2.0633c0.12604-0.08754 0.23862-0.19318 0.36702-0.27749l-1.559-2.703c-0.166-0.288-0.268-0.591-0.331-0.899zm28.273 0c-0.0626 0.30799-0.165 0.6117-0.3312 0.89959l-1.5575 2.7033c0.12832 0.08433 0.24096 0.18997 0.36697 0.27749l1.1906-2.0633c0.33237-0.57572 0.40096-1.2063 0.3312-1.8171zm-16.243 2.686c-8.3088 0-15.091 6.2907-15.866 14.389h0.1297c1.182-7.6484 7.7463-13.472 15.737-13.472h4.2116c7.9902 0 14.555 5.8234 15.737 13.472h0.1297c-0.777-8.098-7.56-14.389-15.869-14.389h-4.2116zm-7.367 7.8101c-0.0401 0.14987-0.09396 0.29367-0.09396 0.45653 0 1.0023 0.81031 1.8082 1.8126 1.8082s1.8082-0.80584 1.8082-1.8082c0-0.16293-0.05408-0.30659-0.09396-0.45653-0.2067 0.77204-0.87525 1.3517-1.7142 1.3517-0.83891 0-1.512-0.57964-1.7187-1.3517zm15.477 0c-0.03989 0.14987-0.09395 0.29367-0.09395 0.45653 0 1.0023 0.81033 1.8082 1.8127 1.8082 1.0023 0 1.8082-0.80584 1.8082-1.8082 0-0.16293-0.05404-0.30659-0.09395-0.45653-0.2067 0.77204-0.87525 1.3517-1.7142 1.3517s-1.5121-0.57964-1.7187-1.3517zm-23.99 6.8568c-0.02842 0.36143-0.04675 0.72486-0.05362 1.0921h0.04469c0.0046-0.05798 0.0046-0.11687 0.0092-0.17462v-0.91751zm35.971 0v0.91751c0.0044 0.05775 0.0044 0.11664 0.0092 0.17462h0.0447c-0.007-0.36721-0.02523-0.73063-0.05361-1.0921zm-35.971 2.0185v0.91304h35.971v-0.91304h-35.971zm-6.6553 0.37149c-2.3641 0-4.2653 1.9013-4.2653 4.2653v0.91751c0-2.3641 1.9013-4.2698 4.2653-4.2698 2.3641 0 4.2698 1.9057 4.2698 4.2698v-0.91751c0-2.3641-1.9057-4.2653-4.2698-4.2653zm49.206 0c-2.2171 0-4.0083 1.6775-4.225 3.8357v0.91751c0.21679-2.1582 2.008-3.8401 4.225-3.8401 2.3641 0 4.2653 1.9057 4.2653 4.2698v-0.91751c0-2.3641-1.9013-4.2653-4.2653-4.2653zm-42.613 7.5997v0.91304c0.02337 0.04194 0.03895 0.09258 0.06256 0.13429v-0.85488-0.06256c-0.0236-0.0417-0.03919-0.08777-0.06256-0.1297zm36.056 0.08501c-0.0092 0.01375-0.0138 0.03094-0.02296 0.04469v0.91304c0.0092-0.01375 0.0137-0.0259 0.02296-0.04033v-0.91753zm-49.206 11.538v0.91751c0 3.6322 2.9247 6.5569 6.5569 6.5569 1.6545 0 3.1499-0.62512 4.3011-1.6291v-0.91751c-1.1512 1.004-2.6467 1.6291-4.3011 1.6291-3.6322 0-6.5569-2.9246-6.5569-6.5569zm49.206 0v0.91751c0 0.13658 0.03204 0.26395 0.04033 0.39835v-0.91753c-0.0092-0.13452-0.04033-0.26175-0.04033-0.39832zm13.114 0c0 3.6322-2.9247 6.5569-6.5569 6.5569-1.6212 0-3.083-0.6029-4.225-1.571v0.91751c1.142 0.96806 2.6038 1.571 4.225 1.571 3.6322 0 6.5569-2.9246 6.5569-6.5569v-0.91751zm-51.461 9.1796v0.91751c0 2.9677 2.3897 5.3619 5.3574 5.3619h1.1905v-0.41178c0-0.17325 0.03552-0.3362 0.04926-0.50576h-1.2398c-2.9677 0-5.3574-2.3942-5.3574-5.3619zm40.68 0c0 2.9677-2.3852 5.3619-5.3529 5.3619h-1.2442c0.0137 0.16981 0.04923 0.33251 0.04923 0.50576v0.41178h1.195c2.9677 0 5.3529-2.3942 5.3529-5.3619v-0.91751zm-31.63 5.3619c-0.0092 0.11091-0.03575 0.21793-0.03575 0.3312v0.91753c0-0.1132 0.02681-0.22022 0.03575-0.3312h8.1055c0.0092 0.11091 0.03575 0.21793 0.03575 0.3312v-0.91753c0-0.1132-0.02658-0.22022-0.03575-0.3312h-8.1055zm10.558 0c0.0137 0.16981 0.04923 0.33251 0.04923 0.50576v0.41178h1.3651v-0.41178c0-0.17325 0.03553-0.3362 0.04923-0.50576h-1.4635zm3.9162 0c-0.0092 0.11091-0.0357 0.21793-0.0357 0.3312v0.91753c0-0.1132 0.0268-0.22022 0.0357-0.3312h8.1055c0.0092 0.11091 0.0358 0.21793 0.0358 0.3312v-0.91753c0-0.1132-0.02663-0.22022-0.0358-0.3312h-8.1055zm-16.976 6.9552v0.91751c0 3.6322 2.9246 6.5569 6.5569 6.5569 3.6322 0 6.5524-2.9247 6.5524-6.5569v-0.91751c0 3.6322-2.9202 6.5569-6.5524 6.5569s-6.5569-2.9246-6.5569-6.5569zm14.474 0v0.91751c0 3.6322 2.9202 6.5569 6.5524 6.5569s6.5569-2.9247 6.5569-6.5569v-0.91751c0 3.6322-2.9247 6.5569-6.5569 6.5569s-6.5524-2.9246-6.5524-6.5569z"/>
 <path id="path4642" d="m52.551 32.169c-0.16362 0.02062-0.32699 0.07333-0.47892 0.1611-0.55101 0.31816-0.75233 0.97849-0.52814 1.5531 0.10198-0.2559 0.27041-0.48674 0.52814-0.63555 0.15193-0.08777 0.31537-0.1407 0.47892-0.1611 0.49065-0.06095 0.98988 0.1705 1.2532 0.62659l1.3696 2.3766c0.14506-0.05546 0.27845-0.13108 0.42518-0.18356l-1.795-3.111c-0.263-0.456-0.763-0.687-1.253-0.626zm22.974 0c-0.49065-0.06095-0.98988 0.1705-1.2532 0.62659l-1.7947 3.1106c0.14666 0.05225 0.28021 0.12787 0.4252 0.18356l1.3695-2.3766c0.26333-0.45607 0.76255-0.6875 1.2532-0.62659 0.16362 0.02063 0.32685 0.0731 0.47889 0.1611 0.25609 0.14781 0.42569 0.37724 0.52815 0.63108 0.2216-0.57366 0.02061-1.2312-0.52815-1.5486-0.15193-0.088-0.31527-0.14047-0.47889-0.1611zm-25.623 2.0185c-0.06967 0.61085-0.0012 1.2414 0.33118 1.8171l1.1905 2.0633c0.12604-0.08754 0.23862-0.19318 0.36702-0.27749l-1.559-2.704c-0.166-0.288-0.268-0.592-0.331-0.9zm28.273 0c-0.0626 0.30799-0.165 0.6117-0.3312 0.89961l-1.5575 2.7033c0.12832 0.08433 0.24096 0.18997 0.36697 0.27749l1.1906-2.0633c0.33237-0.57572 0.40096-1.2063 0.3312-1.8171zm-16.243 2.685c-8.3088 0-15.091 6.2907-15.866 14.389h0.1297c1.182-7.6484 7.7463-13.472 15.737-13.472h4.2116c7.9902 0 14.555 5.8235 15.737 13.472h0.1297c-0.777-8.099-7.56-14.389-15.869-14.389h-4.2116zm-7.367 7.8101c-0.0401 0.14987-0.09396 0.29364-0.09396 0.45651 0 1.0023 0.81031 1.8082 1.8126 1.8082s1.8082-0.80584 1.8082-1.8082c0-0.16293-0.05408-0.30657-0.09396-0.45651-0.2067 0.77202-0.87525 1.3517-1.7142 1.3517-0.83891 0-1.512-0.57966-1.7187-1.3517zm15.477 0c-0.03989 0.14987-0.09395 0.29364-0.09395 0.45651 0 1.0023 0.81033 1.8082 1.8127 1.8082 1.0023 0 1.8082-0.80584 1.8082-1.8082 0-0.16293-0.05404-0.30657-0.09395-0.45651-0.2067 0.77202-0.87525 1.3517-1.7142 1.3517s-1.5121-0.57966-1.7187-1.3517zm-23.99 6.8568c-0.02842 0.36145-0.04675 0.72486-0.05362 1.0921h0.04469c0.0046-0.05798 0.0046-0.11687 0.0092-0.17462v-0.91751zm35.971 0v0.91751c0.0044 0.05775 0.0044 0.11664 0.0092 0.17462h0.0447c-0.007-0.36721-0.02523-0.73061-0.05361-1.0921zm-35.971 2.0185v0.91306h35.971v-0.91306h-35.971zm-6.6553 0.37149c-2.3641 0-4.2653 1.9013-4.2653 4.2653v0.91753c0-2.3641 1.9013-4.2698 4.2653-4.2698 2.3641 0 4.2698 1.9058 4.2698 4.2698v-0.91753c0-2.3641-1.9057-4.2653-4.2698-4.2653zm49.206 0c-2.2171 0-4.0083 1.6775-4.225 3.8357v0.91751c0.21679-2.1582 2.008-3.8401 4.225-3.8401 2.3641 0 4.2653 1.9058 4.2653 4.2698v-0.91753c0-2.3641-1.9013-4.2653-4.2653-4.2653zm-42.613 7.5997v0.91302c0.02337 0.04194 0.03895 0.09258 0.06256 0.13429v-0.85488-0.06256c-0.0236-0.04171-0.03919-0.08777-0.06256-0.1297zm36.056 0.08501c-0.0092 0.01375-0.0138 0.03094-0.02296 0.04469v0.91302c0.0092-0.01375 0.0137-0.0259 0.02296-0.04033v-0.91751zm-49.206 11.538v0.91751c0 3.6322 2.9247 6.5569 6.5569 6.5569 1.6545 0 3.1499-0.62515 4.3011-1.6292v-0.91751c-1.1512 1.004-2.6467 1.6291-4.3011 1.6291-3.6322 0-6.5569-2.9246-6.5569-6.5569zm49.206 0v0.91751c0 0.13658 0.03204 0.26395 0.04033 0.39835v-0.91751c-0.0092-0.13452-0.04033-0.26177-0.04033-0.39835zm13.114 0c0 3.6322-2.9247 6.5569-6.5569 6.5569-1.6212 0-3.083-0.6029-4.225-1.571v0.91751c1.142 0.96806 2.6038 1.571 4.225 1.571 3.6322 0 6.5569-2.9247 6.5569-6.5569v-0.91751zm-51.461 9.1796v0.91753c0 2.9677 2.3897 5.3619 5.3574 5.3619h1.1905v-0.41178c0-0.17324 0.03552-0.33618 0.04926-0.50576h-1.2398c-2.9677 0-5.3574-2.3942-5.3574-5.3619zm40.68 0c0 2.9677-2.3852 5.3619-5.3529 5.3619h-1.2442c0.0137 0.16981 0.04923 0.33253 0.04923 0.50576v0.41178h1.195c2.9677 0 5.3529-2.3942 5.3529-5.3619v-0.91753zm-31.63 5.3619c-0.0092 0.11091-0.03575 0.21793-0.03575 0.33123v0.91751c0-0.1132 0.02681-0.22022 0.03575-0.3312h8.1055c0.0092 0.11091 0.03575 0.21793 0.03575 0.3312v-0.91751c0-0.11321-0.02658-0.22022-0.03575-0.33123h-8.1055zm10.558 0c0.0137 0.16981 0.04923 0.33253 0.04923 0.50576v0.41178h1.3651v-0.41178c0-0.17324 0.03553-0.33618 0.04923-0.50576h-1.4635zm3.9162 0c-0.0092 0.11091-0.0357 0.21793-0.0357 0.33123v0.91751c0-0.1132 0.0268-0.22022 0.0357-0.3312h8.1055c0.0092 0.11091 0.0358 0.21793 0.0358 0.3312v-0.91751c0-0.11321-0.02663-0.22022-0.0358-0.33123h-8.1055zm-16.976 6.9552v0.9175c0 3.6322 2.9246 6.5569 6.5569 6.5569 3.6322 0 6.5524-2.9247 6.5524-6.5569v-0.9175c0 3.6322-2.9202 6.5569-6.5524 6.5569s-6.5569-2.9247-6.5569-6.5569zm14.474 0v0.9175c0 3.6322 2.9202 6.5569 6.5524 6.5569s6.5569-2.9247 6.5569-6.5569v-0.9175c0 3.6322-2.9247 6.5569-6.5569 6.5569s-6.5524-2.9247-6.5524-6.5569z" style="fill-opacity:.11765;fill-rule:evenodd"/>
 <path id="path4644" style="fill-opacity:.058824;fill-rule:evenodd" d="m52.551 33.085c-0.16362 0.02062-0.32699 0.07333-0.47892 0.1611-0.55101 0.31817-0.75233 0.97849-0.52814 1.5531 0.10198-0.2559 0.27041-0.48674 0.52814-0.63555 0.15193-0.08777 0.31537-0.1407 0.47892-0.1611 0.49065-0.06096 0.98988 0.1705 1.2532 0.62657l1.3696 2.3766c0.14506-0.05546 0.27845-0.13108 0.42518-0.18356l-1.795-3.11c-0.263-0.456-0.763-0.688-1.253-0.627zm22.974 0c-0.49065-0.06096-0.98988 0.17049-1.2532 0.62659l-1.7947 3.1106c0.14666 0.05225 0.28021 0.12787 0.4252 0.18356l1.3695-2.3766c0.26333-0.45607 0.76255-0.68748 1.2532-0.62657 0.16362 0.02063 0.32685 0.0731 0.47889 0.1611 0.25609 0.14781 0.42569 0.37724 0.52815 0.63108 0.2216-0.57366 0.02061-1.2312-0.52815-1.5486-0.15193-0.088-0.31527-0.14048-0.47889-0.1611zm-25.623 2.0186c-0.06967 0.61083-0.0012 1.2414 0.33118 1.8171l1.1905 2.0633c0.12604-0.08754 0.23862-0.19318 0.36702-0.27747l-1.559-2.703c-0.166-0.288-0.268-0.592-0.331-0.9zm28.273 0c-0.0626 0.30797-0.165 0.61167-0.3312 0.89959l-1.5575 2.7033c0.12832 0.08433 0.24096 0.18997 0.36697 0.27747l1.1906-2.0633c0.33237-0.5757 0.40096-1.2063 0.3312-1.8171zm-16.243 2.685c-8.3088 0-15.091 6.2907-15.866 14.389h0.1297c1.182-7.6484 7.7463-13.472 15.737-13.472h4.2116c7.9902 0 14.555 5.8234 15.737 13.472h0.1297c-0.777-8.098-7.56-14.389-15.869-14.389h-4.2116zm-7.367 7.8101c-0.0401 0.14987-0.09396 0.29367-0.09396 0.45653 0 1.0023 0.81031 1.8082 1.8126 1.8082s1.8082-0.80582 1.8082-1.8082c0-0.16293-0.05408-0.30659-0.09396-0.45653-0.2067 0.77202-0.87525 1.3517-1.7142 1.3517-0.83891 0-1.512-0.57966-1.7187-1.3517zm15.477 0c-0.03989 0.14987-0.09395 0.29367-0.09395 0.45653 0 1.0023 0.81033 1.8082 1.8127 1.8082 1.0023 0 1.8082-0.80582 1.8082-1.8082 0-0.16293-0.05404-0.30659-0.09395-0.45653-0.2067 0.77202-0.87525 1.3517-1.7142 1.3517s-1.5121-0.57966-1.7187-1.3517zm-23.99 6.8568c-0.02842 0.36145-0.04675 0.72488-0.05362 1.0921h0.04469c0.0046-0.05798 0.0046-0.11687 0.0092-0.17462v-0.91751zm35.971 0v0.91751c0.0044 0.05775 0.0044 0.11664 0.0092 0.17462h0.0447c-0.007-0.36718-0.02523-0.73061-0.05361-1.0921zm-35.971 2.0186v0.91304h35.971v-0.91304h-35.971zm-6.6553 0.37147c-2.3641 0-4.2653 1.9013-4.2653 4.2653v0.91751c0-2.3641 1.9013-4.2698 4.2653-4.2698 2.3641 0 4.2698 1.9058 4.2698 4.2698v-0.91751c0-2.3641-1.9057-4.2653-4.2698-4.2653zm49.206 0c-2.2171 0-4.0083 1.6775-4.225 3.8357v0.91751c0.21679-2.1582 2.008-3.8401 4.225-3.8401 2.3641 0 4.2653 1.9058 4.2653 4.2698v-0.91751c0-2.3641-1.9013-4.2653-4.2653-4.2653zm-42.613 7.5997v0.91302c0.02337 0.04194 0.03895 0.09258 0.06256 0.13429v-0.85486-0.06256c-0.0236-0.04171-0.03919-0.08777-0.06256-0.1297zm36.056 0.08501c-0.0092 0.01375-0.0138 0.03094-0.02296 0.04469v0.91302c0.0092-0.01375 0.0137-0.0259 0.02296-0.04033v-0.91751zm-49.206 11.538v0.91751c0 3.6322 2.9247 6.5569 6.5569 6.5569 1.6545 0 3.1499-0.62515 4.3011-1.6292v-0.91751c-1.1512 1.004-2.6467 1.6292-4.3011 1.6292-3.6322 0-6.5569-2.9247-6.5569-6.5569zm49.206 0v0.91751c0 0.13658 0.03204 0.26395 0.04033 0.39835v-0.91751c-0.0092-0.13452-0.04033-0.26177-0.04033-0.39835zm13.114 0c0 3.6322-2.9247 6.5569-6.5569 6.5569-1.6212 0-3.083-0.60292-4.225-1.571v0.91751c1.142 0.96806 2.6038 1.571 4.225 1.571 3.6322 0 6.5569-2.9247 6.5569-6.5569v-0.91751zm-51.461 9.1797v0.91751c0 2.9677 2.3897 5.3619 5.3574 5.3619h1.1905v-0.41175c0-0.17324 0.03552-0.3362 0.04926-0.50578h-1.2398c-2.9677 0-5.3574-2.3942-5.3574-5.3619zm40.68 0c0 2.9677-2.3852 5.3619-5.3529 5.3619h-1.2442c0.0137 0.16981 0.04923 0.33253 0.04923 0.50578v0.41175h1.195c2.9677 0 5.3529-2.3942 5.3529-5.3619v-0.91751zm-31.63 5.3619c-0.0092 0.11091-0.03575 0.21793-0.03575 0.33123v0.91751c0-0.11321 0.02681-0.22022 0.03575-0.3312h8.1055c0.0092 0.11091 0.03575 0.21793 0.03575 0.3312v-0.91751c0-0.1132-0.02658-0.22022-0.03575-0.33123h-8.1055zm10.558 0c0.0137 0.16981 0.04923 0.33253 0.04923 0.50578v0.41175h1.3651v-0.41175c0-0.17324 0.03553-0.3362 0.04923-0.50578h-1.4635zm3.9162 0c-0.0092 0.11091-0.0357 0.21793-0.0357 0.33123v0.91751c0-0.11321 0.0268-0.22022 0.0357-0.3312h8.1055c0.0092 0.11091 0.0358 0.21793 0.0358 0.3312v-0.91751c0-0.1132-0.02663-0.22022-0.0358-0.33123h-8.1055zm-16.976 6.9552v0.91751c0 3.6322 2.9246 6.5569 6.5569 6.5569 3.6322 0 6.5524-2.9247 6.5524-6.5569v-0.91751c0 3.6322-2.9202 6.5569-6.5524 6.5569s-6.5569-2.9247-6.5569-6.5569zm14.474 0v0.91751c0 3.6322 2.9202 6.5569 6.5524 6.5569s6.5569-2.9247 6.5569-6.5569v-0.91751c0 3.6322-2.9247 6.5569-6.5569 6.5569s-6.5524-2.9247-6.5524-6.5569z"/>
</svg>
