<?xml version="1.0" encoding="UTF-8" standalone="no"?>
<!-- Created with Inkscape (http://www.inkscape.org/) -->
<svg id="svg3449" xmlns:rdf="http://www.w3.org/1999/02/22-rdf-syntax-ns#" xmlns="http://www.w3.org/2000/svg" height="128" width="128" version="1.0" xmlns:cc="http://creativecommons.org/ns#" xmlns:xlink="http://www.w3.org/1999/xlink" xmlns:dc="http://purl.org/dc/elements/1.1/">
 <metadata id="metadata56">
  <rdf:RDF>
   <cc:Work rdf:about="">
    <dc:format>image/svg+xml</dc:format>
    <dc:type rdf:resource="http://purl.org/dc/dcmitype/StillImage"/>
    <dc:title/>
   </cc:Work>
  </rdf:RDF>
 </metadata>
 <defs id="defs3451">
  <linearGradient id="linearGradient3514" y2="-9.1034" gradientUnits="userSpaceOnUse" x2="66.492" gradientTransform="matrix(.96826 0 0 .97948 2.179 .16587)" y1="-42.638" x1="67.952">
   <stop id="stop4620" style="stop-color:#37414b" offset="0"/>
   <stop id="stop4622" style="stop-color:#37414b;stop-opacity:0" offset="1"/>
  </linearGradient>
  <linearGradient id="linearGradient3516" y2="-11.847" gradientUnits="userSpaceOnUse" x2="58.98" gradientTransform="matrix(.96826 0 0 .97948 2.179 .16587)" y1="-118.55" x1="57.173">
   <stop id="stop4596" offset="0"/>
   <stop id="stop4598" style="stop-opacity:0" offset="1"/>
  </linearGradient>
  <linearGradient id="linearGradient3519" y2="50.369" gradientUnits="userSpaceOnUse" x2="76.558" gradientTransform="matrix(.96826 0 0 .97948 3.2423 -129.19)" y1="13.164" x1="76.558">
   <stop id="stop3392" style="stop-color:#425e7b" offset="0"/>
   <stop id="stop3394" style="stop-color:#7a91a7" offset="1"/>
  </linearGradient>
  <linearGradient id="linearGradient3521" y2="-8.7399" gradientUnits="userSpaceOnUse" x2="60.217" gradientTransform="matrix(.96826 0 0 .97948 2.179 .16587)" y1="-123.72" x1="60.395">
   <stop id="stop3392-4-8" style="stop-color:#425e7b" offset="0"/>
   <stop id="stop3394-8-0" style="stop-color:#7a91a7" offset="1"/>
  </linearGradient>
  <radialGradient id="radialGradient3349" gradientUnits="userSpaceOnUse" cy="47.837" cx="42.674" gradientTransform="matrix(.94690 0 0 1.139 3.5954 -29.89)" r="58.984">
   <stop id="stop3955" style="stop-color:#679ede" offset="0"/>
   <stop id="stop3957" style="stop-color:#004ca3" offset="1"/>
  </radialGradient>
  <filter id="filter3174" color-interpolation-filters="sRGB">
   <feGaussianBlur id="feGaussianBlur3176" stdDeviation="1.71"/>
  </filter>
  <linearGradient id="ButtonShadow-1" x1="45.448" gradientUnits="userSpaceOnUse" y1="92.54" gradientTransform="scale(1.0059 .99417)" x2="45.448" y2="7.0165">
   <stop id="stop3750-0" offset="0"/>
   <stop id="stop3752-4" style="stop-opacity:.58824" offset="1"/>
  </linearGradient>
  <linearGradient id="linearGradient5352" y2="508.42" gradientUnits="userSpaceOnUse" x2="411.82" gradientTransform="matrix(2.625 0 0 2.625 -1189.2 -1322.3)" y1="539.3" x1="411.82">
   <stop id="stop4249-1" style="stop-color:#b9daff" offset="0"/>
   <stop id="stop4251-5" style="stop-color:#f5faff" offset="1"/>
  </linearGradient>
 </defs>
 <rect id="rect892" style="stroke:url(#linearGradient3521);stroke-width:.97385;fill:url(#linearGradient3519)" transform="scale(1,-1)" ry="29.296" height="115.54" width="114.22" y="-122.25" x="7.0394"/>
 <rect id="rect892-2" style="stroke:url(#linearGradient3516);stroke-width:.97385;fill:url(#linearGradient3514)" transform="scale(1,-1)" ry="28.993" height="114.35" width="114.22" y="-121.46" x="7.0599"/>
 <path id="rect895" style="fill:url(#radialGradient3349)" d="m33.051 7.2596c-7.969-2.4493-27.013 15.174-25.653 23.038-0.050142 0.97378-0.088772 1.9648-0.088772 2.9572v52.419c0 20.876 10.712 33.859 22.318 33.859h67.038c12.638 0 24.318-11.245 24.318-25.859v-64.017c0.7-10.928-21.283-24.659-25.926-22.618-47.846 0.8653-18.017 0.2236-62.003 0.2236z"/>
 <rect id="rect892-2-7-8" style="opacity:.15891;stroke:#000;stroke-width:4.8445;fill:none" transform="scale(1,-1)" ry="28.993" height="114.35" width="114.22" y="-121.16" x="6.8687"/>
 <rect id="rect892-2-7-1" style="opacity:.15891;stroke:#000;stroke-width:7.7512;fill:none" transform="scale(1,-1)" ry="28.993" height="114.35" width="114.22" y="-121.16" x="6.8687"/>
 <rect id="rect892-2-7-2-9" ry="28.067" style="stroke:#000;stroke-width:1.0489;fill:none" transform="scale(1,-1)" height="112.71" width="114.14" y="-120.31" x="7.0649"/>
 <path id="path1187" style="fill:#fff;fill-opacity:.057143" d="m33.017 7.2319c-23.707 0-26.027 0.6738-25.93 26.295-0.04334 0.71563-0.07674 1.4439-0.07674 2.1732v32.76c18.67-38.321 38.34-51.497 90.374-61.179-0.225-0.026-0.46-0.0303-0.691-0.0303-41.576 0.3874-25.652-0.0188-63.676-0.0188z"/>
 <g id="layer2" style="display:none" transform="translate(148.5 -54.67)">
  <rect id="rect3745" style="opacity:.9;filter:url(#filter3174);fill:url(#ButtonShadow-1)" rx="6" ry="6" height="85" width="86" y="7" x="5"/>
 </g>
 <g id="g5344" transform="translate(180.88 8.9293)">
  <path id="path4259" style="fill-opacity:.058824" d="m-121.9 15.406-29.024 80.848h11.357l22.781-65.082 9.7416 27.67c-3.6399-0.96259-7.5885-0.65575-10.993 0.90494-3.4899 1.6001-6.4302 4.5986-7.4824 8.7638-0.63947 2.531-0.39146 5.2651 0.71668 7.628 1.1082 2.3628 3.1881 4.3801 6.037 5.0287 1.6835 0.38325 3.46 0.17824 5.0226-0.60735 1.5624-0.78619 2.9389-2.2872 3.316-4.2938 0.2184-1.1594 0.0559-2.337-0.504-3.4072-0.55923-1.0701-1.6626-2.0592-3.0914-2.2713-0.81385-0.12075-1.5912 0.01575-2.3382 0.44326-0.74711 0.42656-1.4884 1.3197-1.5913 2.4233l3.8202 0.35823c-0.0263 0.26657-0.26631 0.54372-0.34619 0.58918-0.0801 0.04646-0.0262 0.03071-0.1029 0.01575 0.12075 0.01575 0.14123 0.02809 0.25463 0.24911 0.11366 0.21971 0.17404 0.62391 0.12784 0.87454-0.13703 0.72492-0.54217 1.1921-1.251 1.5488-0.70901 0.35668-1.693 0.46898-2.4719 0.2914-1.613-0.36745-2.7138-1.4178-3.4131-2.9092-0.69962-1.4913-0.8814-3.3909-0.47384-5.0044 0.7439-2.9442 2.7366-4.9936 5.3568-6.1948 2.6201-1.2014 5.8444-1.4516 8.6483-0.65591 0.85331 0.24202 1.6543 0.5727 2.4233 0.95353l11.503 32.681h11.363l-29.024-80.848h-10.361z"/>
  <path id="path4257" d="m-121.9 14.356-29.024 80.848h11.357l22.781-65.082 9.7416 27.67c-3.6399-0.96259-7.5885-0.65575-10.993 0.90494-3.4899 1.6001-6.4302 4.5986-7.4824 8.7638-0.63947 2.531-0.39146 5.2651 0.71668 7.628 1.1082 2.3628 3.1881 4.3801 6.037 5.0287 1.6835 0.38325 3.46 0.17824 5.0226-0.60735 1.5624-0.78619 2.9389-2.2872 3.316-4.2938 0.2184-1.1594 0.0559-2.337-0.504-3.4072-0.55923-1.0701-1.6626-2.0592-3.0914-2.2713-0.81385-0.12075-1.5912 0.01575-2.3382 0.44326-0.74711 0.42656-1.4884 1.3197-1.5913 2.4233l3.8202 0.35823c-0.0263 0.26657-0.26631 0.54372-0.34619 0.58918-0.0801 0.04646-0.0262 0.03071-0.1029 0.01575 0.12075 0.01575 0.14123 0.02809 0.25463 0.24911 0.11366 0.21971 0.17404 0.62391 0.12784 0.87454-0.13703 0.72492-0.54217 1.1921-1.251 1.5488-0.70901 0.35668-1.693 0.46898-2.4719 0.2914-1.613-0.36745-2.7138-1.4178-3.4131-2.9092-0.69962-1.4913-0.8814-3.3909-0.47384-5.0044 0.7439-2.9442 2.7366-4.9936 5.3568-6.1948 2.6201-1.2014 5.8444-1.4516 8.6483-0.65591 0.85331 0.24202 1.6543 0.5727 2.4233 0.95353l11.503 32.681h11.363l-29.024-80.848h-10.361z" style="fill-opacity:.11765"/>
  <path id="path4253" style="fill-opacity:.23529" d="m-121.9 13.306-29.024 80.848h11.357l22.781-65.082 9.7416 27.67c-3.6399-0.96259-7.5885-0.65575-10.993 0.90494-3.4899 1.6001-6.4302 4.5986-7.4824 8.7638-0.63947 2.531-0.39146 5.2651 0.71668 7.628 1.1082 2.3628 3.1881 4.3801 6.037 5.0287 1.6835 0.38325 3.46 0.17824 5.0226-0.60735 1.5624-0.78619 2.9389-2.2872 3.316-4.2938 0.2184-1.1594 0.0559-2.337-0.504-3.4072-0.55923-1.0701-1.6626-2.0592-3.0914-2.2713-0.81385-0.12075-1.5912 0.01575-2.3382 0.44326-0.74711 0.42656-1.4884 1.3197-1.5913 2.4233l3.8202 0.35823c-0.0263 0.26657-0.26631 0.54372-0.34619 0.58918-0.0801 0.04646-0.0262 0.03071-0.1029 0.01575 0.12075 0.01575 0.14123 0.02809 0.25463 0.24911 0.11366 0.21971 0.17404 0.62391 0.12784 0.87454-0.13703 0.72492-0.54217 1.1921-1.251 1.5488-0.70901 0.35668-1.693 0.46898-2.4719 0.2914-1.613-0.36745-2.7138-1.4178-3.4131-2.9092-0.69962-1.4913-0.8814-3.3909-0.47384-5.0044 0.7439-2.9442 2.7366-4.9936 5.3568-6.1948 2.6201-1.2014 5.8444-1.4516 8.6483-0.65591 0.85331 0.24202 1.6543 0.5727 2.4233 0.95353l11.503 32.681h11.363l-29.024-80.848h-10.361z"/>
  <path id="path4229" d="m-121.9 12.256-29.024 80.848h11.357l22.781-65.082 9.7416 27.67c-3.6399-0.96259-7.5885-0.65575-10.993 0.90494-3.4899 1.6001-6.4302 4.5986-7.4824 8.7638-0.63947 2.531-0.39146 5.2651 0.71668 7.628 1.1082 2.3628 3.1881 4.3801 6.037 5.0287 1.6835 0.38325 3.46 0.17824 5.0226-0.60735 1.5624-0.78619 2.9389-2.2872 3.316-4.2938 0.2184-1.1594 0.0559-2.337-0.504-3.4072-0.55923-1.0701-1.6626-2.0592-3.0914-2.2713-0.81385-0.12075-1.5912 0.01575-2.3382 0.44326-0.74711 0.42656-1.4884 1.3197-1.5913 2.4233l3.8202 0.35823c-0.0263 0.26657-0.26631 0.54372-0.34619 0.58918-0.0801 0.04646-0.0262 0.03071-0.1029 0.01575 0.12075 0.01575 0.14123 0.02809 0.25463 0.24911 0.11366 0.21971 0.17404 0.62391 0.12784 0.87454-0.13703 0.72492-0.54217 1.1921-1.251 1.5488-0.70901 0.35668-1.693 0.46898-2.4719 0.2914-1.613-0.36745-2.7138-1.4178-3.4131-2.9092-0.69962-1.4913-0.8814-3.3909-0.47384-5.0044 0.7439-2.9442 2.7366-4.9936 5.3568-6.1948 2.6201-1.2014 5.8444-1.4516 8.6483-0.65591 0.85331 0.24202 1.6543 0.5727 2.4233 0.95353l11.503 32.681h11.363l-29.024-80.848h-10.361z" style="fill:url(#linearGradient5352)"/>
  <path id="path4261" style="fill:#004da4;fill-opacity:.31373" d="m-116.79 25.922-22.779 65.082h-10.608l-0.75366 2.1021h11.361l22.779-65.082 8.9517 25.43c0.26192 0.05565 0.53045 0.0699 0.78955 0.13842l-9.7412-27.67zm4.5886 31.023c-1.4841 0.11327-2.9453 0.47597-4.2554 1.0767-2.6201 1.2011-4.6138 3.2543-5.3577 6.1985-0.22885 0.90599-0.24807 1.8973-0.11792 2.8608 0.035-0.25607 0.056-0.51863 0.11792-0.76392 0.74389-2.9442 2.7375-4.9922 5.3577-6.1934 2.6201-1.2014 5.8453-1.4519 8.6492-0.65625 0.8533 0.24202 1.656 0.57278 2.425 0.95361l11.5 32.679h11.366l-0.75366-2.0969h-10.613l-11.5-32.684c-0.76902-0.38084-1.5717-0.71159-2.425-0.95362-1.4019-0.39783-2.9097-0.53367-4.3938-0.42041zm-13.617 10.208c-0.17585 1.9922 0.15904 4.0251 1.01 5.8396 1.1082 2.3628 3.1907 4.3758 6.0395 5.0244 1.6835 0.38325 3.4567 0.1806 5.0193-0.60498 1.5624-0.78619 2.94-2.2898 3.3171-4.2964 0.12728-0.67577 0.10914-1.3516-0.0257-2.0149-0.4001 1.9629-1.7518 3.4345-3.2915 4.2092-1.5626 0.78558-3.3358 0.99336-5.0193 0.61011-2.8489-0.64858-4.9314-2.6667-6.0396-5.0295-0.55191-1.1769-0.8882-2.4475-1.01-3.7375zm8.8901 1.1484c-0.5215 0.48254-0.95412 1.1851-1.0305 2.0046l3.5991 0.33838c0.0468-0.12198 0.13244-0.21357 0.15895-0.35376 0.0462-0.25064-0.0144-0.65187-0.12818-0.87158-0.1134-0.22102-0.13561-0.23546-0.25636-0.25121 0.0767 0.01496 0.0226 0.03108 0.10253-0.01549 0.0799-0.04546 0.32239-0.32303 0.34864-0.5896l-2.7942-0.26148z"/>
  <path id="path4266" style="fill:#f9f9f9;fill-opacity:.31373" d="m-121.9 12.253v0.0051l-29.029 80.847h0.37939l28.649-79.801h10.356l28.649 79.796h0.37939l-29.029-80.847h-10.356zm9.2695 42.948c-1.8677 0.15146-3.7069 0.61418-5.4089 1.3945-3.4899 1.6001-6.428 4.6019-7.4802 8.7671-0.24063 0.95244-0.31688 1.9327-0.30762 2.9121 0.0512-0.6282 0.15286-1.2537 0.30762-1.8662 1.0523-4.1652 3.9903-7.1619 7.4802-8.762 3.404-1.5607 7.3523-1.8649 10.992-0.90234l-0.39478-1.1228c-1.7-0.40502-3.4539-0.56109-5.1885-0.42041zm-1.3945 12.238c-0.81386-0.12075-1.5909 0.01339-2.3379 0.44092-0.74711 0.42656-1.4916 1.3215-1.5945 2.425l0.31788 0.03077c0.30582-0.61896 0.78093-1.1218 1.2766-1.4048 0.74699-0.42751 1.524-0.56167 2.3379-0.44092 1.4289 0.21215 2.5323 1.2011 3.0916 2.2712 0.31142 0.59527 0.48533 1.221 0.55371 1.8611 0.0943-0.99706-0.0733-1.9938-0.55371-2.9121-0.55923-1.0701-1.6627-2.0591-3.0916-2.2712zm-7.9673 1.0818c-0.10744 1.3146 0.11792 2.7028 0.65625 3.8503 0.69933 1.4914 1.7964 2.5447 3.4094 2.9121 0.77891 0.17758 1.7673 0.06444 2.4763-0.29224 0.70878-0.35674 1.114-0.82342 1.251-1.5483 0.0419-0.22725-0.0244-0.56692-0.11792-0.79468-0.18317 0.56309-0.52401 0.98545-1.133 1.292-0.70901 0.35668-1.6974 0.46982-2.4763 0.29224-1.613-0.36745-2.7101-1.4207-3.4094-2.9121-0.39631-0.84478-0.60527-1.8187-0.65625-2.7993zm7.6904 3.1787c0.0317 0.10075 0.0333 0.19848 0.0461 0.31274 0.0545-0.09411 0.11261-0.19136 0.12303-0.29736l-0.16918-0.01549z"/>
 </g>
</svg>
