<?xml version="1.0" encoding="UTF-8" standalone="no"?>
<!-- Created with Inkscape (http://www.inkscape.org/) -->
<svg id="svg3449" xmlns:rdf="http://www.w3.org/1999/02/22-rdf-syntax-ns#" xmlns="http://www.w3.org/2000/svg" height="128" width="128" version="1.0" xmlns:cc="http://creativecommons.org/ns#" xmlns:xlink="http://www.w3.org/1999/xlink" xmlns:dc="http://purl.org/dc/elements/1.1/">
 <metadata id="metadata56">
  <rdf:RDF>
   <cc:Work rdf:about="">
    <dc:format>image/svg+xml</dc:format>
    <dc:type rdf:resource="http://purl.org/dc/dcmitype/StillImage"/>
    <dc:title/>
   </cc:Work>
  </rdf:RDF>
 </metadata>
 <defs id="defs3451">
  <linearGradient id="linearGradient3514" y2="-9.1034" gradientUnits="userSpaceOnUse" x2="66.492" gradientTransform="matrix(.96826 0 0 .97948 2.179 .16587)" y1="-42.638" x1="67.952">
   <stop id="stop4620" style="stop-color:#37414b" offset="0"/>
   <stop id="stop4622" style="stop-color:#37414b;stop-opacity:0" offset="1"/>
  </linearGradient>
  <linearGradient id="linearGradient3516" y2="-11.847" gradientUnits="userSpaceOnUse" x2="58.98" gradientTransform="matrix(.96826 0 0 .97948 2.179 .16587)" y1="-118.55" x1="57.173">
   <stop id="stop4596" offset="0"/>
   <stop id="stop4598" style="stop-opacity:0" offset="1"/>
  </linearGradient>
  <linearGradient id="linearGradient3519" y2="50.369" gradientUnits="userSpaceOnUse" x2="76.558" gradientTransform="matrix(.96826 0 0 .97948 3.2423 -129.19)" y1="13.164" x1="76.558">
   <stop id="stop3392" style="stop-color:#425e7b" offset="0"/>
   <stop id="stop3394" style="stop-color:#7a91a7" offset="1"/>
  </linearGradient>
  <linearGradient id="linearGradient3521" y2="-8.7399" gradientUnits="userSpaceOnUse" x2="60.217" gradientTransform="matrix(.96826 0 0 .97948 2.179 .16587)" y1="-123.72" x1="60.395">
   <stop id="stop3392-4-8" style="stop-color:#425e7b" offset="0"/>
   <stop id="stop3394-8-0" style="stop-color:#7a91a7" offset="1"/>
  </linearGradient>
  <radialGradient id="radialGradient3349" gradientUnits="userSpaceOnUse" cy="47.837" cx="42.674" gradientTransform="matrix(.94690 0 0 1.139 3.5954 -29.89)" r="58.984">
   <stop id="stop3955" style="stop-color:#f7bd5f" offset="0"/>
   <stop id="stop3957" style="stop-color:#eb671e" offset="1"/>
  </radialGradient>
  <filter id="filter3174" color-interpolation-filters="sRGB">
   <feGaussianBlur id="feGaussianBlur3176" stdDeviation="1.71"/>
  </filter>
  <linearGradient id="ButtonShadow-1" x1="45.448" gradientUnits="userSpaceOnUse" y1="92.54" gradientTransform="scale(1.0059 .99417)" x2="45.448" y2="7.0165">
   <stop id="stop3750-0" offset="0"/>
   <stop id="stop3752-4" style="stop-opacity:.58824" offset="1"/>
  </linearGradient>
  <linearGradient id="linearGradient5447-7" y2="508.4" gradientUnits="userSpaceOnUse" x2="413.95" gradientTransform="matrix(2.625 0 0 2.625 -1275.5 -1341.2)" y1="539.21" x1="413.95">
   <stop id="stop4234-5" style="stop-color:#f9d3bf" offset="0"/>
   <stop id="stop4236-6" style="stop-color:#fffbf5" offset="1"/>
  </linearGradient>
 </defs>
 <rect id="rect892" style="stroke:url(#linearGradient3521);stroke-width:.97385;fill:url(#linearGradient3519)" transform="scale(1,-1)" ry="29.296" height="115.54" width="114.22" y="-122.25" x="7.0394"/>
 <rect id="rect892-2" style="stroke:url(#linearGradient3516);stroke-width:.97385;fill:url(#linearGradient3514)" transform="scale(1,-1)" ry="28.993" height="114.35" width="114.22" y="-121.46" x="7.0599"/>
 <path id="rect895" style="fill:url(#radialGradient3349)" d="m33.051 7.2596c-7.969-2.4493-27.013 15.174-25.653 23.038-0.050142 0.97378-0.088772 1.9648-0.088772 2.9572v52.419c0 20.876 10.712 33.859 22.318 33.859h67.038c12.638 0 24.318-11.245 24.318-25.859v-64.017c0.7-10.928-21.283-24.659-25.926-22.618-47.846 0.8653-18.017 0.2236-62.003 0.2236z"/>
 <rect id="rect892-2-7-8" style="opacity:.15891;stroke:#000;stroke-width:4.8445;fill:none" transform="scale(1,-1)" ry="28.993" height="114.35" width="114.22" y="-121.16" x="6.8687"/>
 <rect id="rect892-2-7-1" style="opacity:.15891;stroke:#000;stroke-width:7.7512;fill:none" transform="scale(1,-1)" ry="28.993" height="114.35" width="114.22" y="-121.16" x="6.8687"/>
 <rect id="rect892-2-7-2-9" ry="28.067" style="stroke:#000;stroke-width:1.0489;fill:none" transform="scale(1,-1)" height="112.71" width="114.14" y="-120.31" x="7.0649"/>
 <path id="path1187" style="fill:#fff;fill-opacity:.057143" d="m33.017 7.2319c-23.707 0-26.027 0.6738-25.93 26.295-0.04334 0.71563-0.07674 1.4439-0.07674 2.1732v32.76c18.67-38.321 38.34-51.497 90.374-61.179-0.225-0.026-0.46-0.0303-0.691-0.0303-41.576 0.3874-25.652-0.0188-63.676-0.0188z"/>
 <g id="layer2" style="display:none" transform="translate(148.5 -54.67)">
  <rect id="rect3745" style="opacity:.9;filter:url(#filter3174);fill:url(#ButtonShadow-1)" rx="6" ry="6" height="85" width="86" y="7" x="5"/>
 </g>
 <g id="g5458" transform="matrix(.9025 0 0 .9025 247.38 31.326)">
  <path id="path4244" style="fill-opacity:.058824;fill-rule:evenodd" d="m-204.46-3.5509c-2.8883 4.0235-4.5914 8.9551-4.5914 14.287 0 2.9275 0.51447 5.7344 1.4549 8.3375 1.7037-0.28618 3.8912-0.59908 5.9204-0.88079-0.95366-2.6192-1.4749-5.4463-1.4749-8.3953 0-4.6138 1.2764-8.9272 3.4913-12.613l-4.8003-0.7356zm-45.619 15.007-7.499 3.6847c5.5309 7.5894 14.483 12.526 24.593 12.526 3.3244 0 6.5174-0.54873 9.5109-1.5356v41.314h7.5856v-19.186c0.75253-2.3758 2.9677-4.0891 5.5989-4.0891 2.6221 0 4.8301 1.7023 5.5899 4.0654v19.21h7.5856v-9.525-10.432-0.43116c0-5.2768-4.2482-9.525-9.525-9.525-4.4881 0-8.2304 3.0736-9.2494 7.2389v-24.496h-7.5856v-0.01312c-1.36 0.17614-2.7387 0.2941-4.1469 0.2941-8.7305 0-16.646-3.4703-22.458-9.0998zm83.635 0.24308c-10.334 0-19.768 3.8473-26.953 10.185 1.1027 0.9339 2.8814 2.5221 4.6773 4.1469 7.1328-5.4344 16.036-8.6635 25.696-8.6635 5.1166 0 10.021 0.90736 14.563 2.5668l-1.1771-4.621c-5.1242-2.3217-10.814-3.6143-16.805-3.6143zm-27.919 20.152-5.2351 5.2351c17.213 7.5891 30.63 22.203 36.618 40.213l11.155-2.5913c-6.1433-20.425-22.176-36.568-42.538-42.857z"/>
  <path id="path4242" d="m-204.46-4.6009c-2.8883 4.0235-4.5914 8.9551-4.5914 14.287 0 2.9275 0.51447 5.7344 1.4549 8.3375 1.7037-0.28618 3.8912-0.59908 5.9204-0.88079-0.95366-2.6192-1.4749-5.4463-1.4749-8.3953 0-4.6138 1.2764-8.9272 3.4913-12.613l-4.8003-0.7356zm-45.619 15.007-7.499 3.6847c5.5309 7.5894 14.483 12.526 24.593 12.526 3.3244 0 6.5174-0.54873 9.5109-1.5357v41.314h7.5856v-19.186c0.75253-2.3758 2.9677-4.0891 5.5989-4.0891 2.6221 0 4.8301 1.7023 5.5899 4.0654v19.21h7.5856v-9.525-10.432-0.43116c0-5.2768-4.2482-9.525-9.525-9.525-4.4881 0-8.2304 3.0736-9.2494 7.2389v-24.496h-7.5856v-0.01313c-1.36 0.17614-2.7387 0.2941-4.1469 0.2941-8.7305 0-16.646-3.4703-22.458-9.0998zm83.635 0.24307c-10.334 0-19.768 3.8473-26.953 10.185 1.1027 0.9339 2.8814 2.5221 4.6773 4.1469 7.1328-5.4344 16.036-8.6635 25.696-8.6635 5.1166 0 10.021 0.90736 14.563 2.5668l-1.1771-4.621c-5.1242-2.3217-10.814-3.6143-16.805-3.6143zm-27.919 20.152-5.2351 5.2351c17.213 7.5891 30.63 22.203 36.618 40.213l11.155-2.5913c-6.1433-20.425-22.176-36.568-42.538-42.857z" style="fill-opacity:.11765;fill-rule:evenodd"/>
  <path id="path4238" style="fill-opacity:.23529;fill-rule:evenodd" d="m-204.46-5.6509c-2.8883 4.0235-4.5914 8.9551-4.5914 14.287 0 2.9275 0.51447 5.7344 1.4549 8.3375 1.7037-0.28618 3.8912-0.59908 5.9204-0.88079-0.95366-2.6192-1.4749-5.4463-1.4749-8.3953 0-4.6138 1.2764-8.9272 3.4913-12.613l-4.8003-0.7356zm-45.619 15.007-7.499 3.6847c5.5309 7.5894 14.483 12.526 24.593 12.526 3.3244 0 6.5174-0.54873 9.5109-1.5357v41.314h7.5856v-19.186c0.75253-2.3758 2.9677-4.0891 5.5989-4.0891 2.6221 0 4.8301 1.7023 5.5899 4.0654v19.21h7.5856v-9.525-10.432-0.43116c0-5.2768-4.2482-9.525-9.525-9.525-4.4881 0-8.2304 3.0736-9.2494 7.2389v-24.496h-7.5856v-0.01312c-1.36 0.17614-2.7387 0.2941-4.1469 0.2941-8.7305 0-16.646-3.4703-22.458-9.0998zm83.635 0.24308c-10.334 0-19.768 3.8473-26.953 10.185 1.1027 0.9339 2.8814 2.5221 4.6773 4.1469 7.1328-5.4344 16.036-8.6635 25.696-8.6635 5.1166 0 10.021 0.90736 14.563 2.5668l-1.1771-4.621c-5.1242-2.3217-10.814-3.6143-16.805-3.6143zm-27.919 20.152-5.2351 5.2351c17.213 7.5891 30.63 22.203 36.618 40.213l11.155-2.5913c-6.1433-20.425-22.176-36.568-42.538-42.857z"/>
  <path id="path4165" d="m-204.46-6.7009c-2.8883 4.0235-4.5914 8.9551-4.5914 14.287 0 2.9275 0.51447 5.7344 1.4549 8.3375 1.7037-0.28618 3.8912-0.59908 5.9204-0.88079-0.95366-2.6192-1.4749-5.4463-1.4749-8.3953 0-4.6138 1.2764-8.9272 3.4913-12.613l-4.8003-0.7356zm-45.619 15.007-7.499 3.6847c5.5309 7.5894 14.483 12.526 24.593 12.526 3.3244 0 6.5174-0.54873 9.5109-1.5357v41.314h7.5856v-19.186c0.75253-2.3758 2.9677-4.0891 5.5989-4.0891 2.6221 0 4.8301 1.7023 5.5899 4.0654v19.21h7.5856v-9.525-10.432-0.43116c0-5.2768-4.2482-9.525-9.525-9.525-4.4881 0-8.2304 3.0736-9.2494 7.2389v-24.496h-7.5856v-0.01312c-1.36 0.17614-2.7387 0.2941-4.1469 0.2941-8.7305 0-16.646-3.4703-22.458-9.0998zm83.635 0.24307c-10.334 0-19.768 3.8473-26.953 10.185 1.1027 0.9339 2.8814 2.5221 4.6773 4.1469 7.1328-5.4344 16.036-8.6635 25.696-8.6635 5.1166 0 10.021 0.90736 14.563 2.5668l-1.1771-4.621c-5.1242-2.3217-10.814-3.6143-16.805-3.6143zm-27.919 20.152-5.2351 5.2351c17.213 7.5891 30.63 22.203 36.618 40.213l11.155-2.5913c-6.1433-20.425-22.176-36.568-42.538-42.857z" style="fill:url(#linearGradient5447-7);fill-rule:evenodd"/>
  <path id="path4246" style="fill-opacity:.31373;fill:#eb651d;fill-rule:evenodd" d="m-200.66-6.1174c-1.5678 3.2302-2.4917 6.8315-2.4917 10.664 0 0.43164 0.0343 0.85559 0.0564 1.2817 0.14356-4.3003 1.3537-8.3289 3.4351-11.792l-0.99974-0.15381zm-8.3467 12.607c-0.0163 0.36546-0.041 0.7277-0.041 1.0972 0 2.9275 0.51049 5.7333 1.4509 8.3364 1.7037-0.28618 3.8925-0.60012 5.9216-0.88184-0.23898-0.65635-0.44735-1.3235-0.63062-2.0046-1.8367 0.25707-3.7687 0.52871-5.291 0.78442-0.83175-2.3023-1.3058-4.768-1.4099-7.3315zm-47.342 4.8962-1.2253 0.60498c5.5309 7.5894 14.479 12.525 24.589 12.525 3.3244 0 6.517-0.54604 9.5105-1.533v-2.102c-2.9935 0.98692-6.1861 1.533-9.5105 1.533-9.4138 0-17.785-4.3115-23.364-11.028zm93.326 0.73316c-9.6592 0-18.563 3.225-25.696 8.6594-1.3198-1.194-2.3953-2.1361-3.4351-3.0454-0.41211 0.33595-0.84222 0.64825-1.2407 0.99975 1.1027 0.9339 2.8798 2.5229 4.6758 4.1477 7.1328-5.4344 16.037-8.6646 25.696-8.6646 5.1166 0 10.018 0.90913 14.561 2.5686l-0.57935-2.2866c-4.3812-1.5297-9.0782-2.3789-13.981-2.3789zm-35.15 20.39-1.4253 1.4253c17.213 7.5891 30.634 22.206 36.622 40.216l11.151-2.5942c-0.19745-0.65646-0.43343-1.2957-0.65113-1.9431l-10.5 2.4353c-5.82-17.506-18.67-31.783-35.19-39.539zm-12.115 6.4087c-2.6311 0-4.8461 1.7156-5.5986 4.0913v2.1021c0.75253-2.3758 2.9675-4.0913 5.5986-4.0913 2.6221 0 4.8285 1.7025 5.5884 4.0657v-2.102c-0.75986-2.3632-2.9662-4.0657-5.5884-4.0657zm-13.187 23.276v2.102h7.5879v-2.102h-7.5879zm18.775 0v2.102h7.5879v-2.102h-7.5879z"/>
  <path id="path4251" style="fill:none" d="m-204.46-6.7009c-2.8883 4.0235-4.5914 8.9551-4.5914 14.287 0 2.9275 0.51447 5.7344 1.4549 8.3375 1.7037-0.28618 3.8912-0.59908 5.9204-0.88079-0.95366-2.6192-1.4749-5.4463-1.4749-8.3953 0-4.6138 1.2764-8.9272 3.4913-12.613l-4.8003-0.7356zm-45.619 15.007-7.499 3.6847c5.5309 7.5894 14.483 12.526 24.593 12.526 3.3244 0 6.5174-0.54873 9.5109-1.5357v41.314h7.5856v-19.186c0.75253-2.3758 2.9677-4.0891 5.5989-4.0891 2.6221 0 4.8301 1.7023 5.5899 4.0654v19.21h7.5856v-9.525-10.432-0.43116c0-5.2768-4.2482-9.525-9.525-9.525-4.4881 0-8.2304 3.0736-9.2494 7.2389v-24.496h-7.5856v-0.01312c-1.36 0.17614-2.7387 0.2941-4.1469 0.2941-8.7305 0-16.646-3.4703-22.458-9.0998zm83.635 0.24307c-10.334 0-19.768 3.8473-26.953 10.185 1.1027 0.9339 2.8814 2.5221 4.6773 4.1469 7.1328-5.4344 16.036-8.6635 25.696-8.6635 5.1166 0 10.021 0.90736 14.563 2.5668l-1.1771-4.621c-5.1242-2.3217-10.814-3.6143-16.805-3.6143zm-27.919 20.152-5.2351 5.2351c17.213 7.5891 30.63 22.203 36.618 40.213l11.155-2.5913c-6.1433-20.425-22.176-36.568-42.538-42.857z"/>
  <path id="path4253-7" d="m-204.46-6.7009c-2.8883 4.0235-4.5914 8.9551-4.5914 14.287 0 2.9275 0.51447 5.7344 1.4549 8.3375 1.7037-0.28618 3.8912-0.59908 5.9204-0.88079-0.95366-2.6192-1.4749-5.4463-1.4749-8.3953 0-4.6138 1.2764-8.9272 3.4913-12.613l-4.8003-0.7356zm-45.619 15.007-7.499 3.6847c5.5309 7.5894 14.483 12.526 24.593 12.526 3.3244 0 6.5174-0.54873 9.5109-1.5357v41.314h7.5856v-19.186c0.75253-2.3758 2.9677-4.0891 5.5989-4.0891 2.6221 0 4.8301 1.7023 5.5899 4.0654v19.21h7.5856v-9.525-10.432-0.43116c0-5.2768-4.2482-9.525-9.525-9.525-4.4881 0-8.2304 3.0736-9.2494 7.2389v-24.496h-7.5856v-0.01312c-1.36 0.17614-2.7387 0.2941-4.1469 0.2941-8.7305 0-16.646-3.4703-22.458-9.0998zm83.635 0.24307c-10.334 0-19.768 3.8473-26.953 10.185 1.1027 0.9339 2.8814 2.5221 4.6773 4.1469 7.1328-5.4344 16.036-8.6635 25.696-8.6635 5.1166 0 10.021 0.90736 14.563 2.5668l-1.1771-4.621c-5.1242-2.3217-10.814-3.6143-16.805-3.6143zm-27.919 20.152-5.2351 5.2351c17.213 7.5891 30.63 22.203 36.618 40.213l11.155-2.5913c-6.1433-20.425-22.176-36.568-42.538-42.857z" style="fill:none"/>
  <path id="path4256" style="fill-opacity:.23529;fill:#fff;fill-rule:evenodd" d="m-204.46-6.7018c-2.8883 4.0235-4.5886 8.9572-4.5886 14.289 0 0.16955 0.0171 0.33372 0.0205 0.50244 0.11308-5.1201 1.7796-9.8558 4.5682-13.74l4.3015 0.65625c0.17301-0.3191 0.31077-0.65861 0.49731-0.96899l-4.7988-0.73828zm1.3381 13.991c-0.002 0.13868-0.0308 0.27092-0.0308 0.41016 0 2.5784 0.42113 5.0534 1.1587 7.3879 0.10967-0.01523 0.209-0.03103 0.31787-0.04615-0.8837-2.4271-1.3754-5.0363-1.4458-7.7519zm-46.958 1.0151-7.4956 3.6863c0.19073 0.26174 0.41645 0.49321 0.61523 0.74853l6.8804-3.3838c5.812 5.6295 13.731 9.1003 22.461 9.1003 1.4082 0 2.7825-0.1161 4.1426-0.29224v0.01024h7.5879v-1.051h-7.5879v-0.01024c-1.36 0.17614-2.7344 0.29224-4.1426 0.29224-8.7305 0-16.649-3.4709-22.461-9.1003zm83.636 0.24609c-10.334 0-19.767 3.8444-26.952 10.182 0.1461 0.12374 0.45205 0.40332 0.62036 0.54859 7.106-6.026 16.285-9.6848 26.332-9.6848 5.9918 0 11.682 1.2928 16.806 3.6145l0.88183 3.4812c0.0959 0.03426 0.19669 0.05738 0.29224 0.0923l-1.1741-4.6194c-5.1242-2.3217-10.814-3.6145-16.806-3.6145zm-27.921 20.149-5.2346 5.2346c0.24095 0.10623 0.47321 0.22942 0.71265 0.33838l4.522-4.522c20.033 6.1876 35.854 21.923 42.21 41.882l0.32813-0.07691c-6.1433-20.425-22.177-36.567-42.538-42.856zm-12.274 5.6807c-4.4881 0-8.23 3.0739-9.249 7.2393v1.051c1.019-4.1653 4.761-7.2393 9.249-7.2393 5.2768 0 9.5259 4.249 9.5259 9.5259v-0.62036-0.43066c0-5.2768-4.249-9.5259-9.5259-9.5259z"/>
 </g>
</svg>
