<?xml version="1.0" encoding="UTF-8" standalone="no"?>
<!-- Created with Inkscape (http://www.inkscape.org/) -->

<svg
   xmlns:dc="http://purl.org/dc/elements/1.1/"
   xmlns:cc="http://creativecommons.org/ns#"
   xmlns:rdf="http://www.w3.org/1999/02/22-rdf-syntax-ns#"
   xmlns:svg="http://www.w3.org/2000/svg"
   xmlns="http://www.w3.org/2000/svg"
   xmlns:sodipodi="http://sodipodi.sourceforge.net/DTD/sodipodi-0.dtd"
   xmlns:inkscape="http://www.inkscape.org/namespaces/inkscape"
   version="1.0"
   width="128"
   height="128"
   id="svg3449"
   inkscape:version="0.48.4 r9939"
   sodipodi:docname="birdie.svg">
  <sodipodi:namedview
     pagecolor="#ffffff"
     bordercolor="#666666"
     borderopacity="1"
     objecttolerance="10"
     gridtolerance="10"
     guidetolerance="10"
     inkscape:pageopacity="0"
     inkscape:pageshadow="2"
     inkscape:window-width="1360"
     inkscape:window-height="707"
     id="namedview39"
     showgrid="false"
     inkscape:zoom="1.84375"
     inkscape:cx="-25.762712"
     inkscape:cy="64"
     inkscape:window-x="-2"
     inkscape:window-y="33"
     inkscape:window-maximized="1"
     inkscape:current-layer="svg3449" />
  <metadata
     id="metadata56">
    <rdf:RDF>
      <cc:Work
         rdf:about="">
        <dc:format>image/svg+xml</dc:format>
        <dc:type
           rdf:resource="http://purl.org/dc/dcmitype/StillImage" />
        <dc:title />
      </cc:Work>
    </rdf:RDF>
  </metadata>
  <defs
     id="defs3451">
    <linearGradient
       x1="67.952003"
       y1="-42.638"
       x2="66.491997"
       y2="-9.1034002"
       id="linearGradient3514"
       gradientUnits="userSpaceOnUse"
       gradientTransform="matrix(0.96826,0,0,0.97948,2.179,0.16587)">
      <stop
         id="stop4620"
         style="stop-color:#37414b;stop-opacity:1"
         offset="0" />
      <stop
         id="stop4622"
         style="stop-color:#37414b;stop-opacity:0"
         offset="1" />
    </linearGradient>
    <linearGradient
       x1="57.173"
       y1="-118.55"
       x2="58.98"
       y2="-11.847"
       id="linearGradient3516"
       gradientUnits="userSpaceOnUse"
       gradientTransform="matrix(0.96826,0,0,0.97948,2.179,0.16587)">
      <stop
         id="stop4596"
         style="stop-color:#000000;stop-opacity:1"
         offset="0" />
      <stop
         id="stop4598"
         style="stop-color:#000000;stop-opacity:0"
         offset="1" />
    </linearGradient>
    <linearGradient
       x1="76.557999"
       y1="13.164"
       x2="76.557999"
       y2="50.368999"
       id="linearGradient3519"
       gradientUnits="userSpaceOnUse"
       gradientTransform="matrix(0.96826,0,0,0.97948,3.2423,-129.19)">
      <stop
         id="stop3392"
         style="stop-color:#425e7b;stop-opacity:1"
         offset="0" />
      <stop
         id="stop3394"
         style="stop-color:#7a91a7;stop-opacity:1"
         offset="1" />
    </linearGradient>
    <linearGradient
       x1="60.395"
       y1="-123.72"
       x2="60.216999"
       y2="-8.7398996"
       id="linearGradient3521"
       gradientUnits="userSpaceOnUse"
       gradientTransform="matrix(0.96826,0,0,0.97948,2.179,0.16587)">
      <stop
         id="stop3392-4-8"
         style="stop-color:#425e7b;stop-opacity:1"
         offset="0" />
      <stop
         id="stop3394-8-0"
         style="stop-color:#7a91a7;stop-opacity:1"
         offset="1" />
    </linearGradient>
    <radialGradient
       cx="42.147999"
       cy="45.646999"
       r="58.984001"
       id="radialGradient3349"
       gradientUnits="userSpaceOnUse"
       gradientTransform="matrix(0.9469,0,0,1.139,3.5954,-29.89)">
      <stop
         id="stop2699-5"
         style="stop-color:#e0b586;stop-opacity:1"
         offset="0" />
      <stop
         id="stop2701-7"
         style="stop-color:#d7a167;stop-opacity:1"
         offset="1" />
    </radialGradient>
  </defs>
  <rect
     width="114.22"
     height="115.54"
     ry="29.296"
     x="7.0394001"
     y="-122.25"
     transform="scale(1,-1)"
     id="rect892"
     style="fill:url(#linearGradient3519);stroke:url(#linearGradient3521);stroke-width:0.97385001" />
  <rect
     width="114.22"
     height="114.35"
     ry="28.993"
     x="7.0598998"
     y="-121.46"
     transform="scale(1,-1)"
     id="rect892-2"
     style="fill:url(#linearGradient3514);stroke:url(#linearGradient3516);stroke-width:0.97385001" />
  <path
     d="M 33.051,7.2596 C 25.082,4.8103 6.038,22.4336 7.398,30.2976 7.347858,31.27138 7.309228,32.2624 7.309228,33.2548 v 52.419 c 0,20.876 10.712,33.859 22.318,33.859 h 67.038 c 12.638002,0 24.318002,-11.245 24.318002,-25.859 v -64.017 c 0.7,-10.928 -21.283002,-24.659 -25.926002,-22.618 -47.846,0.8653 -18.017,0.2236 -62.003,0.2236 z"
     id="rect895"
     style="fill:url(#radialGradient3349)" />
  <g
     transform="matrix(0.25,0,0,0.25,-0.71875,-2.7908519)"
     id="g3060">
    <path
       d="m 256.4375,363.125 c -165.695441,0 -177.423044,76.59063 -178.31197,109.74682 12.372976,5.59221 30.86564,18.56339 45.37076,18.58581 l 263.24471,0.40678 c 16.79352,0.0259 38.13153,-10.81217 51.93432,-18.17532 l 0,-3.35752 C 438.67531,452.8017 434.85549,363.125 256.4375,363.125 z"
       id="path4232"
       style="opacity:0.30751175;color:#000000;fill:#ffffff;fill-opacity:1;fill-rule:nonzero;stroke:none;stroke-width:1;marker:none;visibility:visible;display:inline;overflow:visible;enable-background:accumulate" />
    <g
       id="g3049">
      <path
         d="m 87.5,40.75 a 10.75,10.75 0 1 1 -21.5,0 10.75,10.75 0 1 1 21.5,0 z"
         transform="matrix(-0.93401124,3.9063392,-3.7366255,-1.4244789,589.83156,-41.636636)"
         id="path4203"
         style="color:#000000;fill:#ffffff;fill-opacity:1;stroke:#ffffff;stroke-width:3.31923747;stroke-linecap:round;stroke-linejoin:round;stroke-miterlimit:4;stroke-opacity:1;stroke-dasharray:none;stroke-dashoffset:0;marker:none;visibility:visible;display:inline;overflow:visible;enable-background:accumulate" />
      <path
         d="m -62.755724,-226.57303 a 25.986174,25.986174 0 1 1 -51.972346,0 25.986174,25.986174 0 1 1 51.972346,0 z"
         transform="matrix(1.0357027,0.277071,-0.16241492,1.0908312,421.00504,472.12393)"
         id="path4205"
         style="color:#000000;fill:#1c202a;fill-opacity:1;fill-rule:evenodd;stroke:none;stroke-width:9.69999981;marker:none;visibility:visible;display:inline;overflow:visible;enable-background:accumulate" />
      <path
         d="m -152.73506,-237.26802 a 8.3085051,9.4575529 0 1 1 -16.61701,0 8.3085051,9.4575529 0 1 1 16.61701,0 z"
         transform="matrix(0.42386847,0.60261125,-0.81937625,0.59769252,232.03603,428.20111)"
         id="path4207"
         style="opacity:0.76381908;color:#000000;fill:#ffffff;fill-opacity:1;fill-rule:evenodd;stroke:none;stroke-width:9.69999981;marker:none;visibility:visible;display:inline;overflow:visible;enable-background:accumulate" />
      <path
         d="m 87.5,40.75 a 10.75,10.75 0 1 1 -21.5,0 10.75,10.75 0 1 1 21.5,0 z"
         transform="matrix(0.92869314,3.8840974,3.71535,-1.4163683,-70.28386,-40.216277)"
         id="path4209"
         style="color:#000000;fill:#ffffff;fill-opacity:1;fill-rule:nonzero;stroke:#ffffff;stroke-width:3.33824492;stroke-linecap:round;stroke-linejoin:round;stroke-miterlimit:4;stroke-opacity:1;stroke-dasharray:none;stroke-dashoffset:0;marker:none;visibility:visible;display:inline;overflow:visible;enable-background:accumulate" />
      <path
         d="m -62.755724,-226.57303 a 25.986174,25.986174 0 1 1 -51.972346,0 25.986174,25.986174 0 1 1 51.972346,0 z"
         transform="matrix(-1.0298057,0.27549343,0.16149017,1.0846202,98.32315,470.61803)"
         id="path4211"
         style="color:#000000;fill:#1c202a;fill-opacity:1;fill-rule:evenodd;stroke:none;stroke-width:9.69999981;marker:none;visibility:visible;display:inline;overflow:visible;enable-background:accumulate" />
      <path
         d="m -152.73506,-237.26802 a 8.3085051,9.4575529 0 1 1 -16.61701,0 8.3085051,9.4575529 0 1 1 16.61701,0 z"
         transform="matrix(0.42145505,0.59918009,-0.81471096,0.59428944,24.58006,426.94524)"
         id="path4213"
         style="opacity:0.76381908;color:#000000;fill:#ffffff;fill-opacity:1;fill-rule:evenodd;stroke:none;stroke-width:9.69999981;marker:none;visibility:visible;display:inline;overflow:visible;enable-background:accumulate" />
      <path
         d="m 258.79179,271.89098 0,0.0482 c 1.19538,0.0879 16.17723,1.23946 32.87377,3.65805 16.01895,2.31953 26.02245,5.85256 26.02245,5.85256 0,0 -1.37525,11.32724 -24.45105,23.52486 -17.30682,9.14791 -27.03077,10.76244 -32.49656,10.8575 -0.75327,0 -1.36419,-0.0482 -1.94861,-0.0759 -0.0204,-0.001 -0.0426,10e-4 -0.063,0 -4.85851,0.26766 -14.70674,-0.15176 -34.82239,-10.78081 -23.07576,-12.19721 -24.45101,-23.52486 -24.45101,-23.52486 0,0 10.00348,-3.53223 26.02239,-5.85215 16.6966,-2.4182 31.67779,-3.56779 32.87384,-3.65805 l 0,-0.0482 c 0,0 0.17961,-4.1e-4 0.18867,0 0.0159,-8e-4 0.25104,0 0.25104,0 z"
         id="path4217"
         style="fill:#ad9111;fill-opacity:1;stroke:none" />
      <path
         d="m 188.09029,280.02074 c 0,0 1.63058,-21.95803 29.14279,-45.58546 27.51217,-23.62744 38.90315,-21.24081 43.69933,-20.64412 4.7962,0.59668 -1.19901,29.83305 -1.19901,29.83305 l -0.89935,54.89367 c 0,0 -18.99657,-2.27918 -39.72837,-7.15753 -19.09863,-4.49406 -31.01539,-11.33961 -31.01539,-11.33961 z"
         id="path4219"
         style="fill:#ebc241;fill-opacity:1;stroke:none" />
      <path
         d="m 261.15726,213.41823 c 6.5167,0.1846 18.11009,3.31179 38.74424,21.03234 27.51213,23.62731 29.15178,45.57017 29.15178,45.57017 0,0 -11.92668,6.84276 -31.02531,11.33644 -20.73178,4.87833 -39.7185,7.1607 -39.7185,7.1607 l -0.37465,-22.89775 0,-61.97816 c 0.92177,-0.099 1.94044,-0.26001 3.22244,-0.22356 z"
         id="path4221"
         style="fill:#ebcd41;fill-opacity:1;stroke:none" />
    </g>
  </g>
  <rect
     width="114.22"
     height="114.35"
     ry="28.993"
     x="6.8687"
     y="-121.16"
     transform="scale(1,-1)"
     id="rect892-2-7-8"
     style="opacity:0.15891;fill:none;stroke:#000000;stroke-width:4.84450006" />
  <rect
     width="114.22"
     height="114.35"
     ry="28.993"
     x="6.8687"
     y="-121.16"
     transform="scale(1,-1)"
     id="rect892-2-7-1"
     style="opacity:0.15891;fill:none;stroke:#000000;stroke-width:7.7512002" />
  <rect
     width="113.94824"
     height="113.09351"
     ry="28.066999"
     x="7.2566576"
     y="-120.69351"
     transform="scale(1,-1)"
     id="rect892-2-7-2-9"
     style="fill:none;stroke:#000000;stroke-width:1.04890001" />
  <path
     d="M 33.017,7.2319 C 9.31,7.2319 6.99,7.9057 7.087,33.5269 7.04366,34.24253 7.01026,34.9708 7.01026,35.7001 v 32.76 c 18.67,-38.321 38.34,-51.497 90.374,-61.179 -0.225,-0.026 -0.46,-0.0303 -0.691,-0.0303 -41.576,0.3874 -25.652,-0.0188 -63.676,-0.0188 z"
     id="path1187"
     style="fill:#ffffff;fill-opacity:0.05714303" />
</svg>
