<?xml version="1.0" encoding="UTF-8" standalone="no"?>
<!-- Created with Inkscape (http://www.inkscape.org/) -->
<svg id="svg3449" xmlns:rdf="http://www.w3.org/1999/02/22-rdf-syntax-ns#" xmlns="http://www.w3.org/2000/svg" height="128" width="128" version="1.0" xmlns:cc="http://creativecommons.org/ns#" xmlns:xlink="http://www.w3.org/1999/xlink" xmlns:dc="http://purl.org/dc/elements/1.1/">
 <metadata id="metadata56">
  <rdf:RDF>
   <cc:Work rdf:about="">
    <dc:format>image/svg+xml</dc:format>
    <dc:type rdf:resource="http://purl.org/dc/dcmitype/StillImage"/>
    <dc:title/>
   </cc:Work>
  </rdf:RDF>
 </metadata>
 <defs id="defs3451">
  <linearGradient id="linearGradient3514" y2="-9.1034" gradientUnits="userSpaceOnUse" x2="66.492" gradientTransform="matrix(.96826 0 0 .97948 2.179 .16587)" y1="-42.638" x1="67.952">
   <stop id="stop4620" style="stop-color:#37414b" offset="0"/>
   <stop id="stop4622" style="stop-color:#37414b;stop-opacity:0" offset="1"/>
  </linearGradient>
  <linearGradient id="linearGradient3516" y2="-11.847" gradientUnits="userSpaceOnUse" x2="58.98" gradientTransform="matrix(.96826 0 0 .97948 2.179 .16587)" y1="-118.55" x1="57.173">
   <stop id="stop4596" offset="0"/>
   <stop id="stop4598" style="stop-opacity:0" offset="1"/>
  </linearGradient>
  <linearGradient id="linearGradient3519" y2="50.369" gradientUnits="userSpaceOnUse" x2="76.558" gradientTransform="matrix(.96826 0 0 .97948 3.2423 -129.19)" y1="13.164" x1="76.558">
   <stop id="stop3392" style="stop-color:#425e7b" offset="0"/>
   <stop id="stop3394" style="stop-color:#7a91a7" offset="1"/>
  </linearGradient>
  <linearGradient id="linearGradient3521" y2="-8.7399" gradientUnits="userSpaceOnUse" x2="60.217" gradientTransform="matrix(.96826 0 0 .97948 2.179 .16587)" y1="-123.72" x1="60.395">
   <stop id="stop3392-4-8" style="stop-color:#425e7b" offset="0"/>
   <stop id="stop3394-8-0" style="stop-color:#7a91a7" offset="1"/>
  </linearGradient>
  <radialGradient id="radialGradient3349" gradientUnits="userSpaceOnUse" cy="45.647" cx="42.148" gradientTransform="matrix(.94690 0 0 1.139 3.5954 -29.89)" r="58.984">
   <stop id="stop2699-5" style="stop-color:#e0b586" offset="0"/>
   <stop id="stop2701-7" style="stop-color:#d7a167" offset="1"/>
  </radialGradient>
  <linearGradient id="linearGradient7743" y2="41.201" gradientUnits="userSpaceOnUse" x2="59.955" y1="41.201" x1="30.412">
   <stop id="stop4217-5" style="stop-color:#dcdcdc" offset="0"/>
   <stop id="stop4219-5" style="stop-color:#f0f0f0" offset="1"/>
  </linearGradient>
 </defs>
 <rect id="rect892" style="stroke:url(#linearGradient3521);stroke-width:.97385;fill:url(#linearGradient3519)" transform="scale(1,-1)" ry="29.296" height="115.54" width="114.22" y="-122.25" x="7.0394"/>
 <rect id="rect892-2" style="stroke:url(#linearGradient3516);stroke-width:.97385;fill:url(#linearGradient3514)" transform="scale(1,-1)" ry="28.993" height="114.35" width="114.22" y="-121.46" x="7.0599"/>
 <path id="rect895" style="fill:url(#radialGradient3349)" d="m33.051 7.2596c-7.969-2.4493-27.013 15.174-25.653 23.038-0.050142 0.97378-0.088772 1.9648-0.088772 2.9572v52.419c0 20.876 10.712 33.859 22.318 33.859h67.038c12.638 0 24.318-11.245 24.318-25.859v-64.017c0.7-10.928-21.283-24.659-25.926-22.618-47.846 0.8653-18.017 0.2236-62.003 0.2236z"/>
 <rect id="rect892-2-7-8" style="opacity:.15891;stroke:#000;stroke-width:4.8445;fill:none" transform="scale(1,-1)" ry="28.993" height="114.35" width="114.22" y="-121.16" x="6.8687"/>
 <rect id="rect892-2-7-1" style="opacity:.15891;stroke:#000;stroke-width:7.7512;fill:none" transform="scale(1,-1)" ry="28.993" height="114.35" width="114.22" y="-121.16" x="6.8687"/>
 <rect id="rect892-2-7-2-9" ry="28.067" style="stroke:#000;stroke-width:1.0489;fill:none" transform="scale(1,-1)" height="112.71" width="114.14" y="-120.31" x="7.0649"/>
 <g id="g7708" transform="matrix(1.2 0 0 1.2 -12.831 -12.637)">
  <g id="g7585" transform="translate(0 -22.1)">
   <rect id="rect5960-7-4" style="opacity:.48771" ry=".50217" height="7.8829" width="7.8829" y="94.371" x="59.103"/>
   <g id="g4830" transform="translate(.15454)">
    <rect id="rect5933-2" ry="1.0921" height="2.1843" width="69.93" y="96.903" x="29.07"/>
    <rect id="rect5960-7" style="fill:#fff" ry=".50217" height="7.8829" width="7.8829" y="94.106" x="58.792"/>
    <rect id="rect5933-2-5" style="fill:#fff" ry="1.0921" height="2.1843" width="36.254" y="96.852" x="29"/>
   </g>
  </g>
  <rect id="rect6199" style="opacity:.93213;fill:none" ry=".41601" height="4.2417" width="2.95" y="40.896" x="60.972"/>
  <g id="g21586" style="opacity:.54412" transform="matrix(.25763 0 0 .25763 33.385 -195.35)">
   <g id="g3830" style="fill:#1a1a1a" transform="matrix(.88683 0 0 .88683 -14.017 180.12)">
    <rect id="rect2987" style="fill:#fff" ry="1.1044" height="11.229" width="4.6019" y="1022.7" x="2.7522"/>
    <path id="path2989" d="m6.8939 1023.3 13.622-11.786v14.943l1.6567 2.4228-1.6567 1.8175v14.58l-13.673-11.379z" style="fill:#fff"/>
   </g>
   <path id="path3769" style="opacity:.5;stroke-linejoin:round;stroke:#fff;stroke-width:2.9655;fill:none" d="m8.1242 1086c3.3401 3.3402 3.3401 8.7557 0.000002 12.096"/>
   <path id="path3771" d="m12.534 1081.8c5.6714 5.6714 5.6714 14.867 0.000004 20.538" style="opacity:.5;stroke-linejoin:round;stroke:#fff;stroke-width:2.9655;fill:none"/>
   <path id="path3773" style="opacity:.5;stroke-linejoin:round;stroke:#fff;stroke-width:2.9655;fill:none" d="m17.121 1077.4c8.1375 8.1376 8.1375 21.331 0.000006 29.469"/>
  </g>
  <g id="g22721" transform="matrix(.25763 0 0 .25763 91.187 -195.35)">
   <g id="g22723" style="fill:#1a1a1a" transform="matrix(.88683 0 0 .88683 -14.017 180.12)">
    <rect id="rect22725" style="fill:#fff" ry="1.1044" height="11.229" width="4.6019" y="1022.7" x="2.7522"/>
    <path id="path22727" style="fill:#fff" d="m6.8939 1023.3 13.622-11.786v14.943l1.6567 2.4228-1.6567 1.8175v14.58l-13.673-11.379z"/>
   </g>
   <path id="path22729" d="m8.1242 1086c3.3401 3.3402 3.3401 8.7557 0.000002 12.096" style="stroke-linejoin:round;stroke:#fff;stroke-width:2.9655;fill:none"/>
   <path id="path22731" style="stroke-linejoin:round;stroke:#fff;stroke-width:2.9655;fill:none" d="m12.534 1081.8c5.6714 5.6714 5.6714 14.867 0.000004 20.538"/>
   <path id="path22733" d="m17.121 1077.4c8.1375 8.1376 8.1375 21.331 0.000006 29.469" style="stroke-linejoin:round;stroke:#fff;stroke-width:2.9655;fill:none"/>
  </g>
  <path id="rect22751" d="m30.412 38.686v5.0615h2.227v-1.4173h19.571v1.4173h2.1595v-1.4173h19.571v1.4173h2.227v-1.4173h19.571v1.4173h2.1595v-5.0615h-2.1595v1.4173h-19.571v-1.4173h-2.227v1.4173h-19.571v-1.4173h-2.1595v1.4173h-19.571v-1.4173h-2.227z"/>
  <rect id="rect7630" style="fill:url(#linearGradient7743)" ry="0" height="2.2484" width="29.543" y="40.077" x="30.412"/>
  <path id="path22763" d="m32.639 42.338v0.4725h19.571v-0.4725h-19.571zm21.73 0v0.4725h19.571v-0.4725h-19.571zm21.798 0v0.4725h19.571v-0.4725h-19.571zm-45.755 1.4173v0.47228h2.227v-0.47228h-2.227zm21.798 0v0.47228h2.1595v-0.47228h-2.1595zm21.73 0v0.47228h2.227v-0.47228h-2.227zm21.798 0v0.47228h2.1595v-0.47228h-2.1595z" style="fill:#fff;fill-opacity:.13765"/>
  <path id="path22933" style="fill:#fff" d="m56.922 26.08c0 9.9584-8.0729 18.031-18.031 18.031-9.9584 0-18.031-8.0729-18.031-18.031 0-9.9584 8.0729-18.031 18.031-18.031 9.9584 0 18.031 8.0729 18.031 18.031z" transform="matrix(.26625 0 0 .26625 53.8 34.038)"/>
  <g id="g23185" transform="matrix(2.4004 0 0 2.4004 -36.664 -2428.1)">
   <path id="path23187" style="fill-opacity:.16760" d="m40 1028.6c-0.000093 0.01 0 0.015 0 0.024 0 1.1045 0.89543 2 2 2s2-0.8955 2-2c0-0.01 0.000092-0.015 0-0.024-0.01275 1.0936-0.90337 1.9766-2 1.9766s-1.9873-0.883-2-1.9766z"/>
   <path id="path23189" d="m40 1028.7c-0.000093 0.01 0 0.015 0 0.024 0 1.1045 0.89543 2 2 2s2-0.8955 2-2c0-0.01 0.000092-0.015 0-0.024-0.01275 1.0936-0.90337 1.9765-2 1.9765s-1.9873-0.8829-2-1.9765z" style="fill-opacity:.083799"/>
   <path id="path23191" style="fill-opacity:.050279" d="m40 1028.7c-0.000093 0.01 0 0.015 0 0.024 0 1.1046 0.89543 2 2 2s2-0.8954 2-2c0-0.01 0.000092-0.015 0-0.024-0.01275 1.0936-0.90337 1.9766-2 1.9766s-1.9873-0.883-2-1.9766z"/>
   <path id="path23193" d="m40 1028.8c-0.000093 0.01 0 0.015 0 0.023 0 1.1046 0.89543 2 2 2s2-0.8954 2-2c0-0.01 0.000092-0.015 0-0.023-0.01275 1.0936-0.90337 1.9766-2 1.9766s-1.9873-0.883-2-1.9766z" style="fill-opacity:.015686"/>
  </g>
  <path id="path23211" d="m30.412 49.431v4.6562h3.5092v-1.2146h-2.092v-3.4416h-1.4172zm63.098 0v4.6562h1.4172v-1.6194h0.74233c0.56636 0 0.63579 0.43443 0.67484 0.87725 0.01936 0.24074 0.06334 0.50791 0.13497 0.74218h1.4172c-0.13021-0.2159-0.11542-0.78417-0.13497-1.0121-0.0522-0.57947-0.28426-0.9978-0.67485-1.1474 0.47523-0.17496 0.67485-0.66537 0.67485-1.147 0-0.87882-0.73841-1.3496-1.5521-1.3496h-2.6994zm1.4172 1.0797h0.67485c0.54683 0 0.74232 0.17916 0.74232 0.47239 0 0.41676-0.40793 0.47239-0.67484 0.47239h-0.74233v-0.94478z" style="fill:#fff"/>
  <rect id="rect7664" style="fill:#dedede" ry="0" height="5.2226" width="2.2784" y="38.598" x="30.353"/>
  <rect id="rect7664-4" style="fill:#ebebeb" ry="0" height="5.0575" width="2.1583" y="38.688" x="52.205"/>
 </g>
</svg>
