<?xml version="1.0" encoding="UTF-8" standalone="no"?>
<!-- Created with Inkscape (http://www.inkscape.org/) -->
<svg id="svg3449" xmlns:rdf="http://www.w3.org/1999/02/22-rdf-syntax-ns#" xmlns="http://www.w3.org/2000/svg" height="128" width="128" version="1.0" xmlns:cc="http://creativecommons.org/ns#" xmlns:xlink="http://www.w3.org/1999/xlink" xmlns:dc="http://purl.org/dc/elements/1.1/">
 <metadata id="metadata56">
  <rdf:RDF>
   <cc:Work rdf:about="">
    <dc:format>image/svg+xml</dc:format>
    <dc:type rdf:resource="http://purl.org/dc/dcmitype/StillImage"/>
    <dc:title/>
   </cc:Work>
  </rdf:RDF>
 </metadata>
 <defs id="defs3451">
  <linearGradient id="linearGradient3514" y2="-9.1034" gradientUnits="userSpaceOnUse" x2="66.492" gradientTransform="matrix(.96826 0 0 .97948 2.179 .16587)" y1="-42.638" x1="67.952">
   <stop id="stop4620" style="stop-color:#37414b" offset="0"/>
   <stop id="stop4622" style="stop-color:#37414b;stop-opacity:0" offset="1"/>
  </linearGradient>
  <linearGradient id="linearGradient3516" y2="-11.847" gradientUnits="userSpaceOnUse" x2="58.98" gradientTransform="matrix(.96826 0 0 .97948 2.179 .16587)" y1="-118.55" x1="57.173">
   <stop id="stop4596" offset="0"/>
   <stop id="stop4598" style="stop-opacity:0" offset="1"/>
  </linearGradient>
  <linearGradient id="linearGradient3519" y2="50.369" gradientUnits="userSpaceOnUse" x2="76.558" gradientTransform="matrix(.96826 0 0 .97948 3.2423 -129.19)" y1="13.164" x1="76.558">
   <stop id="stop3392" style="stop-color:#425e7b" offset="0"/>
   <stop id="stop3394" style="stop-color:#7a91a7" offset="1"/>
  </linearGradient>
  <linearGradient id="linearGradient3521" y2="-8.7399" gradientUnits="userSpaceOnUse" x2="60.217" gradientTransform="matrix(.96826 0 0 .97948 2.179 .16587)" y1="-123.72" x1="60.395">
   <stop id="stop3392-4-8" style="stop-color:#425e7b" offset="0"/>
   <stop id="stop3394-8-0" style="stop-color:#7a91a7" offset="1"/>
  </linearGradient>
  <radialGradient id="radialGradient3349" gradientUnits="userSpaceOnUse" cy="45.647" cx="42.148" gradientTransform="matrix(.0084350 1.8886 -1.5444 .0068980 113.65 -57.814)" r="58.984">
   <stop id="stop4855" style="stop-color:#b8b8b8" offset="0"/>
   <stop id="stop4857" style="stop-color:#fff" offset="1"/>
  </radialGradient>
  <filter id="filter3174" color-interpolation-filters="sRGB">
   <feGaussianBlur id="feGaussianBlur3176" stdDeviation="1.71"/>
  </filter>
  <linearGradient id="ButtonShadow-1" x1="45.448" gradientUnits="userSpaceOnUse" y1="92.54" gradientTransform="scale(1.0059 .99417)" x2="45.448" y2="7.0165">
   <stop id="stop3750-87" offset="0"/>
   <stop id="stop3752-56" style="stop-opacity:.58824" offset="1"/>
  </linearGradient>
  <filter id="filter3174-5" color-interpolation-filters="sRGB">
   <feGaussianBlur id="feGaussianBlur3176-70" stdDeviation="1.71"/>
  </filter>
  <linearGradient id="linearGradient6303" y2="13.937" gradientUnits="userSpaceOnUse" x2="14.134" gradientTransform="matrix(1 0 0 1.4586 0 -3.23)" y1="45.621" x1="36.417">
   <stop id="stop6299" style="stop-color:#fff;stop-opacity:.25604" offset="0"/>
   <stop id="stop6301" style="stop-color:#fff;stop-opacity:.38164" offset="1"/>
  </linearGradient>
  <filter id="filter3174-2" color-interpolation-filters="sRGB">
   <feGaussianBlur id="feGaussianBlur3176-78" stdDeviation="1.71"/>
  </filter>
  <filter id="filter3174-24" color-interpolation-filters="sRGB">
   <feGaussianBlur id="feGaussianBlur3176-0" stdDeviation="1.71"/>
  </filter>
  <filter id="filter3174-8" color-interpolation-filters="sRGB">
   <feGaussianBlur id="feGaussianBlur3176-9" stdDeviation="1.71"/>
  </filter>
  <linearGradient id="linearGradient7604" y2="7.0165" gradientUnits="userSpaceOnUse" x2="45.448" gradientTransform="matrix(1.0059 0 0 .99417 -189.19 -21.187)" y1="92.54" x1="45.448">
   <stop id="stop3750-3" offset="0"/>
   <stop id="stop3752-7" style="stop-opacity:.58824" offset="1"/>
  </linearGradient>
  <clipPath id="clipPath3613-1">
   <rect id="rect3615-66" style="fill:#fff" rx="6" ry="6" height="84" width="84" y="6" x="6"/>
  </clipPath>
  <filter id="filter3794-79" height="1.384" width="1.384" color-interpolation-filters="sRGB" y="-.192" x="-.192">
   <feGaussianBlur id="feGaussianBlur3796-0" stdDeviation="5.28"/>
  </filter>
  <filter id="filter3174-0" color-interpolation-filters="sRGB">
   <feGaussianBlur id="feGaussianBlur3176-2" stdDeviation="1.71"/>
  </filter>
  <linearGradient id="linearGradient3825">
   <stop id="stop3827" offset="0"/>
   <stop id="stop3833" offset="0.6"/>
   <stop id="stop3829" style="stop-opacity:0" offset="1"/>
  </linearGradient>
  <linearGradient id="linearGradient8740" y2="16" gradientUnits="userSpaceOnUse" x2="32" y1="80" x1="32">
   <stop id="stop3924" style="stop-color:#323232" offset="0"/>
   <stop id="stop3926" style="stop-color:#5a5a5a" offset="1"/>
  </linearGradient>
  <linearGradient id="linearGradient8742" y2="49" gradientUnits="userSpaceOnUse" x2="54" gradientTransform="translate(-68)" y1="49" x1="42">
   <stop id="stop3891" style="stop-color:#464646" offset="0"/>
   <stop id="stop3893" style="stop-color:#464646;stop-opacity:0" offset="1"/>
  </linearGradient>
  <linearGradient id="linearGradient8744" y2="36" gradientUnits="userSpaceOnUse" x2="45" y1="56" x1="45">
   <stop id="stop3947" style="stop-color:#e66b19" offset="0"/>
   <stop id="stop3949" style="stop-color:#e69e19" offset="1"/>
  </linearGradient>
  <linearGradient id="linearGradient8746" y2="138.66" gradientUnits="userSpaceOnUse" x2="48" y1="20.221" x1="48">
   <stop id="stop3739-9" style="stop-color:#fff" offset="0"/>
   <stop id="stop3741-7" style="stop-color:#fff;stop-opacity:0" offset="1"/>
  </linearGradient>
  <linearGradient id="linearGradient8754" y2="8" xlink:href="#linearGradient3825" spreadMethod="reflect" gradientUnits="userSpaceOnUse" x2="15" gradientTransform="translate(3)" y1="48" x1="15"/>
  <linearGradient id="linearGradient8756" y2="8" xlink:href="#linearGradient3825" spreadMethod="reflect" gradientUnits="userSpaceOnUse" x2="15" gradientTransform="matrix(0,1,-1,0,96.5,3)" y1="48" x1="15"/>
 </defs>
 <rect id="rect892" style="stroke:url(#linearGradient3521);stroke-width:.97385;fill:url(#linearGradient3519)" transform="scale(1,-1)" ry="29.296" height="115.54" width="114.22" y="-122.25" x="7.0394"/>
 <rect id="rect892-2" style="stroke:url(#linearGradient3516);stroke-width:.97385;fill:url(#linearGradient3514)" transform="scale(1,-1)" ry="28.993" height="114.35" width="114.22" y="-121.46" x="7.0599"/>
 <path id="rect895" style="fill:url(#radialGradient3349)" d="m33.051 7.2596c-7.969-2.4493-27.013 15.174-25.653 23.038-0.050142 0.97378-0.088772 1.9648-0.088772 2.9572v52.419c0 20.876 10.712 33.859 22.318 33.859h67.038c12.638 0 24.318-11.245 24.318-25.859v-64.017c0.7-10.928-21.283-24.659-25.926-22.618-47.846 0.8653-18.017 0.2236-62.003 0.2236z"/>
 <path id="path1187" style="opacity:.68238;fill:url(#linearGradient6303)" d="m36.537 7.6204c-8.869 0.7824-26.296 4.9186-29.527 41.221v47.783c18.67-55.894 33.784-75.414 85.818-89.536-0.225-0.0381-0.46-0.0444-0.691-0.0444-41.576 0.5651-17.576 0.5768-55.6 0.5768z"/>
 <rect id="rect892-2-7-8" style="opacity:.15891;stroke:#000;stroke-width:4.8445;fill:none" transform="scale(1,-1)" ry="28.993" height="114.35" width="114.22" y="-121.16" x="6.8687"/>
 <rect id="rect892-2-7-1" style="opacity:.15891;stroke:#000;stroke-width:7.7512;fill:none" transform="scale(1,-1)" ry="28.993" height="114.35" width="114.22" y="-121.16" x="6.8687"/>
 <g id="layer2" style="display:none" transform="matrix(1.44 0 0 1.44 -4.952 -6.9671)">
  <rect id="rect3745" style="opacity:.9;filter:url(#filter3174);fill:url(#ButtonShadow-1)" rx="6" ry="6" height="85" width="86" y="7" x="5"/>
 </g>
 <g id="layer2-1" style="display:none" transform="translate(183.21 82.968)">
  <rect id="rect3745-9" style="opacity:.9;filter:url(#filter3174-5);fill:url(#ButtonShadow-1)" rx="6" ry="6" height="85" width="86" y="7" x="5"/>
 </g>
 <g id="layer2-2" style="display:none" transform="translate(52.694 146.84)">
  <path id="rect3745-94" style="opacity:.9;filter:url(#filter3174-2);fill:url(#ButtonShadow-1)" d="m11 7c-3.324 0-6 2.676-6 6v73c0 3.324 2.676 6 6 6h74c3.324 0 6-2.676 6-6v-73c0-3.324-2.676-6-6-6h-74zm-1 4h6v4h-6v-4zm70 0h6v4h-6v-4zm-70 8h6v4h-6v-4zm70 0h6v4h-6v-4zm-70 8h6v4h-6v-4zm70 0h6v4h-6v-4zm-70 8h6v4h-6v-4zm70 0h6v4h-6v-4zm-70 8h6v4h-6v-4zm70 0h6v4h-6v-4zm-70 8h6v4h-6v-4zm70 0h6v4h-6v-4zm-70 8h6v4h-6v-4zm70 0h6v4h-6v-4zm-70 8h6v4h-6v-4zm70 0h6v4h-6v-4zm-70 8h6v4h-6v-4zm70 0h6v4h-6v-4zm-70 8h6v4h-6v-4zm70 0h6v4h-6v-4z"/>
 </g>
 <rect id="rect892-2-7-2-9" ry="28.067" style="stroke:#000;stroke-width:1.0489;fill:none" transform="scale(1,-1)" height="112.71" width="114.14" y="-120.31" x="7.0649"/>
 <g id="layer2-20" style="display:none" transform="translate(-287.93 37.655)">
  <rect id="rect3745-8" style="opacity:.9;filter:url(#filter3174-24);fill:url(#ButtonShadow-1)" rx="6" ry="6" height="85" width="86" y="7" x="5"/>
 </g>
 <rect id="rect3745-7" style="opacity:.9;filter:url(#filter3174-8);display:none;fill:url(#linearGradient7604)" rx="6" ry="6" height="85" width="86" y="-14.187" x="-184.19"/>
 <g id="layer2-0" style="display:none" transform="translate(218.22 18.71)">
  <rect id="rect3745-6" style="opacity:.9;filter:url(#filter3174-0);fill:url(#ButtonShadow-1)" rx="6" ry="6" height="85" width="86" y="7" x="5"/>
 </g>
 <g id="layer1-1" transform="matrix(1.3904 0 0 1.3904 -2.7373 -4.1276)">
  <path id="path3811" style="opacity:.1;block-progression:tb;text-indent:0;color:#000000;text-transform:none;fill:url(#linearGradient8754)" d="m18 8v80h1v-80h-1zm10 0v80h1v-80h-1zm10 0v80h1v-80h-1zm10 0v80h1v-80h-1zm10 0v80h1v-80h-1zm10 0v80h1v-80h-1zm10 0v80h1v-80h-1z"/>
  <path id="path3860" style="opacity:.1;block-progression:tb;text-indent:0;color:#000000;text-transform:none;fill:url(#linearGradient8756)" d="m88.5 18h-80v1h80v-1zm0 10h-80v1h80v-1zm0 10h-80v1h80v-1zm0 10h-80v1h80v-1zm0 10h-80v1h80v-1zm0 10h-80v1h80v-1zm0 10h-80v1h80v-1z"/>
 </g>
 <g id="layer5-8" transform="matrix(1.3904 0 0 1.3904 -2.7373 -4.1276)">
  <rect id="rect3171" style="opacity:.1;filter:url(#filter3794-79);stroke:#fff;stroke-linecap:round;stroke-width:.5;fill:url(#linearGradient8746)" clip-path="url(#clipPath3613-1)" rx="12" ry="12" height="66" width="66" y="15" x="15"/>
 </g>
 <g id="layer4" transform="matrix(1.3904 0 0 1.3904 -2.7373 -4.1276)">
  <path id="rect3864" style="color:#000000;fill:url(#linearGradient8740)" d="m28 18v6h-4v6.0312h4v35.938h-4v6.0312h4v4h-3l4 8 4-8h-3v-4h18c13.296 0 24-10.704 24-24s-10.704-24-24-24h-18v-6h-2zm2 12.031h18c10.06 0 17.969 7.9089 17.969 17.969s-7.9089 17.969-17.969 17.969h-18v-35.938z"/>
  <rect id="rect3883" style="color:#000000;fill:url(#linearGradient8742)" transform="scale(-1,1)" height="2" width="40" y="48" x="-54"/>
  <path id="path3885" style="color:#000000;fill:#464646" transform="matrix(0 -1.1547 1.3333 0 -7.3333 117.13)" d="m59 52-3.4641-6h6.9282z"/>
  <rect id="rect3897" style="color:#000000;fill:#505050" height="6" width="6" y="14" x="26"/>
  <rect id="rect3899" style="color:#000000;fill:#87f042" height="4" width="4" y="15" x="27"/>
  <path id="path3941" style="opacity:.05;color:#000000" d="m41.906 35.031c-0.78567 0.06764-1.476 0.59759-1.7468 1.3376-3.2927 6.5958-6.5855 13.192-9.8782 19.787-0.64294 1.0496 0.20841 2.6661 1.4688 2.75 2.148 0.07219 4.3125 0.01095 6.4669 0.03125h13.908c1.3114-0.05746 2.23-1.6128 1.625-2.7812-0.669-1.193-1.263-2.508-1.903-3.748-2.765-5.518-5.501-11.063-8.285-16.564-0.411-0.504-0.992-0.844-1.656-0.813zm0.094 13.25l1.9062 3.7812h-3.8125c0.635-1.26 1.271-2.52 1.906-3.781z"/>
  <path id="path3937" style="opacity:.1;color:#000000" d="m41.812 36.062a0.94282 0.94282 0 0 0 -0.65625 0.53125l-10 20a0.94282 0.94282 0 0 0 0.844 1.345h20a0.94282 0.94282 0 0 0 0.84375 -1.3438l-10-20a0.94282 0.94282 0 0 0 -1.032 -0.532zm0.188 10.032l3.5 6.9688h-7l3.5-6.9688z"/>
  <path id="path3933" style="opacity:.3;color:#000000" d="m42 37-10 20h20l-10-20zm0 7 5 10h-10l5-10z"/>
  <path id="path3901" style="color:#000000;fill:url(#linearGradient8744)" d="m42 36-10 20h20l-10-20zm0 7 5 10h-10l5-10z"/>
  <path id="path3953" style="opacity:.5;color:#000000;fill:#fc0" d="m42 36-10 20h0.5l9.5-19 9.5 19h0.5l-10-20zm-4.5 17-0.5 1h10l-0.5-1h-9z"/>
 </g>
</svg>
