<?xml version="1.0" encoding="UTF-8" standalone="no"?>
<!-- Created with Inkscape (http://www.inkscape.org/) -->

<svg
   xmlns:dc="http://purl.org/dc/elements/1.1/"
   xmlns:cc="http://creativecommons.org/ns#"
   xmlns:rdf="http://www.w3.org/1999/02/22-rdf-syntax-ns#"
   xmlns:svg="http://www.w3.org/2000/svg"
   xmlns="http://www.w3.org/2000/svg"
   xmlns:sodipodi="http://sodipodi.sourceforge.net/DTD/sodipodi-0.dtd"
   xmlns:inkscape="http://www.inkscape.org/namespaces/inkscape"
   id="svg3449"
   height="128"
   width="128"
   version="1.0"
   inkscape:version="0.48.4 r9939"
   sodipodi:docname="lock-ok.svg">
  <sodipodi:namedview
     pagecolor="#ffffff"
     bordercolor="#666666"
     borderopacity="1"
     objecttolerance="10"
     gridtolerance="10"
     guidetolerance="10"
     inkscape:pageopacity="0"
     inkscape:pageshadow="2"
     inkscape:window-width="1360"
     inkscape:window-height="707"
     id="namedview101"
     showgrid="false"
     inkscape:zoom="3.6875"
     inkscape:cx="74.038603"
     inkscape:cy="76.706432"
     inkscape:window-x="-2"
     inkscape:window-y="33"
     inkscape:window-maximized="1"
     inkscape:current-layer="svg3449" />
  <metadata
     id="metadata56">
    <rdf:RDF>
      <cc:Work
         rdf:about="">
        <dc:format>image/svg+xml</dc:format>
        <dc:type
           rdf:resource="http://purl.org/dc/dcmitype/StillImage" />
        <dc:title></dc:title>
      </cc:Work>
    </rdf:RDF>
  </metadata>
  <defs
     id="defs3451">
    <linearGradient
       id="linearGradient3514"
       y2="-9.1034"
       gradientUnits="userSpaceOnUse"
       x2="66.492"
       gradientTransform="matrix(.96826 0 0 .97948 2.179 .16587)"
       y1="-42.638"
       x1="67.952">
      <stop
         id="stop4620"
         style="stop-color:#37414b"
         offset="0" />
      <stop
         id="stop4622"
         style="stop-color:#37414b;stop-opacity:0"
         offset="1" />
    </linearGradient>
    <linearGradient
       id="linearGradient3516"
       y2="-11.847"
       gradientUnits="userSpaceOnUse"
       x2="58.98"
       gradientTransform="matrix(.96826 0 0 .97948 2.179 .16587)"
       y1="-118.55"
       x1="57.173">
      <stop
         id="stop4596"
         offset="0" />
      <stop
         id="stop4598"
         style="stop-opacity:0"
         offset="1" />
    </linearGradient>
    <linearGradient
       id="linearGradient3519"
       y2="50.369"
       gradientUnits="userSpaceOnUse"
       x2="76.558"
       gradientTransform="matrix(.96826 0 0 .97948 3.2423 -129.19)"
       y1="13.164"
       x1="76.558">
      <stop
         id="stop3392"
         style="stop-color:#425e7b"
         offset="0" />
      <stop
         id="stop3394"
         style="stop-color:#7a91a7"
         offset="1" />
    </linearGradient>
    <linearGradient
       id="linearGradient3521"
       y2="-8.7399"
       gradientUnits="userSpaceOnUse"
       x2="60.217"
       gradientTransform="matrix(.96826 0 0 .97948 2.179 .16587)"
       y1="-123.72"
       x1="60.395">
      <stop
         id="stop3392-4-8"
         style="stop-color:#425e7b"
         offset="0" />
      <stop
         id="stop3394-8-0"
         style="stop-color:#7a91a7"
         offset="1" />
    </linearGradient>
    <radialGradient
       id="radialGradient3349"
       gradientUnits="userSpaceOnUse"
       cy="45.647"
       cx="42.148"
       gradientTransform="matrix(.94690 -.033779 .040605 1.1383 1.7419 -28.433)"
       r="58.984">
      <stop
         id="stop7563"
         style="stop-color:#7ac143;stop-opacity:1"
         offset="0" />
      <stop
         id="stop7565"
         style="stop-color:#589b32"
         offset="1" />
    </radialGradient>
    <filter
       id="filter3174-5"
       color-interpolation-filters="sRGB">
      <feGaussianBlur
         id="feGaussianBlur3176-4"
         stdDeviation="1.71" />
    </filter>
    <linearGradient
       id="ButtonShadow-4"
       x1="45.448"
       gradientUnits="userSpaceOnUse"
       y1="92.54"
       gradientTransform="scale(1.0059 .99417)"
       x2="45.448"
       y2="7.0165">
      <stop
         id="stop3750-3"
         offset="0" />
      <stop
         id="stop3752-57"
         style="stop-opacity:.58824"
         offset="1" />
    </linearGradient>
    <filter
       id="filter3174-0"
       color-interpolation-filters="sRGB">
      <feGaussianBlur
         id="feGaussianBlur3176-9"
         stdDeviation="1.71" />
    </filter>
    <filter
       id="filter3174-7"
       color-interpolation-filters="sRGB">
      <feGaussianBlur
         id="feGaussianBlur3176-7"
         stdDeviation="1.71" />
    </filter>
    <clipPath
       id="clipPath3613-9">
      <rect
         id="rect3615-2"
         style="fill:#fff"
         rx="6"
         ry="6"
         height="84"
         width="84"
         y="6"
         x="6" />
    </clipPath>
    <linearGradient
       id="linearGradient3613-3"
       x1="48"
       gradientUnits="userSpaceOnUse"
       y1="20.221"
       x2="48"
       y2="138.66">
      <stop
         id="stop3739-03"
         style="stop-color:#fff"
         offset="0" />
      <stop
         id="stop3741-5"
         style="stop-color:#fff;stop-opacity:0"
         offset="1" />
    </linearGradient>
    <filter
       id="filter3794-30"
       height="1.384"
       width="1.384"
       color-interpolation-filters="sRGB"
       y="-.192"
       x="-.192">
      <feGaussianBlur
         id="feGaussianBlur3796-38"
         stdDeviation="5.28" />
    </filter>
    <filter
       id="filter3174-8"
       color-interpolation-filters="sRGB">
      <feGaussianBlur
         id="feGaussianBlur3176-3"
         stdDeviation="1.71" />
    </filter>
    <clipPath
       id="clipPath3613-26">
      <rect
         id="rect3615-4"
         style="fill:#fff"
         rx="6"
         ry="6"
         height="84"
         width="84"
         y="6"
         x="6" />
    </clipPath>
    <filter
       id="filter3794-67"
       height="1.384"
       width="1.384"
       color-interpolation-filters="sRGB"
       y="-.192"
       x="-.192">
      <feGaussianBlur
         id="feGaussianBlur3796-4"
         stdDeviation="5.28" />
    </filter>
    <filter
       id="filter3174-4"
       color-interpolation-filters="sRGB">
      <feGaussianBlur
         id="feGaussianBlur3176-0"
         stdDeviation="1.71" />
    </filter>
    <filter
       id="filter3174-1"
       color-interpolation-filters="sRGB">
      <feGaussianBlur
         id="feGaussianBlur3176-1"
         stdDeviation="1.71" />
    </filter>
    <linearGradient
       id="linearGradient9285"
       y2="7.0165"
       gradientUnits="userSpaceOnUse"
       x2="45.448"
       gradientTransform="matrix(1.0059 0 0 .99417 -59.657 2.8358)"
       y1="92.54"
       x1="45.448">
      <stop
         id="stop3750-7"
         offset="0" />
      <stop
         id="stop3752-3"
         style="stop-opacity:.58824"
         offset="1" />
    </linearGradient>
    <filter
       id="filter3174-06"
       color-interpolation-filters="sRGB">
      <feGaussianBlur
         id="feGaussianBlur3176-91"
         stdDeviation="1.71" />
    </filter>
    <filter
       id="filter3174-45"
       color-interpolation-filters="sRGB">
      <feGaussianBlur
         id="feGaussianBlur3176-46"
         stdDeviation="1.71" />
    </filter>
    <filter
       id="filter3174-17"
       color-interpolation-filters="sRGB">
      <feGaussianBlur
         id="feGaussianBlur3176-33"
         stdDeviation="1.71" />
    </filter>
    <filter
       id="filter3174-2"
       color-interpolation-filters="sRGB">
      <feGaussianBlur
         id="feGaussianBlur3176-6"
         stdDeviation="1.71" />
    </filter>
    <linearGradient
       id="linearGradient8327"
       y2="7.0165"
       gradientUnits="userSpaceOnUse"
       x2="45.448"
       gradientTransform="matrix(1.0059 0 0 .99417 199.61 15.454)"
       y1="92.54"
       x1="45.448">
      <stop
         id="stop3750-60"
         offset="0" />
      <stop
         id="stop3752-38"
         style="stop-opacity:.58824"
         offset="1" />
    </linearGradient>
    <filter
       id="filter3174-54"
       color-interpolation-filters="sRGB">
      <feGaussianBlur
         id="feGaussianBlur3176-69"
         stdDeviation="1.71" />
    </filter>
    <linearGradient
       id="linearGradient8554"
       y2="7.0165"
       gradientUnits="userSpaceOnUse"
       x2="45.448"
       gradientTransform="matrix(1.0059 0 0 .99417 -111.8 8.6962)"
       y1="92.54"
       x1="45.448">
      <stop
         id="stop3750-62"
         offset="0" />
      <stop
         id="stop3752-52"
         style="stop-opacity:.58824"
         offset="1" />
    </linearGradient>
    <filter
       id="filter3174-24"
       color-interpolation-filters="sRGB">
      <feGaussianBlur
         id="feGaussianBlur3176-64"
         stdDeviation="1.71" />
    </filter>
    <linearGradient
       id="linearGradient8844"
       y2="7.0165"
       gradientUnits="userSpaceOnUse"
       x2="45.448"
       gradientTransform="matrix(1.0059 0 0 .99417 -182.89 .27657)"
       y1="92.54"
       x1="45.448">
      <stop
         id="stop3750-9"
         offset="0" />
      <stop
         id="stop3752-48"
         style="stop-opacity:.58824"
         offset="1" />
    </linearGradient>
  </defs>
  <rect
     id="rect892"
     style="stroke:url(#linearGradient3521);stroke-width:.97385;fill:url(#linearGradient3519)"
     transform="scale(1,-1)"
     ry="29.296"
     height="115.54"
     width="114.22"
     y="-122.25"
     x="7.0394" />
  <rect
     id="rect892-2"
     style="stroke:url(#linearGradient3516);stroke-width:.97385;fill:url(#linearGradient3514)"
     transform="scale(1,-1)"
     ry="28.993"
     height="114.35"
     width="114.22"
     y="-121.46"
     x="7.0599" />
  <path
     id="rect895"
     style="fill:url(#radialGradient3349)"
     d="m30.571 7.0104c-13.128 0.936-22.55 15.04-23.173 23.288-0.050142 0.97378-0.088772 1.9648-0.088772 2.9572v58.419c0 15.229 11.191 27.859 22.318 27.859h67.038c15.69 0 24.318-16.445 24.318-25.859v-64.017c-0.21-5.933-12.29-21.682-25.926-22.618-47.846 0.8653-20.497-0.0256-64.483-0.0256z" />
  <g
     transform="matrix(0.25,0,0,0.25,-1.9170083,-3.4731506)"
     id="g3147">
    <path
       inkscape:connector-curvature="0"
       id="path3976"
       d="m 178.28125,455.4375 c -15.18783,0 -27.5,16.01652 -27.5,35.78125 0,0.26164 -0.004,0.52095 0,0.78125 l 55,0 c 0.004,-0.2603 0,-0.51961 0,-0.78125 0,-19.76473 -12.31217,-35.78125 -27.5,-35.78125 z m 27.5,35.78125 c 0,0.25949 0.0258,0.52347 0.0312,0.78125 l 42.4375,0 c 0.005,-0.25778 0.0312,-0.52176 0.0312,-0.78125 0,-15.27274 -9.51395,-27.65625 -21.25,-27.65625 -11.73605,0 -21.25,12.38351 -21.25,27.65625 z m -55,0 c 0,-15.27274 -9.51395,-27.65625 -21.25,-27.65625 -11.73605,0 -21.25,12.38351 -21.25,27.65625 0,0.0933 -7.1e-4,0.18813 0,0.28125 3.30381,0.33255 6.66827,0.5 10.0625,0.5 l 32.40625,0 c 0.005,-0.25778 0.0312,-0.52176 0.0312,-0.78125 z M 351.6875,455.4375 c -15.18783,0 -27.5,16.01652 -27.5,35.78125 0,0.26164 -0.004,0.52095 0,0.78125 l 55,0 c 0.004,-0.2603 0,-0.51961 0,-0.78125 0,-19.76473 -12.31217,-35.78125 -27.5,-35.78125 z m 27.5,35.78125 c 0,0.25949 0.0258,0.52347 0.0312,0.78125 l 14.4375,0 c 9.69075,0 19.04292,-1.37968 27.875,-3.96875 -1.21828,-13.76643 -10.18896,-24.46875 -21.09375,-24.46875 -11.73605,0 -21.25,12.38351 -21.25,27.65625 z m -55,0 c 0,-15.27274 -9.51395,-27.65625 -21.25,-27.65625 -11.73605,0 -21.25,12.38351 -21.25,27.65625 0,0.25949 0.0258,0.52347 0.0312,0.78125 l 42.4375,0 c 0.005,-0.25778 0.0312,-0.52176 0.0312,-0.78125 z"
       style="color:#000000;fill:#ffbb05;fill-opacity:1;fill-rule:nonzero;stroke:none;stroke-width:1;marker:none;visibility:visible;display:inline;overflow:visible;enable-background:accumulate" />
    <path
       inkscape:connector-curvature="0"
       id="path3539"
       d="m 88.63142,108.00001 c 0,0 -6.516776,95.16754 0.960526,139.13844 7.259728,42.69142 37.183344,81.28904 83.035314,81.28904 40.9298,0 75.64294,-30.13469 83.36391,-68.53008 7.72267,38.39344 42.45938,68.53008 83.3892,68.53008 45.85196,0 75.77557,-38.59762 83.0353,-81.28904 7.4773,-43.9709 0.93525,-139.13844 0.93525,-139.13844 0,0 -85.69677,21.79549 -118.97936,48.79974 -20.35791,16.10243 -42.35457,38.30038 -48.38039,69.68759 -6.02582,-31.38721 -28.02248,-53.58517 -48.38038,-69.68759 C 174.32818,129.7955 88.63142,108.00001 88.63142,108.00001 z"
       style="fill:#008000;fill-opacity:1;fill-rule:nonzero;stroke:none" />
    <path
       inkscape:connector-curvature="0"
       style="fill:#ffbb05;fill-opacity:1;stroke:none"
       d="m 255.30869,237.3522 c 0,28.54679 -22.55748,51.84329 -50.47839,53.16672 l 50.47839,29.46398 52.14668,-29.1483 c -31.23155,-2.02477 -52.39127,-26.95903 -52.14668,-53.4824 z"
       id="path3966" />
    <path
       style="fill:#ffbb05;fill-opacity:1;stroke:none"
       d="M 211.83206,297.09504 255.30869,346 l 43.47663,-48.90496 -43.47663,23.75534 z"
       id="path3550"
       inkscape:connector-curvature="0" />
    <path
       inkscape:connector-curvature="0"
       style="opacity:0.5;fill:#000000;fill-opacity:0.15686275;stroke:none"
       d="m 255.30869,237.3522 0,82.6307 52.14668,-29.1483 c -31.23155,-2.02477 -52.39127,-26.95903 -52.14668,-53.4824 z"
       id="path3970" />
    <path
       style="opacity:0.5;fill:#000000;fill-opacity:0.15686275;stroke:none"
       d="m 255.30869,346 43.47663,-48.90496 -43.47663,23.75534 z"
       id="path4341"
       inkscape:connector-curvature="0" />
    <path
       transform="matrix(0.8420584,0,0,0.83587678,43.800659,73.925437)"
       d="m 195.84374,209.4565 c 0,27.81085 -21.5034,50.356 -48.02918,50.356 -26.52579,0 -48.029182,-22.54515 -48.029182,-50.356 0,-27.81086 21.503392,-50.35601 48.029182,-50.35601 26.52578,0 48.02918,22.54515 48.02918,50.35601 z"
       sodipodi:ry="50.356007"
       sodipodi:rx="48.029182"
       sodipodi:cy="209.4565"
       sodipodi:cx="147.81456"
       id="path4343"
       style="color:#000000;fill:#ffffff;fill-opacity:1;fill-rule:nonzero;stroke:none;stroke-width:1;marker:none;visibility:visible;display:inline;overflow:visible;enable-background:accumulate"
       sodipodi:type="arc" />
    <path
       transform="matrix(0.46313216,0,0,0.45973224,99.811475,152.71137)"
       sodipodi:type="arc"
       style="color:#000000;fill:#000000;fill-opacity:1;fill-rule:nonzero;stroke:none;stroke-width:1;marker:none;visibility:visible;display:inline;overflow:visible;enable-background:accumulate"
       id="path4353"
       sodipodi:cx="147.81456"
       sodipodi:cy="209.4565"
       sodipodi:rx="48.029182"
       sodipodi:ry="50.356007"
       d="m 195.84374,209.4565 c 0,27.81085 -21.5034,50.356 -48.02918,50.356 -26.52579,0 -48.029182,-22.54515 -48.029182,-50.356 0,-27.81086 21.503392,-50.35601 48.029182,-50.35601 26.52578,0 48.02918,22.54515 48.02918,50.35601 z" />
    <g
       transform="matrix(6.1517974,0,0,6.4024788,83.808908,94.091495)"
       id="g4371">
      <path
         transform="matrix(0.13688006,0,0,0.13055518,21.683903,-3.1497247)"
         d="m 195.84374,209.4565 c 0,27.81085 -21.5034,50.356 -48.02918,50.356 -26.52579,0 -48.029182,-22.54515 -48.029182,-50.356 0,-27.81086 21.503392,-50.35601 48.029182,-50.35601 26.52578,0 48.02918,22.54515 48.02918,50.35601 z"
         sodipodi:ry="50.356007"
         sodipodi:rx="48.029182"
         sodipodi:cy="209.4565"
         sodipodi:cx="147.81456"
         id="path4367"
         style="color:#000000;fill:#ffffff;fill-opacity:1;fill-rule:nonzero;stroke:none;stroke-width:1;marker:none;visibility:visible;display:inline;overflow:visible;enable-background:accumulate"
         sodipodi:type="arc" />
      <path
         transform="matrix(0.07528404,0,0,0.07180535,30.788692,9.1558094)"
         sodipodi:type="arc"
         style="color:#000000;fill:#000000;fill-opacity:1;fill-rule:nonzero;stroke:none;stroke-width:1;marker:none;visibility:visible;display:inline;overflow:visible;enable-background:accumulate"
         id="path4369"
         sodipodi:cx="147.81456"
         sodipodi:cy="209.4565"
         sodipodi:rx="48.029182"
         sodipodi:ry="50.356007"
         d="m 195.84374,209.4565 c 0,27.81085 -21.5034,50.356 -48.02918,50.356 -26.52579,0 -48.029182,-22.54515 -48.029182,-50.356 0,-27.81086 21.503392,-50.35601 48.029182,-50.35601 26.52578,0 48.02918,22.54515 48.02918,50.35601 z" />
    </g>
  </g>
  <rect
     id="rect892-2-7-8"
     style="opacity:.15891;stroke:#000;stroke-width:4.8445;fill:none"
     transform="scale(1,-1)"
     ry="28.993"
     height="114.35"
     width="114.22"
     y="-121.16"
     x="6.8683" />
  <rect
     id="rect892-2-7-1"
     style="opacity:.15891;stroke:#000;stroke-width:7.7512;fill:none"
     transform="scale(1,-1)"
     ry="28.993"
     height="114.35"
     width="114.22"
     y="-121.16"
     x="6.8686" />
  <rect
     id="rect892-2-7-2-9"
     ry="28.067"
     style="stroke:#000;stroke-width:1.0489;fill:none"
     transform="scale(1,-1)"
     height="112.71"
     width="114.14"
     y="-120.31"
     x="7.0644" />
  <g
     id="layer2"
     style="display:none"
     transform="translate(137.63 15.959)">
    <rect
       id="rect3745"
       style="opacity:.9;filter:url(#filter3174-5);fill:url(#ButtonShadow-4)"
       rx="6"
       ry="6"
       height="85"
       width="86"
       y="7"
       x="5" />
  </g>
  <g
     id="layer2-3"
     style="display:none"
     transform="translate(146.29 14.997)">
    <rect
       id="rect3745-4"
       style="opacity:.9;filter:url(#filter3174-0);fill:url(#ButtonShadow-4)"
       rx="6"
       ry="6"
       height="85"
       width="86"
       y="7"
       x="5" />
  </g>
  <g
     id="layer2-4"
     style="display:none"
     transform="translate(176.76 -8.736)">
    <rect
       id="rect3745-7"
       style="opacity:.9;filter:url(#filter3174-7);fill:url(#ButtonShadow-4)"
       rx="6"
       ry="6"
       height="85"
       width="86"
       y="7"
       x="5" />
  </g>
  <g
     id="layer2-2"
     style="display:none"
     transform="translate(143.15 5.055)">
    <rect
       id="rect3745-9"
       style="opacity:.9;filter:url(#filter3174-8);fill:url(#ButtonShadow-4)"
       rx="6"
       ry="6"
       height="85"
       width="86"
       y="7"
       x="5" />
  </g>
  <g
     id="layer5-4"
     style="display:none"
     transform="translate(143.15 5.055)">
    <rect
       id="rect3171-7"
       style="opacity:.3;filter:url(#filter3794-30);stroke:#fff;stroke-linecap:round;stroke-width:.5;fill:url(#linearGradient3613-3)"
       clip-path="url(#clipPath3613-9)"
       rx="12"
       ry="12"
       height="66"
       width="66"
       y="15"
       x="15" />
  </g>
  <g
     id="layer2-1"
     style="display:none"
     transform="translate(160.47 -5.8175)">
    <rect
       id="rect3745-8"
       style="opacity:.9;filter:url(#filter3174-4);fill:url(#ButtonShadow-4)"
       rx="6"
       ry="6"
       height="85"
       width="86"
       y="7"
       x="5" />
  </g>
  <g
     id="layer5-46"
     style="display:none"
     transform="translate(160.47 -5.8175)">
    <rect
       id="rect3171-2"
       style="opacity:.1;filter:url(#filter3794-67);stroke:#fff;stroke-linecap:round;stroke-width:.5;fill:url(#linearGradient3613-3)"
       clip-path="url(#clipPath3613-26)"
       rx="12"
       ry="12"
       height="66"
       width="66"
       y="15"
       x="15" />
  </g>
  <rect
     id="rect3745-82"
     style="opacity:.9;filter:url(#filter3174-1);display:none;fill:url(#linearGradient9285)"
     rx="6"
     ry="6"
     height="85"
     width="86"
     y="9.8358"
     x="-54.657" />
  <style
     id="style1470"
     type="text/css" />
  <g
     id="layer2-9"
     style="display:none"
     transform="translate(-132.38 3.7839)">
    <rect
       id="rect3745-827"
       style="opacity:.9;filter:url(#filter3174-06);fill:url(#ButtonShadow-4)"
       rx="6"
       ry="6"
       height="85"
       width="86"
       y="7"
       x="5" />
  </g>
  <rect
     id="rect3745-74"
     style="opacity:.9;filter:url(#filter3174-45);display:none;fill:url(#ButtonShadow-4)"
     transform="matrix(1.1352 0 0 1.3226 15.015 .16604)"
     rx="6"
     ry="6"
     height="85"
     width="86"
     y="7"
     x="5" />
  <g
     id="layer2-7"
     style="display:none"
     transform="translate(10.047 -115.26)">
    <rect
       id="rect3745-93"
       style="opacity:.9;filter:url(#filter3174-17);fill:url(#ButtonShadow-4)"
       rx="6"
       ry="6"
       height="85"
       width="86"
       y="7"
       x="5" />
  </g>
  <rect
     id="rect3745-85"
     style="opacity:.9;filter:url(#filter3174-2);display:none;fill:url(#linearGradient8327)"
     rx="6"
     ry="6"
     height="85"
     width="86"
     y="22.454"
     x="204.61" />
  <rect
     id="rect3745-1"
     style="opacity:.9;filter:url(#filter3174-54);display:none;fill:url(#linearGradient8554)"
     rx="6"
     ry="6"
     height="85"
     width="86"
     y="15.696"
     x="-106.8" />
  <rect
     id="rect3745-6"
     style="opacity:.9;filter:url(#filter3174-24);display:none;fill:url(#linearGradient8844)"
     rx="6"
     ry="6"
     height="85"
     width="86"
     y="7.2766"
     x="-177.89" />
</svg>
