<?xml version="1.0" encoding="UTF-8" standalone="no"?>
<!-- Created with Inkscape (http://www.inkscape.org/) -->
<svg id="svg3449" xmlns:rdf="http://www.w3.org/1999/02/22-rdf-syntax-ns#" xmlns="http://www.w3.org/2000/svg" height="128" width="128" version="1.0" xmlns:cc="http://creativecommons.org/ns#" xmlns:xlink="http://www.w3.org/1999/xlink" xmlns:dc="http://purl.org/dc/elements/1.1/">
 <metadata id="metadata56">
  <rdf:RDF>
   <cc:Work rdf:about="">
    <dc:format>image/svg+xml</dc:format>
    <dc:type rdf:resource="http://purl.org/dc/dcmitype/StillImage"/>
    <dc:title/>
   </cc:Work>
  </rdf:RDF>
 </metadata>
 <defs id="defs3451">
  <linearGradient id="linearGradient3514" y2="-9.1034" gradientUnits="userSpaceOnUse" x2="66.492" gradientTransform="matrix(.96826 0 0 .97948 2.179 .16587)" y1="-42.638" x1="67.952">
   <stop id="stop4620" style="stop-color:#37414b" offset="0"/>
   <stop id="stop4622" style="stop-color:#37414b;stop-opacity:0" offset="1"/>
  </linearGradient>
  <linearGradient id="linearGradient3516" y2="-11.847" gradientUnits="userSpaceOnUse" x2="58.98" gradientTransform="matrix(.96826 0 0 .97948 2.179 .16587)" y1="-118.55" x1="57.173">
   <stop id="stop4596" offset="0"/>
   <stop id="stop4598" style="stop-opacity:0" offset="1"/>
  </linearGradient>
  <linearGradient id="linearGradient3519" y2="50.369" gradientUnits="userSpaceOnUse" x2="76.558" gradientTransform="matrix(.96826 0 0 .97948 3.2423 -129.19)" y1="13.164" x1="76.558">
   <stop id="stop3392" style="stop-color:#425e7b" offset="0"/>
   <stop id="stop3394" style="stop-color:#7a91a7" offset="1"/>
  </linearGradient>
  <linearGradient id="linearGradient3521" y2="-8.7399" gradientUnits="userSpaceOnUse" x2="60.217" gradientTransform="matrix(.96826 0 0 .97948 2.179 .16587)" y1="-123.72" x1="60.395">
   <stop id="stop3392-4-8" style="stop-color:#425e7b" offset="0"/>
   <stop id="stop3394-8-0" style="stop-color:#7a91a7" offset="1"/>
  </linearGradient>
  <radialGradient id="radialGradient3349" gradientUnits="userSpaceOnUse" cy="45.647" cx="42.148" gradientTransform="matrix(.94690 0 0 1.139 3.5954 -29.89)" r="58.984">
   <stop id="stop3193" style="stop-color:#484848" offset="0"/>
   <stop id="stop3195" style="stop-color:#878787" offset="0"/>
   <stop id="stop3197" style="stop-color:#6b6b6b" offset="0"/>
   <stop id="stop3199" style="stop-color:#4d4d4d" offset=".75"/>
   <stop id="stop3201" style="stop-color:#4e4e4e" offset="1"/>
  </radialGradient>
  <filter id="filter3174-1" color-interpolation-filters="sRGB">
   <feGaussianBlur id="feGaussianBlur3176-0" stdDeviation="1.71"/>
  </filter>
  <linearGradient id="ButtonShadow-9" x1="45.448" gradientUnits="userSpaceOnUse" y1="92.54" gradientTransform="scale(1.0059 .99417)" x2="45.448" y2="7.0165">
   <stop id="stop3750-6" offset="0"/>
   <stop id="stop3752-7" style="stop-opacity:.58824" offset="1"/>
  </linearGradient>
  <filter id="filter3174-9" color-interpolation-filters="sRGB">
   <feGaussianBlur id="feGaussianBlur3176-5" stdDeviation="1.71"/>
  </filter>
  <filter id="filter3174-6" color-interpolation-filters="sRGB">
   <feGaussianBlur id="feGaussianBlur3176-1" stdDeviation="1.71"/>
  </filter>
  <linearGradient id="linearGradient7339" y2="104.76" gradientUnits="userSpaceOnUse" x2="121.18" y1="104.76" x1="6.8198">
   <stop id="stop5130-8-5" style="stop-color:#e5e5e5" offset="0"/>
   <stop id="stop5132-7-7" style="stop-color:#ababab" offset="1"/>
  </linearGradient>
  <linearGradient id="linearGradient3237">
   <stop id="stop3239" style="stop-color:#6a3d0d" offset="0"/>
   <stop id="stop3241" style="stop-color:#efcb73" offset="1"/>
  </linearGradient>
  <filter id="filter3174-69" color-interpolation-filters="sRGB">
   <feGaussianBlur id="feGaussianBlur3176-2" stdDeviation="1.71"/>
  </filter>
  <linearGradient id="linearGradient3948">
   <stop id="stop3950" style="stop-color:#1b1b1b" offset="0"/>
   <stop id="stop3952" style="stop-color:#484848" offset="1"/>
  </linearGradient>
  <linearGradient id="linearGradient3767">
   <stop id="stop3769" style="stop-color:#f1be43" offset="0"/>
   <stop id="stop3771" style="stop-color:#ebcb8b;stop-opacity:0" offset="1"/>
  </linearGradient>
  <linearGradient id="linearGradient7159" y2="73.448" gradientUnits="userSpaceOnUse" x2="49.385" gradientTransform="translate(15.244 29.347)" y1="81.177" x1="49.385">
   <stop id="stop3739-2" style="stop-color:#fff" offset="0"/>
   <stop id="stop3741-7" style="stop-color:#fff;stop-opacity:0" offset="1"/>
  </linearGradient>
  <linearGradient id="linearGradient7212" y2="7.0165" gradientUnits="userSpaceOnUse" x2="45.448" gradientTransform="matrix(1.0059 0 0 .99417 -350.06 -144.69)" y1="92.54" x1="45.448">
   <stop id="stop3750-2" offset="0"/>
   <stop id="stop3752-1" style="stop-opacity:.58824" offset="1"/>
  </linearGradient>
  <linearGradient id="linearGradient7221" y2="106.14" xlink:href="#linearGradient3767" gradientUnits="userSpaceOnUse" x2="35.109" gradientTransform="matrix(0 -.75910 .75910 0 7.6753 123.36)" y1="106.14" x1="21.026"/>
  <linearGradient id="linearGradient7224" y2="108.68" xlink:href="#linearGradient3237" gradientUnits="userSpaceOnUse" x2="26.36" gradientTransform="matrix(.75718 0 0 .75718 68.284 22.982)" y1="103.13" x1="26.36"/>
  <linearGradient id="linearGradient7226" y2="99.666" xlink:href="#linearGradient3237" gradientUnits="userSpaceOnUse" x2="26.36" gradientTransform="matrix(.75718 0 0 .75718 68.284 22.982)" y1="112.61" x1="26.36"/>
  <linearGradient id="linearGradient7237" y2="106.14" xlink:href="#linearGradient3767" gradientUnits="userSpaceOnUse" x2="35.109" gradientTransform="matrix(0 -.75910 .75910 0 -42.325 123.36)" y1="106.14" x1="21.026"/>
  <linearGradient id="linearGradient7240" y2="108.68" xlink:href="#linearGradient3237" gradientUnits="userSpaceOnUse" x2="26.36" gradientTransform="matrix(.75718 0 0 .75718 18.284 22.982)" y1="103.13" x1="26.36"/>
  <linearGradient id="linearGradient7242" y2="99.666" xlink:href="#linearGradient3237" gradientUnits="userSpaceOnUse" x2="26.36" gradientTransform="matrix(.75718 0 0 .75718 18.284 22.982)" y1="112.61" x1="26.36"/>
  <linearGradient id="linearGradient7261" y2="79.84" xlink:href="#linearGradient3948" gradientUnits="userSpaceOnUse" x2="48.179" gradientTransform="translate(19.244 29.347)" y1="72.25" x1="48.179"/>
  <linearGradient id="linearGradient7264" y2="79.84" xlink:href="#linearGradient3948" gradientUnits="userSpaceOnUse" x2="48.179" gradientTransform="translate(13.244 29.347)" y1="72.25" x1="48.179"/>
  <linearGradient id="linearGradient7267" y2="79.84" xlink:href="#linearGradient3948" gradientUnits="userSpaceOnUse" x2="48.179" gradientTransform="translate(18.244 29.347)" y1="72.25" x1="48.179"/>
  <linearGradient id="linearGradient7270" y2="79.84" xlink:href="#linearGradient3948" gradientUnits="userSpaceOnUse" x2="48.179" gradientTransform="translate(14.244 29.347)" y1="72.25" x1="48.179"/>
  <linearGradient id="linearGradient7273" y2="79.84" xlink:href="#linearGradient3948" gradientUnits="userSpaceOnUse" x2="48.179" gradientTransform="translate(17.244 29.347)" y1="72.25" x1="48.179"/>
  <linearGradient id="linearGradient7276" y2="79.84" xlink:href="#linearGradient3948" gradientUnits="userSpaceOnUse" x2="48.179" gradientTransform="translate(16.244 29.347)" y1="72.25" x1="48.179"/>
  <linearGradient id="linearGradient7279" y2="79.84" xlink:href="#linearGradient3948" gradientUnits="userSpaceOnUse" x2="48.179" gradientTransform="translate(15.244 29.347)" y1="72.25" x1="48.179"/>
 </defs>
 <rect id="rect892" style="stroke:url(#linearGradient3521);stroke-width:.97385;fill:url(#linearGradient3519)" transform="scale(1,-1)" ry="29.296" height="115.54" width="114.22" y="-122.25" x="7.0394"/>
 <rect id="rect892-2" style="stroke:url(#linearGradient3516);stroke-width:.97385;fill:url(#linearGradient3514)" transform="scale(1,-1)" ry="28.993" height="114.35" width="114.22" y="-121.46" x="7.0599"/>
 <path id="rect895" style="stroke:#000;fill:url(#radialGradient3349)" d="m30.571 7.0104c-13.128 0.936-22.55 15.04-23.173 23.288-0.050142 0.97378-0.088772 1.9648-0.088772 2.9572v58.419c0 15.229 11.191 27.859 22.318 27.859h67.038c15.69 0 24.318-16.445 24.318-25.859v-64.017c-0.21-5.933-12.29-21.682-25.926-22.618-47.846 0.8653-20.497-0.0256-64.483-0.0256z"/>
 <rect id="rect6647-6-5" style="fill:#ffd11b" ry="0" height="82.717" width="27.832" y="6.9721" x="64.462"/>
 <rect id="rect6647-6" style="fill:#7fed35" ry="0" height="82.717" width="27.832" y="6.9723" x="36.244"/>
 <path id="rect6647" style="fill:#70c3d8" d="m32.188 7.2692c-14.757 2.0175-21.818 11.15-24.063 20.563v62.156h27.844v-82.719h-3.7812z"/>
 <path id="rect895-7" style="fill:url(#linearGradient7339)" d="m6.921 90.46c-0.14938 3.1104-0.089295-1.8621-0.089295 1.3764 0 15.229 11.257 27.859 22.45 27.859h67.435c15.783 0 24.462-16.445 24.462-25.859v-4.0173c-33.97 0.21212-35.665 1.0651-114.26 0.64088z"/>
 <path id="rect6647-5" style="fill:#f00" d="m96.666 7.8263c14.757 2.0175 21.817 11.15 24.062 20.563v62.156h-27.844v-82.719h3.7812z"/>
 <rect id="rect892-2-7-8" style="opacity:.15891;stroke:#000;stroke-width:4.8445;fill:none" transform="scale(1,-1)" ry="28.993" height="114.35" width="114.22" y="-121.16" x="6.8683"/>
 <rect id="rect7020" style="opacity:.94973" ry=".78465" height="1.5693" width="114.78" y="89.837" x="6.7433"/>
 <rect id="rect892-2-7-1" style="opacity:.15891;stroke:#000;stroke-width:7.7512;fill:none" transform="scale(1,-1)" ry="28.993" height="114.35" width="114.22" y="-121.16" x="6.8686"/>
 <rect id="rect892-2-7-2-9" ry="28.067" style="stroke:#000;stroke-width:1.0489;fill:none" transform="scale(1,-1)" height="112.71" width="114.14" y="-120.21" x="7.0644"/>
 <path id="path1187" style="fill:#fff;fill-opacity:.057143" d="m37.509 10.721c-14.891-4.3296-32.78 19.454-27.93 26.295-0.04334 0.71563-0.07674 1.4439-0.07674 2.1732v10.76c25.898-25.61 66.753-35.478 90.374-39.178-0.22473-0.02628-0.45986-0.03062-0.69067-0.03062-41.576 0.38742-23.653-0.01876-61.677-0.01875z"/>
 <g id="layer2" style="display:none" transform="translate(187.88 23.742)">
  <rect id="rect3745" style="opacity:.9;filter:url(#filter3174-1);fill:url(#ButtonShadow-9)" rx="6" ry="6" height="85" width="86" y="7" x="5"/>
 </g>
 <g id="layer2-2" style="display:none" transform="matrix(1.2166 0 0 1.2299 5.6049 3.1187)">
  <rect id="rect3745-5" style="opacity:.9;filter:url(#filter3174-9);fill:url(#ButtonShadow-9)" rx="6" ry="6" height="85" width="86" y="7" x="5"/>
 </g>
 <g id="layer2-8" style="display:none" transform="matrix(1.2166 0 0 1.2299 162.3 9.178)">
  <rect id="rect3745-8" style="opacity:.9;filter:url(#filter3174-6);fill:url(#ButtonShadow-9)" rx="6" ry="6" height="85" width="86" y="7" x="5"/>
 </g>
 <rect id="rect3745-9" style="opacity:.9;filter:url(#filter3174-69);display:none;fill:url(#linearGradient7212)" rx="6" ry="6" height="85" width="86" y="-137.69" x="-345.06"/>
 <path id="path4097" style="fill:url(#linearGradient7159)" d="m60.244 100.32c-1.1004 0-2.0312 0.93088-2.0312 2.0312v0.875c-0.078-1.0332-0.91829-1.9062-1.9688-1.9062-1.1004 0-2.0312 0.93088-2.0312 2.0312v0.875c-0.078-1.0332-0.91829-1.9062-1.9688-1.9062-1.1004 0-2.0312 0.93088-2.0312 2.0312v2c0 1.1004 0.93088 2.0312 2.0312 2.0312 1.0505 0 1.8907-0.87307 1.9688-1.9062v0.875c0 1.1004 0.93088 2.0312 2.0312 2.0312 1.0505 0 1.8907-0.87307 1.9688-1.9062v0.875c0 1.1004 0.93088 2.0312 2.0312 2.0312 1.0754 0 1.9597-0.90181 2-1.9688 0.0403 1.0669 0.92459 1.9688 2 1.9688s1.9597-0.90181 2-1.9688c0.0403 1.0669 0.92459 1.9688 2 1.9688 1.1004 0 2.0312-0.93088 2.0312-2.0312v-0.875c0.078 1.0332 0.91829 1.9062 1.9688 1.9062 1.1004 0 2.0312-0.93088 2.0312-2.0312v-0.875c0.078 1.0332 0.91829 1.9062 1.9688 1.9062 1.1004 0 2.0312-0.93088 2.0312-2.0312v-2c0-1.1004-0.93088-2.0312-2.0312-2.0312-1.0505 0-1.8907 0.87306-1.9688 1.9062v-0.875c0-1.1004-0.93088-2.0312-2.0312-2.0312-1.0505 0-1.8907 0.87306-1.9688 1.9062v-0.875c0-1.1004-0.93088-2.0312-2.0312-2.0312-1.0754 0-1.9597 0.9018-2 1.9688-0.0403-1.067-0.92459-1.9688-2-1.9688s-1.9597 0.9018-2 1.9688c-0.0403-1.067-0.92459-1.9688-2-1.9688z"/>
 <path id="path4010" style="fill:url(#linearGradient7279)" d="m60.244 101.35c-0.554 0-1 0.446-1 1v6c0 0.554 0.446 1 1 1s1-0.446 1-1v-6c0-0.554-0.446-1-1-1z"/>
 <path id="path4008" style="fill:url(#linearGradient7276)" d="m64.244 101.35c-0.554 0-1 0.446-1 1v6c0 0.554 0.446 1 1 1s1-0.446 1-1v-6c0-0.554-0.446-1-1-1z"/>
 <path id="path4006" style="fill:url(#linearGradient7273)" d="m68.244 101.35c-0.554 0-1 0.446-1 1v6c0 0.554 0.446 1 1 1s1-0.446 1-1v-6c0-0.554-0.446-1-1-1z"/>
 <path id="path4004" style="fill:url(#linearGradient7270)" d="m56.244 102.35c-0.554 0-1 0.446-1 1v4c0 0.554 0.446 1 1 1s1-0.446 1-1v-4c0-0.554-0.446-1-1-1z"/>
 <path id="path4002" style="fill:url(#linearGradient7267)" d="m72.244 102.35c-0.554 0-1 0.446-1 1v4c0 0.554 0.446 1 1 1s1-0.446 1-1v-4c0-0.554-0.446-1-1-1z"/>
 <path id="path4000" style="fill:url(#linearGradient7264)" d="m52.244 103.35c-0.554 0-1 0.446-1 1v2c0 0.554 0.446 1 1 1s1-0.446 1-1v-2c0-0.554-0.446-1-1-1z"/>
 <path id="rect3933" style="fill:url(#linearGradient7261)" d="m76.244 103.35c-0.554 0-1 0.446-1 1v2c0 0.554 0.446 1 1 1s1-0.446 1-1v-2c0-0.554-0.446-1-1-1z"/>
 <path id="path3777" style="opacity:.2" d="m44.244 104.35a6 6 0 0 1 -12 0 6 6 0 1 1 12 0z"/>
 <path id="path3775" style="opacity:.6" d="m43.244 104.35a5 5 0 1 1 -10 0 5 5 0 1 1 10 0z"/>
 <path id="path3235" style="stroke:url(#linearGradient7242);stroke-linecap:square;stroke-width:3;fill:url(#linearGradient7240)" d="m41.744 103.35a3.5 3.5 0 0 1 -7 0 3.5 3.5 0 1 1 7 0z"/>
 <path id="path2993" style="stroke:url(#linearGradient7237);stroke-linecap:square;fill:none" d="m38.244 99.838a3.5089 3.5089 0 1 1 0 7.0178 3.5089 3.5089 0 1 1 0 -7.0178z"/>
 <path id="path3793" style="opacity:.2" d="m94.244 104.35a6 6 0 0 1 -12 0 6 6 0 1 1 12 0z"/>
 <path id="path3795" style="opacity:.6" d="m93.244 104.35a5 5 0 1 1 -10 0 5 5 0 1 1 10 0z"/>
 <path id="path3797" style="stroke:url(#linearGradient7226);stroke-linecap:square;stroke-width:3;fill:url(#linearGradient7224)" d="m91.744 103.35a3.5 3.5 0 0 1 -7 0 3.5 3.5 0 1 1 7 0z"/>
 <path id="path3800" style="stroke:url(#linearGradient7221);stroke-linecap:square;fill:none" d="m88.244 99.838a3.5089 3.5089 0 1 1 0 7.0178 3.5089 3.5089 0 1 1 0 -7.0178z"/>
 <path id="path3692" d="m27.244 109.35v1c0 2.216 1.784 4 4 4h64c2.216 0 4-1.784 4-4v-1c0 2.216-1.784 4-4 4h-64c-2.216 0-4-1.784-4-4z" style="opacity:.2"/>
</svg>
