<?xml version="1.0" encoding="UTF-8" standalone="no"?>
<!-- Created with Inkscape (http://www.inkscape.org/) -->
<svg id="svg3449" xmlns:rdf="http://www.w3.org/1999/02/22-rdf-syntax-ns#" xmlns="http://www.w3.org/2000/svg" height="128" width="128" version="1.0" xmlns:cc="http://creativecommons.org/ns#" xmlns:xlink="http://www.w3.org/1999/xlink" xmlns:dc="http://purl.org/dc/elements/1.1/">
 <metadata id="metadata56">
  <rdf:RDF>
   <cc:Work rdf:about="">
    <dc:format>image/svg+xml</dc:format>
    <dc:type rdf:resource="http://purl.org/dc/dcmitype/StillImage"/>
    <dc:title/>
   </cc:Work>
  </rdf:RDF>
 </metadata>
 <defs id="defs3451">
  <linearGradient id="linearGradient3514" y2="-9.1034" gradientUnits="userSpaceOnUse" x2="66.492" gradientTransform="matrix(.96826 0 0 .97948 2.179 .16587)" y1="-42.638" x1="67.952">
   <stop id="stop4620" style="stop-color:#37414b" offset="0"/>
   <stop id="stop4622" style="stop-color:#37414b;stop-opacity:0" offset="1"/>
  </linearGradient>
  <linearGradient id="linearGradient3516" y2="-11.847" gradientUnits="userSpaceOnUse" x2="58.98" gradientTransform="matrix(.96826 0 0 .97948 2.179 .16587)" y1="-118.55" x1="57.173">
   <stop id="stop4596" offset="0"/>
   <stop id="stop4598" style="stop-opacity:0" offset="1"/>
  </linearGradient>
  <linearGradient id="linearGradient3519" y2="50.369" gradientUnits="userSpaceOnUse" x2="76.558" gradientTransform="matrix(.96826 0 0 .97948 3.2423 -129.19)" y1="13.164" x1="76.558">
   <stop id="stop3392" style="stop-color:#425e7b" offset="0"/>
   <stop id="stop3394" style="stop-color:#7a91a7" offset="1"/>
  </linearGradient>
  <linearGradient id="linearGradient3521" y2="-8.7399" gradientUnits="userSpaceOnUse" x2="60.217" gradientTransform="matrix(.96826 0 0 .97948 2.179 .16587)" y1="-123.72" x1="60.395">
   <stop id="stop3392-4-8" style="stop-color:#425e7b" offset="0"/>
   <stop id="stop3394-8-0" style="stop-color:#7a91a7" offset="1"/>
  </linearGradient>
  <radialGradient id="radialGradient3349" gradientUnits="userSpaceOnUse" cy="45.647" cx="42.148" gradientTransform="matrix(.94690 0 0 1.139 3.5954 -29.89)" r="58.984">
   <stop id="stop2699-5" style="stop-color:#e0b586" offset="0"/>
   <stop id="stop2701-7" style="stop-color:#d7a167" offset="1"/>
  </radialGradient>
 </defs>
 <rect id="rect892" style="stroke:url(#linearGradient3521);stroke-width:.97385;fill:url(#linearGradient3519)" transform="scale(1,-1)" ry="29.296" height="115.54" width="114.22" y="-122.25" x="7.0394"/>
 <rect id="rect892-2" style="stroke:url(#linearGradient3516);stroke-width:.97385;fill:url(#linearGradient3514)" transform="scale(1,-1)" ry="28.993" height="114.35" width="114.22" y="-121.46" x="7.0599"/>
 <path id="rect895" style="fill:url(#radialGradient3349)" d="m33.051 7.2596c-7.969-2.4493-27.013 15.174-25.653 23.038-0.050142 0.97378-0.088772 1.9648-0.088772 2.9572v52.419c0 20.876 10.712 33.859 22.318 33.859h67.038c12.638 0 24.318-11.245 24.318-25.859v-64.017c0.7-10.928-21.283-24.659-25.926-22.618-47.846 0.8653-18.017 0.2236-62.003 0.2236z"/>
 <rect id="rect892-2-7-8" style="opacity:.15891;stroke:#000;stroke-width:4.8445;fill:none" transform="scale(1,-1)" ry="28.993" height="114.35" width="114.22" y="-121.16" x="6.8687"/>
 <rect id="rect892-2-7-1" style="opacity:.15891;stroke:#000;stroke-width:7.7512;fill:none" transform="scale(1,-1)" ry="28.993" height="114.35" width="114.22" y="-121.16" x="6.8687"/>
 <rect id="rect892-2-7-2-9" ry="28.067" style="stroke:#000;stroke-width:1.0489;fill:none" transform="scale(1,-1)" height="112.71" width="114.14" y="-120.31" x="7.0649"/>
 <path id="path1187" style="fill:#fff;fill-opacity:.057143" d="m33.017 7.2319c-23.707 0-26.027 0.6738-25.93 26.295-0.04334 0.71563-0.07674 1.4439-0.07674 2.1732v32.76c18.67-38.321 38.34-51.497 90.374-61.179-0.225-0.026-0.46-0.0303-0.691-0.0303-41.576 0.3874-25.652-0.0188-63.676-0.0188z"/>
 <path id="path5452" style="fill:#fff" d="m19.162 86.039c-0.36954-0.59793-0.15236-1.6067 0.48262-2.2416 0.87268-0.87268 1.3724-0.80204 2.0469 0.28938 0.95311 1.5422 0.4725 3.0394-0.97566 3.0394-0.48508 0-1.1843-0.48921-1.5538-1.0871zm8 0c-0.36954-0.59793-0.15236-1.6067 0.48262-2.2416 0.87268-0.87268 1.3724-0.80204 2.0469 0.28938 0.95311 1.5422 0.4725 3.0394-0.97566 3.0394-0.48508 0-1.1843-0.48921-1.5538-1.0871zm-9.3354-9.4732c-3.4103-2.8696-4.7579-7.6326-3.2365-11.44 0.98118-2.4553 1.0002-2.4426 1.0624 0.71104 0.10401 5.2686 3.2099 7.289 11.205 7.289 9.7245 0 14.404-2.6425 10.467-5.9103-4.163-3.455-0.95205-10.09 4.883-10.09 2.7474 0 3.7341 0.62825 5.5168 3.5126 2.4627 3.9847 5.1331 5.7542 7.3817 4.8914 1.7297-0.66375 2.1695-1.8945 3.0842-8.6307 0.35301-2.5997 1.0239-4.9628 1.4908-5.2514 0.46693-0.28858 0.60993 0.38938 0.31778 1.5066-0.63968 2.4461 2.2042 10.3 4.3849 12.11 1.3156 1.0918 1.8594 0.92904 3.4474-1.032 1.0649-1.3151 1.892-3.912 1.9007-5.9676 0.008-2.0016 0.45153-4.3142 0.98469-5.1392 0.73396-1.1357 0.97309-0.69866 0.98469 1.7997 0.0323 6.9502 4.8134 12.2 11.111 12.2 2.9447 0 4.9475-1.0632 10.36-5.5 3.6904-3.025 7.2127-5.5 7.8271-5.5 0.69844 0 0.76113-0.33555 0.16725-0.89513-0.5225-0.49232-3.9862-1.0761-7.6972-1.2972-9.9921-0.59545-10.775-2.4475-1.4066-3.3254 6.677-0.62568 8.1013-0.44403 12.244 1.5616l4.6884 2.2696-3.6485 1.8718c-2.0067 1.0295-6.007 4.3729-8.8895 7.4298-5.7971 6.1478-9.3299 8.385-13.241 8.385-2.9807 0-7.5428-2.1417-9.4453-4.4341-1.6504-1.9887-3.0547-2.0091-3.0547-0.0445 0 0.83679-1.1354 2.0388-2.523 2.671-2.1136 0.96301-2.967 0.82135-5.2586-0.87292-2.7295-2.018-2.7415-2.0181-5.3899-0.0408-4.0478 3.0221-7.5107 1.6938-9.948-3.8161-1.5444-3.4913-2.4952-4.4627-4.3682-4.4627-3.4481 0-4.056 1.7922-1.5226 4.489 1.6042 1.7076 2.0064 2.9726 1.4865 4.676-1.7784 5.8269-7.3511 8.8351-16.367 8.8351-4.9308 0-6.4788-0.44046-8.9981-2.5603zm49.547 1.8849c-0.36189-0.3619-0.65799-1.258-0.65799-1.9913 0-1.4897 2.5779-1.8254 3.43-0.44664 0.68055 1.1012-1.8676 3.3423-2.772 2.438zm8 0c-0.36189-0.3619-0.65799-1.258-0.65799-1.9913 0-1.4897 2.5779-1.8254 3.43-0.44664 0.68055 1.1012-1.8676 3.3423-2.772 2.438zm23.462-5.6796c-0.87143-1.05-0.81537-1.6532 0.23464-2.5247 1.05-0.87143 1.6532-0.81537 2.5247 0.23464 0.87143 1.05 0.81537 1.6532-0.23464 2.5247-1.05 0.87143-1.6532 0.81537-2.5247-0.23464zm-39.674-28.732c-1.0305-1.6674 1.2872-3.5795 2.6667-2.2 1.1539 1.1539 0.43172 3.2871-1.1129 3.2871-0.48508 0-1.1843-0.48921-1.5538-1.0871z"/>
 <path id="path5442" d="m-279.48-109.21 0.0218-38.616h11 11v21l0.0636 17.409c-12.043-0.12267-4.3648-0.0763-22.085 0.20619zm33.022-42.661v-25.964l9.75-0.28621 9.75-0.28621 0.30226-5.25 0.30226-5.25h-10.552-10.552v-10.5-10.5h20.5 20.5v26.5 26.5h-10.052-10.052l0.30226 5.25 0.30226 5.25 10.25 0.28498 10.25 0.28499v9.965 9.965h-20.5-20.5zm-32-49.536v-23.5h9 9v23.5 23.5h-9-9z"/>
 <path id="path5434" d="m-252.53 480.72c-10.283-3.6748-17.91-11.607-21.027-21.87-5.7431-18.908 2.5131-38.373 19.065-44.95 8.3322-3.3107 20.616-3.1517 28.2 0.36489 7.5952 3.5222 13.258 8.8695 16.6 15.675 2.5282 5.1482 2.7798 6.6562 2.7798 16.661 0 10.024-0.24854 11.506-2.8004 16.703-3.5063 7.1402-11.029 14.029-18.286 16.744-6.3947 2.3926-18.77 2.7322-24.532 0.67317zm23.118-7.6961c10.112-4.5678 16.005-14.225 15.994-26.211-0.003-3.4169-0.47108-7.8886-1.04-9.9372-1.5812-5.6933-6.9054-11.939-12.99-15.238-4.6567-2.5249-6.5731-2.9662-12.964-2.9854-11.993-0.0359-20.716 5.2648-25.402 15.437-3.2281 7.0067-2.9507 19.845 0.57286 26.511 5.2501 9.9332 12.862 14.456 24.329 14.456 4.8951 0 8.3532-0.61125 11.5-2.0328zm-25.545-68.378c-2.9986-2.9986-3.1037-5.4504-0.38197-8.9106 2.6775-3.4039 7.9324-3.6193 10.888-0.4463 2.6006 2.7914 2.5894 5.842-0.0336 9.1766-2.7094 3.4444-7.1326 3.5206-10.473 0.18032zm20.275 1.2045c-4.3732-3.3066-3.7036-10.69 1.1519-12.701 7.4914-3.103 13.4 5.7602 7.6644 11.496-2.6788 2.6788-6.2257 3.1634-8.8164 1.2045z"/>
 <path id="path5438" d="m-371.19 251.19c-7.7678-3.1956-12.658-7.196-17.001-13.908-4.617-7.136-6.3272-13.967-5.6611-22.61 0.66671-8.651 3.5276-14.975 9.7507-21.555 6.1642-6.5178 14.251-10.403 23.439-11.261 3.6036-0.33651 6.5519-0.36471 6.5519-0.0627 0 0.30203-2.4133 1.9111-5.3629 3.5758-6.2637 3.535-11.105 9.6321-13.17 16.588-1.8551 6.2467-1.849 9.9264 0.0267 16.243 5.6028 18.867 28.692 26.582 44.186 14.765 2.6463-2.0184 3.1584-2.1586 2.6269-0.71906-2.6709 7.2341-9.6949 14.138-18.737 18.415-7.9975 3.7835-18.246 3.9874-26.649 0.53027zm65.08-35.157c0-0.91667 0.5625-1.4792 1.25-1.25 1.4157 0.47189 1.26 2.08-0.25 2.5833-0.55 0.18334-1-0.41666-1-1.3333zm-13-23c0-0.825 0.45-1.5 1-1.5s1 0.675 1 1.5-0.45 1.5-1 1.5-1-0.675-1-1.5zm19-16.5c0-0.55 0.675-1 1.5-1s1.5 0.45 1.5 1-0.675 1-1.5 1-1.5-0.45-1.5-1zm-34-11.5c0-0.91667 0.5625-1.4792 1.25-1.25 1.4157 0.47189 1.26 2.08-0.25 2.5833-0.55 0.18334-1-0.41666-1-1.3333z"/>
 <path id="path5436" d="m-185.71 202.56c-3.0886-2.8305-3.6505-4.0028-3.7353-7.7935-0.1562-6.9785 2.8861-10.58 10.4-12.313 1.375-0.31704 3.4-2.0189 4.5-3.7819 3.2378-5.1893 7.9656-7.7801 14.198-7.7801 2.971 0 6.6758 0.65884 8.233 1.4641 4.1757 2.1594 7.9344 7.114 9.1952 12.121 1.04 4.1303 1.3297 4.4149 4.493 4.4149 3.7766 0 6.9852 2.5738 7.9372 6.3669 0.80854 3.2215-1.9948 8.4693-5.1689 9.6761-1.3845 0.52637-12.395 0.95704-24.467 0.95704h-21.95zm52.989-18.089c-3.1955-1.5914-4.5635-3.0734-5.8257-6.3114-2.0639-5.2947-9.414-11.899-14.881-13.371-3.628-0.97692-10.41-0.87259-14.549 0.22381-2.0459 0.54198-4.2671-9.2598-3.5918-15.85 1.2737-12.431 9.1161-24.043 19.659-29.11 5.2336-2.5153 14.561-4.314 17.875-3.4472 2.0731 0.54212 2.0223 0.65354-0.84769 1.8603-5.0229 2.112-11.77 9.0897-14.214 14.7-8.4715 19.448 7.5946 41.602 28.598 39.434 5.1321-0.52968 12.299-3.4868 15.703-6.4788 2.5869-2.2742 2.1285-0.21577-1.0747 4.8257-4.649 7.3171-13.354 13.847-20.175 15.134-1.4073 0.26548-4.3253-0.43738-6.6762-1.6081z"/>
</svg>
