<?xml version="1.0" encoding="UTF-8" standalone="no"?>
<!-- Created with Inkscape (http://www.inkscape.org/) -->
<svg id="svg4511" xmlns:rdf="http://www.w3.org/1999/02/22-rdf-syntax-ns#" xmlns="http://www.w3.org/2000/svg" height="48px" width="48px" version="1.1" xmlns:cc="http://creativecommons.org/ns#" xmlns:xlink="http://www.w3.org/1999/xlink" xmlns:dc="http://purl.org/dc/elements/1.1/">
 <defs id="defs4513">
  <filter id="filter3174" color-interpolation-filters="sRGB">
   <feGaussianBlur id="feGaussianBlur3176" stdDeviation="1.71"/>
  </filter>
  <linearGradient id="linearGradient3254" y2="7.0165" gradientUnits="userSpaceOnUse" x2="45.448" gradientTransform="matrix(1.0059 0 0 .99417 -175.86 -30.712)" y1="92.54" x1="45.448">
   <stop id="stop3750" offset="0"/>
   <stop id="stop3752" style="stop-opacity:.58824" offset="1"/>
  </linearGradient>
  <filter id="filter3174-7" color-interpolation-filters="sRGB">
   <feGaussianBlur id="feGaussianBlur3176-58" stdDeviation="1.71"/>
  </filter>
  <linearGradient id="linearGradient8374" y2="7.0165" gradientUnits="userSpaceOnUse" x2="45.448" gradientTransform="matrix(1.0059 0 0 .99417 108.29 -24.643)" y1="92.54" x1="45.448">
   <stop id="stop3750-50" offset="0"/>
   <stop id="stop3752-42" style="stop-opacity:.58824" offset="1"/>
  </linearGradient>
  <filter id="filter3174-41" color-interpolation-filters="sRGB">
   <feGaussianBlur id="feGaussianBlur3176-9" stdDeviation="1.71"/>
  </filter>
  <linearGradient id="ButtonShadow-6" x1="45.448" gradientUnits="userSpaceOnUse" y1="92.54" gradientTransform="scale(1.0059 .99417)" x2="45.448" y2="7.0165">
   <stop id="stop3750-9" offset="0"/>
   <stop id="stop3752-33" style="stop-opacity:.58824" offset="1"/>
  </linearGradient>
  <filter id="filter3174-57" color-interpolation-filters="sRGB">
   <feGaussianBlur id="feGaussianBlur3176-42" stdDeviation="1.71"/>
  </filter>
  <filter id="filter3174-76" color-interpolation-filters="sRGB">
   <feGaussianBlur id="feGaussianBlur3176-51" stdDeviation="1.71"/>
  </filter>
  <filter id="filter3174-3" color-interpolation-filters="sRGB">
   <feGaussianBlur id="feGaussianBlur3176-47" stdDeviation="1.71"/>
  </filter>
  <filter id="filter3174-65" color-interpolation-filters="sRGB">
   <feGaussianBlur id="feGaussianBlur3176-0" stdDeviation="1.71"/>
  </filter>
  <linearGradient id="linearGradient10848" y2="-23.714" gradientUnits="userSpaceOnUse" x2="46.689" y1="-23.714" x1="2">
   <stop id="stop4329" style="stop-color:#f0f0f0" offset="0"/>
   <stop id="stop4331" style="stop-color:#b4b4b4" offset="1"/>
  </linearGradient>
  <linearGradient id="linearGradient10968" y2="7.0165" gradientUnits="userSpaceOnUse" x2="45.448" gradientTransform="matrix(1.0059 0 0 .99417 88.061 -64.071)" y1="92.54" x1="45.448">
   <stop id="stop3750-53" offset="0"/>
   <stop id="stop3752-85" style="stop-opacity:.58824" offset="1"/>
  </linearGradient>
  <linearGradient id="linearGradient4327-0">
   <stop id="stop4329-1" style="stop-color:#f0f0f0" offset="0"/>
   <stop id="stop4331-2" style="stop-color:#b4b4b4" offset="1"/>
  </linearGradient>
  <linearGradient id="linearGradient11027" y2="-23.714" xlink:href="#linearGradient4327-0" gradientUnits="userSpaceOnUse" y1="-23.714" gradientTransform="translate(.084022 .11383)" x2="46.689" x1="2"/>
  <linearGradient id="linearGradient11061" y2="-23.714" gradientUnits="userSpaceOnUse" y1="-23.714" gradientTransform="translate(.037143 -2.7143)" x2="46.689" x1="2">
   <stop id="stop4629" style="stop-color:#5e89d8" offset="0"/>
   <stop id="stop4633" style="stop-color:#5e89d8" offset="1"/>
  </linearGradient>
  <linearGradient id="linearGradient11086" y2="-24.286" gradientUnits="userSpaceOnUse" x2="46.327" gradientTransform="translate(.39955)" y1="-24.286" x1="1.5305">
   <stop id="stop3226" style="stop-color:#4d6490" offset="0"/>
   <stop id="stop3228" style="stop-color:#4d6490" offset="1"/>
  </linearGradient>
  <linearGradient id="linearGradient11109" y2="-23.714" xlink:href="#linearGradient4327-0" gradientUnits="userSpaceOnUse" y1="-23.714" gradientTransform="translate(.35675 .62270)" x2="46.689" x1="2"/>
  <linearGradient id="linearGradient11134" y2="-21.458" xlink:href="#linearGradient4327-0" gradientUnits="userSpaceOnUse" x2="46.773" y1="-21.458" x1="1.9769"/>
  <linearGradient id="linearGradient11142" y2="-23.714" xlink:href="#linearGradient4327-0" gradientUnits="userSpaceOnUse" x2="46.689" y1="-23.714" x1="2"/>
  <linearGradient id="linearGradient11150" y2="-19.535" gradientUnits="userSpaceOnUse" x2="47.046" y1="-19.535" x1="2.7547">
   <stop id="stop3599" style="stop-color:#dcdcdc" offset="0"/>
   <stop id="stop3601" style="stop-color:#f5f5f5" offset="1"/>
  </linearGradient>
  <filter id="filter3174-34" color-interpolation-filters="sRGB">
   <feGaussianBlur id="feGaussianBlur3176-01" stdDeviation="1.71"/>
  </filter>
  <linearGradient id="linearGradient4603" y2="7.0165" gradientUnits="userSpaceOnUse" x2="45.448" gradientTransform="matrix(1.0059 0 0 .99417 -25.979 57.897)" y1="92.54" x1="45.448">
   <stop id="stop3750-96" offset="0"/>
   <stop id="stop3752-39" style="stop-opacity:.58824" offset="1"/>
  </linearGradient>
  <filter id="filter3174-2" color-interpolation-filters="sRGB">
   <feGaussianBlur id="feGaussianBlur3176-44" stdDeviation="1.71"/>
  </filter>
  <filter id="filter4180-8" height="3.8298" width="1.2289" color-interpolation-filters="sRGB" y="-1.4149" x="-.11445">
   <feGaussianBlur id="feGaussianBlur4182-1" stdDeviation="3.5372897"/>
  </filter>
  <radialGradient id="radialGradient4138-7" cx="48" gradientUnits="userSpaceOnUse" cy="84" r="30" gradientTransform="matrix(1.0667 0 0 .066667 -3.2 77.4)">
   <stop id="stop3315-1" style="stop-color:#4dbeff" offset="0"/>
   <stop id="stop4186-5" style="stop-color:#1379ff;stop-opacity:.65041" offset=".67213"/>
   <stop id="stop3317-6" style="stop-color:#06f;stop-opacity:0" offset="1"/>
  </radialGradient>
  <filter id="filter3174-1" color-interpolation-filters="sRGB">
   <feGaussianBlur id="feGaussianBlur3176-512" stdDeviation="1.71"/>
  </filter>
  <filter id="filter4180-5" height="3.8298" width="1.2289" color-interpolation-filters="sRGB" y="-1.4149" x="-.11445">
   <feGaussianBlur id="feGaussianBlur4182-16" stdDeviation="3.5372897"/>
  </filter>
  <filter id="filter3174-10" color-interpolation-filters="sRGB">
   <feGaussianBlur id="feGaussianBlur3176-017" stdDeviation="1.71"/>
  </filter>
  <filter id="filter3174-93" color-interpolation-filters="sRGB">
   <feGaussianBlur id="feGaussianBlur3176-3" stdDeviation="1.71"/>
  </filter>
  <filter id="filter4180-7" height="3.8298" width="1.2289" color-interpolation-filters="sRGB" y="-1.4149" x="-.11445">
   <feGaussianBlur id="feGaussianBlur4182-6" stdDeviation="3.5372897"/>
  </filter>
  <filter id="filter3174-19" color-interpolation-filters="sRGB">
   <feGaussianBlur id="feGaussianBlur3176-19" stdDeviation="1.71"/>
  </filter>
  <linearGradient id="linearGradient3908" x1="5" gradientUnits="userSpaceOnUse" y1="64" gradientTransform="matrix(-.52730 .52730 -.52730 -.52730 123.49 79)" x2="123" y2="64">
   <stop id="stop3249" style="stop-color:#fff;stop-opacity:0" offset="0"/>
   <stop id="stop3255" style="stop-color:#ffdc4f;stop-opacity:0" offset="0.3"/>
   <stop id="stop3295" style="stop-color:#f685af;stop-opacity:.43922" offset=".5"/>
   <stop id="stop3257" style="stop-color:#ffdc4f;stop-opacity:0" offset="0.7"/>
   <stop id="stop3253" style="stop-color:#fff;stop-opacity:0" offset="1"/>
  </linearGradient>
  <filter id="filter3174-31" color-interpolation-filters="sRGB">
   <feGaussianBlur id="feGaussianBlur3176-76" stdDeviation="1.71"/>
  </filter>
  <linearGradient id="linearGradient13399" x1="69.649" xlink:href="#ButtonShadow-6" gradientUnits="userSpaceOnUse" y1="89.131" gradientTransform="matrix(1.8663 0 0 2.2236 160.55 -78.137)" x2="69.016" y2="34.714"/>
  <filter id="filter3222" color-interpolation-filters="sRGB">
   <feGaussianBlur id="feGaussianBlur3224" stdDeviation="1.27575"/>
  </filter>
  <radialGradient id="radialGradient2924" cx="59.894" gradientUnits="userSpaceOnUse" cy="61.922" r="33.714" gradientTransform="matrix(1 0 0 .83754 0 10.06)">
   <stop id="stop3344" style="stop-opacity:0" offset="0"/>
   <stop id="stop3350" style="stop-opacity:0" offset="0.85"/>
   <stop id="stop2810" style="stop-opacity:.65625" offset="1"/>
  </radialGradient>
  <linearGradient id="linearGradient2926" x1="26.18" gradientUnits="userSpaceOnUse" y1="61.922" x2="93.608" y2="61.922">
   <stop id="stop3332" style="stop-color:#fff;stop-opacity:.20312" offset="0"/>
   <stop id="stop3334" style="stop-color:#fff;stop-opacity:.67969" offset="1"/>
  </linearGradient>
  <linearGradient id="linearGradient2928" x1="25.22" gradientUnits="userSpaceOnUse" y1="61.922" x2="94.568" y2="61.922">
   <stop id="stop3364" style="stop-color:#4d4d4d" offset="0"/>
   <stop id="stop3366" style="stop-color:#fff" offset="1"/>
  </linearGradient>
  <linearGradient id="linearGradient13393" x1="73.016" gradientUnits="userSpaceOnUse" y1="89.131" gradientTransform="matrix(1.3461 0 0 1.617 -24.621 -21.393)" x2="73.016" y2="34.607">
   <stop id="stop2788" style="stop-color:#d5aed1" offset="0"/>
   <stop id="stop2790" style="stop-color:#f9ecd2" offset="1"/>
  </linearGradient>
  <linearGradient id="linearGradient13390" x1="5" gradientUnits="userSpaceOnUse" y1="64" gradientTransform="matrix(.52730 .52730 -.52730 .52730 56 11.506)" x2="123" y2="64">
   <stop id="stop3235" style="stop-color:#fff;stop-opacity:0" offset="0"/>
   <stop id="stop3297" style="stop-color:#fff;stop-opacity:0" offset="0.3"/>
   <stop id="stop3241" style="stop-color:#fff" offset=".5"/>
   <stop id="stop3299" style="stop-color:#fff;stop-opacity:0" offset="0.7"/>
   <stop id="stop3237" style="stop-color:#fff;stop-opacity:0" offset="1"/>
  </linearGradient>
  <linearGradient id="linearGradient13387" x1="5" xlink:href="#linearGradient3265" gradientUnits="userSpaceOnUse" y1="64" gradientTransform="matrix(-.38603 .63801 -.63801 -.38603 121.54 62.873)" x2="123" y2="64"/>
  <linearGradient id="linearGradient3265">
   <stop id="stop3267" style="stop-color:#fff;stop-opacity:0" offset="0"/>
   <stop id="stop3269" style="stop-color:#add8e4;stop-opacity:0" offset="0.35"/>
   <stop id="stop3271" style="stop-color:#a3d2e0;stop-opacity:.45098" offset=".5"/>
   <stop id="stop3273" style="stop-color:#add8e4;stop-opacity:0" offset="0.65"/>
   <stop id="stop3882" style="stop-color:#fff;stop-opacity:0" offset="1"/>
  </linearGradient>
  <linearGradient id="linearGradient13384" x1="5" xlink:href="#linearGradient3265" gradientUnits="userSpaceOnUse" y1="64" gradientTransform="matrix(-.65332 .35952 -.35952 -.65332 120.82 97.803)" x2="123" y2="64"/>
  <linearGradient id="linearGradient13921" x1="50.875" gradientUnits="userSpaceOnUse" y1="34.75" x2="50.875" y2="79.819">
   <stop id="stop13372" style="stop-color:#fff" offset="0"/>
   <stop id="stop13374" style="stop-color:#fff;stop-opacity:0" offset="1"/>
  </linearGradient>
  <linearGradient id="linearGradient12520" y2="7.0165" xlink:href="#ButtonShadow-6" gradientUnits="userSpaceOnUse" x2="45.448" gradientTransform="scale(1.0059 .99417)" y1="92.54" x1="45.448"/>
  <filter id="filter3174-75" color-interpolation-filters="sRGB">
   <feGaussianBlur id="feGaussianBlur3176-2" stdDeviation="1.71"/>
  </filter>
  <filter id="filter3174-0" color-interpolation-filters="sRGB">
   <feGaussianBlur id="feGaussianBlur3176-92" stdDeviation="1.71"/>
  </filter>
  <filter id="filter3174-45" color-interpolation-filters="sRGB">
   <feGaussianBlur id="feGaussianBlur3176-18" stdDeviation="1.71"/>
  </filter>
  <clipPath id="clipPath3788-3">
   <path id="path3790-1" d="m-84 12c-2.216 0-4 1.784-4 4v52c0 2.216 1.784 4 4 4h64c2.216 0 4-1.784 4-4v-52c0-2.216-1.784-4-4-4h-64zm24.969 14c2.8316-0.01228 5.6827 0.92281 7.8438 2.8438 4.3032 3.8251 4.3032 10.05 0 13.875-4.3032 3.8251-11.291 3.8251-15.594 0-2.8814-2.5613-3.8211-6.2034-2.8438-9.4688l6.75 6 7.7812-6.9375-6.75-5.9688c0.91839-0.21718 1.8686-0.33966 2.8125-0.34375zm12.875 14.25 10.531 9.375c2.1583 1.9185 2.1583 5.019 0 6.9375s-5.623 1.9185-7.7812 0l-10.562-9.375c1.7121-0.59717 3.3352-1.5201 4.7188-2.75s2.4219-2.6656 3.0938-4.1875zm6.656 10.406c-0.70501 0-1.4308 0.24061-1.9688 0.71875-1.0758 0.95627-1.0758 2.5125 0 3.4688 1.0758 0.95627 2.8304 0.95627 3.9062 0 1.0758-0.95628 1.0758-2.5125 0-3.4688-0.5379-0.47814-1.2325-0.71875-1.9375-0.71875z" style="fill:#803300"/>
  </clipPath>
  <filter id="filter3784-6" height="1.51" width="1.4533" color-interpolation-filters="sRGB" y="-.255" x="-.22667">
   <feGaussianBlur id="feGaussianBlur3786-3" stdDeviation="3.4"/>
  </filter>
  <linearGradient id="linearGradient3761-3-6" x1="47.495" gradientUnits="userSpaceOnUse" y1="58.697" gradientTransform="matrix(1.1748 0 0 1.2446 -8.3889 -8.2735)" x2="47.495" y2="26.072">
   <stop id="stop3769-3-1" style="stop-color:#4d4d4d;stop-opacity:.70732" offset="0"/>
   <stop id="stop3771-15-7" style="stop-color:#4d4d4d;stop-opacity:.31373" offset="1"/>
  </linearGradient>
 </defs>
 <metadata id="metadata4516">
  <rdf:RDF>
   <cc:Work rdf:about="">
    <dc:format>image/svg+xml</dc:format>
    <dc:type rdf:resource="http://purl.org/dc/dcmitype/StillImage"/>
    <dc:title/>
   </cc:Work>
  </rdf:RDF>
 </metadata>
 <g id="layer1">
  <rect id="rect810-9" style="opacity:.52991;stroke:#000;fill:#333" transform="scale(1,-1)" ry="10.607" height="43.689" width="43.689" y="-46.112" x="2.5506"/>
  <rect id="rect810" style="stroke:url(#linearGradient11142);fill:url(#linearGradient10848)" transform="scale(1,-1)" ry="10.607" height="43.689" width="43.689" y="-45.559" x="2.5"/>
  <rect id="rect3745" style="opacity:.9;filter:url(#filter3174);display:none;fill:url(#linearGradient3254)" rx="6" ry="6" height="85" width="86" y="-23.712" x="-170.86"/>
  <rect id="rect3745-1" style="opacity:.9;filter:url(#filter3174-7);display:none;fill:url(#linearGradient8374)" rx="6" ry="6" height="85" width="86" y="-17.643" x="113.29"/>
  <g id="layer2" style="display:none" transform="translate(-111.44 -124.36)">
   <rect id="rect3745-9" style="opacity:.9;filter:url(#filter3174-41);fill:url(#ButtonShadow-6)" rx="6" ry="6" height="85" width="86" y="7" x="5"/>
  </g>
  <g id="layer2-7" style="display:none" transform="translate(-218.05 -238.16)">
   <rect id="rect3745-2" style="opacity:.9;filter:url(#filter3174-57);fill:url(#ButtonShadow-6)" rx="6" ry="6" height="85" width="86" y="7" x="5"/>
  </g>
  <g id="layer2-1" style="display:none" transform="translate(-106.2 -48.076)">
   <path id="rect3745-24" style="opacity:.9;filter:url(#filter3174-76);fill:url(#ButtonShadow-6)" d="m11 7c-3.324 0-6 2.676-6 6v73c0 3.324 2.676 6 6 6h74c3.324 0 6-2.676 6-6v-73c0-3.324-2.676-6-6-6h-5v2.5c1.4703 0.7406 2.5 2.2424 2.5 4 0 2.484-2.016 4.5-4.5 4.5s-4.5-2.016-4.5-4.5c0-1.7576 1.0297-3.2594 2.5-4v-2.5h-8v2.5c1.4703 0.7406 2.5 2.2424 2.5 4 0 2.484-2.016 4.5-4.5 4.5s-4.5-2.016-4.5-4.5c0-1.7576 1.0297-3.2594 2.5-4v-2.5h-8v2.5c1.4703 0.7406 2.5 2.2424 2.5 4 0 2.484-2.016 4.5-4.5 4.5s-4.5-2.016-4.5-4.5c0-1.7576 1.0297-3.2594 2.5-4v-2.5h-8v2.5c1.4703 0.7406 2.5 2.2424 2.5 4 0 2.484-2.016 4.5-4.5 4.5s-4.5-2.016-4.5-4.5c0-1.7576 1.0297-3.2594 2.5-4v-2.5h-8v2.5c1.4703 0.7406 2.5 2.2424 2.5 4 0 2.484-2.016 4.5-4.5 4.5s-4.5-2.016-4.5-4.5c0-1.7576 1.0297-3.2594 2.5-4v-2.5h-8v2.5c1.4703 0.7406 2.5 2.2424 2.5 4 0 2.484-2.016 4.5-4.5 4.5s-4.5-2.016-4.5-4.5c0-1.7576 1.0297-3.2594 2.5-4v-2.5h-5z"/>
  </g>
  <g id="layer2-0" style="display:none" transform="translate(28.835 -121.51)">
   <rect id="rect3745-5" style="opacity:.9;filter:url(#filter3174-3);fill:url(#ButtonShadow-6)" rx="6" ry="6" height="85" width="86" y="7" x="5"/>
  </g>
  <rect id="rect3745-19" style="opacity:.9;filter:url(#filter3174-65);display:none;fill:url(#linearGradient10968)" rx="6" ry="6" height="85" width="86" y="-57.071" x="93.061"/>
  <rect id="rect810-4-0" style="stroke:url(#linearGradient11086);fill:url(#linearGradient11061)" transform="scale(1,-1)" ry="10.607" height="39.403" width="43.796" y="-43.987" x="2.43"/>
  <rect id="rect810-4" style="stroke:url(#linearGradient11134);fill:url(#linearGradient11027)" transform="scale(1,-1)" ry="10.607" height="39.403" width="43.796" y="-41.159" x="2.4769"/>
  <rect id="rect810-4-8" style="stroke:url(#linearGradient11150);fill:url(#linearGradient11109)" transform="scale(1,-1)" ry="10.607" height="36.373" width="44.099" y="-37.62" x="2.4466"/>
  <rect id="rect3745-51" style="opacity:.9;filter:url(#filter3174-34);display:none;fill:url(#linearGradient4603)" rx="6" ry="6" height="85" width="86" y="64.897" x="-20.979"/>
  <g id="layer2-3" style="display:none" transform="translate(-13.859 48.458)">
   <rect id="rect3745-7" style="opacity:.9;filter:url(#filter3174-2);fill:url(#ButtonShadow-6)" rx="6" ry="6" height="85" width="86" y="7" x="5"/>
  </g>
  <g id="layer2-75" style="display:none" transform="translate(-10.286 84.214)">
   <rect id="rect3745-20" style="opacity:.9;filter:url(#filter3174-1);fill:url(#ButtonShadow-6)" rx="6" ry="6" height="85" width="86" y="7" x="5"/>
  </g>
  <g id="layer5-3" style="display:none" transform="translate(-10.286 84.214)">
   <rect id="rect3323" style="opacity:.6;filter:url(#filter4180-8);display:inline;fill:#06f" rx="6.7435" ry="6" height="6" width="74.179" y="80" x="10.911"/>
   <rect id="rect3311" style="fill:url(#radialGradient4138-7);display:inline" rx="5.8182" ry="4" height="4" width="64" y="81" x="16"/>
  </g>
  <g id="layer2-37" style="display:none" transform="translate(22.857 122.64)">
   <rect id="rect3745-6" style="opacity:.9;filter:url(#filter3174-10);fill:url(#ButtonShadow-6)" rx="6" ry="6" height="85" width="86" y="7" x="5"/>
  </g>
  <g id="layer5-2" style="display:none" transform="translate(22.857 122.64)">
   <rect id="rect3323-7" style="opacity:.6;filter:url(#filter4180-5);display:inline;fill:#06f" rx="6.7435" ry="6" height="6" width="74.179" y="80" x="10.911"/>
   <rect id="rect3311-0" style="fill:url(#radialGradient4138-7);display:inline" rx="5.8182" ry="4" height="4" width="64" y="81" x="16"/>
  </g>
  <g id="layer2-17" style="display:none" transform="translate(15.342 112.14)">
   <rect id="rect3745-4" style="opacity:.9;filter:url(#filter3174-93);fill:url(#ButtonShadow-6)" rx="6" ry="6" height="85" width="86" y="7" x="5"/>
  </g>
  <g id="layer2-19" style="display:none" transform="translate(119.69 80.928)">
   <rect id="rect3745-72" style="opacity:.9;filter:url(#filter3174-19);fill:url(#ButtonShadow-6)" rx="6" ry="6" height="85" width="86" y="7" x="5"/>
  </g>
  <g id="layer5-4" style="display:none" transform="translate(119.69 80.928)">
   <rect id="rect3323-5" style="opacity:.6;filter:url(#filter4180-7);display:inline;fill:#06f" rx="6.7435" ry="6" height="6" width="74.179" y="80" x="10.911"/>
   <rect id="rect3311-1" style="fill:url(#radialGradient4138-7);display:inline" rx="5.8182" ry="4" height="4" width="64" y="81" x="16"/>
  </g>
  <g id="layer2-4" style="display:none" transform="translate(194.03 83.353)">
   <rect id="rect3745-3" style="opacity:.9;filter:url(#filter3174-31);fill:url(#linearGradient12520)" rx="6" ry="6" height="85" width="86" y="7" x="5"/>
  </g>
  <g id="layer5-02" style="display:none" transform="translate(194.03 83.353)">
   <g id="g3836" style="display:inline" transform="matrix(.70718 0 0 .70718 23.398 -22.712)">
    <path id="path3185" style="opacity:.6;fill-rule:evenodd;filter:url(#filter3222);display:inline;fill:url(#linearGradient13399)" transform="matrix(.74180 0 0 .75620 -146.02 35.217)" d="m272.33-0.94868c-33.672 0-61 27.104-61 60.5s27.328 60.5 61 60.5 61-27.104 61-60.5-27.328-60.5-61-60.5zm0 40c11.316-0.000001 20.5 9.184 20.5 20.5s-9.184 20.5-20.5 20.5-20.5-9.184-20.5-20.5 9.184-20.5 20.5-20.5z"/>
    <path id="path3307" style="opacity:.3;fill:#fff;display:inline;fill-rule:evenodd" d="m56 58.416c-11.216 0-20.321 9.105-20.321 20.321s9.105 20.321 20.321 20.321 20.321-9.105 20.321-20.321-9.105-20.321-20.321-20.321zm0 14.355c3.293 0 5.9657 2.6726 5.9657 5.9657 0 3.293-2.6726 5.9657-5.9657 5.9657-3.293 0-5.9657-2.6726-5.9657-5.9657 0-3.293 2.6726-5.9657 5.9657-5.9657z"/>
    <path id="path3328" style="opacity:.5;fill-rule:evenodd;stroke:url(#linearGradient2926);stroke-linecap:round;stroke-width:3.4273;display:inline;fill:url(#radialGradient2924)" transform="matrix(0 .37644 -.45222 0 84.002 56.19)" d="m92.58 61.922a32.686 27.208 0 1 1 -65.371 0 32.686 27.208 0 1 1 65.371 0z"/>
    <path id="path3352" style="opacity:.6;stroke:url(#linearGradient2928);stroke-linecap:round;stroke-width:7.54;display:inline;fill:none" transform="matrix(0 .17111 -.20555 0 68.728 68.488)" d="m92.58 61.922a32.686 27.208 0 1 1 -65.371 0 32.686 27.208 0 1 1 65.371 0z"/>
    <path id="path3170" style="fill:url(#linearGradient13393);display:inline;fill-rule:evenodd" d="m56 34.74c-24.286 0-43.997 19.711-43.997 43.997s19.711 43.997 43.997 43.997 43.997-19.711 43.997-43.997-19.711-43.997-43.997-43.997zm0 28.337c8.6442-0.000001 15.66 7.0156 15.66 15.66 0 8.6442-7.0156 15.66-15.66 15.66-8.6442-0.000002-15.66-7.0156-15.66-15.66 0-8.6442 7.0156-15.66 15.66-15.66z"/>
    <path id="path3230" style="opacity:.6;fill:url(#linearGradient13390);display:inline;fill-rule:evenodd" d="m87.11 47.89c-17.173-17.173-45.048-17.173-62.221 0s-17.173 45.048-0.000001 62.221 45.048 17.173 62.221 0 17.173-45.048 0-62.221zm-20.037 20.037c6.1124 6.1124 6.1124 16.034-0.000007 22.146-6.1124 6.1124-16.034 6.1124-22.146 0-6.1124-6.1124-6.1124-16.034 0-22.146 6.1124-6.1124 16.034-6.1124 22.146 0.000001z"/>
    <path id="path3259" style="opacity:.6;fill:url(#linearGradient13387);display:inline;fill-rule:evenodd" d="m93.643 101.78c12.567-20.783 5.912-47.85-14.867-60.423-20.779-12.572-47.846-5.912-60.419 14.867-12.572 20.779-5.912 47.846 14.867 60.416 20.779 12.58 47.846 5.91 60.419-14.86zm-24.245-14.673c-4.4749 7.3958-14.109 9.7664-21.505 5.2916-7.3958-4.4749-9.7664-14.109-5.2916-21.505 4.4749-7.3958 14.109-9.7664 21.505-5.2916 7.3958 4.4749 9.7664 14.109 5.2915 21.505z"/>
    <path id="path3231" style="opacity:.6;fill:url(#linearGradient13384);display:inline;fill-rule:evenodd" d="m77.212 117.55c21.277-11.71 29.038-38.484 17.334-59.762-11.709-21.277-38.48-29.043-59.758-17.334-21.277 11.709-29.043 38.48-17.334 59.756 11.709 21.277 38.48 29.043 59.757 17.334zm-13.662-24.83c-7.573 4.167-17.102 1.403-21.27-6.17-4.167-7.573-1.403-17.102 6.17-21.27 7.5733-4.1675 17.102-1.4034 21.27 6.1698 4.1675 7.5733 1.4034 17.102-6.1699 21.27z"/>
    <path id="path3243" style="fill:url(#linearGradient3908);display:inline;fill-rule:evenodd" d="m87.11 110.11c17.173-17.173 17.173-45.048 0-62.221s-45.048-17.173-62.221 0-17.173 45.048-0.000001 62.221 45.048 17.173 62.221 0.00001zm-20.037-20.037c-6.1124 6.1124-16.034 6.1124-22.146-0.000003-6.1124-6.1124-6.1124-16.034 0.000002-22.146 6.1124-6.1124 16.034-6.1124 22.146 0 6.1124 6.1124 6.1124 16.034 0 22.146z"/>
    <path id="path3304" style="opacity:.15;stroke:#000;stroke-linecap:round;stroke-width:9.0479;display:inline;fill:none" transform="matrix(.57037 0 0 .68518 21.839 36.309)" d="m92.58 61.922a32.686 27.208 0 1 1 -65.371 0 32.686 27.208 0 1 1 65.371 0z"/>
    <path id="path13401" style="opacity:.8;fill:url(#linearGradient13921);display:inline;fill-rule:evenodd" d="m56 34.75c-24.286-0.000001-44 19.714-44 44 0 21.988 16.168 40.214 37.25 43.469-20.527-3.25-36.25-21.07-36.25-42.501 0-23.736 19.264-43 43-43s43 19.264 43 43c0 21.435-15.723 39.253-36.25 42.5 21.082-3.26 37.25-21.48 37.25-43.47-0.000003-24.286-19.714-44-44-44zm-14.312 50.312c2.1695 5.8155 7.7437 9.9687 14.312 9.9688 6.5688 0 12.143-4.1532 14.312-9.9688-2.4327 5.4945-7.9201 9.3438-14.312 9.3438-6.3924 0-11.88-3.8492-14.312-9.3438z"/>
   </g>
  </g>
  <g id="layer2-8" style="display:none" transform="translate(8.4129 68.678)">
   <rect id="rect3745-62" style="opacity:.9;filter:url(#filter3174-75);fill:url(#ButtonShadow-6)" rx="6" ry="6" height="85" width="86" y="7" x="5"/>
  </g>
  <g id="layer2-15" style="display:none" transform="translate(234.56 .78719)">
   <rect id="rect3745-61" style="opacity:.9;filter:url(#filter3174-0);fill:url(#ButtonShadow-6)" rx="6" ry="6" height="85" width="86" y="7" x="5"/>
  </g>
  <g id="layer2-5" style="display:none" transform="translate(-176.35 -58.254)">
   <rect id="rect3745-44" style="opacity:.9;filter:url(#filter3174-45);fill:url(#ButtonShadow-6)" rx="6" ry="6" height="85" width="86" y="7" x="5"/>
  </g>
  <g id="layer6" transform="matrix(.47830 0 0 .47830 .65580 -2.4031)">
   <path id="path3780" style="opacity:.8;filter:url(#filter3784-6);fill:#fff" d="m-69.626 33.258c-0.97733 3.2654-0.0407 6.8898 2.8407 9.451 4.3032 3.8251 11.28 3.8251 15.583 0 4.3032-3.8251 4.3032-10.027 0-13.852-2.8814-2.5613-6.9588-3.3938-10.632-2.5251l6.7366 5.9881-7.7917 6.9259-6.7366-5.9881zm15.665 13.924 10.551 9.3789c2.1583 1.9185 5.6334 1.9185 7.7917 0s2.1583-5.0075 0-6.9259l-10.551-9.3789c-0.67182 1.5219-1.7006 2.9546-3.0842 4.1844-1.3836 1.2299-2.9954 2.1444-4.7075 2.7415zm12.499 4.1844c1.0758-0.95627 2.82-0.95627 3.8958 0s1.0758 2.5067 0 3.463c-1.0758 0.95627-2.82 0.95627-3.8958 0-1.0758-0.95628-1.0758-2.5067 0-3.463z" clip-path="url(#clipPath3788-3)" transform="matrix(1.1748 0 0 1.2446 109.09 -8.2735)"/>
   <path id="path3739" style="opacity:.7;fill:url(#linearGradient3761-3-6)" d="m27.293 33.12c-1.1481 4.0641-0.04782 8.5751 3.3372 11.763 5.0553 4.7607 13.252 4.7607 18.307 0 5.0553-4.7607 5.0553-12.479 0-17.24-3.385-3.1878-8.175-4.224-12.491-3.1427l7.9139 7.4528-9.1534 8.6201-7.9139-7.4528zm18.402 17.33 12.396 11.673c2.5355 2.3878 6.6179 2.3878 9.1534 0s2.5355-6.2323 0-8.6201l-12.395-11.673c-0.78923 1.8941-1.9978 3.6773-3.6232 5.208s-3.5189 2.6689-5.5302 3.4121zm14.684 5.208c1.2638-1.1902 3.3129-1.1902 4.5767 0s1.2638 3.1199 0 4.31c-1.2638 1.1902-3.3129 1.1902-4.5767 0s-1.2638-3.1199 0-4.31z"/>
   <path id="path3983" style="opacity:.2" d="m39.75 24.094c-1.1088 0.0051-2.2336 0.13594-3.3125 0.40625l0.875 0.8125c4.0778-0.74378 8.4669 0.36967 11.625 3.3438 2.391 2.2516 3.6207 5.1447 3.75 8.0938 0.14011-3.282-1.0892-6.588-3.75-9.0938-2.5387-2.3908-5.861-3.5778-9.1875-3.5625zm4.0938 8.3438-8.625 8.125-7.9375-7.4375c-0.333 1.1787-0.45242 2.383-0.40625 3.5938 0.04249-0.87633 0.16518-1.7404 0.40625-2.5938l7.9375 7.4375 9.1562-8.625-0.53125-0.5zm11 9.4062c-0.78923 1.8941-1.9996 3.6568-3.625 5.1875s-3.5199 2.663-5.5312 3.4062l0.75 0.6875c1.7321-0.7367 3.359-1.7544 4.7812-3.0938 1.6254-1.5307 2.8358-3.2934 3.625-5.1875l12.406 11.655c1.1093 1.0446 1.7363 2.3604 1.875 3.7188 0.118-1.689-0.499-3.423-1.875-4.719l-12.406-11.656zm4.656 16.468c-0.16143 0.93454 0.10978 1.9356 0.875 2.6562 1.2638 1.1902 3.3299 1.1902 4.5938 0 0.76522-0.72063 1.0364-1.7217 0.875-2.6562-0.10518 0.60893-0.37639 1.1867-0.875 1.6562-1.2638 1.1902-3.3299 1.1902-4.5938 0-0.499-0.469-0.77-1.047-0.875-1.656z"/>
   <path id="path3992" style="opacity:.05" d="m39.75 24.094c-1.1088 0.0051-2.2336 0.13594-3.3125 0.40625l7.9375 7.4375-9.1562 8.625-7.9375-7.4375c-1.1481 4.0641-0.04126 8.5622 3.3438 11.75 5.0553 4.7607 13.257 4.7607 18.312 0 5.0553-4.7607 5.0553-12.458 0-17.219-2.5387-2.3908-5.861-3.5778-9.1875-3.5625zm0 1.125c3.0586-0.01405 6.1175 1.0652 8.4375 3.25 4.6199 4.3507 4.6199 11.243 0 15.594-4.6184 4.3493-12.194 4.3493-16.812 0-2.5544-2.4056-3.587-5.5815-3.3125-8.6875l6.4062 6a1.112 1.112 0 0 0 1.5 0l9.156-8.625a1.112 1.112 0 0 0 0 -1.625l-6.1875-5.8125c0.27506-0.01818 0.53808-0.09249 0.8125-0.09375zm15.094 16.625c-0.78923 1.8941-1.9996 3.6568-3.625 5.1875s-3.5199 2.663-5.5312 3.4062l12.406 11.687c2.5355 2.3878 6.6207 2.3878 9.1562 0s2.5355-6.2372 0-8.625l-12.406-11.656zm0.281 1.781 11.375 10.687c2.1013 1.9789 2.1013 5.0211 0 7-2.1016 1.9791-5.5547 1.9791-7.6562 0l-11.25-10.594c1.5646-0.75245 3.0629-1.6393 4.375-2.875 1.3373-1.2594 2.3415-2.702 3.1562-4.2188zm7.5312 10c-1.1067 0-2.1902 0.42671-3.0312 1.2188-1.701 1.6019-1.701 4.3356 0 5.9375 1.7041 1.6048 4.3896 1.6048 6.0938 0 1.701-1.6019 1.701-4.3356 0-5.9375-0.855-0.805-1.956-1.219-3.063-1.219zm0 1.125c0.82822 0 1.6806 0.31116 2.3125 0.90625 1.2638 1.1902 1.2638 3.1223 0 4.3125s-3.3299 1.1902-4.5938 0c-1.2638-1.1902-1.2638-3.1223 0-4.3125 0.632-0.595 1.453-0.906 2.281-0.906z"/>
  </g>
 </g>
</svg>
