<?xml version="1.0" encoding="UTF-8" standalone="no"?>
<!-- Created with Inkscape (http://www.inkscape.org/) -->
<svg id="svg3449" xmlns:rdf="http://www.w3.org/1999/02/22-rdf-syntax-ns#" xmlns="http://www.w3.org/2000/svg" height="128" width="128" version="1.0" xmlns:cc="http://creativecommons.org/ns#" xmlns:xlink="http://www.w3.org/1999/xlink" xmlns:dc="http://purl.org/dc/elements/1.1/">
 <metadata id="metadata56">
  <rdf:RDF>
   <cc:Work rdf:about="">
    <dc:format>image/svg+xml</dc:format>
    <dc:type rdf:resource="http://purl.org/dc/dcmitype/StillImage"/>
    <dc:title/>
   </cc:Work>
  </rdf:RDF>
 </metadata>
 <defs id="defs3451">
  <linearGradient id="linearGradient3514" y2="-9.1034" gradientUnits="userSpaceOnUse" x2="66.492" gradientTransform="matrix(.96826 0 0 .97948 2.179 .16587)" y1="-42.638" x1="67.952">
   <stop id="stop4620" style="stop-color:#37414b" offset="0"/>
   <stop id="stop4622" style="stop-color:#37414b;stop-opacity:0" offset="1"/>
  </linearGradient>
  <linearGradient id="linearGradient3516" y2="-11.847" gradientUnits="userSpaceOnUse" x2="58.98" gradientTransform="matrix(.96826 0 0 .97948 2.179 .16587)" y1="-118.55" x1="57.173">
   <stop id="stop4596" offset="0"/>
   <stop id="stop4598" style="stop-opacity:0" offset="1"/>
  </linearGradient>
  <linearGradient id="linearGradient3519" y2="50.369" gradientUnits="userSpaceOnUse" x2="76.558" gradientTransform="matrix(.96826 0 0 .97948 3.2423 -129.19)" y1="13.164" x1="76.558">
   <stop id="stop3392" style="stop-color:#425e7b" offset="0"/>
   <stop id="stop3394" style="stop-color:#7a91a7" offset="1"/>
  </linearGradient>
  <linearGradient id="linearGradient3521" y2="-8.7399" gradientUnits="userSpaceOnUse" x2="60.217" gradientTransform="matrix(.96826 0 0 .97948 2.179 .16587)" y1="-123.72" x1="60.395">
   <stop id="stop3392-4-8" style="stop-color:#425e7b" offset="0"/>
   <stop id="stop3394-8-0" style="stop-color:#7a91a7" offset="1"/>
  </linearGradient>
  <radialGradient id="radialGradient3349" gradientUnits="userSpaceOnUse" cy="45.647" cx="42.148" gradientTransform="matrix(.94690 0 0 1.139 3.5954 -29.89)" r="58.984">
   <stop id="stop4662" style="stop-color:#666" offset="0"/>
   <stop id="stop4664" style="stop-color:#282828" offset="1"/>
  </radialGradient>
  <filter id="filter3174-5" color-interpolation-filters="sRGB">
   <feGaussianBlur id="feGaussianBlur3176-4" stdDeviation="1.71"/>
  </filter>
  <linearGradient id="ButtonShadow-4" x1="45.448" gradientUnits="userSpaceOnUse" y1="92.54" gradientTransform="scale(1.0059 .99417)" x2="45.448" y2="7.0165">
   <stop id="stop3750-3" offset="0"/>
   <stop id="stop3752-57" style="stop-opacity:.58824" offset="1"/>
  </linearGradient>
  <filter id="filter3174-0" color-interpolation-filters="sRGB">
   <feGaussianBlur id="feGaussianBlur3176-9" stdDeviation="1.71"/>
  </filter>
  <filter id="filter3174-7" color-interpolation-filters="sRGB">
   <feGaussianBlur id="feGaussianBlur3176-7" stdDeviation="1.71"/>
  </filter>
  <clipPath id="clipPath3613-9">
   <rect id="rect3615-2" style="fill:#fff" rx="6" ry="6" height="84" width="84" y="6" x="6"/>
  </clipPath>
  <linearGradient id="linearGradient3613-3" x1="48" gradientUnits="userSpaceOnUse" y1="20.221" x2="48" y2="138.66">
   <stop id="stop3739-03" style="stop-color:#fff" offset="0"/>
   <stop id="stop3741-5" style="stop-color:#fff;stop-opacity:0" offset="1"/>
  </linearGradient>
  <filter id="filter3794-30" height="1.384" width="1.384" color-interpolation-filters="sRGB" y="-.192" x="-.192">
   <feGaussianBlur id="feGaussianBlur3796-38" stdDeviation="5.28"/>
  </filter>
  <filter id="filter3174-8" color-interpolation-filters="sRGB">
   <feGaussianBlur id="feGaussianBlur3176-3" stdDeviation="1.71"/>
  </filter>
  <clipPath id="clipPath3613-26">
   <rect id="rect3615-4" style="fill:#fff" rx="6" ry="6" height="84" width="84" y="6" x="6"/>
  </clipPath>
  <filter id="filter3794-67" height="1.384" width="1.384" color-interpolation-filters="sRGB" y="-.192" x="-.192">
   <feGaussianBlur id="feGaussianBlur3796-4" stdDeviation="5.28"/>
  </filter>
  <filter id="filter3174-4" color-interpolation-filters="sRGB">
   <feGaussianBlur id="feGaussianBlur3176-0" stdDeviation="1.71"/>
  </filter>
  <filter id="filter3174-1" color-interpolation-filters="sRGB">
   <feGaussianBlur id="feGaussianBlur3176-1" stdDeviation="1.71"/>
  </filter>
  <linearGradient id="linearGradient9285" y2="7.0165" gradientUnits="userSpaceOnUse" x2="45.448" gradientTransform="matrix(1.0059 0 0 .99417 -59.657 2.8358)" y1="92.54" x1="45.448">
   <stop id="stop3750-7" offset="0"/>
   <stop id="stop3752-3" style="stop-opacity:.58824" offset="1"/>
  </linearGradient>
  <linearGradient id="linearGradient3861" y2="6" gradientUnits="userSpaceOnUse" x2="17" y1="45" x1="17">
   <stop id="stop2492" style="stop-color:#791235" offset="0"/>
   <stop id="stop2494" style="stop-color:#dd3b27" offset="1"/>
  </linearGradient>
  <linearGradient id="linearGradient65123-9" y2="30.574" gradientUnits="userSpaceOnUse" x2="121.37" gradientTransform="translate(-.011548 -.27755)" y1="30.574" x1="6.7939">
   <stop id="stop4196-3" offset="0"/>
   <stop id="stop4198-7" style="stop-opacity:0" offset="1"/>
  </linearGradient>
  <linearGradient id="linearGradient65177" y2="31.742" gradientUnits="userSpaceOnUse" y1="31.742" gradientTransform="translate(-.011548 -.27755)" x2="121.11" x1="6.5334">
   <stop id="stop4188-2-4" style="stop-color:#fff" offset="0"/>
   <stop id="stop4190-4-7" style="stop-color:#fff;stop-opacity:0" offset="1"/>
  </linearGradient>
  <linearGradient id="linearGradient65222" y2="19.092" xlink:href="#linearGradient3861" gradientUnits="userSpaceOnUse" x2="120.58" y1="19.092" x1="7.0195"/>
  <linearGradient id="linearGradient65224" y2="30.297" xlink:href="#linearGradient3861" gradientUnits="userSpaceOnUse" x2="121.36" y1="30.297" x1="6.7824"/>
 </defs>
 <rect id="rect892" style="stroke:url(#linearGradient3521);stroke-width:.97385;fill:url(#linearGradient3519)" transform="scale(1,-1)" ry="29.296" height="115.54" width="114.22" y="-122.25" x="7.0394"/>
 <rect id="rect892-2" style="stroke:url(#linearGradient3516);stroke-width:.97385;fill:url(#linearGradient3514)" transform="scale(1,-1)" ry="28.993" height="114.35" width="114.22" y="-121.46" x="7.0599"/>
 <path id="rect895" style="fill:url(#radialGradient3349)" d="m30.571 7.0104c-13.128 0.936-22.55 15.04-23.173 23.288-0.050142 0.97378-0.088772 1.9648-0.088772 2.9572v58.419c0 15.229 11.191 27.859 22.318 27.859h67.038c15.69 0 24.318-16.445 24.318-25.859v-64.017c-0.21-5.933-12.29-21.682-25.926-22.618-47.846 0.8653-20.497-0.0256-64.483-0.0256z"/>
 <path id="path4159-5" style="stroke:url(#linearGradient65177);stroke-width:1px;fill:none" d="m7.0219 31.464h113.58z"/>
 <rect id="rect892-2-7-8" style="opacity:.15891;stroke:#000;stroke-width:4.8445;fill:none" transform="scale(1,-1)" ry="28.993" height="114.35" width="114.22" y="-121.16" x="6.8683"/>
 <path id="path4141" style="fill:url(#linearGradient65222)" d="m7.0195 29.991 113.55 0.00001c0.25-5.326-7.9-21.314-23.201-21.797l-67.85 0.35155c-11.378-0.1652-19.438 10.929-22.5 21.445z"/>
 <g id="g65226" transform="matrix(.99181 0 0 .99919 2.5992 4.0843)">
  <path id="path64343" d="m47.209 36.724c-2.19-0.02-4.3875 0.36875-6.5 0.90625-3.86 1.0075-7.605 2.9575-10.125 6.125-2.175 2.685-3.0925 6.2075-3 9.625-0.055 3.78 1.0725 7.8125 4 10.375 3.365 3.0325 8.1125 3.8488 12.5 3.6562 0.0025 1.325-0.0325 2.6438 0 3.9688-0.0775 0.9375 0.8925 1.3262 1.4375 1.9062 0.7175 0.6275 0.9075 1.6175 1.125 2.5-4.085 0.1525-8.1975 0.4075-12.125 1.625-3.3225 1.015-6.6862 2.6562-8.7812 5.5312-2.37 3.1575-2.6462 7.4788-1.4688 11.156 1.06 3.26 3.7425 5.7662 6.8125 7.1563 5.015 2.29 10.702 2.6388 16.125 2.0938 4.9075-0.5675 9.9688-2.0788 13.594-5.5938 2.755-2.605 4.1562-6.4112 4.2812-10.156 0.215-2.8175-0.48625-5.69-2.0312-8.0625-1.93-3.0225-4.845-5.1725-7.5625-7.4375-1.025-0.8775-2.11-1.7562-2.75-2.9688-0.4725-0.8675-0.38125-1.9712 0.15625-2.7812 0.84-1.31 2.1162-2.255 3.2812-3.25 1.545-1.27 3.0538-2.6475 4.0938-4.375 1.2625-2.0325 1.7788-4.4662 1.7188-6.8438-0.03-2.8325 0.025-5.8488-1.375-8.4062-0.8775-1.6425-2.5088-2.6662-4.0938-3.5312 0.3575-0.24 0.72125-0.48 1.1562-0.5625 2.1375-0.505 4.4388-0.35625 6.4688-1.2812 0.5825-0.2225 0.90125-0.7975 1.0312-1.375-5.9925-0.0125-11.976 0.01-17.969 0zm-4 3.25c2.0408 0.03387 3.9725 1.0812 5.4688 2.4375 2.8375 2.6125 4.4238 6.385 4.7812 10.188 0.235 2.7575-0.24375 5.6625-1.7812 8-1.1975 1.825-3.2488 3.1538-5.4688 3.1562-2.5 0.01-4.7825-1.4075-6.4375-3.1875-2.685-2.96-4.0938-6.9938-4.0938-10.969 0.075-2.6475 0.78875-5.37 2.5938-7.375 1.0325-1.1775 2.505-1.985 4.0625-2.1875 0.29438-0.03781 0.58346-0.06734 0.875-0.0625zm2.25 38.562c2.9139-0.0525 5.8394 0.55 8.4062 1.9375 2.32 1.2625 4.3675 3.2988 5.0625 5.9062 0.6625 2.3325 0.0087 4.8875-1.4062 6.8125-1.7775 2.425-4.465 4.0888-7.3125 4.9688-4.115 1.2825-8.72 1.1825-12.688-0.5625-2.625-1.1825-5.0488-3.255-5.9688-6.0625-0.8375-2.45-0.2175-5.2075 1.3125-7.25 2.2925-3.0825 5.965-4.865 9.6875-5.5 0.9525-0.16375 1.935-0.2325 2.9062-0.25z" style="fill:#fff"/>
  <path id="path64345" style="fill:#fff" d="m83.377 36.756c1.26-0.055 2.5225-0.0225 3.785-0.03 0.02 4.3325 0.005 8.665 0.0025 12.998 4.33 0.06 8.6625 0.03 12.99 0.0125 0.14 1.2575 0.015 2.5175 0.0225 3.775-4.335 0.0325-8.6725-0.03-13.01 0.0325-0.0025 4.3275 0.01 8.655-0.0075 12.982-1.2575-0.0025-2.5125 0.02-3.77-0.0225-0.0075-4.3325 0.0775-8.6675-0.0425-12.998-4.3075 0.0325-8.6175-0.0025-12.925 0.0175-0.005-1.2625-0.0075-2.525 0.005-3.7875 4.325 0.0175 8.6525 0.055 12.978-0.02-0.0225-4.32 0.0225-8.64-0.0275-12.96z"/>
 </g>
 <rect id="rect892-2-7-1" style="opacity:.15891;stroke:#000;stroke-width:7.7512;fill:none" transform="scale(1,-1)" ry="28.993" height="114.35" width="114.22" y="-121.16" x="6.8686"/>
 <path id="path4159" style="stroke:url(#linearGradient65123-9);stroke-width:1px;fill:url(#linearGradient65224)" d="m7.2824 30.297h113.58z"/>
 <rect id="rect892-2-7-2-9" ry="28.067" style="stroke:#000;stroke-width:1.0489;fill:none" transform="scale(1,-1)" height="112.71" width="114.14" y="-120.31" x="7.0644"/>
 <path id="path1187" style="fill:#fff;fill-opacity:.057143" d="m32.415 6.0906c-14.891-4.3298-32.779 19.454-27.93 26.295-0.04334 0.71563-0.07674 1.4439-0.07674 2.1732v10.76c25.899-25.61 66.753-35.479 90.375-39.179-0.22473-0.02628-0.45986-0.03062-0.69067-0.03062-41.576 0.38742-23.653-0.01876-61.677-0.01875z"/>
 <g id="layer2" style="display:none" transform="translate(137.63 15.959)">
  <rect id="rect3745" style="opacity:.9;filter:url(#filter3174-5);fill:url(#ButtonShadow-4)" rx="6" ry="6" height="85" width="86" y="7" x="5"/>
 </g>
 <g id="layer2-3" style="display:none" transform="translate(146.29 14.997)">
  <rect id="rect3745-4" style="opacity:.9;filter:url(#filter3174-0);fill:url(#ButtonShadow-4)" rx="6" ry="6" height="85" width="86" y="7" x="5"/>
 </g>
 <g id="layer2-4" style="display:none" transform="translate(176.76 -8.736)">
  <rect id="rect3745-7" style="opacity:.9;filter:url(#filter3174-7);fill:url(#ButtonShadow-4)" rx="6" ry="6" height="85" width="86" y="7" x="5"/>
 </g>
 <g id="layer2-2" style="display:none" transform="translate(143.15 5.055)">
  <rect id="rect3745-9" style="opacity:.9;filter:url(#filter3174-8);fill:url(#ButtonShadow-4)" rx="6" ry="6" height="85" width="86" y="7" x="5"/>
 </g>
 <g id="layer5-4" style="display:none" transform="translate(143.15 5.055)">
  <rect id="rect3171-7" style="opacity:.3;filter:url(#filter3794-30);stroke:#fff;stroke-linecap:round;stroke-width:.5;fill:url(#linearGradient3613-3)" clip-path="url(#clipPath3613-9)" rx="12" ry="12" height="66" width="66" y="15" x="15"/>
 </g>
 <g id="layer2-1" style="display:none" transform="translate(160.47 -5.8175)">
  <rect id="rect3745-8" style="opacity:.9;filter:url(#filter3174-4);fill:url(#ButtonShadow-4)" rx="6" ry="6" height="85" width="86" y="7" x="5"/>
 </g>
 <g id="layer5-46" style="display:none" transform="translate(160.47 -5.8175)">
  <rect id="rect3171-2" style="opacity:.1;filter:url(#filter3794-67);stroke:#fff;stroke-linecap:round;stroke-width:.5;fill:url(#linearGradient3613-3)" clip-path="url(#clipPath3613-26)" rx="12" ry="12" height="66" width="66" y="15" x="15"/>
 </g>
 <rect id="rect3745-82" style="opacity:.9;filter:url(#filter3174-1);display:none;fill:url(#linearGradient9285)" rx="6" ry="6" height="85" width="86" y="9.8358" x="-54.657"/>
</svg>
