<?xml version="1.0" encoding="UTF-8" standalone="no"?>
<!-- Created with Inkscape (http://www.inkscape.org/) -->

<svg
   xmlns:dc="http://purl.org/dc/elements/1.1/"
   xmlns:cc="http://creativecommons.org/ns#"
   xmlns:rdf="http://www.w3.org/1999/02/22-rdf-syntax-ns#"
   xmlns:svg="http://www.w3.org/2000/svg"
   xmlns="http://www.w3.org/2000/svg"
   xmlns:xlink="http://www.w3.org/1999/xlink"
   xmlns:sodipodi="http://sodipodi.sourceforge.net/DTD/sodipodi-0.dtd"
   xmlns:inkscape="http://www.inkscape.org/namespaces/inkscape"
   id="svg3449"
   height="128"
   width="128"
   version="1.0"
   inkscape:version="0.48.4 r9939"
   sodipodi:docname="google-keep.svg">
  <sodipodi:namedview
     pagecolor="#ffffff"
     bordercolor="#666666"
     borderopacity="1"
     objecttolerance="10"
     gridtolerance="10"
     guidetolerance="10"
     inkscape:pageopacity="0"
     inkscape:pageshadow="2"
     inkscape:window-width="1360"
     inkscape:window-height="707"
     id="namedview31"
     showgrid="false"
     inkscape:zoom="2"
     inkscape:cx="101.75444"
     inkscape:cy="76.418402"
     inkscape:window-x="-2"
     inkscape:window-y="33"
     inkscape:window-maximized="1"
     inkscape:current-layer="svg3449" />
  <metadata
     id="metadata56">
    <rdf:RDF>
      <cc:Work
         rdf:about="">
        <dc:format>image/svg+xml</dc:format>
        <dc:type
           rdf:resource="http://purl.org/dc/dcmitype/StillImage" />
        <dc:title></dc:title>
      </cc:Work>
    </rdf:RDF>
  </metadata>
  <defs
     id="defs3451">
    <linearGradient
       id="linearGradient3514"
       y2="-9.1034"
       gradientUnits="userSpaceOnUse"
       x2="66.492"
       gradientTransform="matrix(.96826 0 0 .97948 2.179 .16587)"
       y1="-42.638"
       x1="67.952">
      <stop
         id="stop4620"
         style="stop-color:#37414b"
         offset="0" />
      <stop
         id="stop4622"
         style="stop-color:#37414b;stop-opacity:0"
         offset="1" />
    </linearGradient>
    <linearGradient
       id="linearGradient3516"
       y2="-11.847"
       gradientUnits="userSpaceOnUse"
       x2="58.98"
       gradientTransform="matrix(.96826 0 0 .97948 2.179 .16587)"
       y1="-118.55"
       x1="57.173">
      <stop
         id="stop4596"
         offset="0" />
      <stop
         id="stop4598"
         style="stop-opacity:0"
         offset="1" />
    </linearGradient>
    <linearGradient
       id="linearGradient3519"
       y2="50.369"
       gradientUnits="userSpaceOnUse"
       x2="76.558"
       gradientTransform="matrix(.96826 0 0 .97948 3.2423 -129.19)"
       y1="13.164"
       x1="76.558">
      <stop
         id="stop3392"
         style="stop-color:#425e7b"
         offset="0" />
      <stop
         id="stop3394"
         style="stop-color:#7a91a7"
         offset="1" />
    </linearGradient>
    <linearGradient
       id="linearGradient3521"
       y2="-8.7399"
       gradientUnits="userSpaceOnUse"
       x2="60.217"
       gradientTransform="matrix(.96826 0 0 .97948 2.179 .16587)"
       y1="-123.72"
       x1="60.395">
      <stop
         id="stop3392-4-8"
         style="stop-color:#425e7b"
         offset="0" />
      <stop
         id="stop3394-8-0"
         style="stop-color:#7a91a7"
         offset="1" />
    </linearGradient>
    <radialGradient
       id="radialGradient3349"
       gradientUnits="userSpaceOnUse"
       cy="45.647"
       cx="42.148"
       gradientTransform="matrix(0.94542746,0,0,1.139,3.6011754,-29.89)"
       r="58.984">
      <stop
         id="stop2699-5"
         style="stop-color:#ffd96a;stop-opacity:1"
         offset="0" />
      <stop
         id="stop2701-7"
         style="stop-color:#ffb600;stop-opacity:1"
         offset="1" />
    </radialGradient>
    <linearGradient
       inkscape:collect="always"
       xlink:href="#linearGradient4042"
       id="linearGradient3111"
       gradientUnits="userSpaceOnUse"
       gradientTransform="matrix(5.0552668,0,0,5.0552668,97.791602,401.81395)"
       x1="40.543461"
       y1="83.183121"
       x2="40.543461"
       y2="-52.934109" />
    <linearGradient
       id="linearGradient4042">
      <stop
         offset="0"
         style="stop-color:#000000;stop-opacity:1"
         id="stop4044" />
      <stop
         offset="1"
         style="stop-color:#000000;stop-opacity:0"
         id="stop4046" />
    </linearGradient>
    <linearGradient
       y2="-52.934109"
       x2="40.543461"
       y1="83.183121"
       x1="40.543461"
       gradientTransform="matrix(1.0642373,0,0,1.0642373,-1.0152197,-4.4276623)"
       gradientUnits="userSpaceOnUse"
       id="linearGradient3083"
       xlink:href="#linearGradient4042"
       inkscape:collect="always" />
    <linearGradient
       inkscape:collect="always"
       xlink:href="#outerBackgroundGradient-3"
       id="linearGradient4080"
       gradientUnits="userSpaceOnUse"
       gradientTransform="translate(484.64822,86.124347)"
       x1="272"
       y1="288"
       x2="272"
       y2="32" />
    <linearGradient
       id="outerBackgroundGradient-3">
      <stop
         id="stop3864-8-6-2"
         offset="0"
         style="stop-color:#50a8e3;stop-opacity:1;" />
      <stop
         id="stop3866-9-1-7"
         offset="1"
         style="stop-color:#82c3ef;stop-opacity:1;" />
    </linearGradient>
    <linearGradient
       inkscape:collect="always"
       xlink:href="#outerBackgroundGradient-3"
       id="linearGradient3833"
       gradientUnits="userSpaceOnUse"
       gradientTransform="translate(678.03536,339.82989)"
       x1="272"
       y1="288"
       x2="272"
       y2="32" />
    <linearGradient
       id="linearGradient4046-3">
      <stop
         id="stop4048-7"
         style="stop-color:#000000;stop-opacity:1;"
         offset="0" />
      <stop
         id="stop4050-73"
         style="stop-color:#ffffff;stop-opacity:0.2"
         offset="1" />
    </linearGradient>
    <linearGradient
       id="linearGradient3737-9">
      <stop
         id="stop3739-7"
         style="stop-color:#ffffff;stop-opacity:1"
         offset="0" />
      <stop
         id="stop3741-4"
         style="stop-color:#ffffff;stop-opacity:0"
         offset="1" />
    </linearGradient>
    <linearGradient
       x1="45.447727"
       y1="92.539597"
       x2="45.447727"
       y2="7.0165396"
       id="ButtonShadow-0-1-1-5-9"
       gradientUnits="userSpaceOnUse"
       gradientTransform="matrix(1.0058652,0,0,0.994169,100,0)">
      <stop
         id="stop3750-8-9-3-6-4"
         style="stop-color:#000000;stop-opacity:1"
         offset="0" />
      <stop
         id="stop3752-5-6-4-2-9"
         style="stop-color:#000000;stop-opacity:0.58823532"
         offset="1" />
    </linearGradient>
    <linearGradient
       x1="19.244999"
       y1="21.030804"
       x2="19.360001"
       gradientUnits="userSpaceOnUse"
       y2="44.984001"
       id="linearGradient2460">
      <stop
         offset="0"
         style="stop-color:#fafafa;stop-opacity:1;"
         id="stop3602" />
      <stop
         offset="1"
         style="stop-color:#f0f0f0;stop-opacity:1;"
         id="stop3604" />
    </linearGradient>
    <linearGradient
       inkscape:collect="always"
       id="linearGradient4056">
      <stop
         style="stop-color:#ffecb8;stop-opacity:1"
         offset="0"
         id="stop4058" />
      <stop
         style="stop-color:#fffcf5;stop-opacity:1"
         offset="1"
         id="stop4060" />
    </linearGradient>
    <linearGradient
       y2="-18.876663"
       x2="110.26778"
       y1="54.660358"
       x1="110.26778"
       gradientTransform="matrix(4.8642624,0,0,4.8642624,-183.11116,170.85237)"
       gradientUnits="userSpaceOnUse"
       id="linearGradient3068"
       xlink:href="#linearGradient4056"
       inkscape:collect="always" />
  </defs>
  <rect
     id="rect892"
     style="stroke:url(#linearGradient3521);stroke-width:.97385;fill:url(#linearGradient3519)"
     transform="scale(1,-1)"
     ry="29.296"
     height="115.54"
     width="114.22"
     y="-122.25"
     x="7.0394" />
  <rect
     id="rect892-2"
     style="stroke:url(#linearGradient3516);stroke-width:.97385;fill:url(#linearGradient3514)"
     transform="scale(1,-1)"
     ry="28.993"
     height="114.35"
     width="114.22"
     y="-121.46"
     x="7.0599" />
  <path
     id="rect895"
     style="fill:url(#radialGradient3349)"
     d="m 30.534825,7.0104 c -13.107584,0.936 -22.5149319,15.04 -23.1369631,23.288 -0.050064,0.97378 -0.088634,1.9648 -0.088634,2.9572 v 58.419 c 0,15.229 11.173597,27.859 22.283293,27.859 h 66.933748 c 15.665601,0 24.280181,-16.445 24.280181,-25.859 V 29.6576 C 120.59678,23.7246 108.53556,7.9756 94.920769,7.0396 47.149176,7.9049 74.455645,7.014 30.538048,7.014 z"
     inkscape:connector-curvature="0" />
  <rect
     id="rect892-2-7-8"
     style="opacity:.15891;stroke:#000;stroke-width:4.8445;fill:none"
     transform="scale(1,-1)"
     ry="28.993"
     height="114.35"
     width="114.22"
     y="-121.16"
     x="6.8683" />
  <rect
     id="rect892-2-7-1"
     style="opacity:.15891;stroke:#000;stroke-width:7.7512;fill:none"
     transform="scale(1,-1)"
     ry="28.993"
     height="114.35"
     width="114.22"
     y="-121.16"
     x="6.8686" />
  <rect
     id="rect892-2-7-2-9"
     ry="28.28389"
     style="fill:none;stroke:#000000;stroke-width:1.0529263"
     transform="scale(1,-1)"
     height="113.58097"
     width="114.13597"
     y="-120.30798"
     x="7.0664134" />
  <g
     transform="translate(339.45247,-712.24948)"
     inkscape:label="Livello 1"
     id="layer1"
     style="display:none" />
  <g
     transform="matrix(1.1,0,0,0.44444,434.53353,84.50524)"
     id="g2036">
    <g
       transform="matrix(1.0526,0,0,1.2857,-1.2632,-13.429)"
       style="opacity:0.4"
       id="g3712" />
  </g>
  <g
     id="g3541"
     transform="translate(436.93353,59.39424)" />
  <g
     id="g3536"
     transform="translate(436.93353,59.39424)" />
  <g
     transform="translate(-266.06685,-525.85563)"
     id="g4076">
    <g
       id="g4038"
       transform="translate(-926.66758,684.38448)" />
  </g>
  <g
     id="g4129"
     transform="translate(-0.40006058,-8.2810208)">
    <path
       inkscape:connector-curvature="0"
       style="fill:#ffffff;fill-opacity:1"
       d="m 71.287625,81.932638 c -0.224858,0 -0.447957,0.02596 -0.72754,0.03057 -1.341991,0.07832 -3.344169,0.409464 -6.327761,0.92318 -7.854653,1.353167 -9.608799,2.100104 -8.571519,3.778317 0.751651,1.216098 2.367448,1.217977 9.072849,0.02445 7.440008,-1.323909 8.455356,-1.675992 8.455356,-3.075232 0,-1.10967 -0.327304,-1.653416 -1.901385,-1.681289 z m -0.464646,5.276192 c -0.127979,0.0011 -0.262155,0.0057 -0.403511,0.01223 l 0,0.0061 c -1.357009,0.0622 -3.344423,0.383041 -6.242168,0.89261 -7.640375,1.343493 -9.572393,2.210774 -8.516495,3.918934 0.743127,1.202277 1.514665,1.21146 8.180236,0.05502 8.581241,-1.484935 9.347969,-1.711432 9.347969,-3.050776 0,-1.258228 -0.446389,-1.85124 -2.366031,-1.834134 z m -1.552901,5.251736 c -1.372402,0.03225 -3.232585,0.282175 -5.624677,0.75811 -4.45208,0.886214 -6.198307,1.628736 -6.413354,2.745086 -0.233759,1.214026 0.335988,1.522806 2.690063,1.455079 4.674779,-0.133613 11.739306,-2.043839 12.148078,-3.276985 0.394294,-1.189377 -0.512764,-1.737501 -2.80011,-1.68129 z m -2.683949,5.3679 c -0.09663,-1.85e-4 -0.202308,0.0015 -0.311803,0.0061 l 0,0.0061 c -0.583964,0.02304 -1.354488,0.09333 -2.323236,0.250664 -2.682233,0.43516 -3.294951,0.951414 -2.323235,1.791339 1.749397,1.512131 4.220338,1.069461 5.318987,-0.171187 1.099751,-1.325609 1.088769,-1.879713 -0.360713,-1.883044 z"
       id="path3494" />
    <path
       inkscape:connector-curvature="0"
       id="path4815"
       d="m 63.620067,43.748402 c -6.02777,-0.03282 -11.742409,3.63009 -14.434261,8.984176 -3.185435,5.553063 -3.633681,12.992991 0.216644,18.346605 2.265746,2.948581 4.78913,6.020953 5.500907,9.764412 0.01937,1.693355 1.584413,3.237825 0.469409,5.039083 0.693852,1.448714 2.758978,2.957357 0.489763,4.361284 -1.883992,2.30406 3.453096,3.479901 1.277627,5.972009 0.411241,1.921069 3.602919,0.945138 3.99147,3.221817 1.676743,2.020362 5.352269,1.837982 6.472673,-0.665651 0.818123,-2.171384 3.299568,-2.794515 4.466406,-4.630756 0.03052,-1.465768 -0.70397,-2.960773 0.85153,-3.991559 0.985637,-2.210615 -2.068099,-4.185628 0.225941,-6.170232 -0.177105,-4.349506 2.701983,-7.91997 5.225732,-11.150505 4.594857,-6.226543 5.280587,-15.498623 0.44248,-21.788542 -3.509413,-4.681856 -9.374075,-7.393348 -15.196321,-7.292141 z"
       style="color:#000000;fill:none;stroke:#ffffff;stroke-width:2;stroke-miterlimit:4;stroke-opacity:1;stroke-dasharray:none;marker:none;visibility:visible;display:inline;overflow:visible;enable-background:accumulate"
       sodipodi:nodetypes="ccccccccccccccc" />
  </g>
</svg>
