<?xml version="1.0" encoding="UTF-8" standalone="no"?>
<!-- Created with Inkscape (http://www.inkscape.org/) -->

<svg
   xmlns:dc="http://purl.org/dc/elements/1.1/"
   xmlns:cc="http://creativecommons.org/ns#"
   xmlns:rdf="http://www.w3.org/1999/02/22-rdf-syntax-ns#"
   xmlns:svg="http://www.w3.org/2000/svg"
   xmlns="http://www.w3.org/2000/svg"
   xmlns:sodipodi="http://sodipodi.sourceforge.net/DTD/sodipodi-0.dtd"
   xmlns:inkscape="http://www.inkscape.org/namespaces/inkscape"
   version="1.0"
   width="128"
   height="128"
   id="svg3449"
   inkscape:version="0.48.4 r9939"
   sodipodi:docname="haroopad.svg">
  <sodipodi:namedview
     pagecolor="#ffffff"
     bordercolor="#666666"
     borderopacity="1"
     objecttolerance="10"
     gridtolerance="10"
     guidetolerance="10"
     inkscape:pageopacity="0"
     inkscape:pageshadow="2"
     inkscape:window-width="1360"
     inkscape:window-height="707"
     id="namedview51"
     showgrid="false"
     inkscape:zoom="1.84375"
     inkscape:cx="64.542373"
     inkscape:cy="64"
     inkscape:window-x="-2"
     inkscape:window-y="33"
     inkscape:window-maximized="1"
     inkscape:current-layer="svg3449" />
  <metadata
     id="metadata56">
    <rdf:RDF>
      <cc:Work
         rdf:about="">
        <dc:format>image/svg+xml</dc:format>
        <dc:type
           rdf:resource="http://purl.org/dc/dcmitype/StillImage" />
        <dc:title />
      </cc:Work>
    </rdf:RDF>
  </metadata>
  <defs
     id="defs3451">
    <linearGradient
       x1="67.952003"
       y1="-42.638"
       x2="66.491997"
       y2="-9.1034002"
       id="linearGradient3514"
       gradientUnits="userSpaceOnUse"
       gradientTransform="matrix(0.96826,0,0,0.97948,2.179,0.16587)">
      <stop
         id="stop4620"
         style="stop-color:#37414b;stop-opacity:1"
         offset="0" />
      <stop
         id="stop4622"
         style="stop-color:#37414b;stop-opacity:0"
         offset="1" />
    </linearGradient>
    <linearGradient
       x1="57.173"
       y1="-118.55"
       x2="58.98"
       y2="-11.847"
       id="linearGradient3516"
       gradientUnits="userSpaceOnUse"
       gradientTransform="matrix(0.96826,0,0,0.97948,2.179,0.16587)">
      <stop
         id="stop4596"
         style="stop-color:#000000;stop-opacity:1"
         offset="0" />
      <stop
         id="stop4598"
         style="stop-color:#000000;stop-opacity:0"
         offset="1" />
    </linearGradient>
    <linearGradient
       x1="76.557999"
       y1="13.164"
       x2="76.557999"
       y2="50.368999"
       id="linearGradient3519"
       gradientUnits="userSpaceOnUse"
       gradientTransform="matrix(0.96826,0,0,0.97948,3.2423,-129.19)">
      <stop
         id="stop3392"
         style="stop-color:#425e7b;stop-opacity:1"
         offset="0" />
      <stop
         id="stop3394"
         style="stop-color:#7a91a7;stop-opacity:1"
         offset="1" />
    </linearGradient>
    <linearGradient
       x1="60.395"
       y1="-123.72"
       x2="60.216999"
       y2="-8.7398996"
       id="linearGradient3521"
       gradientUnits="userSpaceOnUse"
       gradientTransform="matrix(0.96826,0,0,0.97948,2.179,0.16587)">
      <stop
         id="stop3392-4-8"
         style="stop-color:#425e7b;stop-opacity:1"
         offset="0" />
      <stop
         id="stop3394-8-0"
         style="stop-color:#7a91a7;stop-opacity:1"
         offset="1" />
    </linearGradient>
    <radialGradient
       cx="42.147999"
       cy="45.646999"
       r="58.984001"
       id="radialGradient3349"
       gradientUnits="userSpaceOnUse"
       gradientTransform="matrix(0.9469,0,0,1.139,3.5954,-29.89)">
      <stop
         id="stop2699-5"
         style="stop-color:#e0b586;stop-opacity:1"
         offset="0" />
      <stop
         id="stop2701-7"
         style="stop-color:#d7a167;stop-opacity:1"
         offset="1" />
    </radialGradient>
  </defs>
  <rect
     width="114.22"
     height="115.54"
     ry="29.296"
     x="7.0394001"
     y="-122.25"
     transform="scale(1,-1)"
     id="rect892"
     style="fill:url(#linearGradient3519);stroke:url(#linearGradient3521);stroke-width:0.97385001" />
  <rect
     width="114.22"
     height="114.35"
     ry="28.993"
     x="7.0598998"
     y="-121.46"
     transform="scale(1,-1)"
     id="rect892-2"
     style="fill:url(#linearGradient3514);stroke:url(#linearGradient3516);stroke-width:0.97385001" />
  <path
     d="M 33.051,7.2596 C 25.082,4.8103 6.038,22.4336 7.398,30.2976 7.347858,31.27138 7.309228,32.2624 7.309228,33.2548 v 52.419 c 0,20.876 10.712,33.859 22.318,33.859 h 67.038 c 12.638002,0 24.318002,-11.245 24.318002,-25.859 v -64.017 c 0.7,-10.928 -21.283002,-24.659 -25.926002,-22.618 -47.846,0.8653 -18.017,0.2236 -62.003,0.2236 z"
     id="rect895"
     style="fill:url(#radialGradient3349)" />
  <rect
     width="114.22"
     height="114.35"
     ry="28.993"
     x="6.8687"
     y="-121.16"
     transform="scale(1,-1)"
     id="rect892-2-7-8"
     style="opacity:0.15891;fill:none;stroke:#000000;stroke-width:4.84450006" />
  <rect
     width="114.22"
     height="114.35"
     ry="28.993"
     x="6.8687"
     y="-121.16"
     transform="scale(1,-1)"
     id="rect892-2-7-1"
     style="opacity:0.15891;fill:none;stroke:#000000;stroke-width:7.7512002" />
  <rect
     width="113.94824"
     height="113.09351"
     ry="28.066999"
     x="7.2566576"
     y="-120.69351"
     transform="scale(1,-1)"
     id="rect892-2-7-2-9"
     style="fill:none;stroke:#000000;stroke-width:1.04890001" />
  <path
     d="M 33.017,7.2319 C 9.31,7.2319 6.99,7.9057 7.087,33.5269 7.04366,34.24253 7.01026,34.9708 7.01026,35.7001 v 32.76 c 18.67,-38.321 38.34,-51.497 90.374,-61.179 -0.225,-0.026 -0.46,-0.0303 -0.691,-0.0303 -41.576,0.3874 -25.652,-0.0188 -63.676,-0.0188 z"
     id="path1187"
     style="fill:#ffffff;fill-opacity:0.05714303" />
  <g
     transform="matrix(0.25,0,0,0.25,2.0001915e-7,4.063662e-4)"
     id="g4039"
     style="display:inline">
    <g
       transform="matrix(1.0715653,0,0,1.0715653,-18.320717,-18.310304)"
       id="g3833" />
    <g
       transform="matrix(1.2540782,-0.00185834,0.00185834,1.2540782,-174.90772,91.384721)"
       id="g3970"
       style="display:inline" />
  </g>
  <g
     transform="matrix(0.25,0,0,0.25,-1.7521867,-1.7197141)"
     id="g3051">
    <g
       id="g3374">
      <path
         d="m 87.5,40.75 a 10.75,10.75 0 1 1 -21.5,0 10.75,10.75 0 1 1 21.5,0 z"
         transform="matrix(1.1364201,4.752879,4.5463868,-1.7331767,-116.4855,-16.098022)"
         id="path4209"
         style="color:#000000;fill:#f7e52f;fill-opacity:1;fill-rule:nonzero;stroke:none;stroke-width:3.33824492;marker:none;visibility:visible;display:inline;overflow:visible;enable-background:accumulate" />
      <path
         d="m 355.76311,299.86795 a 96.674759,24.306795 0 1 1 -193.34952,0 96.674759,24.306795 0 1 1 193.34952,0 z"
         transform="translate(-3.0883484,32)"
         id="path7066"
         style="fill:#f7e52f;fill-opacity:1;fill-rule:nonzero;stroke:none" />
      <path
         d="m 87.5,40.75 a 10.75,10.75 0 1 1 -21.5,0 10.75,10.75 0 1 1 21.5,0 z"
         transform="matrix(1.1364201,4.752879,4.5463868,-1.7331767,83.5145,-16.098022)"
         id="path7075"
         style="color:#000000;fill:#f7e52f;fill-opacity:1;fill-rule:nonzero;stroke:none;stroke-width:3.33824492;marker:none;visibility:visible;display:inline;overflow:visible;enable-background:accumulate" />
    </g>
    <g
       id="g3379">
      <g
         id="g3390">
        <g
           id="g3383">
          <path
             d="m -62.755724,-226.57303 a 25.986174,25.986174 0 1 1 -51.972346,0 25.986174,25.986174 0 1 1 51.972346,0 z"
             transform="matrix(-1.0298057,0.27549343,0.16149017,1.0846202,101.29082,549.36536)"
             id="path4211"
             style="color:#000000;fill:#1c202a;fill-opacity:1;fill-rule:evenodd;stroke:none;stroke-width:9.69999981;marker:none;visibility:visible;display:inline;overflow:visible;enable-background:accumulate" />
          <path
             d="m -152.73506,-237.26802 a 8.3085051,9.4575529 0 1 1 -16.61701,0 8.3085051,9.4575529 0 1 1 16.61701,0 z"
             transform="matrix(0.42145505,0.59918009,-0.81471096,0.59428944,27.547724,505.69257)"
             id="path4213"
             style="opacity:0.76381908;color:#000000;fill:#ffffff;fill-opacity:1;fill-rule:evenodd;stroke:none;stroke-width:9.69999981;marker:none;visibility:visible;display:inline;overflow:visible;enable-background:accumulate" />
        </g>
        <path
           d="m -62.755724,-226.57303 a 25.986174,25.986174 0 1 1 -51.972346,0 25.986174,25.986174 0 1 1 51.972346,0 z"
           transform="matrix(-1.0298057,0.27549343,0.16149017,1.0846202,301.29082,549.36536)"
           id="path7077"
           style="color:#000000;fill:#1c202a;fill-opacity:1;fill-rule:evenodd;stroke:none;stroke-width:9.69999981;marker:none;visibility:visible;display:inline;overflow:visible;enable-background:accumulate" />
      </g>
      <path
         d="m -152.73506,-237.26802 a 8.3085051,9.4575529 0 1 1 -16.61701,0 8.3085051,9.4575529 0 1 1 16.61701,0 z"
         transform="matrix(0.42145505,0.59918009,-0.81471096,0.59428944,227.54773,505.69257)"
         id="path7079"
         style="opacity:0.76381908;color:#000000;fill:#ffffff;fill-opacity:1;fill-rule:evenodd;stroke:none;stroke-width:9.69999981;marker:none;visibility:visible;display:inline;overflow:visible;enable-background:accumulate" />
    </g>
    <path
       d="m 256,40.28125 -12.21875,21.4375 51.78125,52.09375 -91.84375,59.875 L 185.75,191.65625 333.96875,339.875 322.6875,351.15625 314.875,359 269.71875,397.84375 260.6875,406.875 c 0,0 -4.71878,50.71444 -3.875,49.875 L 256,457.5625 290.4375,492 l 1.65625,0 53.75,0 47.8125,0 C 448.13292,492 492,448.13291 492,393.65625 L 492,207.3125 350.3125,65.625 332.34375,83.59375 315.8125,100.125 z"
       id="rect7099"
       style="fill:#000000;fill-opacity:0.23529412;fill-rule:nonzero;stroke:none" />
    <g
       transform="translate(-4.367085,32)"
       id="g7062">
      <path
         d="m 260.33581,283.46444 c -34.25049,1.10485 -79.20902,16.82179 -80.65625,21.6875 -2.0327,6.83409 18.67622,86.52692 80.65625,120.4375 0.0115,-0.009 0.0197,-0.0222 0.0313,-0.0313 l 0,-142.09375 c -0.0104,3.3e-4 -0.0209,-3.4e-4 -0.0313,0 z"
         id="path6287"
         style="fill:#2b2b29;fill-opacity:1;stroke:none" />
      <path
         d="m 260.39836,283.46449 c 34.25049,1.10485 79.20902,16.82179 80.65625,21.6875 2.0327,6.83409 -18.67622,86.52692 -80.65625,120.4375 -0.0115,-0.009 -0.0197,-0.0222 -0.0313,-0.0313 l 0,-142.09375 c 0.0104,3.3e-4 0.0209,-3.4e-4 0.0313,0 z"
         id="path6292"
         style="fill:#343432;fill-opacity:1;stroke:none" />
    </g>
    <g
       id="g7147">
      <path
         d="M 339.81394,173.72833 C 313.77231,218.64703 256,228.2911 256,228.2911 c 0,0 -21.13444,-53.55184 4.90718,-98.47054 26.04163,-44.918718 89.39791,-64.194493 89.39791,-64.194493 0,0 15.55047,63.183533 -10.49115,108.102263 z"
         id="path7084"
         style="fill:#aa0000;fill-opacity:1;fill-rule:nonzero;stroke:none" />
      <path
         d="M 172.18606,173.72833 C 198.22768,218.64703 256,228.2911 256,228.2911 c 0,0 21.13444,-53.55184 -4.90719,-98.47054 -26.04162,-44.918718 -89.3979,-64.194493 -89.3979,-64.194493 0,0 -15.55048,63.183533 10.49115,108.102263 z"
         id="path7086"
         style="fill:#800000;fill-opacity:1;fill-rule:nonzero;stroke:none" />
      <path
         d="M 303.59375,87.875 C 287.69244,98.04181 271.3138,111.86072 260.90625,129.8125 234.86463,174.7312 256,228.28125 256,228.28125 c 0,0 57.77087,-9.6438 83.8125,-54.5625 6.68854,-11.53694 10.61195,-24.27704 12.78125,-36.84375 l -49,-49 z"
         id="rect7115"
         style="fill:#000000;fill-opacity:0.23529412;fill-rule:nonzero;stroke:none" />
      <path
         d="M 301.14322,139.05006 C 301.14322,190.9717 256,228.2911 256,228.2911 c 0,0 -45.1432,-35.72892 -45.1432,-87.65057 C 210.8568,88.71889 256,40.266197 256,40.266197 c 0,0 45.14322,46.862219 45.14322,98.783863 z"
         id="path7081"
         style="fill:#a02c2c;fill-opacity:1;fill-rule:nonzero;stroke:none" />
    </g>
  </g>
</svg>
