<?xml version="1.0" encoding="UTF-8" standalone="no"?>
<!-- Created with Inkscape (http://www.inkscape.org/) -->
<svg id="svg3449" xmlns:rdf="http://www.w3.org/1999/02/22-rdf-syntax-ns#" xmlns="http://www.w3.org/2000/svg" height="128" width="128" version="1.0" xmlns:cc="http://creativecommons.org/ns#" xmlns:xlink="http://www.w3.org/1999/xlink" xmlns:dc="http://purl.org/dc/elements/1.1/">
 <metadata id="metadata56">
  <rdf:RDF>
   <cc:Work rdf:about="">
    <dc:format>image/svg+xml</dc:format>
    <dc:type rdf:resource="http://purl.org/dc/dcmitype/StillImage"/>
    <dc:title/>
   </cc:Work>
  </rdf:RDF>
 </metadata>
 <defs id="defs3451">
  <linearGradient id="linearGradient3514" y2="-9.1034" gradientUnits="userSpaceOnUse" x2="66.492" gradientTransform="matrix(.96826 0 0 .97948 2.179 .16587)" y1="-42.638" x1="67.952">
   <stop id="stop4620" style="stop-color:#37414b" offset="0"/>
   <stop id="stop4622" style="stop-color:#37414b;stop-opacity:0" offset="1"/>
  </linearGradient>
  <linearGradient id="linearGradient3516" y2="-11.847" gradientUnits="userSpaceOnUse" x2="58.98" gradientTransform="matrix(.96826 0 0 .97948 2.179 .16587)" y1="-118.55" x1="57.173">
   <stop id="stop4596" offset="0"/>
   <stop id="stop4598" style="stop-opacity:0" offset="1"/>
  </linearGradient>
  <linearGradient id="linearGradient3519" y2="50.369" gradientUnits="userSpaceOnUse" x2="76.558" gradientTransform="matrix(.96826 0 0 .97948 3.2423 -129.19)" y1="13.164" x1="76.558">
   <stop id="stop3392" style="stop-color:#425e7b" offset="0"/>
   <stop id="stop3394" style="stop-color:#7a91a7" offset="1"/>
  </linearGradient>
  <linearGradient id="linearGradient3521" y2="-8.7399" gradientUnits="userSpaceOnUse" x2="60.217" gradientTransform="matrix(.96826 0 0 .97948 2.179 .16587)" y1="-123.72" x1="60.395">
   <stop id="stop3392-4-8" style="stop-color:#425e7b" offset="0"/>
   <stop id="stop3394-8-0" style="stop-color:#7a91a7" offset="1"/>
  </linearGradient>
  <radialGradient id="radialGradient3349" gradientUnits="userSpaceOnUse" cy="45.647" cx="42.148" gradientTransform="matrix(.94690 0 0 1.139 3.5954 -29.89)" r="58.984">
   <stop id="stop3955" style="stop-color:#e0b586" offset="0"/>
   <stop id="stop3957" style="stop-color:#cc8538" offset="1"/>
  </radialGradient>
  <filter id="filter3174" color-interpolation-filters="sRGB">
   <feGaussianBlur id="feGaussianBlur3176" stdDeviation="1.71"/>
  </filter>
  <linearGradient id="ButtonShadow-1" x1="45.448" gradientUnits="userSpaceOnUse" y1="92.54" gradientTransform="scale(1.0059 .99417)" x2="45.448" y2="7.0165">
   <stop id="stop3750-0" offset="0"/>
   <stop id="stop3752-4" style="stop-opacity:.58824" offset="1"/>
  </linearGradient>
  <filter id="filter3174-8" color-interpolation-filters="sRGB">
   <feGaussianBlur id="feGaussianBlur3176-9" stdDeviation="1.71"/>
  </filter>
  <linearGradient id="ButtonShadow-3" y2="7.0165" gradientUnits="userSpaceOnUse" x2="45.448" gradientTransform="matrix(1.0059 0 0 .99417 119.23 972.7)" y1="92.54" x1="45.448">
   <stop id="stop3750-1" offset="0"/>
   <stop id="stop3752-0" style="stop-opacity:.58824" offset="1"/>
  </linearGradient>
  <linearGradient id="linearGradient4763" y2="13.419" gradientUnits="userSpaceOnUse" x2="31.499" gradientTransform="matrix(2.6666 0 0 2.6666 -173.74 -47.733)" y1="34.57" x1="31.499">
   <stop id="stop4160" style="stop-color:#b9ddff" offset="0"/>
   <stop id="stop4162" style="stop-color:#f5fcff" offset="1"/>
  </linearGradient>
 </defs>
 <rect id="rect892" style="stroke:url(#linearGradient3521);stroke-width:.97385;fill:url(#linearGradient3519)" transform="scale(1,-1)" ry="29.296" height="115.54" width="114.22" y="-122.25" x="7.0394"/>
 <rect id="rect892-2" style="stroke:url(#linearGradient3516);stroke-width:.97385;fill:url(#linearGradient3514)" transform="scale(1,-1)" ry="28.993" height="114.35" width="114.22" y="-121.46" x="7.0599"/>
 <path id="rect895" style="fill:url(#radialGradient3349)" d="m33.051 7.2596c-7.969-2.4493-27.013 15.174-25.653 23.038-0.050142 0.97378-0.088772 1.9648-0.088772 2.9572v52.419c0 20.876 10.712 33.859 22.318 33.859h67.038c12.638 0 24.318-11.245 24.318-25.859v-64.017c0.7-10.928-21.283-24.659-25.926-22.618-47.846 0.8653-18.017 0.2236-62.003 0.2236z"/>
 <rect id="rect892-2-7-8" style="opacity:.15891;stroke:#000;stroke-width:4.8445;fill:none" transform="scale(1,-1)" ry="28.993" height="114.35" width="114.22" y="-121.16" x="6.8687"/>
 <rect id="rect892-2-7-1" style="opacity:.15891;stroke:#000;stroke-width:7.7512;fill:none" transform="scale(1,-1)" ry="28.993" height="114.35" width="114.22" y="-121.16" x="6.8687"/>
 <rect id="rect892-2-7-2-9" ry="28.067" style="stroke:#000;stroke-width:1.0489;fill:none" transform="scale(1,-1)" height="112.71" width="114.14" y="-120.31" x="7.0649"/>
 <path id="path1187" style="fill:#fff;fill-opacity:.057143" d="m33.017 7.2319c-23.707 0-26.027 0.6738-25.93 26.295-0.04334 0.71563-0.07674 1.4439-0.07674 2.1732v32.76c18.67-38.321 38.34-51.497 90.374-61.179-0.225-0.026-0.46-0.0303-0.691-0.0303-41.576 0.3874-25.652-0.0188-63.676-0.0188z"/>
 <g id="layer2" style="display:none" transform="translate(148.5 -54.67)">
  <rect id="rect3745" style="opacity:.9;filter:url(#filter3174);fill:url(#ButtonShadow-1)" rx="6" ry="6" height="85" width="86" y="7" x="5"/>
 </g>
 <rect id="rect3745-0" style="opacity:.9;filter:url(#filter3174-8);display:none;fill:url(#ButtonShadow-3)" transform="matrix(2.6667 0 0 2.6667 -191.7 -2715.6)" rx="6" ry="6" height="85" width="86" y="979.7" x="124.23"/>
 <g id="g4755" transform="translate(173.89 45.317)">
  <path id="path4170" style="fill-opacity:.058824" d="m-97.962-8.7536c-11.879 0.1584-25.139 3.5914-35.827 10.12v1.651c24.397-12.593 59.015-12.515 62.165 5.5259 1.0615 5.9767-2.2865 12.194-8.2811 15.77v4.6822c7.217-2.647 14.595-11.218 12.459-21.723-2.26-11.017-15.243-16.229-30.515-16.026zm10.651 13.192v19.776c0 2.3221 1.1062 4.3412 4.4166 4.6613v-24.437h-4.4166zm8.4425 0.067733c-0.13467 0-0.2616 0.013333-0.38541 0.046933-0.12373 0.034133-0.24 0.084-0.34896 0.14587-0.10773 0.061867-0.208 0.13707-0.29685 0.224-0.0888 0.086933-0.16587 0.1848-0.22907 0.29168-0.0632 0.10533-0.11093 0.21733-0.14587 0.33853-0.03493 0.12133-0.052 0.24853-0.052 0.38019 0 0.13173 0.016 0.2576 0.052 0.38019 0.03493 0.12133 0.0824 0.23707 0.14587 0.34376 0.0632 0.10533 0.14027 0.19947 0.22907 0.28645 0.09013 0.0856 0.18907 0.16187 0.29685 0.224 0.10773 0.061867 0.22507 0.11147 0.34896 0.14587 0.12533 0.034133 0.252 0.046933 0.38541 0.046933 0.13467 0 0.26672-0.013333 0.39061-0.046933 0.12507-0.0344 0.24133-0.084 0.34893-0.14587 0.10907-0.061867 0.20933-0.1384 0.29688-0.224 0.0888-0.086933 0.16053-0.18107 0.224-0.28645 0.0632-0.10667 0.116-0.2224 0.15093-0.34376 0.03493-0.12267 0.052-0.24853 0.052-0.38019 0-0.1976-0.03787-0.38464-0.11467-0.55728-0.07547-0.17387-0.1792-0.32397-0.31248-0.45312-0.132-0.12907-0.29101-0.23227-0.46875-0.30728-0.17627-0.0752-0.36573-0.10933-0.56768-0.10933zm0 0.18747c0.11707 0 0.23067 0.010667 0.33853 0.0416 0.10907 0.029067 0.21307 0.070933 0.30728 0.12507 0.09413 0.054133 0.17707 0.1216 0.2552 0.19787 0.07813 0.0752 0.148 0.15787 0.2032 0.24987 0.0552 0.090933 0.09547 0.19013 0.12507 0.29688 0.03093 0.10533 0.04693 0.21467 0.04693 0.32811 0 0.11467-0.016 0.22667-0.04693 0.33333-0.0296 0.10533-0.06987 0.20453-0.12507 0.29685-0.0552 0.092267-0.12507 0.1736-0.2032 0.24987-0.07813 0.0752-0.16107 0.13867-0.2552 0.1928-0.09413 0.0528-0.19813 0.094667-0.30728 0.12507-0.10773 0.029067-0.22133 0.046933-0.33853 0.046933-0.17493 0-0.33608-0.0344-0.48957-0.098933-0.1536-0.064533-0.29045-0.1536-0.40624-0.2656-0.1144-0.11333-0.20347-0.2456-0.27083-0.39581-0.06587-0.15147-0.09893-0.31173-0.09893-0.48437 0-0.1712 0.03307-0.33413 0.09893-0.48437 0.0672-0.15013 0.15627-0.27859 0.27083-0.39061 0.11573-0.11333 0.2528-0.20107 0.40624-0.2656 0.1536-0.065867 0.31453-0.098933 0.48957-0.098933zm-61.092 0.34893v4.203h4.4166v-4.203h-4.4166zm60.514 0.073067v1.6458h0.26053v-0.66664h0.32291l0.40104 0.66664h0.29685l-0.44789-0.69269c0.1144-0.024 0.20587-0.081067 0.27603-0.16133 0.07013-0.0816 0.10427-0.18853 0.10427-0.32293 0-0.14613-0.0488-0.2608-0.15093-0.34373-0.10107-0.082933-0.2464-0.12507-0.43749-0.12507h-0.62499zm0.26053 0.1928h0.34373c0.10907 0 0.192 0.026667 0.2552 0.0728 0.06453 0.047467 0.09893 0.11733 0.09893 0.20827 0 0.098933-0.02667 0.1776-0.0832 0.2344-0.05653 0.0552-0.1424 0.0832-0.24987 0.0832h-0.36456v-0.59896zm-34.968 1.6093v17.151c0 2.4671 1.5152 4.9634 5.0988 4.9634h2.5833v-3.6666h-1.7812c-1.0443 0-1.526-0.55344-1.526-1.5625v-8.5779h3.3072v-3.5572h-3.3072v-4.7499h-4.3749zm-28.926 0.51563c-7.0717 6.2244-10.916 14.094-8.6977 23.39 2.8285 11.929 17.906 18.685 40.921 16.437 9.1125-0.87973 21.041-3.828 29.317-8.3956v-6.4894c-7.5214 4.5042-19.961 8.2279-30.327 9.1873-16.859 1.5604-34.425-0.89379-36.884-14.119-1.2213-6.5125 1.75-13.425 5.6717-17.713v-2.2968zm45.837 3.9374c-4.6127 0-8.1196 3.2358-8.1196 8.9633 0 6.6974 4.0189 8.9946 8.2133 8.9946 3.2143 0 5.0296-1.0413 6.7654-2.7551l-2.6978-2.6041c-1.1251 1.1126-2.0913 1.6614-4.0363 1.6614-2.4752 0-3.8853-1.6602-3.8853-3.9114h11.12v-1.5833c0-4.9749-2.6823-8.7654-7.3592-8.7654zm-42.718 0.29688v12.911c0 2.323 1.106 4.3413 4.4166 4.6614v-17.572h-4.4166zm8.3227 0v17.39h4.3697v-13.833h3.6353c1.2855 0 1.8124 0.63328 1.8124 1.6666v12.166h4.3905v-12.182c0-2.4754-1.3204-5.2082-5.1613-5.2082h-9.0466zm34.202 3.3384c2.2501 0 3.1013 1.8197 3.1978 3.7187h-6.7655c0.0477-0.77747 0.1432-1.258 0.43229-1.8906 0.48237-1.0496 1.641-1.8281 3.1353-1.8281z"/>
  <path id="path4168" d="m-97.962-9.8202c-11.879 0.1584-25.139 3.5914-35.827 10.12v1.651c24.397-12.593 59.015-12.515 62.165 5.5259 1.0615 5.9767-2.2865 12.194-8.2811 15.77v4.6822c7.217-2.648 14.595-11.219 12.459-21.724-2.26-11.016-15.243-16.229-30.515-16.025zm10.651 13.192v19.776c0 2.3221 1.1062 4.3412 4.4166 4.6613v-24.437h-4.4166zm8.4425 0.067733c-0.13467 0-0.2616 0.013333-0.38541 0.046933-0.12373 0.034133-0.24 0.084-0.34896 0.14587-0.10773 0.061867-0.208 0.13707-0.29685 0.224-0.0888 0.086933-0.16587 0.1848-0.22907 0.29168-0.0632 0.10533-0.11093 0.21733-0.14587 0.33853-0.03493 0.12133-0.052 0.24853-0.052 0.38019 0 0.13173 0.016 0.2576 0.052 0.38019 0.03493 0.12133 0.0824 0.23707 0.14587 0.34376 0.0632 0.10533 0.14027 0.19947 0.22907 0.28645 0.09013 0.0856 0.18907 0.16187 0.29685 0.224 0.10773 0.061867 0.22507 0.11147 0.34896 0.14587 0.12533 0.034133 0.252 0.046933 0.38541 0.046933 0.13467 0 0.26672-0.013333 0.39061-0.046933 0.12507-0.0344 0.24133-0.084 0.34893-0.14587 0.10907-0.061867 0.20933-0.1384 0.29688-0.224 0.0888-0.086933 0.16053-0.18107 0.224-0.28645 0.0632-0.10667 0.116-0.2224 0.15093-0.34376 0.03493-0.12267 0.052-0.24853 0.052-0.38019 0-0.1976-0.03787-0.38464-0.11467-0.55728-0.07547-0.17387-0.1792-0.32397-0.31248-0.45312-0.132-0.12907-0.29101-0.23227-0.46875-0.30728-0.17627-0.0752-0.36573-0.10933-0.56768-0.10933zm0 0.18747c0.11707 0 0.23067 0.010667 0.33853 0.0416 0.10907 0.029067 0.21307 0.070933 0.30728 0.12507 0.09413 0.054133 0.17707 0.1216 0.2552 0.19787 0.07813 0.0752 0.148 0.15787 0.2032 0.24987 0.0552 0.090933 0.09547 0.19013 0.12507 0.29688 0.03093 0.10533 0.04693 0.21467 0.04693 0.32811 0 0.11467-0.016 0.22667-0.04693 0.33333-0.0296 0.10533-0.06987 0.20453-0.12507 0.29685-0.0552 0.092267-0.12507 0.1736-0.2032 0.24987-0.07813 0.0752-0.16107 0.13867-0.2552 0.1928-0.09413 0.0528-0.19813 0.094667-0.30728 0.12507-0.10773 0.029067-0.22133 0.046933-0.33853 0.046933-0.17493 0-0.33608-0.0344-0.48957-0.098933-0.1536-0.064533-0.29045-0.1536-0.40624-0.2656-0.1144-0.11333-0.20347-0.2456-0.27083-0.39581-0.06587-0.15147-0.09893-0.31173-0.09893-0.48437 0-0.1712 0.03307-0.33413 0.09893-0.48437 0.0672-0.15013 0.15627-0.27859 0.27083-0.39061 0.11573-0.11333 0.2528-0.20107 0.40624-0.2656 0.1536-0.065867 0.31453-0.098933 0.48957-0.098933zm-61.092 0.34893v4.203h4.4166v-4.203h-4.4166zm60.514 0.073067v1.6458h0.26053v-0.66664h0.32291l0.40104 0.66664h0.29685l-0.44789-0.69269c0.1144-0.024 0.20587-0.081067 0.27603-0.16133 0.07013-0.0816 0.10427-0.18853 0.10427-0.32293 0-0.14613-0.0488-0.2608-0.15093-0.34373-0.10107-0.082933-0.2464-0.12507-0.43749-0.12507h-0.62499zm0.26053 0.1928h0.34373c0.10907 0 0.192 0.026667 0.2552 0.0728 0.06453 0.047467 0.09893 0.11733 0.09893 0.20827 0 0.098933-0.02667 0.1776-0.0832 0.2344-0.05653 0.0552-0.1424 0.0832-0.24987 0.0832h-0.36456v-0.59896zm-34.968 1.6093v17.151c0 2.4671 1.5152 4.9634 5.0988 4.9634h2.5833v-3.6666h-1.7812c-1.0443 0-1.526-0.55344-1.526-1.5625v-8.5779h3.3072v-3.5572h-3.3072v-4.7499h-4.3749zm-28.926 0.51563c-7.0717 6.2244-10.916 14.094-8.6977 23.39 2.8285 11.929 17.906 18.685 40.921 16.437 9.1125-0.87973 21.041-3.828 29.317-8.3956v-6.4894c-7.5214 4.5042-19.961 8.2279-30.327 9.1873-16.859 1.5604-34.425-0.89379-36.884-14.119-1.2213-6.5125 1.75-13.425 5.6717-17.713v-2.2968zm45.837 3.9374c-4.6127 0-8.1196 3.2358-8.1196 8.9633 0 6.6974 4.0189 8.9946 8.2133 8.9946 3.2143 0 5.0296-1.0413 6.7654-2.7551l-2.6978-2.6041c-1.1251 1.1126-2.0913 1.6614-4.0363 1.6614-2.4752 0-3.8853-1.6602-3.8853-3.9114h11.12v-1.5833c0-4.9749-2.6823-8.7654-7.3592-8.7654zm-42.718 0.29688v12.911c0 2.323 1.106 4.3413 4.4166 4.6614v-17.572h-4.4166zm8.3227 0v17.39h4.3697v-13.833h3.6353c1.2855 0 1.8124 0.63328 1.8124 1.6666v12.166h4.3905v-12.182c0-2.4754-1.3204-5.2082-5.1613-5.2082h-9.0466zm34.202 3.3385c2.2501 0 3.1013 1.8197 3.1978 3.7187h-6.7655c0.0477-0.77747 0.1432-1.258 0.43229-1.8906 0.48237-1.0496 1.641-1.8281 3.1353-1.8281z" style="fill-opacity:.11765"/>
  <path id="path4164" style="fill-opacity:.23529" d="m-97.962-10.887c-11.879 0.1584-25.139 3.5914-35.827 10.12v1.651c24.397-12.593 59.015-12.515 62.165 5.5259 1.0615 5.9767-2.2865 12.194-8.2811 15.77v4.6822c7.217-2.648 14.595-11.218 12.459-21.723-2.26-11.017-15.243-16.23-30.515-16.026zm10.651 13.192v19.776c0 2.3221 1.1062 4.3412 4.4166 4.6613v-24.437h-4.4166zm8.4425 0.067733c-0.13467 0-0.2616 0.013333-0.38541 0.046933-0.12373 0.034133-0.24 0.084-0.34896 0.14587-0.10773 0.061867-0.208 0.13707-0.29685 0.224-0.0888 0.086933-0.16587 0.1848-0.22907 0.29168-0.0632 0.10533-0.11093 0.21733-0.14587 0.33853-0.03493 0.12133-0.052 0.24853-0.052 0.38019 0 0.13173 0.016 0.2576 0.052 0.38019 0.03493 0.12133 0.0824 0.23707 0.14587 0.34376 0.0632 0.10533 0.14027 0.19947 0.22907 0.28645 0.09013 0.0856 0.18907 0.16187 0.29685 0.224 0.10773 0.061867 0.22507 0.11147 0.34896 0.14587 0.12533 0.034133 0.252 0.046933 0.38541 0.046933 0.13467 0 0.26672-0.013333 0.39061-0.046933 0.12507-0.0344 0.24133-0.084 0.34893-0.14587 0.10907-0.061867 0.20933-0.1384 0.29688-0.224 0.0888-0.086933 0.16053-0.18107 0.224-0.28645 0.0632-0.10667 0.116-0.2224 0.15093-0.34376 0.03493-0.12267 0.052-0.24853 0.052-0.38019 0-0.1976-0.03787-0.38464-0.11467-0.55728-0.07547-0.17387-0.1792-0.32397-0.31248-0.45312-0.132-0.12907-0.29101-0.23227-0.46875-0.30728-0.17627-0.0752-0.36573-0.10933-0.56768-0.10933zm0 0.18747c0.11707 0 0.23067 0.010667 0.33853 0.0416 0.10907 0.029067 0.21307 0.070933 0.30728 0.12507 0.09413 0.054133 0.17707 0.1216 0.2552 0.19787 0.07813 0.0752 0.148 0.15787 0.2032 0.24987 0.0552 0.090933 0.09547 0.19013 0.12507 0.29688 0.03093 0.10533 0.04693 0.21467 0.04693 0.32811 0 0.11467-0.016 0.22667-0.04693 0.33333-0.0296 0.10533-0.06987 0.20453-0.12507 0.29685-0.0552 0.092267-0.12507 0.1736-0.2032 0.24987-0.07813 0.0752-0.16107 0.13867-0.2552 0.1928-0.09413 0.0528-0.19813 0.094667-0.30728 0.12507-0.10773 0.029067-0.22133 0.046933-0.33853 0.046933-0.17493 0-0.33608-0.0344-0.48957-0.098933-0.1536-0.064533-0.29045-0.1536-0.40624-0.2656-0.1144-0.11333-0.20347-0.2456-0.27083-0.39581-0.06587-0.15147-0.09893-0.31173-0.09893-0.48437 0-0.1712 0.03307-0.33413 0.09893-0.48437 0.0672-0.15013 0.15627-0.27859 0.27083-0.39061 0.11573-0.11333 0.2528-0.20107 0.40624-0.2656 0.1536-0.065867 0.31453-0.098933 0.48957-0.098933zm-61.092 0.34893v4.203h4.4166v-4.203h-4.4166zm60.514 0.073067v1.6458h0.26053v-0.66664h0.32291l0.40104 0.66664h0.29685l-0.44789-0.69269c0.1144-0.024 0.20587-0.081067 0.27603-0.16133 0.07013-0.0816 0.10427-0.18853 0.10427-0.32293 0-0.14613-0.0488-0.2608-0.15093-0.34373-0.10107-0.082933-0.2464-0.12507-0.43749-0.12507h-0.62499zm0.26053 0.1928h0.34373c0.10907 0 0.192 0.026667 0.2552 0.0728 0.06453 0.047467 0.09893 0.11733 0.09893 0.20827 0 0.098933-0.02667 0.1776-0.0832 0.2344-0.05653 0.0552-0.1424 0.0832-0.24987 0.0832h-0.36456v-0.59896zm-34.968 1.6093v17.151c0 2.4671 1.5152 4.9634 5.0988 4.9634h2.5833v-3.6666h-1.7812c-1.0443 0-1.526-0.55344-1.526-1.5625v-8.5779h3.3072v-3.5572h-3.3072v-4.7499h-4.3749zm-28.926 0.51563c-7.0717 6.2244-10.916 14.094-8.6977 23.39 2.8285 11.929 17.906 18.685 40.921 16.437 9.1125-0.87973 21.041-3.828 29.317-8.3956v-6.4894c-7.5214 4.5042-19.961 8.2279-30.327 9.1873-16.859 1.5604-34.425-0.89379-36.884-14.119-1.2213-6.5125 1.75-13.425 5.6717-17.713v-2.2968zm45.837 3.9374c-4.6127 0-8.1196 3.2358-8.1196 8.9633 0 6.6974 4.0189 8.9946 8.2133 8.9946 3.2143 0 5.0296-1.0413 6.7654-2.7551l-2.6978-2.6041c-1.1251 1.1126-2.0913 1.6614-4.0363 1.6614-2.4752 0-3.8853-1.6602-3.8853-3.9114h11.12v-1.5833c0-4.9749-2.6823-8.7654-7.3592-8.7654zm-42.718 0.29688v12.911c0 2.323 1.106 4.3413 4.4166 4.6614v-17.572h-4.4166zm8.3227 0v17.39h4.3697v-13.833h3.6353c1.2855 0 1.8124 0.63328 1.8124 1.6666v12.166h4.3905v-12.182c0-2.4754-1.3204-5.2082-5.1613-5.2082h-9.0466zm34.202 3.3385c2.2501 0 3.1013 1.8197 3.1978 3.7187h-6.7655c0.0477-0.77747 0.1432-1.258 0.43229-1.8906 0.48237-1.0496 1.641-1.8281 3.1353-1.8281z"/>
  <path id="path6" d="m-97.962-11.953c-11.879 0.1584-25.139 3.5914-35.827 10.12v1.651c24.397-12.593 59.015-12.515 62.165 5.5259 1.0615 5.9767-2.2865 12.194-8.2811 15.77v4.6822c7.217-2.648 14.595-11.219 12.459-21.724-2.26-11.016-15.243-16.229-30.515-16.025zm10.651 13.192v19.776c0 2.3221 1.1062 4.3412 4.4166 4.6613v-24.437h-4.4166zm8.4425 0.067733c-0.13467 0-0.2616 0.013333-0.38541 0.046933-0.12373 0.034133-0.24 0.084-0.34896 0.14587-0.10773 0.061867-0.208 0.13707-0.29685 0.224-0.0888 0.086933-0.16587 0.1848-0.22907 0.29168-0.0632 0.10533-0.11093 0.21733-0.14587 0.33853-0.03493 0.12133-0.052 0.24853-0.052 0.38019 0 0.13173 0.016 0.2576 0.052 0.38019 0.03493 0.12133 0.0824 0.23707 0.14587 0.34376 0.0632 0.10533 0.14027 0.19947 0.22907 0.28645 0.09013 0.0856 0.18907 0.16187 0.29685 0.224 0.10773 0.061867 0.22507 0.11147 0.34896 0.14587 0.12533 0.034133 0.252 0.046933 0.38541 0.046933 0.13467 0 0.26672-0.013333 0.39061-0.046933 0.12507-0.0344 0.24133-0.084 0.34893-0.14587 0.10907-0.061867 0.20933-0.1384 0.29688-0.224 0.0888-0.086933 0.16053-0.18107 0.224-0.28645 0.0632-0.10667 0.116-0.2224 0.15093-0.34376 0.03493-0.12267 0.052-0.24853 0.052-0.38019 0-0.1976-0.03787-0.38464-0.11467-0.55728-0.07547-0.17387-0.1792-0.32397-0.31248-0.45312-0.132-0.12907-0.29101-0.23227-0.46875-0.30728-0.17627-0.0752-0.36573-0.10933-0.56768-0.10933zm0 0.18747c0.11707 0 0.23067 0.010667 0.33853 0.0416 0.10907 0.029067 0.21307 0.070933 0.30728 0.12507 0.09413 0.054133 0.17707 0.1216 0.2552 0.19787 0.07813 0.0752 0.148 0.15787 0.2032 0.24987 0.0552 0.090933 0.09547 0.19013 0.12507 0.29688 0.03093 0.10533 0.04693 0.21467 0.04693 0.32811 0 0.11467-0.016 0.22667-0.04693 0.33333-0.0296 0.10533-0.06987 0.20453-0.12507 0.29685-0.0552 0.092267-0.12507 0.1736-0.2032 0.24987-0.07813 0.0752-0.16107 0.13867-0.2552 0.1928-0.09413 0.0528-0.19813 0.094667-0.30728 0.12507-0.10773 0.029067-0.22133 0.046933-0.33853 0.046933-0.17493 0-0.33608-0.0344-0.48957-0.098933-0.1536-0.064533-0.29045-0.1536-0.40624-0.2656-0.1144-0.11333-0.20347-0.2456-0.27083-0.39581-0.06587-0.15147-0.09893-0.31173-0.09893-0.48437 0-0.1712 0.03307-0.33413 0.09893-0.48437 0.0672-0.15013 0.15627-0.27859 0.27083-0.39061 0.11573-0.11333 0.2528-0.20107 0.40624-0.2656 0.1536-0.065867 0.31453-0.098933 0.48957-0.098933zm-61.092 0.34893v4.203h4.4166v-4.203h-4.4166zm60.514 0.073067v1.6458h0.26053v-0.66664h0.32291l0.40104 0.66664h0.29685l-0.44789-0.69269c0.1144-0.024 0.20587-0.081067 0.27603-0.16133 0.07013-0.0816 0.10427-0.18853 0.10427-0.32293 0-0.14613-0.0488-0.2608-0.15093-0.34373-0.10107-0.082933-0.2464-0.12507-0.43749-0.12507h-0.62499zm0.26053 0.1928h0.34373c0.10907 0 0.192 0.026667 0.2552 0.0728 0.06453 0.047467 0.09893 0.11733 0.09893 0.20827 0 0.098933-0.02667 0.1776-0.0832 0.2344-0.05653 0.0552-0.1424 0.0832-0.24987 0.0832h-0.36456v-0.59896zm-34.968 1.6093v17.151c0 2.4671 1.5152 4.9634 5.0988 4.9634h2.5833v-3.6666h-1.7812c-1.0443 0-1.526-0.55344-1.526-1.5625v-8.5779h3.3072v-3.5572h-3.3072v-4.7499h-4.3749zm-28.926 0.51563c-7.0717 6.2244-10.916 14.094-8.6977 23.39 2.8285 11.929 17.906 18.685 40.921 16.437 9.1125-0.87973 21.041-3.828 29.317-8.3956v-6.4894c-7.5214 4.5042-19.961 8.2279-30.327 9.1873-16.859 1.5604-34.425-0.89379-36.884-14.119-1.2213-6.5125 1.75-13.425 5.6717-17.713v-2.2968zm45.837 3.9374c-4.6127 0-8.1196 3.2358-8.1196 8.9633 0 6.6974 4.0189 8.9946 8.2133 8.9946 3.2143 0 5.0296-1.0413 6.7654-2.7551l-2.6978-2.6041c-1.1251 1.1126-2.0913 1.6614-4.0363 1.6614-2.4752 0-3.8853-1.6602-3.8853-3.9114h11.12v-1.5833c0-4.9749-2.6823-8.7654-7.3592-8.7654zm-42.718 0.29688v12.911c0 2.323 1.106 4.3413 4.4166 4.6614v-17.572h-4.4166zm8.3227 0v17.39h4.3697v-13.833h3.6353c1.2855 0 1.8124 0.63328 1.8124 1.6666v12.166h4.3905v-12.182c0-2.4754-1.3204-5.2082-5.1613-5.2082h-9.0466zm34.202 3.3385c2.2501 0 3.1013 1.8197 3.1978 3.7187h-6.7655c0.0477-0.77747 0.1432-1.258 0.43229-1.8906 0.48237-1.0496 1.641-1.8281 3.1353-1.8281z" style="fill:url(#linearGradient4763)"/>
  <path id="path4172" style="fill:#0063c0;fill-opacity:.31373" d="m-99.39-11.125c-8.9429 0.17387-18.865 2.2479-27.974 5.9167-2.2104 1.0228-4.378 2.1234-6.4271 3.375v1.651c24.397-12.593 59.016-12.515 62.167 5.526 0.06864 0.38652 0.06672 0.7737 0.09896 1.1615 0.09141-1.0955 0.09589-2.1997-0.09896-3.2969-1.772-10.148-13.5-14.611-27.766-14.333zm20.521 12.432c-0.11091 0-0.21469 0.0144-0.31771 0.036453v0.083333h-0.23957c-0.05893 0.0248-0.12192 0.0416-0.17709 0.072907-0.02267 0.013067-0.04056 0.03272-0.06251 0.04688 0.0596 0.0476 0.12461 0.088027 0.19272 0.12499 0.04104-0.0224 0.07075-0.05968 0.11459-0.078133 0.1536-0.065867 0.31454-0.09896 0.48958-0.09896 0.11707 0 0.23067 0.010667 0.33854 0.041653 0.10907 0.029067 0.21307 0.070853 0.30729 0.12501 0.0021 0.00122 0.0032 0.004 0.0053 0.00533 0.05123-0.029867 0.09496-0.068293 0.14061-0.10416-0.07005-0.044933-0.13011-0.10133-0.20835-0.13541h-0.17709l-0.02613-0.04688c-0.12381-0.032693-0.24499-0.072907-0.38021-0.072907zm-0.95312 0.35938c-0.02453 0.021067-0.05499 0.03464-0.07813 0.05728-0.0888 0.086933-0.16597 0.1848-0.22917 0.29167-0.0632 0.10533-0.11091 0.21733-0.14584 0.33854-0.03493 0.12133-0.05208 0.24856-0.05208 0.38021 0 0.13173 0.016 0.25763 0.05208 0.38021 0.03493 0.12133 0.08237 0.23707 0.14584 0.34375 0.0632 0.10533 0.14037 0.19947 0.22917 0.28646 0.09013 0.0856 0.18909 0.16181 0.29687 0.22395 0.10773 0.061867 0.22507 0.11144 0.34896 0.14584 0.12533 0.034133 0.252 0.04688 0.38542 0.04688 0.13467 0 0.26673-0.013333 0.39062-0.04688 0.12507-0.0344 0.24136-0.083973 0.34896-0.14584 0.10907-0.061867 0.20933-0.13835 0.29687-0.22395 0.0888-0.086933 0.16048-0.18107 0.22395-0.28646 0.0632-0.10667 0.11611-0.2224 0.15104-0.34375 0.03493-0.12267 0.05208-0.24856 0.05208-0.38021 0-0.1976-0.03779-0.38465-0.11459-0.55729-0.07547-0.17387-0.17923-0.32398-0.3125-0.45312-0.0232-0.022667-0.05859-0.031067-0.08333-0.05208-0.04811 0.040827-0.09741 0.080027-0.15104 0.11459 0.03147 0.026133 0.06923 0.043893 0.09896 0.072907 0.07813 0.0752 0.14792 0.158 0.20312 0.25 0.0552 0.090933 0.09541 0.19013 0.12499 0.29687 0.03093 0.10533 0.04688 0.21469 0.04688 0.32813 0 0.11467-0.016 0.22667-0.04688 0.33333-0.0296 0.10533-0.06981 0.20456-0.12499 0.29687-0.0552 0.092267-0.12499 0.17373-0.20312 0.25-0.07813 0.0752-0.16107 0.13859-0.2552 0.19272-0.09413 0.0528-0.19813 0.094613-0.30729 0.12499-0.10773 0.029067-0.22133 0.04688-0.33854 0.04688-0.17493 0-0.33609-0.034427-0.48958-0.09896-0.1536-0.064533-0.29046-0.15363-0.40625-0.26563-0.1144-0.11333-0.20347-0.24563-0.27083-0.39583-0.06587-0.15147-0.09896-0.31174-0.09896-0.48438 0-0.1712 0.03309-0.33413 0.09896-0.48437 0.0672-0.15013 0.15627-0.2786 0.27083-0.39063 0.02963-0.029013 0.07184-0.042027 0.10416-0.067707-0.05733-0.036987-0.10944-0.080853-0.16147-0.12499zm0.375 0.25v1.6458h0.26043v-0.66667h0.32292l0.40104 0.66667h0.29688l-0.44792-0.69271c0.1144-0.024 0.20589-0.0812 0.27604-0.16147 0.07013-0.0816 0.10416-0.18851 0.10416-0.32292 0-0.14613-0.04891-0.26083-0.15104-0.34375-0.04211-0.03456-0.12469-0.031787-0.18229-0.05208-0.09845 0.0192-0.19792 0.036453-0.30208 0.036453-0.13341 0-0.26008-0.0128-0.38542-0.04688-0.05355-0.014933-0.10019-0.042187-0.15104-0.062507h-0.04168zm0.26043 0.19272h0.34375c0.10907 0 0.192 0.026773 0.2552 0.072907 0.06453 0.047467 0.09896 0.11741 0.09896 0.20835 0 0.098933-0.0268 0.17757-0.08333 0.23437-0.05653 0.0552-0.14253 0.083333-0.25 0.083333h-0.36458v-0.59896zm-60.776 1.8021v2.1354h4.4167v-2.1354h-4.4167zm-3.1198 0.48437c-3.5377 3.8686-6.2692 9.8725-5.8802 15.792 0.29551-5.1959 2.7685-10.254 5.8802-13.656v-2.1354zm75.953 2.2656c-0.492 8.2908-6.68 14.763-12.779 17.001v2.1354c6.6124-2.4262 13.337-9.8317 12.776-19.135zm-30.307 3.0104c-1.4943 0-2.653 0.77855-3.1354 1.8281-0.28909 0.63259-0.38456 1.1132-0.43229 1.8906h0.59375c0.54357-0.91682 1.6048-1.5833 2.974-1.5833 1.3314 0 2.1293 0.66967 2.6146 1.5833h0.58333c-0.09653-1.899-0.94778-3.7187-3.1979-3.7187zm-29.836 0.2191v2.1354h3.6354c1.2855 0 1.8125 0.63333 1.8125 1.6667v-2.1354c0-1.0333-0.52701-1.6667-1.8125-1.6667h-3.6354zm17.49 0v2.1354h3.3073v-2.1354h-3.3073zm4.5 6.1823c-0.0293 0.35295-0.0833 0.68804-0.0833 1.0625 0 6.6974 4.0191 8.9948 8.2135 8.9948 3.2143 0 5.0298-1.0414 6.7656-2.7552l-1.1667-1.125c-1.4334 1.0968-3.0858 1.7448-5.599 1.7448-3.9512 0-7.7033-2.0869-8.1302-7.9219zm4.276 0.3125c0 0.80427 0.18701 1.5308 0.53125 2.1354h10.589v-1.5833c0-0.18992-0.02867-0.36576-0.03645-0.55208h-11.083zm-13.151 2.349v2.1354c0 2.4671 1.5154 4.9635 5.099 4.9635h2.5833v-2.1354h-2.5833c-3.5836 0-5.099-2.4964-5.099-4.9635zm26.844 0.14584v2.1354c0 2.3221 1.1063 4.3413 4.4167 4.6615v-2.1354c-3.3103-0.32016-4.4167-2.3394-4.4167-4.6615zm-52.651 0.36458v2.1354c0 2.323 1.1061 4.3414 4.4167 4.6615v-2.1354c-3.3106-0.32003-4.4167-2.3385-4.4167-4.6615zm-12.375 1.6146c-0.16729 2.1618-0.003 4.4184 0.55729 6.7656 2.8285 11.929 17.907 18.686 40.922 16.437 9.1125-0.87973 21.041-3.8282 29.318-8.3958v-2.1354c-8.2763 4.5676-20.205 7.5161-29.318 8.3958-23.015 2.2484-38.093-4.5082-40.922-16.438-0.37977-1.5918-0.51876-3.1232-0.55729-4.6302zm20.698 2.8646v2.1354h4.3698v-2.1354h-4.3698zm9.8177 0v2.1354h4.3906v-2.1354h-4.3906z"/>
  <path id="path4177" style="fill:#fff;fill-opacity:.23529" d="m-97.963-11.953c-11.879 0.1584-25.14 3.5916-35.828 10.12v1.0677c10.688-6.5282 23.949-9.9614 35.828-10.12 15.273-0.20365 28.256 5.0092 30.516 16.026 0.22309 1.0967 0.32228 2.1636 0.34896 3.2135 0.04741-1.3843-0.04971-2.8101-0.34896-4.2812-2.2601-11.017-15.243-16.23-30.516-16.026zm10.651 13.193v1.0677h4.4167v-1.0677h-4.4167zm8.4427 0.067707c-0.13467 0-0.2616 0.013333-0.38542 0.04688-0.12373 0.034133-0.24 0.083973-0.34896 0.14584-0.10773 0.061867-0.20803 0.13701-0.29687 0.22395-0.0888 0.086933-0.16597 0.1848-0.22917 0.29167-0.0632 0.10533-0.11091 0.21733-0.14584 0.33854-0.03493 0.12133-0.05208 0.24856-0.05208 0.38021 0 0.13173 0.016 0.25763 0.05208 0.38021 0.016 0.055333 0.04624 0.10357 0.06771 0.15624 0.02587-0.062507 0.04331-0.12947 0.07813-0.18749 0.01467-0.024533 0.03608-0.04408 0.05208-0.067707-0.02213-0.092587-0.05728-0.18101-0.05728-0.28125 0-0.1712 0.03309-0.33413 0.09896-0.48437 0.0672-0.15013 0.15627-0.2786 0.27083-0.39063 0.11573-0.11333 0.2528-0.20109 0.40625-0.26563 0.1536-0.065867 0.31454-0.09896 0.48958-0.09896 0.11707 0 0.23067 0.010667 0.33854 0.041653 0.10907 0.029067 0.21307 0.070853 0.30729 0.12501 0.09413 0.054133 0.17707 0.12165 0.2552 0.19792 0.07813 0.0752 0.14792 0.158 0.20312 0.25 0.0552 0.090933 0.09541 0.19013 0.12499 0.29687 0.03093 0.10533 0.04688 0.21469 0.04688 0.32813 0 0.11467-0.016 0.22667-0.04688 0.33333 0.03792 0.060533 0.09048 0.10955 0.11979 0.17709 0.0014 0.0032-0.0014 0.0072 0 0.0104 0.01973-0.047627 0.04819-0.09088 0.06251-0.14061 0.03493-0.12267 0.05208-0.24856 0.05208-0.38021 0-0.1976-0.03779-0.38465-0.11459-0.55729-0.07547-0.17387-0.17923-0.32398-0.3125-0.45312-0.132-0.12907-0.29102-0.23227-0.46875-0.30729-0.17627-0.0752-0.36576-0.10939-0.56771-0.10939zm-61.094 0.53646v1.0677h4.4167v-1.0677h-4.4167zm60.516 0.072907v0.58333c0.06355-0.027653 0.12469-0.05936 0.19272-0.078133 0.02187-0.00587 0.04565-0.0056 0.06771-0.0104v-0.30209h0.34375c0.10907 0 0.192 0.026773 0.2552 0.072907 0.06453 0.047467 0.09896 0.11741 0.09896 0.20835 0 0.0224-0.01813 0.031867-0.0208 0.05208 0.06829 0.0168 0.14355 0.014133 0.20832 0.04168 0.012 0.00507 0.01947 0.015467 0.03125 0.0208 0.0093-0.042213 0.03645-0.070187 0.03645-0.11979 0-0.14613-0.04891-0.26083-0.15104-0.34375-0.10107-0.082933-0.2464-0.12499-0.4375-0.12499h-0.625zm0.88542 0.6823c-0.0056 0.00693-0.004 0.019733-0.0104 0.026133-0.05653 0.0552-0.14253 0.083333-0.25 0.083333h-0.36458v-0.083333c-0.05613 0.014933-0.11784 0.013333-0.17187 0.036453-0.03333 0.014133-0.0568 0.041067-0.08853 0.05728v0.26563h0.26043v-0.088533h0.32292l0.05728 0.09376c0.14291 0.00232 0.24272 0.04328 0.33333 0.09376l-0.144-0.214c0.1144-0.024 0.20589-0.0812 0.27604-0.16147 0.0045-0.00507 0.0011-0.015467 0.0053-0.0208-0.06507-0.029387-0.12731-0.064507-0.19792-0.083333-0.01013-0.00293-0.02107-0.00267-0.03125-0.00533zm-0.10416 0.63021 0.16147 0.26563c0.0014-0.014667 0.01573-0.0208 0.01573-0.036453 0-0.090933-0.03443-0.16085-0.09896-0.20835-0.0192-0.014133-0.05504-0.010667-0.07813-0.0208zm-1.3333 0.04168c-0.0091 0.018133-0.02808 0.02816-0.03645 0.04688-0.02763 0.063013-0.0256 0.13597-0.04168 0.20312 0.05389 0.078267 0.10797 0.15627 0.17709 0.22395 0.09013 0.0856 0.18909 0.16181 0.29687 0.22395 0.04851 0.027867 0.10413 0.045093 0.15624 0.067707v-0.21355c-0.11437-0.0588-0.22709-0.12067-0.31771-0.20835-0.09923-0.09832-0.17091-0.2176-0.23437-0.34375zm2.276 0c-0.01467 0.030773-0.024 0.064347-0.04168 0.09376-0.0552 0.092267-0.12499 0.17373-0.20312 0.25-0.07813 0.0752-0.16107 0.13859-0.2552 0.19272-0.09413 0.0528-0.19813 0.094613-0.30729 0.12499-0.0248 0.00667-0.05269 0.00507-0.07813 0.0104l0.10939 0.17187c0.0067-0.00165 0.0144 0.00177 0.0208 0 0.12507-0.0344 0.24136-0.083973 0.34896-0.14584 0.10907-0.061867 0.20933-0.13835 0.29687-0.22395 0.07787-0.07624 0.14037-0.15997 0.19792-0.25-0.0019-0.00693-0.0032-0.014133-0.0053-0.0208-0.02027-0.072747-0.05189-0.1376-0.08333-0.20312zm-0.51042 0.18749c-0.000325 0.04344-0.02885 0.066453-0.03645 0.10416h0.10416l-0.06771-0.10416zm-35.922 0.26043v1.0677h4.375v-1.0677h-4.375zm34.969 0.2448v0.16147c0.10376 0.022133 0.20781 0.036453 0.31771 0.036453 0.03957 0 0.0756-0.013067 0.11459-0.015733l-0.105-0.167c-0.0053 0.000072-0.0104 0-0.01573 0-0.02789 0-0.05091-0.013867-0.07813-0.015733h-0.23957zm-63.896 0.27081c-5.583 4.9141-9.0956 10.867-9.2604 17.724 0.48609-6.4134 3.9654-11.996 9.2604-16.656v-1.0677zm71.604 3.8802c-0.21803 5.0588-3.3578 9.9755-8.4271 13v1.0677c5.4261-3.2374 8.6452-8.64 8.4271-14.068zm-25.766 0.05728c-4.6127 0-8.1198 3.236-8.1198 8.9635 0 0.19461 0.035 0.34921 0.0417 0.53646 0.2193-5.3819 3.6162-8.4323 8.0781-8.4323 4.6769 0 7.3594 3.7907 7.3594 8.7656v-1.0677c0-4.9749-2.6825-8.7656-7.3594-8.7656zm-42.719 0.29687v1.0677h4.4167v-1.0677h-4.4167zm8.3229 0v1.0677h9.0469c3.841 0 5.1614 2.7329 5.1614 5.2083v-1.0677c0-2.4754-1.3205-5.2083-5.1614-5.2083h-9.0469zm21.859 0v1.0677h3.3073v-1.0677h-3.3073zm8.9219 7.0573c-0.0759 0.31608-0.12019 0.64976-0.14584 1.0677h6.7656c-0.01867-0.36584-0.09267-0.7202-0.17187-1.0677h-6.4479zm-0.14584 4.0625c0 2.2512 1.4102 3.9115 3.8854 3.9115 1.945 0 2.9114-0.54887 4.0365-1.6615l2.1146 2.0417c0.19331-0.17075 0.39365-0.31792 0.58333-0.50521l-2.693-2.604c-1.1251 1.1126-2.0914 1.6615-4.0365 1.6615-2.0603 0-3.3646-1.1598-3.75-2.8437h-0.13542zm-8.776 1.0156v1.0677c0 1.009 0.48177 1.5625 1.526 1.5625h1.7812v-1.0677h-1.7812c-1.0443 0-1.526-0.55349-1.526-1.5625zm-39.208 1.4531c-0.013 1.0867 0.0321 2.1767 0.23438 3.2552 2.4592 13.226 20.026 15.68 36.885 14.12 10.366-0.95933 22.807-4.6833 30.328-9.1875v-1.0677c-7.5214 4.5042-19.962 8.2282-30.328 9.1875-16.859 1.5604-34.426-0.89414-36.885-14.12-0.13612-0.72583-0.19793-1.4559-0.23438-2.1875z"/>
 </g>
</svg>
