<?xml version="1.0" encoding="UTF-8" standalone="no"?>
<!-- Created with Inkscape (http://www.inkscape.org/) -->
<svg id="svg3449" xmlns:rdf="http://www.w3.org/1999/02/22-rdf-syntax-ns#" xmlns="http://www.w3.org/2000/svg" height="128" width="128" version="1.0" xmlns:cc="http://creativecommons.org/ns#" xmlns:xlink="http://www.w3.org/1999/xlink" xmlns:dc="http://purl.org/dc/elements/1.1/">
 <metadata id="metadata56">
  <rdf:RDF>
   <cc:Work rdf:about="">
    <dc:format>image/svg+xml</dc:format>
    <dc:type rdf:resource="http://purl.org/dc/dcmitype/StillImage"/>
    <dc:title/>
   </cc:Work>
  </rdf:RDF>
 </metadata>
 <defs id="defs3451">
  <linearGradient id="linearGradient3514" y2="-9.1034" gradientUnits="userSpaceOnUse" x2="66.492" gradientTransform="matrix(.96826 0 0 .97948 2.179 .16587)" y1="-42.638" x1="67.952">
   <stop id="stop4620" style="stop-color:#37414b" offset="0"/>
   <stop id="stop4622" style="stop-color:#37414b;stop-opacity:0" offset="1"/>
  </linearGradient>
  <linearGradient id="linearGradient3516" y2="-11.847" gradientUnits="userSpaceOnUse" x2="58.98" gradientTransform="matrix(.96826 0 0 .97948 2.179 .16587)" y1="-118.55" x1="57.173">
   <stop id="stop4596" offset="0"/>
   <stop id="stop4598" style="stop-opacity:0" offset="1"/>
  </linearGradient>
  <linearGradient id="linearGradient3519" y2="50.369" gradientUnits="userSpaceOnUse" x2="76.558" gradientTransform="matrix(.96826 0 0 .97948 3.2423 -129.19)" y1="13.164" x1="76.558">
   <stop id="stop3392" style="stop-color:#425e7b" offset="0"/>
   <stop id="stop3394" style="stop-color:#7a91a7" offset="1"/>
  </linearGradient>
  <linearGradient id="linearGradient3521" y2="-8.7399" gradientUnits="userSpaceOnUse" x2="60.217" gradientTransform="matrix(.96826 0 0 .97948 2.179 .16587)" y1="-123.72" x1="60.395">
   <stop id="stop3392-4-8" style="stop-color:#425e7b" offset="0"/>
   <stop id="stop3394-8-0" style="stop-color:#7a91a7" offset="1"/>
  </linearGradient>
  <radialGradient id="radialGradient3349" gradientUnits="userSpaceOnUse" cy="45.647" cx="42.148" gradientTransform="matrix(.94690 -.033779 .040605 1.1383 1.7419 -28.433)" r="58.984">
   <stop id="stop7563" style="stop-color:#7cc94f" offset="0"/>
   <stop id="stop7565" style="stop-color:#589b32" offset="1"/>
  </radialGradient>
  <filter id="filter3174-5" color-interpolation-filters="sRGB">
   <feGaussianBlur id="feGaussianBlur3176-4" stdDeviation="1.71"/>
  </filter>
  <linearGradient id="ButtonShadow-4" x1="45.448" gradientUnits="userSpaceOnUse" y1="92.54" gradientTransform="scale(1.0059 .99417)" x2="45.448" y2="7.0165">
   <stop id="stop3750-3" offset="0"/>
   <stop id="stop3752-57" style="stop-opacity:.58824" offset="1"/>
  </linearGradient>
  <filter id="filter3174-0" color-interpolation-filters="sRGB">
   <feGaussianBlur id="feGaussianBlur3176-9" stdDeviation="1.71"/>
  </filter>
  <filter id="filter3174-7" color-interpolation-filters="sRGB">
   <feGaussianBlur id="feGaussianBlur3176-7" stdDeviation="1.71"/>
  </filter>
  <clipPath id="clipPath3613-9">
   <rect id="rect3615-2" style="fill:#fff" rx="6" ry="6" height="84" width="84" y="6" x="6"/>
  </clipPath>
  <linearGradient id="linearGradient3613-3" x1="48" gradientUnits="userSpaceOnUse" y1="20.221" x2="48" y2="138.66">
   <stop id="stop3739-03" style="stop-color:#fff" offset="0"/>
   <stop id="stop3741-5" style="stop-color:#fff;stop-opacity:0" offset="1"/>
  </linearGradient>
  <filter id="filter3794-30" height="1.384" width="1.384" color-interpolation-filters="sRGB" y="-.192" x="-.192">
   <feGaussianBlur id="feGaussianBlur3796-38" stdDeviation="5.28"/>
  </filter>
  <filter id="filter3174-8" color-interpolation-filters="sRGB">
   <feGaussianBlur id="feGaussianBlur3176-3" stdDeviation="1.71"/>
  </filter>
  <clipPath id="clipPath3613-26">
   <rect id="rect3615-4" style="fill:#fff" rx="6" ry="6" height="84" width="84" y="6" x="6"/>
  </clipPath>
  <filter id="filter3794-67" height="1.384" width="1.384" color-interpolation-filters="sRGB" y="-.192" x="-.192">
   <feGaussianBlur id="feGaussianBlur3796-4" stdDeviation="5.28"/>
  </filter>
  <filter id="filter3174-4" color-interpolation-filters="sRGB">
   <feGaussianBlur id="feGaussianBlur3176-0" stdDeviation="1.71"/>
  </filter>
  <filter id="filter3174-1" color-interpolation-filters="sRGB">
   <feGaussianBlur id="feGaussianBlur3176-1" stdDeviation="1.71"/>
  </filter>
  <linearGradient id="linearGradient9285" y2="7.0165" gradientUnits="userSpaceOnUse" x2="45.448" gradientTransform="matrix(1.0059 0 0 .99417 -59.657 2.8358)" y1="92.54" x1="45.448">
   <stop id="stop3750-7" offset="0"/>
   <stop id="stop3752-3" style="stop-opacity:.58824" offset="1"/>
  </linearGradient>
  <filter id="filter3174-06" color-interpolation-filters="sRGB">
   <feGaussianBlur id="feGaussianBlur3176-91" stdDeviation="1.71"/>
  </filter>
  <filter id="filter3174-45" color-interpolation-filters="sRGB">
   <feGaussianBlur id="feGaussianBlur3176-46" stdDeviation="1.71"/>
  </filter>
  <filter id="filter3174-17" color-interpolation-filters="sRGB">
   <feGaussianBlur id="feGaussianBlur3176-33" stdDeviation="1.71"/>
  </filter>
  <filter id="filter3174-2" color-interpolation-filters="sRGB">
   <feGaussianBlur id="feGaussianBlur3176-6" stdDeviation="1.71"/>
  </filter>
  <linearGradient id="linearGradient8327" y2="7.0165" gradientUnits="userSpaceOnUse" x2="45.448" gradientTransform="matrix(1.0059 0 0 .99417 199.61 15.454)" y1="92.54" x1="45.448">
   <stop id="stop3750-60" offset="0"/>
   <stop id="stop3752-38" style="stop-opacity:.58824" offset="1"/>
  </linearGradient>
  <filter id="filter3174-54" color-interpolation-filters="sRGB">
   <feGaussianBlur id="feGaussianBlur3176-69" stdDeviation="1.71"/>
  </filter>
  <linearGradient id="linearGradient8554" y2="7.0165" gradientUnits="userSpaceOnUse" x2="45.448" gradientTransform="matrix(1.0059 0 0 .99417 -111.8 8.6962)" y1="92.54" x1="45.448">
   <stop id="stop3750-62" offset="0"/>
   <stop id="stop3752-52" style="stop-opacity:.58824" offset="1"/>
  </linearGradient>
  <filter id="filter3174-24" color-interpolation-filters="sRGB">
   <feGaussianBlur id="feGaussianBlur3176-64" stdDeviation="1.71"/>
  </filter>
  <linearGradient id="linearGradient8844" y2="7.0165" gradientUnits="userSpaceOnUse" x2="45.448" gradientTransform="matrix(1.0059 0 0 .99417 -182.89 .27657)" y1="92.54" x1="45.448">
   <stop id="stop3750-9" offset="0"/>
   <stop id="stop3752-48" style="stop-opacity:.58824" offset="1"/>
  </linearGradient>
 </defs>
 <rect id="rect892" style="stroke:url(#linearGradient3521);stroke-width:.97385;fill:url(#linearGradient3519)" transform="scale(1,-1)" ry="29.296" height="115.54" width="114.22" y="-122.25" x="7.0394"/>
 <rect id="rect892-2" style="stroke:url(#linearGradient3516);stroke-width:.97385;fill:url(#linearGradient3514)" transform="scale(1,-1)" ry="28.993" height="114.35" width="114.22" y="-121.46" x="7.0599"/>
 <path id="rect895" style="fill:url(#radialGradient3349)" d="m30.571 7.0104c-13.128 0.936-22.55 15.04-23.173 23.288-0.050142 0.97378-0.088772 1.9648-0.088772 2.9572v58.419c0 15.229 11.191 27.859 22.318 27.859h67.038c15.69 0 24.318-16.445 24.318-25.859v-64.017c-0.21-5.933-12.29-21.682-25.926-22.618-47.846 0.8653-20.497-0.0256-64.483-0.0256z"/>
 <rect id="rect892-2-7-8" style="opacity:.15891;stroke:#000;stroke-width:4.8445;fill:none" transform="scale(1,-1)" ry="28.993" height="114.35" width="114.22" y="-121.16" x="6.8683"/>
 <rect id="rect892-2-7-1" style="opacity:.15891;stroke:#000;stroke-width:7.7512;fill:none" transform="scale(1,-1)" ry="28.993" height="114.35" width="114.22" y="-121.16" x="6.8686"/>
 <rect id="rect892-2-7-2-9" ry="28.502" style="stroke:#000;stroke-width:1.0569;fill:none" transform="scale(1,-1)" height="114.46" width="114.13" y="-121.31" x="7.0685"/>
 <g id="layer2" style="display:none" transform="translate(137.63 15.959)">
  <rect id="rect3745" style="opacity:.9;filter:url(#filter3174-5);fill:url(#ButtonShadow-4)" rx="6" ry="6" height="85" width="86" y="7" x="5"/>
 </g>
 <g id="layer2-3" style="display:none" transform="translate(146.29 14.997)">
  <rect id="rect3745-4" style="opacity:.9;filter:url(#filter3174-0);fill:url(#ButtonShadow-4)" rx="6" ry="6" height="85" width="86" y="7" x="5"/>
 </g>
 <g id="layer2-4" style="display:none" transform="translate(176.76 -8.736)">
  <rect id="rect3745-7" style="opacity:.9;filter:url(#filter3174-7);fill:url(#ButtonShadow-4)" rx="6" ry="6" height="85" width="86" y="7" x="5"/>
 </g>
 <g id="layer2-2" style="display:none" transform="translate(143.15 5.055)">
  <rect id="rect3745-9" style="opacity:.9;filter:url(#filter3174-8);fill:url(#ButtonShadow-4)" rx="6" ry="6" height="85" width="86" y="7" x="5"/>
 </g>
 <g id="layer5-4" style="display:none" transform="translate(143.15 5.055)">
  <rect id="rect3171-7" style="opacity:.3;filter:url(#filter3794-30);stroke:#fff;stroke-linecap:round;stroke-width:.5;fill:url(#linearGradient3613-3)" clip-path="url(#clipPath3613-9)" rx="12" ry="12" height="66" width="66" y="15" x="15"/>
 </g>
 <g id="layer2-1" style="display:none" transform="translate(160.47 -5.8175)">
  <rect id="rect3745-8" style="opacity:.9;filter:url(#filter3174-4);fill:url(#ButtonShadow-4)" rx="6" ry="6" height="85" width="86" y="7" x="5"/>
 </g>
 <g id="layer5-46" style="display:none" transform="translate(160.47 -5.8175)">
  <rect id="rect3171-2" style="opacity:.1;filter:url(#filter3794-67);stroke:#fff;stroke-linecap:round;stroke-width:.5;fill:url(#linearGradient3613-3)" clip-path="url(#clipPath3613-26)" rx="12" ry="12" height="66" width="66" y="15" x="15"/>
 </g>
 <rect id="rect3745-82" style="opacity:.9;filter:url(#filter3174-1);display:none;fill:url(#linearGradient9285)" rx="6" ry="6" height="85" width="86" y="9.8358" x="-54.657"/>
 <style id="style1470" type="text/css"/>
 <g id="layer2-9" style="display:none" transform="translate(-132.38 3.7839)">
  <rect id="rect3745-827" style="opacity:.9;filter:url(#filter3174-06);fill:url(#ButtonShadow-4)" rx="6" ry="6" height="85" width="86" y="7" x="5"/>
 </g>
 <rect id="rect3745-74" style="opacity:.9;filter:url(#filter3174-45);display:none;fill:url(#ButtonShadow-4)" transform="matrix(1.1352 0 0 1.3226 15.015 .16604)" rx="6" ry="6" height="85" width="86" y="7" x="5"/>
 <g id="layer2-7" style="display:none" transform="translate(10.047 -115.26)">
  <rect id="rect3745-93" style="opacity:.9;filter:url(#filter3174-17);fill:url(#ButtonShadow-4)" rx="6" ry="6" height="85" width="86" y="7" x="5"/>
 </g>
 <rect id="rect3745-85" style="opacity:.9;filter:url(#filter3174-2);display:none;fill:url(#linearGradient8327)" rx="6" ry="6" height="85" width="86" y="22.454" x="204.61"/>
 <rect id="rect3745-1" style="opacity:.9;filter:url(#filter3174-54);display:none;fill:url(#linearGradient8554)" rx="6" ry="6" height="85" width="86" y="15.696" x="-106.8"/>
 <rect id="rect3745-6" style="opacity:.9;filter:url(#filter3174-24);display:none;fill:url(#linearGradient8844)" rx="6" ry="6" height="85" width="86" y="7.2766" x="-177.89"/>
 <path id="path6602" style="fill:#fff" d="m27.017 111.75c0.06182-8.011 4.8445-21.67 9.2838-26.515l2.0755-2.2649-3.779-3.87c-4.6527-4.7648-3.0731-6.8839 1.7387-2.3325 4.048 3.829 7.8038 5.8643 7.4279 4.0252-0.58597-2.8665 6.9923-2.0148 15.251 1.714 12.76 5.7613 13.949 5.7006 25.19-1.2857 2.6412-1.6415 2.7793-1.6107 5.8392 1.2988 6.236 5.93 10.955 17.72 10.955 27.37v4.11h-37-37zm23.533-17.75c0.77732 0 1.1509-0.61479 0.85004-1.3988-0.29523-0.76937-0.04877-1.7005 0.5477-2.0691 0.59647-0.36864 0.74654-1.2017 0.33349-1.8512-0.412-0.65-0.757-1.519-0.766-1.931-0.008-0.412-0.465-0.788-1.015-0.835-0.55-0.04677-1.45-0.42692-2-0.84476-0.55-0.41785-1.8158-1.0513-2.8129-1.4077-1.6392-0.58592-1.6135-0.36797 0.2681 2.2746 2.4785 3.4808 1.1209 4.9981-2.405 2.6878-2.4283-1.5911-2.4899-1.4108-1.0503 3.0716 0.72065 2.2439 2.9499 3.3664 5.3319 2.6847 0.732-0.209 1.956-0.381 2.718-0.381zm-5.8837-1.6667c-1.2804-1.2804-0.65506-2.5686 0.70065-1.4434 2.1641 1.796 4.3552-1.3112 2.5051-3.5525-1.1695-1.4168-1.1612-1.5928 0.05611-1.1905 2.5086 0.82911 3.599 3.5125 2.141 5.2693-1.3462 1.6221-4.2116 2.1085-5.4029 0.91716zm16.834-17.229c-8.112-3.755-12.515-11.103-12.478-20.822 0.058-15.201 12.937-25.086 25.724-19.744 7.116 2.973 8.961 6.462 3.417 6.462-4.372 0-10.066 4.644-10.131 8.264-0.018 0.97-0.594 2.684-1.282 3.81-1.0396 1.7027-0.97967 2.2483 0.35575 3.2412 0.88316 0.65662 1.5582 2.3167 1.5 3.6891-0.09093 2.1456 0.2796 2.4549 2.6443 2.2074 1.9326-0.2023 2.75 0.16923 2.75 1.25 0 1.9648 2.6939 1.9868 4.6429 0.03785 1.3333-1.3333 1.3254-1.5-0.07143-1.5-2.1297 0-1.9762-1.3237 0.40304-3.4769 2.9435-2.6638 3.4657-5.3792 1.4607-7.5948-2.3612-2.6091-4.6915-2.425-8.3584 0.66056l-3.078 2.589v-3.5c0-4.166 4.563-8.678 8.778-8.678 2.012 0 5.455-2.799 14.762-12 6.676-6.6 12.79-12 13.58-12 2.79 0 5.88 3.06 5.88 5.822 0 2.13-2.57 5.268-12 14.678-9.649 9.624-12 12.519-12 14.78 0 2.769-3.161 6.9106-6.0568 7.9355-0.79375 0.28095-1.101 0.87712-0.68275 1.3248 0.41824 0.4477 2.1057-0.47488 3.75-2.0502 2.631-2.5206 2.9869-2.6318 2.9676-0.9271-0.03334 2.9405-3.4174 9.6643-6.1098 12.139-5.699 5.24-13.562 6.553-20.368 3.402zm48.31-51.268c0.2321-2.0068-0.22724-2.8341-1.8615-3.3528-2.9054-0.92215-5.3857 1.5581-4.4636 4.4636 1.0558 3.3265 5.9105 2.4739 6.3251-1.1108zm-89.589 45.887c-3.421-3.452-6.221-6.982-6.221-7.845 0-1.821 3.08-4.878 4.915-4.878 1.549 0 14.085 11.908 14.085 13.38 0 0.58443-2.9127-1.8242-6.4727-5.3525s-6.7973-6.0905-7.194-5.6938c-0.39674 0.39674 2.0786 3.5464 5.5007 6.9993 3.4222 3.4528 5.8968 6.6032 5.4993 7.0007-0.39756 0.39756-3.5479-2.0771-7.0007-5.4993s-6.6025-5.8975-6.9993-5.5007c-0.39674 0.39674 2.1655 3.634 5.6938 7.194 3.528 3.559 5.965 6.472 5.415 6.472s-3.7995-2.8246-7.2211-6.2769zm54.115-14.29c-0.83346-2.172 1.2824-4.2145 2.797-2.7 1.28 1.28 0.487 4.267-1.133 4.267-0.585 0-1.333-0.705-1.664-1.567z"/>
</svg>
