<?xml version="1.0" encoding="UTF-8" standalone="no"?>
<!-- Created with Inkscape (http://www.inkscape.org/) -->

<svg
   xmlns:dc="http://purl.org/dc/elements/1.1/"
   xmlns:cc="http://creativecommons.org/ns#"
   xmlns:rdf="http://www.w3.org/1999/02/22-rdf-syntax-ns#"
   xmlns:svg="http://www.w3.org/2000/svg"
   xmlns="http://www.w3.org/2000/svg"
   xmlns:xlink="http://www.w3.org/1999/xlink"
   xmlns:sodipodi="http://sodipodi.sourceforge.net/DTD/sodipodi-0.dtd"
   xmlns:inkscape="http://www.inkscape.org/namespaces/inkscape"
   id="svg3449"
   height="128"
   width="128"
   version="1.0"
   inkscape:version="0.48.4 r9939"
   sodipodi:docname="microsoft-wine-browser.svg">
  <sodipodi:namedview
     pagecolor="#ffffff"
     bordercolor="#666666"
     borderopacity="1"
     objecttolerance="10"
     gridtolerance="10"
     guidetolerance="10"
     inkscape:pageopacity="0"
     inkscape:pageshadow="2"
     inkscape:window-width="1360"
     inkscape:window-height="707"
     id="namedview83"
     showgrid="false"
     inkscape:zoom="2.6074563"
     inkscape:cx="-3.531445"
     inkscape:cy="76.79899"
     inkscape:window-x="-2"
     inkscape:window-y="33"
     inkscape:window-maximized="1"
     inkscape:current-layer="svg3449" />
  <metadata
     id="metadata56">
    <rdf:RDF>
      <cc:Work
         rdf:about="">
        <dc:format>image/svg+xml</dc:format>
        <dc:type
           rdf:resource="http://purl.org/dc/dcmitype/StillImage" />
        <dc:title></dc:title>
      </cc:Work>
    </rdf:RDF>
  </metadata>
  <defs
     id="defs3451">
    <linearGradient
       spreadMethod="pad"
       y2="138.66"
       x2="48"
       y1="20.221001"
       gradientUnits="userSpaceOnUse"
       x1="48"
       id="linearGradient3962">
      <stop
         offset="0"
         style="stop-color:#00adef;stop-opacity:1"
         id="stop3964" />
      <stop
         offset="1"
         style="stop-color:#fff;stop-opacity:0"
         id="stop3966" />
    </linearGradient>
    <linearGradient
       spreadMethod="pad"
       y2="138.66"
       x2="48"
       y1="20.221001"
       gradientUnits="userSpaceOnUse"
       x1="48"
       id="linearGradient3956">
      <stop
         offset="0"
         style="stop-color:#fff"
         id="stop3958" />
      <stop
         offset="1"
         style="stop-color:#00adef;stop-opacity:1"
         id="stop3960" />
    </linearGradient>
    <linearGradient
       spreadMethod="pad"
       y2="138.66"
       x2="48"
       y1="20.221001"
       gradientUnits="userSpaceOnUse"
       x1="48"
       id="linearGradient3950">
      <stop
         offset="0"
         style="stop-color:#fff"
         id="stop3952" />
      <stop
         offset="1"
         style="stop-color:#00adef;stop-opacity:1"
         id="stop3954" />
    </linearGradient>
    <linearGradient
       y2="138.66"
       x2="48"
       y1="20.221001"
       gradientUnits="userSpaceOnUse"
       x1="48"
       id="linearGradient3176"
       spreadMethod="pad">
      <stop
         offset="0"
         style="stop-color:#fff"
         id="stop3178" />
      <stop
         offset="1"
         style="stop-color:#00adef;stop-opacity:1"
         id="stop3180" />
    </linearGradient>
    <linearGradient
       y2="138.66"
       x2="48"
       y1="20.221001"
       gradientUnits="userSpaceOnUse"
       x1="48"
       id="linearGradient3170"
       spreadMethod="pad">
      <stop
         offset="0"
         style="stop-color:#fff"
         id="stop3172" />
      <stop
         offset="1"
         style="stop-color:#00adef;stop-opacity:1"
         id="stop3174" />
    </linearGradient>
    <linearGradient
       y2="138.66"
       x2="48"
       y1="20.221001"
       gradientUnits="userSpaceOnUse"
       x1="48"
       id="linearGradient3164"
       spreadMethod="pad">
      <stop
         offset="0"
         style="stop-color:#000000;stop-opacity:0"
         id="stop3166" />
      <stop
         offset="1"
         style="stop-color:#fff;stop-opacity:0"
         id="stop3168" />
    </linearGradient>
    <linearGradient
       y2="138.66"
       x2="48"
       y1="20.221001"
       gradientUnits="userSpaceOnUse"
       x1="48"
       id="linearGradient3158"
       spreadMethod="pad">
      <stop
         offset="0"
         style="stop-color:#00adef;stop-opacity:1"
         id="stop3160" />
      <stop
         offset="1"
         style="stop-color:#fff;stop-opacity:0"
         id="stop3162" />
    </linearGradient>
    <linearGradient
       y2="138.66"
       x2="48"
       y1="20.221"
       gradientUnits="userSpaceOnUse"
       x1="48"
       id="linearGradient3152">
      <stop
         offset="0"
         style="stop-color:#00adef;stop-opacity:1"
         id="stop3154" />
      <stop
         offset="1"
         style="stop-color:#fff;stop-opacity:0"
         id="stop3156" />
    </linearGradient>
    <linearGradient
       id="linearGradient3514"
       y2="-9.1034"
       gradientUnits="userSpaceOnUse"
       x2="66.492"
       gradientTransform="matrix(.96826 0 0 .97948 2.179 .16587)"
       y1="-42.638"
       x1="67.952">
      <stop
         id="stop4620"
         style="stop-color:#37414b"
         offset="0" />
      <stop
         id="stop4622"
         style="stop-color:#37414b;stop-opacity:0"
         offset="1" />
    </linearGradient>
    <linearGradient
       id="linearGradient3516"
       y2="-11.847"
       gradientUnits="userSpaceOnUse"
       x2="58.98"
       gradientTransform="matrix(.96826 0 0 .97948 2.179 .16587)"
       y1="-118.55"
       x1="57.173">
      <stop
         id="stop4596"
         offset="0" />
      <stop
         id="stop4598"
         style="stop-opacity:0"
         offset="1" />
    </linearGradient>
    <linearGradient
       id="linearGradient3519"
       y2="50.369"
       gradientUnits="userSpaceOnUse"
       x2="76.558"
       gradientTransform="matrix(.96826 0 0 .97948 3.2423 -129.19)"
       y1="13.164"
       x1="76.558">
      <stop
         id="stop3392"
         style="stop-color:#425e7b"
         offset="0" />
      <stop
         id="stop3394"
         style="stop-color:#7a91a7"
         offset="1" />
    </linearGradient>
    <linearGradient
       id="linearGradient3521"
       y2="-8.7399"
       gradientUnits="userSpaceOnUse"
       x2="60.217"
       gradientTransform="matrix(.96826 0 0 .97948 2.179 .16587)"
       y1="-123.72"
       x1="60.395">
      <stop
         id="stop3392-4-8"
         style="stop-color:#425e7b"
         offset="0" />
      <stop
         id="stop3394-8-0"
         style="stop-color:#7a91a7"
         offset="1" />
    </linearGradient>
    <radialGradient
       id="radialGradient3349"
       gradientUnits="userSpaceOnUse"
       cy="45.647"
       cx="42.148"
       gradientTransform="matrix(.0084350 1.8886 -1.5444 .0068980 113.65 -57.814)"
       r="58.984">
      <stop
         id="stop4855"
         style="stop-color:#ef0000;stop-opacity:1;"
         offset="0" />
      <stop
         id="stop4857"
         style="stop-color:#b90000;stop-opacity:0.60119045;"
         offset="1" />
    </radialGradient>
    <filter
       id="filter3174"
       color-interpolation-filters="sRGB">
      <feGaussianBlur
         id="feGaussianBlur3176"
         stdDeviation="1.71" />
    </filter>
    <linearGradient
       id="ButtonShadow-1"
       x1="45.448"
       gradientUnits="userSpaceOnUse"
       y1="92.54"
       gradientTransform="scale(1.0059 .99417)"
       x2="45.448"
       y2="7.0165">
      <stop
         id="stop3750-87"
         offset="0" />
      <stop
         id="stop3752-56"
         style="stop-opacity:.58824"
         offset="1" />
    </linearGradient>
    <filter
       id="filter3174-5"
       color-interpolation-filters="sRGB">
      <feGaussianBlur
         id="feGaussianBlur3176-70"
         stdDeviation="1.71" />
    </filter>
    <linearGradient
       id="linearGradient6303"
       y2="13.937"
       gradientUnits="userSpaceOnUse"
       x2="14.134"
       gradientTransform="matrix(1 0 0 1.4586 0 -3.23)"
       y1="45.621"
       x1="36.417">
      <stop
         id="stop6299"
         style="stop-color:#fff;stop-opacity:.25604"
         offset="0" />
      <stop
         id="stop6301"
         style="stop-color:#fff;stop-opacity:.38164"
         offset="1" />
    </linearGradient>
    <filter
       id="filter3174-2"
       color-interpolation-filters="sRGB">
      <feGaussianBlur
         id="feGaussianBlur3176-78"
         stdDeviation="1.71" />
    </filter>
    <filter
       id="filter3174-24"
       color-interpolation-filters="sRGB">
      <feGaussianBlur
         id="feGaussianBlur3176-0"
         stdDeviation="1.71" />
    </filter>
    <filter
       id="filter3174-8"
       color-interpolation-filters="sRGB">
      <feGaussianBlur
         id="feGaussianBlur3176-9"
         stdDeviation="1.71" />
    </filter>
    <linearGradient
       id="linearGradient7604"
       y2="7.0165"
       gradientUnits="userSpaceOnUse"
       x2="45.448"
       gradientTransform="matrix(1.0059 0 0 .99417 -189.19 -21.187)"
       y1="92.54"
       x1="45.448">
      <stop
         id="stop3750-3"
         offset="0" />
      <stop
         id="stop3752-7"
         style="stop-opacity:.58824"
         offset="1" />
    </linearGradient>
    <filter
       id="filter3174-0"
       color-interpolation-filters="sRGB">
      <feGaussianBlur
         id="feGaussianBlur3176-2"
         stdDeviation="1.71" />
    </filter>
    <clipPath
       id="clipPath3613-87">
      <rect
         id="rect3615-88"
         style="fill:#fff"
         rx="6"
         ry="6"
         height="84"
         width="84"
         y="6"
         x="6" />
    </clipPath>
    <linearGradient
       id="linearGradient3613-88"
       x1="48"
       gradientUnits="userSpaceOnUse"
       y1="20.221001"
       x2="48"
       y2="138.66"
       spreadMethod="pad"
       xlink:href="#linearGradient3962">
      <stop
         id="stop3739-29"
         style="stop-color:#fff"
         offset="0" />
      <stop
         id="stop3741-173"
         style="stop-color:#fff;stop-opacity:0"
         offset="1" />
    </linearGradient>
    <filter
       id="filter3794-67"
       height="1.384"
       width="1.384"
       color-interpolation-filters="sRGB"
       y="-.192"
       x="-.192">
      <feGaussianBlur
         id="feGaussianBlur3796-4"
         stdDeviation="5.28" />
    </filter>
    <filter
       id="filter3174-45"
       color-interpolation-filters="sRGB">
      <feGaussianBlur
         id="feGaussianBlur3176-6"
         stdDeviation="1.71" />
    </filter>
    <linearGradient
       inkscape:collect="always"
       xlink:href="#ButtonShadow-1"
       id="linearGradient3060"
       gradientUnits="userSpaceOnUse"
       gradientTransform="scale(1.0059,0.99417)"
       x1="45.448"
       y1="92.54"
       x2="45.448"
       y2="7.0165" />
    <linearGradient
       id="linearGradient4215-8-5">
      <stop
         offset="0"
         style="stop-color:#ffb800;stop-opacity:1"
         id="stop4217-4-2" />
      <stop
         offset="1"
         style="stop-color:#ffb800;stop-opacity:0"
         id="stop4219-3-4" />
    </linearGradient>
    <linearGradient
       id="linearGradient4223-6-4">
      <stop
         offset="0"
         style="stop-color:#ffe375;stop-opacity:1"
         id="stop4225-4-6" />
      <stop
         offset="1"
         style="stop-color:#ffa600;stop-opacity:1"
         id="stop4227-8-6" />
    </linearGradient>
    <linearGradient
       id="linearGradient3095">
      <stop
         offset="0"
         style="stop-color:#ffb800;stop-opacity:1"
         id="stop3097" />
      <stop
         offset="1"
         style="stop-color:#ffb800;stop-opacity:0"
         id="stop3099" />
    </linearGradient>
    <linearGradient
       id="linearGradient3102">
      <stop
         offset="0"
         style="stop-color:#ffe375;stop-opacity:1"
         id="stop3104" />
      <stop
         offset="1"
         style="stop-color:#ffa600;stop-opacity:1"
         id="stop3106" />
    </linearGradient>
    <linearGradient
       id="linearGradient3109">
      <stop
         offset="0"
         style="stop-color:#ffb800;stop-opacity:1"
         id="stop3111" />
      <stop
         offset="1"
         style="stop-color:#ffb800;stop-opacity:0"
         id="stop3113" />
    </linearGradient>
    <linearGradient
       id="linearGradient3116">
      <stop
         offset="0"
         style="stop-color:#ffe375;stop-opacity:1"
         id="stop3118" />
      <stop
         offset="1"
         style="stop-color:#ffa600;stop-opacity:1"
         id="stop3120" />
    </linearGradient>
    <linearGradient
       id="linearGradient3123">
      <stop
         offset="0"
         style="stop-color:#ffb800;stop-opacity:1"
         id="stop3125" />
      <stop
         offset="1"
         style="stop-color:#ffb800;stop-opacity:0"
         id="stop3127" />
    </linearGradient>
    <linearGradient
       id="linearGradient3130">
      <stop
         offset="0"
         style="stop-color:#ffe375;stop-opacity:1"
         id="stop3132" />
      <stop
         offset="1"
         style="stop-color:#ffa600;stop-opacity:1"
         id="stop3134" />
    </linearGradient>
    <linearGradient
       id="linearGradient3137">
      <stop
         offset="0"
         style="stop-color:#ffb800;stop-opacity:1"
         id="stop3139" />
      <stop
         offset="1"
         style="stop-color:#ffb800;stop-opacity:0"
         id="stop3141" />
    </linearGradient>
    <linearGradient
       id="linearGradient3144">
      <stop
         offset="0"
         style="stop-color:#ffe375;stop-opacity:1"
         id="stop3146" />
      <stop
         offset="1"
         style="stop-color:#ffa600;stop-opacity:1"
         id="stop3148" />
    </linearGradient>
    <linearGradient
       id="linearGradient3151">
      <stop
         offset="0"
         style="stop-color:#ffb800;stop-opacity:1"
         id="stop3153" />
      <stop
         offset="1"
         style="stop-color:#ffb800;stop-opacity:0"
         id="stop3155" />
    </linearGradient>
    <linearGradient
       id="linearGradient3158-5">
      <stop
         offset="0"
         style="stop-color:#ffe375;stop-opacity:1"
         id="stop3160-3" />
      <stop
         offset="1"
         style="stop-color:#ffa600;stop-opacity:1"
         id="stop3162-7" />
    </linearGradient>
  </defs>
  <rect
     id="rect892"
     style="stroke:url(#linearGradient3521);stroke-width:.97385;fill:url(#linearGradient3519)"
     transform="scale(1,-1)"
     ry="29.296"
     height="115.54"
     width="114.22"
     y="-122.25"
     x="7.0394" />
  <rect
     id="rect892-2"
     style="stroke:url(#linearGradient3516);stroke-width:.97385;fill:url(#linearGradient3514)"
     transform="scale(1,-1)"
     ry="28.993"
     height="114.35"
     width="114.22"
     y="-121.46"
     x="7.0599" />
  <path
     id="path1187"
     style="opacity:.68238;fill:url(#linearGradient6303)"
     d="m36.537 7.6204c-8.869 0.7824-26.296 4.9186-29.527 41.221v47.783c18.67-55.894 33.784-75.414 85.818-89.536-0.225-0.0381-0.46-0.0444-0.691-0.0444-41.576 0.5651-17.576 0.5768-55.6 0.5768z" />
  <path
     id="rect895"
     style="fill:url(#radialGradient3349)"
     d="M 33.051,7.2596 C 25.082,4.8103 6.038,22.4336 7.398,30.2976 7.347858,31.27138 7.309228,32.2624 7.309228,33.2548 l 0,52.419 c 0,27.39576 13.780124,33.859 22.318,33.859 l 67.038,0 c 12.638002,0 24.318002,-11.245 24.318002,-25.859 l 0,-64.017 C 117.52639,14.79666 104.00232,8.2015175 95.248986,7.2784972 47.402986,8.1437972 77.040228,7.2624 33.054228,7.2624 z"
     inkscape:connector-curvature="0"
     sodipodi:nodetypes="ccssssscccc" />
  <path
     style="fill:#ffffff;fill-opacity:0.34552846;stroke:none;display:inline"
     d="m 67.812785,6.9485821 c -0.497038,0.00497 -0.951789,0.048791 -1.291412,0.120867 l -18.049735,0 c 2.227738,2.6874671 0.146218,7.1757079 3.506334,7.1311539 1.636122,2.078026 -3.258039,0.616655 0.277804,2.218266 2.033305,1.438573 -2.150176,2.263932 0.367902,3.554913 -2.902167,1.345324 0.472282,7.036324 2.627873,8.460692 3.547856,2.683186 1.567301,-5.679367 5.526042,-6.11445 2.151108,-2.20616 5.928792,-3.624936 8.611915,-5.844276 -2.622195,-0.191241 -4.157675,-1.658373 -1.67433,-2.566648 4.570517,4.207414 1.148533,-1.99024 -1.38151,-2.971907 2.448121,-0.699599 4.829592,-0.190174 4.489909,-2.0049701 C 72.925613,7.5506738 69.966618,6.9268687 67.812785,6.9485821 z M 26.389996,9.0673097 C 24.483379,11.753129 26.665724,13.907392 28.252032,10.631471 29.374878,9.2634928 27.418707,9.1174236 26.389996,9.0673097 z M 31.1502,9.671645 c -3.683937,1.533917 -0.909578,5.112733 -0.818394,5.908264 3.880802,1.206106 6.040086,-0.785583 7.508208,2.623526 3.497952,1.811065 0.308455,4.88197 -1.216329,5.936704 2.550175,-1.35344 7.015127,5.353166 5.796337,1.63526 -1.500969,-0.984543 4.033338,1.578686 1.163773,-1.621041 -2.640788,-3.822201 0.208088,-1.709707 1.321444,-0.817629 3.786718,-3.05045 -4.282249,-3.423097 -2.267479,-6.562369 -1.765525,-1.284615 -4.081467,-5.175882 -7.20788,-4.415201 -2.092898,2.431494 -0.293051,-5.2970325 -3.363678,-1.429076 -0.159158,2.162168 -0.05872,4.904692 -0.953543,1.158902 -0.599517,-0.655748 1.032121,-2.1798753 0.03754,-2.41734 z m 5.473485,14.468494 c -0.08227,0.04366 -0.16224,0.09537 -0.240263,0.156416 0.07307,-0.0456 0.155417,-0.09772 0.240263,-0.156416 z M 23.641992,9.7000843 c -2.472748,0.7405837 -2.342286,3.7450567 0.698263,4.0668197 1.041479,-1.06644 0.416133,-3.8648684 -0.698263,-4.0668197 z m -5.053025,1.1020217 c -1.085726,-0.140594 0.29608,4.671477 -1.426559,0.632775 -0.536633,1.07081 -1.986022,0.591083 -2.740497,-0.135087 -0.74425,0.712055 -1.441697,1.466386 -2.079774,2.268035 0.211986,0.324858 0.480366,0.595556 0.728297,0.760751 -3.9757809,0.894646 6.072908,1.139738 1.073673,1.706358 -4.159213,1.49224 3.998957,3.248158 5.338337,1.478844 5.136103,1.128406 0.18806,-3.692559 -0.262787,-6.306415 -0.272161,-0.262401 -0.475586,-0.385175 -0.63069,-0.405261 z m 96.210193,1.109133 c -0.86918,1.628854 1.88571,4.080988 2.39512,2.922139 -0.7127,-1.037692 -1.51535,-2.013866 -2.39512,-2.922139 z m -88.747033,1.357978 c -3.097128,2.614724 3.932792,4.770867 -0.893477,6.718785 -0.723653,-2.428308 -1.96156,1.214503 -4.722663,-0.746532 -4.392797,1.643123 -6.801692,-0.543819 -10.286246,-2.346242 -1.4427055,2.690317 -2.3288173,5.698275 -2.5152507,8.887281 l 0,12.769246 c 2.340293,2.21195 0.9130779,0.979809 0,0.369711 1.284529,3.930086 -0.5658255,9.672663 4.4974167,11.958726 0.860734,1.434276 4.473562,7.544596 4.640074,5.716299 -1.810694,-1.703461 -3.672031,-6.812614 -0.608165,-2.260924 2.744319,4.326715 6.447555,7.13247 11.855461,8.16208 2.956685,0.903491 5.388615,4.010735 7.988735,3.327397 1.470268,3.481889 -4.357577,6.827019 0.195213,10.074623 2.376785,3.287711 6.37248,5.444691 4.212106,10.060403 -1.510796,4.50793 -0.870725,9.415228 -2.177381,13.615318 -0.405539,2.556562 3.967705,9.049632 3.588923,3.853512 1.276562,-3.610919 1.24316,-7.581443 4.249647,-10.138604 4.113741,0.02924 0.789435,-3.978304 4.872828,-3.455371 2.491712,-2.934035 3.213146,-6.435345 7.418111,-7.600404 0.502283,-3.561466 6.989212,-9.015041 0.285311,-10.401673 -1.822037,-0.806769 -6.515251,-1.094979 -6.156732,-1.493064 0.726366,-3.53392 -6.059643,-4.540637 -8.949784,-5.986473 -3.794642,-2.419713 -9.497421,4.019959 -10.834346,-1.528613 -0.797716,-1.745765 -3.720566,-1.771185 -2.380102,-4.464969 -2.41576,2.15841 -7.138515,1.502149 -5.901453,-2.666185 1.878684,-3.510548 9.094407,-3.682202 10.323788,0.540346 -1.706934,-4.656967 3.302456,-8.282962 6.08165,-11.596125 0.565885,-1.583609 3.927598,-2.943649 2.770528,-0.838959 1.971272,-0.06392 4.958438,-3.259558 1.456592,-1.784566 -0.04955,-2.914412 -3.068113,-2.084632 -4.046923,-1.670809 1.814151,-2.586694 11.131893,-1.168248 7.230404,-5.396357 -3.023155,-1.100446 -2.77605,-7.523481 -5.833878,-3.945954 0.257322,-2.204266 -6.223077,-6.518915 -6.081649,-2.8226 0.791115,3.307511 0.144408,7.11741 -1.539183,9.285432 -0.351348,-4.846605 -9.554642,-3.779561 -8.371653,-8.94416 1.713817,-2.46147 3.720975,-5.858993 3.911777,-5.552774 3.071422,-1.053478 5.541916,-4.121291 1.982167,-6.135779 -0.190247,1.75576 -2.677704,5.376679 -2.327544,0.995375 -2.302909,2.452855 -1.777534,-3.898223 -3.934302,-4.557397 z m 73.730611,1.613929 c -0.101149,0.0051 -0.177542,0.03531 -0.217737,0.08532 -5.394703,1.185499 -7.534965,5.814111 -10.203657,9.648033 -3.933845,1.593352 -3.78671,8.43501 0.608165,6.249537 1.176269,1.845569 -0.820828,4.752316 2.605349,2.339133 2.763544,-3.285409 0.485314,-8.600191 5.188172,-10.671848 0.342562,1.610827 -4.341902,7.629225 1.126232,6.640577 4.943278,0.167561 -3.590541,0.44097 -1.186297,3.277629 -2.497951,-1.331442 -1.19931,3.637386 -4.459877,2.481329 -2.824727,1.380328 -4.678983,-0.64395 -4.031907,-2.85815 -2.222123,1.164571 0.696506,4.452373 -3.160957,4.649825 -0.864098,2.756529 -7.967726,2.34063 -3.926792,5.147515 1.794079,4.177063 -6.686812,0.262869 -4.27968,5.27549 2.059428,4.956718 6.372833,-1.640056 8.123882,-2.915029 3.272892,-2.280707 8.075752,3.622492 5.608632,4.209017 3.106035,-0.526876 2.373094,-3.317715 -0.285312,-4.415202 -1.475167,-3.437003 4.673027,1.689491 4.332237,3.412716 2.168104,3.647239 1.27752,-3.737231 3.483809,-0.469248 -0.257591,3.447244 8.8728,0.810921 4.51244,5.204393 -3.748927,0.67834 -7.441615,-0.862604 -10.669172,0.127976 -3.004004,-0.02391 -2.848121,-2.911063 -3.941809,-3.63312 -3.821131,0.278884 -8.546531,0.248513 -11.104641,3.021675 -2.766272,3.409604 -6.754149,8.173862 -3.739088,12.527512 3.017178,6.451603 10.497698,0.334856 14.79868,4.145029 1.278399,1.588669 -1.109043,3.476461 1.749412,5.197282 1.075608,3.665659 -1.222654,7.146375 1.419052,10.650518 1.36603,3.295458 2.221235,8.229942 7.305487,5.218612 5.380979,-2.909029 3.946659,-8.270384 8.386669,-11.240634 -3.51319,-6.108032 4.29792,-8.784684 6.24683,-13.743292 -4.25799,0.560008 -8.05617,-3.257014 -9.08493,-7.095606 -1.78874,-1.864489 -1.32234,-4.611731 0.67574,-1.109133 2.74634,2.390683 2.80331,9.479354 7.88361,5.830057 2.32256,-0.872711 8.66533,-4.201327 3.61145,-5.7163 -3.25771,2.119713 -6.85606,-6.332264 -2.07226,-1.429074 3.47774,1.325497 5.91647,2.119531 5.91647,-2.275144 l 0,-20.35543 0,-5.247052 c 0,-3.139626 -0.67685,-6.123548 -1.89958,-8.830403 -1.1751,0.634159 -2.523,1.014226 -3.37119,0.277284 -2.41708,0.302371 -5.60989,4.532092 -4.8503,0.447919 -2.10099,-0.125031 -0.37208,3.662304 -3.25857,3.768207 -0.29064,1.946935 -2.91573,0.355193 -1.9296,2.204046 -2.02595,-1.291019 -3.74406,-5.36687 0.24777,-2.808381 5.9281,-1.59772 -3.91078,-5.200693 -4.67011,-6.071791 1.11685,-0.240401 -0.77853,-1.187352 -1.486622,-1.151792 z m -49.148735,1.151792 c -1.973095,1.476912 3.751159,1.755058 0,0 z m -26.353814,0.796301 c -2.206855,2.073767 3.514551,1.906397 0,0 z m 12.793989,2.054739 c -1.671172,2.459388 2.469273,0.907995 0,0 z m 36.587502,2.907919 c -1.95653,2.02355 -4.537911,-0.530612 -4.580008,1.20867 0.354589,0.525529 1.776281,4.275264 4.887844,1.507283 1.669982,-0.632508 1.010036,-2.227792 -0.307836,-2.715953 z m -41.655544,1.20867 c -3.71102,2.911497 6.304628,3.179985 0.788362,0.334162 l -0.788362,-0.334162 z m 48.908474,8.090981 c -2.574857,1.576971 1.324195,4.868349 -0.0075,6.420172 -1.674194,2.620504 6.221845,-0.184402 2.004692,-2.275144 -0.289031,-1.727819 -2.310486,-3.821145 -1.997184,-4.145028 z m -1.756922,3.128323 c -3.722605,0.945489 -0.845465,5.827609 0.473017,1.23 0.07412,-0.266551 0.175046,-1.238909 -0.473017,-1.23 z m -29.807589,3.533583 c -3.463167,2.121452 -0.533383,4.239268 2.004692,3.28474 -0.521063,-1.279985 -1.981216,-2.086712 -2.004692,-3.28474 z m 65.419021,3.569133 c 1.72799,0.783423 -3.16693,2.119226 -0.0675,3.498034 1.80363,1.905449 1.12216,5.994811 -1.80948,3.099884 0.54466,-3.232177 -3.97214,-5.642547 1.87706,-6.597918 z m -8.8822,0.02844 c -0.23446,2.07654 4.98262,5.29789 -0.64572,4.244566 -2.97651,0.313669 -7.436335,-0.08075 -3.68652,-3.412716 1.18486,-0.639013 4.29932,2.210143 2.68043,-0.447919 0.57394,-0.03286 1.11114,-0.227506 1.65181,-0.383931 z m -17.193806,4.49341 c -2.171026,1.256514 1.501238,2.220004 0,0 z M 34.176009,57.556318 c -0.366012,1.096967 6.867755,2.212489 1.877052,0.455029 l -0.743313,-0.234624 -1.133739,-0.220405 z m 5.61614,1.564162 c -2.193706,2.000677 4.519713,0.597721 0,0 z m 73.362711,18.350459 c -4.76663,0.110453 -4.13362,11.156997 -0.81089,4.621386 0.3151,-1.418231 1.57875,-3.291339 0.81089,-4.621386 z"
     id="path3522-9"
     inkscape:connector-curvature="0" />
  <rect
     id="rect892-2-7-8"
     style="opacity:.15891;stroke:#000;stroke-width:4.8445;fill:none"
     transform="scale(1,-1)"
     ry="28.993"
     height="114.35"
     width="114.22"
     y="-121.16"
     x="6.8687" />
  <rect
     id="rect892-2-7-1"
     style="opacity:.15891;stroke:#000;stroke-width:7.7512;fill:none"
     transform="scale(1,-1)"
     ry="28.993"
     height="114.35"
     width="114.22"
     y="-121.16"
     x="6.8687" />
  <g
     id="layer2"
     style="display:none"
     transform="matrix(1.44 0 0 1.44 -4.952 -6.9671)">
    <rect
       id="rect3745"
       style="opacity:.9;filter:url(#filter3174);fill:url(#ButtonShadow-1)"
       rx="6"
       ry="6"
       height="85"
       width="86"
       y="7"
       x="5" />
  </g>
  <g
     id="layer2-1"
     style="display:none"
     transform="translate(183.21 82.968)">
    <rect
       id="rect3745-9"
       style="opacity:.9;filter:url(#filter3174-5);fill:url(#ButtonShadow-1)"
       rx="6"
       ry="6"
       height="85"
       width="86"
       y="7"
       x="5" />
  </g>
  <g
     id="layer2-2"
     style="display:none"
     transform="translate(52.694 146.84)">
    <path
       id="rect3745-94"
       style="opacity:.9;filter:url(#filter3174-2);fill:url(#ButtonShadow-1)"
       d="m11 7c-3.324 0-6 2.676-6 6v73c0 3.324 2.676 6 6 6h74c3.324 0 6-2.676 6-6v-73c0-3.324-2.676-6-6-6h-74zm-1 4h6v4h-6v-4zm70 0h6v4h-6v-4zm-70 8h6v4h-6v-4zm70 0h6v4h-6v-4zm-70 8h6v4h-6v-4zm70 0h6v4h-6v-4zm-70 8h6v4h-6v-4zm70 0h6v4h-6v-4zm-70 8h6v4h-6v-4zm70 0h6v4h-6v-4zm-70 8h6v4h-6v-4zm70 0h6v4h-6v-4zm-70 8h6v4h-6v-4zm70 0h6v4h-6v-4zm-70 8h6v4h-6v-4zm70 0h6v4h-6v-4zm-70 8h6v4h-6v-4zm70 0h6v4h-6v-4zm-70 8h6v4h-6v-4zm70 0h6v4h-6v-4z" />
  </g>
  <rect
     id="rect892-2-7-2-9"
     ry="28.066999"
     style="fill:none;stroke:#000000;stroke-width:1.04890001"
     transform="scale(1,-1)"
     height="113.38796"
     width="114.00441"
     y="-120.31"
     x="7.0648999" />
  <g
     id="layer2-20"
     style="display:none"
     transform="translate(-287.93 37.655)">
    <rect
       id="rect3745-8"
       style="opacity:.9;filter:url(#filter3174-24);fill:url(#ButtonShadow-1)"
       rx="6"
       ry="6"
       height="85"
       width="86"
       y="7"
       x="5" />
  </g>
  <rect
     id="rect3745-7"
     style="opacity:.9;filter:url(#filter3174-8);display:none;fill:url(#linearGradient7604)"
     rx="6"
     ry="6"
     height="85"
     width="86"
     y="-14.187"
     x="-184.19" />
  <g
     id="layer2-0"
     style="display:none"
     transform="translate(218.22 18.71)">
    <rect
       id="rect3745-6"
       style="opacity:.9;filter:url(#filter3174-0);fill:url(#ButtonShadow-1)"
       rx="6"
       ry="6"
       height="85"
       width="86"
       y="7"
       x="5" />
  </g>
  <g
     style="display:none"
     id="layer2-3"
     transform="matrix(1.3904,0,0,1.3904,-2.7373,-4.128)">
    <rect
       x="5"
       y="7"
       width="86"
       height="85"
       ry="6"
       rx="6"
       style="opacity:0.9;fill:url(#linearGradient3060);filter:url(#filter3174-45)"
       id="rect3745-1" />
  </g>
  <g
     id="layer5-30"
     transform="matrix(1.3904,0,0,1.3904,-2.7373,-4.128)" />
  <g
     id="g4212"
     transform="matrix(0.22876793,0,0,0.22876793,5.4354099,3.1477306)">
    <path
       d="m 760.89099,127.33262 -23.17213,83.60755 c -8.76843,2.64984 -16.89531,6.76611 -24.11154,12.05577 l -37.733,-20.3539 20.3539,37.733 c -5.28966,7.21623 -9.40593,15.34311 -12.05577,24.11154 l -83.60755,23.17213 83.60755,23.17213 c 2.64984,8.76838 6.76611,16.89531 12.05577,24.11154 l -20.3539,37.733 37.733,-20.3539 c 7.21623,5.28966 15.34311,9.40588 24.11154,12.05577 l 23.17213,83.60755 23.17213,-83.60755 c 8.76838,-2.64989 16.89526,-6.76611 24.11154,-12.05577 l 37.73299,20.3539 -20.35389,-37.733 c 5.28961,-7.21623 9.40588,-15.34316 12.05577,-24.11154 l 83.60755,-23.17213 -83.60755,-23.17213 c -2.64989,-8.76843 -6.76616,-16.89531 -12.05577,-24.11154 l 20.35389,-37.733 -37.73299,20.3539 c -7.21628,-5.28966 -15.34316,-9.40593 -24.11154,-12.05577 l -23.17213,-83.60755 z m 0,100.20381 c 33.20458,0 60.12228,26.91765 60.12228,60.12228 0,33.20463 -26.9177,60.12228 -60.12228,60.12228 -33.20463,0 -60.12228,-26.91765 -60.12228,-60.12228 0,-33.20463 26.91765,-60.12228 60.12228,-60.12228 z"
       inkscape:connector-curvature="0"
       id="path4588"
       style="color:#000000;fill:#ffffff;fill-opacity:1;fill-rule:nonzero;stroke:none;stroke-width:0.80000001;marker:none;visibility:visible;display:inline;overflow:visible;enable-background:accumulate"
       transform="translate(-504.89099,-21.65871)" />
    <path
       style="fill:#f32525;fill-opacity:1;fill-rule:evenodd;stroke:none"
       id="path5923-0-5"
       inkscape:connector-curvature="0"
       d="M 273.53009,273.67701 238.46272,238.60964 387.01915,125.12059 273.53009,273.67701 z" />
    <path
       style="fill:#e6e6e6;fill-opacity:1;fill-rule:evenodd;stroke:none"
       id="path5926-8-6"
       inkscape:connector-curvature="0"
       d="M 273.5301,273.677 238.46273,238.60963 124.97367,387.16607 273.5301,273.677 z" />
    <path
       d="m 264.48283,264.48773 a 12.000002,12.000002 0 0 1 -16.97057,-16.97056 12.000002,12.000002 0 1 1 16.97057,16.97056 z"
       id="path5958-8-4"
       style="fill:#4d4d4d;fill-opacity:1;fill-rule:evenodd;stroke:none"
       inkscape:connector-curvature="0" />
  </g>
</svg>
