<?xml version="1.0" encoding="UTF-8" standalone="no"?>
<!-- Created with Inkscape (http://www.inkscape.org/) -->

<svg
   xmlns:dc="http://purl.org/dc/elements/1.1/"
   xmlns:cc="http://creativecommons.org/ns#"
   xmlns:rdf="http://www.w3.org/1999/02/22-rdf-syntax-ns#"
   xmlns:svg="http://www.w3.org/2000/svg"
   xmlns="http://www.w3.org/2000/svg"
   xmlns:xlink="http://www.w3.org/1999/xlink"
   xmlns:sodipodi="http://sodipodi.sourceforge.net/DTD/sodipodi-0.dtd"
   xmlns:inkscape="http://www.inkscape.org/namespaces/inkscape"
   id="svg3449"
   height="128"
   width="128"
   version="1.0"
   inkscape:version="0.48.4 r9939"
   sodipodi:docname="nepomuk.svg">
  <sodipodi:namedview
     pagecolor="#ffffff"
     bordercolor="#666666"
     borderopacity="1"
     objecttolerance="10"
     gridtolerance="10"
     guidetolerance="10"
     inkscape:pageopacity="0"
     inkscape:pageshadow="2"
     inkscape:window-width="1360"
     inkscape:window-height="707"
     id="namedview36"
     showgrid="false"
     inkscape:zoom="2.6074563"
     inkscape:cx="9.2458259"
     inkscape:cy="49.697092"
     inkscape:window-x="-2"
     inkscape:window-y="33"
     inkscape:window-maximized="1"
     inkscape:current-layer="svg3449" />
  <metadata
     id="metadata56">
    <rdf:RDF>
      <cc:Work
         rdf:about="">
        <dc:format>image/svg+xml</dc:format>
        <dc:type
           rdf:resource="http://purl.org/dc/dcmitype/StillImage" />
        <dc:title></dc:title>
      </cc:Work>
    </rdf:RDF>
  </metadata>
  <defs
     id="defs3451">
    <linearGradient
       x1="67.952003"
       y1="-42.638"
       gradientTransform="matrix(0.96826,0,0,0.97948,2.179,0.16587)"
       x2="66.491997"
       gradientUnits="userSpaceOnUse"
       y2="-9.1034002"
       id="linearGradient3849">
      <stop
         offset="0"
         style="stop-color:#f38583;stop-opacity:1"
         id="stop3851" />
      <stop
         offset="1"
         style="stop-color:#bc2328;stop-opacity:1"
         id="stop3853" />
    </linearGradient>
    <linearGradient
       id="linearGradient3514"
       y2="-9.1034"
       gradientUnits="userSpaceOnUse"
       x2="66.492"
       gradientTransform="matrix(.96826 0 0 .97948 2.179 .16587)"
       y1="-42.638"
       x1="67.952">
      <stop
         id="stop4620"
         style="stop-color:#37414b"
         offset="0" />
      <stop
         id="stop4622"
         style="stop-color:#37414b;stop-opacity:0"
         offset="1" />
    </linearGradient>
    <linearGradient
       id="linearGradient3516"
       y2="-11.847"
       gradientUnits="userSpaceOnUse"
       x2="58.98"
       gradientTransform="matrix(.96826 0 0 .97948 2.179 .16587)"
       y1="-118.55"
       x1="57.173">
      <stop
         id="stop4596"
         offset="0" />
      <stop
         id="stop4598"
         style="stop-opacity:0"
         offset="1" />
    </linearGradient>
    <linearGradient
       id="linearGradient3519"
       y2="50.369"
       gradientUnits="userSpaceOnUse"
       x2="76.558"
       gradientTransform="matrix(.96826 0 0 .97948 3.2423 -129.19)"
       y1="13.164"
       x1="76.558">
      <stop
         id="stop3392"
         style="stop-color:#425e7b"
         offset="0" />
      <stop
         id="stop3394"
         style="stop-color:#7a91a7"
         offset="1" />
    </linearGradient>
    <linearGradient
       id="linearGradient3521"
       y2="-8.7399"
       gradientUnits="userSpaceOnUse"
       x2="60.217"
       gradientTransform="matrix(.96826 0 0 .97948 2.179 .16587)"
       y1="-123.72"
       x1="60.395">
      <stop
         id="stop3392-4-8"
         style="stop-color:#425e7b"
         offset="0" />
      <stop
         id="stop3394-8-0"
         style="stop-color:#7a91a7"
         offset="1" />
    </linearGradient>
    <radialGradient
       id="radialGradient3349"
       gradientUnits="userSpaceOnUse"
       cy="45.647"
       cx="42.148"
       gradientTransform="matrix(0.9469,0,0,1.139,130.78184,-45.618814)"
       r="58.984">
      <stop
         id="stop44117"
         style="stop-color:#f88e8b;stop-opacity:1"
         offset="0" />
      <stop
         id="stop44119"
         style="stop-color:#bc2328;stop-opacity:1"
         offset="1" />
    </radialGradient>
    <linearGradient
       inkscape:collect="always"
       xlink:href="#linearGradient3514"
       id="linearGradient3025"
       gradientUnits="userSpaceOnUse"
       gradientTransform="matrix(0.96826,0,0,0.97948,2.0090999,0.45087096)"
       x1="67.952"
       y1="-42.638"
       x2="66.492"
       y2="-9.1034" />
    <linearGradient
       inkscape:collect="always"
       xlink:href="#linearGradient3516"
       id="linearGradient3027"
       gradientUnits="userSpaceOnUse"
       gradientTransform="matrix(0.96826,0,0,0.97948,2.0090999,0.45087096)"
       x1="57.173"
       y1="-118.55"
       x2="58.98"
       y2="-11.847" />
    <linearGradient
       inkscape:collect="always"
       xlink:href="#linearGradient3514-2"
       id="linearGradient3025-8"
       gradientUnits="userSpaceOnUse"
       gradientTransform="matrix(0.96826,0,0,0.97948,2.0090999,0.45087096)"
       x1="67.952003"
       y1="-42.638"
       x2="66.491997"
       y2="-9.1034002" />
    <linearGradient
       id="linearGradient3514-2"
       y2="-9.1034002"
       gradientUnits="userSpaceOnUse"
       x2="66.491997"
       gradientTransform="matrix(0.96826,0,0,0.97948,2.179,0.16587)"
       y1="-42.638"
       x1="67.952003">
      <stop
         id="stop4620-7"
         style="stop-color:#37414b"
         offset="0" />
      <stop
         id="stop4622-8"
         style="stop-color:#37414b;stop-opacity:0"
         offset="1" />
    </linearGradient>
    <linearGradient
       inkscape:collect="always"
       xlink:href="#linearGradient3516-4"
       id="linearGradient3027-4"
       gradientUnits="userSpaceOnUse"
       gradientTransform="matrix(0.96826,0,0,0.97948,2.0090999,0.45087096)"
       x1="57.173"
       y1="-118.55"
       x2="58.98"
       y2="-11.847" />
    <linearGradient
       id="linearGradient3516-4"
       y2="-11.847"
       gradientUnits="userSpaceOnUse"
       x2="58.98"
       gradientTransform="matrix(0.96826,0,0,0.97948,2.179,0.16587)"
       y1="-118.55"
       x1="57.173">
      <stop
         id="stop4596-5"
         offset="0" />
      <stop
         id="stop4598-6"
         style="stop-opacity:0"
         offset="1" />
    </linearGradient>
    <radialGradient
       inkscape:collect="always"
       xlink:href="#linearGradient3849"
       id="radialGradient3847"
       cx="-26.462572"
       cy="-59.781796"
       fx="-26.462572"
       fy="-59.781796"
       r="57.596928"
       gradientTransform="matrix(1,0,0,1.0011285,65.534062,38.035965)"
       gradientUnits="userSpaceOnUse" />
  </defs>
  <rect
     id="rect892-2"
     style="fill:url(#linearGradient3025);stroke:url(#linearGradient3027);stroke-width:0.97385001"
     transform="scale(1,-1)"
     ry="28.993"
     height="114.35"
     width="114.22"
     y="-121.175"
     x="6.8899994" />
  <rect
     id="rect892-2-8"
     style="fill:url(#radialGradient3847);fill-opacity:1;stroke:none"
     transform="scale(1,-1)"
     ry="28.993"
     height="114.35"
     width="114.22"
     y="-121.175"
     x="6.8899994" />
  <rect
     id="rect892-2-7-8"
     style="opacity:0.15891;fill:none;stroke:#000000;stroke-width:4.84450006"
     transform="scale(1,-1)"
     ry="28.993"
     height="114.35"
     width="114.22"
     y="-121.175"
     x="6.8899994" />
  <rect
     id="rect892-2-7-1"
     style="opacity:0.15891;fill:none;stroke:#000000;stroke-width:7.7512002"
     transform="scale(1,-1)"
     ry="28.993"
     height="114.35"
     width="114.22"
     y="-121.175"
     x="6.8899994" />
  <rect
     id="rect892-2-7-2-9"
     ry="28.066999"
     style="fill:none;stroke:#000000;stroke-width:1.04890001"
     transform="scale(1,-1)"
     height="112.71"
     width="114.14"
     y="-120.355"
     x="6.9300003" />
  <path
     id="path1187"
     style="fill:#ffffff;fill-opacity:0.05714303"
     d="M 33.158723,7.3520011 C 13.304542,10.478395 7.8978482,25.882071 7.1519828,35.820201 l 0,32.76 c 18.6700002,-38.321 38.3400002,-51.497 90.3740002,-61.1789999 -0.225,-0.026 -0.46,-0.0303 -0.691,-0.0303 -41.576,0.3874 -25.652,-0.0188 -63.676,-0.0188 z"
     inkscape:connector-curvature="0"
     sodipodi:nodetypes="ccccccc" />
  <g
     transform="matrix(0.24507339,0,0,0.24507339,1.18632,0.35440673)"
     id="g3031">
    <path
       sodipodi:nodetypes="cccccssccccccccccccccccccccccccccccccccccccccccccccccccccccc"
       inkscape:connector-curvature="0"
       id="path4367"
       d="m 75,205.875 0,1 0,98.25 0,1.15625 186.5625,185.71905 132.09375,0 C 448.13292,492 492,448.13291 492,393.65625 l 0,-132.5625 -54.7813,-55.2187 -1.21875,0 -11.0625,0 -0.84375,0 -0.15625,0.84375 -1.28125,8.125 -8.8435,-8.9688 -0.84375,0 -10.84375,0 -1.21875,0 c 2.56774,12.92998 5.06838,25.87398 7.59375,38.8125 l -38.93685,-38.8119 -9.8125,0.0312 -1,0 0,1 0,37.78125 c 0,0 -38.59461,-38.8131 -38.5929,-38.81165 l -1,0 -9.84375,0 -1,0 0,1 0,28.84375 -29.1557,-29.8432 -1,0 -22.65625,0.0312 -1,0 0,1 0,27.34375 -27.5618,-28.343 -1,0 -31.34375,0 -1,0 0,1 0,9.0625 0,1 10.68735,10.4372 0,12.8125 -33.56185,-34.3431 -1,0 -22.6875,0.0312 -1,0 0,1 0,30.34375 c 0,0 -30.69096,-30.3466 -30.6875,-31.34375 l -1,0 -10.15625,0 -1,0 c 0.004,3.56251 0.0197,7.12501 0.0312,10.6875 l -10.4686,-10.6875 -0.84375,0 L 76,205.875 z"
       style="font-size:medium;font-style:normal;font-variant:normal;font-weight:normal;font-stretch:normal;text-indent:0;text-align:start;text-decoration:none;line-height:normal;letter-spacing:normal;word-spacing:normal;text-transform:none;direction:ltr;block-progression:tb;writing-mode:lr-tb;text-anchor:start;baseline-shift:baseline;color:#000000;fill:#000000;fill-opacity:0.23529412;fill-rule:nonzero;stroke:none;stroke-width:2;marker:none;visibility:visible;display:inline;overflow:visible;enable-background:accumulate;font-family:Sans;-inkscape-font-specification:Sans" />
    <path
       inkscape:connector-curvature="0"
       id="path4310"
       d="m 74.999995,205.875 0,1 0,98.25 0,1.15625 1.15625,-0.15625 c 0,0 3.133503,-0.45717 9.84375,-1.21875 l 0.875,-0.0937 0,-0.90625 -0.59375,-65.5625 9.96875,64.5625 0.15625,0.96875 0.96875,-0.125 c 0,0 3.860225,-0.47445 17.062495,-1.78125 l 0.90625,-0.0937 0,-0.90625 0,-94.0625 0,-1 -1,0 -10.15625,0 -1,0 0,1 0.3125,69.25 -10.593745,-69.40635 -0.15625,-0.84375 -0.84375,0 -15.90625,-0.0312 -1,0 z m 94.718745,0 -22.6875,0.0312 -1,0 0,1 0,91.40625 0,1.0625 1.0625,-0.0625 c 0,0 5.81257,-0.38825 22.625,-1.46875 l 0.9375,-0.0625 0,-0.9375 0,-9 0,-1.0625 -1.0625,0.0625 -11.65625,0.8125 0,-29.40625 11.71875,0 1,0 0,-1 0,-9.15625 0,-1 -1,0 -11.75,0 0,-30.125 11.8125,0 1,0 0,-1 0,-9.09375 0,-1 -1,0 z m 108.4375,0 -22.65625,0.0312 -1,0 0,1 0,87.1875 0,1 1,0 9.90625,0 1,0 0,-1 0,-35.84375 11.71875,0 1,0 0,-1 0,-9.15625 0,-1 -1,0 -11.75,0 0,-30.125 11.78125,0 1,0 0,-1 0,-9.09375 0,-1 -1,0 z m 30.15625,0 0,1 0,87.9375 0,0.96875 0.96875,0.0312 c 0,0 6.68747,0.18692 22.78125,0.90625 l 1.03125,0.0312 0,-1.03125 0,-8.9375 0,-0.90625 -0.90625,-0.0937 c 0,0 -2.97178,-0.20065 -12.03125,-0.53125 l 0,-78.375 0,-1 -1,0 -9.84375,0 -1,0 z m 61.25,0 -9.8125,0.0312 -1,0 0,1 0,90.3125 0,0.9375 0.9375,0.0625 c 0,0 3.62774,0.20456 9.8125,0.65625 l 1.0625,0.0625 0,-1.0625 0,-91 0,-1 -1,0 z m 31.34375,0 0.25,1.1875 8.40625,43.15625 -8.15625,50.65625 -0.15625,1.0625 1.0625,0.0937 10.53125,1.03125 0.96875,0.0937 0.125,-0.96875 4.75,-36.53125 4.625,37.6875 0.0937,0.78125 0.78125,0.0937 11.5625,1.3125 1.3125,0.15625 -0.1875,-1.3125 -8.25,-52.90625 8.34375,-44.40625 0.25,-1.1875 -1.21875,0 -11.0625,0 -0.84375,0 -0.15625,0.84375 -4.875,30.9375 -5.09375,-30.9375 -0.15625,-0.84375 -0.84375,0 -10.84375,0 -1.21875,0 z m -207.3125,0.0312 0,1 0,9.0625 0,1 1,0 9.6875,0 0,78.15625 0,1.09375 1.09375,-0.0937 c 0,0 2.24266,-0.20651 9.71875,-0.375 l 0.96875,-0.0312 0,-0.96875 0.0625,-77.78125 9.8125,0 1,0 0,-1 0,-9.0625 0,-1 -1,0 -31.34375,0 -1,0 z"
       style="font-size:medium;font-style:normal;font-variant:normal;font-weight:normal;font-stretch:normal;text-indent:0;text-align:start;text-decoration:none;line-height:normal;letter-spacing:normal;word-spacing:normal;text-transform:none;direction:ltr;block-progression:tb;writing-mode:lr-tb;text-anchor:start;baseline-shift:baseline;color:#000000;fill:#ffffff;fill-opacity:1;fill-rule:nonzero;stroke:none;stroke-width:2;marker:none;visibility:visible;display:inline;overflow:visible;enable-background:accumulate;font-family:Sans;-inkscape-font-specification:Sans" />
  </g>
</svg>
