<?xml version="1.0" encoding="UTF-8" standalone="no"?>
<!-- Created with Inkscape (http://www.inkscape.org/) -->

<svg
   xmlns:dc="http://purl.org/dc/elements/1.1/"
   xmlns:cc="http://creativecommons.org/ns#"
   xmlns:rdf="http://www.w3.org/1999/02/22-rdf-syntax-ns#"
   xmlns:svg="http://www.w3.org/2000/svg"
   xmlns="http://www.w3.org/2000/svg"
   xmlns:xlink="http://www.w3.org/1999/xlink"
   xmlns:sodipodi="http://sodipodi.sourceforge.net/DTD/sodipodi-0.dtd"
   xmlns:inkscape="http://www.inkscape.org/namespaces/inkscape"
   id="svg3449"
   height="128"
   width="128"
   version="1.0"
   inkscape:version="0.48.4 r9939"
   sodipodi:docname="subtitleeditor.svg">
  <sodipodi:namedview
     pagecolor="#ffffff"
     bordercolor="#666666"
     borderopacity="1"
     objecttolerance="10"
     gridtolerance="10"
     guidetolerance="10"
     inkscape:pageopacity="0"
     inkscape:pageshadow="2"
     inkscape:window-width="1360"
     inkscape:window-height="707"
     id="namedview28"
     showgrid="false"
     inkscape:zoom="3.6875001"
     inkscape:cx="22.112111"
     inkscape:cy="73.859347"
     inkscape:window-x="-2"
     inkscape:window-y="33"
     inkscape:window-maximized="1"
     inkscape:current-layer="svg3449" />
  <metadata
     id="metadata56">
    <rdf:RDF>
      <cc:Work
         rdf:about="">
        <dc:format>image/svg+xml</dc:format>
        <dc:type
           rdf:resource="http://purl.org/dc/dcmitype/StillImage" />
        <dc:title></dc:title>
      </cc:Work>
    </rdf:RDF>
  </metadata>
  <defs
     id="defs3451">
    <linearGradient
       id="linearGradient3514"
       y2="-9.1034"
       gradientUnits="userSpaceOnUse"
       x2="66.492"
       gradientTransform="matrix(0.96826591,0,0,0.97837245,2.008719,0.37798667)"
       y1="-42.638"
       x1="67.952">
      <stop
         id="stop4620"
         style="stop-color:#37414b"
         offset="0" />
      <stop
         id="stop4622"
         style="stop-color:#37414b;stop-opacity:0"
         offset="1" />
    </linearGradient>
    <linearGradient
       id="linearGradient3516"
       y2="-11.847"
       gradientUnits="userSpaceOnUse"
       x2="58.98"
       gradientTransform="matrix(0.96826591,0,0,0.97837245,2.008719,0.37798667)"
       y1="-118.55"
       x1="57.173">
      <stop
         id="stop4596"
         offset="0" />
      <stop
         id="stop4598"
         style="stop-opacity:0"
         offset="1" />
    </linearGradient>
    <linearGradient
       id="linearGradient3519"
       y2="50.369"
       gradientUnits="userSpaceOnUse"
       x2="76.558"
       gradientTransform="matrix(0.96830812,0,0,0.96833796,3.0898716,-127.9739)"
       y1="13.164"
       x1="76.558">
      <stop
         id="stop3392"
         style="stop-color:#425e7b"
         offset="0" />
      <stop
         id="stop3394"
         style="stop-color:#7a91a7"
         offset="1" />
    </linearGradient>
    <linearGradient
       id="linearGradient3521"
       y2="-8.7399"
       gradientUnits="userSpaceOnUse"
       x2="60.217"
       gradientTransform="matrix(0.96830812,0,0,0.96833796,2.0265188,-0.08950392)"
       y1="-123.72"
       x1="60.395">
      <stop
         id="stop3392-4-8"
         style="stop-color:#425e7b"
         offset="0" />
      <stop
         id="stop3394-8-0"
         style="stop-color:#7a91a7"
         offset="1" />
    </linearGradient>
    <radialGradient
       id="radialGradient3349"
       gradientUnits="userSpaceOnUse"
       cy="45.647"
       cx="42.148"
       gradientTransform="matrix(0.94689705,0,0,1.1490317,3.4411805,-29.893821)"
       r="58.984">
      <stop
         id="stop2699-5"
         style="stop-color:#8787de;stop-opacity:1"
         offset="0" />
      <stop
         id="stop2701-7"
         style="stop-color:#442178;stop-opacity:1"
         offset="1" />
    </radialGradient>
    <radialGradient
       inkscape:collect="always"
       xlink:href="#linearGradient4132"
       id="radialGradient4922"
       gradientUnits="userSpaceOnUse"
       gradientTransform="matrix(6.1248261,0,0,4.4807882,-135.86665,-31.233647)"
       cx="63.98003"
       cy="61.948856"
       fx="63.98003"
       fy="61.948856"
       r="58.01997" />
    <linearGradient
       id="linearGradient4132">
      <stop
         offset="0"
         style="stop-color:#7bb8f0;stop-opacity:1"
         id="stop4134" />
      <stop
         offset="1"
         style="stop-color:#b5d5f2;stop-opacity:0.1221374"
         id="stop4136" />
    </linearGradient>
  </defs>
  <rect
     id="rect892"
     style="fill:url(#linearGradient3519);stroke:url(#linearGradient3521);stroke-width:0.96831924"
     transform="scale(1,-1)"
     ry="28.962744"
     height="114.22568"
     width="114.22568"
     y="-121.11284"
     x="6.8871613" />
  <rect
     id="rect892-2"
     style="fill:url(#linearGradient3514);stroke:url(#linearGradient3516);stroke-width:0.97330225"
     transform="scale(1,-1)"
     ry="28.960217"
     height="114.2207"
     width="114.2207"
     y="-121.11035"
     x="6.8896484" />
  <path
     id="rect895"
     style="fill:url(#radialGradient3349)"
     d="M 32.896689,7.5829705 C 25.699946,3.5676353 6.911717,20.834726 7.2437679,30.823875 c -0.05014,0.982357 -0.08877,1.982106 -0.08877,2.983246 l 0,52.880675 c 0,21.059864 10.7119671,34.157204 22.3179311,34.157204 l 67.037792,0 c 12.637959,0 24.317929,-11.34403 24.317929,-26.086744 l 0,-64.580824 C 121.52864,19.153185 99.545711,5.3012495 94.902721,7.3602255 47.056873,8.2331465 76.88578,7.5857945 32.899917,7.5857945 z"
     inkscape:connector-curvature="0"
     sodipodi:nodetypes="ccssssscccc" />
  <rect
     id="rect892-2-7-8"
     style="opacity:0.15891;fill:none;stroke:#000000;stroke-width:4.84187794"
     transform="scale(1,-1)"
     ry="28.960831"
     height="114.22312"
     width="114.22312"
     y="-121.11156"
     x="6.8884392" />
  <rect
     id="rect892-2-7-1"
     style="opacity:0.15891;fill:none;stroke:#000000;stroke-width:7.7470603"
     transform="scale(1,-1)"
     ry="28.961039"
     height="114.22394"
     width="114.22394"
     y="-121.11197"
     x="6.888031" />
  <rect
     id="rect892-2-7-2-9"
     ry="27.872265"
     style="fill:none;stroke:#000000;stroke-width:1.05547321"
     transform="scale(1,-1)"
     height="114.13353"
     width="114.13353"
     y="-121.06676"
     x="6.9332352" />
  <path
     id="path1187"
     style="fill:#ffffff;fill-opacity:0.05714303"
     d="M 32.930758,6.923328 C 6.8392893,6.7954853 7.2631041,18.673737 6.9240184,35.391528 l 0,32.76 c 18.6699996,-38.321 38.3399996,-51.497 90.3739996,-61.179 -0.225,-0.026 -0.46,-0.0303 -0.691,-0.0303 -41.576,0.3874 -25.652,-0.0188 -63.676,-0.0188 z"
     inkscape:connector-curvature="0"
     sodipodi:nodetypes="ccccccc" />
  <g
     transform="matrix(0.25,0,0,0.25,0.25000063,-1.25e-6)"
     id="g3041">
    <path
       style="fill:#fafafa;fill-opacity:1;fill-rule:evenodd;stroke:none;display:inline;enable-background:new"
       id="path3706"
       d="m 79.999995,335.70195 26.103205,-126.58543 60.36359,0 c 26.1032,1.56278 39.1548,14.06505 39.1548,35.944 0,37.50684 -30.99756,59.3858 -58.73218,57.82299 l -29.36608,0 -6.52582,32.81844 -30.997515,0 z m 44.049115,-56.26018 8.15724,-46.88351 21.20886,0 c 11.42014,0 19.57738,4.68836 19.57738,14.06505 -1.63142,26.56731 -14.68304,31.25572 -29.36608,32.81846 l -19.5774,0 z"
       inkscape:connector-curvature="0" />
    <path
       style="text-decoration:none;color:#000000;fill:#fafafa;fill-opacity:1;fill-rule:evenodd;stroke:none;visibility:visible;display:inline;overflow:visible;enable-background:new"
       d="m 201.83289,302.88351 26.1032,-126.58545 30.99754,0 -6.52582,32.81846 29.36606,0 c 26.10322,1.56278 35.89192,14.06505 32.62902,29.69286 l -11.42016,64.07413 -32.62896,0 11.4201,-57.82299 c 1.63137,-7.8139 1.63137,-12.50226 -9.78868,-12.50226 l -24.47172,0 -14.68304,70.32525 -30.99754,0 z"
       id="path3708"
       inkscape:connector-curvature="0" />
    <path
       d="m 304.3784,335.70195 26.10318,-126.58543 60.36364,0 C 416.94842,210.6793 430,223.18157 430,245.06052 c 0,37.50684 -30.99752,59.3858 -58.73218,57.82299 l -29.36608,0 -6.5258,32.81844 -30.99754,0 z m 44.0491,-56.26018 8.15726,-46.88351 21.20886,0 c 11.42016,0 19.5774,4.68836 19.5774,14.06505 -1.63142,26.56731 -14.68306,31.25572 -29.3661,32.81846 l -19.57742,0 z"
       id="path3712"
       style="text-decoration:none;color:#000000;fill:#fafafa;fill-opacity:1;fill-rule:evenodd;stroke:none;visibility:visible;display:inline;overflow:visible;enable-background:new"
       inkscape:connector-curvature="0" />
  </g>
</svg>
