<?xml version="1.0" encoding="UTF-8" standalone="no"?>
<!-- Created with Inkscape (http://www.inkscape.org/) -->
<svg id="svg3449" xmlns:rdf="http://www.w3.org/1999/02/22-rdf-syntax-ns#" xmlns="http://www.w3.org/2000/svg" height="128" width="128" version="1.0" xmlns:cc="http://creativecommons.org/ns#" xmlns:xlink="http://www.w3.org/1999/xlink" xmlns:dc="http://purl.org/dc/elements/1.1/">
 <metadata id="metadata56">
  <rdf:RDF>
   <cc:Work rdf:about="">
    <dc:format>image/svg+xml</dc:format>
    <dc:type rdf:resource="http://purl.org/dc/dcmitype/StillImage"/>
    <dc:title/>
   </cc:Work>
  </rdf:RDF>
 </metadata>
 <defs id="defs3451">
  <linearGradient id="linearGradient3514" y2="-9.1034" gradientUnits="userSpaceOnUse" x2="66.492" gradientTransform="matrix(.96826 0 0 .97948 2.179 .16587)" y1="-42.638" x1="67.952">
   <stop id="stop4620" style="stop-color:#37414b" offset="0"/>
   <stop id="stop4622" style="stop-color:#37414b;stop-opacity:0" offset="1"/>
  </linearGradient>
  <linearGradient id="linearGradient3516" y2="-11.847" gradientUnits="userSpaceOnUse" x2="58.98" gradientTransform="matrix(.96826 0 0 .97948 2.179 .16587)" y1="-118.55" x1="57.173">
   <stop id="stop4596" offset="0"/>
   <stop id="stop4598" style="stop-opacity:0" offset="1"/>
  </linearGradient>
  <linearGradient id="linearGradient3519" y2="50.369" gradientUnits="userSpaceOnUse" x2="76.558" gradientTransform="matrix(.96826 0 0 .97948 3.2423 -129.19)" y1="13.164" x1="76.558">
   <stop id="stop3392" style="stop-color:#425e7b" offset="0"/>
   <stop id="stop3394" style="stop-color:#7a91a7" offset="1"/>
  </linearGradient>
  <linearGradient id="linearGradient3521" y2="-8.7399" gradientUnits="userSpaceOnUse" x2="60.217" gradientTransform="matrix(.96826 0 0 .97948 2.179 .16587)" y1="-123.72" x1="60.395">
   <stop id="stop3392-4-8" style="stop-color:#425e7b" offset="0"/>
   <stop id="stop3394-8-0" style="stop-color:#7a91a7" offset="1"/>
  </linearGradient>
  <radialGradient id="radialGradient3349" gradientUnits="userSpaceOnUse" cy="45.647" cx="42.148" gradientTransform="matrix(.94690 0 0 1.139 3.5954 -29.89)" r="58.984">
   <stop id="stop2699-5" style="stop-color:#e0b586" offset="0"/>
   <stop id="stop2701-7" style="stop-color:#d7a167" offset="1"/>
  </radialGradient>
  <linearGradient id="linearGradient4109" y2="36.026" gradientUnits="userSpaceOnUse" x2="188" gradientTransform="matrix(1.2474 0 0 1.1687 -211.53 995.7)" y1="17" x1="188">
   <stop id="stop7110" style="stop-color:#fff" offset="0"/>
   <stop id="stop7112" style="stop-color:#fff;stop-opacity:0" offset="1"/>
  </linearGradient>
  <linearGradient id="linearGradient4111" y2="24.52" gradientUnits="userSpaceOnUse" x2="182" gradientTransform="matrix(1.1767 0 0 1.1025 -198.95 997.95)" y1="33" x1="182">
   <stop id="stop7116" style="stop-color:#fff" offset="0"/>
   <stop id="stop7118" style="stop-color:#fff;stop-opacity:0" offset="1"/>
  </linearGradient>
  <linearGradient id="linearGradient4113" y2="32" gradientUnits="userSpaceOnUse" x2="384" gradientTransform="matrix(.73542 0 0 1.2528 -245.48 1003.3)" y1="9" x1="384">
   <stop id="stop5095" style="stop-color:#fff" offset="0"/>
   <stop id="stop5097" style="stop-color:#fff;stop-opacity:0" offset="1"/>
  </linearGradient>
 </defs>
 <rect id="rect892" style="stroke:url(#linearGradient3521);stroke-width:.97385;fill:url(#linearGradient3519)" transform="scale(1,-1)" ry="29.296" height="115.54" width="114.22" y="-122.25" x="7.0394"/>
 <rect id="rect892-2" style="stroke:url(#linearGradient3516);stroke-width:.97385;fill:url(#linearGradient3514)" transform="scale(1,-1)" ry="28.993" height="114.35" width="114.22" y="-121.46" x="7.0599"/>
 <path id="rect895" style="fill:url(#radialGradient3349)" d="m33.051 7.2596c-7.969-2.4493-27.013 15.174-25.653 23.038-0.050142 0.97378-0.088772 1.9648-0.088772 2.9572v52.419c0 20.876 10.712 33.859 22.318 33.859h67.038c12.638 0 24.318-11.245 24.318-25.859v-64.017c0.7-10.928-21.283-24.659-25.926-22.618-47.846 0.8653-18.017 0.2236-62.003 0.2236z"/>
 <rect id="rect892-2-7-8" style="opacity:.15891;stroke:#000;stroke-width:4.8445;fill:none" transform="scale(1,-1)" ry="28.993" height="114.35" width="114.22" y="-121.16" x="6.8687"/>
 <rect id="rect892-2-7-1" style="opacity:.15891;stroke:#000;stroke-width:7.7512;fill:none" transform="scale(1,-1)" ry="28.993" height="114.35" width="114.22" y="-121.16" x="6.8687"/>
 <rect id="rect892-2-7-2-9" ry="28.067" style="stroke:#000;stroke-width:1.0489;fill:none" transform="scale(1,-1)" height="112.71" width="114.14" y="-120.31" x="7.0649"/>
 <path id="path1187" style="fill:#fff;fill-opacity:.057143" d="m33.736 7.2319c-24.363 0-26.747 1.0684-26.648 41.695-0.04454 1.1348-0.078864 2.2896-0.078864 3.446v51.947c19.188-60.764 39.403-81.658 92.877-97.01-0.231-0.0414-0.473-0.0483-0.71-0.0483-42.727 0.6143-26.362-0.0298-65.44-0.0298z"/>
 <g id="layer1-4" transform="matrix(2.6368 0 0 2.6368 .73237 -2647.4)">
  <path id="path3981" style="opacity:.5;stroke:url(#linearGradient4109);stroke-width:.71186px;fill:#4d4d4d" d="m8.587 1016.9v20.349h21.718l-21.718-20.349z"/>
  <path id="path3410" d="m7.8749 1015.2 24.269 22.739h-24.269v-22.739zm5.1246 12.425v5.5125h5.8834l-5.8834-5.5125z" style="fill-opacity:.79688;fill-rule:evenodd;stroke:#fff;stroke-width:.71186px;fill:#fff"/>
  <path id="path3981-5" style="opacity:.15;stroke:url(#linearGradient4111);stroke-width:.71186px;fill:none" d="m12.264 1025.5v8.2686h8.0897"/>
  <path id="rect4034-50" style="opacity:.15;color:#000000" d="m8.2193 1018.3h1.4708v0.689h-1.4708v-0.689zm0 2.0672h1.4708v0.689h-1.4708v-0.689zm0 2.0671h1.4708v0.689h-1.4708v-0.689zm0 2.0672h1.4708v0.689h-1.4708v-0.689zm0 2.0672h1.4708v0.689h-1.4708v-0.689zm0 2.0671h1.4708v0.6891h-1.4708v-0.6891zm0 2.0672h1.4708v0.6891h-1.4708v-0.6891zm0 2.0672h1.4708v0.6891h-1.4708v-0.6891zm0 2.0671h1.4708v0.6891h-1.4708v-0.6891z"/>
  <rect id="rect5045" style="stroke-width:.71186;color:#000000;stroke:#fff;fill:#e6e6e6" rx=".36771" ry=".34453" height="28.94" width="5.8834" y="1014.5" x="34.35"/>
  <rect id="rect5045-1" style="opacity:.4;stroke-width:.71186;color:#000000;stroke:url(#linearGradient4113);fill:#e6e6e6" height="27.562" width="4.4125" y="1015.2" x="35.086"/>
  <path id="rect5101-0-3" style="color:#000000;fill:#bcbcbc" d="m38.395 1018.3h1.4708v0.6891h-1.4708v-0.6891zm-3.6771 8.9578h1.4708v0.689h-1.4708v-0.689zm0-4.1344h1.4708v0.6891h-1.4708v-0.6891zm0 2.7562h0.73542v0.6892h-0.73542v-0.6892zm0-1.378h0.73542v0.689h-0.73542v-0.689zm0-2.7563h0.73542v0.6891h-0.73542v-0.6891zm0-1.3781h0.73542v0.6891h-0.73542v-0.6891zm0-2.7562h0.73542v0.689h-0.73542v-0.689zm0-1.3782h0.73542v0.6891h-0.73542v-0.6891zm3.6771 10.336h1.4708v0.689h-1.4708v-0.689zm0-2.0672h1.4708v0.689h-1.4708v-0.689zm0-2.0672h1.4708v0.689h-1.4708v-0.689zm0-2.0672h1.4708v0.6891h-1.4708v-0.6891zm-3.6771-1.3781h1.4708v0.689h-1.4708v-0.689zm3.6771-2.7563h1.4708v0.6891h-1.4708v-0.6891zm0 14.47h1.4708v0.689h-1.4708v-0.689zm-3.6771 8.9577h1.4708v0.6891h-1.4708v-0.6891zm0-4.1344h1.4708v0.6892h-1.4708v-0.6892zm0 5.5125h0.73542v0.6891h-0.73542v-0.6891zm0-2.7562h0.73542v0.689h-0.73542v-0.689zm0-1.3781h0.73542v0.689h-0.73542v-0.689zm0-2.7562h0.73542v0.689h-0.73542v-0.689zm0-1.3781h0.73542v0.689h-0.73542v-0.689zm0-2.7563h0.73542v0.6891h-0.73542v-0.6891zm0-1.3781h0.73542v0.689h-0.73542v-0.689zm3.6771 12.403h1.4708v0.689h-1.4708v-0.689zm0-2.0672h1.4708v0.6891h-1.4708v-0.6891zm0-2.0671h1.4708v0.689h-1.4708v-0.689zm0-2.0672h1.4708v0.689h-1.4708v-0.689zm0-2.0671h1.4708v0.689h-1.4708v-0.689zm-3.6771-1.3782h1.4708v0.689h-1.4708v-0.689zm3.6771-2.7562h1.4708v0.689h-1.4708v-0.689z"/>
  <path id="rect5101-0-3-9" style="opacity:.1;color:#000000;fill:#fff" d="m38.395 1018.9h1.4708v0.689h-1.4708v-0.689zm-3.6771 8.9577h1.4708v0.6891h-1.4708v-0.6891zm0-4.1343h1.4708v0.689h-1.4708v-0.689zm0 2.7563h0.73542v0.689h-0.73542v-0.689zm0-1.3782h0.73542v0.689h-0.73542v-0.689zm0-2.7563h0.73542v0.6891h-0.73542v-0.6891zm0-1.378h0.73542v0.689h-0.73542v-0.689zm0-2.7563h0.73542v0.6891h-0.73542v-0.6891zm0-1.3781h0.73542v0.6891h-0.73542v-0.6891zm3.6771 10.336h1.4708v0.689h-1.4708v-0.689zm0-2.0672h1.4708v0.689h-1.4708v-0.689zm0-2.0672h1.4708v0.6891h-1.4708v-0.6891zm0-2.0671h1.4708v0.689h-1.4708v-0.689zm-3.6771-1.3782h1.4708v0.6891h-1.4708v-0.6891zm3.6771-2.7562h1.4708v0.6891h-1.4708v-0.6891zm0 14.47h1.4708v0.689h-1.4708v-0.689zm-3.6771 8.9578h1.4708v0.689h-1.4708v-0.689zm0-4.1343h1.4708v0.689h-1.4708v-0.689zm0 5.5124h0.73542v0.6891h-0.73542v-0.6891zm0-2.7563h0.73542v0.6891h-0.73542v-0.6891zm0-1.3781h0.73542v0.6891h-0.73542v-0.6891zm0-2.7562h0.73542v0.689h-0.73542v-0.689zm0-1.3781h0.73542v0.689h-0.73542v-0.689zm0-2.7562h0.73542v0.689h-0.73542v-0.689zm0-1.3782h0.73542v0.6891h-0.73542v-0.6891zm3.6771 12.403h1.4708v0.6892h-1.4708v-0.6892zm0-2.0671h1.4708v0.6891h-1.4708v-0.6891zm0-2.0672h1.4708v0.6891h-1.4708v-0.6891zm0-2.0672h1.4708v0.6891h-1.4708v-0.6891zm0-2.0671h1.4708v0.689h-1.4708v-0.689zm-3.6771-1.3782h1.4708v0.6892h-1.4708v-0.6892zm3.6771-2.7562h1.4708v0.6891h-1.4708v-0.6891z"/>
  <path id="rect4034-50-3" style="opacity:.15;color:#000000;fill:#fff" d="m8.2193 1019h1.4708v0.689h-1.4708v-0.689zm0 2.0671h1.4708v0.6891h-1.4708v-0.6891zm0 2.0672h1.4708v0.689h-1.4708v-0.689zm0 2.0672h1.4708v0.689h-1.4708v-0.689zm0 2.0671h1.4708v0.6891h-1.4708v-0.6891zm0 2.0672h1.4708v0.689h-1.4708v-0.689zm0 2.0672h1.4708v0.689h-1.4708v-0.689zm0 2.0671h1.4708v0.6891h-1.4708v-0.6891zm0 2.0672h1.4708v0.6891h-1.4708v-0.6891z"/>
  <path id="rect4034-50-5" style="opacity:.15;color:#000000" d="m28.811 1036.2v1.3781h-0.73542v-1.3781h0.73542zm-2.2063 0v1.3781h-0.73542v-1.3781h0.73542zm-2.2063 0v1.3781h-0.73542v-1.3781h0.73542zm-2.2063 0v1.3781h-0.73542v-1.3781h0.73542zm-2.2063 0v1.3781h-0.73542v-1.3781h0.73542zm-2.2063 0v1.3781h-0.73542v-1.3781h0.73542zm-2.2063 0v1.3781h-0.73542v-1.3781h0.73542zm-2.2063 0v1.3781h-0.73542v-1.3781h0.73542zm-2.2063 0v1.3781h-0.73542v-1.3781h0.73542z"/>
  <path id="rect4034-50-3-7" style="opacity:.15;color:#000000;fill:#fff" d="m28.076 1036.2v1.3781h-0.73542v-1.3781h0.73542zm-2.2063 0v1.3781h-0.73542v-1.3781h0.73542zm-2.2063 0v1.3781h-0.73542v-1.3781h0.73542zm-2.2063 0v1.3781h-0.73542v-1.3781h0.73542zm-2.2063 0v1.3781h-0.73542v-1.3781h0.73542zm-2.2063 0v1.3781h-0.73542v-1.3781h0.73542zm-2.2063 0v1.3781h-0.73542v-1.3781h0.73542zm-2.2063 0v1.3781h-0.73543v-1.3781h0.73543zm-2.2063 0v1.3781h-0.73542v-1.3781h0.73542z"/>
 </g>
</svg>
