<?xml version="1.0" encoding="UTF-8" standalone="no"?>
<!-- Created with Inkscape (http://www.inkscape.org/) -->
<svg id="svg3449" xmlns:rdf="http://www.w3.org/1999/02/22-rdf-syntax-ns#" xmlns="http://www.w3.org/2000/svg" height="128" width="128" version="1.0" xmlns:cc="http://creativecommons.org/ns#" xmlns:xlink="http://www.w3.org/1999/xlink" xmlns:dc="http://purl.org/dc/elements/1.1/">
 <metadata id="metadata56">
  <rdf:RDF>
   <cc:Work rdf:about="">
    <dc:format>image/svg+xml</dc:format>
    <dc:type rdf:resource="http://purl.org/dc/dcmitype/StillImage"/>
    <dc:title/>
   </cc:Work>
  </rdf:RDF>
 </metadata>
 <defs id="defs3451">
  <linearGradient id="linearGradient3514" y2="-9.1034" gradientUnits="userSpaceOnUse" x2="66.492" gradientTransform="matrix(.96826 0 0 .97948 2.179 .16587)" y1="-42.638" x1="67.952">
   <stop id="stop4620" style="stop-color:#37414b" offset="0"/>
   <stop id="stop4622" style="stop-color:#37414b;stop-opacity:0" offset="1"/>
  </linearGradient>
  <linearGradient id="linearGradient3516" y2="-11.847" gradientUnits="userSpaceOnUse" x2="58.98" gradientTransform="matrix(.96826 0 0 .97948 2.179 .16587)" y1="-118.55" x1="57.173">
   <stop id="stop4596" offset="0"/>
   <stop id="stop4598" style="stop-opacity:0" offset="1"/>
  </linearGradient>
  <linearGradient id="linearGradient3519" y2="50.369" gradientUnits="userSpaceOnUse" x2="76.558" gradientTransform="matrix(.96826 0 0 .97948 3.2423 -129.19)" y1="13.164" x1="76.558">
   <stop id="stop3392" style="stop-color:#425e7b" offset="0"/>
   <stop id="stop3394" style="stop-color:#7a91a7" offset="1"/>
  </linearGradient>
  <linearGradient id="linearGradient3521" y2="-8.7399" gradientUnits="userSpaceOnUse" x2="60.217" gradientTransform="matrix(.96826 0 0 .97948 2.179 .16587)" y1="-123.72" x1="60.395">
   <stop id="stop3392-4-8" style="stop-color:#425e7b" offset="0"/>
   <stop id="stop3394-8-0" style="stop-color:#7a91a7" offset="1"/>
  </linearGradient>
  <radialGradient id="radialGradient3349" gradientUnits="userSpaceOnUse" cy="45.647" cx="42.148" gradientTransform="matrix(.94690 0 0 1.139 3.5954 -29.89)" r="58.984">
   <stop id="stop2699-5" style="stop-color:#e0b586" offset="0"/>
   <stop id="stop2701-7" style="stop-color:#d7a167" offset="1"/>
  </radialGradient>
  <clipPath id="clipPath3613">
   <rect id="rect3615" style="fill:#fff" rx="6" ry="6" height="84" width="84" y="6" x="6"/>
  </clipPath>
  <linearGradient id="linearGradient3613" x1="48" gradientUnits="userSpaceOnUse" y1="20.221" x2="48" y2="138.66">
   <stop id="stop3739-0" style="stop-color:#fff" offset="0"/>
   <stop id="stop3741-0" style="stop-color:#fff;stop-opacity:0" offset="1"/>
  </linearGradient>
  <filter id="filter3794" height="1.384" width="1.384" color-interpolation-filters="sRGB" y="-.192" x="-.192">
   <feGaussianBlur id="feGaussianBlur3796" stdDeviation="5.28"/>
  </filter>
  <filter id="filter3174" color-interpolation-filters="sRGB">
   <feGaussianBlur id="feGaussianBlur3176" stdDeviation="1.71"/>
  </filter>
  <linearGradient id="ButtonShadow-4" x1="45.448" gradientUnits="userSpaceOnUse" y1="92.54" gradientTransform="scale(1.0059 .99417)" x2="45.448" y2="7.0165">
   <stop id="stop3750-6" offset="0"/>
   <stop id="stop3752-4" style="stop-opacity:.58824" offset="1"/>
  </linearGradient>
  <filter id="filter3174-0" color-interpolation-filters="sRGB">
   <feGaussianBlur id="feGaussianBlur3176-8" stdDeviation="1.71"/>
  </filter>
  <filter id="filter3174-7" color-interpolation-filters="sRGB">
   <feGaussianBlur id="feGaussianBlur3176-86" stdDeviation="1.71"/>
  </filter>
  <filter id="filter3174-4" color-interpolation-filters="sRGB">
   <feGaussianBlur id="feGaussianBlur3176-2" stdDeviation="1.71"/>
  </filter>
  <linearGradient id="linearGradient6793">
   <stop id="stop6795" style="stop-color:#fff" offset="0"/>
   <stop id="stop6797" style="stop-color:#f6f6f6" offset="1"/>
  </linearGradient>
  <filter id="filter3383" color-interpolation-filters="sRGB">
   <feBlend id="feBlend3385" in2="BackgroundImage" mode="multiply"/>
  </filter>
  <filter id="filter3985" height="1.3108" width="1.1436" color-interpolation-filters="sRGB" y="-.15539" x="-.071801">
   <feGaussianBlur id="feGaussianBlur3987" stdDeviation="6.7803529"/>
  </filter>
  <filter id="filter3989" color-interpolation-filters="sRGB">
   <feGaussianBlur id="feGaussianBlur3991" stdDeviation="6.7803529"/>
  </filter>
  <filter id="filter3993" height="1.1447" width="1.2982" color-interpolation-filters="sRGB" y="-.072374" x="-.14909">
   <feGaussianBlur id="feGaussianBlur3995" stdDeviation="6.7803529"/>
  </filter>
  <filter id="filter3997" height="1.2208" width="1.1631" color-interpolation-filters="sRGB" y="-.11038" x="-.081571">
   <feGaussianBlur id="feGaussianBlur3999" stdDeviation="6.7803529"/>
  </filter>
  <filter id="filter4001" height="1.2573" width="1.1499" color-interpolation-filters="sRGB" y="-.12866" x="-.074929">
   <feGaussianBlur id="feGaussianBlur4003" stdDeviation="6.7803529"/>
  </filter>
  <filter id="filter4005" height="1.1529" width="1.2447" color-interpolation-filters="sRGB" y="-.076451" x="-.12233">
   <feGaussianBlur id="feGaussianBlur4007" stdDeviation="6.7803529"/>
  </filter>
  <filter id="filter4009" height="1.1597" width="1.2245" color-interpolation-filters="sRGB" y="-.079874" x="-.11224">
   <feGaussianBlur id="feGaussianBlur4011" stdDeviation="6.7803529"/>
  </filter>
  <filter id="filter3174-9" color-interpolation-filters="sRGB">
   <feGaussianBlur id="feGaussianBlur3176-4" stdDeviation="1.71"/>
  </filter>
  <radialGradient id="radialGradient12577" xlink:href="#linearGradient6793" gradientUnits="userSpaceOnUse" cy="241.05" cx="353.63" gradientTransform="matrix(-1 0 0 .98782 582.03 46.933)" r="220.12"/>
  <radialGradient id="radialGradient12579" xlink:href="#linearGradient6793" gradientUnits="userSpaceOnUse" cy="241.05" cx="353.63" gradientTransform="matrix(-.99918 -.040586 -.040092 0.987 587.8 48.361)" r="220.12"/>
  <radialGradient id="radialGradient12626" xlink:href="#linearGradient6793" gradientUnits="userSpaceOnUse" cy="241.05" cx="353.63" gradientTransform="matrix(-.14011 0 0 .13702 252.95 -79.259)" r="220.12"/>
  <radialGradient id="radialGradient12629" xlink:href="#linearGradient6793" gradientUnits="userSpaceOnUse" cy="241.05" cx="353.63" gradientTransform="matrix(-.14011 0 0 .13702 342.95 -169.26)" r="220.12"/>
  <radialGradient id="radialGradient12640" xlink:href="#linearGradient6793" gradientUnits="userSpaceOnUse" cy="241.05" cx="353.63" gradientTransform="matrix(-.13999 -.0056299 -.0056171 .13691 343.75 -169.06)" r="220.12"/>
  <radialGradient id="radialGradient12646" xlink:href="#linearGradient6793" gradientUnits="userSpaceOnUse" cy="241.05" cx="353.63" gradientTransform="matrix(-.17907 0 0 .17379 125.67 28.352)" r="220.12"/>
  <radialGradient id="radialGradient12657" xlink:href="#linearGradient6793" gradientUnits="userSpaceOnUse" cy="241.05" cx="353.63" gradientTransform="matrix(-.17892 -.0071406 -.0071790 .17365 126.7 28.603)" r="220.12"/>
 </defs>
 <rect id="rect892" style="stroke:url(#linearGradient3521);stroke-width:.97385;fill:url(#linearGradient3519)" transform="scale(1,-1)" ry="29.296" height="115.54" width="114.22" y="-122.25" x="7.0394"/>
 <rect id="rect892-2" style="stroke:url(#linearGradient3516);stroke-width:.97385;fill:url(#linearGradient3514)" transform="scale(1,-1)" ry="28.993" height="114.35" width="114.22" y="-121.46" x="7.0599"/>
 <path id="rect895" style="fill:url(#radialGradient3349)" d="m33.051 7.2596c-7.969-2.4493-27.013 15.174-25.653 23.038-0.050142 0.97378-0.088772 1.9648-0.088772 2.9572v52.419c0 20.876 10.712 33.859 22.318 33.859h67.038c12.638 0 24.318-11.245 24.318-25.859v-64.017c0.7-10.928-21.283-24.659-25.926-22.618-47.846 0.8653-18.017 0.2236-62.003 0.2236z"/>
 <rect id="rect892-2-7-8" style="opacity:.15891;stroke:#000;stroke-width:4.8445;fill:none" transform="scale(1,-1)" ry="28.993" height="114.35" width="114.22" y="-121.16" x="6.8687"/>
 <rect id="rect892-2-7-1" style="opacity:.15891;stroke:#000;stroke-width:7.7512;fill:none" transform="scale(1,-1)" ry="28.993" height="114.35" width="114.22" y="-121.16" x="6.8687"/>
 <rect id="rect892-2-7-2-9" ry="28.067" style="stroke:#000;stroke-width:1.0489;fill:none" transform="scale(1,-1)" height="112.71" width="114.14" y="-120.31" x="7.0649"/>
 <path id="path1187" style="fill:#fff;fill-opacity:.057143" d="m33.017 7.2319c-23.707 0-26.027 0.6738-25.93 26.295-0.04334 0.71563-0.07674 1.4439-0.07674 2.1732v32.76c18.67-38.321 38.34-51.497 90.374-61.179-0.225-0.026-0.46-0.0303-0.691-0.0303-41.576 0.3874-25.652-0.0188-63.676-0.0188z"/>
 <g id="layer2" style="display:none" transform="translate(-183.05 -205.14)">
  <rect id="rect3745" style="opacity:.9;filter:url(#filter3174);fill:url(#ButtonShadow-4)" rx="6" ry="6" height="85" width="86" y="7" x="5"/>
 </g>
 <g id="layer5" style="display:none" transform="translate(-183.05 -205.14)">
  <rect id="rect3171" style="opacity:.1;filter:url(#filter3794);stroke:#fff;stroke-linecap:round;stroke-width:.5;fill:url(#linearGradient3613)" clip-path="url(#clipPath3613)" rx="12" ry="12" height="66" width="66" y="15" x="15"/>
 </g>
 <g id="layer2-4" style="display:none" transform="translate(16,14.5)">
  <rect id="rect3745-6" style="opacity:.9;filter:url(#filter3174-0);fill:url(#ButtonShadow-4)" rx="6" ry="6" height="85" width="86" y="7" x="5"/>
 </g>
 <g id="layer2-2" style="display:none" transform="translate(212.65 -37.864)">
  <rect id="rect3745-8" style="opacity:.9;filter:url(#filter3174-7);fill:url(#ButtonShadow-4)" rx="6" ry="6" height="85" width="86" y="7" x="5"/>
 </g>
 <g id="layer2-8" style="display:none" transform="translate(210.69 6.565)">
  <rect id="rect3745-9" style="opacity:.9;filter:url(#filter3174-4);fill:url(#ButtonShadow-4)" rx="6" ry="6" height="85" width="86" y="7" x="5"/>
 </g>
 <g id="layer2-5" style="display:none" transform="translate(156.31 -189.8)">
  <rect id="rect3745-4" style="opacity:.9;filter:url(#filter3174-9);fill:url(#ButtonShadow-4)" rx="6" ry="6" height="85" width="86" y="7" x="5"/>
 </g>
 <g id="g2960" style="enable-background:new" transform="matrix(.17756 0 0 .17756 49.336 -180.88)">
  <g id="layer3-8" style="display:none">
   <path id="path2544" d="m324.39 135.62c-45.381 3.2742-125.15 80.453-113.93 80.062 92.777-3.2339 150.73 2.1051 223.12 24.581 10.719 3.328-11.566-97.11-109.18-104.64z" style="filter:url(#filter3985);enable-background:new;display:inline;fill:#dbdbdb"/>
   <path id="path2546" d="m186.38 72.15c-25.8 37.48-29.04 184.14-22.38 175.11 54.89-74.46 186.45-166.41 264.91-203.43 96.99-45.773-185.1-40.189-242.53 28.32z" style="stroke-width:0;filter:url(#filter3989);enable-background:new;display:inline;fill:#dbdbdb"/>
   <path id="path2548" d="m69.552 231.68c14.867 43 110.01 100.17 106.74 89.43-27.05-88.8-36.84-146.17-33.79-221.91 0.45-11.213-90.845 36.22-72.948 132.48z" style="filter:url(#filter3993);enable-background:new;display:inline;fill:#dbdbdb"/>
   <path id="path2550" d="m81.977 372.85c42.137 17.165 147.84-16.699 137.61-21.316-84.613-38.194-134.2-68.649-189.15-120.86-8.1358-7.7313-32.643 92.188 51.541 142.18z" style="filter:url(#filter3997);enable-background:new;display:inline;fill:#dbdbdb"/>
   <path id="path2552" d="m203.89 453.63c40.287-21.145 82.546-123.78 72.421-118.94-83.746 40.058-139 58.333-214.34 66.674-11.155 1.235 49.428 84.386 141.92 52.263z" style="filter:url(#filter4001);enable-background:new;display:inline;fill:#dbdbdb"/>
   <path id="path2554" d="m345.96 410.03c9.8413-44.421-41.301-142.93-44.134-132.07-23.435 89.827-45.125 143.83-87.365 206.77-6.2545 9.3191 96.362 16.69 131.5-74.696z" style="filter:url(#filter4005);enable-background:new;display:inline;fill:#dbdbdb"/>
   <path id="path2556" d="m401.89 270.24c-27.37-36.34-135.48-61.47-129.07-52.26 53.056 76.178 80.014 127.75 100.41 200.76 3.0202 10.809 75.297-62.406 28.659-148.49z" style="filter:url(#filter4009);enable-background:new;display:inline;fill:#dbdbdb"/>
  </g>
  <g id="g2591" transform="translate(-14.911 -7.085)">
   <g id="layer1-2">
    <path id="path3212" d="m324.39 135.62c-45.381 3.2742-125.15 80.453-113.93 80.062 92.777-3.2339 150.73 2.1051 223.12 24.581 10.719 3.328-11.566-97.11-109.18-104.64z" style="fill:url(#radialGradient12577)"/>
    <path id="path3215" d="m186.38 72.15c-25.8 37.48-29.04 184.14-22.38 175.11 54.89-74.46 186.45-166.41 264.91-203.43 96.99-45.773-185.1-40.189-242.53 28.32z" style="stroke-width:0;fill:url(#radialGradient12579)"/>
    <path id="path3217" d="m69.552 231.68c14.867 43 110.01 100.17 106.74 89.43-27.05-88.8-36.84-146.17-33.79-221.91 0.45-11.213-90.845 36.22-72.948 132.48z" style="fill:#cde1e9"/>
    <path id="path3219" d="m81.977 372.85c42.137 17.165 147.84-16.699 137.61-21.316-84.613-38.194-134.2-68.649-189.15-120.86-8.1358-7.7313-32.643 92.188 51.541 142.18z" style="fill:#cde1e9"/>
    <path id="path3221" d="m203.89 453.63c40.287-21.145 82.546-123.78 72.421-118.94-83.746 40.058-139 58.333-214.34 66.674-11.155 1.235 49.428 84.386 141.92 52.263z" style="fill:url(#radialGradient12577)"/>
    <path id="path3223" d="m345.96 410.03c9.8413-44.421-41.301-142.93-44.134-132.07-23.435 89.827-45.125 143.83-87.365 206.77-6.2545 9.3191 96.362 16.69 131.5-74.696z" style="fill:url(#radialGradient12577)"/>
    <path id="path3225" d="m401.89 270.24c-27.37-36.34-135.48-61.47-129.07-52.26 53.056 76.178 80.014 127.75 100.41 200.76 3.0202 10.809 75.297-62.406 28.659-148.49z" style="fill:url(#radialGradient12577)"/>
   </g>
   <g id="layer2-4-2" style="filter:url(#filter3383)">
    <path id="path3372" d="m394.59 14.188c-66.72-0.22-175.01 18.361-208.21 57.968-25.8 37.474-29.04 184.12-22.38 175.09 54.89-74.46 186.44-166.41 264.91-203.44 40.91-19.306 14.37-29.462-34.32-29.622zm-27.438 16.375c38.646 0.12728 59.696 8.2051 27.219 23.531-62.28 29.39-166.68 102.37-210.25 161.47-5.2863 7.1706-2.7286-109.22 17.75-138.97 26.36-31.437 112.33-46.205 165.29-46.031z" style="enable-background:new;stroke-width:0;fill:url(#radialGradient12579)"/>
    <path id="path3387" d="m324.38 135.62c-45.381 3.2742-125.12 80.453-113.91 80.062 92.777-3.2339 150.7 2.1178 223.09 24.594 10.719 3.328-11.569-97.123-109.19-104.66zm0.875 8.9688c73.717 5.6891 90.563 81.544 82.469 79.031-54.666-16.973-98.439-21.005-168.5-18.562-8.4703 0.29526 51.762-57.996 86.031-60.469z" style="enable-background:new;fill:url(#radialGradient12577)"/>
    <path id="path3397" d="m275.41 216.09c-2.3958 0.12327-3.3955 0.72377-2.5938 1.875 53.056 76.178 80.04 127.78 100.44 200.78 3.0202 10.809 75.294-62.413 28.656-148.5-23.951-31.8-109.73-55.019-126.5-54.156zm17.4 16.66c13.816-0.71086 84.456 18.428 104.19 44.625 38.42 70.919-21.106 131.22-23.594 122.31-16.804-60.14-39.011-102.62-82.719-165.38-0.66052-0.94838 0.15135-1.461 2.125-1.5625z" style="enable-background:new;fill:url(#radialGradient12577)"/>
    <path id="path3413" d="m302.53 277.12c-0.33385 0.0453-0.58594 0.33469-0.71875 0.84375-23.435 89.827-45.103 143.81-87.344 206.75-6.2545 9.3191 96.363 16.699 131.5-74.688 9.38-42.339-36.649-133.83-43.438-132.91zm-3.75 42.312c4.8256-0.65425 37.543 64.37 30.875 94.469-24.979 64.965-97.915 59.75-93.469 53.125 30.028-44.742 45.434-83.143 62.094-147 0.0944-0.36188 0.26267-0.56157 0.5-0.59375z" style="enable-background:new;fill:url(#radialGradient12577)"/>
    <path id="path3423" d="m276.75 334.53c-0.13283 0.0239-0.2793 0.0806-0.4375 0.15625-83.746 40.058-139.01 58.347-214.34 66.688-11.155 1.235 49.418 84.374 141.91 52.25 39.657-20.814 81.243-120.6 72.875-119.09zm-24.125 16.188c6.491-1.1685-25.739 76.23-56.5 92.375-71.741 24.918-118.75-39.573-110.09-40.531 58.438-6.4699 101.29-20.647 166.25-51.719 0.12271-0.0587 0.24072-0.10645 0.34375-0.125z" style="enable-background:new;fill:url(#radialGradient12577)"/>
   </g>
  </g>
 </g>
 <path id="path3095" d="m324.39 135.62c-45.381 3.2742-125.15 80.453-113.93 80.062 92.777-3.2339 150.73 2.1051 223.12 24.581 10.719 3.328-11.566-97.11-109.18-104.64z" style="filter:url(#filter3985);enable-background:new;display:none;fill:#dbdbdb" transform="matrix(.17756 0 0 .17756 159.34 -180.88)"/>
 <path id="path3097" d="m186.38 72.15c-25.8 37.48-29.04 184.14-22.38 175.11 54.89-74.46 186.45-166.41 264.91-203.43 96.99-45.773-185.1-40.189-242.53 28.32z" style="stroke-width:0;filter:url(#filter3989);enable-background:new;display:none;fill:#dbdbdb" transform="matrix(.17756 0 0 .17756 159.34 -180.88)"/>
 <path id="path3099" d="m69.552 231.68c14.867 43 110.01 100.17 106.74 89.43-27.05-88.8-36.84-146.17-33.79-221.91 0.45-11.213-90.845 36.22-72.948 132.48z" style="filter:url(#filter3993);enable-background:new;display:none;fill:#dbdbdb" transform="matrix(.17756 0 0 .17756 159.34 -180.88)"/>
 <path id="path3101" d="m81.977 372.85c42.137 17.165 147.84-16.699 137.61-21.316-84.613-38.194-134.2-68.649-189.15-120.86-8.1358-7.7313-32.643 92.188 51.541 142.18z" style="filter:url(#filter3997);enable-background:new;display:none;fill:#dbdbdb" transform="matrix(.17756 0 0 .17756 159.34 -180.88)"/>
 <path id="path3103" d="m203.89 453.63c40.287-21.145 82.546-123.78 72.421-118.94-83.746 40.058-139 58.333-214.34 66.674-11.155 1.235 49.428 84.386 141.92 52.263z" style="filter:url(#filter4001);enable-background:new;display:none;fill:#dbdbdb" transform="matrix(.17756 0 0 .17756 159.34 -180.88)"/>
 <path id="path3105" d="m345.96 410.03c9.8413-44.421-41.301-142.93-44.134-132.07-23.435 89.827-45.125 143.83-87.365 206.77-6.2545 9.3191 96.362 16.69 131.5-74.696z" style="filter:url(#filter4005);enable-background:new;display:none;fill:#dbdbdb" transform="matrix(.17756 0 0 .17756 159.34 -180.88)"/>
 <path id="path3107" d="m401.89 270.24c-27.37-36.34-135.48-61.47-129.07-52.26 53.056 76.178 80.014 127.75 100.41 200.76 3.0202 10.809 75.297-62.406 28.659-148.49z" style="filter:url(#filter4009);enable-background:new;display:none;fill:#dbdbdb" transform="matrix(.17756 0 0 .17756 159.34 -180.88)"/>
 <path id="path3113" d="m79.534 43.956c-8.126 0.576-22.41 14.155-20.402 14.086 16.613-0.569 26.99 0.37 39.953 4.325 1.915 0.585-2.071-17.086-19.551-18.411z" style="fill:url(#radialGradient12646)"/>
 <path id="path3115" d="m54.821 32.788c-4.6199 6.5935-5.1999 32.398-4.0073 30.808 9.829-13.099 33.387-29.277 47.437-35.791 17.369-8.052-33.145-7.07-43.43 4.983z" style="stroke-width:0;fill:url(#radialGradient12657)"/>
 <path id="path3117" d="m33.902 60.856c2.6622 7.5655 19.699 17.623 19.113 15.734-4.844-15.624-6.5966-25.717-6.0511-39.042 0.08077-1.973-16.267 6.3724-13.062 23.308z" style="fill:#fff"/>
 <path id="path3119" d="m36.126 85.693c7.546 3.02 26.473-2.938 24.642-3.751-15.152-6.719-24.032-12.077-33.871-21.264-1.457-1.36-5.845 16.219 9.229 25.015z" style="fill:#fff"/>
 <path id="path3121" d="m57.956 99.904c7.2139-3.7202 14.781-21.778 12.968-20.925-14.996 7.0477-24.89 10.263-38.38 11.731-1.9975 0.21728 8.8508 14.847 25.412 9.1949z" style="fill:url(#radialGradient12646)"/>
 <path id="path3123" d="m83.397 92.235c1.7622-7.8154-7.3955-25.147-7.9028-23.236-4.1964 15.804-8.0803 25.305-15.644 36.378-1.1199 1.6396 17.255 2.9364 23.547-13.142z" style="fill:url(#radialGradient12646)"/>
 <path id="path3125" d="m93.412 67.64c-4.901-6.394-24.26-10.815-23.112-9.195 9.5004 13.403 14.328 22.477 17.98 35.321 0.54082 1.9018 13.483-10.98 5.1318-26.126z" style="fill:url(#radialGradient12646)"/>
 <path id="path4091" d="m306.85-156.96c-6.3581 0.45417-17.534 11.16-15.963 11.106 12.999-0.44859 21.118 0.29201 31.26 3.4097 1.5017 0.46164-1.6205-13.471-15.297-14.516z" style="fill:url(#radialGradient12629)"/>
 <path id="path4093" d="m287.51-165.76c-3.6147 5.1985-4.0685 25.543-3.1354 24.29 7.6905-10.328 26.123-23.083 37.116-28.219 13.589-6.3487-25.934-5.5742-33.981 3.929z" style="stroke-width:0;fill:url(#radialGradient12640)"/>
 <path id="path4095" d="m271.14-143.63c2.083 5.9648 15.413 13.895 14.955 12.405-3.7901-12.318-5.1614-20.276-4.7346-30.782 0.0632-1.5556-12.727 5.0242-10.22 18.377z" style="fill:#cde1e9"/>
 <path id="path4097" d="m272.88-124.05c5.9036 2.381 20.713-2.3164 19.28-2.9569-11.855-5.2981-18.803-9.5226-26.501-16.765-1.1399-1.0724-4.5734 12.788 7.2212 19.722z" style="fill:#cde1e9"/>
 <path id="path4099" d="m289.96-112.85c5.6444-2.9331 11.565-17.17 10.147-16.498-11.733 5.5566-19.474 8.0917-30.03 9.2487-1.5629 0.17131 6.9251 11.706 19.883 7.2496z" style="fill:url(#radialGradient12629)"/>
 <path id="path4101" d="m309.87-118.89c1.3788-6.1619-5.7864-19.827-6.1834-18.32-3.2834 12.46-6.3223 19.951-12.24 28.682-0.87629 1.2927 13.501 2.3151 18.424-10.361z" style="fill:url(#radialGradient12629)"/>
 <path id="path4103" d="m317.71-138.28c-3.8351-5.0413-18.982-8.5272-18.084-7.2497 7.4334 10.567 11.21 17.721 14.068 27.848 0.42315 1.4994 10.55-8.6566 4.0153-20.598z" style="fill:url(#radialGradient12629)"/>
 <path id="path4115" d="m225.91-83.802c-9.3899 0.10768-23.88 2.6857-28.406 8.0312-3.6147 5.1985-4.0581 25.566-3.125 24.312 7.6905-10.328 26.132-23.083 37.125-28.219 5.945-2.7776 1.7095-4.2088-5.5938-4.125zm-9.0625 16.844c-6.3581 0.45418-17.54 11.148-15.969 11.094 12.999-0.44859 21.139 0.31977 31.281 3.4375 1.5017 0.46164-1.6356-13.486-15.312-14.531zm-6.8438 11.156c-0.33566 0.0171-0.48734 0.12156-0.375 0.28125 7.4334 10.567 11.205 17.717 14.062 27.844 0.42315 1.4994 10.565-8.6522 4.0312-20.594-3.3557-4.4112-15.369-7.651-17.719-7.5312zm3.8438 8.4688c-0.0739-0.0188-0.13144 0.0309-0.15625 0.125-3.2834 12.46-6.3319 19.957-12.25 28.688-0.87628 1.2927 13.515 2.3016 18.438-10.375 1.2926-5.7768-4.922-18.155-6.0312-18.438zm-3.625 7.9688c-0.0302-0.007-0.0494 0.0103-0.0937 0.0312-11.733 5.5566-19.476 8.093-30.031 9.25-1.5629 0.17132 6.9168 11.706 19.875 7.25 5.468-2.8414 11.187-16.304 10.25-16.531z" style="fill:url(#radialGradient12626)"/>
</svg>
