<?xml version="1.0" encoding="UTF-8" standalone="no"?>
<!-- Created with Inkscape (http://www.inkscape.org/) -->
<svg id="svg3449" xmlns:rdf="http://www.w3.org/1999/02/22-rdf-syntax-ns#" xmlns="http://www.w3.org/2000/svg" height="128" width="128" version="1.0" xmlns:cc="http://creativecommons.org/ns#" xmlns:xlink="http://www.w3.org/1999/xlink" xmlns:dc="http://purl.org/dc/elements/1.1/">
 <metadata id="metadata56">
  <rdf:RDF>
   <cc:Work rdf:about="">
    <dc:format>image/svg+xml</dc:format>
    <dc:type rdf:resource="http://purl.org/dc/dcmitype/StillImage"/>
    <dc:title/>
   </cc:Work>
  </rdf:RDF>
 </metadata>
 <defs id="defs3451">
  <linearGradient id="linearGradient3514" y2="-9.1034" gradientUnits="userSpaceOnUse" x2="66.492" gradientTransform="matrix(.96826 0 0 .97948 2.179 .16587)" y1="-42.638" x1="67.952">
   <stop id="stop4620" style="stop-color:#37414b" offset="0"/>
   <stop id="stop4622" style="stop-color:#37414b;stop-opacity:0" offset="1"/>
  </linearGradient>
  <linearGradient id="linearGradient3516" y2="-11.847" gradientUnits="userSpaceOnUse" x2="58.98" gradientTransform="matrix(.96826 0 0 .97948 2.179 .16587)" y1="-118.55" x1="57.173">
   <stop id="stop4596" offset="0"/>
   <stop id="stop4598" style="stop-opacity:0" offset="1"/>
  </linearGradient>
  <linearGradient id="linearGradient3519" y2="50.369" gradientUnits="userSpaceOnUse" x2="76.558" gradientTransform="matrix(.96826 0 0 .97948 3.2423 -129.19)" y1="13.164" x1="76.558">
   <stop id="stop3392" style="stop-color:#425e7b" offset="0"/>
   <stop id="stop3394" style="stop-color:#7a91a7" offset="1"/>
  </linearGradient>
  <linearGradient id="linearGradient3521" y2="-8.7399" gradientUnits="userSpaceOnUse" x2="60.217" gradientTransform="matrix(.96826 0 0 .97948 2.179 .16587)" y1="-123.72" x1="60.395">
   <stop id="stop3392-4-8" style="stop-color:#425e7b" offset="0"/>
   <stop id="stop3394-8-0" style="stop-color:#7a91a7" offset="1"/>
  </linearGradient>
  <radialGradient id="radialGradient3349" gradientUnits="userSpaceOnUse" cy="45.647" cx="42.148" gradientTransform="matrix(.94690 0 0 1.139 3.5954 -29.89)" r="58.984">
   <stop id="stop2699-5" style="stop-color:#868686" offset="0"/>
   <stop id="stop2701-7" style="stop-color:#4a4a4a" offset="1"/>
  </radialGradient>
  <filter id="filter3174-5" color-interpolation-filters="sRGB">
   <feGaussianBlur id="feGaussianBlur3176-4" stdDeviation="1.71"/>
  </filter>
  <linearGradient id="ButtonShadow-4" x1="45.448" gradientUnits="userSpaceOnUse" y1="92.54" gradientTransform="scale(1.0059 .99417)" x2="45.448" y2="7.0165">
   <stop id="stop3750-3" offset="0"/>
   <stop id="stop3752-57" style="stop-opacity:.58824" offset="1"/>
  </linearGradient>
  <filter id="filter3174-0" color-interpolation-filters="sRGB">
   <feGaussianBlur id="feGaussianBlur3176-9" stdDeviation="1.71"/>
  </filter>
  <filter id="filter3174-7" color-interpolation-filters="sRGB">
   <feGaussianBlur id="feGaussianBlur3176-7" stdDeviation="1.71"/>
  </filter>
  <clipPath id="clipPath3613-9">
   <rect id="rect3615-2" style="fill:#fff" rx="6" ry="6" height="84" width="84" y="6" x="6"/>
  </clipPath>
  <linearGradient id="linearGradient3613-3" x1="48" gradientUnits="userSpaceOnUse" y1="20.221" x2="48" y2="138.66">
   <stop id="stop3739-03" style="stop-color:#fff" offset="0"/>
   <stop id="stop3741-5" style="stop-color:#fff;stop-opacity:0" offset="1"/>
  </linearGradient>
  <filter id="filter3794-30" height="1.384" width="1.384" color-interpolation-filters="sRGB" y="-.192" x="-.192">
   <feGaussianBlur id="feGaussianBlur3796-38" stdDeviation="5.28"/>
  </filter>
  <filter id="filter3174-8" color-interpolation-filters="sRGB">
   <feGaussianBlur id="feGaussianBlur3176-3" stdDeviation="1.71"/>
  </filter>
  <clipPath id="clipPath3613-26">
   <rect id="rect3615-4" style="fill:#fff" rx="6" ry="6" height="84" width="84" y="6" x="6"/>
  </clipPath>
  <filter id="filter3794-67" height="1.384" width="1.384" color-interpolation-filters="sRGB" y="-.192" x="-.192">
   <feGaussianBlur id="feGaussianBlur3796-4" stdDeviation="5.28"/>
  </filter>
  <filter id="filter3174-4" color-interpolation-filters="sRGB">
   <feGaussianBlur id="feGaussianBlur3176-0" stdDeviation="1.71"/>
  </filter>
  <filter id="filter3174-1" color-interpolation-filters="sRGB">
   <feGaussianBlur id="feGaussianBlur3176-1" stdDeviation="1.71"/>
  </filter>
  <linearGradient id="linearGradient9285" y2="7.0165" gradientUnits="userSpaceOnUse" x2="45.448" gradientTransform="matrix(1.0059 0 0 .99417 -59.657 2.8358)" y1="92.54" x1="45.448">
   <stop id="stop3750-7" offset="0"/>
   <stop id="stop3752-3" style="stop-opacity:.58824" offset="1"/>
  </linearGradient>
  <linearGradient id="linearGradient4131" y2="1013" gradientUnits="userSpaceOnUse" x2="30.261" y1="1043.5" x1="30.624">
   <stop id="stop4177" style="stop-color:#c83b20" offset="0"/>
   <stop id="stop4179" style="stop-color:#e16048" offset="1"/>
  </linearGradient>
 </defs>
 <path id="path5266" style="fill:#fff" d="m79.469 31.781c-0.57606-0.0052-1.1456 0.03187-1.7188 0.125-4.465 0.44-8.66 3.03-11.062 6.8125-1.9825 3.0175-2.6962 6.75-2.2812 10.312-10.742 10.725-21.452 21.458-32.188 32.188-1.49 1.4575-2.3625 3.4712-2.5625 5.5312-0.2075 2.79 0.98375 5.66 3.1562 7.4375 1.5675 1.3475 3.6475 2.0162 5.6875 2.1562 2.2775-0.18 4.5888-1.0012 6.2188-2.6562 5.675-5.655 11.304-11.301 16.969-16.969 4.9275-4.97 9.9575-9.8638 14.812-14.906 1.3275 0.08 2.6675 0.39 4 0.1875 4-0.2975 7.855-2.2038 10.438-5.2812 2.3875-2.8175 3.67-6.5362 3.625-10.219-0.105-1.795-0.50625-3.555-1.0938-5.25-0.22 0.0725-0.4025 0.2075-0.5625 0.375-2.725 2.86-5.5788 5.5862-8.3438 8.4062-1.27 1.335-3.6038 1.355-4.9062 0.0625-1.2875-1.285-2.5638-2.5875-3.8438-3.875-1.285-1.3025-1.265-3.5838 0.0625-4.8438 2.905-2.88 5.76-5.8275 8.6875-8.6875-1.6462-0.50062-3.3656-0.89078-5.0938-0.90625zm-41.656 51.25c0.9709-0.07383 1.9506 0.10188 2.7812 0.625 1.4275 0.8225 2.3475 2.4488 2.3125 4.0938 0 1.7-1.0212 3.3525-2.5312 4.125-1.5225 0.7525-3.5 0.665-4.875-0.375-1.1875-0.86-2.0125-2.255-1.9375-3.75-0.1025-2.0325 1.3238-4.0225 3.2812-4.5625 0.31125-0.07313 0.64512-0.13164 0.96875-0.15625z"/>
 <rect id="rect892" style="stroke:url(#linearGradient3521);stroke-width:.97385;fill:url(#linearGradient3519)" transform="scale(1,-1)" ry="29.296" height="115.54" width="114.22" y="-122.25" x="7.0394"/>
 <rect id="rect892-2" style="stroke:url(#linearGradient3516);stroke-width:.97385;fill:url(#linearGradient3514)" transform="scale(1,-1)" ry="28.993" height="114.35" width="114.22" y="-121.46" x="7.0599"/>
 <path id="rect895" style="fill:url(#radialGradient3349)" d="m30.571 7.0104c-13.128 0.936-22.55 15.04-23.173 23.288-0.050142 0.97378-0.088772 1.9648-0.088772 2.9572v58.419c0 15.229 11.191 27.859 22.318 27.859h67.038c15.69 0 24.318-16.445 24.318-25.859v-64.017c-0.21-5.933-12.29-21.682-25.926-22.618-47.846 0.8653-20.497-0.0256-64.483-0.0256z"/>
 <rect id="rect892-2-7-8" style="opacity:.15891;stroke:#000;stroke-width:4.8445;fill:none" transform="scale(1,-1)" ry="28.993" height="114.35" width="114.22" y="-121.16" x="6.8683"/>
 <rect id="rect892-2-7-1" style="opacity:.15891;stroke:#000;stroke-width:7.7512;fill:none" transform="scale(1,-1)" ry="28.993" height="114.35" width="114.22" y="-121.16" x="6.8686"/>
 <rect id="rect892-2-7-2-9" ry="28.067" style="stroke:#000;stroke-width:1.0489;fill:none" transform="scale(1,-1)" height="112.71" width="114.14" y="-120.31" x="7.0644"/>
 <path id="path1187" style="fill:#fff;fill-opacity:.057143" d="m32.415 6.0906c-14.891-4.3298-32.779 19.454-27.93 26.295-0.04334 0.71563-0.07674 1.4439-0.07674 2.1732v10.76c25.899-25.61 66.753-35.479 90.375-39.179-0.22473-0.02628-0.45986-0.03062-0.69067-0.03062-41.576 0.38742-23.653-0.01876-61.677-0.01875z"/>
 <g id="layer2" style="display:none" transform="translate(137.63 15.959)">
  <rect id="rect3745" style="opacity:.9;filter:url(#filter3174-5);fill:url(#ButtonShadow-4)" rx="6" ry="6" height="85" width="86" y="7" x="5"/>
 </g>
 <g id="layer2-3" style="display:none" transform="translate(146.29 14.997)">
  <rect id="rect3745-4" style="opacity:.9;filter:url(#filter3174-0);fill:url(#ButtonShadow-4)" rx="6" ry="6" height="85" width="86" y="7" x="5"/>
 </g>
 <g id="layer2-4" style="display:none" transform="translate(176.76 -8.736)">
  <rect id="rect3745-7" style="opacity:.9;filter:url(#filter3174-7);fill:url(#ButtonShadow-4)" rx="6" ry="6" height="85" width="86" y="7" x="5"/>
 </g>
 <g id="layer2-2" style="display:none" transform="translate(143.15 5.055)">
  <rect id="rect3745-9" style="opacity:.9;filter:url(#filter3174-8);fill:url(#ButtonShadow-4)" rx="6" ry="6" height="85" width="86" y="7" x="5"/>
 </g>
 <g id="layer5-4" style="display:none" transform="translate(143.15 5.055)">
  <rect id="rect3171-7" style="opacity:.3;filter:url(#filter3794-30);stroke:#fff;stroke-linecap:round;stroke-width:.5;fill:url(#linearGradient3613-3)" clip-path="url(#clipPath3613-9)" rx="12" ry="12" height="66" width="66" y="15" x="15"/>
 </g>
 <g id="layer2-1" style="display:none" transform="translate(160.47 -5.8175)">
  <rect id="rect3745-8" style="opacity:.9;filter:url(#filter3174-4);fill:url(#ButtonShadow-4)" rx="6" ry="6" height="85" width="86" y="7" x="5"/>
 </g>
 <g id="layer5-46" style="display:none" transform="translate(160.47 -5.8175)">
  <rect id="rect3171-2" style="opacity:.1;filter:url(#filter3794-67);stroke:#fff;stroke-linecap:round;stroke-width:.5;fill:url(#linearGradient3613-3)" clip-path="url(#clipPath3613-26)" rx="12" ry="12" height="66" width="66" y="15" x="15"/>
 </g>
 <rect id="rect3745-82" style="opacity:.9;filter:url(#filter3174-1);display:none;fill:url(#linearGradient9285)" rx="6" ry="6" height="85" width="86" y="9.8358" x="-54.657"/>
 <g id="g10023" transform="matrix(2.5 0 0 2.5 3.9999 -2508.4)">
  <path id="path4187" style="fill-opacity:.058824" d="m26.427 1014.2-5.2854 0.088-1.075 0.8082 0.08959 0.088-3.4938 0.088 0.26875-0.3597-7.9729-0.1796-0.089585 0.5393-0.089595 0.8082 0.5375 0.9878-0.26875 2.0661-0.44792 1.7967 0.26875 1.7065 0.089585 1.3475 0.5375 1.7963-0.17917 0.8981 0.089595 0.988 0.62708 0.719 0.17917 1.1677-1.1646 0.449 0.17917 3.5929 0.71667 0.5387-0.44792 3.1441-0.35833 0.1792-0.26875 6.0187 0.31634-0.042 0.76146 0.1572s0.91856 0.3185 1.1086 0.3819c0.19004 0.062 0.47311-0.2863 0.47311-0.2863h0.76146l0.63269-0.1272 0.34994 0.1604 0.31634-0.032 0.79226-0.06 0.37793-0.1605 0.15957 0.3822 0.12597-0.092 0.34994-0.1598 0.72787-0.06 0.15678 0.2216s0.88705 0.092 1.2038 0.092c0.31673 0 0.25475-0.2557 0.25475-0.2557s0.09358-0.029 0.25196 0.1293c0.15836 0.1588 0.38073-0.062 0.38073-0.062l0.31634-0.1604 0.22396 0.2248 0.22116 0.1572 0.60189-0.1255h0.97982l0.22396-0.062 0.91823 1.3023 0.06159-0.6655h1.4893c0.12669 0 0.06439 0.4439 0.06439 0.4439l0.97982-0.3169 0.50671 0.5077 1.047-0.6684 0.5683-0.092 1.1086-0.06h1.5845l1.8057 0.1256 0.47591-0.1908 0.34714-0.317 0.95183 0.5387 0.69427-0.2861s0.76075 0.2882 0.88744 0.3203c0.12669 0.031 1.299-0.1296 1.299-0.1296l0.72787-0.1907-0.47311-0.348 0.31634-0.1254 1.3298 0.06 1.7721 0.4458-0.03079-11.592v-0.73l-0.44232 0.062-0.5711 0.092v-0.3507l0.31635-0.2868 0.25475-0.3786 0.06159-1.3667-0.09519-0.9854-0.41153-1.2068-0.37793-0.5082-0.06439-0.4741 0.09519-0.3178 0.03079-0.092 0.41152-0.1599 0.06439-0.1598-0.31634-0.5394 0.28555-0.1627 0.44792-0.2697 0.17917-1.6164 0.08959-1.0779v-3.7729l-0.26875-1.0778 0.17917-1.1671 0.08959-0.4492-0.80626-0.3597-3.0458-0.5385-0.44792 0.6285-0.17917-0.7185-5.8229-0.088-0.17917 0.9881-1.4333 0.1799-0.17917-0.6292-1.2542-0.1792 0.44792-0.5393zm-11.383 5.0724 20.842 14.164-1.6489 5.9055-3.9277 0.1296-18.18-19.436 2.9143-0.7631zm16.534 0.2553 2.2816 1.2041-0.63548 4.446-0.44232 0.1297-6.0805-4.6374 4.8767-1.1424zm-17.102 12.766 6.2065 6.2235-3.7373 1.3333-1.9624-0.1259-2.4076-2.0322 1.9009-5.398z"/>
  <path id="path4185" style="fill-opacity:.11765" d="m26.427 1013.8-5.2854 0.088-1.075 0.8082 0.08959 0.088-3.4938 0.088 0.26875-0.3597-7.9729-0.1796-0.089585 0.5393-0.089595 0.8082 0.5375 0.9878-0.26875 2.0661-0.44792 1.7967 0.26875 1.7065 0.089585 1.3475 0.5375 1.7963-0.17917 0.8981 0.089595 0.988 0.62708 0.719 0.17917 1.1677-1.1646 0.449 0.17917 3.5929 0.71667 0.5387-0.44792 3.1441-0.35833 0.1792-0.26875 6.0187 0.31634-0.042 0.76146 0.1572s0.91856 0.3185 1.1086 0.3819c0.19004 0.062 0.47311-0.2863 0.47311-0.2863h0.76146l0.63269-0.1272 0.34994 0.1604 0.31634-0.032 0.79226-0.06 0.37793-0.1605 0.15957 0.3822 0.12597-0.092 0.34994-0.1598 0.72787-0.06 0.15678 0.2216s0.88705 0.092 1.2038 0.092c0.31673 0 0.25475-0.2557 0.25475-0.2557s0.09358-0.029 0.25196 0.1293c0.15836 0.1588 0.38073-0.062 0.38073-0.062l0.31634-0.1604 0.22396 0.2248 0.22116 0.1572 0.60189-0.1255h0.97982l0.22396-0.062 0.91823 1.3023 0.06159-0.6655h1.4893c0.12669 0 0.06439 0.4439 0.06439 0.4439l0.97982-0.3169 0.50671 0.5077 1.047-0.6684 0.5683-0.092 1.1086-0.06h1.5845l1.8057 0.1256 0.47591-0.1908 0.34714-0.317 0.95183 0.5387 0.69427-0.2861s0.76075 0.2882 0.88744 0.3203c0.12669 0.031 1.299-0.1296 1.299-0.1296l0.72787-0.1907-0.47311-0.348 0.31634-0.1254 1.3298 0.06 1.7721 0.4458-0.03079-11.592v-0.73l-0.44232 0.062-0.5711 0.092v-0.3507l0.31635-0.2868 0.25475-0.3786 0.06159-1.3667-0.09519-0.9854-0.41153-1.2068-0.37793-0.5082-0.06439-0.4741 0.09519-0.3178 0.03079-0.092 0.41152-0.1599 0.06439-0.1598-0.31634-0.5394 0.28555-0.1627 0.44792-0.2697 0.17917-1.6164 0.08959-1.0779v-3.7729l-0.26875-1.0778 0.17917-1.1671 0.08959-0.4492-0.80626-0.3597-3.0458-0.5385-0.44792 0.6285-0.17917-0.7185-5.8229-0.088-0.17917 0.9881-1.4333 0.1799-0.17917-0.6292-1.2542-0.1792 0.44792-0.5393zm-11.383 5.0724 20.842 14.164-1.6489 5.9055-3.9277 0.1296-18.18-19.436 2.9143-0.7631zm16.534 0.2553 2.2816 1.2041-0.63548 4.446-0.44232 0.1297-6.0805-4.6374 4.8767-1.1424zm-17.102 12.766 6.2065 6.2235-3.7373 1.3333-1.9624-0.1259-2.4076-2.0322 1.9009-5.398z"/>
  <path id="path4181" style="fill-opacity:.23529" d="m26.427 1013.4-5.2854 0.088-1.075 0.8082 0.08959 0.088-3.4938 0.088 0.26875-0.3597-7.9729-0.1796-0.089585 0.5393-0.089595 0.8082 0.5375 0.9878-0.26875 2.0661-0.44792 1.7967 0.26875 1.7065 0.089585 1.3475 0.5375 1.7963-0.17917 0.8981 0.089595 0.988 0.62708 0.719 0.17917 1.1677-1.1646 0.449 0.17917 3.5929 0.71667 0.5387-0.44792 3.1441-0.35833 0.1792-0.26875 6.0187 0.31634-0.042 0.76146 0.1572s0.91856 0.3185 1.1086 0.3819c0.19004 0.062 0.47311-0.2863 0.47311-0.2863h0.76146l0.63269-0.1272 0.34994 0.1604 0.31634-0.032 0.79226-0.06 0.37793-0.1605 0.15957 0.3822 0.12597-0.092 0.34994-0.1598 0.72787-0.06 0.15678 0.2216s0.88705 0.092 1.2038 0.092c0.31673 0 0.25475-0.2557 0.25475-0.2557s0.09358-0.029 0.25196 0.1293c0.15836 0.1588 0.38073-0.062 0.38073-0.062l0.31634-0.1604 0.22396 0.2248 0.22116 0.1572 0.60189-0.1255h0.97982l0.22396-0.062 0.91823 1.3023 0.06159-0.6655h1.4893c0.12669 0 0.06439 0.4439 0.06439 0.4439l0.97982-0.3169 0.50671 0.5077 1.047-0.6684 0.5683-0.092 1.1086-0.06h1.5845l1.8057 0.1256 0.47591-0.1908 0.34714-0.317 0.95183 0.5387 0.69427-0.2861s0.76075 0.2882 0.88744 0.3203c0.12669 0.031 1.299-0.1296 1.299-0.1296l0.72787-0.1907-0.47311-0.348 0.31634-0.1254 1.3298 0.06 1.7721 0.4458-0.03079-11.592v-0.73l-0.44232 0.062-0.5711 0.092v-0.3507l0.31635-0.2868 0.25475-0.3786 0.06159-1.3667-0.09519-0.9854-0.41153-1.2068-0.37793-0.5082-0.06439-0.4741 0.09519-0.3178 0.03079-0.092 0.41152-0.1599 0.06439-0.1598-0.31634-0.5394 0.28555-0.1627 0.44792-0.2697 0.17917-1.6164 0.08959-1.0779v-3.7729l-0.26875-1.0778 0.17917-1.1671 0.08959-0.4492-0.80626-0.3597-3.0458-0.5385-0.44792 0.6285-0.17917-0.7185-5.8229-0.088-0.17917 0.9881-1.4333 0.1799-0.17917-0.6292-1.2542-0.1792 0.44792-0.5393zm-11.383 5.0724 20.842 14.164-1.6489 5.9055-3.9277 0.1296-18.18-19.436 2.9143-0.7631zm16.534 0.2553 2.2816 1.2041-0.63548 4.446-0.44232 0.1297-6.0805-4.6374 4.8767-1.1424zm-17.102 12.766 6.2065 6.2235-3.7373 1.3333-1.9624-0.1259-2.4076-2.0322 1.9009-5.398z"/>
  <path id="path3012" style="fill:url(#linearGradient4131)" d="m26.427 1013-5.2854 0.088-1.075 0.8082 0.08959 0.088-3.4938 0.088 0.26875-0.3597-7.9729-0.1796-0.089585 0.5393-0.089595 0.8082 0.5375 0.9878-0.26875 2.0661-0.44792 1.7967 0.26875 1.7065 0.089585 1.3475 0.5375 1.7963-0.17917 0.8981 0.089595 0.988 0.62708 0.719 0.17917 1.1677-1.1646 0.449 0.17917 3.5929 0.71667 0.5387-0.44792 3.1441-0.35833 0.1792-0.26875 6.0187 0.31634-0.042 0.76146 0.1572s0.91856 0.3185 1.1086 0.3819c0.19004 0.062 0.47311-0.2863 0.47311-0.2863h0.76146l0.63269-0.1272 0.34994 0.1604 0.31634-0.032 0.79226-0.06 0.37793-0.1605 0.15957 0.3822 0.12597-0.092 0.34994-0.1598 0.72787-0.06 0.15678 0.2216s0.88705 0.092 1.2038 0.092c0.31673 0 0.25475-0.2557 0.25475-0.2557s0.09358-0.029 0.25196 0.1293c0.15836 0.1588 0.38073-0.062 0.38073-0.062l0.31634-0.1604 0.22396 0.2248 0.22116 0.1572 0.60189-0.1255h0.97982l0.22396-0.062 0.91823 1.3023 0.06159-0.6655h1.4893c0.12669 0 0.06439 0.4439 0.06439 0.4439l0.97982-0.3169 0.50671 0.5077 1.047-0.6684 0.5683-0.092 1.1086-0.06h1.5845l1.8057 0.1256 0.47591-0.1908 0.34714-0.317 0.95183 0.5387 0.69427-0.2861s0.76075 0.2882 0.88744 0.3203c0.12669 0.031 1.299-0.1296 1.299-0.1296l0.72787-0.1907-0.47311-0.348 0.31634-0.1254 1.3298 0.06 1.7721 0.4458-0.03079-11.592v-0.73l-0.44232 0.062-0.5711 0.092v-0.3507l0.31635-0.2868 0.25475-0.3786 0.06159-1.3667-0.09519-0.9854-0.41153-1.2068-0.37793-0.5082-0.06439-0.4741 0.09519-0.3178 0.03079-0.092 0.41152-0.1599 0.06439-0.1598-0.31634-0.5394 0.28555-0.1627 0.44792-0.2697 0.17917-1.6164 0.08959-1.0779v-3.7729l-0.26875-1.0778 0.17917-1.1671 0.08959-0.4492-0.80626-0.3597-3.0458-0.5385-0.44792 0.6285-0.17917-0.7185-5.8229-0.088-0.17917 0.9881-1.4333 0.1799-0.17917-0.6292-1.2542-0.1792 0.44792-0.5393zm-11.383 5.0724 20.842 14.164-1.6489 5.9055-3.9277 0.1296-18.18-19.436 2.9143-0.7631zm16.534 0.2553 2.2816 1.2041-0.63548 4.446-0.44232 0.1297-6.0805-4.6374 4.8767-1.1424zm-17.102 12.766 6.2065 6.2235-3.7373 1.3333-1.9624-0.1259-2.4076-2.0322 1.9009-5.398z"/>
  <path id="path4189" d="m39.193 9.8027-0.13476 0.87695 0.07617 0.30469 0.10352-0.67188 0.08984-0.44922-0.13477-0.060547zm-30.34 0.0137-0.0742 0.6636 0.4531 0.834 0.084-0.646-0.4629-0.8516zm6.1914 3.0566-2.9141 0.76172 0.60156 0.64258 2.3125-0.60547 20.654 14.037 0.1875-0.67188-20.842-14.164zm16.533 0.25391-4.877 1.1426 0.80273 0.61328 4.0742-0.95508 2.1758 1.1465 0.10547-0.74219-2.2812-1.2051zm-22.9 1.8945-0.078125 0.30859 0.26953 1.707 0.089844 1.3477 0.44141 1.4766 0.095703-0.48047-0.53711-1.7969-0.089844-1.3477-0.19141-1.2148zm30.65 0.50781-0.08984 1.0781-0.17969 1.6172-0.44727 0.26953-0.28711 0.16211 0.31641 0.54102-0.04297 0.10547 0.01367-0.0078 0.44727-0.26953 0.17969-1.6172 0.08984-1.0781v-0.80078zm-0.98633 3.918-0.17578 0.06836-0.03125 0.0918-0.0957 0.31836 0.06445 0.47461 0.02344 0.03125 0.0078-0.02344 0.03125-0.0918 0.41016-0.16016 0.06445-0.16016-0.31641-0.53906 0.01758-0.0098zm-28.975 1.3828-0.050781 0.25 0.089844 0.98633 0.62695 0.7207 0.06445 0.41211 0.11524-0.04492l-0.179-1.169-0.6268-0.718-0.039-0.438zm29.598 2.8203-0.03711 0.81641-0.25586 0.37891-0.31641 0.28711v0.34961l0.47852-0.07617 0.09375-0.13867 0.06055-1.3672-0.02344-0.25zm-29.877 0.73633-0.039063 0.01563 0.17773 3.5938 0.61328 0.46094l0.1035-0.724-0.7168-0.539-0.1387-2.808zm5.3887 1.5078-1.9004 5.3984 0.2168 0.18359 1.6836-4.7832 5.6172 5.6348 0.58789-0.21094-6.2051-6.2227zm-5.291 11.141-0.28125 0.03711-0.035156 0.80469 0.31641-0.04297 0.76172 0.1582s0.91739 0.31746 1.1074 0.38086c0.19004 0.062 0.47266-0.28516 0.47266-0.28516h0.76172l0.63281-0.12695 0.34961 0.16016 0.31641-0.0332 0.79297-0.05859 0.37891-0.16211 0.1582 0.38281 0.12695-0.0918 0.34961-0.16016 0.72852-0.05859 0.15625 0.2207s0.8864 0.0918 1.2031 0.0918c0.31673 0 0.25586-0.25586 0.25586-0.25586s0.09358-0.02939 0.25195 0.12891c0.15836 0.1588 0.38086-0.06055 0.38086-0.06055l0.31641-0.16211 0.22266 0.22656 0.2207 0.15625 0.60352-0.125h0.97852l0.22461-0.0625 0.91797 1.3027 0.0625-0.66602h1.4883c0.12669 0 0.06445 0.44336 0.06445 0.44336l0.98047-0.31641 0.50586 0.50781 1.0469-0.66797 0.56836-0.0918 1.1094-0.06055h1.584l1.8066 0.125 0.47461-0.18945 0.34766-0.31836 0.95117 0.53906 0.69531-0.28516s0.76003 0.28821 0.88672 0.32031c0.12669 0.031 1.2988-0.13086 1.2988-0.13086l0.72852-0.18945-0.47266-0.34766 0.31641-0.12695 1.3281 0.06055 1.7734 0.44531-0.002-0.79883-1.7715-0.44727-1.3281-0.05859-0.31641 0.125 0.47266 0.34766-0.72852 0.19141s-1.1721 0.15991-1.2988 0.12891c-0.12669-0.0321-0.88672-0.32031-0.88672-0.32031l-0.69531 0.28711-0.95117-0.53906-0.34766 0.31641-0.47461 0.19141-1.8066-0.12695h-1.584l-1.1094 0.06055-0.56836 0.0918-1.0469 0.66797-0.50586-0.50781-0.98047 0.31836s0.06224-0.44531-0.06445-0.44531h-1.4883l-0.0625 0.66602-0.91797-1.3027-0.22461 0.0625h-0.97852l-0.60352 0.125-0.2207-0.15625-0.22266-0.22461-0.31641 0.16016s-0.2225 0.2213-0.38086 0.0625c-0.15838-0.1583-0.25195-0.12891-0.25195-0.12891s0.06087 0.25391-0.25586 0.25391c-0.31672 0-1.2031-0.0918-1.2031-0.0918l-0.15625-0.2207-0.72852 0.06055-0.34961 0.1582-0.12695 0.09375-0.1582-0.38281-0.37891 0.16016-0.79297 0.06055-0.31641 0.03125-0.34961-0.16016-0.63281 0.12695h-0.76172s-0.28262 0.34911-0.47266 0.28711c-0.19004-0.0634-1.1074-0.38281-1.1074-0.38281l-0.76172-0.15625z" style="fill:#222b2e;fill-opacity:.31373" transform="translate(0 1004.4)"/>
  <path id="path4194" d="m26.428 8.5996-5.285 0.0879-1.077 0.8086 0.09 0.0879-3.494 0.0879 0.27-0.3594-7.973-0.1797-0.0899 0.5391l-0.089844 0.80859 0.037109 0.06836 0.052734-0.47656 0.089844-0.53906 7.9727 0.17969-0.26953 0.35938 3.4941-0.087891-0.08984-0.087891 1.0762-0.80859 4.9531-0.082031 0.33203-0.39844v-0.00781zm2.5977 0.1875-0.17969 0.98828-1.4336 0.17969-0.17773-0.62891-0.95703-0.13672-0.29883 0.35742 1.2559 0.17969 0.17773 0.62891 1.4336-0.17969 0.17969-0.98828 5.8223 0.087891 0.17969 0.71875 0.44726-0.62891 3.0469 0.53906 0.73242 0.32617 0.07422-0.36719l-0.807-0.3599-3.046-0.5391-0.448 0.629-0.179-0.7188-5.823-0.0879zm10.07 2.8457-0.03711 0.24609 0.26953 1.0781v-0.40039l-0.23242-0.92383zm-29.82 0.1582-0.22656 1.7441-0.44922 1.7949 0.039063 0.24609 0.41016-1.6426 0.26758-2.0664-0.041016-0.07617zm3.1563 2.9668-0.30078 0.07813 18.18 19.436 3.9277-0.12891 1.6484-5.9062-0.09375-0.06445-1.5547 5.5703-3.9277 0.12891-17.879-19.113zm14.672 0.61914-0.40234 0.09375 6.0801 4.6367 0.44336-0.12891 0.63477-4.4473-0.05273-0.02734-0.58203 4.0742-0.44336 0.12891-5.6777-4.3301zm11.396 4.381l-0.17578 0.09961 0.18945 0.32227 0.0625-0.02344 0.06445-0.16016-0.141-0.238zm-29.053 0.66406-0.13086 0.6582 0.025391 0.27344 0.1543-0.77148-0.048828-0.16016zm28.629 0.58008-0.03711 0.12305 0.06445 0.47461 0.37891 0.50781 0.41016 1.207 0.08398 0.86133 0.01172-0.27539-0.0957-0.98633-0.41016-1.2051-0.37891-0.50976-0.02734-0.19727zm-27.922 2.9727-1.1055 0.42774 0.019531 0.39258 1.1445-0.44141-0.05859-0.37891zm29.215 2.1543-0.44141 0.0625-0.50781 0.08203-0.06445 0.05859v0.35156l0.57226-0.0918 0.44141-0.0625v-0.40039zm0 0.73047v0.40039l0.0293 11.191h0.002l-0.03125-11.592zm-29.477 2.0371-0.39648 2.7812-0.35938 0.17969-0.26758 6.0195 0.017578-0.002 0.25-5.6172 0.35938-0.17969 0.44727-3.1426-0.050781-0.03906zm2.793 3.2871-0.10938 0.30859 2.4062 2.0312 1.9629 0.12695 3.7363-1.334-0.29297-0.29297-3.4434 1.2266-1.9629-0.125-2.2969-1.9414zm23.613 6.1621-0.31641 0.125 0.07227 0.05273 0.40039-0.10352-0.09766-0.07227-0.05859-0.002z" style="fill:#fff;fill-opacity:.23529" transform="translate(0 1004.4)"/>
 </g>
</svg>
