<?xml version="1.0" encoding="UTF-8" standalone="no"?>
<!-- Created with Inkscape (http://www.inkscape.org/) -->

<svg
   xmlns:dc="http://purl.org/dc/elements/1.1/"
   xmlns:cc="http://creativecommons.org/ns#"
   xmlns:rdf="http://www.w3.org/1999/02/22-rdf-syntax-ns#"
   xmlns:svg="http://www.w3.org/2000/svg"
   xmlns="http://www.w3.org/2000/svg"
   xmlns:xlink="http://www.w3.org/1999/xlink"
   xmlns:sodipodi="http://sodipodi.sourceforge.net/DTD/sodipodi-0.dtd"
   xmlns:inkscape="http://www.inkscape.org/namespaces/inkscape"
   id="svg3449"
   height="128"
   width="128"
   version="1.0"
   inkscape:version="0.48.4 r9939"
   sodipodi:docname="stock_addressbook.svg">
  <sodipodi:namedview
     pagecolor="#ffffff"
     bordercolor="#666666"
     borderopacity="1"
     objecttolerance="10"
     gridtolerance="10"
     guidetolerance="10"
     inkscape:pageopacity="0"
     inkscape:pageshadow="2"
     inkscape:window-width="640"
     inkscape:window-height="480"
     id="namedview140"
     showgrid="false"
     inkscape:zoom="1.84375"
     inkscape:cx="64"
     inkscape:cy="64"
     inkscape:window-x="0"
     inkscape:window-y="35"
     inkscape:window-maximized="0"
     inkscape:current-layer="svg3449" />
  <metadata
     id="metadata56">
    <rdf:RDF>
      <cc:Work
         rdf:about="">
        <dc:format>image/svg+xml</dc:format>
        <dc:type
           rdf:resource="http://purl.org/dc/dcmitype/StillImage" />
        <dc:title />
      </cc:Work>
    </rdf:RDF>
  </metadata>
  <defs
     id="defs3451">
    <linearGradient
       id="linearGradient3514"
       y2="-9.1034"
       gradientUnits="userSpaceOnUse"
       x2="66.492"
       gradientTransform="matrix(.96826 0 0 .97948 2.179 .16587)"
       y1="-42.638"
       x1="67.952">
      <stop
         id="stop4620"
         style="stop-color:#37414b"
         offset="0" />
      <stop
         id="stop4622"
         style="stop-color:#37414b;stop-opacity:0"
         offset="1" />
    </linearGradient>
    <linearGradient
       id="linearGradient3516"
       y2="-11.847"
       gradientUnits="userSpaceOnUse"
       x2="58.98"
       gradientTransform="matrix(.96826 0 0 .97948 2.179 .16587)"
       y1="-118.55"
       x1="57.173">
      <stop
         id="stop4596"
         offset="0" />
      <stop
         id="stop4598"
         style="stop-opacity:0"
         offset="1" />
    </linearGradient>
    <linearGradient
       id="linearGradient3519"
       y2="50.369"
       gradientUnits="userSpaceOnUse"
       x2="76.558"
       gradientTransform="matrix(.96826 0 0 .97948 3.2423 -129.19)"
       y1="13.164"
       x1="76.558">
      <stop
         id="stop3392"
         style="stop-color:#425e7b"
         offset="0" />
      <stop
         id="stop3394"
         style="stop-color:#7a91a7"
         offset="1" />
    </linearGradient>
    <linearGradient
       id="linearGradient3521"
       y2="-8.7399"
       gradientUnits="userSpaceOnUse"
       x2="60.217"
       gradientTransform="matrix(.96826 0 0 .97948 2.179 .16587)"
       y1="-123.72"
       x1="60.395">
      <stop
         id="stop3392-4-8"
         style="stop-color:#425e7b"
         offset="0" />
      <stop
         id="stop3394-8-0"
         style="stop-color:#7a91a7"
         offset="1" />
    </linearGradient>
    <linearGradient
       id="linearGradient11406"
       y2="19.812"
       gradientUnits="userSpaceOnUse"
       x2="15.25"
       gradientTransform="matrix(2.6667 0 0 4.341 -1.4969e-7 -5.0231)"
       y1="8.4375"
       x1="12.938">
      <stop
         id="stop6594-0-2"
         style="stop-color:#fff;stop-opacity:.27451"
         offset="0" />
      <stop
         id="stop6596-2-5"
         style="stop-color:#fff;stop-opacity:0"
         offset="1" />
    </linearGradient>
    <filter
       id="filter3174"
       color-interpolation-filters="sRGB">
      <feGaussianBlur
         id="feGaussianBlur3176"
         stdDeviation="1.71" />
    </filter>
    <linearGradient
       id="ButtonShadow-4"
       x1="45.448"
       gradientUnits="userSpaceOnUse"
       y1="92.54"
       gradientTransform="scale(1.0059 .99417)"
       x2="45.448"
       y2="7.0165">
      <stop
         id="stop3750-7"
         offset="0" />
      <stop
         id="stop3752-9"
         style="stop-opacity:.58824"
         offset="1" />
    </linearGradient>
    <filter
       id="filter3174-7"
       color-interpolation-filters="sRGB">
      <feGaussianBlur
         id="feGaussianBlur3176-1"
         stdDeviation="1.71" />
    </filter>
    <filter
       id="filter3174-0"
       color-interpolation-filters="sRGB">
      <feGaussianBlur
         id="feGaussianBlur3176-4"
         stdDeviation="1.71" />
    </filter>
    <filter
       id="filter3174-9"
       color-interpolation-filters="sRGB">
      <feGaussianBlur
         id="feGaussianBlur3176-16"
         stdDeviation="1.71" />
    </filter>
    <clipPath
       id="clipPath3613-6">
      <rect
         id="rect3615-0"
         style="fill:#fff"
         rx="6"
         ry="6"
         height="84"
         width="84"
         y="6"
         x="6" />
    </clipPath>
    <linearGradient
       id="linearGradient3613-76"
       x1="48"
       gradientUnits="userSpaceOnUse"
       y1="20.221"
       x2="48"
       y2="138.66">
      <stop
         id="stop3739-24"
         style="stop-color:#fff"
         offset="0" />
      <stop
         id="stop3741-2"
         style="stop-color:#fff;stop-opacity:0"
         offset="1" />
    </linearGradient>
    <filter
       id="filter3794-83"
       height="1.384"
       width="1.384"
       color-interpolation-filters="sRGB"
       y="-.192"
       x="-.192">
      <feGaussianBlur
         id="feGaussianBlur3796-4"
         stdDeviation="5.28" />
    </filter>
    <filter
       id="filter3174-4"
       color-interpolation-filters="sRGB">
      <feGaussianBlur
         id="feGaussianBlur3176-8"
         stdDeviation="1.71" />
    </filter>
    <filter
       id="filter3174-8"
       color-interpolation-filters="sRGB">
      <feGaussianBlur
         id="feGaussianBlur3176-7"
         stdDeviation="1.71" />
    </filter>
    <radialGradient
       id="radialGradient5000"
       gradientUnits="userSpaceOnUse"
       cy="41.752"
       cx="48"
       gradientTransform="matrix(1.7146 6.6255e-8 -4.2857e-8 1.1091 -378.27 -85.681)"
       r="42">
      <stop
         id="stop3739-6"
         style="stop-color:#fff"
         offset="0" />
      <stop
         id="stop3741-7"
         style="stop-color:#fff;stop-opacity:0"
         offset="1" />
    </radialGradient>
    <linearGradient
       id="linearGradient5033"
       y2="7.0165"
       gradientUnits="userSpaceOnUse"
       x2="45.448"
       gradientTransform="matrix(1.0059 0 0 .99417 -243.97 -80.599)"
       y1="92.54"
       x1="45.448">
      <stop
         id="stop3750-87"
         offset="0" />
      <stop
         id="stop3752-4"
         style="stop-opacity:.58824"
         offset="1" />
    </linearGradient>
    <clipPath
       id="clipPath3613-72">
      <rect
         id="rect3615-36"
         style="fill:#fff"
         rx="6"
         ry="6"
         height="84"
         width="84"
         y="6"
         x="6" />
    </clipPath>
    <filter
       id="filter3794-4"
       height="1.384"
       width="1.384"
       color-interpolation-filters="sRGB"
       y="-.192"
       x="-.192">
      <feGaussianBlur
         id="feGaussianBlur3796-0"
         stdDeviation="5.28" />
    </filter>
    <filter
       id="filter3174-6"
       color-interpolation-filters="sRGB">
      <feGaussianBlur
         id="feGaussianBlur3176-6"
         stdDeviation="1.71" />
    </filter>
    <linearGradient
       id="linearGradient3737-59">
      <stop
         id="stop3739-9"
         style="stop-color:#fff"
         offset="0" />
      <stop
         id="stop3741-0"
         style="stop-color:#fff;stop-opacity:0"
         offset="1" />
    </linearGradient>
    <radialGradient
       id="radialGradient68905"
       gradientUnits="userSpaceOnUse"
       cx="42.148"
       cy="45.647"
       r="58.984"
       gradientTransform="matrix(.94690 0 0 1.139 -73.792 205.85)">
      <stop
         id="stop44117-9"
         style="stop-color:#f0936d"
         offset="0" />
      <stop
         id="stop44119-3"
         style="stop-color:#db4a16"
         offset="1" />
    </radialGradient>
    <radialGradient
       id="radialGradient69020"
       xlink:href="#linearGradient3737-59"
       gradientUnits="userSpaceOnUse"
       cy="90.172"
       cx="48"
       gradientTransform="matrix(1.4079 0 0 1.2249 -137.11 13.47)"
       r="42" />
    <linearGradient
       id="linearGradient69023"
       y2="63.893"
       xlink:href="#linearGradient3737-59"
       gradientUnits="userSpaceOnUse"
       x2="36.357"
       gradientTransform="matrix(1.2166 0 0 1.2299 -127.92 13.228)"
       y1="6"
       x1="36.357" />
    <linearGradient
       id="linearGradient69058"
       y2="138.66"
       xlink:href="#linearGradient3737-59"
       gradientUnits="userSpaceOnUse"
       x2="48"
       y1="20.221"
       x1="48" />
    <radialGradient
       id="radialGradient69288"
       gradientUnits="userSpaceOnUse"
       cy="8.4498"
       cx="7.4957"
       gradientTransform="matrix(1.1005e-7 6.6285 -14.004 -1.2212e-7 237.4 -38.96)"
       r="20">
      <stop
         id="stop5430-8"
         style="stop-color:#5f5f5f"
         offset="0" />
      <stop
         id="stop5432-3"
         style="stop-color:#4f4f4f"
         offset=".26238" />
      <stop
         id="stop5434-1"
         style="stop-color:#3b3b3b"
         offset=".70495" />
      <stop
         id="stop5436-8"
         style="stop-color:#2b2b2b"
         offset="1" />
    </radialGradient>
    <linearGradient
       id="linearGradient69290"
       y2="3.899"
       gradientUnits="userSpaceOnUse"
       x2="24"
       gradientTransform="matrix(5.6643 0 0 2.8363 -16.869 -3.6903)"
       y1="44"
       x1="24">
      <stop
         id="stop5440-4"
         style="stop-color:#272727"
         offset="0" />
      <stop
         id="stop5442-3"
         style="stop-color:#454545"
         offset="1" />
    </linearGradient>
    <linearGradient
       id="linearGradient68954-9"
       y2="56"
       gradientUnits="userSpaceOnUse"
       x2="45.622"
       gradientTransform="matrix(2.1023 0 0 2.1023 -47.909 -53.727)"
       y1="40.778"
       x1="45.622">
      <stop
         id="stop4030-0"
         style="stop-opacity:.80916"
         offset="0" />
      <stop
         id="stop4032-4"
         style="stop-opacity:.43511"
         offset="1" />
    </linearGradient>
    <clipPath
       id="clipPath4124-2">
      <path
         id="path4126-4"
         d="m12 6c-3.324 0-6 2.676-6 6v72c0 3.324 2.676 6 6 6h64c3.324 0 6-2.676 6-6v-72c0-3.324-2.676-6-6-6h-64zm41 26c4.7437 0 8.5312 3.5725 8.5312 8-0.01825 0.53641-0.02106 1.1915-0.0625 1.8125 0.70276 0.44193 0.71665 1.9275 0.0625 3.4688-0.23269 0.54826-0.49662 0.96113-0.8125 1.3438-0.09925 0.46292-0.12281 0.83737-0.25 1.375-0.35389 1.0617-1.7896 3.1857-2.8438 4.8125-0.06772 1.0795-0.03947 2.1853 0.09375 3.2812 3.2925 2.8631 11.893 4.3621 11.906 6.8125l0.187 1.094h-33.624l0.187-1.094c-0.01278-2.8631 8.5728-4.0469 11.906-6.8125 0.23112-1.3475 0.11344-2.5343 0-3.7188-1.1569-1.5423-2.4323-3.4218-2.75-4.375-0.11386-0.52116-0.06413-0.73154-0.15625-1.1875-0.37917-0.4081-0.72694-0.88788-1-1.5312-0.68857-1.6224-0.65495-3.2182 0.15625-3.5625-0.045-0.574-0.052-1.247-0.062-1.718 0-4.4275 3.7876-8 8.5312-8z"
         style="fill:#f0f" />
    </clipPath>
    <filter
       id="filter4128-3"
       height="1.4923"
       width="1.4683"
       color-interpolation-filters="sRGB"
       y="-.24614"
       x="-.23416">
      <feGaussianBlur
         id="feGaussianBlur4130-1"
         stdDeviation="3.2818182" />
    </filter>
    <linearGradient
       id="linearGradient69371"
       y2="24"
       gradientUnits="userSpaceOnUse"
       x2="18"
       gradientTransform="matrix(0,1,1,0,-10,10)"
       y1="24"
       x1="10">
      <stop
         id="stop3780"
         offset="0" />
      <stop
         id="stop3786"
         style="stop-opacity:0"
         offset=".5" />
      <stop
         id="stop3782-8"
         style="stop-color:#fff"
         offset="1" />
    </linearGradient>
    <linearGradient
       id="linearGradient69373"
       y2="26"
       gradientUnits="userSpaceOnUse"
       x2="9"
       y1="22"
       x1="9">
      <stop
         id="stop3747"
         style="stop-color:#8a8a8a"
         offset="0" />
      <stop
         id="stop3753"
         style="stop-color:#d5d5d5"
         offset=".40964" />
      <stop
         id="stop3755"
         style="stop-color:#6f6f6f"
         offset=".72741" />
      <stop
         id="stop3749"
         style="stop-color:#373737"
         offset="1" />
    </linearGradient>
    <linearGradient
       id="linearGradient69375"
       y2="24"
       spreadMethod="reflect"
       gradientUnits="userSpaceOnUse"
       x2="12"
       y1="24"
       x1="4">
      <stop
         id="stop3763"
         offset="0" />
      <stop
         id="stop3769"
         style="stop-opacity:.19380"
         offset=".5" />
      <stop
         id="stop3765"
         style="stop-opacity:0"
         offset="1" />
    </linearGradient>
  </defs>
  <rect
     id="rect892"
     style="stroke:url(#linearGradient3521);stroke-width:.97385;fill:url(#linearGradient3519)"
     transform="scale(1,-1)"
     ry="29.296"
     height="115.54"
     width="114.22"
     y="-122.25"
     x="7.0394" />
  <rect
     id="rect892-2"
     style="stroke:url(#linearGradient3516);stroke-width:.97385;fill:url(#linearGradient3514)"
     transform="scale(1,-1)"
     ry="28.993"
     height="114.35"
     width="114.22"
     y="-121.46"
     x="7.0599" />
  <rect
     id="rect810"
     style="fill:#c1b09a"
     ry="26.957"
     height="111.04"
     width="111.44"
     y="8.1211"
     x="8.145" />
  <path
     id="rect6588"
     d="m7.2651 40.702c-3.6107-28.823 22.731-33.361 32.668-33.437l55.816 0.735c21.091 2.903 26.611 16.187 24.251 34.728l-112 30.388z"
     style="fill:url(#linearGradient11406)" />
  <rect
     id="rect892-2-7-8"
     style="opacity:.15891;stroke:#000;stroke-width:4.8445;fill:none"
     transform="scale(1,-1)"
     ry="28.993"
     height="114.35"
     width="114.22"
     y="-121.16"
     x="6.8687" />
  <path
     id="rect5505-21-3"
     d="m36.942 9.0732v110.62c-8.726-0.85-31.23-10.12-28.987-28.427l0.0369-57.542c0.5095-14.175 13.797-24.129 28.95-24.648z"
     style="stroke-linejoin:round;stroke-width:3.9092;color:#000000;stroke:url(#linearGradient69290);stroke-linecap:round;fill:url(#radialGradient69288)" />
  <rect
     id="rect892-2-7-1"
     style="opacity:.15891;stroke:#000;stroke-width:7.7512;fill:none"
     transform="scale(1,-1)"
     ry="28.993"
     height="114.35"
     width="114.22"
     y="-121.16"
     x="6.8687" />
  <rect
     id="rect892-2-7-2-9"
     ry="28.067"
     style="stroke:#000;stroke-width:1.0489;fill:none"
     transform="scale(1,-1)"
     height="112.71"
     width="114.14"
     y="-120.31"
     x="7.0649" />
  <path
     id="path1187"
     style="fill:#fff;fill-opacity:.057143"
     d="m33.017 7.2319c-23.707 0-26.027 0.6738-25.93 26.295-0.04334 0.71563-0.07674 1.4439-0.07674 2.1732v32.76c18.67-38.321 38.34-51.497 90.374-61.179-0.225-0.026-0.46-0.0303-0.691-0.0303-41.576 0.3874-25.652-0.0188-63.676-0.0188z" />
  <g
     id="layer2"
     style="display:none"
     transform="matrix(1.2166 0 0 1.2299 5.6049 3.1187)">
    <rect
       id="rect3745"
       style="opacity:.9;filter:url(#filter3174);fill:url(#ButtonShadow-4)"
       rx="6"
       ry="6"
       height="85"
       width="86"
       y="7"
       x="5" />
  </g>
  <g
     id="layer2-6"
     style="display:none"
     transform="matrix(1.2166 0 0 1.2299 5.6049 3.1187)">
    <rect
       id="rect3745-8"
       style="opacity:.9;filter:url(#filter3174-7);fill:url(#ButtonShadow-4)"
       rx="6"
       ry="6"
       height="85"
       width="86"
       y="7"
       x="5" />
  </g>
  <g
     id="layer2-69"
     style="display:none"
     transform="matrix(1.2166 0 0 1.2299 5.6049 3.1187)">
    <rect
       id="rect3745-4"
       style="opacity:.9;filter:url(#filter3174-0);fill:url(#ButtonShadow-4)"
       rx="6"
       ry="6"
       height="85"
       width="86"
       y="7"
       x="5" />
  </g>
  <g
     id="layer2-64"
     style="display:none"
     transform="translate(-349.33 -29.687)">
    <rect
       id="rect3745-6"
       style="opacity:.9;filter:url(#filter3174-9);fill:url(#ButtonShadow-4)"
       rx="6"
       ry="6"
       height="85"
       width="86"
       y="7"
       x="5" />
  </g>
  <g
     id="layer2-0"
     style="display:none"
     transform="matrix(1.2166 0 0 1.2299 5.6049 3.1187)">
    <rect
       id="rect3745-7"
       style="opacity:.9;filter:url(#filter3174-4);fill:url(#ButtonShadow-4)"
       rx="6"
       ry="6"
       height="85"
       width="86"
       y="7"
       x="5" />
  </g>
  <g
     id="layer5-3"
     style="display:none"
     transform="matrix(1.2166 0 0 1.2299 5.6049 3.1187)">
    <rect
       id="rect3171-2"
       style="opacity:.1;filter:url(#filter3794-83);stroke:#fff;stroke-linecap:round;stroke-width:.5;fill:url(#linearGradient3613-76)"
       clip-path="url(#clipPath3613-6)"
       rx="12"
       ry="12"
       height="66"
       width="66"
       y="15"
       x="15" />
  </g>
  <rect
     id="rect3745-75"
     style="opacity:.9;filter:url(#filter3174-8);display:none;fill:url(#linearGradient5033)"
     rx="6"
     ry="6"
     height="85"
     width="86"
     y="-73.599"
     x="-238.97" />
  <path
     id="path3522"
     d="m-307.69-74.517c1.6501 2.2167 0.11258 5.9183 2.6015 5.8816 1.2119 1.714-2.4154 0.5113 0.20359 1.8323 1.5061 1.1866-1.5934 1.8645 0.27179 2.9294-2.1497 1.1097 0.34845 5.804 1.9451 6.9788 2.628 2.2132 1.1622-4.6857 4.0945-5.0446 1.5934-1.8197 4.3918-2.9878 6.3793-4.8184-1.9423-0.15774-3.0765-1.3671-1.237-2.1163 3.3855 3.4704 0.84891-1.6435-1.0251-2.4532 1.8134-0.57705 3.577-0.15448 3.3254-1.6514 1.9163-1.4025-1.8423-1.8553-3.1839-1.5383h-13.375zm-27.802 1.4478c-2.4498 0.6982-2.6206 6.5549-0.15835 3.3027 0.60434-1.3354 3.3971-2.9447 0.15835-3.3027zm11.446 0.20359c-1.4123 2.2153 0.20491 3.9915 1.3799 1.2894 0.83171-1.1283-0.61793-1.2481-1.3799-1.2894zm3.529 0.49767c-2.7288 1.2652-0.6726 4.2156-0.60506 4.8717 2.8746 0.99483 4.4732-0.65044 5.5607 2.1615 2.7352 1.5769-0.0538 4.3171-1.0806 5.0307 1.8493-1.6112 5.4042 4.3805 4.4722 1.2149-1.1118-0.81208 2.9852 1.3046 0.85962-1.3347-1.9561-3.1527 0.15527-1.4114 0.97995-0.67561 2.8049-2.5161-3.1736-2.8202-1.6812-5.4096-1.3078-1.0596-3.0229-4.2695-5.3387-3.6421-1.5502 2.0056-0.21416-4.37-2.4886-1.1796-0.11789 1.7834-0.0429 4.0465-0.70571 0.95682-0.44407-0.54087 0.764-1.7983 0.0273-1.9942zm-5.5649 0.02262c-1.8316 0.61085-1.7332 3.0865 0.51896 3.3519 0.77143-0.87963 0.30649-3.1853-0.51896-3.3519zm-7.1484 0.79175c-2.3791 0.56388-1.408 2.4829-0.67958 3.0233-2.9449 0.73792 4.4957 0.94313 0.79269 1.4105-3.0808 1.2308 2.9667 2.6809 3.9588 1.2216 3.8044 0.93074 0.13691-3.0465-0.19704-5.2025-1.6128-1.7315-0.0637 3.9915-1.5219 0.18441-0.50878 1.1305-2.1265 0.1666-2.353-0.63725zm75.601 0.24884c-3.1924 1.2499 1.9842 5.9664 0.69764 1.6755-0.12817-0.51812 0.2882-1.8871-0.69764-1.6755zm-66.666 1.9002c-2.2941 2.1567 2.916 3.9402-0.6589 5.5469-0.53601-2.0029-1.4583 1.0021-3.5035-0.61542-3.5159 1.4645-5.3139-0.76283-8.2575-2.2896-1.768-0.22016-1.1038 1.6805-1.2209 3.4602v14.755c1.7335 1.8245 0.67633 0.80498 0 0.30175 0.95147 3.2416-0.41957 7.9802 3.3308 9.8658 0.63757 1.183 3.3129 6.2231 3.4362 4.715-1.3412-1.4051-2.7174-5.6174-0.44789-1.863 2.0328 3.5688 4.7748 5.8835 8.7805 6.7328 2.1901 0.74522 3.9912 3.307 5.9171 2.7433 1.089 2.872-3.2274 5.6299 0.14491 8.3086 1.7605 2.7118 4.7162 4.4904 3.116 8.2976-1.1191 3.7183-0.63992 7.7697-1.6078 11.234-0.3004 2.1087 2.938 7.461 2.6575 3.1751 0.94557-2.9784 0.92064-6.2556 3.1476-8.3648 3.0471 0.02413 0.58237-3.2778 3.607-2.8464 1.8456-2.4201 2.3802-5.3071 5.4949-6.2681 0.37204-2.9376 5.1788-7.4366 0.21313-8.5803-1.3496-0.66545-4.8245-0.90473-4.559-1.2331 0.53804-2.9149-4.4935-3.7447-6.6342-4.9373-2.8108-1.9958-7.0342 3.3156-8.0245-1.261-0.59087-1.4399-2.7513-1.4633-1.7584-3.6852-1.7894 1.7803-5.2893 1.2392-4.373-2.1989 1.3916-2.8956 6.7356-3.0326 7.6463 0.45028-1.2644-3.8412 2.4439-6.8314 4.5025-9.5642 0.41916-1.3062 2.9097-2.4284 2.0527-0.69242 1.4602-0.05269 3.6733-2.6886 1.0794-1.472-0.0367-2.4039-2.273-1.7203-2.998-1.3789 1.3438-2.1336 8.245-0.96713 5.3551-4.4546-2.2393-0.90768-2.053-6.2044-4.318-3.2536 0.19059-1.8181-4.61-5.3771-4.5053-2.3283 0.58599 2.7281 0.10714 5.8709-1.1399 7.6591-0.26025-3.9976-7.0757-3.1141-6.1994-7.374 1.2694-2.0303 2.7528-4.8379 2.8942-4.5853 2.275-0.86894 4.1046-3.3965 1.4678-5.0581-0.14091 1.4482-1.983 4.4361-1.7237 0.82232-1.7058 2.0232-1.3162-3.2194-2.9138-3.7631zm54.45 1.4025c-3.9959 0.97784-5.5801 4.7958-7.5568 7.9582-2.9139 1.3142-2.8029 6.9583 0.45241 5.1557 0.87128 1.5223-0.60951 3.9217 1.9283 1.9312 2.047-2.7099 0.35794-7.0928 3.8414-8.8015 0.25373 1.3286-3.2133 6.2899 0.837 5.4744 3.6616 0.13821-2.6619 0.36497-0.88101 2.7047-1.8503-1.0982-0.88882 2.9993-3.304 2.0458-2.0923 1.1385-3.4643-0.52863-2.985-2.355-1.646 0.96057 0.51769 3.6704-2.3396 3.8333-0.64004 2.2737-5.9034 1.931-2.9102 4.2462 1.3289 3.4454-4.9515 0.21599-3.1685 4.3505 1.5254 4.0884 4.7224-1.3547 6.0194-2.4063 2.5025-1.9419 6.2107 3.3111 3.9588 3.5063 2.5251-0.33891 2.0062-2.7412-0.017-3.6713-1.0927-2.8349 3.459 1.3903 3.2066 2.8117 1.6059 3.0083 0.94461-3.0801 2.5788-0.38456-0.1908 2.8434 6.5742 0.66856 3.3444 4.2924-2.7769 0.55951-5.5101-0.71614-7.9008 0.10093-2.2251-0.01969-2.1135-2.398-2.9236-2.9935-2.8304 0.23004-6.3279 0.20403-8.2228 2.4914-2.049 2.8123-5.0038 6.7438-2.7705 10.335 2.2349 5.3215 7.7772 0.27603 10.963 3.4188 0.94693 1.3104-0.8206 2.868 1.2967 4.2874 0.7967 3.0235-0.90449 5.8943 1.0523 8.7846 1.0118 2.7182 1.6398 6.7866 5.4058 4.3028 3.9858-2.3994 2.9242-6.8227 6.2129-9.2726-2.6023-5.0381 3.1836-7.2471 4.6272-11.337-3.1539 0.46191-5.9638-2.6838-6.7258-5.8499-1.3249-1.5379-0.98367-3.8055 0.49633-0.91647 2.0343 1.9719 2.0782 7.8231 5.8413 4.813 1.7204-0.71984 6.4186-3.4657 2.6751-4.7153-2.413 1.7484-5.0752-5.2243-1.5318-1.18 2.576 1.0933 4.38 1.7447 4.38-1.8801v-29.497c-0.8024 0.82028-2.8638 2.3352-3.9043 1.3286-1.7904 0.24941-4.1539 3.7343-3.5912 0.36554-1.5562-0.10309-0.27859 3.0205-2.4166 3.1079-0.21529 1.6059-2.1599 0.29738-1.4294 1.8224-1.5006-1.0649-2.7707-4.427 0.18614-2.3167 4.391-1.3178-2.8956-4.2904-3.458-5.0089 0.94545-0.22662-1.0286-1.2122-1.2668-0.88224zm-36.24 0.88224c-1.4615 1.2182 2.7785 1.4476 0 0zm-19.522 0.65602c-1.6346 1.7105 2.6033 1.5724 0 0zm9.4784 1.6966c-1.2379 2.0286 1.829 0.74894 0 0zm27.101 2.3979c-1.4492 1.6691-3.362-0.43926-3.3932 0.99535 0.26265 0.43347 1.3147 3.5273 3.6194 1.2442 1.237-0.52171 0.74997-1.8369-0.22621-2.2395zm-30.856 0.99535c-2.7488 2.4015 4.6683 2.6227 0.58232 0.27543l-0.58232-0.27543zm36.262 6.6507c-1.9791 1.291 0.94944 4.0328-0.0431 5.3207-1.2401 2.1615 4.6083-0.15226 1.4846-1.8768-0.22257-1.4816-1.83-3.2894-1.4415-3.444zm-1.3347 2.6015c-2.7574 0.77986-0.62597 4.8062 0.35065 1.014 0.055-0.21986 0.12936-1.0214-0.35065-1.014zm-22.079 2.9182c-2.5652 1.7498-0.39843 3.4964 1.4816 2.7091-0.38595-1.0558-1.4642-1.721-1.4816-2.7091zm48.455 2.9408c1.28 0.6462-2.3455 1.7501-0.0498 2.8874 1.336 1.5717 0.83231 4.9455-1.3392 2.5576 0.40344-2.666-2.9436-4.657 1.389-5.445zm-6.5829 0.02262c-0.17366 1.7128 3.694 4.3751-0.47504 3.5063-2.2048 0.25872-5.507-0.06739-2.7294-2.8157 0.87765-0.52708 3.1821 1.8185 1.9829-0.37395 0.42514-0.02713 0.82107-0.18767 1.2216-0.3167zm-12.736 3.7099c-1.6081 1.0364 1.112 1.8311 0 0zm-40.379 9.6594c-0.2711 0.9048 5.086 1.8218 1.3893 0.37215l-0.55107-0.19405-0.83824-0.1781zm4.1624 1.2894c-1.6249 1.6502 3.3478 0.49302 0 0zm54.337 15.134c-3.5307 0.09113-3.0613 9.2016-0.60013 3.8108 0.2334-1.1698 1.1689-2.7138 0.60013-3.8108z"
     style="opacity:.2;fill:url(#radialGradient5000)" />
  <g
     id="layer2-01"
     style="display:none"
     transform="translate(-314.29 59.754)">
    <rect
       id="rect3745-1"
       style="opacity:.9;filter:url(#filter3174-6);fill:url(#ButtonShadow-4)"
       rx="6"
       ry="6"
       height="85"
       width="86"
       y="7"
       x="5" />
  </g>
  <path
     id="rect3728"
     d="m-113.32 20.607c-4.6841-0.16647-7.9912 4.6034-7.2994 9.0477 0.0221 29.163-0.0442 58.328 0.0331 87.49-1.0446 2.8268 5.4663 7.1448 3.9968 5.8152-3.8994-2.4461-2.5816-7.4071-2.8133-11.263 0.0208-27.704-0.0415-55.41 0.0311-83.113 0.25414-4.0085 4.3958-6.0784 7.9767-5.5167 25.52 0.02106 51.042-0.04206 76.561 0.03147 3.965 0.25693 6.0124 4.444 5.4568 8.0643-0.02847 29.09 0.05706 58.184-0.04282 87.272 0.50237 2.9902-6.2688 6.7991-1.3233 3.6789 3.7273-3.0954 2.2982-8.2542 2.5826-12.481-0.02506-27.467 0.05-54.937-0.03759-82.403-0.3053-4.5928-4.9895-7.2561-9.1869-6.6229h-75.935z"
     style="opacity:.25;fill:url(#linearGradient69023)" />
  <path
     id="path3615"
     d="m-113.32 123.92c-4.6841 0.16648-7.9912-4.6034-7.2994-9.0477 0.0221-29.163-0.0442-58.328 0.0331-87.49-1.0446-2.8268 5.4663-7.1448 3.9968-5.8152-3.8994 2.4461-2.5816 7.4071-2.8133 11.263 0.0208 27.704-0.0415 55.41 0.0311 83.113 0.25414 4.0085 4.3958 6.0784 7.9767 5.5167 25.52-0.021 51.042 0.0421 76.561-0.0315 3.965-0.25692 6.0124-4.444 5.4568-8.0643-0.02847-29.09 0.05706-58.184-0.04282-87.272 0.50237-2.9902-6.2688-6.7991-1.3233-3.6789 3.7273 3.0954 2.2982 8.2542 2.5826 12.481-0.02506 27.467 0.05 54.937-0.03759 82.403-0.3053 4.5928-4.9895 7.2561-9.1869 6.6229h-75.935z"
     style="opacity:.15;fill:url(#radialGradient69020)" />
  <g
     id="layer4"
     transform="matrix(1.2166 0 0 1.2299 -1.1345 3.5399)">
    <g
       id="g3799">
      <path
         id="path3773"
         style="opacity:.3;fill:url(#linearGradient69371)"
         d="m10 24c0-2.2091 1.7909-4 4-4s4 1.7909 4 4-1.7909 4-4 4-4-1.7909-4-4zm1 0c0 1.6569 1.3431 3 3 3s3-1.3431 3-3-1.3431-3-3-3-3 1.3431-3 3z" />
      <path
         id="path3792"
         style="opacity:.3"
         d="m6 21v7h8c1.6464 0 3-1.5792 3-3.5 0-1.921-1.354-3.5-3-3.5h-8z" />
      <path
         id="path3771"
         style="opacity:.6"
         d="m17 24a3 3 0 1 1 -6 0 3 3 0 1 1 6 0z" />
      <rect
         id="rect3733"
         style="fill:url(#linearGradient69373)"
         rx="2"
         ry="2"
         height="4"
         width="12"
         y="22"
         x="4" />
      <rect
         id="rect3759"
         style="opacity:.6;fill:url(#linearGradient69375)"
         rx="2"
         ry="2"
         height="4"
         width="12"
         y="22"
         x="4" />
    </g>
    <use
       id="use3806"
       xlink:href="#g3799"
       transform="translate(0,12)"
       height="96"
       width="96"
       y="0"
       x="0" />
    <use
       id="use3808"
       xlink:href="#g3799"
       transform="translate(0,24)"
       height="96"
       width="96"
       y="0"
       x="0" />
    <use
       id="use3810"
       xlink:href="#g3799"
       transform="translate(0,36)"
       height="96"
       width="96"
       y="0"
       x="0" />
    <use
       id="use3812"
       xlink:href="#g3799"
       transform="translate(0,48)"
       height="96"
       width="96"
       y="0"
       x="0" />
  </g>
  <path
     id="rect895-7"
     style="fill:url(#radialGradient68905)"
     d="m-44.336 243c-7.9694-2.4493-27.013 15.175-25.653 23.038-0.05014 0.97378-0.08877 1.9648-0.08877 2.9572v52.419c0 20.876 10.712 33.859 22.318 33.859h67.038c12.638 0 24.318-11.245 24.318-25.859v-64.017c0.69568-10.93-21.287-24.662-25.93-22.621-47.846 0.86545-18.017 0.2237-62.003 0.22371z" />
  <g
     id="layer3"
     transform="matrix(1.8248 0 0 1.8449 -19.426 -24.158)">
    <path
       id="path3159"
       style="opacity:.6;fill:url(#linearGradient68954-9)"
       d="m53 32c-4.7437 0-8.5455 3.5725-8.5455 8 0.01072 0.47147 0.04591 1.1529 0.0909 1.7273-0.8112 0.34429-0.8704 1.9231-0.18183 3.5455 0.27306 0.64336 0.62083 1.1374 1 1.5455 0.09212 0.45596 0.06797 0.66066 0.18183 1.1818 0.31773 0.9532 1.5704 2.8213 2.7273 4.3636 0.11344 1.1845 0.23112 2.3798 0 3.7273-3.3334 2.7656-11.922 3.9551-11.909 6.8182l-0.182 1.091h33.636l-0.182-1.091c-0.01367-2.4504-8.6165-3.9551-11.909-6.8182-0.13322-1.096-0.15862-2.1932-0.0909-3.2727 1.0542-1.6268 2.4643-3.7565 2.8182-4.8182 0.12719-0.53763 0.17348-0.90072 0.27273-1.3636 0.31588-0.38262 0.58549-0.81538 0.81818-1.3636 0.65415-1.5413 0.61186-3.0126-0.0909-3.4545 0.04144-0.621 0.07265-1.2818 0.0909-1.8182 0-4.426-3.801-7.999-8.545-7.999z" />
    <path
       id="path4036"
       style="opacity:.1"
       d="m53 32c-4.7437 0-8.5312 3.5725-8.5312 8 0.01072 0.47147 0.01751 1.1444 0.0625 1.7188-0.8112 0.34429-0.84482 1.9401-0.15625 3.5625 0.27306 0.64336 0.62083 1.1232 1 1.5312 0.09212 0.45596 0.04239 0.66634 0.15625 1.1875 0.31773 0.9532 1.5931 2.8327 2.75 4.375 0.11344 1.1845 0.23112 2.3713 0 3.7188-3.3334 2.7656-11.919 3.9494-11.906 6.8125l-0.187 1.094h33.624l-0.187-1.094c-0.014-2.45-8.614-3.949-11.906-6.812-0.133-1.096-0.162-2.202-0.094-3.282 1.054-1.626 2.49-3.75 2.844-4.812 0.12719-0.53763 0.15075-0.91208 0.25-1.375 0.31588-0.38262 0.57981-0.79549 0.8125-1.3438 0.65415-1.5413 0.64026-3.0268-0.0625-3.4688 0.04144-0.621 0.04425-1.2761 0.0625-1.8125 0-4.4275-3.7875-8-8.5312-8zm0 1.0312c4.2209 0 7.482 3.1052 7.5 6.9375 0.00005 0.01059 0 0.02065 0 0.03125-0.01822 0.55392-0.0247 1.1835-0.0625 1.75a1.0182 1.0182 0 0 0 0.46875 0.9375c0.0046 0.0236 0.08877 0.14539 0.09375 0.46875 0.0066 0.43114-0.12614 1.0588-0.40625 1.7188-0.19634 0.46261-0.39203 0.77369-0.65625 1.0938a1.0182 1.0182 0 0 0 -0.21875 0.4375c-0.11591 0.54065-0.14071 0.88177-0.25 1.3438-0.12623 0.34998-0.52569 1.0868-1.0312 1.9062-0.52185 0.84586-1.1244 1.7731-1.6562 2.5938a1.0182 1.0182 0 0 0 -0.1875 0.5c-0.07154 1.1405-0.01604 2.3084 0.125 3.4688a1.0182 1.0182 0 0 0 0.343 0.656c1.9111 1.6618 4.9296 2.6896 7.4688 3.7188 1.2696 0.51458 2.4039 1.005 3.1562 1.4688 0.37617 0.23187 0.64316 0.4652 0.78125 0.625s0.12495 0.2099 0.125 0.21875a1.0182 1.0182 0 0 0 0.03125 0.0625h-31.25a1.0182 1.0182 0 0 0 0.03125 -0.0625c-0.000922-0.20665 0.1739-0.55441 0.90625-1.0312 0.73235-0.47684 1.863-0.97631 3.125-1.4688 2.5239-0.98488 5.5577-1.9198 7.5-3.5312a1.0182 1.0182 0 0 0 0.34375 -0.59375c0.25768-1.5024 0.11322-2.8178 0-4a1.0182 1.0182 0 0 0 -0.186 -0.531c-0.56708-0.75602-1.1722-1.5916-1.6562-2.3438-0.46002-0.71477-0.79169-1.3201-0.90625-1.625-0.0047-0.0215 0.0039-0.04217 0-0.0625-0.071-0.363-0.045-0.54-0.157-1.094a1.0182 1.0182 0 0 0 -0.25 -0.5c-0.31962-0.34401-0.58978-0.72524-0.8125-1.25-0.29506-0.69521-0.42251-1.3708-0.40625-1.8125 0.01219-0.33126 0.07306-0.43335 0.0625-0.4375a1.0182 1.0182 0 0 0 0.5625 -1c-0.041-0.511-0.021-1.144-0.032-1.625 0-0.0106-0.00005-0.02066 0-0.03125 0.01801-3.8323 3.2791-6.9375 7.5-6.9375z" />
    <path
       id="path4049"
       style="opacity:.2"
       d="m53 32c-4.7437 0-8.5312 3.5725-8.5312 8 0.0031 0.13728 0.02434 0.33493 0.03125 0.5 0.27737-4.1898 3.9389-7.5 8.5-7.5 4.5725 0 8.239 3.3265 8.5 7.5312 0.0075-0.17462 0.0259-0.3739 0.03125-0.53125 0-4.4275-3.7875-8-8.5312-8zm-8.5 9.75c-0.50422 0.2487-0.67779 1.0028-0.5625 1.9375 0.08082-0.47091 0.26263-0.82822 0.59375-0.96875-0.025-0.324-0.014-0.634-0.031-0.969zm17 0.09375c-0.01589 0.32955-0.0091 0.63686-0.03125 0.96875 0.28226 0.1775 0.43316 0.52128 0.5 0.96875 0.12-0.892-0.032-1.63-0.469-1.938zm-3.906 12.781c-0.01517 0.81529 0.0251 1.6469 0.125 2.4688 3.2925 2.8631 11.893 4.3621 11.906 6.8125l0.031 0.094h0.156l-0.187-1.094c-0.014-2.45-8.614-3.949-11.906-6.812-0.059-0.487-0.107-0.984-0.125-1.469zm-9.219 0.219c-0.01445 0.40058-0.02058 0.82339-0.09375 1.25-3.3334 2.7656-11.919 3.9494-11.906 6.8125l-0.187 1.094h0.156l0.031-0.094c-0.01278-2.8631 8.5728-4.0469 11.906-6.8125 0.13587-0.79219 0.12725-1.5343 0.09375-2.25z" />
    <path
       id="path4058"
       style="opacity:.15;fill:#fff"
       d="m44.5 40.5c-0.01111 0.16776-0.03125 0.32956-0.03125 0.5 0.0047 0.20577 0.01847 0.49059 0.03125 0.75 0.01373-0.0068 0.01705-0.02522 0.03125-0.03125-0.032-0.407-0.014-0.817-0.031-1.219zm17 0.03125c-0.0181 0.42063-0.002 0.84242-0.03125 1.2812 0.01255 0.0079 0.01912 0.02271 0.03125 0.03125 0.01384-0.28708 0.02275-0.59402 0.03125-0.84375 0-0.15982-0.02148-0.31129-0.03125-0.46875zm-17.562 3.157c-0.11717 0.68276 0.02999 1.6336 0.4375 2.5938 0.27306 0.64336 0.62083 1.1232 1 1.5312 0.09212 0.45596 0.04239 0.66634 0.15625 1.1875 0.31773 0.9532 1.5931 2.8327 2.75 4.375 0.04675 0.48812 0.07027 0.96706 0.09375 1.4688 0.0312-0.86472-0.01623-1.6593-0.09375-2.4688-1.1569-1.5423-2.4323-3.4218-2.75-4.375-0.11386-0.52116-0.06413-0.73154-0.15625-1.1875-0.37917-0.4081-0.72694-0.88788-1-1.5312-0.23418-0.55176-0.37647-1.0989-0.4375-1.5938zm18.031 0.09375c-0.06334 0.46802-0.21634 0.97891-0.4375 1.5-0.23269 0.54826-0.49662 0.96113-0.8125 1.3438-0.09925 0.46292-0.12281 0.83737-0.25 1.375-0.35389 1.0617-1.7896 3.1857-2.8438 4.8125-0.03767 0.6005-0.05374 1.2043-0.03125 1.8125 0.0051-0.2719 0.01431-0.54253 0.03125-0.8125 1.0542-1.6268 2.4899-3.7508 2.8438-4.8125 0.12719-0.53763 0.15075-0.91208 0.25-1.375 0.31588-0.38262 0.57981-0.79549 0.8125-1.3438 0.39141-0.92222 0.53707-1.8334 0.4375-2.5zm-25.625 20.218l-0.15625 1h33.625l-0.15625-1h-33.312z" />
    <path
       id="path4067"
       style="opacity:.15;filter:url(#filter4128-3);stroke:#fff;stroke-width:3;fill:none"
       clip-path="url(#clipPath4124-2)"
       d="m53 32c-4.7437 0-8.5455 3.5725-8.5455 8 0.01072 0.47147 0.04591 1.1529 0.0909 1.7273-0.8112 0.34429-0.8704 1.9231-0.18183 3.5455 0.27306 0.64336 0.62083 1.1374 1 1.5455 0.09212 0.45596 0.06797 0.66066 0.18183 1.1818 0.31773 0.9532 1.5704 2.8213 2.7273 4.3636 0.11344 1.1845 0.23112 2.3798 0 3.7273-3.3334 2.7656-11.922 3.9551-11.909 6.8182l-0.182 1.091h33.636l-0.182-1.091c-0.01367-2.4504-8.6165-3.9551-11.909-6.8182-0.13322-1.096-0.15862-2.1932-0.0909-3.2727 1.0542-1.6268 2.4643-3.7565 2.8182-4.8182 0.12719-0.53763 0.17348-0.90072 0.27273-1.3636 0.31588-0.38262 0.58549-0.81538 0.81818-1.3636 0.65415-1.5413 0.61186-3.0126-0.0909-3.4545 0.04144-0.621 0.07265-1.2818 0.0909-1.8182 0-4.426-3.801-7.999-8.545-7.999z" />
  </g>
  <rect
     id="rect3650"
     style="opacity:.15;fill:#fff"
     height="112.16"
     width="1.2166"
     y="8.528"
     x="37.488" />
  <rect
     id="rect3648"
     style="opacity:.4"
     height="112.16"
     width="1.2166"
     y="8.528"
     x="36.271" />
</svg>
