<?xml version="1.0" encoding="UTF-8" standalone="no"?>
<!-- Created with Inkscape (http://www.inkscape.org/) -->
<svg id="svg3449" xmlns:rdf="http://www.w3.org/1999/02/22-rdf-syntax-ns#" xmlns="http://www.w3.org/2000/svg" height="128" width="128" version="1.0" xmlns:cc="http://creativecommons.org/ns#" xmlns:xlink="http://www.w3.org/1999/xlink" xmlns:dc="http://purl.org/dc/elements/1.1/">
 <metadata id="metadata56">
  <rdf:RDF>
   <cc:Work rdf:about="">
    <dc:format>image/svg+xml</dc:format>
    <dc:type rdf:resource="http://purl.org/dc/dcmitype/StillImage"/>
    <dc:title/>
   </cc:Work>
  </rdf:RDF>
 </metadata>
 <defs id="defs3451">
  <linearGradient id="linearGradient3514" y2="-9.1034" gradientUnits="userSpaceOnUse" x2="66.492" gradientTransform="matrix(.96826 0 0 .97948 2.179 .16587)" y1="-42.638" x1="67.952">
   <stop id="stop4620" style="stop-color:#37414b" offset="0"/>
   <stop id="stop4622" style="stop-color:#37414b;stop-opacity:0" offset="1"/>
  </linearGradient>
  <linearGradient id="linearGradient3516" y2="-11.847" gradientUnits="userSpaceOnUse" x2="58.98" gradientTransform="matrix(.96826 0 0 .97948 2.179 .16587)" y1="-118.55" x1="57.173">
   <stop id="stop4596" offset="0"/>
   <stop id="stop4598" style="stop-opacity:0" offset="1"/>
  </linearGradient>
  <linearGradient id="linearGradient3519" y2="50.369" gradientUnits="userSpaceOnUse" x2="76.558" gradientTransform="matrix(.96826 0 0 .97948 3.2423 -129.19)" y1="13.164" x1="76.558">
   <stop id="stop3392" style="stop-color:#425e7b" offset="0"/>
   <stop id="stop3394" style="stop-color:#7a91a7" offset="1"/>
  </linearGradient>
  <linearGradient id="linearGradient3521" y2="-8.7399" gradientUnits="userSpaceOnUse" x2="60.217" gradientTransform="matrix(.96826 0 0 .97948 2.179 .16587)" y1="-123.72" x1="60.395">
   <stop id="stop3392-4-8" style="stop-color:#425e7b" offset="0"/>
   <stop id="stop3394-8-0" style="stop-color:#7a91a7" offset="1"/>
  </linearGradient>
  <radialGradient id="radialGradient3349" gradientUnits="userSpaceOnUse" cy="45.647" cx="42.148" gradientTransform="matrix(.94690 0 0 1.139 3.5954 -29.89)" r="58.984">
   <stop id="stop2699-5" style="stop-color:#e0b586" offset="0"/>
   <stop id="stop2701-7" style="stop-color:#d7a167" offset="1"/>
  </radialGradient>
  <linearGradient id="linearGradient3370" y2="5.2502" gradientUnits="userSpaceOnUse" x2="19.875" gradientTransform="matrix(2.9298 0 0 2.955 -4.547 -2.0288)" y1="44.52" x1="19.875">
   <stop id="stop3776" style="stop-color:#365a7c" offset="0"/>
   <stop id="stop3778" style="stop-color:#5ea1ca" offset="1"/>
  </linearGradient>
 </defs>
 <rect id="rect892" style="stroke:url(#linearGradient3521);stroke-width:.97385;fill:url(#linearGradient3519)" transform="scale(1,-1)" ry="29.296" height="115.54" width="114.22" y="-122.25" x="7.0394"/>
 <rect id="rect892-2" style="stroke:url(#linearGradient3516);stroke-width:.97385;fill:url(#linearGradient3514)" transform="scale(1,-1)" ry="28.993" height="114.35" width="114.22" y="-121.46" x="7.0599"/>
 <path id="rect895" style="fill:url(#radialGradient3349)" d="m33.051 7.2596c-7.969-2.4493-27.013 15.174-25.653 23.038-0.050142 0.97378-0.088772 1.9648-0.088772 2.9572v52.419c0 20.876 10.712 33.859 22.318 33.859h67.038c12.638 0 24.318-11.245 24.318-25.859v-64.017c0.7-10.928-21.283-24.659-25.926-22.618-47.846 0.8653-18.017 0.2236-62.003 0.2236z"/>
 <rect id="rect892-2-7-8" style="opacity:.15891;stroke:#000;stroke-width:4.8445;fill:none" transform="scale(1,-1)" ry="28.993" height="114.35" width="114.22" y="-121.16" x="6.8687"/>
 <rect id="rect892-2-7-1" style="opacity:.15891;stroke:#000;stroke-width:7.7512;fill:none" transform="scale(1,-1)" ry="28.993" height="114.35" width="114.22" y="-121.16" x="6.8687"/>
 <rect id="rect892-2-7-2-9" ry="28.067" style="stroke:#000;stroke-width:1.0489;fill:none" transform="scale(1,-1)" height="112.71" width="114.14" y="-120.31" x="7.0649"/>
 <path id="path1187" style="fill:#fff;fill-opacity:.057143" d="m33.017 7.2319c-23.707 0-26.027 0.6738-25.93 26.295-0.04334 0.71563-0.07674 1.4439-0.07674 2.1732v32.76c18.67-38.321 38.34-51.497 90.374-61.179-0.225-0.026-0.46-0.0303-0.691-0.0303-41.576 0.3874-25.652-0.0188-63.676-0.0188z"/>
 <path id="path4596-6" style="opacity:.05;color:#000000;fill:url(#linearGradient3370)" d="m27.223 18.841a8.6447 8.719 0 0 0 -8.1484 8.6802v72.858a8.6447 8.719 0 0 0 15.29 5.5406l9.7049-11.82 14.649 33.982c0.38213-0.0787 0.78445-0.0925 1.1902-0.0925h40.834a8.6447 8.719 0 0 0 -1.3733 -4.8018l-27.833-42.57h14.283a8.6447 8.719 0 0 0 5.22 -15.608l-58.138-44.417a8.6447 8.719 0 0 0 -5.6764 -1.7545z"/>
 <g id="layer1-0" transform="matrix(2.9298 0 0 2.9298 -6.315 -2948.9)">
  <path id="path294" style="fill:#fff" d="m21.616 1014.1s-1.4651 0.5648-2.6761 1.7931c-0.31837 0.3229-0.59693 0.6553-0.84005 0.9816-4.3704 1.6487-9.1448 5.5391-7.43 13.67 1.3351 6.3312 6.0031 8.7395 7.2247 8.8794-1.3342-0.6928-5.8899-4.3235-5.8899-11.659 0.65527 1.4486 1.3824 1.7907 1.8058 1.6992 0.20059-0.1497-3.1323-3.0644 0.31502-7.4889 0.73094-0.9382 1.3945-1.3321 1.9999-1.5481-0.38436 0.754-0.30724 1.4795-0.11933 2.3309 0.09335 0.4229 0.11082 1.0991 0.0191 1.5353-0.01876 0.088-0.25818 0.3125-0.31979 0.9212-0.06602 0.646 0.09257 1.257 0.31979 1.5194 0.80722-1.1806 1.7915-1.4208 1.7915-1.4208 1.1301-0.463 1.6002-0.9578 2.8097-1.5751 1.6524-0.8428 3.5889 0.4365 7.2613-0.7668 0.03787-0.013 0.07801-0.031 0.11932-0.051 2.5368 3.1988 1.5446 8.3609 0.56003 9.0417 0.70113 0.1982 2.5981-0.8297 3.1916-3.7484 0 0-0.68645 9.9791-6.0935 13.188-1.2665 0.7518-2.0053 1.0082-1.0262 1.0707 0.44218 0.028 1.8697-0.3387 2.4517-0.5043 1.4324-0.4086 3.3369-1.3644 3.9886-2.8845-0.94086 2.272-3.3516 3.144-3.9091 3.5702 3.1768-0.5895 4.5914-1.9347 5.5494-3.4604-0.02662 0.4146-0.0342 0.1072-0.14955 0.3389-0.70299 1.4096 0.25079 0.3997 1.5433-0.9817 2.8469-3.042 4.0942-8.188 3.3761-13.283-0.5628-3.9967-3.9445-7.9501-7.282-8.3305-1.4985-0.701-3.14-0.965-4.1271-1.0405-1.2119-0.093-2.2881-0.051-3.2488 0.095 0.08222-0.058 0.12723-0.1125 0.12092-0.1591-0.1906 0.01-0.39853 0.019-0.6189 0.04 0.04347-0.075 0.07955-0.1225 0.07955-0.1225s-0.11485 0.015-0.34525 0.1511c-0.28124 0.032-0.58043 0.073-0.89574 0.1289 0.49778-0.654 0.93073-1.0373 0.93073-1.0373s-0.5391 0.1484-1.5146 1.1535c-0.30931 0.066-0.63007 0.1426-0.95778 0.2323 0.78227-1.3492 1.9856-2.2784 1.9856-2.2784z"/>
 </g>
</svg>
