<?xml version="1.0" encoding="UTF-8" standalone="no"?>
<!-- Created with Inkscape (http://www.inkscape.org/) -->

<svg
   xmlns:dc="http://purl.org/dc/elements/1.1/"
   xmlns:cc="http://creativecommons.org/ns#"
   xmlns:rdf="http://www.w3.org/1999/02/22-rdf-syntax-ns#"
   xmlns:svg="http://www.w3.org/2000/svg"
   xmlns="http://www.w3.org/2000/svg"
   xmlns:sodipodi="http://sodipodi.sourceforge.net/DTD/sodipodi-0.dtd"
   xmlns:inkscape="http://www.inkscape.org/namespaces/inkscape"
   id="svg3449"
   height="128"
   width="128"
   version="1.0"
   inkscape:version="0.48.4 r9939"
   sodipodi:docname="2048.svg">
  <sodipodi:namedview
     pagecolor="#ffffff"
     bordercolor="#666666"
     borderopacity="1"
     objecttolerance="10"
     gridtolerance="10"
     guidetolerance="10"
     inkscape:pageopacity="0"
     inkscape:pageshadow="2"
     inkscape:window-width="1360"
     inkscape:window-height="707"
     id="namedview47"
     showgrid="false"
     inkscape:zoom="1.84375"
     inkscape:cx="-28.20339"
     inkscape:cy="64"
     inkscape:window-x="-2"
     inkscape:window-y="33"
     inkscape:window-maximized="1"
     inkscape:current-layer="svg3449" />
  <metadata
     id="metadata56">
    <rdf:RDF>
      <cc:Work
         rdf:about="">
        <dc:format>image/svg+xml</dc:format>
        <dc:type
           rdf:resource="http://purl.org/dc/dcmitype/StillImage" />
        <dc:title></dc:title>
      </cc:Work>
    </rdf:RDF>
  </metadata>
  <defs
     id="defs3451">
    <linearGradient
       id="linearGradient3514"
       y2="-9.1034"
       gradientUnits="userSpaceOnUse"
       x2="66.492"
       gradientTransform="matrix(.96826 0 0 .97948 2.179 .16587)"
       y1="-42.638"
       x1="67.952">
      <stop
         id="stop4620"
         style="stop-color:#37414b"
         offset="0" />
      <stop
         id="stop4622"
         style="stop-color:#37414b;stop-opacity:0"
         offset="1" />
    </linearGradient>
    <linearGradient
       id="linearGradient3516"
       y2="-11.847"
       gradientUnits="userSpaceOnUse"
       x2="58.98"
       gradientTransform="matrix(.96826 0 0 .97948 2.179 .16587)"
       y1="-118.55"
       x1="57.173">
      <stop
         id="stop4596"
         offset="0" />
      <stop
         id="stop4598"
         style="stop-opacity:0"
         offset="1" />
    </linearGradient>
    <linearGradient
       id="linearGradient3519"
       y2="50.369"
       gradientUnits="userSpaceOnUse"
       x2="76.558"
       gradientTransform="matrix(.96826 0 0 .97948 3.2423 -129.19)"
       y1="13.164"
       x1="76.558">
      <stop
         id="stop3392"
         style="stop-color:#425e7b"
         offset="0" />
      <stop
         id="stop3394"
         style="stop-color:#7a91a7"
         offset="1" />
    </linearGradient>
    <linearGradient
       id="linearGradient3521"
       y2="-8.7399"
       gradientUnits="userSpaceOnUse"
       x2="60.217"
       gradientTransform="matrix(.96826 0 0 .97948 2.179 .16587)"
       y1="-123.72"
       x1="60.395">
      <stop
         id="stop3392-4-8"
         style="stop-color:#425e7b"
         offset="0" />
      <stop
         id="stop3394-8-0"
         style="stop-color:#7a91a7"
         offset="1" />
    </linearGradient>
    <radialGradient
       id="radialGradient3349"
       gradientUnits="userSpaceOnUse"
       cy="45.647"
       cx="42.148"
       gradientTransform="matrix(.94690 0 0 1.139 3.5954 -29.89)"
       r="58.984">
      <stop
         id="stop8006"
         style="stop-color:#ffd765"
         offset="0" />
      <stop
         id="stop8008"
         style="stop-color:#ed9200"
         offset="1" />
    </radialGradient>
    <filter
       id="filter3174-1"
       color-interpolation-filters="sRGB">
      <feGaussianBlur
         id="feGaussianBlur3176-0"
         stdDeviation="1.71" />
    </filter>
    <linearGradient
       id="ButtonShadow-9"
       x1="45.448"
       gradientUnits="userSpaceOnUse"
       y1="92.54"
       gradientTransform="scale(1.0059 .99417)"
       x2="45.448"
       y2="7.0165">
      <stop
         id="stop3750-6"
         offset="0" />
      <stop
         id="stop3752-7"
         style="stop-opacity:.58824"
         offset="1" />
    </linearGradient>
    <filter
       id="filter3174-1-0"
       color-interpolation-filters="sRGB">
      <feGaussianBlur
         id="feGaussianBlur3176-0-2"
         stdDeviation="1.71" />
    </filter>
    <linearGradient
       id="linearGradient7950-7-7"
       y2="-16"
       gradientUnits="userSpaceOnUse"
       y1="24"
       x2="16"
       x1="16">
      <stop
         id="stop3858-1-7"
         style="stop-color:#665400"
         offset="0" />
      <stop
         id="stop3860-4-9"
         style="stop-color:#665400;stop-opacity:0"
         offset="1" />
    </linearGradient>
  </defs>
  <rect
     id="rect892"
     style="stroke:url(#linearGradient3521);stroke-width:.97385;fill:url(#linearGradient3519)"
     transform="scale(1,-1)"
     ry="29.296"
     height="115.54"
     width="114.22"
     y="-122.25"
     x="7.0394" />
  <rect
     id="rect892-2"
     style="stroke:url(#linearGradient3516);stroke-width:.97385;fill:url(#linearGradient3514)"
     transform="scale(1,-1)"
     ry="28.993"
     height="114.35"
     width="114.22"
     y="-121.46"
     x="7.0599" />
  <path
     id="rect895"
     style="fill:url(#radialGradient3349)"
     d="m30.571 7.0104c-13.128 0.936-22.55 15.04-23.173 23.288-0.050142 0.97378-0.088772 1.9648-0.088772 2.9572v58.419c0 15.229 11.191 27.859 22.318 27.859h67.038c15.69 0 24.318-16.445 24.318-25.859v-64.017c-0.21-5.933-12.29-21.682-25.926-22.618-47.846 0.8653-20.497-0.0256-64.483-0.0256z" />
  <rect
     id="rect892-2-7-8"
     style="opacity:.15891;stroke:#000;stroke-width:4.8445;fill:none"
     transform="scale(1,-1)"
     ry="28.993"
     height="114.35"
     width="114.22"
     y="-121.16"
     x="6.8683" />
  <rect
     id="rect892-2-7-1"
     style="opacity:.15891;stroke:#000;stroke-width:7.7512;fill:none"
     transform="scale(1,-1)"
     ry="28.993"
     height="114.35"
     width="114.22"
     y="-121.16"
     x="6.8686" />
  <rect
     id="rect892-2-7-2-9"
     ry="28.067"
     style="stroke:#000;stroke-width:1.0489;fill:none"
     transform="scale(1,-1)"
     height="112.71"
     width="114.14"
     y="-120.31"
     x="7.0644" />
  <path
     id="path1187"
     style="fill:#fff;fill-opacity:.057143"
     d="m37.509 10.721c-14.891-4.3296-32.78 19.454-27.93 26.295-0.04334 0.71563-0.07674 1.4439-0.07674 2.1732v10.76c25.898-25.61 66.753-35.478 90.374-39.178-0.22473-0.02628-0.45986-0.03062-0.69067-0.03062-41.576 0.38742-23.653-0.01876-61.677-0.01875z" />
  <g
     id="layer2"
     style="display:none"
     transform="translate(187.88 23.742)">
    <rect
       id="rect3745"
       style="opacity:.9;filter:url(#filter3174-1);fill:url(#ButtonShadow-9)"
       rx="6"
       ry="6"
       height="85"
       width="86"
       y="7"
       x="5" />
  </g>
  <g
     id="layer2-8"
     style="display:none"
     transform="translate(324.59 20.7)">
    <rect
       id="rect3745-1"
       style="opacity:.9;filter:url(#filter3174-1-0);fill:url(#ButtonShadow-9)"
       rx="6"
       ry="6"
       height="85"
       width="86"
       y="7"
       x="5" />
  </g>
  <g
     transform="matrix(0.25,0,0,0.25,-2.0046982,-1.9067781)"
     id="g3025">
    <path
       sodipodi:nodetypes="sccccssscsscssccssccssscssscss"
       inkscape:connector-curvature="0"
       id="path4200"
       d="m 256,96 c -53.50824,0 -97.34375,39.67267 -97.34375,88.96875 l 53.75,52.59375 -14.25,0 -39.5,0 -16.9375,0 c -7.77319,0 -14.5625,5.88753 -14.5625,13.5625 l 0,37.8125 c 0,3.72191 1.64029,7.03093 4.15625,9.46875 -2.54156,2.42192 -4.15625,5.72924 -4.15625,9.46875 l 0,37.8125 c 0,3.72192 1.64029,6.96843 4.15625,9.40625 -2.54281,2.42211 -4.15625,5.72818 -4.15625,9.46875 l 0,37.8125 c 0,3.98654 1.83758,7.50508 4.6875,9.96875 l 79.625,79.65625 182.1875,0 C 448.13292,492 492,448.13291 492,393.65625 l 0,-104.5625 -164.12415,-164.0617 C 310.03384,107.18886 284.3848,96 256,96 z m 0,190.78125 c 15.58637,0 28.25,12.66364 28.25,28.25 0,10.41958 -5.75708,19.39242 -14.15625,24.28125 l 0,18.0625 c 0,7.79314 -6.30054,14.09375 -14.09375,14.09375 -7.79316,0 -14.09375,-6.30061 -14.09375,-14.09375 l 0,-18.0625 C 233.50708,334.42367 227.75,325.45083 227.75,315.03125 c 0,-15.58636 12.66363,-28.25 28.25,-28.25 z"
       style="font-size:medium;font-style:normal;font-variant:normal;font-weight:normal;font-stretch:normal;text-indent:0;text-align:start;text-decoration:none;line-height:normal;letter-spacing:normal;word-spacing:normal;text-transform:none;direction:ltr;block-progression:tb;writing-mode:lr-tb;text-anchor:start;baseline-shift:baseline;color:#000000;fill:#000000;fill-opacity:0.23529412;fill-rule:nonzero;stroke:none;stroke-width:4;marker:none;visibility:visible;display:inline;overflow:visible;enable-background:accumulate;font-family:Sans;-inkscape-font-specification:Sans" />
    <path
       style="font-size:medium;font-style:normal;font-variant:normal;font-weight:normal;font-stretch:normal;text-indent:0;text-align:start;text-decoration:none;line-height:normal;letter-spacing:normal;word-spacing:normal;text-transform:none;direction:ltr;block-progression:tb;writing-mode:lr-tb;text-anchor:start;baseline-shift:baseline;color:#000000;fill:#ffffff;fill-opacity:1;fill-rule:nonzero;stroke:none;stroke-width:4;marker:none;visibility:visible;display:inline;overflow:visible;enable-background:accumulate;font-family:Sans;-inkscape-font-specification:Sans"
       d="m 256,96 c -53.50824,0 -97.34375,39.67267 -97.34375,88.96875 l 39.5,0 c 0,-29.28395 25.02073,-52.34375 57.84375,-52.34375 32.82304,0 57.84375,23.0598 57.84375,52.34375 l 0,52.59375 -115.6875,0 -39.5,0 -16.9375,0 c -7.77319,0 -14.5625,5.88753 -14.5625,13.5625 l 0,37.8125 c 0,3.72191 1.64029,7.03093 4.15625,9.46875 -2.54156,2.42192 -4.15625,5.72924 -4.15625,9.46875 l 0,37.8125 c 0,3.72192 1.64029,6.96843 4.15625,9.40625 -2.54281,2.42211 -4.15625,5.72818 -4.15625,9.46875 l 0,37.8125 c 0,7.67497 6.78931,13.625 14.5625,13.625 l 228.5625,0 c 7.7732,0 14.5625,-5.95003 14.5625,-13.625 l 0,-37.8125 c 0,-3.74057 -1.61343,-7.04664 -4.15625,-9.46875 2.51597,-2.43782 4.15625,-5.68433 4.15625,-9.40625 l 0,-37.8125 c 0,-3.73951 -1.61468,-7.04683 -4.15625,-9.46875 2.51597,-2.43782 4.15625,-5.74684 4.15625,-9.46875 l 0,-37.8125 c 0,-7.67497 -6.7893,-13.5625 -14.5625,-13.5625 l -16.9375,0 0,-52.59375 C 353.34375,135.67267 309.50826,96 256,96 z m 0,190.78125 c 15.58637,0 28.25,12.66364 28.25,28.25 0,10.41958 -5.75708,19.39242 -14.15625,24.28125 l 0,18.0625 c 0,7.79314 -6.30054,14.09375 -14.09375,14.09375 -7.79316,0 -14.09375,-6.30061 -14.09375,-14.09375 l 0,-18.0625 C 233.50708,334.42367 227.75,325.45083 227.75,315.03125 c 0,-15.58636 12.66363,-28.25 28.25,-28.25 z"
       id="path3352"
       inkscape:connector-curvature="0"
       sodipodi:nodetypes="sccsscccssscsscsssssscsscssscsssscssscss" />
  </g>
</svg>
