<?xml version="1.0" encoding="UTF-8" standalone="no"?>
<!-- Created with Inkscape (http://www.inkscape.org/) -->
<svg id="svg3449" xmlns:rdf="http://www.w3.org/1999/02/22-rdf-syntax-ns#" xmlns="http://www.w3.org/2000/svg" height="128" width="128" version="1.0" xmlns:cc="http://creativecommons.org/ns#" xmlns:xlink="http://www.w3.org/1999/xlink" xmlns:dc="http://purl.org/dc/elements/1.1/">
 <metadata id="metadata56">
  <rdf:RDF>
   <cc:Work rdf:about="">
    <dc:format>image/svg+xml</dc:format>
    <dc:type rdf:resource="http://purl.org/dc/dcmitype/StillImage"/>
    <dc:title/>
   </cc:Work>
  </rdf:RDF>
 </metadata>
 <defs id="defs3451">
  <linearGradient id="linearGradient3514" y2="-9.1034" gradientUnits="userSpaceOnUse" x2="66.492" gradientTransform="matrix(.96826 0 0 .97948 2.179 .16587)" y1="-42.638" x1="67.952">
   <stop id="stop4620" style="stop-color:#37414b" offset="0"/>
   <stop id="stop4622" style="stop-color:#37414b;stop-opacity:0" offset="1"/>
  </linearGradient>
  <linearGradient id="linearGradient3516" y2="-11.847" gradientUnits="userSpaceOnUse" x2="58.98" gradientTransform="matrix(.96826 0 0 .97948 2.179 .16587)" y1="-118.55" x1="57.173">
   <stop id="stop4596" offset="0"/>
   <stop id="stop4598" style="stop-opacity:0" offset="1"/>
  </linearGradient>
  <linearGradient id="linearGradient3519" y2="50.369" gradientUnits="userSpaceOnUse" x2="76.558" gradientTransform="matrix(.96826 0 0 .97948 3.2423 -129.19)" y1="13.164" x1="76.558">
   <stop id="stop3392" style="stop-color:#425e7b" offset="0"/>
   <stop id="stop3394" style="stop-color:#7a91a7" offset="1"/>
  </linearGradient>
  <linearGradient id="linearGradient3521" y2="-8.7399" gradientUnits="userSpaceOnUse" x2="60.217" gradientTransform="matrix(.96826 0 0 .97948 2.179 .16587)" y1="-123.72" x1="60.395">
   <stop id="stop3392-4-8" style="stop-color:#425e7b" offset="0"/>
   <stop id="stop3394-8-0" style="stop-color:#7a91a7" offset="1"/>
  </linearGradient>
  <linearGradient id="linearGradient4326-3" y2="7.0165" gradientUnits="userSpaceOnUse" y1="92.54" gradientTransform="matrix(1.0059 0 0 .99417 -18.086 54.302)" x2="45.448" x1="45.448">
   <stop id="stop3750-77-4" offset="0"/>
   <stop id="stop3752-4-7" style="stop-opacity:.58824" offset="1"/>
  </linearGradient>
  <filter id="filter3174-16-2" color-interpolation-filters="sRGB">
   <feGaussianBlur id="feGaussianBlur3176-5-4" stdDeviation="1.71"/>
  </filter>
  <linearGradient id="linearGradient3904-7" y2="7.0165" gradientUnits="userSpaceOnUse" y1="92.54" gradientTransform="matrix(1.0059 0 0 .99417 -156.15 .80109)" x2="45.448" x1="45.448">
   <stop id="stop3750-84-9" offset="0"/>
   <stop id="stop3752-3-9" style="stop-opacity:.58824" offset="1"/>
  </linearGradient>
  <filter id="filter3174-5-0" color-interpolation-filters="sRGB">
   <feGaussianBlur id="feGaussianBlur3176-94-4" stdDeviation="1.71"/>
  </filter>
  <linearGradient id="linearGradient16955-6" y2="7.0165" gradientUnits="userSpaceOnUse" y1="92.54" gradientTransform="matrix(1.0059 0 0 .99417 -207.46 -7.6017)" x2="45.448" x1="45.448">
   <stop id="stop3750-5-2" offset="0"/>
   <stop id="stop3752-25-2" style="stop-opacity:.58824" offset="1"/>
  </linearGradient>
  <filter id="filter3174-7-7" color-interpolation-filters="sRGB">
   <feGaussianBlur id="feGaussianBlur3176-34-3" stdDeviation="1.71"/>
  </filter>
  <linearGradient id="linearGradient7720-4" y2="7.0165" gradientUnits="userSpaceOnUse" y1="92.54" gradientTransform="matrix(1.0059 0 0 .99417 75.661 -1.5)" x2="45.448" x1="45.448">
   <stop id="stop3750-4-1" offset="0"/>
   <stop id="stop3752-6-7" style="stop-opacity:.58824" offset="1"/>
  </linearGradient>
  <filter id="filter3174-3-0" color-interpolation-filters="sRGB">
   <feGaussianBlur id="feGaussianBlur3176-3-0" stdDeviation="1.71"/>
  </filter>
  <linearGradient id="linearGradient6422-6" y2="7.0165" gradientUnits="userSpaceOnUse" y1="92.54" gradientTransform="matrix(1.0059 0 0 .99417 158.64 4.6017)" x2="45.448" x1="45.448">
   <stop id="stop3750-58" offset="0"/>
   <stop id="stop3752-14" style="stop-opacity:.58824" offset="1"/>
  </linearGradient>
  <filter id="filter3174-9" color-interpolation-filters="sRGB">
   <feGaussianBlur id="feGaussianBlur3176-11" stdDeviation="1.71"/>
  </filter>
 </defs>
 <rect id="rect892" style="stroke:url(#linearGradient3521);stroke-width:.97385;fill:url(#linearGradient3519)" transform="scale(1,-1)" ry="29.296" height="115.54" width="114.22" y="-122.25" x="7.0394"/>
 <rect id="rect892-2" style="stroke:url(#linearGradient3516);stroke-width:.97385;fill:url(#linearGradient3514)" transform="scale(1,-1)" ry="28.993" height="114.35" width="114.22" y="-121.46" x="7.0599"/>
 <g id="layer1-0" style="fill:#782121" transform="matrix(2.5636 0 0 2.5636 2.4744 -2572.3)">
  <rect id="rect849-2" style="fill:#782121" ry="10.607" height="43.689" width="43.689" y="1006.5" x="2.1555"/>
 </g>
 <rect id="rect892-2-7-8" style="opacity:.15891;stroke:#000;stroke-width:4.8445;fill:none" transform="scale(1,-1)" ry="28.993" height="114.35" width="114.22" y="-121.16" x="6.8687"/>
 <rect id="rect892-2-7-1" style="opacity:.15891;stroke:#000;stroke-width:7.7512;fill:none" transform="scale(1,-1)" ry="28.993" height="114.35" width="114.22" y="-121.16" x="6.8687"/>
 <rect id="rect892-2-7-2-9" ry="28.067" style="stroke:#000;stroke-width:1.0489;fill:none" transform="scale(1,-1)" height="112.71" width="114.14" y="-120.31" x="7.0649"/>
 <path id="path1187" style="fill:#fff;fill-opacity:.057143" d="m33.017 7.2319c-23.707 0-26.027 0.6738-25.93 26.295-0.04334 0.71563-0.07674 1.4439-0.07674 2.1732v32.76c18.67-38.321 38.34-51.497 90.374-61.179-0.225-0.026-0.46-0.0303-0.691-0.0303-41.576 0.3874-25.652-0.0188-63.676-0.0188z"/>
 <rect id="rect3745" style="opacity:.9;filter:url(#filter3174-9);display:none;fill:url(#linearGradient6422-6)" transform="matrix(2.3333 0 0 2.3333 8 8)" rx="6" ry="6" height="85" width="86" y="11.602" x="163.64"/>
 <rect id="rect3745-9" style="opacity:.9;filter:url(#filter3174-3-0);display:none;fill:url(#linearGradient7720-4)" transform="matrix(2.3333 0 0 2.3333 8 8)" rx="6" ry="6" height="85" width="86" y="5.5" x="80.661"/>
 <rect id="rect3745-3" style="opacity:.9;filter:url(#filter3174-7-7);display:none;fill:url(#linearGradient16955-6)" transform="matrix(2.3333 0 0 2.3333 8 8)" rx="6" ry="6" height="85" width="86" y="-.60169" x="-202.46"/>
 <rect id="rect3745-97" style="opacity:.9;filter:url(#filter3174-5-0);display:none;fill:url(#linearGradient3904-7)" transform="matrix(2.3333 0 0 2.3333 8 8)" rx="6" ry="6" height="85" width="86" y="7.8011" x="-151.15"/>
 <rect id="rect3745-5" style="opacity:.9;filter:url(#filter3174-16-2);display:none;fill:url(#linearGradient4326-3)" transform="matrix(2.3333 0 0 2.3333 8 8)" rx="6" ry="6" height="85" width="86" y="61.302" x="-13.086"/>
 <path id="path33824" style="fill:#fff" d="m49.398 101.57c-5.994-2.981-12.172-6.299-13.73-7.37l-2.8318-1.9473 3.192-1.1127 3.192-1.1127-0.6689-11.264c-0.875-14.75-2.473-31.397-3.193-33.272-0.315-0.82-0.949-1.491-1.41-1.491-1.396 0-8.719 9.029-15.008 18.507-3.267 4.923-5.94 8.434-5.94 7.802 0-1.939 6.077-18.511 8.731-23.809 3.629-7.244 8.537-12.879 15.581-17.888 7.147-5.083 18.757-11.612 20.648-11.612 0.71187 0-0.563 2.0149-2.833 4.4777-5.0725 5.5031-5.3949 8.9969-1.2675 13.738l2.86 3.284 0.719 23.974c0.39574 13.186 0.93535 24.323 1.1991 24.75 0.264 0.427 2.859 0.776 5.766 0.776 9.0043 0 9.0282-0.07502 8.1979-25.747-0.38694-11.964-0.96694-22.815-1.2889-24.113-0.51653-2.0831-0.3206-2.2766 1.6666-1.6459 1.8429 0.5849 3.2754-0.28263 7.8862-4.7757 7.1607-6.9779 8.7233-7.7334 15.818-7.6474l5.816 0.07-3.956 1.448c-10.691 3.915-13.784 12.644-11.66 32.911 1.3913 13.276 3.1587 24.952 3.9778 26.277 0.45197 0.7313 2.5264 0.44379 6.5161-0.90311 3.2192-1.0868 6.0858-1.7432 6.3703-1.4587 0.63146 0.63146-10.171 12.927-15.922 18.123l-4.1756 3.7724-3.9294-4.6552c-2.161-2.562-4.26-4.657-4.665-4.657-0.40451 0-2.8322 2.7-5.3949 6-3.3496 4.3133-5.3209 6-7.0125 6-1.2942 0-7.2572-2.4418-13.251-5.4263z"/>
</svg>
