<?xml version="1.0" encoding="UTF-8" standalone="no"?>
<!-- Created with Inkscape (http://www.inkscape.org/) -->

<svg
   xmlns:dc="http://purl.org/dc/elements/1.1/"
   xmlns:cc="http://creativecommons.org/ns#"
   xmlns:rdf="http://www.w3.org/1999/02/22-rdf-syntax-ns#"
   xmlns:svg="http://www.w3.org/2000/svg"
   xmlns="http://www.w3.org/2000/svg"
   xmlns:xlink="http://www.w3.org/1999/xlink"
   xmlns:sodipodi="http://sodipodi.sourceforge.net/DTD/sodipodi-0.dtd"
   xmlns:inkscape="http://www.inkscape.org/namespaces/inkscape"
   id="svg3449"
   height="128"
   width="128"
   version="1.0"
   inkscape:version="0.48.4 r9939"
   sodipodi:docname="wallet.svg">
  <sodipodi:namedview
     pagecolor="#ffffff"
     bordercolor="#666666"
     borderopacity="1"
     objecttolerance="10"
     gridtolerance="10"
     guidetolerance="10"
     inkscape:pageopacity="0"
     inkscape:pageshadow="2"
     inkscape:window-width="1360"
     inkscape:window-height="707"
     id="namedview28"
     showgrid="false"
     inkscape:zoom="2.6074563"
     inkscape:cx="29.315846"
     inkscape:cy="80.47682"
     inkscape:window-x="-2"
     inkscape:window-y="33"
     inkscape:window-maximized="1"
     inkscape:current-layer="svg3449" />
  <metadata
     id="metadata56">
    <rdf:RDF>
      <cc:Work
         rdf:about="">
        <dc:format>image/svg+xml</dc:format>
        <dc:type
           rdf:resource="http://purl.org/dc/dcmitype/StillImage" />
        <dc:title></dc:title>
      </cc:Work>
    </rdf:RDF>
  </metadata>
  <defs
     id="defs3451">
    <linearGradient
       id="linearGradient3514"
       y2="-9.1034"
       gradientUnits="userSpaceOnUse"
       x2="66.492"
       gradientTransform="matrix(0.96826591,0,0,0.97837245,2.008719,0.37798667)"
       y1="-42.638"
       x1="67.952">
      <stop
         id="stop4620"
         style="stop-color:#37414b"
         offset="0" />
      <stop
         id="stop4622"
         style="stop-color:#37414b;stop-opacity:0"
         offset="1" />
    </linearGradient>
    <linearGradient
       id="linearGradient3516"
       y2="-11.847"
       gradientUnits="userSpaceOnUse"
       x2="58.98"
       gradientTransform="matrix(0.96826591,0,0,0.97837245,2.008719,0.37798667)"
       y1="-118.55"
       x1="57.173">
      <stop
         id="stop4596"
         offset="0" />
      <stop
         id="stop4598"
         style="stop-opacity:0"
         offset="1" />
    </linearGradient>
    <linearGradient
       id="linearGradient3519"
       y2="50.369"
       gradientUnits="userSpaceOnUse"
       x2="76.558"
       gradientTransform="matrix(0.96830812,0,0,0.96833796,3.0898716,-127.9739)"
       y1="13.164"
       x1="76.558">
      <stop
         id="stop3392"
         style="stop-color:#425e7b"
         offset="0" />
      <stop
         id="stop3394"
         style="stop-color:#7a91a7"
         offset="1" />
    </linearGradient>
    <linearGradient
       id="linearGradient3521"
       y2="-8.7399"
       gradientUnits="userSpaceOnUse"
       x2="60.217"
       gradientTransform="matrix(0.96830812,0,0,0.96833796,2.0265188,-0.08950392)"
       y1="-123.72"
       x1="60.395">
      <stop
         id="stop3392-4-8"
         style="stop-color:#425e7b"
         offset="0" />
      <stop
         id="stop3394-8-0"
         style="stop-color:#7a91a7"
         offset="1" />
    </linearGradient>
    <radialGradient
       id="radialGradient3349"
       gradientUnits="userSpaceOnUse"
       cy="45.647"
       cx="42.148"
       gradientTransform="matrix(0.94689705,0,0,1.1490317,3.4411805,-29.893821)"
       r="58.984">
      <stop
         id="stop2699-5"
         style="stop-color:#e0b586"
         offset="0" />
      <stop
         id="stop2701-7"
         style="stop-color:#d7a167"
         offset="1" />
    </radialGradient>
    <radialGradient
       inkscape:collect="always"
       xlink:href="#linearGradient4132"
       id="radialGradient4922"
       gradientUnits="userSpaceOnUse"
       gradientTransform="matrix(6.1248261,0,0,4.4807882,-135.86665,-31.233647)"
       cx="63.98003"
       cy="61.948856"
       fx="63.98003"
       fy="61.948856"
       r="58.01997" />
    <linearGradient
       id="linearGradient4132">
      <stop
         offset="0"
         style="stop-color:#7bb8f0;stop-opacity:1"
         id="stop4134" />
      <stop
         offset="1"
         style="stop-color:#b5d5f2;stop-opacity:0.1221374"
         id="stop4136" />
    </linearGradient>
  </defs>
  <rect
     id="rect892"
     style="fill:url(#linearGradient3519);stroke:url(#linearGradient3521);stroke-width:0.96831924"
     transform="scale(1,-1)"
     ry="28.962744"
     height="114.22568"
     width="114.22568"
     y="-121.11284"
     x="6.8871613" />
  <rect
     id="rect892-2"
     style="fill:url(#linearGradient3514);stroke:url(#linearGradient3516);stroke-width:0.97330225"
     transform="scale(1,-1)"
     ry="28.960217"
     height="114.2207"
     width="114.2207"
     y="-121.11035"
     x="6.8896484" />
  <path
     id="rect895"
     style="fill:url(#radialGradient3349)"
     d="M 32.896689,7.5829705 C 25.699946,3.5676353 6.911717,20.834726 7.2437679,30.823875 c -0.05014,0.982357 -0.08877,1.982106 -0.08877,2.983246 l 0,52.880675 c 0,21.059864 10.7119671,34.157204 22.3179311,34.157204 l 67.037792,0 c 12.637959,0 24.317929,-11.34403 24.317929,-26.086744 l 0,-64.580824 C 121.52864,19.153185 99.545711,5.3012495 94.902721,7.3602255 47.056873,8.2331465 76.88578,7.5857945 32.899917,7.5857945 z"
     inkscape:connector-curvature="0"
     sodipodi:nodetypes="ccssssscccc" />
  <rect
     id="rect892-2-7-8"
     style="opacity:0.15891;fill:none;stroke:#000000;stroke-width:4.84187794"
     transform="scale(1,-1)"
     ry="28.960831"
     height="114.22312"
     width="114.22312"
     y="-121.11156"
     x="6.8884392" />
  <rect
     id="rect892-2-7-1"
     style="opacity:0.15891;fill:none;stroke:#000000;stroke-width:7.7470603"
     transform="scale(1,-1)"
     ry="28.961039"
     height="114.22394"
     width="114.22394"
     y="-121.11197"
     x="6.888031" />
  <rect
     id="rect892-2-7-2-9"
     ry="27.872265"
     style="fill:none;stroke:#000000;stroke-width:1.05547321"
     transform="scale(1,-1)"
     height="114.13353"
     width="114.13353"
     y="-121.06676"
     x="6.9332352" />
  <path
     id="path1187"
     style="fill:#ffffff;fill-opacity:0.05714303"
     d="M 32.930758,6.923328 C 6.8392893,6.7954853 7.2631041,18.673737 6.9240184,35.391528 l 0,32.76 c 18.6699996,-38.321 38.3399996,-51.497 90.3739996,-61.179 -0.225,-0.026 -0.46,-0.0303 -0.691,-0.0303 -41.576,0.3874 -25.652,-0.0188 -63.676,-0.0188 z"
     inkscape:connector-curvature="0"
     sodipodi:nodetypes="ccccccc" />
  <g
     transform="matrix(0.25,0,0,0.25,-2.3081426,-3.9426712)"
     id="g3202">
    <path
       style="fill:#f99930;fill-opacity:1;stroke:none"
       d="m 103.22222,323.22222 c -6.77111,0 -12.222216,5.4511 -12.222216,12.22222 l 0,24.44444 c 0,6.77111 5.451106,12.22222 12.222216,12.22222 l 48.88889,0 c 6.77111,0 12.22222,-5.45111 12.22222,-12.22222 l 0,-24.44444 c 0,-6.77112 -5.45111,-12.22222 -12.22222,-12.22222 l -48.88889,0 z"
       id="path4215"
       inkscape:connector-curvature="0" />
    <path
       style="fill:#ca0a0a;fill-opacity:1;stroke:none"
       d="m 103.22222,384.33332 c -6.77111,0 -12.222216,5.45113 -12.222216,12.22225 l 0,24.44444 c 0,6.77109 5.451106,12.22222 12.222216,12.22222 l 48.88889,0 c 6.77111,0 12.22222,-5.45113 12.22222,-12.22222 l 0,-24.44444 c 0,-6.77112 -5.45111,-12.22225 -12.22222,-12.22225 l -48.88889,0 z"
       id="path3729"
       inkscape:connector-curvature="0" />
    <path
       style="fill:#c83771;fill-opacity:1;stroke:none"
       d="m 188.77777,78.777772 c -6.77111,0 -12.22222,5.451107 -12.22222,12.222222 l 0,24.444446 c 0,6.77111 5.45111,12.22222 12.22222,12.22222 l 48.88889,0 c 6.77111,0 12.22222,-5.45111 12.22222,-12.22222 l 0,-24.444446 c 0,-6.771115 -5.45111,-12.222222 -12.22222,-12.222222 l -48.88889,0 z"
       id="path4257"
       inkscape:connector-curvature="0" />
    <path
       style="fill:#8e65cd;fill-opacity:1;stroke:none"
       d="m 188.77777,139.88888 c -6.77111,0 -12.22222,5.45113 -12.22222,12.22224 l 0,24.44444 c 0,6.7711 5.45111,12.22222 12.22222,12.22222 l 48.88889,0 c 6.77111,0 12.22222,-5.45112 12.22222,-12.22222 l 0,-24.44444 c 0,-6.77111 -5.45111,-12.22224 -12.22222,-12.22224 l -48.88889,0 z"
       id="path4255"
       inkscape:connector-curvature="0" />
    <path
       style="fill:#3ea6c1;fill-opacity:1;stroke:none"
       d="m 188.77777,201.00001 c -6.77111,0 -12.22222,5.4511 -12.22222,12.22222 l 0,24.44444 c 0,6.77111 5.45111,12.22222 12.22222,12.22222 l 48.88889,0 c 6.77111,0 12.22222,-5.45111 12.22222,-12.22222 l 0,-24.44444 c 0,-6.77112 -5.45111,-12.22222 -12.22222,-12.22222 l -48.88889,0 z"
       id="path4253"
       inkscape:connector-curvature="0" />
    <path
       style="fill:#a6ce06;fill-opacity:1;stroke:none"
       d="m 188.77777,262.11111 c -6.77111,0 -12.22222,5.45111 -12.22222,12.22222 l 0,24.44444 c 0,6.77112 5.45111,12.22223 12.22222,12.22223 l 48.88889,0 c 6.77111,0 12.22222,-5.45111 12.22222,-12.22223 l 0,-24.44444 c 0,-6.77111 -5.45111,-12.22222 -12.22222,-12.22222 l -48.88889,0 z"
       id="path4251"
       inkscape:connector-curvature="0" />
    <path
       style="fill:#f99930;fill-opacity:1;stroke:none"
       d="m 188.77777,323.22222 c -6.77111,0 -12.22222,5.4511 -12.22222,12.22222 l 0,24.44444 c 0,6.77111 5.45111,12.22222 12.22222,12.22222 l 48.88889,0 c 6.77111,0 12.22222,-5.45111 12.22222,-12.22222 l 0,-24.44444 c 0,-6.77112 -5.45111,-12.22222 -12.22222,-12.22222 l -48.88889,0 z"
       id="path4249"
       inkscape:connector-curvature="0" />
    <path
       style="fill:#ca0a0a;fill-opacity:1;stroke:none"
       d="m 188.77777,384.33332 c -6.77111,0 -12.22222,5.45113 -12.22222,12.22225 l 0,24.44444 c 0,6.77109 5.45111,12.22222 12.22222,12.22222 l 48.88889,0 c 6.77111,0 12.22222,-5.45113 12.22222,-12.22222 l 0,-24.44444 c 0,-6.77112 -5.45111,-12.22225 -12.22222,-12.22225 l -48.88889,0 z"
       id="path3731"
       inkscape:connector-curvature="0" />
    <path
       style="fill:#a6ce06;fill-opacity:1;stroke:none"
       d="m 274.33332,262.11111 c -6.77109,0 -12.22222,5.45111 -12.22222,12.22222 l 0,24.44444 c 0,6.77112 5.45113,12.22223 12.22222,12.22223 l 48.88891,0 c 6.77109,0 12.22222,-5.45111 12.22222,-12.22223 l 0,-24.44444 c 0,-6.77111 -5.45113,-12.22222 -12.22222,-12.22222 l -48.88891,0 z"
       id="path4183"
       inkscape:connector-curvature="0" />
    <path
       style="fill:#f99930;fill-opacity:1;stroke:none"
       d="m 274.33332,323.22222 c -6.77109,0 -12.22222,5.4511 -12.22222,12.22222 l 0,24.44444 c 0,6.77111 5.45113,12.22222 12.22222,12.22222 l 48.88891,0 c 6.77109,0 12.22222,-5.45111 12.22222,-12.22222 l 0,-24.44444 c 0,-6.77112 -5.45113,-12.22222 -12.22222,-12.22222 l -48.88891,0 z"
       id="path4181"
       inkscape:connector-curvature="0" />
    <path
       style="fill:#ca0a0a;fill-opacity:1;stroke:none"
       d="m 274.33332,384.33332 c -6.77109,0 -12.22222,5.45113 -12.22222,12.22225 l 0,24.44444 c 0,6.77109 5.45113,12.22222 12.22222,12.22222 l 48.88891,0 c 6.77109,0 12.22222,-5.45113 12.22222,-12.22222 l 0,-24.44444 c 0,-6.77112 -5.45113,-12.22225 -12.22222,-12.22225 l -48.88891,0 z"
       id="path3733"
       inkscape:connector-curvature="0" />
    <path
       style="fill:#3ea6c1;fill-opacity:1;stroke:none"
       d="m 359.88889,201.00001 c -6.77111,0 -12.22222,5.4511 -12.22222,12.22222 l 0,24.44444 c 0,6.77111 5.45111,12.22222 12.22222,12.22222 l 48.88889,0 c 6.77111,0 12.22222,-5.45111 12.22222,-12.22222 l 0,-24.44444 c 0,-6.77112 -5.45111,-12.22222 -12.22222,-12.22222 l -48.88889,0 z"
       id="path4287"
       inkscape:connector-curvature="0" />
    <path
       style="fill:#a6ce06;fill-opacity:1;stroke:none"
       d="m 359.88889,262.11111 c -6.77111,0 -12.22222,5.45111 -12.22222,12.22222 l 0,24.44444 c 0,6.77112 5.45111,12.22223 12.22222,12.22223 l 48.88889,0 C 415.54889,311 421,305.54889 421,298.77777 l 0,-24.44444 c 0,-6.77111 -5.45111,-12.22222 -12.22222,-12.22222 l -48.88889,0 z"
       id="path4285"
       inkscape:connector-curvature="0" />
    <path
       style="fill:#f99930;fill-opacity:1;stroke:none"
       d="m 359.88889,323.22222 c -6.77111,0 -12.22222,5.4511 -12.22222,12.22222 l 0,24.44444 c 0,6.77111 5.45111,12.22222 12.22222,12.22222 l 48.88889,0 c 6.77111,0 12.22222,-5.45111 12.22222,-12.22222 l 0,-24.44444 c 0,-6.77112 -5.45111,-12.22222 -12.22222,-12.22222 l -48.88889,0 z"
       id="path4283"
       inkscape:connector-curvature="0" />
    <path
       style="fill:#ca0a0a;fill-opacity:1;stroke:none"
       d="m 359.88889,384.33332 c -6.77111,0 -12.22222,5.45113 -12.22222,12.22225 l 0,24.44444 c 0,6.77109 5.45111,12.22222 12.22222,12.22222 l 48.88889,0 c 6.77111,0 12.22222,-5.45113 12.22222,-12.22222 l 0,-24.44444 c 0,-6.77112 -5.45111,-12.22225 -12.22222,-12.22225 l -48.88889,0 z"
       id="path3735"
       inkscape:connector-curvature="0" />
    <path
       sodipodi:nodetypes="sccccscccsccsssccsscccs"
       inkscape:connector-curvature="0"
       id="path4197"
       d="m 300.59375,131.6875 c -4.70209,0.14435 -8.7909,3.59818 -9.625,8.46875 -0.62968,3.6873 0.76097,7.2567 3.375,9.53125 l 41.1875,41.1875 c -9.18218,-7.81201 -20.02957,-13.69907 -31.9375,-17 -1.00985,-0.28023 -2.03696,-0.3777 -3.03125,-0.34375 -1.53209,0.0523 -3.01841,0.45851 -4.34375,1.15625 L 272.5625,150.78125 c -1.33329,-1.62212 -3.29314,-2.95867 -5.6875,-3.8125 C 265.01567,146.30626 263.04521,146 261.0625,146 c -3.00743,0 -6.00176,0.73999 -8.4375,2.1875 L 155.1875,214 119.46875,214 C 112.02131,214 106,218.4765 106,224 l 0,64 c 0,2.47861 1.20747,4.65148 3.21875,6.34375 L 309,492 l 84.65625,0 C 448.13292,492 492,448.13291 492,393.65625 L 492,289.4375 369.0625,166.5 c -17.73626,-17.74801 -40.7254,-30.16452 -66.40625,-34.65625 -0.68806,-0.12051 -1.39077,-0.17687 -2.0625,-0.15625 z"
       style="fill:#000000;fill-opacity:0.39215686;fill-rule:nonzero;stroke:none" />
    <path
       id="path24"
       d="m 261.05671,145.99605 c -3.00743,0 -5.99125,0.7347 -8.42699,2.18221 l -97.43892,65.81779 -35.70761,0 c -7.44744,0 -13.48319,4.4765 -13.48319,10 l 0,64 c 0,5.5235 6.04739,9.58385 13.48319,10 l 35.73617,0 97.41036,65.79661 c 2.43574,1.4475 5.41956,2.20339 8.42699,2.20339 1.9854,0 3.96815,-0.33326 5.82748,-0.99576 4.67192,-1.666 7.65571,-5.16024 7.65571,-9.00424 l 0,-200 c 0,-3.84399 -2.98378,-7.35942 -7.65571,-9.02543 -1.85933,-0.66249 -3.84477,-0.97457 -5.82748,-0.97457 z"
       style="fill:#ffffff;fill-opacity:1;fill-rule:nonzero;stroke:none"
       inkscape:connector-curvature="0"
       sodipodi:nodetypes="sccssssccscsscs" />
    <path
       id="path30"
       style="fill:#ffffff;fill-opacity:1;fill-rule:nonzero;stroke:none"
       d="m 306.83247,291.89787 c 10.96857,-7.97114 18.27107,-21.06954 18.26837,-35.90182 0.003,-14.83227 -7.2998,-27.93341 -18.26837,-35.90454 -4.5317,-3.30273 -10.85195,-2.26637 -14.11758,2.31682 -3.26563,4.58113 -2.24091,10.97318 2.2908,14.2759 6.01215,4.41069 9.86767,11.35637 9.87037,19.31182 -0.003,7.95546 -3.85822,14.90114 -9.87037,19.31182 -4.53171,3.30273 -5.55643,9.69477 -2.2908,14.27591 3.26563,4.58318 9.58857,5.61955 14.11758,2.31682"
       inkscape:connector-curvature="0" />
    <path
       id="path32"
       style="fill:#ffffff;fill-opacity:1;fill-rule:nonzero;stroke:none"
       d="m 303.5938,338.11287 c 35.70147,-9.89727 61.93842,-42.85909 61.95662,-82.11682 -0.0182,-39.25772 -26.25515,-72.22227 -61.95662,-82.11886 -5.38586,-1.49455 -10.95037,1.70932 -12.42745,7.15636 -1.47709,5.44909 1.69079,11.07409 7.07598,12.57068 27.11941,7.53478 47.1015,32.58069 47.0833,62.39182 0.0182,29.81114 -19.96389,54.85432 -47.0833,62.39182 -5.38519,1.49386 -8.55307,7.12159 -7.07598,12.57068 1.47708,5.44705 7.04159,8.65091 12.42745,7.15637"
       inkscape:connector-curvature="0" />
    <path
       id="path34"
       style="fill:#ffffff;fill-opacity:1;fill-rule:nonzero;stroke:none"
       d="M 302.64324,380.16128 C 361.34232,369.89446 405.9791,318.28901 406,255.99605 405.9791,193.7031 361.34232,142.09764 302.64324,131.83083 c -5.50451,-0.9641 -10.73667,2.76681 -11.68993,8.33318 -0.95056,5.56636 2.73844,10.85863 8.24228,11.82272 49.14017,8.6025 86.60052,51.84478 86.57962,104.00932 0.0209,52.16455 -37.43945,95.40682 -86.58232,104.00932 -5.50114,0.96409 -9.19014,6.25636 -8.23958,11.82273 0.95326,5.56636 6.18542,9.29727 11.68993,8.33318"
       inkscape:connector-curvature="0" />
  </g>
</svg>
