<?xml version="1.0" encoding="UTF-8" standalone="no"?>
<!-- Created with Inkscape (http://www.inkscape.org/) -->
<svg id="svg3449" xmlns:rdf="http://www.w3.org/1999/02/22-rdf-syntax-ns#" xmlns="http://www.w3.org/2000/svg" height="128" width="128" version="1.0" xmlns:cc="http://creativecommons.org/ns#" xmlns:xlink="http://www.w3.org/1999/xlink" xmlns:dc="http://purl.org/dc/elements/1.1/">
 <metadata id="metadata56">
  <rdf:RDF>
   <cc:Work rdf:about="">
    <dc:format>image/svg+xml</dc:format>
    <dc:type rdf:resource="http://purl.org/dc/dcmitype/StillImage"/>
    <dc:title/>
   </cc:Work>
  </rdf:RDF>
 </metadata>
 <defs id="defs3451">
  <linearGradient id="linearGradient3514" y2="-9.1034" gradientUnits="userSpaceOnUse" x2="66.492" gradientTransform="matrix(.96826 0 0 .97948 2.179 .16587)" y1="-42.638" x1="67.952">
   <stop id="stop4620" style="stop-color:#37414b" offset="0"/>
   <stop id="stop4622" style="stop-color:#37414b;stop-opacity:0" offset="1"/>
  </linearGradient>
  <linearGradient id="linearGradient3516" y2="-11.847" gradientUnits="userSpaceOnUse" x2="58.98" gradientTransform="matrix(.96826 0 0 .97948 2.179 .16587)" y1="-118.55" x1="57.173">
   <stop id="stop4596" offset="0"/>
   <stop id="stop4598" style="stop-opacity:0" offset="1"/>
  </linearGradient>
  <linearGradient id="linearGradient3519" y2="50.369" gradientUnits="userSpaceOnUse" x2="76.558" gradientTransform="matrix(.96826 0 0 .97948 3.2423 -129.19)" y1="13.164" x1="76.558">
   <stop id="stop3392" style="stop-color:#425e7b" offset="0"/>
   <stop id="stop3394" style="stop-color:#7a91a7" offset="1"/>
  </linearGradient>
  <linearGradient id="linearGradient3521" y2="-8.7399" gradientUnits="userSpaceOnUse" x2="60.217" gradientTransform="matrix(.96826 0 0 .97948 2.179 .16587)" y1="-123.72" x1="60.395">
   <stop id="stop3392-4-8" style="stop-color:#425e7b" offset="0"/>
   <stop id="stop3394-8-0" style="stop-color:#7a91a7" offset="1"/>
  </linearGradient>
  <radialGradient id="radialGradient3349" gradientUnits="userSpaceOnUse" cy="45.647" cx="42.148" gradientTransform="matrix(.94690 0 0 1.139 3.5954 -29.89)" r="58.984">
   <stop id="stop2699-5" style="stop-color:#e0b586" offset="0"/>
   <stop id="stop2701-7" style="stop-color:#d7a167" offset="1"/>
  </radialGradient>
 </defs>
 <rect id="rect892" style="stroke:url(#linearGradient3521);stroke-width:.97385;fill:url(#linearGradient3519)" transform="scale(1,-1)" ry="29.296" height="115.54" width="114.22" y="-122.25" x="7.0394"/>
 <rect id="rect892-2" style="stroke:url(#linearGradient3516);stroke-width:.97385;fill:url(#linearGradient3514)" transform="scale(1,-1)" ry="28.993" height="114.35" width="114.22" y="-121.46" x="7.0599"/>
 <path id="rect895" style="fill:url(#radialGradient3349)" d="m33.051 7.2596c-7.969-2.4493-27.013 15.174-25.653 23.038-0.050142 0.97378-0.088772 1.9648-0.088772 2.9572v52.419c0 20.876 10.712 33.859 22.318 33.859h67.038c12.638 0 24.318-11.245 24.318-25.859v-64.017c0.7-10.928-21.283-24.659-25.926-22.618-47.846 0.8653-18.017 0.2236-62.003 0.2236z"/>
 <rect id="rect892-2-7-8" style="opacity:.15891;stroke:#000;stroke-width:4.8445;fill:none" transform="scale(1,-1)" ry="28.993" height="114.35" width="114.22" y="-121.16" x="6.8687"/>
 <rect id="rect892-2-7-1" style="opacity:.15891;stroke:#000;stroke-width:7.7512;fill:none" transform="scale(1,-1)" ry="28.993" height="114.35" width="114.22" y="-121.16" x="6.8687"/>
 <rect id="rect892-2-7-2-9" ry="28.067" style="stroke:#000;stroke-width:1.0489;fill:none" transform="scale(1,-1)" height="112.71" width="114.14" y="-120.31" x="7.0649"/>
 <path id="path1187" style="fill:#fff;fill-opacity:.057143" d="m33.017 7.2319c-23.707 0-26.027 0.6738-25.93 26.295-0.04334 0.71563-0.07674 1.4439-0.07674 2.1732v32.76c18.67-38.321 38.34-51.497 90.374-61.179-0.225-0.026-0.46-0.0303-0.691-0.0303-41.576 0.3874-25.652-0.0188-63.676-0.0188z"/>
 <path id="path3834" style="fill:#fff" d="m58.772 100.25c-10.032-10.241-15.066-22.225-16.734-39.834-1.137-11.997-0.499-19.416 1.67-19.416 0.78981 0 5.7056-1.4158 10.924-3.1462l9.488-3.1462 11.19 3.5116 11.19 3.5116-0.22666 11.885c-0.3839 20.128-5.4222 34.447-16.036 45.574-3.048 3.2-5.827 5.81-6.177 5.81-0.34945 0-2.7291-2.1375-5.2881-4.75zm8.3155-20.373c2.0649-2.8999 2.1003-3.1922 0.49478-4.0907-1.5266-0.85434-1.6912-2.4726-1.4058-13.822 0.23964-9.5272-0.011-13.19-0.96832-14.151-2.6049-2.6156-3.3578 1.2214-2.8444 14.495 0.46324 11.974 0.3701 12.855-1.4298 13.52-1.8671 0.69068-1.8574 0.80928 0.32024 3.9245 1.235 1.7668 2.5524 3.2201 2.9274 3.2296 0.37505 0.01 1.6826-1.3881 2.9057-3.1058zm6.4124-20.346c-3.1375-2.5718-5.5-3.2306-5.5-1.5339 0 0.9474 5.3738 3.7534 7.5 3.9163 0.55 0.04213-0.35-1.03-2-2.3825zm-16.649 0.37118c3.0463-1.062 3.9519-2.2881 2.3987-3.248-0.41277-0.25511-2.1003 0.6161-3.75 1.936-3.3682 2.6948-3.1694 2.8879 1.3513 1.312zm17.866-7.1485c-2.9192-0.98846-6.2011-0.346-5.3411 1.0455 0.27647 0.44734 2.2175 0.60713 4.3134 0.35508l3.8107-0.45827zm-15.967-0.0037c-0.22916-0.6875-0.71666-1.1375-1.0833-1-0.36667 0.1375-1.8182 0.25-3.2257 0.25-1.4514 0-2.2915 0.43284-1.941 1 0.92932 1.5037 6.7569 1.2706 6.25-0.25zm0.32044-4.25c0.0387-0.55-1.4238-1.6058-3.25-2.3463l-3.3204-1.3463 2.4424 2.6155c2.4214 2.593 3.9924 3.0029 4.1281 1.0771zm14.43-0.5c2.0411-2.2554 1.7322-2.419-1.9349-1.0248-1.4108 0.53639-2.5651 1.4364-2.5651 2 0 1.7083 2.5769 1.1498 4.5-0.97525zm-43.5 55.517c0-2.7726 6.8287-11.835 12.696-16.85 2.0927-1.7885 2.1734-1.7795 3.324 0.37035 1.0644 1.9889 0.63303 2.7552-4.4333 7.875-5.1962 5.251-11.587 9.9966-11.587 8.6044zm63.41-2.3915c-2.1503-1.5888-5.8655-4.9156-8.2559-7.3929-3.8826-4.0236-4.2198-4.7405-3.1606-6.7196l1.1857-2.2155 3.0839 2.8514c1.6962 1.5683 4.1425 3.9764 5.4364 5.3514 2.5831 2.7451 6.6818 9.9524 6.0303 10.604-0.22555 0.22554-2.1694-0.88986-4.3198-2.4787zm-62.66-53.21c-2.3642-1.377-2.2136-2.4455 0.92424-6.5594l2.6742-3.5061-5.8545-5.2362c-4.2448-3.7966-5.6761-5.7011-5.2056-6.9272 1.0973-2.8594 3.0147-1.8197 8.0329 4.3557l4.8212 5.9331 3.9012-3.1351c3.2523-2.6136 4.1553-2.9243 5.4288-1.8674 2.302 1.908 1.856 4.021-0.85 4.021-2.7822 0-4.1944 1.4465-5.1572 5.2825-0.5145 2.0499-1.0165 2.5049-1.9286 1.7479-1.8189-1.5095-4.9095 2.2195-4.0594 4.8979 0.72107 2.2719-0.0486 2.5517-2.7273 0.99156zm63.773-0.99156c0.8501-2.6784-2.2405-6.4075-4.0594-4.8979-0.91211 0.75698-1.4141 0.30201-1.9286-1.7479-0.963-3.835-2.375-5.282-5.157-5.282-2.7054 0-3.1518-2.1126-0.85006-4.0228 1.2734-1.0568 2.1764-0.74621 5.4288 1.8674l3.9012 3.1351 4.8212-5.9331c5.0182-6.1754 6.9356-7.2151 8.0329-4.3557 0.47048 1.226-0.96076 3.1306-5.2056 6.9272l-5.8545 5.2362 2.6742 3.5061c3.1845 4.1751 3.303 5.2327 0.73997 6.6044-2.7928 1.4947-3.283 1.2949-2.543-1.0365z"/>
</svg>
