<?xml version="1.0" encoding="UTF-8" standalone="no"?>
<!-- Created with Inkscape (http://www.inkscape.org/) -->

<svg
   xmlns:dc="http://purl.org/dc/elements/1.1/"
   xmlns:cc="http://creativecommons.org/ns#"
   xmlns:rdf="http://www.w3.org/1999/02/22-rdf-syntax-ns#"
   xmlns:svg="http://www.w3.org/2000/svg"
   xmlns="http://www.w3.org/2000/svg"
   xmlns:xlink="http://www.w3.org/1999/xlink"
   xmlns:sodipodi="http://sodipodi.sourceforge.net/DTD/sodipodi-0.dtd"
   xmlns:inkscape="http://www.inkscape.org/namespaces/inkscape"
   id="svg3449"
   height="128"
   width="128"
   version="1.0"
   inkscape:version="0.48.4 r9939"
   sodipodi:docname="google-translate.svg">
  <sodipodi:namedview
     pagecolor="#ffffff"
     bordercolor="#666666"
     borderopacity="1"
     objecttolerance="10"
     gridtolerance="10"
     guidetolerance="10"
     inkscape:pageopacity="0"
     inkscape:pageshadow="2"
     inkscape:window-width="1360"
     inkscape:window-height="707"
     id="namedview54"
     showgrid="false"
     inkscape:zoom="1.84375"
     inkscape:cx="-54.462927"
     inkscape:cy="26.018322"
     inkscape:window-x="-2"
     inkscape:window-y="33"
     inkscape:window-maximized="1"
     inkscape:current-layer="svg3449" />
  <metadata
     id="metadata56">
    <rdf:RDF>
      <cc:Work
         rdf:about="">
        <dc:format>image/svg+xml</dc:format>
        <dc:type
           rdf:resource="http://purl.org/dc/dcmitype/StillImage" />
        <dc:title></dc:title>
      </cc:Work>
    </rdf:RDF>
  </metadata>
  <defs
     id="defs3451">
    <linearGradient
       id="linearGradient3514"
       y2="-9.1034"
       gradientUnits="userSpaceOnUse"
       x2="66.492"
       gradientTransform="matrix(.96826 0 0 .97948 2.179 .16587)"
       y1="-42.638"
       x1="67.952">
      <stop
         id="stop4620"
         style="stop-color:#37414b"
         offset="0" />
      <stop
         id="stop4622"
         style="stop-color:#37414b;stop-opacity:0"
         offset="1" />
    </linearGradient>
    <linearGradient
       id="linearGradient3516"
       y2="-11.847"
       gradientUnits="userSpaceOnUse"
       x2="58.98"
       gradientTransform="matrix(.96826 0 0 .97948 2.179 .16587)"
       y1="-118.55"
       x1="57.173">
      <stop
         id="stop4596"
         offset="0" />
      <stop
         id="stop4598"
         style="stop-opacity:0"
         offset="1" />
    </linearGradient>
    <linearGradient
       id="linearGradient3519"
       y2="50.369"
       gradientUnits="userSpaceOnUse"
       x2="76.558"
       gradientTransform="matrix(.96826 0 0 .97948 3.2423 -129.19)"
       y1="13.164"
       x1="76.558">
      <stop
         id="stop3392"
         style="stop-color:#425e7b"
         offset="0" />
      <stop
         id="stop3394"
         style="stop-color:#7a91a7"
         offset="1" />
    </linearGradient>
    <linearGradient
       id="linearGradient3521"
       y2="-8.7399"
       gradientUnits="userSpaceOnUse"
       x2="60.217"
       gradientTransform="matrix(.96826 0 0 .97948 2.179 .16587)"
       y1="-123.72"
       x1="60.395">
      <stop
         id="stop3392-4-8"
         style="stop-color:#425e7b"
         offset="0" />
      <stop
         id="stop3394-8-0"
         style="stop-color:#7a91a7"
         offset="1" />
    </linearGradient>
    <radialGradient
       id="radialGradient3349"
       gradientUnits="userSpaceOnUse"
       cy="45.647"
       cx="42.148"
       gradientTransform="matrix(.94690 0 0 1.139 3.5954 -29.89)"
       r="58.984">
      <stop
         id="stop44117"
         style="stop-color:#fff"
         offset="0" />
      <stop
         id="stop44119"
         style="stop-color:#eaeaea"
         offset="1" />
    </radialGradient>
    <linearGradient
       id="linearGradient11406"
       y2="19.812"
       gradientUnits="userSpaceOnUse"
       x2="15.25"
       gradientTransform="matrix(2.6667 0 0 4.341 -1.4969e-7 -5.0231)"
       y1="8.4375"
       x1="12.938">
      <stop
         id="stop6594-0-2"
         style="stop-color:#fff;stop-opacity:.27451"
         offset="0" />
      <stop
         id="stop6596-2-5"
         style="stop-color:#fff;stop-opacity:0"
         offset="1" />
    </linearGradient>
    <filter
       id="filter3174"
       color-interpolation-filters="sRGB">
      <feGaussianBlur
         id="feGaussianBlur3176"
         stdDeviation="1.71" />
    </filter>
    <linearGradient
       id="ButtonShadow-4"
       x1="45.448"
       gradientUnits="userSpaceOnUse"
       y1="92.54"
       gradientTransform="scale(1.0059 .99417)"
       x2="45.448"
       y2="7.0165">
      <stop
         id="stop3750-7"
         offset="0" />
      <stop
         id="stop3752-9"
         style="stop-opacity:.58824"
         offset="1" />
    </linearGradient>
    <filter
       id="filter3174-7"
       color-interpolation-filters="sRGB">
      <feGaussianBlur
         id="feGaussianBlur3176-1"
         stdDeviation="1.71" />
    </filter>
    <filter
       id="filter3174-0"
       color-interpolation-filters="sRGB">
      <feGaussianBlur
         id="feGaussianBlur3176-4"
         stdDeviation="1.71" />
    </filter>
    <linearGradient
       inkscape:collect="always"
       xlink:href="#linearGradient3879"
       id="linearGradient3132"
       gradientUnits="userSpaceOnUse"
       gradientTransform="matrix(1.0925926,0,0,1.0925926,-550.6032,-19.547485)"
       x1="259.99384"
       y1="44"
       x2="259.99384"
       y2="464" />
    <linearGradient
       id="linearGradient3879"
       gradientUnits="userSpaceOnUse"
       x1="200.0508"
       y1="185.0742"
       x2="200.0508"
       y2="217.4595">
      <stop
         offset="0"
         style="stop-color:#69be5b;stop-opacity:1;"
         id="stop3881" />
      <stop
         id="stop3883"
         style="stop-color:#0b9f4e;stop-opacity:1"
         offset="0.5" />
      <stop
         offset="1"
         style="stop-color:#69be5a;stop-opacity:1;"
         id="stop3885" />
    </linearGradient>
    <linearGradient
       y2="464"
       x2="259.99384"
       y1="44"
       x1="259.99384"
       gradientTransform="matrix(0.22424488,0,0,0.22424488,-101.54811,7.446341)"
       gradientUnits="userSpaceOnUse"
       id="linearGradient3167"
       xlink:href="#linearGradient3879"
       inkscape:collect="always" />
  </defs>
  <rect
     id="rect892"
     style="stroke:url(#linearGradient3521);stroke-width:.97385;fill:url(#linearGradient3519)"
     transform="scale(1,-1)"
     ry="29.296"
     height="115.54"
     width="114.22"
     y="-122.25"
     x="7.0394" />
  <rect
     id="rect892-2"
     style="stroke:url(#linearGradient3516);stroke-width:.97385;fill:url(#linearGradient3514)"
     transform="scale(1,-1)"
     ry="28.993"
     height="114.35"
     width="114.22"
     y="-121.46"
     x="7.0599" />
  <path
     id="rect895"
     style="fill:url(#radialGradient3349)"
     d="m33.051 7.2596c-7.969-2.4493-27.013 15.174-25.653 23.038-0.050142 0.97378-0.088772 1.9648-0.088772 2.9572v52.419c0 20.876 10.712 33.859 22.318 33.859h67.038c12.638 0 24.318-11.245 24.318-25.859v-64.017c0.7-10.928-21.283-24.659-25.926-22.618-47.846 0.8653-18.017 0.2236-62.003 0.2236z" />
  <path
     id="rect6588"
     d="m7.2651 40.702c-3.6107-28.823 22.731-33.361 32.668-33.437l55.816 0.735c21.091 2.903 26.611 16.187 24.251 34.728l-112 30.388z"
     style="fill:url(#linearGradient11406)" />
  <rect
     id="rect892-2-7-8"
     style="opacity:.15891;stroke:#000;stroke-width:4.8445;fill:none"
     transform="scale(1,-1)"
     ry="28.993"
     height="114.35"
     width="114.22"
     y="-121.16"
     x="6.8687" />
  <rect
     id="rect892-2-7-1"
     style="opacity:.15891;stroke:#000;stroke-width:7.7512;fill:none"
     transform="scale(1,-1)"
     ry="28.993"
     height="114.35"
     width="114.22"
     y="-121.16"
     x="6.8687" />
  <rect
     id="rect892-2-7-2-9"
     ry="28.067"
     style="stroke:#000;stroke-width:1.0489;fill:none"
     transform="scale(1,-1)"
     height="112.71"
     width="114.14"
     y="-120.31"
     x="7.0649" />
  <path
     id="path1187"
     style="fill:#fff;fill-opacity:.057143"
     d="m33.017 7.2319c-23.707 0-26.027 0.6738-25.93 26.295-0.04334 0.71563-0.07674 1.4439-0.07674 2.1732v32.76c18.67-38.321 38.34-51.497 90.374-61.179-0.225-0.026-0.46-0.0303-0.691-0.0303-41.576 0.3874-25.652-0.0188-63.676-0.0188z" />
  <g
     id="layer2"
     style="display:none"
     transform="matrix(1.2166 0 0 1.2299 5.6049 3.1187)">
    <rect
       id="rect3745"
       style="opacity:.9;filter:url(#filter3174);fill:url(#ButtonShadow-4)"
       rx="6"
       ry="6"
       height="85"
       width="86"
       y="7"
       x="5" />
  </g>
  <g
     id="layer2-6"
     style="display:none"
     transform="matrix(1.2166 0 0 1.2299 5.6049 3.1187)">
    <rect
       id="rect3745-8"
       style="opacity:.9;filter:url(#filter3174-7);fill:url(#ButtonShadow-4)"
       rx="6"
       ry="6"
       height="85"
       width="86"
       y="7"
       x="5" />
  </g>
  <g
     id="layer2-69"
     style="display:none"
     transform="matrix(1.2166 0 0 1.2299 5.6049 3.1187)">
    <rect
       id="rect3745-4"
       style="opacity:.9;filter:url(#filter3174-0);fill:url(#ButtonShadow-4)"
       rx="6"
       ry="6"
       height="85"
       width="86"
       y="7"
       x="5" />
  </g>
  <path
     inkscape:connector-curvature="0"
     style="color:#000000;fill:url(#linearGradient3167);fill-opacity:1;fill-rule:nonzero;stroke:none;stroke-width:1.5;marker:none;visibility:visible;display:inline;overflow:visible;enable-background:accumulate"
     d="m 39.339002,21.72034 c -9.759554,0 -17.618662,7.859108 -17.618662,17.618664 l 0,4.130476 0,45.191517 c 0,9.759553 7.859108,17.618663 17.618662,17.618663 l 49.321996,0 c 9.759556,0 17.618662,-7.85911 17.618662,-17.618663 l 0,-45.191517 0,-4.130476 c 0,-9.759556 -7.859106,-17.618664 -17.618662,-17.618664 l -49.321996,0 z"
     id="path3129" />
  <path
     id="path44"
     d="m 51.38997,42.494911 c -0.834221,-1.993547 -1.473239,-2.061115 -2.761872,-2.12183 -0.441972,-0.02098 -0.921237,-0.04108 -1.445615,-0.04108 -1.660163,0 -3.381554,0.484807 -4.418809,1.537049 -1.262385,1.280495 -4.418808,4.279716 -4.418808,10.437947 0,6.159139 4.523778,12.110572 5.154051,12.945977 0.632111,0.834486 8.82288,13.65812 21.566428,18.893758 9.946693,4.085249 12.900088,3.721414 15.169341,3.229304 3.301905,-0.714888 7.44816,-3.126142 8.500148,-6.047761 1.051984,-2.923445 1.051984,-5.429189 0.736624,-5.949604 -0.315826,-0.522696 -1.15742,-0.834492 -2.419802,-1.462181 -1.262384,-0.625863 -7.469804,-3.653851 -8.626758,-4.070643 -1.157419,-0.417238 -2.227357,-0.289878 -3.117288,0.930358 -1.228318,1.685867 -2.409674,3.418297 -3.388,4.445427 -0.767926,0.806186 -2.003612,0.918485 -3.066186,0.470658 -1.397279,-0.590261 -5.330378,-1.949271 -10.152945,-6.2121 -3.752167,-3.316951 -6.286144,-7.414523 -7.022769,-8.668081 -0.736616,-1.251732 -0.06491,-1.999029 0.50275,-2.680132 0.647308,-0.777422 1.24443,-1.335727 1.875623,-2.065679 0.631187,-0.731318 0.983847,-1.120714 1.404645,-1.957027 0.420791,-0.834486 0.137651,-1.69591 -0.178174,-2.322687 -0.316285,-0.626782 -2.84382,-6.784094 -3.892584,-9.291668 z"
     clip-rule="evenodd"
     inkscape:connector-curvature="0"
     style="fill:#ffffff;fill-rule:evenodd" />
</svg>
