<?xml version="1.0" encoding="UTF-8" standalone="no"?>
<!-- Created with Inkscape (http://www.inkscape.org/) -->

<svg
   xmlns:dc="http://purl.org/dc/elements/1.1/"
   xmlns:cc="http://creativecommons.org/ns#"
   xmlns:rdf="http://www.w3.org/1999/02/22-rdf-syntax-ns#"
   xmlns:svg="http://www.w3.org/2000/svg"
   xmlns="http://www.w3.org/2000/svg"
   xmlns:xlink="http://www.w3.org/1999/xlink"
   xmlns:sodipodi="http://sodipodi.sourceforge.net/DTD/sodipodi-0.dtd"
   xmlns:inkscape="http://www.inkscape.org/namespaces/inkscape"
   id="svg4511"
   height="48px"
   width="48px"
   version="1.1"
   inkscape:version="0.48.4 r9939"
   sodipodi:docname="winusb.svg">
  <sodipodi:namedview
     pagecolor="#ffffff"
     bordercolor="#666666"
     borderopacity="1"
     objecttolerance="10"
     gridtolerance="10"
     guidetolerance="10"
     inkscape:pageopacity="0"
     inkscape:pageshadow="2"
     inkscape:window-width="642"
     inkscape:window-height="480"
     id="namedview131"
     showgrid="false"
     inkscape:zoom="4.9166667"
     inkscape:cx="24"
     inkscape:cy="24"
     inkscape:window-x="0"
     inkscape:window-y="35"
     inkscape:window-maximized="0"
     inkscape:current-layer="svg4511" />
  <defs
     id="defs4513">
    <filter
       id="filter3174"
       color-interpolation-filters="sRGB">
      <feGaussianBlur
         id="feGaussianBlur3176"
         stdDeviation="1.71" />
    </filter>
    <linearGradient
       id="linearGradient3254"
       y2="7.0165"
       gradientUnits="userSpaceOnUse"
       x2="45.448"
       gradientTransform="matrix(1.0059,0,0,0.99417,-175.86,-30.712)"
       y1="92.54"
       x1="45.448">
      <stop
         id="stop3750"
         offset="0" />
      <stop
         id="stop3752"
         style="stop-opacity:.58824"
         offset="1" />
    </linearGradient>
    <filter
       id="filter3174-7"
       color-interpolation-filters="sRGB">
      <feGaussianBlur
         id="feGaussianBlur3176-58"
         stdDeviation="1.71" />
    </filter>
    <linearGradient
       id="linearGradient8374"
       y2="7.0165"
       gradientUnits="userSpaceOnUse"
       x2="45.448"
       gradientTransform="matrix(1.0059,0,0,0.99417,108.29,-24.643)"
       y1="92.54"
       x1="45.448">
      <stop
         id="stop3750-50"
         offset="0" />
      <stop
         id="stop3752-42"
         style="stop-opacity:.58824"
         offset="1" />
    </linearGradient>
    <filter
       id="filter3174-41"
       color-interpolation-filters="sRGB">
      <feGaussianBlur
         id="feGaussianBlur3176-9"
         stdDeviation="1.71" />
    </filter>
    <linearGradient
       id="ButtonShadow-6"
       x1="45.448"
       gradientUnits="userSpaceOnUse"
       y1="92.54"
       gradientTransform="scale(1.0059 .99417)"
       x2="45.448"
       y2="7.0165">
      <stop
         id="stop3750-9"
         offset="0" />
      <stop
         id="stop3752-33"
         style="stop-opacity:.58824"
         offset="1" />
    </linearGradient>
    <filter
       id="filter3174-57"
       color-interpolation-filters="sRGB">
      <feGaussianBlur
         id="feGaussianBlur3176-42"
         stdDeviation="1.71" />
    </filter>
    <filter
       id="filter3174-76"
       color-interpolation-filters="sRGB">
      <feGaussianBlur
         id="feGaussianBlur3176-51"
         stdDeviation="1.71" />
    </filter>
    <filter
       id="filter3174-3"
       color-interpolation-filters="sRGB">
      <feGaussianBlur
         id="feGaussianBlur3176-47"
         stdDeviation="1.71" />
    </filter>
    <filter
       id="filter3174-65"
       color-interpolation-filters="sRGB">
      <feGaussianBlur
         id="feGaussianBlur3176-0"
         stdDeviation="1.71" />
    </filter>
    <linearGradient
       id="linearGradient10848"
       y2="-23.714"
       gradientUnits="userSpaceOnUse"
       x2="46.689"
       y1="-23.714"
       x1="2">
      <stop
         id="stop4329"
         style="stop-color:#f0f0f0"
         offset="0" />
      <stop
         id="stop4331"
         style="stop-color:#b4b4b4"
         offset="1" />
    </linearGradient>
    <linearGradient
       id="linearGradient10968"
       y2="7.0165"
       gradientUnits="userSpaceOnUse"
       x2="45.448"
       gradientTransform="matrix(1.0059,0,0,0.99417,88.061,-64.071)"
       y1="92.54"
       x1="45.448">
      <stop
         id="stop3750-53"
         offset="0" />
      <stop
         id="stop3752-85"
         style="stop-opacity:.58824"
         offset="1" />
    </linearGradient>
    <linearGradient
       id="linearGradient4327-0">
      <stop
         id="stop4329-1"
         style="stop-color:#f0f0f0"
         offset="0" />
      <stop
         id="stop4331-2"
         style="stop-color:#b4b4b4"
         offset="1" />
    </linearGradient>
    <linearGradient
       id="linearGradient11027"
       y2="-23.714"
       xlink:href="#linearGradient4327-0"
       gradientUnits="userSpaceOnUse"
       y1="-23.714"
       gradientTransform="translate(0.084022,0.11383)"
       x2="46.689"
       x1="2" />
    <linearGradient
       id="linearGradient11061"
       y2="-23.714"
       gradientUnits="userSpaceOnUse"
       y1="-23.714"
       gradientTransform="translate(0.037143,-2.7143)"
       x2="46.689"
       x1="2">
      <stop
         id="stop4629"
         style="stop-color:#5e89d8"
         offset="0" />
      <stop
         id="stop4633"
         style="stop-color:#5e89d8"
         offset="1" />
    </linearGradient>
    <linearGradient
       id="linearGradient11086"
       y2="-24.286"
       gradientUnits="userSpaceOnUse"
       x2="46.327"
       gradientTransform="translate(0.39955,0)"
       y1="-24.286"
       x1="1.5305">
      <stop
         id="stop3226"
         style="stop-color:#4d6490"
         offset="0" />
      <stop
         id="stop3228"
         style="stop-color:#4d6490"
         offset="1" />
    </linearGradient>
    <linearGradient
       id="linearGradient11109"
       y2="-23.714"
       xlink:href="#linearGradient4327-0"
       gradientUnits="userSpaceOnUse"
       y1="-23.714"
       gradientTransform="translate(0.35675,0.6227)"
       x2="46.689"
       x1="2" />
    <linearGradient
       id="linearGradient11134"
       y2="-21.458"
       xlink:href="#linearGradient4327-0"
       gradientUnits="userSpaceOnUse"
       x2="46.773"
       y1="-21.458"
       x1="1.9769" />
    <linearGradient
       id="linearGradient11142"
       y2="-23.714"
       xlink:href="#linearGradient4327-0"
       gradientUnits="userSpaceOnUse"
       x2="46.689"
       y1="-23.714"
       x1="2" />
    <linearGradient
       id="linearGradient11150"
       y2="-19.535"
       gradientUnits="userSpaceOnUse"
       x2="47.046"
       y1="-19.535"
       x1="2.7547">
      <stop
         id="stop3599"
         style="stop-color:#dcdcdc"
         offset="0" />
      <stop
         id="stop3601"
         style="stop-color:#f5f5f5"
         offset="1" />
    </linearGradient>
    <filter
       id="filter3174-34"
       color-interpolation-filters="sRGB">
      <feGaussianBlur
         id="feGaussianBlur3176-01"
         stdDeviation="1.71" />
    </filter>
    <linearGradient
       id="linearGradient4603"
       y2="7.0165"
       gradientUnits="userSpaceOnUse"
       x2="45.448"
       gradientTransform="matrix(1.0059,0,0,0.99417,-25.979,57.897)"
       y1="92.54"
       x1="45.448">
      <stop
         id="stop3750-96"
         offset="0" />
      <stop
         id="stop3752-39"
         style="stop-opacity:.58824"
         offset="1" />
    </linearGradient>
    <filter
       id="filter3174-2"
       color-interpolation-filters="sRGB">
      <feGaussianBlur
         id="feGaussianBlur3176-44"
         stdDeviation="1.71" />
    </filter>
    <linearGradient
       id="linearGradient4702"
       y2="85.062"
       gradientUnits="userSpaceOnUse"
       x2="20.179"
       y1="85.062"
       x1="16">
      <stop
         id="stop3378"
         style="stop-color:#767676"
         offset="0" />
      <stop
         id="stop3380"
         style="stop-color:#fdfdfd"
         offset="1" />
    </linearGradient>
    <radialGradient
       id="radialGradient4704"
       gradientUnits="userSpaceOnUse"
       cy="85.062"
       cx="18.089"
       gradientTransform="matrix(1,0,0,1.0043,0,-0.36352)"
       r="2.0893">
      <stop
         id="stop3368"
         style="stop-color:#c1ff97"
         offset="0" />
      <stop
         id="stop3370"
         style="stop-color:#30c700"
         offset="1" />
    </radialGradient>
    <linearGradient
       id="linearGradient4706"
       y2="88.011"
       gradientUnits="userSpaceOnUse"
       x2="67.071"
       gradientTransform="matrix(1,0,0,-1,-15.859,216.46)"
       y1="80"
       x1="67.071">
      <stop
         id="stop3739-88"
         style="stop-color:#fff"
         offset="0" />
      <stop
         id="stop3741-16"
         style="stop-color:#fff;stop-opacity:0"
         offset="1" />
    </linearGradient>
    <linearGradient
       id="linearGradient4708"
       y2="88.011"
       gradientUnits="userSpaceOnUse"
       x2="67.071"
       gradientTransform="translate(-15.859,48.458)"
       y1="80"
       x1="67.071">
      <stop
         id="stop4227"
         offset="0" />
      <stop
         id="stop4229"
         style="stop-color:#484848"
         offset="1" />
    </linearGradient>
    <filter
       id="filter4180-8"
       height="3.8298"
       width="1.2289"
       color-interpolation-filters="sRGB"
       y="-1.4149"
       x="-.11445">
      <feGaussianBlur
         id="feGaussianBlur4182-1"
         stdDeviation="3.5372897" />
    </filter>
    <radialGradient
       id="radialGradient4138-7"
       cx="48"
       gradientUnits="userSpaceOnUse"
       cy="84"
       r="30"
       gradientTransform="matrix(1.0667 0 0 .066667 -3.2 77.4)">
      <stop
         id="stop3315-1"
         style="stop-color:#4dbeff"
         offset="0" />
      <stop
         id="stop4186-5"
         style="stop-color:#1379ff;stop-opacity:.65041"
         offset=".67213" />
      <stop
         id="stop3317-6"
         style="stop-color:#06f;stop-opacity:0"
         offset="1" />
    </radialGradient>
    <filter
       id="filter3174-1"
       color-interpolation-filters="sRGB">
      <feGaussianBlur
         id="feGaussianBlur3176-512"
         stdDeviation="1.71" />
    </filter>
    <filter
       id="filter3536"
       height="1.2868"
       width="1.4834"
       color-interpolation-filters="sRGB"
       y="-.14339"
       x="-.24171">
      <feGaussianBlur
         id="feGaussianBlur3538"
         stdDeviation="3.525" />
    </filter>
    <clipPath
       id="clipPath3520">
      <path
         id="path3522"
         d="m9.9375 33.688c-3.2233 0-5.8438 1.784-5.8438 4v67.719c0 2.216 2.6205 4 5.8438 4h77.625c3.2233 0 5.8438-1.784 5.8438-4v-67.719c0-2.216-2.6205-4-5.8438-4h-77.625zm37.968 8.312c3.4319 0 6.2188 2.1981 6.2188 4.9375 0 2.1817-1.7642 4.0541-4.2188 4.7188v3.5625c0.01488 0.49755 0.29869 1.0673 0.6875 1.4688 0.09978 0.07533 8.1924 6.2001 8.2188 6.2188 0.0084 0.0065 0.02327-0.0068 0.03125 0 0.02396 0.01835 0.04599 0.04881 0.0625 0.0625 0.0042 0.0036 0.02447-0.006 0.03125 0 0.0068 0.006 0.03104 0.06226 0.03125 0.0625 0.000026 0.000029 0.06248 0.06248 0.0625 0.0625 0 0 0.000001 0.03125 0 0.03125 0.01173 0.01044 0.01956 0.02072 0.03125 0.03125 1.0961 0.9886 2 2.3551 2 3.8125v4.0938c1.724 0.628 2.938 2.024 2.938 3.657 0 2.2201-2.2042 4.0313-4.9375 4.0312-2.7333 0-4.9688-1.8111-4.9688-4.0312 0-1.6554 1.2361-3.0718 3-3.6875-0.000235-1.0474-0.000001-2.3794 0-4.0938-0.01444-0.49788-0.29736-1.0345-0.6875-1.4375l-6.5-4.9375v28.125h4.4688l-6.375 9.312-6.375-9.3125h4.3125v-21.969l-6.5312 4.9375c-0.3949 0.40606-0.67319 0.90899-0.6875 1.4062v3.8125h2.8125v7.9062h-9.5312v-7.9062h2.7812v-3.75c0-1.4421 0.88924-2.7945 1.9688-3.7812 0 0 0.0213-0.01152 0.03125-0.03125 0.0043-0.0039-0.0044-0.02734 0-0.03125l0.03125-0.03125c0.000015-0.000021 0.03122-0.03122 0.03125-0.03125 0.000203-0.000243 0.05499-0.08694 0.0625-0.09375 0.0047-0.004-0.0046-0.02742 0-0.03125 0.01531-0.01278 0.07133-0.01367 0.09375-0.03125 0.0079-0.01061 0.02312-0.02513 0.03125-0.03125 0.01626-0.01224 0.03151-0.0079 0.0625-0.03125 0.06197-0.04673 0.16688-0.13246 0.28125-0.21875 0.22873-0.17257 0.51658-0.42467 0.90625-0.71875 0.77935-0.58816 1.8392-1.3432 2.875-2.125 2.0463-1.5445 4.0441-3.0875 4.0938-3.125 0.39272-0.40316 0.67163-0.90931 0.6875-1.4062v-6.1562c-0.003-0.04389-0.000459-0.02213 0-0.03125 0.000459-0.0091-0.000001-0.03827 0-0.03125v-3.5312c-2.454-0.665-4.248-2.537-4.248-4.719 0-2.74 2.785-4.938 6.218-4.938z"
         style="fill:#fff" />
    </clipPath>
    <filter
       id="filter4180-5"
       height="3.8298"
       width="1.2289"
       color-interpolation-filters="sRGB"
       y="-1.4149"
       x="-.11445">
      <feGaussianBlur
         id="feGaussianBlur4182-16"
         stdDeviation="3.5372897" />
    </filter>
    <filter
       id="filter3174-10"
       color-interpolation-filters="sRGB">
      <feGaussianBlur
         id="feGaussianBlur3176-017"
         stdDeviation="1.71" />
    </filter>
    <linearGradient
       id="linearGradient5775"
       y2="62.971"
       gradientUnits="userSpaceOnUse"
       x2="24.668"
       gradientTransform="matrix(0,0.67664,-0.84794,0,101.4,-4.6916)"
       y1="62.971"
       x1="105.56">
      <stop
         id="stop3769-4"
         style="stop-color:#4d4d4d;stop-opacity:.70732"
         offset="0" />
      <stop
         id="stop3771-0"
         style="stop-color:#4d4d4d;stop-opacity:.25203"
         offset="1" />
    </linearGradient>
    <linearGradient
       inkscape:collect="always"
       xlink:href="#ButtonShadow-6"
       id="linearGradient3108"
       gradientUnits="userSpaceOnUse"
       gradientTransform="scale(1.0059,0.99417)"
       x1="45.448"
       y1="92.54"
       x2="45.448"
       y2="7.0165" />
    <linearGradient
       inkscape:collect="always"
       xlink:href="#ButtonShadow-6"
       id="linearGradient3110"
       gradientUnits="userSpaceOnUse"
       gradientTransform="scale(1.0059,0.99417)"
       x1="45.448"
       y1="92.54"
       x2="45.448"
       y2="7.0165" />
    <linearGradient
       inkscape:collect="always"
       xlink:href="#ButtonShadow-6"
       id="linearGradient3112"
       gradientUnits="userSpaceOnUse"
       gradientTransform="scale(1.0059,0.99417)"
       x1="45.448"
       y1="92.54"
       x2="45.448"
       y2="7.0165" />
    <linearGradient
       inkscape:collect="always"
       xlink:href="#ButtonShadow-6"
       id="linearGradient3114"
       gradientUnits="userSpaceOnUse"
       gradientTransform="scale(1.0059,0.99417)"
       x1="45.448"
       y1="92.54"
       x2="45.448"
       y2="7.0165" />
    <linearGradient
       inkscape:collect="always"
       xlink:href="#ButtonShadow-6"
       id="linearGradient3116"
       gradientUnits="userSpaceOnUse"
       gradientTransform="scale(1.0059,0.99417)"
       x1="45.448"
       y1="92.54"
       x2="45.448"
       y2="7.0165" />
    <linearGradient
       inkscape:collect="always"
       xlink:href="#ButtonShadow-6"
       id="linearGradient3118"
       gradientUnits="userSpaceOnUse"
       gradientTransform="scale(1.0059,0.99417)"
       x1="45.448"
       y1="92.54"
       x2="45.448"
       y2="7.0165" />
    <radialGradient
       inkscape:collect="always"
       xlink:href="#radialGradient4138-7"
       id="radialGradient3120"
       gradientUnits="userSpaceOnUse"
       gradientTransform="matrix(1.0667,0,0,0.066667,-3.2,77.4)"
       cx="48"
       cy="84"
       r="30" />
    <linearGradient
       inkscape:collect="always"
       xlink:href="#ButtonShadow-6"
       id="linearGradient3122"
       gradientUnits="userSpaceOnUse"
       gradientTransform="scale(1.0059,0.99417)"
       x1="45.448"
       y1="92.54"
       x2="45.448"
       y2="7.0165" />
    <radialGradient
       inkscape:collect="always"
       xlink:href="#radialGradient4138-7"
       id="radialGradient3124"
       gradientUnits="userSpaceOnUse"
       gradientTransform="matrix(1.0667,0,0,0.066667,-3.2,77.4)"
       cx="48"
       cy="84"
       r="30" />
    <linearGradient
       inkscape:collect="always"
       xlink:href="#linearGradient4327-0"
       id="linearGradient3153"
       gradientUnits="userSpaceOnUse"
       gradientTransform="translate(0.35675,0.6227)"
       x1="2"
       y1="-23.714"
       x2="46.689"
       y2="-23.714" />
    <linearGradient
       inkscape:collect="always"
       xlink:href="#linearGradient11150"
       id="linearGradient3155"
       gradientUnits="userSpaceOnUse"
       x1="2.7547"
       y1="-19.535"
       x2="47.046"
       y2="-19.535" />
    <linearGradient
       inkscape:collect="always"
       xlink:href="#linearGradient4327-0"
       id="linearGradient3158"
       gradientUnits="userSpaceOnUse"
       gradientTransform="translate(0.084022,0.11383)"
       x1="2"
       y1="-23.714"
       x2="46.689"
       y2="-23.714" />
    <linearGradient
       inkscape:collect="always"
       xlink:href="#linearGradient4327-0"
       id="linearGradient3160"
       gradientUnits="userSpaceOnUse"
       x1="1.9769"
       y1="-21.458"
       x2="46.773"
       y2="-21.458" />
    <linearGradient
       inkscape:collect="always"
       xlink:href="#linearGradient11061"
       id="linearGradient3163"
       gradientUnits="userSpaceOnUse"
       gradientTransform="translate(0.037143,-2.7143)"
       x1="2"
       y1="-23.714"
       x2="46.689"
       y2="-23.714" />
    <linearGradient
       inkscape:collect="always"
       xlink:href="#linearGradient11086"
       id="linearGradient3165"
       gradientUnits="userSpaceOnUse"
       gradientTransform="translate(0.39955,0)"
       x1="1.5305"
       y1="-24.286"
       x2="46.327"
       y2="-24.286" />
    <linearGradient
       inkscape:collect="always"
       xlink:href="#linearGradient10848"
       id="linearGradient3179"
       gradientUnits="userSpaceOnUse"
       x1="2"
       y1="-23.714"
       x2="46.689"
       y2="-23.714" />
    <linearGradient
       inkscape:collect="always"
       xlink:href="#linearGradient4327-0"
       id="linearGradient3181"
       gradientUnits="userSpaceOnUse"
       x1="2"
       y1="-23.714"
       x2="46.689"
       y2="-23.714" />
  </defs>
  <metadata
     id="metadata4516">
    <rdf:RDF>
      <cc:Work
         rdf:about="">
        <dc:format>image/svg+xml</dc:format>
        <dc:type
           rdf:resource="http://purl.org/dc/dcmitype/StillImage" />
        <dc:title />
      </cc:Work>
    </rdf:RDF>
  </metadata>
  <rect
     x="2.5506001"
     y="-46.112"
     width="43.688999"
     height="43.688999"
     ry="10.607"
     transform="scale(1,-1)"
     style="opacity:0.52991004;fill:#333333;stroke:#000000"
     id="rect810-9" />
  <rect
     x="2.5"
     y="-45.558998"
     width="43.688999"
     height="43.688999"
     ry="10.607"
     transform="scale(1,-1)"
     style="fill:url(#linearGradient3179);stroke:url(#linearGradient3181)"
     id="rect810" />
  <rect
     x="-170.86"
     y="-23.712"
     width="86"
     height="85"
     ry="6"
     rx="6"
     style="opacity:0.9;fill:url(#linearGradient3254);display:none;filter:url(#filter3174)"
     id="rect3745" />
  <rect
     x="113.29"
     y="-17.643"
     width="86"
     height="85"
     ry="6"
     rx="6"
     style="opacity:0.9;fill:url(#linearGradient8374);display:none;filter:url(#filter3174-7)"
     id="rect3745-1" />
  <g
     transform="translate(-111.44,-124.36)"
     style="display:none"
     id="layer2">
    <rect
       x="5"
       y="7"
       width="86"
       height="85"
       ry="6"
       rx="6"
       style="opacity:0.9;fill:url(#linearGradient3108);filter:url(#filter3174-41)"
       id="rect3745-9" />
  </g>
  <g
     transform="translate(-218.05,-238.16)"
     style="display:none"
     id="layer2-7">
    <rect
       x="5"
       y="7"
       width="86"
       height="85"
       ry="6"
       rx="6"
       style="opacity:0.9;fill:url(#linearGradient3110);filter:url(#filter3174-57)"
       id="rect3745-2" />
  </g>
  <g
     transform="translate(-106.2,-48.076)"
     style="display:none"
     id="layer2-1">
    <path
       inkscape:connector-curvature="0"
       d="M 11,7 C 7.676,7 5,9.676 5,13 v 73 c 0,3.324 2.676,6 6,6 h 74 c 3.324,0 6,-2.676 6,-6 V 13 C 91,9.676 88.324,7 85,7 h -5 v 2.5 c 1.4703,0.7406 2.5,2.2424 2.5,4 0,2.484 -2.016,4.5 -4.5,4.5 -2.484,0 -4.5,-2.016 -4.5,-4.5 0,-1.7576 1.0297,-3.2594 2.5,-4 V 7 h -8 v 2.5 c 1.4703,0.7406 2.5,2.2424 2.5,4 0,2.484 -2.016,4.5 -4.5,4.5 -2.484,0 -4.5,-2.016 -4.5,-4.5 0,-1.7576 1.0297,-3.2594 2.5,-4 V 7 h -8 v 2.5 c 1.4703,0.7406 2.5,2.2424 2.5,4 0,2.484 -2.016,4.5 -4.5,4.5 -2.484,0 -4.5,-2.016 -4.5,-4.5 0,-1.7576 1.0297,-3.2594 2.5,-4 V 7 h -8 v 2.5 c 1.4703,0.7406 2.5,2.2424 2.5,4 0,2.484 -2.016,4.5 -4.5,4.5 -2.484,0 -4.5,-2.016 -4.5,-4.5 0,-1.7576 1.0297,-3.2594 2.5,-4 V 7 h -8 v 2.5 c 1.4703,0.7406 2.5,2.2424 2.5,4 0,2.484 -2.016,4.5 -4.5,4.5 -2.484,0 -4.5,-2.016 -4.5,-4.5 0,-1.7576 1.0297,-3.2594 2.5,-4 V 7 h -8 v 2.5 c 1.4703,0.7406 2.5,2.2424 2.5,4 0,2.484 -2.016,4.5 -4.5,4.5 -2.484,0 -4.5,-2.016 -4.5,-4.5 0,-1.7576 1.0297,-3.2594 2.5,-4 V 7 h -5 z"
       style="opacity:0.9;fill:url(#linearGradient3112);filter:url(#filter3174-76)"
       id="rect3745-24" />
  </g>
  <g
     transform="translate(28.835,-121.51)"
     style="display:none"
     id="layer2-0">
    <rect
       x="5"
       y="7"
       width="86"
       height="85"
       ry="6"
       rx="6"
       style="opacity:0.9;fill:url(#linearGradient3114);filter:url(#filter3174-3)"
       id="rect3745-5" />
  </g>
  <rect
     x="93.060997"
     y="-57.070999"
     width="86"
     height="85"
     ry="6"
     rx="6"
     style="opacity:0.9;fill:url(#linearGradient10968);display:none;filter:url(#filter3174-65)"
     id="rect3745-19" />
  <rect
     x="2.4300001"
     y="-43.987"
     width="43.796001"
     height="39.403"
     ry="10.607"
     transform="scale(1,-1)"
     style="fill:url(#linearGradient3163);stroke:url(#linearGradient3165)"
     id="rect810-4-0" />
  <rect
     x="2.4769001"
     y="-41.159"
     width="43.796001"
     height="39.403"
     ry="10.607"
     transform="scale(1,-1)"
     style="fill:url(#linearGradient3158);stroke:url(#linearGradient3160)"
     id="rect810-4" />
  <rect
     x="2.4466"
     y="-37.619999"
     width="44.098999"
     height="36.373001"
     ry="10.607"
     transform="scale(1,-1)"
     style="fill:url(#linearGradient3153);stroke:url(#linearGradient3155)"
     id="rect810-4-8" />
  <rect
     x="-20.979"
     y="64.897003"
     width="86"
     height="85"
     ry="6"
     rx="6"
     style="opacity:0.9;fill:url(#linearGradient4603);display:none;filter:url(#filter3174-34)"
     id="rect3745-51" />
  <g
     transform="translate(-13.859,48.458)"
     style="display:none"
     id="layer2-3">
    <rect
       x="5"
       y="7"
       width="86"
       height="85"
       ry="6"
       rx="6"
       style="opacity:0.9;fill:url(#linearGradient3116);filter:url(#filter3174-2)"
       id="rect3745-7" />
  </g>
  <g
     transform="matrix(0.25,0,0,0.25,15.095,6.9188)"
     id="g4674">
    <g
       transform="translate(-13.859,48.458)"
       id="g3318">
      <path
         inkscape:connector-curvature="0"
         d="m 20.179,85.062 a 2.0893,2.0982 0 1 1 -4.1786,0 2.0893,2.0982 0 1 1 4.1786,0 z"
         transform="matrix(0,1.6709,1.6638,0,-122.04,53.283)"
         style="fill:url(#linearGradient4702)"
         id="path3374" />
      <path
         inkscape:connector-curvature="0"
         d="m 20.179,85.062 a 2.0893,2.0982 0 1 1 -4.1786,0 2.0893,2.0982 0 1 1 4.1786,0 z"
         transform="matrix(1.1923,0,0,1.1872,-2.0769,-17.48)"
         style="fill:url(#radialGradient4704);stroke:#000000;stroke-width:0.8405;stroke-linecap:square;stroke-opacity:0.53182002"
         id="path3364" />
    </g>
    <path
       inkscape:connector-curvature="0"
       d="m 41.141,136.96 c -0.81756,0 -1.5,-0.68244 -1.5,-1.5 v -6 c 0,-0.81756 0.68244,-1.5 1.5,-1.5 0.81756,0 1.5,0.68244 1.5,1.5 v 6 c 0,0.81756 -0.68244,1.5 -1.5,1.5 z m 4,0 c -0.81756,0 -1.5,-0.68244 -1.5,-1.5 v -6 c 0,-0.81756 0.68244,-1.5 1.5,-1.5 0.81756,0 1.5,0.68244 1.5,1.5 v 6 c 0,0.81756 -0.68244,1.5 -1.5,1.5 z m 4,0 c -0.81756,0 -1.5,-0.68244 -1.5,-1.5 v -6 c 0,-0.81756 0.68244,-1.5 1.5,-1.5 0.81756,0 1.5,0.68244 1.5,1.5 v 6 c 0,0.81756 -0.68244,1.5 -1.5,1.5 z m 4,0 c -0.81756,0 -1.5,-0.68244 -1.5,-1.5 v -6 c 0,-0.81756 0.68244,-1.5 1.5,-1.5 0.81756,0 1.5,0.68244 1.5,1.5 v 6 c 0,0.81756 -0.68244,1.5 -1.5,1.5 z m 4,0 c -0.81756,0 -1.5,-0.68244 -1.5,-1.5 v -6 c 0,-0.81756 0.68244,-1.5 1.5,-1.5 0.81756,0 1.5,0.68244 1.5,1.5 v 6 c 0,0.81756 -0.68244,1.5 -1.5,1.5 z m 4,0 c -0.81756,0 -1.5,-0.68244 -1.5,-1.5 v -6 c 0,-0.81756 0.68244,-1.5 1.5,-1.5 0.81756,0 1.5,0.68244 1.5,1.5 v 6 c 0,0.81756 -0.68244,1.5 -1.5,1.5 z m 4,0 c -0.81756,0 -1.5,-0.68244 -1.5,-1.5 v -6 c 0,-0.81756 0.68244,-1.5 1.5,-1.5 0.81756,0 1.5,0.68244 1.5,1.5 v 6 c 0,0.81756 -0.68244,1.5 -1.5,1.5 z"
       style="fill:url(#linearGradient4706)"
       id="path4237" />
    <path
       inkscape:connector-curvature="0"
       d="m 41.141,128.46 c -0.554,0 -1,0.446 -1,1 v 6 c 0,0.554 0.446,1 1,1 0.554,0 1,-0.446 1,-1 v -6 c 0,-0.554 -0.446,-1 -1,-1 z m 4,0 c -0.554,0 -1,0.446 -1,1 v 6 c 0,0.554 0.446,1 1,1 0.554,0 1,-0.446 1,-1 v -6 c 0,-0.554 -0.446,-1 -1,-1 z m 4,0 c -0.554,0 -1,0.446 -1,1 v 6 c 0,0.554 0.446,1 1,1 0.554,0 1,-0.446 1,-1 v -6 c 0,-0.554 -0.446,-1 -1,-1 z m 4,0 c -0.554,0 -1,0.446 -1,1 v 6 c 0,0.554 0.446,1 1,1 0.554,0 1,-0.446 1,-1 v -6 c 0,-0.554 -0.446,-1 -1,-1 z m 4,0 c -0.554,0 -1,0.446 -1,1 v 6 c 0,0.554 0.446,1 1,1 0.554,0 1,-0.446 1,-1 v -6 c 0,-0.554 -0.446,-1 -1,-1 z m 4,0 c -0.554,0 -1,0.446 -1,1 v 6 c 0,0.554 0.446,1 1,1 0.554,0 1,-0.446 1,-1 v -6 c 0,-0.554 -0.446,-1 -1,-1 z m 4,0 c -0.554,0 -1,0.446 -1,1 v 6 c 0,0.554 0.446,1 1,1 0.554,0 1,-0.446 1,-1 v -6 c 0,-0.554 -0.446,-1 -1,-1 z"
       style="fill:url(#linearGradient4708)"
       id="rect4210" />
  </g>
  <g
     transform="translate(-10.286,84.214)"
     style="display:none"
     id="layer2-75">
    <rect
       x="5"
       y="7"
       width="86"
       height="85"
       ry="6"
       rx="6"
       style="opacity:0.9;fill:url(#linearGradient3118);filter:url(#filter3174-1)"
       id="rect3745-20" />
  </g>
  <g
     transform="translate(-10.286,84.214)"
     style="display:none"
     id="layer5-3">
    <rect
       x="10.911"
       y="80"
       width="74.179001"
       height="6"
       ry="6"
       rx="6.7435002"
       style="opacity:0.6;fill:#0066ff;display:inline;filter:url(#filter4180-8)"
       id="rect3323" />
    <rect
       x="16"
       y="81"
       width="64"
       height="4"
       ry="4"
       rx="5.8182001"
       style="fill:url(#radialGradient3120);display:inline"
       id="rect3311" />
  </g>
  <g
     transform="translate(22.857,122.64)"
     style="display:none"
     id="layer2-37">
    <rect
       x="5"
       y="7"
       width="86"
       height="85"
       ry="6"
       rx="6"
       style="opacity:0.9;fill:url(#linearGradient3122);filter:url(#filter3174-10)"
       id="rect3745-6" />
  </g>
  <g
     transform="translate(22.857,122.64)"
     style="display:none"
     id="layer5-2">
    <rect
       x="10.911"
       y="80"
       width="74.179001"
       height="6"
       ry="6"
       rx="6.7435002"
       style="opacity:0.6;fill:#0066ff;display:inline;filter:url(#filter4180-5)"
       id="rect3323-7" />
    <rect
       x="16"
       y="81"
       width="64"
       height="4"
       ry="4"
       rx="5.8182001"
       style="fill:url(#radialGradient3124);display:inline"
       id="rect3311-0" />
  </g>
  <g
     id="g3184"
     transform="matrix(1.5407223,0,0,1.5407223,5.5674016,1.819884)">
    <path
       id="path858"
       style="fill:#a9a9a9"
       d="m 18.662,16.516 c 0.0044,-0.9734 0.0076,-2.4587 0.0076,-3.3009 v -1.5313 h -0.0372 c -0.02044,0 -1.6307,-0.018 -3.5783,-0.039 -1.9476,-0.022 -3.6119,-0.04 -3.6984,-0.04 h -0.15732 v 2.6027 c 0,1.4318 0.0013,2.6032 0.0031,2.6033 0.0018,0 1.671,0.3318 3.7099,0.7368 2.0389,0.4051 3.7152,0.7371 3.7252,0.7377 0.01623,10e-5 0.01863,-0.1647 0.02554,-1.7693 z m -8.1009,-2.3747 c 0.0039,-1.3982 0.0061,-2.5431 0.0047,-2.5441 -0.0026,0 -4.4356,-0.052 -4.5762,-0.051 H 5.90093 v 2.1051 2.105 l 0.02574,0.01 c 0.02013,0.01 4.5935,0.9155 4.6205,0.9197 0.0037,0 0.01,-1.1463 0.01394,-2.5447 z M 8.3266,11.0088 c 1.054,-0.012 1.9898,-0.022 2.0795,-0.023 h 0.16304 V 8.4388 5.8916 l -0.03145,0.01 c -0.01728,0.01 -1.0676,0.211 -2.334,0.4619 l -2.3025,0.456 -9.2e-5,2.1081 -1.84e-4,2.108 h 0.25457 c 0.14011,0 1.1171,-0.014 2.1711,-0.027 z m 6.7496,-0.074 c 1.9723,-0.022 3.5877,-0.041 3.5898,-0.044 0.0022,0 0.0022,-1.4891 8.75e-4,-3.3046 l -0.0031,-3.3009 -3.3924,0.6732 c -1.8658,0.3702 -3.5443,0.703 -3.7299,0.7397 l -0.33752,0.066 -0.0031,2.6052 -0.0031,2.6051 h 0.1459 c 0.08083,0 1.7602,-0.018 3.7326,-0.04 z"
       inkscape:connector-curvature="0" />
    <path
       id="path857"
       style="fill:#ffffff;fill-opacity:0.23528999"
       d="m 18.661,10.891 c -0.002,0 -1.5902,0.01 -3.5625,0.031 -1.9723,0.022 -3.6692,0.062 -3.75,0.062 h -0.15625 v 0.2813 h 0.15625 c 0.08083,0 1.7777,-0.01 3.75,-0.031 1.9723,-0.022 3.5605,-0.06 3.5625,-0.062 1.89e-4,-10e-5 -1.57e-4,-0.2602 0,-0.2813 z m -8.25,0.094 c -0.08967,0.001 -1.0085,0.019 -2.0625,0.031 -1.054,0.012 -2.0474,0.027 -2.1875,0.031 h -0.25 v 0.2813 h 0.25 c 0.14011,0 1.1335,-0.019 2.1875,-0.031 1.054,-0.012 1.9728,-0.03 2.0625,-0.031 h 0.15625 V 10.985 l -0.15625,-3e-4 z m -4.5,4.7813 v 0.2812 h 0.03125 c 0.02013,0.01 4.598,0.9333 4.625,0.9375 4.54e-4,-3e-4 -5.21e-4,-0.2798 0,-0.3125 -0.02695,0 -4.6049,-0.8962 -4.625,-0.9062 L 5.911,15.766 z m 5.3125,1.0312 c 2.01e-4,0.032 -2.17e-4,0.3125 0,0.3125 0.0018,0 1.6486,0.3138 3.6875,0.7188 2.0389,0.4051 3.7088,0.7494 3.7188,0.75 0.0028,0 -0.0021,-0.2955 0,-0.3125 -0.01,-6e-4 -1.6799,-0.3137 -3.7188,-0.7188 -2.0389,-0.4053 -3.6857,-0.7503 -3.6875,-0.7503 z"
       inkscape:connector-curvature="0" />
    <path
       id="path862"
       style="fill-opacity:0.53725"
       d="M 18.645,4.2857 15.27,4.9732 C 13.4042,5.3434 11.7056,5.6553 11.52,5.692 L 11.2075,5.754 V 6.1602 L 11.52,6.0982 c 0.18564,-0.037 1.8842,-0.3485 3.75,-0.7187 L 18.645,4.692 V 4.2857 z m -8.0938,1.5938 -0.03125,0.031 c -0.01728,0.01 -1.0461,0.2179 -2.3125,0.4688 L 5.89495,6.8168 V 7.223 l 2.3125,-0.4375 c 1.2664,-0.2509 2.2952,-0.4587 2.3125,-0.4687 L 10.5512,6.2858 V 5.8795 z M 5.895,11.5357 v 0.4063 h 0.09375 c 0.14059,-10e-4 4.5599,0.062 4.5625,0.062 -4.7e-5,-0.055 2.25e-4,-0.4061 0,-0.4063 -0.0026,0 -4.4219,-0.063 -4.5625,-0.062 H 5.895 z m 5.2812,0.062 v 0.4063 h 0.15625 c 0.08653,0 1.7711,0.041 3.7188,0.062 1.9476,0.021 3.5421,0.031 3.5625,0.031 h 0.0625 v -0.4062 h -0.0625 c -0.02044,0 -1.6149,-0.01 -3.5625,-0.031 -1.9476,-0.022 -3.6322,-0.062 -3.7188,-0.062 l -0.15625,4e-4 z"
       inkscape:connector-curvature="0" />
  </g>
</svg>
