<?xml version="1.0" encoding="UTF-8" standalone="no"?>
<!-- Created with Inkscape (http://www.inkscape.org/) -->
<svg id="svg3813" xmlns:rdf="http://www.w3.org/1999/02/22-rdf-syntax-ns#" xmlns="http://www.w3.org/2000/svg" height="22" width="22" version="1.1" xmlns:cc="http://creativecommons.org/ns#" xmlns:dc="http://purl.org/dc/elements/1.1/">
 <metadata id="metadata3818">
  <rdf:RDF>
   <cc:Work rdf:about="">
    <dc:format>image/svg+xml</dc:format>
    <dc:type rdf:resource="http://purl.org/dc/dcmitype/StillImage"/>
    <dc:title/>
   </cc:Work>
  </rdf:RDF>
 </metadata>
 <g id="layer1" transform="translate(-378.86 -540.08)">
  <path id="rect4108" style="fill:#f2f2f2" d="m386.86 543.08c-0.97291 3.405-3.3544 6.3323-4.4043 8.6758-0.3674 0.69677-0.5957 1.4788-0.5957 2.3242 0 2.77 2.23 5 5 5s5-2.23 5-5c0-0.84542-0.2283-1.6274-0.5957-2.3242-1.0498-2.3435-3.4314-5.2708-4.4043-8.6758zm2.2832 7.7168c1.0377 0.7212 1.7168 1.9183 1.7168 3.2832 0 2.216-1.784 4-4 4-1.365 0-2.562-0.67905-3.2832-1.7168 0.64705 0.44971 1.4321 0.7168 2.2832 0.7168 2.216 0 4-1.784 4-4 0-0.85108-0.26709-1.6362-0.7168-2.2832z"/>
  <rect id="rect4139" style="fill:#f2f2f2" ry="3.5" height="7" width="7" y="543.08" x="390.86"/>
  <rect id="rect4109" style="fill:#ccc" ry="2.5" height="5" width="5" y="544.08" x="391.86"/>
 </g>
</svg>
