<?xml version="1.0" encoding="UTF-8" standalone="no"?>
<!-- Created with Inkscape (http://www.inkscape.org/) -->
<svg id="svg2" xmlns:rdf="http://www.w3.org/1999/02/22-rdf-syntax-ns#" xmlns="http://www.w3.org/2000/svg" height="22" viewBox="0 0 22 22" width="22" version="1.1" xmlns:cc="http://creativecommons.org/ns#" xmlns:dc="http://purl.org/dc/elements/1.1/">
 <metadata id="metadata7">
  <rdf:RDF>
   <cc:Work rdf:about="">
    <dc:format>image/svg+xml</dc:format>
    <dc:type rdf:resource="http://purl.org/dc/dcmitype/StillImage"/>
    <dc:title/>
   </cc:Work>
  </rdf:RDF>
 </metadata>
 <g id="layer1" transform="translate(0 -1030.4)">
  <path id="rect4139" style="fill:#f2f2f2" d="m4 2.998v0.002 2h2v-2h2v2h2v-2h2v2h2v-2h2v2h2v-2-0.002h-1-12-1zm2 3.002v2h2v-2h-2zm4 0v2h2v-2h-2zm4 0v2h2v-2h-2zm-10 3v2 8h1 7v-1h-7v-7h1v-2h-2zm4 0v2h2v-2h-2zm5 2c-1.662 0-3 1.338-3 3s1.338 3 3 3c0.649 0 1.246-0.209 1.736-0.557l2.557 2.557 0.707-0.707-2.557-2.557c0.348-0.49 0.557-1.087 0.557-1.736 0-1.662-1.338-3-3-3zm0 1c1.108 0 2 0.892 2 2s-0.892 2-2 2-2-0.892-2-2 0.892-2 2-2z" transform="translate(0 1030.4)"/>
 </g>
</svg>
