<?xml version="1.0" encoding="UTF-8" standalone="no"?>
<!-- Created with Inkscape (http://www.inkscape.org/) -->
<svg id="svg3815" xmlns:rdf="http://www.w3.org/1999/02/22-rdf-syntax-ns#" xmlns="http://www.w3.org/2000/svg" height="22" width="22" version="1.1" xmlns:cc="http://creativecommons.org/ns#" xmlns:dc="http://purl.org/dc/elements/1.1/">
 <metadata id="metadata3820">
  <rdf:RDF>
   <cc:Work rdf:about="">
    <dc:format>image/svg+xml</dc:format>
    <dc:type rdf:resource="http://purl.org/dc/dcmitype/StillImage"/>
    <dc:title/>
   </cc:Work>
  </rdf:RDF>
 </metadata>
 <g id="layer1" transform="translate(-461.71 -525.79)">
  <path id="rect4108" style="fill:#f2f2f2" d="m480.71 528.79h-1-15v1 14 1h15 1v-16zm-1 1v4 1 4 1 4h-4v-4h-1v4h-4v-4h-1v4h-4v-4-1-4-1-4h4v4h1v-4h4v4h1v-4h4z"/>
  <path id="rect4197" style="fill:#da4453" d="m479.71 533.79h-5.293-4-4-0.70703v0.70703 0.29297h0.29297l4 4h-4.293v1h14v-1h-0.29297l-4-4h4.293v-1zm-1.707 5h-2.5859l-4-4h2.5859l4 4zm-4 0h-2.5859l-4-4h2.5859l4 4z"/>
 </g>
</svg>
