<?xml version="1.0" encoding="UTF-8" standalone="no"?>
<!-- Created with Inkscape (http://www.inkscape.org/) -->
<svg id="svg3815" xmlns:rdf="http://www.w3.org/1999/02/22-rdf-syntax-ns#" xmlns="http://www.w3.org/2000/svg" height="22" width="22" version="1.1" xmlns:cc="http://creativecommons.org/ns#" xmlns:dc="http://purl.org/dc/elements/1.1/">
 <metadata id="metadata3820">
  <rdf:RDF>
   <cc:Work rdf:about="">
    <dc:format>image/svg+xml</dc:format>
    <dc:type rdf:resource="http://purl.org/dc/dcmitype/StillImage"/>
    <dc:title/>
   </cc:Work>
  </rdf:RDF>
 </metadata>
 <g id="layer1" transform="translate(-461.71 -525.79)">
  <path id="rect4139" style="fill:#f2f2f2" d="m9 3v1h8v10h-4v1 3h-8v-10h-1v11h1 8 1v-0.01l0.008 0.01 3.992-3.992v-0.008-1.406-10.594h-1-8zm0 3v1h6v-1h-6zm-2 3v1h8v-1h-8zm0 3v1h8v-1h-8zm0 3v1h4v-1h-4z" transform="translate(461.71 525.79)"/>
  <path id="path4133-6" style="fill:#1d99f3;fill-rule:evenodd" d="m464.71 528.79 2 3 2-3z"/>
 </g>
</svg>
