<?xml version="1.0" encoding="UTF-8" standalone="no"?>
<!-- Created with Inkscape (http://www.inkscape.org/) -->
<svg id="svg3815" xmlns:rdf="http://www.w3.org/1999/02/22-rdf-syntax-ns#" xmlns="http://www.w3.org/2000/svg" height="22" width="22" version="1.1" xmlns:cc="http://creativecommons.org/ns#" xmlns:dc="http://purl.org/dc/elements/1.1/">
 <metadata id="metadata3820">
  <rdf:RDF>
   <cc:Work rdf:about="">
    <dc:format>image/svg+xml</dc:format>
    <dc:type rdf:resource="http://purl.org/dc/dcmitype/StillImage"/>
    <dc:title/>
   </cc:Work>
  </rdf:RDF>
 </metadata>
 <g id="layer1" transform="translate(-461.71 -525.79)">
  <path id="rect4108" style="fill:#f2f2f2" d="m480.71 528.79v1 8 1 1 4 1h-1-6-2v-1h2 1v-4h-1-2v-1h2 1v-1-3h-4v3h-1v-8h-4-1v-1h16zm-1 1h-4v4h4v-4zm-5 0h-4v4h4v-4zm5 5h-4v3 1h4v-1-3zm0 5h-4v4h4v-4z"/>
  <path id="rect4197" style="fill:#1d99f3" d="m464.71 529.79v5.293 2.707h1v-2.293l4-4v2.5859l-3.707 3.707h1.4141l2.293-2.293v2.293h1v-8h-1v0.29297l-4 4v-4.293h-1z"/>
  <path id="rect4139" d="m466.71 539.79v2h-2v1h2v2h1v-2h2v-1h-2v-2h-1z" style="fill:#f2f2f2"/>
 </g>
</svg>
