<?xml version="1.0" encoding="UTF-8" standalone="no"?>
<!-- Created with Inkscape (http://www.inkscape.org/) -->
<svg id="svg2" xmlns:rdf="http://www.w3.org/1999/02/22-rdf-syntax-ns#" xmlns="http://www.w3.org/2000/svg" height="22" viewBox="0 0 22 22" width="22" version="1.1" xmlns:cc="http://creativecommons.org/ns#" xmlns:dc="http://purl.org/dc/elements/1.1/">
 <metadata id="metadata7">
  <rdf:RDF>
   <cc:Work rdf:about="">
    <dc:format>image/svg+xml</dc:format>
    <dc:type rdf:resource="http://purl.org/dc/dcmitype/StillImage"/>
    <dc:title/>
   </cc:Work>
  </rdf:RDF>
 </metadata>
 <g id="layer1" transform="translate(0 -1030.4)">
  <path id="rect4191" style="fill:#f2f2f2" d="m3 3v3h3v-1h3 4 3v1h3v-3h-3v1h-3-4-3v-1h-3zm1 1h1v1h-1v-1zm13 0h1v1h-1v-1zm-8 11v2h-6v1h6v1h4v-1h6v-1h-6v-2h-4zm1 1h2v1 1h-2v-2z" transform="translate(0 1030.4)"/>
  <path id="path4133-6-5" d="m9 1039.9 2 3 2-3z" style="fill:#1d99f3;fill-rule:evenodd"/>
 </g>
</svg>
