<?xml version="1.0" encoding="UTF-8" standalone="no"?>
<!-- Created with Inkscape (http://www.inkscape.org/) -->
<svg id="svg2" xmlns:rdf="http://www.w3.org/1999/02/22-rdf-syntax-ns#" xmlns="http://www.w3.org/2000/svg" height="22" viewBox="0 0 22 22" width="22" version="1.1" xmlns:cc="http://creativecommons.org/ns#" xmlns:dc="http://purl.org/dc/elements/1.1/">
 <metadata id="metadata7">
  <rdf:RDF>
   <cc:Work rdf:about="">
    <dc:format>image/svg+xml</dc:format>
    <dc:type rdf:resource="http://purl.org/dc/dcmitype/StillImage"/>
    <dc:title/>
   </cc:Work>
  </rdf:RDF>
 </metadata>
 <g id="layer1" transform="translate(0 -1030.4)">
  <path id="path4116" style="fill:#f2f2f2" d="m3 3v1 5h1v-5h7v-1h-8zm9 0l2 2-4 7 7-4 2 2v-7h-7zm6 8v7h-5v1h5 1v-1-7h-1zm-12.31 1c-0.9291 0-1.7977 0.237-2.2989 0.512l0.2813 0.799c0.5379-0.263 1.3217-0.45 2.0429-0.45 0.9047 0 1.295 0.426 1.295 1.237v0.759l-0.6602 0.075c-1.687 0.249-3.3496 0.486-3.3496 2.246 0 1.248 0.9164 1.822 1.9922 1.822 0.6846 0 1.4684-0.225 2.043-0.887v0.002l0.1464 0.737h0.8184v-4.916c0-1.498-1.0147-1.936-2.3105-1.936zm1.3203 3.568v1.649c-0.4279 0.599-1.2965 0.986-1.92 0.986v-0.002c-0.6234 0-1.0878-0.312-1.0878-1.06 0-0.936 0.55-1.235 2.4082-1.485 0.0122 0 0.5996-0.088 0.5996-0.088z" transform="translate(0 1030.4)"/>
 </g>
</svg>
