<?xml version="1.0" encoding="UTF-8" standalone="no"?>
<!-- Created with Inkscape (http://www.inkscape.org/) -->
<svg id="svg2" xmlns:rdf="http://www.w3.org/1999/02/22-rdf-syntax-ns#" xmlns="http://www.w3.org/2000/svg" height="22" viewBox="0 0 22 22" width="22" version="1.1" xmlns:cc="http://creativecommons.org/ns#" xmlns:dc="http://purl.org/dc/elements/1.1/">
 <metadata id="metadata7">
  <rdf:RDF>
   <cc:Work rdf:about="">
    <dc:format>image/svg+xml</dc:format>
    <dc:type rdf:resource="http://purl.org/dc/dcmitype/StillImage"/>
    <dc:title/>
   </cc:Work>
  </rdf:RDF>
 </metadata>
 <g id="layer1" transform="translate(0 -1030.4)">
  <path id="rect4191" style="fill:#f2f2f2" d="m3 1049.4v-3h3v1h3v1h-3v1h-3zm13 0v-1h-3v-1h3v-1h3v3h-3zm-12-1h1v-1h-1v1zm13 0h1v-1h-1v1zm-14-12v-3h3v1h3 4 3v-1h3v3h-3v-1h-3-4-3v1h-3zm1-1h1v-1h-1v1zm13 0h1v-1h-1v1z"/>
  <path id="path4133-6-5" d="m9 1039.9 2 3 2-3z" style="fill:#1d99f3;fill-rule:evenodd"/>
 </g>
</svg>
