<?xml version="1.0" encoding="UTF-8" standalone="no"?>
<!-- Created with Inkscape (http://www.inkscape.org/) -->
<svg id="svg2" xmlns:rdf="http://www.w3.org/1999/02/22-rdf-syntax-ns#" xmlns="http://www.w3.org/2000/svg" height="22" viewBox="0 0 22 22" width="22" version="1.1" xmlns:cc="http://creativecommons.org/ns#" xmlns:dc="http://purl.org/dc/elements/1.1/">
 <metadata id="metadata7">
  <rdf:RDF>
   <cc:Work rdf:about="">
    <dc:format>image/svg+xml</dc:format>
    <dc:type rdf:resource="http://purl.org/dc/dcmitype/StillImage"/>
    <dc:title/>
   </cc:Work>
  </rdf:RDF>
 </metadata>
 <g id="layer1" transform="translate(0 -1030.4)">
  <path id="rect4127-8" style="fill:#f2f2f2" transform="translate(0 1030.4)" d="m4.5 3c-0.831 0-1.5 0.669-1.5 1.5 0 0.6542 0.4181 1.2022 1 1.4082v10.092h-1v3h3v-1h7v-1h-7v-1h-1v-10.092c0.4245-0.1501 0.7567-0.4853 0.9082-0.908h10.092v1h1v7h1v-7h1v-3h-3v1h-10.092c-0.2058-0.5819-0.7538-1-1.408-1zm0 1c0.277 0 0.5 0.223 0.5 0.5s-0.223 0.5-0.5 0.5-0.5-0.223-0.5-0.5 0.223-0.5 0.5-0.5zm12.5 0h1v1h-1v-1zm-1 10v2h-2v1h2v2h1v-2h2v-1h-2v-2h-1zm-12 3h1v1h-1v-1z"/>
 </g>
</svg>
