<?xml version="1.0" encoding="UTF-8" standalone="no"?>
<!-- Created with Inkscape (http://www.inkscape.org/) -->
<svg id="svg3760" xmlns:rdf="http://www.w3.org/1999/02/22-rdf-syntax-ns#" xmlns="http://www.w3.org/2000/svg" height="22" width="22" version="1.1" xmlns:cc="http://creativecommons.org/ns#" xmlns:dc="http://purl.org/dc/elements/1.1/">
 <metadata id="metadata3765">
  <rdf:RDF>
   <cc:Work rdf:about="">
    <dc:format>image/svg+xml</dc:format>
    <dc:type rdf:resource="http://purl.org/dc/dcmitype/StillImage"/>
    <dc:title/>
   </cc:Work>
  </rdf:RDF>
 </metadata>
 <g id="layer1" transform="translate(-553.72 -583.12)">
  <path id="rect4112" style="fill:#f2f2f2" d="m3 3v1 15h1 11l-3-3 3-3h2l-1-1-2-2-4 4-1-1-4.8516 4.852-0.1484 0.148v-14h14v8h1v-8-1h-15-1zm4 2c-1.108 0-2 0.892-2 2s0.892 2 2 2 2-0.892 2-2-0.892-2-2-2zm9 9v2h-2v1h2v2h1v-2h2v-1h-2v-2h-1z" transform="translate(553.72 583.12)"/>
 </g>
</svg>
