<?xml version="1.0" encoding="UTF-8" standalone="no"?>
<!-- Created with Inkscape (http://www.inkscape.org/) -->

<svg
   xmlns:dc="http://purl.org/dc/elements/1.1/"
   xmlns:cc="http://creativecommons.org/ns#"
   xmlns:rdf="http://www.w3.org/1999/02/22-rdf-syntax-ns#"
   xmlns:svg="http://www.w3.org/2000/svg"
   xmlns="http://www.w3.org/2000/svg"
   xmlns:xlink="http://www.w3.org/1999/xlink"
   xmlns:sodipodi="http://sodipodi.sourceforge.net/DTD/sodipodi-0.dtd"
   xmlns:inkscape="http://www.inkscape.org/namespaces/inkscape"
   id="svg2"
   height="22"
   viewBox="0 0 22 22"
   width="22"
   version="1.1"
   inkscape:version="0.48.4 r9939"
   sodipodi:docname="gtk-media-stop.svg">
  <defs
     id="defs9">
    <linearGradient
       x1="24.508066"
       y1="35.527863"
       x2="55.491936"
       y2="35.527863"
       id="linearGradient3165"
       xlink:href="#standardGradient"
       gradientUnits="userSpaceOnUse" />
    <linearGradient
       id="standardGradient">
      <stop
         id="stop4283-9"
         style="stop-color:#1e1e1e;stop-opacity:1"
         offset="0" />
      <stop
         id="stop4285-8"
         style="stop-color:#505050;stop-opacity:1"
         offset="1" />
    </linearGradient>
    <clipPath
       id="clipPath4015">
      <path
         inkscape:connector-curvature="0"
         d="m 39.90625,20.125 a 1.98949,1.98949 0 0 0 -1.625,1 l -15.5,26.8125 a 1.98949,1.98949 0 0 0 1.71875,3 l 31,0 a 1.98949,1.98949 0 0 0 1.71875,-3 l -15.5,-26.8125 a 1.98949,1.98949 0 0 0 -1.8125,-1 z"
         transform="translate(-0.90625006,0)"
         id="path4017"
         style="opacity:0.8;color:#CCCCCC;fill:#ff00ff;fill-opacity:1;fill-rule:nonzero;stroke:none;stroke-width:2;marker:none;visibility:visible;display:inline;overflow:visible;enable-background:accumulate" />
    </clipPath>
    <filter
       color-interpolation-filters="sRGB"
       id="filter4019">
      <feGaussianBlur
         id="feGaussianBlur4021"
         stdDeviation="0.49637725" />
    </filter>
    <linearGradient
       x1="24.508066"
       y1="35.527863"
       x2="55.491936"
       y2="35.527863"
       id="linearGradient4249"
       xlink:href="#standardGradient-2"
       gradientUnits="userSpaceOnUse"
       gradientTransform="matrix(0,1.0288952,0.90866775,0,17.71465,4.8441917)" />
    <linearGradient
       id="standardGradient-2">
      <stop
         id="stop4283-9-8"
         style="stop-color:#1e1e1e;stop-opacity:1"
         offset="0" />
      <stop
         id="stop4285-8-8"
         style="stop-color:#505050;stop-opacity:1"
         offset="1" />
    </linearGradient>
    <clipPath
       id="clipPath4266">
      <path
         d="M 33.6875,28 A 1.8077854,2.0469767 0 0 0 32,30.0625 l 0,31.875 a 1.8077854,2.0469767 0 0 0 2.71875,1.78125 L 58,48.5 58,60 c 0,1.108 0.892,2 2,2 l 4,0 c 1.108,0 2,-0.892 2,-2 l 0,-28 c 0,-1.108 -0.892,-2 -2,-2 l -4,0 c -1.108,0 -2,0.892 -2,2 L 58,43.5 34.71875,28.28125 A 1.8077854,2.0469767 0 0 0 33.6875,28 z"
         inkscape:connector-curvature="0"
         id="path4268"
         style="opacity:0.8;color:#CCCCCC;fill:#ff00ff;fill-opacity:1;fill-rule:nonzero;stroke:none;stroke-width:2;marker:none;visibility:visible;display:inline;overflow:visible;enable-background:accumulate" />
    </clipPath>
    <filter
       color-interpolation-filters="sRGB"
       id="filter4270">
      <feGaussianBlur
         id="feGaussianBlur4272"
         stdDeviation="0.52501207" />
    </filter>
    <linearGradient
       gradientTransform="translate(4,-6)"
       gradientUnits="userSpaceOnUse"
       xlink:href="#standardGradient-0"
       id="linearGradient3166"
       y2="68"
       x2="38"
       y1="36"
       x1="38" />
    <linearGradient
       id="standardGradient-0">
      <stop
         offset="0"
         style="stop-color:#1e1e1e;stop-opacity:1"
         id="stop4283-9-4" />
      <stop
         offset="1"
         style="stop-color:#505050;stop-opacity:1"
         id="stop4285-8-2" />
    </linearGradient>
    <clipPath
       id="clipPath3940">
      <path
         style="color:#CCCCCC;fill:#ff00ff;fill-opacity:1;fill-rule:nonzero;stroke:none;stroke-width:2;marker:none;visibility:visible;display:inline;overflow:visible;enable-background:accumulate"
         id="path3942"
         inkscape:connector-curvature="0"
         d="m 34,30 c -1.108,0 -2,0.892 -2,2 l 0,28 c 0,1.108 0.892,2 2,2 l 8,0 c 1.108,0 2,-0.892 2,-2 l 0,-28 c 0,-1.108 -0.892,-2 -2,-2 l -8,0 z m 20,0 c -1.108,0 -2,0.892 -2,2 l 0,28 c 0,1.108 0.892,2 2,2 l 8,0 c 1.108,0 2,-0.892 2,-2 l 0,-28 c 0,-1.108 -0.892,-2 -2,-2 l -8,0 z" />
    </clipPath>
    <filter
       id="filter3944"
       color-interpolation-filters="sRGB">
      <feGaussianBlur
         stdDeviation="0.48"
         id="feGaussianBlur3946" />
    </filter>
    <linearGradient
       gradientTransform="matrix(0,1.0288952,-0.90866775,0,78.285263,4.8441917)"
       gradientUnits="userSpaceOnUse"
       xlink:href="#standardGradient-2-1"
       id="linearGradient4249-2"
       y2="35.527863"
       x2="55.491936"
       y1="35.527863"
       x1="24.508066" />
    <linearGradient
       id="standardGradient-2-1">
      <stop
         offset="0"
         style="stop-color:#1e1e1e;stop-opacity:1"
         id="stop4283-9-8-5" />
      <stop
         offset="1"
         style="stop-color:#505050;stop-opacity:1"
         id="stop4285-8-8-1" />
    </linearGradient>
    <clipPath
       id="clipPath4266-7">
      <path
         style="opacity:0.8;color:#CCCCCC;fill:#ff00ff;fill-opacity:1;fill-rule:nonzero;stroke:none;stroke-width:2;marker:none;visibility:visible;display:inline;overflow:visible;enable-background:accumulate"
         id="path4268-9"
         inkscape:connector-curvature="0"
         d="M 33.6875,28 A 1.8077854,2.0469767 0 0 0 32,30.0625 l 0,31.875 a 1.8077854,2.0469767 0 0 0 2.71875,1.78125 L 58,48.5 58,60 c 0,1.108 0.892,2 2,2 l 4,0 c 1.108,0 2,-0.892 2,-2 l 0,-28 c 0,-1.108 -0.892,-2 -2,-2 l -4,0 c -1.108,0 -2,0.892 -2,2 L 58,43.5 34.71875,28.28125 A 1.8077854,2.0469767 0 0 0 33.6875,28 z" />
    </clipPath>
    <filter
       id="filter4270-6"
       color-interpolation-filters="sRGB">
      <feGaussianBlur
         stdDeviation="0.52501207"
         id="feGaussianBlur4272-4" />
    </filter>
    <linearGradient
       gradientTransform="translate(4,-6)"
       gradientUnits="userSpaceOnUse"
       xlink:href="#standardGradient-6"
       id="linearGradient3166-3"
       y2="68"
       x2="38"
       y1="36"
       x1="38" />
    <linearGradient
       id="standardGradient-6">
      <stop
         offset="0"
         style="stop-color:#1e1e1e;stop-opacity:1"
         id="stop4283-9-9" />
      <stop
         offset="1"
         style="stop-color:#505050;stop-opacity:1"
         id="stop4285-8-89" />
    </linearGradient>
    <clipPath
       id="clipPath4073">
      <path
         style="opacity:0.8;color:#CCCCCC;fill:#ff00ff;fill-opacity:1;fill-rule:nonzero;stroke:none;stroke-width:2;marker:none;visibility:visible;display:inline;overflow:visible;enable-background:accumulate"
         id="path4075"
         inkscape:connector-curvature="0"
         d="m 34,30 c -1.108,0 -2,0.892 -2,2 l 0,28 c 0,1.108 0.892,2 2,2 12,0 16,0 28,0 1.108,0 2,-0.892 2,-2 l 0,-28 c 0,-1.108 -0.892,-2 -2,-2 -12,0 -16,0 -28,0 z" />
    </clipPath>
    <filter
       id="filter4077"
       color-interpolation-filters="sRGB">
      <feGaussianBlur
         stdDeviation="0.48"
         id="feGaussianBlur4079" />
    </filter>
    <filter
       id="filter4019-7"
       color-interpolation-filters="sRGB">
      <feGaussianBlur
         stdDeviation="0.49637725"
         id="feGaussianBlur4021-3" />
    </filter>
    <clipPath
       id="clipPath4015-0">
      <path
         style="opacity:0.8;color:#CCCCCC;fill:#ff00ff;fill-opacity:1;fill-rule:nonzero;stroke:none;stroke-width:2;marker:none;visibility:visible;display:inline;overflow:visible;enable-background:accumulate"
         id="path4017-7"
         transform="translate(-0.90625006,0)"
         d="m 39.90625,20.125 a 1.98949,1.98949 0 0 0 -1.625,1 l -15.5,26.8125 a 1.98949,1.98949 0 0 0 1.71875,3 l 31,0 a 1.98949,1.98949 0 0 0 1.71875,-3 l -15.5,-26.8125 a 1.98949,1.98949 0 0 0 -1.8125,-1 z"
         inkscape:connector-curvature="0" />
    </clipPath>
    <linearGradient
       id="standardGradient-3">
      <stop
         offset="0"
         style="stop-color:#1e1e1e;stop-opacity:1"
         id="stop4283-9-0" />
      <stop
         offset="1"
         style="stop-color:#505050;stop-opacity:1"
         id="stop4285-8-4" />
    </linearGradient>
    <linearGradient
       gradientUnits="userSpaceOnUse"
       xlink:href="#standardGradient-3"
       id="linearGradient3165-0"
       y2="35.527863"
       x2="55.491936"
       y1="35.527863"
       x1="24.508066" />
  </defs>
  <sodipodi:namedview
     pagecolor="#ffffff"
     bordercolor="#666666"
     borderopacity="1"
     objecttolerance="10"
     gridtolerance="10"
     guidetolerance="10"
     inkscape:pageopacity="0"
     inkscape:pageshadow="2"
     inkscape:window-width="1360"
     inkscape:window-height="712"
     id="namedview7"
     showgrid="false"
     inkscape:zoom="10.727273"
     inkscape:cx="-21.813559"
     inkscape:cy="11"
     inkscape:window-x="-2"
     inkscape:window-y="28"
     inkscape:window-maximized="1"
     inkscape:current-layer="svg2" />
  <metadata
     id="metadata7">
    <rdf:RDF>
      <cc:Work
         rdf:about="">
        <dc:format>image/svg+xml</dc:format>
        <dc:type
           rdf:resource="http://purl.org/dc/dcmitype/StillImage" />
        <dc:title />
      </cc:Work>
    </rdf:RDF>
  </metadata>
  <path
     style="opacity:1;color:#CCCCCC;fill:#f2f2f2;fill-opacity:1;fill-rule:nonzero;stroke:none;stroke-width:2;marker:none;visibility:visible;display:inline;overflow:visible;enable-background:accumulate"
     id="rect3156"
     inkscape:connector-curvature="0"
     d="m 4.3843633,3.2030005 c -0.5235804,0 -0.9450909,0.4215105 -0.9450909,0.9450909 l 0,13.2312726 c 0,0.52358 0.4215105,0.945091 0.9450909,0.945091 5.6705457,0 7.5607277,0 13.2312727,0 0.52358,0 0.945091,-0.421511 0.945091,-0.945091 l 0,-13.2312726 c 0,-0.5235804 -0.421511,-0.9450909 -0.945091,-0.9450909 -5.670545,0 -7.560727,0 -13.2312727,0 z" />
</svg>
