<?xml version="1.0" encoding="UTF-8" standalone="no"?>
<!-- Created with Inkscape (http://www.inkscape.org/) -->
<svg id="svg3869" xmlns:rdf="http://www.w3.org/1999/02/22-rdf-syntax-ns#" xmlns="http://www.w3.org/2000/svg" height="22" width="22" version="1.1" xmlns:cc="http://creativecommons.org/ns#" xmlns:dc="http://purl.org/dc/elements/1.1/">
 <metadata id="metadata3874">
  <rdf:RDF>
   <cc:Work rdf:about="">
    <dc:format>image/svg+xml</dc:format>
    <dc:type rdf:resource="http://purl.org/dc/dcmitype/StillImage"/>
    <dc:title/>
   </cc:Work>
  </rdf:RDF>
 </metadata>
 <g id="layer1" transform="translate(-326 -534.36)">
  <path id="rect4144" style="fill:#f2f2f2" d="m3 3v1 1 1l-2 3v1 1.4 0.6 6 0.414 0.586h1 6 6 6 1v-1-6-0.6-1.4137-0.9863l-2-4v-2h-15-1zm1 1h14v1 3.7988l-7 4.0412-7-4.0412v-3.7988-1zm1 1v0.9863l-0.0137 0.0137h0.0137 12 0.014l-0.014-0.0137v-0.9863h-12zm0 2v1h7v-1h-7zm-3 3h0.4004 0.5996 1.0781l6.9219 3.996 6.922-3.996h0.078 1 1v0.4 0.6 1 6h-6-12v-0.586-1.414-4-1-0.6-0.4z" transform="translate(326 534.36)"/>
 </g>
</svg>
