<?xml version="1.0" encoding="UTF-8" standalone="no"?>
<!-- Created with Inkscape (http://www.inkscape.org/) -->
<svg id="svg3760" xmlns:rdf="http://www.w3.org/1999/02/22-rdf-syntax-ns#" xmlns="http://www.w3.org/2000/svg" height="22" width="22" version="1.1" xmlns:cc="http://creativecommons.org/ns#" xmlns:dc="http://purl.org/dc/elements/1.1/">
 <metadata id="metadata3765">
  <rdf:RDF>
   <cc:Work rdf:about="">
    <dc:format>image/svg+xml</dc:format>
    <dc:type rdf:resource="http://purl.org/dc/dcmitype/StillImage"/>
    <dc:title/>
   </cc:Work>
  </rdf:RDF>
 </metadata>
 <g id="layer1" transform="translate(-551.29 -607.65)">
  <path id="rect4145" style="fill:#f2f2f2" d="m3 3v4 11 1h1 9v-1h-9v-11h14v6h1v-6-4h-16z" transform="translate(551.29 607.65)"/>
  <path id="path4160-0" style="fill:#f2f2f2" d="m347.2 549.76-3.0655 0.24535 0.55641 3.0246-2.3411-1.9941-1.7452 2.5321-0.24536-3.0655-3.0246 0.55641 1.9941-2.3411-2.5321-1.7452 3.0655-0.24536-0.55641-3.0246 2.3411 1.9942 1.7452-2.5321 0.24536 3.0655 3.0246-0.55641-1.9941 2.3411z" transform="matrix(.53810 -.14418 .14418 .53810 304.19 377.88)"/>
 </g>
</svg>
