<?xml version="1.0" encoding="UTF-8" standalone="no"?>
<!-- Created with Inkscape (http://www.inkscape.org/) -->
<svg id="svg3049" xmlns:rdf="http://www.w3.org/1999/02/22-rdf-syntax-ns#" xmlns="http://www.w3.org/2000/svg" height="22" width="22" version="1.1" xmlns:cc="http://creativecommons.org/ns#" xmlns:dc="http://purl.org/dc/elements/1.1/">
 <metadata id="metadata3054">
  <rdf:RDF>
   <cc:Work rdf:about="">
    <dc:format>image/svg+xml</dc:format>
    <dc:type rdf:resource="http://purl.org/dc/dcmitype/StillImage"/>
    <dc:title/>
   </cc:Work>
  </rdf:RDF>
 </metadata>
 <g id="layer1" transform="translate(-421.71 -525.79)">
  <path id="rect3344" style="fill:#f2f2f2" d="m2 3v2h1v5 2 5h-1v2h2v-1h6 2 1 5v1h2v-2h-1v-5-2-1-4h1v-2h-2v1h-5-1-2-1-5v-1h-2zm2 2h14v12h-6-2-6v-12zm1 1v10h3v-1h-2v-8h2 8 1v-1h-12zm10 2l-0.996 0.9941-0.004-0.0039-5 4.9978 0.0078 0.008-0.0039 1.004h-0.0039v0.99 0.01h2l0.006-0.006 0.004-0.004c0.004 0 0.006 0.002 0.01 0.002l-0.006-0.006 0.986-0.986 4-3.996-0.705-0.709-4.99 4.986-0.5941-0.592 4.9921-4.9878 0.592 0.5938 0.705 0.703 1-1-2-1.998z" transform="translate(421.71 525.79)"/>
 </g>
</svg>
