<?xml version="1.0" encoding="UTF-8" standalone="no"?>
<!-- Created with Inkscape (http://www.inkscape.org/) -->
<svg id="svg3049" xmlns:rdf="http://www.w3.org/1999/02/22-rdf-syntax-ns#" xmlns="http://www.w3.org/2000/svg" height="22" width="22" version="1.1" xmlns:cc="http://creativecommons.org/ns#" xmlns:dc="http://purl.org/dc/elements/1.1/">
 <metadata id="metadata3054">
  <rdf:RDF>
   <cc:Work rdf:about="">
    <dc:format>image/svg+xml</dc:format>
    <dc:type rdf:resource="http://purl.org/dc/dcmitype/StillImage"/>
    <dc:title/>
   </cc:Work>
  </rdf:RDF>
 </metadata>
 <g id="layer1" transform="translate(-421.71 -525.79)">
  <path id="rect3344" style="fill:#f2f2f2" d="m3 3v1h1v-1h-1zm15.293 0l-6 6h-3.293v3.293l-6 6 0.707 0.707 6-6h3.293v-3.293l6-6-0.707-0.707zm-13.293 2v1h1v-1h-1zm2 2v1h1v-1h-1zm7 7v1h1v-1h-1zm2 2v1h1v-1h-1zm2 2v1h1v-1h-1z" transform="translate(421.71 525.79)"/>
 </g>
</svg>
