<?xml version="1.0" encoding="UTF-8" standalone="no"?>
<!-- Created with Inkscape (http://www.inkscape.org/) -->
<svg id="svg3049" xmlns:rdf="http://www.w3.org/1999/02/22-rdf-syntax-ns#" xmlns="http://www.w3.org/2000/svg" height="22" width="22" version="1.1" xmlns:cc="http://creativecommons.org/ns#" xmlns:dc="http://purl.org/dc/elements/1.1/">
 <metadata id="metadata3054">
  <rdf:RDF>
   <cc:Work rdf:about="">
    <dc:format>image/svg+xml</dc:format>
    <dc:type rdf:resource="http://purl.org/dc/dcmitype/StillImage"/>
    <dc:title/>
   </cc:Work>
  </rdf:RDF>
 </metadata>
 <g id="layer1" transform="translate(-421.71 -525.79)">
  <path id="rect4144" style="fill:#f2f2f2" d="m5 3v1 6 9h1 3v-1-8-3h4 3 1v-1-2-1h-1-10-1zm1 1h10v2h-3-4-1v1 3 8h-2v-8-6zm5 5v1 9h1 3v-1-5h1 1v-1-2-1h-1-1-2-2zm1 1h3 1v2h-1-1v1 5h-2v-8z" transform="translate(421.71 525.79)"/>
 </g>
</svg>
