<?xml version="1.0" encoding="UTF-8" standalone="no"?>
<!-- Created with Inkscape (http://www.inkscape.org/) -->
<svg id="svg2" xmlns:rdf="http://www.w3.org/1999/02/22-rdf-syntax-ns#" xmlns="http://www.w3.org/2000/svg" height="22" viewBox="0 0 22 22" width="22" version="1.1" xmlns:cc="http://creativecommons.org/ns#" xmlns:dc="http://purl.org/dc/elements/1.1/">
 <metadata id="metadata7">
  <rdf:RDF>
   <cc:Work rdf:about="">
    <dc:format>image/svg+xml</dc:format>
    <dc:type rdf:resource="http://purl.org/dc/dcmitype/StillImage"/>
    <dc:title/>
   </cc:Work>
  </rdf:RDF>
 </metadata>
 <g id="layer1" transform="translate(0 -1030.4)">
  <path id="rect4129" style="fill:#f2f2f2" d="m3 3v16h1 15v-1-15h-1-14-1zm1 1h14v14h-14v-14zm1 1v1h1v-1h-1zm1 1v2h2v-2h-2zm2 0h1v-1h-1v1zm0 2v1h1v-1h-1zm-2 0h-1v1h1v-1zm7-3v1h1v-1h-1zm1 1v2h2v-2h-2zm2 0h1v-1h-1v1zm0 2v1h1v-1h-1zm-2 0h-1v1h1v-1zm-5 3v2h4v-2h-4zm4 2v2h2v-2h-2zm2 2v2h2v-2h-2zm-6-2h-2v2h2v-2zm-2 2h-2v2h2v-2z" transform="translate(0 1030.4)"/>
 </g>
</svg>
