<?xml version="1.0" encoding="UTF-8" standalone="no"?>
<!-- Created with Inkscape (http://www.inkscape.org/) -->
<svg id="svg3049" xmlns:rdf="http://www.w3.org/1999/02/22-rdf-syntax-ns#" xmlns="http://www.w3.org/2000/svg" height="22" width="22" version="1.1" xmlns:cc="http://creativecommons.org/ns#" xmlns:dc="http://purl.org/dc/elements/1.1/">
 <metadata id="metadata3054">
  <rdf:RDF>
   <cc:Work rdf:about="">
    <dc:format>image/svg+xml</dc:format>
    <dc:type rdf:resource="http://purl.org/dc/dcmitype/StillImage"/>
    <dc:title/>
   </cc:Work>
  </rdf:RDF>
 </metadata>
 <g id="layer1" transform="translate(-421.71 -525.79)">
  <path id="rect4109" style="fill:#f2f2f2" d="m8 6c-1.662 0-3 1.338-3 3s1.338 3 3 3 3-1.338 3-3-1.338-3-3-3zm0 7c-2.77 0-5 2.23-5 5v1h10v-1c0-2.77-2.23-5-5-5zm0 1c2.216 0 4 1.784 4 4h-8c0-2.216 1.784-4 4-4z" transform="translate(421.71 525.79)"/>
  <path id="path4139" style="fill:#f2f2f2" d="m14 3c-1.662 0-3 1.338-3 3s1.338 3 3 3 3-1.338 3-3-1.338-3-3-3zm0 7c-0.646 0-1.256 0.134-1.818 0.361l0.455 0.914c0.428-0.16 0.877-0.275 1.363-0.275 2.216 0 4 1.784 4 4h-3.5l0.5 1h4v-1c0-2.77-2.23-5-5-5z" transform="translate(421.71 525.79)"/>
  <g id="layer1-1" transform="matrix(.34868 0 0 .34868 434.02 181.64)">
   <path id="rect4176" d="m3.707 1044.4-0.70703-0.707 6.125-6.125 1.875-1.875 1.875 1.875 6.125 6.125-0.70703 0.707-6.125-6.125-1.168-1.168-1.168 1.168-6.125 6.125z" style="fill:#f2f2f2"/>
  </g>
 </g>
</svg>
