<?xml version="1.0" encoding="UTF-8" standalone="no"?>
<!-- Created with Inkscape (http://www.inkscape.org/) -->
<svg id="svg3049" xmlns:rdf="http://www.w3.org/1999/02/22-rdf-syntax-ns#" xmlns="http://www.w3.org/2000/svg" height="22" width="22" version="1.1" xmlns:cc="http://creativecommons.org/ns#" xmlns:dc="http://purl.org/dc/elements/1.1/">
 <metadata id="metadata3054">
  <rdf:RDF>
   <cc:Work rdf:about="">
    <dc:format>image/svg+xml</dc:format>
    <dc:type rdf:resource="http://purl.org/dc/dcmitype/StillImage"/>
    <dc:title/>
   </cc:Work>
  </rdf:RDF>
 </metadata>
 <g id="layer1" transform="translate(-421.71 -525.79)">
  <path id="path4154" style="fill:#f2f2f2" d="m3 3v16h16v-16h-2v3h-2v-3h-8v3h-2v-3h-2zm1 4h14v11h-14v-11z" transform="translate(421.71 525.79)"/>
  <path id="path4150" style="fill:#2ecc71" d="m6 8v2h2v-2h-2zm4 0v2h2v-2h-2zm4 0v2h2v-2h-2zm-8 3v2h2v-2h-2zm4 0v2h2v-2h-2zm4 0v2h2v-2h-2zm0 3v2h2v-2h-2z" transform="translate(421.71 525.79)"/>
 </g>
</svg>
