<?xml version="1.0" encoding="UTF-8" standalone="no"?>
<!-- Created with Inkscape (http://www.inkscape.org/) -->
<svg id="svg3049" xmlns:rdf="http://www.w3.org/1999/02/22-rdf-syntax-ns#" xmlns="http://www.w3.org/2000/svg" height="22" width="22" version="1.1" xmlns:cc="http://creativecommons.org/ns#" xmlns:dc="http://purl.org/dc/elements/1.1/">
 <metadata id="metadata3054">
  <rdf:RDF>
   <cc:Work rdf:about="">
    <dc:format>image/svg+xml</dc:format>
    <dc:type rdf:resource="http://purl.org/dc/dcmitype/StillImage"/>
    <dc:title/>
   </cc:Work>
  </rdf:RDF>
 </metadata>
 <g id="layer1" transform="translate(-421.71 -525.79)">
  <path id="rect4154" style="fill:#f2f2f2" d="m3 6v10h1v-10h-1zm2 0v7h1v-7h-1zm2 0v10h1v-10h-1zm2 0v10h2v-10h-2zm3 0v10h1v-3h1v-7h-2zm3 0v5h1v-5h-1zm2 0v7h2v-7h-2zm-1 8v2h-2v1h2v2h1v-2h2v-1h-2v-2h-1z" transform="translate(421.71 525.79)"/>
 </g>
</svg>
