<?xml version="1.0" encoding="UTF-8" standalone="no"?>
<!-- Created with Inkscape (http://www.inkscape.org/) -->
<svg id="svg3049" xmlns:rdf="http://www.w3.org/1999/02/22-rdf-syntax-ns#" xmlns="http://www.w3.org/2000/svg" height="22" width="22" version="1.1" xmlns:cc="http://creativecommons.org/ns#" xmlns:dc="http://purl.org/dc/elements/1.1/">
 <metadata id="metadata3054">
  <rdf:RDF>
   <cc:Work rdf:about="">
    <dc:format>image/svg+xml</dc:format>
    <dc:type rdf:resource="http://purl.org/dc/dcmitype/StillImage"/>
    <dc:title/>
   </cc:Work>
  </rdf:RDF>
 </metadata>
 <g id="layer1" transform="translate(-421.71 -525.79)">
  <path id="rect4145" style="fill:#f2f2f2" d="m3 3v16h1 5v-1h-5v-14h10v4h1v-5h-11-1zm2 2v4h4v-4h-4zm5 0v1h3v-1h-3zm0 2v1h3v-1h-3zm0 2v1 9h1 8v-2-8h-8-1zm1 1h7v4l-1-1-2 2-1-1-3 3v-7zm-6 1v1h4v-1h-4zm8 0c-0.554 0-1 0.446-1 1s0.446 1 1 1 1-0.446 1-1-0.446-1-1-1zm-8 2v1h4v-1h-4zm0 2v1h4v-1h-4z" transform="translate(421.71 525.79)"/>
 </g>
</svg>
