<?xml version="1.0" encoding="UTF-8" standalone="no"?>
<!-- Created with Inkscape (http://www.inkscape.org/) -->
<svg id="svg2" xmlns:rdf="http://www.w3.org/1999/02/22-rdf-syntax-ns#" xmlns="http://www.w3.org/2000/svg" height="24" width="24" version="1.1" xmlns:cc="http://creativecommons.org/ns#" xmlns:xlink="http://www.w3.org/1999/xlink" xmlns:dc="http://purl.org/dc/elements/1.1/">
 <defs id="defs4">
  <linearGradient id="linearGradient836" y2="1030.2" gradientUnits="userSpaceOnUse" x2="-3.3402" gradientTransform="matrix(2.1716 0 0 2.1716 19.342 -1205.8)" y1="1038.6" x1="-3.3402">
   <stop id="stop832" style="stop-color:#ff6d03" offset="0"/>
   <stop id="stop834" style="stop-color:#ff9400" offset="1"/>
  </linearGradient>
 </defs>
 <metadata id="metadata7">
  <rdf:RDF>
   <cc:Work rdf:about="">
    <dc:format>image/svg+xml</dc:format>
    <dc:type rdf:resource="http://purl.org/dc/dcmitype/StillImage"/>
    <dc:title/>
   </cc:Work>
  </rdf:RDF>
 </metadata>
 <g id="layer1" transform="translate(0 -1028.4)">
  <rect id="rect846" style="fill-opacity:.094118" ry="1.6409" height="20" width="20" y="1030.4" x="2"/>
  <rect id="rect844" style="fill-opacity:.17647" ry="1.5874" height="19.349" width="19.349" y="1030.7" x="2.3257"/>
  <rect id="rect838" style="fill-opacity:.35294" ry="1.534" height="18.697" width="18.697" y="1031" x="2.6515"/>
  <rect id="rect848" style="fill-opacity:.42672" ry="1.5153" height="18.469" width="18.469" y="1031.1" x="2.7654"/>
  <rect id="rect828" style="fill:url(#linearGradient836)" ry="1.4805" height="18.046" width="18.046" y="1031.3" x="2.9772"/>
  <path id="path558" d="m12.841 1042.7h-1.6825v-4.5883h1.6825l0.001 4.6zm0 2.6782h-1.6825v-1.5296h1.6825l0.001 1.4zm6.4323 0.7489-6.8115-11.954c-0.09326-0.1647-0.2708-0.266-0.46206-0.266-0.19125 0-0.36831 0.1013-0.46205 0.266l-6.8101 11.954c-0.09326 0.1624-0.09184 0.3598 0.0029 0.5203 0.09658 0.1605 0.26937 0.2599 0.45732 0.2599h13.624c0.18795 0 0.36074-0.099 0.45732-0.2599 0.09469-0.1605 0.09657-0.3579 0.0043-0.5203" style="fill:#fff"/>
 </g>
</svg>
