<?xml version="1.0" encoding="UTF-8" standalone="no"?>
<!-- Created with Inkscape (http://www.inkscape.org/) -->
<svg id="svg3449" xmlns:rdf="http://www.w3.org/1999/02/22-rdf-syntax-ns#" xmlns="http://www.w3.org/2000/svg" height="128" width="128" version="1.0" xmlns:cc="http://creativecommons.org/ns#" xmlns:xlink="http://www.w3.org/1999/xlink" xmlns:dc="http://purl.org/dc/elements/1.1/">
 <metadata id="metadata56">
  <rdf:RDF>
   <cc:Work rdf:about="">
    <dc:format>image/svg+xml</dc:format>
    <dc:type rdf:resource="http://purl.org/dc/dcmitype/StillImage"/>
    <dc:title/>
   </cc:Work>
  </rdf:RDF>
 </metadata>
 <defs id="defs3451">
  <linearGradient id="linearGradient3514" y2="-9.1034" gradientUnits="userSpaceOnUse" x2="66.492" gradientTransform="matrix(.96826 0 0 .97948 2.179 .16587)" y1="-42.638" x1="67.952">
   <stop id="stop4620" style="stop-color:#37414b" offset="0"/>
   <stop id="stop4622" style="stop-color:#37414b;stop-opacity:0" offset="1"/>
  </linearGradient>
  <linearGradient id="linearGradient3516" y2="-11.847" gradientUnits="userSpaceOnUse" x2="58.98" gradientTransform="matrix(.96826 0 0 .97948 2.179 .16587)" y1="-118.55" x1="57.173">
   <stop id="stop4596" offset="0"/>
   <stop id="stop4598" style="stop-opacity:0" offset="1"/>
  </linearGradient>
  <linearGradient id="linearGradient3519" y2="50.369" gradientUnits="userSpaceOnUse" x2="76.558" gradientTransform="matrix(.96826 0 0 .97948 3.2423 -129.19)" y1="13.164" x1="76.558">
   <stop id="stop3392" style="stop-color:#425e7b" offset="0"/>
   <stop id="stop3394" style="stop-color:#7a91a7" offset="1"/>
  </linearGradient>
  <linearGradient id="linearGradient3521" y2="-8.7399" gradientUnits="userSpaceOnUse" x2="60.217" gradientTransform="matrix(.96826 0 0 .97948 2.179 .16587)" y1="-123.72" x1="60.395">
   <stop id="stop3392-4-8" style="stop-color:#425e7b" offset="0"/>
   <stop id="stop3394-8-0" style="stop-color:#7a91a7" offset="1"/>
  </linearGradient>
  <radialGradient id="radialGradient3349" gradientUnits="userSpaceOnUse" cy="45.647" cx="42.148" gradientTransform="matrix(.94690 -.033779 .040605 1.1383 1.7419 -28.433)" r="58.984">
   <stop id="stop7563" style="stop-color:#7cc94f" offset="0"/>
   <stop id="stop7565" style="stop-color:#589b32" offset="1"/>
  </radialGradient>
  <filter id="filter3174-5" color-interpolation-filters="sRGB">
   <feGaussianBlur id="feGaussianBlur3176-4" stdDeviation="1.71"/>
  </filter>
  <linearGradient id="ButtonShadow-4" x1="45.448" gradientUnits="userSpaceOnUse" y1="92.54" gradientTransform="scale(1.0059 .99417)" x2="45.448" y2="7.0165">
   <stop id="stop3750-3" offset="0"/>
   <stop id="stop3752-57" style="stop-opacity:.58824" offset="1"/>
  </linearGradient>
  <filter id="filter3174-0" color-interpolation-filters="sRGB">
   <feGaussianBlur id="feGaussianBlur3176-9" stdDeviation="1.71"/>
  </filter>
  <filter id="filter3174-7" color-interpolation-filters="sRGB">
   <feGaussianBlur id="feGaussianBlur3176-7" stdDeviation="1.71"/>
  </filter>
  <clipPath id="clipPath3613-9">
   <rect id="rect3615-2" style="fill:#fff" rx="6" ry="6" height="84" width="84" y="6" x="6"/>
  </clipPath>
  <linearGradient id="linearGradient3613-3" x1="48" gradientUnits="userSpaceOnUse" y1="20.221" x2="48" y2="138.66">
   <stop id="stop3739-03" style="stop-color:#fff" offset="0"/>
   <stop id="stop3741-5" style="stop-color:#fff;stop-opacity:0" offset="1"/>
  </linearGradient>
  <filter id="filter3794-30" height="1.384" width="1.384" color-interpolation-filters="sRGB" y="-.192" x="-.192">
   <feGaussianBlur id="feGaussianBlur3796-38" stdDeviation="5.28"/>
  </filter>
  <filter id="filter3174-8" color-interpolation-filters="sRGB">
   <feGaussianBlur id="feGaussianBlur3176-3" stdDeviation="1.71"/>
  </filter>
  <clipPath id="clipPath3613-26">
   <rect id="rect3615-4" style="fill:#fff" rx="6" ry="6" height="84" width="84" y="6" x="6"/>
  </clipPath>
  <filter id="filter3794-67" height="1.384" width="1.384" color-interpolation-filters="sRGB" y="-.192" x="-.192">
   <feGaussianBlur id="feGaussianBlur3796-4" stdDeviation="5.28"/>
  </filter>
  <filter id="filter3174-4" color-interpolation-filters="sRGB">
   <feGaussianBlur id="feGaussianBlur3176-0" stdDeviation="1.71"/>
  </filter>
  <filter id="filter3174-1" color-interpolation-filters="sRGB">
   <feGaussianBlur id="feGaussianBlur3176-1" stdDeviation="1.71"/>
  </filter>
  <linearGradient id="linearGradient9285" y2="7.0165" gradientUnits="userSpaceOnUse" x2="45.448" gradientTransform="matrix(1.0059 0 0 .99417 -59.657 2.8358)" y1="92.54" x1="45.448">
   <stop id="stop3750-7" offset="0"/>
   <stop id="stop3752-3" style="stop-opacity:.58824" offset="1"/>
  </linearGradient>
  <filter id="filter3174-06" color-interpolation-filters="sRGB">
   <feGaussianBlur id="feGaussianBlur3176-91" stdDeviation="1.71"/>
  </filter>
  <filter id="filter3174-45" color-interpolation-filters="sRGB">
   <feGaussianBlur id="feGaussianBlur3176-46" stdDeviation="1.71"/>
  </filter>
  <filter id="filter3174-17" color-interpolation-filters="sRGB">
   <feGaussianBlur id="feGaussianBlur3176-33" stdDeviation="1.71"/>
  </filter>
  <filter id="filter3174-2" color-interpolation-filters="sRGB">
   <feGaussianBlur id="feGaussianBlur3176-6" stdDeviation="1.71"/>
  </filter>
  <linearGradient id="linearGradient8327" y2="7.0165" gradientUnits="userSpaceOnUse" x2="45.448" gradientTransform="matrix(1.0059 0 0 .99417 199.61 15.454)" y1="92.54" x1="45.448">
   <stop id="stop3750-60" offset="0"/>
   <stop id="stop3752-38" style="stop-opacity:.58824" offset="1"/>
  </linearGradient>
  <filter id="filter3174-54" color-interpolation-filters="sRGB">
   <feGaussianBlur id="feGaussianBlur3176-69" stdDeviation="1.71"/>
  </filter>
  <linearGradient id="linearGradient8554" y2="7.0165" gradientUnits="userSpaceOnUse" x2="45.448" gradientTransform="matrix(1.0059 0 0 .99417 -111.8 8.6962)" y1="92.54" x1="45.448">
   <stop id="stop3750-62" offset="0"/>
   <stop id="stop3752-52" style="stop-opacity:.58824" offset="1"/>
  </linearGradient>
  <filter id="filter3174-24" color-interpolation-filters="sRGB">
   <feGaussianBlur id="feGaussianBlur3176-64" stdDeviation="1.71"/>
  </filter>
  <linearGradient id="linearGradient8844" y2="7.0165" gradientUnits="userSpaceOnUse" x2="45.448" gradientTransform="matrix(1.0059 0 0 .99417 -182.89 .27657)" y1="92.54" x1="45.448">
   <stop id="stop3750-9" offset="0"/>
   <stop id="stop3752-48" style="stop-opacity:.58824" offset="1"/>
  </linearGradient>
 </defs>
 <rect id="rect892" style="stroke:url(#linearGradient3521);stroke-width:.97385;fill:url(#linearGradient3519)" transform="scale(1,-1)" ry="29.296" height="115.54" width="114.22" y="-122.25" x="7.0394"/>
 <rect id="rect892-2" style="stroke:url(#linearGradient3516);stroke-width:.97385;fill:url(#linearGradient3514)" transform="scale(1,-1)" ry="28.993" height="114.35" width="114.22" y="-121.46" x="7.0599"/>
 <path id="rect895" style="fill:url(#radialGradient3349)" d="m30.571 7.0104c-13.128 0.936-22.55 15.04-23.173 23.288-0.050142 0.97378-0.088772 1.9648-0.088772 2.9572v58.419c0 15.229 11.191 27.859 22.318 27.859h67.038c15.69 0 24.318-16.445 24.318-25.859v-64.017c-0.21-5.933-12.29-21.682-25.926-22.618-47.846 0.8653-20.497-0.0256-64.483-0.0256z"/>
 <rect id="rect892-2-7-8" style="opacity:.15891;stroke:#000;stroke-width:4.8445;fill:none" transform="scale(1,-1)" ry="28.993" height="114.35" width="114.22" y="-121.16" x="6.8683"/>
 <rect id="rect892-2-7-1" style="opacity:.15891;stroke:#000;stroke-width:7.7512;fill:none" transform="scale(1,-1)" ry="28.993" height="114.35" width="114.22" y="-121.16" x="6.8686"/>
 <rect id="rect892-2-7-2-9" ry="28.502" style="stroke:#000;stroke-width:1.0569;fill:none" transform="scale(1,-1)" height="114.46" width="114.13" y="-121.31" x="7.0685"/>
 <g id="layer2" style="display:none" transform="translate(137.63 15.959)">
  <rect id="rect3745" style="opacity:.9;filter:url(#filter3174-5);fill:url(#ButtonShadow-4)" rx="6" ry="6" height="85" width="86" y="7" x="5"/>
 </g>
 <g id="layer2-3" style="display:none" transform="translate(146.29 14.997)">
  <rect id="rect3745-4" style="opacity:.9;filter:url(#filter3174-0);fill:url(#ButtonShadow-4)" rx="6" ry="6" height="85" width="86" y="7" x="5"/>
 </g>
 <g id="layer2-4" style="display:none" transform="translate(176.76 -8.736)">
  <rect id="rect3745-7" style="opacity:.9;filter:url(#filter3174-7);fill:url(#ButtonShadow-4)" rx="6" ry="6" height="85" width="86" y="7" x="5"/>
 </g>
 <g id="layer2-2" style="display:none" transform="translate(143.15 5.055)">
  <rect id="rect3745-9" style="opacity:.9;filter:url(#filter3174-8);fill:url(#ButtonShadow-4)" rx="6" ry="6" height="85" width="86" y="7" x="5"/>
 </g>
 <g id="layer5-4" style="display:none" transform="translate(143.15 5.055)">
  <rect id="rect3171-7" style="opacity:.3;filter:url(#filter3794-30);stroke:#fff;stroke-linecap:round;stroke-width:.5;fill:url(#linearGradient3613-3)" clip-path="url(#clipPath3613-9)" rx="12" ry="12" height="66" width="66" y="15" x="15"/>
 </g>
 <g id="layer2-1" style="display:none" transform="translate(160.47 -5.8175)">
  <rect id="rect3745-8" style="opacity:.9;filter:url(#filter3174-4);fill:url(#ButtonShadow-4)" rx="6" ry="6" height="85" width="86" y="7" x="5"/>
 </g>
 <g id="layer5-46" style="display:none" transform="translate(160.47 -5.8175)">
  <rect id="rect3171-2" style="opacity:.1;filter:url(#filter3794-67);stroke:#fff;stroke-linecap:round;stroke-width:.5;fill:url(#linearGradient3613-3)" clip-path="url(#clipPath3613-26)" rx="12" ry="12" height="66" width="66" y="15" x="15"/>
 </g>
 <rect id="rect3745-82" style="opacity:.9;filter:url(#filter3174-1);display:none;fill:url(#linearGradient9285)" rx="6" ry="6" height="85" width="86" y="9.8358" x="-54.657"/>
 <style id="style1470" type="text/css"/>
 <g id="layer2-9" style="display:none" transform="translate(-132.38 3.7839)">
  <rect id="rect3745-827" style="opacity:.9;filter:url(#filter3174-06);fill:url(#ButtonShadow-4)" rx="6" ry="6" height="85" width="86" y="7" x="5"/>
 </g>
 <rect id="rect3745-74" style="opacity:.9;filter:url(#filter3174-45);display:none;fill:url(#ButtonShadow-4)" transform="matrix(1.1352 0 0 1.3226 15.015 .16604)" rx="6" ry="6" height="85" width="86" y="7" x="5"/>
 <g id="layer2-7" style="display:none" transform="translate(10.047 -115.26)">
  <rect id="rect3745-93" style="opacity:.9;filter:url(#filter3174-17);fill:url(#ButtonShadow-4)" rx="6" ry="6" height="85" width="86" y="7" x="5"/>
 </g>
 <rect id="rect3745-85" style="opacity:.9;filter:url(#filter3174-2);display:none;fill:url(#linearGradient8327)" rx="6" ry="6" height="85" width="86" y="22.454" x="204.61"/>
 <rect id="rect3745-1" style="opacity:.9;filter:url(#filter3174-54);display:none;fill:url(#linearGradient8554)" rx="6" ry="6" height="85" width="86" y="15.696" x="-106.8"/>
 <rect id="rect3745-6" style="opacity:.9;filter:url(#filter3174-24);display:none;fill:url(#linearGradient8844)" rx="6" ry="6" height="85" width="86" y="7.2766" x="-177.89"/>
 <g id="g7276" transform="matrix(1.0116 0 0 1.0116 -1.3267 -.66272)">
  <path id="path7255" style="stroke:#005a00;fill:#fff" d="m64.562 19.938c-24.291 0-43.969 19.709-43.969 44s19.677 43.969 43.969 43.969c24.291 0 44-19.677 44-43.969 0-24.291-19.709-44-44-44zm0 12.125c17.708 0 32.062 14.354 32.062 32.062s-14.354 32.094-32.062 32.094-32.062-14.386-32.062-32.094 14.354-32.063 32.062-32.063z"/>
  <path id="path7234" d="m65.71 84.645c-1.1-1.1-2-2.948-2-4.1066 0-2.926 18.589-20.893 21.617-20.893 2.8544 0 5.3834 2.5087 5.3834 5.3402 0 2.6642-18.652 21.66-21.268 21.66-0.95266 0-2.6321-0.9-3.7321-2zm-17.635-19.184c-7.8515-7.6996-9.3653-9.6879-9.3653-12.3 0-3.8827 1.5652-5.5158 5.2866-5.5158 2.1753 0 4.4668 1.5174 9.3 6.1585l6.4134 6.1585 6.4134-6.1585c6.7419-6.4739 9.9852-7.617 13.015-4.5871 3.318 3.318 1.9474 6.0782-7.9158 15.941-6.0926 6.0926-10.256 9.4872-11.635 9.4872-1.361 0-5.5775-3.3637-11.513-9.1842z" style="stroke:#005a00;fill:#fff"/>
 </g>
</svg>
