<?xml version="1.0" encoding="UTF-8" standalone="no"?>
<!-- Created with Inkscape (http://www.inkscape.org/) -->

<svg
   xmlns:osb="http://www.openswatchbook.org/uri/2009/osb"
   xmlns:dc="http://purl.org/dc/elements/1.1/"
   xmlns:cc="http://creativecommons.org/ns#"
   xmlns:rdf="http://www.w3.org/1999/02/22-rdf-syntax-ns#"
   xmlns:svg="http://www.w3.org/2000/svg"
   xmlns="http://www.w3.org/2000/svg"
   xmlns:xlink="http://www.w3.org/1999/xlink"
   xmlns:sodipodi="http://sodipodi.sourceforge.net/DTD/sodipodi-0.dtd"
   xmlns:inkscape="http://www.inkscape.org/namespaces/inkscape"
   width="16"
   height="16"
   id="svg2"
   version="1.1"
   inkscape:version="0.48.4 r9939"
   sodipodi:docname="media-optical.svg">
  <defs
     id="defs4">
    <linearGradient
       id="linearGradient1264-7">
      <stop
         style="stop-color:#626262;stop-opacity:1;"
         offset="0"
         id="stop1266-5" />
      <stop
         id="stop1268-3"
         offset="0.01761973"
         style="stop-color:#ababab;stop-opacity:1;" />
      <stop
         id="stop1270-5"
         offset="0.04698669"
         style="stop-color:#d2d2d2;stop-opacity:1" />
      <stop
         id="stop1272-4"
         offset="0.35622254"
         style="stop-color:#ffffff;stop-opacity:1" />
      <stop
         style="stop-color:#d2d2d2;stop-opacity:1"
         offset="0.95644945"
         id="stop1274-3" />
      <stop
         id="stop1276-4"
         offset="0.97822475"
         style="stop-color:#ababab;stop-opacity:1;" />
      <stop
         style="stop-color:#626262;stop-opacity:1;"
         offset="1"
         id="stop1278-6" />
    </linearGradient>
    <linearGradient
       y2="138.66119"
       x2="48"
       y1="20.220806"
       x1="48"
       gradientUnits="userSpaceOnUse"
       id="linearGradient3265"
       xlink:href="#linearGradient3737"
       inkscape:collect="always" />
    <linearGradient
       y2="18.974037"
       x2="10.710332"
       y1="1.9963325"
       x1="10.710332"
       gradientTransform="matrix(1.0570662,0,0,1.0570662,256.96687,574.84907)"
       gradientUnits="userSpaceOnUse"
       id="linearGradient3263"
       xlink:href="#linearGradient4281-6"
       inkscape:collect="always" />
    <linearGradient
       y2="18.974037"
       x2="10.710332"
       y1="1.9963325"
       x1="10.710332"
       gradientTransform="matrix(2.819164,0,0,2.819164,15.399593,16.515788)"
       gradientUnits="userSpaceOnUse"
       id="linearGradient3259"
       xlink:href="#linearGradient4281-6"
       inkscape:collect="always" />
    <linearGradient
       y2="18.974037"
       x2="10.710332"
       y1="1.9963325"
       x1="10.710332"
       gradientTransform="matrix(2.819164,0,0,2.819164,15.399593,16.515788)"
       gradientUnits="userSpaceOnUse"
       id="linearGradient3250"
       xlink:href="#linearGradient4281-6"
       inkscape:collect="always" />
    <linearGradient
       y2="18.974037"
       x2="10.710332"
       y1="1.9963325"
       x1="10.710332"
       gradientTransform="matrix(2.819164,0,0,2.819164,15.399593,16.515788)"
       gradientUnits="userSpaceOnUse"
       id="linearGradient3248"
       xlink:href="#linearGradient4281-6"
       inkscape:collect="always" />
    <linearGradient
       id="linearGradient4384">
      <stop
         id="stop4386"
         style="stop-color:#ffffff;stop-opacity:1"
         offset="0" />
      <stop
         id="stop4388"
         style="stop-color:#ffffff;stop-opacity:0"
         offset="1" />
    </linearGradient>
    <linearGradient
       id="linearGradient4367">
      <stop
         id="stop4369"
         style="stop-color:#ffffff;stop-opacity:0.71755725"
         offset="0" />
      <stop
         id="stop4371"
         style="stop-color:#ffffff;stop-opacity:1"
         offset="1" />
    </linearGradient>
    <linearGradient
       x1="45.447727"
       y1="92.539597"
       x2="45.447727"
       y2="7.0165396"
       id="ButtonShadow"
       gradientUnits="userSpaceOnUse"
       gradientTransform="scale(1.0058652,0.994169)">
      <stop
         id="stop3750"
         style="stop-color:#000000;stop-opacity:1"
         offset="0" />
      <stop
         id="stop3752"
         style="stop-color:#000000;stop-opacity:0.58823532"
         offset="1" />
    </linearGradient>
    <linearGradient
       id="linearGradient3737">
      <stop
         id="stop3739"
         style="stop-color:#ffffff;stop-opacity:1"
         offset="0" />
      <stop
         id="stop3741"
         style="stop-color:#ffffff;stop-opacity:0"
         offset="1" />
    </linearGradient>
    <filter
       color-interpolation-filters="sRGB"
       id="filter3174">
      <feGaussianBlur
         id="feGaussianBlur3176"
         stdDeviation="1.71" />
    </filter>
    <filter
       x="-0.192"
       y="-0.192"
       width="1.3839999"
       height="1.3839999"
       color-interpolation-filters="sRGB"
       id="filter3794">
      <feGaussianBlur
         id="feGaussianBlur3796"
         stdDeviation="5.28" />
    </filter>
    <linearGradient
       x1="48"
       y1="20.220806"
       x2="48"
       y2="138.66119"
       id="linearGradient3613"
       xlink:href="#linearGradient3737"
       gradientUnits="userSpaceOnUse" />
    <linearGradient
       x1="45.447727"
       y1="92.539597"
       x2="45.447727"
       y2="7.0165396"
       id="ButtonShadow-0"
       gradientUnits="userSpaceOnUse"
       gradientTransform="matrix(1.0058652,0,0,0.994169,100,0)">
      <stop
         id="stop3750-8"
         style="stop-color:#000000;stop-opacity:1"
         offset="0" />
      <stop
         id="stop3752-5"
         style="stop-color:#000000;stop-opacity:0.58823532"
         offset="1" />
    </linearGradient>
    <linearGradient
       x1="32.251034"
       y1="6.1317081"
       x2="32.251034"
       y2="90.238609"
       id="linearGradient3780"
       xlink:href="#ButtonShadow-0"
       gradientUnits="userSpaceOnUse"
       gradientTransform="matrix(1.0238095,0,0,1.0119048,-1.1428571,-98.071429)" />
    <linearGradient
       x1="32.251034"
       y1="6.1317081"
       x2="32.251034"
       y2="90.238609"
       id="linearGradient3772"
       xlink:href="#ButtonShadow-0"
       gradientUnits="userSpaceOnUse"
       gradientTransform="matrix(1.0238095,0,0,1.0119048,-1.1428571,-98.071429)" />
    <linearGradient
       x1="32.251034"
       y1="6.1317081"
       x2="32.251034"
       y2="90.238609"
       id="linearGradient3725"
       xlink:href="#ButtonShadow-0"
       gradientUnits="userSpaceOnUse"
       gradientTransform="matrix(1.0238095,0,0,1.0119048,-1.1428571,-98.071429)" />
    <linearGradient
       x1="32.251034"
       y1="6.1317081"
       x2="32.251034"
       y2="90.238609"
       id="linearGradient3721"
       xlink:href="#ButtonShadow-0"
       gradientUnits="userSpaceOnUse"
       gradientTransform="translate(0,-97)" />
    <linearGradient
       x1="32.251034"
       y1="6.1317081"
       x2="32.251034"
       y2="90.238609"
       id="linearGradient3026"
       xlink:href="#ButtonShadow-0"
       gradientUnits="userSpaceOnUse"
       gradientTransform="matrix(1.0238095,0,0,1.0119048,-1.1428571,-98.071429)" />
    <clipPath
       id="clipPath4355">
      <rect
         width="84"
         height="80"
         rx="6"
         ry="6"
         x="6"
         y="6"
         id="rect4357"
         style="fill:#ffffff;fill-opacity:1;fill-rule:nonzero;stroke:none" />
    </clipPath>
    <radialGradient
       cx="48"
       cy="87.792389"
       r="42"
       fx="48"
       fy="87.792389"
       id="radialGradient4375"
       xlink:href="#linearGradient4367"
       gradientUnits="userSpaceOnUse"
       gradientTransform="matrix(1,-6.7114942e-8,8.4282233e-8,1.2557894,109.99999,-24.505592)" />
    <linearGradient
       x1="48"
       y1="88"
       x2="48"
       y2="-40"
       id="linearGradient4390"
       xlink:href="#linearGradient4384"
       gradientUnits="userSpaceOnUse"
       gradientTransform="matrix(1,0,0,-1,0,92)" />
    <linearGradient
       x1="48"
       y1="82"
       x2="112.12357"
       y2="82.454597"
       id="linearGradient4429"
       xlink:href="#linearGradient4384"
       gradientUnits="userSpaceOnUse"
       spreadMethod="reflect" />
    <linearGradient
       id="linearGradient3892">
      <stop
         id="stop3894"
         style="stop-color:#000000;stop-opacity:0.58823532"
         offset="0" />
      <stop
         id="stop3896"
         style="stop-color:#000000;stop-opacity:0.47058824"
         offset="0.11780351" />
      <stop
         id="stop3898"
         style="stop-color:#000000;stop-opacity:0.39215687"
         offset="0.23809524" />
      <stop
         id="stop3900"
         style="stop-color:#000000;stop-opacity:0.3137255"
         offset="1" />
    </linearGradient>
    <linearGradient
       x1="90"
       y1="88"
       x2="48"
       y2="88"
       id="linearGradient3228"
       xlink:href="#linearGradient3892"
       gradientUnits="userSpaceOnUse"
       spreadMethod="reflect" />
    <linearGradient
       id="linearGradient4081">
      <stop
         id="stop4083"
         style="stop-color:#8c8c8c;stop-opacity:1"
         offset="0" />
      <stop
         id="stop4085"
         style="stop-color:#dcdcdc;stop-opacity:1"
         offset="1" />
    </linearGradient>
    <linearGradient
       x1="48"
       y1="90"
       x2="48"
       y2="5.9877172"
       id="linearGradient3161"
       xlink:href="#linearGradient4081"
       gradientUnits="userSpaceOnUse" />
    <linearGradient
       x1="48.233639"
       y1="48.047016"
       x2="126.13924"
       y2="66.232674"
       id="linearGradient4077-0"
       xlink:href="#linearGradient4071-3"
       gradientUnits="userSpaceOnUse" />
    <linearGradient
       id="linearGradient4071-3">
      <stop
         id="stop4073-8"
         style="stop-color:#000000;stop-opacity:1"
         offset="0" />
      <stop
         id="stop4075-4"
         style="stop-color:#000000;stop-opacity:0"
         offset="1" />
    </linearGradient>
    <linearGradient
       x1="48.055065"
       y1="48.031517"
       x2="126.67282"
       y2="62.838562"
       id="linearGradient4069-9"
       xlink:href="#linearGradient4047-2"
       gradientUnits="userSpaceOnUse" />
    <linearGradient
       id="linearGradient4047-2">
      <stop
         id="stop4049-0"
         style="stop-color:#000000;stop-opacity:1"
         offset="0" />
      <stop
         id="stop4051-5"
         style="stop-color:#000000;stop-opacity:0"
         offset="1" />
    </linearGradient>
    <linearGradient
       x1="47.997307"
       y1="48.028725"
       x2="127.05216"
       y2="60.289631"
       id="linearGradient4061-6"
       xlink:href="#linearGradient4047-2"
       gradientUnits="userSpaceOnUse" />
    <linearGradient
       x1="47.99826"
       y1="48.028797"
       x2="127.41583"
       y2="57.664623"
       id="linearGradient4053-2"
       xlink:href="#linearGradient4047-2"
       gradientUnits="userSpaceOnUse" />
    <radialGradient
       cx="48.410488"
       cy="47.59774"
       r="30.640047"
       fx="48.410488"
       fy="47.59774"
       id="radialGradient3814-9"
       xlink:href="#linearGradient3796-9"
       gradientUnits="userSpaceOnUse"
       gradientTransform="matrix(1,0,0,0.98495914,-30,0.71591078)" />
    <linearGradient
       id="linearGradient3796-9">
      <stop
         id="stop3798-4"
         style="stop-color:#ffffff;stop-opacity:0"
         offset="0" />
      <stop
         id="stop3800-9"
         style="stop-color:#ffffff;stop-opacity:1"
         offset="1" />
    </linearGradient>
    <radialGradient
       cx="48.265148"
       cy="47.886696"
       r="28.878813"
       fx="48.265148"
       fy="47.886696"
       id="radialGradient5008"
       xlink:href="#linearGradient3780-6-5"
       gradientUnits="userSpaceOnUse"
       gradientTransform="matrix(1,0,0,1.013812,-30,-0.66140908)" />
    <linearGradient
       id="linearGradient3780-6-5">
      <stop
         id="stop3782-4"
         style="stop-color:#000000;stop-opacity:0"
         offset="0" />
      <stop
         id="stop3784-9"
         style="stop-color:#000000;stop-opacity:1"
         offset="1" />
    </linearGradient>
    <linearGradient
       x1="48.233643"
       y1="48.04702"
       x2="126.13924"
       y2="66.232674"
       id="linearGradient4145-0"
       xlink:href="#linearGradient4115-2"
       gradientUnits="userSpaceOnUse" />
    <linearGradient
       id="linearGradient4115-2">
      <stop
         id="stop4117-3"
         style="stop-color:#ffffff;stop-opacity:1"
         offset="0" />
      <stop
         id="stop4119-6"
         style="stop-color:#ffffff;stop-opacity:0"
         offset="1" />
    </linearGradient>
    <linearGradient
       x1="48.055069"
       y1="48.031521"
       x2="126.67282"
       y2="62.838566"
       id="linearGradient4137-7"
       xlink:href="#linearGradient4115-2"
       gradientUnits="userSpaceOnUse" />
    <linearGradient
       x1="47.997311"
       y1="48.028728"
       x2="127.05216"
       y2="60.289635"
       id="linearGradient4129-8"
       xlink:href="#linearGradient4115-2"
       gradientUnits="userSpaceOnUse" />
    <linearGradient
       x1="47.998264"
       y1="48.028801"
       x2="127.41583"
       y2="57.664627"
       id="linearGradient4121-6"
       xlink:href="#linearGradient4115-2"
       gradientUnits="userSpaceOnUse" />
    <linearGradient
       x1="48.233639"
       y1="48.047016"
       x2="126.13924"
       y2="66.232674"
       id="linearGradient4089-7"
       xlink:href="#linearGradient4071-3"
       gradientUnits="userSpaceOnUse" />
    <linearGradient
       x1="48.055065"
       y1="48.031517"
       x2="126.67282"
       y2="62.838562"
       id="linearGradient4091-0"
       xlink:href="#linearGradient4047-2"
       gradientUnits="userSpaceOnUse" />
    <linearGradient
       x1="47.997307"
       y1="48.028725"
       x2="127.05216"
       y2="60.289631"
       id="linearGradient4093-5"
       xlink:href="#linearGradient4047-2"
       gradientUnits="userSpaceOnUse" />
    <linearGradient
       x1="47.99826"
       y1="48.028797"
       x2="127.41583"
       y2="57.664623"
       id="linearGradient4095-8"
       xlink:href="#linearGradient4047-2"
       gradientUnits="userSpaceOnUse" />
    <linearGradient
       x1="48.233639"
       y1="48.047016"
       x2="126.13924"
       y2="66.232674"
       id="linearGradient4107-8"
       xlink:href="#linearGradient4071-3"
       gradientUnits="userSpaceOnUse" />
    <linearGradient
       x1="48.055065"
       y1="48.031517"
       x2="126.67282"
       y2="62.838562"
       id="linearGradient4109-3"
       xlink:href="#linearGradient4047-2"
       gradientUnits="userSpaceOnUse" />
    <linearGradient
       x1="47.997307"
       y1="48.028725"
       x2="127.05216"
       y2="60.289631"
       id="linearGradient4111-3"
       xlink:href="#linearGradient4047-2"
       gradientUnits="userSpaceOnUse" />
    <linearGradient
       x1="47.99826"
       y1="48.028797"
       x2="127.41583"
       y2="57.664623"
       id="linearGradient4113-5"
       xlink:href="#linearGradient4047-2"
       gradientUnits="userSpaceOnUse" />
    <linearGradient
       x1="48.233643"
       y1="48.04702"
       x2="126.13924"
       y2="66.232674"
       id="linearGradient4157-8"
       xlink:href="#linearGradient4115-2"
       gradientUnits="userSpaceOnUse" />
    <linearGradient
       x1="48.055069"
       y1="48.031521"
       x2="126.67282"
       y2="62.838566"
       id="linearGradient4159-8"
       xlink:href="#linearGradient4115-2"
       gradientUnits="userSpaceOnUse" />
    <linearGradient
       x1="47.997311"
       y1="48.028728"
       x2="127.05216"
       y2="60.289635"
       id="linearGradient4161-2"
       xlink:href="#linearGradient4115-2"
       gradientUnits="userSpaceOnUse" />
    <linearGradient
       x1="47.998264"
       y1="48.028801"
       x2="127.41583"
       y2="57.664627"
       id="linearGradient4163-3"
       xlink:href="#linearGradient4115-2"
       gradientUnits="userSpaceOnUse" />
    <clipPath
       id="clipPath4311">
      <rect
         width="84"
         height="80"
         rx="6"
         ry="6"
         x="6"
         y="8"
         id="rect4313"
         style="fill:#ff00ff;fill-opacity:1;fill-rule:nonzero;stroke:none" />
    </clipPath>
    <linearGradient
       id="linearGradient4281-6">
      <stop
         id="stop4283-9"
         style="stop-color:#1e1e1e;stop-opacity:1"
         offset="0" />
      <stop
         id="stop4285-8"
         style="stop-color:#505050;stop-opacity:1"
         offset="1" />
    </linearGradient>
    <linearGradient
       x1="10.710332"
       y1="1.9963325"
       x2="10.710332"
       y2="18.974037"
       id="linearGradient3089-3"
       xlink:href="#linearGradient4281-6"
       gradientUnits="userSpaceOnUse"
       gradientTransform="matrix(2.819164,0,0,2.819164,15.399593,16.515788)" />
    <clipPath
       id="clipPath4001">
      <path
         d="m 40.9375,22 c -4.337728,0 -8.661532,1.6424 -11.96875,4.9375 -6.614435,6.590199 -6.614434,17.2848 0,23.875 5.766309,5.745185 14.64906,6.521844 21.21875,2.25 1.116703,0.05582 2.922607,0.214234 3.5625,0.9375 0.871276,0.984794 -0.358454,3.280341 1.3125,4.78125 l 10.375,10.53125 c 0,0 1.934922,2.054077 4.9375,-0.9375 3.00258,-2.991577 0.9375,-4.90625 0.9375,-4.90625 L 60.90625,52.9375 C 59.399818,51.272668 57.082164,52.49308 56.09375,51.625 55.367821,50.987453 55.243513,49.206365 55.1875,48.09375 59.475054,41.548134 58.703812,32.682678 52.9375,26.9375 49.630282,23.6424 45.275228,22 40.9375,22 z M 41,27.625 c 6.236149,0 11.3125,5.036699 11.3125,11.25 0,6.213304 -5.076348,11.25 -11.3125,11.25 -6.236145,3e-6 -11.28125,-5.036696 -11.28125,-11.25 0,-3.106651 1.267675,-5.962669 3.3125,-8 2.044825,-2.037333 4.850676,-3.25 7.96875,-3.25 z M 27,64 c -1.656854,0 -3,1.343146 -3,3 0,1.656854 1.343146,3 3,3 1.656854,0 3,-1.343146 3,-3 0,-1.656854 -1.343146,-3 -3,-3 z m 10,0 c -1.656854,0 -3,1.343146 -3,3 0,1.656854 1.343146,3 3,3 1.656854,0 3,-1.343146 3,-3 0,-1.656854 -1.343146,-3 -3,-3 z m 10,0 c -1.656854,0 -3,1.343146 -3,3 0,1.656854 1.343146,3 3,3 1.656854,0 3,-1.343146 3,-3 0,-1.656854 -1.343146,-3 -3,-3 z"
         inkscape:connector-curvature="0"
         id="path4004"
         style="fill:#ff00ff;fill-opacity:1;stroke:none;display:inline" />
    </clipPath>
    <filter
       color-interpolation-filters="sRGB"
       id="filter4006">
      <feGaussianBlur
         id="feGaussianBlur4008"
         stdDeviation="0.72003858" />
    </filter>
    <linearGradient
       id="linearGradient4384-5">
      <stop
         id="stop4386-8"
         style="stop-color:#ffffff;stop-opacity:1"
         offset="0" />
      <stop
         id="stop4388-2"
         style="stop-color:#ffffff;stop-opacity:0"
         offset="1" />
    </linearGradient>
    <linearGradient
       id="linearGradient4367-9">
      <stop
         id="stop4369-1"
         style="stop-color:#ffffff;stop-opacity:0.71755725"
         offset="0" />
      <stop
         id="stop4371-1"
         style="stop-color:#ffffff;stop-opacity:1"
         offset="1" />
    </linearGradient>
    <linearGradient
       x1="45.447727"
       y1="92.539597"
       x2="45.447727"
       y2="7.0165396"
       id="ButtonShadow-3"
       gradientUnits="userSpaceOnUse"
       gradientTransform="scale(1.0058652,0.994169)">
      <stop
         id="stop3750-4"
         style="stop-color:#000000;stop-opacity:1"
         offset="0" />
      <stop
         id="stop3752-4"
         style="stop-color:#000000;stop-opacity:0.58823532"
         offset="1" />
    </linearGradient>
    <linearGradient
       id="linearGradient3737-0">
      <stop
         id="stop3739-2"
         style="stop-color:#ffffff;stop-opacity:1"
         offset="0" />
      <stop
         id="stop3741-1"
         style="stop-color:#ffffff;stop-opacity:0"
         offset="1" />
    </linearGradient>
    <filter
       color-interpolation-filters="sRGB"
       id="filter3174-3">
      <feGaussianBlur
         id="feGaussianBlur3176-6"
         stdDeviation="1.71" />
    </filter>
    <filter
       x="-0.192"
       y="-0.192"
       width="1.3839999"
       height="1.3839999"
       color-interpolation-filters="sRGB"
       id="filter3794-6">
      <feGaussianBlur
         id="feGaussianBlur3796-9"
         stdDeviation="5.28" />
    </filter>
    <linearGradient
       x1="48"
       y1="20.220806"
       x2="48"
       y2="138.66119"
       id="linearGradient3613-8"
       xlink:href="#linearGradient3737-0"
       gradientUnits="userSpaceOnUse" />
    <linearGradient
       x1="45.447727"
       y1="92.539597"
       x2="45.447727"
       y2="7.0165396"
       id="ButtonShadow-0-1"
       gradientUnits="userSpaceOnUse"
       gradientTransform="matrix(1.0058652,0,0,0.994169,100,0)">
      <stop
         id="stop3750-8-0"
         style="stop-color:#000000;stop-opacity:1"
         offset="0" />
      <stop
         id="stop3752-5-7"
         style="stop-color:#000000;stop-opacity:0.58823532"
         offset="1" />
    </linearGradient>
    <linearGradient
       x1="32.251034"
       y1="6.1317081"
       x2="32.251034"
       y2="90.238609"
       id="linearGradient3780-8"
       xlink:href="#ButtonShadow-0-1"
       gradientUnits="userSpaceOnUse"
       gradientTransform="matrix(1.0238095,0,0,1.0119048,-1.1428571,-98.071429)" />
    <linearGradient
       x1="32.251034"
       y1="6.1317081"
       x2="32.251034"
       y2="90.238609"
       id="linearGradient3772-4"
       xlink:href="#ButtonShadow-0-1"
       gradientUnits="userSpaceOnUse"
       gradientTransform="matrix(1.0238095,0,0,1.0119048,-1.1428571,-98.071429)" />
    <linearGradient
       x1="32.251034"
       y1="6.1317081"
       x2="32.251034"
       y2="90.238609"
       id="linearGradient3725-1"
       xlink:href="#ButtonShadow-0-1"
       gradientUnits="userSpaceOnUse"
       gradientTransform="matrix(1.0238095,0,0,1.0119048,-1.1428571,-98.071429)" />
    <linearGradient
       x1="32.251034"
       y1="6.1317081"
       x2="32.251034"
       y2="90.238609"
       id="linearGradient3721-5"
       xlink:href="#ButtonShadow-0-1"
       gradientUnits="userSpaceOnUse"
       gradientTransform="translate(0,-97)" />
    <linearGradient
       x1="32.251034"
       y1="6.1317081"
       x2="32.251034"
       y2="90.238609"
       id="linearGradient3026-7"
       xlink:href="#ButtonShadow-0-1"
       gradientUnits="userSpaceOnUse"
       gradientTransform="matrix(1.0238095,0,0,1.0119048,-1.1428571,-98.071429)" />
    <clipPath
       id="clipPath4355-3">
      <rect
         width="84"
         height="80"
         rx="6"
         ry="6"
         x="6"
         y="6"
         id="rect4357-1"
         style="fill:#ffffff;fill-opacity:1;fill-rule:nonzero;stroke:none" />
    </clipPath>
    <radialGradient
       cx="48"
       cy="87.792389"
       r="42"
       fx="48"
       fy="87.792389"
       id="radialGradient4375-3"
       xlink:href="#linearGradient4367-9"
       gradientUnits="userSpaceOnUse"
       gradientTransform="matrix(1,-6.7114942e-8,8.4282233e-8,1.2557894,109.99999,-24.505592)" />
    <linearGradient
       x1="48"
       y1="88"
       x2="48"
       y2="-40"
       id="linearGradient4390-1"
       xlink:href="#linearGradient4384-5"
       gradientUnits="userSpaceOnUse"
       gradientTransform="matrix(1,0,0,-1,0,92)" />
    <linearGradient
       x1="48"
       y1="82"
       x2="112.12357"
       y2="82.454597"
       id="linearGradient4429-6"
       xlink:href="#linearGradient4384-5"
       gradientUnits="userSpaceOnUse"
       spreadMethod="reflect" />
    <linearGradient
       id="linearGradient3892-7">
      <stop
         id="stop3894-6"
         style="stop-color:#000000;stop-opacity:0.58823532"
         offset="0" />
      <stop
         id="stop3896-6"
         style="stop-color:#000000;stop-opacity:0.47058824"
         offset="0.11780351" />
      <stop
         id="stop3898-9"
         style="stop-color:#000000;stop-opacity:0.39215687"
         offset="0.23809524" />
      <stop
         id="stop3900-7"
         style="stop-color:#000000;stop-opacity:0.3137255"
         offset="1" />
    </linearGradient>
    <linearGradient
       x1="90"
       y1="88"
       x2="48"
       y2="88"
       id="linearGradient3228-0"
       xlink:href="#linearGradient3892-7"
       gradientUnits="userSpaceOnUse"
       spreadMethod="reflect" />
    <linearGradient
       id="linearGradient4081-2">
      <stop
         id="stop4083-1"
         style="stop-color:#8c8c8c;stop-opacity:1"
         offset="0" />
      <stop
         id="stop4085-4"
         style="stop-color:#dcdcdc;stop-opacity:1"
         offset="1" />
    </linearGradient>
    <linearGradient
       x1="48"
       y1="90"
       x2="48"
       y2="5.9877172"
       id="linearGradient3161-9"
       xlink:href="#linearGradient4081-2"
       gradientUnits="userSpaceOnUse" />
    <linearGradient
       x1="48.233639"
       y1="48.047016"
       x2="126.13924"
       y2="66.232674"
       id="linearGradient4077-0-1"
       xlink:href="#linearGradient4071-3-8"
       gradientUnits="userSpaceOnUse" />
    <linearGradient
       id="linearGradient4071-3-8">
      <stop
         id="stop4073-8-2"
         style="stop-color:#000000;stop-opacity:1"
         offset="0" />
      <stop
         id="stop4075-4-4"
         style="stop-color:#000000;stop-opacity:0"
         offset="1" />
    </linearGradient>
    <linearGradient
       x1="48.055065"
       y1="48.031517"
       x2="126.67282"
       y2="62.838562"
       id="linearGradient4069-9-4"
       xlink:href="#linearGradient4047-2-8"
       gradientUnits="userSpaceOnUse" />
    <linearGradient
       id="linearGradient4047-2-8">
      <stop
         id="stop4049-0-5"
         style="stop-color:#000000;stop-opacity:1"
         offset="0" />
      <stop
         id="stop4051-5-5"
         style="stop-color:#000000;stop-opacity:0"
         offset="1" />
    </linearGradient>
    <linearGradient
       x1="47.997307"
       y1="48.028725"
       x2="127.05216"
       y2="60.289631"
       id="linearGradient4061-6-0"
       xlink:href="#linearGradient4047-2-8"
       gradientUnits="userSpaceOnUse" />
    <linearGradient
       x1="47.99826"
       y1="48.028797"
       x2="127.41583"
       y2="57.664623"
       id="linearGradient4053-2-6"
       xlink:href="#linearGradient4047-2-8"
       gradientUnits="userSpaceOnUse" />
    <radialGradient
       cx="48.410488"
       cy="47.59774"
       r="30.640047"
       fx="48.410488"
       fy="47.59774"
       id="radialGradient3814-9-4"
       xlink:href="#linearGradient3796-9-0"
       gradientUnits="userSpaceOnUse"
       gradientTransform="matrix(1,0,0,0.98495914,-30,0.71591078)" />
    <linearGradient
       id="linearGradient3796-9-0">
      <stop
         id="stop3798-4-2"
         style="stop-color:#ffffff;stop-opacity:0"
         offset="0" />
      <stop
         id="stop3800-9-7"
         style="stop-color:#ffffff;stop-opacity:1"
         offset="1" />
    </linearGradient>
    <radialGradient
       cx="48.265148"
       cy="47.886696"
       r="28.878813"
       fx="48.265148"
       fy="47.886696"
       id="radialGradient5008-7"
       xlink:href="#linearGradient3780-6-5-9"
       gradientUnits="userSpaceOnUse"
       gradientTransform="matrix(1,0,0,1.013812,-30,-0.66140908)" />
    <linearGradient
       id="linearGradient3780-6-5-9">
      <stop
         id="stop3782-4-2"
         style="stop-color:#000000;stop-opacity:0"
         offset="0" />
      <stop
         id="stop3784-9-0"
         style="stop-color:#000000;stop-opacity:1"
         offset="1" />
    </linearGradient>
    <linearGradient
       x1="48.233643"
       y1="48.04702"
       x2="126.13924"
       y2="66.232674"
       id="linearGradient4145-0-4"
       xlink:href="#linearGradient4115-2-3"
       gradientUnits="userSpaceOnUse" />
    <linearGradient
       id="linearGradient4115-2-3">
      <stop
         id="stop4117-3-6"
         style="stop-color:#ffffff;stop-opacity:1"
         offset="0" />
      <stop
         id="stop4119-6-2"
         style="stop-color:#ffffff;stop-opacity:0"
         offset="1" />
    </linearGradient>
    <linearGradient
       x1="48.055069"
       y1="48.031521"
       x2="126.67282"
       y2="62.838566"
       id="linearGradient4137-7-9"
       xlink:href="#linearGradient4115-2-3"
       gradientUnits="userSpaceOnUse" />
    <linearGradient
       x1="47.997311"
       y1="48.028728"
       x2="127.05216"
       y2="60.289635"
       id="linearGradient4129-8-5"
       xlink:href="#linearGradient4115-2-3"
       gradientUnits="userSpaceOnUse" />
    <linearGradient
       x1="47.998264"
       y1="48.028801"
       x2="127.41583"
       y2="57.664627"
       id="linearGradient4121-6-3"
       xlink:href="#linearGradient4115-2-3"
       gradientUnits="userSpaceOnUse" />
    <linearGradient
       x1="48.233639"
       y1="48.047016"
       x2="126.13924"
       y2="66.232674"
       id="linearGradient4089-7-7"
       xlink:href="#linearGradient4071-3-8"
       gradientUnits="userSpaceOnUse" />
    <linearGradient
       x1="48.055065"
       y1="48.031517"
       x2="126.67282"
       y2="62.838562"
       id="linearGradient4091-0-5"
       xlink:href="#linearGradient4047-2-8"
       gradientUnits="userSpaceOnUse" />
    <linearGradient
       x1="47.997307"
       y1="48.028725"
       x2="127.05216"
       y2="60.289631"
       id="linearGradient4093-5-8"
       xlink:href="#linearGradient4047-2-8"
       gradientUnits="userSpaceOnUse" />
    <linearGradient
       x1="47.99826"
       y1="48.028797"
       x2="127.41583"
       y2="57.664623"
       id="linearGradient4095-8-0"
       xlink:href="#linearGradient4047-2-8"
       gradientUnits="userSpaceOnUse" />
    <linearGradient
       x1="48.233639"
       y1="48.047016"
       x2="126.13924"
       y2="66.232674"
       id="linearGradient4107-8-1"
       xlink:href="#linearGradient4071-3-8"
       gradientUnits="userSpaceOnUse" />
    <linearGradient
       x1="48.055065"
       y1="48.031517"
       x2="126.67282"
       y2="62.838562"
       id="linearGradient4109-3-7"
       xlink:href="#linearGradient4047-2-8"
       gradientUnits="userSpaceOnUse" />
    <linearGradient
       x1="47.997307"
       y1="48.028725"
       x2="127.05216"
       y2="60.289631"
       id="linearGradient4111-3-1"
       xlink:href="#linearGradient4047-2-8"
       gradientUnits="userSpaceOnUse" />
    <linearGradient
       x1="47.99826"
       y1="48.028797"
       x2="127.41583"
       y2="57.664623"
       id="linearGradient4113-5-1"
       xlink:href="#linearGradient4047-2-8"
       gradientUnits="userSpaceOnUse" />
    <linearGradient
       x1="48.233643"
       y1="48.04702"
       x2="126.13924"
       y2="66.232674"
       id="linearGradient4157-8-9"
       xlink:href="#linearGradient4115-2-3"
       gradientUnits="userSpaceOnUse" />
    <linearGradient
       x1="48.055069"
       y1="48.031521"
       x2="126.67282"
       y2="62.838566"
       id="linearGradient4159-8-7"
       xlink:href="#linearGradient4115-2-3"
       gradientUnits="userSpaceOnUse" />
    <linearGradient
       x1="47.997311"
       y1="48.028728"
       x2="127.05216"
       y2="60.289635"
       id="linearGradient4161-2-6"
       xlink:href="#linearGradient4115-2-3"
       gradientUnits="userSpaceOnUse" />
    <linearGradient
       x1="47.998264"
       y1="48.028801"
       x2="127.41583"
       y2="57.664627"
       id="linearGradient4163-3-9"
       xlink:href="#linearGradient4115-2-3"
       gradientUnits="userSpaceOnUse" />
    <clipPath
       id="clipPath4311-5">
      <rect
         width="84"
         height="80"
         rx="6"
         ry="6"
         x="6"
         y="8"
         id="rect4313-3"
         style="fill:#ff00ff;fill-opacity:1;fill-rule:nonzero;stroke:none" />
    </clipPath>
    <linearGradient
       id="linearGradient4281-6-13">
      <stop
         id="stop4283-9-7"
         style="stop-color:#1e1e1e;stop-opacity:1"
         offset="0" />
      <stop
         id="stop4285-8-4"
         style="stop-color:#505050;stop-opacity:1"
         offset="1" />
    </linearGradient>
    <linearGradient
       x1="20.758585"
       y1="-19.425636"
       x2="20.758585"
       y2="45.017357"
       id="linearGradient3992"
       xlink:href="#linearGradient4281-6-13"
       gradientUnits="userSpaceOnUse"
       gradientTransform="matrix(1.2092989,0,0,1.2092989,18.976817,18.182027)" />
    <clipPath
       id="clipPath4008">
      <path
         d="m 44.425,20 c -1.023231,0 -1.86875,0.828036 -1.86875,1.86875 l 0,3.696875 c -1.829594,0.487474 -3.559846,1.222857 -5.159375,2.153125 L 34.75625,25.078125 C 34.388298,24.710177 33.973039,24.554035 33.496875,24.55 33.020713,24.5459 32.518012,24.716362 32.15625,25.078125 l -5.078125,5.078125 c -0.723522,0.723528 -0.695203,1.864104 0.04062,2.6 l 2.6,2.640625 c -0.930267,1.599524 -1.665639,3.329777 -2.153125,5.159375 l -3.65625,0 C 22.868662,40.55625 22,41.401775 22,42.425 l 0,7.15 c 0,1.023225 0.868662,1.86875 1.909375,1.86875 l 3.65625,0 c 0.487486,1.829599 1.222858,3.559851 2.153125,5.159375 l -2.6,2.6 c -0.735893,0.735895 -0.764213,1.917095 -0.04062,2.640625 l 5.078125,5.078125 c 0.723521,0.723528 1.864107,0.695267 2.6,-0.04063 l 2.640625,-2.6 c 1.599529,0.930272 3.329781,1.66565 5.159375,2.153125 l 0,3.65625 C 42.55625,71.131339 43.401769,72 44.425,72 l 7.15,0 c 1.023221,0 1.86875,-0.868661 1.86875,-1.909375 l 0,-3.65625 c 1.829594,-0.487475 3.559846,-1.222853 5.159375,-2.153125 l 2.640625,2.6 c 0.735893,0.735895 1.87647,0.764153 2.6,0.04063 l 5.078125,-5.078125 c 0.723522,-0.72353 0.695202,-1.90473 -0.04063,-2.640625 l -2.6,-2.6 c 0.930265,-1.599524 1.665649,-3.329776 2.153125,-5.159375 l 3.65625,0 C 73.131329,51.44375 74,50.598226 74,49.575 l 0,-7.15 c 0,-1.023222 -0.868671,-1.86875 -1.909375,-1.86875 l -3.65625,0 C 67.946903,38.726652 67.211516,36.996399 66.28125,35.396875 l 2.6,-2.640625 c 0.735892,-0.735896 0.764222,-1.876472 0.04063,-2.6 l -5.07813,-5.078125 c -0.723533,-0.723529 -1.864108,-0.735896 -2.6,0 L 58.603125,27.71875 C 57.00359,26.788476 55.273345,26.053099 53.44375,25.565625 l 0,-3.696875 C 53.44375,20.828036 52.598222,20 51.575,20 l -7.15,0 z M 48,38.11875 c 4.338971,0 7.840625,3.542285 7.840625,7.88125 0,4.338967 -3.501654,7.840625 -7.840625,7.840625 -4.33896,0 -7.840625,-3.501658 -7.840625,-7.840625 0,-4.338965 3.501665,-7.88125 7.840625,-7.88125 z"
         inkscape:connector-curvature="0"
         id="path4010"
         style="fill:#ff00ff;fill-opacity:1;fill-rule:nonzero;stroke:none;stroke-width:1;marker:none;visibility:visible;display:block;overflow:visible;enable-background:accumulate" />
    </clipPath>
    <filter
       color-interpolation-filters="sRGB"
       id="filter4012">
      <feGaussianBlur
         id="feGaussianBlur4014"
         stdDeviation="0.78" />
    </filter>
    <linearGradient
       y2="13.884353"
       x2="11.640054"
       y1="9.2693882"
       x1="11.640054"
       gradientTransform="matrix(3.4669826,0,0,3.4669826,362.282,510.31243)"
       gradientUnits="userSpaceOnUse"
       id="linearGradient3296"
       xlink:href="#linearGradient4281-6-1"
       inkscape:collect="always" />
    <linearGradient
       y2="13.884353"
       x2="11.640054"
       y1="9.2693882"
       x1="11.640054"
       gradientTransform="matrix(3.4669826,0,0,3.4669826,362.282,489.01375)"
       gradientUnits="userSpaceOnUse"
       id="linearGradient3281"
       xlink:href="#linearGradient4281-6-2"
       inkscape:collect="always" />
    <linearGradient
       y2="13.884353"
       x2="11.640054"
       y1="9.2693882"
       x1="11.640054"
       gradientTransform="matrix(3.4669826,0,0,3.4669826,362.282,469.63446)"
       gradientUnits="userSpaceOnUse"
       id="linearGradient3276"
       xlink:href="#linearGradient4281-6-4"
       inkscape:collect="always" />
    <linearGradient
       id="linearGradient4384-3">
      <stop
         id="stop4386-0"
         style="stop-color:#ffffff;stop-opacity:1"
         offset="0" />
      <stop
         id="stop4388-5"
         style="stop-color:#ffffff;stop-opacity:0"
         offset="1" />
    </linearGradient>
    <linearGradient
       id="linearGradient4367-1">
      <stop
         id="stop4369-3"
         style="stop-color:#ffffff;stop-opacity:0.71755725"
         offset="0" />
      <stop
         id="stop4371-7"
         style="stop-color:#ffffff;stop-opacity:1"
         offset="1" />
    </linearGradient>
    <linearGradient
       x1="45.447727"
       y1="92.539597"
       x2="45.447727"
       y2="7.0165396"
       id="ButtonShadow-37"
       gradientUnits="userSpaceOnUse"
       gradientTransform="scale(1.0058652,0.994169)">
      <stop
         id="stop3750-2"
         style="stop-color:#000000;stop-opacity:1"
         offset="0" />
      <stop
         id="stop3752-8"
         style="stop-color:#000000;stop-opacity:0.58823532"
         offset="1" />
    </linearGradient>
    <linearGradient
       id="linearGradient3737-2">
      <stop
         id="stop3739-6"
         style="stop-color:#ffffff;stop-opacity:1"
         offset="0" />
      <stop
         id="stop3741-6"
         style="stop-color:#ffffff;stop-opacity:0"
         offset="1" />
    </linearGradient>
    <filter
       color-interpolation-filters="sRGB"
       id="filter3174-7">
      <feGaussianBlur
         id="feGaussianBlur3176-63"
         stdDeviation="1.71" />
    </filter>
    <filter
       x="-0.192"
       y="-0.192"
       width="1.3839999"
       height="1.3839999"
       color-interpolation-filters="sRGB"
       id="filter3794-69">
      <feGaussianBlur
         id="feGaussianBlur3796-0"
         stdDeviation="5.28" />
    </filter>
    <linearGradient
       x1="48"
       y1="20.220806"
       x2="48"
       y2="138.66119"
       id="linearGradient3613-86"
       xlink:href="#linearGradient3737-2"
       gradientUnits="userSpaceOnUse" />
    <linearGradient
       x1="45.447727"
       y1="92.539597"
       x2="45.447727"
       y2="7.0165396"
       id="ButtonShadow-0-2"
       gradientUnits="userSpaceOnUse"
       gradientTransform="matrix(1.0058652,0,0,0.994169,100,0)">
      <stop
         id="stop3750-8-2"
         style="stop-color:#000000;stop-opacity:1"
         offset="0" />
      <stop
         id="stop3752-5-1"
         style="stop-color:#000000;stop-opacity:0.58823532"
         offset="1" />
    </linearGradient>
    <linearGradient
       x1="32.251034"
       y1="6.1317081"
       x2="32.251034"
       y2="90.238609"
       id="linearGradient3780-7"
       xlink:href="#ButtonShadow-0-2"
       gradientUnits="userSpaceOnUse"
       gradientTransform="matrix(1.0238095,0,0,1.0119048,-1.1428571,-98.071429)" />
    <linearGradient
       x1="32.251034"
       y1="6.1317081"
       x2="32.251034"
       y2="90.238609"
       id="linearGradient3772-5"
       xlink:href="#ButtonShadow-0-2"
       gradientUnits="userSpaceOnUse"
       gradientTransform="matrix(1.0238095,0,0,1.0119048,-1.1428571,-98.071429)" />
    <linearGradient
       x1="32.251034"
       y1="6.1317081"
       x2="32.251034"
       y2="90.238609"
       id="linearGradient3725-0"
       xlink:href="#ButtonShadow-0-2"
       gradientUnits="userSpaceOnUse"
       gradientTransform="matrix(1.0238095,0,0,1.0119048,-1.1428571,-98.071429)" />
    <linearGradient
       x1="32.251034"
       y1="6.1317081"
       x2="32.251034"
       y2="90.238609"
       id="linearGradient3721-57"
       xlink:href="#ButtonShadow-0-2"
       gradientUnits="userSpaceOnUse"
       gradientTransform="translate(0,-97)" />
    <linearGradient
       x1="32.251034"
       y1="6.1317081"
       x2="32.251034"
       y2="90.238609"
       id="linearGradient3026-1"
       xlink:href="#ButtonShadow-0-2"
       gradientUnits="userSpaceOnUse"
       gradientTransform="matrix(1.0238095,0,0,1.0119048,-1.1428571,-98.071429)" />
    <clipPath
       id="clipPath4355-6">
      <rect
         width="84"
         height="80"
         rx="6"
         ry="6"
         x="6"
         y="6"
         id="rect4357-2"
         style="fill:#ffffff;fill-opacity:1;fill-rule:nonzero;stroke:none" />
    </clipPath>
    <radialGradient
       cx="48"
       cy="87.792389"
       r="42"
       fx="48"
       fy="87.792389"
       id="radialGradient4375-7"
       xlink:href="#linearGradient4367-1"
       gradientUnits="userSpaceOnUse"
       gradientTransform="matrix(1,-6.7114942e-8,8.4282233e-8,1.2557894,109.99999,-24.505592)" />
    <linearGradient
       x1="48"
       y1="88"
       x2="48"
       y2="-40"
       id="linearGradient4390-2"
       xlink:href="#linearGradient4384-3"
       gradientUnits="userSpaceOnUse"
       gradientTransform="matrix(1,0,0,-1,0,92)" />
    <linearGradient
       x1="48"
       y1="82"
       x2="112.12357"
       y2="82.454597"
       id="linearGradient4429-9"
       xlink:href="#linearGradient4384-3"
       gradientUnits="userSpaceOnUse"
       spreadMethod="reflect" />
    <linearGradient
       id="linearGradient3892-0">
      <stop
         id="stop3894-3"
         style="stop-color:#000000;stop-opacity:0.58823532"
         offset="0" />
      <stop
         id="stop3896-2"
         style="stop-color:#000000;stop-opacity:0.47058824"
         offset="0.11780351" />
      <stop
         id="stop3898-4"
         style="stop-color:#000000;stop-opacity:0.39215687"
         offset="0.23809524" />
      <stop
         id="stop3900-9"
         style="stop-color:#000000;stop-opacity:0.3137255"
         offset="1" />
    </linearGradient>
    <linearGradient
       x1="90"
       y1="88"
       x2="48"
       y2="88"
       id="linearGradient3228-9"
       xlink:href="#linearGradient3892-0"
       gradientUnits="userSpaceOnUse"
       spreadMethod="reflect" />
    <linearGradient
       id="linearGradient4081-4">
      <stop
         id="stop4083-8"
         style="stop-color:#8c8c8c;stop-opacity:1"
         offset="0" />
      <stop
         id="stop4085-3"
         style="stop-color:#dcdcdc;stop-opacity:1"
         offset="1" />
    </linearGradient>
    <linearGradient
       x1="48"
       y1="90"
       x2="48"
       y2="5.9877172"
       id="linearGradient3161-1"
       xlink:href="#linearGradient4081-4"
       gradientUnits="userSpaceOnUse" />
    <linearGradient
       x1="48.233639"
       y1="48.047016"
       x2="126.13924"
       y2="66.232674"
       id="linearGradient4077-0-5"
       xlink:href="#linearGradient4071-3-2"
       gradientUnits="userSpaceOnUse" />
    <linearGradient
       id="linearGradient4071-3-2">
      <stop
         id="stop4073-8-1"
         style="stop-color:#000000;stop-opacity:1"
         offset="0" />
      <stop
         id="stop4075-4-41"
         style="stop-color:#000000;stop-opacity:0"
         offset="1" />
    </linearGradient>
    <linearGradient
       x1="48.055065"
       y1="48.031517"
       x2="126.67282"
       y2="62.838562"
       id="linearGradient4069-9-43"
       xlink:href="#linearGradient4047-2-80"
       gradientUnits="userSpaceOnUse" />
    <linearGradient
       id="linearGradient4047-2-80">
      <stop
         id="stop4049-0-0"
         style="stop-color:#000000;stop-opacity:1"
         offset="0" />
      <stop
         id="stop4051-5-52"
         style="stop-color:#000000;stop-opacity:0"
         offset="1" />
    </linearGradient>
    <linearGradient
       x1="47.997307"
       y1="48.028725"
       x2="127.05216"
       y2="60.289631"
       id="linearGradient4061-6-7"
       xlink:href="#linearGradient4047-2-80"
       gradientUnits="userSpaceOnUse" />
    <linearGradient
       x1="47.99826"
       y1="48.028797"
       x2="127.41583"
       y2="57.664623"
       id="linearGradient4053-2-3"
       xlink:href="#linearGradient4047-2-80"
       gradientUnits="userSpaceOnUse" />
    <radialGradient
       cx="48.410488"
       cy="47.59774"
       r="30.640047"
       fx="48.410488"
       fy="47.59774"
       id="radialGradient3814-9-47"
       xlink:href="#linearGradient3796-9-6"
       gradientUnits="userSpaceOnUse"
       gradientTransform="matrix(1,0,0,0.98495914,-30,0.71591078)" />
    <linearGradient
       id="linearGradient3796-9-6">
      <stop
         id="stop3798-4-5"
         style="stop-color:#ffffff;stop-opacity:0"
         offset="0" />
      <stop
         id="stop3800-9-70"
         style="stop-color:#ffffff;stop-opacity:1"
         offset="1" />
    </linearGradient>
    <radialGradient
       cx="48.265148"
       cy="47.886696"
       r="28.878813"
       fx="48.265148"
       fy="47.886696"
       id="radialGradient5008-4"
       xlink:href="#linearGradient3780-6-5-3"
       gradientUnits="userSpaceOnUse"
       gradientTransform="matrix(1,0,0,1.013812,-30,-0.66140908)" />
    <linearGradient
       id="linearGradient3780-6-5-3">
      <stop
         id="stop3782-4-1"
         style="stop-color:#000000;stop-opacity:0"
         offset="0" />
      <stop
         id="stop3784-9-4"
         style="stop-color:#000000;stop-opacity:1"
         offset="1" />
    </linearGradient>
    <linearGradient
       x1="48.233643"
       y1="48.04702"
       x2="126.13924"
       y2="66.232674"
       id="linearGradient4145-0-0"
       xlink:href="#linearGradient4115-2-1"
       gradientUnits="userSpaceOnUse" />
    <linearGradient
       id="linearGradient4115-2-1">
      <stop
         id="stop4117-3-3"
         style="stop-color:#ffffff;stop-opacity:1"
         offset="0" />
      <stop
         id="stop4119-6-0"
         style="stop-color:#ffffff;stop-opacity:0"
         offset="1" />
    </linearGradient>
    <linearGradient
       x1="48.055069"
       y1="48.031521"
       x2="126.67282"
       y2="62.838566"
       id="linearGradient4137-7-2"
       xlink:href="#linearGradient4115-2-1"
       gradientUnits="userSpaceOnUse" />
    <linearGradient
       x1="47.997311"
       y1="48.028728"
       x2="127.05216"
       y2="60.289635"
       id="linearGradient4129-8-3"
       xlink:href="#linearGradient4115-2-1"
       gradientUnits="userSpaceOnUse" />
    <linearGradient
       x1="47.998264"
       y1="48.028801"
       x2="127.41583"
       y2="57.664627"
       id="linearGradient4121-6-7"
       xlink:href="#linearGradient4115-2-1"
       gradientUnits="userSpaceOnUse" />
    <linearGradient
       x1="48.233639"
       y1="48.047016"
       x2="126.13924"
       y2="66.232674"
       id="linearGradient4089-7-72"
       xlink:href="#linearGradient4071-3-2"
       gradientUnits="userSpaceOnUse" />
    <linearGradient
       x1="48.055065"
       y1="48.031517"
       x2="126.67282"
       y2="62.838562"
       id="linearGradient4091-0-50"
       xlink:href="#linearGradient4047-2-80"
       gradientUnits="userSpaceOnUse" />
    <linearGradient
       x1="47.997307"
       y1="48.028725"
       x2="127.05216"
       y2="60.289631"
       id="linearGradient4093-5-0"
       xlink:href="#linearGradient4047-2-80"
       gradientUnits="userSpaceOnUse" />
    <linearGradient
       x1="47.99826"
       y1="48.028797"
       x2="127.41583"
       y2="57.664623"
       id="linearGradient4095-8-6"
       xlink:href="#linearGradient4047-2-80"
       gradientUnits="userSpaceOnUse" />
    <linearGradient
       x1="48.233639"
       y1="48.047016"
       x2="126.13924"
       y2="66.232674"
       id="linearGradient4107-8-4"
       xlink:href="#linearGradient4071-3-2"
       gradientUnits="userSpaceOnUse" />
    <linearGradient
       x1="48.055065"
       y1="48.031517"
       x2="126.67282"
       y2="62.838562"
       id="linearGradient4109-3-2"
       xlink:href="#linearGradient4047-2-80"
       gradientUnits="userSpaceOnUse" />
    <linearGradient
       x1="47.997307"
       y1="48.028725"
       x2="127.05216"
       y2="60.289631"
       id="linearGradient4111-3-15"
       xlink:href="#linearGradient4047-2-80"
       gradientUnits="userSpaceOnUse" />
    <linearGradient
       x1="47.99826"
       y1="48.028797"
       x2="127.41583"
       y2="57.664623"
       id="linearGradient4113-5-5"
       xlink:href="#linearGradient4047-2-80"
       gradientUnits="userSpaceOnUse" />
    <linearGradient
       x1="48.233643"
       y1="48.04702"
       x2="126.13924"
       y2="66.232674"
       id="linearGradient4157-8-0"
       xlink:href="#linearGradient4115-2-1"
       gradientUnits="userSpaceOnUse" />
    <linearGradient
       x1="48.055069"
       y1="48.031521"
       x2="126.67282"
       y2="62.838566"
       id="linearGradient4159-8-3"
       xlink:href="#linearGradient4115-2-1"
       gradientUnits="userSpaceOnUse" />
    <linearGradient
       x1="47.997311"
       y1="48.028728"
       x2="127.05216"
       y2="60.289635"
       id="linearGradient4161-2-3"
       xlink:href="#linearGradient4115-2-1"
       gradientUnits="userSpaceOnUse" />
    <linearGradient
       x1="47.998264"
       y1="48.028801"
       x2="127.41583"
       y2="57.664627"
       id="linearGradient4163-3-0"
       xlink:href="#linearGradient4115-2-1"
       gradientUnits="userSpaceOnUse" />
    <clipPath
       id="clipPath4311-2">
      <rect
         width="84"
         height="80"
         rx="6"
         ry="6"
         x="6"
         y="8"
         id="rect4313-8"
         style="fill:#ff00ff;fill-opacity:1;fill-rule:nonzero;stroke:none" />
    </clipPath>
    <linearGradient
       id="linearGradient4281-6-2">
      <stop
         id="stop4283-9-1"
         style="stop-color:#1e1e1e;stop-opacity:1"
         offset="0" />
      <stop
         id="stop4285-8-0"
         style="stop-color:#505050;stop-opacity:1"
         offset="1" />
    </linearGradient>
    <linearGradient
       x1="11.640054"
       y1="9.2693882"
       x2="11.640054"
       y2="13.884353"
       id="linearGradient3093"
       xlink:href="#linearGradient4281-6-2"
       gradientUnits="userSpaceOnUse"
       gradientTransform="matrix(3.4669826,0,0,3.4669826,9.863192,7.863192)" />
    <clipPath
       id="clipPath3981">
      <path
         d="m 26,40.110794 0,12.032952 44,0 0,-12.032952 z"
         inkscape:connector-curvature="0"
         id="path3983"
         style="opacity:0.8;fill:#ff00ff;fill-opacity:1;stroke:none;display:inline" />
    </clipPath>
    <filter
       color-interpolation-filters="sRGB"
       id="filter3985">
      <feGaussianBlur
         id="feGaussianBlur3987"
         stdDeviation="0.42024714" />
    </filter>
    <linearGradient
       id="linearGradient3785">
      <stop
         style="stop-color:#384880;stop-opacity:1;"
         offset="0"
         id="stop3787" />
      <stop
         style="stop-color:#000000;stop-opacity:1;"
         offset="1"
         id="stop3789" />
    </linearGradient>
    <linearGradient
       y2="520.1709"
       y1="408.39655"
       x2="365.97757"
       x1="365.51193"
       id="linearGradient3189"
       xlink:href="#linearGradient3785"
       gradientUnits="userSpaceOnUse"
       gradientTransform="matrix(0.08112299,0,0,0.07855526,540.8143,254.8467)"
       inkscape:collect="always" />
    <filter
       id="filter7554"
       color-interpolation-filters="sRGB"
       inkscape:collect="always">
      <feBlend
         mode="darken"
         in2="BackgroundImage"
         id="feBlend7556"
         inkscape:collect="always" />
    </filter>
    <linearGradient
       osb:paint="solid"
       id="linearGradient5606">
      <stop
         style="stop-color:#000000;stop-opacity:1;"
         offset="0"
         id="stop5608" />
    </linearGradient>
    <linearGradient
       x1="11.640054"
       y1="9.2693882"
       x2="11.640054"
       y2="13.884353"
       id="linearGradient3093-7"
       xlink:href="#linearGradient4281-6-4"
       gradientUnits="userSpaceOnUse"
       gradientTransform="matrix(3.4669826,0,0,3.4669826,9.863192,7.863192)" />
    <linearGradient
       id="linearGradient4281-6-4">
      <stop
         id="stop4283-9-0"
         style="stop-color:#1e1e1e;stop-opacity:1"
         offset="0" />
      <stop
         id="stop4285-8-9"
         style="stop-color:#505050;stop-opacity:1"
         offset="1" />
    </linearGradient>
    <clipPath
       id="clipPath3981-4">
      <path
         d="m 26,40.110794 0,12.032952 44,0 0,-12.032952 z"
         inkscape:connector-curvature="0"
         id="path3983-8"
         style="opacity:0.8;fill:#ff00ff;fill-opacity:1;stroke:none;display:inline" />
    </clipPath>
    <filter
       color-interpolation-filters="sRGB"
       id="filter3985-8">
      <feGaussianBlur
         id="feGaussianBlur3987-2"
         stdDeviation="0.42024714" />
    </filter>
    <linearGradient
       x1="11.640054"
       y1="9.2693882"
       x2="11.640054"
       y2="13.884353"
       id="linearGradient3093-71"
       xlink:href="#linearGradient4281-6-1"
       gradientUnits="userSpaceOnUse"
       gradientTransform="matrix(3.4669826,0,0,3.4669826,9.863192,7.863192)" />
    <linearGradient
       id="linearGradient4281-6-1">
      <stop
         id="stop4283-9-5"
         style="stop-color:#1e1e1e;stop-opacity:1"
         offset="0" />
      <stop
         id="stop4285-8-2"
         style="stop-color:#505050;stop-opacity:1"
         offset="1" />
    </linearGradient>
    <clipPath
       id="clipPath3981-7">
      <path
         d="m 26,40.110794 0,12.032952 44,0 0,-12.032952 z"
         inkscape:connector-curvature="0"
         id="path3983-6"
         style="opacity:0.8;fill:#ff00ff;fill-opacity:1;stroke:none;display:inline" />
    </clipPath>
    <filter
       color-interpolation-filters="sRGB"
       id="filter3985-1">
      <feGaussianBlur
         id="feGaussianBlur3987-4"
         stdDeviation="0.42024714" />
    </filter>
    <linearGradient
       inkscape:collect="always"
       xlink:href="#linearGradient4281-6-1"
       id="linearGradient3286"
       gradientUnits="userSpaceOnUse"
       gradientTransform="matrix(3.4669826,0,0,3.4669826,8.7126457,28.5866)"
       x1="11.640054"
       y1="9.2693882"
       x2="11.640054"
       y2="13.884353" />
    <linearGradient
       inkscape:collect="always"
       xlink:href="#linearGradient4281-6-4"
       id="linearGradient3316"
       gradientUnits="userSpaceOnUse"
       gradientTransform="matrix(3.4669826,0,0,3.4669826,8.7126457,-12.091366)"
       x1="11.640054"
       y1="9.2693882"
       x2="11.640054"
       y2="13.884353" />
    <linearGradient
       inkscape:collect="always"
       xlink:href="#linearGradient4281-6-2"
       id="linearGradient3323"
       gradientUnits="userSpaceOnUse"
       gradientTransform="matrix(3.4669826,0,0,3.4669826,8.7126457,7.287919)"
       x1="11.640054"
       y1="9.2693882"
       x2="11.640054"
       y2="13.884353" />
    <linearGradient
       y2="22.02951"
       x2="75.404488"
       y1="83.017471"
       x1="70.782135"
       gradientTransform="matrix(1.1946531,0,0,1.1946531,-17.360136,92.471755)"
       gradientUnits="userSpaceOnUse"
       id="linearGradient5238"
       xlink:href="#linearGradient3277"
       inkscape:collect="always" />
    <linearGradient
       id="linearGradient3277">
      <stop
         id="stop3279-1"
         style="stop-color:#333333;stop-opacity:1"
         offset="0" />
      <stop
         id="stop3281-1"
         style="stop-color:#515151;stop-opacity:1"
         offset="1" />
    </linearGradient>
  </defs>
  <sodipodi:namedview
     id="base"
     pagecolor="#ffffff"
     bordercolor="#666666"
     borderopacity="1.0"
     inkscape:pageopacity="0.0"
     inkscape:pageshadow="2"
     inkscape:zoom="16"
     inkscape:cx="7.6875"
     inkscape:cy="6.2736783"
     inkscape:document-units="px"
     inkscape:current-layer="layer1"
     showgrid="false"
     inkscape:window-width="1360"
     inkscape:window-height="712"
     inkscape:window-x="-2"
     inkscape:window-y="28"
     inkscape:window-maximized="1" />
  <metadata
     id="metadata7">
    <rdf:RDF>
      <cc:Work
         rdf:about="">
        <dc:format>image/svg+xml</dc:format>
        <dc:type
           rdf:resource="http://purl.org/dc/dcmitype/StillImage" />
        <dc:title></dc:title>
      </cc:Work>
    </rdf:RDF>
  </metadata>
  <g
     inkscape:label="Capa 1"
     inkscape:groupmode="layer"
     id="layer1"
     transform="translate(0,-1036.3622)">
    <path
       style="fill:#000000"
       d="m 441.95,1349.7872 c -1.45559,-1.4556 -1.58227,-5.4457 -0.2,-6.3 0.55,-0.3399 1,-1.7165 1,-3.059 0,-2.4373 -0.0163,-2.441 -10.8,-2.441 -7.06667,0 -11.21481,-0.4148 -12,-1.2 -1.55247,-1.5525 -1.55247,-8.0475 0,-9.6 0.8659,-0.8659 7.80635,-1.2 24.92857,-1.2 25.80462,0 26.87143,0.2238 26.87143,5.6372 0,5.8318 -1.09035,6.3628 -13.06657,6.3628 -12.14671,0 -13.48381,0.7042 -10.36757,5.4602 1.38245,2.1098 1.49909,3.1018 0.59743,5.0807 -1.21843,2.6742 -4.88518,3.3372 -6.96329,1.2591 z m 25.69572,-16.7144 c 1.92492,-1.2189 0.61677,-4.0856 -1.86434,-4.0856 -1.30316,0 -2.03138,0.6572 -2.03138,1.8333 0,3.0186 1.40375,3.8302 3.89572,2.2523 z m -12.14586,-2.6691 c -0.95295,-0.9529 -2.86349,0.5906 -2.1533,1.7397 0.42212,0.683 0.98146,0.6658 1.69964,-0.052 0.58876,-0.5887 0.79291,-1.348 0.45366,-1.6873 z m 5.25014,0.5245 c 0,-0.5176 -0.675,-0.941 -1.5,-0.941 -1.54641,0 -1.9867,1.1799 -0.86052,2.3061 0.79893,0.799 2.36052,-0.1042 2.36052,-1.3651 z m -231.40691,16.809 c 0.39111,-0.6875 1.38975,-2.0401 2.21919,-3.0058 1.37681,-1.6029 1.15746,-2.0816 -2.52019,-5.5 -5.87788,-5.4634 -8.63512,-11.4608 -8.61754,-18.7442 0.0431,-17.8745 16.17221,-28.8604 33.63556,-22.91 6.42385,2.1888 13.06545,9.6386 14.71201,16.5022 2.29247,9.5561 -0.64093,18.8578 -7.90895,25.0789 l -3.95581,3.386 1.89908,2.4715 c 1.0445,1.3592 1.90909,2.8089 1.92132,3.2214 0.0122,0.4125 -7.20432,0.75 -16.03678,0.75 -12.55981,0 -15.90406,-0.2724 -15.34789,-1.25 z m 24.02012,-18.0344 c 2.86921,-2.6294 3.68992,-4.2254 4.11578,-8.0036 1.43034,-12.69 -13.95229,-19.3659 -22.15647,-9.6158 -7.32444,8.7046 -1.38212,20.8899 10.19216,20.9 3.42938,0 4.96664,-0.6395 7.84853,-3.2806 z m -15.69013,-2.6387 c -5.53191,-5.5319 -2.33018,-15.1595 5.5319,-16.6344 9.24446,-1.7343 15.14566,9.1249 8.95613,16.4807 -2.18275,2.5941 -3.29299,3.0768 -7.07693,3.0768 -3.62712,0 -5.04874,-0.5607 -7.4111,-2.9231 z M 250,1325.2139 c 4.05116,-3.5574 0.64511,-12.2267 -4.8037,-12.2267 -3.2572,0 -7.4463,3.7345 -7.4463,6.6383 0,7.1541 6.8884,10.2965 12.25,5.5884 z m 11.79238,-17.5843 c -1.3352,-1.3352 -3.57418,0.6881 -2.56622,2.319 0.51879,0.8394 1.08103,0.821 2.15525,-0.071 1.0083,-0.8368 1.13415,-1.5254 0.41097,-2.2485 z M 420.75,1346.4872 c 0,-2.4706 0.1,-2.5 8.5,-2.5 8.4,0 8.5,0.029 8.5,2.5 0,2.4706 -0.1,2.5 -8.5,2.5 -8.4,0 -8.5,-0.029 -8.5,-2.5 z m 31.3535,0.25 c 0.31926,-2.1069 0.89114,-2.2684 8.99372,-2.5389 l 8.65278,-0.289 0,2.539 c 0,2.5303 -0.0303,2.5389 -8.99373,2.5389 -8.76118,0 -8.98491,-0.058 -8.65277,-2.25 z m 52.23611,-0.3033 c -3.26431,-3.2643 -1.21181,-6.7718 4.08838,-6.9866 l 3.82201,-0.1549 0.5,-20.8434 0.5,-20.8434 31,-0.059 31,-0.059 0.5,20.9668 0.5,20.9668 3.5,0.1754 c 1.925,0.097 3.8375,0.2239 4.25,0.2832 1.40811,0.2024 0.79126,6.878 -0.688,7.4456 -0.79091,0.3035 -18.52558,0.5848 -39.4104,0.6252 -33.43523,0.065 -38.16232,-0.1166 -39.56199,-1.5163 z m 52.41039,-2.9467 c 0,-1.2533 -2.05556,-1.5 -12.5,-1.5 -10.44444,0 -12.5,0.2467 -12.5,1.5 0,1.2533 2.05556,1.5 12.5,1.5 10.44444,0 12.5,-0.2467 12.5,-1.5 z m 13.5,0.5 c 0.33992,-0.55 0.14148,-1 -0.44098,-1 -0.58246,0 -1.05902,0.45 -1.05902,1 0,0.55 0.19844,1 0.44098,1 0.24254,0 0.7191,-0.45 1.05902,-1 z m 4.5,0 c 0,-0.55 -0.45,-1 -1,-1 -0.55,0 -1,0.45 -1,1 0,0.55 0.45,1 1,1 0.55,0 1,-0.45 1,-1 z m 4,0 c 0,-0.55 -0.45,-1 -1,-1 -0.55,0 -1,0.45 -1,1 0,0.55 0.45,1 1,1 0.55,0 1,-0.45 1,-1 z m -8,-24 0,-18 -26.5,0 -26.5,0 0,18 0,18 26.5,0 26.5,0 0,-18 z m -236,21.0317 0,-3.0317 -9.75,-0.015 c -5.3625,-0.01 -10.32347,-0.3793 -11.02437,-0.8241 -0.97057,-0.616 -1.20896,-4.9629 -1,-18.2347 l 0.27437,-17.4259 32.38064,-0.264 c 23.06185,-0.1881 32.77472,0.063 33.75,0.8724 1.84141,1.5282 1.99441,32.8665 0.16936,34.6916 -0.76895,0.7689 -4.69635,1.2 -10.93358,1.2 l -9.73358,0 -0.31642,2.75 -0.31642,2.75 -11.75,0.2817 -11.75,0.2818 0,-3.0318 z m 6.70145,-9.9912 c 8.57834,-5.2306 8.22416,-18.9249 -0.60757,-23.492 -1.64701,-0.8517 -5.02625,-1.5485 -7.50942,-1.5485 -3.61734,0 -5.21274,0.6127 -8.02537,3.0823 -6.68088,5.8658 -6.6854,14.9656 -0.0103,20.8263 2.87266,2.5223 4.38893,3.0907 8.23606,3.0876 2.91088,0 5.94027,-0.7507 7.91665,-1.9557 z m -13.9942,-3.0562 c -3.08145,-2.4238 -5.04043,-7.8086 -4.14242,-11.3866 1.07904,-4.2992 5.89315,-7.5977 11.08882,-7.5977 3.64057,0 5.05856,0.5584 7.42327,2.9231 4.13717,4.1371 4.14655,10.5556 0.0219,14.9711 -2.40749,2.5773 -3.66087,3.1058 -7.36514,3.1058 -2.96128,0 -5.32651,-0.6785 -7.0264,-2.0157 z m 11.9783,-3.1586 c 4.60232,-4.3237 1.43498,-12.8257 -4.77808,-12.8257 -4.25224,0 -6.0203,1.0387 -7.4153,4.3564 -3.30942,7.8708 5.96984,14.316 12.19338,8.4693 z m 17.31445,3.1743 c 0,-1.1111 0.66667,-2 1.5,-2 0.83333,0 1.5,0.8889 1.5,2 0,1.1 0.45,2 1,2 0.55,0 1,-2.2766 1,-5.059 0,-3.1181 -0.38367,-4.8219 -1,-4.441 -0.55,0.3399 -1,1.2665 -1,2.059 0,2.2349 -2.69956,1.6979 -3.31606,-0.6596 -0.91366,-3.4939 -2.68394,-1.08 -2.68394,3.6596 0,3.2809 0.39184,4.441 1.5,4.441 0.83333,0 1.5,-0.8889 1.5,-2 z m 14.54802,-0.433 c 1.99121,-3.0389 0.67089,-6.0443 -3.06763,-6.9826 -3.68369,-0.9245 -4.48039,-0.04 -4.48039,4.9746 0,4.2601 0.12124,4.441 2.97695,4.441 2.05004,0 3.47329,-0.7575 4.57107,-2.433 z m -5.54802,-2.008 c 0,-3.0481 1.38766,-4.0018 2.99857,-2.0607 1.49945,1.8067 0.6211,4.5017 -1.46719,4.5017 -0.95693,0 -1.53138,-0.9157 -1.53138,-2.441 z m 5.81248,-14.309 c -0.2787,-1.4595 -1.6445,-1.799 -8.22847,-2.0449 -4.34186,-0.1621 -8.32527,0.1361 -8.85202,0.6629 -2.14491,2.1449 0.66013,3.132 8.90035,3.132 7.5695,0 8.47723,-0.1942 8.18014,-1.75 z m 49.75823,10.227 c -2.42335,-1.1972 -3.4114,-7.7591 -1.51279,-10.0468 1.84895,-2.2278 48.13134,-2.0981 50.37065,0.1412 1.93008,1.9301 2.03901,6.4069 0.21652,8.8993 -1.24708,1.7055 -3.17121,1.8599 -24.17929,1.9411 -13.73024,0.053 -23.64944,-0.3194 -24.89509,-0.9348 z m 46.92929,-5.9907 c 0,-1.2985 -0.77909,-2.097 -2.25,-2.3059 -1.65701,-0.2353 -2.25,0.182 -2.25,1.5834 0,1.0466 0.31556,2.2184 0.70124,2.6041 1.32654,1.3265 3.79876,0.102 3.79876,-1.8816 z m -12.75014,-1.0698 c -0.95295,-0.9529 -2.86349,0.5906 -2.1533,1.7397 0.42212,0.683 0.98146,0.6658 1.69964,-0.052 0.58876,-0.5887 0.79291,-1.348 0.45366,-1.6873 z m 5,0 c -0.95295,-0.9529 -2.86349,0.5906 -2.1533,1.7397 0.42212,0.683 0.98146,0.6658 1.69964,-0.052 0.58876,-0.5887 0.79291,-1.348 0.45366,-1.6873 z m -39.52735,-8.9732 c -2.49781,-1.7496 -3.13482,-8.131 -1.02251,-10.2433 0.86567,-0.8657 7.78778,-1.2 24.84501,-1.2 21.63691,0 23.78557,0.1553 25.3,1.8287 2.24487,2.4806 2.08458,6.7417 -0.34501,9.1713 -1.8803,1.8803 -3.33333,2 -24.27749,2 -18.54441,0 -22.64993,-0.2609 -24.5,-1.5567 z m 47.58991,-5.7078 c 0.39799,-2.0666 -2.48881,-3.4591 -4.01242,-1.9355 -1.52361,1.5236 -0.13109,4.4104 1.93549,4.0124 0.95785,-0.1845 1.89247,-1.1191 2.07693,-2.0769 z M 455.75,1299.4872 c 0,-0.825 -0.42344,-1.5 -0.94098,-1.5 -1.26098,0 -2.1641,1.5616 -1.36517,2.3605 1.12619,1.1262 2.30615,0.6859 2.30615,-0.8605 z m 4.74986,-1.0835 c -0.95295,-0.9529 -2.86349,0.5906 -2.1533,1.7397 0.42212,0.683 0.98146,0.6658 1.69964,-0.052 0.58876,-0.5887 0.79291,-1.348 0.45366,-1.6873 z M 292.75,1270.9872 c 0,-0.55 0.45,-1 1,-1 0.55,0 1,0.45 1,1 0,0.55 -0.45,1 -1,1 -0.55,0 -1,-0.45 -1,-1 z m 100,0 c 0,-0.55 0.45,-1 1,-1 0.55,0 1,0.45 1,1 0,0.55 -0.45,1 -1,1 -0.55,0 -1,-0.45 -1,-1 z m 100,0 c 0,-0.55 0.45,-1 1,-1 0.55,0 1,0.45 1,1 0,0.55 -0.45,1 -1,1 -0.55,0 -1,-0.45 -1,-1 z m 41.91357,-14.9454 c -4.34555,-1.3343 -7.66303,-4.0069 -9.32742,-7.5143 -1.90708,-4.0189 -2.24633,-24.3868 -0.46396,-27.8561 1.96889,-3.8323 6.06913,-7.5673 9.01835,-8.2151 4.21654,-0.9261 4.15872,-3.6687 -0.22254,-10.5567 -3.86943,-6.0833 -3.83203,-10.1522 0.12975,-14.114 2.69461,-2.6946 3.55303,-2.9908 7.40866,-2.5562 2.3985,0.2703 5.66696,1.4215 7.26325,2.5582 4.69446,3.3427 7.793,3.6847 11.82605,1.3051 4.06647,-2.3993 4.45429,-2.4942 4.45429,-1.0908 0,1.5618 -6.19573,4.9794 -9,4.9645 -1.375,-0.01 -4.75,-1.348 -7.5,-2.9792 -6.14807,-3.6469 -9.79166,-3.7993 -13.04545,-0.5455 -3.19996,3.2 -3.09704,5.8537 0.4444,11.4579 1.59442,2.5232 3.19562,5.9376 3.55821,7.5876 0.49104,2.2345 1.71553,3.5103 4.79904,5 7.35845,3.555 8.2438,5.7566 8.2438,20.5 0,11.4221 -0.22958,13.1608 -2.06179,15.6149 -4.19053,5.6127 -10.15712,8.0877 -15.52464,6.4397 z m 5.88243,-32.3287 c 0.24515,-5.593 0.006,-6.8648 -1.3946,-7.4021 -2.38736,-0.9161 -4.4014,2.2564 -4.4014,6.9331 0,4.8045 1.59985,7.9657 3.81747,7.5431 1.34221,-0.2558 1.7424,-1.6867 1.97853,-7.0741 z m -211.796,30.2741 c -1.91493,-1.9149 -2,-3.3333 -2,-33.345 0,-29.0966 0.13118,-31.4638 1.82874,-33 1.54586,-1.399 4.37664,-1.655 18.3,-1.655 11.47765,0 16.83507,0.3638 17.67126,1.2 0.88371,0.8837 1.2,9.6985 1.2,33.4433 0,32.1857 -0.004,32.2461 -2.22251,33.8 -1.77609,1.244 -5.29114,1.5567 -17.5,1.5567 -13.94416,0 -15.45204,-0.1746 -17.27749,-2 z m 7,-12 c 0,-5.3333 -0.40741,-9 -1,-9 -0.59259,0 -1,3.6667 -1,9 0,5.3333 0.40741,9 1,9 0.59259,0 1,-3.6667 1,-9 z m 4,0 c 0,-5.3333 -0.40741,-9 -1,-9 -0.59259,0 -1,3.6667 -1,9 0,5.3333 0.40741,9 1,9 0.59259,0 1,-3.6667 1,-9 z m 4,0 c 0,-5.3333 -0.40741,-9 -1,-9 -0.59259,0 -1,3.6667 -1,9 0,5.3333 0.40741,9 1,9 0.59259,0 1,-3.6667 1,-9 z m 4,0 c 0,-5.3333 -0.40741,-9 -1,-9 -0.59259,0 -1,3.6667 -1,9 0,5.3333 0.40741,9 1,9 0.59259,0 1,-3.6667 1,-9 z m 4,0 c 0,-5.3333 -0.40741,-9 -1,-9 -0.59259,0 -1,3.6667 -1,9 0,5.3333 0.40741,9 1,9 0.59259,0 1,-3.6667 1,-9 z m 4,0 c 0,-5.3333 -0.40741,-9 -1,-9 -0.59259,0 -1,3.6667 -1,9 0,5.3333 0.40741,9 1,9 0.59259,0 1,-3.6667 1,-9 z m 4,0 c 0,-5.3333 -0.40741,-9 -1,-9 -0.59259,0 -1,3.6667 -1,9 0,5.3333 0.40741,9 1,9 0.59259,0 1,-3.6667 1,-9 z m -2.44069,-18.096 c 0.37254,-0.6028 -0.008,-1.781 -0.84502,-2.6183 -1.82255,-1.8226 -3.71429,-0.9194 -3.71429,1.7733 0,2.124 3.38151,2.7507 4.55931,0.845 z m 2.94069,-13.904 c 0,-1.2481 -2.33755,-1.5469 -13.92067,-1.7793 -13.42789,-0.2695 -16.60983,0.3029 -15.1165,2.7191 0.46717,0.7559 5.2462,1.0251 14.86287,0.8372 11.8096,-0.2308 14.1743,-0.5273 14.1743,-1.777 z m 0.5,-7.5 c 0,-1.2641 -2.27122,-1.5 -14.44098,-1.5 -13.14575,0 -16.66659,0.5591 -14.86517,2.3605 0.35172,0.3517 7.08948,0.6395 14.97282,0.6395 12.07407,0 14.33333,-0.2364 14.33333,-1.5 z m -0.19593,-7.75 c 0.31352,-1.6016 -0.87961,-1.75 -14.06408,-1.75 -7.92366,0 -14.70275,0.2961 -15.06465,0.658 -2.0474,2.0474 2.13994,2.842 14.9766,2.842 12.35478,0 13.84564,-0.1844 14.15213,-1.75 z m 48.40833,56.0624 c -1.80784,-1.8079 -1.70192,-35.1613 0.11646,-36.6704 0.85852,-0.7125 9.26469,-1.1983 23.75,-1.3724 21.51365,-0.2587 22.4076,-0.3476 22.08652,-2.1972 -0.18403,-1.0602 -1.42153,-3.5271 -2.75,-5.4821 -4.19307,-6.1707 -2.64723,-13.1986 3.33758,-15.1738 3.11366,-1.0276 4.05967,-0.8312 9.49313,1.9711 6.86548,3.5408 8.40487,3.7456 11.55716,1.5376 1.23655,-0.8661 2.79918,-1.3852 3.47251,-1.1535 1.55923,0.5365 -5.16669,4.7196 -7.59653,4.7245 -1.00142,0 -4.39044,-1.4197 -7.53115,-3.1595 -6.75526,-3.7422 -10.27191,-3.4317 -12.62281,1.1144 -1.62752,3.1473 -1.28701,4.9804 1.735,9.3402 1.06415,1.5353 2.2596,4.0103 2.65655,5.5 l 0.72172,2.7087 11.93073,0.5 11.93073,0.5 0,19 0,19 -35.5376,0.2624 c -26.8052,0.1979 -35.83551,-0.036 -36.75,-0.95 z m 11.7876,-7.8124 c 0,-2.7619 -0.27778,-3 -3.5,-3 -3.22222,0 -3.5,0.2381 -3.5,3 0,2.7619 0.27778,3 3.5,3 3.22222,0 3.5,-0.2381 3.5,-3 z m 28,0 0,-3 -12.5,0 -12.5,0 0,3 0,3 12.5,0 12.5,0 0,-3 z m 9.79044,-5.25 -0.29044,-8.25 -5.5,0 c -5.44444,0 -5.5,0.03 -5.5,3 0,2.4694 0.44992,3.0524 2.54377,3.2965 2.26907,0.2645 2.50029,0.6689 2.14116,3.7452 -0.5813,4.9792 0.29448,6.4583 3.82413,6.4583 l 3.07182,0 -0.29044,-8.25 z m 9.42287,5.25 c -0.37261,-2.5388 -0.8841,-3 -3.32681,-3 -2.54056,0 -2.8865,0.3595 -2.8865,3 0,2.7321 0.29702,3 3.32681,3 3.12763,0 3.30044,-0.1796 2.8865,-3 z m 9.78669,0 c 0,-2.6667 -0.33333,-3 -3,-3 -2.66667,0 -3,0.3333 -3,3 0,2.6667 0.33333,3 3,3 2.66667,0 3,-0.3333 3,-3 z m -53,-10.5 c 0,-3.2222 -0.2381,-3.5 -3,-3.5 -2.7619,0 -3,0.2778 -3,3.5 0,3.2222 0.2381,3.5 3,3.5 2.7619,0 3,-0.2778 3,-3.5 z m 9.81336,0.25 c -0.27683,-2.8712 -0.66145,-3.25 -3.29966,-3.25 -2.0858,0 -3.09133,0.5453 -3.33458,1.8084 -0.6108,3.1716 0.63744,4.6916 3.85285,4.6916 2.88912,0 3.07393,-0.216 2.78139,-3.25 z m 9.18664,-0.3164 c 0,-3.3007 -0.20491,-3.5429 -2.75,-3.25 -2.29145,0.2636 -2.80225,0.8583 -3.06336,3.5664 -0.29191,3.0276 -0.10371,3.25 2.75,3.25 2.84518,0 3.06336,-0.254 3.06336,-3.5664 z m 24,0 c 0,-3.3007 -0.20491,-3.5429 -2.75,-3.25 -2.29145,0.2636 -2.80225,0.8583 -3.06336,3.5664 -0.29191,3.0276 -0.10371,3.25 2.75,3.25 2.84518,0 3.06336,-0.254 3.06336,-3.5664 z m 9.81336,0.3164 c -0.26111,-2.7081 -0.77191,-3.3028 -3.06336,-3.5664 -2.54509,-0.2929 -2.75,-0.051 -2.75,3.25 0,3.3124 0.21818,3.5664 3.06336,3.5664 2.85371,0 3.04191,-0.2224 2.75,-3.25 z m -28.81336,-10.25 c 0,-3.2222 -0.2381,-3.5 -3,-3.5 -2.65084,0 -3,0.341 -3,2.9304 0,2.8675 0.19849,3.0162 5.25,3.9334 0.4125,0.075 0.75,-1.4388 0.75,-3.3638 z m -28,-0.5 c 0,-2.7619 -0.27778,-3 -3.5,-3 -3.22222,0 -3.5,0.2381 -3.5,3 0,2.7619 0.27778,3 3.5,3 3.22222,0 3.5,-0.2381 3.5,-3 z m 9,0 c 0,-2.6667 -0.33333,-3 -3,-3 -2.66667,0 -3,0.3333 -3,3 0,2.6667 0.33333,3 3,3 2.66667,0 3,-0.3333 3,-3 z m 10,0 c 0,-2.7619 -0.27778,-3 -3.5,-3 -3.22222,0 -3.5,0.2381 -3.5,3 0,2.7619 0.27778,3 3.5,3 3.22222,0 3.5,-0.2381 3.5,-3 z m 19,0 c 0,-2.6667 -0.33333,-3 -3,-3 -2.66667,0 -3,0.3333 -3,3 0,2.6667 0.33333,3 3,3 2.66667,0 3,-0.3333 3,-3 z m 9,0 c 0,-2.6667 -0.33333,-3 -3,-3 -2.66667,0 -3,0.3333 -3,3 0,2.6667 0.33333,3 3,3 2.66667,0 3,-0.3333 3,-3 z m 10,0 c 0,-2.6667 -0.33333,-3 -3,-3 -2.66667,0 -3,0.3333 -3,3 0,2.6667 0.33333,3 3,3 2.66667,0 3,-0.3333 3,-3 z m -255,28 c 0,-0.55 2.48945,-1 5.53212,-1 7.13246,0 12.19898,-2.0709 12.63723,-5.1653 0.26804,-1.8926 1.02614,-2.3926 4.00379,-2.6405 3.17876,-0.2646 3.71713,0 4,1.9906 0.42534,2.9883 4.49423,4.884 11.93046,5.5583 3.24302,0.2941 5.8964,0.9222 5.8964,1.3958 0,0.4736 -9.9,0.8611 -22,0.8611 -14,0 -22,-0.3637 -22,-1 z m -13.54546,-11.2579 c -0.27089,-0.7059 -0.37148,-11.8492 -0.22353,-24.7628 l 0.26899,-23.4793 35.7675,-0.2627 35.76749,-0.2626 -0.26749,24.7626 -0.2675,24.7627 -35.27647,0.2628 c -27.98088,0.2085 -35.37832,0 -35.76899,-1.0207 z m 54.54546,-2.7421 c 0,-0.55 -0.675,-1 -1.5,-1 -0.825,0 -1.5,0.45 -1.5,1 0,0.55 0.675,1 1.5,1 0.825,0 1.5,-0.45 1.5,-1 z m 5,0 c 0,-0.55 -0.45,-1 -1,-1 -0.55,0 -1,0.45 -1,1 0,0.55 0.45,1 1,1 0.55,0 1,-0.45 1,-1 z m 5,0 c 0,-0.55 -0.45,-1 -1,-1 -0.55,0 -1,0.45 -1,1 0,0.55 0.45,1 1,1 0.55,0 1,-0.45 1,-1 z m 2,-22.5 0,-18.5 -31,0 -31,0 0,18.5 0,18.5 31,0 31,0 0,-18.5 z m 17,-42.5 c 0,-0.55 0.45,-1 1,-1 0.55,0 1,0.45 1,1 0,0.55 -0.45,1 -1,1 -0.55,0 -1,-0.45 -1,-1 z m 200,0 c 0,-0.55 0.45,-1 1,-1 0.55,0 1,0.45 1,1 0,0.55 -0.45,1 -1,1 -0.55,0 -1,-0.45 -1,-1 z m -271.5712,-16.2997 c -2.08145,-1.165 -2.13288,-64.8711 -0.0538,-66.5966 0.9649,-0.8008 8.34723,-1.061 24.75,-0.8725 l 23.37496,0.2688 0.2639,32.9361 c 0.14515,18.1148 -0.11975,33.3197 -0.58866,33.7886 -1.09305,1.0931 -45.84675,1.5388 -47.74644,0.4756 z m 5.5712,-3.7003 c 0,-1.3333 -0.66667,-2 -2,-2 -1.33333,0 -2,0.6667 -2,2 0,1.3333 0.66667,2 2,2 1.33333,0 2,-0.6667 2,-2 z m 40,0 c 0,-1.3333 -0.66667,-2 -2,-2 -1.33333,0 -2,0.6667 -2,2 0,1.3333 0.66667,2 2,2 1.33333,0 2,-0.6667 2,-2 z m -22.89394,-1.75 c 0.0583,-0.4125 0.17084,-2.325 0.25,-4.25 0.1377,-3.3484 -0.0174,-3.5134 -3.57973,-3.8088 -4.22249,-0.3502 -7.77633,-3.9267 -7.77633,-7.8261 0,-1.9612 -0.51228,-2.3651 -3,-2.3651 l -3,0 0,8.3 c 0,5.1222 0.45944,8.7594 1.2,9.5 1.30864,1.3086 15.72695,1.7165 15.90606,0.45 z m 18.89394,-7.25 0,-4 -7,0 -7,0 0,4 0,4 7,0 7,0 0,-4 z m -15.01313,-13.4757 c 2.75722,-5.0995 5.01313,-9.8799 5.01313,-10.6231 0,-1.4782 -14.48355,12.4052 -16.20311,15.5318 -0.85727,1.5587 -0.64063,2.2751 1.11886,3.6998 1.20009,0.9718 2.82909,1.5186 3.61999,1.2151 0.7909,-0.3035 3.69391,-4.7241 6.45113,-9.8236 z m 8.90786,-2.3985 c 4.81537,-3.7958 7.10527,-8.5978 7.10527,-14.9001 0,-6.8915 -2.84257,-12.4314 -8.19673,-15.9746 -3.50447,-2.3192 -5.21701,-2.7511 -10.90691,-2.7511 -7.50768,0 -9.9495,1.2492 -15.25539,7.8049 -6.26922,7.7458 -4.03668,20.7578 4.53477,26.4301 l 3.93344,2.603 6.7205,-6.669 c 3.69628,-3.668 7.24516,-6.669 7.8864,-6.669 2.55543,0 2.3402,2.4172 -0.72775,8.1733 -3.18349,5.9728 -3.19209,6.0266 -0.85214,5.3311 1.30009,-0.3864 3.89144,-1.9068 5.75854,-3.3786 z m -14.85596,-13.0534 c -1.30715,-2.4424 -0.41868,-4.8171 2.1016,-5.617 3.73587,-1.1857 6.46263,3.5416 3.65963,6.3446 -1.79987,1.7999 -4.59769,1.4465 -5.76123,-0.7276 z m -15.14888,12.5603 c 0.8645,-1.0417 0.76448,-1.6747 -0.41994,-2.6577 -1.91131,-1.5862 -4.04413,0.086 -3.13412,2.4578 0.7407,1.9302 2.05658,2.0042 3.55406,0.1999 z m 39.77428,-0.1999 c 0.91,-2.3715 -1.22281,-4.044 -3.13412,-2.4578 -1.18442,0.983 -1.28444,1.616 -0.41994,2.6577 1.49748,1.8043 2.81335,1.7303 3.55406,-0.1999 z m -39.94232,-31.5547 c 1.37451,-1.3745 0.55473,-3.8781 -1.26982,-3.8781 -1.75682,0 -2.76864,1.7325 -2.07203,3.5479 0.66764,1.7398 1.81855,1.8535 3.34185,0.3302 z m 40.10206,-1.214 c 0.41214,-2.1251 -2.73714,-3.4226 -3.86763,-1.5934 -0.97361,1.5753 0.78203,4.1829 2.4438,3.6297 0.60496,-0.2014 1.24568,-1.1177 1.42383,-2.0363 z m 157.57235,59.9261 c -0.29753,-0.7753 0.16659,-2.778 1.03139,-4.4503 0.86479,-1.6723 1.57235,-3.2879 1.57235,-3.5903 0,-0.3023 -2.89844,-0.5496 -6.44098,-0.5496 -3.54254,0 -6.7336,-0.4735 -7.09123,-1.0521 -0.35764,-0.5787 -0.82049,-6.5167 -1.02857,-13.1956 -0.36519,-11.7221 -0.29085,-12.2581 2.14292,-15.4489 2.90748,-3.8119 7.2033,-6.3034 10.8682,-6.3034 2.53972,0 2.54966,-0.034 2.54966,-8.8 0,-5.5111 0.44848,-9.2485 1.2,-10 1.26413,-1.2642 28.13895,-1.7746 31.21821,-0.593 1.28704,0.4939 1.58179,2.3573 1.58179,10 l 0,9.393 3.52234,0 c 2.7376,0 4.51992,0.9195 8,4.1273 l 4.47766,4.1274 0,12.6726 c 0,8.5232 -0.39292,13.0656 -1.2,13.8727 -0.66,0.66 -3.81,1.2 -7,1.2 -3.19,0 -5.8,0.395 -5.8,0.8779 0,0.4828 0.65716,2.4506 1.46035,4.3729 0.80319,1.9224 1.17819,3.7773 0.83333,4.1222 -0.34486,0.3448 -9.79114,0.627 -20.99173,0.627 -16.6,0 -20.46473,-0.2606 -20.90569,-1.4098 z m 38.24254,-1.8957 c 0.2129,-0.2129 -0.73805,-2.9313 -2.11324,-6.0408 l -2.50034,-5.6537 -12.8286,0 -12.82859,0 -2.18402,5.2693 c -3.55008,8.5652 -4.43801,8.1238 14.94184,7.4276 9.41921,-0.3384 17.30004,-0.7895 17.51295,-1.0024 z m 8.3612,-27.1355 c 0,-0.7925 -0.48921,-1.7433 -1.08713,-2.1129 -1.41202,-0.8727 -3.3394,1.0547 -2.46672,2.4668 0.98021,1.586 3.55385,1.3297 3.55385,-0.3539 z m -44.24439,-4.309 c 0.29266,-0.89 -1.05305,-1.25 -4.67228,-1.25 -4.76499,0 -6.04998,0.7 -4.36961,2.3804 1.15953,1.1595 8.59453,0.23 9.04189,-1.1304 z m 31.08141,-1.5819 3.22936,-3.3318 -0.28319,-11.9182 -0.28319,-11.9181 -15.25,-0.2761 -15.25,-0.276 0,12.1816 c 0,11.5179 0.139,12.3639 2.55089,15.5261 l 2.55089,3.3444 9.75294,0 c 9.73965,0 9.75735,-0.01 12.9823,-3.3319 z M 433.75,1116.1235 c 0,-1.15 21.85412,-1.1814 22.56427,-0.032 0.31413,0.5083 -4.44824,0.8961 -11.00525,0.8961 -6.35746,0 -11.55902,-0.3887 -11.55902,-0.8637 z m 0,-5.1363 c 0,-0.6061 4.33333,-1 11,-1 6.66667,0 11,0.3939 11,1 0,0.606 -4.33333,1 -11,1 -6.66667,0 -11,-0.394 -11,-1 z m 0,-5 c 0,-0.609 4.51967,-1 11.55902,-1 7.45136,0 11.33939,0.3553 10.94098,1 -0.35109,0.5681 -5.34372,1 -11.55902,1 -6.62732,0 -10.94098,-0.3943 -10.94098,-1 z m 5.78919,-5.7414 c 3.45905,-0.1959 8.85905,-0.1942 12,0 3.14094,0.1978 0.31081,0.358 -6.28919,0.356 -6.6,0 -9.16987,-0.1638 -5.71081,-0.3596 z m 0,-5 c 3.45905,-0.1959 8.85905,-0.1942 12,0 3.14094,0.1978 0.31081,0.358 -6.28919,0.356 -6.6,0 -9.16987,-0.1638 -5.71081,-0.3596 z m 84.78224,57.1699 c -1.35828,-1.3582 -1.57143,-5.6144 -1.57143,-31.3775 0,-24.1119 0.26344,-30.0248 1.37899,-30.9506 0.95693,-0.7942 7.30783,-1.0612 20.75,-0.8724 l 19.37101,0.272 0.26573,31 c 0.2422,28.2563 0.11465,31.1106 -1.44113,32.25 -1.21374,0.8888 -6.83134,1.25 -19.4443,1.25 -14.79161,0 -17.99843,-0.261 -19.30887,-1.5715 z m 28.25935,-7.308 c 4.28714,-3.0527 6.64069,-9.6559 5.26395,-14.7687 -3.49115,-12.9652 -21.09099,-14.5569 -26.57157,-2.4032 -5.91412,13.1152 9.52778,25.5599 21.30762,17.1719 z M 542,1137.9243 c -2.51439,-0.9752 -3.14741,-5.6397 -1.05,-7.7371 1.64219,-1.6422 5.29817,-1.5096 6.75432,0.2449 2.97815,3.5885 -1.29582,9.202 -5.70432,7.4922 z m -5.25,-23.9961 c 0,-0.5176 -0.675,-0.941 -1.5,-0.941 -1.54641,0 -1.9867,1.1799 -0.86052,2.3061 0.79893,0.799 2.36052,-0.1042 2.36052,-1.3651 z m 18,0 c 0,-0.5176 -0.675,-0.941 -1.5,-0.941 -1.54641,0 -1.9867,1.1799 -0.86052,2.3061 0.79893,0.799 2.36052,-0.1042 2.36052,-1.3651 z m -5.48832,-3.9539 c 4.20583,-4.6474 0.80764,-11.9871 -5.54988,-11.9871 -3.23142,0 -6.9618,3.99 -6.9618,7.4463 0,5.6811 8.64148,8.8173 12.51168,4.5408 z m -7.03131,-4.0189 c -0.38836,-0.6284 -0.23556,-1.613 0.33954,-2.1881 1.3439,-1.3439 4.47714,-0.1717 3.93038,1.4704 -0.5566,1.6717 -3.38637,2.1473 -4.26992,0.7177 z M 536.75,1095.9282 c 0,-0.5176 -0.675,-0.941 -1.5,-0.941 -1.54641,0 -1.9867,1.1799 -0.86052,2.3061 0.79893,0.799 2.36052,-0.1042 2.36052,-1.3651 z m 18,0 c 0,-0.5176 -0.675,-0.941 -1.5,-0.941 -1.54641,0 -1.9867,1.1799 -0.86052,2.3061 0.79893,0.799 2.36052,-0.1042 2.36052,-1.3651 z m -225,25.059 0,-15 23.56574,0 c 14.33212,0 24.32363,0.4056 25.5,1.0352 1.7478,0.9354 1.93426,2.1949 1.93426,13.0657 0,6.6168 -0.46583,12.901 -1.03518,13.9648 -0.98015,1.8315 -2.33581,1.9343 -25.5,1.9343 l -24.46482,0 0,-15 z m 29.54761,3.8808 c 3.00429,-2.8399 5.45239,-3.7324 5.45239,-1.9878 0,1.5165 3.17753,2.2045 4.62675,1.0018 3.45966,-2.8713 0.0741,-7.4381 -3.74565,-5.0526 -3.14558,1.9644 -8.03845,1.3812 -10.82717,-1.2905 -1.45492,-1.394 -4.38552,-2.741 -6.80472,-3.1279 -3.92488,-0.6276 -4.24921,-0.5103 -4.24921,1.5363 0,2.0144 0.3478,2.1569 3.82863,1.5688 2.91299,-0.4921 4.15776,-0.2502 5.2048,1.0114 1.26349,1.5224 0.78893,1.631 -5.7965,1.3268 -7.67936,-0.3548 -10.57499,0.8162 -7.21197,2.9164 1.17904,0.7363 1.97504,0.827 1.97504,0.2249 0,-0.6008 3.52261,-1.0084 8.71429,-1.0084 8.12758,0 8.60226,0.112 7.05036,1.6639 -0.99797,0.998 -3.0849,1.6105 -5.21429,1.5305 -2.93658,-0.1104 -3.55036,0.2148 -3.55036,1.8813 0,1.7798 0.43758,1.9374 3.75,1.3504 2.0625,-0.3655 5.12142,-1.9609 6.79761,-3.5453 z m -46.54761,-3.8808 0,-9 7.5,0 7.5,0 0,9 0,9 -7.5,0 -7.5,0 0,-9 z m 8,5 c 0,-1.1111 -0.66667,-2 -1.5,-2 -0.83333,0 -1.5,0.8889 -1.5,2 0,1.1111 0.66667,2 1.5,2 0.83333,0 1.5,-0.8889 1.5,-2 z m 0,-10.0833 c 0,-2.4371 -2.33677,-2.0926 -2.82332,0.4162 -0.19138,0.9867 0.31876,1.6671 1.25,1.6671 0.92763,0 1.57332,-0.855 1.57332,-2.0833 z m -27.5,-44.9167 c 0.33992,-0.55 0.81648,-1 1.05902,-1 0.24254,0 0.44098,0.45 0.44098,1 0,0.55 -0.47656,1 -1.05902,1 -0.58246,0 -0.7809,-0.45 -0.44098,-1 z m 99.5,0 c 0,-0.55 0.45,-1 1,-1 0.55,0 1,0.45 1,1 0,0.55 -0.45,1 -1,1 -0.55,0 -1,-0.45 -1,-1 z m -66,-22.3257 c 0,-5.1571 -3.00903,-8.6355 -7.56445,-8.7446 -1.61455,-0.039 -3.83555,-0.4344 -4.93555,-0.8794 -1.74664,-0.7067 -1.55662,-0.9275 1.5,-1.7433 4.47782,-1.1951 4.62968,-3.6981 0.25,-4.1204 -3.2488,-0.3132 -4.58294,-2.0755 -1.75,-2.3116 0.825,-0.069 1.95,-0.2375 2.5,-0.375 0.55,-0.1375 1.45,-0.3063 2,-0.375 2.08346,-0.2605 0.94307,-3.1254 -1.25,-3.1403 -1.2375,-0.01 -2.89387,-0.4228 -3.68081,-0.9208 -1.05871,-0.67 -0.47355,-1.085 2.25,-1.596 4.03312,-0.7566 5.14276,-3.458 1.43081,-3.4832 -1.2375,-0.01 -2.85023,-0.3958 -3.58385,-0.8609 -1.06402,-0.6745 -0.9969,-0.9748 0.33179,-1.4847 0.9161,-0.3515 2.52883,-0.6391 3.58385,-0.6391 3.46353,0 2.06598,-2.7497 -1.7626,-3.468 -2.72355,-0.5109 -3.30871,-0.926 -2.25,-1.5959 0.78694,-0.498 2.47631,-0.9124 3.75413,-0.9208 3.53318,-0.023 2.43261,-3.4147 -1.1987,-3.6938 -3.01172,-0.2315 -4.32577,-0.9537 -3.40693,-1.8725 0.30306,-0.3031 1.83618,-0.6499 3.40693,-0.7706 3.63131,-0.2791 4.73188,-3.6705 1.1987,-3.6937 -1.27782,-0.01 -2.92386,-0.396 -3.65785,-0.8613 -1.53803,-0.9749 1.57667,-2.0868 5.91022,-2.1098 3.9173,-0.021 6.92431,-3.8545 6.92431,-8.8281 0,-5.0472 1.65589,-5.5367 2.55301,-0.7546 0.44714,2.3834 1.07156,3.2666 2.04531,2.893 0.77093,-0.2959 1.40857,-1.2773 1.41699,-2.1809 0.008,-0.9037 0.42397,-2.2888 0.92344,-3.0782 0.69208,-1.0937 1.10823,-0.6628 1.74928,1.811 1.07386,4.1442 2.55008,4.1442 3.62394,0 0.64105,-2.4738 1.0572,-2.9047 1.74928,-1.811 0.49947,0.7894 0.91502,2.2227 0.92344,3.1852 0.008,0.9625 0.69031,1.75 1.51531,1.75 0.825,0 1.50689,-0.7875 1.51531,-1.75 0.008,-0.9625 0.42397,-2.3958 0.92344,-3.1852 0.68785,-1.087 1.12403,-0.6019 1.79825,2 1.14654,4.4247 3.6566,4.5387 4.07636,0.1852 0.39399,-4.0863 2.18664,-4.2913 2.18664,-0.25 0,2.3333 0.44444,3 2,3 1.23226,0 2.00588,-0.6718 2.01531,-1.75 0.008,-0.9625 0.44496,-2.425 0.97008,-3.25 0.74956,-1.1777 1.09551,-0.8016 1.60968,1.75 0.36021,1.7875 1.21743,3.25 1.90493,3.25 0.6875,0 1.54472,-1.4625 1.90493,-3.25 0.51417,-2.5516 0.86012,-2.9277 1.60968,-1.75 0.52512,0.825 0.96166,3.1177 0.97008,5.095 0.019,4.4537 2.48723,6.8806 7.09405,6.9753 1.88169,0.039 4.32126,0.4348 5.42126,0.8804 1.69151,0.6852 1.42158,0.9229 -1.75,1.541 -2.75171,0.5363 -3.75,1.2337 -3.75,2.6196 0,1.4319 0.72559,1.8887 3,1.8887 1.65,0 3,0.45 3,1 0,0.55 -1.35,1 -3,1 -4.62195,0 -4.08,3.3589 0.75,4.6483 l 3.75,1.0011 -3.75,0.7866 c -2.0625,0.4326 -3.75,1.3321 -3.75,1.9989 0,0.6668 1.6875,1.6628 3.75,2.2134 l 3.75,1.0011 -3.75,0.7866 c -2.0625,0.4326 -3.75,1.3321 -3.75,1.9989 0,0.6668 1.6875,1.6628 3.75,2.2134 l 3.75,1.0011 -3.75,0.7866 c -4.50299,0.9445 -4.91249,3.0815 -0.75,3.914 1.65,0.33 3,1.0612 3,1.625 0,0.5637 -1.35,1.025 -3,1.025 -2.33333,0 -3,0.4444 -3,2 0,1.4028 0.67177,2.0046 2.25,2.0153 1.2375,0.01 2.85054,0.396 3.58453,0.8613 1.61071,1.021 -1.64295,2.0886 -6.42954,2.1097 -3.94772,0.017 -6.40077,2.7273 -6.4203,7.0924 -0.008,1.8817 -0.42397,4.0671 -0.92344,4.8564 -0.68932,1.0894 -1.11834,0.6239 -1.78063,-1.932 -1.03278,-3.9856 -3.27363,-5.2342 -3.29593,-1.8365 -0.008,1.2834 -0.42397,2.9792 -0.92344,3.7685 -0.68785,1.087 -1.12403,0.6019 -1.79825,-2 -1.14654,-4.4246 -3.6566,-4.5386 -4.07636,-0.1851 -0.17235,1.7875 -0.70633,3.25 -1.18664,3.25 -0.48031,0 -1.01429,-1.4625 -1.18664,-3.25 -0.41976,-4.3535 -2.92982,-4.2395 -4.07636,0.1851 -0.67422,2.6019 -1.1104,3.087 -1.79825,2 -0.49947,-0.7893 -0.91502,-2.4851 -0.92344,-3.7685 -0.0224,-3.4158 -2.26054,-2.1413 -3.33886,1.9014 -0.95369,3.5754 -1.28005,3.3283 -3.06154,-2.318 -0.79107,-2.5073 -2.61211,-2.1611 -2.63022,0.5 -0.008,1.2375 -0.42397,2.8958 -0.92344,3.6851 -0.68932,1.0894 -1.11834,0.6239 -1.78063,-1.932 -1.18786,-4.5841 -2.90163,-4.8369 -3.70648,-0.5466 -0.92585,4.9352 -2.57414,4.4343 -2.57414,-0.7822 z m 40.71215,-8.8825 4.28785,-4.2082 0,-16.004 0,-16.0039 -4.20821,-4.2879 -4.20821,-4.2878 -16.99963,0 -16.99962,0 -3.79217,3.7029 -3.79216,3.703 0,16.8746 0,16.8745 4.25,3.8958 4.25,3.8957 16.46215,0.027 16.46215,0.027 4.28785,-4.2082 z m -39.51598,-2.0894 -3.19617,-3.2976 0,-15.0063 0,-15.0062 3.29761,-3.1962 3.2976,-3.1961 15.50623,0 15.50623,0 3.19616,3.2976 3.19617,3.2976 0,15.0062 0,15.0062 -3.29761,3.1962 -3.2976,3.1962 -15.50623,0 -15.50623,0 -3.19616,-3.2976 z m 4.80383,-3.7614 c 0,-0.5176 -0.675,-0.941 -1.5,-0.941 -1.54641,0 -1.9867,1.1799 -0.86052,2.3061 0.79893,0.799 2.36052,-0.1042 2.36052,-1.3651 z m 95.22317,16.8821 c -1.89401,-1.894 -1.74304,-61.1468 0.15982,-62.726 0.94816,-0.7869 6.52895,-1.0612 17.75,-0.8725 l 16.36701,0.2754 0,32 0,32 -16.52683,0.2731 c -12.00938,0.1985 -16.86118,-0.061 -17.75,-0.95 z m 33.27683,-31.3231 0,-31 -16.5,0 -16.5,0 -0.26525,29.989 c -0.14589,16.494 -0.0432,30.5677 0.22816,31.2749 0.38021,0.9908 4.22673,1.2228 16.76525,1.011 l 16.27184,-0.2749 0,-31 z m -31.0822,29.5833 c -0.22979,-0.2292 -0.4178,-13.8534 -0.4178,-30.276 l 0,-29.8594 15.25,0.276 15.25,0.2761 0,29.8961 0,29.8961 -14.8322,0.1039 c -8.15771,0.057 -15.02021,-0.084 -15.25,-0.3128 z m 26.35469,-4.8994 c 0.24155,-0.7254 -0.50667,-1.5632 -1.66713,-1.8666 -1.15795,-0.3028 -2.10536,-1.1731 -2.10536,-1.934 0,-0.7608 -0.675,-1.3833 -1.5,-1.3833 -0.825,0 -1.5,0.6891 -1.5,1.5314 0,0.8422 0.675,1.7904 1.5,2.107 0.825,0.3165 1.5,1.2354 1.5,2.0419 0,1.782 3.15194,1.3673 3.77249,-0.4964 z M 441.75,1024.2372 c 0,-0.6875 -1.125,-1.25 -2.5,-1.25 -1.375,0 -2.5,0.5625 -2.5,1.25 0,0.6875 1.125,1.25 2.5,1.25 1.375,0 2.5,-0.5625 2.5,-1.25 z m -0.28871,-3.9401 c 0.35669,-0.9295 0.23007,-1.8368 -0.28138,-2.0162 -2.20537,-0.7737 -3.81884,-2.2381 -3.17512,-2.8819 0.38328,-0.3832 1.38275,-0.1276 2.22104,0.5681 1.27499,1.0582 1.52417,0.953 1.52417,-0.6432 0,-1.3045 -0.71175,-1.9163 -2.25,-1.9339 -2.6989,-0.031 -4.01451,1.5735 -2.64424,3.2246 0.66237,0.7981 0.62727,1.4195 -0.10576,1.8726 -0.78734,0.4866 -0.76648,1.0764 0.0739,2.089 1.58862,1.9142 3.84795,1.7782 4.6374,-0.2791 z m -3.21129,-0.3099 c -0.33992,-0.55 0.11008,-1 1,-1 0.88992,0 1.33992,0.45 1,1 -0.33992,0.55 -0.78992,1 -1,1 -0.21008,0 -0.66008,-0.45 -1,-1 z m 2.91655,-9.6432 c 0.75203,-1.9597 0.13327,-2.8147 -1.36633,-1.8879 -0.59556,0.3681 -0.76412,1.2007 -0.37457,1.8502 0.40349,0.6727 -0.0198,0.5903 -0.98369,-0.1916 -0.95657,-0.7759 -1.69196,-0.9208 -1.69196,-0.3333 0,0.9377 1.45006,1.919 3.14301,2.1268 0.35366,0.043 0.92675,-0.6604 1.27354,-1.5642 z m -2.35081,-4.392 c 1.33333,-0.7136 1.93426,-0.7136 1.93426,0 0,0.5693 0.4875,1.0352 1.08333,1.0352 0.59584,0 0.89628,-0.5625 0.66765,-1.25 -0.56548,-1.7005 -5.5251,-1.781 -6.17008,-0.1003 -0.62188,1.6206 -0.0824,1.689 2.48484,0.3151 z m 2.93426,-3.9648 c 0,-0.8648 -1.39324,-1.2151 -3.6382,-0.9146 -0.351,0.047 -1.01911,-0.5155 -1.48468,-1.25 -0.60791,-0.959 -0.85081,-0.7013 -0.86181,0.9146 -0.0125,1.8367 0.53571,2.25 2.98469,2.25 1.65,0 3,-0.45 3,-1 z m -226,17.5152 0,-29.5152 29,0 29,0 0,29.3832 0,29.3832 -29,0.1321 -29,0.132 0,-29.5153 z m 55.37587,25.2535 c 0.83228,-1.3216 0.72219,-2.0992 -0.46528,-3.2867 -2.84681,-2.8468 -7.33653,1.0949 -4.7698,4.1876 1.4693,1.7704 3.80609,1.3683 5.23508,-0.9009 z M 223.25,1042.9872 c 0,-1.8327 -0.60174,-2.5855 -2.25447,-2.8202 -1.35228,-0.192 -2.49559,0.3082 -2.85699,1.25 -0.99567,2.5947 0.39988,4.7392 2.85699,4.3903 1.65273,-0.2347 2.25447,-0.9874 2.25447,-2.8201 z m 33.4211,0.54 c 20.01852,-10.1442 19.77254,-38.7884 -0.41382,-48.1887 -11.08384,-5.1615 -25.04823,-1.9086 -32.23038,7.5078 -4.13738,5.4245 -6.70838,13.9962 -5.85395,19.517 1.5432,9.9713 8.70531,19.1176 17.40248,22.2238 6.23428,2.2265 15.53212,1.7593 21.09567,-1.0599 z m -24.4211,-2.8129 c -5.66608,-3.2313 -5.67544,-5.6268 -0.0503,-12.8704 4.10175,-5.2818 4.98086,-7.8567 2.68243,-7.8567 -0.41239,0 -3.38825,1.5888 -6.61302,3.5306 -4.45616,2.6834 -6.05838,3.2233 -6.67646,2.25 -1.49181,-2.3492 -2.0559,-7.6407 -1.11688,-10.477 1.1125,-3.3602 4.67238,-4.0273 12.51507,-2.3454 9.32429,1.9997 8.84514,-1.812 -0.82235,-6.5419 -4.57652,-2.2391 -5.23135,-2.8975 -4.40927,-4.4336 1.25777,-2.3502 7.16945,-5.9827 9.73635,-5.9827 2.62106,0 3.95531,1.712 6.79918,8.7244 1.28823,3.1766 3.04267,5.9211 3.89874,6.0989 1.3001,0.2701 1.55649,-0.9242 1.55649,-7.25 0,-6.1357 0.29083,-7.5733 1.53212,-7.5733 2.55693,0 7.85473,2.5969 9.83647,4.8217 1.83222,2.057 1.81964,2.1814 -0.64636,6.3893 -1.38322,2.3603 -3.46158,5.1481 -4.61859,6.1952 -1.157,1.0471 -2.10364,2.7643 -2.10364,3.8161 0,2.4516 2.74095,1.7024 8.94294,-2.4444 4.18723,-2.7997 4.51817,-2.8678 5.75,-1.1832 1.63877,2.2412 1.71209,10.6002 0.10706,12.2053 -1.42243,1.4224 -6.73165,1.5176 -12.3,0.2205 -2.96553,-0.6908 -4.33594,-0.5981 -5.29898,0.3585 -1.06348,1.0564 -0.55811,1.7807 2.78751,3.9947 2.24757,1.4874 5.21272,3.1325 6.58922,3.6558 2.05505,0.7814 2.32392,1.2857 1.5031,2.8194 -1.32201,2.4702 -5.37331,5.0596 -9.07423,5.7998 -2.81492,0.5629 -3.1272,0.2911 -5.48595,-4.7759 -1.37562,-2.9551 -2.50553,-5.9032 -2.5109,-6.5514 -0.0144,-1.7396 -3.01567,-4.4358 -4.15429,-3.7321 -0.5408,0.3342 -0.87688,3.8259 -0.74684,7.7592 0.21148,6.3964 0.0334,7.1783 -1.6861,7.4056 -1.0574,0.1398 -3.72254,-0.7724 -5.92254,-2.027 z m 17.42742,-17.362 c 2.59295,-3.2964 2.59295,-4.4339 0,-7.7303 -3.81635,-4.8517 -10.92742,-2.3364 -10.92742,3.8652 0,6.2016 7.11107,8.7168 10.92742,3.8651 z m -26.45607,-25.7205 c 2.10111,-1.5364 1.52943,-4.3234 -1.09328,-5.3298 -2.36797,-0.9087 -4.61574,2.3726 -3.30414,4.8233 1.18734,2.2186 1.93779,2.305 4.39742,0.5065 z M 271.25,995.9872 c 0,-1.8328 -0.60174,-2.5855 -2.25447,-2.8202 -1.35228,-0.192 -2.49559,0.3082 -2.85699,1.25 -0.99567,2.5947 0.39988,4.7392 2.85699,4.3903 1.65273,-0.2347 2.25447,-0.9874 2.25447,-2.8201 z m 264.38228,49.6194 c -11.77706,-4.2085 -18.96491,-14.2748 -18.8062,-26.3373 0.13719,-10.4269 5.11327,-18.8892 13.98461,-23.7821 4.78088,-2.6369 6.40772,-2.9979 13.43931,-2.9827 9.51264,0.021 13.88714,1.9244 20.22801,8.8034 4.27156,4.6341 7.27199,12.1349 7.27199,18.1793 0,10.9936 -8.70385,22.904 -18.9315,25.9058 -6.48385,1.903 -12.25772,1.9748 -17.18622,0.2136 z m 16.62397,-2.7923 c 0.32067,-0.3207 -0.57322,-3.4713 -1.98641,-7.0014 -2.53969,-6.344 -2.60956,-6.4136 -6.03621,-6.0136 -2.90741,0.3394 -4.03288,-0.1614 -6.97521,-3.1037 -2.80221,-2.8022 -3.50842,-4.2873 -3.50842,-7.3776 0,-3.6958 -0.26887,-4.017 -5.99918,-7.1672 l -5.99919,-3.2981 -1.00081,2.6323 c -0.55045,1.4478 -1.00082,5.2147 -1.00082,8.3709 0,10.2568 6.05428,18.9681 15.7535,22.6673 3.58277,1.3664 15.47087,1.5729 16.75275,0.2911 z m 4.99992,-2.8371 c 0.64626,-1.0457 -6.37639,-10.872 -7.82386,-10.9474 -0.44973,-0.023 0.66664,2.6574 2.48082,5.9574 3.31704,6.0337 4.19263,6.8514 5.34304,4.99 z m 7.49383,-7.4045 c 0,-1.3437 -8.87463,-7.0442 -9.69277,-6.2261 -0.31741,0.3174 8.60531,7.5085 9.44277,7.6102 0.1375,0.017 0.25,-0.6061 0.25,-1.3841 z m 3.72189,-14.6579 c -1.21581,-13.5492 -11.45129,-22.9276 -25.02281,-22.9276 -2.51288,0 -5.70966,0.4337 -7.10394,0.9638 l -2.53506,0.9638 2.74097,6.1383 2.74096,6.1383 4.74722,0.1888 c 6.39186,0.2543 10.00062,3.7077 10.25343,9.8121 0.17208,4.1552 0.36946,4.3992 6.0676,7.5016 l 5.88974,3.2066 1.36096,-3.2066 c 0.8626,-2.0325 1.17786,-5.2473 0.86093,-8.7791 z m -19.62857,4.898 c 2.9799,-5.568 -2.54709,-11.724 -7.57075,-8.4324 -1.30399,0.8544 -2.65494,2.4485 -3.00213,3.5424 -1.89853,5.9817 7.63004,10.3887 10.57288,4.89 z M 529.75,1008.9872 c -4.79873,-4.2019 -6,-4.7502 -6,-2.7387 0,1.2502 7.57787,6.5399 9.5,6.6314 0.55,0.026 -1.025,-1.7256 -3.5,-3.8927 z m 5.4102,-5.6715 c -1.52137,-2.6557 -2.88111,-4.9861 -3.02163,-5.1787 -0.14053,-0.1925 -0.72785,-0.058 -1.30516,0.2986 -0.63992,0.3955 0.3855,2.5711 2.62693,5.5734 2.02211,2.7085 3.85419,4.747 4.07128,4.5299 0.21708,-0.2171 -0.85005,-2.5675 -2.37142,-5.2232 z M 416.25,1044.109 c -4.20586,-0.8993 -3.73318,-2.4579 1,-3.2972 7.34596,-1.3027 8.5,-1.0752 8.5,1.6754 0,2.1781 -0.41845,2.4847 -3.25,2.3817 -1.7875,-0.065 -4.6,-0.407 -6.25,-0.7599 z m 48.5,-1.7577 c 0,-2.5606 0.13273,-2.6178 4.63957,-2 2.55177,0.3497 5.25177,0.6359 6,0.6359 0.74824,0 1.36043,0.6138 1.36043,1.3641 0,0.8647 -1.69844,1.5968 -4.63957,2 -7.03889,0.9647 -7.36043,0.8774 -7.36043,-2 z m -47.92051,-7.2458 c -5.13212,-0.9277 -4.85925,-2.7396 0.52372,-3.4774 7.71486,-1.0575 8.39679,-0.9065 8.39679,1.8591 0,2.6974 -1.47307,2.9647 -8.92051,1.6183 z m 47.92051,-1.7542 c 0,-2.5606 0.13273,-2.6178 4.63957,-2 2.55177,0.3497 5.25177,0.6359 6,0.6359 0.74824,0 1.36043,0.6138 1.36043,1.3641 0,0.8647 -1.69844,1.5968 -4.63957,2 -7.03889,0.9647 -7.36043,0.8774 -7.36043,-2 z m -45.5,-7.3641 c -0.33992,-0.55 -1.94148,-1 -3.55902,-1 -1.61754,0 -2.94098,-0.45 -2.94098,-1 0,-0.55 1.32344,-1 2.94098,-1 1.61754,0 3.2191,-0.45 3.55902,-1 0.33992,-0.55 1.94148,-1 3.55902,-1 2.60109,0 2.94098,0.3467 2.94098,3 0,2.6533 -0.33989,3 -2.94098,3 -1.61754,0 -3.2191,-0.45 -3.55902,-1 z m 45.5,-2 c 0,-2.6667 0.33333,-3 3,-3 1.65,0 3,0.45 3,1 0,0.55 1.35,1 3,1 1.65,0 3,0.45 3,1 0,0.55 -1.35,1 -3,1 -1.65,0 -3,0.45 -3,1 0,0.55 -1.35,1 -3,1 -2.66667,0 -3,-0.3334 -3,-3 z m -45.5,-7 c -0.33992,-0.55 -1.94148,-1 -3.55902,-1 -1.61754,0 -2.94098,-0.45 -2.94098,-1 0,-0.55 1.32344,-1 2.94098,-1 1.61754,0 3.2191,-0.45 3.55902,-1 0.33992,-0.55 1.94148,-1 3.55902,-1 2.60109,0 2.94098,0.3467 2.94098,3 0,2.6533 -0.33989,3 -2.94098,3 -1.61754,0 -3.2191,-0.45 -3.55902,-1 z m 45.5,-2 c 0,-2.6533 0.33989,-3 2.94098,-3 1.61754,0 3.2191,0.45 3.55902,1 0.33992,0.55 1.71648,1 3.05902,1 1.34254,0 2.44098,0.45 2.44098,1 0,0.55 -1.35,1 -3,1 -1.65,0 -3,0.45 -3,1 0,0.55 -1.35,1 -3,1 -2.66667,0 -3,-0.3334 -3,-3 z M 416,1007.2638 c -3.05058,-0.3786 -4.19697,-1.5789 -2.5,-2.6177 0.4125,-0.2525 3.3375,-0.7809 6.5,-1.1742 5.71653,-0.711 5.75,-0.6999 5.75,1.9001 0,2.7855 -0.99409,2.9784 -9.75,1.8918 z m 48.75,-1.9125 c 0,-2.5606 0.13273,-2.6178 4.63957,-2 2.55177,0.3497 5.25177,0.6359 6,0.6359 0.74824,0 1.36043,0.6138 1.36043,1.3641 0,0.8647 -1.69844,1.5968 -4.63957,2 -7.03889,0.9647 -7.36043,0.8774 -7.36043,-2 z m -47.78935,-7.2458 c -6.44344,-1.2113 -3.01265,-3.6887 5.53935,-4 2.83155,-0.1031 3.25,0.2036 3.25,2.3817 0,2.6915 -1.55632,2.9781 -8.78935,1.6183 z M 464.75,996.3513 c 0,-2.5606 0.13273,-2.6178 4.63957,-2 2.55177,0.3497 5.25177,0.6359 6,0.6359 0.74824,0 1.36043,0.6138 1.36043,1.3641 0,0.8647 -1.69844,1.5968 -4.63957,2 -7.03889,0.9647 -7.36043,0.8774 -7.36043,-2 z"
       id="path3049"
       inkscape:connector-curvature="0" />
    <rect
       style="opacity:0.9;fill:#000000;fill-opacity:1;fill-rule:nonzero;stroke:none;display:none;filter:url(#filter3174-7)"
       id="rect3745"
       y="7"
       x="5"
       ry="6"
       rx="6"
       height="85"
       width="86"
       transform="matrix(0.512,0,0,0.512,-32.522203,1016.169)" />
    <rect
       style="opacity:0.1;fill:#000000;fill-opacity:1;fill-rule:nonzero;stroke:#ffffff;stroke-width:0.5;stroke-linecap:round;stroke-linejoin:miter;stroke-miterlimit:4;stroke-opacity:1;stroke-dasharray:none;stroke-dashoffset:0;display:none;filter:url(#filter3794-69)"
       id="rect3171"
       clip-path="url(#clipPath4355-6)"
       y="15"
       x="15"
       ry="12"
       rx="12"
       height="62"
       width="66"
       transform="matrix(0.512,0,0,0.512,-32.522203,1016.169)" />
    <rect
       style="opacity:0.9;fill:#000000;fill-opacity:1;fill-rule:nonzero;stroke:none;display:none;filter:url(#filter3174-3)"
       id="rect3745-7"
       y="7"
       x="5"
       ry="6"
       rx="6"
       height="85"
       width="86"
       transform="matrix(0.512,0,0,0.512,-32.57135,1020.4388)" />
    <rect
       style="opacity:0.1;fill:#000000;fill-opacity:1;fill-rule:nonzero;stroke:#ffffff;stroke-width:0.5;stroke-linecap:round;stroke-linejoin:miter;stroke-miterlimit:4;stroke-opacity:1;stroke-dasharray:none;stroke-dashoffset:0;display:none;filter:url(#filter3794-6)"
       id="rect3171-6"
       clip-path="url(#clipPath4355-3)"
       y="15"
       x="15"
       ry="12"
       rx="12"
       height="62"
       width="66"
       transform="matrix(0.512,0,0,0.512,-32.57135,1020.4388)" />
    <path
       inkscape:connector-curvature="0"
       style="color:#000000;fill:#4d4d4d;fill-opacity:1;fill-rule:nonzero;stroke:none;stroke-width:0.80000001;marker:none;visibility:visible;display:inline;overflow:visible;enable-background:accumulate"
       d="m 8,1037.3622 c -3.865993,0 -7,3.134 -7,7 0,3.866 3.134007,7 7,7 3.865993,0 7,-3.134 7,-7 0,-3.866 -3.134007,-7 -7,-7 z m 2.351562,1.3399 c 1.500798,0.6216 2.659601,1.8077 3.28125,3.3085 l -2.378906,1.0118 c -0.34278,-0.8276 -1.021134,-1.5169 -1.914062,-1.8868 l 1.011718,-2.4335 z M 8,1041.7372 c 1.449747,0 2.625,1.1752 2.625,2.625 0,1.4498 -1.175253,2.625 -2.625,2.625 -1.449747,0 -2.625,-1.1752 -2.625,-2.625 0,-1.4498 1.175253,-2.625 2.625,-2.625 z m 0,0.875 c -0.966498,0 -1.75,0.7835 -1.75,1.75 0,0.9665 0.783502,1.75 1.75,1.75 0.966499,0 1.75,-0.7835 1.75,-1.75 0,-0.9665 -0.783501,-1.75 -1.75,-1.75 z m 0,0.875 c 0.483249,0 0.875,0.3917 0.875,0.875 0,0.4833 -0.391751,0.875 -0.875,0.875 -0.483249,0 -0.875,-0.3917 -0.875,-0.875 0,-0.4833 0.391751,-0.875 0.875,-0.875 z m -3.253906,2.2149 c 0.34278,0.8275 1.021134,1.5168 1.914062,1.8867 l -1.011718,2.4336 c -1.500798,-0.6217 -2.6595999,-1.8078 -3.2812505,-3.3086 l 2.3789065,-1.0117 z"
       id="path3123" />
  </g>
</svg>
