<?xml version="1.0" encoding="UTF-8" standalone="no"?>
<!-- Created with Inkscape (http://www.inkscape.org/) -->
<svg id="svg3449" xmlns:rdf="http://www.w3.org/1999/02/22-rdf-syntax-ns#" xmlns="http://www.w3.org/2000/svg" height="128" width="128" version="1.0" xmlns:cc="http://creativecommons.org/ns#" xmlns:xlink="http://www.w3.org/1999/xlink" xmlns:dc="http://purl.org/dc/elements/1.1/">
 <metadata id="metadata56">
  <rdf:RDF>
   <cc:Work rdf:about="">
    <dc:format>image/svg+xml</dc:format>
    <dc:type rdf:resource="http://purl.org/dc/dcmitype/StillImage"/>
    <dc:title/>
   </cc:Work>
  </rdf:RDF>
 </metadata>
 <defs id="defs3451">
  <linearGradient id="linearGradient3514" y2="-9.1034" gradientUnits="userSpaceOnUse" x2="66.492" gradientTransform="matrix(.96826 0 0 .97948 2.179 .16587)" y1="-42.638" x1="67.952">
   <stop id="stop4620" style="stop-color:#37414b" offset="0"/>
   <stop id="stop4622" style="stop-color:#37414b;stop-opacity:0" offset="1"/>
  </linearGradient>
  <linearGradient id="linearGradient3516" y2="-11.847" gradientUnits="userSpaceOnUse" x2="58.98" gradientTransform="matrix(.96826 0 0 .97948 2.179 .16587)" y1="-118.55" x1="57.173">
   <stop id="stop4596" offset="0"/>
   <stop id="stop4598" style="stop-opacity:0" offset="1"/>
  </linearGradient>
  <linearGradient id="linearGradient3519" y2="50.369" gradientUnits="userSpaceOnUse" x2="76.558" gradientTransform="matrix(.96826 0 0 .97948 3.2423 -129.19)" y1="13.164" x1="76.558">
   <stop id="stop3392" style="stop-color:#425e7b" offset="0"/>
   <stop id="stop3394" style="stop-color:#7a91a7" offset="1"/>
  </linearGradient>
  <linearGradient id="linearGradient3521" y2="-8.7399" gradientUnits="userSpaceOnUse" x2="60.217" gradientTransform="matrix(.96826 0 0 .97948 2.179 .16587)" y1="-123.72" x1="60.395">
   <stop id="stop3392-4-8" style="stop-color:#425e7b" offset="0"/>
   <stop id="stop3394-8-0" style="stop-color:#7a91a7" offset="1"/>
  </linearGradient>
  <linearGradient id="linearGradient4192" y2="31.742" gradientUnits="userSpaceOnUse" x2="121.11" y1="31.742" x1="6.5334">
   <stop id="stop4188" style="stop-color:#fff" offset="0"/>
   <stop id="stop4190" style="stop-color:#fff;stop-opacity:0" offset="1"/>
  </linearGradient>
  <linearGradient id="linearGradient11577" y2="8.1" gradientUnits="userSpaceOnUse" y1="6.1438" x2="19.387" x1="19.49">
   <stop id="stop10999-9-0" offset="0"/>
   <stop id="stop11001-6-1" style="stop-opacity:0" offset="1"/>
  </linearGradient>
  <filter id="filter3198-5" color-interpolation-filters="sRGB" width="1.1734" y="-.10752" x="-.086712" height="1.215">
   <feGaussianBlur id="feGaussianBlur3200-3" stdDeviation="0.71710775"/>
  </filter>
  <linearGradient id="linearGradient6921" y2="5.4565" gradientUnits="userSpaceOnUse" x2="36.358" gradientTransform="matrix(0 3.8171 -6.1772 0 129.98 -37.908)" y1="8.059" x1="32.892">
   <stop id="stop8591-7-2-1" style="stop-color:#fefefe" offset="0"/>
   <stop id="stop8593-2-4-5" style="stop-color:#cbcbcb" offset="1"/>
  </linearGradient>
  <radialGradient id="radialGradient6925" gradientUnits="userSpaceOnUse" cy="-16.639" cx="2.6083" gradientTransform="matrix(-5.7453 2.452e-7 -2.5955e-7 -6.0905 124.78 -36.865)" r="23">
   <stop id="stop12956" style="stop-color:#80f4a6" offset="0"/>
   <stop id="stop12958" style="stop-color:#0ea53c" offset="1"/>
  </radialGradient>
  <style id="style1246" type="text/css">.fil0 {fill:#1F1A17}</style>
  <style id="style1115" type="text/css">.fil0 {fill:#1F1A17}</style>
  <style id="style1246-3" type="text/css">.fil0 {fill:#1F1A17}</style>
  <style id="style1115-1" type="text/css">.fil0 {fill:#1F1A17}</style>
  <style id="style1246-0" type="text/css">.fil0 {fill:#1F1A17}</style>
  <style id="style1115-7" type="text/css">.fil0 {fill:#1F1A17}</style>
  <linearGradient id="linearGradient8980-4" y2="-.000018133" gradientUnits="userSpaceOnUse" x2="19.299" gradientTransform="matrix(1.875 0 0 1.875 243.8 19.376)" y1="32" x1="19.299">
   <stop id="stop4413-8" style="stop-color:#dadcde" offset="0"/>
   <stop id="stop4415-7" style="stop-color:#fafafa" offset="1"/>
  </linearGradient>
 </defs>
 <rect id="rect892-2-7-1" style="opacity:.15891;stroke:#000;stroke-width:7.7512;fill:none" transform="scale(1,-1)" ry="28.993" height="114.35" width="114.22" y="-121.16" x="6.8687"/>
 <rect id="rect892" style="stroke:url(#linearGradient3521);stroke-width:.97385;fill:url(#linearGradient3519)" transform="scale(1,-1)" ry="29.296" height="115.54" width="114.22" y="-122.25" x="7.0394"/>
 <rect id="rect892-2" style="stroke:url(#linearGradient3516);stroke-width:.97385;fill:url(#linearGradient3514)" transform="scale(1,-1)" ry="28.993" height="114.35" width="114.22" y="-121.46" x="7.0599"/>
 <path id="path4322" d="m120.09 74.559c-1.82 3.831-41.638 40.371-56.018 45.741-66.185 6.38-58.724-19.48-56.838-84.917 4.797-34.382 28.284-28.298 90.407-27.48 28.999 8.074 22.189 27.125 22.449 66.656z" style="fill-rule:evenodd;fill:url(#radialGradient6925)"/>
 <g id="g8990" transform="translate(-210.5 13.534)">
  <path id="path4423" style="fill-opacity:.058824" d="m303.8 55.468v-7.5l-8.9644-3.735c-0.24938-0.703-0.51188-1.3836-0.83438-2.0512l3.6188-9.0094-5.3044-5.3024-8.9288 3.6768c-0.68062-0.33-1.3762-0.6074-2.0944-0.8644l-3.8006-8.9062h-7.5l-3.7069 8.8762c-0.74625 0.2644-1.4644 0.542-2.175 0.8794l-8.9138-3.5812-5.3025 5.3024 3.6338 8.8332c-0.3525 0.7256-0.6375 1.4644-0.90937 2.2276l-8.8181 3.7706v7.5l8.8256 3.6768c0.27187 0.7612 0.56437 1.5018 0.915 2.2276l-3.5662 8.8912 5.3025 5.3024 8.8556-3.6468c0.71063 0.3374 1.4362 0.6074 2.1825 0.8644l3.7931 8.8762h7.5l3.7125-8.9212c0.71063-0.2644 1.4138-0.542 2.0869-0.8644l8.9944 3.6038 5.3025-5.3026-3.6919-8.9494c0.315-0.673 0.57187-1.3556 0.82125-2.0512l8.9662-3.8232zm-30.058 7.5582c-6.21 0-11.25-5.04-11.25-11.25s5.04-11.25 11.25-11.25 11.25 5.04 11.25 11.25-5.04 11.25-11.25 11.25z"/>
  <path id="path4421" style="fill-opacity:.11765" d="m303.8 54.668v-7.5l-8.9644-3.735c-0.24938-0.703-0.51188-1.3836-0.83438-2.0512l3.6188-9.0094-5.3044-5.3024-8.9288 3.6768c-0.68062-0.33-1.3762-0.6074-2.0944-0.8644l-3.8006-8.9062h-7.5l-3.7069 8.8762c-0.74625 0.2644-1.4644 0.542-2.175 0.8794l-8.9138-3.5812-5.3025 5.3024 3.6338 8.8332c-0.3525 0.7256-0.6375 1.4644-0.90937 2.2276l-8.8181 3.7706v7.5l8.8256 3.6768c0.27187 0.7612 0.56437 1.5018 0.915 2.2276l-3.5662 8.8912 5.3025 5.3024 8.8556-3.6468c0.71063 0.3374 1.4362 0.6074 2.1825 0.8644l3.7931 8.8762h7.5l3.7125-8.9212c0.71063-0.2644 1.4138-0.542 2.0869-0.8644l8.9944 3.6038 5.3025-5.3026-3.6919-8.9494c0.315-0.673 0.57187-1.3556 0.82125-2.0512l8.9662-3.8232zm-30.058 7.5582c-6.21 0-11.25-5.04-11.25-11.25s5.04-11.25 11.25-11.25 11.25 5.04 11.25 11.25-5.04 11.25-11.25 11.25z"/>
  <path id="path4417" style="fill-opacity:.23529" d="m303.8 53.868v-7.5l-8.9644-3.735c-0.24938-0.703-0.51188-1.3836-0.83438-2.0512l3.6188-9.0094-5.3044-5.3024-8.9288 3.6768c-0.68062-0.33-1.3762-0.6074-2.0944-0.8644l-3.8006-8.9062h-7.5l-3.7069 8.8762c-0.74625 0.2644-1.4644 0.542-2.175 0.8794l-8.9138-3.5812-5.3025 5.3024 3.6338 8.8332c-0.3525 0.7256-0.6375 1.4644-0.90937 2.2276l-8.8181 3.7706v7.5l8.8256 3.6768c0.27187 0.7612 0.56437 1.5018 0.915 2.2276l-3.5662 8.8912 5.3025 5.3024 8.8556-3.6468c0.71063 0.3374 1.4362 0.6074 2.1825 0.8644l3.7931 8.8762h7.5l3.7125-8.9212c0.71063-0.2644 1.4138-0.542 2.0869-0.8644l8.9944 3.6038 5.3025-5.3026-3.6919-8.9494c0.315-0.673 0.57187-1.3556 0.82125-2.0512l8.9662-3.8232zm-30.058 7.5582c-6.21 0-11.25-5.04-11.25-11.25s5.04-11.25 11.25-11.25 11.25 5.04 11.25 11.25-5.04 11.25-11.25 11.25z"/>
  <path id="path4317" style="fill:url(#linearGradient8980-4)" d="m303.8 53.068v-7.5l-8.9644-3.735c-0.24938-0.703-0.51188-1.3836-0.83438-2.0512l3.6188-9.0094-5.3044-5.3024-8.9288 3.6768c-0.68062-0.33-1.3762-0.6074-2.0944-0.8644l-3.8006-8.9062h-7.5l-3.7069 8.8762c-0.74625 0.2644-1.4644 0.542-2.175 0.8794l-8.9138-3.5812-5.3025 5.3024 3.6338 8.8332c-0.3525 0.7256-0.6375 1.4644-0.90937 2.2276l-8.8181 3.7706v7.5l8.8256 3.6768c0.27187 0.7612 0.56437 1.5018 0.915 2.2276l-3.5662 8.8912 5.3025 5.3024 8.8556-3.6468c0.71063 0.3374 1.4362 0.6074 2.1825 0.8644l3.7931 8.8762h7.5l3.7125-8.9212c0.71063-0.2644 1.4138-0.542 2.0869-0.8644l8.9944 3.6038 5.3025-5.3026-3.6919-8.9494c0.315-0.673 0.57187-1.3556 0.82125-2.0512l8.9662-3.8232zm-30.058 7.5582c-6.21 0-11.25-5.04-11.25-11.25s5.04-11.25 11.25-11.25 11.25 5.04 11.25 11.25-5.04 11.25-11.25 11.25z"/>
  <path id="path4425" style="fill:#4c4f54;fill-opacity:.31373" d="m297.17 30.314-3.1602 7.8672c0.12536 0.25951 0.21424 0.53288 0.32422 0.79687l3.293-8.207-0.45703-0.45703zm-46.805 0.07422-0.46484 0.46484 3.3047 8.0352c0.11188-0.26499 0.2013-0.53973 0.32812-0.80078l-3.168-7.6992zm23.383 6.1367c-6.21 0-11.25 5.04-11.25 11.25 0 0.26969 0.0204 0.53583 0.0391 0.80078 0.41306-5.8348 5.2715-10.449 11.211-10.449 5.9394 0 10.798 4.6144 11.211 10.449 0.0186-0.26495 0.0391-0.53109 0.0391-0.80078 0-6.21-5.04-11.25-11.25-11.25zm30.059 14.945-8.9648 3.8203c-0.24938 0.6956-0.50922 1.3778-0.82422 2.0508l0.32812 0.78906c0.1671-0.4111 0.34559-0.81846 0.4961-1.2383l8.9648-3.8242v-1.5977zm-60 0.11328v1.6016l8.8242 3.6758c0.17558 0.49157 0.39087 0.96155 0.59375 1.4375l0.32422-0.80859c-0.35063-0.7258-0.6461-1.4654-0.91797-2.2266l-8.8242-3.6797zm53.438 15.176-4.8359 4.8359-8.9922-3.6055c-0.67313 0.3224-1.3792 0.60279-2.0898 0.86719l-3.7109 8.918h-7.5l-3.793-8.875c-0.74625-0.257-1.473-0.52588-2.1836-0.86328l-8.8555 3.6445-4.8438-4.8438-0.45703 1.1445 5.3008 5.3008 8.8555-3.6484c0.71063 0.3374 1.4373 0.61019 2.1836 0.86719l3.793 8.875h7.5l3.7109-8.9219c0.71063-0.2644 1.4167-0.54088 2.0898-0.86328l8.9922 3.6016 5.3047-5.3008-0.46875-1.1328z"/>
  <path id="path4430" style="fill:#fff;fill-opacity:.23529" d="m270 19.376-3.707 8.875c-0.74626 0.2644-1.4652 0.54151-2.1758 0.87891l-8.9141-3.5781-5.3008 5.3008 0.23437 0.56641 5.0664-5.0703 8.9141 3.582c0.71063-0.3374 1.4295-0.61451 2.1758-0.87891l3.707-8.875h7.5l3.8008 8.9063c0.71812 0.257 1.4131 0.53328 2.0938 0.86328l8.9297-3.6758 5.0742 5.0703 0.23047-0.57031-5.3047-5.3008-8.9297 3.6758c-0.68063-0.33-1.3756-0.60628-2.0938-0.86328l-3.8008-8.9062h-7.5zm-16.629 20.711c-0.27041 0.59893-0.52326 1.2026-0.74609 1.8281l-8.8164 3.7695v0.80078l8.8164-3.7734c0.27187-0.7632 0.55765-1.501 0.91015-2.2266l-0.16406-0.39844zm40.801 0.09374-0.16016 0.40234c0.3225 0.6676 0.58266 1.3478 0.83203 2.0508l8.9648 3.7344v-0.80078l-8.9648-3.7344c-0.20099-0.5666-0.4293-1.1099-0.67188-1.6523zm-31.652 9.5938c-0.005 0.13434-0.0196 0.26684-0.0196 0.40234 0 6.21 5.04 11.25 11.25 11.25s11.25-5.04 11.25-11.25c0-0.1355-0.0148-0.268-0.0196-0.40234-0.21203 6.0239-5.1551 10.852-11.23 10.852-6.0754 0-11.018-4.8276-11.23-10.852zm31.664 9.5625c-0.0583 0.13418-0.10162 0.27284-0.16406 0.40625l3.4609 8.3828 0.23437-0.23438-3.5312-8.5547zm-40.797 0.15626-3.4023 8.4883 0.22656 0.22656 3.3398-8.3203c-0.0622-0.12876-0.1053-0.2648-0.16406-0.39453z"/>
 </g>
 <rect id="rect892-2-7-8" style="opacity:.15891;stroke:#000;stroke-width:4.8445;fill:none" transform="scale(1,-1)" ry="28.993" height="114.35" width="114.22" y="-121.16" x="6.8687"/>
 <rect id="rect892-2-7-2-9" ry="28.067" style="stroke:#000;stroke-width:1.0489;fill:none" transform="scale(1,-1)" height="112.71" width="114.14" y="-120.31" x="7.0649"/>
 <g id="g17906" transform="matrix(2.3438 0 0 2.2539 224.79 41.695)"></g>
 <path id="path4891" d="m25.685 5.7862c3.6386-0.3502 2.8432 14.02 2.8432 14.02s16.093-0.84846 16.525 1.9543c3.85-3.268-16.654-16.76-19.368-15.974z" style="opacity:.3;fill-rule:evenodd;filter:url(#filter3198-5)" transform="matrix(0 2.6586 -4.0239 0 144.6 .66614)"/>
 <path id="path4893" d="m120.42 71.909c-2.6379 9.487-48.941 8.4899-48.941 8.4899s3.0553 39.005-10.575 39.949c8.02 2.4523 48.56-28.337 57.689-43.48 1.1729-1.9458 1.8272-3.6334 1.8272-4.9589z" style="fill:url(#linearGradient6921);fill-rule:evenodd"/>
</svg>
