<?xml version="1.0" encoding="UTF-8" standalone="no"?>
<!-- Created with Inkscape (http://www.inkscape.org/) -->
<svg id="svg3449" xmlns:rdf="http://www.w3.org/1999/02/22-rdf-syntax-ns#" xmlns="http://www.w3.org/2000/svg" height="128" width="128" version="1.0" xmlns:cc="http://creativecommons.org/ns#" xmlns:xlink="http://www.w3.org/1999/xlink" xmlns:dc="http://purl.org/dc/elements/1.1/">
 <metadata id="metadata56">
  <rdf:RDF>
   <cc:Work rdf:about="">
    <dc:format>image/svg+xml</dc:format>
    <dc:type rdf:resource="http://purl.org/dc/dcmitype/StillImage"/>
    <dc:title/>
   </cc:Work>
  </rdf:RDF>
 </metadata>
 <defs id="defs3451">
  <linearGradient id="linearGradient3514" y2="-9.1034" gradientUnits="userSpaceOnUse" x2="66.492" gradientTransform="matrix(.96826 0 0 .97948 2.179 .16587)" y1="-42.638" x1="67.952">
   <stop id="stop4620" style="stop-color:#37414b" offset="0"/>
   <stop id="stop4622" style="stop-color:#37414b;stop-opacity:0" offset="1"/>
  </linearGradient>
  <linearGradient id="linearGradient3516" y2="-11.847" gradientUnits="userSpaceOnUse" x2="58.98" gradientTransform="matrix(.96826 0 0 .97948 2.179 .16587)" y1="-118.55" x1="57.173">
   <stop id="stop4596" offset="0"/>
   <stop id="stop4598" style="stop-opacity:0" offset="1"/>
  </linearGradient>
  <linearGradient id="linearGradient3519" y2="50.369" gradientUnits="userSpaceOnUse" x2="76.558" gradientTransform="matrix(.96826 0 0 .97948 3.2423 -129.19)" y1="13.164" x1="76.558">
   <stop id="stop3392" style="stop-color:#425e7b" offset="0"/>
   <stop id="stop3394" style="stop-color:#7a91a7" offset="1"/>
  </linearGradient>
  <linearGradient id="linearGradient3521" y2="-8.7399" gradientUnits="userSpaceOnUse" x2="60.217" gradientTransform="matrix(.96826 0 0 .97948 2.179 .16587)" y1="-123.72" x1="60.395">
   <stop id="stop3392-4-8" style="stop-color:#425e7b" offset="0"/>
   <stop id="stop3394-8-0" style="stop-color:#7a91a7" offset="1"/>
  </linearGradient>
  <radialGradient id="radialGradient3349" gradientUnits="userSpaceOnUse" cy="45.647" cx="42.148" gradientTransform="matrix(.94690 0 0 1.139 3.5954 -29.89)" r="58.984">
   <stop id="stop11759" style="stop-color:#62cdff" offset="0"/>
   <stop id="stop11761" style="stop-color:#099de9" offset="1"/>
  </radialGradient>
  <style id="style1246-4-4" type="text/css">.fil0 {fill:#1F1A17}</style>
  <style id="style1115-9-4" type="text/css">.fil0 {fill:#1F1A17}</style>
  <style id="style1246-7" type="text/css">.fil0 {fill:#1F1A17}</style>
  <style id="style1115-5" type="text/css">.fil0 {fill:#1F1A17}</style>
  <style id="style1246-4-0" type="text/css">.fil0 {fill:#1F1A17}</style>
  <style id="style1115-9" type="text/css">.fil0 {fill:#1F1A17}</style>
  <style id="style1246-3" type="text/css">.fil0 {fill:#1F1A17}</style>
  <style id="style1115-93" type="text/css">.fil0 {fill:#1F1A17}</style>
  <style id="style1246-1" type="text/css">.fil0 {fill:#1F1A17}</style>
  <style id="style1115-1" type="text/css">.fil0 {fill:#1F1A17}</style>
  <style id="style1246-5" type="text/css">.fil0 {fill:#1F1A17}</style>
  <style id="style1115-0" type="text/css">.fil0 {fill:#1F1A17}</style>
  <style id="style1246-4" type="text/css">.fil0 {fill:#1F1A17}</style>
  <style id="style1115-18" type="text/css">.fil0 {fill:#1F1A17}</style>
  <style id="style1246" type="text/css">.fil0 {fill:#1F1A17}</style>
  <style id="style1115" type="text/css">.fil0 {fill:#1F1A17}</style>
  <style id="style1246-3-8" type="text/css">.fil0 {fill:#1F1A17}</style>
  <style id="style1115-1-2" type="text/css">.fil0 {fill:#1F1A17}</style>
  <style id="style1246-2" type="text/css">.fil0 {fill:#1F1A17}</style>
  <style id="style1115-2" type="text/css">.fil0 {fill:#1F1A17}</style>
  <style id="style1246-4-0-7" type="text/css">.fil0 {fill:#1F1A17}</style>
  <style id="style1115-9-5" type="text/css">.fil0 {fill:#1F1A17}</style>
  <style id="style1246-3-9" type="text/css">.fil0 {fill:#1F1A17}</style>
  <style id="style1115-93-0" type="text/css">.fil0 {fill:#1F1A17}</style>
  <style id="style1246-1-6" type="text/css">.fil0 {fill:#1F1A17}</style>
  <style id="style1115-1-1" type="text/css">.fil0 {fill:#1F1A17}</style>
  <style id="style1246-5-1" type="text/css">.fil0 {fill:#1F1A17}</style>
  <style id="style1115-0-4" type="text/css">.fil0 {fill:#1F1A17}</style>
  <style id="style1246-4-5" type="text/css">.fil0 {fill:#1F1A17}</style>
  <style id="style1115-18-1" type="text/css">.fil0 {fill:#1F1A17}</style>
  <style id="style1246-75" type="text/css">.fil0 {fill:#1F1A17}</style>
  <style id="style1115-7" type="text/css">.fil0 {fill:#1F1A17}</style>
  <style id="style1246-8" type="text/css">.fil0 {fill:#1F1A17}</style>
  <style id="style1115-27" type="text/css">.fil0 {fill:#1F1A17}</style>
  <style id="style1246-76" type="text/css">.fil0 {fill:#1F1A17}</style>
  <style id="style1115-3" type="text/css">.fil0 {fill:#1F1A17}</style>
  <linearGradient id="linearGradient15140" y2="9" gradientUnits="userSpaceOnUse" x2="31.062" gradientTransform="matrix(2.6667 0 0 2.6667 -145.95 .000029117)" y1="39" x1="31.062">
   <stop id="stop5059" style="stop-color:#f8c5c0" offset="0"/>
   <stop id="stop5061" style="stop-color:#fff8f5" offset="1"/>
  </linearGradient>
 </defs>
 <rect id="rect892" style="stroke:url(#linearGradient3521);stroke-width:.97385;fill:url(#linearGradient3519)" transform="scale(1,-1)" ry="29.296" height="115.54" width="114.22" y="-122.25" x="7.0394"/>
 <rect id="rect892-2" style="stroke:url(#linearGradient3516);stroke-width:.97385;fill:url(#linearGradient3514)" transform="scale(1,-1)" ry="28.993" height="114.35" width="114.22" y="-121.46" x="7.0599"/>
 <path id="rect895" style="fill:url(#radialGradient3349)" d="m33.051 7.2596c-7.969-2.4493-27.013 15.174-25.653 23.038-0.050142 0.97378-0.088772 1.9648-0.088772 2.9572v52.419c0 20.876 10.712 33.859 22.318 33.859h67.038c12.638 0 24.318-11.245 24.318-25.859v-64.017c0.7-10.928-21.283-24.659-25.926-22.618-47.846 0.8653-18.017 0.2236-62.003 0.2236z"/>
 <rect id="rect892-2-7-8" style="opacity:.15891;stroke:#000;stroke-width:4.8445;fill:none" transform="scale(1,-1)" ry="28.993" height="114.35" width="114.22" y="-121.16" x="6.8687"/>
 <rect id="rect892-2-7-1" style="opacity:.15891;stroke:#000;stroke-width:7.7512;fill:none" transform="scale(1,-1)" ry="28.993" height="114.35" width="114.22" y="-121.16" x="6.8687"/>
 <rect id="rect892-2-7-2-9" ry="28.067" style="stroke:#000;stroke-width:1.0489;fill:none" transform="scale(1,-1)" height="112.71" width="114.14" y="-120.31" x="7.0649"/>
 <path id="path1187" style="fill:#fff;fill-opacity:.057143" d="m33.017 7.2319c-23.707 0-26.027 0.6738-25.93 26.295-0.04334 0.71563-0.07674 1.4439-0.07674 2.1732v32.76c18.67-38.321 38.34-51.497 90.374-61.179-0.225-0.026-0.46-0.0303-0.691-0.0303-41.576 0.3874-25.652-0.0188-63.676-0.0188z"/>
 <g id="g15132" transform="translate(146.11)">
  <path id="path4126" style="fill-opacity:.058824" d="m-121.95 27.2v40 40h42.755 37.245v-34.474-45.526h-80zm8 8h64v23.672l-5.2917-9.1616-9.125 15.802-1.8177 3.1509-12.969 22.464-10.651-18.443-4-6.9269-1.474-2.5573h-8.9271c-1.4958-3.1504-4.6798-5.3333-8.4115-5.3333-0.45699 0-0.89426 0.06667-1.3333 0.13067v-22.797zm58.734 30.557 5.2656 9.1197v24.323h-24.615l19.349-33.443zm-48.99 5.4427h4.3073l0.06251 0.104 16.042 27.896h-30.156v-22.797c0.43907 0.064 0.87634 0.13067 1.3333 0.13067 3.7317 0 6.9157-2.1829 8.4114-5.3333z"/>
  <path id="path4124" style="fill-opacity:.11765" d="m-121.95 26.133v40 40h42.755 37.245v-34.474-45.526h-80zm8 8h64v23.672l-5.2917-9.1616-9.125 15.802-1.8177 3.1509-12.969 22.464-10.651-18.443-4-6.9269-1.474-2.5573h-8.9271c-1.4958-3.1504-4.6798-5.3333-8.4115-5.3333-0.45699 0-0.89426 0.06667-1.3333 0.13067v-22.797zm58.734 30.557 5.2656 9.1197v24.323h-24.615l19.349-33.443zm-48.99 5.4427h4.3073l0.06251 0.104 16.042 27.896h-30.156v-22.797c0.43907 0.064 0.87634 0.13067 1.3333 0.13067 3.7317 0 6.9157-2.1829 8.4114-5.3333z"/>
  <path id="path4122" style="fill-opacity:.23529" d="m-121.95 25.067v40 40h42.755 37.245v-34.474-45.526h-80zm8 8h64v23.672l-5.2917-9.1616-9.125 15.802-1.8177 3.1509-12.969 22.464-10.651-18.443-4-6.9269-1.474-2.5573h-8.9271c-1.4958-3.1504-4.6798-5.3333-8.4115-5.3333-0.45699 0-0.89426 0.06667-1.3333 0.13067v-22.797zm58.734 30.557 5.2656 9.1197v24.323h-24.615l19.349-33.443zm-48.99 5.4427h4.3073l0.06251 0.104 16.042 27.896h-30.156v-22.797c0.43907 0.064 0.87634 0.13067 1.3333 0.13067 3.7317 0 6.9157-2.1829 8.4114-5.3333z"/>
  <path id="rect4223" style="fill:url(#linearGradient15140)" d="m-121.95 24v40 40h42.755 37.245v-34.474-45.526h-80zm8 8h64v23.672l-5.2917-9.1615-9.125 15.802-1.8177 3.151-12.969 22.464-10.651-18.443-4-6.9271-1.474-2.5573h-8.9271c-1.4958-3.1505-4.6798-5.3333-8.4115-5.3333-0.45699 0-0.89426 0.06736-1.3333 0.13021v-22.797zm58.734 30.557 5.2656 9.1198v24.323h-24.615l19.349-33.443zm-48.99 5.4427h4.3073l0.06251 0.10416 16.042 27.896h-30.156v-22.797c0.43907 0.06285 0.87634 0.13021 1.3333 0.13021 3.7317 0 6.9157-2.1829 8.4115-5.3333z"/>
  <path id="path4128" style="fill:#90bbed" d="m-113.95 29.865v0.0053 2.1301h64v-2.1354h-64zm58.734 30.557-19.349 33.443h1.2344l18.115-31.307 5.2656 9.1198v-2.1354l-5.2656-9.1198zm-48.99 5.4427c-1.4958 3.1504-4.6798 5.3333-8.4115 5.3333-0.45699 0-0.89426-0.06621-1.3333-0.13021v2.1354c0.43907 0.06285 0.87634 0.13021 1.3333 0.13021 3.7317 0 6.9157-2.1829 8.4115-5.3333h4.3073l0.06251 0.10416 14.812 25.76h1.2292l-16.042-27.896-0.06251-0.10416h-4.3073zm-17.745 36v2.1354h42.755 37.245v-2.1354h-37.245-42.755z"/>
  <path id="path4134" style="fill:#fff;fill-opacity:.23529" d="m-121.95 24v1.0677h80v-1.0677h-80zm66.708 22.51-9.125 15.802-1.8177 3.151-12.969 22.464-10.651-18.443-4-6.9271-1.474-2.5573h-8.9271c-1.4958-3.1505-4.6798-5.3333-8.4115-5.3333-0.45699 0-0.89426 0.06736-1.3333 0.13021v1.0677c0.43907-0.064 0.87634-0.13021 1.3333-0.13021 3.7317 0 6.9157 2.1829 8.4115 5.3333h8.9271l1.474 2.5573 4 6.9271 10.651 18.443 12.969-22.464 1.8177-3.151 9.125-15.802 5.2917 9.1615v-1.0677l-5.2917-9.1615zm-58.708 49.49v1.0677h30.156l-0.61458-1.0677h-29.542zm40.005 0-0.61979 1.0677h24.615v-1.0677h-23.995z"/>
 </g>
</svg>
