<?xml version="1.0" encoding="UTF-8" standalone="no"?>
<!-- Created with Inkscape (http://www.inkscape.org/) -->
<svg id="svg3449" xmlns:rdf="http://www.w3.org/1999/02/22-rdf-syntax-ns#" xmlns="http://www.w3.org/2000/svg" height="128" width="128" version="1.0" xmlns:cc="http://creativecommons.org/ns#" xmlns:xlink="http://www.w3.org/1999/xlink" xmlns:dc="http://purl.org/dc/elements/1.1/">
 <metadata id="metadata56">
  <rdf:RDF>
   <cc:Work rdf:about="">
    <dc:format>image/svg+xml</dc:format>
    <dc:type rdf:resource="http://purl.org/dc/dcmitype/StillImage"/>
    <dc:title/>
   </cc:Work>
  </rdf:RDF>
 </metadata>
 <defs id="defs3451">
  <linearGradient id="linearGradient3514" y2="-9.1034" gradientUnits="userSpaceOnUse" x2="66.492" gradientTransform="matrix(.96826 0 0 .97948 2.179 .16587)" y1="-42.638" x1="67.952">
   <stop id="stop4620" style="stop-color:#37414b" offset="0"/>
   <stop id="stop4622" style="stop-color:#37414b;stop-opacity:0" offset="1"/>
  </linearGradient>
  <linearGradient id="linearGradient3516" y2="-11.847" gradientUnits="userSpaceOnUse" x2="58.98" gradientTransform="matrix(.96826 0 0 .97948 2.179 .16587)" y1="-118.55" x1="57.173">
   <stop id="stop4596" offset="0"/>
   <stop id="stop4598" style="stop-opacity:0" offset="1"/>
  </linearGradient>
  <linearGradient id="linearGradient3519" y2="50.369" gradientUnits="userSpaceOnUse" x2="76.558" gradientTransform="matrix(.96826 0 0 .97948 3.2423 -129.19)" y1="13.164" x1="76.558">
   <stop id="stop3392" style="stop-color:#425e7b" offset="0"/>
   <stop id="stop3394" style="stop-color:#7a91a7" offset="1"/>
  </linearGradient>
  <linearGradient id="linearGradient3521" y2="-8.7399" gradientUnits="userSpaceOnUse" x2="60.217" gradientTransform="matrix(.96826 0 0 .97948 2.179 .16587)" y1="-123.72" x1="60.395">
   <stop id="stop3392-4-8" style="stop-color:#425e7b" offset="0"/>
   <stop id="stop3394-8-0" style="stop-color:#7a91a7" offset="1"/>
  </linearGradient>
  <radialGradient id="radialGradient3349" gradientUnits="userSpaceOnUse" cy="45.647" cx="42.148" gradientTransform="matrix(.0084350 1.8886 -1.5444 .0068980 113.65 -57.814)" r="58.984">
   <stop id="stop4855" style="stop-color:#b8b8b8" offset="0"/>
   <stop id="stop4857" style="stop-color:#fff" offset="1"/>
  </radialGradient>
  <filter id="filter3174" color-interpolation-filters="sRGB">
   <feGaussianBlur id="feGaussianBlur3176" stdDeviation="1.71"/>
  </filter>
  <linearGradient id="ButtonShadow-1" x1="45.448" gradientUnits="userSpaceOnUse" y1="92.54" gradientTransform="scale(1.0059 .99417)" x2="45.448" y2="7.0165">
   <stop id="stop3750-87" offset="0"/>
   <stop id="stop3752-56" style="stop-opacity:.58824" offset="1"/>
  </linearGradient>
  <filter id="filter3174-5" color-interpolation-filters="sRGB">
   <feGaussianBlur id="feGaussianBlur3176-70" stdDeviation="1.71"/>
  </filter>
  <linearGradient id="linearGradient6303" y2="13.937" gradientUnits="userSpaceOnUse" x2="14.134" gradientTransform="matrix(1 0 0 1.4586 0 -3.23)" y1="45.621" x1="36.417">
   <stop id="stop6299" style="stop-color:#fff;stop-opacity:.25604" offset="0"/>
   <stop id="stop6301" style="stop-color:#fff;stop-opacity:.38164" offset="1"/>
  </linearGradient>
  <filter id="filter3174-2" color-interpolation-filters="sRGB">
   <feGaussianBlur id="feGaussianBlur3176-78" stdDeviation="1.71"/>
  </filter>
  <filter id="filter3174-24" color-interpolation-filters="sRGB">
   <feGaussianBlur id="feGaussianBlur3176-0" stdDeviation="1.71"/>
  </filter>
  <filter id="filter3174-8" color-interpolation-filters="sRGB">
   <feGaussianBlur id="feGaussianBlur3176-9" stdDeviation="1.71"/>
  </filter>
  <linearGradient id="linearGradient7604" y2="7.0165" gradientUnits="userSpaceOnUse" x2="45.448" gradientTransform="matrix(1.0059 0 0 .99417 -189.19 -21.187)" y1="92.54" x1="45.448">
   <stop id="stop3750-3" offset="0"/>
   <stop id="stop3752-7" style="stop-opacity:.58824" offset="1"/>
  </linearGradient>
  <filter id="filter3174-0" color-interpolation-filters="sRGB">
   <feGaussianBlur id="feGaussianBlur3176-2" stdDeviation="1.71"/>
  </filter>
  <clipPath id="clipPath3613-87">
   <rect id="rect3615-88" style="fill:#fff" rx="6" ry="6" height="84" width="84" y="6" x="6"/>
  </clipPath>
  <linearGradient id="linearGradient3613-88" x1="48" gradientUnits="userSpaceOnUse" y1="20.221" x2="48" y2="138.66">
   <stop id="stop3739-29" style="stop-color:#fff" offset="0"/>
   <stop id="stop3741-173" style="stop-color:#fff;stop-opacity:0" offset="1"/>
  </linearGradient>
  <filter id="filter3794-67" height="1.384" width="1.384" color-interpolation-filters="sRGB" y="-.192" x="-.192">
   <feGaussianBlur id="feGaussianBlur3796-4" stdDeviation="5.28"/>
  </filter>
  <filter id="filter3174-45" color-interpolation-filters="sRGB">
   <feGaussianBlur id="feGaussianBlur3176-6" stdDeviation="1.71"/>
  </filter>
  <linearGradient id="linearGradient1041-8">
   <stop id="stop1043-3" style="stop-color:#e3e3d6" offset="0"/>
   <stop id="stop1045-2" style="stop-color:#ecece2" offset="1"/>
  </linearGradient>
  <linearGradient id="linearGradient1179-0">
   <stop id="stop1181-7" style="stop-color:#a1a1a1" offset="0"/>
   <stop id="stop1183-2" style="stop-color:#b9b9b9" offset="1"/>
  </linearGradient>
  <linearGradient id="linearGradient1102-8">
   <stop id="stop1104-8" style="stop-color:#b9b9b9" offset="0"/>
   <stop id="stop1106-6" style="stop-color:#aaa" offset="1"/>
  </linearGradient>
  <linearGradient id="linearGradient1108-8">
   <stop id="stop1110-8" style="stop-color:#ababab" offset="0"/>
   <stop id="stop1112-8" style="stop-color:#c9c9c9" offset="1"/>
  </linearGradient>
  <linearGradient id="linearGradient1068-8">
   <stop id="stop1070-0" style="stop-color:#b9b9b9" offset="0"/>
   <stop id="stop1072-0" style="stop-color:#dadada" offset="1"/>
  </linearGradient>
  <linearGradient id="linearGradient4804" y2="1008.8" xlink:href="#linearGradient1068-8" gradientUnits="userSpaceOnUse" x2="24.864" y1="1050" x1="24.864"/>
  <linearGradient id="linearGradient4810" y2="1014.3" xlink:href="#linearGradient1068-8" gradientUnits="userSpaceOnUse" x2="15.596" y1="1038.9" x1="47.106"/>
  <linearGradient id="linearGradient4812" y2="1008.8" xlink:href="#linearGradient1108-8" gradientUnits="userSpaceOnUse" x2="24.864" y1="1050" x1="24.864"/>
  <linearGradient id="linearGradient4814" y2="1008.8" xlink:href="#linearGradient1102-8" gradientUnits="userSpaceOnUse" x2="24.864" y1="1050" x1="24.864"/>
  <linearGradient id="linearGradient4820" y2="1024.9" xlink:href="#linearGradient1179-0" gradientUnits="userSpaceOnUse" x2="15.649" gradientTransform="matrix(3.0464 0 0 3.0464 -5.9339 -3071.5)" y1="1019.7" x1="15.649"/>
  <linearGradient id="linearGradient4822" y2="1024.9" xlink:href="#linearGradient1179-0" gradientUnits="userSpaceOnUse" x2="15.649" gradientTransform="matrix(3.5833 0 0 3.5833 36.822 -3624.2)" y1="1019.7" x1="15.649"/>
  <linearGradient id="linearGradient4824" y2="1024.9" xlink:href="#linearGradient1179-0" gradientUnits="userSpaceOnUse" x2="15.649" gradientTransform="matrix(3.0464 0 0 3.0464 -5.9485 -3025.5)" y1="1019.7" x1="15.649"/>
  <linearGradient id="linearGradient4826" y2="1024.9" xlink:href="#linearGradient1179-0" gradientUnits="userSpaceOnUse" x2="15.649" gradientTransform="matrix(3.0464 0 0 3.0464 45.203 -3025.5)" y1="1019.7" x1="15.649"/>
  <linearGradient id="linearGradient4828" y2="1028.4" xlink:href="#linearGradient1041-8" gradientUnits="userSpaceOnUse" x2="46.301" y1="1028.4" x1="1.6992"/>
  <linearGradient id="linearGradient4848-4" y2="1016.3" gradientUnits="userSpaceOnUse" y1="1006.4" gradientTransform="matrix(5.0783 0 0 2.9748 121.69 -2964.8)" x2="25.545" x1="25.545">
   <stop id="stop3072" style="stop-color:#0983b1" offset="0"/>
   <stop id="stop3074" style="stop-color:#6eb1d9" offset="1"/>
  </linearGradient>
 </defs>
 <rect id="rect892" style="stroke:url(#linearGradient3521);stroke-width:.97385;fill:url(#linearGradient3519)" transform="scale(1,-1)" ry="29.296" height="115.54" width="114.22" y="-122.25" x="7.0394"/>
 <rect id="rect892-2" style="stroke:url(#linearGradient3516);stroke-width:.97385;fill:url(#linearGradient3514)" transform="scale(1,-1)" ry="28.993" height="114.35" width="114.22" y="-121.46" x="7.0599"/>
 <path id="path5680" style="stroke:#38647a;stroke-width:1px;fill:#38647a" d="m7.5037 35.07c0.57721 0.1443 113.85 0 113.85 0"/>
 <path id="rect895" style="fill:url(#radialGradient3349)" d="m33.051 7.2596c-7.969-2.4493-27.013 15.174-25.653 23.038-0.050142 0.97378-0.088772 1.9648-0.088772 2.9572v52.419c0 20.876 10.712 33.859 22.318 33.859h67.038c12.638 0 24.318-11.245 24.318-25.859v-64.017c0.7-10.928-21.283-24.659-25.926-22.618-47.846 0.8653-18.017 0.2236-62.003 0.2236z"/>
 <g id="g4869" transform="matrix(.91634 0 0 1.7587 -159.18 -47.876)">
  <path id="rect1049" style="fill:url(#linearGradient4848-4)" d="m209.66 31.343c-9.7579 0-24.33 4.7855-26.912 10.772l-2.1826 5.0602h126v-0.51152c0-11.572-24.824-15.321-29.095-15.321z"/>
  <path id="path7515" style="opacity:.47131;fill:#fff;fill-opacity:.53725" d="m206.85 31.928c-3.6142 0-17.314 2.2123-23.906 10.621 0.88097-0.73474 3.6383-1.009 4.8865-1.009h113.65c1.2482 0 2.4003 0.4137 3.2812 1.1484-2.0412-6.4253-18.381-10.761-24.483-10.761z"/>
 </g>
 <path id="path1187" style="opacity:.68238;fill:url(#linearGradient6303)" d="m36.537 7.6204c-8.869 0.7824-26.296 4.9186-29.527 41.221v47.783c18.67-55.894 33.784-75.414 85.818-89.536-0.225-0.0381-0.46-0.0444-0.691-0.0444-41.576 0.5651-17.576 0.5768-55.6 0.5768z"/>
 <rect id="rect892-2-7-8" style="opacity:.15891;stroke:#000;stroke-width:4.8445;fill:none" transform="scale(1,-1)" ry="28.993" height="114.35" width="114.22" y="-121.16" x="6.8687"/>
 <rect id="rect892-2-7-1" style="opacity:.15891;stroke:#000;stroke-width:7.7512;fill:none" transform="scale(1,-1)" ry="28.993" height="114.35" width="114.22" y="-121.16" x="6.8687"/>
 <g id="layer2" style="display:none" transform="matrix(1.44 0 0 1.44 -4.952 -6.9671)">
  <rect id="rect3745" style="opacity:.9;filter:url(#filter3174);fill:url(#ButtonShadow-1)" rx="6" ry="6" height="85" width="86" y="7" x="5"/>
 </g>
 <g id="layer2-1" style="display:none" transform="translate(183.21 82.968)">
  <rect id="rect3745-9" style="opacity:.9;filter:url(#filter3174-5);fill:url(#ButtonShadow-1)" rx="6" ry="6" height="85" width="86" y="7" x="5"/>
 </g>
 <g id="layer2-2" style="display:none" transform="translate(52.694 146.84)">
  <path id="rect3745-94" style="opacity:.9;filter:url(#filter3174-2);fill:url(#ButtonShadow-1)" d="m11 7c-3.324 0-6 2.676-6 6v73c0 3.324 2.676 6 6 6h74c3.324 0 6-2.676 6-6v-73c0-3.324-2.676-6-6-6h-74zm-1 4h6v4h-6v-4zm70 0h6v4h-6v-4zm-70 8h6v4h-6v-4zm70 0h6v4h-6v-4zm-70 8h6v4h-6v-4zm70 0h6v4h-6v-4zm-70 8h6v4h-6v-4zm70 0h6v4h-6v-4zm-70 8h6v4h-6v-4zm70 0h6v4h-6v-4zm-70 8h6v4h-6v-4zm70 0h6v4h-6v-4zm-70 8h6v4h-6v-4zm70 0h6v4h-6v-4zm-70 8h6v4h-6v-4zm70 0h6v4h-6v-4zm-70 8h6v4h-6v-4zm70 0h6v4h-6v-4zm-70 8h6v4h-6v-4zm70 0h6v4h-6v-4z"/>
 </g>
 <rect id="rect892-2-7-2-9" ry="28.067" style="stroke:#000;stroke-width:1.0489;fill:none" transform="scale(1,-1)" height="112.71" width="114.14" y="-120.31" x="7.0649"/>
 <g id="layer2-20" style="display:none" transform="translate(-287.93 37.655)">
  <rect id="rect3745-8" style="opacity:.9;filter:url(#filter3174-24);fill:url(#ButtonShadow-1)" rx="6" ry="6" height="85" width="86" y="7" x="5"/>
 </g>
 <rect id="rect3745-7" style="opacity:.9;filter:url(#filter3174-8);display:none;fill:url(#linearGradient7604)" rx="6" ry="6" height="85" width="86" y="-14.187" x="-184.19"/>
 <g id="layer2-0" style="display:none" transform="translate(218.22 18.71)">
  <rect id="rect3745-6" style="opacity:.9;filter:url(#filter3174-0);fill:url(#ButtonShadow-1)" rx="6" ry="6" height="85" width="86" y="7" x="5"/>
 </g>
 <g id="layer2-3" style="display:none" transform="matrix(1.3904 0 0 1.3904 -2.7373 -4.128)">
  <rect id="rect3745-1" style="opacity:.9;filter:url(#filter3174-45);fill:url(#ButtonShadow-1)" rx="6" ry="6" height="85" width="86" y="7" x="5"/>
 </g>
 <g id="layer5-30" transform="matrix(1.3904 0 0 1.3904 -2.7373 -4.128)">
  <rect id="rect3171-4" style="opacity:.5;filter:url(#filter3794-67);stroke:#fff;stroke-linecap:round;stroke-width:.5;fill:url(#linearGradient3613-88)" clip-path="url(#clipPath3613-87)" rx="12" ry="12" height="66" width="66" y="15" x="15"/>
 </g>
 <g id="g4788" transform="matrix(.8 0 0 .8 9.119 20.042)">
  <g id="g1060" style="fill:url(#linearGradient4804)" transform="matrix(.72381 0 0 .72381 24.232 -696.3)">
   <rect id="rect1062" style="fill:url(#linearGradient4804)" ry="5.6755" height="44.602" width="44.602" y="1006.1" x="1.6992"/>
  </g>
  <g id="g1078" style="fill:url(#linearGradient4810)" transform="matrix(.85138 0 0 .85138 72.322 -830.32)">
   <rect id="rect1080" style="fill:url(#linearGradient4804)" ry="5.6755" height="44.602" width="44.602" y="1006.1" x="1.6992"/>
  </g>
  <g id="g1094" style="fill:url(#linearGradient4814)" transform="matrix(.72381 0 0 .72381 24.232 -650.28)">
   <rect id="rect1096" style="fill:url(#linearGradient4812)" ry="5.6755" height="44.602" width="44.602" y="1006.1" x="1.6992"/>
  </g>
  <g id="g1114" style="fill:url(#linearGradient4814)" transform="matrix(.72381 0 0 .72381 75.383 -650.28)">
   <rect id="rect1116" style="fill:url(#linearGradient4812)" ry="5.6755" height="44.602" width="44.602" y="1006.1" x="1.6992"/>
  </g>
  <path id="rect1154" d="m28.719 31.926c-1.8753 0.38168-3.2368 2.1021-3.2368 4.0937v24.085c0 2.2756 1.8177 4.0937 4.0936 4.0937h0.85679c-2.1198 0-3.9032-1.7616-3.9032-3.9034v-22.657c0-2.1425 1.7834-3.8083 3.9032-3.8083h22.372c2.1198 0 3.808 1.6658 3.808 3.8083v22.657c0 2.1417-1.6882 3.9034-3.808 3.9034h0.85679c2.2758 0 4.0936-1.8181 4.0936-4.0937v-24.085c0-2.2764-1.8177-4.0937-4.0936-4.0937h-24.085c-0.28447 0-0.58889-0.05512-0.85679 0z" style="fill:url(#linearGradient4820)"/>
  <path id="path1185" style="fill:url(#linearGradient4822)" d="m77.582 26.238c-2.2058 0.4494-3.8072 2.473-3.8072 4.8153v28.33c0 2.6764 2.1381 4.8153 4.815 4.8153h1.0078c-2.4934 0-4.5911-2.0722-4.5911-4.5916v-26.65c0-2.5197 2.0977-4.479 4.5911-4.479h26.315c2.4934 0 4.4791 1.9593 4.4791 4.479v26.65c0 2.5195-1.9857 4.5916-4.4791 4.5916h1.0078c2.6769 0 4.815-2.1389 4.815-4.8153v-28.33c0-2.6767-2.1381-4.8153-4.815-4.8153h-28.33c-0.33461 0-0.69267-0.063-1.0078 0z"/>
  <path id="path1189" style="fill:url(#linearGradient4824)" d="m28.704 77.937c-1.8753 0.38246-3.2368 2.1024-3.2368 4.094v24.085c0 2.2759 1.8177 4.0934 4.0936 4.0934h0.85679c-2.1198 0-3.9032-1.7614-3.9032-3.9031v-22.657c0-2.142 1.7834-3.8076 3.9032-3.8076h22.372c2.1198 0 3.808 1.6656 3.808 3.8076v22.657c0 2.1417-1.6882 3.9031-3.808 3.9031h0.85679c2.2758 0 4.0936-1.8176 4.0936-4.0934v-24.085c0-2.2759-1.8177-4.094-4.0936-4.094h-24.085c-0.28447 0-0.58889-0.05512-0.8568 0z"/>
  <path id="path1193" d="m79.855 77.937c-1.8753 0.38246-3.2368 2.1024-3.2368 4.094v24.085c0 2.2759 1.8177 4.0934 4.0936 4.0934h0.85679c-2.1198 0-3.9032-1.7614-3.9032-3.9031v-22.657c0-2.142 1.7834-3.8076 3.9032-3.8076h22.372c2.1198 0 3.808 1.6656 3.808 3.8076v22.657c0 2.1417-1.6882 3.9031-3.808 3.9031h0.85679c2.2758 0 4.0936-1.8176 4.0936-4.0934v-24.085c0-2.2759-1.8177-4.094-4.0936-4.094h-24.085c-0.28447 0-0.58889-0.05512-0.85679 0z" style="fill:url(#linearGradient4826)"/>
  <g id="g1197" style="fill:url(#linearGradient4828)" transform="matrix(.56778 0 0 .56778 79.128 -538.67)">
   <rect id="rect1199" style="fill:url(#linearGradient4828)" ry="5.6755" height="44.602" width="44.602" y="1006.1" x="1.6992"/>
  </g>
 </g>
</svg>
