<?xml version="1.0" encoding="UTF-8" standalone="no"?>
<!-- Created with Inkscape (http://www.inkscape.org/) -->
<svg id="svg2" xmlns:rdf="http://www.w3.org/1999/02/22-rdf-syntax-ns#" xmlns="http://www.w3.org/2000/svg" height="48" width="48" version="1.1" xmlns:cc="http://creativecommons.org/ns#" xmlns:dc="http://purl.org/dc/elements/1.1/">
 <metadata id="metadata7">
  <rdf:RDF>
   <cc:Work rdf:about="">
    <dc:format>image/svg+xml</dc:format>
    <dc:type rdf:resource="http://purl.org/dc/dcmitype/StillImage"/>
    <dc:title/>
   </cc:Work>
  </rdf:RDF>
 </metadata>
 <g id="layer1" transform="translate(0 -1004.4)">
  <path id="rect3249" style="fill:#f2f2f2" d="m8 1022.9h4v11h-4z"/>
  <path id="rect3251" style="fill:#f2f2f2" d="m14 1020.9 10-8.5v32l-10-8.5z"/>
  <path id="path4098" style="fill:#f2f2f2" d="m28.438 1021.7-2.2207 3.3281c1.0741 0.7172 1.7832 1.9377 1.7832 3.3262s-0.70907 2.609-1.7832 3.3262l2.2207 3.3281c2.1471-1.4346 3.5625-3.8782 3.5625-6.6543s-1.4154-5.2197-3.5625-6.6543z"/>
  <path id="path4089" style="fill:#f2f2f2;fill-opacity:.53725" d="m32.873 1015.1-2.2168 3.3261c3.221 2.1519 5.3438 5.8199 5.3438 9.9844s-2.1227 7.8325-5.3438 9.9844l2.2168 3.3261c4.295-2.9 7.127-7.8 7.127-13.3 0-5.5529-2.8318-10.442-7.127-13.31z"/>
 </g>
</svg>
