<?xml version="1.0" encoding="UTF-8" standalone="no"?>
<!-- Created with Inkscape (http://www.inkscape.org/) -->

<svg
   xmlns:dc="http://purl.org/dc/elements/1.1/"
   xmlns:cc="http://creativecommons.org/ns#"
   xmlns:rdf="http://www.w3.org/1999/02/22-rdf-syntax-ns#"
   xmlns:svg="http://www.w3.org/2000/svg"
   xmlns="http://www.w3.org/2000/svg"
   xmlns:sodipodi="http://sodipodi.sourceforge.net/DTD/sodipodi-0.dtd"
   xmlns:inkscape="http://www.inkscape.org/namespaces/inkscape"
   width="48"
   height="48"
   id="svg2"
   version="1.1"
   inkscape:version="0.48.4 r9939"
   sodipodi:docname="transmission-tray-icon.svg">
  <defs
     id="defs4" />
  <sodipodi:namedview
     id="base"
     pagecolor="#ffffff"
     bordercolor="#666666"
     borderopacity="1.0"
     inkscape:pageopacity="0.0"
     inkscape:pageshadow="2"
     inkscape:zoom="13.790274"
     inkscape:cx="44.722674"
     inkscape:cy="21.907437"
     inkscape:document-units="px"
     inkscape:current-layer="layer1"
     showgrid="false"
     inkscape:window-width="1360"
     inkscape:window-height="707"
     inkscape:window-x="-2"
     inkscape:window-y="33"
     inkscape:window-maximized="1"
     width="0px"
     height="0px"
     fit-margin-top="0"
     fit-margin-left="0"
     fit-margin-right="0"
     fit-margin-bottom="0">
    <inkscape:grid
       type="xygrid"
       id="grid3850"
       empspacing="5"
       visible="true"
       enabled="true"
       snapvisiblegridlinesonly="true" />
    <sodipodi:guide
       position="9,39.000017"
       orientation="30,0"
       id="guide3265" />
    <sodipodi:guide
       position="9,9.0000174"
       orientation="0,30"
       id="guide3267" />
    <sodipodi:guide
       position="39,9.0000174"
       orientation="-30,0"
       id="guide3269" />
    <sodipodi:guide
       position="39,39.000017"
       orientation="0,-30"
       id="guide3271" />
  </sodipodi:namedview>
  <metadata
     id="metadata7">
    <rdf:RDF>
      <cc:Work
         rdf:about="">
        <dc:format>image/svg+xml</dc:format>
        <dc:type
           rdf:resource="http://purl.org/dc/dcmitype/StillImage" />
        <dc:title />
      </cc:Work>
    </rdf:RDF>
  </metadata>
  <g
     inkscape:label="Capa 1"
     inkscape:groupmode="layer"
     id="layer1"
     transform="translate(0,-1004.3622)">
    <rect
       style="fill:none;fill-opacity:1;fill-rule:evenodd;stroke:none"
       id="rect3261"
       width="30"
       height="30"
       x="9"
       y="1013.3622" />
    <path
       sodipodi:type="arc"
       style="fill:none;fill-opacity:1;fill-rule:evenodd;stroke:none"
       id="path3281"
       sodipodi:cx="23.998613"
       sodipodi:cy="1029.3622"
       sodipodi:rx="2.0013857"
       sodipodi:ry="2.0000615"
       d="m 25.999999,1029.3622 c 0,1.1046 -0.896051,2 -2.001386,2 -1.105334,0 -2.001385,-0.8954 -2.001385,-2 0,-1.1046 0.896051,-2.0001 2.001385,-2.0001 1.105335,0 2.001386,0.8955 2.001386,2.0001 z" />
    <path
       d="m 35.000001,1022.3622 c 0,1.1046 -0.896051,2 -2.001386,2 -1.105335,0 -2.001385,-0.8954 -2.001385,-2 0,-1.1046 0.89605,-2.0001 2.001385,-2.0001 1.105335,0 2.001386,0.8955 2.001386,2.0001 z"
       sodipodi:ry="2.0000615"
       sodipodi:rx="2.0013857"
       sodipodi:cy="1022.3622"
       sodipodi:cx="32.998615"
       id="path3283"
       style="fill:none;fill-opacity:1;fill-rule:evenodd;stroke:none"
       sodipodi:type="arc" />
    <path
       sodipodi:type="arc"
       style="fill:none;fill-opacity:1;fill-rule:evenodd;stroke:none"
       id="path3285"
       sodipodi:cx="14.998614"
       sodipodi:cy="1022.3622"
       sodipodi:rx="2.0013857"
       sodipodi:ry="2.0000615"
       d="m 17,1022.3622 c 0,1.1046 -0.896051,2 -2.001386,2 -1.105334,0 -2.001385,-0.8954 -2.001385,-2 0,-1.1046 0.896051,-2.0001 2.001385,-2.0001 1.105335,0 2.001386,0.8955 2.001386,2.0001 z" />
    <path
       d="m 25.999999,1015.3622 c 0,1.1046 -0.896051,2 -2.001386,2 -1.105334,0 -2.001385,-0.8954 -2.001385,-2 0,-1.1046 0.896051,-2.0001 2.001385,-2.0001 1.105335,0 2.001386,0.8955 2.001386,2.0001 z"
       sodipodi:ry="2.0000615"
       sodipodi:rx="2.0013857"
       sodipodi:cy="1015.3622"
       sodipodi:cx="23.998613"
       id="path3287"
       style="fill:none;fill-opacity:1;fill-rule:evenodd;stroke:none"
       sodipodi:type="arc" />
    <g
       id="network-wired-activated"
       style="fill:#ffffff"
       transform="matrix(1.247424,0,0,1.247424,9.0293141,1013.3867)">
      <rect
         y="0"
         x="0"
         height="24"
         width="24"
         id="rect3878"
         style="fill:#ffffff;fill-opacity:0;stroke:none" />
      <path
         sodipodi:nodetypes="ssssccccssssssccccsssssccccc"
         inkscape:connector-curvature="0"
         class="ColorScheme-Text"
         id="path3882"
         d="M 8,4 C 6.892,4 6,4.892 6,6 l 0,5 c 0,1.108 0.892,2 2,2 l 1,0 0,2 2,0 0,3 -8,0 c -0.554,0 -1,0.446 -1,1 0,0.554 0.446,1 1,1 l 18,0 c 0.554,0 1,-0.446 1,-1 0,-0.554 -0.446,-1 -1,-1 l -8,0 0,-3 2,0 0,-2 1,0 c 1.108,0 2,-0.892 2,-2 L 18,6 C 18,4.892 17.108,4 16,4 z m 0,2 8,0 0,5 -8,0 z"
         style="fill:#FFFFFF;fill-opacity:1" />
    </g>
  </g>
</svg>
