<?xml version="1.0" encoding="UTF-8" standalone="no"?>
<!-- Created with Inkscape (http://www.inkscape.org/) -->
<svg id="svg2" xmlns:rdf="http://www.w3.org/1999/02/22-rdf-syntax-ns#" xmlns="http://www.w3.org/2000/svg" height="22" viewBox="0 0 22 22" width="22" version="1.1" xmlns:cc="http://creativecommons.org/ns#" xmlns:dc="http://purl.org/dc/elements/1.1/">
 <metadata id="metadata7">
  <rdf:RDF>
   <cc:Work rdf:about="">
    <dc:format>image/svg+xml</dc:format>
    <dc:type rdf:resource="http://purl.org/dc/dcmitype/StillImage"/>
    <dc:title/>
   </cc:Work>
  </rdf:RDF>
 </metadata>
 <g id="layer1" transform="translate(0 -1030.4)">
  <path id="rect4142" style="fill:#FFFFFF" d="m3 3v1 11 1 3h1 2 8 4 1v-15-1h-16zm1 1h14v14h-4-8-2v-2-1-11z" transform="translate(0 1030.4)"/>
  <rect id="rect4304" style="fill:#FFFFFF" transform="matrix(.70710 .70711 .70710 -.70711 0 0)" height="1" width="3.243" y="-729.78" x="738.26"/>
  <rect id="rect4306" style="fill:#FFFFFF" transform="matrix(.70710 -.70711 .70710 .70711 0 0)" height="1" width="3.243" y="740.8" x="-732.31"/>
  <path id="path4328" style="fill:#FFFFFF;fill-rule:evenodd" d="m8.7935 1039.9 0.20698-0.207 0.20698 0.207-0.20698 0.207z"/>
  <rect id="rect4335" style="fill:#FFFFFF" height=".99998" width="4" y="1041.4" x="10"/>
 </g>
</svg>
