<?xml version="1.0" encoding="UTF-8" standalone="no"?>
<!-- Created with Inkscape (http://www.inkscape.org/) -->
<svg id="svg5453" xmlns:rdf="http://www.w3.org/1999/02/22-rdf-syntax-ns#" xmlns="http://www.w3.org/2000/svg" height="64" width="64" version="1.1" xmlns:cc="http://creativecommons.org/ns#" xmlns:xlink="http://www.w3.org/1999/xlink" xmlns:dc="http://purl.org/dc/elements/1.1/">
 <defs id="defs5455">
  <linearGradient id="linearGradient10420" y2="497.8" gradientUnits="userSpaceOnUse" x2="404.57" gradientTransform="matrix(.82366 0 0 1 79.521 -2.6306)" y1="477.8" x1="384.57">
   <stop id="stop4235" style="stop-color:#056a5a" offset="0"/>
   <stop id="stop4237" style="stop-color:#056a5a;stop-opacity:0" offset="1"/>
  </linearGradient>
  <radialGradient id="radialGradient10423" gradientUnits="userSpaceOnUse" cy="45.647" cx="42.148" gradientTransform="matrix(.61708 -.029284 .027419 .57778 378.91 469.38)" r="58.984">
   <stop id="stop10770" style="stop-color:#81c240" offset="0"/>
   <stop id="stop10772" style="stop-color:#056a5a" offset="1"/>
  </radialGradient>
  <linearGradient id="linearGradient10426" y2="-9.1034" gradientUnits="userSpaceOnUse" x2="66.492" gradientTransform="matrix(.49210 0 0 .49742 385.17 -483.21)" y1="-42.638" x1="67.952">
   <stop id="stop4620" style="stop-color:#37414b" offset="0"/>
   <stop id="stop4622" style="stop-color:#37414b;stop-opacity:0" offset="1"/>
  </linearGradient>
  <linearGradient id="linearGradient10428" y2="-11.847" gradientUnits="userSpaceOnUse" x2="58.98" gradientTransform="matrix(.49210 0 0 .49742 385.17 -483.21)" y1="-118.55" x1="57.173">
   <stop id="stop4596" offset="0"/>
   <stop id="stop4598" style="stop-opacity:0" offset="1"/>
  </linearGradient>
  <linearGradient id="linearGradient10431" y2="50.369" gradientUnits="userSpaceOnUse" x2="76.558" gradientTransform="matrix(.49210 0 0 .49742 385.71 -548.91)" y1="13.164" x1="76.558">
   <stop id="stop3392" style="stop-color:#425e7b" offset="0"/>
   <stop id="stop3394" style="stop-color:#7a91a7" offset="1"/>
  </linearGradient>
  <linearGradient id="linearGradient10433" y2="-8.7399" gradientUnits="userSpaceOnUse" x2="60.217" gradientTransform="matrix(.49210 0 0 .49742 385.17 -483.21)" y1="-123.72" x1="60.395">
   <stop id="stop3392-4-8" style="stop-color:#425e7b" offset="0"/>
   <stop id="stop3394-8-0" style="stop-color:#7a91a7" offset="1"/>
  </linearGradient>
  <linearGradient id="linearGradient6422" y2="7.0165" gradientUnits="userSpaceOnUse" y1="92.54" gradientTransform="matrix(1.0059 0 0 .99417 158.64 4.6017)" x2="45.448" x1="45.448">
   <stop id="stop3750-9" offset="0"/>
   <stop id="stop3752-105" style="stop-opacity:.58824" offset="1"/>
  </linearGradient>
  <filter id="filter3174-168" color-interpolation-filters="sRGB">
   <feGaussianBlur id="feGaussianBlur3176-04" stdDeviation="1.71"/>
  </filter>
  <linearGradient id="linearGradient7720" y2="7.0165" gradientUnits="userSpaceOnUse" y1="92.54" gradientTransform="matrix(1.0059 0 0 .99417 75.661 -1.5)" x2="45.448" x1="45.448">
   <stop id="stop3750-4-1" offset="0"/>
   <stop id="stop3752-6-1" style="stop-opacity:.58824" offset="1"/>
  </linearGradient>
  <filter id="filter3174-3-7" color-interpolation-filters="sRGB">
   <feGaussianBlur id="feGaussianBlur3176-3-28" stdDeviation="1.71"/>
  </filter>
  <linearGradient id="linearGradient16955" y2="7.0165" gradientUnits="userSpaceOnUse" y1="92.54" gradientTransform="matrix(1.0059 0 0 .99417 -207.46 -7.6017)" x2="45.448" x1="45.448">
   <stop id="stop3750-5-2" offset="0"/>
   <stop id="stop3752-25-8" style="stop-opacity:.58824" offset="1"/>
  </linearGradient>
  <filter id="filter3174-7-70" color-interpolation-filters="sRGB">
   <feGaussianBlur id="feGaussianBlur3176-34-4" stdDeviation="1.71"/>
  </filter>
  <linearGradient id="linearGradient3904" y2="7.0165" gradientUnits="userSpaceOnUse" y1="92.54" gradientTransform="matrix(1.0059 0 0 .99417 -156.15 .80109)" x2="45.448" x1="45.448">
   <stop id="stop3750-84-7" offset="0"/>
   <stop id="stop3752-3-538" style="stop-opacity:.58824" offset="1"/>
  </linearGradient>
  <filter id="filter3174-5-1" color-interpolation-filters="sRGB">
   <feGaussianBlur id="feGaussianBlur3176-94-06" stdDeviation="1.71"/>
  </filter>
  <linearGradient id="linearGradient4326" y2="7.0165" gradientUnits="userSpaceOnUse" y1="92.54" gradientTransform="matrix(1.0059 0 0 .99417 -18.086 54.302)" x2="45.448" x1="45.448">
   <stop id="stop3750-77-74" offset="0"/>
   <stop id="stop3752-4-5" style="stop-opacity:.58824" offset="1"/>
  </linearGradient>
  <filter id="filter3174-16-08" color-interpolation-filters="sRGB">
   <feGaussianBlur id="feGaussianBlur3176-5-22" stdDeviation="1.71"/>
  </filter>
  <linearGradient id="linearGradient24927" y2="28.782" gradientUnits="userSpaceOnUse" y1="67.218" gradientTransform="matrix(.49 0 0 .49 .27661 1.9037)" x2="48" x1="48">
   <stop id="stop3909-9-80" style="stop-color:#e1e1e1" offset="0"/>
   <stop id="stop3911-8-1" style="stop-color:#fff" offset="1"/>
  </linearGradient>
 </defs>
 <metadata id="metadata5458">
  <rdf:RDF>
   <cc:Work rdf:about="">
    <dc:format>image/svg+xml</dc:format>
    <dc:type rdf:resource="http://purl.org/dc/dcmitype/StillImage"/>
    <dc:title/>
   </cc:Work>
  </rdf:RDF>
 </metadata>
 <g id="layer1" transform="translate(-384.57 -483.8)">
  <rect id="rect892-2-7-2" ry="14.957" style="stroke:#d3d3d3;stroke-width:5.0015;fill:#37414b" transform="scale(1,-1)" height="58.989" width="58.995" y="-545.29" x="387.07"/>
  <rect id="rect892" style="stroke:url(#linearGradient10433);stroke-width:.49475;fill:url(#linearGradient10431)" transform="scale(1,-1)" ry="14.878" height="58.676" width="58.048" y="-545.38" x="387.64"/>
  <rect id="rect892-2-7-8" style="opacity:.15891;stroke:#000;stroke-width:2.4612;fill:none" transform="scale(1,-1)" ry="14.724" height="58.07" width="58.048" y="-544.83" x="387.55"/>
  <rect id="rect892-2-7-1" style="opacity:.15891;stroke:#000;stroke-width:3.9379;fill:none" transform="scale(1,-1)" ry="14.724" height="58.07" width="58.048" y="-544.83" x="387.55"/>
  <rect id="rect892-2" style="stroke:url(#linearGradient10428);stroke-width:.49475;fill:url(#linearGradient10426)" transform="scale(1,-1)" ry="14.724" height="58.07" width="58.048" y="-544.98" x="387.65"/>
  <path id="rect895" style="fill:url(#radialGradient10423)" d="m400.86 486.98c-4.0503-1.2438-13.29 5.8154-13.038 11.7-0.0255 0.49454-0.0451 0.99781-0.0451 1.5018v26.621c0 10.602 5.4442 17.195 11.343 17.195h34.071c6.4231 0 12.359-5.7106 12.359-13.133v-32.511c0.35356-5.551-7.9796-11.559-13.178-11.488-24.317 0.43952-9.1565 0.11361-31.511 0.11361z"/>
  <path id="path4230" style="fill:url(#linearGradient10420);fill-rule:evenodd" d="m399.57 487.17 21.415 26 0.82366 1 23.886-16.743-3.1257-5.0262-19.937-1.2306-2.471-4z"/>
  <rect id="rect892-2-7-2-9" ry="13.595" style="stroke:#000;stroke-width:.53449;fill:none" transform="scale(1,-1)" height="57.591" width="58.006" y="-544.39" x="387.66"/>
  <path id="path1187" style="fill:#fff;fill-opacity:.14035" d="m400.84 486.97c-12.048 0-13.227 0.34219-13.178 13.354-0.022 0.36343-0.039 0.73329-0.039 1.1037v16.637c9.4888-19.461 19.486-26.153 45.93-31.07-0.11421-0.0133-0.23371-0.0156-0.35102-0.0156-21.13 0.19676-13.037-0.01-32.362-0.01z"/>
  <g id="g344411" transform="matrix(1.2261 0 0 1.2261 387.39 484.62)">
   <rect id="rect3745-14" style="opacity:.9;filter:url(#filter3174-168);display:none;fill:url(#linearGradient6422)" rx="6" ry="6" height="85" width="86" y="11.602" x="163.64"/>
   <rect id="rect3745-9-1" style="opacity:.9;filter:url(#filter3174-3-7);display:none;fill:url(#linearGradient7720)" rx="6" ry="6" height="85" width="86" y="5.5" x="80.661"/>
   <rect id="rect3745-3-0" style="opacity:.9;filter:url(#filter3174-7-70);display:none;fill:url(#linearGradient16955)" rx="6" ry="6" height="85" width="86" y="-.60169" x="-202.46"/>
   <rect id="rect3745-97-3" style="opacity:.9;filter:url(#filter3174-5-1);display:none;fill:url(#linearGradient3904)" rx="6" ry="6" height="85" width="86" y="7.8011" x="-151.15"/>
   <rect id="rect3745-5-8" style="opacity:.9;filter:url(#filter3174-16-08);display:none;fill:url(#linearGradient4326)" rx="6" ry="6" height="85" width="86" y="61.302" x="-13.086"/>
   <path id="Geeko" style="fill:url(#linearGradient24927)" d="m22.9 16.007c-0.9293 0.000588-1.7905 0.02193-2.196 0.06681-2.4588 0.27214-4.6176 0.92645-7.0193 2.1255-3.8708 1.9325-6.3012 4.1198-7.6738 6.9078-0.61456 1.2483-0.82722 2.123-0.83438 3.4306-0.00441 0.82733 0.056183 1.2661 0.26985 1.939 0.76964 2.4239 2.9637 4.1536 5.5056 4.3426 2.4597 0.18284 4.2875-0.79066 5.1039-2.7174 0.296-0.69853 0.38493-1.3051 0.30242-2.0695-0.20174-1.8693-1.4111-3.2911-3.1979-3.7615-0.54712-0.14406-1.3892-0.14857-1.9262-0.0015-1.4723 0.40308-2.5434 1.7303-2.1495 3.3684 0.33416 1.3898 1.9581 2.2608 3.3313 1.7091 0.54837-0.22029 0.86759-0.48687 0.70876-1.072-0.1619-0.59638-0.56219-0.73704-1.3291-0.52204-0.30188 0.08463-0.51544 0.03042-0.74131-0.17401-0.37894-0.34298-0.37287-0.8672 0.01548-1.2414 0.47275-0.4555 1.337-0.49387 2.1263-0.09322 0.78105 0.39651 1.3516 1.5188 1.2283 2.416-0.13237 0.96316-0.68497 1.6279-1.6114 1.9375-0.30929 0.10334-0.43726 0.11524-1.1663 0.11342-0.78197-0.002-0.83967-0.0091-1.2795-0.15693-1.6498-0.55439-2.7396-2.0571-2.7497-3.7926-0.00637-1.096 0.38273-1.9808 1.2469-2.834 0.81236-0.80198 1.8617-1.1937 3.1979-1.1932 1.661 0.000588 3.0402 0.58125 4.2479 1.7899 0.90885 0.90957 1.5951 2.1424 1.8595 3.3374l0.08375 0.3791 2.3853 1.1699c0.01913-0.0175 0.01345-0.17808-0.0124-0.28744-0.09775-0.41327-0.11306-1.5641-0.02792-2.0509 0.12382-0.70788 0.2912-1.0763 0.64827-1.4294 0.55051-0.54441 1.23-0.77901 2.2612-0.77996 1.3716-0.0013 2.5355 0.50129 3.5763 1.5459 0.23355 0.23441 0.74261 0.78962 1.1321 1.2336 0.38954 0.44401 0.76763 0.84979 0.84058 0.90115 0.20466 0.14408 2.9851 1.4174 3.0196 1.3828 0.01677-0.0168-0.0818-0.19404-0.22024-0.39464-0.54182-0.78519-1.0012-1.7966-1.1771-2.59-0.12033-0.54282-0.08733-1.344 0.07135-1.7091 0.14856-0.34183 0.46529-0.6306 0.80025-0.73024 0.3588-0.10675 1.142-0.1003 2.193 0.01864 1.2605 0.14265 1.9573 0.17003 2.7885 0.1072 1.8929-0.1431 3.132-0.45439 4.5193-1.1326 0.72502-0.35447 0.87917-0.4913 1.036-0.91514 0.14953-0.40411 0.22046-0.79084 0.14423-0.79084-0.02697 0-0.28157 0.10949-0.56607 0.24394-1.0675 0.50447-1.9841 0.72865-2.7978 0.68518-0.84592-0.04519-2.2314-0.50981-3.8757-1.3005l-0.74908-0.36049-0.61104-1.4636 0.57072 0.35578c0.93884 0.62342 2.4571 1.3698 3.3825 1.6625 1.4137 0.44708 2.5388 0.38877 3.6771-0.1911 0.40124-0.20438 1.1539-0.72097 1.1539-0.79239 0-0.13462-0.40249-1.443-0.62656-2.0369-0.56033-1.4851-0.94228-1.9802-1.8657-2.4207-1.0252-0.48904-2.155-0.83941-4.2324-1.3129-0.99318-0.21088-1.9914-0.415-2.9994-0.54069l-0.02482 1.2305c-2.348-0.73-4.402-1.213-6.677-1.448-0.588-0.061-1.895-0.094-3.09-0.093zm15.56 2.5201c0.75865-0.0019 1.4826 0.38813 1.906 1.0938 0.72203 1.2033 0.13015 2.7665-1.2205 3.2224-0.89139 0.30084-1.9529-0.05869-2.4923-0.84366-0.44268-0.64427-0.51691-1.4761-0.19541-2.1736 0.18268-0.39638 0.61745-0.8653 0.97086-1.0456 0.33346-0.17018 0.68649-0.25238 1.0313-0.25326zm-0.02481 0.64324c-0.35552 0.0075-0.71777 0.1396-1.0236 0.41639-0.46691 0.42258-0.61685 1.1868-0.3474 1.7697 0.22122 0.47857 0.64021 0.80881 1.129 0.88872 0.69321 0.11332 1.3499-0.21005 1.6377-0.80792 0.19689-0.40899 0.23196-0.68966 0.13338-1.0752-0.19569-0.76521-0.85047-1.2061-1.5292-1.1917zm0.36291 0.79083c0.26355 0 0.58066 0.16475 0.62036 0.32317 0.05393 0.21528-0.01905 0.36399-0.22798 0.47077-0.32262 0.1649-0.73732 0.11824-0.98016-0.11031-0.29939-0.28178 0.04617-0.68363 0.58779-0.68363z"/>
  </g>
 </g>
</svg>
