<?xml version="1.0" encoding="UTF-8" standalone="no"?>
<!-- Created with Inkscape (http://www.inkscape.org/) -->
<svg id="svg5453" xmlns:rdf="http://www.w3.org/1999/02/22-rdf-syntax-ns#" xmlns="http://www.w3.org/2000/svg" height="64" width="64" version="1.1" xmlns:cc="http://creativecommons.org/ns#" xmlns:xlink="http://www.w3.org/1999/xlink" xmlns:dc="http://purl.org/dc/elements/1.1/">
 <defs id="defs5455">
  <linearGradient id="linearGradient10385" y2="50.369" gradientUnits="userSpaceOnUse" x2="76.558" gradientTransform="matrix(.49210 0 0 .49742 385.71 -548.91)" y1="13.164" x1="76.558">
   <stop id="stop3392" style="stop-color:#425e7b" offset="0"/>
   <stop id="stop3394" style="stop-color:#7a91a7" offset="1"/>
  </linearGradient>
  <linearGradient id="linearGradient10387" y2="-8.7399" gradientUnits="userSpaceOnUse" x2="60.217" gradientTransform="matrix(.49210 0 0 .49742 385.17 -483.22)" y1="-123.72" x1="60.395">
   <stop id="stop3392-4-8" style="stop-color:#425e7b" offset="0"/>
   <stop id="stop3394-8-0" style="stop-color:#7a91a7" offset="1"/>
  </linearGradient>
  <linearGradient id="linearGradient10389" y2="-9.1034" gradientUnits="userSpaceOnUse" x2="66.492" gradientTransform="matrix(.49210 0 0 .49742 385.17 -483.22)" y1="-42.638" x1="67.952">
   <stop id="stop4620" style="stop-color:#37414b" offset="0"/>
   <stop id="stop4622" style="stop-color:#37414b;stop-opacity:0" offset="1"/>
  </linearGradient>
  <linearGradient id="linearGradient10391" y2="-11.847" gradientUnits="userSpaceOnUse" x2="58.98" gradientTransform="matrix(.49210 0 0 .49742 385.17 -483.22)" y1="-118.55" x1="57.173">
   <stop id="stop4596" offset="0"/>
   <stop id="stop4598" style="stop-opacity:0" offset="1"/>
  </linearGradient>
  <radialGradient id="radialGradient10393" gradientUnits="userSpaceOnUse" cy="45.647" cx="42.148" gradientTransform="matrix(.61708 -.029284 .027419 .57778 378.91 469.39)" r="58.984">
   <stop id="stop10770" style="stop-color:#89b6e1" offset="0"/>
   <stop id="stop10772" style="stop-color:#649ad6" offset="1"/>
  </radialGradient>
  <linearGradient id="linearGradient10395" y2="497.8" gradientUnits="userSpaceOnUse" x2="404.57" gradientTransform="matrix(.82366 0 0 1 79.52 -2.625)" y1="477.8" x1="384.57">
   <stop id="stop4235" style="stop-color:#2f75dc" offset="0"/>
   <stop id="stop4237" style="stop-color:#6084d1;stop-opacity:0" offset="1"/>
  </linearGradient>
  <linearGradient id="linearGradient5956" y2="534.72" gradientUnits="userSpaceOnUse" x2="387.93" gradientTransform="matrix(2.625 0 0 2.625 -949.91 -1364.7)" y1="552.92" x1="387.93">
   <stop id="stop4660-3" style="stop-color:#c4dcf4" offset="0"/>
   <stop id="stop4662-8" style="stop-color:#f6fbfe;stop-opacity:.99608" offset="1"/>
  </linearGradient>
 </defs>
 <metadata id="metadata5458">
  <rdf:RDF>
   <cc:Work rdf:about="">
    <dc:format>image/svg+xml</dc:format>
    <dc:type rdf:resource="http://purl.org/dc/dcmitype/StillImage"/>
    <dc:title/>
   </cc:Work>
  </rdf:RDF>
 </metadata>
 <g id="layer1" transform="translate(-384.57 -483.8)">
  <g id="g10374" transform="translate(.00071696 -.0055850)">
   <rect id="rect892-2-7-2" style="stroke:#d3d3d3;stroke-width:5.0015;fill:#37414b" transform="scale(1,-1)" ry="14.957" height="58.989" width="58.995" y="-545.3" x="387.07"/>
   <rect id="rect892" ry="14.878" style="stroke:url(#linearGradient10387);stroke-width:.49475;fill:url(#linearGradient10385)" transform="scale(1,-1)" height="58.676" width="58.048" y="-545.39" x="387.64"/>
   <rect id="rect892-2" ry="14.724" style="stroke:url(#linearGradient10391);stroke-width:.49475;fill:url(#linearGradient10389)" transform="scale(1,-1)" height="58.07" width="58.048" y="-544.99" x="387.65"/>
   <path id="rect895" style="fill:url(#radialGradient10393)" d="m400.86 486.99c-4.0503-1.2438-13.729 7.7065-13.038 11.7-0.0255 0.49454-0.0451 0.99781-0.0451 1.5018v26.621c0 10.602 5.4442 17.195 11.343 17.195h34.071c6.4231 0 12.359-5.7106 12.359-13.133v-32.511c0.35356-5.551-10.819-12.524-13.178-11.488-24.317 0.43952-9.1565 0.11361-31.511 0.11361z"/>
   <path id="path4230" d="m399.57 487.17 21.415 26 0.82366 1 23.886-16.743-3.125-4.6318-19.938-1.625-2.471-4z" style="fill:url(#linearGradient10395);fill-rule:evenodd"/>
   <rect id="rect892-2-7-8" ry="14.724" style="opacity:.15891;stroke:#000;stroke-width:2.4612;fill:none" transform="scale(1,-1)" height="58.07" width="58.048" y="-544.83" x="387.55"/>
   <rect id="rect892-2-7-2-9" style="stroke:#000;stroke-width:.53286;fill:none" transform="scale(1,-1)" ry="14.254" height="57.239" width="58.008" y="-544.4" x="387.65"/>
   <rect id="rect892-2-7-1" ry="14.724" style="opacity:.15891;stroke:#000;stroke-width:3.9379;fill:none" transform="scale(1,-1)" height="58.07" width="58.048" y="-544.83" x="387.55"/>
   <path id="path1187" style="fill:#fff;fill-opacity:.057143" d="m400.84 486.97c-12.048 0-13.227 0.34219-13.178 13.354-0.022 0.36343-0.039 0.73329-0.039 1.1037v16.637c9.4888-19.461 19.486-26.153 45.93-31.07-0.11421-0.0133-0.23371-0.0156-0.35102-0.0156-21.13 0.19676-13.037-0.01-32.362-0.01z"/>
  </g>
  <g id="g5948" transform="matrix(.53144 0 0 .53144 382.2 481.6)">
   <path id="path4151" style="fill-opacity:.058824" d="m90.131 42.115c-4.5593 0.000053-8.3645 1.0791-11.339 3.3507-2.9766 2.2731-4.5307 5.331-4.5307 8.9667-0.00005 3.5366 1.3816 6.5087 4.07 8.607 2.6525 2.0703 6.467 3.6986 11.44 4.9471 4.489 1.1782 7.6126 2.5529 9.2822 3.9691 1.6823 1.4272 2.4736 3.1535 2.4736 5.4141 0 2.3581-0.96524 4.1154-2.9973 5.5655-2.0341 1.4515-4.7439 2.2148-8.1905 2.2148-3.4169 0-6.3334-0.82068-8.8152-2.4231-2.4136-1.5584-3.5526-3.8025-3.5526-7.1115v-0.77616h-0.77613-3.3444-0.56789l-0.15776 0.51747-0.0504 0.20816-0.0504 0.10106v0.10736c-0.10736 4.5101 1.681 8.087 5.2058 10.462 3.4671 2.3364 7.5046 3.5021 12.109 3.5021 4.657 0 8.5722-1.0767 11.648-3.3002 3.0893-2.233 4.6884-5.3459 4.6884-9.1244 0-3.6135-1.3427-6.642-4.0132-8.8657-2.6419-2.1997-6.442-3.8987-11.339-5.149-4.5317-1.138-7.6718-2.4859-9.3831-3.8681-1.7294-1.3968-2.524-2.9921-2.524-5.0481 0-2.1739 0.84202-3.9222 2.726-5.4141 1.8566-1.4702 4.5024-2.2653 7.9886-2.2653 3.5062 0.000026 6.1751 0.94203 8.1464 2.7323 1.9855 1.8033 2.9341 4.0277 2.9342 6.8528v0.72565h0.77613 3.3506 0.46697l0.20816-0.41646 0.10106-0.15776 0.10106-0.15146v-0.15146c0.0864-3.8925-1.4092-7.3112-4.3792-10.002-2.9849-2.7036-6.9438-4.0195-11.705-4.0195zm-36.838 0.0504v0.0052c-0.33364 0.01837-0.65922 0.17719-0.87079 0.46696l-2.5808 3.5463-0.34705 0.47326 0.0441 0.0504-1.3062 1.7984c-1.1091-0.12862-2.2347-0.15855-3.3696-0.06956l-3.9249-5.7233c-0.32805-0.47956-0.91571-0.62415-1.4261-0.41016l-4.3666 1.8236c-0.52948 0.22102-0.77568 0.76734-0.6941 1.2809l1.0664 6.6572c-1.0592 0.82021-2.0193 1.744-2.8522 2.7638l-6.8149-1.2747c-0.53954-0.1008-1.0837 0.19268-1.2936 0.70676l-1.7984 4.3855c-0.20396 0.49977-0.0105 1.0735 0.40385 1.3756v0.0053l5.6602 4.1205c-0.12311 1.1936-0.13939 2.4028-0.0131 3.622l-5.6286 3.8555c-0.44431 0.30371-0.62942 0.9045-0.41648 1.4135l1.8299 4.3666c0.20344 0.48678 0.72182 0.78451 1.2494 0.7004l6.8465-1.079c0.79541 0.97243 1.6853 1.8404 2.6502 2.6061l-1.2746 6.8401v0.01312 0.0053c-0.0157 0.09765 0.003 0.18926 0.0131 0.28395h-0.0131c-0.00018 0.07324 0.0157 0.14359 0.0315 0.21446v0.0053c0.0717 0.38154 0.32999 0.72017 0.69413 0.87079l4.3729 1.7731h0.005c0.47749 0.19425 1.0605 0.06142 1.3819-0.3786l2.5808-3.5463 0.34075-0.47323-0.0378-0.0441 1.3062-1.8047c1.1091 0.12862 2.2348 0.15855 3.3696 0.0693l3.9249 5.717 0.005 0.0052c0.32868 0.47502 0.91143 0.62328 1.4198 0.41016l4.3666-1.8299c0.5286-0.22102 0.77569-0.76112 0.69413-1.2746l-1.0664-6.6572c1.0578-0.81955 2.0202-1.7515 2.8522-2.7701l6.8149 1.2746c0.53955 0.1008 1.0837-0.19267 1.2936-0.70673l1.7984-4.3792c0.20397-0.49975 0.0105-1.0735-0.40385-1.3756v-0.0052l-5.6602-4.1268c0.12285-1.1918 0.13886-2.4047 0.0131-3.622l5.6286-3.8555c0.44441-0.30369 0.62961-0.89806 0.41646-1.4072l-1.8299-4.3666c-0.20291-0.48523-0.72975-0.78207-1.2557-0.70043l-6.8464 1.0727c-0.79365-0.96946-1.6817-1.836-2.644-2.5997l1.2746-6.8464v-0.01312l0.005-0.0053c0.0157-0.09686-0.0105-0.18322-0.0184-0.27765h0.0131c0.00013-0.07324-0.0184-0.14332-0.0315-0.21446v-0.0053c-0.0717-0.38144-0.3297-0.72022-0.6941-0.87079l-4.3729-1.7795c-0.11812-0.04804-0.24649-0.08059-0.37228-0.0882-0.0478-0.0026-0.0974-0.0025-0.14516 0zm-7.2188 10.923c0.12731-0.0022 0.25777-0.001 0.3849 0v0.0052c0.38168 0.0026 0.76902 0.02756 1.1484 0.063l0.11366 0.0053c0.26171 0.01837 0.52923 0.06772 0.84557 0.11366 0.26846 0.03911 0.55035 0.0987 0.85186 0.16406 0.12731 0.02625 0.24281 0.05014 0.34705 0.0756 0.0911 0.02362 0.18087 0.0504 0.27132 0.07586h0.005c0.14569 0.03911 0.28831 0.07901 0.44171 0.12626 0.11209 0.03491 0.22969 0.07901 0.36598 0.12626h0.005c0.14411 0.04935 0.30177 0.1176 0.48589 0.18926 0.14043 0.0546 0.23625 0.08111 0.28394 0.10106 0.83171 0.34458 1.6346 0.78309 2.3726 1.2872 0.25751 0.17614 0.48901 0.34731 0.72565 0.53637 0.0625 0.04935 0.10658 0.07613 0.11367 0.0819 0.0808 0.06589 0.18558 0.16432 0.32182 0.28395l0.005 0.0053c0.11288 0.09949 0.19924 0.17115 0.25253 0.22076h0.005v0.0053c1.3106 1.2111 2.388 2.7168 3.1235 4.4738 2.7375 6.5406-0.33749 14.054-6.878 16.791-2.0672 0.86528-4.2552 1.1794-6.3732 1.0159h-0.0263-0.0131c-0.053-0.0105-0.11366-0.01838-0.11366-0.01838s-0.021-0.000288-0.0315 0c-4.5956-0.38776-8.7784-3.3827-10.696-7.9634-2.7375-6.5406 0.33744-14.047 6.878-16.785 1.5273-0.63921 3.1516-0.9555 4.7768-0.98438z"/>
   <path id="path4149" d="m90.131 41.065c-4.5593 0.000052-8.3645 1.0791-11.339 3.3507-2.9766 2.2731-4.5307 5.331-4.5307 8.9667-0.00005 3.5366 1.3816 6.5087 4.07 8.607 2.6525 2.0703 6.467 3.6986 11.44 4.9471 4.489 1.1782 7.6126 2.5529 9.2822 3.9691 1.6823 1.4272 2.4736 3.1535 2.4736 5.4141 0 2.3581-0.96524 4.1154-2.9973 5.5655-2.0341 1.4515-4.7439 2.2148-8.1905 2.2148-3.4169 0-6.3334-0.82068-8.8152-2.4231-2.4136-1.5584-3.5526-3.8025-3.5526-7.1115v-0.77616h-0.77613-3.3444-0.56789l-0.15776 0.51747-0.0504 0.20816-0.0504 0.10106v0.10736c-0.10736 4.5101 1.681 8.087 5.2058 10.462 3.4671 2.3364 7.5046 3.5021 12.109 3.5021 4.657 0 8.5722-1.0767 11.648-3.3002 3.0893-2.233 4.6884-5.3459 4.6884-9.1244 0-3.6135-1.3427-6.642-4.0132-8.8657-2.6419-2.1997-6.442-3.8987-11.339-5.149-4.5317-1.138-7.6718-2.4859-9.3831-3.8681-1.7294-1.3968-2.524-2.9921-2.524-5.0481 0-2.1739 0.84202-3.9222 2.726-5.4141 1.8566-1.4702 4.5024-2.2653 7.9886-2.2653 3.5062 0.000026 6.1751 0.94203 8.1464 2.7323 1.9855 1.8033 2.9341 4.0277 2.9342 6.8528v0.72566h0.77613 3.3506 0.46697l0.20816-0.41646 0.10106-0.15776 0.10106-0.15146v-0.15146c0.0864-3.8925-1.4092-7.3112-4.3792-10.002-2.9849-2.7036-6.9438-4.0195-11.705-4.0195zm-36.838 0.0504v0.0052c-0.33364 0.01837-0.65922 0.17719-0.87079 0.46696l-2.5808 3.5463-0.34705 0.47326 0.0441 0.0504-1.3062 1.7984c-1.1091-0.12862-2.2347-0.15855-3.3696-0.06956l-3.9249-5.7233c-0.32805-0.47956-0.91571-0.62415-1.4261-0.41016l-4.3666 1.8236c-0.52948 0.22102-0.77568 0.76734-0.6941 1.2809l1.0664 6.6572c-1.0592 0.82021-2.0193 1.744-2.8522 2.7638l-6.8149-1.2746c-0.53954-0.1008-1.0837 0.19268-1.2936 0.70676l-1.7984 4.3855c-0.20396 0.49977-0.0105 1.0735 0.40385 1.3756v0.0053l5.6602 4.1205c-0.12311 1.1936-0.13939 2.4028-0.0131 3.622l-5.6286 3.8555c-0.44431 0.30371-0.62942 0.9045-0.41648 1.4135l1.8299 4.3666c0.20344 0.48678 0.72182 0.78451 1.2494 0.7004l6.8465-1.079c0.79541 0.97243 1.6853 1.8404 2.6502 2.6061l-1.2746 6.8401v0.01313 0.0053c-0.0157 0.09765 0.003 0.18926 0.0131 0.28395h-0.0131c-0.00018 0.07324 0.0157 0.14359 0.0315 0.21446v0.0052c0.0717 0.38154 0.32999 0.72017 0.69413 0.87079l4.3729 1.7731h0.005c0.47749 0.19425 1.0605 0.06142 1.3819-0.3786l2.5808-3.5463 0.34075-0.47324-0.0378-0.0441 1.3062-1.8047c1.1091 0.12862 2.2348 0.15855 3.3696 0.0693l3.9249 5.717 0.005 0.0053c0.32868 0.47502 0.91143 0.62328 1.4198 0.41016l4.3666-1.8299c0.5286-0.22102 0.77569-0.76112 0.69413-1.2746l-1.0664-6.6572c1.0578-0.81955 2.0202-1.7515 2.8522-2.7701l6.8149 1.2746c0.53955 0.1008 1.0837-0.19268 1.2936-0.70673l1.7984-4.3792c0.20397-0.49975 0.0105-1.0735-0.40385-1.3756v-0.0052l-5.6602-4.1268c0.12285-1.1918 0.13886-2.4047 0.0131-3.622l5.6286-3.8555c0.44441-0.30369 0.62961-0.89806 0.41646-1.4072l-1.8299-4.3666c-0.20291-0.48523-0.72975-0.78207-1.2557-0.70043l-6.8464 1.0727c-0.79365-0.96946-1.6817-1.836-2.644-2.5997l1.2746-6.8464v-0.01313l0.005-0.0052c0.0157-0.09686-0.0105-0.18322-0.0184-0.27765h0.0131c0.00013-0.07324-0.0184-0.14332-0.0315-0.21446v-0.0053c-0.0717-0.38144-0.3297-0.72022-0.6941-0.87079l-4.3729-1.7795c-0.11812-0.04804-0.24649-0.08059-0.37228-0.0882-0.0478-0.0026-0.0974-0.0025-0.14516 0zm-7.2188 10.923c0.12731-0.0022 0.25777-0.001 0.3849 0v0.0053c0.38168 0.0026 0.76902 0.02756 1.1484 0.063l0.11366 0.0053c0.26171 0.01837 0.52923 0.06772 0.84557 0.11366 0.26846 0.03911 0.55035 0.0987 0.85186 0.16406 0.12731 0.02625 0.24281 0.05014 0.34705 0.0756 0.0911 0.02363 0.18087 0.0504 0.27132 0.07586h0.005c0.14569 0.03911 0.28831 0.07901 0.44171 0.12626 0.11209 0.03491 0.22969 0.07901 0.36598 0.12626h0.005c0.14411 0.04935 0.30177 0.1176 0.48589 0.18926 0.14043 0.0546 0.23625 0.08111 0.28394 0.10106 0.83171 0.34458 1.6346 0.78309 2.3726 1.2872 0.25751 0.17614 0.48901 0.34731 0.72565 0.53637 0.0625 0.04935 0.10658 0.07613 0.11367 0.0819 0.0808 0.06589 0.18558 0.16432 0.32182 0.28395l0.005 0.0053c0.11288 0.09949 0.19924 0.17115 0.25253 0.22076h0.005v0.0053c1.3106 1.2111 2.388 2.7168 3.1235 4.4738 2.7375 6.5406-0.33749 14.054-6.878 16.791-2.0672 0.86528-4.2552 1.1794-6.3732 1.0159h-0.0263-0.0131c-0.053-0.0105-0.11366-0.01838-0.11366-0.01838s-0.021-0.000289-0.0315 0c-4.5956-0.38776-8.7784-3.3827-10.696-7.9634-2.7375-6.5406 0.33744-14.047 6.878-16.785 1.5273-0.63921 3.1516-0.9555 4.7768-0.98438z" style="fill-opacity:.23529"/>
   <path id="path4145" style="fill-opacity:.23529" d="m90.131 40.015c-4.5593 0.000052-8.3645 1.0791-11.339 3.3507-2.9766 2.2731-4.5307 5.331-4.5307 8.9667-0.00005 3.5366 1.3816 6.5087 4.07 8.607 2.6525 2.0703 6.467 3.6986 11.44 4.9471 4.489 1.1782 7.6126 2.5529 9.2822 3.9691 1.6823 1.4272 2.4736 3.1535 2.4736 5.4141 0 2.3581-0.96524 4.1154-2.9973 5.5655-2.0341 1.4515-4.7439 2.2148-8.1905 2.2148-3.4169 0-6.3334-0.82068-8.8152-2.4231-2.4136-1.5584-3.5526-3.8025-3.5526-7.1115v-0.77616h-0.77613-3.3444-0.56789l-0.15776 0.51747-0.0504 0.20816-0.0504 0.10106v0.10736c-0.10736 4.5101 1.681 8.087 5.2058 10.462 3.4671 2.3364 7.5046 3.5021 12.109 3.5021 4.657 0 8.5722-1.0767 11.648-3.3002 3.0893-2.233 4.6884-5.3459 4.6884-9.1244 0-3.6135-1.3427-6.642-4.0132-8.8657-2.6419-2.1997-6.442-3.8987-11.339-5.149-4.5317-1.138-7.6718-2.4859-9.3831-3.8681-1.7294-1.3968-2.524-2.9921-2.524-5.0481 0-2.1739 0.84202-3.9222 2.726-5.4141 1.8566-1.4702 4.5024-2.2653 7.9886-2.2653 3.5062 0.000026 6.1751 0.94203 8.1464 2.7323 1.9855 1.8033 2.9341 4.0277 2.9342 6.8528v0.72566h0.77613 3.3506 0.46697l0.20816-0.41646 0.10106-0.15776 0.10106-0.15146v-0.15146c0.0864-3.8925-1.4092-7.3112-4.3792-10.002-2.9849-2.7036-6.9438-4.0195-11.705-4.0195zm-36.838 0.0504v0.0053c-0.33364 0.01837-0.65922 0.17719-0.87079 0.46696l-2.5808 3.5463-0.34705 0.47326 0.0441 0.0504-1.3062 1.7984c-1.1091-0.12862-2.2347-0.15855-3.3696-0.06956l-3.9249-5.7233c-0.32805-0.47956-0.91571-0.62415-1.4261-0.41016l-4.3666 1.8236c-0.52948 0.22102-0.77568 0.76734-0.6941 1.2809l1.0664 6.6572c-1.0592 0.82021-2.0193 1.744-2.8522 2.7638l-6.8149-1.2746c-0.53954-0.1008-1.0837 0.19268-1.2936 0.70676l-1.7984 4.3855c-0.20396 0.49977-0.0105 1.0735 0.40385 1.3756v0.0053l5.6602 4.1205c-0.12311 1.1936-0.13939 2.4028-0.0131 3.622l-5.6286 3.8555c-0.44431 0.30371-0.62942 0.9045-0.41648 1.4135l1.8299 4.3666c0.20344 0.48678 0.72182 0.78451 1.2494 0.7004l6.8465-1.079c0.79541 0.97243 1.6853 1.8404 2.6502 2.6061l-1.2746 6.8401v0.01313 0.0052c-0.0157 0.09765 0.003 0.18926 0.0131 0.28395h-0.0131c-0.00018 0.07324 0.0157 0.14359 0.0315 0.21446v0.0052c0.0717 0.38154 0.32999 0.72017 0.69413 0.87079l4.3729 1.7731h0.005c0.47749 0.19425 1.0605 0.06142 1.3819-0.3786l2.5808-3.5463 0.34075-0.47324-0.0378-0.0441 1.3062-1.8047c1.1091 0.12862 2.2348 0.15855 3.3696 0.0693l3.9249 5.717 0.005 0.0053c0.32868 0.47502 0.91143 0.62328 1.4198 0.41016l4.3666-1.8299c0.5286-0.22102 0.77569-0.76112 0.69413-1.2746l-1.0664-6.6572c1.0578-0.81955 2.0202-1.7515 2.8522-2.7701l6.8149 1.2746c0.53955 0.1008 1.0837-0.19268 1.2936-0.70673l1.7984-4.3792c0.20397-0.49975 0.0105-1.0735-0.40385-1.3756v-0.0053l-5.6602-4.1268c0.12285-1.1918 0.13886-2.4047 0.0131-3.622l5.6286-3.8555c0.44441-0.30369 0.62961-0.89806 0.41646-1.4072l-1.8299-4.3666c-0.20291-0.48523-0.72975-0.78207-1.2557-0.70043l-6.8464 1.0727c-0.79365-0.96946-1.6817-1.836-2.644-2.5997l1.2746-6.8464v-0.01312l0.005-0.0053c0.0157-0.09686-0.0105-0.18322-0.0184-0.27765h0.0131c0.00013-0.07324-0.0184-0.14332-0.0315-0.21446v-0.0052c-0.0717-0.38144-0.3297-0.72022-0.6941-0.87079l-4.3729-1.7795c-0.11812-0.04804-0.24649-0.08059-0.37228-0.0882-0.0478-0.0026-0.0974-0.0025-0.14516 0zm-7.2188 10.923c0.12731-0.0022 0.25777-0.001 0.3849 0v0.0053c0.38168 0.0026 0.76902 0.02756 1.1484 0.063l0.11366 0.0053c0.26171 0.01837 0.52923 0.06772 0.84557 0.11366 0.26846 0.03911 0.55035 0.0987 0.85186 0.16406 0.12731 0.02625 0.24281 0.05014 0.34705 0.0756 0.0911 0.02362 0.18087 0.0504 0.27132 0.07586h0.005c0.14569 0.03911 0.28831 0.07901 0.44171 0.12626 0.11209 0.03491 0.22969 0.07901 0.36598 0.12626h0.005c0.14411 0.04935 0.30177 0.1176 0.48589 0.18926 0.14043 0.0546 0.23625 0.08111 0.28394 0.10106 0.83171 0.34458 1.6346 0.78309 2.3726 1.2872 0.25751 0.17614 0.48901 0.34731 0.72565 0.53637 0.0625 0.04935 0.10658 0.07613 0.11367 0.0819 0.0808 0.06589 0.18558 0.16432 0.32182 0.28395l0.005 0.0053c0.11288 0.09949 0.19924 0.17115 0.25253 0.22076h0.005v0.0053c1.3106 1.2111 2.388 2.7168 3.1235 4.4738 2.7375 6.5406-0.33749 14.054-6.878 16.791-2.0672 0.86528-4.2552 1.1794-6.3732 1.0159h-0.0263-0.0131c-0.053-0.0105-0.11366-0.01837-0.11366-0.01837s-0.021-0.000289-0.0315 0c-4.5956-0.38776-8.7784-3.3827-10.696-7.9634-2.7375-6.5406 0.33744-14.047 6.878-16.785 1.5273-0.63921 3.1516-0.9555 4.7768-0.98437z"/>
   <path id="path3088-4" d="m90.131 38.965c-4.5593 0.000053-8.3645 1.0791-11.339 3.3507-2.9766 2.2731-4.5307 5.331-4.5307 8.9667-0.00005 3.5366 1.3816 6.5087 4.07 8.607 2.6525 2.0703 6.467 3.6986 11.44 4.9471 4.489 1.1782 7.6126 2.5529 9.2822 3.9691 1.6823 1.4272 2.4736 3.1535 2.4736 5.4141 0 2.3581-0.96524 4.1154-2.9973 5.5655-2.0341 1.4515-4.7439 2.2148-8.1905 2.2148-3.4169 0-6.3334-0.82068-8.8152-2.4231-2.4136-1.5584-3.5526-3.8025-3.5526-7.1115v-0.77616h-0.77613-3.3444-0.56789l-0.15776 0.51747-0.0504 0.20816-0.0504 0.10106v0.10736c-0.10736 4.5101 1.681 8.087 5.2058 10.462 3.4671 2.3364 7.5046 3.5021 12.109 3.5021 4.657 0 8.5722-1.0767 11.648-3.3002 3.0893-2.233 4.6884-5.3459 4.6884-9.1244 0-3.6135-1.3427-6.642-4.0132-8.8657-2.6419-2.1997-6.442-3.8987-11.339-5.149-4.5317-1.138-7.6718-2.4859-9.3831-3.8681-1.7294-1.3968-2.524-2.9921-2.524-5.0481 0-2.1739 0.84202-3.9222 2.726-5.4141 1.8566-1.4702 4.5024-2.2653 7.9886-2.2653 3.5062 0.000026 6.1751 0.94203 8.1464 2.7323 1.9855 1.8033 2.9341 4.0277 2.9342 6.8528v0.72565h0.77613 3.3506 0.46697l0.20816-0.41646 0.10106-0.15776 0.10106-0.15146v-0.15146c0.0864-3.8925-1.4092-7.3112-4.3792-10.002-2.9849-2.7036-6.9438-4.0195-11.705-4.0195zm-36.838 0.0504v0.0052c-0.33364 0.01837-0.65922 0.17719-0.87079 0.46696l-2.5808 3.5463-0.34705 0.47326 0.0441 0.0504-1.3062 1.7984c-1.1091-0.12862-2.2347-0.15855-3.3696-0.06956l-3.9249-5.7233c-0.32805-0.47956-0.91571-0.62415-1.4261-0.41016l-4.3666 1.8236c-0.52948 0.22102-0.77568 0.76734-0.6941 1.2809l1.0664 6.6572c-1.0592 0.82021-2.0193 1.744-2.8522 2.7638l-6.8149-1.2746c-0.53954-0.1008-1.0837 0.19268-1.2936 0.70675l-1.7984 4.3855c-0.20396 0.49977-0.0105 1.0735 0.40385 1.3756v0.0053l5.6602 4.1205c-0.12311 1.1936-0.13939 2.4028-0.0131 3.622l-5.6286 3.8555c-0.44431 0.30371-0.62942 0.9045-0.41648 1.4135l1.8299 4.3666c0.20344 0.48678 0.72182 0.78451 1.2494 0.7004l6.8465-1.079c0.79541 0.97243 1.6853 1.8404 2.6502 2.6061l-1.2746 6.8401v0.01313 0.0053c-0.0157 0.09765 0.003 0.18926 0.0131 0.28395h-0.0131c-0.00018 0.07324 0.0157 0.14359 0.0315 0.21446v0.0053c0.0717 0.38154 0.32999 0.72017 0.69413 0.87079l4.3729 1.7731h0.005c0.47749 0.19425 1.0605 0.06142 1.3819-0.3786l2.5808-3.5463 0.34075-0.47324-0.0378-0.0441 1.3062-1.8047c1.1091 0.12862 2.2348 0.15855 3.3696 0.0693l3.9249 5.717 0.005 0.0052c0.32868 0.47502 0.91143 0.62328 1.4198 0.41016l4.3666-1.8299c0.5286-0.22102 0.77569-0.76112 0.69413-1.2746l-1.0664-6.6572c1.0578-0.81955 2.0202-1.7515 2.8522-2.7701l6.8149 1.2746c0.53955 0.1008 1.0837-0.19268 1.2936-0.70673l1.7984-4.3792c0.20397-0.49975 0.0105-1.0735-0.40385-1.3756v-0.0052l-5.6602-4.1268c0.12285-1.1918 0.13886-2.4047 0.0131-3.622l5.6286-3.8555c0.44441-0.30369 0.62961-0.89806 0.41646-1.4072l-1.8299-4.3666c-0.20291-0.48523-0.72975-0.78207-1.2557-0.70043l-6.8464 1.0727c-0.79365-0.96946-1.6817-1.836-2.644-2.5997l1.2746-6.8464v-0.01313l0.005-0.0052c0.0157-0.09686-0.0105-0.18322-0.0184-0.27765h0.0131c0.00013-0.07324-0.0184-0.14332-0.0315-0.21446v-0.0053c-0.0717-0.38144-0.3297-0.72022-0.6941-0.87079l-4.3729-1.7795c-0.11812-0.04804-0.24649-0.08059-0.37228-0.0882-0.0478-0.0026-0.0974-0.0025-0.14516 0zm-7.2188 10.923c0.12731-0.0022 0.25777-0.001 0.3849 0v0.0053c0.38168 0.0026 0.76902 0.02756 1.1484 0.063l0.11366 0.0052c0.26171 0.01838 0.52923 0.06773 0.84557 0.11366 0.26846 0.03911 0.55035 0.0987 0.85186 0.16406 0.12731 0.02625 0.24281 0.05014 0.34705 0.0756 0.0911 0.02362 0.18087 0.0504 0.27132 0.07586h0.005c0.14569 0.03911 0.28831 0.07901 0.44171 0.12626 0.11209 0.03491 0.22969 0.07901 0.36598 0.12626h0.005c0.14411 0.04935 0.30177 0.1176 0.48589 0.18926 0.14043 0.0546 0.23625 0.08111 0.28394 0.10106 0.83171 0.34458 1.6346 0.78309 2.3726 1.2872 0.25751 0.17614 0.48901 0.34731 0.72565 0.53637 0.0625 0.04935 0.10658 0.07613 0.11367 0.0819 0.0808 0.06589 0.18558 0.16432 0.32182 0.28395l0.005 0.0052c0.11288 0.09949 0.19924 0.17115 0.25253 0.22076h0.005v0.0053c1.3106 1.2111 2.388 2.7168 3.1235 4.4738 2.7375 6.5406-0.33749 14.054-6.878 16.791-2.0672 0.86528-4.2552 1.1794-6.3732 1.0159h-0.0263-0.0131c-0.053-0.0105-0.11366-0.01837-0.11366-0.01837s-0.021-0.000288-0.0315 0c-4.5956-0.38776-8.7784-3.3827-10.696-7.9634-2.7375-6.5406 0.33744-14.047 6.878-16.785 1.5273-0.63921 3.1516-0.9555 4.7768-0.98438z" style="fill:url(#linearGradient5956)"/>
   <path id="path4153" style="fill:#0b7ad7;fill-opacity:.31373" d="m58.688 41.34-1.0562 5.6755c0.11745 0.09324 0.22318 0.20107 0.33838 0.29736l0.93823-5.0449v-0.01549l0.005-0.0052c0.0157-0.09686-0.0126-0.18244-0.0205-0.27686h0.0155c0.00013-0.07324-0.0176-0.14419-0.0308-0.21533v-0.0052c-0.02781-0.14968-0.10872-0.2824-0.18941-0.41016zm-24.035 0.06153c-0.16902 0.25163-0.24785 0.55468-0.19994 0.8562l0.76904 4.8142c0.10206-0.08253 0.19336-0.1758 0.29736-0.25636l-0.86645-5.4141zm55.479 0.05127c-3.4862 0.000026-6.1312 0.79596-7.9878 2.2661-1.8839 1.4919-2.7275 3.2402-2.7275 5.4141 0 0.3693 0.0607 0.70481 0.1128 1.0459 0.24145-1.6905 1.0495-3.1236 2.6147-4.363 1.8566-1.4702 4.5016-2.2661 7.9878-2.2661 3.5062 0.000026 6.1755 0.94244 8.1467 2.7327 1.9855 1.8033 2.9326 4.0297 2.9326 6.8547v0.72803h0.7793 3.3479 0.46656l0.21021-0.42041 0.10253-0.1538 0.0974-0.1538v-0.1538c0.0136-0.61588-0.0272-1.2135-0.0923-1.8047l-0.005 0.01024-0.10253 0.15894-0.21021 0.41529h-0.46656-3.3479-0.77929v-0.72803c-0.00006-2.8251-0.94715-5.0463-2.9326-6.8496-1.9712-1.7902-4.6406-2.7326-8.1467-2.7327zm-44.061 6.3831c-1.6252 0.02888-3.251 0.34516-4.7783 0.98438-5.2565 2.2001-8.2162 7.4798-7.7776 12.864 0.38839-4.6098 3.2104-8.855 7.7776-10.767 1.5273-0.63921 3.1531-0.9555 4.7783-0.98438l0.005 0.0053c0.12731-0.0022 0.25738-0.001 0.38452 0v0.0053c0.38167 0.0026 0.76902 0.02599 1.1484 0.06153l0.11279 0.0053c0.26171 0.01837 0.52961 0.06686 0.84595 0.1128 0.26846 0.03911 0.54957 0.0987 0.85107 0.16406 0.12732 0.02625 0.24439 0.05145 0.34863 0.07691 0.0911 0.02362 0.18129 0.05145 0.27173 0.07691h0.005c0.14569 0.03911 0.28752 0.08093 0.44092 0.12818 0.11209 0.03491 0.22772 0.07578 0.36402 0.12303h0.005c0.14411 0.04935 0.30294 0.11805 0.48706 0.18971 0.14043 0.0546 0.23428 0.08258 0.28198 0.10253 0.8317 0.34458 1.6358 0.78271 2.3738 1.2869 0.25751 0.17614 0.49138 0.34928 0.72802 0.53833 0.0625 0.04935 0.10571 0.07626 0.1128 0.08203 0.0808 0.06589 0.18677 0.16236 0.323 0.28198l0.005 0.0053c0.11287 0.09949 0.19792 0.17084 0.25121 0.22045h0.005v0.0053c1.3106 1.2111 2.3868 2.7188 3.1223 4.4758 0.53844 1.2864 0.79065 2.6093 0.89722 3.9272 0.16973-1.9958-0.0699-4.0525-0.89722-6.0293-0.73547-1.757-1.8118-3.2647-3.1223-4.4758v-0.0053h-0.005c-0.0533-0.04961-0.13834-0.12096-0.25121-0.22045l-0.005-0.0053c-0.13624-0.11962-0.24216-0.21609-0.323-0.28198-0.007-0.0058-0.0503-0.03268-0.1128-0.08203-0.23664-0.18905-0.47051-0.36219-0.72802-0.53833-0.73802-0.50416-1.5421-0.94228-2.3738-1.2869-0.0477-0.01995-0.14154-0.04281-0.28198-0.09741-0.18412-0.07166-0.34295-0.14036-0.48706-0.18971h-0.005c-0.13629-0.04725-0.25193-0.09327-0.36402-0.12818-0.1534-0.04725-0.29523-0.08907-0.44092-0.12818h-0.005c-0.0905-0.02546-0.18065-0.04814-0.27173-0.07177-0.10423-0.02546-0.22131-0.05066-0.34863-0.07691-0.3015-0.06536-0.58261-0.12495-0.85107-0.16406-0.31634-0.04594-0.58424-0.09442-0.84595-0.1128l-0.11279-0.0053c-0.37942-0.03544-0.76677-0.06402-1.1484-0.06665v-0.0053c-0.12713-0.001-0.25722-0.0022-0.38452 0h-0.005zm28.244 2.4609c-0.0264 0.32556-0.0513 0.6488-0.0513 0.98438-0.00005 3.5366 1.3773 6.5099 4.0657 8.6082 2.6525 2.0703 6.4701 3.6991 11.443 4.9475 4.489 1.1782 7.6103 2.5521 9.2798 3.9683 1.3858 1.1756 2.1363 2.5732 2.3686 4.2861 0.0418-0.32079 0.10768-0.62843 0.10768-0.97412 0-2.2606-0.79398-3.9868-2.4763-5.4141-1.6695-1.4162-4.7908-2.7901-9.2798-3.9683-4.9732-1.2484-8.7909-2.8772-11.443-4.9475-2.4002-1.8733-3.7507-4.4443-4.0144-7.4905zm-51.218 4.3784-0.33838 0.82031c-0.20397 0.49977-0.009 1.0719 0.40503 1.374v0.0053l5.5679 4.0554c-0.005-0.68135 0.0228-1.363 0.0923-2.0354l-5.6602-4.1169v-0.0053c-0.0324-0.02362-0.037-0.07061-0.0667-0.09741zm46.783 0.25121c-0.0314 0.02704-0.0525 0.06347-0.0872 0.08715l-5.6294 3.8555c0.0709 0.68651 0.0848 1.3701 0.0718 2.0508l5.5576-3.8042c0.44442-0.30369 0.62844-0.90082 0.41529-1.4099l-0.32813-0.7793zm-5.6858 6.7266c-0.0165 0.27968-0.0176 0.56322-0.0462 0.84082l0.0923 0.06665c-0.002-0.30176-0.0277-0.60451-0.0461-0.90747zm-35.417 0.18456c-0.0144 0.24454-0.0364 0.48746-0.041 0.73316l0.0718-0.05127c-0.0236-0.22835-0.0168-0.45427-0.0308-0.68188zm-5.6909 6.7266c-0.36953 0.3209-0.51884 0.85463-0.323 1.3228l1.8303 4.3682c0.20343 0.48678 0.7234 0.7865 1.251 0.70239l6.8445-1.0818c0.6987 0.8542 1.4809 1.6127 2.3123 2.3071l0.33838-1.7996c-0.9649-0.76563-1.8552-1.6372-2.6506-2.6096l-6.8445 1.0818c-0.52757 0.08412-1.0475-0.2156-1.251-0.70238l-1.5073-3.5889zm46.789 0.25636-1.4612 3.5581c-0.20989 0.51405-0.75244 0.80832-1.292 0.70752l-6.8137-1.2766c-0.83194 1.0186-1.7928 1.9541-2.8506 2.7737l0.29736 1.8406c0.93647-0.75864 1.8031-1.5938 2.5532-2.5122l6.8137 1.2766c0.53955 0.1008 1.0821-0.19346 1.292-0.70752l1.7996-4.3784c0.18801-0.46064 0.0108-0.96603-0.33837-1.2817zm3.2197 3.5017-0.0205 0.0923-0.0513 0.10253v0.10768c-0.10736 4.5101 1.6841 8.0838 5.209 10.459 3.4671 2.3364 7.5054 3.5017 12.11 3.5017 4.657 0 8.5722-1.0732 11.648-3.2966 3.0893-2.233 4.686-5.3475 4.686-9.126 0-0.26542-0.0573-0.5049-0.0718-0.76392-0.33726 3.18-1.8968 5.8236-4.6143 7.7878-3.0762 2.2235-6.9914 3.3018-11.648 3.3018-4.6045 0-8.6428-1.1654-12.11-3.5017-3.0408-2.049-4.7833-4.9992-5.1372-8.6645zm-28.352 5.8191-1.3074 1.8047 0.0359 0.04615-0.33838 0.47168-2.584 3.5479c-0.32141 0.44003-0.90167 0.56852-1.3792 0.37427h-0.005l-4.3733-1.7688c-0.22286-0.09219-0.38251-0.26677-0.50756-0.46655l-0.22045 1.1741v0.01024 0.0053c-0.0157 0.09765 0.005 0.18729 0.0155 0.28198h-0.0155c-0.00019 0.07324 0.0202 0.14445 0.0359 0.21533v0.0053c0.0717 0.38154 0.328 0.72096 0.69214 0.87158l4.3733 1.7739h0.005c0.47749 0.19425 1.0578 0.06064 1.3792-0.37939l2.584-3.5479 0.33837-0.47168-0.0359-0.04103 1.3074-1.8047c1.1091 0.12862 2.2336 0.1559 3.3684 0.06665l3.9221 5.7166 0.0102 0.0053c0.32867 0.47502 0.90671 0.62328 1.415 0.41016l4.3682-1.8303c0.5286-0.22102 0.77882-0.75796 0.69727-1.2715l-0.19995-1.251c-0.1191 0.17787-0.27707 0.33344-0.49731 0.42554l-4.3682 1.8303c-0.50833 0.21312-1.0864 0.06486-1.415-0.41016l-0.0102-0.0052-3.9221-5.7166c-1.1348 0.08925-2.2593 0.05686-3.3684-0.07177z"/>
   <path id="path4158" style="fill:#f9f9f9;fill-opacity:.23529" d="m90.131 38.966c-4.5593 0.00005-8.366 1.0763-11.341 3.3479-2.9766 2.2731-4.5272 5.3314-4.5271 8.967-0.00001 0.18968 0.0176 0.37244 0.0257 0.55884 0.136-3.4174 1.6617-6.3062 4.5015-8.4748 2.9748-2.2716 6.7815-3.353 11.341-3.353v0.0052c4.7614 0.000052 8.72 1.316 11.705 4.0195 2.7486 2.4898 4.215 5.6058 4.3528 9.1414l0.0257-0.04103v-0.1538c0.0864-3.8925-1.4084-7.3072-4.3784-9.9976-2.9849-2.7036-6.9434-4.0195-11.705-4.0195zm-36.842 0.04615 0.005 0.0052v0.0053c-0.33363 0.01837-0.66 0.17677-0.87158 0.46655l-2.584 3.5427-0.34351 0.4768 0.041 0.04615-1.3022 1.7996c-1.1091-0.12862-2.2387-0.15564-3.3735-0.06665l-3.9222-5.7271c-0.32805-0.47956-0.91491-0.62415-1.4253-0.41016l-4.3682 1.8252c-0.52949 0.22102-0.77372 0.76813-0.69214 1.2817l0.082 0.51782c0.0935-0.31801 0.26785-0.60566 0.61011-0.74853l4.3682-1.8252c0.51039-0.21399 1.0972-0.0694 1.4253 0.41016l3.9221 5.7217c1.1349-0.08899 2.2644-0.05686 3.3735 0.07177l1.3022-1.7996-0.041-0.05127 0.3435-0.47168 2.584-3.5478c0.21157-0.28977 0.53794-0.44818 0.87158-0.46656v-0.0052c0.0463-0.0023 0.0974-0.0025 0.14356 0 0.12579 0.0076 0.251 0.03911 0.36914 0.08715l4.3733 1.7791c0.32667 0.13498 0.54792 0.43129 0.64599 0.76391l0.082-0.42554v-0.01549l0.005-0.0052c0.0157-0.09686-0.0126-0.18244-0.0205-0.27686h0.0155c0.00013-0.07324-0.0176-0.14419-0.0308-0.21533v-0.0053c-0.0717-0.38144-0.33286-0.72101-0.69726-0.87158l-4.3733-1.7791c-0.11813-0.04804-0.24334-0.07954-0.36914-0.08715-0.0478-0.0026-0.10091-0.0025-0.14868 0zm-17.919 10.028c-0.99787 0.78959-1.9151 1.6655-2.707 2.6353l-6.8137-1.2715c-0.53954-0.1008-1.0821 0.19344-1.292 0.70752l-1.7996 4.3835c-0.12403 0.30392-0.0687 0.61632 0.0615 0.89722l1.738-4.2349c0.20987-0.51408 0.75245-0.80319 1.292-0.70239l6.8137 1.2715c0.83286-1.0198 1.7965-1.9432 2.8557-2.7634l-0.14868-0.92285zm22.43 0.22045-0.16918 0.90234c0.96222 0.7638 1.8519 1.6299 2.6455 2.5994l6.8445-1.0715c0.52597-0.08164 1.0532 0.21202 1.2561 0.69726l1.7893 4.2656c0.13902-0.2907 0.17251-0.63444 0.041-0.94849l-1.8303-4.363c-0.20292-0.48523-0.73014-0.78403-1.2561-0.70239l-6.8445 1.0715c-0.7453-0.91041-1.5813-1.7217-2.4763-2.4507zm21.672 2.4968c-0.0121 0.17706-0.0564 0.33996-0.0564 0.52295 0 2.056 0.79309 3.6533 2.5225 5.05 1.7113 1.3822 4.8558 2.7277 9.3874 3.8657 4.8972 1.2503 8.6938 2.9529 11.336 5.1526 2.5718 2.1415 3.8829 5.042 3.9785 8.48 0.0115-0.22251 0.0359-0.43911 0.0359-0.6665 0-3.6135-1.3439-6.6408-4.0144-8.8645-2.6419-2.1997-6.4385-3.9022-11.336-5.1526-4.5317-1.138-7.6761-2.4835-9.3874-3.8657-1.5731-1.2706-2.3344-2.7256-2.4661-4.522zm-15.258 10.228-0.0513 0.03588c0.0432 0.41837 0.0504 0.83432 0.0615 1.251 0.0142-0.42774 0.007-0.85609-0.0102-1.2869zm-35.448 0.02047c-0.0228 0.45273-0.0328 0.90736-0.0205 1.3638 0.0147-0.44264 0.0317-0.88406 0.0769-1.3228l-0.0564-0.04103zm4.6963 1.2407c-0.0798 1.8301 0.1937 3.7029 0.94849 5.5063 1.9172 4.5806 6.1043 7.5744 10.7 7.9622 0.0105-0.000289 0.0308 0 0.0308 0s0.0598 0.01 0.1128 0.02047h0.0102 0.0308c2.118 0.16348 4.3056-0.14986 6.3728-1.0151 5.0793-2.1259 8.0237-7.1364 7.8237-12.33-0.21147 4.8071-3.0883 9.2973-7.8237 11.279-2.0672 0.86528-4.2548 1.1786-6.3728 1.0151h-0.0308-0.0102c-0.053-0.0105-0.1128-0.02048-0.1128-0.02048s-0.0202-0.000288-0.0308 0c-4.5956-0.38776-8.7827-3.3815-10.7-7.9622-0.61036-1.4583-0.89002-2.9645-0.94849-4.4553zm30.741 1.3843c-0.0168 0.33738-0.022 0.67559-0.0564 1.01l5.6602 4.1272v0.0052c0.16262 0.11857 0.25962 0.30057 0.34351 0.48193l0.0615-0.1538c0.20396-0.49975 0.009-1.077-0.40503-1.3792v-0.0052l-5.6038-4.0862zm-35.443 0.02047-5.5832 3.8247c-0.44431 0.30371-0.62823 0.90092-0.41529 1.4099l0.041 0.10253c0.0863-0.18249 0.20344-0.34978 0.37427-0.46656l5.6294-3.8555c-0.0352-0.33996-0.0323-0.67685-0.0461-1.0151zm44.522 7.0342-0.15895 0.51782-0.0513 0.21021-0.0513 0.10253v0.10768c-0.007 0.30381 0.0158 0.5917 0.0257 0.88696l0.0257-0.04615 0.0513-0.21021 0.15894-0.51782h0.56909 3.3428 0.77417v0.7793c0 3.3089 1.1393 5.5527 3.553 7.1111 2.4818 1.6024 5.4014 2.4199 8.8184 2.4199 3.4466 0 6.1537-0.76332 8.1877-2.2148 2.0321-1.4501 2.9993-3.2046 2.9993-5.5627 0-0.19932-0.044-0.37279-0.0564-0.56396-0.13169 2.105-1.0598 3.737-2.9429 5.0808-2.0341 1.4515-4.7411 2.2148-8.1877 2.2148-3.4169 0-6.3366-0.82264-8.8184-2.425-2.4136-1.5584-3.553-3.8022-3.553-7.1111v-0.7793h-0.77417-3.3428-0.56909zm-38.114 5.696-1.1074 5.9421v0.01024 0.0052c-0.0157 0.09765 0.005 0.18729 0.0155 0.28198h-0.0155c-0.00019 0.07324 0.0202 0.14445 0.0359 0.21533v0.0052c0.007 0.03583 0.0362 0.06245 0.0462 0.09741l1.1946-6.4087c-0.0587-0.04654-0.11109-0.10138-0.16918-0.14868zm22.436 0.22045c-0.0515 0.04079-0.0967 0.08794-0.14868 0.12818l0.97925 6.1216c0.0482-0.16934 0.11531-0.33549 0.0872-0.5127l-0.91773-5.7371z"/>
  </g>
 </g>
</svg>
