<?xml version="1.0" encoding="UTF-8" standalone="no"?>
<!-- Created with Inkscape (http://www.inkscape.org/) -->
<svg id="svg5453" xmlns:rdf="http://www.w3.org/1999/02/22-rdf-syntax-ns#" xmlns="http://www.w3.org/2000/svg" height="64" width="64" version="1.1" xmlns:cc="http://creativecommons.org/ns#" xmlns:xlink="http://www.w3.org/1999/xlink" xmlns:dc="http://purl.org/dc/elements/1.1/">
 <defs id="defs5455">
  <radialGradient id="radialGradient10754" gradientUnits="userSpaceOnUse" cy="45.647" cx="42.148" gradientTransform="matrix(.61708 -.029284 .027419 .57778 378.91 469.39)" r="58.984">
   <stop id="stop10770" style="stop-color:#89b6e1" offset="0"/>
   <stop id="stop10772" style="stop-color:#649ad6" offset="1"/>
  </radialGradient>
  <linearGradient id="linearGradient10757" y2="-9.1034" gradientUnits="userSpaceOnUse" x2="66.492" gradientTransform="matrix(.49210 0 0 .49742 385.17 -483.22)" y1="-42.638" x1="67.952">
   <stop id="stop4620" style="stop-color:#37414b" offset="0"/>
   <stop id="stop4622" style="stop-color:#37414b;stop-opacity:0" offset="1"/>
  </linearGradient>
  <linearGradient id="linearGradient10759" y2="-11.847" gradientUnits="userSpaceOnUse" x2="58.98" gradientTransform="matrix(.49210 0 0 .49742 385.17 -483.22)" y1="-118.55" x1="57.173">
   <stop id="stop4596" offset="0"/>
   <stop id="stop4598" style="stop-opacity:0" offset="1"/>
  </linearGradient>
  <linearGradient id="linearGradient10762" y2="50.369" gradientUnits="userSpaceOnUse" x2="76.558" gradientTransform="matrix(.49210 0 0 .49742 385.71 -548.91)" y1="13.164" x1="76.558">
   <stop id="stop3392" style="stop-color:#425e7b" offset="0"/>
   <stop id="stop3394" style="stop-color:#7a91a7" offset="1"/>
  </linearGradient>
  <linearGradient id="linearGradient10764" y2="-8.7399" gradientUnits="userSpaceOnUse" x2="60.217" gradientTransform="matrix(.49210 0 0 .49742 385.17 -483.22)" y1="-123.72" x1="60.395">
   <stop id="stop3392-4-8" style="stop-color:#425e7b" offset="0"/>
   <stop id="stop3394-8-0" style="stop-color:#7a91a7" offset="1"/>
  </linearGradient>
  <linearGradient id="linearGradient10784" y2="499.8" gradientUnits="userSpaceOnUse" x2="414.57" gradientTransform="matrix(1 0 0 .73190 0 134)" y1="541.8" x1="414.57">
   <stop id="stop4174-8" style="stop-color:#6298d5" offset="0"/>
   <stop id="stop4176-2" style="stop-color:#8ab7e1" offset="1"/>
  </linearGradient>
  <linearGradient id="linearGradient10787" y2="497.8" gradientUnits="userSpaceOnUse" x2="404.57" gradientTransform="matrix(.82366 0 0 1 79.52 -2.625)" y1="477.8" x1="384.57">
   <stop id="stop4235" style="stop-color:#345671" offset="0"/>
   <stop id="stop4237" style="stop-color:#345671;stop-opacity:0" offset="1"/>
  </linearGradient>
  <linearGradient id="linearGradient10790" y2="505.8" gradientUnits="userSpaceOnUse" x2="414.57" gradientTransform="matrix(1 0 0 .99954 0 -15.757)" y1="523.8" x1="414.57">
   <stop id="stop4234-5" style="stop-color:#3d6584" offset="0"/>
   <stop id="stop4236-4" style="stop-color:#4a7ba3" offset="1"/>
  </linearGradient>
 </defs>
 <metadata id="metadata5458">
  <rdf:RDF>
   <cc:Work rdf:about="">
    <dc:format>image/svg+xml</dc:format>
    <dc:type rdf:resource="http://purl.org/dc/dcmitype/StillImage"/>
    <dc:title/>
   </cc:Work>
  </rdf:RDF>
 </metadata>
 <g id="layer1" transform="translate(-384.57 -483.8)">
  <rect id="rect892-2-7-2" ry="14.957" style="stroke:#d3d3d3;stroke-width:5.0015;fill:#37414b" transform="scale(1,-1)" height="58.989" width="58.995" y="-545.3" x="387.07"/>
  <rect id="rect892" style="stroke:url(#linearGradient10764);stroke-width:.49475;fill:url(#linearGradient10762)" transform="scale(1,-1)" ry="14.878" height="58.676" width="58.048" y="-545.39" x="387.64"/>
  <rect id="rect892-2" style="stroke:url(#linearGradient10759);stroke-width:.49475;fill:url(#linearGradient10757)" transform="scale(1,-1)" ry="14.724" height="58.07" width="58.048" y="-544.99" x="387.65"/>
  <path id="rect895" style="fill:url(#radialGradient10754)" d="m400.86 486.99c-4.0503-1.2438-13.729 7.7065-13.038 11.7-0.0255 0.49454-0.0451 0.99781-0.0451 1.5018v26.621c0 10.602 5.4442 17.195 11.343 17.195h34.071c6.4231 0 12.359-5.7106 12.359-13.133v-32.511c0.35356-5.551-10.819-12.524-13.178-11.488-24.317 0.43952-9.1565 0.11361-31.511 0.11361z"/>
  <path id="rect4180-7" style="fill:url(#linearGradient10790)" d="m399.57 486.8c-11.787 4.2518-11.933 10.12-12 16l0.99999 14c0.0394 0.55233 0.446 1 1 1h54c0.55399 0 1-0.44626 1-1 0.40329-1.1593-1-17 1-17v-2c-0.58693-1.4928-1.2465-2.8404-2-4-3-4-7.313-5.9978-12-7h-17z"/>
  <path id="path4230" style="fill:url(#linearGradient10787);fill-rule:evenodd" d="m399.57 487.17 21.415 26 0.82366 1 23.886-16.743-3.125-4.6318-19.938-1.625-2.471-4z"/>
  <path id="rect4113-1" style="fill:url(#linearGradient10784)" d="m406.57 499.8-3 2.9286h-16v0.73214h0.002c-0.00005 0.003-0.002 0.006-0.002 0.009v26.349 0.73214h1 56 1v-0.73214-26.349-0.009-3.6607h-39z"/>
  <path id="path4151" style="fill:#2f6db0" d="m387.45 530.67v1h1 56 1v-1h-1-56-1z"/>
  <path id="path4224" style="fill-opacity:.23529;fill:#fff;fill-rule:evenodd" d="m387.57 503.8v1h17l2-5-3 4z"/>
  <path id="path4228" style="fill:#345671;fill-rule:evenodd" d="m387.57 502.7v1.1h16l3-4-5 2.9z"/>
  <rect id="rect892-2-7-8" style="opacity:.15891;stroke:#000;stroke-width:2.4612;fill:none" transform="scale(1,-1)" ry="14.724" height="58.07" width="58.048" y="-544.83" x="387.55"/>
  <rect id="rect892-2-7-2-9" ry="14.254" style="stroke:#000;stroke-width:.53286;fill:none" transform="scale(1,-1)" height="57.239" width="58.008" y="-544.4" x="387.65"/>
  <rect id="rect892-2-7-1" style="opacity:.15891;stroke:#000;stroke-width:3.9379;fill:none" transform="scale(1,-1)" ry="14.724" height="58.07" width="58.048" y="-544.83" x="387.55"/>
  <path id="path1187" style="fill:#fff;fill-opacity:.057143" d="m400.84 486.97c-12.048 0-13.227 0.34219-13.178 13.354-0.022 0.36343-0.039 0.73329-0.039 1.1037v16.637c9.4888-19.461 19.486-26.153 45.93-31.07-0.11421-0.0133-0.23371-0.0156-0.35102-0.0156-21.13 0.19676-13.037-0.01-32.362-0.01z"/>
  <path id="path3324" d="m422.64 508.8c-1.1324 0-2.0494 0.90684-2.0494 2.0248 0 1.1179 0.91695 2.0248 2.0494 2.0248s2.0494-0.90685 2.0494-2.0248c0-1.1179-0.91695-2.0248-2.0494-2.0248zm-4.328 1.5858c-1.2638 0.00016-2.5452 0.31531-3.6975 0.87788-0.041 0.0201-0.0665 0.0557-0.0788 0.0991-0.0125 0.0434-0.01 0.0892 0.0143 0.12744l1.6624 2.5982c0.0421 0.0661 0.1277 0.094 0.20064 0.0637 0.61528-0.25699 1.2538-0.3823 1.8989-0.3823 2.373 0 4.4432 1.7373 4.8153 4.0425 0.0125 0.0774 0.0785 0.13451 0.15764 0.13451h3.1242c0.0456 0 0.0912-0.0162 0.12181-0.0496 0.0307-0.0333 0.0473-0.0753 0.043-0.12036-0.1685-1.7104-0.90859-3.3664-2.078-4.6513-0.0528-0.0583-0.14109-0.0638-0.2078-0.0212-0.47155 0.30088-1.0066 0.46018-1.5478 0.46018-1.5789 0-2.8589-1.2673-2.8591-2.8177 0.00016-0.00085 0-0.054 0-0.0566 0-0.0772-0.0586-0.14955-0.13615-0.16283-0.49367-0.0845-0.97288-0.14159-1.4331-0.14159zm-5.0159 1.6991c-0.0216 0.005-0.0467 0.0146-0.0645 0.0283-1.3552 1.0312-2.3714 2.4815-2.8662 4.085-0.0194 0.0627-0.002 0.12911 0.0502 0.16991 0.68101 0.53294 1.0892 1.3533 1.0892 2.1947 0 0.84142-0.40799 1.6618-1.0892 2.1947-0.052 0.0406-0.0695 0.10709-0.0502 0.16992 0.49089 1.59 1.4992 3.0348 2.8376 4.0637 0.0359 0.0277 0.0769 0.0432 0.12181 0.0354 0.0447-0.008 0.0831-0.0402 0.10749-0.0779l1.6768-2.5912c0.0428-0.0662 0.0312-0.15332-0.0286-0.20531-1.0504-0.91315-1.6553-2.2225-1.6553-3.5894 0-1.3771 0.60816-2.69 1.6696-3.6035 0.0598-0.0516 0.0783-0.13875 0.0359-0.20531l-1.6624-2.5982c-0.0242-0.0379-0.0627-0.063-0.10748-0.0708-0.0224-0.004-0.0429-0.005-0.0645 0zm-4.6218 4.446c-1.1589 0-2.0995 0.9301-2.0995 2.0743s0.94059 2.0673 2.0995 2.0673 2.0995-0.92303 2.0995-2.0673c0-1.1442-0.94059-2.0743-2.0995-2.0743zm17.735 2.6761-3.1242 0.007c-0.0788 0.00017-0.15219 0.0578-0.16481 0.13452-0.37714 2.288-2.4417 4.0142-4.8081 4.0142-0.65266 0-1.2982-0.13315-1.9204-0.39646-0.0728-0.0306-0.15786-0.009-0.20064 0.0566l-1.6768 2.5982c-0.0244 0.038-0.0265 0.0839-0.0143 0.12743 0.0121 0.0434 0.038 0.079 0.0788 0.0991 1.1612 0.57438 2.4548 0.87787 3.7333 0.87787 0.47418 0 0.96922-0.0469 1.469-0.13451 0.0702-0.0122 0.12062-0.0647 0.12898-0.13451 0.16652-1.421 1.3828-2.492 2.8304-2.492 0.44877 0 0.91064 0.11191 1.3256 0.32566 0.0631 0.0325 0.13632 0.0221 0.18631-0.0283 1.3088-1.3186 2.1361-3.0572 2.3217-4.885 0.005-0.0449-0.0122-0.0868-0.043-0.12035-0.0308-0.0335-0.0763-0.0497-0.12182-0.0496zm-3.6903 5.4726c-1.1589 0-2.0995 0.92185-2.0995 2.0602 0 1.1383 0.94059 2.0602 2.0995 2.0602s2.0995-0.92185 2.0995-2.0602c0-1.1383-0.94059-2.0602-2.0995-2.0602z" style="opacity:.9;fill:#4185ce"/>
 </g>
</svg>
