<?xml version="1.0" encoding="UTF-8" standalone="no"?>
<!-- Created with Inkscape (http://www.inkscape.org/) -->
<svg id="svg5453" xmlns:rdf="http://www.w3.org/1999/02/22-rdf-syntax-ns#" xmlns="http://www.w3.org/2000/svg" height="64" width="64" version="1.1" xmlns:cc="http://creativecommons.org/ns#" xmlns:xlink="http://www.w3.org/1999/xlink" xmlns:dc="http://purl.org/dc/elements/1.1/">
 <defs id="defs5455">
  <radialGradient id="radialGradient10754" gradientUnits="userSpaceOnUse" cy="45.647" cx="42.148" gradientTransform="matrix(.61708 -.029284 .027419 .57778 378.91 469.39)" r="58.984">
   <stop id="stop10770" style="stop-color:#89b6e1" offset="0"/>
   <stop id="stop10772" style="stop-color:#649ad6" offset="1"/>
  </radialGradient>
  <linearGradient id="linearGradient10757" y2="-9.1034" gradientUnits="userSpaceOnUse" x2="66.492" gradientTransform="matrix(.49210 0 0 .49742 385.17 -483.22)" y1="-42.638" x1="67.952">
   <stop id="stop4620" style="stop-color:#37414b" offset="0"/>
   <stop id="stop4622" style="stop-color:#37414b;stop-opacity:0" offset="1"/>
  </linearGradient>
  <linearGradient id="linearGradient10759" y2="-11.847" gradientUnits="userSpaceOnUse" x2="58.98" gradientTransform="matrix(.49210 0 0 .49742 385.17 -483.22)" y1="-118.55" x1="57.173">
   <stop id="stop4596" offset="0"/>
   <stop id="stop4598" style="stop-opacity:0" offset="1"/>
  </linearGradient>
  <linearGradient id="linearGradient10762" y2="50.369" gradientUnits="userSpaceOnUse" x2="76.558" gradientTransform="matrix(.49210 0 0 .49742 385.71 -548.91)" y1="13.164" x1="76.558">
   <stop id="stop3392" style="stop-color:#425e7b" offset="0"/>
   <stop id="stop3394" style="stop-color:#7a91a7" offset="1"/>
  </linearGradient>
  <linearGradient id="linearGradient10764" y2="-8.7399" gradientUnits="userSpaceOnUse" x2="60.217" gradientTransform="matrix(.49210 0 0 .49742 385.17 -483.22)" y1="-123.72" x1="60.395">
   <stop id="stop3392-4-8" style="stop-color:#425e7b" offset="0"/>
   <stop id="stop3394-8-0" style="stop-color:#7a91a7" offset="1"/>
  </linearGradient>
  <linearGradient id="linearGradient10784" y2="499.8" gradientUnits="userSpaceOnUse" x2="414.57" gradientTransform="matrix(1 0 0 .73190 0 134)" y1="541.8" x1="414.57">
   <stop id="stop4174-8" style="stop-color:#6298d5" offset="0"/>
   <stop id="stop4176-2" style="stop-color:#8ab7e1" offset="1"/>
  </linearGradient>
  <linearGradient id="linearGradient10787" y2="497.8" gradientUnits="userSpaceOnUse" x2="404.57" gradientTransform="matrix(.82366 0 0 1 79.52 -2.625)" y1="477.8" x1="384.57">
   <stop id="stop4235" style="stop-color:#345671" offset="0"/>
   <stop id="stop4237" style="stop-color:#345671;stop-opacity:0" offset="1"/>
  </linearGradient>
  <linearGradient id="linearGradient10790" y2="505.8" gradientUnits="userSpaceOnUse" x2="414.57" gradientTransform="matrix(1 0 0 .99954 0 -15.757)" y1="523.8" x1="414.57">
   <stop id="stop4234-5" style="stop-color:#3d6584" offset="0"/>
   <stop id="stop4236-4" style="stop-color:#4a7ba3" offset="1"/>
  </linearGradient>
  <linearGradient id="linearGradient4063" y2="80" xlink:href="#linearGradient4057" gradientUnits="userSpaceOnUse" x2="43" gradientTransform="translate(2)" y1="12" x1="43"/>
  <linearGradient id="linearGradient4057">
   <stop id="stop4059" style="stop-color:#ffa800" offset="0"/>
   <stop id="stop4061" style="stop-color:#ffa800;stop-opacity:0" offset="1"/>
  </linearGradient>
  <linearGradient id="linearGradient4076" y2="13" xlink:href="#linearGradient4057" gradientUnits="userSpaceOnUse" x2="30" gradientTransform="translate(2)" y1="46" x1="30"/>
  <linearGradient id="linearGradient3968" y2="74" gradientUnits="userSpaceOnUse" x2="46" gradientTransform="translate(2)" y1="12" x1="46">
   <stop id="stop3181" style="stop-opacity:.56911" offset="0"/>
   <stop id="stop3187" style="stop-opacity:0" offset=".070175"/>
   <stop id="stop3194" style="stop-color:#750202;stop-opacity:.090196" offset=".20272"/>
   <stop id="stop3200" style="stop-color:#e47b04;stop-opacity:.13725" offset=".26649"/>
   <stop id="stop3190" style="stop-color:#ffc906;stop-opacity:.18431" offset=".35025"/>
   <stop id="stop3198" style="stop-color:#b76403;stop-opacity:.13725" offset="0.439"/>
   <stop id="stop3192" style="stop-color:#700000;stop-opacity:.090196" offset=".49777"/>
   <stop id="stop3196" style="stop-color:#fda100;stop-opacity:.19216" offset=".65896"/>
   <stop id="stop3183" style="stop-color:#7c0000;stop-opacity:.60976" offset="1"/>
  </linearGradient>
  <linearGradient id="linearGradient3948" y2="21.848" xlink:href="#linearGradient3942" gradientUnits="userSpaceOnUse" x2="44.748" y1="33.312" x1="45.087"/>
  <linearGradient id="linearGradient3942">
   <stop id="stop3944" style="stop-color:#ffa800" offset="0"/>
   <stop id="stop3946" style="stop-color:#ffcf0e" offset="1"/>
  </linearGradient>
 </defs>
 <metadata id="metadata5458">
  <rdf:RDF>
   <cc:Work rdf:about="">
    <dc:format>image/svg+xml</dc:format>
    <dc:type rdf:resource="http://purl.org/dc/dcmitype/StillImage"/>
    <dc:title/>
   </cc:Work>
  </rdf:RDF>
 </metadata>
 <g id="layer1" transform="translate(-384.57 -483.8)">
  <rect id="rect892-2-7-2" ry="14.957" style="stroke:#d3d3d3;stroke-width:5.0015;fill:#37414b" transform="scale(1,-1)" height="58.989" width="58.995" y="-545.3" x="387.07"/>
  <rect id="rect892" style="stroke:url(#linearGradient10764);stroke-width:.49475;fill:url(#linearGradient10762)" transform="scale(1,-1)" ry="14.878" height="58.676" width="58.048" y="-545.39" x="387.64"/>
  <rect id="rect892-2" style="stroke:url(#linearGradient10759);stroke-width:.49475;fill:url(#linearGradient10757)" transform="scale(1,-1)" ry="14.724" height="58.07" width="58.048" y="-544.99" x="387.65"/>
  <path id="rect895" style="fill:url(#radialGradient10754)" d="m400.86 486.99c-4.0503-1.2438-13.729 7.7065-13.038 11.7-0.0255 0.49454-0.0451 0.99781-0.0451 1.5018v26.621c0 10.602 5.4442 17.195 11.343 17.195h34.071c6.4231 0 12.359-5.7106 12.359-13.133v-32.511c0.35356-5.551-10.819-12.524-13.178-11.488-24.317 0.43952-9.1565 0.11361-31.511 0.11361z"/>
  <path id="rect4180-7" style="fill:url(#linearGradient10790)" d="m399.57 486.8c-11.787 4.2518-11.933 10.12-12 16l0.99999 14c0.0394 0.55233 0.446 1 1 1h54c0.55399 0 1-0.44626 1-1 0.40329-1.1593-1-17 1-17v-2c-0.58693-1.4928-1.2465-2.8404-2-4-3-4-7.313-5.9978-12-7h-17z"/>
  <path id="path4230" style="fill:url(#linearGradient10787);fill-rule:evenodd" d="m399.57 487.17 21.415 26 0.82366 1 23.886-16.743-3.125-4.6318-19.938-1.625-2.471-4z"/>
  <path id="rect4113-1" style="fill:url(#linearGradient10784)" d="m406.57 499.8-3 2.9286h-16v0.73214h0.002c-0.00005 0.003-0.002 0.006-0.002 0.009v26.349 0.73214h1 56 1v-0.73214-26.349-0.009-3.6607h-39z"/>
  <path id="path4151" style="fill:#2f6db0" d="m387.45 530.67v1h1 56 1v-1h-1-56-1z"/>
  <path id="path4224" style="fill-opacity:.23529;fill:#fff;fill-rule:evenodd" d="m387.57 503.8v1h17l2-5-3 4z"/>
  <path id="path4228" style="fill:#345671;fill-rule:evenodd" d="m387.57 502.7v1.1h16l3-4-5 2.9z"/>
  <rect id="rect892-2-7-8" style="opacity:.15891;stroke:#000;stroke-width:2.4612;fill:none" transform="scale(1,-1)" ry="14.724" height="58.07" width="58.048" y="-544.83" x="387.55"/>
  <rect id="rect892-2-7-2-9" ry="14.254" style="stroke:#000;stroke-width:.53286;fill:none" transform="scale(1,-1)" height="57.239" width="58.008" y="-544.4" x="387.65"/>
  <rect id="rect892-2-7-1" style="opacity:.15891;stroke:#000;stroke-width:3.9379;fill:none" transform="scale(1,-1)" ry="14.724" height="58.07" width="58.048" y="-544.83" x="387.55"/>
  <path id="path1187" style="fill:#fff;fill-opacity:.057143" d="m400.84 486.97c-12.048 0-13.227 0.34219-13.178 13.354-0.022 0.36343-0.039 0.73329-0.039 1.1037v16.637c9.4888-19.461 19.486-26.153 45.93-31.07-0.11421-0.0133-0.23371-0.0156-0.35102-0.0156-21.13 0.19676-13.037-0.01-32.362-0.01z"/>
  <path id="path3717" d="m416.57 508.8c-5.1185 0-10.232 1.9579-14.137 5.8631l2.3512 2.3512c6.5088-6.5088 17.063-6.5088 23.572 0l2.3512-2.3512c-3.9053-3.9053-9.0185-5.8631-14.137-5.8631zm0 6.6667c-3.4123 0-6.8311 1.2953-9.4346 3.8988l2.3661 2.3661c3.9053-3.9053 10.232-3.9053 14.137 0l2.3661-2.3661c-2.6035-2.6035-6.0223-3.8988-9.4346-3.8988zm0 6.6667c-1.7062 0-3.4155 0.64766-4.7173 1.9494l4.7173 4.7173 4.7173-4.7173c-1.3018-1.3018-3.0111-1.9494-4.7173-1.9494z" style="fill:#387ecc"/>
  <g id="layer6" transform="matrix(.59049 0 0 .59049 403.18 491.36)">
   <path id="path4039" style="opacity:.05" d="m31 11.031c-1.1843 0-2.2891 0.28648-3.2188 0.90625-0.92965 0.61977-1.75 1.7136-1.75 3.0625v2 3 61c0.0011 0.74081 0.45758 1.4623 1.1265 1.7806 0.66897 0.31825 1.5168 0.21722 2.0922-0.24931l18.75-16.969 18.75 16.969c0.57545 0.46653 1.4232 0.56755 2.0922 0.24931 0.669-0.318 1.126-1.039 1.127-1.78l0.031-64c0.0036-0.13601-0.0069-0.27239-0.03125-0.40625v-1.5938c0-1.3489-0.82035-2.4427-1.75-3.0625-0.93-0.62-2.035-0.907-3.219-0.907z"/>
   <path id="path4037" style="opacity:.1" d="m31 12.062c-0.99878 0-1.93 0.26585-2.6562 0.75-0.726 0.485-1.282 1.256-1.282 2.188v2 3 61c0.0057 0.70267 0.98704 1.1633 1.5312 0.71875l19.407-17.5 19.406 17.5c0.544 0.444 1.526-0.016 1.532-0.719l0.03125-64c-0.004-0.06334-0.01453-0.12627-0.03125-0.1875 0.0016-0.03122 0.0016-0.06253 0-0.09375v-1.7188c0-0.9315-0.55502-1.7033-1.2812-2.1875-0.72623-0.48415-1.6575-0.75-2.6562-0.75z"/>
   <path id="path3985" style="opacity:.2" d="m31 13c-1.662 0-3 0.892-3 2v2 3 61l20-18 20 18 0.031-64h-0.031v-2c0-1.108-1.338-2-3-2z"/>
   <path id="rect3204" style="fill:#a00" d="m31 12c-1.662 0-3 0.892-3 2v2 3 61l20-18 20 18 0.031-64h-0.031v-2c0-1.108-1.338-2-3-2z"/>
   <path id="path4041" style="opacity:.5;fill:url(#linearGradient4063)" d="m31 12c-1.662 0-3 0.892-3 2v2 3 61l20-18 20 18 0.031-64h-0.031v-2c0-1.108-1.338-2-3-2zm0 1.0312h34c0.64429 0 1.1937 0.18124 1.5312 0.40625 0.33751 0.22501 0.4375 0.42861 0.4375 0.5625v2c-0.0024 0.09459 0.0082 0.1895 0.03125 0.28125l-0.031 61.531-18.313-16.624c-0.36791-0.29746-0.94459-0.29746-1.3125 0l-18.312 16.625v-58.812-3-2c0-0.13389 0.09999-0.33749 0.4375-0.5625 0.336-0.226 0.886-0.407 1.53-0.407z"/>
   <path id="path4065" style="fill:url(#linearGradient4076)" d="m31 12v61l17-15 17 15v-61h-1v59l-16-14-16 14v-59z"/>
   <path id="path3960" style="fill:url(#linearGradient3968)" d="m31 12c-1.662 0-3 0.892-3 2v2 3 61l20-18 20 18 0.031-64h-0.031v-2c0-1.108-1.338-2-3-2z"/>
   <path id="path3956" style="opacity:.3;color:#000000;fill:#500" transform="matrix(1.3453 .039707 -.039707 1.3453 -11.329 -1.5601)" d="m44.594 19.375a0.63569 0.63569 0 0 0 -0.40625 0.34375l-2.75 5.5938-6.1562 1.2188a0.63569 0.63569 0 0 0 -0.313 1.093l4.469 4.375-0.719 6.188a0.63569 0.63569 0 0 0 0.9375 0.625l5.5-2.9062 5.656 2.593a0.63569 0.63569 0 0 0 0.90625 -0.65625l-1.03-6.156 4.218-4.594a0.63569 0.63569 0 0 0 -0.375 -1.0625l-6.187-0.907-3.032-5.437a0.63569 0.63569 0 0 0 -0.718 -0.313z"/>
   <path id="path3172" style="color:#000000;fill:url(#linearGradient3948)" transform="matrix(1.3453 .039707 -.039707 1.3453 -11.329 -1.5601)" d="m51.088 37.934-5.9515-2.7353-5.8002 3.043 0.76233-6.5055-4.6865-4.5759 6.4226-1.2853 2.9038-5.8711 3.2071 5.7111 6.4811 0.94739-4.4406 4.8149z"/>
   <path id="path3950" style="color:#000000;fill:url(#linearGradient3948)" transform="matrix(1.3453 .039707 -.039707 1.3453 -11.329 -1.5601)" d="m51.088 37.934-5.9515-2.7353-5.8002 3.043 0.76233-6.5055-4.6865-4.5759 6.4226-1.2853 2.9038-5.8711 3.2071 5.7111 6.4811 0.94739-4.4406 4.8149z"/>
   <path id="path4001" style="opacity:.2;color:#000000;fill:#ff0" d="m48.058 27.117-4.1272 7.7988-8.71 1.474 0.7236 0.7236 7.9864-1.34 4.1272-7.7988 4.1004 7.8256 7.9596 1.3936 0.7236-0.7236-8.6832-1.5276-4.1004-7.8256zm-6.8072 16.348-1.1792 7.9864 0.134-0.0536 1.1524-7.8256-0.1072-0.1072zm13.534 0.0536-0.1072 0.1072 1.072 7.8256 0.134 0.0536-1.0988-7.9864z"/>
  </g>
 </g>
</svg>
