<?xml version="1.0" encoding="UTF-8" standalone="no"?>
<!-- Created with Inkscape (http://www.inkscape.org/) -->
<svg id="svg5453" xmlns:rdf="http://www.w3.org/1999/02/22-rdf-syntax-ns#" xmlns="http://www.w3.org/2000/svg" height="64" width="64" version="1.1" xmlns:cc="http://creativecommons.org/ns#" xmlns:xlink="http://www.w3.org/1999/xlink" xmlns:dc="http://purl.org/dc/elements/1.1/">
 <defs id="defs5455">
  <linearGradient id="linearGradient10385" y2="50.369" gradientUnits="userSpaceOnUse" x2="76.558" gradientTransform="matrix(.49210 0 0 .49742 385.71 -548.91)" y1="13.164" x1="76.558">
   <stop id="stop3392" style="stop-color:#425e7b" offset="0"/>
   <stop id="stop3394" style="stop-color:#7a91a7" offset="1"/>
  </linearGradient>
  <linearGradient id="linearGradient10387" y2="-8.7399" gradientUnits="userSpaceOnUse" x2="60.217" gradientTransform="matrix(.49210 0 0 .49742 385.17 -483.22)" y1="-123.72" x1="60.395">
   <stop id="stop3392-4-8" style="stop-color:#425e7b" offset="0"/>
   <stop id="stop3394-8-0" style="stop-color:#7a91a7" offset="1"/>
  </linearGradient>
  <linearGradient id="linearGradient10389" y2="-9.1034" gradientUnits="userSpaceOnUse" x2="66.492" gradientTransform="matrix(.49210 0 0 .49742 385.17 -483.22)" y1="-42.638" x1="67.952">
   <stop id="stop4620" style="stop-color:#37414b" offset="0"/>
   <stop id="stop4622" style="stop-color:#37414b;stop-opacity:0" offset="1"/>
  </linearGradient>
  <linearGradient id="linearGradient10391" y2="-11.847" gradientUnits="userSpaceOnUse" x2="58.98" gradientTransform="matrix(.49210 0 0 .49742 385.17 -483.22)" y1="-118.55" x1="57.173">
   <stop id="stop4596" offset="0"/>
   <stop id="stop4598" style="stop-opacity:0" offset="1"/>
  </linearGradient>
  <radialGradient id="radialGradient10393" gradientUnits="userSpaceOnUse" cy="45.647" cx="42.148" gradientTransform="matrix(.61708 -.029284 .027419 .57778 378.91 469.39)" r="58.984">
   <stop id="stop10770" style="stop-color:#89b6e1" offset="0"/>
   <stop id="stop10772" style="stop-color:#649ad6" offset="1"/>
  </radialGradient>
  <linearGradient id="linearGradient10395" y2="497.8" gradientUnits="userSpaceOnUse" x2="404.57" gradientTransform="matrix(.82366 0 0 1 79.52 -2.625)" y1="477.8" x1="384.57">
   <stop id="stop4235" style="stop-color:#2f75dc" offset="0"/>
   <stop id="stop4237" style="stop-color:#6084d1;stop-opacity:0" offset="1"/>
  </linearGradient>
  <linearGradient id="linearGradient6422" y2="7.0165" gradientUnits="userSpaceOnUse" y1="92.54" gradientTransform="matrix(1.0059 0 0 .99417 158.64 4.6017)" x2="45.448" x1="45.448">
   <stop id="stop3750-89" offset="0"/>
   <stop id="stop3752-65" style="stop-opacity:.58824" offset="1"/>
  </linearGradient>
  <filter id="filter3174" color-interpolation-filters="sRGB">
   <feGaussianBlur id="feGaussianBlur3176" stdDeviation="1.71"/>
  </filter>
  <linearGradient id="linearGradient7720" y2="7.0165" gradientUnits="userSpaceOnUse" y1="92.54" gradientTransform="matrix(1.0059 0 0 .99417 75.661 -1.5)" x2="45.448" x1="45.448">
   <stop id="stop3750-4" offset="0"/>
   <stop id="stop3752-6" style="stop-opacity:.58824" offset="1"/>
  </linearGradient>
  <filter id="filter3174-3" color-interpolation-filters="sRGB">
   <feGaussianBlur id="feGaussianBlur3176-3" stdDeviation="1.71"/>
  </filter>
  <linearGradient id="linearGradient16955" y2="7.0165" gradientUnits="userSpaceOnUse" y1="92.54" gradientTransform="matrix(1.0059 0 0 .99417 -207.46 -7.6017)" x2="45.448" x1="45.448">
   <stop id="stop3750-5" offset="0"/>
   <stop id="stop3752-25" style="stop-opacity:.58824" offset="1"/>
  </linearGradient>
  <filter id="filter3174-7" color-interpolation-filters="sRGB">
   <feGaussianBlur id="feGaussianBlur3176-34" stdDeviation="1.71"/>
  </filter>
  <linearGradient id="linearGradient3904" y2="7.0165" gradientUnits="userSpaceOnUse" y1="92.54" gradientTransform="matrix(1.0059 0 0 .99417 -156.15 .80109)" x2="45.448" x1="45.448">
   <stop id="stop3750-84" offset="0"/>
   <stop id="stop3752-3" style="stop-opacity:.58824" offset="1"/>
  </linearGradient>
  <filter id="filter3174-5" color-interpolation-filters="sRGB">
   <feGaussianBlur id="feGaussianBlur3176-94" stdDeviation="1.71"/>
  </filter>
  <linearGradient id="linearGradient4326" y2="7.0165" gradientUnits="userSpaceOnUse" y1="92.54" gradientTransform="matrix(1.0059 0 0 .99417 -18.086 54.302)" x2="45.448" x1="45.448">
   <stop id="stop3750-77" offset="0"/>
   <stop id="stop3752-4" style="stop-opacity:.58824" offset="1"/>
  </linearGradient>
  <filter id="filter3174-16" color-interpolation-filters="sRGB">
   <feGaussianBlur id="feGaussianBlur3176-5" stdDeviation="1.71"/>
  </filter>
 </defs>
 <metadata id="metadata5458">
  <rdf:RDF>
   <cc:Work rdf:about="">
    <dc:format>image/svg+xml</dc:format>
    <dc:type rdf:resource="http://purl.org/dc/dcmitype/StillImage"/>
    <dc:title/>
   </cc:Work>
  </rdf:RDF>
 </metadata>
 <g id="layer1" transform="translate(-384.57 -483.8)">
  <g id="g10374" transform="translate(.00071696 -.0055850)">
   <rect id="rect892-2-7-2" style="stroke:#d3d3d3;stroke-width:5.0015;fill:#37414b" transform="scale(1,-1)" ry="14.957" height="58.989" width="58.995" y="-545.3" x="387.07"/>
   <rect id="rect892" ry="14.878" style="stroke:url(#linearGradient10387);stroke-width:.49475;fill:url(#linearGradient10385)" transform="scale(1,-1)" height="58.676" width="58.048" y="-545.39" x="387.64"/>
   <rect id="rect892-2" ry="14.724" style="stroke:url(#linearGradient10391);stroke-width:.49475;fill:url(#linearGradient10389)" transform="scale(1,-1)" height="58.07" width="58.048" y="-544.99" x="387.65"/>
   <path id="rect895" style="fill:url(#radialGradient10393)" d="m400.86 486.99c-4.0503-1.2438-13.729 7.7065-13.038 11.7-0.0255 0.49454-0.0451 0.99781-0.0451 1.5018v26.621c0 10.602 5.4442 17.195 11.343 17.195h34.071c6.4231 0 12.359-5.7106 12.359-13.133v-32.511c0.35356-5.551-10.819-12.524-13.178-11.488-24.317 0.43952-9.1565 0.11361-31.511 0.11361z"/>
   <path id="path4230" d="m399.57 487.17 21.415 26 0.82366 1 23.886-16.743-3.125-4.6318-19.938-1.625-2.471-4z" style="fill:url(#linearGradient10395);fill-rule:evenodd"/>
   <rect id="rect892-2-7-8" ry="14.724" style="opacity:.15891;stroke:#000;stroke-width:2.4612;fill:none" transform="scale(1,-1)" height="58.07" width="58.048" y="-544.83" x="387.55"/>
   <rect id="rect892-2-7-2-9" style="stroke:#000;stroke-width:.53286;fill:none" transform="scale(1,-1)" ry="14.254" height="57.239" width="58.008" y="-544.4" x="387.65"/>
   <rect id="rect892-2-7-1" ry="14.724" style="opacity:.15891;stroke:#000;stroke-width:3.9379;fill:none" transform="scale(1,-1)" height="58.07" width="58.048" y="-544.83" x="387.55"/>
   <path id="path1187" style="fill:#fff;fill-opacity:.057143" d="m400.84 486.97c-12.048 0-13.227 0.34219-13.178 13.354-0.022 0.36343-0.039 0.73329-0.039 1.1037v16.637c9.4888-19.461 19.486-26.153 45.93-31.07-0.11421-0.0133-0.23371-0.0156-0.35102-0.0156-21.13 0.19676-13.037-0.01-32.362-0.01z"/>
  </g>
  <g id="g5585" transform="matrix(1.4836 0 0 1.4836 381.27 478.38)">
   <rect id="rect3745" style="opacity:.9;filter:url(#filter3174);display:none;fill:url(#linearGradient6422)" rx="6" ry="6" height="85" width="86" y="11.602" x="163.64"/>
   <rect id="rect3745-9" style="opacity:.9;filter:url(#filter3174-3);display:none;fill:url(#linearGradient7720)" rx="6" ry="6" height="85" width="86" y="5.5" x="80.661"/>
   <rect id="rect3745-3" style="opacity:.9;filter:url(#filter3174-7);display:none;fill:url(#linearGradient16955)" rx="6" ry="6" height="85" width="86" y="-.60169" x="-202.46"/>
   <rect id="rect3745-97" style="opacity:.9;filter:url(#filter3174-5);display:none;fill:url(#linearGradient3904)" rx="6" ry="6" height="85" width="86" y="7.8011" x="-151.15"/>
   <rect id="rect3745-5" style="opacity:.9;filter:url(#filter3174-16);display:none;fill:url(#linearGradient4326)" rx="6" ry="6" height="85" width="86" y="61.302" x="-13.086"/>
   <path id="path13" style="fill-rule:evenodd;stroke:#161413;stroke-width:.23229;fill:#fff" d="m14.059 32.24c-0.27587-0.31526-0.57145-0.6404-0.88674-0.9754-0.31528-0.35468-0.47294-0.69954-0.47292-1.0345-0.000023-0.21675 0.05912-0.43352 0.17733-0.65029 0.45322-0.13791 0.91631-0.2069 1.3892-0.2069 1.1823 0 2.3745 0.40397 3.5765 1.2119 0.23645 0.13796 0.54188 0.39412 0.91628 0.7685 0.31528 0.17735 0.77835 0.42367 1.3892 0.73896h0.1478c-0.01972 0.03942-0.02957 0.07884-0.02957 0.11824 0 0.05912 0.04927 0.09854 0.1478 0.11823 0.11821 0.0197 0.18718 0.03942 0.2069 0.05912 0.11821 0 0.2463-0.06896 0.38425-0.20692 0.13793-0.13791 0.25614-0.19703 0.3547-0.17733 0.15763-0.11823 0.23645-0.49264 0.23645-1.1232 0.07882-0.0394 0.11824-0.06896 0.11824-0.08866 0-0.01973-0.02957-0.03942-0.08866-0.05911-0.03942-0.03942-0.05914-0.07882-0.05911-0.11823-0.000023-0.03942 0.0098-0.06896 0.02955-0.08869 0-1.8917 0.0098-3.7932 0.02957-5.7047 0.0394-2.1873 0.29556-3.9016 0.7685-5.1431 0.11821-0.57143 0.44334-1.0444 0.9754-1.4188 0.09851-0.01968 0.19705-0.02953 0.29559-0.02955 0.4335 0.000024 0.8079 0.20692 1.1232 0.62072 0.0394 0.21677 0.17733 0.47294 0.4138 0.7685 0.09851 0.76853 0.25617 1.9016 0.47294 3.3992v4.079c-0.07884 0.000023-0.10841 0.04927-0.08869 0.14778v0.23647c0.0197 0.31531-0.01973 0.73896-0.11824 1.271 0.07882 0.000023 0.11824 0.04927 0.11824 0.1478v0.2069c-0.07884 0.09854-0.11824 0.25617-0.11824 0.47292 0.0197 0.3547 0.0197 0.54191 0 0.5616 0.07882 0.45324 0.62072 0.80792 1.6257 1.0641 0.8079-0.11823 1.6946-0.55173 2.6602-1.3005 1.2217-0.92616 2.0395-1.4878 2.4533-1.6848 0.59113-0.27587 1.2315-0.27587 1.9212 0 0.01974 0.09854 0.02951 0.20692 0.02974 0.32513-0.000232 0.43352-0.17747 0.99512-0.53217 1.6848-0.57145 1.1429-1.3597 1.9607-2.3646 2.4533-0.15765 0.19707-0.39412 0.38428-0.70939 0.5616-0.31531 0.17735-0.6109 0.34486-0.88674 0.50249-0.41384 0.27589-1.4484 0.88674-3.1036 1.8326-0.6109 0.49264-0.97543 0.77838-1.0937 0.85719-0.43352 0.31517-0.88674 0.53213-1.3597 0.65036-0.29559 0.03926-0.58132 0.059-0.85719 0.059-1.1626 0-2.3055-0.3252-3.4287-0.97538-0.53206-0.29559-1.468-0.97542-2.808-2.0395-1.1626-0.92613-2.1479-1.5567-2.9558-1.8917zm-3.9312-5.0544h0.73895c0.03941 0.05912 0.17735 0.14778 0.41381 0.26602 0.23646 0.09854 0.3547 0.22662 0.3547 0.38425 0.63057 0.25617 1.0936 0.63057 1.3892 1.1232-0.07884 0.29559-0.3744 0.52218-0.88674 0.67982-0.88674-0.21675-1.5567-1.0345-2.0099-2.4533zm24.326 0.82762c0.15772-1.1035 0.97538-1.8326 2.4534-2.1873 0.45319 0.01973 0.63043 0.25619 0.53194 0.70939-0.07875 0.27589-0.28572 0.61087-0.62068 1.005-0.67015 0.78822-1.4188 1.1134-2.2465 0.97543l-0.11823-0.50249zm-11.291-11.026c-0.000023-0.07879-0.04927-0.30541-0.14778-0.67982-0.05914-0.27587-0.06899-0.52218-0.02957-0.73896 0.0197 0.000021 0.04924-0.01968 0.08869-0.05912-0.03944-0.19703-0.01972-0.48276 0.05912-0.85718 0.09851-0.61084 0.14776-0.92612 0.14778-0.94586 0.05909-0.27585 0.23645-0.41379 0.53203-0.41381 0.13793 0.000024 0.23645 0.06899 0.29559 0.2069 0.07882 0.03943 0.10836 0.17737 0.08866 0.41381 0 0.21678 0.06896 0.32516 0.20692 0.32514 0.17733 1.202 0.15761 2.1775-0.05912 2.9262-0.09854-0.01968-0.1478 0.0296-0.1478 0.1478 0 0.09854-0.02958 0.1478-0.08866 0.14778-0.29559-0.0197-0.49264-0.04924-0.59115-0.08869-0.21677-0.07879-0.33501-0.20688-0.3547-0.38425"/>
  </g>
 </g>
</svg>
