<?xml version="1.0" encoding="UTF-8" standalone="no"?>
<!-- Created with Inkscape (http://www.inkscape.org/) -->
<svg id="svg5453" xmlns:rdf="http://www.w3.org/1999/02/22-rdf-syntax-ns#" xmlns="http://www.w3.org/2000/svg" height="64" width="64" version="1.1" xmlns:cc="http://creativecommons.org/ns#" xmlns:xlink="http://www.w3.org/1999/xlink" xmlns:dc="http://purl.org/dc/elements/1.1/">
 <defs id="defs5455">
  <linearGradient id="linearGradient11826" y2="50.369" gradientUnits="userSpaceOnUse" x2="76.558" gradientTransform="matrix(.49210 0 0 .49742 385.71 -548.91)" y1="13.164" x1="76.558">
   <stop id="stop3392" style="stop-color:#425e7b" offset="0"/>
   <stop id="stop3394" style="stop-color:#7a91a7" offset="1"/>
  </linearGradient>
  <linearGradient id="linearGradient11828" y2="-8.7399" gradientUnits="userSpaceOnUse" x2="60.217" gradientTransform="matrix(.49210 0 0 .49742 385.17 -483.22)" y1="-123.72" x1="60.395">
   <stop id="stop3392-4-8" style="stop-color:#425e7b" offset="0"/>
   <stop id="stop3394-8-0" style="stop-color:#7a91a7" offset="1"/>
  </linearGradient>
  <linearGradient id="linearGradient11830" y2="-9.1034" gradientUnits="userSpaceOnUse" x2="66.492" gradientTransform="matrix(.49210 0 0 .49742 385.17 -483.22)" y1="-42.638" x1="67.952">
   <stop id="stop4620" style="stop-color:#37414b" offset="0"/>
   <stop id="stop4622" style="stop-color:#37414b;stop-opacity:0" offset="1"/>
  </linearGradient>
  <linearGradient id="linearGradient11832" y2="-11.847" gradientUnits="userSpaceOnUse" x2="58.98" gradientTransform="matrix(.49210 0 0 .49742 385.17 -483.22)" y1="-118.55" x1="57.173">
   <stop id="stop4596" offset="0"/>
   <stop id="stop4598" style="stop-opacity:0" offset="1"/>
  </linearGradient>
  <radialGradient id="radialGradient11834" gradientUnits="userSpaceOnUse" cy="45.647" cx="42.148" gradientTransform="matrix(.61708 -.029284 .027419 .57778 378.91 469.38)" r="58.984">
   <stop id="stop10770" style="stop-color:#d99c9c" offset="0"/>
   <stop id="stop10772" style="stop-color:#da4453" offset="1"/>
  </radialGradient>
  <linearGradient id="linearGradient11836" y2="497.8" gradientUnits="userSpaceOnUse" x2="404.57" gradientTransform="matrix(.82366 0 0 1 79.519 -2.6259)" y1="477.8" x1="384.57">
   <stop id="stop4235" style="stop-color:#dc2f2f" offset="0"/>
   <stop id="stop4237" style="stop-color:#d16060;stop-opacity:0" offset="1"/>
  </linearGradient>
 </defs>
 <metadata id="metadata5458">
  <rdf:RDF>
   <cc:Work rdf:about="">
    <dc:format>image/svg+xml</dc:format>
    <dc:type rdf:resource="http://purl.org/dc/dcmitype/StillImage"/>
    <dc:title/>
   </cc:Work>
  </rdf:RDF>
 </metadata>
 <g id="layer1" transform="translate(-384.57 -483.8)">
  <g id="g11814" transform="translate(.001663 -.0046695)">
   <rect id="rect892-2-7-2" style="stroke:#d3d3d3;stroke-width:5.0015;fill:#37414b" transform="scale(1,-1)" ry="14.957" height="58.989" width="58.995" y="-545.3" x="387.07"/>
   <rect id="rect892" ry="14.878" style="stroke:url(#linearGradient11828);stroke-width:.49475;fill:url(#linearGradient11826)" transform="scale(1,-1)" height="58.676" width="58.048" y="-545.38" x="387.64"/>
   <rect id="rect892-2" ry="14.724" style="stroke:url(#linearGradient11832);stroke-width:.49475;fill:url(#linearGradient11830)" transform="scale(1,-1)" height="58.07" width="58.048" y="-544.99" x="387.65"/>
   <path id="rect895" style="fill:url(#radialGradient11834)" d="m400.86 486.99c-4.0503-1.2438-13.729 7.7065-13.038 11.7-0.0255 0.49454-0.0451 0.99781-0.0451 1.5018v26.621c0 10.602 5.4442 17.195 11.343 17.195h34.071c6.4231 0 12.359-5.7106 12.359-13.133v-32.511c0.35356-5.551-10.819-12.524-13.178-11.488-24.317 0.43952-9.1565 0.11361-31.511 0.11361z"/>
   <path id="path4230" d="m399.57 487.17 21.415 26 0.82366 1 23.886-16.743-3.125-4.6318-19.938-1.625-2.471-4z" style="fill:url(#linearGradient11836);fill-rule:evenodd"/>
   <rect id="rect892-2-7-8" ry="14.724" style="opacity:.15891;stroke:#000;stroke-width:2.4612;fill:none" transform="scale(1,-1)" height="58.07" width="58.048" y="-544.83" x="387.55"/>
   <rect id="rect892-2-7-2-9" style="stroke:#000;stroke-width:.53286;fill:none" transform="scale(1,-1)" ry="14.254" height="57.239" width="58.008" y="-544.4" x="387.65"/>
   <rect id="rect892-2-7-1" ry="14.724" style="opacity:.15891;stroke:#000;stroke-width:3.9379;fill:none" transform="scale(1,-1)" height="58.07" width="58.048" y="-544.83" x="387.55"/>
   <path id="path1187" style="fill:#fff;fill-opacity:.057143" d="m400.84 486.97c-12.048 0-13.227 0.34219-13.178 13.354-0.022 0.36343-0.039 0.73329-0.039 1.1037v16.637c9.4888-19.461 19.486-26.153 45.93-31.07-0.11421-0.0133-0.23371-0.0156-0.35102-0.0156-21.13 0.19676-13.037-0.01-32.362-0.01z"/>
   <path id="path3412" style="fill:#fff" d="m414.53 494.57c-0.5703 0.01-1.1908-0.0636-1.7027 0.24323-0.79181 0.41314-1.3045 1.2783-1.291 2.1704 3.3544-0.0135 6.7133 0.0164 10.066 0-0.018-1.1705-0.92356-2.3276-2.133-2.395-1.6495-0.0345-3.2886-0.01-4.9396-0.0186zm-8.6817 3.8356c-2.5521 0.0285-4.84 2.3523-4.7338 4.9209 10.303-0.0345 20.607-0.009 30.91-0.0187 0.009-1.5911-0.81804-3.1815-2.1517-4.0602-0.85021-0.59425-1.889-0.85095-2.9188-0.84196-7.0366 0.01-14.069-0.0135-21.105 0zm23.875 6.3429c-8.764 0.0105-17.524 0.0112-26.288 0.0187-0.007 9.472-0.01 18.932 0 28.403 0.0271 1.6316 1.1705 3.1157 2.6943 3.6485 0.67507 0.26345 1.4235 0.19984 2.133 0.20584 5.5862 0 11.158-0.003 16.746 0 0.63466-0.005 1.3007 0.0592 1.9085-0.16841 1.6226-0.51342 2.7938-2.1338 2.7879-3.8356 0.0164-9.4211-0.0143-18.85 0.0186-28.272zm-20.787 3.7421c0.10985-0.006 0.21318 0.0131 0.31809 0.0374 0.10153 0.0235 0.20603 0.0659 0.29937 0.11226 0.0882 0.0437 0.16543 0.0887 0.24323 0.1497 0.011 0.01 0.0267 0.01 0.0374 0.0186 0.0208 0.0173 0.0363 0.0377 0.056 0.0561 0.0611 0.0551 0.11709 0.12255 0.16841 0.18709 0.0239 0.031 0.0535 0.0609 0.0749 0.0936 0.037 0.0558 0.0646 0.10784 0.0936 0.16838 0.0143 0.0296 0.0253 0.063 0.0374 0.0936 0.028 0.0712 0.0593 0.14902 0.0748 0.22453 0.0214 0.1072 0.0252 0.22428 0.0187 0.33678 0.01 7.1893 0.002 14.365 0 21.555 0.0164 0.54784-0.17214 1.1421-0.67357 1.422-0.10329 0.0693-0.22391 0.11708-0.3368 0.1497-0.2213 0.0594-0.471 0.0595-0.69229 0-0.56407-0.14966-1.0468-0.653-1.0478-1.2723-0.01-7.2866 0.01-14.567 0-21.854-0.01-0.15035 0.0148-0.30545 0.0561-0.44906 0.003-0.009-0.003-0.0135 0-0.0187 0.0446-0.14853 0.11683-0.28412 0.2058-0.41163 0.0444-0.0635 0.0959-0.11278 0.1497-0.16838 0.10979-0.11644 0.21351-0.2079 0.35549-0.28067 0.0689-0.0353 0.14988-0.0712 0.22455-0.0936 0.11076-0.0349 0.22666-0.0523 0.33677-0.0561zm7.6339 0.0186c0.10954-0.005 0.21313 0.0126 0.31809 0.0374 0.0776 0.0182 0.15141 0.0433 0.22451 0.0749 0.0258 0.0111 0.0498 0.0247 0.0749 0.0373 0.0581 0.0296 0.11469 0.0563 0.1684 0.0936 0.034 0.0234 0.0616 0.0486 0.0936 0.0749 0.0428 0.0351 0.0924 0.0727 0.13098 0.11226 0.009 0.009 0.0128 0.0124 0.0186 0.0186 0.0584 0.0626 0.10349 0.1339 0.14969 0.20581 0.0353 0.055 0.0665 0.10908 0.0936 0.16839 0.0118 0.0258 0.0273 0.0484 0.0374 0.0749 0.0291 0.0757 0.0609 0.1625 0.0749 0.24324 0.0176 0.10525 0.0115 0.20726 0 0.31808 0.007 7.2312 0.002 14.473 0 21.704 0.0139 0.18373-0.0121 0.36904-0.0749 0.54259-0.0315 0.086-0.065 0.16466-0.11228 0.24325-0.14189 0.23853-0.35195 0.42624-0.59872 0.5426-0.0823 0.038-0.17233 0.075-0.26196 0.0936-0.0896 0.0189-0.1858 0.0228-0.28065 0.0186-0.19534 0.0154-0.38928-0.0191-0.56131-0.0936-0.26299-0.11378-0.46693-0.31303-0.61745-0.56131-0.0497-0.0805-0.0981-0.15454-0.13098-0.24322-0.0664-0.17755-0.0905-0.37048-0.0748-0.56134v-21.686c-0.007-0.0722-0.009-0.15374 0-0.22452 0.00062-0.01-0.00058-0.0127 0-0.0186 0.01-0.0705 0.0359-0.13799 0.0562-0.20583 0.003-0.009-0.003-0.0136 0-0.0186 0.0443-0.14144 0.12019-0.27148 0.20581-0.39293 0.005-0.006-0.005-0.0149 0-0.0187 0.0449-0.0625 0.0955-0.11358 0.14968-0.1684 0.0537-0.0548 0.10674-0.10402 0.16839-0.14967 0.12393-0.0914 0.26419-0.15979 0.41163-0.20583 0.10871-0.0338 0.22788-0.0534 0.3368-0.056zm7.4468 0c0.0523-0.008 0.11415 0.002 0.1684 0 0.75912-0.0148 1.4828 0.6723 1.3846 1.4594 0 7.2342 0.007 14.47 0 21.704 0.0405 0.46702-0.17812 0.92804-0.56131 1.1975-0.23072 0.18356-0.51694 0.26935-0.80457 0.26194-0.2876-0.01-0.57352-0.11037-0.80454-0.28067-0.15401-0.11351-0.28739-0.25482-0.37422-0.43032-0.24548-0.40865-0.15642-0.89662-0.16839-1.3472 0.002-7.0352 0.009-14.07 0-21.105-0.006-0.0782-0.0103-0.16608 0-0.24323 0.0719-0.54004 0.47861-1.0334 1.0104-1.1788 0.0538-0.0164 0.0972-0.0325 0.14969-0.0374z"/>
  </g>
 </g>
</svg>
