<?xml version="1.0" encoding="UTF-8" standalone="no"?>
<!-- Created with Inkscape (http://www.inkscape.org/) -->
<svg id="svg3760" xmlns:rdf="http://www.w3.org/1999/02/22-rdf-syntax-ns#" xmlns="http://www.w3.org/2000/svg" height="22" width="22" version="1.1" xmlns:cc="http://creativecommons.org/ns#" xmlns:dc="http://purl.org/dc/elements/1.1/">
 <metadata id="metadata3765">
  <rdf:RDF>
   <cc:Work rdf:about="">
    <dc:format>image/svg+xml</dc:format>
    <dc:type rdf:resource="http://purl.org/dc/dcmitype/StillImage"/>
    <dc:title/>
   </cc:Work>
  </rdf:RDF>
 </metadata>
 <g id="layer1" transform="translate(-551.29 -607.65)">
  <path id="rect4144" style="fill:#4d4d4d" d="m4 3v12 1 1h-1v1h1v1h1v-1h14v-1h-14v-1h0.0078 0.9922 2v-0.008l0.0078 0.008 2.0002-2h1.592l2 2h3.5 1.9v-1h-1.9-3.086l-2-2h-0.014-0.992-0.408-1.0062l-2 2h-1.5938-0.9922-0.0078v-4h5v-0.008l0.008 0.008 0.996-0.996-0.707-0.7071-0.7032 0.7031h-4.5938v-7h-1zm10 2.5938l-0.707 0.707-0.996 0.9961 0.707 0.707 0.996-0.9961 0.996 0.9961 0.707-0.707-1.703-1.7031zm5 2.4062l-1 1h1v-1z" transform="translate(551.29 607.65)"/>
  <path id="rect4274" style="fill:#4d4d4d" d="m11 4v2h1v-1h1v-1h-2zm4 0v1h1v1h1v-2h-2zm-4 4v2h2v-1h-1v-1h-1zm5 0v1h-1v1h2v-2h-1z" transform="translate(551.29 607.65)"/>
  <path id="path4149" style="fill-opacity:.45930;fill:#4d4d4d;fill-rule:evenodd" d="m556.29 623.65v1h14v-1h-5.4l-2-2h-1.6l-2 2z"/>
  <path id="path4150" style="fill-opacity:.45882;fill:#4d4d4d;fill-rule:evenodd" d="m14 7l-1.996 2h0.996v1h-1.994l-0.998 1h-5.008v4h2.5996l2-2h2.4084l1.992 1.992 5 0.008v-6h-2v1h-2v-1h1l-2-2z" transform="translate(551.29 607.65)"/>
 </g>
</svg>
