<?xml version="1.0" encoding="UTF-8" standalone="no"?>
<!-- Created with Inkscape (http://www.inkscape.org/) -->
<svg id="svg3049" xmlns:rdf="http://www.w3.org/1999/02/22-rdf-syntax-ns#" xmlns="http://www.w3.org/2000/svg" height="22" width="22" version="1.1" xmlns:cc="http://creativecommons.org/ns#" xmlns:dc="http://purl.org/dc/elements/1.1/">
 <metadata id="metadata3054">
  <rdf:RDF>
   <cc:Work rdf:about="">
    <dc:format>image/svg+xml</dc:format>
    <dc:type rdf:resource="http://purl.org/dc/dcmitype/StillImage"/>
    <dc:title/>
   </cc:Work>
  </rdf:RDF>
 </metadata>
 <g id="layer1" transform="translate(-421.71 -525.79)">
  <path id="rect4089" style="fill:#4d4d4d" d="m3 3v16h16v-16h-16zm1 4h14v11h-14v-11z" transform="translate(421.71 525.79)"/>
  <path id="rect4109" style="fill:#4d4d4d" d="m427.71 533.79v4h4v-4h-4zm1 1h2v2h-2v-2z"/>
  <path id="rect4111" style="fill:#4d4d4d" d="m433.71 533.79v4h4v-4h-4zm1 1h2v2h-2v-2z"/>
  <path id="path4119" style="fill:#4d4d4d" d="m427.71 538.79v4h4v-4h-4zm1 1h2v2h-2v-2z"/>
  <path id="path4121" style="fill:#4d4d4d" d="m433.71 538.79v4h4v-4h-4zm1 1h2v2h-2v-2z"/>
 </g>
</svg>
