<?xml version="1.0" encoding="UTF-8" standalone="no"?>
<!-- Created with Inkscape (http://www.inkscape.org/) -->
<svg id="svg3760" xmlns:rdf="http://www.w3.org/1999/02/22-rdf-syntax-ns#" xmlns="http://www.w3.org/2000/svg" height="24" width="24" version="1.1" xmlns:cc="http://creativecommons.org/ns#" xmlns:dc="http://purl.org/dc/elements/1.1/">
 <metadata id="metadata3765">
  <rdf:RDF>
   <cc:Work rdf:about="">
    <dc:format>image/svg+xml</dc:format>
    <dc:type rdf:resource="http://purl.org/dc/dcmitype/StillImage"/>
    <dc:title/>
   </cc:Work>
  </rdf:RDF>
 </metadata>
 <g id="layer1" transform="translate(-550.29 -606.65)">
  <path id="path4114" style="fill:#4d4d4d" d="m12 4c-2.216 0-4 1.784-4 4 0 1.483 0.8073 2.758 2 3.449v8.551l2-2 2 2v-8.551c1.193-0.691 2-1.966 2-3.449 0-2.216-1.784-4-4-4zm0 1c1.662 0 3 1.338 3 3s-1.338 3-3 3-3-1.338-3-3 1.338-3 3-3zm0 1l-0.619 1.3164-1.381 0.2109 1 1.0254-0.236 1.4473 1.236-0.6836 1.236 0.6836-0.236-1.4473 1-1.0254-1.381-0.2109-0.619-1.3164z" transform="translate(550.29 606.65)"/>
 </g>
</svg>
