<?xml version="1.0" encoding="UTF-8" standalone="no"?>
<!-- Created with Inkscape (http://www.inkscape.org/) -->
<svg id="svg3979" xmlns:rdf="http://www.w3.org/1999/02/22-rdf-syntax-ns#" xmlns="http://www.w3.org/2000/svg" height="22" width="22" version="1.1" xmlns:cc="http://creativecommons.org/ns#" xmlns:dc="http://purl.org/dc/elements/1.1/">
 <metadata id="metadata3984">
  <rdf:RDF>
   <cc:Work rdf:about="">
    <dc:format>image/svg+xml</dc:format>
    <dc:type rdf:resource="http://purl.org/dc/dcmitype/StillImage"/>
    <dc:title/>
   </cc:Work>
  </rdf:RDF>
 </metadata>
 <g id="layer1" transform="translate(-601.71 -517.22)">
  <path id="rect4108" style="fill:#4d4d4d" d="m3 3v1 15h1 15v-1-15h-16zm1 1h14v14h-14v-14zm1 1v1 2h1v-2h2v-1h-3zm9 0v1h2v2h1v-2-1h-3zm-6 2c-0.554 0-1 0.446-1 1s0.446 1 1 1 1-0.446 1-1-0.446-1-1-1zm6 0c-0.554 0-1 0.446-1 1s0.446 1 1 1 1-0.446 1-1-0.446-1-1-1zm-6.8711 4.967l-0.9648 0.242c0.5405 2.178 2.4857 3.791 4.8359 3.791 2.35 0 4.295-1.613 4.836-3.791l-0.965-0.242c-0.432 1.743-1.99 3.033-3.871 3.033-1.8807 0-3.4392-1.29-3.8711-3.033zm-2.1289 2.033v2 1h3v-1h-2v-2h-1zm11 0v2h-2v1h3v-1-2h-1z" transform="translate(601.71 517.22)"/>
 </g>
</svg>
