<?xml version="1.0" encoding="UTF-8" standalone="no"?>
<!-- Created with Inkscape (http://www.inkscape.org/) -->
<svg id="svg18109" xmlns:rdf="http://www.w3.org/1999/02/22-rdf-syntax-ns#" xmlns="http://www.w3.org/2000/svg" height="22" width="22" version="1.1" xmlns:cc="http://creativecommons.org/ns#" xmlns:dc="http://purl.org/dc/elements/1.1/">
 <metadata id="metadata18114">
  <rdf:RDF>
   <cc:Work rdf:about="">
    <dc:format>image/svg+xml</dc:format>
    <dc:type rdf:resource="http://purl.org/dc/dcmitype/StillImage"/>
    <dc:title/>
   </cc:Work>
  </rdf:RDF>
 </metadata>
 <g id="layer1" transform="translate(0 -1030.4)">
  <path id="rect4146" style="fill:#4d4d4d" d="m16 1033.4v1h-1v-1h1zm-9 0v1h-1v-1h1zm9 2v1h3v10h-3v1h-1v-1h-3v-3h-2v3h-3v1h-1v-1h-3v-10h3v-1h1v1h3v3h2v-3h3v-1h1zm2 2h-5v8h5v-8zm-9 0h-5v8h5v-8zm8 1v6h-3v-6h3zm-5 2h-2v2h2v-2zm4 8v1h-1v-1h1zm-9 0v1h-1v-1h1z"/>
 </g>
</svg>
