<?xml version="1.0" encoding="UTF-8" standalone="no"?>
<!-- Created with Inkscape (http://www.inkscape.org/) -->
<svg id="svg18109" xmlns:rdf="http://www.w3.org/1999/02/22-rdf-syntax-ns#" xmlns="http://www.w3.org/2000/svg" height="22" width="22" version="1.1" xmlns:cc="http://creativecommons.org/ns#" xmlns:dc="http://purl.org/dc/elements/1.1/">
 <metadata id="metadata18114">
  <rdf:RDF>
   <cc:Work rdf:about="">
    <dc:format>image/svg+xml</dc:format>
    <dc:type rdf:resource="http://purl.org/dc/dcmitype/StillImage"/>
    <dc:title/>
   </cc:Work>
  </rdf:RDF>
 </metadata>
 <g id="layer1" transform="translate(0 -1030.4)">
  <path id="rect4146" style="fill:#4d4d4d" d="m19 1046.4h-1v-1h1v1zm0-9h-1v-1h1v1zm-2 9h-1v3h-10v-3h-1v-1h1v-3h3v-2h-3v-3h-1v-1h1v-3h10v3h1v1h-1v3h-3v2h3v3h1v1zm-2 2v-5h-8v5h8zm0-9v-5h-8v5h8zm-1 8h-6v-3h6v3zm-2-5v-2h-2v2h2zm-8 4h-1v-1h1v1zm0-9h-1v-1h1v1z"/>
 </g>
</svg>
