<?xml version="1.0" encoding="UTF-8" standalone="no"?>
<!-- Created with Inkscape (http://www.inkscape.org/) -->

<svg
   xmlns:dc="http://purl.org/dc/elements/1.1/"
   xmlns:cc="http://creativecommons.org/ns#"
   xmlns:rdf="http://www.w3.org/1999/02/22-rdf-syntax-ns#"
   xmlns:svg="http://www.w3.org/2000/svg"
   xmlns="http://www.w3.org/2000/svg"
   xmlns:sodipodi="http://sodipodi.sourceforge.net/DTD/sodipodi-0.dtd"
   xmlns:inkscape="http://www.inkscape.org/namespaces/inkscape"
   id="svg3449"
   height="128"
   width="128"
   version="1.0"
   inkscape:version="0.48.4 r9939"
   sodipodi:docname="gnome-shutdown.svg">
  <sodipodi:namedview
     pagecolor="#ffffff"
     bordercolor="#666666"
     borderopacity="1"
     objecttolerance="10"
     gridtolerance="10"
     guidetolerance="10"
     inkscape:pageopacity="0"
     inkscape:pageshadow="2"
     inkscape:window-width="640"
     inkscape:window-height="480"
     id="namedview52"
     showgrid="false"
     inkscape:zoom="1.84375"
     inkscape:cx="64"
     inkscape:cy="64"
     inkscape:window-x="0"
     inkscape:window-y="35"
     inkscape:window-maximized="0"
     inkscape:current-layer="svg3449" />
  <metadata
     id="metadata56">
    <rdf:RDF>
      <cc:Work
         rdf:about="">
        <dc:format>image/svg+xml</dc:format>
        <dc:type
           rdf:resource="http://purl.org/dc/dcmitype/StillImage" />
        <dc:title></dc:title>
      </cc:Work>
    </rdf:RDF>
  </metadata>
  <defs
     id="defs3451">
    <linearGradient
       id="linearGradient3514"
       y2="-9.1034"
       gradientUnits="userSpaceOnUse"
       x2="66.492"
       gradientTransform="matrix(.96826 0 0 .97948 2.179 .16587)"
       y1="-42.638"
       x1="67.952">
      <stop
         id="stop4620"
         style="stop-color:#37414b"
         offset="0" />
      <stop
         id="stop4622"
         style="stop-color:#37414b;stop-opacity:0"
         offset="1" />
    </linearGradient>
    <linearGradient
       id="linearGradient3516"
       y2="-11.847"
       gradientUnits="userSpaceOnUse"
       x2="58.98"
       gradientTransform="matrix(.96826 0 0 .97948 2.179 .16587)"
       y1="-118.55"
       x1="57.173">
      <stop
         id="stop4596"
         offset="0" />
      <stop
         id="stop4598"
         style="stop-opacity:0"
         offset="1" />
    </linearGradient>
    <linearGradient
       id="linearGradient3519"
       y2="50.369"
       gradientUnits="userSpaceOnUse"
       x2="76.558"
       gradientTransform="matrix(.96826 0 0 .97948 3.2423 -129.19)"
       y1="13.164"
       x1="76.558">
      <stop
         id="stop3392"
         style="stop-color:#425e7b"
         offset="0" />
      <stop
         id="stop3394"
         style="stop-color:#7a91a7"
         offset="1" />
    </linearGradient>
    <linearGradient
       id="linearGradient3521"
       y2="-8.7399"
       gradientUnits="userSpaceOnUse"
       x2="60.217"
       gradientTransform="matrix(.96826 0 0 .97948 2.179 .16587)"
       y1="-123.72"
       x1="60.395">
      <stop
         id="stop3392-4-8"
         style="stop-color:#425e7b"
         offset="0" />
      <stop
         id="stop3394-8-0"
         style="stop-color:#7a91a7"
         offset="1" />
    </linearGradient>
    <radialGradient
       id="radialGradient3349"
       gradientUnits="userSpaceOnUse"
       cy="45.647"
       cx="42.148"
       gradientTransform="matrix(.94690 0 0 1.139 3.5954 -29.89)"
       r="58.984">
      <stop
         id="stop2699-5"
         style="stop-color:#868686"
         offset="0" />
      <stop
         id="stop2701-7"
         style="stop-color:#4a4a4a"
         offset="1" />
    </radialGradient>
    <clipPath
       id="clipPath3613">
      <rect
         id="rect3615"
         style="fill:#fff"
         rx="6"
         ry="6"
         height="84"
         width="84"
         y="6"
         x="6" />
    </clipPath>
    <filter
       id="filter3794"
       height="1.384"
       width="1.384"
       color-interpolation-filters="sRGB"
       y="-.192"
       x="-.192">
      <feGaussianBlur
         id="feGaussianBlur3796"
         stdDeviation="5.28" />
    </filter>
    <linearGradient
       id="linearGradient3623"
       y2="138.66"
       gradientUnits="userSpaceOnUse"
       y1="20.221"
       x2="48"
       x1="48">
      <stop
         id="stop3739-0"
         style="stop-color:#fff"
         offset="0" />
      <stop
         id="stop3741-2"
         style="stop-color:#fff;stop-opacity:0"
         offset="1" />
    </linearGradient>
    <filter
       id="filter3174-5"
       color-interpolation-filters="sRGB">
      <feGaussianBlur
         id="feGaussianBlur3176-4"
         stdDeviation="1.71" />
    </filter>
    <linearGradient
       id="ButtonShadow-4"
       x1="45.448"
       gradientUnits="userSpaceOnUse"
       y1="92.54"
       gradientTransform="scale(1.0059 .99417)"
       x2="45.448"
       y2="7.0165">
      <stop
         id="stop3750-3"
         offset="0" />
      <stop
         id="stop3752-57"
         style="stop-opacity:.58824"
         offset="1" />
    </linearGradient>
    <linearGradient
       id="linearGradient4416-2-7"
       x1="48"
       gradientUnits="userSpaceOnUse"
       y1="16"
       x2="48"
       y2="80">
      <stop
         id="stop4283-9-1-5"
         style="stop-color:#1e1e1e"
         offset="0" />
      <stop
         id="stop4285-8-9-8"
         style="stop-color:#505050"
         offset="1" />
    </linearGradient>
  </defs>
  <rect
     id="rect892"
     style="stroke:url(#linearGradient3521);stroke-width:.97385;fill:url(#linearGradient3519)"
     transform="scale(1,-1)"
     ry="29.296"
     height="115.54"
     width="114.22"
     y="-122.25"
     x="7.0394" />
  <rect
     id="rect892-2"
     style="stroke:url(#linearGradient3516);stroke-width:.97385;fill:url(#linearGradient3514)"
     transform="scale(1,-1)"
     ry="28.993"
     height="114.35"
     width="114.22"
     y="-121.46"
     x="7.0599" />
  <path
     id="rect895"
     style="fill:url(#radialGradient3349)"
     d="m30.571 7.0104c-13.128 0.936-22.55 15.04-23.173 23.288-0.050142 0.97378-0.088772 1.9648-0.088772 2.9572v58.419c0 15.229 11.191 27.859 22.318 27.859h67.038c15.69 0 24.318-16.445 24.318-25.859v-64.017c-0.21-5.933-12.29-21.682-25.926-22.618-47.846 0.8653-20.497-0.0256-64.483-0.0256z" />
  <rect
     id="rect892-2-7-8"
     style="opacity:.15891;stroke:#000;stroke-width:4.8445;fill:none"
     transform="scale(1,-1)"
     ry="28.993"
     height="114.35"
     width="114.22"
     y="-121.16"
     x="6.8683" />
  <rect
     id="rect892-2-7-1"
     style="opacity:.15891;stroke:#000;stroke-width:7.7512;fill:none"
     transform="scale(1,-1)"
     ry="28.993"
     height="114.35"
     width="114.22"
     y="-121.16"
     x="6.8686" />
  <rect
     id="rect892-2-7-2-9"
     ry="28.067"
     style="stroke:#000;stroke-width:1.0489;fill:none"
     transform="scale(1,-1)"
     height="112.71"
     width="114.14"
     y="-120.31"
     x="7.0644" />
  <path
     id="path1187"
     style="fill:#fff;fill-opacity:.057143"
     d="m32.415 6.0906c-14.891-4.3298-32.779 19.454-27.93 26.295-0.04334 0.71563-0.07674 1.4439-0.07674 2.1732v10.76c25.899-25.61 66.753-35.479 90.375-39.179-0.22473-0.02628-0.45986-0.03062-0.69067-0.03062-41.576 0.38742-23.653-0.01876-61.677-0.01875z" />
  <g
     id="layer5"
     transform="matrix(1.2749 0 0 1.2634 3.2695 3.3707)">
    <rect
       id="rect3171"
       style="opacity:.3;filter:url(#filter3794);stroke:#fff;stroke-linecap:round;stroke-width:.5;fill:url(#linearGradient3623)"
       clip-path="url(#clipPath3613)"
       rx="12"
       ry="12"
       height="66"
       width="66"
       y="15"
       x="15" />
  </g>
  <g
     id="layer4-2"
     transform="translate(16.148 17.685)">
    <path
       id="rect4223-1"
       style="color:#000000;fill:url(#linearGradient4416-2-7)"
       d="m48 16c-2.216 0-4 1.784-4 4v24c0 2.216 1.784 4 4 4s4-1.784 4-4v-24c0-2.216-1.784-4-4-4zm11.688 7.1875a4.0004 4.0004 0 0 0 -1.688 7.5c9.607 5.546 12.859 17.705 7.312 27.312-5.546 9.607-17.705 12.859-27.312 7.312-9.607-5.546-12.859-17.705-7.312-27.312 1.755-3.041 4.271-5.557 7.312-7.312a4.004 4.004 0 0 0 -4 -6.938c-4.256 2.457-7.793 5.994-10.25 10.25-7.708 13.351-3.101 30.542 10.25 38.25s30.542 3.101 38.25-10.25 3.101-30.542-10.25-38.25a4.0004 4.0004 0 0 0 -2.3125 -0.5625z" />
    <path
       id="path4289"
       style="opacity:.6;color:#000000;fill:#fff"
       d="m55.969 27.625a4.0004 4.0004 0 0 0 2.031 4.063c6.353 3.6679 9.9118 10.23 10 17.031 0.266-7.151-3.337-14.185-10-18.031a4.0004 4.0004 0 0 1 -2.031 -3.063zm-16 0.1875a4.004 4.004 0 0 1 -1.969 2.876c-3.041 1.755-5.557 4.271-7.312 7.312-1.879 3.254-2.733 6.798-2.688 10.281 0.117-3.16 0.988-6.337 2.688-9.281 1.755-3.041 4.271-5.557 7.312-7.312a4.004 4.004 0 0 0 1.9688 -3.875zm4.031 16.188v1c0 2.216 1.784 4 4 4s4-1.784 4-4v-1c0 2.216-1.784 4-4 4s-4-1.784-4-4zm-23.969 4.594c-0.123 9.814 4.897 19.418 13.969 24.656 13.351 7.708 30.542 3.101 38.25-10.25 2.588-4.483 3.772-9.406 3.719-14.25-0.113 4.516-1.31 9.078-3.719 13.25-7.708 13.351-24.899 17.958-38.25 10.25-8.762-5.059-13.748-14.195-13.969-23.656z" />
    <path
       id="path4321-0"
       style="opacity:.1;color:#000000"
       d="m48 16c-2.6099-0.09191-4.3945 2.5544-4 4.9845 0.01371 7.8084-0.02742 15.618 0.02058 23.426 0.1602 3.2417 4.6387 4.8226 6.8104 2.4209 1.81-1.867 0.978-4.607 1.169-6.933-0.014-6.769 0.027-13.54-0.021-20.308-0.162-1.992-1.98-3.632-3.979-3.59zm0 2c2.1019-0.03411 2.098 2.2858 2 3.805-0.0258 7.5365 0.05162 15.078-0.03874 22.611-0.51 2.718-4.72 1.509-3.961-1.072 0.026-7.92-0.052-15.844 0.039-23.76 0.149-0.927 1.031-1.615 1.961-1.584zm11.688 5.1875c-3.3256 0.02315-5.0608 4.6143-2.5817 6.8313 3.2282 2.0501 6.3427 4.5135 8.2121 7.9407 4.6405 7.6695 3.1045 18.288-3.4048 24.419-6.3925 6.4467-17.282 7.4808-24.795 2.3955-7.8474-4.8478-11.287-15.489-7.7605-24.012 1.692-4.5118 5.1736-8.1392 9.2916-10.541 2.6076-2.0691 1.1443-6.7587-2.1772-6.9777-2.782-0.15191-4.8644 2.1813-6.9376 3.7076-8.209 7.012-11.572 18.991-8.279 29.26 3.054 10.465 12.755 18.536 23.608 19.606 11.04 1.344 22.549-4.582 27.738-14.446 5.556-9.899 4.105-23.073-3.354-31.602-2.341-2.632-5.079-5.105-8.354-6.474-0.393-0.097-0.802-0.133-1.206-0.107zm0.125 1.9688c1.7487 0.13966 3.0493 1.6437 4.4623 2.5499 9.1873 7.137 12.398 20.748 7.3303 31.227-4.495 10.07-15.898 16.383-26.824 14.878-10.932-1.189-20.404-10.077-22.312-20.904-2.233-10.601 3.096-22.161 12.53-27.439 1.69-1.1049 3.8812 1.1533 2.7188 2.8125-1.392 1.4058-3.3952 2.1603-4.7498 3.676-7.0859 6.4493-9.0517 17.699-4.5012 26.15 4.4599 8.9967 15.561 13.904 25.216 11.135 9.754-2.414 16.907-12.22 16.283-22.239-0.251-7.578-4.822-14.693-11.405-18.347-1.3283-1.1218-0.47947-3.4402 1.25-3.5z" />
    <path
       id="path4307-5"
       style="opacity:.2;color:#000000"
       d="m48 16c-2.6099-0.09191-4.3945 2.5544-4 4.9845 0.01371 7.8084-0.02742 15.618 0.02058 23.426 0.1602 3.2417 4.6387 4.8226 6.8104 2.4209 1.81-1.867 0.978-4.607 1.169-6.933-0.014-6.769 0.027-13.54-0.021-20.308-0.162-1.992-1.98-3.632-3.979-3.59zm0 0.96875c2.6578-0.07434 3.2722 2.7408 3.0312 4.8362-0.03994 7.6033 0.08018 15.214-0.06059 22.813-0.66278 3.9054-6.8654 2.526-6.0019-1.2742v-23.344c-0.048-1.637 1.393-3.079 3.031-3.031zm11.688 6.2188c-3.3256 0.02315-5.0608 4.6143-2.5817 6.8313 3.2282 2.0501 6.3427 4.5135 8.2121 7.9407 4.6405 7.6695 3.1045 18.288-3.4048 24.419-6.3925 6.4467-17.282 7.4808-24.795 2.3955-7.8474-4.8478-11.287-15.489-7.7605-24.012 1.692-4.5118 5.1736-8.1392 9.2916-10.541 2.6076-2.0691 1.1443-6.7587-2.1772-6.9777-2.782-0.15191-4.8644 2.1813-6.9376 3.7076-8.209 7.012-11.572 18.991-8.279 29.26 3.054 10.465 12.755 18.536 23.608 19.606 11.04 1.344 22.549-4.582 27.738-14.446 5.556-9.899 4.105-23.073-3.354-31.602-2.341-2.632-5.079-5.105-8.354-6.474-0.393-0.097-0.802-0.133-1.206-0.107zm0.0625 0.96875c2.1565 0.02689 3.7624 1.8379 5.4449 2.9758 8.9654 7.1957 12.31 20.4 7.8701 31-3.914 10.07-14.359 17.058-25.16 16.889-10.977 0.122-21.545-7.202-25.214-17.566-3.992-10.226-0.866-22.653 7.473-29.779 1.915-1.359 3.794-3.617 6.336-3.458 2.7267 0.30251 3.4663 4.3779 1.0312 5.625-8.22 4.5798-12.49 15.074-9.6544 24.077 2.6269 9.5795 12.763 16.263 22.602 14.91 9.532-0.961 17.594-9.235 18.396-18.767 0.932-8.21-3.59-16.568-10.813-20.502-2.219-1.606-1.052-5.323 1.688-5.406z" />
    <path
       id="path4298"
       style="opacity:.6;color:#000000"
       d="m48 16c-2.216 0-4 1.784-4 4v1c0-2.216 1.784-4 4-4s4 1.784 4 4v-1c0-2.216-1.784-4-4-4zm11.688 7.1875a4.0004 4.0004 0 0 0 -3.719 4.437 4.0004 4.0004 0 0 1 3.719 -3.437 4.0004 4.0004 0 0 1 2.312 0.562c8.762 5.059 13.748 14.195 13.969 23.656 0.123-9.814-4.897-19.418-13.969-24.656a4.0004 4.0004 0 0 0 -2.3125 -0.5625zm-24 0.03125a4.004 4.004 0 0 0 -1.688 0.531c-4.256 2.457-7.793 5.994-10.25 10.25-2.588 4.483-3.772 9.406-3.719 14.25 0.113-4.516 1.31-9.078 3.719-13.25 2.457-4.256 5.994-7.793 10.25-10.25a4.004 4.004 0 0 1 5.9688 2.875 4.004 4.004 0 0 0 -4.2812 -4.4062zm-7.688 25.062c-0.266 7.151 3.337 14.185 10 18.031 9.607 5.547 21.766 2.295 27.312-7.312 1.879-3.254 2.733-6.798 2.688-10.281-0.117 3.16-0.988 6.337-2.688 9.281-5.546 9.607-17.705 12.859-27.312 7.312-6.353-3.667-9.912-10.23-10-17.031z" />
  </g>
  <g
     id="layer2"
     style="display:none"
     transform="translate(137.63 15.959)">
    <rect
       id="rect3745"
       style="opacity:.9;filter:url(#filter3174-5);fill:url(#ButtonShadow-4)"
       rx="6"
       ry="6"
       height="85"
       width="86"
       y="7"
       x="5" />
  </g>
</svg>
