<?xml version="1.0" encoding="UTF-8" standalone="no"?>
<!-- Created with Inkscape (http://www.inkscape.org/) -->
<svg id="svg3449" xmlns:rdf="http://www.w3.org/1999/02/22-rdf-syntax-ns#" xmlns="http://www.w3.org/2000/svg" height="128" width="128" version="1.0" xmlns:cc="http://creativecommons.org/ns#" xmlns:xlink="http://www.w3.org/1999/xlink" xmlns:dc="http://purl.org/dc/elements/1.1/">
 <metadata id="metadata56">
  <rdf:RDF>
   <cc:Work rdf:about="">
    <dc:format>image/svg+xml</dc:format>
    <dc:type rdf:resource="http://purl.org/dc/dcmitype/StillImage"/>
    <dc:title/>
   </cc:Work>
  </rdf:RDF>
 </metadata>
 <defs id="defs3451">
  <linearGradient id="linearGradient3514" y2="-9.1034" gradientUnits="userSpaceOnUse" x2="66.492" gradientTransform="matrix(.96826 0 0 .97948 2.179 .16587)" y1="-42.638" x1="67.952">
   <stop id="stop4620" style="stop-color:#37414b" offset="0"/>
   <stop id="stop4622" style="stop-color:#37414b;stop-opacity:0" offset="1"/>
  </linearGradient>
  <linearGradient id="linearGradient3516" y2="-11.847" gradientUnits="userSpaceOnUse" x2="58.98" gradientTransform="matrix(.96826 0 0 .97948 2.179 .16587)" y1="-118.55" x1="57.173">
   <stop id="stop4596" offset="0"/>
   <stop id="stop4598" style="stop-opacity:0" offset="1"/>
  </linearGradient>
  <linearGradient id="linearGradient3519" y2="50.369" gradientUnits="userSpaceOnUse" x2="76.558" gradientTransform="matrix(.96826 0 0 .97948 3.2423 -129.19)" y1="13.164" x1="76.558">
   <stop id="stop3392" style="stop-color:#425e7b" offset="0"/>
   <stop id="stop3394" style="stop-color:#7a91a7" offset="1"/>
  </linearGradient>
  <linearGradient id="linearGradient3521" y2="-8.7399" gradientUnits="userSpaceOnUse" x2="60.217" gradientTransform="matrix(.96826 0 0 .97948 2.179 .16587)" y1="-123.72" x1="60.395">
   <stop id="stop3392-4-8" style="stop-color:#425e7b" offset="0"/>
   <stop id="stop3394-8-0" style="stop-color:#7a91a7" offset="1"/>
  </linearGradient>
  <radialGradient id="radialGradient3349" gradientUnits="userSpaceOnUse" cy="45.647" cx="42.148" gradientTransform="matrix(.94690 0 0 1.139 3.5954 -29.89)" r="58.984">
   <stop id="stop8006" style="stop-color:#ef916b" offset="0"/>
   <stop id="stop8008" style="stop-color:#db4916" offset="1"/>
  </radialGradient>
  <filter id="filter3174-1" color-interpolation-filters="sRGB">
   <feGaussianBlur id="feGaussianBlur3176-0" stdDeviation="1.71"/>
  </filter>
  <linearGradient id="ButtonShadow-9" x1="45.448" gradientUnits="userSpaceOnUse" y1="92.54" gradientTransform="scale(1.0059 .99417)" x2="45.448" y2="7.0165">
   <stop id="stop3750-6" offset="0"/>
   <stop id="stop3752-7" style="stop-opacity:.58824" offset="1"/>
  </linearGradient>
  <filter id="filter3174-9" color-interpolation-filters="sRGB">
   <feGaussianBlur id="feGaussianBlur3176-5" stdDeviation="1.71"/>
  </filter>
  <linearGradient id="linearGradient4238-5" y2="25" gradientUnits="userSpaceOnUse" x2="25" y1="57" x1="25">
   <stop id="stop3624-6-9-7-3-1" style="stop-color:#ba4712" offset="0"/>
   <stop id="stop3856-8-7-9-7-0" style="stop-color:#cf671c" offset=".5"/>
   <stop id="stop3626-0-8-7-8-5" style="stop-color:#e27f39" offset="1"/>
  </linearGradient>
  <filter id="filter3174-6" color-interpolation-filters="sRGB">
   <feGaussianBlur id="feGaussianBlur3176-1" stdDeviation="1.71"/>
  </filter>
 </defs>
 <rect id="rect892" style="stroke:url(#linearGradient3521);stroke-width:.97385;fill:url(#linearGradient3519)" transform="scale(1,-1)" ry="29.296" height="115.54" width="114.22" y="-122.25" x="7.0394"/>
 <rect id="rect892-2" style="stroke:url(#linearGradient3516);stroke-width:.97385;fill:url(#linearGradient3514)" transform="scale(1,-1)" ry="28.993" height="114.35" width="114.22" y="-121.46" x="7.0599"/>
 <path id="rect895" style="fill:url(#radialGradient3349)" d="m30.571 7.0104c-13.128 0.936-22.55 15.04-23.173 23.288-0.050142 0.97378-0.088772 1.9648-0.088772 2.9572v58.419c0 15.229 11.191 27.859 22.318 27.859h67.038c15.69 0 24.318-16.445 24.318-25.859v-64.017c-0.21-5.933-12.29-21.682-25.926-22.618-47.846 0.8653-20.497-0.0256-64.483-0.0256z"/>
 <rect id="rect892-2-7-8" style="opacity:.15891;stroke:#000;stroke-width:4.8445;fill:none" transform="scale(1,-1)" ry="28.993" height="114.35" width="114.22" y="-121.16" x="6.8683"/>
 <rect id="rect892-2-7-1" style="opacity:.15891;stroke:#000;stroke-width:7.7512;fill:none" transform="scale(1,-1)" ry="28.993" height="114.35" width="114.22" y="-121.16" x="6.8686"/>
 <rect id="rect892-2-7-2-9" ry="28.067" style="stroke:#000;stroke-width:1.0489;fill:none" transform="scale(1,-1)" height="112.71" width="114.14" y="-120.31" x="7.0644"/>
 <path id="path1187" style="fill:#fff;fill-opacity:.057143" d="m37.509 10.721c-14.891-4.3296-32.78 19.454-27.93 26.295-0.04334 0.71563-0.07674 1.4439-0.07674 2.1732v10.76c25.898-25.61 66.753-35.478 90.374-39.178-0.22473-0.02628-0.45986-0.03062-0.69067-0.03062-41.576 0.38742-23.653-0.01876-61.677-0.01875z"/>
 <g id="layer2" style="display:none" transform="translate(187.88 23.742)">
  <rect id="rect3745" style="opacity:.9;filter:url(#filter3174-1);fill:url(#ButtonShadow-9)" rx="6" ry="6" height="85" width="86" y="7" x="5"/>
 </g>
 <g id="layer2-2" style="display:none" transform="matrix(1.2166 0 0 1.2299 5.6049 3.1187)">
  <rect id="rect3745-5" style="opacity:.9;filter:url(#filter3174-9);fill:url(#ButtonShadow-9)" rx="6" ry="6" height="85" width="86" y="7" x="5"/>
 </g>
 <path id="path3397-3-2-5" style="opacity:.05;color:#000000;fill:url(#linearGradient4238-5)" d="m23.625 22.125a3.6626 3.6626 0 0 0 -2.7188 1.6875l-2.5 3.875-4.5312-1a3.6626 3.6626 0 0 0 -4.3438 4.375l1 4.4062-3.9062 2.4375a3.6626 3.6626 0 0 0 0 6.1875l3.9062 2.4375-1 4.4062a3.6626 3.6626 0 0 0 4.3438 4.375l4.5312-1 2.5 3.875a3.6626 3.6626 0 0 0 6.1875 0l2.5-3.875 4.5312 1a3.6626 3.6626 0 0 0 4.3438 -4.375l-1-4.4062 3.9062-2.4375a3.6626 3.6626 0 0 0 0 -6.1875l-3.9062-2.4375 1-4.4062a3.6626 3.6626 0 0 0 -4.344 -4.374l-4.5312 1-2.5-3.875a3.6626 3.6626 0 0 0 -3.469 -1.688zm0.375 15.094c0.2413 0.29026 0.47719 0.58429 0.71875 0.875a3.6626 3.6626 0 0 0 -0.719 1.312 3.6626 3.6626 0 0 0 -0.719 -1.312c0.242-0.291 0.478-0.585 0.719-0.875z" transform="translate(0,-16)"/>
 <g id="layer2-8" style="display:none" transform="matrix(1.2166 0 0 1.2299 162.3 9.178)">
  <rect id="rect3745-8" style="opacity:.9;filter:url(#filter3174-6);fill:url(#ButtonShadow-9)" rx="6" ry="6" height="85" width="86" y="7" x="5"/>
 </g>
 <path id="path5271" style="fill:#fff" d="m42.26 97.603c-14.271-6.814-18.5-30.557-9.014-50.603 4.334-9.157 14.245-18.928 22.254-21.938 5.3113-1.9967 7.3774-2.2085 18-1.8459 8.5301 0.29122 12.512 0.67967 15.102 2.0459 2.5898 1.3663 9.3909 8.5828 9.4223 9.5232 0.03137 0.94041 0.40542 2.357 0.87178 4.3636 1.3336 5.7384-0.03107 6.7227-4.7688 3.4395-5.9273-4.1076-10.731-5.4949-19.195-5.544-14.729-0.08542-23.332 4.7719-28.382 16.025-3.3628 7.4934-3.9295 18.38-1.228 23.593 3.8814 7.4896 10.691 9.2788 18.314 4.8117 5.667-3.322 8.672-8.745 11.345-20.474 1.1907-5.225 2.5725-10.512 3.0705-11.75 1.0773-2.6768 3.8024-2.8877 8.5013-0.65788 5.7492 2.7282 5.8735 3.2549 3.4245 14.512-2.5584 11.759-2.9136 19.063-1.0372 21.324 0.7258 0.87453 3.0612 1.8685 5.1898 2.2089 3.132 0.501 3.87 1.038 3.87 2.816 0 4.465-9.613 10.23-15.062 9.033-2.736-0.601-8.938-6.513-8.938-8.521 0-1.8173-2.6505-0.96616-5.0757 1.63-4.0287 4.3126-10.443 7.5041-16.127 8.0247-4.2559 0.38972-6.3271-0.0067-10.537-2.0167z"/>
</svg>
