<?xml version="1.0" encoding="UTF-8" standalone="no"?>
<!-- Created with Inkscape (http://www.inkscape.org/) -->

<svg
   xmlns:dc="http://purl.org/dc/elements/1.1/"
   xmlns:cc="http://creativecommons.org/ns#"
   xmlns:rdf="http://www.w3.org/1999/02/22-rdf-syntax-ns#"
   xmlns:svg="http://www.w3.org/2000/svg"
   xmlns="http://www.w3.org/2000/svg"
   xmlns:sodipodi="http://sodipodi.sourceforge.net/DTD/sodipodi-0.dtd"
   xmlns:inkscape="http://www.inkscape.org/namespaces/inkscape"
   id="svg3449"
   height="128"
   width="128"
   version="1.0"
   inkscape:version="0.48.4 r9939"
   sodipodi:docname="alarm.svg">
  <sodipodi:namedview
     pagecolor="#ffffff"
     bordercolor="#666666"
     borderopacity="1"
     objecttolerance="10"
     gridtolerance="10"
     guidetolerance="10"
     inkscape:pageopacity="0"
     inkscape:pageshadow="2"
     inkscape:window-width="1360"
     inkscape:window-height="707"
     id="namedview29"
     showgrid="false"
     inkscape:zoom="3.6875"
     inkscape:cx="37.73479"
     inkscape:cy="58.09649"
     inkscape:window-x="-2"
     inkscape:window-y="33"
     inkscape:window-maximized="1"
     inkscape:current-layer="svg3449" />
  <metadata
     id="metadata56">
    <rdf:RDF>
      <cc:Work
         rdf:about="">
        <dc:format>image/svg+xml</dc:format>
        <dc:type
           rdf:resource="http://purl.org/dc/dcmitype/StillImage" />
        <dc:title />
      </cc:Work>
    </rdf:RDF>
  </metadata>
  <defs
     id="defs3451">
    <linearGradient
       id="linearGradient3514"
       y2="-9.1034"
       gradientUnits="userSpaceOnUse"
       x2="66.492"
       gradientTransform="matrix(.96826 0 0 .97948 2.179 .16587)"
       y1="-42.638"
       x1="67.952">
      <stop
         id="stop4620"
         style="stop-color:#37414b"
         offset="0" />
      <stop
         id="stop4622"
         style="stop-color:#37414b;stop-opacity:0"
         offset="1" />
    </linearGradient>
    <linearGradient
       id="linearGradient3516"
       y2="-11.847"
       gradientUnits="userSpaceOnUse"
       x2="58.98"
       gradientTransform="matrix(.96826 0 0 .97948 2.179 .16587)"
       y1="-118.55"
       x1="57.173">
      <stop
         id="stop4596"
         offset="0" />
      <stop
         id="stop4598"
         style="stop-opacity:0"
         offset="1" />
    </linearGradient>
    <linearGradient
       id="linearGradient3519"
       y2="50.369"
       gradientUnits="userSpaceOnUse"
       x2="76.558"
       gradientTransform="matrix(.96826 0 0 .97948 3.2423 -129.19)"
       y1="13.164"
       x1="76.558">
      <stop
         id="stop3392"
         style="stop-color:#425e7b"
         offset="0" />
      <stop
         id="stop3394"
         style="stop-color:#7a91a7"
         offset="1" />
    </linearGradient>
    <linearGradient
       id="linearGradient3521"
       y2="-8.7399"
       gradientUnits="userSpaceOnUse"
       x2="60.217"
       gradientTransform="matrix(.96826 0 0 .97948 2.179 .16587)"
       y1="-123.72"
       x1="60.395">
      <stop
         id="stop3392-4-8"
         style="stop-color:#425e7b"
         offset="0" />
      <stop
         id="stop3394-8-0"
         style="stop-color:#7a91a7"
         offset="1" />
    </linearGradient>
    <radialGradient
       id="radialGradient3349"
       gradientUnits="userSpaceOnUse"
       cy="45.647"
       cx="42.148"
       gradientTransform="matrix(.94690 0 0 1.139 3.5954 -29.89)"
       r="58.984">
      <stop
         id="stop2699-5"
         style="stop-color:#9cbbd9"
         offset="0" />
      <stop
         id="stop2701-7"
         style="stop-color:#5c82ab"
         offset="1" />
    </radialGradient>
  </defs>
  <rect
     id="rect892"
     style="stroke:url(#linearGradient3521);stroke-width:.97385;fill:url(#linearGradient3519)"
     transform="scale(1,-1)"
     ry="29.296"
     height="115.54"
     width="114.22"
     y="-122.25"
     x="7.0394" />
  <rect
     id="rect892-2"
     style="stroke:url(#linearGradient3516);stroke-width:.97385;fill:url(#linearGradient3514)"
     transform="scale(1,-1)"
     ry="28.993"
     height="114.35"
     width="114.22"
     y="-121.46"
     x="7.0599" />
  <path
     id="rect895"
     style="fill:url(#radialGradient3349)"
     d="m33.051 7.2596c-7.969-2.4493-27.013 15.174-25.653 23.038-0.050142 0.97378-0.088772 1.9648-0.088772 2.9572v52.419c0 20.876 10.712 33.859 22.318 33.859h67.038c12.638 0 24.318-11.245 24.318-25.859v-64.017c0.7-10.928-21.283-24.659-25.926-22.618-47.846 0.8653-18.017 0.2236-62.003 0.2236z" />
  <rect
     id="rect892-2-7-8"
     style="opacity:.15891;stroke:#000;stroke-width:4.8445;fill:none"
     transform="scale(1,-1)"
     ry="28.993"
     height="114.35"
     width="114.22"
     y="-121.16"
     x="6.8687" />
  <rect
     id="rect892-2-7-1"
     style="opacity:.15891;stroke:#000;stroke-width:7.7512;fill:none"
     transform="scale(1,-1)"
     ry="28.993"
     height="114.35"
     width="114.22"
     y="-121.16"
     x="6.8687" />
  <rect
     id="rect892-2-7-2-9"
     ry="28.067"
     style="stroke:#000;stroke-width:1.0489;fill:none"
     transform="scale(1,-1)"
     height="112.71"
     width="114.14"
     y="-120.31"
     x="7.0649" />
  <path
     id="path1187"
     style="fill:#fff;fill-opacity:.057143"
     d="m33.017 7.2319c-23.707 0-26.027 0.6738-25.93 26.295-0.04334 0.71563-0.07674 1.4439-0.07674 2.1732v32.76c18.67-38.321 38.34-51.497 90.374-61.179-0.225-0.026-0.46-0.0303-0.691-0.0303-41.576 0.3874-25.652-0.0188-63.676-0.0188z" />
  <path
     style="fill:#ffffff;fill-opacity:1"
     d="M 41.90625 16.9375 C 40.129571 16.9251 38.185032 17.13075 36.9375 17.53125 L 35.46875 18 L 35 17.5625 C 33.891345 16.52097 32.201895 17.49168 32.71875 18.875 C 32.874231 19.29113 32.693365 19.5565 31.28125 20.9375 C 28.838309 23.32662 27.492415 25.78615 26.875 29 C 26.496383 30.97088 26.497245 32.4008 26.875 34.375 C 27.213232 36.14271 28.182278 38.72909 28.5625 38.875 C 28.701671 38.9284 31.371195 37.49087 34.5 35.6875 C 37.628805 33.88413 40.291264 32.46018 40.40625 32.53125 C 40.52124 32.60235 40.779678 32.94688 40.96875 33.3125 C 41.362277 34.0735 41.553778 33.86907 39 35.71875 C 37.15405 37.05575 33.306525 40.76581 31.625 42.84375 C 27.581092 47.84099 24.624815 54.09164 23.25 60.59375 C 22.505714 64.11382 22.311966 70.89091 22.84375 74.53125 C 24.26437 84.25617 28.821573 92.92661 35.90625 99.40625 C 36.854067 100.27312 37.624936 101.0994 37.625 101.25 C 37.625062 101.40063 37.010031 102.66453 36.25 104.03125 C 34.810106 106.62052 34.612145 107.41283 35.09375 108.6875 C 35.389793 109.47104 36.294875 110.40989 37.09375 110.78125 C 37.468338 110.95536 38.197225 111.07403 38.84375 111.03125 C 40.396469 110.92854 41.159387 110.24035 42.65625 107.6875 C 43.344057 106.51448 44.026272 105.56471 44.15625 105.5625 C 44.286221 105.5595 45.173038 105.94547 46.15625 106.40625 C 51.986867 109.13856 57.330333 110.28125 64 110.28125 C 70.669671 110.28125 76.013132 109.13856 81.84375 106.40625 C 82.82696 105.94547 83.713773 105.56029 83.84375 105.5625 C 83.973723 105.5655 84.655944 106.51448 85.34375 107.6875 C 86.031557 108.86055 86.898339 110.08295 87.28125 110.375 C 89.635116 112.17038 93.125 110.33702 93.125 107.3125 C 93.125 106.71337 92.773363 105.87151 91.75 104.03125 C 90.989972 102.66453 90.374932 101.40063 90.375 101.25 C 90.375057 101.0994 91.145938 100.27312 92.09375 99.40625 C 99.178427 92.92661 103.73565 84.25617 105.15625 74.53125 C 105.68805 70.89091 105.49428 64.11382 104.75 60.59375 C 103.46916 54.53612 100.9562 48.98342 97.3125 44.0625 C 95.444866 41.5402 91.531708 37.59375 88.96875 35.6875 C 87.751633 34.78223 86.749493 34.00572 86.75 33.9375 C 86.7523 33.56732 87.656284 32.4137 87.875 32.5 C 88.016379 32.5558 90.617954 34.02816 93.65625 35.78125 C 96.694563 37.53434 99.298288 38.92841 99.4375 38.875 C 99.817768 38.72907 100.78675 36.14284 101.125 34.375 C 102.0722 29.42465 100.4949 24.63045 96.71875 20.9375 C 95.306638 19.5565 95.125766 19.29113 95.28125 18.875 C 95.798102 17.49165 94.108659 16.52097 93 17.5625 L 92.53125 18 L 91.0625 17.53125 C 89.066451 16.89045 85.295183 16.71521 83.28125 17.1875 C 81.358109 17.6385 79.075943 18.72723 77.4375 19.96875 C 76.006489 21.05309 73.740574 23.76481 73.90625 24.1875 C 73.96162 24.32879 76.493583 25.88304 79.53125 27.625 C 83.426802 29.85892 85.0625 30.89511 85.0625 31.15625 C 85.0625 31.35988 84.875517 31.76046 84.65625 32.03125 L 84.25 32.5 L 81.875 31.375 C 77.40394 29.2778 72.481015 28.30788 67.75 27.5625 C 65.096321 27.14441 62.321031 27.37792 60.25 27.5625 C 55.478537 27.97633 50.596082 29.2778 46.125 31.375 L 43.75 32.5 L 43.34375 32.03125 C 43.124478 31.76046 42.9375 31.35988 42.9375 31.15625 C 42.9375 30.89511 44.573196 29.85892 48.46875 27.625 C 51.506419 25.88304 54.038372 24.32879 54.09375 24.1875 C 54.259425 23.76481 51.99351 21.05309 50.5625 19.96875 C 48.924053 18.72723 46.641891 17.6385 44.71875 17.1875 C 43.963523 17.01039 42.972255 16.94492 41.90625 16.9375 z M 62.09375 33.8125 C 62.234572 34.99888 61.982561 36.215499 62.28125 37.375 C 62.826524 38.869043 65.179435 38.874972 65.71875 37.375 C 66.014148 36.217095 65.797513 34.997272 65.875 33.8125 C 66.231047 33.825104 66.560709 33.855092 66.90625 33.875 C 70.9321 34.223738 74.912257 35.21414 78.59375 36.875 C 79.164555 37.132511 79.725299 37.430465 80.28125 37.71875 C 79.688302 38.530987 79.350008 39.803124 80.375 40.4375 C 81.437204 41.125419 82.519382 40.22553 82.96875 39.25 C 83.184594 39.388161 83.412417 39.513595 83.625 39.65625 C 84.188428 40.034342 84.741617 40.434862 85.28125 40.84375 C 85.459968 40.98043 85.636364 41.110104 85.8125 41.25 C 85.988218 41.388457 86.170771 41.51455 86.34375 41.65625 C 86.755701 41.995803 87.165833 42.361822 87.5625 42.71875 C 88.035692 43.144537 88.487078 43.581777 88.9375 44.03125 C 89.4779 44.572404 89.995759 45.111877 90.5 45.6875 C 90.534498 45.726469 90.559417 45.773385 90.59375 45.8125 C 91.061559 46.351324 91.534044 46.901426 91.96875 47.46875 C 92.434976 48.077211 92.886144 48.704082 93.3125 49.34375 C 93.446697 49.545088 93.557373 49.764426 93.6875 49.96875 C 93.078795 50.371317 92.225188 50.818665 92.34375 51.6875 C 92.239463 52.407842 92.80429 53.034959 93.46875 53.21875 C 94.113019 53.3561 94.688929 52.942827 95.25 52.6875 C 96.08112 54.294271 96.795057 55.940152 97.375 57.6875 C 97.881255 59.212828 98.292233 60.733208 98.59375 62.25 C 98.657908 62.57626 98.724948 62.891108 98.78125 63.21875 C 98.812778 63.403718 98.846523 63.596395 98.875 63.78125 C 98.889711 63.8743 98.892151 63.96937 98.90625 64.0625 C 99.044071 65.008705 99.129688 65.962794 99.1875 66.90625 C 98.082045 67.066932 96.95183 66.86436 95.84375 67 C 94.541647 67.302366 93.989975 69.099079 94.9375 70.0625 C 96.038425 71.269667 97.943354 70.299533 99.21875 70.84375 C 99.20971 71.000581 99.198767 71.155728 99.1875 71.3125 C 99.151482 71.813648 99.090026 72.311932 99.03125 72.8125 C 98.913698 73.813635 98.73984 74.813411 98.53125 75.8125 C 98.426955 76.312044 98.314557 76.813398 98.1875 77.3125 C 98.060443 77.811602 97.931069 78.313795 97.78125 78.8125 C 97.481611 79.809911 97.140696 80.8164 96.75 81.8125 C 96.54824 82.326899 96.31748 82.813641 96.09375 83.3125 C 95.97083 83.58279 95.848519 83.857698 95.71875 84.125 C 95.579641 84.414247 95.459527 84.715717 95.3125 85 C 94.633143 84.64724 93.767221 84.139091 93.03125 84.6875 C 92.28634 85.075832 92.178199 86.050409 92.5 86.75 C 92.815857 87.168025 93.303672 87.377753 93.71875 87.6875 C 93.660635 87.777785 93.621558 87.878939 93.5625 87.96875 C 93.245374 88.45101 92.907261 88.905733 92.5625 89.375 C 91.602888 90.681164 90.559415 91.965734 89.375 93.1875 C 89.261728 93.303922 89.146028 93.416298 89.03125 93.53125 C 88.483005 94.083297 87.909594 94.587097 87.34375 95.09375 C 86.929783 95.460843 86.523647 95.807623 86.09375 96.15625 C 86.082377 96.165552 86.07388 96.178215 86.0625 96.1875 C 85.647892 96.522941 85.209941 96.869862 84.78125 97.1875 C 84.7104 97.239996 84.633724 97.29175 84.5625 97.34375 C 84.471877 97.409917 84.372334 97.4661 84.28125 97.53125 C 83.856526 97.83545 83.437335 98.11994 83 98.40625 C 82.547095 97.831162 82.203412 96.924532 81.3125 97.03125 C 80.567591 96.912675 79.872238 97.499765 79.6875 98.1875 C 79.529579 98.851519 79.990772 99.396616 80.25 99.96875 C 75.79842 102.26613 70.871854 103.54596 65.875 103.875 C 65.77966 102.68333 66.015188 101.51172 65.75 100.34375 C 65.25538 98.920852 63.063297 98.753854 62.375 100.09375 C 61.850379 101.28049 62.335196 102.62065 62.09375 103.875 C 61.518897 103.84403 60.946514 103.80808 60.375 103.75 C 60.323235 103.74474 60.270484 103.75548 60.21875 103.75 C 60.198242 103.74736 60.176756 103.75267 60.15625 103.75 C 55.843786 103.18878 51.603779 101.99268 47.75 99.96875 C 48.101598 99.286934 48.604794 98.450949 48.0625 97.71875 C 47.672167 96.980621 46.703195 96.894027 46 97.1875 C 45.559014 97.504688 45.341133 97.976416 45.03125 98.40625 C 44.496032 98.06016 43.95349 97.717454 43.4375 97.34375 C 43.124895 97.117347 42.805223 96.892401 42.5 96.65625 C 42.424719 96.597353 42.356215 96.528383 42.28125 96.46875 C 41.738825 96.037263 41.213947 95.595325 40.6875 95.125 C 40.616581 95.061641 40.539389 95.001569 40.46875 94.9375 C 39.961454 94.482872 39.450216 94.012919 38.96875 93.53125 C 38.947668 93.510022 38.927307 93.490046 38.90625 93.46875 C 38.812675 93.374114 38.717162 93.282569 38.625 93.1875 C 38.289063 92.842511 37.978536 92.482631 37.65625 92.125 C 37.259404 91.684358 36.868518 91.263622 36.5 90.8125 C 36.494758 90.806104 36.505238 90.787649 36.5 90.78125 C 36.126875 90.323867 35.78226 89.844267 35.4375 89.375 C 35.09274 88.905733 34.754626 88.45101 34.4375 87.96875 C 34.378442 87.878939 34.339365 87.777785 34.28125 87.6875 C 34.856115 87.245926 35.781015 86.897644 35.6875 86.03125 C 35.803706 85.304979 35.229939 84.698613 34.5625 84.5 C 33.886122 84.325103 33.26853 84.739136 32.6875 85 C 32.40202 84.448013 32.130851 83.883541 31.875 83.3125 C 31.649915 82.817816 31.454 82.316303 31.25 81.8125 C 31.220845 81.738167 31.184898 81.668089 31.15625 81.59375 C 30.033195 78.679534 29.312632 75.741197 28.96875 72.8125 C 28.958933 72.728893 28.946682 72.646123 28.9375 72.5625 C 28.934828 72.531594 28.940068 72.499668 28.9375 72.46875 C 28.888571 71.879765 28.854012 71.280378 28.84375 70.6875 C 30.008789 70.63118 31.233798 70.81583 32.375 70.53125 C 33.903555 69.997664 33.875277 67.60955 32.34375 67.09375 C 31.205528 66.835849 30.005809 67.022106 28.84375 66.96875 C 28.853038 66.48329 28.871324 66.015207 28.90625 65.53125 C 28.912349 65.446735 28.930638 65.365704 28.9375 65.28125 C 29.212513 62.761599 29.781243 60.229713 30.625 57.6875 C 31.204944 55.940152 31.918879 54.294271 32.75 52.6875 C 33.609178 53.282173 34.97719 53.537039 35.53125 52.4375 C 36.073108 51.376727 35.232604 50.410396 34.3125 49.96875 C 34.442627 49.764426 34.553303 49.545088 34.6875 49.34375 C 35.113856 48.704082 35.565024 48.077211 36.03125 47.46875 C 36.465956 46.901426 36.938441 46.351324 37.40625 45.8125 C 37.459639 45.751007 37.508691 45.686112 37.5625 45.625 C 38.051023 45.077526 38.541956 44.548807 39.0625 44.03125 C 39.914498 43.184141 40.819097 42.385681 41.75 41.625 C 41.869938 41.526994 41.972583 41.408999 42.09375 41.3125 C 42.397223 41.071809 42.719729 40.85582 43.03125 40.625 C 43.328388 40.403234 43.633756 40.18148 43.9375 39.96875 C 44.145872 39.824298 44.350877 39.67133 44.5625 39.53125 C 44.713729 39.431146 44.87839 39.347845 45.03125 39.25 C 45.446318 39.846361 45.84374 40.758837 46.71875 40.65625 C 47.672235 40.804469 48.521075 39.750848 48.3125 38.84375 C 48.166498 38.434667 47.946656 38.107083 47.75 37.71875 C 48.303468 37.427501 48.869158 37.132869 49.4375 36.875 C 53.008863 35.254593 56.848245 34.292801 60.75 33.875 C 61.194011 33.845918 61.630476 33.829199 62.09375 33.8125 z M 63.84375 45.5625 C 63.220586 45.63962 62.674464 46.173308 62.6875 46.8125 C 62.6825 53.255066 62.6975 59.716155 62.6875 66.15625 C 62.24552 66.482331 61.866459 66.851417 61.53125 67.28125 C 57.734693 67.26149 53.921557 67.29115 50.125 67.28125 C 49.521623 67.28815 48.793603 67.343831 48.40625 67.875 C 48.125667 68.351769 47.898439 68.952455 48.21875 69.46875 C 48.4894 70.086327 49.21306 70.331398 49.84375 70.34375 C 53.732179 70.3561 57.642821 70.34817 61.53125 70.375 C 62.032822 71.33595 63.194712 71.841402 64.25 71.75 C 65.814311 71.66848 67.131177 70.142634 66.9375 68.59375 C 66.93 67.571042 66.111007 66.81323 65.34375 66.25 C 65.30899 59.782731 65.36113 53.279769 65.34375 46.8125 C 65.35125 46.303616 64.930594 45.843994 64.46875 45.65625 C 64.270728 45.55929 64.051471 45.536796 63.84375 45.5625 z "
     id="path4781" />
</svg>
