<?xml version="1.0" encoding="UTF-8" standalone="no"?>
<!-- Created with Inkscape (http://www.inkscape.org/) -->
<svg id="svg3449" xmlns:rdf="http://www.w3.org/1999/02/22-rdf-syntax-ns#" xmlns="http://www.w3.org/2000/svg" height="128" width="128" version="1.0" xmlns:cc="http://creativecommons.org/ns#" xmlns:xlink="http://www.w3.org/1999/xlink" xmlns:dc="http://purl.org/dc/elements/1.1/">
 <metadata id="metadata56">
  <rdf:RDF>
   <cc:Work rdf:about="">
    <dc:format>image/svg+xml</dc:format>
    <dc:type rdf:resource="http://purl.org/dc/dcmitype/StillImage"/>
    <dc:title/>
   </cc:Work>
  </rdf:RDF>
 </metadata>
 <defs id="defs3451">
  <linearGradient id="linearGradient3514" y2="-9.1034" gradientUnits="userSpaceOnUse" x2="66.492" gradientTransform="matrix(.96826 0 0 .97948 2.179 .16587)" y1="-42.638" x1="67.952">
   <stop id="stop4620" style="stop-color:#37414b" offset="0"/>
   <stop id="stop4622" style="stop-color:#37414b;stop-opacity:0" offset="1"/>
  </linearGradient>
  <linearGradient id="linearGradient3516" y2="-11.847" gradientUnits="userSpaceOnUse" x2="58.98" gradientTransform="matrix(.96826 0 0 .97948 2.179 .16587)" y1="-118.55" x1="57.173">
   <stop id="stop4596" offset="0"/>
   <stop id="stop4598" style="stop-opacity:0" offset="1"/>
  </linearGradient>
  <linearGradient id="linearGradient3519" y2="50.369" gradientUnits="userSpaceOnUse" x2="76.558" gradientTransform="matrix(.96826 0 0 .97948 3.2423 -129.19)" y1="13.164" x1="76.558">
   <stop id="stop3392" style="stop-color:#425e7b" offset="0"/>
   <stop id="stop3394" style="stop-color:#7a91a7" offset="1"/>
  </linearGradient>
  <linearGradient id="linearGradient3521" y2="-8.7399" gradientUnits="userSpaceOnUse" x2="60.217" gradientTransform="matrix(.96826 0 0 .97948 2.179 .16587)" y1="-123.72" x1="60.395">
   <stop id="stop3392-4-8" style="stop-color:#425e7b" offset="0"/>
   <stop id="stop3394-8-0" style="stop-color:#7a91a7" offset="1"/>
  </linearGradient>
  <radialGradient id="radialGradient3349" gradientUnits="userSpaceOnUse" cy="47.837" cx="42.674" gradientTransform="matrix(.94690 0 0 1.139 3.5954 -29.89)" r="58.984">
   <stop id="stop3955" style="stop-color:#5b716d" offset="0"/>
   <stop id="stop3957" style="stop-color:#404f4c" offset="1"/>
  </radialGradient>
  <filter id="filter3174" color-interpolation-filters="sRGB">
   <feGaussianBlur id="feGaussianBlur3176" stdDeviation="1.71"/>
  </filter>
  <linearGradient id="ButtonShadow-1" x1="45.448" gradientUnits="userSpaceOnUse" y1="92.54" gradientTransform="scale(1.0059 .99417)" x2="45.448" y2="7.0165">
   <stop id="stop3750-0" offset="0"/>
   <stop id="stop3752-4" style="stop-opacity:.58824" offset="1"/>
  </linearGradient>
  <linearGradient id="linearGradient6048" y2="514.3" gradientUnits="userSpaceOnUse" x2="418.63" gradientTransform="matrix(2.6667 0 0 2.6667 -1225.2 -1349.6)" y1="533.49" x1="418.63">
   <stop id="stop4099" style="stop-color:#d8e0de" offset="0"/>
   <stop id="stop4101" style="stop-color:#f9fbfa" offset="1"/>
  </linearGradient>
 </defs>
 <rect id="rect892" style="stroke:url(#linearGradient3521);stroke-width:.97385;fill:url(#linearGradient3519)" transform="scale(1,-1)" ry="29.296" height="115.54" width="114.22" y="-122.25" x="7.0394"/>
 <rect id="rect892-2" style="stroke:url(#linearGradient3516);stroke-width:.97385;fill:url(#linearGradient3514)" transform="scale(1,-1)" ry="28.993" height="114.35" width="114.22" y="-121.46" x="7.0599"/>
 <path id="rect895" style="fill:url(#radialGradient3349)" d="m33.051 7.2596c-7.969-2.4493-27.013 15.174-25.653 23.038-0.050142 0.97378-0.088772 1.9648-0.088772 2.9572v52.419c0 20.876 10.712 33.859 22.318 33.859h67.038c12.638 0 24.318-11.245 24.318-25.859v-64.017c0.7-10.928-21.283-24.659-25.926-22.618-47.846 0.8653-18.017 0.2236-62.003 0.2236z"/>
 <rect id="rect892-2-7-8" style="opacity:.15891;stroke:#000;stroke-width:4.8445;fill:none" transform="scale(1,-1)" ry="28.993" height="114.35" width="114.22" y="-121.16" x="6.8687"/>
 <rect id="rect892-2-7-1" style="opacity:.15891;stroke:#000;stroke-width:7.7512;fill:none" transform="scale(1,-1)" ry="28.993" height="114.35" width="114.22" y="-121.16" x="6.8687"/>
 <rect id="rect892-2-7-2-9" ry="28.067" style="stroke:#000;stroke-width:1.0489;fill:none" transform="scale(1,-1)" height="112.71" width="114.14" y="-120.31" x="7.0649"/>
 <path id="path1187" style="fill:#fff;fill-opacity:.057143" d="m33.017 7.2319c-23.707 0-26.027 0.6738-25.93 26.295-0.04334 0.71563-0.07674 1.4439-0.07674 2.1732v32.76c18.67-38.321 38.34-51.497 90.374-61.179-0.225-0.026-0.46-0.0303-0.691-0.0303-41.576 0.3874-25.652-0.0188-63.676-0.0188z"/>
 <g id="layer2" style="display:none" transform="translate(148.5 -54.67)">
  <rect id="rect3745" style="opacity:.9;filter:url(#filter3174);fill:url(#ButtonShadow-1)" rx="6" ry="6" height="85" width="86" y="7" x="5"/>
 </g>
 <g id="g6040" transform="matrix(.89285 0 0 .89285 185.29 19.619)">
  <path id="path4109" style="fill-opacity:.058824" d="m-191.4 74.811c-0.1744-0.77187-0.28579-2.6458-0.27622-4.6593 0.008-2.9046 0.0971-3.6765 0.61315-5.6083 3.1956-11.981 16.266-22.323 33.903-26.825 1.8742-0.47837 3.6854-0.93171 4.0251-1.0073l0.61741-0.13787v-5.147c0-2.978 0.0893-5.2021 0.21173-5.2778 0.62419-0.38581 10.864-1.4675 13.891-1.4675h1.1661v5.1294 5.1295l4.3225 0.14c16.099 0.52067 30.69 5.1653 40.845 13.002 5.9632 4.6018 10.209 10.529 11.791 16.462 0.51523 1.9317 0.59952 2.7037 0.61307 5.6083 0.0053 2.0134-0.1016 3.8874-0.27627 4.6592l-0.29219 1.291h-26.929-26.929v-14.518-14.518l2.9752 0.14587c4.027 0.19733 7.526 0.72499 11.003 1.6573l1.2911 0.34635v7.7172 7.7172h9.3364 9.3364l-0.1432-0.72976c-0.26925-1.3751-1.2944-4.3225-1.9715-5.6698-4.6651-9.2816-15.368-14.246-31.325-14.53l-3.6519-0.0656 0.005 16.223 0.005 16.223h-26.932-26.932l-0.29221-1.2911zm38.882-19.592c0-5.5932-0.084-9.4309-0.20693-9.4309-0.11307 0-1.0988 0.31456-2.1893 0.69944-6.5702 2.3179-11.461 6.3809-14.161 11.763-0.72701 1.4493-1.7381 4.3095-1.9808 5.6028l-0.15013 0.79664h9.3435 9.3436v-9.4308z"/>
  <path id="path4107" d="m-191.4 73.744c-0.1744-0.77187-0.28579-2.6458-0.27622-4.6593 0.008-2.9046 0.0971-3.6765 0.61315-5.6083 3.1956-11.981 16.266-22.323 33.903-26.825 1.8742-0.47837 3.6854-0.93171 4.0251-1.0073l0.61741-0.13787v-5.147c0-2.978 0.0893-5.2021 0.21173-5.2778 0.62419-0.38581 10.864-1.4675 13.891-1.4675h1.1661v5.1294 5.1295l4.3225 0.14c16.099 0.52067 30.69 5.1653 40.845 13.002 5.9632 4.6018 10.209 10.529 11.791 16.462 0.51523 1.9317 0.59952 2.7037 0.61307 5.6083 0.0053 2.0134-0.1016 3.8874-0.27627 4.6592l-0.29219 1.291h-26.929-26.929v-14.518-14.518l2.9752 0.14587c4.027 0.19733 7.526 0.72499 11.003 1.6573l1.2911 0.34635v7.7172 7.7172h9.3364 9.3364l-0.1432-0.72976c-0.26925-1.3751-1.2944-4.3225-1.9715-5.6698-4.6651-9.2816-15.368-14.246-31.325-14.53l-3.6519-0.0656 0.005 16.223 0.005 16.223h-26.932-26.932l-0.29221-1.2911zm38.882-19.592c0-5.5932-0.084-9.4309-0.20693-9.4309-0.11307 0-1.0988 0.31456-2.1893 0.69944-6.5702 2.3179-11.461 6.3809-14.161 11.763-0.72701 1.4493-1.7381 4.3095-1.9808 5.6028l-0.15013 0.79664h9.3435 9.3436v-9.4308z" style="fill-opacity:.11765"/>
  <path id="path4103" style="fill-opacity:.23529" d="m-191.4 72.677c-0.1744-0.77187-0.28579-2.6458-0.27622-4.6593 0.008-2.9046 0.0971-3.6765 0.61315-5.6083 3.1956-11.981 16.266-22.323 33.903-26.825 1.8742-0.47837 3.6854-0.93171 4.0251-1.0073l0.61741-0.13787v-5.147c0-2.978 0.0893-5.2021 0.21173-5.2778 0.62419-0.38581 10.864-1.4675 13.891-1.4675h1.1661v5.1294 5.1295l4.3225 0.14c16.099 0.52067 30.69 5.1653 40.845 13.002 5.9632 4.6018 10.209 10.529 11.791 16.462 0.51523 1.9317 0.59952 2.7037 0.61307 5.6083 0.0053 2.0134-0.1016 3.8874-0.27627 4.6593l-0.29219 1.291h-26.929-26.929v-14.518-14.518l2.9752 0.14587c4.027 0.19733 7.526 0.72499 11.003 1.6573l1.2911 0.34635v7.7172 7.7172h9.3364 9.3364l-0.1432-0.72976c-0.26925-1.3751-1.2944-4.3225-1.9715-5.6698-4.6651-9.2816-15.368-14.246-31.325-14.53l-3.6519-0.0656 0.005 16.223 0.005 16.223h-26.932-26.932l-0.29221-1.2911zm38.882-19.592c0-5.5932-0.084-9.4309-0.20693-9.4309-0.11307 0-1.0988 0.31456-2.1893 0.69944-6.5702 2.3179-11.461 6.3809-14.161 11.763-0.72701 1.4493-1.7381 4.3095-1.9808 5.6028l-0.15013 0.79664h9.3435 9.3436v-9.4308z"/>
  <path id="path3268" d="m-191.4 71.612c-0.1744-0.77187-0.28579-2.6458-0.27622-4.6593 0.008-2.9046 0.0971-3.6765 0.61315-5.6083 3.1956-11.981 16.266-22.323 33.903-26.825 1.8742-0.47837 3.6854-0.93171 4.0251-1.0073l0.61741-0.13787v-5.147c0-2.978 0.0893-5.2021 0.21173-5.2778 0.62419-0.38581 10.864-1.4675 13.891-1.4675h1.1661v5.1294 5.1295l4.3225 0.14c16.099 0.52067 30.69 5.1653 40.845 13.002 5.9632 4.6018 10.209 10.529 11.791 16.462 0.51523 1.9317 0.59952 2.7037 0.61307 5.6083 0.0053 2.0134-0.1016 3.8874-0.27627 4.6592l-0.29219 1.291h-26.929-26.929v-14.518-14.518l2.9752 0.14587c4.027 0.19733 7.526 0.72499 11.003 1.6573l1.2911 0.34635v7.7172 7.7172h9.3364 9.3364l-0.1432-0.72976c-0.26925-1.3751-1.2944-4.3225-1.9715-5.6698-4.6651-9.2816-15.368-14.246-31.325-14.53l-3.6519-0.0656 0.005 16.223 0.005 16.223h-26.932-26.932l-0.29221-1.2911zm38.882-19.592c0-5.5932-0.084-9.4309-0.20693-9.4309-0.11307 0-1.0988 0.31456-2.1893 0.69944-6.5702 2.3179-11.461 6.3809-14.161 11.763-0.72701 1.4493-1.7381 4.3095-1.9808 5.6028l-0.15013 0.79664h9.3435 9.3436v-9.4308z" style="fill:url(#linearGradient6048)"/>
  <path id="path4111" style="fill:#3f4e4b;fill-opacity:.31373" d="m-137.26 38.322v2.1354l3.651 0.06251c15.957 0.28397 26.663 5.2496 31.328 14.531 0.51004 1.0148 1.1241 2.7909 1.5573 4.2656h0.55729l-0.14584-0.72916c-0.26926-1.3751-1.2916-4.3245-1.9688-5.6719-4.6652-9.2816-15.371-14.247-31.328-14.531l-3.651-0.06251zm-15.469 2.1302c-0.11307 0-1.1023 0.31825-2.1927 0.70312-6.5702 2.3179-11.457 6.3784-14.156 11.76-0.72701 1.4493-1.7417 4.3109-1.9844 5.6042l-0.15104 0.79687h0.54687c0.41957-1.4218 1.0389-3.1699 1.5885-4.2656 2.6995-5.382 7.5861-9.4425 14.156-11.76 1.0905-0.38488 2.0796-0.70312 2.1927-0.70312 0.11781 0 0.19648 3.6481 0.20312 8.8646v-1.5677h0.005c0-5.5932-0.0854-9.4323-0.20834-9.4323zm73.016 25.63c-0.03341 1.4709-0.10965 2.7986-0.2448 3.3958l-0.29167 1.2917h-26.932-26.927v2.1302h26.927 26.932l0.29167-1.2865c0.17468-0.77181 0.28138-2.648 0.27605-4.6615-0.0019-0.39822-0.02587-0.54325-0.03125-0.86979zm-111.94 0.01573c-0.005 0.32212-0.0302 0.46232-0.0312 0.85406-0.01 2.0108 0.10205 3.8876 0.27604 4.6615l0.29166 1.2865h26.932 26.932v-2.1354h-26.932-26.932l-0.29166-1.2865c-0.13446-0.59507-0.2118-1.9161-0.2448-3.3802z"/>
  <path id="path4116" style="fill:#fff;fill-opacity:.23529" d="m-138.42 21.484c-3.0273 0-13.266 1.0777-13.891 1.4635-0.1224 0.07563-0.20834 2.3032-0.20834 5.2812v1.0625c0-2.978 0.0859-5.2004 0.20834-5.276 0.62419-0.38581 10.863-1.4688 13.891-1.4688h1.1667v-1.0625h-1.1667zm1.1667 10.255v1.0677l4.3229 0.14061c16.099 0.52067 30.689 5.1637 40.844 13 5.9632 4.6018 10.209 10.531 11.792 16.464 0.4797 1.7985 0.57567 2.7268 0.59896 5.1719 0.0022-0.22192 0.01627-0.40338 0.01573-0.63021-0.0136-2.9046-0.09936-3.6777-0.61458-5.6094-1.5824-5.9325-5.8285-11.857-11.792-16.458-10.154-7.838-24.744-12.487-40.844-13.007l-4.3229-0.14061zm-15.266 1.6354-0.61979 0.13541c-0.33968 0.07563-2.1518 0.53204-4.026 1.0104-17.637 4.5021-30.705 14.842-33.901 26.823-0.51608 1.9319-0.60658 2.7048-0.61458 5.6094-0.001 0.23061 0.0136 0.41513 0.0156 0.64063 0.0191-2.4551 0.11763-3.3805 0.59896-5.1823 3.1956-11.981 16.264-22.326 33.901-26.828 1.8742-0.47837 3.6864-0.92958 4.026-1.0052l0.61979-0.13541v-1.0677zm18.411 10.495v1.0625l2.974 0.14584c4.027 0.19733 7.5285 0.7239 11.005 1.6562l1.2917 0.34896v-1.0677l-1.2917-0.34375c-3.4767-0.93235-6.9782-1.4589-11.005-1.6562l-2.974-0.14584zm-18.417 8.651v0.56771h0.005c0-0.23288-0.005-0.34107-0.005-0.56771zm-18.458 8.9323c-0.0152 0.06971-0.0664 0.20293-0.0781 0.26563l-0.15104 0.79687h9.3437 9.3438v-1.0625h-9.3438-9.1146zm52.146 0v1.0625h9.3333 9.3385l-0.14584-0.72917c-0.0157-0.08067-0.0782-0.24248-0.099-0.33333h-9.0938-9.3333z"/>
 </g>
</svg>
