<?xml version="1.0" encoding="UTF-8" standalone="no"?>
<!-- Created with Inkscape (http://www.inkscape.org/) -->

<svg
   xmlns:dc="http://purl.org/dc/elements/1.1/"
   xmlns:cc="http://creativecommons.org/ns#"
   xmlns:rdf="http://www.w3.org/1999/02/22-rdf-syntax-ns#"
   xmlns:svg="http://www.w3.org/2000/svg"
   xmlns="http://www.w3.org/2000/svg"
   xmlns:xlink="http://www.w3.org/1999/xlink"
   xmlns:sodipodi="http://sodipodi.sourceforge.net/DTD/sodipodi-0.dtd"
   xmlns:inkscape="http://www.inkscape.org/namespaces/inkscape"
   id="svg3449"
   height="128"
   width="128"
   version="1.0"
   inkscape:version="0.48.4 r9939"
   sodipodi:docname="ide.svg">
  <sodipodi:namedview
     pagecolor="#ffffff"
     bordercolor="#666666"
     borderopacity="1"
     objecttolerance="10"
     gridtolerance="10"
     guidetolerance="10"
     inkscape:pageopacity="0"
     inkscape:pageshadow="2"
     inkscape:window-width="1360"
     inkscape:window-height="707"
     id="namedview38"
     showgrid="false"
     inkscape:zoom="3.6875"
     inkscape:cx="52.303069"
     inkscape:cy="53.724815"
     inkscape:window-x="-2"
     inkscape:window-y="33"
     inkscape:window-maximized="1"
     inkscape:current-layer="svg3449" />
  <metadata
     id="metadata56">
    <rdf:RDF>
      <cc:Work
         rdf:about="">
        <dc:format>image/svg+xml</dc:format>
        <dc:type
           rdf:resource="http://purl.org/dc/dcmitype/StillImage" />
        <dc:title></dc:title>
      </cc:Work>
    </rdf:RDF>
  </metadata>
  <defs
     id="defs3451">
    <linearGradient
       id="linearGradient3514"
       y2="-9.1034"
       gradientUnits="userSpaceOnUse"
       x2="66.492"
       gradientTransform="matrix(.96826 0 0 .97948 2.179 .16587)"
       y1="-42.638"
       x1="67.952">
      <stop
         id="stop4620"
         style="stop-color:#37414b"
         offset="0" />
      <stop
         id="stop4622"
         style="stop-color:#37414b;stop-opacity:0"
         offset="1" />
    </linearGradient>
    <linearGradient
       id="linearGradient3516"
       y2="-11.847"
       gradientUnits="userSpaceOnUse"
       x2="58.98"
       gradientTransform="matrix(.96826 0 0 .97948 2.179 .16587)"
       y1="-118.55"
       x1="57.173">
      <stop
         id="stop4596"
         offset="0" />
      <stop
         id="stop4598"
         style="stop-opacity:0"
         offset="1" />
    </linearGradient>
    <linearGradient
       id="linearGradient3519"
       y2="50.369"
       gradientUnits="userSpaceOnUse"
       x2="76.558"
       gradientTransform="matrix(.96826 0 0 .97948 3.2423 -129.19)"
       y1="13.164"
       x1="76.558">
      <stop
         id="stop3392"
         style="stop-color:#425e7b"
         offset="0" />
      <stop
         id="stop3394"
         style="stop-color:#7a91a7"
         offset="1" />
    </linearGradient>
    <linearGradient
       id="linearGradient3521"
       y2="-8.7399"
       gradientUnits="userSpaceOnUse"
       x2="60.217"
       gradientTransform="matrix(.96826 0 0 .97948 2.179 .16587)"
       y1="-123.72"
       x1="60.395">
      <stop
         id="stop3392-4-8"
         style="stop-color:#425e7b"
         offset="0" />
      <stop
         id="stop3394-8-0"
         style="stop-color:#7a91a7"
         offset="1" />
    </linearGradient>
    <radialGradient
       id="radialGradient3349"
       gradientUnits="userSpaceOnUse"
       cy="45.647"
       cx="42.148"
       gradientTransform="matrix(0.9469,0,0,1.1603514,3.5954,-30.581727)"
       r="58.984">
      <stop
         id="stop2699-5"
         style="stop-color:#868686"
         offset="0" />
      <stop
         id="stop2701-7"
         style="stop-color:#4a4a4a"
         offset="1" />
    </radialGradient>
    <linearGradient
       id="linearGradient4168">
      <stop
         stop-color="#fd84af"
         offset="0"
         id="stop4170" />
      <stop
         stop-color="#ec538c"
         offset="1"
         id="stop4172" />
    </linearGradient>
    <linearGradient
       gradientTransform="matrix(4.8484856,0,0,4.8484856,-1373.0911,-112.48489)"
       y2="124"
       x2="384"
       y1="28"
       x1="384"
       gradientUnits="userSpaceOnUse"
       id="linearGradient3903"
       xlink:href="#linearGradient3894"
       inkscape:collect="always" />
    <linearGradient
       id="linearGradient3894">
      <stop
         style="stop-color:#ebebeb;stop-opacity:1;"
         offset="0"
         id="stop3896" />
      <stop
         id="stop3902"
         offset="1"
         style="stop-color:#bebebe;stop-opacity:1;" />
    </linearGradient>
    <linearGradient
       y2="124"
       x2="384"
       y1="28"
       x1="384"
       gradientTransform="matrix(1.2121214,0,0,1.2121214,-343.27277,-28.121223)"
       gradientUnits="userSpaceOnUse"
       id="linearGradient3156"
       xlink:href="#linearGradient3894"
       inkscape:collect="always" />
  </defs>
  <rect
     id="rect892"
     style="stroke:url(#linearGradient3521);stroke-width:.97385;fill:url(#linearGradient3519)"
     transform="scale(1,-1)"
     ry="29.296"
     height="115.54"
     width="114.22"
     y="-122.25"
     x="7.0394" />
  <rect
     id="rect892-2"
     style="stroke:url(#linearGradient3516);stroke-width:.97385;fill:url(#linearGradient3514)"
     transform="scale(1,-1)"
     ry="28.993"
     height="114.35"
     width="114.22"
     y="-121.46"
     x="7.0599" />
  <path
     id="rect895"
     style="fill:url(#radialGradient3349)"
     d="M 30.571,7.0104 C 17.443,7.9639461 8.021,22.332337 7.398,30.734952 7.347858,31.726986 7.309228,32.736584 7.309228,33.747587 l 0,59.51411 c 0,15.514483 15.50555,28.381243 22.318,28.381243 l 67.038,0 c 14.587392,0 24.318002,-16.75328 24.318002,-26.343752 l 0,-65.217049 c -0.21,-6.044218 -12.29,-22.0884456 -25.926002,-23.0419916 -47.846,0.8815207 -20.497,-0.02608 -64.483,-0.02608 z"
     inkscape:connector-curvature="0"
     sodipodi:nodetypes="ccssssscccc" />
  <rect
     id="rect892-2-7-8"
     style="opacity:.15891;stroke:#000;stroke-width:4.8445;fill:none"
     transform="scale(1,-1)"
     ry="28.993"
     height="114.35"
     width="114.22"
     y="-121.16"
     x="6.8683" />
  <rect
     id="rect892-2-7-1"
     style="opacity:.15891;stroke:#000;stroke-width:7.7512;fill:none"
     transform="scale(1,-1)"
     ry="28.993"
     height="114.35"
     width="114.22"
     y="-121.16"
     x="6.8686" />
  <rect
     id="rect892-2-7-2-9"
     ry="28.684994"
     style="fill:none;stroke:#000000;stroke-width:1.26221895;stroke-miterlimit:4;stroke-dasharray:none"
     transform="scale(1,-1)"
     height="115.19171"
     width="114.12711"
     y="-121.99847"
     x="7.0708499" />
  <path
     id="path1187"
     style="fill:#fff;fill-opacity:.057143"
     d="m32.415 6.0906c-14.891-4.3298-32.779 19.454-27.93 26.295-0.04334 0.71563-0.07674 1.4439-0.07674 2.1732v10.76c25.899-25.61 66.753-35.479 90.375-39.179-0.22473-0.02628-0.45986-0.03062-0.69067-0.03062-41.576 0.38742-23.653-0.01876-61.677-0.01875z" />
  <g
     transform="matrix(2.4584242,0,0,2.4584242,0.0809708,-2464.149)"
     id="g6210">
    <g
       id="g6204">
      <g
         id="g6199" />
    </g>
  </g>
  <path
     inkscape:connector-curvature="0"
     style="fill:url(#linearGradient3156);fill-opacity:1;fill-rule:evenodd;stroke:none;display:inline;enable-background:new"
     d="M 63.524372,24.000247 C 55.82202,24.086401 48.051091,26.398067 41.240251,31.111182 23.077968,43.679505 18.540623,68.599742 31.108939,86.762012 43.677256,104.92429 68.597492,109.46163 86.759766,96.893317 104.92204,84.325005 109.45937,59.404767 96.891068,41.242495 89.035881,29.891067 76.361601,23.856658 63.524372,24.000247 z M 39.004701,44.001255 C 47.336324,44.001255 64,64.002252 64,64.002252 c 0,0 16.663676,-20.000997 24.995306,-20.000997 8.331627,0 9.988605,18.336232 9.988605,18.336232 0,0 -5.412363,-8.35006 -11.653355,-8.32384 C 81.089543,54.039897 64,64.002252 64,64.002252 c 0,0 17.089543,9.961978 23.330556,9.988618 6.240992,0.0262 11.653355,-8.323845 11.653355,-8.323845 0,0 -1.656978,18.336235 -9.988605,18.336235 C 80.663676,84.00326 64,64.002252 64,64.002252 c 0,0 -16.663676,20.001008 -24.995299,20.001008 -8.331637,0 -9.988597,-18.336235 -9.988597,-18.336235 0,0 5.412377,8.350015 11.653372,8.323845 C 46.910466,73.96422 64,64.002252 64,64.002252 c 0,0 -17.089534,-9.96236 -23.330524,-9.988605 -6.240995,-0.0262 -11.653372,8.32384 -11.653372,8.32384 0,0 1.65697,-18.336232 9.988597,-18.336232 z"
     id="path3901" />
</svg>
