<?xml version="1.0" encoding="UTF-8" standalone="no"?>
<!-- Created with Inkscape (http://www.inkscape.org/) -->
<svg id="svg3449" xmlns:rdf="http://www.w3.org/1999/02/22-rdf-syntax-ns#" xmlns="http://www.w3.org/2000/svg" height="128" width="128" version="1.0" xmlns:cc="http://creativecommons.org/ns#" xmlns:xlink="http://www.w3.org/1999/xlink" xmlns:dc="http://purl.org/dc/elements/1.1/">
 <metadata id="metadata56">
  <rdf:RDF>
   <cc:Work rdf:about="">
    <dc:format>image/svg+xml</dc:format>
    <dc:type rdf:resource="http://purl.org/dc/dcmitype/StillImage"/>
    <dc:title/>
   </cc:Work>
  </rdf:RDF>
 </metadata>
 <defs id="defs3451">
  <linearGradient id="linearGradient3514" y2="-9.1034" gradientUnits="userSpaceOnUse" x2="66.492" gradientTransform="matrix(.96826 0 0 .97948 2.179 .16587)" y1="-42.638" x1="67.952">
   <stop id="stop4620" style="stop-color:#37414b" offset="0"/>
   <stop id="stop4622" style="stop-color:#37414b;stop-opacity:0" offset="1"/>
  </linearGradient>
  <linearGradient id="linearGradient3516" y2="-11.847" gradientUnits="userSpaceOnUse" x2="58.98" gradientTransform="matrix(.96826 0 0 .97948 2.179 .16587)" y1="-118.55" x1="57.173">
   <stop id="stop4596" offset="0"/>
   <stop id="stop4598" style="stop-opacity:0" offset="1"/>
  </linearGradient>
  <linearGradient id="linearGradient3519" y2="50.369" gradientUnits="userSpaceOnUse" x2="76.558" gradientTransform="matrix(.96826 0 0 .97948 3.2423 -129.19)" y1="13.164" x1="76.558">
   <stop id="stop3392" style="stop-color:#425e7b" offset="0"/>
   <stop id="stop3394" style="stop-color:#7a91a7" offset="1"/>
  </linearGradient>
  <linearGradient id="linearGradient3521" y2="-8.7399" gradientUnits="userSpaceOnUse" x2="60.217" gradientTransform="matrix(.96826 0 0 .97948 2.179 .16587)" y1="-123.72" x1="60.395">
   <stop id="stop3392-4-8" style="stop-color:#425e7b" offset="0"/>
   <stop id="stop3394-8-0" style="stop-color:#7a91a7" offset="1"/>
  </linearGradient>
  <radialGradient id="radialGradient3349" gradientUnits="userSpaceOnUse" cy="45.647" cx="42.148" gradientTransform="matrix(.94690 0 0 1.139 3.5954 -29.89)" r="58.984">
   <stop id="stop2699-5" style="stop-color:#9cbbd9" offset="0"/>
   <stop id="stop2701-7" style="stop-color:#5c82ab" offset="1"/>
  </radialGradient>
  <linearGradient id="linearGradient3370" y2="5.2502" gradientUnits="userSpaceOnUse" x2="19.875" gradientTransform="matrix(2.9298 0 0 2.955 -4.547 -2.0288)" y1="44.52" x1="19.875">
   <stop id="stop3776" style="stop-color:#365a7c" offset="0"/>
   <stop id="stop3778" style="stop-color:#5ea1ca" offset="1"/>
  </linearGradient>
  <linearGradient id="linearGradient3370-7" y2="5.2502" gradientUnits="userSpaceOnUse" y1="44.52" x2="19.875" x1="19.875">
   <stop id="stop3776-6" style="stop-color:#365a7c" offset="0"/>
   <stop id="stop3778-7" style="stop-color:#5ea1ca" offset="1"/>
  </linearGradient>
 </defs>
 <rect id="rect892" style="stroke:url(#linearGradient3521);stroke-width:.97385;fill:url(#linearGradient3519)" transform="scale(1,-1)" ry="29.296" height="115.54" width="114.22" y="-122.25" x="7.0394"/>
 <rect id="rect892-2" style="stroke:url(#linearGradient3516);stroke-width:.97385;fill:url(#linearGradient3514)" transform="scale(1,-1)" ry="28.993" height="114.35" width="114.22" y="-121.46" x="7.0599"/>
 <path id="rect895" style="fill:url(#radialGradient3349)" d="m33.051 7.2596c-7.969-2.4493-27.013 15.174-25.653 23.038-0.050142 0.97378-0.088772 1.9648-0.088772 2.9572v52.419c0 20.876 10.712 33.859 22.318 33.859h67.038c12.638 0 24.318-11.245 24.318-25.859v-64.017c0.7-10.928-21.283-24.659-25.926-22.618-47.846 0.8653-18.017 0.2236-62.003 0.2236z"/>
 <rect id="rect892-2-7-8" style="opacity:.15891;stroke:#000;stroke-width:4.8445;fill:none" transform="scale(1,-1)" ry="28.993" height="114.35" width="114.22" y="-121.16" x="6.8687"/>
 <rect id="rect892-2-7-1" style="opacity:.15891;stroke:#000;stroke-width:7.7512;fill:none" transform="scale(1,-1)" ry="28.993" height="114.35" width="114.22" y="-121.16" x="6.8687"/>
 <rect id="rect892-2-7-2-9" ry="28.067" style="stroke:#000;stroke-width:1.0489;fill:none" transform="scale(1,-1)" height="112.71" width="114.14" y="-120.31" x="7.0649"/>
 <path id="path1187" style="fill:#fff;fill-opacity:.057143" d="m33.017 7.2319c-23.707 0-26.027 0.6738-25.93 26.295-0.04334 0.71563-0.07674 1.4439-0.07674 2.1732v32.76c18.67-38.321 38.34-51.497 90.374-61.179-0.225-0.026-0.46-0.0303-0.691-0.0303-41.576 0.3874-25.652-0.0188-63.676-0.0188z"/>
 <path id="path4596-6" style="opacity:.05;color:#000000;fill:url(#linearGradient3370)" d="m27.223 18.841a8.6447 8.719 0 0 0 -8.1484 8.6802v72.858a8.6447 8.719 0 0 0 15.29 5.5406l9.7049-11.82 14.649 33.982c0.38213-0.0787 0.78445-0.0925 1.1902-0.0925h40.834a8.6447 8.719 0 0 0 -1.3733 -4.8018l-27.833-42.57h14.283a8.6447 8.719 0 0 0 5.22 -15.608l-58.138-44.417a8.6447 8.719 0 0 0 -5.6764 -1.7545z"/>
 <g id="layer1-4" transform="matrix(2.9298 0 0 2.9298 -6.9384 -8.2251)">
  <path id="path3932-8-3" style="opacity:.05;color:#000000;fill:url(#linearGradient3370-7)" d="m18.719 14.094a2.9092 2.9092 0 0 0 -2.625 2.906v6.0938h-1.5938a2.9092 2.9092 0 0 0 -2.1875 4.8125l9.5 11a2.9092 2.9092 0 0 0 4.375 0l9.5-11a2.9092 2.9092 0 0 0 -2.187 -4.812h-1.5938v-6.0938a2.9092 2.9092 0 0 0 -2.906 -2.906h-10a2.9092 2.9092 0 0 0 -0.28125 0z" transform="translate(-2.4868e-7 -.99958)"/>
  <path id="path3932-8" style="opacity:.1;color:#000000;fill:url(#linearGradient3370-7)" d="m18.812 14.969a2.0262 2.0262 0 0 0 -1.843 2.031v6.9688h-2.4688a2.0262 2.0262 0 0 0 -1.5312 3.3438l9.5 11a2.0262 2.0262 0 0 0 3.0625 0l9.5-11a2.0262 2.0262 0 0 0 -1.532 -3.344h-2.4688v-6.9688a2.0262 2.0262 0 0 0 -2.031 -2.031h-10a2.0262 2.0262 0 0 0 -0.1875 0z" transform="translate(-2.4868e-7 -.99958)"/>
  <path id="path3932" style="opacity:.25;color:#000000;fill:url(#linearGradient3370-7)" d="m18.906 15.938a1.0548 1.0548 0 0 0 -0.968 1.062v7.9375h-3.4375a1.0548 1.0548 0 0 0 -0.8125 1.75l9.5 11a1.0548 1.0548 0 0 0 1.625 0l9.5-11a1.0548 1.0548 0 0 0 -0.813 -1.75h-3.4375v-7.9375a1.0548 1.0548 0 0 0 -1.062 -1.062h-10a1.0548 1.0548 0 0 0 -0.09375 0z" transform="translate(-2.4868e-7 -.99958)"/>
  <path id="path3288-2" style="stroke:#fff;stroke-width:.98543;fill:#f7f7f7" d="m32.5 25.5-8.5 10-8.5-10h4v-9h9v9h4z"/>
 </g>
</svg>
