<?xml version="1.0" encoding="UTF-8" standalone="no"?>
<!-- Created with Inkscape (http://www.inkscape.org/) -->
<svg id="svg3449" xmlns:rdf="http://www.w3.org/1999/02/22-rdf-syntax-ns#" xmlns="http://www.w3.org/2000/svg" height="128" width="128" version="1.0" xmlns:cc="http://creativecommons.org/ns#" xmlns:xlink="http://www.w3.org/1999/xlink" xmlns:dc="http://purl.org/dc/elements/1.1/">
 <metadata id="metadata56">
  <rdf:RDF>
   <cc:Work rdf:about="">
    <dc:format>image/svg+xml</dc:format>
    <dc:type rdf:resource="http://purl.org/dc/dcmitype/StillImage"/>
    <dc:title/>
   </cc:Work>
  </rdf:RDF>
 </metadata>
 <defs id="defs3451">
  <linearGradient id="linearGradient3514" y2="-9.1034" gradientUnits="userSpaceOnUse" x2="66.492" gradientTransform="matrix(.96826 0 0 .97948 2.179 .16587)" y1="-42.638" x1="67.952">
   <stop id="stop4620" style="stop-color:#37414b" offset="0"/>
   <stop id="stop4622" style="stop-color:#37414b;stop-opacity:0" offset="1"/>
  </linearGradient>
  <linearGradient id="linearGradient3516" y2="-11.847" gradientUnits="userSpaceOnUse" x2="58.98" gradientTransform="matrix(.96826 0 0 .97948 2.179 .16587)" y1="-118.55" x1="57.173">
   <stop id="stop4596" offset="0"/>
   <stop id="stop4598" style="stop-opacity:0" offset="1"/>
  </linearGradient>
  <linearGradient id="linearGradient3519" y2="50.369" gradientUnits="userSpaceOnUse" x2="76.558" gradientTransform="matrix(.96826 0 0 .97948 3.2423 -129.19)" y1="13.164" x1="76.558">
   <stop id="stop3392" style="stop-color:#425e7b" offset="0"/>
   <stop id="stop3394" style="stop-color:#7a91a7" offset="1"/>
  </linearGradient>
  <linearGradient id="linearGradient3521" y2="-8.7399" gradientUnits="userSpaceOnUse" x2="60.217" gradientTransform="matrix(.96826 0 0 .97948 2.179 .16587)" y1="-123.72" x1="60.395">
   <stop id="stop3392-4-8" style="stop-color:#425e7b" offset="0"/>
   <stop id="stop3394-8-0" style="stop-color:#7a91a7" offset="1"/>
  </linearGradient>
  <radialGradient id="radialGradient3349" gradientUnits="userSpaceOnUse" cy="45.647" cx="42.148" gradientTransform="matrix(.94690 0 0 1.139 3.5954 -29.89)" r="58.984">
   <stop id="stop2699-5" style="stop-color:#9cbbd9" offset="0"/>
   <stop id="stop2701-7" style="stop-color:#5c82ab" offset="1"/>
  </radialGradient>
 </defs>
 <rect id="rect892" style="stroke:url(#linearGradient3521);stroke-width:.97385;fill:url(#linearGradient3519)" transform="scale(1,-1)" ry="29.296" height="115.54" width="114.22" y="-122.25" x="7.0394"/>
 <rect id="rect892-2" style="stroke:url(#linearGradient3516);stroke-width:.97385;fill:url(#linearGradient3514)" transform="scale(1,-1)" ry="28.993" height="114.35" width="114.22" y="-121.46" x="7.0599"/>
 <path id="rect895" style="fill:url(#radialGradient3349)" d="m33.051 7.2596c-7.969-2.4493-27.013 15.174-25.653 23.038-0.050142 0.97378-0.088772 1.9648-0.088772 2.9572v52.419c0 20.876 10.712 33.859 22.318 33.859h67.038c12.638 0 24.318-11.245 24.318-25.859v-64.017c0.7-10.928-21.283-24.659-25.926-22.618-47.846 0.8653-18.017 0.2236-62.003 0.2236z"/>
 <rect id="rect892-2-7-8" style="opacity:.15891;stroke:#000;stroke-width:4.8445;fill:none" transform="scale(1,-1)" ry="28.993" height="114.35" width="114.22" y="-121.16" x="6.8687"/>
 <rect id="rect892-2-7-1" style="opacity:.15891;stroke:#000;stroke-width:7.7512;fill:none" transform="scale(1,-1)" ry="28.993" height="114.35" width="114.22" y="-121.16" x="6.8687"/>
 <rect id="rect892-2-7-2-9" ry="28.067" style="stroke:#000;stroke-width:1.0489;fill:none" transform="scale(1,-1)" height="112.71" width="114.14" y="-120.31" x="7.0649"/>
 <path id="path1187" style="fill:#fff;fill-opacity:.057143" d="m33.017 7.2319c-23.707 0-26.027 0.6738-25.93 26.295-0.04334 0.71563-0.07674 1.4439-0.07674 2.1732v32.76c18.67-38.321 38.34-51.497 90.374-61.179-0.225-0.026-0.46-0.0303-0.691-0.0303-41.576 0.3874-25.652-0.0188-63.676-0.0188z"/>
 <g id="layer1-1" transform="matrix(2.9298 0 0 2.9298 -6.315 -2948.9)">
  <path id="path818" d="m24 11.75v0.03125c-7.7393 0-14 4.8459-14 10.812 0 5.9667 6.2607 10.812 14 10.812 1.1287 0 2.1986-0.1182 3.25-0.3125v0.03125l7.8125 3.125-1.812-5.561c2.898-1.98 4.75-4.906 4.75-8.126 0-5.966-6.261-10.812-14-10.812zm3.9375 5.9688c0.4831-0.0322 0.89447 0.1122 1.0625 0.4375 0.27341 0.5291-0.10608 1.4642-0.90625 2.3125-0.74072 0.7851-1.528 1.1692-1.9688 0.9375-0.23667-0.1244-0.5011-0.51605-0.5625-0.84375-0.11909-0.6352 0.3279-1.7702 0.875-2.2188 0.44652-0.3662 1.0169-0.592 1.5-0.625zm-3.9688 0.5c0.40999-0.0004 0.64903 0.28545 0.71875 0.84375 0.08518 0.6824-0.31249 1.6912-0.75 1.8438-0.26413 0.092-0.28956 0.1015-0.5 0-0.28303-0.1368-0.4982-0.6955-0.5-1.3125-0.0026-0.901 0.35917-1.375 1.0312-1.375zm-2.657 0.906c0.37726-0.0546 0.73693 0.34625 0.875 1.0938 0.09054 0.4903 0.0188 0.93415-0.25 1.2188-0.24814 0.2632-0.44474 0.25785-0.71875-0.03125-0.36631-0.3865-0.4966-0.67825-0.5-1.2188-0.0029-0.4583-0.02089-0.60385 0.21875-0.84375 0.11889-0.1191 0.24924-0.20075 0.375-0.21875zm-1.875 1.6562c0.39144-0.0637 0.78908 0.30025 0.9375 0.96875 0.20856 0.9394-0.29614 1.4422-0.90625 0.90625-0.51-0.449-0.727-1.334-0.406-1.656 0.1227-0.1231 0.24452-0.19775 0.375-0.21875zm5.5938 1.1562c1.2962 0.0225 2.2199 0.52115 2.3125 1.3438 0.08968 0.7961-0.52658 1.5011-2.2812 2.6875-1.2456 0.8421-1.75 1.3151-1.75 1.625 0 0.4454 0.55679 0.875 1.0938 0.875 0.33882 0 0.50641-0.1717 0.65625-0.6875 0.19838-0.683 0.5962-0.9275 1.5625-0.9375 0.67688-0.0064 0.90643 0.1513 0.9375 0.6875 0.0182 0.3142-0.03388 0.46785-0.21875 0.84375-0.30304 0.6161-1.0003 1.3486-1.625 1.6562-0.42626 0.2097-0.55801 0.228-1.2188 0.25-0.57637 0.0194-0.81391-0.0204-1.125-0.125-0.59994-0.201-0.97339-0.396-1.5625-0.875-1.5812-1.2854-2.4168-3.1759-1.9688-4.5 0.18509-0.5469 0.39956-0.89715 0.78125-1.2812 0.66274-0.6671 1.7083-1.1428 3-1.4062 0.50142-0.1029 0.97419-0.16625 1.4062-0.15625z" style="fill:#fff" transform="translate(0 1004.4)"/>
 </g>
</svg>
