<?xml version="1.0" encoding="UTF-8" standalone="no"?>
<!-- Created with Inkscape (http://www.inkscape.org/) -->
<svg id="svg3449" xmlns:rdf="http://www.w3.org/1999/02/22-rdf-syntax-ns#" xmlns="http://www.w3.org/2000/svg" height="128" width="128" version="1.0" xmlns:cc="http://creativecommons.org/ns#" xmlns:xlink="http://www.w3.org/1999/xlink" xmlns:dc="http://purl.org/dc/elements/1.1/">
 <metadata id="metadata56">
  <rdf:RDF>
   <cc:Work rdf:about="">
    <dc:format>image/svg+xml</dc:format>
    <dc:type rdf:resource="http://purl.org/dc/dcmitype/StillImage"/>
    <dc:title/>
   </cc:Work>
  </rdf:RDF>
 </metadata>
 <defs id="defs3451">
  <linearGradient id="linearGradient3514" y2="-9.1034" gradientUnits="userSpaceOnUse" x2="66.492" gradientTransform="matrix(.96826 0 0 .97948 2.179 .16587)" y1="-42.638" x1="67.952">
   <stop id="stop4620" style="stop-color:#37414b" offset="0"/>
   <stop id="stop4622" style="stop-color:#37414b;stop-opacity:0" offset="1"/>
  </linearGradient>
  <linearGradient id="linearGradient3516" y2="-11.847" gradientUnits="userSpaceOnUse" x2="58.98" gradientTransform="matrix(.96826 0 0 .97948 2.179 .16587)" y1="-118.55" x1="57.173">
   <stop id="stop4596" offset="0"/>
   <stop id="stop4598" style="stop-opacity:0" offset="1"/>
  </linearGradient>
  <linearGradient id="linearGradient3519" y2="50.369" gradientUnits="userSpaceOnUse" x2="76.558" gradientTransform="matrix(.96826 0 0 .97948 3.2423 -129.19)" y1="13.164" x1="76.558">
   <stop id="stop3392" style="stop-color:#425e7b" offset="0"/>
   <stop id="stop3394" style="stop-color:#7a91a7" offset="1"/>
  </linearGradient>
  <linearGradient id="linearGradient3521" y2="-8.7399" gradientUnits="userSpaceOnUse" x2="60.217" gradientTransform="matrix(.96826 0 0 .97948 2.179 .16587)" y1="-123.72" x1="60.395">
   <stop id="stop3392-4-8" style="stop-color:#425e7b" offset="0"/>
   <stop id="stop3394-8-0" style="stop-color:#7a91a7" offset="1"/>
  </linearGradient>
  <radialGradient id="radialGradient3349" gradientUnits="userSpaceOnUse" cy="45.647" cx="42.148" gradientTransform="matrix(.94690 0 0 1.139 3.5954 -29.89)" r="58.984">
   <stop id="stop2699-5" style="stop-color:#9cbbd9" offset="0"/>
   <stop id="stop2701-7" style="stop-color:#5c82ab" offset="1"/>
  </radialGradient>
  <linearGradient id="linearGradient20026" gradientUnits="userSpaceOnUse" x2="26" gradientTransform="matrix(2.5916 0 0 2.5626 1.3594 7.3298)" y1="44" x1="26">
   <stop id="stop3978" style="stop-color:#2a497a" offset="0"/>
   <stop id="stop3980" style="stop-color:#517bc7" offset="1"/>
  </linearGradient>
  <linearGradient id="linearGradient20032" gradientUnits="userSpaceOnUse" x2="26" gradientTransform="matrix(2.5916 0 0 2.5626 1.3594 1.3298)" y1="44" x1="26">
   <stop id="stop3978-0" style="stop-color:#2a497a" offset="0"/>
   <stop id="stop3980-1" style="stop-color:#517bc7" offset="1"/>
  </linearGradient>
 </defs>
 <rect id="rect892" style="stroke:url(#linearGradient3521);stroke-width:.97385;fill:url(#linearGradient3519)" transform="scale(1,-1)" ry="29.296" height="115.54" width="114.22" y="-122.25" x="7.0394"/>
 <rect id="rect892-2" style="stroke:url(#linearGradient3516);stroke-width:.97385;fill:url(#linearGradient3514)" transform="scale(1,-1)" ry="28.993" height="114.35" width="114.22" y="-121.46" x="7.0599"/>
 <path id="rect895" style="fill:url(#radialGradient3349)" d="m26.571 7.0104c-4.7037 0-18.55 16.911-19.173 23.287-0.050142 0.97378-0.088772 1.9648-0.088772 2.9572v58.419c0 15.229 11.191 27.859 22.318 27.859h67.038c15.69 0 24.318-16.445 24.318-25.859v-64.017c-0.21-5.933-21.655-22.618-25.926-22.618-47.846 0.8653-24.497-0.0256-68.483-0.0256z"/>
 <rect id="rect810" style="fill:#6888bf" ry="27.181" height="110.94" width="113.63" y="7.9516" x="7.316"/>
 <path id="rect5505-21-9" style="opacity:.2;color:#000000;fill:#fff" d="m7.6533 93.584v-0.62176c0-1.088-2.4656 26.98 31.177 26.98h55.578c6.7205 0 25.054-6.6366 25.054-22.907v-3.4517z"/>
 <path id="path3884-1" style="opacity:.05;color:#000000;fill:url(#linearGradient20032)" d="m81.051 19.188c-9.2601-0.12778-19.125 3.8116-24.458 13.214-0.0197 0.0346-0.06147 0.04533-0.08099 0.08008-3.1211 5.4806-3.6758 10.483-3.6444 14.895h-0.97185a9.1603 9.0579 0 0 0 -9.1516 9.0493v15.376a9.1603 9.0579 0 0 0 9.1516 9.0493h1.2148v31.953a9.1603 9.0579 0 0 0 1.7817 5.2854c2.829-2.4504 6.8098-4.0041 11.257-4.0041h15.55c1.7618 0 3.4449 0.27974 5.0212 0.72074a9.1603 9.0579 0 0 0 0.24296 -2.0021v-32.113l4.6163-0.08008a9.1603 9.0579 0 0 0 8.9896 -8.2485l1.2958-15.136a9.1603 9.0579 0 0 0 -2.5916 -7.0472 9.1603 9.0579 0 0 0 3.2395 -6.8871v-15.055a9.1603 9.0579 0 0 0 -9.1516 -9.0493h-12.148-0.16198z"/>
 <path id="path3884-3" style="opacity:.1;color:#000000;fill:url(#linearGradient20026)" d="m81.051 27.911c-8.3007-0.10868-17.335 3.5918-22.029 11.852-0.01918 0.03395-0.06184 0.04595-0.08099 0.08008-3.4109 5.9798-3.3717 11.432-3.1585 16.257h-3.8874a6.4081 6.3364 0 0 0 -6.398 6.3265v15.376a6.4081 6.3364 0 0 0 6.398 6.3265h3.9684v34.676a6.4081 6.3364 0 0 0 1.2148 3.6838c2.557-1.5209 5.6623-2.4025 9.0706-2.4025h15.55c0.7936 0 1.5877 0.0666 2.3486 0.16016a6.4081 6.3364 0 0 0 0.16198 -1.4415v-34.756l7.2889-0.16016a6.4081 6.3364 0 0 0 6.317 -5.7659l1.2958-15.136a6.4081 6.3364 0 0 0 -6.4 -6.882h-7.1269c0.0026-0.05484-0.0029-0.1063 0-0.16016 0.28549-0.0674 0.40252-0.13541 0.72889-0.16016 2.1125-0.16024 4.8102-0.16016 7.0459-0.16016a6.4081 6.3364 0 0 0 6.398 -6.3265v-15.055a6.4081 6.3364 0 0 0 -6.398 -6.3265h-12.148-0.16198z"/>
 <path id="path3884" style="opacity:.3;color:#000000;fill:url(#linearGradient20026)" d="m81.051 30.393c-7.4447-0.11552-15.718 3.3279-19.842 10.571-0.01918 0.03362-0.06202 0.04628-0.08099 0.08008-3.5322 6.2004-3.0022 12.239-2.8346 17.538h-6.398a3.895 3.8514 0 0 0 -3.8874 3.8439v15.376a3.895 3.8514 0 0 0 3.8874 3.8439h6.479v37.158a3.895 3.8514 0 0 0 1.0528 2.5626c2.0363-0.80386 4.3053-1.2813 6.722-1.2813h15.307a3.895 3.8514 0 0 0 0.24296 -1.2813v-37.238l9.7995-0.16016a3.895 3.8514 0 0 0 3.807 -3.52l1.296-15.135a3.895 3.8514 0 0 0 -3.888 -4.165h-9.7185c-0.01166-0.43113 0.000656-0.41424 0-0.8809-0.0016-1.1682 0.05121-2.4116 0.16198-3.3635 0.05168-0.44396 0.01063-0.37526 0.08099-0.64066-0.027 0.22092 0.95538-0.25173 2.9156-0.40041 2.2881-0.17357 5.0135-0.16016 7.2079-0.16016a3.895 3.8514 0 0 0 3.8874 -3.8439v-15.055a3.895 3.8514 0 0 0 -3.8874 -3.8439h-12.229-0.08099z"/>
 <path id="path3962" style="stroke-width:2.5395;color:#000000;stroke:#fff;fill:#f7f7f7" d="m81.076 34.237c-6.1377-0.11573-13.3 2.9455-16.508 8.661-3.5022 6.0927-1.9248 12.866-2.306 19.528h-10.366v15.376h10.366v40.972l15.527 0.0607 0.04538-41.032 13.583-0.22413 1.2958-15.152h-13.406s-0.8224-8.8319 0.66376-11.385c1.9821-1.9698 9.1292-1.7589 13.39-1.7589v-15.045c-3.8234 0-8.4623 0-12.286-0.000005z"/>
 <rect id="rect892-2-7-8" style="opacity:.15891;stroke:#000;stroke-width:4.8445;fill:none" transform="scale(1,-1)" ry="28.993" height="114.35" width="114.22" y="-121.16" x="6.8683"/>
 <rect id="rect892-2-7-1" style="opacity:.15891;stroke:#000;stroke-width:7.7512;fill:none" transform="scale(1,-1)" ry="28.993" height="114.35" width="114.22" y="-121.16" x="6.8686"/>
 <rect id="rect892-2-7-2-9" ry="28.067" style="stroke:#000;stroke-width:1.0489;fill:none" transform="scale(1,-1)" height="112.71" width="114.14" y="-120.31" x="7.0644"/>
 <path id="path1187" style="fill:#fff;fill-opacity:.057143" d="m37.509 10.721c-14.891-4.3296-32.78 19.454-27.93 26.295-0.04334 0.71563-0.07674 1.4439-0.07674 2.1732v10.76c25.898-25.61 66.753-35.478 90.374-39.178-0.22473-0.02628-0.45986-0.03062-0.69067-0.03062-41.576 0.38742-23.653-0.01876-61.677-0.01875z"/>
</svg>
