<?xml version="1.0" encoding="UTF-8" standalone="no"?>
<!-- Created with Inkscape (http://www.inkscape.org/) -->
<svg id="svg3449" xmlns:rdf="http://www.w3.org/1999/02/22-rdf-syntax-ns#" xmlns="http://www.w3.org/2000/svg" height="128" width="128" version="1.0" xmlns:cc="http://creativecommons.org/ns#" xmlns:xlink="http://www.w3.org/1999/xlink" xmlns:dc="http://purl.org/dc/elements/1.1/">
 <metadata id="metadata56">
  <rdf:RDF>
   <cc:Work rdf:about="">
    <dc:format>image/svg+xml</dc:format>
    <dc:type rdf:resource="http://purl.org/dc/dcmitype/StillImage"/>
    <dc:title/>
   </cc:Work>
  </rdf:RDF>
 </metadata>
 <defs id="defs3451">
  <linearGradient id="linearGradient3514" y2="-9.1034" gradientUnits="userSpaceOnUse" x2="66.492" gradientTransform="matrix(.96826 0 0 .97948 2.179 .16587)" y1="-42.638" x1="67.952">
   <stop id="stop4620" style="stop-color:#37414b" offset="0"/>
   <stop id="stop4622" style="stop-color:#37414b;stop-opacity:0" offset="1"/>
  </linearGradient>
  <linearGradient id="linearGradient3516" y2="-11.847" gradientUnits="userSpaceOnUse" x2="58.98" gradientTransform="matrix(.96826 0 0 .97948 2.179 .16587)" y1="-118.55" x1="57.173">
   <stop id="stop4596" offset="0"/>
   <stop id="stop4598" style="stop-opacity:0" offset="1"/>
  </linearGradient>
  <linearGradient id="linearGradient3519" y2="50.369" gradientUnits="userSpaceOnUse" x2="76.558" gradientTransform="matrix(.96826 0 0 .97948 3.2423 -129.19)" y1="13.164" x1="76.558">
   <stop id="stop3392" style="stop-color:#425e7b" offset="0"/>
   <stop id="stop3394" style="stop-color:#7a91a7" offset="1"/>
  </linearGradient>
  <linearGradient id="linearGradient3521" y2="-8.7399" gradientUnits="userSpaceOnUse" x2="60.217" gradientTransform="matrix(.96826 0 0 .97948 2.179 .16587)" y1="-123.72" x1="60.395">
   <stop id="stop3392-4-8" style="stop-color:#425e7b" offset="0"/>
   <stop id="stop3394-8-0" style="stop-color:#7a91a7" offset="1"/>
  </linearGradient>
  <radialGradient id="radialGradient3349" gradientUnits="userSpaceOnUse" cy="47.837" cx="42.674" gradientTransform="matrix(.94690 0 0 1.139 3.5954 -29.89)" r="58.984">
   <stop id="stop3955" style="stop-color:#00beff" offset="0"/>
   <stop id="stop3957" style="stop-color:#0071ff" offset="1"/>
  </radialGradient>
  <filter id="filter3174" color-interpolation-filters="sRGB">
   <feGaussianBlur id="feGaussianBlur3176" stdDeviation="1.71"/>
  </filter>
  <linearGradient id="ButtonShadow-1" x1="45.448" gradientUnits="userSpaceOnUse" y1="92.54" gradientTransform="scale(1.0059 .99417)" x2="45.448" y2="7.0165">
   <stop id="stop3750-0" offset="0"/>
   <stop id="stop3752-4" style="stop-opacity:.58824" offset="1"/>
  </linearGradient>
  <linearGradient id="linearGradient5939" y2="1021.2" gradientUnits="userSpaceOnUse" x2="29.352" gradientTransform="matrix(2.6667 0 0 2.6667 4.3375 -2676.6)" y1="1035.6" x1="29.352">
   <stop id="stop4092" style="stop-color:#b9d7ff" offset="0"/>
   <stop id="stop4094" style="stop-color:#f5fdff" offset="1"/>
  </linearGradient>
 </defs>
 <rect id="rect892" style="stroke:url(#linearGradient3521);stroke-width:.97385;fill:url(#linearGradient3519)" transform="scale(1,-1)" ry="29.296" height="115.54" width="114.22" y="-122.25" x="7.0394"/>
 <rect id="rect892-2" style="stroke:url(#linearGradient3516);stroke-width:.97385;fill:url(#linearGradient3514)" transform="scale(1,-1)" ry="28.993" height="114.35" width="114.22" y="-121.46" x="7.0599"/>
 <path id="rect895" style="fill:url(#radialGradient3349)" d="m33.051 7.2596c-7.969-2.4493-27.013 15.174-25.653 23.038-0.050142 0.97378-0.088772 1.9648-0.088772 2.9572v52.419c0 20.876 10.712 33.859 22.318 33.859h67.038c12.638 0 24.318-11.245 24.318-25.859v-64.017c0.7-10.928-21.283-24.659-25.926-22.618-47.846 0.8653-18.017 0.2236-62.003 0.2236z"/>
 <rect id="rect892-2-7-8" style="opacity:.15891;stroke:#000;stroke-width:4.8445;fill:none" transform="scale(1,-1)" ry="28.993" height="114.35" width="114.22" y="-121.16" x="6.8687"/>
 <rect id="rect892-2-7-1" style="opacity:.15891;stroke:#000;stroke-width:7.7512;fill:none" transform="scale(1,-1)" ry="28.993" height="114.35" width="114.22" y="-121.16" x="6.8687"/>
 <rect id="rect892-2-7-2-9" ry="28.067" style="stroke:#000;stroke-width:1.0489;fill:none" transform="scale(1,-1)" height="112.71" width="114.14" y="-120.31" x="7.0649"/>
 <path id="path1187" style="fill:#fff;fill-opacity:.057143" d="m33.017 7.2319c-23.707 0-26.027 0.6738-25.93 26.295-0.04334 0.71563-0.07674 1.4439-0.07674 2.1732v32.76c18.67-38.321 38.34-51.497 90.374-61.179-0.225-0.026-0.46-0.0303-0.691-0.0303-41.576 0.3874-25.652-0.0188-63.676-0.0188z"/>
 <g id="layer2" style="display:none" transform="translate(148.5 -54.67)">
  <rect id="rect3745" style="opacity:.9;filter:url(#filter3174);fill:url(#ButtonShadow-1)" rx="6" ry="6" height="85" width="86" y="7" x="5"/>
 </g>
 <g id="g5931" transform="translate(-4.183 -4.0649)">
  <path id="path4086" style="fill-opacity:.058824" d="m47.36 76.118 11.011-6.1688 8.4631 8.6368c4.6547 4.752 8.6021 8.6392 8.7721 8.6392 0.29896 0 31.107-32.465 34.484-36.339 1.6018-1.8357 1.4655-1.8013-3.4197 0.8624-2.7985 1.5272-10.156 5.6261-16.35 9.1045l-11.262 6.329-8.498-8.663c-4.6743-4.7656-8.6233-8.6651-8.7755-8.6651-0.22355 0-21.11 22.08-33.389 35.298l-2.7239 2.9317 5.3387-2.8981c2.9363-1.5955 10.294-5.6749 16.35-9.0672z"/>
  <path id="path4084" d="m47.36 75.051 11.011-6.1688 8.4631 8.6368c4.6547 4.752 8.6021 8.6392 8.7721 8.6392 0.29896 0 31.107-32.465 34.484-36.339 1.6018-1.8357 1.4655-1.8013-3.4197 0.8624-2.7985 1.5272-10.156 5.6261-16.35 9.1045l-11.262 6.329-8.498-8.663c-4.6743-4.7656-8.6233-8.6651-8.7755-8.6651-0.22355 0-21.11 22.08-33.389 35.298l-2.7239 2.9317 5.3387-2.8981c2.9363-1.5955 10.294-5.6749 16.35-9.0672z" style="fill-opacity:.11765"/>
  <path id="path4082" style="fill-opacity:.23529" d="m47.36 73.984 11.011-6.1688 8.4631 8.6368c4.6547 4.752 8.6021 8.6392 8.7721 8.6392 0.29896 0 31.107-32.465 34.484-36.339 1.6018-1.8357 1.4655-1.8013-3.4197 0.8624-2.7985 1.5272-10.156 5.6261-16.35 9.1045l-11.262 6.329-8.498-8.662c-4.6743-4.7656-8.6233-8.6651-8.7755-8.6651-0.22355 0-21.11 22.08-33.389 35.298l-2.7239 2.9317 5.3387-2.8981c2.9363-1.5955 10.294-5.6749 16.35-9.0672z"/>
  <path id="path4220" d="m47.36 72.918 11.011-6.1688 8.4631 8.6368c4.6547 4.752 8.6021 8.6392 8.7721 8.6392 0.29896 0 31.107-32.465 34.484-36.339 1.6018-1.8357 1.4655-1.8013-3.4197 0.8624-2.7985 1.5272-10.156 5.6261-16.35 9.1045l-11.262 6.329-8.498-8.663c-4.6743-4.7656-8.6233-8.6651-8.7755-8.6651-0.22355 0-21.11 22.08-33.389 35.298l-2.7239 2.9317 5.3387-2.8981c2.9363-1.5955 10.294-5.6749 16.35-9.0672z" style="fill:url(#linearGradient5939)"/>
  <path id="path4096" style="fill:#0074ff;fill-opacity:.31373" d="m110.81 46.43c-0.34301 0.08651-1.3725 0.62715-2.8542 1.4271-6.7588 7.3672-32.074 34.036-32.349 34.036-0.17003 0-4.1214-3.8886-8.776-8.6406l-8.4635-8.6354-11.01 6.1667c-6.0562 3.3923-13.413 7.4722-16.349 9.0677l-1.3125 0.71354c-0.39192 0.42112-0.92552 0.98008-1.3021 1.3854l-2.724 2.9323 5.3385-2.8958c2.9363-1.5955 10.293-5.6754 16.349-9.0677l11.01-6.1719 8.4635 8.6406c4.6547 4.752 8.606 8.6354 8.776 8.6354 0.29896 0 31.102-32.464 34.479-36.339 0.80092-0.91787 1.1685-1.3673 0.72396-1.2552z"/>
  <path id="path4101" style="fill:#fff;fill-opacity:.23529" d="m110.81 46.43c-0.44451 0.11211-1.698 0.78792-4.1406 2.1198-2.7985 1.5272-10.155 5.6258-16.349 9.1042l-11.264 6.328-8.495-8.662c-4.674-4.765-8.623-8.666-8.776-8.666-0.22355 0-21.111 22.079-33.391 35.297l-2.724 2.9323 2-1.0833 0.72395-0.78125c12.28-13.219 33.168-35.298 33.391-35.298 0.15219 0 4.1017 3.8959 8.776 8.6615l8.4948 8.6667 11.266-6.3281c6.1941-3.4784 13.55-7.577 16.349-9.1042 1.5682-0.8551 2.5036-1.3544 3.1927-1.6927 0.0315-0.03573 0.19616-0.20771 0.22394-0.23957 0.80092-0.91787 1.1685-1.3673 0.72396-1.2552z"/>
 </g>
</svg>
