<?xml version="1.0" encoding="UTF-8" standalone="no"?>
<!-- Created with Inkscape (http://www.inkscape.org/) -->

<svg
   xmlns:dc="http://purl.org/dc/elements/1.1/"
   xmlns:cc="http://creativecommons.org/ns#"
   xmlns:rdf="http://www.w3.org/1999/02/22-rdf-syntax-ns#"
   xmlns:svg="http://www.w3.org/2000/svg"
   xmlns="http://www.w3.org/2000/svg"
   xmlns:xlink="http://www.w3.org/1999/xlink"
   xmlns:sodipodi="http://sodipodi.sourceforge.net/DTD/sodipodi-0.dtd"
   xmlns:inkscape="http://www.inkscape.org/namespaces/inkscape"
   id="svg3449"
   height="128"
   width="128"
   version="1.0"
   inkscape:version="0.48.4 r9939"
   sodipodi:docname="development.svg">
  <sodipodi:namedview
     pagecolor="#ffffff"
     bordercolor="#666666"
     borderopacity="1"
     objecttolerance="10"
     gridtolerance="10"
     guidetolerance="10"
     inkscape:pageopacity="0"
     inkscape:pageshadow="2"
     inkscape:window-width="1360"
     inkscape:window-height="707"
     id="namedview42"
     showgrid="false"
     inkscape:zoom="1.84375"
     inkscape:cx="6.4303633"
     inkscape:cy="85.849542"
     inkscape:window-x="-2"
     inkscape:window-y="33"
     inkscape:window-maximized="1"
     inkscape:current-layer="svg3449" />
  <metadata
     id="metadata56">
    <rdf:RDF>
      <cc:Work
         rdf:about="">
        <dc:format>image/svg+xml</dc:format>
        <dc:type
           rdf:resource="http://purl.org/dc/dcmitype/StillImage" />
        <dc:title></dc:title>
      </cc:Work>
    </rdf:RDF>
  </metadata>
  <defs
     id="defs3451">
    <linearGradient
       id="linearGradient3514"
       y2="-9.1034"
       gradientUnits="userSpaceOnUse"
       x2="66.492"
       gradientTransform="matrix(.96826 0 0 .97948 2.179 .16587)"
       y1="-42.638"
       x1="67.952">
      <stop
         id="stop4620"
         style="stop-color:#37414b"
         offset="0" />
      <stop
         id="stop4622"
         style="stop-color:#37414b;stop-opacity:0"
         offset="1" />
    </linearGradient>
    <linearGradient
       id="linearGradient3516"
       y2="-11.847"
       gradientUnits="userSpaceOnUse"
       x2="58.98"
       gradientTransform="matrix(.96826 0 0 .97948 2.179 .16587)"
       y1="-118.55"
       x1="57.173">
      <stop
         id="stop4596"
         offset="0" />
      <stop
         id="stop4598"
         style="stop-opacity:0"
         offset="1" />
    </linearGradient>
    <linearGradient
       id="linearGradient3519"
       y2="50.369"
       gradientUnits="userSpaceOnUse"
       x2="76.558"
       gradientTransform="matrix(.96826 0 0 .97948 3.2423 -129.19)"
       y1="13.164"
       x1="76.558">
      <stop
         id="stop3392"
         style="stop-color:#425e7b"
         offset="0" />
      <stop
         id="stop3394"
         style="stop-color:#7a91a7"
         offset="1" />
    </linearGradient>
    <linearGradient
       id="linearGradient3521"
       y2="-8.7399"
       gradientUnits="userSpaceOnUse"
       x2="60.217"
       gradientTransform="matrix(.96826 0 0 .97948 2.179 .16587)"
       y1="-123.72"
       x1="60.395">
      <stop
         id="stop3392-4-8"
         style="stop-color:#425e7b"
         offset="0" />
      <stop
         id="stop3394-8-0"
         style="stop-color:#7a91a7"
         offset="1" />
    </linearGradient>
    <radialGradient
       id="radialGradient3349"
       gradientUnits="userSpaceOnUse"
       cy="45.647"
       cx="42.148"
       gradientTransform="matrix(0.9469,0,0,1.1458626,3.5954,-30.790296)"
       r="58.984">
      <stop
         id="stop8006"
         style="stop-color:#fdcc10;stop-opacity:1"
         offset="0" />
      <stop
         id="stop8008"
         style="stop-color:#d28d1d;stop-opacity:1"
         offset="1" />
    </radialGradient>
    <filter
       id="filter3174-1"
       color-interpolation-filters="sRGB">
      <feGaussianBlur
         id="feGaussianBlur3176-0"
         stdDeviation="1.71" />
    </filter>
    <linearGradient
       id="ButtonShadow-9"
       x1="45.448"
       gradientUnits="userSpaceOnUse"
       y1="92.54"
       gradientTransform="scale(1.0059 .99417)"
       x2="45.448"
       y2="7.0165">
      <stop
         id="stop3750-6"
         offset="0" />
      <stop
         id="stop3752-7"
         style="stop-opacity:.58824"
         offset="1" />
    </linearGradient>
    <filter
       id="filter3174-1-0"
       color-interpolation-filters="sRGB">
      <feGaussianBlur
         id="feGaussianBlur3176-0-2"
         stdDeviation="1.71" />
    </filter>
    <linearGradient
       y2="-499.43332"
       x2="141.12482"
       y1="-23.933332"
       x1="141.12482"
       gradientTransform="matrix(1,0,0,0.85805085,-641.12482,515.53919)"
       gradientUnits="userSpaceOnUse"
       id="linearGradient9546"
       xlink:href="#ButtonColor"
       inkscape:collect="always" />
    <linearGradient
       gradientUnits="userSpaceOnUse"
       id="ButtonColor"
       y2="5.4252338"
       x2="58.650177"
       y1="122"
       x1="58.650177">
      <stop
         offset="0"
         style="stop-color:#d18c1d;stop-opacity:1"
         id="stop3189" />
      <stop
         offset="1"
         style="stop-color:#ffcf0f;stop-opacity:1"
         id="stop3191" />
    </linearGradient>
    <linearGradient
       id="linearGradient3192-5">
      <stop
         offset="0"
         style="stop-color:#000000;stop-opacity:1"
         id="stop3194-2" />
      <stop
         offset="1"
         style="stop-color:#000000;stop-opacity:0"
         id="stop3196-6" />
    </linearGradient>
    <linearGradient
       inkscape:collect="always"
       xlink:href="#linearGradient3192-5"
       id="linearGradient3084"
       gradientUnits="userSpaceOnUse"
       gradientTransform="matrix(0.8841251,0,0,1.1739937,14.839712,0.52686921)"
       x1="56.466431"
       y1="11.349823"
       x2="56.466431"
       y2="36.26585" />
    <linearGradient
       y2="118.72105"
       x2="18.133177"
       y1="81.352615"
       x1="18.246109"
       gradientTransform="matrix(3.7044025,0,0,4.1875,51.139865,-5.1444)"
       gradientUnits="userSpaceOnUse"
       id="linearGradient9539-3"
       xlink:href="#linearGradient3192-5-5"
       inkscape:collect="always" />
    <linearGradient
       id="linearGradient3192-5-5">
      <stop
         offset="0"
         style="stop-color:#000000;stop-opacity:1"
         id="stop3194-2-4" />
      <stop
         offset="1"
         style="stop-color:#000000;stop-opacity:0"
         id="stop3196-6-0" />
    </linearGradient>
  </defs>
  <rect
     id="rect892"
     style="stroke:url(#linearGradient3521);stroke-width:.97385;fill:url(#linearGradient3519)"
     transform="scale(1,-1)"
     ry="29.296"
     height="115.54"
     width="114.22"
     y="-122.25"
     x="7.0394" />
  <rect
     id="rect892-2"
     style="stroke:url(#linearGradient3516);stroke-width:.97385;fill:url(#linearGradient3514)"
     transform="scale(1,-1)"
     ry="28.993"
     height="114.35"
     width="114.22"
     y="-121.46"
     x="7.0599" />
  <path
     id="rect895"
     style="fill:url(#radialGradient3349)"
     d="M 32.571,6.3324339 C 19.443,7.2740734 8.021,21.463052 7.398,29.760747 7.347858,30.740394 7.309228,31.737385 7.309228,32.735764 l 0,58.770982 c 0,15.320754 11.191,28.026854 22.318,28.026854 l 67.038,0 c 15.690002,0 24.318002,-16.54408 24.318002,-26.014804 l 0,-64.40271 c -0.21,-5.968747 -12.29,-21.8126367 -25.926002,-22.7542762 -47.846,0.8705136 -18.497,-0.025754 -62.483,-0.025754 z"
     inkscape:connector-curvature="0"
     sodipodi:nodetypes="ccssssscccc" />
  <rect
     id="rect892-2-7-8"
     style="opacity:.15891;stroke:#000;stroke-width:4.8445;fill:none"
     transform="scale(1,-1)"
     ry="28.993"
     height="114.35"
     width="114.22"
     y="-121.16"
     x="6.8683" />
  <rect
     id="rect892-2-7-1"
     style="opacity:.15891;stroke:#000;stroke-width:7.7512;fill:none"
     transform="scale(1,-1)"
     ry="28.993"
     height="114.35"
     width="114.22"
     y="-121.16"
     x="6.8686" />
  <rect
     id="rect892-2-7-2-9"
     ry="28.302269"
     style="fill:none;stroke:#000000;stroke-width:1.05326688"
     transform="scale(1,-1)"
     height="113.65478"
     width="114.13563"
     y="-120.30782"
     x="7.0665836" />
  <path
     id="path1187"
     style="fill:#ffffff;fill-opacity:0.05714303000000000"
     d="M 35.78318,7.2693601 C 19.018896,4.8285052 3.148054,28.550904 7.8531801,33.56436 c -0.04334,0.71563 -0.07674,1.4439 -0.07674,2.1732 l 0,10.76 C 33.67444,20.88756 74.52944,11.01956 98.15044,7.3195601 c -0.22473,-0.02628 -0.45986,-0.03062 -0.69067,-0.03062 -41.576,0.38742 -23.653,-0.01876 -61.677,-0.01875 z"
     inkscape:connector-curvature="0"
     sodipodi:nodetypes="ccsccccc" />
  <g
     id="layer2"
     style="display:none"
     transform="translate(187.88 23.742)">
    <rect
       id="rect3745"
       style="opacity:.9;filter:url(#filter3174-1);fill:url(#ButtonShadow-9)"
       rx="6"
       ry="6"
       height="85"
       width="86"
       y="7"
       x="5" />
  </g>
  <g
     id="layer2-8"
     style="display:none"
     transform="translate(324.59 20.7)">
    <rect
       id="rect3745-1"
       style="opacity:.9;filter:url(#filter3174-1-0);fill:url(#ButtonShadow-9)"
       rx="6"
       ry="6"
       height="85"
       width="86"
       y="7"
       x="5" />
  </g>
  <path
     style="fill:#000000;fill-opacity:0.23529412;fill-rule:nonzero;stroke:none"
     d="m 34.770951,6.95762 c -0.278179,0.4239563 -0.433924,0.9071961 -0.433924,1.4214784 l 0,2.1396976 c 0,0.785132 0.368914,1.493911 0.97259,2.034957 l 3.576139,3.591102 c -0.34026,0.434701 -0.538665,0.955561 -0.538665,1.518738 l 0,1.945179 c 0,0.739787 0.346396,1.40527 0.905256,1.900292 l 3.052437,3.0674 c -0.784874,0.497508 -1.294292,1.340825 -1.294292,2.296808 l 0,1.9377 c 0,0.805067 0.365615,1.52862 0.950144,2.034958 l 2.925253,2.932733 c -0.619193,0.505251 -1.01748,1.296895 -1.01748,2.192069 l 0,1.94518 c 0,0.8822 0.385068,1.663831 0.987554,2.169625 l 3.269398,3.276878 C 47.619845,43.83262 47.29492,44.558931 47.29492,45.38241 l 0,1.810514 c 0,0.872038 0.362352,1.64099 0.920219,2.109772 l 2.790586,2.798068 c -0.293343,0.475005 -0.471333,1.109306 -0.471333,1.810514 l 0,1.877848 c 0,1.020366 0.377742,1.904238 0.935183,2.356659 1.081062,1.070425 3.11977,3.119771 3.11977,3.119771 -0.262696,0.426212 -0.426443,1.03544 -0.426443,1.720736 l 0,1.645922 c 0,0.984227 0.344467,1.821598 0.830442,2.169624 l 5.491393,5.513837 -0.06733,0.905259 c -1.61606,0.243841 -2.641494,0.712959 -2.648437,1.264366 l -0.23941,19.429356 c -0.05781,0.335873 -0.08977,0.681826 -0.08977,1.032441 0,1.827479 0.815191,3.484995 2.132216,4.683399 l 20.327135,20.327124 17.880695,0 c 10.572514,0 23.544164,-11.73576 23.544164,-23.544156 l 0,-60.390363 0,-2.521251 L 94.877025,6.95762 z m 25.055418,87.690219 c 0.302419,0.03327 0.639073,0.05237 0.987552,0.05237 l 9.007681,0 c -0.209944,2.63531 -2.370195,4.705833 -4.997617,4.705833 -2.644331,0 -4.811581,-2.098696 -4.997616,-4.758203 z"
     id="path3955"
     inkscape:connector-curvature="0"
     sodipodi:nodetypes="cssccssccssccssccssccssccsscccccsccsscccccscsc" />
  <path
     inkscape:connector-curvature="0"
     id="rect6320"
     d="m 34.770951,6.95762 c -0.278179,0.4239563 -0.433924,0.9071961 -0.433924,1.4214784 l 0,2.1396976 c 0,1.693079 1.704656,3.059918 3.815546,3.059918 l 2.483845,0 c -0.0061,0.07784 -0.0075,0.152632 -0.0075,0.231926 0,0.411802 0.08039,0.80539 0.231925,1.167107 -1.449956,0.29528 -2.513769,1.377684 -2.513769,2.685846 l 0,1.945179 c 0,1.536398 1.472968,2.768141 3.306805,2.768141 l 1.518735,0 c -0.04004,0.206254 -0.06733,0.42479 -0.06733,0.643406 0,0.408236 0.0757,0.793019 0.209481,1.152145 -1.324455,0.281656 -2.30429,1.379127 -2.30429,2.700808 l 0,1.9377 c 0,1.536397 1.328488,2.775622 2.977621,2.775622 l 1.541182,0 c -0.0066,0.09104 -0.0075,0.183728 -0.0075,0.276814 0,0.516169 0.11394,0.996749 0.299259,1.42896 -1.124286,0.312081 -1.952662,1.38754 -1.952662,2.678364 l 0,1.94518 c 0,1.5364 1.167276,2.768142 2.618513,2.768142 l 2.670881,0 c -0.04445,0.222544 -0.06733,0.455652 -0.06733,0.695775 0,0.520044 0.105569,1.009789 0.299259,1.428959 -1.168755,0.05903 -2.094809,1.179729 -2.094809,2.573622 l 0,1.810514 c 0,1.431945 0.978307,2.588586 2.192068,2.588586 l 2.207032,0 c -0.03433,0.175996 -0.05985,0.35698 -0.05985,0.546148 0,0.365425 0.06589,0.709678 0.187036,1.017479 -0.742378,0.324871 -1.286812,1.344793 -1.286812,2.566141 l 0,1.877848 c 0,1.484169 0.798699,2.678363 1.78807,2.678363 l 2.65592,0 c -0.0262,0.177565 -0.03741,0.355138 -0.03741,0.546146 0,0.641653 0.156844,1.222947 0.41148,1.645922 -0.673958,0.119694 -1.189553,1.108433 -1.189553,2.326735 l 0,1.645922 c 0,1.299526 0.59305,2.341698 1.331701,2.341698 l 5.296875,0 -0.374072,6.247022 c -1.616061,0.243841 -2.641496,0.712959 -2.648439,1.264366 l -0.239357,19.429356 c -0.05781,0.335873 -0.08977,0.681826 -0.08977,1.032441 0,3.654958 3.256743,6.621103 7.279463,6.621103 3.991837,0 7.237408,-2.92259 7.286945,-6.538805 0.08295,-0.100851 0.127184,-0.206536 0.127184,-0.31422 l 0,-20.229875 c 0,-0.547091 -1.134452,-1.018808 -2.805548,-1.264366 l 0,-6.247022 4.825543,0 c 0.738651,0 1.3317,-1.042172 1.3317,-2.341698 l 0,-1.645922 c 0,-1.218302 -0.515595,-2.207041 -1.189551,-2.326735 0.254632,-0.422975 0.411479,-1.004269 0.411479,-1.645922 0,-0.191008 -0.01121,-0.368581 -0.0374,-0.546146 l 2.655921,0 c 0.989373,0 1.788069,-1.194194 1.788069,-2.678363 l 0,-1.877848 c 0,-1.221348 -0.544431,-2.24127 -1.286812,-2.566141 0.12115,-0.307801 0.187037,-0.652054 0.187037,-1.017479 0,-0.189168 -0.0255,-0.370152 -0.05985,-0.546148 l 2.207031,0 c 1.213762,0 2.19207,-1.156641 2.19207,-2.588586 l 0,-1.810514 c 0,-1.393893 -0.926053,-2.514582 -2.09481,-2.573622 0.193692,-0.41917 0.299259,-0.908915 0.299259,-1.428959 0,-0.240123 -0.02289,-0.473231 -0.06733,-0.695775 l 2.670882,0 c 1.451239,0 2.618513,-1.231742 2.618513,-2.768142 l 0,-1.94518 c 0,-1.290824 -0.828379,-2.366283 -1.952662,-2.678364 0.185321,-0.432211 0.299259,-0.912791 0.299259,-1.42896 0,-0.09308 -7.2e-4,-0.185762 -0.0075,-0.276814 l 1.541181,0 c 1.649132,0 2.977624,-1.239225 2.977624,-2.775622 l 0,-1.9377 c 0,-1.321681 -0.979841,-2.419152 -2.304292,-2.700808 0.133782,-0.359126 0.209481,-0.743909 0.209481,-1.152145 0,-0.218616 -0.02728,-0.437152 -0.06732,-0.643406 l 1.518736,0 c 1.833833,0 3.306806,-1.231743 3.306806,-2.768141 l 0,-1.945179 c 0,-1.308162 -1.063815,-2.390566 -2.51377,-2.685846 0.151526,-0.361717 0.231925,-0.755305 0.231925,-1.167107 0,-0.07929 -0.0014,-0.154089 -0.0075,-0.231926 l 2.483845,0 c 2.11089,0 3.815546,-1.366839 3.815546,-3.059918 l 0,-2.1396976 c 0,-0.5142823 -0.155745,-0.9975221 -0.433924,-1.4214784 l -60.10607,0 z m 25.055418,87.690219 c 0.302419,0.03327 0.639073,0.05237 0.987552,0.05237 l 9.007681,0 c -0.209944,2.63531 -2.370195,4.705833 -4.997617,4.705833 -2.644331,0 -4.811581,-2.098696 -4.997616,-4.758206 z"
     style="fill:#000000;fill-opacity:1;fill-rule:nonzero;stroke:none" />
</svg>
