<?xml version="1.0" encoding="UTF-8" standalone="no"?>
<!-- Created with Inkscape (http://www.inkscape.org/) -->
<svg id="svg3449" xmlns:rdf="http://www.w3.org/1999/02/22-rdf-syntax-ns#" xmlns="http://www.w3.org/2000/svg" height="128" width="128" version="1.0" xmlns:cc="http://creativecommons.org/ns#" xmlns:xlink="http://www.w3.org/1999/xlink" xmlns:dc="http://purl.org/dc/elements/1.1/">
 <metadata id="metadata56">
  <rdf:RDF>
   <cc:Work rdf:about="">
    <dc:format>image/svg+xml</dc:format>
    <dc:type rdf:resource="http://purl.org/dc/dcmitype/StillImage"/>
    <dc:title/>
   </cc:Work>
  </rdf:RDF>
 </metadata>
 <defs id="defs3451">
  <linearGradient id="linearGradient3514" y2="-9.1034" gradientUnits="userSpaceOnUse" x2="66.492" gradientTransform="matrix(.96826 0 0 .97948 2.179 .16587)" y1="-42.638" x1="67.952">
   <stop id="stop4620" style="stop-color:#37414b" offset="0"/>
   <stop id="stop4622" style="stop-color:#37414b;stop-opacity:0" offset="1"/>
  </linearGradient>
  <linearGradient id="linearGradient3516" y2="-11.847" gradientUnits="userSpaceOnUse" x2="58.98" gradientTransform="matrix(.96826 0 0 .97948 2.179 .16587)" y1="-118.55" x1="57.173">
   <stop id="stop4596" offset="0"/>
   <stop id="stop4598" style="stop-opacity:0" offset="1"/>
  </linearGradient>
  <linearGradient id="linearGradient3519" y2="50.369" gradientUnits="userSpaceOnUse" x2="76.558" gradientTransform="matrix(.96826 0 0 .97948 3.2423 -129.19)" y1="13.164" x1="76.558">
   <stop id="stop3392" style="stop-color:#425e7b" offset="0"/>
   <stop id="stop3394" style="stop-color:#7a91a7" offset="1"/>
  </linearGradient>
  <linearGradient id="linearGradient3521" y2="-8.7399" gradientUnits="userSpaceOnUse" x2="60.217" gradientTransform="matrix(.96826 0 0 .97948 2.179 .16587)" y1="-123.72" x1="60.395">
   <stop id="stop3392-4-8" style="stop-color:#425e7b" offset="0"/>
   <stop id="stop3394-8-0" style="stop-color:#7a91a7" offset="1"/>
  </linearGradient>
  <radialGradient id="radialGradient3349" gradientUnits="userSpaceOnUse" cy="45.647" cx="42.148" gradientTransform="matrix(.93295 0 0 1.1337 4.3411 -28.729)" r="58.984">
   <stop id="stop16834" style="stop-color:#f76616" offset="0"/>
   <stop id="stop16836" style="stop-color:#ff3f00" offset="1"/>
  </radialGradient>
  <filter id="filter3174-5" color-interpolation-filters="sRGB">
   <feGaussianBlur id="feGaussianBlur3176-4" stdDeviation="1.71"/>
  </filter>
  <linearGradient id="ButtonShadow-4" x1="45.448" gradientUnits="userSpaceOnUse" y1="92.54" gradientTransform="scale(1.0059 .99417)" x2="45.448" y2="7.0165">
   <stop id="stop3750-3" offset="0"/>
   <stop id="stop3752-57" style="stop-opacity:.58824" offset="1"/>
  </linearGradient>
  <filter id="filter3174-0" color-interpolation-filters="sRGB">
   <feGaussianBlur id="feGaussianBlur3176-9" stdDeviation="1.71"/>
  </filter>
  <filter id="filter3174-7" color-interpolation-filters="sRGB">
   <feGaussianBlur id="feGaussianBlur3176-7" stdDeviation="1.71"/>
  </filter>
  <clipPath id="clipPath3613-9">
   <rect id="rect3615-2" style="fill:#fff" rx="6" ry="6" height="84" width="84" y="6" x="6"/>
  </clipPath>
  <linearGradient id="linearGradient3613-3" x1="48" gradientUnits="userSpaceOnUse" y1="20.221" x2="48" y2="138.66">
   <stop id="stop3739-03" style="stop-color:#fff" offset="0"/>
   <stop id="stop3741-5" style="stop-color:#fff;stop-opacity:0" offset="1"/>
  </linearGradient>
  <filter id="filter3794-30" height="1.384" width="1.384" color-interpolation-filters="sRGB" y="-.192" x="-.192">
   <feGaussianBlur id="feGaussianBlur3796-38" stdDeviation="5.28"/>
  </filter>
  <filter id="filter3174-8" color-interpolation-filters="sRGB">
   <feGaussianBlur id="feGaussianBlur3176-3" stdDeviation="1.71"/>
  </filter>
  <clipPath id="clipPath3613-26">
   <rect id="rect3615-4" style="fill:#fff" rx="6" ry="6" height="84" width="84" y="6" x="6"/>
  </clipPath>
  <filter id="filter3794-67" height="1.384" width="1.384" color-interpolation-filters="sRGB" y="-.192" x="-.192">
   <feGaussianBlur id="feGaussianBlur3796-4" stdDeviation="5.28"/>
  </filter>
  <filter id="filter3174-4" color-interpolation-filters="sRGB">
   <feGaussianBlur id="feGaussianBlur3176-0" stdDeviation="1.71"/>
  </filter>
  <filter id="filter3174-1" color-interpolation-filters="sRGB">
   <feGaussianBlur id="feGaussianBlur3176-1" stdDeviation="1.71"/>
  </filter>
  <linearGradient id="linearGradient9285" y2="7.0165" gradientUnits="userSpaceOnUse" x2="45.448" gradientTransform="matrix(1.0059 0 0 .99417 -59.657 2.8358)" y1="92.54" x1="45.448">
   <stop id="stop3750-7" offset="0"/>
   <stop id="stop3752-3" style="stop-opacity:.58824" offset="1"/>
  </linearGradient>
  <linearGradient id="linearGradient15370" y2="27.664" gradientUnits="userSpaceOnUse" x2="96.134" y1="27.664" x1="7.7193">
   <stop id="stop15366" style="stop-color:#fff" offset="0"/>
   <stop id="stop15368" style="stop-color:#fff;stop-opacity:0" offset="1"/>
  </linearGradient>
 </defs>
 <rect id="rect892" style="stroke:url(#linearGradient3521);stroke-width:.97385;fill:url(#linearGradient3519)" transform="scale(1,-1)" ry="29.296" height="115.54" width="114.22" y="-122.25" x="7.0394"/>
 <rect id="rect892-2" style="stroke:url(#linearGradient3516);stroke-width:.97385;fill:url(#linearGradient3514)" transform="scale(1,-1)" ry="28.993" height="114.35" width="114.22" y="-121.46" x="7.0599"/>
 <path id="rect895" style="fill:url(#radialGradient3349)" d="m30.919 8c-12.934 0.9317-22.217 14.969-22.832 23.179-0.0489 0.969-0.087 1.956-0.087 2.943v58.148c0 15.16 11.026 27.73 21.989 27.73h66.051c15.46 0 23.96-16.37 23.96-25.739v-63.72c1.8-7.114-8.34-23.852-25.548-22.516-47.141 0.8618-20.195-0.025-63.533-0.025z"/>
 <path id="path1187" style="opacity:.30214;fill:url(#linearGradient15370)" d="m36.363 7.7152c-21.074 0.4035-28.496 16.108-28.569 27.254-0.042208 0.69964-0.074736 1.4116-0.074736 2.1246v10.52c0.9017-23.224 89.376-30.939 88.407-39.899-40.49 0.37877-22.732-0.0000117-59.763 0z"/>
 <rect id="rect892-2-7-8" style="opacity:.15891;stroke:#000;stroke-width:4.8445;fill:none" transform="scale(1,-1)" ry="28.993" height="114.35" width="114.22" y="-121.16" x="6.8683"/>
 <rect id="rect892-2-7-1" style="opacity:.15891;stroke:#000;stroke-width:7.7512;fill:none" transform="scale(1,-1)" ry="28.993" height="114.35" width="114.22" y="-121.16" x="6.8686"/>
 <rect id="rect892-2-7-2-9" ry="28.067" style="stroke:#000;stroke-width:1.0489;fill:none" transform="scale(1,-1)" height="112.71" width="114.14" y="-120.31" x="7.0644"/>
 <g id="layer2" style="display:none" transform="translate(137.63 15.959)">
  <rect id="rect3745" style="opacity:.9;filter:url(#filter3174-5);fill:url(#ButtonShadow-4)" rx="6" ry="6" height="85" width="86" y="7" x="5"/>
 </g>
 <g id="layer2-3" style="display:none" transform="translate(146.29 14.997)">
  <rect id="rect3745-4" style="opacity:.9;filter:url(#filter3174-0);fill:url(#ButtonShadow-4)" rx="6" ry="6" height="85" width="86" y="7" x="5"/>
 </g>
 <g id="layer2-4" style="display:none" transform="translate(176.76 -8.736)">
  <rect id="rect3745-7" style="opacity:.9;filter:url(#filter3174-7);fill:url(#ButtonShadow-4)" rx="6" ry="6" height="85" width="86" y="7" x="5"/>
 </g>
 <g id="layer2-2" style="display:none" transform="translate(143.15 5.055)">
  <rect id="rect3745-9" style="opacity:.9;filter:url(#filter3174-8);fill:url(#ButtonShadow-4)" rx="6" ry="6" height="85" width="86" y="7" x="5"/>
 </g>
 <g id="layer5-4" style="display:none" transform="translate(143.15 5.055)">
  <rect id="rect3171-7" style="opacity:.3;filter:url(#filter3794-30);stroke:#fff;stroke-linecap:round;stroke-width:.5;fill:url(#linearGradient3613-3)" clip-path="url(#clipPath3613-9)" rx="12" ry="12" height="66" width="66" y="15" x="15"/>
 </g>
 <g id="layer2-1" style="display:none" transform="translate(160.47 -5.8175)">
  <rect id="rect3745-8" style="opacity:.9;filter:url(#filter3174-4);fill:url(#ButtonShadow-4)" rx="6" ry="6" height="85" width="86" y="7" x="5"/>
 </g>
 <g id="layer5-46" style="display:none" transform="translate(160.47 -5.8175)">
  <rect id="rect3171-2" style="opacity:.1;filter:url(#filter3794-67);stroke:#fff;stroke-linecap:round;stroke-width:.5;fill:url(#linearGradient3613-3)" clip-path="url(#clipPath3613-26)" rx="12" ry="12" height="66" width="66" y="15" x="15"/>
 </g>
 <rect id="rect3745-82" style="opacity:.9;filter:url(#filter3174-1);display:none;fill:url(#linearGradient9285)" rx="6" ry="6" height="85" width="86" y="9.8358" x="-54.657"/>
 <g id="layer1-3" transform="matrix(2.5636 0 0 2.5636 2.4744 -2572.3)">
  <path id="path28" d="m27.158 1015.4c0.71216 0.1423 1.3245 0.3056 1.8127 0.5296 0.75332 0.3324 1.2353 0.7741 1.4665 1.2831-0.69937-0.1289-1.3173-0.095-1.8738 0.1223 3.9902 1.5742 5.8796 3.4568 5.6622 5.6215-0.29187-0.4546-0.68595-0.7471-1.1813-0.8963 0.611 2.3752 0.67868 4.3185 0.18331 5.8659-0.33915-1.0314-0.65839-1.6363-0.93692-1.8535 0.38747 3.183-0.13664 5.5342-1.5683 7.0678 0.27129-0.9364 0.38756-1.6974 0.32588-2.3017-1.6824 2.518-3.5987 3.8085-5.7437 3.8903-0.84787-0.011-1.6503-0.1219-2.4034-0.3667-1.1046-0.3702-2.1035-1.0167-2.9941-1.9145 1.3889 0.1143 2.6524-0.1281 3.768-0.6925l1.8331-1.1813c0.23743-0.088 0.45473-0.082 0.67213 0.02 0.4476-0.061 0.61745-0.3126 0.46846-0.7129-0.21691-0.2985-0.55674-0.5569-0.97765-0.7943-0.91622-0.4753-1.8744-0.4071-2.8718 0.224-0.95018 0.5365-1.8606 0.5089-2.7496-0.061-0.58378-0.3998-1.1476-0.9374-1.6905-1.6091l-0.20368-0.3055v-0.021c0.02697-0.6649 0.28544-1.0183 0.81471-1.0999 0.59715 0.054 1.2838 0.1833 2.0571 0.4074 0.129-0.7397-0.04107-1.5076-0.50919-2.3016v-0.02c0.7261-0.6719 1.3854-1.1544 1.9349-1.4665 0.24435-0.129 0.3802-0.3261 0.42772-0.5907 0.0069-0.011 0.01339-0.02 0.02036-0.02 0.0067-0.011 0.03382-0.014 0.04074-0.02 0.14235-0.2104 0.08116-0.3804-0.16294-0.5295-0.50894 0.027-1.0186-0.02-1.5276-0.1223v0.02c-0.21045-0.06-0.46851-0.2376-0.79434-0.5498l-0.83508-0.8147-0.26478-0.2037-0.04074-0.041c0.02722-0.013 0.04077-0.048 0.0611-0.061 0.11535-0.6176 0.31934-1.1339 0.59066-1.5886l0.0611-0.061c0.2716-0.4478 0.781-0.9304 1.5479-1.446-1.4252 0.1762-2.7028 0.815-3.8495 1.9145-0.95015-0.3463-2.0848-0.2713-3.381 0.224l-0.14257 0.1223c-0.0199 0.011-0.04136 0.012-0.0611 0.02l0.20368-0.1425c-0.80604-0.3794-1.346-1.4646-1.609-3.1977-1.0383 1.0178-1.5411 2.8528-1.5072 5.4788-0.07118 0.099-0.18212 0.2467-0.28515 0.4073-0.0333 0.026-0.06918 0.055-0.10184 0.081-0.0072 0 0 0.013 0 0.02h-0.02036c-0.0074 0.011-0.02037 0.011-0.02037 0.021-0.15854 0.2451-0.3572 0.6222-0.6314 1.1203-0.43293 0.7721-0.56906 1.407-0.59066 1.9552 0.0082-0.014 0.01217-0.027 0.02036-0.041 0.0016 0.1265 0.0086 0.2333 0.04074 0.3463l0.83507-0.6722c-0.30528 0.7668-0.50931 1.5821-0.61103 2.4442-0.31217 2.8296 0.48975 5.63 2.4034 8.3915 2.8705 3.7122 6.4722 5.6831 10.815 5.9473 4.3435 0.258 8.0601-1.3388 11.121-4.7864 2.0694-2.538 3.3335-5.1888 3.8088-7.9638 0.47541-1.9069 0.53602-3.5445 0.16294-4.929-0.12897 0.9907-0.2854 1.4938-0.42772 1.5277-0.0406-1.649-0.27896-3.1238-0.73324-4.4198 0-0.011-0.01425-0.027-0.02036-0.041-0.35361-1.0113-0.82185-1.9081-1.4257-2.709 0.2798 1.0995 0.41969 1.9625 0.42772 2.5868-0.59251-2.08-2.2366-3.7983-4.6235-4.5217-1.181-0.3526-2.5944-0.5431-4.2161-0.5907zm8.697 5.4178c0.03712 0.067 0.06721 0.1381 0.10183 0.2036-0.0018 0.012 0.002 0.029 0 0.041-0.0072-0.014-0.02036-0.027-0.02036-0.041-0.03045-0.069-0.04905-0.1363-0.08147-0.2036z" style="fill:#fff"/>
 </g>
</svg>
