<?xml version="1.0" encoding="UTF-8" standalone="no"?>
<!-- Created with Inkscape (http://www.inkscape.org/) -->
<svg id="svg3449" xmlns:rdf="http://www.w3.org/1999/02/22-rdf-syntax-ns#" xmlns="http://www.w3.org/2000/svg" height="128" width="128" version="1.0" xmlns:cc="http://creativecommons.org/ns#" xmlns:xlink="http://www.w3.org/1999/xlink" xmlns:dc="http://purl.org/dc/elements/1.1/">
 <metadata id="metadata56">
  <rdf:RDF>
   <cc:Work rdf:about="">
    <dc:format>image/svg+xml</dc:format>
    <dc:type rdf:resource="http://purl.org/dc/dcmitype/StillImage"/>
    <dc:title/>
   </cc:Work>
  </rdf:RDF>
 </metadata>
 <defs id="defs3451">
  <linearGradient id="linearGradient3514" y2="-9.1034" gradientUnits="userSpaceOnUse" x2="66.492" gradientTransform="matrix(.96826 0 0 .97948 2.179 .16587)" y1="-42.638" x1="67.952">
   <stop id="stop4620" style="stop-color:#37414b" offset="0"/>
   <stop id="stop4622" style="stop-color:#37414b;stop-opacity:0" offset="1"/>
  </linearGradient>
  <linearGradient id="linearGradient3516" y2="-11.847" gradientUnits="userSpaceOnUse" x2="58.98" gradientTransform="matrix(.96826 0 0 .97948 2.179 .16587)" y1="-118.55" x1="57.173">
   <stop id="stop4596" offset="0"/>
   <stop id="stop4598" style="stop-opacity:0" offset="1"/>
  </linearGradient>
  <linearGradient id="linearGradient3519" y2="50.369" gradientUnits="userSpaceOnUse" x2="76.558" gradientTransform="matrix(.96826 0 0 .97948 3.2423 -129.19)" y1="13.164" x1="76.558">
   <stop id="stop3392" style="stop-color:#425e7b" offset="0"/>
   <stop id="stop3394" style="stop-color:#7a91a7" offset="1"/>
  </linearGradient>
  <linearGradient id="linearGradient3521" y2="-8.7399" gradientUnits="userSpaceOnUse" x2="60.217" gradientTransform="matrix(.96826 0 0 .97948 2.179 .16587)" y1="-123.72" x1="60.395">
   <stop id="stop3392-4-8" style="stop-color:#425e7b" offset="0"/>
   <stop id="stop3394-8-0" style="stop-color:#7a91a7" offset="1"/>
  </linearGradient>
  <radialGradient id="radialGradient3349" gradientUnits="userSpaceOnUse" cy="45.647" cx="42.148" gradientTransform="matrix(.94690 0 0 1.139 3.5954 -29.89)" r="58.984">
   <stop id="stop2699-5" style="stop-color:#656565" offset="0"/>
   <stop id="stop2701-7" style="stop-color:#2e2e2e" offset="1"/>
  </radialGradient>
  <filter id="filter3174-5" color-interpolation-filters="sRGB">
   <feGaussianBlur id="feGaussianBlur3176-4" stdDeviation="1.71"/>
  </filter>
  <linearGradient id="ButtonShadow-4" x1="45.448" gradientUnits="userSpaceOnUse" y1="92.54" gradientTransform="scale(1.0059 .99417)" x2="45.448" y2="7.0165">
   <stop id="stop3750-3" offset="0"/>
   <stop id="stop3752-57" style="stop-opacity:.58824" offset="1"/>
  </linearGradient>
  <filter id="filter3174-0" color-interpolation-filters="sRGB">
   <feGaussianBlur id="feGaussianBlur3176-9" stdDeviation="1.71"/>
  </filter>
  <filter id="filter3174-7" color-interpolation-filters="sRGB">
   <feGaussianBlur id="feGaussianBlur3176-7" stdDeviation="1.71"/>
  </filter>
  <clipPath id="clipPath3613-9">
   <rect id="rect3615-2" style="fill:#fff" rx="6" ry="6" height="84" width="84" y="6" x="6"/>
  </clipPath>
  <linearGradient id="linearGradient3613-3" x1="48" gradientUnits="userSpaceOnUse" y1="20.221" x2="48" y2="138.66">
   <stop id="stop3739-03" style="stop-color:#fff" offset="0"/>
   <stop id="stop3741-5" style="stop-color:#fff;stop-opacity:0" offset="1"/>
  </linearGradient>
  <filter id="filter3794-30" height="1.384" width="1.384" color-interpolation-filters="sRGB" y="-.192" x="-.192">
   <feGaussianBlur id="feGaussianBlur3796-38" stdDeviation="5.28"/>
  </filter>
  <filter id="filter3174-8" color-interpolation-filters="sRGB">
   <feGaussianBlur id="feGaussianBlur3176-3" stdDeviation="1.71"/>
  </filter>
  <clipPath id="clipPath3613-26">
   <rect id="rect3615-4" style="fill:#fff" rx="6" ry="6" height="84" width="84" y="6" x="6"/>
  </clipPath>
  <filter id="filter3794-67" height="1.384" width="1.384" color-interpolation-filters="sRGB" y="-.192" x="-.192">
   <feGaussianBlur id="feGaussianBlur3796-4" stdDeviation="5.28"/>
  </filter>
  <filter id="filter3174-4" color-interpolation-filters="sRGB">
   <feGaussianBlur id="feGaussianBlur3176-0" stdDeviation="1.71"/>
  </filter>
  <linearGradient id="linearGradient30064-1" y2="1013" gradientUnits="userSpaceOnUse" x2="26.517" gradientTransform="translate(179.45 -973.32)" y1="1032.6" x1="26.517">
   <stop id="stop4202-1" style="stop-color:#fa741b" offset="0"/>
   <stop id="stop4204-71" style="stop-color:#f7aa1d" offset="1"/>
  </linearGradient>
  <linearGradient id="linearGradient30066-7" y2="1026.6" gradientUnits="userSpaceOnUse" x2="24.375" gradientTransform="translate(179.45 -973.32)" y1="1043.8" x1="24.375">
   <stop id="stop4196-9" style="stop-color:#bae0fe" offset="0"/>
   <stop id="stop4409-7" style="stop-color:#d7eefe" offset=".5"/>
   <stop id="stop4411-9" style="stop-color:#e6f5fe" offset=".66055"/>
   <stop id="stop4413-4" style="stop-color:#edf9fe;stop-opacity:.33333" offset=".82321"/>
   <stop id="stop4198-1" style="stop-color:#f5fdff;stop-opacity:0" offset="1"/>
  </linearGradient>
  <linearGradient id="linearGradient30105" y2="24.356" gradientUnits="userSpaceOnUse" y1="32.532" gradientTransform="translate(179.45 31.04)" x2="23.6" x1="23.6">
   <stop id="stop4438-4" style="stop-color:#fff" offset="0"/>
   <stop id="stop4440-7" style="stop-color:#fff;stop-opacity:0" offset="1"/>
  </linearGradient>
 </defs>
 <rect id="rect892" style="stroke:url(#linearGradient3521);stroke-width:.97385;fill:url(#linearGradient3519)" transform="scale(1,-1)" ry="29.296" height="115.54" width="114.22" y="-122.25" x="7.0394"/>
 <rect id="rect892-2" style="stroke:url(#linearGradient3516);stroke-width:.97385;fill:url(#linearGradient3514)" transform="scale(1,-1)" ry="28.993" height="114.35" width="114.22" y="-121.46" x="7.0599"/>
 <path id="rect895" style="fill:url(#radialGradient3349)" d="m30.571 7.0104c-13.128 0.936-22.55 15.04-23.173 23.288-0.050142 0.97378-0.088772 1.9648-0.088772 2.9572v58.419c0 15.229 11.191 27.859 22.318 27.859h67.038c15.69 0 24.318-16.445 24.318-25.859v-64.017c-0.21-5.933-12.29-21.682-25.926-22.618-47.846 0.8653-20.497-0.0256-64.483-0.0256z"/>
 <rect id="rect892-2-7-8" style="opacity:.15891;stroke:#000;stroke-width:4.8445;fill:none" transform="scale(1,-1)" ry="28.993" height="114.35" width="114.22" y="-121.16" x="6.8683"/>
 <rect id="rect892-2-7-1" style="opacity:.15891;stroke:#000;stroke-width:7.7512;fill:none" transform="scale(1,-1)" ry="28.993" height="114.35" width="114.22" y="-121.16" x="6.8686"/>
 <rect id="rect892-2-7-2-9" ry="28.067" style="stroke:#000;stroke-width:1.0489;fill:none" transform="scale(1,-1)" height="112.71" width="114.14" y="-120.31" x="7.0644"/>
 <path id="path1187" style="fill:#fff;fill-opacity:.057143" d="m32.415 6.0906c-14.891-4.3298-32.779 19.454-27.93 26.295-0.04334 0.71563-0.07674 1.4439-0.07674 2.1732v10.76c25.899-25.61 66.753-35.479 90.375-39.179-0.22473-0.02628-0.45986-0.03062-0.69067-0.03062-41.576 0.38742-23.653-0.01876-61.677-0.01875z"/>
 <g id="layer2" style="display:none" transform="translate(137.63 15.959)">
  <rect id="rect3745" style="opacity:.9;filter:url(#filter3174-5);fill:url(#ButtonShadow-4)" rx="6" ry="6" height="85" width="86" y="7" x="5"/>
 </g>
 <g id="layer2-3" style="display:none" transform="translate(146.29 14.997)">
  <rect id="rect3745-4" style="opacity:.9;filter:url(#filter3174-0);fill:url(#ButtonShadow-4)" rx="6" ry="6" height="85" width="86" y="7" x="5"/>
 </g>
 <g id="layer2-4" style="display:none" transform="translate(176.76 -8.736)">
  <rect id="rect3745-7" style="opacity:.9;filter:url(#filter3174-7);fill:url(#ButtonShadow-4)" rx="6" ry="6" height="85" width="86" y="7" x="5"/>
 </g>
 <g id="layer2-2" style="display:none" transform="translate(143.15 5.055)">
  <rect id="rect3745-9" style="opacity:.9;filter:url(#filter3174-8);fill:url(#ButtonShadow-4)" rx="6" ry="6" height="85" width="86" y="7" x="5"/>
 </g>
 <g id="layer5-4" style="display:none" transform="translate(143.15 5.055)">
  <rect id="rect3171-7" style="opacity:.3;filter:url(#filter3794-30);stroke:#fff;stroke-linecap:round;stroke-width:.5;fill:url(#linearGradient3613-3)" clip-path="url(#clipPath3613-9)" rx="12" ry="12" height="66" width="66" y="15" x="15"/>
 </g>
 <g id="layer2-1" style="display:none" transform="translate(160.47 -5.8175)">
  <rect id="rect3745-8" style="opacity:.9;filter:url(#filter3174-4);fill:url(#ButtonShadow-4)" rx="6" ry="6" height="85" width="86" y="7" x="5"/>
 </g>
 <g id="layer5-46" style="display:none" transform="translate(160.47 -5.8175)">
  <rect id="rect3171-2" style="opacity:.1;filter:url(#filter3794-67);stroke:#fff;stroke-linecap:round;stroke-width:.5;fill:url(#linearGradient3613-3)" clip-path="url(#clipPath3613-26)" rx="12" ry="12" height="66" width="66" y="15" x="15"/>
 </g>
 <g id="g30053" transform="matrix(1.9 0 0 1.9 -323.91 -42.443)">
  <path id="path4453" d="m202.74 40.839c0.68581 5.8496-4.8546 6.3345-7.3867 11.822-1.773 3.8418 1.899 6.0399 4.2774 7.0293l-1.1348 2.0293h-4.4394l9.4004 9.9199 9.4004-9.9199h-4.4394l-0.8711-1.5606c4.4737-0.7527 6.8402-3.7453 6.8828-5.9121 0.0596-3.0718-3.4688-6.4707-3.4688-6.4707 0.65717 4.0322-1.7891 4.6406-1.7891 4.6406 0.85636-6.703-6.4316-11.578-6.4316-11.578z" style="fill-opacity:.058824"/>
  <path id="path4451" style="fill-opacity:.11765" d="m202.74 40.439c0.68581 5.8496-4.8546 6.3345-7.3867 11.822-1.773 3.8418 1.899 6.0399 4.2774 7.0293l-1.1348 2.0293h-4.4394l9.4004 9.9199 9.4004-9.9199h-4.4394l-0.8711-1.5606c4.4737-0.7527 6.8402-3.7453 6.8828-5.9121 0.0596-3.0718-3.4688-6.4707-3.4688-6.4707 0.65717 4.0322-1.7891 4.6406-1.7891 4.6406 0.85636-6.703-6.4316-11.578-6.4316-11.578z"/>
  <path id="path4444" d="m202.74 40.039c0.68581 5.8496-4.8546 6.3345-7.3867 11.822-1.773 3.8418 1.899 6.0399 4.2774 7.0293l-1.1348 2.0293h-4.4394l9.4004 9.9199 9.4004-9.9199h-4.4394l-0.8711-1.5606c4.4737-0.7527 6.8402-3.7453 6.8828-5.9121 0.0596-3.0718-3.4688-6.4707-3.4688-6.4707 0.65717 4.0322-1.7891 4.6406-1.7891 4.6406 0.85636-6.703-6.4316-11.578-6.4316-11.578z" style="fill-opacity:.23529"/>
  <path id="path4149" d="m202.74 39.64c0.68581 5.8496-4.854 6.3346-7.3861 11.822-2.5322 5.4867 6.1004 7.6776 6.1004 7.6776l2.2058-0.3181 1.7062 0.3181c5.8862 0 9.0159-3.597 9.0649-6.093 0.0596-3.0718-3.4699-6.4706-3.4699-6.4706 0.65717 4.0322-1.7882 4.6418-1.7882 4.6418 0.85635-6.703-6.433-11.578-6.433-11.578z" style="fill:url(#linearGradient30064-1)"/>
  <path id="path4420" style="fill:#c35604;fill-opacity:.31373" d="m202.74 39.639c0.0232 0.19762 0.0219 0.37478 0.0312 0.56055 0.0102-0.17137 0.0165-0.34509 0.0137-0.52734-0.005-0.0032-0.0449-0.0332-0.0449-0.0332zm8.2207 6.9375c0.0506 0.31059 0.0774 0.59397 0.0937 0.86524 0.0148-0.23677 0.0152-0.4908 0-0.76562-0.0124-0.01217-0.0937-0.09961-0.0937-0.09961zm-1.7461 3.082c-0.01 0.25188-0.0101 0.50232-0.043 0.75976 0 0 0.0423-0.01825 0.0469-0.01953 0.008-0.2496 0.009-0.49649-0.004-0.74023zm5.1895 2.8691c-0.26393 2.4762-3.3682 5.8125-9.0391 5.8125l-1.7051-0.31836-2.207 0.31836s-6.1145-1.5534-6.541-5.3164c-0.429 4.3432 6.541 6.1152 6.541 6.1152l2.207-0.31836 1.7051 0.31836c5.8862 0 9.0154-3.5958 9.0645-6.0918 0.003-0.17193-0.007-0.3462-0.0254-0.51953z"/>
  <path id="path5260" d="m203.45 51.64-4.9611 8.8814h-4.4389l9.4 9.9186 9.4-9.9186h-4.4389z" style="fill:url(#linearGradient30066-7)"/>
  <path id="path4415" style="fill:#2da3fb;fill-opacity:.31373" d="m194.05 60.52 9.4004 9.9199 9.4004-9.9199h-0.75781l-8.6426 9.1191-8.6426-9.1191h-0.75781z"/>
  <path id="path4425" style="fill:#fff;fill-opacity:.23529" d="m202.74 39.639c0.0172 0.14667 0.0139 0.27593 0.0234 0.41602 0.12228 0.08235 6.2598 4.2538 6.4648 10.166 0.0702-6.1825-6.4883-10.582-6.4883-10.582zm0.043 1.1992c-0.16576 4.7416-5.0835 5.5383-7.4297 10.623-0.36114 0.78249-0.48874 1.4968-0.45313 2.1484 0.0278-0.54142 0.16448-1.1226 0.45313-1.748 2.4102-5.2236 7.5323-5.9242 7.4297-11.023zm8.1777 5.7383c0.0262 0.16071 0.04 0.30702 0.0566 0.45703 0.16582 0.1616 3.2707 3.2318 3.3984 6.1543 0.003-0.04657 0.0128-0.09477 0.0137-0.14063 0.0596-3.0718-3.4688-6.4707-3.4688-6.4707zm0.10156 1.5098c-0.0941 2.6262-1.8038 3.1044-1.8672 3.1211-0.0109 0.1376-0.006 0.27095-0.0234 0.41016 0 0 1.9689-0.50194 1.8906-3.5312z"/>
  <path id="path4431" style="fill:url(#linearGradient30105)" d="m203.45 51.639-4.9609 8.8809h-4.4394l0.37891 0.40039h4.0605l4.9609-8.8809 4.9609 8.8809h4.0605l0.37891-0.40039h-4.4394l-4.9609-8.8809z"/>
 </g>
</svg>
