<?xml version="1.0" encoding="UTF-8" standalone="no"?>
<!-- Created with Inkscape (http://www.inkscape.org/) -->

<svg
   xmlns:dc="http://purl.org/dc/elements/1.1/"
   xmlns:cc="http://creativecommons.org/ns#"
   xmlns:rdf="http://www.w3.org/1999/02/22-rdf-syntax-ns#"
   xmlns:svg="http://www.w3.org/2000/svg"
   xmlns="http://www.w3.org/2000/svg"
   xmlns:xlink="http://www.w3.org/1999/xlink"
   xmlns:sodipodi="http://sodipodi.sourceforge.net/DTD/sodipodi-0.dtd"
   xmlns:inkscape="http://www.inkscape.org/namespaces/inkscape"
   id="svg3449"
   height="128"
   width="128"
   version="1.0"
   inkscape:version="0.48.4 r9939"
   sodipodi:docname="github_B.svg">
  <sodipodi:namedview
     pagecolor="#ffffff"
     bordercolor="#666666"
     borderopacity="1"
     objecttolerance="10"
     gridtolerance="10"
     guidetolerance="10"
     inkscape:pageopacity="0"
     inkscape:pageshadow="2"
     inkscape:window-width="1360"
     inkscape:window-height="707"
     id="namedview38"
     showgrid="false"
     inkscape:zoom="2.6074563"
     inkscape:cx="33.772912"
     inkscape:cy="71.736138"
     inkscape:window-x="-2"
     inkscape:window-y="33"
     inkscape:window-maximized="1"
     inkscape:current-layer="svg3449" />
  <metadata
     id="metadata56">
    <rdf:RDF>
      <cc:Work
         rdf:about="">
        <dc:format>image/svg+xml</dc:format>
        <dc:type
           rdf:resource="http://purl.org/dc/dcmitype/StillImage" />
        <dc:title></dc:title>
      </cc:Work>
    </rdf:RDF>
  </metadata>
  <defs
     id="defs3451">
    <linearGradient
       id="linearGradient4114">
      <stop
         style="stop-color:#ffffff;stop-opacity:0.38690478;"
         offset="0"
         id="stop4116" />
      <stop
         style="stop-color:#ffffff;stop-opacity:0;"
         offset="1"
         id="stop4118" />
    </linearGradient>
    <linearGradient
       id="linearGradient3514"
       y2="-9.1034"
       gradientUnits="userSpaceOnUse"
       x2="66.492"
       gradientTransform="matrix(.96826 0 0 .97948 2.179 .16587)"
       y1="-42.638"
       x1="67.952">
      <stop
         id="stop4620"
         style="stop-color:#37414b"
         offset="0" />
      <stop
         id="stop4622"
         style="stop-color:#37414b;stop-opacity:0"
         offset="1" />
    </linearGradient>
    <linearGradient
       id="linearGradient3516"
       y2="-11.847"
       gradientUnits="userSpaceOnUse"
       x2="58.98"
       gradientTransform="matrix(.96826 0 0 .97948 2.179 .16587)"
       y1="-118.55"
       x1="57.173">
      <stop
         id="stop4596"
         offset="0" />
      <stop
         id="stop4598"
         style="stop-opacity:0"
         offset="1" />
    </linearGradient>
    <linearGradient
       id="linearGradient3519"
       y2="50.369"
       gradientUnits="userSpaceOnUse"
       x2="76.558"
       gradientTransform="matrix(.96826 0 0 .97948 3.2423 -129.19)"
       y1="13.164"
       x1="76.558">
      <stop
         id="stop3392"
         style="stop-color:#425e7b"
         offset="0" />
      <stop
         id="stop3394"
         style="stop-color:#7a91a7"
         offset="1" />
    </linearGradient>
    <linearGradient
       id="linearGradient3521"
       y2="-8.7399"
       gradientUnits="userSpaceOnUse"
       x2="60.217"
       gradientTransform="matrix(.96826 0 0 .97948 2.179 .16587)"
       y1="-123.72"
       x1="60.395">
      <stop
         id="stop3392-4-8"
         style="stop-color:#425e7b"
         offset="0" />
      <stop
         id="stop3394-8-0"
         style="stop-color:#7a91a7"
         offset="1" />
    </linearGradient>
    <radialGradient
       id="radialGradient3349"
       gradientUnits="userSpaceOnUse"
       cy="45.647"
       cx="42.148"
       gradientTransform="matrix(0.9469,0,0,1.1603514,3.5954,-30.581727)"
       r="58.984">
      <stop
         id="stop2699-5"
         style="stop-color:#868686"
         offset="0" />
      <stop
         id="stop2701-7"
         style="stop-color:#4a4a4a"
         offset="1" />
    </radialGradient>
    <linearGradient
       id="linearGradient4168">
      <stop
         stop-color="#fd84af"
         offset="0"
         id="stop4170" />
      <stop
         stop-color="#ec538c"
         offset="1"
         id="stop4172" />
    </linearGradient>
    <linearGradient
       gradientTransform="matrix(4.8484856,0,0,4.8484856,-1373.0911,-112.48489)"
       y2="124"
       x2="384"
       y1="28"
       x1="384"
       gradientUnits="userSpaceOnUse"
       id="linearGradient3903"
       xlink:href="#linearGradient3894"
       inkscape:collect="always" />
    <linearGradient
       id="linearGradient3894">
      <stop
         style="stop-color:#ebebeb;stop-opacity:1;"
         offset="0"
         id="stop3896" />
      <stop
         id="stop3902"
         offset="1"
         style="stop-color:#bebebe;stop-opacity:1;" />
    </linearGradient>
    <linearGradient
       inkscape:collect="always"
       xlink:href="#linearGradient4114"
       id="linearGradient4120"
       x1="0.38134682"
       y1="0.3894217"
       x2="51.829521"
       y2="44.685467"
       gradientUnits="userSpaceOnUse" />
  </defs>
  <rect
     id="rect892"
     style="stroke:url(#linearGradient3521);stroke-width:.97385;fill:url(#linearGradient3519)"
     transform="scale(1,-1)"
     ry="29.296"
     height="115.54"
     width="114.22"
     y="-122.25"
     x="7.0394" />
  <rect
     id="rect892-2"
     style="stroke:url(#linearGradient3516);stroke-width:.97385;fill:url(#linearGradient3514)"
     transform="scale(1,-1)"
     ry="28.993"
     height="114.35"
     width="114.22"
     y="-121.46"
     x="7.0599" />
  <path
     id="rect895"
     style="fill:url(#radialGradient3349)"
     d="M 30.571,7.0104 C 17.443,7.9639461 8.021,22.332337 7.398,30.734952 7.347858,31.726986 7.309228,32.736584 7.309228,33.747587 l 0,59.51411 c 0,15.514483 15.50555,28.381243 22.318,28.381243 l 67.038,0 c 14.587392,0 24.318002,-16.75328 24.318002,-26.343752 l 0,-65.217049 C 120.48559,22.887374 109.93966,8.2813301 95.057228,7.0401474 c -47.846,0.8815207 -20.497,-0.02608 -64.483,-0.02608 z"
     inkscape:connector-curvature="0"
     sodipodi:nodetypes="ccssssscccc" />
  <g
     transform="matrix(0.23791049,0,0,0.23963756,3.7728808,2.3815982)"
     id="g6416"
     style="fill:#808080">
    <path
       inkscape:connector-curvature="0"
       id="path4086"
       d="m 137.03125,26.127012 0,56.994575 -56.5,0 0,-50.047782 c -0.797891,0.326911 -1.587998,0.641121 -2.375,0.987988 l 0,49.059794 -49.65625,0 c -0.351085,0.777549 -0.669115,1.558166 -1,2.346473 l 50.65625,0 0,55.82134 -57.6875,0 0,2.37735 57.6875,0 0,55.79046 -57.6875,0 0,2.37735 57.6875,0 0,55.82134 -57.6875,0 0,2.34647 57.6875,0 0,55.82134 -57.6875,0 0,2.37734 57.6875,0 0,55.79047 -57.6875,0 0,2.37734 57.6875,0 0,55.82134 -50.65625,0 c 0.330885,0.78831 0.648915,1.56893 1,2.34648 l 49.65625,0 0,49.05979 c 0.787002,0.34687 1.577109,0.66108 2.375,0.98799 l 0,-50.04778 56.5,0 0,56.99457 2.40625,0 0,-56.99457 56.46875,0 0,56.99457 2.40625,0 0,-56.99457 56.5,0 0,56.99457 2.375,0 0,-56.99457 56.5,0 0,56.99457 2.40625,0 0,-56.99457 56.46875,0 0,56.99457 2.40625,0 0,-56.99457 56.5,0 0,50.04778 c 0.79789,-0.32691 1.588,-0.64112 2.375,-0.98799 l 0,-49.05979 49.65625,0 c 0.35109,-0.77755 0.66912,-1.55817 1,-2.34648 l -50.65625,0 0,-55.82134 57.6875,0 0,-2.37734 -57.6875,0 0,-55.79047 57.6875,0 0,-2.37734 -57.6875,0 0,-55.82134 57.6875,0 0,-2.34647 -57.6875,0 0,-55.82134 57.6875,0 0,-2.37735 -57.6875,0 0,-55.79046 57.6875,0 0,-2.37735 -57.6875,0 0,-55.82134 50.65625,0 c -0.33088,-0.788307 -0.64891,-1.568924 -1,-2.346473 l -49.65625,0 0,-49.059794 c -0.787,-0.346867 -1.57711,-0.661077 -2.375,-0.987988 l 0,50.047782 -56.5,0 0,-56.994575 -2.40625,0 0,56.994575 -56.46875,0 0,-56.994575 -2.40625,0 0,56.994575 -56.5,0 0,-56.994575 -2.375,0 0,56.994575 -56.5,0 0,-56.994575 -2.40625,0 0,56.994575 -56.46875,0 0,-56.994575 -2.40625,0 z m -56.5,59.341048 56.5,0 0,55.82134 -56.5,0 0,-55.82134 z m 58.90625,0 56.46875,0 0,55.82134 -56.46875,0 0,-55.82134 z m 58.875,0 56.5,0 0,55.82134 -56.5,0 0,-55.82134 z m 58.875,0 56.5,0 0,55.82134 -56.5,0 0,-55.82134 z m 58.90625,0 56.46875,0 0,55.82134 -56.46875,0 0,-55.82134 z m 58.875,0 56.5,0 0,55.82134 -56.5,0 0,-55.82134 z m -294.4375,58.19869 56.5,0 0,55.79046 -56.5,0 0,-55.79046 z m 58.90625,0 56.46875,0 0,52.79562 c 0.78902,-0.26011 1.58972,-0.49514 2.40625,-0.71012 l 0,-52.0855 56.5,0 0,52.209 c 0.78671,0.0236 1.58301,0.0458 2.375,0.0617 l 0,-52.27075 56.5,0 0,50.35652 c 0.81342,0.0562 1.61169,0.13485 2.40625,0.21613 l 0,-50.57265 56.46875,0 0,55.79046 -39.0625,0 c 1.17538,0.70294 2.31819,1.50578 3.40625,2.37735 l 35.65625,0 0,55.82134 -21.5625,0 c -0.26111,0.79896 -0.52111,1.58495 -0.8125,2.34647 l 22.375,0 0,55.82134 -56.46875,0 0,-28.52817 c -0.79805,0.19715 -1.58916,0.37735 -2.40625,0.55575 l 0,27.97242 -56.5,0 0,-24.51446 c -0.79559,-0.007 -1.58474,-0.0197 -2.375,-0.0308 l 0,24.54534 -56.5,0 0,-33.25199 c -0.81428,-0.34556 -1.61937,-0.67805 -2.40625,-1.04973 l 0,34.30172 -56.46875,0 0,-55.82134 34,0 c -0.36175,-0.76596 -0.6755,-1.54388 -1,-2.34648 l -33,0 0,-55.82133 46.3125,0 c 1.11743,-0.88759 2.25931,-1.66528 3.46875,-2.37735 l -49.78125,0 0,-55.79047 z m 235.53125,0 56.5,0 0,55.79046 -56.5,0 0,-55.79046 z m -294.4375,58.16781 56.5,0 0,55.82134 -56.5,0 0,-55.82134 z m 294.4375,0 56.5,0 0,55.82134 -56.5,0 0,-55.82134 z m -294.4375,58.16781 56.5,0 0,55.82134 -56.5,0 0,-55.82134 z m 294.4375,0 56.5,0 0,55.82134 -56.5,0 0,-55.82134 z m -294.4375,58.19868 56.5,0 0,55.79047 -56.5,0 0,-55.79047 z m 58.90625,0 56.46875,0 0,55.79047 -56.46875,0 0,-55.79047 z m 58.875,0 56.5,0 0,55.79047 -56.5,0 0,-55.79047 z m 58.875,0 56.5,0 0,55.79047 -56.5,0 0,-55.79047 z m 58.90625,0 56.46875,0 0,55.79047 -56.46875,0 0,-55.79047 z m 58.875,0 56.5,0 0,55.79047 -56.5,0 0,-55.79047 z m -294.4375,58.16781 56.5,0 0,55.82134 -56.5,0 0,-55.82134 z m 58.90625,0 56.46875,0 0,55.82134 -56.46875,0 0,-55.82134 z m 58.875,0 56.5,0 0,55.82134 -56.5,0 0,-55.82134 z m 58.875,0 56.5,0 0,55.82134 -56.5,0 0,-55.82134 z m 58.90625,0 56.46875,0 0,55.82134 -56.46875,0 0,-55.82134 z m 58.875,0 56.5,0 0,55.82134 -56.5,0 0,-55.82134 z"
       style="font-size:medium;font-style:normal;font-variant:normal;font-weight:normal;font-stretch:normal;text-indent:0;text-align:start;text-decoration:none;line-height:normal;letter-spacing:normal;word-spacing:normal;text-transform:none;direction:ltr;block-progression:tb;writing-mode:lr-tb;text-anchor:start;baseline-shift:baseline;color:#000000;fill:#808080;fill-opacity:1;stroke:none;stroke-width:2.40000010000000019;marker:none;visibility:visible;display:inline;overflow:visible;enable-background:accumulate;font-family:Sans;-inkscape-font-specification:Sans" />
  </g>
  <path
     id="path1187"
     style="fill:url(#linearGradient4120);fill-opacity:1"
     d="M 35.099609,7.0493889 C 15.127028,6.6506232 7.6898264,24.68169 7.1696088,33.344389 c -0.04334,0.71563 -0.07674,1.4439 -0.07674,2.1732 l 0,10.76 c 25.8990002,-25.61 66.7530002,-35.479 90.3750002,-39.1790001 -0.22473,-0.02628 -0.45986,-0.03062 -0.69067,-0.03062 -41.576,0.38742 -23.653,-0.01876 -61.677,-0.01875 z"
     inkscape:connector-curvature="0"
     sodipodi:nodetypes="ccsccccc" />
  <rect
     id="rect892-2-7-8"
     style="opacity:.15891;stroke:#000;stroke-width:4.8445;fill:none"
     transform="scale(1,-1)"
     ry="28.993"
     height="114.35"
     width="114.22"
     y="-121.16"
     x="6.8683" />
  <rect
     id="rect892-2-7-1"
     style="opacity:.15891;stroke:#000;stroke-width:7.7512;fill:none"
     transform="scale(1,-1)"
     ry="28.993"
     height="114.35"
     width="114.22"
     y="-121.16"
     x="6.8686" />
  <rect
     id="rect892-2-7-2-9"
     ry="28.684994"
     style="fill:none;stroke:#000000;stroke-width:1.26221895;stroke-miterlimit:4;stroke-dasharray:none"
     transform="scale(1,-1)"
     height="115.19171"
     width="114.12711"
     y="-121.99847"
     x="7.0708499" />
  <g
     transform="matrix(2.4584242,0,0,2.4584242,0.0809708,-2464.149)"
     id="g6210">
    <g
       id="g6204">
      <g
         id="g6199" />
    </g>
  </g>
  <path
     inkscape:connector-curvature="0"
     style="fill:#ffffff;fill-opacity:1"
     d="m 40.983906,24.002805 c -0.836678,-0.01912 -1.234375,0.109375 -1.234375,0.109375 -2.685465,6.714522 -1.028438,11.687032 -0.523438,12.921875 -3.15562,3.405777 -5.078125,7.755475 -5.078125,13.085937 0,4.024525 0.45875,7.635475 1.578125,10.773438 l 1.171875,2.664062 c 3.145153,5.863588 9.349548,9.654533 20.382813,10.843751 -1.565935,1.051405 -3.165,2.83969 -3.8125,5.867187 -2.134372,1.02078 -8.88407,3.51077 -12.9375,-3.460937 0,0 -2.27485,-4.152188 -6.617188,-4.476563 0,0 -4.210465,-0.06484 -0.289062,2.625 0,0 2.820627,1.32938 4.765625,6.320313 0,0 2.538455,8.513122 14.78125,5.78125 l 0,8.796872 c 0,0 -0.265472,3.112038 -3.117187,4.148435 0,0 -1.682186,1.16625 0.132812,1.8125 0,0 7.90625,0.65109 7.90625,-5.828115 l 0,-9.593755 c 0,0 -0.313903,-3.802502 1.554687,-5.125 l 0,15.750005 c 0,0 -0.126565,3.762495 -2.070312,5.187495 0,0 -1.29656,2.32624 1.554687,1.67968 0,0 5.435938,-0.77563 5.695313,-7.124995 l 0.125,-15.937497 1.3125,0 0.125,15.937497 c 0.259062,6.349365 5.695312,7.124995 5.695312,7.124995 2.849995,0.64656 1.554688,-1.67968 1.554688,-1.67968 -1.943903,-1.42578 -2.070313,-5.187495 -2.070313,-5.187495 l 0,-15.60938 c 1.866873,1.454998 1.554688,4.984375 1.554688,4.984375 l 0,9.593755 c 0,6.479825 7.90625,5.828115 7.90625,5.828115 1.813277,-0.64672 0.125,-1.8125 0.125,-1.8125 -2.851403,-1.036557 -3.109375,-4.148435 -3.109375,-4.148435 l 0,-12.57031 c 0,-4.901712 -2.059068,-7.4975 -4.078125,-8.867187 11.766702,-1.16703 17.414065,-4.963758 20.015625,-10.867188 l 0.929687,-2.632813 c 0.872343,-3.143432 1.132813,-6.762972 1.132813,-10.796875 1.57e-4,-5.784992 -2.174535,-10.41563 -5.703125,-13.9375 0.616562,-1.990465 1.442495,-6.411727 -0.820313,-12.070312 0,0 -3.993605,-1.269992 -13.023437,4.773437 -3.538275,-0.88375 -7.300318,-1.320312 -11.070313,-1.320312 -4.147962,0 -8.340475,0.529532 -12.249999,1.601562 C 46.773661,24.79663 42.824598,24.044861 40.983906,24.002805 z m 11.796875,27.65625 c 2.668277,0.0028 4.828125,3.112192 4.828125,6.953125 0,3.842025 -2.15969,6.953125 -4.828125,6.953125 -2.668432,0 -4.835938,-3.1111 -4.835938,-6.953125 0,-3.840933 2.167348,-6.953125 4.835938,-6.953125 z m 25.921875,0 c 2.668747,0.0028 4.828282,3.112192 4.828125,6.953125 0,3.842025 -2.159535,6.953125 -4.828125,6.953125 -2.668435,0 -4.835938,-3.1111 -4.835938,-6.953125 0,-3.840933 2.167503,-6.953125 4.835938,-6.953125 z m -13.351563,7.960937 c 1.018828,0 1.84375,0.824925 1.84375,1.84375 0,1.018828 -0.824922,1.851563 -1.84375,1.851563 -1.018827,0 -1.84375,-0.832735 -1.84375,-1.851563 0,-1.018825 0.824923,-1.84375 1.84375,-1.84375 z m -3.71875,5.71875 c 0.23654,0.0091 0.44837,0.163583 0.53125,0.398438 0.47525,1.34075 1.745563,2.242187 3.164063,2.242187 1.4185,0 2.688562,-0.901187 3.164062,-2.242187 0.109,-0.309 0.448813,-0.468375 0.757813,-0.359375 0.30925,0.1095 0.467875,0.448312 0.359375,0.757812 -0.6405,1.8125 -2.362,3.023438 -4.28125,3.023438 -1.9195,0 -3.64,-1.208688 -4.28125,-3.023438 -0.109,-0.3095 0.05212,-0.648812 0.359375,-0.757812 0.03859,-0.01362 0.07815,-0.02587 0.117187,-0.03125 0.03416,-0.0047 0.07558,-0.0091 0.109375,-0.0078 z"
     id="path6532" />
</svg>
