<?xml version="1.0" encoding="UTF-8" standalone="no"?>
<!-- Created with Inkscape (http://www.inkscape.org/) -->
<svg id="svg3449" xmlns:rdf="http://www.w3.org/1999/02/22-rdf-syntax-ns#" xmlns="http://www.w3.org/2000/svg" height="128" width="128" version="1.0" xmlns:cc="http://creativecommons.org/ns#" xmlns:xlink="http://www.w3.org/1999/xlink" xmlns:dc="http://purl.org/dc/elements/1.1/">
 <metadata id="metadata56">
  <rdf:RDF>
   <cc:Work rdf:about="">
    <dc:format>image/svg+xml</dc:format>
    <dc:type rdf:resource="http://purl.org/dc/dcmitype/StillImage"/>
    <dc:title/>
   </cc:Work>
  </rdf:RDF>
 </metadata>
 <defs id="defs3451">
  <linearGradient id="linearGradient3514" y2="-9.1034" gradientUnits="userSpaceOnUse" x2="66.492" gradientTransform="matrix(.96826 0 0 .97948 2.179 .16587)" y1="-42.638" x1="67.952">
   <stop id="stop4620" style="stop-color:#37414b" offset="0"/>
   <stop id="stop4622" style="stop-color:#37414b;stop-opacity:0" offset="1"/>
  </linearGradient>
  <linearGradient id="linearGradient3516" y2="-11.847" gradientUnits="userSpaceOnUse" x2="58.98" gradientTransform="matrix(.96826 0 0 .97948 2.179 .16587)" y1="-118.55" x1="57.173">
   <stop id="stop4596" offset="0"/>
   <stop id="stop4598" style="stop-opacity:0" offset="1"/>
  </linearGradient>
  <linearGradient id="linearGradient3519" y2="50.369" gradientUnits="userSpaceOnUse" x2="76.558" gradientTransform="matrix(.96826 0 0 .97948 3.2423 -129.19)" y1="13.164" x1="76.558">
   <stop id="stop3392" style="stop-color:#425e7b" offset="0"/>
   <stop id="stop3394" style="stop-color:#7a91a7" offset="1"/>
  </linearGradient>
  <linearGradient id="linearGradient3521" y2="-8.7399" gradientUnits="userSpaceOnUse" x2="60.217" gradientTransform="matrix(.96826 0 0 .97948 2.179 .16587)" y1="-123.72" x1="60.395">
   <stop id="stop3392-4-8" style="stop-color:#425e7b" offset="0"/>
   <stop id="stop3394-8-0" style="stop-color:#7a91a7" offset="1"/>
  </linearGradient>
  <radialGradient id="radialGradient3349" gradientUnits="userSpaceOnUse" cy="45.647" cx="42.148" gradientTransform="matrix(.94690 0 0 1.139 3.5954 -29.89)" r="58.984">
   <stop id="stop44117" style="stop-color:#fc5733" offset="0"/>
   <stop id="stop44119" style="stop-color:#c31815" offset="1"/>
  </radialGradient>
  <linearGradient id="linearGradient11406" y2="19.812" gradientUnits="userSpaceOnUse" x2="15.25" gradientTransform="matrix(2.6667 0 0 4.341 -1.4969e-7 -5.0231)" y1="8.4375" x1="12.938">
   <stop id="stop6594-0-2" style="stop-color:#fff;stop-opacity:.27451" offset="0"/>
   <stop id="stop6596-2-5" style="stop-color:#fff;stop-opacity:0" offset="1"/>
  </linearGradient>
  <filter id="filter3174" color-interpolation-filters="sRGB">
   <feGaussianBlur id="feGaussianBlur3176" stdDeviation="1.71"/>
  </filter>
  <linearGradient id="ButtonShadow-4" x1="45.448" gradientUnits="userSpaceOnUse" y1="92.54" gradientTransform="scale(1.0059 .99417)" x2="45.448" y2="7.0165">
   <stop id="stop3750-7" offset="0"/>
   <stop id="stop3752-9" style="stop-opacity:.58824" offset="1"/>
  </linearGradient>
  <filter id="filter3174-7" color-interpolation-filters="sRGB">
   <feGaussianBlur id="feGaussianBlur3176-1" stdDeviation="1.71"/>
  </filter>
  <filter id="filter3174-0" color-interpolation-filters="sRGB">
   <feGaussianBlur id="feGaussianBlur3176-4" stdDeviation="1.71"/>
  </filter>
  <filter id="filter3174-9" color-interpolation-filters="sRGB">
   <feGaussianBlur id="feGaussianBlur3176-16" stdDeviation="1.71"/>
  </filter>
  <radialGradient id="radialGradient3801" cx="19" xlink:href="#linearGradient3779" gradientUnits="userSpaceOnUse" cy="24" r="8" gradientTransform="matrix(1.625 0 0 1.3807 -11.875 -9.1361)"/>
  <radialGradient id="radialGradient3773" cx="24" xlink:href="#linearGradient3734" gradientUnits="userSpaceOnUse" cy="24" r="8"/>
  <clipPath id="clipPath3613-6">
   <rect id="rect3615-0" style="fill:#fff" rx="6" ry="6" height="84" width="84" y="6" x="6"/>
  </clipPath>
  <linearGradient id="linearGradient3613-76" x1="48" gradientUnits="userSpaceOnUse" y1="20.221" x2="48" y2="138.66">
   <stop id="stop3739-24" style="stop-color:#fff" offset="0"/>
   <stop id="stop3741-2" style="stop-color:#fff;stop-opacity:0" offset="1"/>
  </linearGradient>
  <filter id="filter3794-83" height="1.384" width="1.384" color-interpolation-filters="sRGB" y="-.192" x="-.192">
   <feGaussianBlur id="feGaussianBlur3796-4" stdDeviation="5.28"/>
  </filter>
  <filter id="filter3174-4" color-interpolation-filters="sRGB">
   <feGaussianBlur id="feGaussianBlur3176-8" stdDeviation="1.71"/>
  </filter>
  <linearGradient id="linearGradient3734">
   <stop id="stop3736" style="stop-color:#500" offset="0"/>
   <stop id="stop3742" style="stop-color:#500;stop-opacity:.49804" offset=".62051"/>
   <stop id="stop3803" style="stop-color:#500;stop-opacity:.17829" offset=".81025"/>
   <stop id="stop3738" style="stop-color:#500;stop-opacity:0" offset="1"/>
  </linearGradient>
  <linearGradient id="linearGradient3779">
   <stop id="stop3781-4" style="stop-color:#fff" offset="0"/>
   <stop id="stop3785-8" style="stop-color:#e5e5e5" offset=".81419"/>
   <stop id="stop3783-9" style="stop-color:#c8c8c8" offset="1"/>
  </linearGradient>
 </defs>
 <rect id="rect892" style="stroke:url(#linearGradient3521);stroke-width:.97385;fill:url(#linearGradient3519)" transform="scale(1,-1)" ry="29.296" height="115.54" width="114.22" y="-122.25" x="7.0394"/>
 <rect id="rect892-2" style="stroke:url(#linearGradient3516);stroke-width:.97385;fill:url(#linearGradient3514)" transform="scale(1,-1)" ry="28.993" height="114.35" width="114.22" y="-121.46" x="7.0599"/>
 <path id="rect895" style="fill:url(#radialGradient3349)" d="m33.051 7.2596c-7.969-2.4493-27.013 15.174-25.653 23.038-0.050142 0.97378-0.088772 1.9648-0.088772 2.9572v52.419c0 20.876 10.712 33.859 22.318 33.859h67.038c12.638 0 24.318-11.245 24.318-25.859v-64.017c0.7-10.928-21.283-24.659-25.926-22.618-47.846 0.8653-18.017 0.2236-62.003 0.2236z"/>
 <path id="rect6588" d="m7.2651 40.702c-3.6107-28.823 22.731-33.361 32.668-33.437l55.816 0.735c21.091 2.903 26.611 16.187 24.251 34.728l-112 30.388z" style="fill:url(#linearGradient11406)"/>
 <rect id="rect892-2-7-8" style="opacity:.15891;stroke:#000;stroke-width:4.8445;fill:none" transform="scale(1,-1)" ry="28.993" height="114.35" width="114.22" y="-121.16" x="6.8687"/>
 <rect id="rect892-2-7-1" style="opacity:.15891;stroke:#000;stroke-width:7.7512;fill:none" transform="scale(1,-1)" ry="28.993" height="114.35" width="114.22" y="-121.16" x="6.8687"/>
 <rect id="rect892-2-7-2-9" ry="28.067" style="stroke:#000;stroke-width:1.0489;fill:none" transform="scale(1,-1)" height="112.71" width="114.14" y="-120.31" x="7.0649"/>
 <path id="path1187" style="fill:#fff;fill-opacity:.057143" d="m33.017 7.2319c-23.707 0-26.027 0.6738-25.93 26.295-0.04334 0.71563-0.07674 1.4439-0.07674 2.1732v32.76c18.67-38.321 38.34-51.497 90.374-61.179-0.225-0.026-0.46-0.0303-0.691-0.0303-41.576 0.3874-25.652-0.0188-63.676-0.0188z"/>
 <g id="layer2" style="display:none" transform="matrix(1.2166 0 0 1.2299 5.6049 3.1187)">
  <rect id="rect3745" style="opacity:.9;filter:url(#filter3174);fill:url(#ButtonShadow-4)" rx="6" ry="6" height="85" width="86" y="7" x="5"/>
 </g>
 <g id="layer2-6" style="display:none" transform="matrix(1.2166 0 0 1.2299 5.6049 3.1187)">
  <rect id="rect3745-8" style="opacity:.9;filter:url(#filter3174-7);fill:url(#ButtonShadow-4)" rx="6" ry="6" height="85" width="86" y="7" x="5"/>
 </g>
 <g id="layer2-69" style="display:none" transform="matrix(1.2166 0 0 1.2299 5.6049 3.1187)">
  <rect id="rect3745-4" style="opacity:.9;filter:url(#filter3174-0);fill:url(#ButtonShadow-4)" rx="6" ry="6" height="85" width="86" y="7" x="5"/>
 </g>
 <g id="layer2-64" style="display:none" transform="translate(-349.33 -29.687)">
  <rect id="rect3745-6" style="opacity:.9;filter:url(#filter3174-9);fill:url(#ButtonShadow-4)" rx="6" ry="6" height="85" width="86" y="7" x="5"/>
 </g>
 <g id="layer2-0" style="display:none" transform="matrix(1.2166 0 0 1.2299 5.6049 3.1187)">
  <rect id="rect3745-7" style="opacity:.9;filter:url(#filter3174-4);fill:url(#ButtonShadow-4)" rx="6" ry="6" height="85" width="86" y="7" x="5"/>
 </g>
 <g id="layer1-1" transform="matrix(1.2166 0 0 1.2299 5.6049 3.1187)">
  <path id="path3692" style="opacity:.3;color:#000000;fill:url(#radialGradient3773)" transform="matrix(0,-1.625,1.625,0,33,63)" d="m32 24a8 8 0 1 1 -16 0 8 8 0 1 1 16 0z"/>
  <path id="path3744" style="opacity:.3;color:#000000;fill:url(#radialGradient3773)" transform="matrix(0,-1.625,1.625,0,-15,63)" d="m32 24a8 8 0 1 1 -16 0 8 8 0 1 1 16 0z"/>
  <path id="path3746-0" style="color:#000000;fill:url(#radialGradient3801)" transform="matrix(0,-1,1,0,0,48)" d="m32 24a8 8 0 1 1 -16 0 8 8 0 1 1 16 0z"/>
  <path id="path3752" style="opacity:.3;color:#000000;fill:url(#radialGradient3773)" transform="matrix(0,-1.625,1.625,0,-15,111)" d="m32 24a8 8 0 1 1 -16 0 8 8 0 1 1 16 0z"/>
  <path id="path3760" style="opacity:.3;color:#000000;fill:url(#radialGradient3773)" transform="matrix(0,-1.625,1.625,0,33,111)" d="m32 24a8 8 0 1 1 -16 0 8 8 0 1 1 16 0z"/>
  <path id="path3768" style="opacity:.3;color:#000000;fill:url(#radialGradient3773)" transform="matrix(0,-1.625,1.625,0,9,87)" d="m32 24a8 8 0 1 1 -16 0 8 8 0 1 1 16 0z"/>
  <path id="path3787" style="color:#000000;fill:url(#radialGradient3801)" transform="matrix(0,-1,1,0,48,48)" d="m32 24a8 8 0 1 1 -16 0 8 8 0 1 1 16 0z"/>
  <path id="path3791" style="color:#000000;fill:url(#radialGradient3801)" transform="matrix(0,-1,1,0,0,96)" d="m32 24a8 8 0 1 1 -16 0 8 8 0 1 1 16 0z"/>
  <path id="path3793" style="color:#000000;fill:url(#radialGradient3801)" transform="matrix(0,-1,1,0,48,96)" d="m32 24a8 8 0 1 1 -16 0 8 8 0 1 1 16 0z"/>
  <path id="path3799" style="color:#000000;fill:url(#radialGradient3801)" transform="matrix(0,-1,1,0,24,72)" d="m32 24a8 8 0 1 1 -16 0 8 8 0 1 1 16 0z"/>
 </g>
 <g id="layer5-3" style="display:none" transform="matrix(1.2166 0 0 1.2299 5.6049 3.1187)">
  <rect id="rect3171-2" style="opacity:.1;filter:url(#filter3794-83);stroke:#fff;stroke-linecap:round;stroke-width:.5;fill:url(#linearGradient3613-76)" clip-path="url(#clipPath3613-6)" rx="12" ry="12" height="66" width="66" y="15" x="15"/>
 </g>
</svg>
