<?xml version="1.0" encoding="UTF-8" standalone="no"?>
<!-- Created with Inkscape (http://www.inkscape.org/) -->

<svg
   xmlns:dc="http://purl.org/dc/elements/1.1/"
   xmlns:cc="http://creativecommons.org/ns#"
   xmlns:rdf="http://www.w3.org/1999/02/22-rdf-syntax-ns#"
   xmlns:svg="http://www.w3.org/2000/svg"
   xmlns="http://www.w3.org/2000/svg"
   xmlns:xlink="http://www.w3.org/1999/xlink"
   xmlns:sodipodi="http://sodipodi.sourceforge.net/DTD/sodipodi-0.dtd"
   xmlns:inkscape="http://www.inkscape.org/namespaces/inkscape"
   id="svg3449"
   height="128"
   width="128"
   version="1.0"
   inkscape:version="0.48.4 r9939"
   sodipodi:docname="tunein.svg">
  <sodipodi:namedview
     pagecolor="#ffffff"
     bordercolor="#666666"
     borderopacity="1"
     objecttolerance="10"
     gridtolerance="10"
     guidetolerance="10"
     inkscape:pageopacity="0"
     inkscape:pageshadow="2"
     inkscape:window-width="1360"
     inkscape:window-height="707"
     id="namedview83"
     showgrid="false"
     inkscape:zoom="1.3037281"
     inkscape:cx="-119.74636"
     inkscape:cy="60.958743"
     inkscape:window-x="-2"
     inkscape:window-y="33"
     inkscape:window-maximized="1"
     inkscape:current-layer="svg3449" />
  <metadata
     id="metadata56">
    <rdf:RDF>
      <cc:Work
         rdf:about="">
        <dc:format>image/svg+xml</dc:format>
        <dc:type
           rdf:resource="http://purl.org/dc/dcmitype/StillImage" />
        <dc:title></dc:title>
      </cc:Work>
    </rdf:RDF>
  </metadata>
  <defs
     id="defs3451">
    <linearGradient
       id="linearGradient3514"
       y2="-9.1034"
       gradientUnits="userSpaceOnUse"
       x2="66.492"
       gradientTransform="matrix(.96826 0 0 .97948 2.179 .16587)"
       y1="-42.638"
       x1="67.952">
      <stop
         id="stop4620"
         style="stop-color:#37414b"
         offset="0" />
      <stop
         id="stop4622"
         style="stop-color:#37414b;stop-opacity:0"
         offset="1" />
    </linearGradient>
    <linearGradient
       id="linearGradient3516"
       y2="-11.847"
       gradientUnits="userSpaceOnUse"
       x2="58.98"
       gradientTransform="matrix(.96826 0 0 .97948 2.179 .16587)"
       y1="-118.55"
       x1="57.173">
      <stop
         id="stop4596"
         offset="0" />
      <stop
         id="stop4598"
         style="stop-opacity:0"
         offset="1" />
    </linearGradient>
    <linearGradient
       id="linearGradient3519"
       y2="50.369"
       gradientUnits="userSpaceOnUse"
       x2="76.558"
       gradientTransform="matrix(.96826 0 0 .97948 3.2423 -129.19)"
       y1="13.164"
       x1="76.558">
      <stop
         id="stop3392"
         style="stop-color:#425e7b"
         offset="0" />
      <stop
         id="stop3394"
         style="stop-color:#7a91a7"
         offset="1" />
    </linearGradient>
    <linearGradient
       id="linearGradient3521"
       y2="-8.7399"
       gradientUnits="userSpaceOnUse"
       x2="60.217"
       gradientTransform="matrix(.96826 0 0 .97948 2.179 .16587)"
       y1="-123.72"
       x1="60.395">
      <stop
         id="stop3392-4-8"
         style="stop-color:#425e7b"
         offset="0" />
      <stop
         id="stop3394-8-0"
         style="stop-color:#7a91a7"
         offset="1" />
    </linearGradient>
    <radialGradient
       id="radialGradient3349"
       gradientUnits="userSpaceOnUse"
       cy="45.647"
       cx="42.148"
       gradientTransform="matrix(.0084350 1.8886 -1.5444 .0068980 113.65 -57.814)"
       r="58.984">
      <stop
         id="stop4855"
         style="stop-color:#b8b8b8"
         offset="0" />
      <stop
         id="stop4857"
         style="stop-color:#fff"
         offset="1" />
    </radialGradient>
    <filter
       id="filter3174"
       color-interpolation-filters="sRGB">
      <feGaussianBlur
         id="feGaussianBlur3176"
         stdDeviation="1.71" />
    </filter>
    <linearGradient
       id="ButtonShadow-1"
       x1="45.448"
       gradientUnits="userSpaceOnUse"
       y1="92.54"
       gradientTransform="scale(1.0059 .99417)"
       x2="45.448"
       y2="7.0165">
      <stop
         id="stop3750-87"
         offset="0" />
      <stop
         id="stop3752-56"
         style="stop-opacity:.58824"
         offset="1" />
    </linearGradient>
    <filter
       id="filter3174-5"
       color-interpolation-filters="sRGB">
      <feGaussianBlur
         id="feGaussianBlur3176-70"
         stdDeviation="1.71" />
    </filter>
    <linearGradient
       id="linearGradient6303"
       y2="13.937"
       gradientUnits="userSpaceOnUse"
       x2="14.134"
       gradientTransform="matrix(1 0 0 1.4586 0 -3.23)"
       y1="45.621"
       x1="36.417">
      <stop
         id="stop6299"
         style="stop-color:#fff;stop-opacity:.25604"
         offset="0" />
      <stop
         id="stop6301"
         style="stop-color:#fff;stop-opacity:.38164"
         offset="1" />
    </linearGradient>
    <filter
       id="filter3174-2"
       color-interpolation-filters="sRGB">
      <feGaussianBlur
         id="feGaussianBlur3176-78"
         stdDeviation="1.71" />
    </filter>
    <filter
       id="filter3174-24"
       color-interpolation-filters="sRGB">
      <feGaussianBlur
         id="feGaussianBlur3176-0"
         stdDeviation="1.71" />
    </filter>
    <filter
       id="filter3174-8"
       color-interpolation-filters="sRGB">
      <feGaussianBlur
         id="feGaussianBlur3176-9"
         stdDeviation="1.71" />
    </filter>
    <linearGradient
       id="linearGradient7604"
       y2="7.0165"
       gradientUnits="userSpaceOnUse"
       x2="45.448"
       gradientTransform="matrix(1.0059 0 0 .99417 -189.19 -21.187)"
       y1="92.54"
       x1="45.448">
      <stop
         id="stop3750-3"
         offset="0" />
      <stop
         id="stop3752-7"
         style="stop-opacity:.58824"
         offset="1" />
    </linearGradient>
    <filter
       id="filter3174-0"
       color-interpolation-filters="sRGB">
      <feGaussianBlur
         id="feGaussianBlur3176-2"
         stdDeviation="1.71" />
    </filter>
    <clipPath
       id="clipPath3613-87">
      <rect
         id="rect3615-88"
         style="fill:#fff"
         rx="6"
         ry="6"
         height="84"
         width="84"
         y="6"
         x="6" />
    </clipPath>
    <linearGradient
       id="linearGradient3613-88"
       x1="48"
       gradientUnits="userSpaceOnUse"
       y1="20.221"
       x2="48"
       y2="138.66">
      <stop
         id="stop3739-29"
         style="stop-color:#fff"
         offset="0" />
      <stop
         id="stop3741-173"
         style="stop-color:#fff;stop-opacity:0"
         offset="1" />
    </linearGradient>
    <filter
       id="filter3794-67"
       height="1.384"
       width="1.384"
       color-interpolation-filters="sRGB"
       y="-.192"
       x="-.192">
      <feGaussianBlur
         id="feGaussianBlur3796-4"
         stdDeviation="5.28" />
    </filter>
    <filter
       id="filter3174-45"
       color-interpolation-filters="sRGB">
      <feGaussianBlur
         id="feGaussianBlur3176-6"
         stdDeviation="1.71" />
    </filter>
    <linearGradient
       inkscape:collect="always"
       xlink:href="#ButtonShadow-1"
       id="linearGradient3060"
       gradientUnits="userSpaceOnUse"
       gradientTransform="scale(1.0059,0.99417)"
       x1="45.448"
       y1="92.54"
       x2="45.448"
       y2="7.0165" />
  </defs>
  <rect
     id="rect892"
     style="stroke:url(#linearGradient3521);stroke-width:.97385;fill:url(#linearGradient3519)"
     transform="scale(1,-1)"
     ry="29.296"
     height="115.54"
     width="114.22"
     y="-122.25"
     x="7.0394" />
  <rect
     id="rect892-2"
     style="stroke:url(#linearGradient3516);stroke-width:.97385;fill:url(#linearGradient3514)"
     transform="scale(1,-1)"
     ry="28.993"
     height="114.35"
     width="114.22"
     y="-121.46"
     x="7.0599" />
  <path
     id="rect895"
     style="fill:url(#radialGradient3349)"
     d="m33.051 7.2596c-7.969-2.4493-27.013 15.174-25.653 23.038-0.050142 0.97378-0.088772 1.9648-0.088772 2.9572v52.419c0 20.876 10.712 33.859 22.318 33.859h67.038c12.638 0 24.318-11.245 24.318-25.859v-64.017c0.7-10.928-21.283-24.659-25.926-22.618-47.846 0.8653-18.017 0.2236-62.003 0.2236z" />
  <path
     id="path1187"
     style="opacity:.68238;fill:url(#linearGradient6303)"
     d="m36.537 7.6204c-8.869 0.7824-26.296 4.9186-29.527 41.221v47.783c18.67-55.894 33.784-75.414 85.818-89.536-0.225-0.0381-0.46-0.0444-0.691-0.0444-41.576 0.5651-17.576 0.5768-55.6 0.5768z" />
  <rect
     id="rect892-2-7-8"
     style="opacity:.15891;stroke:#000;stroke-width:4.8445;fill:none"
     transform="scale(1,-1)"
     ry="28.993"
     height="114.35"
     width="114.22"
     y="-121.16"
     x="6.8687" />
  <rect
     id="rect892-2-7-1"
     style="opacity:.15891;stroke:#000;stroke-width:7.7512;fill:none"
     transform="scale(1,-1)"
     ry="28.993"
     height="114.35"
     width="114.22"
     y="-121.16"
     x="6.8687" />
  <g
     id="layer2"
     style="display:none"
     transform="matrix(1.44 0 0 1.44 -4.952 -6.9671)">
    <rect
       id="rect3745"
       style="opacity:.9;filter:url(#filter3174);fill:url(#ButtonShadow-1)"
       rx="6"
       ry="6"
       height="85"
       width="86"
       y="7"
       x="5" />
  </g>
  <g
     id="layer2-1"
     style="display:none"
     transform="translate(183.21 82.968)">
    <rect
       id="rect3745-9"
       style="opacity:.9;filter:url(#filter3174-5);fill:url(#ButtonShadow-1)"
       rx="6"
       ry="6"
       height="85"
       width="86"
       y="7"
       x="5" />
  </g>
  <g
     id="layer2-2"
     style="display:none"
     transform="translate(52.694 146.84)">
    <path
       id="rect3745-94"
       style="opacity:.9;filter:url(#filter3174-2);fill:url(#ButtonShadow-1)"
       d="m11 7c-3.324 0-6 2.676-6 6v73c0 3.324 2.676 6 6 6h74c3.324 0 6-2.676 6-6v-73c0-3.324-2.676-6-6-6h-74zm-1 4h6v4h-6v-4zm70 0h6v4h-6v-4zm-70 8h6v4h-6v-4zm70 0h6v4h-6v-4zm-70 8h6v4h-6v-4zm70 0h6v4h-6v-4zm-70 8h6v4h-6v-4zm70 0h6v4h-6v-4zm-70 8h6v4h-6v-4zm70 0h6v4h-6v-4zm-70 8h6v4h-6v-4zm70 0h6v4h-6v-4zm-70 8h6v4h-6v-4zm70 0h6v4h-6v-4zm-70 8h6v4h-6v-4zm70 0h6v4h-6v-4zm-70 8h6v4h-6v-4zm70 0h6v4h-6v-4zm-70 8h6v4h-6v-4zm70 0h6v4h-6v-4z" />
  </g>
  <rect
     id="rect892-2-7-2-9"
     ry="28.067"
     style="stroke:#000;stroke-width:1.0489;fill:none"
     transform="scale(1,-1)"
     height="112.71"
     width="114.14"
     y="-120.31"
     x="7.0649" />
  <g
     id="layer2-20"
     style="display:none"
     transform="translate(-287.93 37.655)">
    <rect
       id="rect3745-8"
       style="opacity:.9;filter:url(#filter3174-24);fill:url(#ButtonShadow-1)"
       rx="6"
       ry="6"
       height="85"
       width="86"
       y="7"
       x="5" />
  </g>
  <rect
     id="rect3745-7"
     style="opacity:.9;filter:url(#filter3174-8);display:none;fill:url(#linearGradient7604)"
     rx="6"
     ry="6"
     height="85"
     width="86"
     y="-14.187"
     x="-184.19" />
  <g
     id="layer2-0"
     style="display:none"
     transform="translate(218.22 18.71)">
    <rect
       id="rect3745-6"
       style="opacity:.9;filter:url(#filter3174-0);fill:url(#ButtonShadow-1)"
       rx="6"
       ry="6"
       height="85"
       width="86"
       y="7"
       x="5" />
  </g>
  <g
     style="display:none"
     id="layer2-3"
     transform="matrix(1.3904,0,0,1.3904,-2.7373,-4.128)">
    <rect
       x="5"
       y="7"
       width="86"
       height="85"
       ry="6"
       rx="6"
       style="opacity:0.9;fill:url(#linearGradient3060);filter:url(#filter3174-45)"
       id="rect3745-1" />
  </g>
  <g
     id="layer5-30"
     transform="matrix(1.3904,0,0,1.3904,-2.7373,-4.128)">
    <rect
       x="15"
       y="15"
       width="66"
       height="66"
       ry="12"
       rx="12"
       clip-path="url(#clipPath3613-87)"
       style="opacity:0.5;fill:url(#linearGradient3613-88);stroke:#ffffff;stroke-width:0.5;stroke-linecap:round;filter:url(#filter3794-67)"
       id="rect3171-4" />
  </g>
  <g
     transform="matrix(0.25,0,0,0.25,2.9289966e-6,3.2763267e-6)"
     id="g3033">
    <path
       inkscape:connector-curvature="0"
       d="m 454.2421,198.84575 c -18.83424,-91.8091 -196.48391,-97.6233 -310.998,-27.67687 l 0,7.72528 c 114.36371,-59.03189 276.64015,-58.65544 291.40703,25.91526 4.97585,28.01629 -10.69611,57.1544 -38.7964,73.92016 l 0,21.94085 c 33.82671,-12.41147 68.404,-52.58206 58.38737,-101.82468 M 246.00594,359.58919 C 166.97693,366.9037 84.632524,355.39054 73.104483,293.3936 67.379428,262.86554 81.316434,230.4641 99.700182,210.36097 l 0,-10.76367 c -33.149264,29.17788 -51.155672,66.08378 -40.758967,109.66034 13.258878,55.92011 83.926235,87.57343 191.811565,77.03399 42.71609,-4.1239 98.61861,-17.92598 137.415,-39.33745 l 0,-30.41973 c -35.25746,21.11388 -93.57031,38.55781 -142.16184,43.05474 z"
       id="path6"
       style="fill:#127cc1;fill-opacity:1" />
    <path
       inkscape:connector-curvature="0"
       style="fill:#127cc1;fill-opacity:1"
       d="m 361.10984,185.59234 0,92.68116 c 0,10.88516 5.19698,20.32404 20.71446,21.82492 l 0,-114.50608 -20.71446,0 z m -246.77963,2.77616 0,19.73212 20.71446,0 0,-19.73212 -20.71446,0 z m 120.99805,8.7983 0,80.42334 c 0,11.56489 7.0765,23.27707 23.87501,23.27707 l 12.1297,0 0,-17.21222 -8.3712,0 c -4.89518,0 -7.17532,-2.57355 -7.17532,-7.30345 l 0,-40.23302 15.54652,0 0,-16.65698 -15.54652,0 0,-22.29474 -20.45819,0 z m 79.22745,20.8853 c -21.62261,0 -38.05481,15.17853 -38.05481,42.02685 0,31.39491 18.86256,42.15498 38.52462,42.15498 15.06766,0 23.55422,-4.86471 31.69098,-12.89848 l -12.64223,-12.21512 c -5.27388,5.21532 -9.80291,7.77326 -18.92062,7.77326 -11.60256,0 -18.23726,-7.76983 -18.23726,-18.32269 l 52.14917,0 0,-7.43157 c 0,-23.32064 -12.58649,-41.08723 -34.50985,-41.08723 z m -200.2255,1.40944 0,60.52037 c 0,10.88928 5.19563,20.36743 20.71446,21.86763 l 0,-82.388 -20.71446,0 z m 38.99443,0 0,81.49109 20.50091,0 0,-64.83411 17.04137,0 c 6.02584,0 8.49933,2.97209 8.49933,7.81597 l 0,57.01814 20.58633,0 0,-57.10356 c 0,-11.60402 -6.21165,-24.38753 -24.21669,-24.38753 l -42.41125,0 z m 160.33415,15.63194 c 10.54777,0 14.53875,8.52416 14.99129,17.42576 l -31.73369,0 c 0.22352,-3.6444 0.69453,-5.87565 2.05009,-8.84101 2.2613,-4.92009 7.68758,-8.58475 14.69231,-8.58475 z"
       id="path8" />
  </g>
</svg>
