<?xml version="1.0" encoding="UTF-8" standalone="no"?>
<!-- Created with Inkscape (http://www.inkscape.org/) -->
<svg id="svg3449" xmlns:rdf="http://www.w3.org/1999/02/22-rdf-syntax-ns#" xmlns="http://www.w3.org/2000/svg" height="128" width="128" version="1.0" xmlns:cc="http://creativecommons.org/ns#" xmlns:xlink="http://www.w3.org/1999/xlink" xmlns:dc="http://purl.org/dc/elements/1.1/">
 <metadata id="metadata56">
  <rdf:RDF>
   <cc:Work rdf:about="">
    <dc:format>image/svg+xml</dc:format>
    <dc:type rdf:resource="http://purl.org/dc/dcmitype/StillImage"/>
    <dc:title/>
   </cc:Work>
  </rdf:RDF>
 </metadata>
 <defs id="defs3451">
  <linearGradient id="linearGradient3514" y2="-9.1034" gradientUnits="userSpaceOnUse" x2="66.492" gradientTransform="matrix(.96826 0 0 .97948 2.179 .16587)" y1="-42.638" x1="67.952">
   <stop id="stop4620" style="stop-color:#37414b" offset="0"/>
   <stop id="stop4622" style="stop-color:#37414b;stop-opacity:0" offset="1"/>
  </linearGradient>
  <linearGradient id="linearGradient3516" y2="-11.847" gradientUnits="userSpaceOnUse" x2="58.98" gradientTransform="matrix(.96826 0 0 .97948 2.179 .16587)" y1="-118.55" x1="57.173">
   <stop id="stop4596" offset="0"/>
   <stop id="stop4598" style="stop-opacity:0" offset="1"/>
  </linearGradient>
  <linearGradient id="linearGradient3519" y2="50.369" gradientUnits="userSpaceOnUse" x2="76.558" gradientTransform="matrix(.96826 0 0 .97948 3.2423 -129.19)" y1="13.164" x1="76.558">
   <stop id="stop3392" style="stop-color:#425e7b" offset="0"/>
   <stop id="stop3394" style="stop-color:#7a91a7" offset="1"/>
  </linearGradient>
  <linearGradient id="linearGradient3521" y2="-8.7399" gradientUnits="userSpaceOnUse" x2="60.217" gradientTransform="matrix(.96826 0 0 .97948 2.179 .16587)" y1="-123.72" x1="60.395">
   <stop id="stop3392-4-8" style="stop-color:#425e7b" offset="0"/>
   <stop id="stop3394-8-0" style="stop-color:#7a91a7" offset="1"/>
  </linearGradient>
  <linearGradient id="linearGradient11406" y2="19.812" gradientUnits="userSpaceOnUse" x2="15.25" gradientTransform="matrix(2.6667 0 0 4.341 -1.4969e-7 -5.0231)" y1="8.4375" x1="12.938">
   <stop id="stop6594-0-2" style="stop-color:#fff;stop-opacity:.27451" offset="0"/>
   <stop id="stop6596-2-5" style="stop-color:#fff;stop-opacity:0" offset="1"/>
  </linearGradient>
  <filter id="filter3174" color-interpolation-filters="sRGB">
   <feGaussianBlur id="feGaussianBlur3176" stdDeviation="1.71"/>
  </filter>
  <linearGradient id="ButtonShadow-4" x1="45.448" gradientUnits="userSpaceOnUse" y1="92.54" gradientTransform="scale(1.0059 .99417)" x2="45.448" y2="7.0165">
   <stop id="stop3750-7" offset="0"/>
   <stop id="stop3752-9" style="stop-opacity:.58824" offset="1"/>
  </linearGradient>
  <filter id="filter3174-7" color-interpolation-filters="sRGB">
   <feGaussianBlur id="feGaussianBlur3176-1" stdDeviation="1.71"/>
  </filter>
  <filter id="filter3174-0" color-interpolation-filters="sRGB">
   <feGaussianBlur id="feGaussianBlur3176-4" stdDeviation="1.71"/>
  </filter>
 </defs>
 <rect id="rect892" style="stroke:url(#linearGradient3521);stroke-width:.97385;fill:url(#linearGradient3519)" transform="scale(1,-1)" ry="29.296" height="115.54" width="114.22" y="-122.25" x="7.0394"/>
 <rect id="rect892-2" style="stroke:url(#linearGradient3516);stroke-width:.97385;fill:url(#linearGradient3514)" transform="scale(1,-1)" ry="28.993" height="114.35" width="114.22" y="-121.46" x="7.0599"/>
 <rect id="rect4229" style="fill:#fff" ry="10.607" height="99.702" width="90.51" y="12.742" x="19.092"/>
 <g id="layer1-0" transform="matrix(2.7443 0 0 2.7443 -1.8622 -2758.1)">
  <path id="rect814" d="m13.5 3.5938c-5.4855 0-9.9062 4.4208-9.9062 9.9062v21c0 5.4855 4.4208 9.9062 9.9062 9.9062h21c5.4855 0 9.9062-4.4208 9.9062-9.9062v-21c0-5.4855-4.4208-9.9062-9.9062-9.9062h-21zm-1.9375 4.125h1.625c0.42457 0 0.78125 0.32543 0.78125 0.75v1.625c0 0.42457-0.35668 0.78125-0.78125 0.78125h-1.625c-0.42457 0-0.75-0.35668-0.75-0.78125v-1.625c0-0.42457 0.32543-0.75 0.75-0.75zm7.75 0h1.625c0.42457 0 0.78125 0.32543 0.78125 0.75v1.625c0 0.42457-0.35668 0.78125-0.78125 0.78125h-1.625c-0.42457 0-0.75-0.35668-0.75-0.78125v-1.625c0-0.42457 0.32543-0.75 0.75-0.75zm7.75 0h1.625c0.42457 0 0.75 0.32543 0.75 0.75v1.625c0 0.42457-0.32543 0.78125-0.75 0.78125h-1.625c-0.42457 0-0.78125-0.35668-0.78125-0.78125v-1.625c0-0.42457 0.35668-0.75 0.78125-0.75zm7.75 0h1.625c0.42457 0 0.75 0.32543 0.75 0.75v1.625c0 0.42457-0.32543 0.78125-0.75 0.78125h-1.625c-0.42457 0-0.78125-0.35668-0.78125-0.78125v-1.625c0-0.42457 0.35668-0.75 0.78125-0.75zm-23.25 29.406h1.625c0.42457 0 0.78125 0.35668 0.78125 0.78125v1.625c0 0.42457-0.35668 0.75-0.78125 0.75h-1.625c-0.42457 0-0.75-0.32543-0.75-0.75v-1.625c0-0.42457 0.32543-0.78125 0.75-0.78125zm7.75 0h1.625c0.42457 0 0.78125 0.35668 0.78125 0.78125v1.625c0 0.42457-0.35668 0.75-0.78125 0.75h-1.625c-0.42457 0-0.75-0.32543-0.75-0.75v-1.625c0-0.42457 0.32543-0.78125 0.75-0.78125zm7.75 0h1.625c0.42457 0 0.75 0.35668 0.75 0.78125v1.625c0 0.42457-0.32543 0.75-0.75 0.75h-1.625c-0.42457 0-0.78125-0.32543-0.78125-0.75v-1.625c0-0.42457 0.35668-0.78125 0.78125-0.78125zm7.75 0h1.625c0.42457 0 0.75 0.35668 0.75 0.78125v1.625c0 0.42457-0.32543 0.75-0.75 0.75h-1.625c-0.42457 0-0.78125-0.32543-0.78125-0.75v-1.625c0-0.42457 0.35668-0.78125 0.78125-0.78125z" style="fill:#00f" transform="translate(0 1004.4)"/>
  <path id="path812" style="fill:#fff" d="m33.924 22.177-19.173 5.137 5.138-19.173z" transform="matrix(.67502 -.18087 .18087 .67502 3.0958 1019.5)"/>
 </g>
 <path id="rect6588" d="m7.2651 40.702c-3.6107-28.823 22.731-33.361 32.668-33.437l55.816 0.735c21.091 2.903 26.611 16.187 24.251 34.728l-112 30.388z" style="fill:url(#linearGradient11406)"/>
 <rect id="rect892-2-7-8" style="opacity:.15891;stroke:#000;stroke-width:4.8445;fill:none" transform="scale(1,-1)" ry="28.993" height="114.35" width="114.22" y="-121.16" x="6.8687"/>
 <rect id="rect892-2-7-1" style="opacity:.15891;stroke:#000;stroke-width:7.7512;fill:none" transform="scale(1,-1)" ry="28.993" height="114.35" width="114.22" y="-121.16" x="6.8687"/>
 <rect id="rect892-2-7-2-9" ry="28.067" style="stroke:#000;stroke-width:1.0489;fill:none" transform="scale(1,-1)" height="112.71" width="114.14" y="-120.31" x="7.0649"/>
 <path id="path1187" style="fill:#fff;fill-opacity:.057143" d="m33.017 7.2319c-23.707 0-26.027 0.6738-25.93 26.295-0.04334 0.71563-0.07674 1.4439-0.07674 2.1732v32.76c18.67-38.321 38.34-51.497 90.374-61.179-0.225-0.026-0.46-0.0303-0.691-0.0303-41.576 0.3874-25.652-0.0188-63.676-0.0188z"/>
 <g id="layer2" style="display:none" transform="matrix(1.2166 0 0 1.2299 5.6049 3.1187)">
  <rect id="rect3745" style="opacity:.9;filter:url(#filter3174);fill:url(#ButtonShadow-4)" rx="6" ry="6" height="85" width="86" y="7" x="5"/>
 </g>
 <g id="layer2-6" style="display:none" transform="matrix(1.2166 0 0 1.2299 5.6049 3.1187)">
  <rect id="rect3745-8" style="opacity:.9;filter:url(#filter3174-7);fill:url(#ButtonShadow-4)" rx="6" ry="6" height="85" width="86" y="7" x="5"/>
 </g>
 <g id="layer2-69" style="display:none" transform="matrix(1.2166 0 0 1.2299 5.6049 3.1187)">
  <rect id="rect3745-4" style="opacity:.9;filter:url(#filter3174-0);fill:url(#ButtonShadow-4)" rx="6" ry="6" height="85" width="86" y="7" x="5"/>
 </g>
</svg>
