<?xml version="1.0" encoding="UTF-8" standalone="no"?>
<!-- Created with Inkscape (http://www.inkscape.org/) -->
<svg id="svg3449" xmlns:rdf="http://www.w3.org/1999/02/22-rdf-syntax-ns#" xmlns="http://www.w3.org/2000/svg" height="128" width="128" version="1.0" xmlns:cc="http://creativecommons.org/ns#" xmlns:xlink="http://www.w3.org/1999/xlink" xmlns:dc="http://purl.org/dc/elements/1.1/">
 <metadata id="metadata56">
  <rdf:RDF>
   <cc:Work rdf:about="">
    <dc:format>image/svg+xml</dc:format>
    <dc:type rdf:resource="http://purl.org/dc/dcmitype/StillImage"/>
    <dc:title/>
   </cc:Work>
  </rdf:RDF>
 </metadata>
 <defs id="defs3451">
  <clipPath id="clipPath3860-8-9">
   <rect id="rect3862-2-4" style="fill:#f0f" rx="6" ry="6" height="72" width="84" y="18" x="6"/>
  </clipPath>
  <filter id="filter3870-7-8" height="1.3943" width="1.3312" color-interpolation-filters="sRGB" y="-.19716" x="-.16559">
   <feGaussianBlur id="feGaussianBlur3872-7-8" stdDeviation="5.1703125"/>
  </filter>
  <linearGradient id="linearGradient3514" y2="-9.1034" gradientUnits="userSpaceOnUse" x2="66.492" gradientTransform="matrix(.96826 0 0 .97948 2.179 .16587)" y1="-42.638" x1="67.952">
   <stop id="stop4620" style="stop-color:#37414b" offset="0"/>
   <stop id="stop4622" style="stop-color:#37414b;stop-opacity:0" offset="1"/>
  </linearGradient>
  <linearGradient id="linearGradient3516" y2="-11.847" gradientUnits="userSpaceOnUse" x2="58.98" gradientTransform="matrix(.96826 0 0 .97948 2.179 .16587)" y1="-118.55" x1="57.173">
   <stop id="stop4596" offset="0"/>
   <stop id="stop4598" style="stop-opacity:0" offset="1"/>
  </linearGradient>
  <linearGradient id="linearGradient3519" y2="50.369" gradientUnits="userSpaceOnUse" x2="76.558" gradientTransform="matrix(.96826 0 0 .97948 3.2423 -129.19)" y1="13.164" x1="76.558">
   <stop id="stop3392" style="stop-color:#425e7b" offset="0"/>
   <stop id="stop3394" style="stop-color:#7a91a7" offset="1"/>
  </linearGradient>
  <linearGradient id="linearGradient3521" y2="-8.7399" gradientUnits="userSpaceOnUse" x2="60.217" gradientTransform="matrix(.96826 0 0 .97948 2.179 .16587)" y1="-123.72" x1="60.395">
   <stop id="stop3392-4-8" style="stop-color:#425e7b" offset="0"/>
   <stop id="stop3394-8-0" style="stop-color:#7a91a7" offset="1"/>
  </linearGradient>
  <radialGradient id="radialGradient3349" gradientUnits="userSpaceOnUse" cy="45.647" cx="42.148" gradientTransform="matrix(.94690 0 0 1.139 3.5954 -29.89)" r="58.984">
   <stop id="stop2699-5" style="stop-color:#9cbbd9" offset="0"/>
   <stop id="stop2701-7" style="stop-color:#5c82ab" offset="1"/>
  </radialGradient>
  <linearGradient id="linearGradient3351" y2="81.481" gradientUnits="userSpaceOnUse" x2="48.022" y1="22.933" x1="48.022">
   <stop id="stop3876-6-4" style="stop-color:#fff" offset="0"/>
   <stop id="stop3878-8-0" style="stop-color:#fff;stop-opacity:0" offset="1"/>
  </linearGradient>
  <linearGradient id="linearGradient4157" y2="19.37" gradientUnits="userSpaceOnUse" x2="121.09" y1="19.37" x1="6.5311">
   <stop id="stop4153" style="stop-color:#fff" offset="0"/>
   <stop id="stop4155" style="stop-color:#fff;stop-opacity:.375" offset="1"/>
  </linearGradient>
  <linearGradient id="linearGradient4192" y2="31.742" gradientUnits="userSpaceOnUse" x2="121.11" y1="31.742" x1="6.5334">
   <stop id="stop4188" style="stop-color:#fff" offset="0"/>
   <stop id="stop4190" style="stop-color:#fff;stop-opacity:0" offset="1"/>
  </linearGradient>
  <linearGradient id="linearGradient4200" y2="30.574" gradientUnits="userSpaceOnUse" x2="121.37" y1="30.574" x1="6.7939">
   <stop id="stop4196" offset="0"/>
   <stop id="stop4198" style="stop-opacity:0" offset="1"/>
  </linearGradient>
 </defs>
 <rect id="rect892" style="stroke:url(#linearGradient3521);stroke-width:.97385;fill:url(#linearGradient3519)" transform="scale(1,-1)" ry="29.296" height="115.54" width="114.22" y="-122.25" x="7.0394"/>
 <rect id="rect892-2" style="stroke:url(#linearGradient3516);stroke-width:.97385;fill:url(#linearGradient3514)" transform="scale(1,-1)" ry="28.993" height="114.35" width="114.22" y="-121.46" x="7.0599"/>
 <path id="rect895" style="fill:url(#radialGradient3349)" d="m26.571 7.0104c-4.7037 0-18.55 16.911-19.173 23.287-0.050142 0.97378-0.088772 1.9648-0.088772 2.9572v52.419c0 22.085 6.6279 33.859 22.318 33.859h67.038c15.69 0 24.318-3.7744 24.318-25.859v-64.017c-0.21-5.933-21.655-22.618-25.926-22.618-47.846 0.8653-24.497-0.0256-68.483-0.0256z"/>
 <path id="path4159-5" style="stroke:url(#linearGradient4192);stroke-width:1px;fill:none" d="m7.0334 31.742h113.58z"/>
 <path id="path4141" style="fill:url(#linearGradient4157)" d="m7.0311 30.268 113.55 0.000001c0.26-5.326-7.9-21.313-23.2-21.796l-67.849 0.3513c-11.378-0.1654-19.439 10.93-22.5 21.445z"/>
 <rect id="rect892-2-7-8" style="opacity:.15891;stroke:#000;stroke-width:4.8445;fill:none" transform="scale(1,-1)" ry="28.993" height="114.35" width="114.22" y="-121.16" x="6.8687"/>
 <rect id="rect3353" style="fill:#415b79" ry="3.6828" height="12.276" width="61.972" y="107.87" x="33.014"/>
 <rect id="rect892-2-7-1" style="opacity:.15891;stroke:#000;stroke-width:7.7512;fill:none" transform="scale(1,-1)" ry="28.993" height="114.35" width="114.22" y="-121.16" x="6.8687"/>
 <rect id="rect892-2-7-2-9" ry="28.067" style="stroke:#000;stroke-width:1.0489;fill:none" transform="scale(1,-1)" height="112.71" width="114.14" y="-120.31" x="7.0649"/>
 <path id="path3850" style="opacity:.15;filter:url(#filter3870-7-8);fill:url(#linearGradient3351)" d="m15.969 22.531c-2.8459 0.0043-5.4332 2.5916-5.4375 5.4375v48.062c0.0043 2.8459 2.5916 5.4332 5.4375 5.4375h64.062c2.8459-0.0043 5.4332-2.5916 5.4375-5.4375v-48.062c-0.0043-2.8459-2.5916-5.4332-5.4375-5.4375z" clip-path="url(#clipPath3860-8-9)" transform="matrix(1.2564 0 0 1.4105 3.5293 -15.047)"/>
 <path id="path1187" style="fill:#fff;fill-opacity:.057143" d="m11.029 30.411c-4.0662 0-7.3909 3.6093-7.9298 8.2949-0.04334 0.71563-0.07674 1.4439-0.07674 2.1732v28.76c25.898-25.61 66.752-35.479 90.374-39.179-0.22473-0.02628-0.45986-0.03062-0.69067-0.03062-41.576 0.38742-43.653-0.01876-81.677-0.01875z"/>
 <path id="path4159" style="stroke:url(#linearGradient4200);stroke-width:1px;fill:none" d="m7.2939 30.574h113.58z"/>
 <g id="g3365" transform="matrix(.25 0 0 .25 0 6)">
  <path id="path3343" style="fill:#fff" d="m149.42 141.98c19.68-0.21 39.37-0.03 59.05-0.09 0.03 9.81 0 19.62 0.02 29.43-9.94 0.03-19.88-0.08-29.81 0.06 0.09 9.77-0.01 19.55 0.06 29.33-9.77-0.01-19.54-0.02-29.31 0 0-19.58 0.02-39.15-0.01-58.73z"/>
  <path id="path3345" style="fill:#fff" d="m229.8 141.9c16.69-0.02 33.37-0.01 50.06-0.01 0.06 9.85-0.03 19.69 0.05 29.53-16.71 0.02-33.42 0.02-50.12 0 0.02-9.84 0-19.68 0.01-29.52z"/>
  <path id="path3347" style="fill:#fff" d="m301.17 141.89c19.55 0 39.1-0.01 58.65 0.01 0.06 19.6-0.02 39.2 0.04 58.79-9.8 0.03-19.6 0-29.39 0.02 0.05-9.78-0.06-19.56 0.06-29.34-9.79-0.12-19.59-0.02-29.38-0.05 0.01-9.81-0.03-19.62 0.02-29.43z"/>
  <path id="path3349" style="fill:#fff" d="m149.44 223.21c9.81 0.04 19.62 0.01 29.43 0.02-0.05 15.2-0.05 30.39 0 45.59-9.81 0.02-19.62-0.01-29.44 0.01 0.01-15.2 0-30.41 0.01-45.62z"/>
  <path id="path3351" style="fill:#fff" d="m330.63 223.19c9.74 0.09 19.48 0.01 29.23 0.04-0.03 15.2-0.03 30.4-0.01 45.59-9.75 0.01-19.5-0.01-29.26 0.01 0.03-15.21-0.04-30.42 0.04-45.64z"/>
  <path id="path3353" style="fill:#fff" d="m149.44 295.44c9.76 0.03 19.53 0.01 29.3 0.02-0.05 9.78-0.02 19.57-0.02 29.36 9.91 0 19.83 0.01 29.74-0.01 0.06 9.85 0 19.7 0.03 29.55-19.68 0.01-39.35-0.03-59.03 0.03-0.06-19.65-0.01-39.3-0.02-58.95z"/>
  <path id="path3355" style="fill:#fff" d="m330.47 295.45c9.79 0.02 19.59 0 29.38 0 0.01 9.76-0.09 19.52 0.05 29.28 9.82-0.02 19.64 0.01 29.46-0.02 0.01 9.85 0.02 19.7-0.01 29.56-9.74-0.03-19.48-0.01-29.22-0.02 0.06 9.83 0 19.66 0.04 29.49-9.86 0.13-19.72 0-29.57 0.07 0-9.82-0.02-19.64 0.02-29.46-9.83 0.02-19.66 0.01-29.49 0.01 0.05-9.84-0.01-19.67 0.03-29.51 9.77-0.06 19.54-0.03 29.31-0.01 0.01-9.8 0.01-19.59 0-29.39z"/>
  <path id="path3357" style="fill:#fff" d="m229.8 324.73c16.69-0.02 33.38-0.01 50.08-0.01 0.01 9.88-0.02 19.76 0.02 29.63-16.71 0.01-33.41 0.02-50.11 0 0.02-9.87 0-19.75 0.01-29.62z"/>
 </g>
</svg>
