<?xml version="1.0" encoding="UTF-8" standalone="no"?>
<!-- Created with Inkscape (http://www.inkscape.org/) -->
<svg id="svg3449" xmlns:rdf="http://www.w3.org/1999/02/22-rdf-syntax-ns#" xmlns="http://www.w3.org/2000/svg" height="128" width="128" version="1.0" xmlns:cc="http://creativecommons.org/ns#" xmlns:xlink="http://www.w3.org/1999/xlink" xmlns:dc="http://purl.org/dc/elements/1.1/">
 <metadata id="metadata56">
  <rdf:RDF>
   <cc:Work rdf:about="">
    <dc:format>image/svg+xml</dc:format>
    <dc:type rdf:resource="http://purl.org/dc/dcmitype/StillImage"/>
    <dc:title/>
   </cc:Work>
  </rdf:RDF>
 </metadata>
 <defs id="defs3451">
  <linearGradient id="linearGradient3514" y2="-9.1034" gradientUnits="userSpaceOnUse" x2="66.492" gradientTransform="matrix(.96826 0 0 .97948 2.179 .16587)" y1="-42.638" x1="67.952">
   <stop id="stop4620" style="stop-color:#37414b" offset="0"/>
   <stop id="stop4622" style="stop-color:#37414b;stop-opacity:0" offset="1"/>
  </linearGradient>
  <linearGradient id="linearGradient3516" y2="-11.847" gradientUnits="userSpaceOnUse" x2="58.98" gradientTransform="matrix(.96826 0 0 .97948 2.179 .16587)" y1="-118.55" x1="57.173">
   <stop id="stop4596" offset="0"/>
   <stop id="stop4598" style="stop-opacity:0" offset="1"/>
  </linearGradient>
  <linearGradient id="linearGradient3519" y2="50.369" gradientUnits="userSpaceOnUse" x2="76.558" gradientTransform="matrix(.96826 0 0 .97948 3.2423 -129.19)" y1="13.164" x1="76.558">
   <stop id="stop3392" style="stop-color:#425e7b" offset="0"/>
   <stop id="stop3394" style="stop-color:#7a91a7" offset="1"/>
  </linearGradient>
  <linearGradient id="linearGradient3521" y2="-8.7399" gradientUnits="userSpaceOnUse" x2="60.217" gradientTransform="matrix(.96826 0 0 .97948 2.179 .16587)" y1="-123.72" x1="60.395">
   <stop id="stop3392-4-8" style="stop-color:#425e7b" offset="0"/>
   <stop id="stop3394-8-0" style="stop-color:#7a91a7" offset="1"/>
  </linearGradient>
  <radialGradient id="radialGradient3349" gradientUnits="userSpaceOnUse" cy="45.647" cx="42.148" gradientTransform="matrix(.94690 0 0 1.139 3.5954 -29.89)" r="58.984">
   <stop id="stop7563" style="stop-color:#e0e0d5" offset="0"/>
   <stop id="stop7565" style="stop-color:#b0ae92;stop-opacity:.95294" offset="1"/>
  </radialGradient>
  <filter id="filter3174-5" color-interpolation-filters="sRGB">
   <feGaussianBlur id="feGaussianBlur3176-4" stdDeviation="1.71"/>
  </filter>
  <linearGradient id="ButtonShadow-4" x1="45.448" gradientUnits="userSpaceOnUse" y1="92.54" gradientTransform="scale(1.0059 .99417)" x2="45.448" y2="7.0165">
   <stop id="stop3750-3" offset="0"/>
   <stop id="stop3752-57" style="stop-opacity:.58824" offset="1"/>
  </linearGradient>
  <filter id="filter3174-0" color-interpolation-filters="sRGB">
   <feGaussianBlur id="feGaussianBlur3176-9" stdDeviation="1.71"/>
  </filter>
  <filter id="filter3174-7" color-interpolation-filters="sRGB">
   <feGaussianBlur id="feGaussianBlur3176-7" stdDeviation="1.71"/>
  </filter>
  <clipPath id="clipPath3613-9">
   <rect id="rect3615-2" style="fill:#fff" rx="6" ry="6" height="84" width="84" y="6" x="6"/>
  </clipPath>
  <linearGradient id="linearGradient3613-3" x1="48" gradientUnits="userSpaceOnUse" y1="20.221" x2="48" y2="138.66">
   <stop id="stop3739-03" style="stop-color:#fff" offset="0"/>
   <stop id="stop3741-5" style="stop-color:#fff;stop-opacity:0" offset="1"/>
  </linearGradient>
  <filter id="filter3794-30" height="1.384" width="1.384" color-interpolation-filters="sRGB" y="-.192" x="-.192">
   <feGaussianBlur id="feGaussianBlur3796-38" stdDeviation="5.28"/>
  </filter>
  <filter id="filter3174-8" color-interpolation-filters="sRGB">
   <feGaussianBlur id="feGaussianBlur3176-3" stdDeviation="1.71"/>
  </filter>
  <clipPath id="clipPath3613-26">
   <rect id="rect3615-4" style="fill:#fff" rx="6" ry="6" height="84" width="84" y="6" x="6"/>
  </clipPath>
  <filter id="filter3794-67" height="1.384" width="1.384" color-interpolation-filters="sRGB" y="-.192" x="-.192">
   <feGaussianBlur id="feGaussianBlur3796-4" stdDeviation="5.28"/>
  </filter>
  <filter id="filter3174-4" color-interpolation-filters="sRGB">
   <feGaussianBlur id="feGaussianBlur3176-0" stdDeviation="1.71"/>
  </filter>
  <filter id="filter3174-1" color-interpolation-filters="sRGB">
   <feGaussianBlur id="feGaussianBlur3176-1" stdDeviation="1.71"/>
  </filter>
  <linearGradient id="linearGradient9285" y2="7.0165" gradientUnits="userSpaceOnUse" x2="45.448" gradientTransform="matrix(1.0059 0 0 .99417 -59.657 2.8358)" y1="92.54" x1="45.448">
   <stop id="stop3750-7" offset="0"/>
   <stop id="stop3752-3" style="stop-opacity:.58824" offset="1"/>
  </linearGradient>
  <filter id="filter4417" color-interpolation-filters="sRGB">
   <feGaussianBlur id="feGaussianBlur4419" stdDeviation="0.52"/>
  </filter>
  <linearGradient id="linearGradient5860">
   <stop id="stop5862" style="stop-color:#858362" offset="0"/>
   <stop id="stop5864" style="stop-color:#fff" offset="1"/>
  </linearGradient>
  <linearGradient id="linearGradient5976">
   <stop id="stop5978" style="stop-color:#fff" offset="0"/>
   <stop id="stop5980" style="stop-color:#fff;stop-opacity:0" offset="1"/>
  </linearGradient>
  <linearGradient id="linearGradient5964">
   <stop id="stop5966" style="stop-color:#706f6b" offset="0"/>
   <stop id="stop5968" style="stop-color:#51504e" offset="1"/>
  </linearGradient>
  <linearGradient id="linearGradient5756">
   <stop id="stop5758" style="stop-color:#9f9e7d" offset="0"/>
   <stop id="stop5760" style="stop-color:#9f9e7d;stop-opacity:0" offset="1"/>
  </linearGradient>
  <linearGradient id="linearGradient6043">
   <stop id="stop6045" style="stop-color:#4f4f49" offset="0"/>
   <stop id="stop6047" style="stop-color:#bcbcb7" offset="1"/>
  </linearGradient>
  <clipPath id="clipPath3613-76">
   <rect id="rect3615-6" style="fill:#fff" rx="6" ry="6" height="84" width="84" y="6" x="6"/>
  </clipPath>
  <filter id="filter3794-4" height="1.384" width="1.384" color-interpolation-filters="sRGB" y="-.192" x="-.192">
   <feGaussianBlur id="feGaussianBlur3796-04" stdDeviation="5.28"/>
  </filter>
  <filter id="filter3174-06" color-interpolation-filters="sRGB">
   <feGaussianBlur id="feGaussianBlur3176-91" stdDeviation="1.71"/>
  </filter>
  <linearGradient id="linearGradient7102" y2="43.26" xlink:href="#linearGradient6043" gradientUnits="userSpaceOnUse" x2="38.69" gradientTransform="matrix(1.0396 0 0 1.0396 -.67301 8.485)" y1="36.89" x1="38.69"/>
  <linearGradient id="linearGradient7105" y2="43.26" xlink:href="#linearGradient6043" gradientUnits="userSpaceOnUse" x2="38.69" gradientTransform="matrix(1.0396 0 0 1.0396 -.67301 -8.4565)" y1="36.89" x1="38.69"/>
  <linearGradient id="linearGradient7108" y2="43.26" xlink:href="#linearGradient6043" gradientUnits="userSpaceOnUse" x2="38.69" gradientTransform="matrix(1.0396 0 0 1.0396 7.7978 .014214)" y1="36.89" x1="38.69"/>
  <linearGradient id="linearGradient7111" y2="43.26" xlink:href="#linearGradient6043" gradientUnits="userSpaceOnUse" x2="38.69" gradientTransform="matrix(1.0396 0 0 1.0396 -9.1438 .014214)" y1="36.89" x1="38.69"/>
  <radialGradient id="radialGradient7114" gradientUnits="userSpaceOnUse" cy="40" cx="40" gradientTransform="matrix(1.951e-8 -.88235 .88235 1.951e-8 5.6166 76.892)" r="18">
   <stop id="stop6037" style="stop-color:#91918a" offset="0"/>
   <stop id="stop6039" style="stop-color:#7c7c74" offset="1"/>
  </radialGradient>
  <linearGradient id="linearGradient7116" y2="17" gradientUnits="userSpaceOnUse" x2="39.071" gradientTransform="matrix(1.2 0 0 1.2 4.9107 5.598)" y1="43.007" x1="39.071">
   <stop id="stop3262" style="stop-color:#5d5d56" offset="0"/>
   <stop id="stop3264" style="stop-color:#bcbcb7" offset="1"/>
  </linearGradient>
  <linearGradient id="linearGradient7155" y2="40" gradientUnits="userSpaceOnUse" x2="65.629" gradientTransform="matrix(0 .85867 .8625 0 6.4107 7.1593)" y1="40" x1="14.585">
   <stop id="stop4309" style="stop-color:#e4e4d9" offset="0"/>
   <stop id="stop4311" style="stop-color:#e4e4d9;stop-opacity:0" offset="1"/>
  </linearGradient>
  <linearGradient id="linearGradient7157" y2="40" gradientUnits="userSpaceOnUse" x2="64.464" gradientTransform="matrix(0 .85867 .8625 0 6.4107 7.1593)" y1="40" x1="15.75">
   <stop id="stop5726" style="stop-color:#9f9d7c" offset="0"/>
   <stop id="stop5728" style="stop-color:#fff" offset="1"/>
  </linearGradient>
  <linearGradient id="linearGradient7160" y2="38.033" gradientUnits="userSpaceOnUse" x2="79.007" gradientTransform="matrix(.81918 -.21950 .21558 .80456 .23198 23.147)" y1="21.664" x1="83.315">
   <stop id="stop3935" style="stop-color:#ffe119" offset="0"/>
   <stop id="stop3937" style="stop-color:#f7a700" offset="1"/>
  </linearGradient>
  <linearGradient id="linearGradient7162" y2="42.017" gradientUnits="userSpaceOnUse" x2="89.412" gradientTransform="matrix(.81918 -.21950 .21558 .80456 .23198 23.147)" y1="23.504" x1="91.968">
   <stop id="stop5734" style="stop-color:#fff1b7" offset="0"/>
   <stop id="stop5736" style="stop-color:#ad6100" offset="1"/>
  </linearGradient>
  <linearGradient id="linearGradient7165" y2="43.082" xlink:href="#linearGradient5756" gradientUnits="userSpaceOnUse" x2="85.196" gradientTransform="matrix(1.1448 -.30674 .30126 1.1243 -31.197 20.582)" y1="24.087" x1="90.195"/>
  <linearGradient id="linearGradient7168" y2="38.724" gradientUnits="userSpaceOnUse" x2="79.935" gradientTransform="matrix(.81918 -.21950 .21558 .80456 -2.168 45.947)" y1="21.771" x1="84.397">
   <stop id="stop3923" style="stop-color:#2bca00" offset="0"/>
   <stop id="stop3925" style="stop-color:#1e9000" offset="1"/>
  </linearGradient>
  <linearGradient id="linearGradient7170" y2="41.144" gradientUnits="userSpaceOnUse" x2="85.706" gradientTransform="matrix(.81918 -.21950 .21558 .80456 -2.168 45.947)" y1="23.092" x1="90.457">
   <stop id="stop5797" style="stop-color:#57ff0c" offset="0"/>
   <stop id="stop5799" style="stop-color:#004617" offset="1"/>
  </linearGradient>
  <linearGradient id="linearGradient7173" y2="43.082" xlink:href="#linearGradient5756" gradientUnits="userSpaceOnUse" x2="85.196" gradientTransform="matrix(1.1448 -.30674 .30126 1.1243 -33.597 43.382)" y1="24.087" x1="90.195"/>
  <linearGradient id="linearGradient7179" y2="39.307" gradientUnits="userSpaceOnUse" x2="80.337" gradientTransform="matrix(.81918 -.21950 .21558 .80456 -35.768 75.947)" y1="21.561" x1="85.007">
   <stop id="stop3913" style="stop-color:#006ada" offset="0"/>
   <stop id="stop3915" style="stop-color:#00438a" offset="1"/>
  </linearGradient>
  <linearGradient id="linearGradient7181" y2="41.359" gradientUnits="userSpaceOnUse" x2="86.898" gradientTransform="matrix(.81918 -.21950 .21558 .80456 -35.768 75.947)" y1="23.41" x1="91.622">
   <stop id="stop5837" style="stop-color:#67b1ff" offset="0"/>
   <stop id="stop5839" style="stop-color:#001a35" offset="1"/>
  </linearGradient>
  <linearGradient id="linearGradient7184" y2="43.082" xlink:href="#linearGradient5756" gradientUnits="userSpaceOnUse" x2="85.196" gradientTransform="matrix(1.1448 -.30674 .30126 1.1243 -67.197 73.382)" y1="24.087" x1="90.195"/>
  <linearGradient id="linearGradient7186" y2="114.04" xlink:href="#linearGradient5756" gradientUnits="userSpaceOnUse" x2="78.803" y1="101.97" x1="78.803"/>
  <linearGradient id="linearGradient7188" y2="112" xlink:href="#linearGradient5964" gradientUnits="userSpaceOnUse" x2="78" gradientTransform="matrix(0.75 0 0 0.75 -.0000020895 -1)" y1="104" x1="78"/>
  <linearGradient id="linearGradient7190" y2="107.94" xlink:href="#linearGradient5976" gradientUnits="userSpaceOnUse" x2="79.067" gradientTransform="matrix(0.75 0 0 0.75 -.0000020895 -1)" y1="104.35" x1="79.067"/>
  <linearGradient id="linearGradient7198" y2="96.645" xlink:href="#linearGradient5860" gradientUnits="userSpaceOnUse" x2="110.64" y1="92.773" x1="110.64"/>
  <linearGradient id="linearGradient7248" y2="43.082" xlink:href="#linearGradient5756" gradientUnits="userSpaceOnUse" x2="85.196" y1="24.087" x1="90.195"/>
  <linearGradient id="linearGradient7250" y2="38.933" gradientUnits="userSpaceOnUse" x2="79.88" y1="21.771" x1="84.397">
   <stop id="stop3905" style="stop-color:#fd2306" offset="0"/>
   <stop id="stop3907" style="stop-color:#b31602" offset="1"/>
  </linearGradient>
  <linearGradient id="linearGradient7252" y2="41.015" gradientUnits="userSpaceOnUse" x2="85.74" y1="23.092" x1="90.457">
   <stop id="stop5817" style="stop-color:#fe774b" offset="0"/>
   <stop id="stop5819" style="stop-color:#610601" offset="1"/>
  </linearGradient>
 </defs>
 <rect id="rect892" style="stroke:url(#linearGradient3521);stroke-width:.97385;fill:url(#linearGradient3519)" transform="scale(1,-1)" ry="29.296" height="115.54" width="114.22" y="-122.25" x="7.0394"/>
 <rect id="rect892-2" style="stroke:url(#linearGradient3516);stroke-width:.97385;fill:url(#linearGradient3514)" transform="scale(1,-1)" ry="28.993" height="114.35" width="114.22" y="-121.46" x="7.0599"/>
 <path id="rect895" style="fill:url(#radialGradient3349)" d="m30.571 7.0104c-13.128 0.936-22.55 15.04-23.173 23.288-0.050142 0.97378-0.088772 1.9648-0.088772 2.9572v58.419c0 15.229 11.191 27.859 22.318 27.859h67.038c15.69 0 24.318-16.445 24.318-25.859v-64.017c-0.21-5.933-12.29-21.682-25.926-22.618-47.846 0.8653-20.497-0.0256-64.483-0.0256z"/>
 <rect id="rect892-2-7-8" style="opacity:.15891;stroke:#000;stroke-width:4.8445;fill:none" transform="scale(1,-1)" ry="28.993" height="114.35" width="114.22" y="-121.16" x="6.8683"/>
 <rect id="rect892-2-7-1" style="opacity:.15891;stroke:#000;stroke-width:7.7512;fill:none" transform="scale(1,-1)" ry="28.993" height="114.35" width="114.22" y="-121.16" x="6.8686"/>
 <rect id="rect892-2-7-2-9" ry="28.067" style="stroke:#000;stroke-width:1.0489;fill:none" transform="scale(1,-1)" height="112.71" width="114.14" y="-120.31" x="7.0644"/>
 <path id="path1187" style="fill:#fff;fill-opacity:.057143" d="m32.415 6.0906c-14.891-4.3298-32.779 19.454-27.93 26.295-0.04334 0.71563-0.07674 1.4439-0.07674 2.1732v10.76c25.899-25.61 66.753-35.479 90.375-39.179-0.22473-0.02628-0.45986-0.03062-0.69067-0.03062-41.576 0.38742-23.653-0.01876-61.677-0.01875z"/>
 <g id="layer2" style="display:none" transform="translate(137.63 15.959)">
  <rect id="rect3745" style="opacity:.9;filter:url(#filter3174-5);fill:url(#ButtonShadow-4)" rx="6" ry="6" height="85" width="86" y="7" x="5"/>
 </g>
 <g id="layer2-3" style="display:none" transform="translate(146.29 14.997)">
  <rect id="rect3745-4" style="opacity:.9;filter:url(#filter3174-0);fill:url(#ButtonShadow-4)" rx="6" ry="6" height="85" width="86" y="7" x="5"/>
 </g>
 <g id="layer2-4" style="display:none" transform="translate(176.76 -8.736)">
  <rect id="rect3745-7" style="opacity:.9;filter:url(#filter3174-7);fill:url(#ButtonShadow-4)" rx="6" ry="6" height="85" width="86" y="7" x="5"/>
 </g>
 <g id="layer2-2" style="display:none" transform="translate(143.15 5.055)">
  <rect id="rect3745-9" style="opacity:.9;filter:url(#filter3174-8);fill:url(#ButtonShadow-4)" rx="6" ry="6" height="85" width="86" y="7" x="5"/>
 </g>
 <g id="layer5-4" style="display:none" transform="translate(143.15 5.055)">
  <rect id="rect3171-7" style="opacity:.3;filter:url(#filter3794-30);stroke:#fff;stroke-linecap:round;stroke-width:.5;fill:url(#linearGradient3613-3)" clip-path="url(#clipPath3613-9)" rx="12" ry="12" height="66" width="66" y="15" x="15"/>
 </g>
 <g id="layer2-1" style="display:none" transform="translate(160.47 -5.8175)">
  <rect id="rect3745-8" style="opacity:.9;filter:url(#filter3174-4);fill:url(#ButtonShadow-4)" rx="6" ry="6" height="85" width="86" y="7" x="5"/>
 </g>
 <g id="layer5-46" style="display:none" transform="translate(160.47 -5.8175)">
  <rect id="rect3171-2" style="opacity:.1;filter:url(#filter3794-67);stroke:#fff;stroke-linecap:round;stroke-width:.5;fill:url(#linearGradient3613-3)" clip-path="url(#clipPath3613-26)" rx="12" ry="12" height="66" width="66" y="15" x="15"/>
 </g>
 <rect id="rect3745-82" style="opacity:.9;filter:url(#filter3174-1);display:none;fill:url(#linearGradient9285)" rx="6" ry="6" height="85" width="86" y="9.8358" x="-54.657"/>
 <style id="style1470" type="text/css"/>
 <g id="layer2-9" style="display:none" transform="translate(-132.38 3.7839)">
  <rect id="rect3745-827" style="opacity:.9;filter:url(#filter3174-06);fill:url(#ButtonShadow-4)" rx="6" ry="6" height="85" width="86" y="7" x="5"/>
 </g>
 <g id="layer5" transform="translate(-132.38 3.7839)">
  <rect id="rect3171" style="opacity:.1;filter:url(#filter3794-4);stroke:#fff;stroke-linecap:round;stroke-width:.5;fill:url(#linearGradient3613-3)" clip-path="url(#clipPath3613-76)" rx="12" ry="12" height="66" width="66" y="15" x="15"/>
 </g>
 <path id="path5825" style="fill:url(#linearGradient7184);fill-rule:evenodd" d="m52.581 79.914a9.5976 9.5976 0 1 1 -18.541 4.968 9.5976 9.5976 0 0 1 18.541 -4.968z"/>
 <path id="path5829" style="stroke-linejoin:round;fill-rule:evenodd;stroke:url(#linearGradient7181);stroke-width:1.2;fill:url(#linearGradient7179)" d="m49.945 80.62a6.868 6.868 0 1 1 -13.268 3.5551 6.868 6.868 0 0 1 13.268 -3.5551z"/>
 <g id="g4497" transform="matrix(1.1505 0 0 1.1502 5.4387 9.987)">
  <path id="path5805" d="m96.197 32.053a8.0983 8.2454 0 1 1 -16.197 0 8.0983 8.2454 0 1 1 16.197 0z" style="fill:url(#linearGradient7248);fill-rule:evenodd" transform="matrix(.99503 -.26667 .26186 .97748 -45.404 45.726)"/>
  <path id="path5809" d="m96.197 32.053a8.0983 8.2454 0 1 1 -16.197 0 8.0983 8.2454 0 1 1 16.197 0z" style="stroke-linejoin:round;fill-rule:evenodd;stroke:url(#linearGradient7252);stroke-width:1.4278;fill:url(#linearGradient7250)" transform="matrix(.71203 -.19083 .18738 .69948 -18.085 47.955)"/>
 </g>
 <path id="path5785" style="fill:url(#linearGradient7173);fill-rule:evenodd" d="m86.181 49.914a9.5976 9.5976 0 0 1 -18.541 4.968 9.5976 9.5976 0 1 1 18.541 -4.968z"/>
 <path id="path5789" style="stroke-linejoin:round;fill-rule:evenodd;stroke:url(#linearGradient7170);stroke-width:1.2;fill:url(#linearGradient7168)" d="m83.545 50.62a6.868 6.868 0 0 1 -13.268 3.556 6.868 6.868 0 1 1 13.268 -3.556z"/>
 <path id="path5754" style="fill:url(#linearGradient7165);fill-rule:evenodd" d="m88.581 27.114a9.5976 9.5976 0 0 1 -18.541 4.968 9.5976 9.5976 0 1 1 18.541 -4.968z"/>
 <path id="path3245" style="stroke-linejoin:round;fill-rule:evenodd;stroke:url(#linearGradient7162);stroke-width:1.2;fill:url(#linearGradient7160)" d="m85.945 27.82a6.868 6.868 0 1 1 -13.268 3.556 6.868 6.868 0 0 1 13.268 -3.556z"/>
 <path id="path3215" style="opacity:.8;stroke-linejoin:round;fill-rule:evenodd;stroke:url(#linearGradient7157);stroke-width:1.8;fill:url(#linearGradient7155)" d="m40.911 62.298a20.7 20.7 0 1 0 0 -41.4 20.7 20.7 0 1 0 0 41.4z"/>
 <g id="g4252" transform="matrix(1.2 0 0 1.2 4.9107 5.598)">
  <path id="path5473" d="m111.94 94.064a1.9364 1.9364 0 1 1 -3.8728 0 1.9364 1.9364 0 1 1 3.8728 0z" style="stroke-linejoin:round;fill-rule:evenodd;stroke:url(#linearGradient7198);stroke-width:1.7298;fill:#4d4c38" transform="matrix(.57803 0 0 .57815 18.792 14.634)"/>
  <path id="path5868" d="m111.94 94.064a1.9364 1.9364 0 1 1 -3.8728 0 1.9364 1.9364 0 1 1 3.8728 0z" style="stroke-linejoin:round;fill-rule:evenodd;stroke:url(#linearGradient7198);stroke-width:1.7298;fill:#4d4c38" transform="matrix(.57803 0 0 .57815 12.822 14.634)"/>
  <path id="path5872" d="m111.94 94.064a1.9364 1.9364 0 1 1 -3.8728 0 1.9364 1.9364 0 1 1 3.8728 0z" style="stroke-linejoin:round;fill-rule:evenodd;stroke:url(#linearGradient7198);stroke-width:1.7298;fill:#4d4c38" transform="matrix(.57803 0 0 .57815 6.8523 14.634)"/>
  <path id="path5876" d="m111.94 94.064a1.9364 1.9364 0 1 1 -3.8728 0 1.9364 1.9364 0 1 1 3.8728 0z" style="stroke-linejoin:round;fill-rule:evenodd;stroke:url(#linearGradient7198);stroke-width:1.7298;fill:#4d4c38" transform="matrix(.57803 0 0 .57815 .88269 14.634)"/>
  <path id="path5880" d="m111.94 94.064a1.9364 1.9364 0 1 1 -3.8728 0 1.9364 1.9364 0 1 1 3.8728 0z" style="stroke-linejoin:round;fill-rule:evenodd;stroke:url(#linearGradient7198);stroke-width:1.7298;fill:#4d4c38" transform="matrix(.57803 0 0 .57815 -5.0869 14.634)"/>
  <path id="path5884" d="m111.94 94.064a1.9364 1.9364 0 1 1 -3.8728 0 1.9364 1.9364 0 1 1 3.8728 0z" style="stroke-linejoin:round;fill-rule:evenodd;stroke:url(#linearGradient7198);stroke-width:1.7298;fill:#4d4c38" transform="matrix(.57803 0 0 .57815 15.807 11.649)"/>
  <path id="path5886" d="m111.94 94.064a1.9364 1.9364 0 1 1 -3.8728 0 1.9364 1.9364 0 1 1 3.8728 0z" style="stroke-linejoin:round;fill-rule:evenodd;stroke:url(#linearGradient7198);stroke-width:1.7298;fill:#4d4c38" transform="matrix(.57803 0 0 .57815 9.8372 11.649)"/>
  <path id="path5888" d="m111.94 94.064a1.9364 1.9364 0 1 1 -3.8728 0 1.9364 1.9364 0 1 1 3.8728 0z" style="stroke-linejoin:round;fill-rule:evenodd;stroke:url(#linearGradient7198);stroke-width:1.7298;fill:#4d4c38" transform="matrix(.57803 0 0 .57815 3.8675 11.649)"/>
  <path id="path5890" d="m111.94 94.064a1.9364 1.9364 0 1 1 -3.8728 0 1.9364 1.9364 0 1 1 3.8728 0z" style="stroke-linejoin:round;fill-rule:evenodd;stroke:url(#linearGradient7198);stroke-width:1.7298;fill:#4d4c38" transform="matrix(.57803 0 0 .57815 -2.1021 11.649)"/>
  <path id="path5900" d="m111.94 94.064a1.9364 1.9364 0 1 1 -3.8728 0 1.9364 1.9364 0 1 1 3.8728 0z" style="stroke-linejoin:round;fill-rule:evenodd;stroke:url(#linearGradient7198);stroke-width:1.7298;fill:#4d4c38" transform="matrix(.57803 0 0 .57815 18.792 8.6635)"/>
  <path id="path5902" d="m111.94 94.064a1.9364 1.9364 0 1 1 -3.8728 0 1.9364 1.9364 0 1 1 3.8728 0z" style="stroke-linejoin:round;fill-rule:evenodd;stroke:url(#linearGradient7198);stroke-width:1.7298;fill:#4d4c38" transform="matrix(.57803 0 0 .57815 12.822 8.6635)"/>
  <path id="path5904" d="m111.94 94.064a1.9364 1.9364 0 1 1 -3.8728 0 1.9364 1.9364 0 1 1 3.8728 0z" style="stroke-linejoin:round;fill-rule:evenodd;stroke:url(#linearGradient7198);stroke-width:1.7298;fill:#4d4c38" transform="matrix(.57803 0 0 .57815 6.8523 8.6635)"/>
  <path id="path5906" d="m111.94 94.064a1.9364 1.9364 0 1 1 -3.8728 0 1.9364 1.9364 0 1 1 3.8728 0z" style="stroke-linejoin:round;fill-rule:evenodd;stroke:url(#linearGradient7198);stroke-width:1.7298;fill:#4d4c38" transform="matrix(.57803 0 0 .57815 .88269 8.6635)"/>
  <path id="path5916" d="m111.94 94.064a1.9364 1.9364 0 1 1 -3.8728 0 1.9364 1.9364 0 1 1 3.8728 0z" style="stroke-linejoin:round;fill-rule:evenodd;stroke:url(#linearGradient7198);stroke-width:1.7298;fill:#4d4c38" transform="matrix(.57803 0 0 .57815 15.807 5.6781)"/>
  <path id="path5918" d="m111.94 94.064a1.9364 1.9364 0 1 1 -3.8728 0 1.9364 1.9364 0 1 1 3.8728 0z" style="stroke-linejoin:round;fill-rule:evenodd;stroke:url(#linearGradient7198);stroke-width:1.7298;fill:#4d4c38" transform="matrix(.57803 0 0 .57815 9.8372 5.6781)"/>
  <path id="path5920" d="m111.94 94.064a1.9364 1.9364 0 1 1 -3.8728 0 1.9364 1.9364 0 1 1 3.8728 0z" style="stroke-linejoin:round;fill-rule:evenodd;stroke:url(#linearGradient7198);stroke-width:1.7298;fill:#4d4c38" transform="matrix(.57803 0 0 .57815 3.8675 5.6781)"/>
  <path id="path5928" d="m111.94 94.064a1.9364 1.9364 0 1 1 -3.8728 0 1.9364 1.9364 0 1 1 3.8728 0z" style="stroke-linejoin:round;fill-rule:evenodd;stroke:url(#linearGradient7198);stroke-width:1.7298;fill:#4d4c38" transform="matrix(.57803 0 0 .57815 18.792 2.6926)"/>
  <path id="path5930" d="m111.94 94.064a1.9364 1.9364 0 1 1 -3.8728 0 1.9364 1.9364 0 1 1 3.8728 0z" style="stroke-linejoin:round;fill-rule:evenodd;stroke:url(#linearGradient7198);stroke-width:1.7298;fill:#4d4c38" transform="matrix(.57803 0 0 .57815 12.822 2.6926)"/>
  <path id="path5932" d="m111.94 94.064a1.9364 1.9364 0 1 1 -3.8728 0 1.9364 1.9364 0 1 1 3.8728 0z" style="stroke-linejoin:round;fill-rule:evenodd;stroke:url(#linearGradient7198);stroke-width:1.7298;fill:#4d4c38" transform="matrix(.57803 0 0 .57815 6.8523 2.6926)"/>
  <path id="path5940" d="m111.94 94.064a1.9364 1.9364 0 1 1 -3.8728 0 1.9364 1.9364 0 1 1 3.8728 0z" style="stroke-linejoin:round;fill-rule:evenodd;stroke:url(#linearGradient7198);stroke-width:1.7298;fill:#4d4c38" transform="matrix(.57803 0 0 .57815 15.807 -.29283)"/>
  <path id="path5942" d="m111.94 94.064a1.9364 1.9364 0 1 1 -3.8728 0 1.9364 1.9364 0 1 1 3.8728 0z" style="stroke-linejoin:round;fill-rule:evenodd;stroke:url(#linearGradient7198);stroke-width:1.7298;fill:#4d4c38" transform="matrix(.57803 0 0 .57815 9.8372 -.29283)"/>
  <path id="path5948" d="m111.94 94.064a1.9364 1.9364 0 1 1 -3.8728 0 1.9364 1.9364 0 1 1 3.8728 0z" style="stroke-linejoin:round;fill-rule:evenodd;stroke:url(#linearGradient7198);stroke-width:1.7298;fill:#4d4c38" transform="matrix(.57803 0 0 .57815 18.792 -3.2783)"/>
  <path id="path5950" d="m111.94 94.064a1.9364 1.9364 0 1 1 -3.8728 0 1.9364 1.9364 0 1 1 3.8728 0z" style="stroke-linejoin:round;fill-rule:evenodd;stroke:url(#linearGradient7198);stroke-width:1.7298;fill:#4d4c38" transform="matrix(.57803 0 0 .57815 12.822 -3.2783)"/>
  <path id="path5956" d="m111.94 94.064a1.9364 1.9364 0 1 1 -3.8728 0 1.9364 1.9364 0 1 1 3.8728 0z" style="stroke-linejoin:round;fill-rule:evenodd;stroke:url(#linearGradient7198);stroke-width:1.7298;fill:#4d4c38" transform="matrix(.57803 0 0 .57815 15.807 -6.2637)"/>
  <path id="path5960" d="m111.94 94.064a1.9364 1.9364 0 1 1 -3.8728 0 1.9364 1.9364 0 1 1 3.8728 0z" style="stroke-linejoin:round;fill-rule:evenodd;stroke:url(#linearGradient7198);stroke-width:1.7298;fill:#4d4c38" transform="matrix(.57803 0 0 .57815 18.792 -9.2492)"/>
 </g>
 <g id="g4591" transform="matrix(1.2 0 0 1.2 2.5107 4.398)">
  <path id="path6004" d="m76 101.97c-3.3106 0-6.0312 2.7207-6.0312 6.0312 0 3.3106 2.7207 6.0312 6.0312 6.0312h8c3.3106 0 6.0312-2.7207 6.0312-6.0312 0-3.3106-2.7207-6.0312-6.0312-6.0312h-8z" style="fill-rule:evenodd;fill:url(#linearGradient7186)" transform="matrix(.74766 0 0 .74611 .18692 -.58031)"/>
  <rect id="rect3247" style="fill-rule:evenodd;fill:url(#linearGradient7188)" rx="3" ry="3" height="6" width="12" y="77" x="54"/>
  <rect id="rect5972" style="opacity:.6;fill-rule:evenodd;fill:url(#linearGradient7190)" rx="1.3436" ry="1.3436" height="2.6873" width="9.8799" y="77.265" x="55.06"/>
  <path id="rect4706" d="m52.062 79.5c-0.028 0.167-0.062 0.325-0.062 0.5 0 1.662 1.338 3 3 3h6c1.662 0 3-1.338 3-3 0-0.17531-0.03392-0.33309-0.0625-0.5-0.243 1.415-1.451 2.5-2.938 2.5h-6c-1.4867 0-2.6951-1.0845-2.9375-2.5z" style="opacity:.3;fill:#1a1a1a;fill-rule:evenodd" transform="translate(2)"/>
 </g>
 <path id="path4411" d="m26.469 18c-1.3188 0-2.4062 1.0874-2.4062 2.4062v4.6562h-4.6562c-1.32 0-2.407 1.088-2.407 2.407v7.0625c0 1.3188 1.0874 2.4062 2.4062 2.4062h4.6562v4.6562c0 1.319 1.088 2.406 2.407 2.406h7.0625c1.3188 0 2.4062-1.0874 2.4062-2.4062v-4.6562h4.6562c1.319 0 2.406-1.088 2.406-2.407v-7.0625c0-1.318-1.087-2.406-2.406-2.406h-4.6562v-4.6562c0-1.319-1.088-2.406-2.407-2.406h-7.0625z" style="opacity:.8;fill-rule:evenodd;block-progression:tb;text-indent:0;filter:url(#filter4417);color:#000000;text-transform:none" transform="matrix(1.2 0 0 1.2 4.9107 5.598)"/>
 <path id="rect3225" d="m36.499 26.598c-0.97765 0-1.7647 0.78706-1.7647 1.7647v7.0588h-7.0588c-0.97765 0-1.7647 0.78706-1.7647 1.7647v8.8235c0 0.97765 0.78706 1.7647 1.7647 1.7647h7.0588v7.0588c0 0.97765 0.78706 1.7647 1.7647 1.7647h8.8235c0.97765 0 1.7647-0.78706 1.7647-1.7647v-7.0588h7.0588c0.97765 0 1.7647-0.78706 1.7647-1.7647v-8.8235c0-0.97765-0.78706-1.7647-1.7647-1.7647h-7.0588v-7.0588c0-0.97764-0.78706-1.7647-1.7647-1.7647h-8.8235z" style="stroke-linejoin:round;fill-rule:evenodd;stroke:url(#linearGradient7116);stroke-width:1.2;fill:url(#radialGradient7114)"/>
 <path id="path6055" style="fill:url(#linearGradient7111);fill-rule:evenodd" d="m35.673 41.598a3.2327 3.2327 0 1 1 -6.4653 0 3.2327 3.2327 0 1 1 6.4653 0z"/>
 <path id="path6065" style="fill:url(#linearGradient7108);fill-rule:evenodd" d="m52.614 41.598a3.2327 3.2327 0 1 1 -6.4653 0 3.2327 3.2327 0 1 1 6.4653 0z"/>
 <path id="path6069" style="fill:url(#linearGradient7105);fill-rule:evenodd" d="m44.143 33.127a3.2327 3.2327 0 1 1 -6.4653 0 3.2327 3.2327 0 1 1 6.4653 0z"/>
 <path id="path6073" style="fill:url(#linearGradient7102);fill-rule:evenodd" d="m44.143 50.069a3.2327 3.2327 0 1 1 -6.4653 0 3.2327 3.2327 0 1 1 6.4653 0z"/>
 <g id="g4711" transform="matrix(1.2 0 0 1.2 25.311 4.398)">
  <path id="path4713" d="m76 101.97c-3.3106 0-6.0312 2.7207-6.0312 6.0312 0 3.3106 2.7207 6.0312 6.0312 6.0312h8c3.3106 0 6.0312-2.7207 6.0312-6.0312 0-3.3106-2.7207-6.0312-6.0312-6.0312h-8z" style="fill:url(#linearGradient7186);fill-rule:evenodd" transform="matrix(.74766 0 0 .74611 .18692 -.58031)"/>
  <rect id="rect4715" style="fill:url(#linearGradient7188);fill-rule:evenodd" rx="3" ry="3" height="6" width="12" y="77" x="54"/>
  <rect id="rect4717" style="opacity:.6;fill:url(#linearGradient7190);fill-rule:evenodd" rx="1.3436" ry="1.3436" height="2.6873" width="9.8799" y="77.265" x="55.06"/>
  <path id="path4719" d="m52.062 79.5c-0.028 0.167-0.062 0.325-0.062 0.5 0 1.662 1.338 3 3 3h6c1.662 0 3-1.338 3-3 0-0.17531-0.03392-0.33309-0.0625-0.5-0.243 1.415-1.451 2.5-2.938 2.5h-6c-1.4867 0-2.6951-1.0845-2.9375-2.5z" style="opacity:.3;fill:#1a1a1a;fill-rule:evenodd" transform="translate(2)"/>
 </g>
</svg>
