<?xml version="1.0" encoding="UTF-8" standalone="no"?>
<!-- Created with Inkscape (http://www.inkscape.org/) -->

<svg
   xmlns:dc="http://purl.org/dc/elements/1.1/"
   xmlns:cc="http://creativecommons.org/ns#"
   xmlns:rdf="http://www.w3.org/1999/02/22-rdf-syntax-ns#"
   xmlns:svg="http://www.w3.org/2000/svg"
   xmlns="http://www.w3.org/2000/svg"
   xmlns:xlink="http://www.w3.org/1999/xlink"
   xmlns:sodipodi="http://sodipodi.sourceforge.net/DTD/sodipodi-0.dtd"
   xmlns:inkscape="http://www.inkscape.org/namespaces/inkscape"
   id="svg3449"
   height="128"
   width="128"
   version="1.0"
   inkscape:version="0.48.4 r9939"
   sodipodi:docname="microsoft-wine-browser.svg">
  <sodipodi:namedview
     pagecolor="#ffffff"
     bordercolor="#666666"
     borderopacity="1"
     objecttolerance="10"
     gridtolerance="10"
     guidetolerance="10"
     inkscape:pageopacity="0"
     inkscape:pageshadow="2"
     inkscape:window-width="1360"
     inkscape:window-height="707"
     id="namedview83"
     showgrid="false"
     inkscape:zoom="2.6074563"
     inkscape:cx="-3.531445"
     inkscape:cy="76.79899"
     inkscape:window-x="-2"
     inkscape:window-y="33"
     inkscape:window-maximized="1"
     inkscape:current-layer="svg3449" />
  <metadata
     id="metadata56">
    <rdf:RDF>
      <cc:Work
         rdf:about="">
        <dc:format>image/svg+xml</dc:format>
        <dc:type
           rdf:resource="http://purl.org/dc/dcmitype/StillImage" />
        <dc:title></dc:title>
      </cc:Work>
    </rdf:RDF>
  </metadata>
  <defs
     id="defs3451">
    <linearGradient
       spreadMethod="pad"
       y2="138.66"
       x2="48"
       y1="20.221001"
       gradientUnits="userSpaceOnUse"
       x1="48"
       id="linearGradient3962">
      <stop
         offset="0"
         style="stop-color:#00adef;stop-opacity:1"
         id="stop3964" />
      <stop
         offset="1"
         style="stop-color:#fff;stop-opacity:0"
         id="stop3966" />
    </linearGradient>
    <linearGradient
       spreadMethod="pad"
       y2="138.66"
       x2="48"
       y1="20.221001"
       gradientUnits="userSpaceOnUse"
       x1="48"
       id="linearGradient3956">
      <stop
         offset="0"
         style="stop-color:#fff"
         id="stop3958" />
      <stop
         offset="1"
         style="stop-color:#00adef;stop-opacity:1"
         id="stop3960" />
    </linearGradient>
    <linearGradient
       spreadMethod="pad"
       y2="138.66"
       x2="48"
       y1="20.221001"
       gradientUnits="userSpaceOnUse"
       x1="48"
       id="linearGradient3950">
      <stop
         offset="0"
         style="stop-color:#fff"
         id="stop3952" />
      <stop
         offset="1"
         style="stop-color:#00adef;stop-opacity:1"
         id="stop3954" />
    </linearGradient>
    <linearGradient
       y2="138.66"
       x2="48"
       y1="20.221001"
       gradientUnits="userSpaceOnUse"
       x1="48"
       id="linearGradient3176"
       spreadMethod="pad">
      <stop
         offset="0"
         style="stop-color:#fff"
         id="stop3178" />
      <stop
         offset="1"
         style="stop-color:#00adef;stop-opacity:1"
         id="stop3180" />
    </linearGradient>
    <linearGradient
       y2="138.66"
       x2="48"
       y1="20.221001"
       gradientUnits="userSpaceOnUse"
       x1="48"
       id="linearGradient3170"
       spreadMethod="pad">
      <stop
         offset="0"
         style="stop-color:#fff"
         id="stop3172" />
      <stop
         offset="1"
         style="stop-color:#00adef;stop-opacity:1"
         id="stop3174" />
    </linearGradient>
    <linearGradient
       y2="138.66"
       x2="48"
       y1="20.221001"
       gradientUnits="userSpaceOnUse"
       x1="48"
       id="linearGradient3164"
       spreadMethod="pad">
      <stop
         offset="0"
         style="stop-color:#000000;stop-opacity:0"
         id="stop3166" />
      <stop
         offset="1"
         style="stop-color:#fff;stop-opacity:0"
         id="stop3168" />
    </linearGradient>
    <linearGradient
       y2="138.66"
       x2="48"
       y1="20.221001"
       gradientUnits="userSpaceOnUse"
       x1="48"
       id="linearGradient3158"
       spreadMethod="pad">
      <stop
         offset="0"
         style="stop-color:#00adef;stop-opacity:1"
         id="stop3160" />
      <stop
         offset="1"
         style="stop-color:#fff;stop-opacity:0"
         id="stop3162" />
    </linearGradient>
    <linearGradient
       y2="138.66"
       x2="48"
       y1="20.221"
       gradientUnits="userSpaceOnUse"
       x1="48"
       id="linearGradient3152">
      <stop
         offset="0"
         style="stop-color:#00adef;stop-opacity:1"
         id="stop3154" />
      <stop
         offset="1"
         style="stop-color:#fff;stop-opacity:0"
         id="stop3156" />
    </linearGradient>
    <linearGradient
       id="linearGradient3514"
       y2="-9.1034"
       gradientUnits="userSpaceOnUse"
       x2="66.492"
       gradientTransform="matrix(.96826 0 0 .97948 2.179 .16587)"
       y1="-42.638"
       x1="67.952">
      <stop
         id="stop4620"
         style="stop-color:#37414b"
         offset="0" />
      <stop
         id="stop4622"
         style="stop-color:#37414b;stop-opacity:0"
         offset="1" />
    </linearGradient>
    <linearGradient
       id="linearGradient3516"
       y2="-11.847"
       gradientUnits="userSpaceOnUse"
       x2="58.98"
       gradientTransform="matrix(.96826 0 0 .97948 2.179 .16587)"
       y1="-118.55"
       x1="57.173">
      <stop
         id="stop4596"
         offset="0" />
      <stop
         id="stop4598"
         style="stop-opacity:0"
         offset="1" />
    </linearGradient>
    <linearGradient
       id="linearGradient3519"
       y2="50.369"
       gradientUnits="userSpaceOnUse"
       x2="76.558"
       gradientTransform="matrix(.96826 0 0 .97948 3.2423 -129.19)"
       y1="13.164"
       x1="76.558">
      <stop
         id="stop3392"
         style="stop-color:#425e7b"
         offset="0" />
      <stop
         id="stop3394"
         style="stop-color:#7a91a7"
         offset="1" />
    </linearGradient>
    <linearGradient
       id="linearGradient3521"
       y2="-8.7399"
       gradientUnits="userSpaceOnUse"
       x2="60.217"
       gradientTransform="matrix(.96826 0 0 .97948 2.179 .16587)"
       y1="-123.72"
       x1="60.395">
      <stop
         id="stop3392-4-8"
         style="stop-color:#425e7b"
         offset="0" />
      <stop
         id="stop3394-8-0"
         style="stop-color:#7a91a7"
         offset="1" />
    </linearGradient>
    <radialGradient
       id="radialGradient3349"
       gradientUnits="userSpaceOnUse"
       cy="45.647"
       cx="42.148"
       gradientTransform="matrix(.0084350 1.8886 -1.5444 .0068980 113.65 -57.814)"
       r="58.984">
      <stop
         id="stop4855"
         style="stop-color:#ef0000;stop-opacity:1;"
         offset="0" />
      <stop
         id="stop4857"
         style="stop-color:#b90000;stop-opacity:0.60119045;"
         offset="1" />
    </radialGradient>
    <filter
       id="filter3174"
       color-interpolation-filters="sRGB">
      <feGaussianBlur
         id="feGaussianBlur3176"
         stdDeviation="1.71" />
    </filter>
    <linearGradient
       id="ButtonShadow-1"
       x1="45.448"
       gradientUnits="userSpaceOnUse"
       y1="92.54"
       gradientTransform="scale(1.0059 .99417)"
       x2="45.448"
       y2="7.0165">
      <stop
         id="stop3750-87"
         offset="0" />
      <stop
         id="stop3752-56"
         style="stop-opacity:.58824"
         offset="1" />
    </linearGradient>
    <filter
       id="filter3174-5"
       color-interpolation-filters="sRGB">
      <feGaussianBlur
         id="feGaussianBlur3176-70"
         stdDeviation="1.71" />
    </filter>
    <linearGradient
       id="linearGradient6303"
       y2="13.937"
       gradientUnits="userSpaceOnUse"
       x2="14.134"
       gradientTransform="matrix(1 0 0 1.4586 0 -3.23)"
       y1="45.621"
       x1="36.417">
      <stop
         id="stop6299"
         style="stop-color:#fff;stop-opacity:.25604"
         offset="0" />
      <stop
         id="stop6301"
         style="stop-color:#fff;stop-opacity:.38164"
         offset="1" />
    </linearGradient>
    <filter
       id="filter3174-2"
       color-interpolation-filters="sRGB">
      <feGaussianBlur
         id="feGaussianBlur3176-78"
         stdDeviation="1.71" />
    </filter>
    <filter
       id="filter3174-24"
       color-interpolation-filters="sRGB">
      <feGaussianBlur
         id="feGaussianBlur3176-0"
         stdDeviation="1.71" />
    </filter>
    <filter
       id="filter3174-8"
       color-interpolation-filters="sRGB">
      <feGaussianBlur
         id="feGaussianBlur3176-9"
         stdDeviation="1.71" />
    </filter>
    <linearGradient
       id="linearGradient7604"
       y2="7.0165"
       gradientUnits="userSpaceOnUse"
       x2="45.448"
       gradientTransform="matrix(1.0059 0 0 .99417 -189.19 -21.187)"
       y1="92.54"
       x1="45.448">
      <stop
         id="stop3750-3"
         offset="0" />
      <stop
         id="stop3752-7"
         style="stop-opacity:.58824"
         offset="1" />
    </linearGradient>
    <filter
       id="filter3174-0"
       color-interpolation-filters="sRGB">
      <feGaussianBlur
         id="feGaussianBlur3176-2"
         stdDeviation="1.71" />
    </filter>
    <clipPath
       id="clipPath3613-87">
      <rect
         id="rect3615-88"
         style="fill:#fff"
         rx="6"
         ry="6"
         height="84"
         width="84"
         y="6"
         x="6" />
    </clipPath>
    <linearGradient
       id="linearGradient3613-88"
       x1="48"
       gradientUnits="userSpaceOnUse"
       y1="20.221001"
       x2="48"
       y2="138.66"
       spreadMethod="pad"
       xlink:href="#linearGradient3962">
      <stop
         id="stop3739-29"
         style="stop-color:#fff"
         offset="0" />
      <stop
         id="stop3741-173"
         style="stop-color:#fff;stop-opacity:0"
         offset="1" />
    </linearGradient>
    <filter
       id="filter3794-67"
       height="1.384"
       width="1.384"
       color-interpolation-filters="sRGB"
       y="-.192"
       x="-.192">
      <feGaussianBlur
         id="feGaussianBlur3796-4"
         stdDeviation="5.28" />
    </filter>
    <filter
       id="filter3174-45"
       color-interpolation-filters="sRGB">
      <feGaussianBlur
         id="feGaussianBlur3176-6"
         stdDeviation="1.71" />
    </filter>
    <linearGradient
       inkscape:collect="always"
       xlink:href="#ButtonShadow-1"
       id="linearGradient3060"
       gradientUnits="userSpaceOnUse"
       gradientTransform="scale(1.0059,0.99417)"
       x1="45.448"
       y1="92.54"
       x2="45.448"
       y2="7.0165" />
    <linearGradient
       id="linearGradient4215-8-5">
      <stop
         offset="0"
         style="stop-color:#ffb800;stop-opacity:1"
         id="stop4217-4-2" />
      <stop
         offset="1"
         style="stop-color:#ffb800;stop-opacity:0"
         id="stop4219-3-4" />
    </linearGradient>
    <linearGradient
       id="linearGradient4223-6-4">
      <stop
         offset="0"
         style="stop-color:#ffe375;stop-opacity:1"
         id="stop4225-4-6" />
      <stop
         offset="1"
         style="stop-color:#ffa600;stop-opacity:1"
         id="stop4227-8-6" />
    </linearGradient>
    <linearGradient
       id="linearGradient3095">
      <stop
         offset="0"
         style="stop-color:#ffb800;stop-opacity:1"
         id="stop3097" />
      <stop
         offset="1"
         style="stop-color:#ffb800;stop-opacity:0"
         id="stop3099" />
    </linearGradient>
    <linearGradient
       id="linearGradient3102">
      <stop
         offset="0"
         style="stop-color:#ffe375;stop-opacity:1"
         id="stop3104" />
      <stop
         offset="1"
         style="stop-color:#ffa600;stop-opacity:1"
         id="stop3106" />
    </linearGradient>
    <linearGradient
       id="linearGradient3109">
      <stop
         offset="0"
         style="stop-color:#ffb800;stop-opacity:1"
         id="stop3111" />
      <stop
         offset="1"
         style="stop-color:#ffb800;stop-opacity:0"
         id="stop3113" />
    </linearGradient>
    <linearGradient
       id="linearGradient3116">
      <stop
         offset="0"
         style="stop-color:#ffe375;stop-opacity:1"
         id="stop3118" />
      <stop
         offset="1"
         style="stop-color:#ffa600;stop-opacity:1"
         id="stop3120" />
    </linearGradient>
    <linearGradient
       id="linearGradient3123">
      <stop
         offset="0"
         style="stop-color:#ffb800;stop-opacity:1"
         id="stop3125" />
      <stop
         offset="1"
         style="stop-color:#ffb800;stop-opacity:0"
         id="stop3127" />
    </linearGradient>
    <linearGradient
       id="linearGradient3130">
      <stop
         offset="0"
         style="stop-color:#ffe375;stop-opacity:1"
         id="stop3132" />
      <stop
         offset="1"
         style="stop-color:#ffa600;stop-opacity:1"
         id="stop3134" />
    </linearGradient>
    <linearGradient
       id="linearGradient3137">
      <stop
         offset="0"
         style="stop-color:#ffb800;stop-opacity:1"
         id="stop3139" />
      <stop
         offset="1"
         style="stop-color:#ffb800;stop-opacity:0"
         id="stop3141" />
    </linearGradient>
    <linearGradient
       id="linearGradient3144">
      <stop
         offset="0"
         style="stop-color:#ffe375;stop-opacity:1"
         id="stop3146" />
      <stop
         offset="1"
         style="stop-color:#ffa600;stop-opacity:1"
         id="stop3148" />
    </linearGradient>
    <linearGradient
       id="linearGradient3151">
      <stop
         offset="0"
         style="stop-color:#ffb800;stop-opacity:1"
         id="stop3153" />
      <stop
         offset="1"
         style="stop-color:#ffb800;stop-opacity:0"
         id="stop3155" />
    </linearGradient>
    <linearGradient
       id="linearGradient3158-5">
      <stop
         offset="0"
         style="stop-color:#ffe375;stop-opacity:1"
         id="stop3160-3" />
      <stop
         offset="1"
         style="stop-color:#ffa600;stop-opacity:1"
         id="stop3162-7" />
    </linearGradient>
  </defs>
  <rect
     id="rect892"
     style="stroke:url(#linearGradient3521);stroke-width:.97385;fill:url(#linearGradient3519)"
     transform="scale(1,-1)"
     ry="29.296"
     height="115.54"
     width="114.22"
     y="-122.25"
     x="7.0394" />
  <rect
     id="rect892-2"
     style="stroke:url(#linearGradient3516);stroke-width:.97385;fill:url(#linearGradient3514)"
     transform="scale(1,-1)"
     ry="28.993"
     height="114.35"
     width="114.22"
     y="-121.46"
     x="7.0599" />
  <path
     id="path1187"
     style="opacity:.68238;fill:url(#linearGradient6303)"
     d="m36.537 7.6204c-8.869 0.7824-26.296 4.9186-29.527 41.221v47.783c18.67-55.894 33.784-75.414 85.818-89.536-0.225-0.0381-0.46-0.0444-0.691-0.0444-41.576 0.5651-17.576 0.5768-55.6 0.5768z" />
  <path
     id="rect895"
     style="fill:url(#radialGradient3349)"
     d="M 33.051,7.2596 C 25.082,4.8103 6.038,22.4336 7.398,30.2976 7.347858,31.27138 7.309228,32.2624 7.309228,33.2548 l 0,52.419 c 0,27.39576 13.780124,33.859 22.318,33.859 l 67.038,0 c 12.638002,0 24.318002,-11.245 24.318002,-25.859 l 0,-64.017 C 117.52639,14.79666 104.00232,8.2015175 95.248986,7.2784972 47.402986,8.1437972 77.040228,7.2624 33.054228,7.2624 z"
     inkscape:connector-curvature="0"
     sodipodi:nodetypes="ccssssscccc" />
  <rect
     id="rect892-2-7-8"
     style="opacity:.15891;stroke:#000;stroke-width:4.8445;fill:none"
     transform="scale(1,-1)"
     ry="28.993"
     height="114.35"
     width="114.22"
     y="-121.16"
     x="6.8687" />
  <rect
     id="rect892-2-7-1"
     style="opacity:.15891;stroke:#000;stroke-width:7.7512;fill:none"
     transform="scale(1,-1)"
     ry="28.993"
     height="114.35"
     width="114.22"
     y="-121.16"
     x="6.8687" />
  <g
     id="layer2"
     style="display:none"
     transform="matrix(1.44 0 0 1.44 -4.952 -6.9671)">
    <rect
       id="rect3745"
       style="opacity:.9;filter:url(#filter3174);fill:url(#ButtonShadow-1)"
       rx="6"
       ry="6"
       height="85"
       width="86"
       y="7"
       x="5" />
  </g>
  <g
     id="layer2-1"
     style="display:none"
     transform="translate(183.21 82.968)">
    <rect
       id="rect3745-9"
       style="opacity:.9;filter:url(#filter3174-5);fill:url(#ButtonShadow-1)"
       rx="6"
       ry="6"
       height="85"
       width="86"
       y="7"
       x="5" />
  </g>
  <g
     id="layer2-2"
     style="display:none"
     transform="translate(52.694 146.84)">
    <path
       id="rect3745-94"
       style="opacity:.9;filter:url(#filter3174-2);fill:url(#ButtonShadow-1)"
       d="m11 7c-3.324 0-6 2.676-6 6v73c0 3.324 2.676 6 6 6h74c3.324 0 6-2.676 6-6v-73c0-3.324-2.676-6-6-6h-74zm-1 4h6v4h-6v-4zm70 0h6v4h-6v-4zm-70 8h6v4h-6v-4zm70 0h6v4h-6v-4zm-70 8h6v4h-6v-4zm70 0h6v4h-6v-4zm-70 8h6v4h-6v-4zm70 0h6v4h-6v-4zm-70 8h6v4h-6v-4zm70 0h6v4h-6v-4zm-70 8h6v4h-6v-4zm70 0h6v4h-6v-4zm-70 8h6v4h-6v-4zm70 0h6v4h-6v-4zm-70 8h6v4h-6v-4zm70 0h6v4h-6v-4zm-70 8h6v4h-6v-4zm70 0h6v4h-6v-4zm-70 8h6v4h-6v-4zm70 0h6v4h-6v-4z" />
  </g>
  <rect
     id="rect892-2-7-2-9"
     ry="28.066999"
     style="fill:none;stroke:#000000;stroke-width:1.04890001"
     transform="scale(1,-1)"
     height="113.38796"
     width="114.00441"
     y="-120.31"
     x="7.0648999" />
  <g
     id="layer2-20"
     style="display:none"
     transform="translate(-287.93 37.655)">
    <rect
       id="rect3745-8"
       style="opacity:.9;filter:url(#filter3174-24);fill:url(#ButtonShadow-1)"
       rx="6"
       ry="6"
       height="85"
       width="86"
       y="7"
       x="5" />
  </g>
  <rect
     id="rect3745-7"
     style="opacity:.9;filter:url(#filter3174-8);display:none;fill:url(#linearGradient7604)"
     rx="6"
     ry="6"
     height="85"
     width="86"
     y="-14.187"
     x="-184.19" />
  <g
     id="layer2-0"
     style="display:none"
     transform="translate(218.22 18.71)">
    <rect
       id="rect3745-6"
       style="opacity:.9;filter:url(#filter3174-0);fill:url(#ButtonShadow-1)"
       rx="6"
       ry="6"
       height="85"
       width="86"
       y="7"
       x="5" />
  </g>
  <g
     style="display:none"
     id="layer2-3"
     transform="matrix(1.3904,0,0,1.3904,-2.7373,-4.128)">
    <rect
       x="5"
       y="7"
       width="86"
       height="85"
       ry="6"
       rx="6"
       style="opacity:0.9;fill:url(#linearGradient3060);filter:url(#filter3174-45)"
       id="rect3745-1" />
  </g>
  <g
     id="layer5-30"
     transform="matrix(1.3904,0,0,1.3904,-2.7373,-4.128)" />
  <path
     inkscape:connector-curvature="0"
     style="font-size:88px;font-style:normal;font-variant:normal;font-weight:bold;font-stretch:normal;line-height:125%;letter-spacing:0px;word-spacing:0px;fill:#ffffff;fill-opacity:1;stroke:none;display:inline;enable-background:new;font-family:Liberation Serif;-inkscape-font-specification:Liberation Serif Bold"
     d="m 51.54361,31.057417 c -6.276516,5.5e-5 -10.964432,2.381512 -14.045636,7.135416 -3.0812,4.727133 -4.613247,11.555203 -4.613247,20.499035 0,9.13189 1.532083,16.097851 4.613247,20.878651 2.15511,3.343879 5.033601,5.515491 8.640995,6.517738 0,0 0.731764,-0.04263 0.791393,0.739919 1.241528,10.092654 7.551154,10.114398 14.74052,10.114398 0,0 0.926509,0.0036 0.926509,-0.926506 l 0,-5.571929 c 0,-0.927951 -0.926509,-0.926502 -0.926509,-0.926502 -3.591998,0 -4.526439,0.234937 -5.488287,-3.365034 1.21662,-0.301296 2.348263,-0.706414 3.397203,-1.241783 2.367905,-1.235482 4.320827,-3.034657 5.861466,-5.398208 1.540563,-2.390405 2.681104,-5.323109 3.42294,-8.814717 0.770224,-3.491589 1.16457,-7.493791 1.16457,-12.006027 0,-9.05127 -1.56512,-15.915688 -4.703325,-20.589113 -3.138316,-4.700181 -7.733543,-7.045287 -13.781839,-7.045338 z m -0.05791,4.523172 c 1.315671,5.3e-5 2.319033,0.464184 3.159143,1.421935 0.495469,0.544748 0.934581,1.260842 1.338293,2.116819 0.228156,0.630546 0.454091,1.299382 0.636975,2.058911 0.493547,2.050034 0.841337,4.537109 1.042324,7.482857 0.20058,2.940951 0.295931,6.289191 0.295967,10.030757 -3.6e-5,3.76841 -0.09542,7.158774 -0.295967,10.153007 -0.200949,2.972372 -0.549366,5.496573 -1.042324,7.598671 -0.185438,0.780451 -0.4016,1.487747 -0.636975,2.142556 -0.03883,0.08472 -0.07602,0.181924 -0.115814,0.263798 -0.369287,0.759808 -0.777313,1.396396 -1.222479,1.910925 -0.842959,1.010314 -1.849324,1.479849 -3.159143,1.479844 -1.309853,5e-6 -2.32269,-0.469539 -3.165575,-1.479844 -0.824379,-1.026037 -1.501129,-2.524045 -2.001003,-4.52317 -0.501581,-2.032177 -0.83949,-4.515334 -1.042325,-7.450687 -0.203281,-2.96802 -0.321742,-6.343289 -0.321706,-10.0951 -3.6e-5,-3.724846 0.118462,-7.033171 0.321706,-9.947114 0.202799,-2.908151 0.541411,-5.358033 1.042325,-7.334873 0.499428,-1.971044 1.182471,-3.43824 2.001003,-4.407357 0.840072,-0.957744 1.84991,-1.421886 3.165575,-1.421935 z m 28.753987,3.828288 C 77.453784,50.5444 79.313098,50.5463 73.741251,50.5463 l 0.0193,6.588517 3.712474,0 c 0,0 -0.01932,14.752568 -0.01932,19.392372 0,0 -0.924292,5.567575 3.718907,8.351458 4.777819,2.864587 13.743613,0.132908 13.929824,0 l 0,-6.498437 c 0,0 -2.030772,0.730664 -3.519456,0.585501 -1.170482,3e-6 -2.112783,-0.435347 -2.830996,-1.312552 -0.718265,-0.877217 -1.080971,-2.184079 -1.080931,-3.911935 l 0.01935,-16.606407 7.424948,0 -0.0128,-6.588517 -7.431384,0 0,-11.137423 -7.431384,0 z"
     id="path6062" />
</svg>
