<?xml version="1.0" encoding="UTF-8" standalone="no"?>
<!-- Created with Inkscape (http://www.inkscape.org/) -->
<svg id="svg3449" xmlns:rdf="http://www.w3.org/1999/02/22-rdf-syntax-ns#" xmlns="http://www.w3.org/2000/svg" height="128" width="128" version="1.0" xmlns:cc="http://creativecommons.org/ns#" xmlns:xlink="http://www.w3.org/1999/xlink" xmlns:dc="http://purl.org/dc/elements/1.1/">
 <metadata id="metadata56">
  <rdf:RDF>
   <cc:Work rdf:about="">
    <dc:format>image/svg+xml</dc:format>
    <dc:type rdf:resource="http://purl.org/dc/dcmitype/StillImage"/>
    <dc:title/>
   </cc:Work>
  </rdf:RDF>
 </metadata>
 <defs id="defs3451">
  <linearGradient id="linearGradient3514" y2="-9.1034" gradientUnits="userSpaceOnUse" x2="66.492" gradientTransform="matrix(.96826 0 0 .97948 2.179 .16587)" y1="-42.638" x1="67.952">
   <stop id="stop4620" style="stop-color:#37414b" offset="0"/>
   <stop id="stop4622" style="stop-color:#37414b;stop-opacity:0" offset="1"/>
  </linearGradient>
  <linearGradient id="linearGradient3516" y2="-11.847" gradientUnits="userSpaceOnUse" x2="58.98" gradientTransform="matrix(.96826 0 0 .97948 2.179 .16587)" y1="-118.55" x1="57.173">
   <stop id="stop4596" offset="0"/>
   <stop id="stop4598" style="stop-opacity:0" offset="1"/>
  </linearGradient>
  <linearGradient id="linearGradient3519" y2="50.369" gradientUnits="userSpaceOnUse" x2="76.558" gradientTransform="matrix(.96826 0 0 .97948 3.2423 -129.19)" y1="13.164" x1="76.558">
   <stop id="stop3392" style="stop-color:#425e7b" offset="0"/>
   <stop id="stop3394" style="stop-color:#7a91a7" offset="1"/>
  </linearGradient>
  <linearGradient id="linearGradient3521" y2="-8.7399" gradientUnits="userSpaceOnUse" x2="60.217" gradientTransform="matrix(.96826 0 0 .97948 2.179 .16587)" y1="-123.72" x1="60.395">
   <stop id="stop3392-4-8" style="stop-color:#425e7b" offset="0"/>
   <stop id="stop3394-8-0" style="stop-color:#7a91a7" offset="1"/>
  </linearGradient>
  <radialGradient id="radialGradient3349" gradientUnits="userSpaceOnUse" cy="45.647" cx="42.148" gradientTransform="matrix(.94690 0 0 1.139 3.5954 -29.89)" r="58.984">
   <stop id="stop8006" style="stop-color:#ef916b" offset="0"/>
   <stop id="stop8008" style="stop-color:#db4916" offset="1"/>
  </radialGradient>
  <filter id="filter3174-1" color-interpolation-filters="sRGB">
   <feGaussianBlur id="feGaussianBlur3176-0" stdDeviation="1.71"/>
  </filter>
  <linearGradient id="ButtonShadow-9" x1="45.448" gradientUnits="userSpaceOnUse" y1="92.54" gradientTransform="scale(1.0059 .99417)" x2="45.448" y2="7.0165">
   <stop id="stop3750-6" offset="0"/>
   <stop id="stop3752-7" style="stop-opacity:.58824" offset="1"/>
  </linearGradient>
  <filter id="filter3174-9" color-interpolation-filters="sRGB">
   <feGaussianBlur id="feGaussianBlur3176-5" stdDeviation="1.71"/>
  </filter>
  <linearGradient id="linearGradient4238-5" y2="25" gradientUnits="userSpaceOnUse" x2="25" y1="57" x1="25">
   <stop id="stop3624-6-9-7-3-1" style="stop-color:#ba4712" offset="0"/>
   <stop id="stop3856-8-7-9-7-0" style="stop-color:#cf671c" offset=".5"/>
   <stop id="stop3626-0-8-7-8-5" style="stop-color:#e27f39" offset="1"/>
  </linearGradient>
  <filter id="filter3174-6" color-interpolation-filters="sRGB">
   <feGaussianBlur id="feGaussianBlur3176-1" stdDeviation="1.71"/>
  </filter>
 </defs>
 <rect id="rect892" style="stroke:url(#linearGradient3521);stroke-width:.97385;fill:url(#linearGradient3519)" transform="scale(1,-1)" ry="29.296" height="115.54" width="114.22" y="-122.25" x="7.0394"/>
 <rect id="rect892-2" style="stroke:url(#linearGradient3516);stroke-width:.97385;fill:url(#linearGradient3514)" transform="scale(1,-1)" ry="28.993" height="114.35" width="114.22" y="-121.46" x="7.0599"/>
 <path id="rect895" style="fill:url(#radialGradient3349)" d="m30.571 7.0104c-13.128 0.936-22.55 15.04-23.173 23.288-0.050142 0.97378-0.088772 1.9648-0.088772 2.9572v58.419c0 15.229 11.191 27.859 22.318 27.859h67.038c15.69 0 24.318-16.445 24.318-25.859v-64.017c-0.21-5.933-12.29-21.682-25.926-22.618-47.846 0.8653-20.497-0.0256-64.483-0.0256z"/>
 <rect id="rect892-2-7-8" style="opacity:.15891;stroke:#000;stroke-width:4.8445;fill:none" transform="scale(1,-1)" ry="28.993" height="114.35" width="114.22" y="-121.16" x="6.8683"/>
 <rect id="rect892-2-7-1" style="opacity:.15891;stroke:#000;stroke-width:7.7512;fill:none" transform="scale(1,-1)" ry="28.993" height="114.35" width="114.22" y="-121.16" x="6.8686"/>
 <rect id="rect892-2-7-2-9" ry="28.067" style="stroke:#000;stroke-width:1.0489;fill:none" transform="scale(1,-1)" height="112.71" width="114.14" y="-120.31" x="7.0644"/>
 <path id="path1187" style="fill:#fff;fill-opacity:.057143" d="m37.509 10.721c-14.891-4.3296-32.78 19.454-27.93 26.295-0.04334 0.71563-0.07674 1.4439-0.07674 2.1732v10.76c25.898-25.61 66.753-35.478 90.374-39.178-0.22473-0.02628-0.45986-0.03062-0.69067-0.03062-41.576 0.38742-23.653-0.01876-61.677-0.01875z"/>
 <g id="layer2" style="display:none" transform="translate(187.88 23.742)">
  <rect id="rect3745" style="opacity:.9;filter:url(#filter3174-1);fill:url(#ButtonShadow-9)" rx="6" ry="6" height="85" width="86" y="7" x="5"/>
 </g>
 <g id="layer2-2" style="display:none" transform="matrix(1.2166 0 0 1.2299 5.6049 3.1187)">
  <rect id="rect3745-5" style="opacity:.9;filter:url(#filter3174-9);fill:url(#ButtonShadow-9)" rx="6" ry="6" height="85" width="86" y="7" x="5"/>
 </g>
 <path id="path3397-3-2-5" style="opacity:.05;color:#000000;fill:url(#linearGradient4238-5)" d="m23.625 22.125a3.6626 3.6626 0 0 0 -2.7188 1.6875l-2.5 3.875-4.5312-1a3.6626 3.6626 0 0 0 -4.3438 4.375l1 4.4062-3.9062 2.4375a3.6626 3.6626 0 0 0 0 6.1875l3.9062 2.4375-1 4.4062a3.6626 3.6626 0 0 0 4.3438 4.375l4.5312-1 2.5 3.875a3.6626 3.6626 0 0 0 6.1875 0l2.5-3.875 4.5312 1a3.6626 3.6626 0 0 0 4.3438 -4.375l-1-4.4062 3.9062-2.4375a3.6626 3.6626 0 0 0 0 -6.1875l-3.9062-2.4375 1-4.4062a3.6626 3.6626 0 0 0 -4.344 -4.374l-4.5312 1-2.5-3.875a3.6626 3.6626 0 0 0 -3.469 -1.688zm0.375 15.094c0.2413 0.29026 0.47719 0.58429 0.71875 0.875a3.6626 3.6626 0 0 0 -0.719 1.312 3.6626 3.6626 0 0 0 -0.719 -1.312c0.242-0.291 0.478-0.585 0.719-0.875z" transform="translate(0,-16)"/>
 <g id="layer2-8" style="display:none" transform="matrix(1.2166 0 0 1.2299 162.3 9.178)">
  <rect id="rect3745-8" style="opacity:.9;filter:url(#filter3174-6);fill:url(#ButtonShadow-9)" rx="6" ry="6" height="85" width="86" y="7" x="5"/>
 </g>
 <path id="path5539" style="fill:#fff" d="m89.675 102.82-7.8254-3.0506-5.4978 1.7293c-8.7993 2.7677-21.99 1.7822-30.421-2.2729-16.989-8.1712-25.657-22.238-24.703-40.09 0.75224-14.085 7.126-24.86 19.355-32.72 13.12-8.4325 32.435-8.7684 46.032-0.80051 6.0172 3.5263 14.087 12.506 17.191 19.128 2.41 5.158 2.69 6.899 2.69 16.756 0 9.9497-0.2599 11.529-2.722 16.537-1.4971 3.0455-4.3604 7.4514-6.363 9.7909l-3.641 4.2537 2.613 6.025c2.7272 6.2884 3.119 7.9354 1.863 7.8306-0.4125-0.0344-4.2714-1.4353-8.5754-3.1132zm-54.605-25.07c0.0387-1.2375 0.42931-3.15 0.86812-4.25 0.67737-1.698 0.99265-1.3583 2.088 2.25 1.9924 6.5634 5.8934 5.5387 6.0216-1.5818 0.0465-2.583 0.10248-2.5565 1.7534 0.83179 1.4903 3.0586 2.2292 3.5382 5.8582 3.8029 3.3854 0.24694 4.4473-0.11755 5.7466-1.9725 3.5143-5.0173 1.0083-10.23-4.9179-10.23-2.7074 0-4.2648 0.64065-5.6172 2.3108-1.8407 2.2732-1.8712 2.2765-1.8712 0.2 0-3.5708-2.7404-2.3612-3.7138 1.6392l-0.91242 3.75-1.2645-3.75c-1.3269-3.9351-3.7853-4.9759-4.7243-2-0.30368 0.9625-0.92743 2.65-1.3861 3.75-0.73574 1.7645-0.91728 1.6172-1.5415-1.25-0.47379-2.1763-1.2924-3.25-2.4778-3.25-1.6757 0-1.6844 0.32075-0.1627 6 1.3709 5.1164 1.9445 6 3.8953 6 1.6849 0 2.3062-0.59283 2.358-2.25zm15.011-2.1521c-2.086-2.513-0.958-6.098 1.919-6.098 2.1886 0 2.5 0.43425 2.5 3.4863 0 3.8537-2.273 5.1971-4.4187 2.6116zm13.735 0.07495c0.39577-3.3432 1.4561-3.4007 3.1836-0.17288 0.85422 1.5961 2.2021 2.5 3.728 2.5 2.4988 0 2.393-0.84043-0.53509-4.25-1.0516-1.2245-1.1361-1.75-0.28147-1.75 0.74248 0 1.0973-1.0783 0.90498-2.75-0.29513-2.5649-0.66973-2.7703-5.5664-3.0523l-5.25-0.30226v5.8856c0 3.2371 0.30938 6.195 0.6875 6.5731 1.2939 1.2939 2.8124-0.0073 3.1289-2.6813zm0.184-6.173c0-1.03 0.6554-1.5204 1.75-1.3096 2.2632 0.43584 2.2632 2.1834 0 2.6193-1.0946 0.2108-1.75-0.27967-1.75-1.3096zm19.539 6.4675c1.9352-1.6061 1.8667-7.4186-0.11065-9.396-0.969-0.97-3.319-1.572-6.135-1.572h-4.5645l0.63593 4.6396c0.34975 2.5518 0.63592 5.536 0.63592 6.6317 0 1.7501 0.4907 1.9263 4.0392 1.4503 2.2216-0.29798 4.6966-1.0873 5.5-1.7541zm-6.539-4.468c0-2.8221 0.38367-3.5 1.981-3.5 1.2667 0 2.202 0.88086 2.5941 2.4432 0.763 3.04-0.114 4.557-2.634 4.557-1.5516 0-1.941-0.70214-1.941-3.5zm20.393 3.25c1.3615-2.1725-0.22168-5.1056-3.0002-5.5585-4.0025-0.65246-4.7933-1.191-3.56-2.4242 0.86267-0.86267 1.4599-0.8745 2.2891-0.04536 1.6785 1.6785 4.2557 0.43806 2.7812-1.3386-2.3437-2.824-8.9031-0.84702-8.9031 2.6834 0 1.0979 0.5625 2.1937 1.25 2.4351 6.5532 2.3012 7.0414 2.6069 5.933 3.7152-0.85684 0.85684-1.7726 0.80549-3.6613-0.20533-2.817-1.5076-4.079-0.90623-3.1544 1.5032 0.85643 2.2318 8.5138 1.6477 10.026-0.76482zm4.607 0.143c0-0.491-0.68-0.893-1.5-0.893-0.825 0-1.5 0.66088-1.5 1.4686 0 0.89459 0.58629 1.2436 1.5 0.89301 0.825-0.31658 1.5-0.97746 1.5-1.4686zm-0.63-5.143c1.126-4.2018 0.7236-5.75-1.4947-5.75-1.8467 0-2.0431 0.40931-1.5 3.125 0.34375 1.7188 0.625 3.5188 0.625 4 0 1.8198 1.7922 0.77985 2.3697-1.375zm-56.293-6.673c3.1801-3.1801 3.8697-7.9053 1.8126-12.42-3.3133-7.2718-17.102-6.4894-20.001 1.135-1.4041 3.6932-0.23239 8.9556 2.6318 11.82 1.896 1.896 3.444 2.388 7.51 2.388 4.3282 0 5.5756-0.45317 8.0454-2.9231zm-10.832-2.327c-1.8049-2.256-2.3129-5.4407-1.295-8.1179 0.773-2.033 1.681-2.632 3.99-2.632 3.2928 0 5.0599 2.2221 5.0599 6.3628 0 4.4831-5.286 7.4735-7.7552 4.3872zm19.469-3.3469c-0.31601-4.1783-0.37452-7.3968-0.13003-7.1524 0.24449 0.24449 1.49 3.5506 2.7677 7.3469 1.7924 5.3255 2.8045 6.9737 4.4304 7.2147 2.1907 0.32468 2.3429-0.02281 4.9551-11.312 0.92236-3.9863 0.92818-3.9751 1.6956 3.25 0.73143 6.8861 0.89703 7.25 3.2994 7.25 2.3663 0 2.4894-0.24169 1.9095-3.75-0.34091-2.0625-0.62479-6.5625-0.63084-10l-0.011-6.25h-4.4062-4.4062l-0.65987 4.7978c-1.0653 7.7458-2.1064 8.2147-4.1121 1.8521l-1.781-5.65h-4.4567-4.4567l0.6306 5.25c0.34683 2.8875 0.63451 7.3875 0.63929 10 0.008 4.4669 0.16627 4.75 2.653 4.75h2.6443zm38.971 4.0676c1.7776-1.1647 2.315-2.4399 2.315-5.4938v-3.9769h-5c-4.3333 0-5 0.26667-5 2 0 1.4667 0.66667 2 2.5 2 3.3161 0 3.1876 1.7881-0.22165 3.0843-5.5733 2.119-9.6926-3.2645-6.9416-9.072 1.3754-2.9035 4.0446-3.6813 7.0724-2.0609 1.3816 0.73941 2.9973 0.83383 4.5349 0.26502l2.3887-0.88363-2.1664-2.1664c-2.613-2.6131-9.7355-2.9577-14.133-0.68377-6.8104 3.5218-5.8731 15.427 1.4664 18.625 2.7035 1.1781 10.335 0.23072 13.185-1.6369zm8.5395 0.97138c1.38-1.374-0.58-4.442-2.837-4.442-1.8756 0-2.3834 0.53262-2.3834 2.5 0 1.9524 0.51111 2.5 2.3333 2.5 1.2833 0 2.5844-0.25106 2.8912-0.5579zm-0.84-9.567c0.34375-1.7188 0.625-4.9212 0.625-7.1166 0-3.6515-0.19175-3.9402-2.25-3.3887-1.2375 0.33164-2.6394 0.60912-3.1152 0.61663-0.82586 0.01303 0.06658 10.699 1.0242 12.264 1.1016 1.7996 3.1419 0.49553 3.716-2.375z"/>
</svg>
