<?xml version="1.0" encoding="UTF-8" standalone="no"?>
<!-- Created with Inkscape (http://www.inkscape.org/) -->

<svg
   xmlns:dc="http://purl.org/dc/elements/1.1/"
   xmlns:cc="http://creativecommons.org/ns#"
   xmlns:rdf="http://www.w3.org/1999/02/22-rdf-syntax-ns#"
   xmlns:svg="http://www.w3.org/2000/svg"
   xmlns="http://www.w3.org/2000/svg"
   xmlns:xlink="http://www.w3.org/1999/xlink"
   xmlns:sodipodi="http://sodipodi.sourceforge.net/DTD/sodipodi-0.dtd"
   xmlns:inkscape="http://www.inkscape.org/namespaces/inkscape"
   id="svg3449"
   height="128"
   width="128"
   version="1.0"
   inkscape:version="0.48.4 r9939"
   sodipodi:docname="php.svg">
  <sodipodi:namedview
     pagecolor="#ffffff"
     bordercolor="#666666"
     borderopacity="1"
     objecttolerance="10"
     gridtolerance="10"
     guidetolerance="10"
     inkscape:pageopacity="0"
     inkscape:pageshadow="2"
     inkscape:window-width="1360"
     inkscape:window-height="707"
     id="namedview28"
     showgrid="false"
     inkscape:zoom="2.6074563"
     inkscape:cx="2.7043605"
     inkscape:cy="45.665894"
     inkscape:window-x="-2"
     inkscape:window-y="33"
     inkscape:window-maximized="1"
     inkscape:current-layer="svg3449" />
  <metadata
     id="metadata56">
    <rdf:RDF>
      <cc:Work
         rdf:about="">
        <dc:format>image/svg+xml</dc:format>
        <dc:type
           rdf:resource="http://purl.org/dc/dcmitype/StillImage" />
        <dc:title></dc:title>
      </cc:Work>
    </rdf:RDF>
  </metadata>
  <defs
     id="defs3451">
    <linearGradient
       id="linearGradient3514"
       y2="-9.1034"
       gradientUnits="userSpaceOnUse"
       x2="66.492"
       gradientTransform="matrix(0.96826591,0,0,0.97837245,2.008719,0.37798667)"
       y1="-42.638"
       x1="67.952">
      <stop
         id="stop4620"
         style="stop-color:#37414b"
         offset="0" />
      <stop
         id="stop4622"
         style="stop-color:#37414b;stop-opacity:0"
         offset="1" />
    </linearGradient>
    <linearGradient
       id="linearGradient3516"
       y2="-11.847"
       gradientUnits="userSpaceOnUse"
       x2="58.98"
       gradientTransform="matrix(0.96826591,0,0,0.97837245,2.008719,0.37798667)"
       y1="-118.55"
       x1="57.173">
      <stop
         id="stop4596"
         offset="0" />
      <stop
         id="stop4598"
         style="stop-opacity:0"
         offset="1" />
    </linearGradient>
    <linearGradient
       id="linearGradient3519"
       y2="50.369"
       gradientUnits="userSpaceOnUse"
       x2="76.558"
       gradientTransform="matrix(0.96830812,0,0,0.96833796,3.0898716,-127.9739)"
       y1="13.164"
       x1="76.558">
      <stop
         id="stop3392"
         style="stop-color:#425e7b"
         offset="0" />
      <stop
         id="stop3394"
         style="stop-color:#7a91a7"
         offset="1" />
    </linearGradient>
    <linearGradient
       id="linearGradient3521"
       y2="-8.7399"
       gradientUnits="userSpaceOnUse"
       x2="60.217"
       gradientTransform="matrix(0.96830812,0,0,0.96833796,2.0265188,-0.08950392)"
       y1="-123.72"
       x1="60.395">
      <stop
         id="stop3392-4-8"
         style="stop-color:#425e7b"
         offset="0" />
      <stop
         id="stop3394-8-0"
         style="stop-color:#7a91a7"
         offset="1" />
    </linearGradient>
    <radialGradient
       id="radialGradient3349"
       gradientUnits="userSpaceOnUse"
       cy="45.647"
       cx="42.148"
       gradientTransform="matrix(0.94689705,0,0,1.1490317,3.4411805,-29.893821)"
       r="58.984">
      <stop
         id="stop2699-5"
         style="stop-color:#8787de;stop-opacity:1"
         offset="0" />
      <stop
         id="stop2701-7"
         style="stop-color:#442178;stop-opacity:1"
         offset="1" />
    </radialGradient>
    <radialGradient
       inkscape:collect="always"
       xlink:href="#linearGradient4132"
       id="radialGradient4922"
       gradientUnits="userSpaceOnUse"
       gradientTransform="matrix(6.1248261,0,0,4.4807882,-135.86665,-31.233647)"
       cx="63.98003"
       cy="61.948856"
       fx="63.98003"
       fy="61.948856"
       r="58.01997" />
    <linearGradient
       id="linearGradient4132">
      <stop
         offset="0"
         style="stop-color:#7bb8f0;stop-opacity:1"
         id="stop4134" />
      <stop
         offset="1"
         style="stop-color:#b5d5f2;stop-opacity:0.1221374"
         id="stop4136" />
    </linearGradient>
  </defs>
  <rect
     id="rect892"
     style="fill:url(#linearGradient3519);stroke:url(#linearGradient3521);stroke-width:0.96831924"
     transform="scale(1,-1)"
     ry="28.962744"
     height="114.22568"
     width="114.22568"
     y="-121.11284"
     x="6.8871613" />
  <rect
     id="rect892-2"
     style="fill:url(#linearGradient3514);stroke:url(#linearGradient3516);stroke-width:0.97330225"
     transform="scale(1,-1)"
     ry="28.960217"
     height="114.2207"
     width="114.2207"
     y="-121.11035"
     x="6.8896484" />
  <path
     id="rect895"
     style="fill:url(#radialGradient3349)"
     d="M 32.896689,7.5829705 C 25.699946,3.5676353 6.911717,20.834726 7.2437679,30.823875 c -0.05014,0.982357 -0.08877,1.982106 -0.08877,2.983246 l 0,52.880675 c 0,21.059864 10.7119671,34.157204 22.3179311,34.157204 l 67.037792,0 c 12.637959,0 24.317929,-11.34403 24.317929,-26.086744 l 0,-64.580824 C 121.52864,19.153185 99.545711,5.3012495 94.902721,7.3602255 47.056873,8.2331465 76.88578,7.5857945 32.899917,7.5857945 z"
     inkscape:connector-curvature="0"
     sodipodi:nodetypes="ccssssscccc" />
  <g
     transform="matrix(0.24565683,0,0,0.24565683,-0.75809721,0.28803827)"
     id="g3025">
    <path
       sodipodi:nodetypes="cssscsssscssssssscsssssssccsccc"
       inkscape:connector-curvature="0"
       id="path8314"
       d="m 186.53125,183.21875 c 1.81992,1.66908 3.88083,3.86396 6.11389,6.40625 2.23305,2.54229 4.63885,5.42484 7.10199,8.53125 4.9263,6.21282 10.13483,13.26032 14.8833,19.875 9.49695,13.22936 17.1683,24.78125 17.1683,24.78125 0,0 0.63694,0.62738 1.6983,1.90625 1.06136,1.27887 2.53671,3.21752 4.29207,5.84375 1.75537,2.62623 3.78485,5.9267 5.86687,9.96875 1.041,2.02103 2.09578,4.23718 3.14958,6.625 1.05379,2.38782 2.09804,4.95558 3.1187,7.71875 1.02222,2.76443 1.90774,5.88844 2.65552,9.28125 0.74779,3.39281 1.34451,7.06015 1.8527,10.84375 0.50819,3.7836 0.93169,7.68822 1.23513,11.625 0.30343,3.93678 0.51492,7.89764 0.64844,11.75 0.26705,7.70471 0.20353,14.99609 0,20.9375 -0.20353,5.94141 -0.56185,10.53521 -0.95723,12.8125 -0.79076,4.55456 -1.78879,8.82973 -2.84079,13.75 -1.05201,4.92027 -2.15798,10.48564 -3.1187,17.59375 -0.48131,3.55171 -0.86404,8.13775 -1.20425,13.15625 -0.34022,5.0185 -0.62901,10.46057 -0.98811,15.75 -0.35909,5.28943 -0.78981,10.41676 -1.32776,14.78125 -0.26897,2.18225 -0.55179,4.17946 -0.89547,5.90625 -0.34368,1.72679 -0.73498,3.19065 -1.17337,4.3125 -1.75091,4.48073 -5.00122,13.21727 -8.368,21.9375 -1.68339,4.36011 -3.40051,8.70667 -4.9714,12.53125 -1.57088,3.82458 -2.99272,7.11832 -4.1068,9.34375 -1.56647,3.12105 -3.05544,6.88945 -4.56998,10.8125 l 169.39795,0 c 27.75535,0 52.72639,-11.67092 70.40235,-30.4375 L 186.53125,183.2188 z"
       style="opacity:0.9;fill:#000000;fill-opacity:0.23529412" />
    <path
       inkscape:connector-curvature="0"
       id="path8308"
       d="m 62.03125,142 c -4.773327,0.0705 -9.538673,0.54438 -13.625,1.65625 -14.952562,4.05655 -20.25,24.15625 -20.25,24.15625 0,0 -2.082993,16.25949 4.25,9.53125 0,0 1.665895,-10.13702 11.8125,-15.5625 10.146605,-5.42549 25.284683,-12.55602 41.28125,-3.21875 0,0 7.386778,-7.67207 19.84375,-3.71875 6.15756,1.9655 20.91481,8.08073 35.46875,14.8125 1.21188,1.81152 1.73326,3.88035 0.65625,6.15625 -3.48832,7.35981 -3.70677,10.39008 2.21875,10.8125 5.93442,0.42305 9.5137,-8.4578 16.71875,-4.90625 7.21333,3.56126 0.4421,15.26802 7.75,17.3125 7.3174,2.03605 10.40487,0.72923 14.75,2.5625 4.34514,1.83328 19.82764,15.08104 17.9375,21.03125 -1.89842,5.9405 -15.68887,-10.23733 -20.34375,-7.53125 -4.6555,2.71516 -12.38375,6.70091 -6.65625,10.15625 5.71922,3.44564 23.50267,4.74313 30.40625,12.84375 4.02486,4.72276 6.26769,8.19021 8.28125,9.46875 0.003,0.0836 -0.002,0.1348 0,0.21875 0,0 18.53499,6.7379 18.96875,11.125 0.30317,3.00525 5.24293,12.89175 8.84375,20.875 0.77509,2.70598 1.17221,6.34928 -0.875,10.625 -1.32992,2.03604 -2.8515,4.21449 -4.5,6.3125 -3.08053,3.32282 -6.52357,5.8332 -8.15625,6.3125 -2.35339,0.68522 -9.65625,-3.0625 -9.65625,-3.0625 l 0,0.0625 -11.34375,-6.3125 c 0,0 3.36344,13.13161 14.3125,18.875 0,0 7.29252,17.40461 -0.5625,28.75 -7.8636,11.34022 -26.78125,18.875 -26.78125,18.875 0,0 -3.67727,-29.00461 -6.09375,-35.125 -2.41174,-6.1246 -7.67208,-12.44569 -8.8125,-16.5 -1.13658,-4.04491 10.40693,-28.03191 9.53125,-36.03125 -0.8763,-7.99024 -10.51328,-32.48164 -31.53125,-35.96875 0.004,0.005 -0.47804,-34.74379 -16.125,-33.875 0,0 14.2971,18.87881 -2.625,38.5 -5.86629,6.80487 -9.43681,10.13068 -11.625,11.65625 -9.35006,-5.01795 -20.125,-3.03125 -20.125,-3.03125 0,0 5.45508,3.3864 13.78125,5.96875 C 127.4824,258.39484 124.625,279 124.625,279 c 3.89361,5.24042 8.34375,2.59375 8.34375,2.59375 7.59765,-6.15514 4.48022,-18.02299 -2.40625,-24.96875 4.33984,-4.60858 12.27958,-11.75071 19,-10.59375 9.8042,1.68876 21.90543,11.50695 25.125,26.625 3.22019,15.10898 -7.48625,26.2472 -20.3125,27.3125 -12.83132,1.07407 -60.4375,-7.28125 -60.4375,-7.28125 0,0 4.032915,3.25578 2.28125,8.09375 -1.742145,4.82953 -4.96875,10.5625 -4.96875,10.5625 0,0 11.95694,-9.05816 40.09375,-6.0625 28.13621,3.00473 37.69055,8.65365 47.6875,28.21875 9.99697,19.56509 1.04561,46.67586 -5.0625,53.1875 -6.10811,6.51163 -31.62361,6.67107 -34.90625,13.375 -3.28264,6.70394 4.67173,14.21941 5.75,19.25 1.06874,5.03903 -4.8125,8.59375 -4.8125,8.59375 0,0 15.97786,-5.79351 27.1875,-4 11.21885,1.7896 31.625,14.15625 31.625,14.15625 0,0 -4.36894,1.68949 -3.15625,4.75 1.21269,3.0605 3.82646,6.20305 2.21875,9.0625 -1.60772,2.85944 -5.96875,4.53125 -5.96875,4.53125 0,0 6.99017,1.52852 11.625,-4.09375 4.63484,-5.62227 -3.77713,-7.23718 -0.75,-10 3.01791,-2.75893 8.59375,-1.375 8.59375,-1.375 0,0 -4.18462,-1.30164 -10.625,-10.6875 -6.44038,-9.38586 -8.94108,-14.51504 -18.8125,-15.21875 C 172.05719,414.3269 160.71875,414.5 160.71875,414.5 c 0,0 -9.57233,-4.65898 -4.9375,-10.28125 4.63483,-5.62227 37.3125,-7.25 37.3125,-7.25 0,0 -9.46139,-6.63275 -9.125,-11.5625 0.33701,-4.93882 8.05135,-14.31323 21.21875,-20.3125 13.16802,-6.00835 23.80443,-16.14828 25.21875,-36.875 0.82622,-12.10794 3.10297,-18.62495 6.65625,-23.40625 1.20001,-0.8783 4.70096,-3.35247 6.4375,-3.40625 0.97404,-0.0302 1.51034,1.2304 1.84375,2.5625 0.43698,7.93203 0.75348,16.3548 1.0625,19.78125 0.54719,6.19695 6.15373,24.03487 0.3125,37.96875 -2.40176,5.72613 -4.2428,9.50113 -5.8125,12.75 -0.006,0.0189 -0.0222,0.0677 -0.0312,0.0937 -0.2805,0.58061 -0.65002,1.30752 -0.90625,1.84375 -0.54228,0.90344 -1.28669,1.82414 -2.28125,2.21875 -2.13552,0.84475 -6.55865,-1.9074 -6.65625,-1.96875 -3.27702,-1.9879 -6.48612,-3.56113 -8.5625,-3.78125 -7.38542,-0.77737 -7.1978,0.11946 -7.125,2.65625 0.0976,3.28663 3.1643,2.35349 13.03125,10.65625 4.63783,3.9026 6.84329,14.24 7.90625,24.125 0.1827,7.28247 0.14148,14.29801 -0.96875,18.1875 -1.35095,4.76634 -5.17096,14.93694 -8.5625,23.59375 0.0172,-0.0691 0.21875,-1.0625 0.21875,-1.0625 0,0 -7.07158,16.25927 -15.96875,15.625 0,0 7.11695,3.3172 9.25,7.625 -0.68374,3.91993 -1.97492,8.60369 -4.53125,12.28125 -0.95801,1.39593 -1.67657,2.79229 -2.34375,4.25 L 222.21875,492 c 1.53277,-3.92305 3.03967,-7.69145 4.625,-10.8125 4.50994,-8.90172 14.11227,-34.85104 17.65625,-43.8125 3.54934,-8.97476 3.70784,-39.69942 5.65625,-53.90625 1.94458,-14.21623 4.43069,-22.23463 6.03125,-31.34375 1.60056,-9.10914 2.77624,-55.13457 -5.5,-77.25 -8.26351,-22.1054 -18.34375,-32.0625 -18.34375,-32.0625 0,0 -31.07785,-46.24114 -45.8125,-59.59375 -14.74418,-13.34416 -65.4787,-43.64234 -99.0625,-38.875 0,0 -11.422004,-2.24873 -23.40625,-2.34375 -0.680923,-0.005 -1.349346,-0.0101 -2.03125,0 z m 2.59375,27.28125 c -0.662636,0.0184 -1.311818,0.0765 -1.9375,0.15625 -10.006466,1.27544 -23.244162,8.26513 -26.53125,14.96875 -3.295986,6.70299 2.012831,32.85938 10.34375,35.4375 0,0 -15.204835,14.79255 -8.5625,21.21875 6.660129,6.42746 9.891793,0.70966 10.09375,-2.25 0.201959,-2.95966 -0.686249,-10.95907 5.09375,-12.53125 5.77524,-1.56796 13.3125,-7.96875 13.3125,-7.96875 0,0 -11.294668,-0.79901 -16.53125,-7.125 -5.245479,-6.32662 -1.693113,-16.9813 1.46875,-21.71875 3.152966,-4.73807 10.841894,-13.12861 17.90625,-12.625 7.046561,0.50233 20.704278,7.43663 30.65625,7.15625 9.92084,-0.28259 21.70659,-6.39105 19.21875,-11.53125 -2.48785,-5.1402 -14.44949,3.94662 -22.90625,3.34375 -7.932388,-0.56548 -21.68546,-6.80741 -31.625,-6.53125 z M 109.5,197.875 c -5.37655,0.33342 -14.656092,4.74447 -18.34375,11.28125 l -1.84375,3.25 c -6.094011,-0.071 -12.133526,0.96282 -17.125,4.3125 C 58.817833,225.68222 65,239.03125 65,239.03125 c 0,0 9.691305,-17.1856 24.0625,-20.125 C 103.43815,215.96718 118.5,224 118.5,224 c 8.79822,-4.33564 7.42475,-5.40531 -2.375,-7.09375 -3.93762,-0.68194 -9.65658,-2.30879 -15.9375,-3.40625 -0.768998,-2.36818 -1.784036,-7.28752 2.5625,-8.46875 5.77586,-1.57703 12.96665,-3.05771 10.34375,-6.21875 -0.49013,-0.59257 -1.37832,-0.88361 -2.5625,-0.9375 -0.32072,-0.0146 -0.67281,-0.0222 -1.03125,0 z M 83,248.9375 c -2.708367,0.12685 -6.574907,2.1893 -10.46875,4.53125 -7.400747,4.42614 -28.08438,37.67776 -27.34375,47.65625 0.736182,9.97817 -1.931976,28.62124 3.09375,37.90625 5.04352,9.28628 14.558582,14.94303 22.75,19.5 8.196486,4.54819 18.328384,1.30615 28.34375,0.0312 10.00554,-1.26182 0.73291,-10.86163 -6.1875,-13.34375 -6.90323,-2.47178 -7.499137,6.42278 -17.375,5.71875 C 65.945535,350.23406 54.654293,328.58082 56.40625,302.9062 58.157588,277.24067 86.625,254.4687 86.625,254.4687 c 0.265477,-3.89052 -0.982059,-5.41523 -3.09375,-5.53125 -0.16969,-0.009 -0.350692,-0.008 -0.53125,0 z m 41.375,78.84375 c -0.0972,-0.007 -0.19082,0.0156 -0.28125,0.0312 -1.8488,0.32243 -2.32121,5.35643 -0.78125,12.59375 2.14256,10.06931 2.45317,26.00215 -0.84375,32.71875 -3.29599,6.70299 -17.27925,24.52442 -34.0625,21.34375 -16.79627,-3.18617 -22.07987,-8.52454 -25.90625,-14.75 -3.825761,-6.23453 -12.212684,-7.81848 -14.03125,-2 -0.842902,2.71205 -0.181982,5.76802 1.03125,8.65625 1.273462,14.48809 6.023428,58.77337 28.6875,61.6875 26.58868,3.40986 50.1175,-3.28011 62.84375,6.75 12.72626,10.03011 -2.65625,17.28125 -2.65625,17.28125 0,0 -2.21816,10.47908 10.21875,3 0,0 2.21999,1.59435 3.59375,1.15625 0,0 0.12023,-0.0295 0.125,-0.0312 0.0123,-0.005 0.0191,-0.0258 0.0312,-0.0312 0.4073,-0.1433 10.73318,-3.73014 16.53125,-3.40625 5.90471,0.33427 16.40625,5.5625 16.40625,5.5625 0,0 -3.83361,-9.33311 -14.1875,-10.5 -5.76259,-0.65474 -12.37622,-0.0125 -17.15625,0.71875 0.19798,-5.55982 -0.5711,-12.76503 -4.59375,-15.4375 -6.41455,-4.26152 -15.85208,-7.96308 -20.09375,-11.3125 -4.2423,-3.34035 -35.067886,0.97678 -43.125,-1.09375 -16.88188,-4.35543 -14.664,-19.45716 -20.5625,-31.28125 -1.039828,-2.08443 -1.923973,-4.53222 -2.625,-7.15625 0.288123,0.12583 0.52817,0.23893 0.84375,0.375 8.258635,3.57192 24.905023,8.71023 39.34375,4.78125 14.43872,-3.92898 28.62169,-24.76952 29.09375,-31.6875 0.47144,-6.9089 4.77905,-28.40209 9.6875,-37.96875 0,0 -11.16859,-2.79537 -15.0625,-8.03125 -0.95834,-1.2874 -1.78862,-1.91903 -2.46875,-1.96875 z"
       style="opacity:0.9;fill:#ffdca9;fill-opacity:1" />
  </g>
  <rect
     id="rect892-2-7-8"
     style="opacity:0.15891;fill:none;stroke:#000000;stroke-width:4.84187794"
     transform="scale(1,-1)"
     ry="28.960831"
     height="114.22312"
     width="114.22312"
     y="-121.11156"
     x="6.8884392" />
  <rect
     id="rect892-2-7-1"
     style="opacity:0.15891;fill:none;stroke:#000000;stroke-width:7.7470603"
     transform="scale(1,-1)"
     ry="28.961039"
     height="114.22394"
     width="114.22394"
     y="-121.11197"
     x="6.888031" />
  <rect
     id="rect892-2-7-2-9"
     ry="27.872265"
     style="fill:none;stroke:#000000;stroke-width:1.05547321"
     transform="scale(1,-1)"
     height="114.13353"
     width="114.13353"
     y="-121.06676"
     x="6.9332352" />
  <path
     id="path1187"
     style="fill:#ffffff;fill-opacity:0.05714303"
     d="M 32.930758,6.923328 C 6.8392893,6.7954853 7.2631041,18.673737 6.9240184,35.391528 l 0,32.76 c 18.6699996,-38.321 38.3399996,-51.497 90.3739996,-61.179 -0.225,-0.026 -0.46,-0.0303 -0.691,-0.0303 -41.576,0.3874 -25.652,-0.0188 -63.676,-0.0188 z"
     inkscape:connector-curvature="0"
     sodipodi:nodetypes="ccccccc" />
</svg>
