<?xml version="1.0" encoding="UTF-8" standalone="no"?>
<!-- Created with Inkscape (http://www.inkscape.org/) -->

<svg
   xmlns:dc="http://purl.org/dc/elements/1.1/"
   xmlns:cc="http://creativecommons.org/ns#"
   xmlns:rdf="http://www.w3.org/1999/02/22-rdf-syntax-ns#"
   xmlns:svg="http://www.w3.org/2000/svg"
   xmlns="http://www.w3.org/2000/svg"
   xmlns:sodipodi="http://sodipodi.sourceforge.net/DTD/sodipodi-0.dtd"
   xmlns:inkscape="http://www.inkscape.org/namespaces/inkscape"
   id="svg3449"
   height="128"
   width="128"
   version="1.0"
   inkscape:version="0.48.4 r9939"
   sodipodi:docname="kfontview.svg">
  <sodipodi:namedview
     pagecolor="#ffffff"
     bordercolor="#666666"
     borderopacity="1"
     objecttolerance="10"
     gridtolerance="10"
     guidetolerance="10"
     inkscape:pageopacity="0"
     inkscape:pageshadow="2"
     inkscape:window-width="1360"
     inkscape:window-height="707"
     id="namedview44"
     showgrid="false"
     inkscape:zoom="2.6074563"
     inkscape:cx="-26.960841"
     inkscape:cy="70.557255"
     inkscape:window-x="-2"
     inkscape:window-y="33"
     inkscape:window-maximized="1"
     inkscape:current-layer="svg3449" />
  <metadata
     id="metadata56">
    <rdf:RDF>
      <cc:Work
         rdf:about="">
        <dc:format>image/svg+xml</dc:format>
        <dc:type
           rdf:resource="http://purl.org/dc/dcmitype/StillImage" />
        <dc:title></dc:title>
      </cc:Work>
    </rdf:RDF>
  </metadata>
  <defs
     id="defs3451">
    <linearGradient
       id="linearGradient3514"
       y2="-9.1034"
       gradientUnits="userSpaceOnUse"
       x2="66.492"
       gradientTransform="matrix(.96826 0 0 .97948 2.179 .16587)"
       y1="-42.638"
       x1="67.952">
      <stop
         id="stop4620"
         style="stop-color:#37414b"
         offset="0" />
      <stop
         id="stop4622"
         style="stop-color:#37414b;stop-opacity:0"
         offset="1" />
    </linearGradient>
    <linearGradient
       id="linearGradient3516"
       y2="-11.847"
       gradientUnits="userSpaceOnUse"
       x2="58.98"
       gradientTransform="matrix(.96826 0 0 .97948 2.179 .16587)"
       y1="-118.55"
       x1="57.173">
      <stop
         id="stop4596"
         offset="0" />
      <stop
         id="stop4598"
         style="stop-opacity:0"
         offset="1" />
    </linearGradient>
    <linearGradient
       id="linearGradient3519"
       y2="50.369"
       gradientUnits="userSpaceOnUse"
       x2="76.558"
       gradientTransform="matrix(.96826 0 0 .97948 3.2423 -129.19)"
       y1="13.164"
       x1="76.558">
      <stop
         id="stop3392"
         style="stop-color:#425e7b"
         offset="0" />
      <stop
         id="stop3394"
         style="stop-color:#7a91a7"
         offset="1" />
    </linearGradient>
    <linearGradient
       id="linearGradient3521"
       y2="-8.7399"
       gradientUnits="userSpaceOnUse"
       x2="60.217"
       gradientTransform="matrix(.96826 0 0 .97948 2.179 .16587)"
       y1="-123.72"
       x1="60.395">
      <stop
         id="stop3392-4-8"
         style="stop-color:#425e7b"
         offset="0" />
      <stop
         id="stop3394-8-0"
         style="stop-color:#7a91a7"
         offset="1" />
    </linearGradient>
    <radialGradient
       id="radialGradient3349"
       gradientUnits="userSpaceOnUse"
       cy="45.647"
       cx="42.148"
       gradientTransform="matrix(.94690 0 0 1.139 3.5954 -29.89)"
       r="58.984">
      <stop
         id="stop44117"
         style="stop-color:#fff"
         offset="0" />
      <stop
         id="stop44119"
         style="stop-color:#c6c6c6"
         offset="1" />
    </radialGradient>
    <linearGradient
       id="linearGradient11406"
       y2="19.812"
       gradientUnits="userSpaceOnUse"
       x2="15.25"
       gradientTransform="matrix(2.6667 0 0 4.341 -1.4969e-7 -5.0231)"
       y1="8.4375"
       x1="12.938">
      <stop
         id="stop6594-0-2"
         style="stop-color:#fff;stop-opacity:.27451"
         offset="0" />
      <stop
         id="stop6596-2-5"
         style="stop-color:#fff;stop-opacity:0"
         offset="1" />
    </linearGradient>
    <filter
       id="filter3174"
       color-interpolation-filters="sRGB">
      <feGaussianBlur
         id="feGaussianBlur3176"
         stdDeviation="1.71" />
    </filter>
    <linearGradient
       id="ButtonShadow-4"
       x1="45.448"
       gradientUnits="userSpaceOnUse"
       y1="92.54"
       gradientTransform="scale(1.0059 .99417)"
       x2="45.448"
       y2="7.0165">
      <stop
         id="stop3750-7"
         offset="0" />
      <stop
         id="stop3752-9"
         style="stop-opacity:.58824"
         offset="1" />
    </linearGradient>
    <filter
       id="filter3174-7"
       color-interpolation-filters="sRGB">
      <feGaussianBlur
         id="feGaussianBlur3176-1"
         stdDeviation="1.71" />
    </filter>
  </defs>
  <rect
     id="rect892"
     style="stroke:url(#linearGradient3521);stroke-width:.97385;fill:url(#linearGradient3519)"
     transform="scale(1,-1)"
     ry="29.296"
     height="115.54"
     width="114.22"
     y="-122.25"
     x="7.0394" />
  <rect
     id="rect892-2"
     style="stroke:url(#linearGradient3516);stroke-width:.97385;fill:url(#linearGradient3514)"
     transform="scale(1,-1)"
     ry="28.993"
     height="114.35"
     width="114.22"
     y="-121.46"
     x="7.0599" />
  <path
     id="rect895"
     style="fill:url(#radialGradient3349)"
     d="m33.051 7.2596c-7.969-2.4493-27.013 15.174-25.653 23.038-0.050142 0.97378-0.088772 1.9648-0.088772 2.9572v52.419c0 20.876 10.712 33.859 22.318 33.859h67.038c12.638 0 24.318-11.245 24.318-25.859v-64.017c0.7-10.928-21.283-24.659-25.926-22.618-47.846 0.8653-18.017 0.2236-62.003 0.2236z" />
  <path
     id="rect6588"
     d="m7.2651 40.702c-3.6107-28.823 22.731-33.361 32.668-33.437l55.816 0.735c21.091 2.903 26.611 16.187 24.251 34.728l-112 30.388z"
     style="fill:url(#linearGradient11406)" />
  <g
     id="g3052">
    <path
       inkscape:connector-curvature="0"
       style="color:#000000;fill:#83ecb8;fill-opacity:1;fill-rule:nonzero;stroke:none;stroke-width:30;marker:none;visibility:visible;display:inline;overflow:visible;enable-background:accumulate"
       d="m 31.469056,8.0637357 c -0.307555,0 -0.614138,0.014041 -0.918749,0.025644 -0.05218,0.00216 -0.104769,-0.00279 -0.156858,0 -0.05263,0.00241 -0.104326,0.00584 -0.156861,0.00851 -0.1934,0.011297 -0.390513,0.026139 -0.582621,0.042769 C 19.797597,8.9944089 11.678639,16.75437 8.9484992,27.22579 l 27.2188758,0 0,-19.162122 -4.698319,0 z"
       id="rect3152" />
    <path
       inkscape:connector-curvature="0"
       style="color:#000000;fill:#fbb64a;fill-opacity:1;fill-rule:nonzero;stroke:none;stroke-width:30;marker:none;visibility:visible;display:inline;overflow:visible;enable-background:accumulate"
       d="m 92.577078,8.0637357 0,19.1621213 27.218882,0 C 117.06582,16.754437 108.94686,8.9944754 99.090487,8.1407266 c -0.192108,-0.016643 -0.389223,-0.031407 -0.582622,-0.042769 -0.0074,-2.73e-4 -0.01492,2.741e-4 -0.02241,0 -0.04466,-0.00241 -0.08973,-0.00622 -0.134451,-0.00851 -0.05189,-0.00216 -0.104885,0.0019 -0.156859,0 -0.304624,-0.011679 -0.611207,-0.025644 -0.918761,-0.025644 l -4.698319,0 z"
       id="rect3922" />
    <rect
       style="color:#000000;fill:#50bbb6;fill-opacity:1;fill-rule:nonzero;stroke:none;stroke-width:30;marker:none;visibility:visible;display:inline;overflow:visible;enable-background:accumulate"
       id="rect3924"
       width="28.204851"
       height="19.162121"
       x="36.167377"
       y="8.063736"
       ry="0" />
    <rect
       ry="0"
       y="8.063736"
       x="64.372223"
       height="19.162121"
       width="28.204851"
       id="rect3926"
       style="color:#000000;fill:#ed4255;fill-opacity:1;fill-rule:nonzero;stroke:none;stroke-width:30;marker:none;visibility:visible;display:inline;overflow:visible;enable-background:accumulate" />
  </g>
  <rect
     id="rect892-2-7-8"
     style="opacity:.15891;stroke:#000;stroke-width:4.8445;fill:none"
     transform="scale(1,-1)"
     ry="28.993"
     height="114.35"
     width="114.22"
     y="-121.16"
     x="6.8687" />
  <rect
     id="rect892-2-7-1"
     style="opacity:.15891;stroke:#000;stroke-width:7.7512;fill:none"
     transform="scale(1,-1)"
     ry="28.993"
     height="114.35"
     width="114.22"
     y="-121.16"
     x="6.8687" />
  <rect
     id="rect892-2-7-2-9"
     ry="28.067"
     style="stroke:#000;stroke-width:1.0489;fill:none"
     transform="scale(1,-1)"
     height="112.71"
     width="114.14"
     y="-120.31"
     x="7.0649" />
  <path
     id="path1187"
     style="fill:#fff;fill-opacity:.057143"
     d="m33.017 7.2319c-23.707 0-26.027 0.6738-25.93 26.295-0.04334 0.71563-0.07674 1.4439-0.07674 2.1732v32.76c18.67-38.321 38.34-51.497 90.374-61.179-0.225-0.026-0.46-0.0303-0.691-0.0303-41.576 0.3874-25.652-0.0188-63.676-0.0188z" />
  <g
     id="layer2"
     style="display:none"
     transform="matrix(1.2166 0 0 1.2299 5.6049 3.1187)">
    <rect
       id="rect3745"
       style="opacity:.9;filter:url(#filter3174);fill:url(#ButtonShadow-4)"
       rx="6"
       ry="6"
       height="85"
       width="86"
       y="7"
       x="5" />
  </g>
  <g
     id="layer2-6"
     style="display:none"
     transform="matrix(1.2166 0 0 1.2299 5.6049 3.1187)">
    <rect
       id="rect3745-8"
       style="opacity:.9;filter:url(#filter3174-7);fill:url(#ButtonShadow-4)"
       rx="6"
       ry="6"
       height="85"
       width="86"
       y="7"
       x="5" />
  </g>
  <g
     transform="matrix(0.21563342,0,0,0.21563342,8.7978446,10.503919)"
     id="g8296">
    <path
       style="fill:#ee4055;fill-opacity:1"
       d="m 256.56076,158.21559 c -42.48263,0.11811 -85.03052,-0.012 -127.47042,0.47554 -13.12769,2.83589 -23.30598,11.38774 -22.97688,31.31763 0.30403,32.15534 -1.04712,71.25989 1.3219,103.18073 6.39858,74.27007 78.1587,133.74903 151.84076,130.58594 71.55567,-0.14612 139.68411,-59.08316 145.47215,-131.23883 2.06907,-37.36345 1.00426,-74.83422 0.76577,-112.20766 -2.6582,-18.24362 -22.53544,-24.07574 -38.38647,-21.73462 -36.8547,-0.30925 -73.71093,-0.39518 -110.56681,-0.37873 z m -69.84431,76.22321 c 7.88756,0.0858 9.41474,2.49848 37.77566,28.96461 11.65826,10.61291 19.88079,20.37532 31.86839,30.46686 19.458,-17.62063 39.45379,-38.81407 59.23053,-55.98544 12.59644,-9.02687 31.56331,0.94261 31.76489,16.62061 0.49655,11.78112 -12.70959,20.17113 -28.20713,35.94031 -17.30744,16.37793 -33.68969,32.23609 -51.77991,48.20081 -14.66447,10.84145 -28.395,-4.75841 -38.25319,-14.41153 -20.01211,-18.85657 -40.2034,-37.63531 -59.4293,-57.25393 -8.19664,-9.09432 -6.06435,-31.2314 17.03006,-32.5423 z"
       id="path4114"
       inkscape:connector-curvature="0"
       sodipodi:nodetypes="ccccccccccccccccccc" />
  </g>
</svg>
