<?xml version="1.0" encoding="UTF-8" standalone="no"?>
<!-- Created with Inkscape (http://www.inkscape.org/) -->
<svg id="svg3449" xmlns:rdf="http://www.w3.org/1999/02/22-rdf-syntax-ns#" xmlns="http://www.w3.org/2000/svg" height="128" width="128" version="1.0" xmlns:cc="http://creativecommons.org/ns#" xmlns:xlink="http://www.w3.org/1999/xlink" xmlns:dc="http://purl.org/dc/elements/1.1/">
 <metadata id="metadata56">
  <rdf:RDF>
   <cc:Work rdf:about="">
    <dc:format>image/svg+xml</dc:format>
    <dc:type rdf:resource="http://purl.org/dc/dcmitype/StillImage"/>
    <dc:title/>
   </cc:Work>
  </rdf:RDF>
 </metadata>
 <defs id="defs3451">
  <linearGradient id="linearGradient3514" y2="-9.1034" gradientUnits="userSpaceOnUse" x2="66.492" gradientTransform="matrix(.96826 0 0 .97948 2.179 .16587)" y1="-42.638" x1="67.952">
   <stop id="stop4620" style="stop-color:#37414b" offset="0"/>
   <stop id="stop4622" style="stop-color:#37414b;stop-opacity:0" offset="1"/>
  </linearGradient>
  <linearGradient id="linearGradient3516" y2="-11.847" gradientUnits="userSpaceOnUse" x2="58.98" gradientTransform="matrix(.96826 0 0 .97948 2.179 .16587)" y1="-118.55" x1="57.173">
   <stop id="stop4596" offset="0"/>
   <stop id="stop4598" style="stop-opacity:0" offset="1"/>
  </linearGradient>
  <linearGradient id="linearGradient3519" y2="50.369" gradientUnits="userSpaceOnUse" x2="76.558" gradientTransform="matrix(.96826 0 0 .97948 3.2423 -129.19)" y1="13.164" x1="76.558">
   <stop id="stop3392" style="stop-color:#425e7b" offset="0"/>
   <stop id="stop3394" style="stop-color:#7a91a7" offset="1"/>
  </linearGradient>
  <linearGradient id="linearGradient3521" y2="-8.7399" gradientUnits="userSpaceOnUse" x2="60.217" gradientTransform="matrix(.96826 0 0 .97948 2.179 .16587)" y1="-123.72" x1="60.395">
   <stop id="stop3392-4-8" style="stop-color:#425e7b" offset="0"/>
   <stop id="stop3394-8-0" style="stop-color:#7a91a7" offset="1"/>
  </linearGradient>
  <radialGradient id="radialGradient3349" gradientUnits="userSpaceOnUse" cy="45.647" cx="42.148" gradientTransform="matrix(.94690 0 0 1.139 3.5954 -29.89)" r="58.984">
   <stop id="stop2699-5" style="stop-color:#9cbbd9" offset="0"/>
   <stop id="stop2701-7" style="stop-color:#5c82ab" offset="1"/>
  </radialGradient>
  <linearGradient id="linearGradient5011" y2="40" gradientUnits="userSpaceOnUse" x2="32" gradientTransform="matrix(2.1461 0 0 1.0157 -23.235 -3.5596)" y1="2" x1="14">
   <stop id="stop3210" style="stop-color:#fff" offset="0"/>
   <stop id="stop3212" style="stop-color:#fff;stop-opacity:0" offset="1"/>
  </linearGradient>
  <linearGradient id="linearGradient4431" y2="33.658" gradientUnits="userSpaceOnUse" x2="-32.012" gradientTransform="matrix(1.6405e-7 -.71177 .77332 3.5231e-7 -2.0282 21.191)" y1="33.658" x1="24.118">
   <stop id="stop3777" style="stop-color:#fff" offset="0"/>
   <stop id="stop3779" style="stop-color:#fff;stop-opacity:0" offset="1"/>
  </linearGradient>
  <linearGradient id="linearGradient5466-8" y2="49.956" gradientUnits="userSpaceOnUse" x2="18.601" gradientTransform="matrix(1 0 0 .89491 221.93 418.09)" y1=".85446" x1="18.601">
   <stop id="stop3602-2" style="stop-color:#f4f4f4" offset="0"/>
   <stop id="stop3604-5" style="stop-color:#dbdbdb" offset="1"/>
  </linearGradient>
  <linearGradient id="linearGradient5468-1" y2="2.1039" gradientUnits="userSpaceOnUse" x2="-74.785" gradientTransform="matrix(.80750 0 0 .83750 281.34 417.09)" y1="54.703" x1="-74.785">
   <stop id="stop3106-2" style="stop-color:#aaa" offset="0"/>
   <stop id="stop3108-2" style="stop-color:#c8c8c8" offset="1"/>
  </linearGradient>
  <radialGradient id="radialGradient5570" gradientUnits="userSpaceOnUse" cy="41.636" cx="23.335" gradientTransform="matrix(.61872 0 0 .17676 9.5625 35.64)" r="22.627">
   <stop id="stop23421-7" offset="0"/>
   <stop id="stop23423-0" style="stop-opacity:0" offset="1"/>
  </radialGradient>
 </defs>
 <rect id="rect892" style="stroke:url(#linearGradient3521);stroke-width:.97385;fill:url(#linearGradient3519)" transform="scale(1,-1)" ry="29.296" height="115.54" width="114.22" y="-122.25" x="7.0394"/>
 <rect id="rect892-2" style="stroke:url(#linearGradient3516);stroke-width:.97385;fill:url(#linearGradient3514)" transform="scale(1,-1)" ry="28.993" height="114.35" width="114.22" y="-121.46" x="7.0599"/>
 <path id="rect895" style="fill:url(#radialGradient3349)" d="m33.051 7.2596c-7.969-2.4493-27.013 15.174-25.653 23.038-0.050142 0.97378-0.088772 1.9648-0.088772 2.9572v52.419c0 20.876 10.712 33.859 22.318 33.859h67.038c12.638 0 24.318-11.245 24.318-25.859v-64.017c0.7-10.928-21.283-24.659-25.926-22.618-47.846 0.8653-18.017 0.2236-62.003 0.2236z"/>
 <rect id="rect892-2-7-8" style="opacity:.15891;stroke:#000;stroke-width:4.8445;fill:none" transform="scale(1,-1)" ry="28.993" height="114.35" width="114.22" y="-121.16" x="6.8687"/>
 <rect id="rect892-2-7-1" style="opacity:.15891;stroke:#000;stroke-width:7.7512;fill:none" transform="scale(1,-1)" ry="28.993" height="114.35" width="114.22" y="-121.16" x="6.8687"/>
 <rect id="rect892-2-7-2-9" ry="28.067" style="stroke:#000;stroke-width:1.0489;fill:none" transform="scale(1,-1)" height="112.71" width="114.14" y="-120.31" x="7.0649"/>
 <path id="path1187" style="fill:#fff;fill-opacity:.057143" d="m33.736 7.2319c-24.363 0-26.747 1.0684-26.648 41.695-0.04454 1.1348-0.078864 2.2896-0.078864 3.446v51.947c19.188-60.764 39.403-81.658 92.877-97.01-0.231-0.0414-0.473-0.0483-0.71-0.0483-42.727 0.6143-26.362-0.0298-65.44-0.0298z"/>
 <g id="layer1-8" transform="matrix(2.9298 0 0 2.9298 -6.3149 -2948.9)">
  <g id="layer1-5" transform="matrix(.8 0 0 .8 5.1214 1009)">
   <path id="path23417-6" style="opacity:.3;fill-rule:evenodd;fill:url(#radialGradient5570)" d="m38 43c0.00063 2.2091-6.2675 4-14 4s-14.001-1.7909-14-4c-0.00063-2.2091 6.2675-4 14-4s14.001 1.7909 14 4z"/>
   <path id="path4487" style="stroke-linejoin:round;stroke-width:1.0209;color:#000000;stroke:url(#linearGradient5468-1);fill:url(#linearGradient5466-8)" transform="matrix(1.0037 0 0 .95581 -205.41 -397.34)" d="m228.53 419.38c-2.7061 0.0642-5.7541 0.22949-8.3125 2a0.9585 0.9585 0 0 0 -0.1875 0.15625c-2.6578 3.1027-2.1752 7.2183-2.5938 10.375a0.9585 0.9585 0 0 0 -0.0312 0.0625c-0.48068 8.0898-0.4541 16.293 0.78125 24.375a0.9585 0.9585 0 0 0 0 0.0312c0.40182 2.1398 1.7341 4.4111 4.1875 5 0.0239 0.006 0.0384 0.0258 0.0625 0.0312v-0.0312c3.7225 1.1412 7.7422 1.1416 11.469 0.28125 1.9301-0.44625 3.9299-1.6419 4.625-3.8125 0.003-0.009-0.003-0.0219 0-0.0312 0.90722-2.5933 0.88965-5.2629 1.1562-7.6875a0.9585 0.9585 0 0 0 0.0312 -0.0312c0.49677-7.7775 0.46278-15.629-0.53125-23.406-0.13762-1.1029-0.36084-2.3168-0.90625-3.4375-0.5395-1.1085-1.4219-2.1112-2.7188-2.6562-0.006-0.002 0.006-0.0288 0-0.0312-0.009-0.004-0.0218 0.004-0.0312 0-2.2674-1.0178-4.7443-1.1003-6.9375-1.1875a0.9585 0.9585 0 0 0 -0.0625 0z"/>
   <path id="rect1320-6-9-3" style="stroke-linejoin:round;stroke:url(#linearGradient4431);stroke-linecap:round;fill:none" d="m24.001 4.5c-2.6811 0.0605-5.5483 0.24154-7.8256 1.7406-2.3345 2.5923-1.9365 6.2128-2.3775 9.377-0.47838 7.6584-0.48031 15.395 0.74047 22.993 0.3576 1.8114 1.5453 3.6516 3.5524 4.08 3.5472 1.0467 7.4134 1.0274 11.016 0.23635 1.7188-0.37802 3.3832-1.3624 3.9376-3.0428 0.84594-2.2819 0.85972-4.7478 1.1351-7.1302 0.49411-7.3585 0.48228-14.782-0.50155-22.103-0.26047-1.9856-0.95856-4.2722-3.095-5.1036-2.0434-0.88004-4.3759-0.96313-6.5818-1.0466z"/>
   <path id="path3576" style="opacity:.2" d="m23.75 33c-0.1385 0-0.25 0.1115-0.25 0.25v0.5625c-0.25135 0.0572-0.48371 0.1554-0.69531 0.28906l-0.39844-0.39844c-0.0979-0.0979-0.25363-0.0979-0.35156 0l-0.35156 0.35157c-0.0979 0.0979-0.0979 0.25362 0 0.35156l0.39843 0.39844c-0.13365 0.21159-0.23182 0.44396-0.28906 0.69531h-0.5625c-0.1385 0-0.25 0.1115-0.25 0.25v0.5c0 0.1385 0.1115 0.25 0.25 0.25h0.5625c0.0572 0.25135 0.15541 0.48372 0.28906 0.69531l-0.39843 0.39844c-0.0979 0.0979-0.0979 0.25363 0 0.35156l0.35156 0.35156c0.0979 0.0979 0.25363 0.0979 0.35156 0l0.39844-0.39843c0.2116 0.13365 0.44396 0.23182 0.69531 0.28906v0.5625c0 0.1385 0.1115 0.25 0.25 0.25h0.5c0.1385 0 0.25-0.1115 0.25-0.25v-0.5625c0.25135-0.0572 0.48372-0.1554 0.69531-0.28906l0.39844 0.39843c0.0979 0.0979 0.25363 0.0979 0.35156 0l0.35157-0.35156c0.0979-0.0979 0.0979-0.25362 0-0.35156l-0.39844-0.39844c0.13366-0.21159 0.23182-0.44396 0.28906-0.69531h0.5625c0.1385 0 0.25-0.1115 0.25-0.25v-0.5c0-0.1385-0.1115-0.25-0.25-0.25h-0.5625c-0.0572-0.25135-0.1554-0.48372-0.28906-0.69531l0.39844-0.39844c0.0979-0.0979 0.0979-0.25363 0-0.35156l-0.35157-0.35157c-0.0979-0.0979-0.25362-0.0979-0.35156 0l-0.39844 0.39844c-0.211-0.133-0.444-0.231-0.695-0.288v-0.5625c0-0.1385-0.1115-0.25-0.25-0.25h-0.5zm0.25 2c0.552 0 1 0.448 1 1s-0.448 1-1 1-1-0.448-1-1 0.448-1 1-1z"/>
   <path id="rect3238" style="opacity:.4;fill:url(#linearGradient5011)" d="m24 4.5c-2.6811 0.0605-5.5352 0.25092-7.8125 1.75-2.3345 2.5923-1.934 6.2108-2.375 9.375-0.34234 5.4806-0.45041 10.988-0.03125 16.469l20-20.688c-0.031-0.25-0.06-0.5-0.093-0.75-0.261-1.9854-0.958-4.2934-3.094-5.1247-2.044-0.8801-4.388-0.9479-6.594-1.0313z"/>
   <path id="path3576-2" style="opacity:.3;fill:#fff" d="m23.75 34c-0.1385 0-0.25 0.1115-0.25 0.25v0.5625c-0.25135 0.0572-0.48371 0.1554-0.69531 0.28906l-0.39844-0.39844c-0.0979-0.0979-0.25363-0.0979-0.35156 0l-0.35156 0.35157c-0.0979 0.0979-0.0979 0.25362 0 0.35156l0.39843 0.39844c-0.13365 0.21159-0.23182 0.44396-0.28906 0.69531h-0.5625c-0.1385 0-0.25 0.1115-0.25 0.25v0.5c0 0.1385 0.1115 0.25 0.25 0.25h0.5625c0.0572 0.25135 0.15541 0.48372 0.28906 0.69531l-0.39843 0.39844c-0.0979 0.0979-0.0979 0.25363 0 0.35156l0.35156 0.35156c0.0979 0.0979 0.25363 0.0979 0.35156 0l0.39844-0.39843c0.2116 0.13365 0.44396 0.23182 0.69531 0.28906v0.5625c0 0.1385 0.1115 0.25 0.25 0.25h0.5c0.1385 0 0.25-0.1115 0.25-0.25v-0.5625c0.25135-0.0572 0.48372-0.1554 0.69531-0.28906l0.39844 0.39843c0.0979 0.0979 0.25363 0.0979 0.35156 0l0.35157-0.35156c0.0979-0.0979 0.0979-0.25362 0-0.35156l-0.39844-0.39844c0.13366-0.21159 0.23182-0.44396 0.28906-0.69531h0.5625c0.1385 0 0.25-0.1115 0.25-0.25v-0.5c0-0.1385-0.1115-0.25-0.25-0.25h-0.5625c-0.0572-0.25135-0.1554-0.48372-0.28906-0.69531l0.39844-0.39844c0.0979-0.0979 0.0979-0.25363 0-0.35156l-0.35157-0.35157c-0.0979-0.0979-0.25362-0.0979-0.35156 0l-0.39844 0.39844c-0.211-0.133-0.444-0.231-0.695-0.288v-0.5625c0-0.1385-0.1115-0.25-0.25-0.25h-0.5zm0.25 2c0.552 0 1 0.448 1 1s-0.448 1-1 1-1-0.448-1-1 0.448-1 1-1z"/>
  </g>
 </g>
</svg>
