<?xml version="1.0" encoding="UTF-8" standalone="no"?>
<!-- Created with Inkscape (http://www.inkscape.org/) -->
<svg id="svg3449" xmlns:rdf="http://www.w3.org/1999/02/22-rdf-syntax-ns#" xmlns="http://www.w3.org/2000/svg" height="128" width="128" version="1.0" xmlns:cc="http://creativecommons.org/ns#" xmlns:xlink="http://www.w3.org/1999/xlink" xmlns:dc="http://purl.org/dc/elements/1.1/">
 <metadata id="metadata56">
  <rdf:RDF>
   <cc:Work rdf:about="">
    <dc:format>image/svg+xml</dc:format>
    <dc:type rdf:resource="http://purl.org/dc/dcmitype/StillImage"/>
    <dc:title/>
   </cc:Work>
  </rdf:RDF>
 </metadata>
 <defs id="defs3451">
  <linearGradient id="linearGradient3514" y2="-9.1034" gradientUnits="userSpaceOnUse" x2="66.492" gradientTransform="matrix(.96826 0 0 .97948 2.179 .16587)" y1="-42.638" x1="67.952">
   <stop id="stop4620" style="stop-color:#37414b" offset="0"/>
   <stop id="stop4622" style="stop-color:#37414b;stop-opacity:0" offset="1"/>
  </linearGradient>
  <linearGradient id="linearGradient3516" y2="-11.847" gradientUnits="userSpaceOnUse" x2="58.98" gradientTransform="matrix(.96826 0 0 .97948 2.179 .16587)" y1="-118.55" x1="57.173">
   <stop id="stop4596" offset="0"/>
   <stop id="stop4598" style="stop-opacity:0" offset="1"/>
  </linearGradient>
  <linearGradient id="linearGradient3519" y2="50.369" gradientUnits="userSpaceOnUse" x2="76.558" gradientTransform="matrix(.96826 0 0 .97948 3.2423 -129.19)" y1="13.164" x1="76.558">
   <stop id="stop3392" style="stop-color:#425e7b" offset="0"/>
   <stop id="stop3394" style="stop-color:#7a91a7" offset="1"/>
  </linearGradient>
  <linearGradient id="linearGradient3521" y2="-8.7399" gradientUnits="userSpaceOnUse" x2="60.217" gradientTransform="matrix(.96826 0 0 .97948 2.179 .16587)" y1="-123.72" x1="60.395">
   <stop id="stop3392-4-8" style="stop-color:#425e7b" offset="0"/>
   <stop id="stop3394-8-0" style="stop-color:#7a91a7" offset="1"/>
  </linearGradient>
  <radialGradient id="radialGradient3349" gradientUnits="userSpaceOnUse" cy="45.647" cx="42.148" gradientTransform="matrix(.94690 0 0 1.139 3.5954 -29.89)" r="58.984">
   <stop id="stop2699-5" style="stop-color:#86b3e0" offset="0"/>
   <stop id="stop2701-7" style="stop-color:#649ad6" offset="1"/>
  </radialGradient>
  <linearGradient id="linearGradient3370" y2="5.2502" gradientUnits="userSpaceOnUse" x2="19.875" gradientTransform="matrix(2.9298 0 0 2.955 -4.547 -2.0288)" y1="44.52" x1="19.875">
   <stop id="stop3776" style="stop-color:#365a7c" offset="0"/>
   <stop id="stop3778" style="stop-color:#5ea1ca" offset="1"/>
  </linearGradient>
  <linearGradient id="linearGradient3126" y2="18.771" xlink:href="#linearGradient4661-1" gradientUnits="userSpaceOnUse" y1="13.259" gradientTransform="translate(44.731 1002.8)" x2="-17.202" x1="-17.202"/>
  <linearGradient id="linearGradient4661-1">
   <stop id="stop4663-7" offset="0"/>
   <stop id="stop4665-2" style="stop-opacity:0" offset="1"/>
  </linearGradient>
  <linearGradient id="linearGradient3128" y2="38.719" xlink:href="#linearGradient4661-1" gradientUnits="userSpaceOnUse" y1="19.331" gradientTransform="translate(44.731 1002.8)" x2="-9.187" x1="-9.187"/>
 </defs>
 <rect id="rect892" style="stroke:url(#linearGradient3521);stroke-width:.97385;fill:url(#linearGradient3519)" transform="scale(1,-1)" ry="29.296" height="115.54" width="114.22" y="-122.25" x="7.0394"/>
 <rect id="rect892-2" style="stroke:url(#linearGradient3516);stroke-width:.97385;fill:url(#linearGradient3514)" transform="scale(1,-1)" ry="28.993" height="114.35" width="114.22" y="-121.46" x="7.0599"/>
 <path id="rect895" style="fill:url(#radialGradient3349)" d="m33.051 7.2596c-7.969-2.4493-27.013 15.174-25.653 23.038-0.050142 0.97378-0.088772 1.9648-0.088772 2.9572v52.419c0 20.876 10.712 33.859 22.318 33.859h67.038c12.638 0 24.318-11.245 24.318-25.859v-64.017c0.7-10.928-21.283-24.659-25.926-22.618-47.846 0.8653-18.017 0.2236-62.003 0.2236z"/>
 <rect id="rect892-2-7-8" style="opacity:.15891;stroke:#000;stroke-width:4.8445;fill:none" transform="scale(1,-1)" ry="28.993" height="114.35" width="114.22" y="-121.16" x="6.8687"/>
 <rect id="rect892-2-7-1" style="opacity:.15891;stroke:#000;stroke-width:7.7512;fill:none" transform="scale(1,-1)" ry="28.993" height="114.35" width="114.22" y="-121.16" x="6.8687"/>
 <rect id="rect892-2-7-2-9" ry="28.067" style="stroke:#000;stroke-width:1.0489;fill:none" transform="scale(1,-1)" height="112.71" width="114.14" y="-120.31" x="7.0649"/>
 <path id="path1187" style="fill:#fff;fill-opacity:.057143" d="m33.017 7.2319c-23.707 0-26.027 0.6738-25.93 26.295-0.04334 0.71563-0.07674 1.4439-0.07674 2.1732v32.76c18.67-38.321 38.34-51.497 90.374-61.179-0.225-0.026-0.46-0.0303-0.691-0.0303-41.576 0.3874-25.652-0.0188-63.676-0.0188z"/>
 <path id="path4596-6" style="opacity:.05;color:#000000;fill:url(#linearGradient3370)" d="m27.223 18.841a8.6447 8.719 0 0 0 -8.1484 8.6802v72.858a8.6447 8.719 0 0 0 15.29 5.5406l9.7049-11.82 14.649 33.982c0.38213-0.0787 0.78445-0.0925 1.1902-0.0925h40.834a8.6447 8.719 0 0 0 -1.3733 -4.8018l-27.833-42.57h14.283a8.6447 8.719 0 0 0 5.22 -15.608l-58.138-44.417a8.6447 8.719 0 0 0 -5.6764 -1.7545z"/>
 <g id="layer1-2" transform="matrix(2.9298 0 0 2.9298 -6.315 -2948.9)">
  <path id="path6668" style="fill:#fff" d="m27.397 1018.7c0 1.6434-1.331 2.9772-2.9709 2.9772-1.64 0-2.9709-1.3338-2.9709-2.9772s1.331-2.9772 2.9709-2.9772c1.64 0 2.9709 1.3338 2.9709 2.9772zm7.415 3.1657c-0.13741 0.022-0.26725 0.077-0.37853 0.1585l-10.148 1.5858-10.094-1.6077c-0.26092-0.1896-0.62776-0.2464-0.91931-0.1056s-0.48268 0.4745-0.4867 0.792c-0.0037 0.3176 0.19878 0.5915 0.4867 0.7393l7.9093 2.5144-0.0541 5.7721-2.7909 8.6448c-0.2688 0.3937-0.18687 0.8992 0.21631 1.1617 0.4032 0.2624 0.97497 0.1825 1.2438-0.2112l4.5039-9.3313 4.4189 9.3151c0.23894 0.4083 0.77158 0.5502 1.1897 0.3169 0.41813-0.2333 0.5634-0.7534 0.32447-1.1617l-2.7391-8.682-0.10814-5.4341 8.0203-2.9356c0.32405-0.2219 0.46483-0.642 0.32448-1.0033-0.14037-0.3613-0.5261-0.5718-0.91933-0.5281h0.000027z"/>
  <path id="path3124" style="opacity:.1;color:#000000;stroke:url(#linearGradient3126);fill:none" d="m24.411 1016.3c-1.7672-0.088-3.0191 2.0581-2.1162 3.566 0.75564 1.5921 3.2227 1.6964 4.1335 0.1979 1.1229-1.5427-0.12394-3.823-2.0172-3.7639z"/>
  <path id="path3083" style="opacity:.1;color:#000000;stroke:url(#linearGradient3128);fill:none" d="m13.536 1022.4c-0.52836 0.6092 0.59774 0.6618 0.98711 0.8432 2.3232 0.7485 4.6676 1.4463 6.9777 2.2264 0.46576 0.3748 0.16605 1.0547 0.24199 1.5658-0.03715 1.6204 0.004 3.25-0.08181 4.8646-0.97091 2.9891-1.9212 6.0027-2.9059 8.9761 0.45057 0.6699 0.77478-0.3182 0.95132-0.6907 1.3838-2.8535 2.7366-5.7248 4.1397-8.5672 0.32886-0.434 0.97518-0.1362 1.0582 0.3437 1.4293 3.0106 2.8586 6.0212 4.2879 9.0319 0.70514 0.4465 0.59351-0.4702 0.35571-0.8674-0.86305-2.7954-1.7701-5.581-2.6057-8.3826-0.0239-1.8566-0.12387-3.7193-0.10071-5.572 0.23005-0.5297 0.93668-0.4948 1.3885-0.7429 2.2895-0.8326 4.579-1.6651 6.8685-2.4976 0.34084-0.8315-0.56572-0.287-0.97178-0.2808-3.3053 0.4933-6.6069 1.0467-9.9144 1.5025-3.4236-0.5529-6.8592-1.0576-10.275-1.6411-0.12685-0.06-0.2479-0.1797-0.40103-0.1119z"/>
 </g>
</svg>
