<?xml version="1.0" encoding="UTF-8" standalone="no"?>
<!-- Created with Inkscape (http://www.inkscape.org/) -->
<svg id="svg3449" xmlns:rdf="http://www.w3.org/1999/02/22-rdf-syntax-ns#" xmlns="http://www.w3.org/2000/svg" height="128" width="128" version="1.0" xmlns:cc="http://creativecommons.org/ns#" xmlns:xlink="http://www.w3.org/1999/xlink" xmlns:dc="http://purl.org/dc/elements/1.1/">
 <metadata id="metadata56">
  <rdf:RDF>
   <cc:Work rdf:about="">
    <dc:format>image/svg+xml</dc:format>
    <dc:type rdf:resource="http://purl.org/dc/dcmitype/StillImage"/>
    <dc:title/>
   </cc:Work>
  </rdf:RDF>
 </metadata>
 <defs id="defs3451">
  <linearGradient id="linearGradient3514" y2="-9.1034" gradientUnits="userSpaceOnUse" x2="66.492" gradientTransform="matrix(.96826 0 0 .97948 2.179 .16587)" y1="-42.638" x1="67.952">
   <stop id="stop4620" style="stop-color:#37414b" offset="0"/>
   <stop id="stop4622" style="stop-color:#37414b;stop-opacity:0" offset="1"/>
  </linearGradient>
  <linearGradient id="linearGradient3516" y2="-11.847" gradientUnits="userSpaceOnUse" x2="58.98" gradientTransform="matrix(.96826 0 0 .97948 2.179 .16587)" y1="-118.55" x1="57.173">
   <stop id="stop4596" offset="0"/>
   <stop id="stop4598" style="stop-opacity:0" offset="1"/>
  </linearGradient>
  <linearGradient id="linearGradient3519" y2="50.369" gradientUnits="userSpaceOnUse" x2="76.558" gradientTransform="matrix(.96826 0 0 .97948 3.2423 -129.19)" y1="13.164" x1="76.558">
   <stop id="stop3392" style="stop-color:#425e7b" offset="0"/>
   <stop id="stop3394" style="stop-color:#7a91a7" offset="1"/>
  </linearGradient>
  <linearGradient id="linearGradient3521" y2="-8.7399" gradientUnits="userSpaceOnUse" x2="60.217" gradientTransform="matrix(.96826 0 0 .97948 2.179 .16587)" y1="-123.72" x1="60.395">
   <stop id="stop3392-4-8" style="stop-color:#425e7b" offset="0"/>
   <stop id="stop3394-8-0" style="stop-color:#7a91a7" offset="1"/>
  </linearGradient>
  <radialGradient id="radialGradient3349" gradientUnits="userSpaceOnUse" cy="45.647" cx="42.148" gradientTransform="matrix(.94690 0 0 1.139 3.5954 -29.89)" r="58.984">
   <stop id="stop2699-5" style="stop-color:#9cbbd9" offset="0"/>
   <stop id="stop2701-7" style="stop-color:#5c82ab" offset="1"/>
  </radialGradient>
 </defs>
 <rect id="rect892" style="stroke:url(#linearGradient3521);stroke-width:.97385;fill:url(#linearGradient3519)" transform="scale(1,-1)" ry="29.296" height="115.54" width="114.22" y="-122.25" x="7.0394"/>
 <rect id="rect892-2" style="stroke:url(#linearGradient3516);stroke-width:.97385;fill:url(#linearGradient3514)" transform="scale(1,-1)" ry="28.993" height="114.35" width="114.22" y="-121.46" x="7.0599"/>
 <path id="rect895" style="fill:url(#radialGradient3349)" d="m33.051 7.2596c-7.969-2.4493-27.013 15.174-25.653 23.038-0.050142 0.97378-0.088772 1.9648-0.088772 2.9572v52.419c0 20.876 10.712 33.859 22.318 33.859h67.038c12.638 0 24.318-11.245 24.318-25.859v-64.017c0.7-10.928-21.283-24.659-25.926-22.618-47.846 0.8653-18.017 0.2236-62.003 0.2236z"/>
 <rect id="rect892-2-7-8" style="opacity:.15891;stroke:#000;stroke-width:4.8445;fill:none" transform="scale(1,-1)" ry="28.993" height="114.35" width="114.22" y="-121.16" x="6.8687"/>
 <rect id="rect892-2-7-1" style="opacity:.15891;stroke:#000;stroke-width:7.7512;fill:none" transform="scale(1,-1)" ry="28.993" height="114.35" width="114.22" y="-121.16" x="6.8687"/>
 <rect id="rect892-2-7-2-9" ry="28.067" style="stroke:#000;stroke-width:1.0489;fill:none" transform="scale(1,-1)" height="112.71" width="114.14" y="-120.31" x="7.0649"/>
 <path id="path1187" style="fill:#fff;fill-opacity:.057143" d="m33.017 7.2319c-23.707 0-26.027 0.6738-25.93 26.295-0.04334 0.71563-0.07674 1.4439-0.07674 2.1732v32.76c18.67-38.321 38.34-51.497 90.374-61.179-0.225-0.026-0.46-0.0303-0.691-0.0303-41.576 0.3874-25.652-0.0188-63.676-0.0188z"/>
 <path id="path3999" d="m-280.54 433.58c-23.192-3.8951-40.238-27.989-36.107-51.035 3.9693-22.142 22.244-37.211 44.911-37.032 22.495 0.17761 40.178 16.419 43.502 39.957 0.77453 5.4836-0.87101 15.763-3.5084 21.916-7.9307 18.503-28.583 29.589-48.798 26.194zm13.879-2.9179c22.713-3.5643 38.814-25.283 35.002-47.215-3.9514-22.734-25.446-38.542-47.252-34.752-22.737 3.952-38.346 25.152-34.788 47.248 2.7259 16.927 16.599 31.414 33.214 34.683 6.0071 1.1821 6.5048 1.1834 13.824 0.0349zm-11.73-8.0082c-10.795-2.158-21.079-10.115-24.817-19.203-1.3051-3.1726-2.5483-4.7475-3.7496-4.75-1.4942-0.003-1.2552-0.67808 1.4174-4.0038 1.768-2.2 3.5313-4 3.9185-4 1.3053 0 9.4738 7.9176 8.2112 7.959-2.1841 0.0717-1.3583 2.5545 2.2527 6.7731 4.8856 5.7077 10.613 8.2679 18.497 8.2679 9.6252 0 16.065-3.7725 22.051-12.917 1.4473-2.211 1.7985-2.2879 5.25-1.1488 2.0344 0.67142 3.6989 1.7728 3.6989 2.4474 0 2.2612-5.6744 10.204-9.6071 13.448-6.9688 5.7479-18.657 8.8192-27.123 7.1269zm29.73-37.917c-2.475-2.1751-3.9375-3.9738-3.25-3.9973 4.0934-0.13963-3.4921-9.7712-10.285-13.06-11.644-5.6366-24.498-1.314-32.516 10.934-1.4473 2.211-1.7985 2.2879-5.25 1.1488-2.0344-0.67141-3.6989-1.7728-3.6989-2.4474 0-2.0882 5.4931-10.014 8.9654-12.936 6.2644-5.2712 10.94-7.0116 20.035-7.4576 7.0587-0.34613 9.5122-0.0353 14.469 1.8329 7.4446 2.8058 15.399 10.411 17.993 17.203 1.3028 3.4112 2.3559 4.7393 3.7581 4.7393 1.7276 0 1.5894 0.45292-1.2199 4-1.7424 2.2-3.4678 3.9988-3.834 3.9973-0.36628-0.001-2.691-1.7823-5.166-3.9574z"/>
 <path id="path3995" d="m-127.23 413.99c-0.0273-9.6237-0.0791-9.8347-3.1372-12.785-1.7102-1.65-4.2761-5.475-5.7021-8.5-7.0361-14.926 0.32315-33.023 16.867-41.477 14.664-7.4938 33.336-7.4938 48 0 16.492 8.4279 23.803 26.411 16.861 41.477-4.6489 10.09-16.468 19.059-28.889 21.921-5.4427 1.2542-18.115 1.3469-23.183 0.16964-3.3137-0.76975-4.438-0.43631-10.5 3.114-3.7339 2.1868-7.5764 4.4013-8.5389 4.9211-1.611 0.87001-1.7522 0.16805-1.7778-8.8401zm28.028-18.762c0-3.6216-0.45832-4.7772-2.3989-6.0488-5.0751-3.3253-6.7842-14.999-3.1051-21.208 2.3632-3.9885 7.5714-6.6299 11.41-5.7867 3.8614 0.84811 8.0712 5.5174 9.159 10.159 1.4165 6.0441-0.55188 13.922-4.1417 16.576-2.4452 1.8078-2.9236 2.867-2.9236 6.4734v4.3119h8 8l-0.0318-5.25c-0.0266-4.3822-0.23619-4.9815-1.2683-3.6257-1.3147 1.727-11.7 3.6771-11.7 2.1969 0-0.47654 1.5856-1.7204 3.5236-2.764 9.1833-4.9456 10.852-17.944 3.2457-25.281-4.108-3.9625-7.5625-5.2762-13.874-5.2762-11.824 0-20.367 9.7044-17.934 20.372 0.90769 3.9792 6.0114 10.167 9.2278 11.188 0.99606 0.31614 1.811 1.0524 1.811 1.6362 0 1.7076-10.158-0.0403-11.651-2.0049-1.0998-1.4469-1.2901-0.93267-1.3173 3.5587l-0.0318 5.25h8 8z"/>
 <path id="path3991" style="fill:#f9f9f9" d="m61.105 109.89c-0.83422-0.83423-1.205-6.0249-1.205-16.87 0-16.535 0.39597-18.075 4.6478-18.075 4.7559 0 5.3937 2.0601 5.3937 17.421 0 11.286-0.32647 14.731-1.5632 16.497-1.7006 2.428-5.3562 2.944-7.2734 1.0268zm-31.737-24.222c-8.106-9.891-11.896-23.849-9.798-36.081 2.204-12.856 10.415-25.855 16.33-25.855 4.0698 0 5.9753 3.9093 3.5317 7.2456-8.7398 11.932-11.236 18.824-10.33 28.52 0.7187 7.6964 2.5764 12.288 7.7379 19.124 4.3675 5.7847 4.7728 7.4382 2.4039 9.8071-2.8107 2.8107-6.0533 1.9044-9.8753-2.7599zm59.055 1.8221c-1.5287-2.3332-1.5284-2.6792 0.005-4.7697 7.9896-10.89 10.634-17.481 10.634-26.501 0-8.3579-3.0705-15.782-10.207-24.677-1.8143-2.2615-2.0036-3.146-1.0985-5.1325 3.8252-8.3954 15.626 2.8919 19.807 18.946 3.6713 14.095 0.18237 29.628-9.0874 40.458-4.2227 4.9333-7.556 5.489-10.054 1.6761zm-44.617-13.743c-7.8716-8.6183-7.8716-25.139 0-33.757 3.2096-3.5141 6.0581-4.0598 8.4912-1.6266 2.239 2.239 1.9689 4.2469-1.1152 8.2903-1.9096 2.5036-2.8231 5.098-3.1398 8.9177-0.39079 4.7123-0.05362 6.0192 2.6931 10.438 3.5599 5.7266 3.7943 7.1321 1.5619 9.3645-2.4332 2.4332-5.2816 1.8875-8.4912-1.6266zm31.73 1.6266c-2.2654-2.2654-1.9838-3.8125 1.6263-8.9342 4.3938-6.2336 4.3695-12.504-0.07551-19.431-3.6463-5.6823-3.7457-6.3408-1.2924-8.5609 2.8548-2.5835 5.8269-2.013 8.6251 1.6557 3.9409 5.1668 5.605 10.144 5.605 16.766 0 13.021-8.7708 24.223-14.489 18.505zm-14.273-7.429c-5.561-2.3-7.17-10.381-2.915-14.636 5.339-5.34 14.686-1.653 14.899 5.876 0.175 6.174-6.478 11.037-11.984 8.76z"/>
 <path id="path3989" d="m108.55 337.95c-3.5595-1.0805-9.0899-6.8579-9.7826-10.22-0.25292-1.2274-0.73922-4.384-1.0807-7.0145-0.47387-3.6509-1.4413-5.6034-4.0879-8.25-1.9069-1.9069-4.4646-3.5144-5.6838-3.5721-1.2192-0.0578-4.9167-0.19876-8.2167-0.31335-7.1413-0.24799-11.857-2.479-14.541-6.8802-4.3111-7.0674-3.4292-13.915 2.537-19.697 3.2466-3.1468 4.0033-3.391 12.378-3.995 13.045-0.94097 16.221-3.5612 18.034-14.879 1.5285-9.5429 5.1465-13.768 12.929-15.099 5.7594-0.98497 10.724 0.73981 14.656 5.0918 3.2071 3.5499 3.5084 4.4096 3.5084 10.012 0 5.903-0.1609 6.2896-4.3684 10.497-4.3684 4.3684-4.3685 4.3684-11.75 4.37-12.993 0.003-18.395 4.586-18.362 15.578 0.0182 6.0653 0.22677 6.6334 3.718 10.125 3.5811 3.5811 3.9797 3.7162 12.528 4.2474 6.0857 0.37815 9.6838 1.1093 11.58 2.353 8.9839 5.8934 8.9174 20.592-0.11719 25.908-3.7256 2.1926-9.8515 2.96-13.876 1.7384z"/>
 <path id="path3983" d="m248.75 208.1h-13.991c-10.007 0-14.268-0.35593-14.964-1.25-0.53516-0.6875-2.2295-4.7483-3.7651-9.024-1.5357-4.2757-3.0568-7.5093-3.3804-7.1857-0.32353 0.32353-3.5975 12.097-7.2755 26.164s-7.2866 25.956-8.0191 26.42c-1.6713 1.0595-3.9585 1.0814-5.5771 0.0535-0.7395-0.4696-3.8872-15.965-7.75-38.151-3.5776-20.548-6.6886-37.544-6.9134-37.769-0.58357-0.58357-1.0443 1.1659-5.5542 21.09-2.222 9.8162-4.2909 18.254-4.5976 18.75-0.30671 0.49626-7.7311 0.9023-16.499 0.9023h-15.941c-0.26744-1.9406-0.0437-3.8074 0.19794-5.7282l12.142-0.71021c6.6781-0.39062 12.303-0.87141 12.5-1.0684 0.19701-0.19702 3.4348-13.957 7.1952-30.577 9.4973-54.903 17-19.176 21.562 7.1906 6.316 36.655 6.9434 39.894 7.727 39.894 0.21273 0 3.0034-10.15 6.2014-22.556 6.2021-24.059 7.1042-25.845 11.94-23.642 1.7004 0.77477 3.3763 4.3282 7.2407 15.353l5.0282 14.345 11.198 0.28337 11.198 0.28336"/>
</svg>
