<?xml version="1.0" encoding="UTF-8" standalone="no"?>
<!-- Created with Inkscape (http://www.inkscape.org/) -->

<svg
   xmlns:dc="http://purl.org/dc/elements/1.1/"
   xmlns:cc="http://creativecommons.org/ns#"
   xmlns:rdf="http://www.w3.org/1999/02/22-rdf-syntax-ns#"
   xmlns:svg="http://www.w3.org/2000/svg"
   xmlns="http://www.w3.org/2000/svg"
   xmlns:xlink="http://www.w3.org/1999/xlink"
   xmlns:sodipodi="http://sodipodi.sourceforge.net/DTD/sodipodi-0.dtd"
   xmlns:inkscape="http://www.inkscape.org/namespaces/inkscape"
   id="svg3449"
   height="128"
   width="128"
   version="1.0"
   inkscape:version="0.48.4 r9939"
   sodipodi:docname="corebird.svg">
  <sodipodi:namedview
     pagecolor="#ffffff"
     bordercolor="#666666"
     borderopacity="1"
     objecttolerance="10"
     gridtolerance="10"
     guidetolerance="10"
     inkscape:pageopacity="0"
     inkscape:pageshadow="2"
     inkscape:window-width="1360"
     inkscape:window-height="707"
     id="namedview48"
     showgrid="false"
     inkscape:zoom="1.84375"
     inkscape:cx="-30.252845"
     inkscape:cy="111.96496"
     inkscape:window-x="-2"
     inkscape:window-y="33"
     inkscape:window-maximized="1"
     inkscape:current-layer="svg3449" />
  <metadata
     id="metadata56">
    <rdf:RDF>
      <cc:Work
         rdf:about="">
        <dc:format>image/svg+xml</dc:format>
        <dc:type
           rdf:resource="http://purl.org/dc/dcmitype/StillImage" />
        <dc:title></dc:title>
      </cc:Work>
    </rdf:RDF>
  </metadata>
  <defs
     id="defs3451">
    <linearGradient
       id="linearGradient3514"
       y2="-9.1034"
       gradientUnits="userSpaceOnUse"
       x2="66.492"
       gradientTransform="matrix(.96826 0 0 .97948 2.179 .16587)"
       y1="-42.638"
       x1="67.952">
      <stop
         id="stop4620"
         style="stop-color:#37414b"
         offset="0" />
      <stop
         id="stop4622"
         style="stop-color:#37414b;stop-opacity:0"
         offset="1" />
    </linearGradient>
    <linearGradient
       id="linearGradient3516"
       y2="-11.847"
       gradientUnits="userSpaceOnUse"
       x2="58.98"
       gradientTransform="matrix(.96826 0 0 .97948 2.179 .16587)"
       y1="-118.55"
       x1="57.173">
      <stop
         id="stop4596"
         offset="0" />
      <stop
         id="stop4598"
         style="stop-opacity:0"
         offset="1" />
    </linearGradient>
    <linearGradient
       id="linearGradient3519"
       y2="50.369"
       gradientUnits="userSpaceOnUse"
       x2="76.558"
       gradientTransform="matrix(.96826 0 0 .97948 3.2423 -129.19)"
       y1="13.164"
       x1="76.558">
      <stop
         id="stop3392"
         style="stop-color:#425e7b"
         offset="0" />
      <stop
         id="stop3394"
         style="stop-color:#7a91a7"
         offset="1" />
    </linearGradient>
    <linearGradient
       id="linearGradient3521"
       y2="-8.7399"
       gradientUnits="userSpaceOnUse"
       x2="60.217"
       gradientTransform="matrix(.96826 0 0 .97948 2.179 .16587)"
       y1="-123.72"
       x1="60.395">
      <stop
         id="stop3392-4-8"
         style="stop-color:#425e7b"
         offset="0" />
      <stop
         id="stop3394-8-0"
         style="stop-color:#7a91a7"
         offset="1" />
    </linearGradient>
    <radialGradient
       id="radialGradient3349"
       gradientUnits="userSpaceOnUse"
       cy="45.647"
       cx="42.148"
       gradientTransform="matrix(.94690 0 0 1.139 3.5954 -29.89)"
       r="58.984">
      <stop
         id="stop2699-5"
         style="stop-color:#9cbbd9"
         offset="0" />
      <stop
         id="stop2701-7"
         style="stop-color:#5c82ab"
         offset="1" />
    </radialGradient>
    <clipPath
       id="clipPath3613">
      <rect
         id="rect3615"
         style="fill:#fff"
         rx="6"
         ry="6"
         height="84"
         width="84"
         y="6"
         x="6" />
    </clipPath>
    <linearGradient
       id="linearGradient3613"
       x1="48"
       gradientUnits="userSpaceOnUse"
       y1="20.221"
       x2="48"
       y2="138.66">
      <stop
         id="stop3739-0"
         style="stop-color:#fff"
         offset="0" />
      <stop
         id="stop3741-0"
         style="stop-color:#fff;stop-opacity:0"
         offset="1" />
    </linearGradient>
    <filter
       id="filter3794"
       height="1.384"
       width="1.384"
       color-interpolation-filters="sRGB"
       y="-.192"
       x="-.192">
      <feGaussianBlur
         id="feGaussianBlur3796"
         stdDeviation="5.28" />
    </filter>
    <filter
       id="filter3174"
       color-interpolation-filters="sRGB">
      <feGaussianBlur
         id="feGaussianBlur3176"
         stdDeviation="1.71" />
    </filter>
    <linearGradient
       id="ButtonShadow-4"
       x1="45.448"
       gradientUnits="userSpaceOnUse"
       y1="92.54"
       gradientTransform="scale(1.0059 .99417)"
       x2="45.448"
       y2="7.0165">
      <stop
         id="stop3750-6"
         offset="0" />
      <stop
         id="stop3752-4"
         style="stop-opacity:.58824"
         offset="1" />
    </linearGradient>
    <linearGradient
       gradientUnits="userSpaceOnUse"
       y2="276.53772"
       x2="857.97839"
       y1="276.53772"
       x1="828.47839"
       id="linearGradient3969"
       xlink:href="#linearGradient3961"
       inkscape:collect="always" />
    <linearGradient
       id="linearGradient3961">
      <stop
         id="stop3963"
         offset="0"
         style="stop-color:#323232;stop-opacity:1;" />
      <stop
         id="stop3965"
         offset="1"
         style="stop-color:#ffffff;stop-opacity:1;" />
    </linearGradient>
    <linearGradient
       gradientUnits="userSpaceOnUse"
       y2="276.53772"
       x2="961.22839"
       y1="276.53772"
       x1="931.72839"
       id="linearGradient3971"
       xlink:href="#linearGradient3961"
       inkscape:collect="always" />
    <linearGradient
       id="linearGradient3065">
      <stop
         id="stop3067"
         offset="0"
         style="stop-color:#323232;stop-opacity:1;" />
      <stop
         id="stop3069"
         offset="1"
         style="stop-color:#ffffff;stop-opacity:1;" />
    </linearGradient>
    <linearGradient
       gradientUnits="userSpaceOnUse"
       y2="276.53772"
       x2="754.72839"
       y1="276.53772"
       x1="725.22839"
       id="linearGradient3967"
       xlink:href="#linearGradient3961"
       inkscape:collect="always" />
    <linearGradient
       id="linearGradient3072">
      <stop
         id="stop3074"
         offset="0"
         style="stop-color:#323232;stop-opacity:1;" />
      <stop
         id="stop3076"
         offset="1"
         style="stop-color:#ffffff;stop-opacity:1;" />
    </linearGradient>
  </defs>
  <rect
     id="rect892"
     style="stroke:url(#linearGradient3521);stroke-width:.97385;fill:url(#linearGradient3519)"
     transform="scale(1,-1)"
     ry="29.296"
     height="115.54"
     width="114.22"
     y="-122.25"
     x="7.0394" />
  <rect
     id="rect892-2"
     style="stroke:url(#linearGradient3516);stroke-width:.97385;fill:url(#linearGradient3514)"
     transform="scale(1,-1)"
     ry="28.993"
     height="114.35"
     width="114.22"
     y="-121.46"
     x="7.0599" />
  <path
     id="rect895"
     style="fill:url(#radialGradient3349)"
     d="m33.051 7.2596c-7.969-2.4493-27.013 15.174-25.653 23.038-0.050142 0.97378-0.088772 1.9648-0.088772 2.9572v52.419c0 20.876 10.712 33.859 22.318 33.859h67.038c12.638 0 24.318-11.245 24.318-25.859v-64.017c0.7-10.928-21.283-24.659-25.926-22.618-47.846 0.8653-18.017 0.2236-62.003 0.2236z" />
  <rect
     id="rect892-2-7-8"
     style="opacity:.15891;stroke:#000;stroke-width:4.8445;fill:none"
     transform="scale(1,-1)"
     ry="28.993"
     height="114.35"
     width="114.22"
     y="-121.16"
     x="6.8687" />
  <rect
     id="rect892-2-7-1"
     style="opacity:.15891;stroke:#000;stroke-width:7.7512;fill:none"
     transform="scale(1,-1)"
     ry="28.993"
     height="114.35"
     width="114.22"
     y="-121.16"
     x="6.8687" />
  <rect
     id="rect892-2-7-2-9"
     ry="28.067"
     style="stroke:#000;stroke-width:1.0489;fill:none"
     transform="scale(1,-1)"
     height="112.71"
     width="114.14"
     y="-120.31"
     x="7.0649" />
  <path
     id="path1187"
     style="fill:#fff;fill-opacity:.057143"
     d="m33.017 7.2319c-23.707 0-26.027 0.6738-25.93 26.295-0.04334 0.71563-0.07674 1.4439-0.07674 2.1732v32.76c18.67-38.321 38.34-51.497 90.374-61.179-0.225-0.026-0.46-0.0303-0.691-0.0303-41.576 0.3874-25.652-0.0188-63.676-0.0188z" />
  <g
     id="layer2"
     style="display:none"
     transform="translate(-183.05 -205.14)">
    <rect
       id="rect3745"
       style="opacity:.9;filter:url(#filter3174);fill:url(#ButtonShadow-4)"
       rx="6"
       ry="6"
       height="85"
       width="86"
       y="7"
       x="5" />
  </g>
  <g
     id="layer5"
     style="display:none"
     transform="translate(-183.05 -205.14)">
    <rect
       id="rect3171"
       style="opacity:.1;filter:url(#filter3794);stroke:#fff;stroke-linecap:round;stroke-width:.5;fill:url(#linearGradient3613)"
       clip-path="url(#clipPath3613)"
       rx="12"
       ry="12"
       height="66"
       width="66"
       y="15"
       x="15" />
  </g>
  <g
     transform="matrix(0.25,0,0,0.25,-1.3644076,-2.6814777)"
     id="g3042">
    <g
       id="g3931"
       transform="matrix(1.2098166,0,0,1.134952,-763.54853,-57.856471)"
       style="fill:#6d88bf;fill-opacity:1">
      <path
         inkscape:connector-curvature="0"
         d="m 843.22837,409.28771 c -8.14716,0 -14.75,-6.60284 -14.75,-14.75 l 0,-236 c 0,-8.14716 6.60284,-14.75 14.75,-14.75 8.14716,0 14.75,6.60284 14.75,14.75 l 0,236 c 0,8.14716 -6.60284,14.75 -14.75,14.75"
         style="fill:#cccccc;fill-opacity:0.78431373000000004;fill-rule:nonzero;stroke:url(#linearGradient3969);stroke-width:1.65314317000000011;stroke-miterlimit:4;stroke-opacity:1;stroke-dasharray:none"
         id="path16" />
      <path
         inkscape:connector-curvature="0"
         d="m 946.47837,409.28771 c -8.14716,0 -14.75,-6.60284 -14.75,-14.75 l 0,-236 c 0,-8.14716 6.60284,-14.75 14.75,-14.75 8.14716,0 14.75,6.60284 14.75,14.75 l 0,236 c 0,8.14716 -6.60284,14.75 -14.75,14.75"
         style="fill:#e6e6e6;fill-opacity:0.78431373000000004;fill-rule:nonzero;stroke:url(#linearGradient3971);stroke-width:1.65314317000000011;stroke-miterlimit:4;stroke-opacity:1;stroke-dasharray:none"
         id="path18" />
      <path
         inkscape:connector-curvature="0"
         d="m 739.97837,409.28771 c -8.14716,0 -14.75,-6.60284 -14.75,-14.75 l 0,-236 c 0,-8.14716 6.60284,-14.75 14.75,-14.75 8.14716,0 14.75,6.60284 14.75,14.75 l 0,236 c 0,8.14716 -6.60284,14.75 -14.75,14.75"
         style="fill:#b3b3b3;fill-opacity:0.78431373000000004;fill-rule:nonzero;stroke:url(#linearGradient3967);stroke-width:1.65314317000000011;stroke-miterlimit:4;stroke-opacity:1;stroke-dasharray:none"
         id="path20" />
    </g>
    <path
       inkscape:connector-curvature="0"
       id="path3900"
       d="m 256.59375,140 c -19.70957,0 -35.6875,15.97792 -35.6875,35.6875 0,10.2228 4.29948,19.43124 11.1875,25.9375 0.41964,0.43586 0.8401,0.86712 1.28125,1.28125 0.12743,0.13138 0.24558,0.27683 0.375,0.40625 0.53197,0.58456 1.11822,1.10815 1.6875,1.65625 0.46845,0.49594 0.94156,0.96905 1.4375,1.4375 0.41964,0.43586 0.8401,0.86712 1.28125,1.28125 0.12743,0.13138 0.24558,0.27683 0.375,0.40625 0.57136,0.62785 1.19818,1.19555 1.8125,1.78125 0.38899,0.40749 0.77977,0.79876 1.1875,1.1875 0.45789,0.48026 0.92244,0.95208 1.40625,1.40625 0.12743,0.13138 0.24558,0.27683 0.375,0.40625 0.57136,0.62785 1.19818,1.19555 1.8125,1.78125 0.38899,0.40749 0.77977,0.79876 1.1875,1.1875 0.45789,0.48026 0.92244,0.95208 1.40625,1.40625 0.12743,0.13138 0.24558,0.27683 0.375,0.40625 0.57136,0.62785 1.19818,1.19555 1.8125,1.78125 0.38899,0.40749 0.77977,0.79876 1.1875,1.1875 0.45789,0.48026 0.92244,0.95208 1.40625,1.40625 0.12743,0.13138 0.24558,0.27683 0.375,0.40625 0.57136,0.62785 1.19818,1.19555 1.8125,1.78125 0.38899,0.40749 0.77977,0.79876 1.1875,1.1875 0.45789,0.48026 0.92244,0.95208 1.40625,1.40625 0.12743,0.13138 0.24558,0.27683 0.375,0.40625 0.57136,0.62785 1.19818,1.19555 1.8125,1.78125 0.38899,0.40749 0.77977,0.79876 1.1875,1.1875 0.45789,0.48026 0.92244,0.95208 1.40625,1.40625 0.12743,0.13138 0.24558,0.27683 0.375,0.40625 0.57136,0.62785 1.19818,1.19555 1.8125,1.78125 0.38899,0.40749 0.77977,0.79876 1.1875,1.1875 0.38874,0.40773 0.78001,0.79851 1.1875,1.1875 0.32326,0.33906 0.66373,0.67386 1,1 0.45417,0.48381 0.92599,0.94836 1.40625,1.40625 0.38899,0.40749 0.77977,0.79876 1.1875,1.1875 0.38874,0.40773 0.78001,0.79851 1.1875,1.1875 0.38874,0.40774 0.78001,0.82975 1.1875,1.21875 0.389,0.40749 0.81101,0.79876 1.21875,1.1875 0.38899,0.40749 0.77977,0.79876 1.1875,1.1875 0.38874,0.40773 0.78001,0.79851 1.1875,1.1875 0.38874,0.40774 0.78001,0.82975 1.1875,1.21875 0.389,0.40749 0.81101,0.79876 1.21875,1.1875 0.38899,0.40749 0.77977,0.79876 1.1875,1.1875 0.38874,0.40773 0.78001,0.79851 1.1875,1.1875 0.38874,0.40774 0.78001,0.82975 1.1875,1.21875 0.389,0.40749 0.81101,0.79876 1.21875,1.1875 0.38899,0.40749 0.77977,0.79876 1.1875,1.1875 0.38874,0.40773 0.78001,0.79851 1.1875,1.1875 0.38874,0.40774 0.78001,0.82975 1.1875,1.21875 0.389,0.40749 0.81101,0.79876 1.21875,1.1875 0.38899,0.40749 0.77977,0.79876 1.1875,1.1875 0.38874,0.40773 0.78001,0.79851 1.1875,1.1875 0.45789,0.48026 0.92244,0.95208 1.40625,1.40625 0.12743,0.13138 0.24558,0.27683 0.375,0.40625 0.006,0.005 0.0257,-0.005 0.0312,0 0.12946,0.12929 0.27483,0.2477 0.40625,0.375 0.45261,0.48195 0.8965,0.95004 1.375,1.40625 0.38874,0.40773 0.78001,0.79851 1.1875,1.1875 0.45789,0.48026 0.92244,0.95208 1.40625,1.40625 0.12743,0.13138 0.24558,0.27683 0.375,0.40625 0.006,0.005 0.0257,-0.005 0.0312,0 0.12946,0.12929 0.27483,0.2477 0.40625,0.375 0.45261,0.48195 0.8965,0.95004 1.375,1.40625 0.38874,0.40773 0.78001,0.79851 1.1875,1.1875 0.45789,0.48026 0.92244,0.95208 1.40625,1.40625 0.12743,0.13138 0.24558,0.27683 0.375,0.40625 0.57136,0.62785 1.19818,1.19555 1.8125,1.78125 0.38874,0.40773 0.78001,0.79851 1.1875,1.1875 0.45789,0.48026 0.92244,0.95208 1.40625,1.40625 0.12743,0.13138 0.24558,0.27683 0.375,0.40625 0.57136,0.62785 1.19818,1.19555 1.8125,1.78125 0.38874,0.40773 0.78001,0.79851 1.1875,1.1875 0.45789,0.48026 0.92244,0.95208 1.40625,1.40625 0.12743,0.13138 0.24558,0.27683 0.375,0.40625 0.57136,0.62785 1.19818,1.19555 1.8125,1.78125 0.38874,0.40773 0.78001,0.79851 1.1875,1.1875 0.45789,0.48026 0.92244,0.95208 1.40625,1.40625 0.12743,0.13138 0.24558,0.27683 0.375,0.40625 0.57136,0.62785 1.19818,1.19555 1.8125,1.78125 0.38874,0.40773 0.78001,0.79851 1.1875,1.1875 0.45789,0.48026 0.92244,0.95208 1.40625,1.40625 0.12743,0.13138 0.24558,0.27683 0.375,0.40625 0.57136,0.62785 1.19818,1.19555 1.8125,1.78125 0.38874,0.40773 0.78001,0.79851 1.1875,1.1875 0.45789,0.48026 0.92244,0.95208 1.40625,1.40625 0.12743,0.13138 0.24558,0.27683 0.375,0.40625 0.53197,0.58456 1.11822,1.10815 1.6875,1.65625 0.46845,0.49594 0.94156,0.96905 1.4375,1.4375 0.41964,0.43586 0.8401,0.86712 1.28125,1.28125 0.12743,0.13138 0.24558,0.27683 0.375,0.40625 0.53197,0.58456 1.11822,1.10815 1.6875,1.65625 0.46845,0.49594 0.94156,0.96905 1.4375,1.4375 0.41964,0.43586 0.8401,0.86712 1.28125,1.28125 0.12743,0.13138 0.24558,0.27683 0.375,0.40625 0.57136,0.62785 1.19818,1.19555 1.8125,1.78125 0.38899,0.40749 0.77977,0.79876 1.1875,1.1875 0.45789,0.48026 0.92244,0.95208 1.40625,1.40625 0.12743,0.13138 0.24558,0.27683 0.375,0.40625 0.57136,0.62785 1.19818,1.19555 1.8125,1.78125 0.38899,0.40749 0.77977,0.79876 1.1875,1.1875 0.45789,0.48026 0.92244,0.95208 1.40625,1.40625 0.12743,0.13138 0.24558,0.27683 0.375,0.40625 0.57136,0.62785 1.19818,1.19555 1.8125,1.78125 0.38899,0.40749 0.77977,0.79876 1.1875,1.1875 0.45789,0.48026 0.92244,0.95208 1.40625,1.40625 0.12743,0.13138 0.24558,0.27683 0.375,0.40625 0.57136,0.62785 1.19818,1.19555 1.8125,1.78125 0.38899,0.40749 0.77977,0.79876 1.1875,1.1875 0.45789,0.48026 0.92244,0.95208 1.40625,1.40625 0.12743,0.13138 0.24558,0.27683 0.375,0.40625 0.57136,0.62785 1.19818,1.19555 1.8125,1.78125 0.38899,0.40749 0.77977,0.79876 1.1875,1.1875 0.45789,0.48026 0.92244,0.95208 1.40625,1.40625 0.12743,0.13138 0.24558,0.27683 0.375,0.40625 0.57136,0.62785 1.19818,1.19555 1.8125,1.78125 0.38899,0.40749 0.77977,0.79876 1.1875,1.1875 0.38874,0.40773 0.78001,0.79851 1.1875,1.1875 0.32326,0.33906 0.66373,0.67386 1,1 0.45417,0.48381 0.92599,0.94836 1.40625,1.40625 0.38899,0.40749 0.77977,0.79876 1.1875,1.1875 0.38874,0.40773 0.78001,0.79851 1.1875,1.1875 0.38874,0.40774 0.78001,0.82975 1.1875,1.21875 0.389,0.40749 0.81101,0.79876 1.21875,1.1875 0.38899,0.40749 0.77977,0.79876 1.1875,1.1875 0.38874,0.40773 0.78001,0.79851 1.1875,1.1875 0.38874,0.40774 0.78001,0.82975 1.1875,1.21875 0.389,0.40749 0.81101,0.79876 1.21875,1.1875 0.38899,0.40749 0.77977,0.79876 1.1875,1.1875 0.38874,0.40773 0.78001,0.79851 1.1875,1.1875 0.38874,0.40774 0.78001,0.82975 1.1875,1.21875 0.389,0.40749 0.81101,0.79876 1.21875,1.1875 0.38899,0.40749 0.77977,0.79876 1.1875,1.1875 0.38874,0.40773 0.78001,0.79851 1.1875,1.1875 0.38874,0.40774 0.78001,0.82975 1.1875,1.21875 0.389,0.40749 0.81101,0.79876 1.21875,1.1875 0.38899,0.40749 0.77977,0.79876 1.1875,1.1875 0.38874,0.40773 0.78001,0.79851 1.1875,1.1875 0.38874,0.40774 0.78001,0.82975 1.1875,1.21875 0.389,0.40749 0.81101,0.79876 1.21875,1.1875 0.38899,0.40749 0.77977,0.79876 1.1875,1.1875 0.38874,0.40773 0.78001,0.79851 1.1875,1.1875 0.45789,0.48026 0.92244,0.95208 1.40625,1.40625 0.12743,0.13138 0.24558,0.27683 0.375,0.40625 0.006,0.005 0.0257,-0.005 0.0312,0 0.12946,0.12929 0.27483,0.2477 0.40625,0.375 0.45261,0.48195 0.8965,0.95004 1.375,1.40625 0.38874,0.40773 0.78001,0.79851 1.1875,1.1875 0.45789,0.48026 0.92244,0.95208 1.40625,1.40625 0.12743,0.13138 0.24558,0.27683 0.375,0.40625 0.006,0.005 0.0257,-0.005 0.0312,0 0.12946,0.12929 0.27483,0.2477 0.40625,0.375 0.45261,0.48195 0.8965,0.95004 1.375,1.40625 0.38874,0.40773 0.78001,0.79851 1.1875,1.1875 0.45789,0.48026 0.92244,0.95208 1.40625,1.40625 0.12743,0.13138 0.24558,0.27683 0.375,0.40625 0.57136,0.62785 1.19818,1.19555 1.8125,1.78125 0.38874,0.40773 0.78001,0.79851 1.1875,1.1875 0.45789,0.48026 0.92244,0.95208 1.40625,1.40625 0.12743,0.13138 0.24558,0.27683 0.375,0.40625 0.57136,0.62785 1.19818,1.19555 1.8125,1.78125 0.38874,0.40773 0.78001,0.79851 1.1875,1.1875 0.45789,0.48026 0.92244,0.95208 1.40625,1.40625 0.12743,0.13138 0.24558,0.27683 0.375,0.40625 0.57136,0.62785 1.19818,1.19555 1.8125,1.78125 0.38874,0.40773 0.78001,0.79851 1.1875,1.1875 0.45789,0.48026 0.92244,0.95208 1.40625,1.40625 0.12743,0.13138 0.24558,0.27683 0.375,0.40625 0.57136,0.62785 1.19818,1.19555 1.8125,1.78125 0.38874,0.40773 0.78001,0.79851 1.1875,1.1875 0.45789,0.48026 0.92244,0.95208 1.40625,1.40625 0.12743,0.13138 0.24558,0.27683 0.375,0.40625 0.57136,0.62785 1.19818,1.19555 1.8125,1.78125 0.38874,0.40773 0.78001,0.79851 1.1875,1.1875 0.45789,0.48026 0.92244,0.95208 1.40625,1.40625 0.12743,0.13138 0.24558,0.27683 0.375,0.40625 0.53197,0.58456 1.11822,1.10815 1.6875,1.65625 0.46845,0.49594 0.94156,0.96905 1.4375,1.4375 0.41964,0.43586 0.8401,0.86712 1.28125,1.28125 0.12743,0.13138 0.24558,0.27683 0.375,0.40625 0.57136,0.62785 1.19818,1.19555 1.8125,1.78125 0.38899,0.40749 0.77977,0.79876 1.1875,1.1875 0.45789,0.48026 0.92244,0.95208 1.40625,1.40625 0.12743,0.13138 0.24558,0.27683 0.375,0.40625 0.57136,0.62785 1.19818,1.19555 1.8125,1.78125 0.38899,0.40749 0.77977,0.79876 1.1875,1.1875 0.45789,0.48026 0.92244,0.95208 1.40625,1.40625 0.12743,0.13138 0.24558,0.27683 0.375,0.40625 0.57136,0.62785 1.19818,1.19555 1.8125,1.78125 0.38899,0.40749 0.77977,0.79876 1.1875,1.1875 0.45789,0.48026 0.92244,0.95208 1.40625,1.40625 0.12743,0.13138 0.24558,0.27683 0.375,0.40625 0.57136,0.62785 1.19818,1.19555 1.8125,1.78125 0.38899,0.40749 0.77977,0.79876 1.1875,1.1875 0.45789,0.48026 0.92244,0.95208 1.40625,1.40625 0.12743,0.13138 0.24558,0.27683 0.375,0.40625 0.57136,0.62785 1.19818,1.19555 1.8125,1.78125 0.38899,0.40749 0.77977,0.79876 1.1875,1.1875 0.45789,0.48026 0.92244,0.95208 1.40625,1.40625 0.12743,0.13138 0.24558,0.27683 0.375,0.40625 0.57136,0.62785 1.19818,1.19555 1.8125,1.78125 0.38899,0.40749 0.77977,0.79876 1.1875,1.1875 0.38874,0.40773 0.78001,0.79851 1.1875,1.1875 0.32326,0.33906 0.66373,0.67386 1,1 0.45417,0.48381 0.92599,0.94836 1.40625,1.40625 0.38899,0.40749 0.77977,0.79876 1.1875,1.1875 0.38874,0.40773 0.78001,0.79851 1.1875,1.1875 0.32326,0.33906 0.66373,0.67386 1,1 0.45417,0.48381 0.92599,0.94836 1.40625,1.40625 0.38899,0.40749 0.77977,0.79876 1.1875,1.1875 0.38874,0.40773 0.78001,0.79851 1.1875,1.1875 0.38874,0.40774 0.78001,0.82975 1.1875,1.21875 0.389,0.40749 0.81101,0.79876 1.21875,1.1875 0.38899,0.40749 0.77977,0.79876 1.1875,1.1875 0.38874,0.40773 0.78001,0.79851 1.1875,1.1875 0.38874,0.40774 0.78001,0.82975 1.1875,1.21875 0.32839,0.344 0.68426,0.67089 1.03125,1 C 486.44352,431.13312 492,413.06356 492,393.65625 l 0,-58.5625 c -0.5226,-0.55251 -1.03077,-1.11268 -1.59375,-1.625 -0.57136,-0.62785 -1.19818,-1.19555 -1.8125,-1.78125 -0.38899,-0.40749 -0.77977,-0.79876 -1.1875,-1.1875 -0.5857,-0.61432 -1.1534,-1.24114 -1.78125,-1.8125 -0.57136,-0.62785 -1.19818,-1.19555 -1.8125,-1.78125 -0.38899,-0.40749 -0.77977,-0.79876 -1.1875,-1.1875 -0.5857,-0.61432 -1.1534,-1.24114 -1.78125,-1.8125 -0.57136,-0.62785 -1.19818,-1.19555 -1.8125,-1.78125 -0.38899,-0.40749 -0.77977,-0.79876 -1.1875,-1.1875 -0.5857,-0.61432 -1.1534,-1.24114 -1.78125,-1.8125 -0.57136,-0.62785 -1.19818,-1.19555 -1.8125,-1.78125 -0.38899,-0.40749 -0.77977,-0.79876 -1.1875,-1.1875 -0.58556,-0.61417 -1.15356,-1.21001 -1.78125,-1.78125 -0.57602,-0.63377 -1.19275,-1.22162 -1.8125,-1.8125 -0.38899,-0.40749 -0.77977,-0.79876 -1.1875,-1.1875 -0.58556,-0.61417 -1.15356,-1.21001 -1.78125,-1.78125 -0.57602,-0.63377 -1.19275,-1.22162 -1.8125,-1.8125 -0.38899,-0.40749 -0.77977,-0.79876 -1.1875,-1.1875 -0.38874,-0.40773 -0.78001,-0.79851 -1.1875,-1.1875 -0.38874,-0.40774 -0.78001,-0.82975 -1.1875,-1.21875 -0.389,-0.40749 -0.81101,-0.79876 -1.21875,-1.1875 -0.38899,-0.40749 -0.77977,-0.79876 -1.1875,-1.1875 -0.38874,-0.40773 -0.78001,-0.79851 -1.1875,-1.1875 -0.38874,-0.40774 -0.78001,-0.82975 -1.1875,-1.21875 -0.389,-0.40749 -0.81101,-0.79876 -1.21875,-1.1875 -0.38899,-0.40749 -0.77977,-0.79876 -1.1875,-1.1875 -0.38874,-0.40773 -0.78001,-0.79851 -1.1875,-1.1875 -0.38874,-0.40774 -0.78001,-0.82975 -1.1875,-1.21875 -0.389,-0.40749 -0.81101,-0.79876 -1.21875,-1.1875 -0.38899,-0.40749 -0.77977,-0.79876 -1.1875,-1.1875 -0.38874,-0.40773 -0.78001,-0.79851 -1.1875,-1.1875 -0.38874,-0.40774 -0.78001,-0.82975 -1.1875,-1.21875 -0.389,-0.40749 -0.81101,-0.79876 -1.21875,-1.1875 -0.38899,-0.40749 -0.77977,-0.79876 -1.1875,-1.1875 -0.38874,-0.40773 -0.78001,-0.79851 -1.1875,-1.1875 -0.5857,-0.61432 -1.1534,-1.24114 -1.78125,-1.8125 -0.20182,-0.20182 -0.41842,-0.39679 -0.625,-0.59375 -0.38899,-0.40749 -0.77977,-0.79876 -1.1875,-1.1875 -0.38874,-0.40773 -0.78001,-0.79851 -1.1875,-1.1875 -0.5857,-0.61432 -1.1534,-1.24114 -1.78125,-1.8125 -0.57136,-0.62785 -1.19818,-1.19555 -1.8125,-1.78125 -0.38874,-0.40773 -0.78001,-0.79851 -1.1875,-1.1875 -0.5857,-0.61432 -1.1534,-1.24114 -1.78125,-1.8125 -0.57136,-0.62785 -1.19818,-1.19555 -1.8125,-1.78125 -0.38874,-0.40773 -0.78001,-0.79851 -1.1875,-1.1875 -0.5857,-0.61432 -1.1534,-1.24114 -1.78125,-1.8125 -0.57136,-0.62785 -1.19818,-1.19555 -1.8125,-1.78125 -0.38874,-0.40773 -0.78001,-0.79851 -1.1875,-1.1875 -0.5857,-0.61432 -1.1534,-1.24114 -1.78125,-1.8125 -0.57136,-0.62785 -1.19818,-1.19555 -1.8125,-1.78125 -0.38874,-0.40773 -0.78001,-0.79851 -1.1875,-1.1875 -0.5857,-0.61432 -1.1534,-1.24114 -1.78125,-1.8125 -0.57136,-0.62785 -1.19818,-1.19555 -1.8125,-1.78125 -0.38874,-0.40773 -0.78001,-0.79851 -1.1875,-1.1875 -0.5857,-0.61432 -1.1534,-1.24114 -1.78125,-1.8125 -0.53197,-0.58456 -1.11822,-1.10815 -1.6875,-1.65625 -0.46845,-0.49594 -0.94156,-0.96905 -1.4375,-1.4375 -0.5481,-0.56928 -1.07169,-1.15553 -1.65625,-1.6875 -0.53197,-0.58456 -1.11822,-1.10815 -1.6875,-1.65625 -6.50626,-6.88802 -15.7147,-11.1875 -25.9375,-11.1875 -3.29232,0 -6.47319,0.44689 -9.5,1.28125 -0.37195,-0.38795 -0.76726,-0.75413 -1.15625,-1.125 -0.38899,-0.40749 -0.77977,-0.79876 -1.1875,-1.1875 -0.5857,-0.61431 -1.15341,-1.24114 -1.78125,-1.8125 -0.57136,-0.62784 -1.19819,-1.19556 -1.8125,-1.78125 -0.38899,-0.40749 -0.77977,-0.79876 -1.1875,-1.1875 -0.5857,-0.61431 -1.15341,-1.24114 -1.78125,-1.8125 -0.57136,-0.62784 -1.19819,-1.19556 -1.8125,-1.78125 -0.38899,-0.40749 -0.77977,-0.79876 -1.1875,-1.1875 -0.5857,-0.61431 -1.15341,-1.24114 -1.78125,-1.8125 -0.57136,-0.62784 -1.19819,-1.19556 -1.8125,-1.78125 -0.38899,-0.40749 -0.77977,-0.79876 -1.1875,-1.1875 -0.5857,-0.61431 -1.15341,-1.24114 -1.78125,-1.8125 -0.57136,-0.62784 -1.19819,-1.19556 -1.8125,-1.78125 -0.38899,-0.40749 -0.77977,-0.79876 -1.1875,-1.1875 -0.5857,-0.61431 -1.15341,-1.24114 -1.78125,-1.8125 -0.57136,-0.62784 -1.19819,-1.19556 -1.8125,-1.78125 -0.38899,-0.40749 -0.77977,-0.79876 -1.1875,-1.1875 -0.58556,-0.61417 -1.15356,-1.21001 -1.78125,-1.78125 -0.57602,-0.63376 -1.19275,-1.22162 -1.8125,-1.8125 -0.38899,-0.40749 -0.77977,-0.79876 -1.1875,-1.1875 -0.38874,-0.40773 -0.78001,-0.79851 -1.1875,-1.1875 -0.38874,-0.40774 -0.78001,-0.82976 -1.1875,-1.21875 -0.389,-0.40749 -0.81101,-0.79876 -1.21875,-1.1875 -0.38899,-0.40749 -0.77977,-0.79876 -1.1875,-1.1875 -0.38874,-0.40773 -0.78001,-0.79851 -1.1875,-1.1875 -0.38874,-0.40774 -0.78001,-0.82975 -1.1875,-1.21875 -0.389,-0.40749 -0.81101,-0.79876 -1.21875,-1.1875 -0.38899,-0.40749 -0.77977,-0.79876 -1.1875,-1.1875 -0.38874,-0.40773 -0.78001,-0.79851 -1.1875,-1.1875 -0.38874,-0.40774 -0.78001,-0.82975 -1.1875,-1.21875 -0.389,-0.40749 -0.81101,-0.79876 -1.21875,-1.1875 -0.38899,-0.40749 -0.77977,-0.79876 -1.1875,-1.1875 -0.38874,-0.40773 -0.78001,-0.79851 -1.1875,-1.1875 -0.38874,-0.40774 -0.78001,-0.82975 -1.1875,-1.21875 -0.389,-0.40749 -0.81101,-0.79876 -1.21875,-1.1875 -0.38899,-0.40749 -0.77977,-0.79876 -1.1875,-1.1875 -0.38874,-0.40773 -0.78001,-0.79851 -1.1875,-1.1875 -0.5857,-0.61431 -1.1534,-1.24114 -1.78125,-1.8125 -0.20182,-0.20182 -0.41842,-0.39679 -0.625,-0.59375 -0.38899,-0.40749 -0.77977,-0.79876 -1.1875,-1.1875 -0.38874,-0.40773 -0.78001,-0.79851 -1.1875,-1.1875 -0.5857,-0.61431 -1.1534,-1.24114 -1.78125,-1.8125 -0.57136,-0.62784 -1.19819,-1.19555 -1.8125,-1.78125 -0.38874,-0.40773 -0.78001,-0.79851 -1.1875,-1.1875 -0.5857,-0.61431 -1.1534,-1.24114 -1.78125,-1.8125 -0.57136,-0.62784 -1.19819,-1.19555 -1.8125,-1.78125 -0.38874,-0.40773 -0.78001,-0.79851 -1.1875,-1.1875 -0.5857,-0.61431 -1.1534,-1.24114 -1.78125,-1.8125 -0.57136,-0.62784 -1.19819,-1.19555 -1.8125,-1.78125 -0.38874,-0.40773 -0.78001,-0.79851 -1.1875,-1.1875 -0.5857,-0.61431 -1.1534,-1.24114 -1.78125,-1.8125 -0.57136,-0.62784 -1.19818,-1.19555 -1.8125,-1.78125 -0.38874,-0.40773 -0.78001,-0.79851 -1.1875,-1.1875 -0.5857,-0.61431 -1.1534,-1.24114 -1.78125,-1.8125 -0.57136,-0.62785 -1.19818,-1.19555 -1.8125,-1.78125 -0.38874,-0.40773 -0.78001,-0.79851 -1.1875,-1.1875 -0.5857,-0.61431 -1.1534,-1.24114 -1.78125,-1.8125 -0.53197,-0.58456 -1.11822,-1.10815 -1.6875,-1.65625 -0.46845,-0.49593 -0.94156,-0.96905 -1.4375,-1.4375 -0.5481,-0.56928 -1.07169,-1.15553 -1.65625,-1.6875 -0.53197,-0.58456 -1.11822,-1.10815 -1.6875,-1.65625 C 276.02499,144.29948 266.81656,140 256.59375,140 z M 131.6875,291.6875 C 111.97793,291.6875 96,307.66542 96,327.375 c 0,10.2228 4.29948,19.43124 11.1875,25.9375 0.41964,0.43586 0.8401,0.86712 1.28125,1.28125 0.12743,0.13138 0.24558,0.27683 0.375,0.40625 0.53197,0.58456 1.11822,1.10815 1.6875,1.65625 0.46845,0.49594 0.94156,0.96905 1.4375,1.4375 0.41964,0.43586 0.8401,0.86712 1.28125,1.28125 0.12743,0.13138 0.24558,0.27683 0.375,0.40625 0.57136,0.62785 1.19818,1.19555 1.8125,1.78125 0.38899,0.40749 0.77977,0.79876 1.1875,1.1875 0.45789,0.48026 0.92244,0.95208 1.40625,1.40625 0.12743,0.13138 0.24558,0.27683 0.375,0.40625 0.57136,0.62785 1.19818,1.19555 1.8125,1.78125 0.38899,0.40749 0.77977,0.79876 1.1875,1.1875 0.45789,0.48026 0.92244,0.95208 1.40625,1.40625 0.12743,0.13138 0.24558,0.27683 0.375,0.40625 0.57136,0.62785 1.19818,1.19555 1.8125,1.78125 0.38899,0.40749 0.77977,0.79876 1.1875,1.1875 0.45789,0.48026 0.92244,0.95208 1.40625,1.40625 0.12743,0.13138 0.24558,0.27683 0.375,0.40625 0.57136,0.62785 1.19818,1.19555 1.8125,1.78125 0.38899,0.40749 0.77977,0.79876 1.1875,1.1875 0.45789,0.48026 0.92244,0.95208 1.40625,1.40625 0.12743,0.13138 0.24558,0.27683 0.375,0.40625 0.57136,0.62785 1.19818,1.19555 1.8125,1.78125 0.38899,0.40749 0.77977,0.79876 1.1875,1.1875 0.45789,0.48026 0.92244,0.95208 1.40625,1.40625 0.12743,0.13138 0.24558,0.27683 0.375,0.40625 0.57136,0.62785 1.19818,1.19555 1.8125,1.78125 0.38899,0.40749 0.77977,0.79876 1.1875,1.1875 0.38874,0.40773 0.78001,0.79851 1.1875,1.1875 0.32326,0.33906 0.66373,0.67386 1,1 0.45417,0.48381 0.92599,0.94836 1.40625,1.40625 0.38899,0.40749 0.77977,0.79876 1.1875,1.1875 0.38874,0.40773 0.78001,0.79851 1.1875,1.1875 0.38874,0.40774 0.78001,0.82975 1.1875,1.21875 0.389,0.40749 0.81101,0.79876 1.21875,1.1875 0.38899,0.40749 0.77977,0.79876 1.1875,1.1875 0.38874,0.40773 0.78001,0.79851 1.1875,1.1875 0.38874,0.40774 0.78001,0.82975 1.1875,1.21875 0.389,0.40749 0.81101,0.79876 1.21875,1.1875 0.38899,0.40749 0.77977,0.79876 1.1875,1.1875 0.38874,0.40773 0.78001,0.79851 1.1875,1.1875 0.38874,0.40774 0.78001,0.82975 1.1875,1.21875 0.389,0.40749 0.81101,0.79876 1.21875,1.1875 0.38899,0.40749 0.77977,0.79876 1.1875,1.1875 0.38874,0.40773 0.78001,0.79851 1.1875,1.1875 0.38874,0.40774 0.78001,0.82975 1.1875,1.21875 0.389,0.40749 0.81101,0.79876 1.21875,1.1875 0.38899,0.40749 0.77977,0.79876 1.1875,1.1875 0.38874,0.40773 0.78001,0.79851 1.1875,1.1875 0.45789,0.48026 0.92244,0.95208 1.40625,1.40625 0.12743,0.13138 0.24558,0.27683 0.375,0.40625 0.006,0.005 0.0257,-0.005 0.0312,0 0.12946,0.12929 0.27483,0.2477 0.40625,0.375 0.45261,0.48195 0.8965,0.95004 1.375,1.40625 0.38874,0.40773 0.78001,0.79851 1.1875,1.1875 0.45789,0.48026 0.92244,0.95208 1.40625,1.40625 0.12743,0.13138 0.24558,0.27683 0.375,0.40625 0.006,0.005 0.0257,-0.005 0.0312,0 0.12946,0.12929 0.27483,0.2477 0.40625,0.375 0.45261,0.48195 0.8965,0.95004 1.375,1.40625 0.38874,0.40773 0.78001,0.79851 1.1875,1.1875 0.45789,0.48026 0.92244,0.95208 1.40625,1.40625 0.12743,0.13138 0.24558,0.27683 0.375,0.40625 0.57136,0.62785 1.19818,1.19555 1.8125,1.78125 0.38874,0.40773 0.78001,0.79851 1.1875,1.1875 0.45789,0.48026 0.92244,0.95208 1.40625,1.40625 0.12743,0.13138 0.24558,0.27683 0.375,0.40625 0.57136,0.62785 1.19818,1.19555 1.8125,1.78125 0.38874,0.40773 0.78001,0.79851 1.1875,1.1875 0.45789,0.48026 0.92244,0.95208 1.40625,1.40625 0.12743,0.13138 0.24558,0.27683 0.375,0.40625 0.57136,0.62785 1.19818,1.19555 1.8125,1.78125 0.38874,0.40773 0.78001,0.79851 1.1875,1.1875 0.45789,0.48026 0.92244,0.95208 1.40625,1.40625 0.12743,0.13138 0.24558,0.27683 0.375,0.40625 0.57136,0.62785 1.19818,1.19555 1.8125,1.78125 0.38874,0.40773 0.78001,0.79851 1.1875,1.1875 0.45789,0.48026 0.92244,0.95208 1.40625,1.40625 0.12743,0.13138 0.24558,0.27683 0.375,0.40625 0.57136,0.62785 1.19818,1.19555 1.8125,1.78125 0.38874,0.40773 0.78001,0.79851 1.1875,1.1875 0.45789,0.48026 0.92244,0.95208 1.40625,1.40625 0.12743,0.13138 0.24558,0.27683 0.375,0.40625 0.53197,0.58456 1.11822,1.10815 1.6875,1.65625 0.46845,0.49594 0.94156,0.96905 1.4375,1.4375 0.41964,0.43586 0.8401,0.86712 1.28125,1.28125 0.12743,0.13138 0.24558,0.27683 0.375,0.40625 0.53197,0.58456 1.11822,1.10815 1.6875,1.65625 0.46845,0.49594 0.94156,0.96905 1.4375,1.4375 0.41964,0.43586 0.8401,0.86712 1.28125,1.28125 0.12743,0.13138 0.24558,0.27683 0.375,0.40625 0.57136,0.62785 1.19818,1.19555 1.8125,1.78125 0.38899,0.40749 0.77977,0.79876 1.1875,1.1875 0.45789,0.48026 0.92244,0.95208 1.40625,1.40625 0.12743,0.13138 0.24558,0.27683 0.375,0.40625 0.57136,0.62785 1.19818,1.19555 1.8125,1.78125 0.38899,0.40749 0.77977,0.79876 1.1875,1.1875 0.45789,0.48026 0.92244,0.95208 1.40625,1.40625 0.12743,0.13138 0.24558,0.27683 0.375,0.40625 0.57136,0.62785 1.19818,1.19555 1.8125,1.78125 0.38899,0.40749 0.77977,0.79876 1.1875,1.1875 0.45789,0.48026 0.92244,0.95208 1.40625,1.40625 0.12743,0.13138 0.24558,0.27683 0.375,0.40625 0.57136,0.62785 1.19818,1.19555 1.8125,1.78125 0.38899,0.40749 0.77977,0.79876 1.1875,1.1875 0.45789,0.48026 0.92244,0.95208 1.40625,1.40625 0.12743,0.13138 0.24558,0.27683 0.375,0.40625 0.57136,0.62785 1.19818,1.19555 1.8125,1.78125 0.38899,0.40749 0.77977,0.79876 1.1875,1.1875 0.45789,0.48026 0.92244,0.95208 1.40625,1.40625 0.12743,0.13138 0.24558,0.27683 0.375,0.40625 0.57136,0.62785 1.19818,1.19555 1.8125,1.78125 0.38899,0.40749 0.77977,0.79876 1.1875,1.1875 0.38874,0.40773 0.78001,0.79851 1.1875,1.1875 0.32326,0.33906 0.66373,0.67386 1,1 0.45417,0.48381 0.92599,0.94836 1.40625,1.40625 0.38899,0.40749 0.77977,0.79876 1.1875,1.1875 0.38874,0.40773 0.78001,0.79851 1.1875,1.1875 0.38874,0.40774 0.78001,0.82975 1.1875,1.21875 0.389,0.40749 0.81101,0.79876 1.21875,1.1875 0.0512,0.0536 0.10497,0.10316 0.15625,0.15625 l 100.90625,0 c -0.1435,-0.13537 -0.2945,-0.26991 -0.4375,-0.40625 -0.38899,-0.40749 -0.77977,-0.79876 -1.1875,-1.1875 -0.5857,-0.61432 -1.1534,-1.24114 -1.78125,-1.8125 -0.57136,-0.62785 -1.19818,-1.19555 -1.8125,-1.78125 -0.38899,-0.40749 -0.77977,-0.79876 -1.1875,-1.1875 -0.5857,-0.61432 -1.1534,-1.24114 -1.78125,-1.8125 -0.57136,-0.62785 -1.19818,-1.19555 -1.8125,-1.78125 -0.38899,-0.40749 -0.77977,-0.79876 -1.1875,-1.1875 -0.5857,-0.61432 -1.1534,-1.24114 -1.78125,-1.8125 -0.57136,-0.62785 -1.19818,-1.19555 -1.8125,-1.78125 -0.38899,-0.40749 -0.77977,-0.79876 -1.1875,-1.1875 -0.5857,-0.61432 -1.1534,-1.24114 -1.78125,-1.8125 -0.57136,-0.62785 -1.19818,-1.19555 -1.8125,-1.78125 -0.38899,-0.40749 -0.77977,-0.79876 -1.1875,-1.1875 -0.5857,-0.61432 -1.1534,-1.24114 -1.78125,-1.8125 -0.57136,-0.62785 -1.19818,-1.19555 -1.8125,-1.78125 -0.38899,-0.40749 -0.77977,-0.79876 -1.1875,-1.1875 -0.58556,-0.61417 -1.15356,-1.21001 -1.78125,-1.78125 -0.57602,-0.63377 -1.19275,-1.22162 -1.8125,-1.8125 -0.38899,-0.40749 -0.77977,-0.79876 -1.1875,-1.1875 -0.58556,-0.61417 -1.15356,-1.21001 -1.78125,-1.78125 -0.57602,-0.63377 -1.19275,-1.22162 -1.8125,-1.8125 -0.38899,-0.40749 -0.77977,-0.79876 -1.1875,-1.1875 -0.38874,-0.40773 -0.78001,-0.79851 -1.1875,-1.1875 -0.38874,-0.40774 -0.78001,-0.82975 -1.1875,-1.21875 -0.389,-0.40749 -0.81101,-0.79876 -1.21875,-1.1875 -0.38899,-0.40749 -0.77977,-0.79876 -1.1875,-1.1875 -0.38874,-0.40773 -0.78001,-0.79851 -1.1875,-1.1875 -0.38874,-0.40774 -0.78001,-0.82975 -1.1875,-1.21875 -0.389,-0.40749 -0.81101,-0.79876 -1.21875,-1.1875 -0.38899,-0.40749 -0.77977,-0.79876 -1.1875,-1.1875 -0.38874,-0.40773 -0.78001,-0.79851 -1.1875,-1.1875 -0.38874,-0.40774 -0.78001,-0.82975 -1.1875,-1.21875 -0.389,-0.40749 -0.81101,-0.79876 -1.21875,-1.1875 -0.38899,-0.40749 -0.77977,-0.79876 -1.1875,-1.1875 -0.38874,-0.40773 -0.78001,-0.79851 -1.1875,-1.1875 -0.5857,-0.61432 -1.1534,-1.24114 -1.78125,-1.8125 -0.20182,-0.20182 -0.41842,-0.39679 -0.625,-0.59375 -0.38899,-0.40749 -0.77977,-0.79876 -1.1875,-1.1875 -0.38874,-0.40773 -0.78001,-0.79851 -1.1875,-1.1875 -0.5857,-0.61432 -1.1534,-1.24114 -1.78125,-1.8125 -0.20182,-0.20182 -0.41842,-0.39679 -0.625,-0.59375 -0.38899,-0.40749 -0.77977,-0.79876 -1.1875,-1.1875 -0.38874,-0.40773 -0.78001,-0.79851 -1.1875,-1.1875 -0.5857,-0.61432 -1.1534,-1.24114 -1.78125,-1.8125 -0.57136,-0.62785 -1.19818,-1.19555 -1.8125,-1.78125 -0.38874,-0.40773 -0.78001,-0.79851 -1.1875,-1.1875 -0.5857,-0.61432 -1.1534,-1.24114 -1.78125,-1.8125 -0.57136,-0.62785 -1.19818,-1.19555 -1.8125,-1.78125 -0.38874,-0.40773 -0.78001,-0.79851 -1.1875,-1.1875 -0.5857,-0.61432 -1.1534,-1.24114 -1.78125,-1.8125 -0.57136,-0.62785 -1.19818,-1.19555 -1.8125,-1.78125 -0.38874,-0.40773 -0.78001,-0.79851 -1.1875,-1.1875 -0.5857,-0.61432 -1.1534,-1.24114 -1.78125,-1.8125 -0.57136,-0.62785 -1.19818,-1.19555 -1.8125,-1.78125 -0.38874,-0.40773 -0.78001,-0.79851 -1.1875,-1.1875 -0.5857,-0.61432 -1.1534,-1.24114 -1.78125,-1.8125 -0.57136,-0.62785 -1.19818,-1.19555 -1.8125,-1.78125 -0.38874,-0.40773 -0.78001,-0.79851 -1.1875,-1.1875 -0.5857,-0.61432 -1.1534,-1.24114 -1.78125,-1.8125 -0.53197,-0.58456 -1.11822,-1.10815 -1.6875,-1.65625 -0.46845,-0.49594 -0.94156,-0.96905 -1.4375,-1.4375 -0.5481,-0.56928 -1.07169,-1.15553 -1.65625,-1.6875 -0.53197,-0.58456 -1.11822,-1.10815 -1.6875,-1.65625 -0.46845,-0.49594 -0.94156,-0.96905 -1.4375,-1.4375 -0.5481,-0.56928 -1.07169,-1.15553 -1.65625,-1.6875 -0.57136,-0.62785 -1.19818,-1.19555 -1.8125,-1.78125 -0.38899,-0.40749 -0.77977,-0.79876 -1.1875,-1.1875 -0.5857,-0.61432 -1.1534,-1.24114 -1.78125,-1.8125 -0.57136,-0.62785 -1.19818,-1.19555 -1.8125,-1.78125 -0.38899,-0.40749 -0.77977,-0.79876 -1.1875,-1.1875 -0.5857,-0.61432 -1.1534,-1.24114 -1.78125,-1.8125 -0.57136,-0.62785 -1.19818,-1.19555 -1.8125,-1.78125 -0.38899,-0.40749 -0.77977,-0.79876 -1.1875,-1.1875 -0.5857,-0.61432 -1.1534,-1.24114 -1.78125,-1.8125 -0.57136,-0.62785 -1.19818,-1.19555 -1.8125,-1.78125 -0.38899,-0.40749 -0.77977,-0.79876 -1.1875,-1.1875 -0.5857,-0.61432 -1.1534,-1.24114 -1.78125,-1.8125 -0.57136,-0.62785 -1.19818,-1.19555 -1.8125,-1.78125 -0.38899,-0.40749 -0.77977,-0.79876 -1.1875,-1.1875 -0.5857,-0.61432 -1.1534,-1.24114 -1.78125,-1.8125 -0.57136,-0.62785 -1.19818,-1.19555 -1.8125,-1.78125 -0.38899,-0.40749 -0.77977,-0.79876 -1.1875,-1.1875 -0.58556,-0.61417 -1.15356,-1.21001 -1.78125,-1.78125 -0.57602,-0.63377 -1.19275,-1.22162 -1.8125,-1.8125 -0.38899,-0.40749 -0.77977,-0.79876 -1.1875,-1.1875 -0.58556,-0.61417 -1.15356,-1.21001 -1.78125,-1.78125 -0.57602,-0.63377 -1.19275,-1.22162 -1.8125,-1.8125 -0.38899,-0.40749 -0.77977,-0.79876 -1.1875,-1.1875 -0.38874,-0.40773 -0.78001,-0.79851 -1.1875,-1.1875 -0.38874,-0.40774 -0.78001,-0.82975 -1.1875,-1.21875 -0.389,-0.40749 -0.81101,-0.79876 -1.21875,-1.1875 -0.38899,-0.40749 -0.77977,-0.79876 -1.1875,-1.1875 -0.38874,-0.40773 -0.78001,-0.79851 -1.1875,-1.1875 -0.38874,-0.40774 -0.78001,-0.82975 -1.1875,-1.21875 -0.389,-0.40749 -0.81101,-0.79876 -1.21875,-1.1875 -0.38899,-0.40749 -0.77977,-0.79876 -1.1875,-1.1875 -0.38874,-0.40773 -0.78001,-0.79851 -1.1875,-1.1875 -0.38874,-0.40774 -0.78001,-0.82975 -1.1875,-1.21875 -0.389,-0.40749 -0.81101,-0.79876 -1.21875,-1.1875 -0.38899,-0.40749 -0.77977,-0.79876 -1.1875,-1.1875 -0.38874,-0.40773 -0.78001,-0.79851 -1.1875,-1.1875 -0.38874,-0.40774 -0.78001,-0.82975 -1.1875,-1.21875 -0.389,-0.40749 -0.81101,-0.79876 -1.21875,-1.1875 -0.38899,-0.40749 -0.77977,-0.79876 -1.1875,-1.1875 -0.38874,-0.40773 -0.78001,-0.79851 -1.1875,-1.1875 -0.5857,-0.61432 -1.1534,-1.24114 -1.78125,-1.8125 -0.20182,-0.20182 -0.41842,-0.39679 -0.625,-0.59375 -0.38899,-0.40749 -0.77977,-0.79876 -1.1875,-1.1875 -0.38874,-0.40773 -0.78001,-0.79851 -1.1875,-1.1875 -0.5857,-0.61432 -1.1534,-1.24114 -1.78125,-1.8125 -0.57136,-0.62785 -1.19818,-1.19555 -1.8125,-1.78125 -0.38874,-0.40773 -0.78001,-0.79851 -1.1875,-1.1875 -0.5857,-0.61432 -1.1534,-1.24114 -1.78125,-1.8125 -0.57136,-0.62785 -1.19818,-1.19555 -1.8125,-1.78125 -0.38874,-0.40773 -0.78001,-0.79851 -1.1875,-1.1875 -0.5857,-0.61432 -1.1534,-1.24114 -1.78125,-1.8125 -0.57136,-0.62785 -1.19818,-1.19555 -1.8125,-1.78125 -0.38874,-0.40773 -0.78001,-0.79851 -1.1875,-1.1875 -0.5857,-0.61432 -1.1534,-1.24114 -1.78125,-1.8125 -0.57136,-0.62785 -1.19818,-1.19555 -1.8125,-1.78125 -0.38874,-0.40773 -0.78001,-0.79851 -1.1875,-1.1875 -0.5857,-0.61432 -1.1534,-1.24114 -1.78125,-1.8125 -0.57136,-0.62785 -1.19818,-1.19555 -1.8125,-1.78125 -0.38874,-0.40773 -0.78001,-0.79851 -1.1875,-1.1875 -0.5857,-0.61432 -1.1534,-1.24114 -1.78125,-1.8125 -0.53197,-0.58456 -1.11822,-1.10815 -1.6875,-1.65625 -0.46845,-0.49594 -0.94156,-0.96905 -1.4375,-1.4375 -0.5481,-0.56928 -1.07169,-1.15553 -1.65625,-1.6875 -0.53197,-0.58456 -1.11822,-1.10815 -1.6875,-1.65625 -6.50626,-6.88802 -15.71469,-11.1875 -25.9375,-11.1875 z"
       style="fill:#000000;fill-opacity:0.23529412;fill-rule:nonzero;stroke:none" />
    <path
       inkscape:connector-curvature="0"
       style="fill:#666666;fill-opacity:1;fill-rule:nonzero;stroke:none"
       d="m 256.59375,140 c -19.70957,0 -35.6875,15.97792 -35.6875,35.6875 0,19.70957 15.97793,35.6875 35.6875,35.6875 19.70958,0 35.6875,-15.97793 35.6875,-35.6875 0,-19.70958 -15.97792,-35.6875 -35.6875,-35.6875 z m 123.71875,98.15625 c -19.71226,0 -35.6875,15.97794 -35.6875,35.6875 0,19.70957 15.97524,35.6875 35.6875,35.6875 19.70957,0 35.6875,-15.97793 35.6875,-35.6875 0,-19.70956 -15.97793,-35.6875 -35.6875,-35.6875 z M 131.6875,291.6875 C 111.97793,291.6875 96,307.66542 96,327.375 c 0,19.70957 15.97793,35.6875 35.6875,35.6875 19.70958,0 35.6875,-15.97793 35.6875,-35.6875 0,-19.70958 -15.97792,-35.6875 -35.6875,-35.6875 z"
       id="path34" />
  </g>
  <path
     inkscape:connector-curvature="0"
     style="fill:#ffffff;fill-opacity:1;fill-rule:nonzero;stroke:none"
     d="m 62.146351,30.635078 c -4.92739,0 -8.92187,3.99448 -8.92187,8.92187 0,4.927389 3.99448,8.921879 8.92187,8.921879 4.9274,0 8.92188,-3.99449 8.92188,-8.921879 0,-4.92739 -3.99448,-8.92187 -8.92188,-8.92187 z m 30.92969,24.539059 c -4.92806,0 -8.92187,3.99448 -8.92187,8.92187 0,4.9274 3.99381,8.92188 8.92187,8.92188 4.92739,0 8.921879,-3.99448 8.921879,-8.92188 0,-4.92739 -3.994489,-8.92187 -8.921879,-8.92187 z m -62.15625,13.38281 c -4.92739,0 -8.92187,3.99448 -8.92187,8.92188 0,4.92739 3.99448,8.92187 8.92187,8.92187 4.9274,0 8.92188,-3.99448 8.92188,-8.92187 0,-4.9274 -3.99448,-8.92188 -8.92188,-8.92188 z"
     id="path34-9" />
</svg>
