<?xml version="1.0" encoding="UTF-8" standalone="no"?>
<!-- Created with Inkscape (http://www.inkscape.org/) -->

<svg
   xmlns:dc="http://purl.org/dc/elements/1.1/"
   xmlns:cc="http://creativecommons.org/ns#"
   xmlns:rdf="http://www.w3.org/1999/02/22-rdf-syntax-ns#"
   xmlns:svg="http://www.w3.org/2000/svg"
   xmlns="http://www.w3.org/2000/svg"
   xmlns:xlink="http://www.w3.org/1999/xlink"
   xmlns:sodipodi="http://sodipodi.sourceforge.net/DTD/sodipodi-0.dtd"
   xmlns:inkscape="http://www.inkscape.org/namespaces/inkscape"
   id="svg3449"
   height="128"
   width="128"
   version="1.0"
   inkscape:version="0.48.4 r9939"
   sodipodi:docname="sencha-animator.svg">
  <sodipodi:namedview
     pagecolor="#ffffff"
     bordercolor="#666666"
     borderopacity="1"
     objecttolerance="10"
     gridtolerance="10"
     guidetolerance="10"
     inkscape:pageopacity="0"
     inkscape:pageshadow="2"
     inkscape:window-width="1360"
     inkscape:window-height="707"
     id="namedview38"
     showgrid="false"
     inkscape:zoom="3.6875"
     inkscape:cx="52.303069"
     inkscape:cy="53.724815"
     inkscape:window-x="-2"
     inkscape:window-y="33"
     inkscape:window-maximized="1"
     inkscape:current-layer="svg3449" />
  <metadata
     id="metadata56">
    <rdf:RDF>
      <cc:Work
         rdf:about="">
        <dc:format>image/svg+xml</dc:format>
        <dc:type
           rdf:resource="http://purl.org/dc/dcmitype/StillImage" />
        <dc:title></dc:title>
      </cc:Work>
    </rdf:RDF>
  </metadata>
  <defs
     id="defs3451">
    <linearGradient
       id="linearGradient3514"
       y2="-9.1034"
       gradientUnits="userSpaceOnUse"
       x2="66.492"
       gradientTransform="matrix(.96826 0 0 .97948 2.179 .16587)"
       y1="-42.638"
       x1="67.952">
      <stop
         id="stop4620"
         style="stop-color:#37414b"
         offset="0" />
      <stop
         id="stop4622"
         style="stop-color:#37414b;stop-opacity:0"
         offset="1" />
    </linearGradient>
    <linearGradient
       id="linearGradient3516"
       y2="-11.847"
       gradientUnits="userSpaceOnUse"
       x2="58.98"
       gradientTransform="matrix(.96826 0 0 .97948 2.179 .16587)"
       y1="-118.55"
       x1="57.173">
      <stop
         id="stop4596"
         offset="0" />
      <stop
         id="stop4598"
         style="stop-opacity:0"
         offset="1" />
    </linearGradient>
    <linearGradient
       id="linearGradient3519"
       y2="50.369"
       gradientUnits="userSpaceOnUse"
       x2="76.558"
       gradientTransform="matrix(.96826 0 0 .97948 3.2423 -129.19)"
       y1="13.164"
       x1="76.558">
      <stop
         id="stop3392"
         style="stop-color:#425e7b"
         offset="0" />
      <stop
         id="stop3394"
         style="stop-color:#7a91a7"
         offset="1" />
    </linearGradient>
    <linearGradient
       id="linearGradient3521"
       y2="-8.7399"
       gradientUnits="userSpaceOnUse"
       x2="60.217"
       gradientTransform="matrix(.96826 0 0 .97948 2.179 .16587)"
       y1="-123.72"
       x1="60.395">
      <stop
         id="stop3392-4-8"
         style="stop-color:#425e7b"
         offset="0" />
      <stop
         id="stop3394-8-0"
         style="stop-color:#7a91a7"
         offset="1" />
    </linearGradient>
    <radialGradient
       id="radialGradient3349"
       gradientUnits="userSpaceOnUse"
       cy="45.647"
       cx="42.148"
       gradientTransform="matrix(0.9469,0,0,1.1603514,3.5954,-30.581727)"
       r="58.984">
      <stop
         id="stop2699-5"
         style="stop-color:#868686"
         offset="0" />
      <stop
         id="stop2701-7"
         style="stop-color:#4a4a4a"
         offset="1" />
    </radialGradient>
    <linearGradient
       id="linearGradient4168">
      <stop
         stop-color="#fd84af"
         offset="0"
         id="stop4170" />
      <stop
         stop-color="#ec538c"
         offset="1"
         id="stop4172" />
    </linearGradient>
    <linearGradient
       gradientTransform="matrix(4.8484856,0,0,4.8484856,-1373.0911,-112.48489)"
       y2="124"
       x2="384"
       y1="28"
       x1="384"
       gradientUnits="userSpaceOnUse"
       id="linearGradient3903"
       xlink:href="#linearGradient3894"
       inkscape:collect="always" />
    <linearGradient
       id="linearGradient3894">
      <stop
         style="stop-color:#ebebeb;stop-opacity:1;"
         offset="0"
         id="stop3896" />
      <stop
         id="stop3902"
         offset="1"
         style="stop-color:#bebebe;stop-opacity:1;" />
    </linearGradient>
  </defs>
  <rect
     id="rect892"
     style="stroke:url(#linearGradient3521);stroke-width:.97385;fill:url(#linearGradient3519)"
     transform="scale(1,-1)"
     ry="29.296"
     height="115.54"
     width="114.22"
     y="-122.25"
     x="7.0394" />
  <rect
     id="rect892-2"
     style="stroke:url(#linearGradient3516);stroke-width:.97385;fill:url(#linearGradient3514)"
     transform="scale(1,-1)"
     ry="28.993"
     height="114.35"
     width="114.22"
     y="-121.46"
     x="7.0599" />
  <path
     id="rect895"
     style="fill:url(#radialGradient3349)"
     d="M 30.571,7.0104 C 17.443,7.9639461 8.021,22.332337 7.398,30.734952 7.347858,31.726986 7.309228,32.736584 7.309228,33.747587 l 0,59.51411 c 0,15.514483 15.50555,28.381243 22.318,28.381243 l 67.038,0 c 14.587392,0 24.318002,-16.75328 24.318002,-26.343752 l 0,-65.217049 c -0.21,-6.044218 -12.29,-22.0884456 -25.926002,-23.0419916 -47.846,0.8815207 -20.497,-0.02608 -64.483,-0.02608 z"
     inkscape:connector-curvature="0"
     sodipodi:nodetypes="ccssssscccc" />
  <rect
     id="rect892-2-7-8"
     style="opacity:.15891;stroke:#000;stroke-width:4.8445;fill:none"
     transform="scale(1,-1)"
     ry="28.993"
     height="114.35"
     width="114.22"
     y="-121.16"
     x="6.8683" />
  <rect
     id="rect892-2-7-1"
     style="opacity:.15891;stroke:#000;stroke-width:7.7512;fill:none"
     transform="scale(1,-1)"
     ry="28.993"
     height="114.35"
     width="114.22"
     y="-121.16"
     x="6.8686" />
  <rect
     id="rect892-2-7-2-9"
     ry="28.684994"
     style="fill:none;stroke:#000000;stroke-width:1.26221895;stroke-miterlimit:4;stroke-dasharray:none"
     transform="scale(1,-1)"
     height="115.19171"
     width="114.12711"
     y="-121.99847"
     x="7.0708499" />
  <path
     id="path1187"
     style="fill:#fff;fill-opacity:.057143"
     d="m32.415 6.0906c-14.891-4.3298-32.779 19.454-27.93 26.295-0.04334 0.71563-0.07674 1.4439-0.07674 2.1732v10.76c25.899-25.61 66.753-35.479 90.375-39.179-0.22473-0.02628-0.45986-0.03062-0.69067-0.03062-41.576 0.38742-23.653-0.01876-61.677-0.01875z" />
  <g
     transform="matrix(2.4584242,0,0,2.4584242,0.0809708,-2464.149)"
     id="g6210">
    <g
       id="g6204">
      <g
         id="g6199" />
    </g>
  </g>
  <path
     style="fill:#00ce9b;fill-opacity:1;stroke:none"
     d="m 98.881672,28.453043 c -0.184965,2.162193 -1.964975,11.20719 -18.478037,17.273088 -13.40221,5.576272 -19.791458,11.649672 -22.463853,17.164622 -0.71899,0.874998 -1.359962,1.928043 -1.824287,3.078913 -3.25634,6.743317 -2.363508,11.575634 -5.113748,14.325877 -3.000212,2.61328 -7.172342,-8.54967 -11.000872,-13.751202 -1.532598,-2.590728 -11.00087,-5.500573 -11.00087,-2.750333 0,1.034915 16.501257,33.002705 22.001742,35.752949 2.74733,0 1.364225,-0.997502 9.479188,-18.492167 10e-4,0.0012 0.01595,0.0187 0.01595,0.0187 4.985337,-13.519089 8.40872,-24.311589 21.873682,-28.891017 2.750243,1.373748 3.105715,1.02431 1.040888,2.998705 -8.26784,7.636048 -12.879015,16.36403 -17.704673,26.299277 26.600585,0.682885 34.379488,-31.686897 33.17488,-53.027397 z"
     id="path4670"
     inkscape:connector-curvature="0" />
</svg>
