<?xml version="1.0" encoding="UTF-8" standalone="no"?>
<!-- Created with Inkscape (http://www.inkscape.org/) -->
<svg id="svg3449" xmlns:rdf="http://www.w3.org/1999/02/22-rdf-syntax-ns#" xmlns="http://www.w3.org/2000/svg" height="128" width="128" version="1.0" xmlns:cc="http://creativecommons.org/ns#" xmlns:xlink="http://www.w3.org/1999/xlink" xmlns:dc="http://purl.org/dc/elements/1.1/">
 <metadata id="metadata56">
  <rdf:RDF>
   <cc:Work rdf:about="">
    <dc:format>image/svg+xml</dc:format>
    <dc:type rdf:resource="http://purl.org/dc/dcmitype/StillImage"/>
    <dc:title/>
   </cc:Work>
  </rdf:RDF>
 </metadata>
 <defs id="defs3451">
  <linearGradient id="linearGradient3514" y2="-9.1034" gradientUnits="userSpaceOnUse" x2="66.492" gradientTransform="matrix(.96826 0 0 .97948 2.179 .16587)" y1="-42.638" x1="67.952">
   <stop id="stop4620" style="stop-color:#37414b" offset="0"/>
   <stop id="stop4622" style="stop-color:#37414b;stop-opacity:0" offset="1"/>
  </linearGradient>
  <linearGradient id="linearGradient3516" y2="-11.847" gradientUnits="userSpaceOnUse" x2="58.98" gradientTransform="matrix(.96826 0 0 .97948 2.179 .16587)" y1="-118.55" x1="57.173">
   <stop id="stop4596" offset="0"/>
   <stop id="stop4598" style="stop-opacity:0" offset="1"/>
  </linearGradient>
  <linearGradient id="linearGradient3519" y2="50.369" gradientUnits="userSpaceOnUse" x2="76.558" gradientTransform="matrix(.96826 0 0 .97948 3.2423 -129.19)" y1="13.164" x1="76.558">
   <stop id="stop3392" style="stop-color:#425e7b" offset="0"/>
   <stop id="stop3394" style="stop-color:#7a91a7" offset="1"/>
  </linearGradient>
  <linearGradient id="linearGradient3521" y2="-8.7399" gradientUnits="userSpaceOnUse" x2="60.217" gradientTransform="matrix(.96826 0 0 .97948 2.179 .16587)" y1="-123.72" x1="60.395">
   <stop id="stop3392-4-8" style="stop-color:#425e7b" offset="0"/>
   <stop id="stop3394-8-0" style="stop-color:#7a91a7" offset="1"/>
  </linearGradient>
  <radialGradient id="radialGradient3349" gradientUnits="userSpaceOnUse" cy="45.647" cx="42.148" gradientTransform="matrix(.94690 0 0 1.139 3.5954 -29.89)" r="58.984">
   <stop id="stop4662" style="stop-color:#666" offset="0"/>
   <stop id="stop4664" style="stop-color:#282828" offset="1"/>
  </radialGradient>
  <filter id="filter3174-5" color-interpolation-filters="sRGB">
   <feGaussianBlur id="feGaussianBlur3176-4" stdDeviation="1.71"/>
  </filter>
  <linearGradient id="ButtonShadow-4" x1="45.448" gradientUnits="userSpaceOnUse" y1="92.54" gradientTransform="scale(1.0059 .99417)" x2="45.448" y2="7.0165">
   <stop id="stop3750-3" offset="0"/>
   <stop id="stop3752-57" style="stop-opacity:.58824" offset="1"/>
  </linearGradient>
  <filter id="filter3174-0" color-interpolation-filters="sRGB">
   <feGaussianBlur id="feGaussianBlur3176-9" stdDeviation="1.71"/>
  </filter>
  <filter id="filter3174-7" color-interpolation-filters="sRGB">
   <feGaussianBlur id="feGaussianBlur3176-7" stdDeviation="1.71"/>
  </filter>
  <clipPath id="clipPath3613-9">
   <rect id="rect3615-2" style="fill:#fff" rx="6" ry="6" height="84" width="84" y="6" x="6"/>
  </clipPath>
  <linearGradient id="linearGradient3613-3" x1="48" gradientUnits="userSpaceOnUse" y1="20.221" x2="48" y2="138.66">
   <stop id="stop3739-03" style="stop-color:#fff" offset="0"/>
   <stop id="stop3741-5" style="stop-color:#fff;stop-opacity:0" offset="1"/>
  </linearGradient>
  <filter id="filter3794-30" height="1.384" width="1.384" color-interpolation-filters="sRGB" y="-.192" x="-.192">
   <feGaussianBlur id="feGaussianBlur3796-38" stdDeviation="5.28"/>
  </filter>
  <filter id="filter3174-8" color-interpolation-filters="sRGB">
   <feGaussianBlur id="feGaussianBlur3176-3" stdDeviation="1.71"/>
  </filter>
  <clipPath id="clipPath3613-26">
   <rect id="rect3615-4" style="fill:#fff" rx="6" ry="6" height="84" width="84" y="6" x="6"/>
  </clipPath>
  <filter id="filter3794-67" height="1.384" width="1.384" color-interpolation-filters="sRGB" y="-.192" x="-.192">
   <feGaussianBlur id="feGaussianBlur3796-4" stdDeviation="5.28"/>
  </filter>
  <filter id="filter3174-4" color-interpolation-filters="sRGB">
   <feGaussianBlur id="feGaussianBlur3176-0" stdDeviation="1.71"/>
  </filter>
  <filter id="filter3174-1" color-interpolation-filters="sRGB">
   <feGaussianBlur id="feGaussianBlur3176-1" stdDeviation="1.71"/>
  </filter>
  <linearGradient id="linearGradient9285" y2="7.0165" gradientUnits="userSpaceOnUse" x2="45.448" gradientTransform="matrix(1.0059 0 0 .99417 -59.657 2.8358)" y1="92.54" x1="45.448">
   <stop id="stop3750-7" offset="0"/>
   <stop id="stop3752-3" style="stop-opacity:.58824" offset="1"/>
  </linearGradient>
 </defs>
 <rect id="rect892" style="stroke:url(#linearGradient3521);stroke-width:.97385;fill:url(#linearGradient3519)" transform="scale(1,-1)" ry="29.296" height="115.54" width="114.22" y="-122.25" x="7.0394"/>
 <rect id="rect892-2" style="stroke:url(#linearGradient3516);stroke-width:.97385;fill:url(#linearGradient3514)" transform="scale(1,-1)" ry="28.993" height="114.35" width="114.22" y="-121.46" x="7.0599"/>
 <path id="rect895" style="fill:url(#radialGradient3349)" d="m30.571 7.0104c-13.128 0.936-22.55 15.04-23.173 23.288-0.050142 0.97378-0.088772 1.9648-0.088772 2.9572v58.419c0 15.229 11.191 27.859 22.318 27.859h67.038c15.69 0 24.318-16.445 24.318-25.859v-64.017c-0.21-5.933-12.29-21.682-25.926-22.618-47.846 0.8653-20.497-0.0256-64.483-0.0256z"/>
 <rect id="rect892-2-7-8" style="opacity:.15891;stroke:#000;stroke-width:4.8445;fill:none" transform="scale(1,-1)" ry="28.993" height="114.35" width="114.22" y="-121.16" x="6.8683"/>
 <rect id="rect892-2-7-1" style="opacity:.15891;stroke:#000;stroke-width:7.7512;fill:none" transform="scale(1,-1)" ry="28.993" height="114.35" width="114.22" y="-121.16" x="6.8686"/>
 <rect id="rect892-2-7-2-9" ry="28.067" style="stroke:#000;stroke-width:1.0489;fill:none" transform="scale(1,-1)" height="112.71" width="114.14" y="-120.31" x="7.0644"/>
 <path id="path1187" style="fill:#fff;fill-opacity:.057143" d="m32.415 6.0906c-14.891-4.3298-32.779 19.454-27.93 26.295-0.04334 0.71563-0.07674 1.4439-0.07674 2.1732v10.76c25.899-25.61 66.753-35.479 90.375-39.179-0.22473-0.02628-0.45986-0.03062-0.69067-0.03062-41.576 0.38742-23.653-0.01876-61.677-0.01875z"/>
 <g id="layer2" style="display:none" transform="translate(137.63 15.959)">
  <rect id="rect3745" style="opacity:.9;filter:url(#filter3174-5);fill:url(#ButtonShadow-4)" rx="6" ry="6" height="85" width="86" y="7" x="5"/>
 </g>
 <g id="layer2-3" style="display:none" transform="translate(146.29 14.997)">
  <rect id="rect3745-4" style="opacity:.9;filter:url(#filter3174-0);fill:url(#ButtonShadow-4)" rx="6" ry="6" height="85" width="86" y="7" x="5"/>
 </g>
 <g id="layer2-4" style="display:none" transform="translate(176.76 -8.736)">
  <rect id="rect3745-7" style="opacity:.9;filter:url(#filter3174-7);fill:url(#ButtonShadow-4)" rx="6" ry="6" height="85" width="86" y="7" x="5"/>
 </g>
 <g id="layer2-2" style="display:none" transform="translate(143.15 5.055)">
  <rect id="rect3745-9" style="opacity:.9;filter:url(#filter3174-8);fill:url(#ButtonShadow-4)" rx="6" ry="6" height="85" width="86" y="7" x="5"/>
 </g>
 <g id="layer5-4" style="display:none" transform="translate(143.15 5.055)">
  <rect id="rect3171-7" style="opacity:.3;filter:url(#filter3794-30);stroke:#fff;stroke-linecap:round;stroke-width:.5;fill:url(#linearGradient3613-3)" clip-path="url(#clipPath3613-9)" rx="12" ry="12" height="66" width="66" y="15" x="15"/>
 </g>
 <g id="layer2-1" style="display:none" transform="translate(160.47 -5.8175)">
  <rect id="rect3745-8" style="opacity:.9;filter:url(#filter3174-4);fill:url(#ButtonShadow-4)" rx="6" ry="6" height="85" width="86" y="7" x="5"/>
 </g>
 <g id="layer5-46" style="display:none" transform="translate(160.47 -5.8175)">
  <rect id="rect3171-2" style="opacity:.1;filter:url(#filter3794-67);stroke:#fff;stroke-linecap:round;stroke-width:.5;fill:url(#linearGradient3613-3)" clip-path="url(#clipPath3613-26)" rx="12" ry="12" height="66" width="66" y="15" x="15"/>
 </g>
 <rect id="rect3745-82" style="opacity:.9;filter:url(#filter3174-1);display:none;fill:url(#linearGradient9285)" rx="6" ry="6" height="85" width="86" y="9.8358" x="-54.657"/>
 <g id="g64105" transform="matrix(.25 0 0 .25 0 -.0000128)">
  <path id="path64005" style="fill:#fff" d="m325.87 130.9c3.02-0.88 6.22-1.12 9.15-2.36 4.75 3.47 9.22 7.32 14 10.74 3.77-0.74 6.78 1.99 9.34 4.32 2.1 1.93 3.95 4.28 4.3 7.2 2.95 4.19 6.54 7.89 9.4 12.15 0.29-1.77 1.3-2.66 3.05-2.64 2.63 2.55 4.44 5.78 6.47 8.8 7.45 11.38 13.41 23.77 17.39 36.78 0.67 4.2 2.56 8.06 3.4 12.22 4.76 21.91 4.64 44.89-0.3 66.76-8.38 36.44-31.07 69.31-62.12 90.12-2.78 1.64-5.2 4.38-8.57 4.65l0.22 0.69c-26.97 15.64-58.83 22.79-89.87 19.69-25.96-2.47-51.24-11.89-72.43-27.09-0.05-0.19-0.15-0.59-0.21-0.78 2.09 0.18 3.83 1.58 5.84 2.13 0.62-1.01 1.25-2.01 1.9-2.99 3.8 3.58 8.31 6.55 13.3 8.13 2.04 1 3.64-0.85 5.19-1.86 6.66 4.36 13.3 8.76 20 13.06-0.09 0.62-0.29 1.86-0.39 2.48 4.84 3.36 10.83 4.07 16.57 3.74-0.12-0.57-0.38-1.7-0.51-2.26-4.72 1.36-9.65 0.36-13.89-1.93 0.16-0.71 0.47-2.13 0.63-2.84-4.41-2.75-9.03-5.16-13.29-8.16-3.05-2.06-6.07-4.31-9.57-5.55-1.93 0.56-3.68 2.41-5.81 1.55-3.69-1.16-6.91-3.43-9.89-5.85-1.82-1.54-4.02-3.23-3.92-5.89-0.49 0.24-1.47 0.72-1.96 0.96 0.74 1.11 1.49 2.19 2.27 3.28-0.51 0.39-1.02 0.77-1.52 1.16-2.63-3.08-5.79-5.74-9.44-7.51 2.17 3.56 6.2 5.45 8.28 9.08-4.79-2.24-8.58-6.06-12.31-9.69 0.55 3.85 4.99 4.52 6.49 7.61l0.28 0.6c-14.26-10.13-26.31-23.24-36.11-37.7-4.75-7-8.51-14.59-12.39-22.08 0.7-0.01 2.09-0.03 2.79-0.04-0.66-4.01-2.1-7.84-3.5-11.63-1.14-2.79-2.1-5.85-4.53-7.81-2.49-6.9-3.37-14.23-4.41-21.45-0.33 0.07-1 0.19-1.34 0.26-1.93-9.02-1.69-18.25-1.74-27.41 2.1 0.59 2.01-1.45 2.23-2.65 0.34-3.35 0.29-6.72 0.51-10.07 0.76-2.7 1.17-5.48 1.56-8.26 4.17-0.5 7.62 4.09 11.84 1.66 4.14-3.51 3.04-9.31 3.56-14.07 0.75-3.45 4.71-3.13 7.38-2.65 0.26 1.55 0.55 3.1 0.86 4.65 0.82-2.12 1.05-4.77-0.9-6.36-2.54-1.12-6.04-0.72-7.77 1.64-2.37 2.64-1.45 6.44-1.82 9.66-0.14 2.8-2.35 5.98-5.46 5.65-2.36-0.74-4.56-1.89-6.88-2.76 0.9-3.32 1.84-6.63 2.87-9.92 3.58-0.73 3.94-4.98 5.42-7.69-0.49-0.77-0.98-1.54-1.47-2.3-0.38 1.42-0.75 2.85-1.13 4.28-4.6 1.31-4.16 7.12-5.76 10.77 0.32-6.49 3.1-12.48 5.22-18.52 2.96-8.07 7.07-15.62 11.1-23.18 1.24-1.07 2.69-1.85 4.2-2.47 2.46-3.14 3.54-8.01 8.02-8.81 3.74-2.92 3.72-8.13 7.18-11.18 2.19-2.18 4.25-4.52 6.64-6.49 3.38-1.92 7.09-3.37 10.03-6.01 2.21-1.79 3.21-4.75 5.71-6.23 2.02-1.29 4.39-1.81 6.72-2.18 0.63 0.86 1.26 1.73 1.89 2.6 2.27-0.98 4.59-1.85 6.94-2.62 0.93 1.57 1.83 3.15 2.71 4.75-2.3 3.9-3.78 8.43-7.15 11.58-1.78 1.7-4.41 0.87-6.6 1.06 1.18 1.77 2.57 3.42 3.5 5.35-0.37 5.39-3.57 9.95-5.93 14.63-2.27 3.98-3.42 8.44-5.26 12.61-0.85-0.95-1.69-1.9-2.52-2.86 0.8-2.88 1.67-5.73 2.5-8.59-1.24 0.67-2.48 1.36-3.71 2.03-0.71 3.01-2.23 6.62-0.42 9.46 2.2 2.7 5.61-0.11 8.37 0.59 1 3.52 1.19 8.11-1.86 10.7-2.16 1.89-4.99 0.66-7.47 0.4-3.08-0.77-5.36 2.05-7.08 4.15-5.13 6.93-5.02 15.99-4.05 24.16-6.53 0.71-14.22 3.66-19.89-1.03 0.93 1.64 1.7 3.76 3.84 4.12 5.88 1.26 11.91-0.35 17.62-1.76-2.15 6.62 0.91 13.94-1.58 20.6-0.5 1.18-1.21 2.76-2.7 2.8-2.55-0.8-5.22-3.19-7.94-1.57-3.69 1.66-3.95 6.28-4.1 9.78-0.32 4.16 0.45 9.13 4.41 11.4 3.13 1.21 5.1-2.46 7.75-3.38 1.68 1.05 2.13 3.11 2.5 4.91 1.31 7.51 1.77 15.15 1.83 22.77-8 1.05-16.62-0.56-23.21-5.37-0.04 0.35-0.13 1.06-0.17 1.41 6.82 5.32 15.89 6.71 24.3 5.66-3.94 5.33-1.9 12.48-0.27 18.29 1.04 4.17 4.28 7.7 8.66 8.31 3.5 1.12 6.55-1.06 9.37-2.78 4.98 1.74 7.03 7.27 8.25 11.96-0.82 1.36-1.43 3.69-3.51 3.38-3.97 0.3-7.23-2.36-10.93-3.23-3.35-0.63-6.72 2.26-6.58 5.67 0.11 4.92 2.73 9.3 4.86 13.61-4.24-0.91-8.35-2.34-12.57-3.29 3.88 3.44 9.44 3.77 14.32 4.72 0.7 3.88 3.76 6.64 6.34 9.39 3.82 3.68 6.72 8.19 10.48 11.91l2.01 0.24c-4.38-8.05-11.87-13.67-17.16-21 8.04 0.97 16.14 1.4 24.22 1.8 5.02 0.29 10.16-0.07 15.03 1.44-0.11 3.13-1.98 6.07-1.47 9.21 3.15 4.15 8.84 3.76 13.48 3.81 6.14-0.04 13.26-0.08 17.84-4.86-2.08-2.38-4.99-3.75-7.27-5.88-0.61-1.59 1.23-2.47 2.18-3.34 5.25-3.18 11.42-4.25 17.29-5.74 6.22-1.61 12.59-2.52 18.95-3.4-0.22 5.86 4.83 10.24 9.8 12.35 1.57 0.95 4.64 1.34 4.1 3.85-1.11 2.78-4.12 4.19-6.92 4.61-4.26 0.91-8.76 0.6-12.87 2.17 4.34 0.26 8.66-0.38 12.95-0.99 3.11-0.44 6.31-1.77 8.09-4.49 0.96-1.45 1.23-3.82-0.36-4.92-3.11-2.29-7.19-3.11-9.81-6.09-2.83-2.62-3.34-6.65-5.43-9.76-2.03-3.32-3.98-7.32-2.6-11.26 2.03-5.4 7.09-10 13.02-10.3 3.51-0.36 6.97 0.74 10.48 0.56 3.18-0.78 3.88-4.57 3.88-7.35-0.07-3.83-0.42-8.18-3.18-11.11-3.34-3.6-9.65-3.16-12.8 0.46-2.96 3.23-6.77 5.6-10.84 7.15-2.25 0.78-3.91-1.49-5.12-3.02-4.91-6.95-3.94-15.92-3.91-23.95 10.4-0.62 21.21-0.57 30.93-4.83 3.66-1.65 7.41-3.25 10.61-5.71 1.91-1.31 2.31-4.1 1.22-6.05-2.3-2.53-5.83-3.59-7.93-6.31-0.15-4.77 4.97-7.62 8.71-9.52 5.95-2.19 12.52-4.84 18.91-3.25 4.33 4.36-2.77 8.96-1.52 13.75 8.94-1.37 17.23-5.28 25.51-8.76 8.53-3.53 16.11-8.9 23.35-14.56 4.59-3.71 8.53-8.32 13.9-10.98 4.01 3.71 3.29 9.65 4.83 14.44 1.32 2.87 4.85 1.6 6.51-0.22 4.33-3.31 3.57-9.76 0.99-13.93-0.99 3.88-0.76 7.89-0.78 11.85-1.6 0.65-3.21 1.28-4.83 1.86-0.39-5.09-0.71-10.81-4.32-14.78-1.74-2.07-4.47-0.39-6.19 0.82-5.8 4.54-10.9 9.94-17 14.11-2.97 2.09-6.89 2.93-8.86 6.26 0.27-9.23-2.8-18.53-8.36-25.87-1.2-1.9-3.74-2.09-5.63-1.26-1.41 2.22-1.85 5.18-4.15 6.73-2.52 1.5-5.96 2.87-8.66 1-3.33-2.33-5.02-6.39-5.77-10.26-0.47-2.51-0.16-5.68 2.13-7.23 2.98-1 6.18-0.73 9.22-1.43 2.36-2.02 0.87-5.54 0.11-8-1.92-6.13-7.24-10.02-11.1-14.85-4.17-5-8.45-9.97-11.88-15.52 0.89-1.69 1.5-4.11 3.65-4.6 2.94-0.38 6.57 2.27 8.84-0.59 2.75-4.21-0.98-9.04-4.1-11.86 0.83 3.21 3.9 5.67 3.66 9.14-1.39 3.09-5.02 1.05-7.55 1.19-3.17-0.53-5.67 2.78-5.64 5.7-0.28 2.12 1.24 3.77 2.38 5.36 3.74 4.79 7.43 9.61 11.52 14.11-7.67 2.58-15.17 6.01-23.26 7-1.73 0.38-3.31-0.47-4.86-1.06 0.75-2.49 1.55-4.96 2.26-7.45-0.25-0.61-0.74-1.81-0.99-2.41-6.31-2.85-13.79-2.3-19.86 0.87-3.24 1.82-6.85 3.79-8.01 7.6 0.98 2.01 1.97 4.22 4.02 5.38 2.23 1.19 4.82 1.39 7.1 2.47 0.29 2.39-2.5 3.61-4.34 4.38-9.58 2.99-19.58 4.29-29.42 6.14-0.69 1.17-1.39 2.34-2.1 3.5 1.63 6.37 3.87 12.63 4.61 19.19 0.39 1.8-1.76 2.68-3.07 3.27-4.08 1.22-8.19-1.67-12.36-0.56-5.03 0.45-8.56 5.38-8.4 10.24-0.59 6.25 1.68 14.35 8.38 16.32 4.13 0.73 6.01-3.47 8.71-5.6 3.61-1.14 7.86-0.69 10.64 2.05 6.23 5.08 6.5 13.82 6.31 21.19-14.25 0.94-28.37 3.97-41.77 8.9-2.22 1.01-5.81 2.01-5.33 5.13 1.54 3.5 5.08 5.46 7.59 8.19-4.95 4.27-11.83 4.92-18.03 5.98-3.31 0.59-8.4 0.01-8.68-4.23 1.77-2.17 5.12-4.07 3.96-7.39-2.13-5.11-8.05-7.74-13.36-7.33-7.85 0.42-15.72 1.08-23.48 2.38 0.15-7.26-0.59-14.51-1.61-21.69-0.53-2.77-1.03-6.34-3.98-7.58-2.58-0.08-4.24 2.32-6.13 3.69-3.47-1.05-5.2-4.58-4.94-8.03 0.22-3.42-0.22-8.09 3.32-9.99 2.99-1.86 5.79 2.46 8.77 1.23 2.61-1.8 3.42-5.14 3.67-8.12 0.42-5.55-0.07-11.12 0.09-16.67 0.32-0.05 0.97-0.13 1.3-0.18-1.23-0.75-1.79-1.85-1.7-3.3-0.48-7.48-0.52-15.97 4.88-21.85 1.66-1.97 4.38-1.52 6.66-1.64 0.2 0.48 0.61 1.44 0.81 1.92-1.45 0.23-2.86 0.61-4.22 1.13 1.34-0.01 2.69-0.05 4.04-0.13 0.49-0.7 1-1.39 1.52-2.07 7.44-1.07 9.46-10.45 6.87-16.48 5.99 4 4.66 12.58 0.23 17.2 8.01-0.58 16.22-1.86 23.21-6.09-1.5-1.98-4.05-3.95-2.99-6.76 3.07-3.79 8.01-5.9 12.75-6.54 4.01-0.86 7.23 3.28 6.71 7.03 8.66-1.5 17-4.32 25.4-6.87-1.92-1.07-4.13-1.21-6.2-1.78-1.51-1.3-1.74-3.41-2.27-5.2-0.96-4.77-1.67-9.59-2.49-14.38 6.59-1.02 13.1-2.64 19.22-5.3-1.31-3.32-1.89-8.04 1.52-10.31 4.32-2.85 10.23-3.19 15.04-1.46 2.6 1.25 0.6 4.89 1.98 6.83 5.51 1.36 10.93-0.91 16.16-2.37 7.37-2.28 14.86-4.14 22.15-6.68 4.81-1.72 10.15-2.78 15.19-1.52 1.68 1.67 2.6 4.04 4.6 5.39 1.55 0.69 3.31 0.68 4.97 0.95-2.02-1.55-4.04-3.1-5.91-4.82 1.21-1.79 2.2-3.78 3.79-5.28z"/>
  <path id="path64007" style="fill:#3b3839" d="m153.53 150.97c6.55-0.93 7.28-9.86 13.38-11.62-4.28 5.57-8.66 11.05-12.65 16.83 0.8 0.01 2.39 0.02 3.18 0.02-0.78 3.54-4.95 5.01-5.14 8.63-2.81-3.52-7.3-0.01-8.31 3.27-1.14 2.49-1.87 5.96-4.93 6.74-3.07 1.55-6.85-0.13-9.77 1.45-2.87 3.72-4.82 8.06-6.86 12.26-2.04 3.87-1.25 8.42-2.5 12.53-1.25-2.08-1.94-4.67-1.2-7.04 1.57-5.37 4.45-10.22 6.95-15.19 0.87-1.55 1.01-3.59 2.55-4.68 3.39-2.67 8.16 0.67 11.39-2.52 1.65-3.72 3.01-8.05 6.93-10.01 1.73-1.24 3.75-0.84 5.62-0.16 1-1.25 1.94-2.55 2.91-3.84-0.92 0.18-2.77 0.53-3.69 0.71 1.43-2.37 3-4.65 4.61-6.9-1.24 0.33-3.73 0.98-4.98 1.3 1.18-2.09 2.48-4.11 3.78-6.13 0.54-0.13 1.6-0.39 2.14-0.52-1.15 1.61-2.31 3.22-3.41 4.87z"/>
  <path id="path64009" style="fill:#3b3839" d="m330.79 152.08c-1.32-3.6 1.46-7.54 5.15-7.88 3.86-0.94 6.75 2.24 9.39 4.47 0.94-0.88 1.89-1.76 2.84-2.64 1.94 2.13 3.91 4.24 5.93 6.3-3.18 2.34-5.19-1.69-7.42-3.31 1.14 2.56 3.19 4.56 4.43 7.06 1.14 3.03-2.66 4.05-4.5 5.41l0.81 1.25c-0.45 0.01-1.35 0.05-1.8 0.06-1.1 2.41-3.9 3.56-6.06 1.69-3.88-3.26-7.06-7.63-8.77-12.41z"/>
  <path id="path64011" style="fill:#fff" d="m335.35 144.68c5 1.9 8.51 6.17 11.73 10.24 1.2 1.36 1.79 3.09 2.19 4.84-2.28-0.98-3.6-3.12-5.12-4.95-2.73-3.55-6.1-6.55-8.8-10.13z"/>
  <path id="path64013" style="fill:#fff" d="m332.33 146.04c4.91 4.4 8.6 9.92 12.95 14.84-0.43 0.73-0.86 1.45-1.29 2.18-3.57-2.1-5.79-5.65-7.96-9.03-1.55-2.5-3.51-4.93-3.7-7.99z"/>
  <path id="path64015" style="fill:#3b3839" d="m258.94 154.84c1.55-0.25 3.12-0.43 4.69-0.6 0.08 0.83 0.26 2.5 0.34 3.34 2.3-0.34 4.56-0.99 6.44-2.42 1.29 0.45 2.58 0.92 3.86 1.4-0.48 3.72-0.02 7.66-1.73 11.13-1.2 2.81-3.25 5.19-5.71 6.98 2.32-5.26 4.93-10.74 3.62-16.66-4.31 0.44-8.39 1.95-12.45 3.38 1.16 2.07 2.26 4.17 3.05 6.41-4.67 0.17-4.84-5.4-7.74-7.9 3.05 0.04 6.08-0.39 8.9-1.62-1.08-1.16-2.17-2.31-3.27-3.44z"/>
  <path id="path64017" style="fill:#3b3839" d="m280.9 158.11c0.9 0.12 2.71 0.37 3.61 0.5-0.55 2.11-1.99 4.29-1.18 6.54 0.91 2.63 2.45 5.06 2.69 7.91-3.56-0.53-3.49-4.78-4.96-7.33-1.3 1.12-2.6 2.25-4 3.26 1.25-3.68 4.4-6.69 3.84-10.88z"/>
  <path id="path64019" style="fill:#3b3839" d="m237.15 175.17c3.2-1.11 4.66-4.65 7.84-5.7 2.32-0.04 3.66 2.11 5.01 3.66-3.6 0.98-7.2 1.96-10.65 3.38-0.74-0.45-1.47-0.89-2.2-1.34z"/>
  <path id="path64021" style="fill:#3b3839" d="m145.28 181.13c1.18 0.09 2.36 0.19 3.54 0.31-0.56 2.78-1.75 5.35-2.84 7.95-0.48-0.44-0.95-0.88-1.41-1.32 0.87-1.57 1.65-3.2 2.32-4.87-2.89 1.42-2.82 5.12-4.94 7.22 0.84-0.3 2.52-0.89 3.37-1.18-1.21 1.51-2.47 2.99-3.75 4.44 0.92 2.75-1.51 4.88-3.7 5.98-1.47-0.01-2.85-1.08-2.66-2.67-0.29-2.83 2.34-4.68 3.46-7-1.87 1.15-3.43 2.7-4.92 4.3-2.76 0.17-5.52 0.38-8.27 0.58 1.03-3.36 3.12-6.24 6.08-8.15 0.12 0.63 0.35 1.89 0.47 2.52-1.84 0.42-3.48 1.23-4.94 2.43 2.6-0.06 5.2-0.11 7.8-0.24 1.36-1.39 2.82-2.7 4.47-3.75 0.49 3.77-1.65 6.85-3.29 10.01 2.24 0.26 3.65-1.24 4.96-2.74-0.17-0.38-0.5-1.15-0.67-1.53 1.42-4.18 3-8.31 4.92-12.29z"/>
  <path id="path64023" style="fill:#fff" d="m275.45 181.52c4.22-0.95 8.95-1.62 13.05 0.09 2.8 2.62-1.55 6.33-0.58 9.37 0.96 2.38 3.98 2.38 6.14 2.33 8.95-0.63 17.18-4.53 25.66-7.12 3.21 4.83 7.38 9.72 7.41 15.82-3.41 2.13-9.66-0.45-11.89 4.12-2.43 6.1 0.39 13.26 4.73 17.79 3.39 3.56 9.02 2.27 12.48-0.48 2-1.59 2.65-4.19 3.57-6.46 1.25 0.3 3.01-0.13 3.63 1.35 4.6 7.02 7.85 15.15 7.81 23.64-9.89 4.84-19.8 9.8-30.38 12.95 1.93-3.27 4.03-6.97 3.27-10.92-1.4-3.11-5.18-4.69-8.43-4.14-6.26 0.92-12.48 2.8-17.96 6-3.32 2.27-7.14 5.71-6.41 10.17 1.33 3.76 5.83 4.5 8.18 7.35 0.55 1.5-0.52 2.8-1.73 3.55-7.23 4.58-15.35 8.03-23.96 8.61-5.15 0.64-10.43 0.39-15.46 1.74 0.2-7.77-0.04-16.96-6.47-22.43-3.15-3.48-8.25-4.33-12.62-3.1-2.68 1.17-3.71 4.44-6.43 5.52-3.12 0.89-5.46-2.09-6.88-4.44-1.98-4.31-2.49-9.55-0.62-13.98 1.16-2.98 4.48-4.38 7.5-4.32 3.73-0.15 7.46 2.23 11.11 0.66 2.25-0.7 4.41-2.5 4.14-5.1-0.39-7.3-3.5-14.03-5.21-21.05 10.05-1.17 20.03-2.98 29.85-5.4 3.22-0.7 6.64-3.16 6.42-6.81-1.26-2.21-4.17-2.15-6.26-3.1-2.49-0.59-5.17-2.89-4.3-5.69 2.22-3.75 6.73-5.22 10.64-6.52z"/>
  <path id="path64025" style="fill:#3b3839" d="m370.33 188.89c0.04-2.24 2.47-5.02 4.49-2.78 3.92 5.03 5.51 11.59 5.73 17.88 0.01 3.02-0.13 6.77-2.89 8.65-1.53 1.21-3.6 0.6-5.14-0.23-5.53-2.97-9.58-8.36-11.32-14.36 4.11 3.37 6.78 9.74 12.82 9.78 2.27 0.22 3.31-1.95 4.41-3.5-3.96-4.21-8.59-9.24-8.1-15.44z"/>
  <path id="path64027" style="fill:#fff" d="m373.13 190.78c2.93 1.35 4.33 4.47 4.59 7.54-2.11-2.09-4.61-4.3-4.59-7.54z"/>
  <path id="path64029" style="fill:#3b3839" d="m264.73 215.3c13.27-4.26 26.92-7.16 40.37-10.82-0.88 1.43-2.39 2.59-2.58 4.34-1.25 8.38-1.71 16.86-3.19 25.21-3.14-3.17-6.1-6.52-8.79-10.08-1.23 4.41-2 8.94-3.26 13.35-5.49-6.39-10.59-13.12-16.2-19.41-1.5-2-4.18-1.94-6.35-2.59z"/>
  <path id="path64031" style="fill:#fff" d="m291.49 219.12c0.84-4.19 0.93-9.1 4.53-12.03 1.42 0.3 2.84 0.6 4.27 0.89 0 6.65-1.1 13.26-1.58 19.89-2.39-2.9-5.73-5.28-7.22-8.75z"/>
  <path id="path64033" style="fill:#3b3839" d="m388.14 215.46c1.51-4.68 6.54-5.86 10.66-7.17 0.09 0.42 0.26 1.27 0.34 1.69-0.12 1.7-2.05 1.26-3.18 1.69-2.95 0.41-5.35 2.27-7.82 3.79z"/>
  <path id="path64035" style="fill:#fff" d="m284.29 211.94c1.13-0.86 2.26-1.72 3.38-2.59 1.15 0.5 2.29 0.99 3.45 1.48-0.36 2.43-0.72 4.86-1.06 7.29-1.94-2.05-3.89-4.08-5.77-6.18z"/>
  <path id="path64037" style="fill:#fff" d="m275.03 212.83c1.61-0.04 3.23-0.14 4.85-0.05 3.41 2.78 6.11 6.33 9.11 9.54-0.46 2.98-1.13 5.93-1.72 8.89-4.64-5.36-9.21-10.77-13.56-16.36 0.5-0.28 1.5-0.84 2.01-1.12l-0.69-0.9z"/>
  <path id="path64039" style="fill:#3b3839" d="m119.78 234.2c-1.13-1.76-0.46-3.86 0.02-5.7 0.29 1.25 0.57 2.5 0.83 3.76 1.87 0.48 3.79 0.82 5.61 1.49 1.87 0.83 1.91 3.33 2.91 4.85-0.81-0.2-2.42-0.6-3.22-0.8l1.16-0.7c-2.45-0.81-5.76-0.47-7.31-2.9z"/>
  <path id="path64041" style="fill:#3b3839" d="m116.6 237.29c3.37 0.77 6.66 1.84 10.01 2.67l0.12-1.55c1.66 2.2 5.66 2.15 5.8 5.35-3.14-0.5-6.17-1.48-9.19-2.45-0.35 2.93-0.63 5.88-0.53 8.83 1.19-1.31 2.35-2.64 3.52-3.96 2.63 4.18 3.38 10.2 0.06 14.2-2.65 2.96-6.54-0.61-7.16-3.56-1.3-4.93-2.03-10.28-0.94-15.31 0.69 5.36-0.05 12.2 4.71 15.92 4.13 0.8 4.32-4.62 4.28-7.39-1.08 1.04-2.14 2.11-3.21 3.18-0.45 0.07-1.35 0.23-1.8 0.31-1.76-3.97-0.73-8.36-0.46-12.51-2.05-0.82-5.07-0.83-5.21-3.73z"/>
  <path id="path64043" style="fill:#3b3839" d="m391.99 240.53c1.12-0.04 2.23-0.08 3.36-0.11 0.66 5.53 1.41 11.07 1.38 16.65 0.19 5.44 1.14 11.25-1.01 16.43-0.43-5.35 0.01-10.72-0.23-16.07-1.29 1.6-2.54 3.22-3.82 4.82-0.11 4.08 0.45 8.37-1.08 12.26-0.48-3.78-0.32-7.6-0.37-11.39-1.18 1.13-2.34 2.28-3.49 3.44-1.01-0.64-2-1.27-2.98-1.93 5.01-1.48 8.94-5.16 11.89-9.35-0.43-3.9-0.86-7.8-1.3-11.69-0.8-1.02-1.58-2.03-2.35-3.06z"/>
  <path id="path64045" style="fill:#3b3839" d="m177.7 254.91c2.59-10.68 18.06-15.02 26.03-7.62 4.21 3.82 5.03 10.71 2.23 15.57-1.6 2.91-4.93 4.17-6.77 6.87 3.9-0.83 9.75-0.03 10.97-5.01 0.63 2.47 1.19 4.96 1.66 7.47-4.44 0.44-8.84 1.2-13.2 2.13-0.3-2.15-0.6-4.3-0.92-6.44 6.5-4.4 5.6-14.16 0.79-19.45-3.06-3.32-8.55-3.98-12.04-0.92-5.44 4.39-4.61 12.74-1.12 18.11 1.09 1.89 3.31 2.49 5.19 3.3-0.47 0.57-0.94 1.15-1.41 1.72-7.36-1-12.97-8.35-11.41-15.73z"/>
  <path id="path64047" style="fill:#3b3839" d="m389.12 244.09c2.16 1.74 4.79 3.71 4.32 6.89 0.43 2.92-2.01 8.6-5.58 6.27-3.34-4.09-0.3-9.06 1.26-13.16z"/>
  <path id="path64049" style="fill:#fff" d="m387.99 253.12c-0.68-2.29 0.83-4.35 2.04-6.13 2.33 2.16 2.39 6.09 0.57 8.58-1.67 0.85-2.31-1.21-2.61-2.45z"/>
  <path id="path64051" style="fill:#3b3839" d="m115.71 262.48c4.05-1.39 8.05 1.38 10.26 4.61-2.7-1.34-5.35-2.8-8.22-3.74-3.33 3.87-0.06 8.94-1.17 13.39-0.68-0.45-2.06-1.33-2.74-1.77 0.41-0.17 1.25-0.5 1.67-0.66-0.43-3.86-2.07-8.26 0.2-11.83z"/>
  <path id="path64053" style="fill:#3b3839" d="m324.13 269.39c2.81-0.92 5.47-2.22 8.25-3.23-0.99 1.55-2.45 2.69-3.86 3.83 0.72 4.91 2.29 9.64 3.2 14.52 0.88 3.58 1.06 7.41 2.9 10.69 1.5-0.34 3.01-0.65 4.54-0.86-4.36 2.85-9.44 4.45-14.32 6.2 1.29-1.31 2.81-2.36 4.02-3.74-0.21-6.5-2.39-12.76-3.66-19.1-3.22 6.06-5.55 12.56-9.05 18.48-0.88 1.64-2.37 3.65-0.99 5.48 1.75 0.39 3.57 0.01 5.35 0.05-4.76 2.59-10.12 4.08-15.38 5.3 1.51-1.09 3.11-2.04 4.71-3-0.49-7.87-2.98-15.48-4.8-23.12-0.41-3.29-4.1-2.02-6.36-2.23 4.98-2.22 10.27-3.7 15.45-5.36-1.43 1.27-3.02 2.34-4.38 3.69 0.48 6.82 3.28 13.28 4.18 20.07 3.55-6.93 6.77-14.04 10.11-21.08 0.93-1.46-0.54-2.98-0.8-4.43-1.53 0.3-3.06 0.62-4.59 0.87 1.25-1.85 3.52-2.29 5.48-3.03z"/>
  <path id="path64055" style="fill:#3b3839" d="m178.37 270.16c2.65 3.91 7.34 1.86 11.17 1.53 0.49-0.43 0.97-0.86 1.46-1.29 0.36 1.64 0.76 3.28 1.18 4.92-4.13 0.73-8.25 1.42-12.37 2.17-0.43-2.46-0.92-4.9-1.44-7.33z"/>
  <path id="path64057" style="fill:#fff" d="m208.67 288.78c14.31-6.22 29.79-9.06 45.26-10.45-2.25 3.08-1.4 7.03-1.41 10.57 0.41 6.31 1.6 13.49 6.92 17.62 3.28 2.51 7.23-0.14 10.29-1.72 3.32-1.58 5.39-4.77 8.42-6.71 3.75-2.04 8.59 0.45 9.57 4.49 1.02 3.86 1.92 8.98-1 12.19-6.06 0.02-12.8-1.85-18.21 1.81-4.21 3.13-8.28 7.83-7.95 13.41-0.06 3.44 1.95 6.38 3.51 9.28-10.26 1.28-20.38 3.62-30.23 6.73-3.21 1.32-7.36 2.57-8.6 6.17-0.14 3.74 4.21 5.23 6.65 7.19-5.68 3.28-12.49 3.25-18.86 3.11-2.89 0.01-5.66-0.86-8.13-2.33 0.56-2.86 2.19-5.7 1.48-8.68-1.25-2.76-4.73-2.86-7.32-3.07-11.4-0.41-22.79-1.11-34.15-2.22-1.93-4.02-4.39-7.88-5.43-12.25-0.86-2.99 1.53-6.22 4.54-6.52 4.33 0.95 8.33 4.19 12.98 3.17 2.84-0.62 3.67-4.23 3.01-6.69-1.11-4.67-4.16-9.08-8.44-11.36-2.83-1.14-4.77 2.36-7.51 2.35-3.44 0.5-7.4-0.65-8.86-4.08-2.78-6.37-3.99-13.74-1.55-20.43 8.4-1.1 16.84-2.19 25.33-2.23 4.16-0.07 8.44 2.01 10.34 5.83 0.39 3.17-4.45 3.89-4.18 7.04 0.2 3.36 3.56 5.79 6.78 5.78 6.48 0.02 13.01-1.31 18.96-3.91 1.76-0.86 4.6-2.38 3.29-4.76-2.01-2.95-5-5.01-7.55-7.45 0.59-0.75 1.27-1.38 2.05-1.88z"/>
  <path id="path64059" style="fill:#3b3839" d="m120.38 291.26c5.78-0.36 9.13 5.36 12.27 9.31-0.09 0.3-0.28 0.89-0.38 1.19-2.84-3.51-5.77-7.72-10.61-8.37 0.42 2.26 0.32 4.98 1.99 6.78 4.33 2.56 9.43 3.11 14.03 4.97 0.3 0.6 0.91 1.8 1.21 2.4-0.9-0.24-2.71-0.73-3.62-0.98 1.49 6.33 3.91 12.37 6.08 18.48-2.52-1.7-3.39-4.65-4.28-7.38-1.99 1.03-3.63-0.38-5.16-1.5 1.31-0.59 4.5-1.03 3.38-3.21-0.27-1.22-0.55-2.42-0.82-3.63-0.35-1-0.69-2-1.03-3-3.08-1.08-6.16-2.2-9.22-3.33 1.27 5.55 4 10.72 4.75 16.38-4.02-5.87-3.62-13.82-8.23-19.29 1.17-2.81-0.74-5.86-0.36-8.82z"/>
  <path id="path64061" style="fill:#fff" d="m112.6 294.12c0.99 1.4 1.98 2.86 3.37 3.92 1.2 2.79 2.13 5.7 2.9 8.64-0.5-0.04-1.52-0.13-2.02-0.17-1.52-4.1-2.99-8.21-4.25-12.39z"/>
  <path id="path64063" style="fill:#3b3839" d="m380.28 315.57c2.31-4.56 5.1-10.62 10.83-11.2 0.03 0.94 0.07 2.82 0.09 3.76-3.16 3.11-6.85 5.67-10.92 7.44z"/>
  <path id="path64065" style="fill:#3b3839" d="m129.97 313.81c-0.33-1.8-1.14-3.67-0.33-5.45 0.97 0.07 2.92 0.22 3.89 0.29-1.19 1.72-2.42 3.4-3.56 5.16z"/>
  <path id="path64067" style="fill:#3b3839" d="m198.86 310.25c1.35 1.03 2.7 2.09 4.01 3.2-2.46 2.49-4.51 5.33-6.39 8.28 1.12 0.73 2.25 1.46 3.37 2.19 1.5-2.52 2.97-5.14 3.13-8.14 1.52 0.81 2.98 1.73 4.36 2.76-3.53 2.98-5.96 6.96-8.93 10.45 2.21-0.57 4.38-1.25 6.56-1.91-0.45-0.66-1.35-2-1.8-2.66l3.07 1.16 0.08-1.8c3.56-3.16 5.13-7.87 5.42-12.5 1.62 1.05 3.21 2.14 4.78 3.27-2.2 1.99-4.01 4.34-5.63 6.81 2.53 0.76 5.02-0.19 7.4-1.03 0.69-2.36 1.13-4.78 1.26-7.23 1.45 0.52 2.89 1.08 4.32 1.66-1.01 1.27-2.03 2.55-3.04 3.83 1.81-0.15 3.62-0.26 5.43-0.32-1.2 2.1-3.74 2.41-5.8 3.2l1.24 2.96c1.69-0.11 3.4-0.16 5.04 0.36-1.54 0.68-3.11 1.27-4.69 1.85 0.23 1.09 0.46 2.19 0.7 3.29 2.07-0.13 4.15-0.17 6.23-0.07-1.14 2.14-3.72 1.63-5.66 2.12 0.41 1.68 0.84 3.36 1.27 5.05 2.78-0.33 7-2.27 8.52 1.21-4.96 0.13-10.09 0.19-14.82 1.82-0.42 0.44-1.27 1.32-1.69 1.76-2.93-2.5-2.32-6.56-3.13-9.94-0.78-3.37-0.85-7.12-3.09-9.93-1.28 1.32-2.54 2.67-3.82 3.99 2.14 0.5 3.26 2.16 3.25 4.3-1.31-0.66-2.59-1.38-3.85-2.11-1.39 0.62-2.77 1.26-4.15 1.88 0.62 0.58 1.87 1.73 2.49 2.3l-0.92 0.96c1.01-0.4 2.01-0.82 3.04-1.19 1.85 1.57 5.44 2.6 4.07 5.69-2.03-0.9-3.59-4.07-6.09-3.22 1.12 2.62 1.59 5.45 1.55 8.3-4.33-2.56-2.59-8.2-4.86-12.06-1.67 0.59-3.2 2.08-5.03 1.93-0.89-0.91-1.62-1.98-2.39-2.98 0.58-0.08 1.76-0.25 2.35-0.33 1.08-1.4 2.15-2.81 3.19-4.24-2.53-1.09-4.98-2.37-7.25-3.94 0.89-0.17 2.66-0.49 3.55-0.66 1.67-3.23 2.86-6.72 3.35-10.32z"/>
  <path id="path64069" style="fill:#3b3839" d="m379.6 317.65c2.82-2.16 5.39-4.94 9.02-5.68-0.37 5-3 9.37-4.85 13.92-1.27 3.1-3.77 5.38-6.1 7.69-0.25-0.33-0.74-0.99-0.99-1.32 1.4-2.72 3.17-5.25 5.52-7.22 1.4-2.93 2.77-5.9 3.4-9.11-2.61 1.71-4.9 3.83-7.25 5.86 0.39-1.39 0.82-2.77 1.25-4.14z"/>
  <path id="path64071" style="fill:#fff" d="m214.09 322.66c1.3-0.04 2.6-0.06 3.9-0.08 0.17 0.9 0.53 2.69 0.7 3.59l-3.75 1.26c-0.28-1.6-0.56-3.19-0.85-4.77z"/>
  <path id="path64073" style="fill:#fff" d="m215.24 328.94c1.32-0.49 2.65-0.97 3.98-1.46 0.21 1.33 0.44 2.66 0.66 4-1.33 0.36-2.67 0.72-4 1.08-0.16-0.9-0.48-2.72-0.64-3.62z"/>
  <path id="path64075" style="fill:#fff" d="m216.18 333.86c1.36-0.4 2.71-0.81 4.06-1.23 0.46 1.66 0.93 3.32 1.42 4.98-1.4 0.32-2.79 0.64-4.17 0.96-0.45-1.57-0.89-3.14-1.31-4.71z"/>
  <path id="path64077" style="fill:#3b3839" d="m199.03 333.74c1.46 2.06 1.88 4.8 0.86 7.16-3.67-0.36-1.61-5.08-0.86-7.16z"/>
  <path id="path64079" style="fill:#3b3839" d="m317.33 341.59c-0.37-2.59-0.23-5.82 2.49-7.12 3.81 1.29 7.71-0.12 11.58-0.2 2.12 4.28 0.6 9.12 0.2 13.62-0.98 4.63-0.12 11-5.45 13.13 0.48-6.55 2.47-12.96 2.19-19.57-3.67 0.1-7.35 0.73-11.01 0.14z"/>
  <path id="path64081" style="fill:#3b3839" d="m150.22 352.4c6.21 0.42 12.1 5.21 13.48 11.34-0.76-0.25-2.27-0.74-3.02-0.98-0.17-4.39-4.41-7.85-8.45-8.91 1.45 2.45 3.62 4.31 5.63 6.28-3.55-1.38-6.06-4.35-7.64-7.73z"/>
  <path id="path64083" style="fill:#3b3839" d="m251.51 368.4c0.9-2.22 3.26-3.16 5.27-4.09-1.43 1.76-3.99 3.14-3.66 5.74-0.05 2.7 2.02 5.4 4.78 5.68 8.78 1.31 16.15-6.06 24.83-5.35 3.18 2.55 5.12 6.7 5.74 10.67 0.57 2.55-4.29 6-0.56 7.38 5.16-0.04 9.68-3.42 14.9-3.23-0.29 0.8-0.58 1.6-0.87 2.41-5.94-0.77-11.49 4.18-17.48 1.7 0.4-2.88 1.9-5.4 2.86-8.1-2.45-2.58-2.99-6.45-5.61-8.87-8.24 0.1-15.33 6.87-23.85 5.3-4.4-0.26-7.44-5.14-6.35-9.24z"/>
  <path id="path64085" style="fill:#3b3839" d="m217.36 369.66c9.46-1.09 18.82 2.51 26.6 7.67 2.61 1.82 5.58 4.51 4.65 8.05-4.77 1.63-10.01 1.41-14.43-1.13-0.82 1.55-2.15 3.05-4.07 3-3.77 0.03-7.81-0.85-10.54-3.63 3.83 1.32 7.83 1.88 11.81 0.91 0.26-0.66 0.78-2 1.04-2.67 3.95 2.66 8.96 3.38 13.37 1.37-0.45-4.51-4.73-6.95-8.34-8.84-6.12-3.16-13.23-3.55-19.96-2.84-1.93 2.27 3.8 3.99 5.4 2.64 0.22-0.61 0.66-1.81 0.88-2.41 0.68 1.19 1.38 2.4 2.05 3.62-3.88 1.04-8.7 0.2-10.77-3.59-0.02-1.31 1.05-2.16 2.31-2.15z"/>
  <path id="path64087" style="fill:#3b3839" d="m332.39 375.69c2.22-1.05 4.34-2.32 6.53-3.42-0.37 2.88-3.1 4.99-5.47 6.21l-0.54-0.66c-1.5-0.56-2.98-0.95-3.93-2.37-0.68 1.62-1.49 3.18-2.35 4.72-0.94-0.14-1.88-0.28-2.82-0.38-1.63 3.39-5.85 3.55-8.94 4.9 0.67-1.03 1.35-2.05 2.03-3.06-0.89 0.04-2.67 0.11-3.57 0.15 0.07 0.76 0.2 2.3 0.26 3.06-2.16 1.05-4.45 1.83-6.86 1.92 1.02-2.32 3.13-3.67 5.32-4.73 2.11-1.42 4.69-1.6 7.15-1.81 0.11 0.65 0.31 1.96 0.42 2.61 1.6-1.67 3.26-3.47 2.65-6 2.05-1.87 4.56-3.1 7.23-3.81 0.93 0.91 1.88 1.82 2.89 2.67z"/>
  <path id="path64089" style="fill:#fff" d="m324.1 376.55c1.44-0.69 2.89-1.36 4.35-2.01-0.81 1.77-1.68 3.51-2.5 5.29-0.64-1.09-1.26-2.19-1.85-3.28z"/>
  <path id="path64091" style="fill:#3b3839" d="m284.65 392.21c3.02 0.7 6.06 1.38 9.03 2.26-3.3 0.97-6.69 0.52-9.92-0.45 0.22-0.45 0.66-1.36 0.89-1.81z"/>
  <path id="path64093" style="fill:#3b3839" d="m251.98 395.03c2.5-1.13 5.36-0.5 8.02-0.57 3.17-0.19 5.78 1.85 8.53 3.11-3.37 0.05-6.72 0.28-10.04 0.84-0.02-0.56-0.07-1.67-0.09-2.23-1.37 0.38-2.72 0.8-4.07 1.24-0.79-0.8-1.58-1.59-2.35-2.39z"/>
  <path id="path64095" style="fill:#3b3839" d="m231.92 397.52c-0.07-1.04-0.14-2.07-0.22-3.1 1.74 1.31 4.02 1.57 6.01 2.37-1.83 0.83-3.85 0.64-5.79 0.73z"/>
  <path id="path64097" style="fill:#fff" d="m259.32 395.37c2.96-1.58 0.25 3.36 0 0z"/>
 </g>
</svg>
