<?xml version="1.0" encoding="UTF-8" standalone="no"?>
<!-- Created with Inkscape (http://www.inkscape.org/) -->

<svg
   xmlns:dc="http://purl.org/dc/elements/1.1/"
   xmlns:cc="http://creativecommons.org/ns#"
   xmlns:rdf="http://www.w3.org/1999/02/22-rdf-syntax-ns#"
   xmlns:svg="http://www.w3.org/2000/svg"
   xmlns="http://www.w3.org/2000/svg"
   xmlns:xlink="http://www.w3.org/1999/xlink"
   xmlns:sodipodi="http://sodipodi.sourceforge.net/DTD/sodipodi-0.dtd"
   xmlns:inkscape="http://www.inkscape.org/namespaces/inkscape"
   id="svg3449"
   height="128"
   width="128"
   version="1.0"
   inkscape:version="0.48.4 r9939"
   sodipodi:docname="picard.svg">
  <sodipodi:namedview
     pagecolor="#ffffff"
     bordercolor="#666666"
     borderopacity="1"
     objecttolerance="10"
     gridtolerance="10"
     guidetolerance="10"
     inkscape:pageopacity="0"
     inkscape:pageshadow="2"
     inkscape:window-width="1360"
     inkscape:window-height="707"
     id="namedview28"
     showgrid="false"
     inkscape:zoom="2.6074563"
     inkscape:cx="2.7043605"
     inkscape:cy="45.665894"
     inkscape:window-x="-2"
     inkscape:window-y="33"
     inkscape:window-maximized="1"
     inkscape:current-layer="svg3449" />
  <metadata
     id="metadata56">
    <rdf:RDF>
      <cc:Work
         rdf:about="">
        <dc:format>image/svg+xml</dc:format>
        <dc:type
           rdf:resource="http://purl.org/dc/dcmitype/StillImage" />
        <dc:title></dc:title>
      </cc:Work>
    </rdf:RDF>
  </metadata>
  <defs
     id="defs3451">
    <linearGradient
       id="linearGradient3514"
       y2="-9.1034"
       gradientUnits="userSpaceOnUse"
       x2="66.492"
       gradientTransform="matrix(0.96826591,0,0,0.97837245,2.008719,0.37798667)"
       y1="-42.638"
       x1="67.952">
      <stop
         id="stop4620"
         style="stop-color:#37414b"
         offset="0" />
      <stop
         id="stop4622"
         style="stop-color:#37414b;stop-opacity:0"
         offset="1" />
    </linearGradient>
    <linearGradient
       id="linearGradient3516"
       y2="-11.847"
       gradientUnits="userSpaceOnUse"
       x2="58.98"
       gradientTransform="matrix(0.96826591,0,0,0.97837245,2.008719,0.37798667)"
       y1="-118.55"
       x1="57.173">
      <stop
         id="stop4596"
         offset="0" />
      <stop
         id="stop4598"
         style="stop-opacity:0"
         offset="1" />
    </linearGradient>
    <linearGradient
       id="linearGradient3519"
       y2="50.369"
       gradientUnits="userSpaceOnUse"
       x2="76.558"
       gradientTransform="matrix(0.96830812,0,0,0.96833796,3.0898716,-127.9739)"
       y1="13.164"
       x1="76.558">
      <stop
         id="stop3392"
         style="stop-color:#425e7b"
         offset="0" />
      <stop
         id="stop3394"
         style="stop-color:#7a91a7"
         offset="1" />
    </linearGradient>
    <linearGradient
       id="linearGradient3521"
       y2="-8.7399"
       gradientUnits="userSpaceOnUse"
       x2="60.217"
       gradientTransform="matrix(0.96830812,0,0,0.96833796,2.0265188,-0.08950392)"
       y1="-123.72"
       x1="60.395">
      <stop
         id="stop3392-4-8"
         style="stop-color:#425e7b"
         offset="0" />
      <stop
         id="stop3394-8-0"
         style="stop-color:#7a91a7"
         offset="1" />
    </linearGradient>
    <radialGradient
       id="radialGradient3349"
       gradientUnits="userSpaceOnUse"
       cy="45.647"
       cx="42.148"
       gradientTransform="matrix(0.94689705,0,0,1.1490317,3.4411805,-29.893821)"
       r="58.984">
      <stop
         id="stop2699-5"
         style="stop-color:#8787de;stop-opacity:1"
         offset="0" />
      <stop
         id="stop2701-7"
         style="stop-color:#442178;stop-opacity:1"
         offset="1" />
    </radialGradient>
    <radialGradient
       inkscape:collect="always"
       xlink:href="#linearGradient4132"
       id="radialGradient4922"
       gradientUnits="userSpaceOnUse"
       gradientTransform="matrix(6.1248261,0,0,4.4807882,-135.86665,-31.233647)"
       cx="63.98003"
       cy="61.948856"
       fx="63.98003"
       fy="61.948856"
       r="58.01997" />
    <linearGradient
       id="linearGradient4132">
      <stop
         offset="0"
         style="stop-color:#7bb8f0;stop-opacity:1"
         id="stop4134" />
      <stop
         offset="1"
         style="stop-color:#b5d5f2;stop-opacity:0.1221374"
         id="stop4136" />
    </linearGradient>
  </defs>
  <rect
     id="rect892"
     style="fill:url(#linearGradient3519);stroke:url(#linearGradient3521);stroke-width:0.96831924"
     transform="scale(1,-1)"
     ry="28.962744"
     height="114.22568"
     width="114.22568"
     y="-121.11284"
     x="6.8871613" />
  <rect
     id="rect892-2"
     style="fill:url(#linearGradient3514);stroke:url(#linearGradient3516);stroke-width:0.97330225"
     transform="scale(1,-1)"
     ry="28.960217"
     height="114.2207"
     width="114.2207"
     y="-121.11035"
     x="6.8896484" />
  <path
     id="rect895"
     style="fill:url(#radialGradient3349)"
     d="M 32.896689,7.5829705 C 25.699946,3.5676353 6.911717,20.834726 7.2437679,30.823875 c -0.05014,0.982357 -0.08877,1.982106 -0.08877,2.983246 l 0,52.880675 c 0,21.059864 10.7119671,34.157204 22.3179311,34.157204 l 67.037792,0 c 12.637959,0 24.317929,-11.34403 24.317929,-26.086744 l 0,-64.580824 C 121.52864,19.153185 99.545711,5.3012495 94.902721,7.3602255 47.056873,8.2331465 76.88578,7.5857945 32.899917,7.5857945 z"
     inkscape:connector-curvature="0"
     sodipodi:nodetypes="ccssssscccc" />
  <rect
     id="rect892-2-7-8"
     style="opacity:0.15891;fill:none;stroke:#000000;stroke-width:4.84187794"
     transform="scale(1,-1)"
     ry="28.960831"
     height="114.22312"
     width="114.22312"
     y="-121.11156"
     x="6.8884392" />
  <rect
     id="rect892-2-7-1"
     style="opacity:0.15891;fill:none;stroke:#000000;stroke-width:7.7470603"
     transform="scale(1,-1)"
     ry="28.961039"
     height="114.22394"
     width="114.22394"
     y="-121.11197"
     x="6.888031" />
  <rect
     id="rect892-2-7-2-9"
     ry="27.872265"
     style="fill:none;stroke:#000000;stroke-width:1.05547321"
     transform="scale(1,-1)"
     height="114.13353"
     width="114.13353"
     y="-121.06676"
     x="6.9332352" />
  <path
     id="path1187"
     style="fill:#ffffff;fill-opacity:0.05714303"
     d="M 32.930758,6.923328 C 6.8392893,6.7954853 7.2631041,18.673737 6.9240184,35.391528 l 0,32.76 c 18.6699996,-38.321 38.3399996,-51.497 90.3739996,-61.179 -0.225,-0.026 -0.46,-0.0303 -0.691,-0.0303 -41.576,0.3874 -25.652,-0.0188 -63.676,-0.0188 z"
     inkscape:connector-curvature="0"
     sodipodi:nodetypes="ccccccc" />
  <g
     transform="matrix(0.25,0,0,0.25,4.5280643e-4,0.00389335)"
     id="g3021">
    <path
       inkscape:connector-curvature="0"
       id="path3292"
       d="m 253.40625,111.5625 a 4.4146297,4.4146297 0 0 0 -4.375,3.78125 l -3.53125,24.375 -20.78125,0 c -16.00733,0 -31.01089,5.75597 -44.40625,16.875 -1.88719,1.55966 -3.65199,3.15565 -5.34375,4.8125 -0.95054,-1.43933 -1.94089,-2.85093 -3.0625,-4.21875 a 4.4146297,4.4146297 0 0 0 0,-0.0312 C 162.39402,145.61441 148.88232,139.7188 132.875,139.7188 l -31.78125,0 A 4.4146297,4.4146297 0 0 0 96.75,143.25 c -1.327667,6.92977 0.112558,13.64924 4.25,18.8125 a 4.4146297,4.4146297 0 0 0 0,0.0312 c 4.16367,5.1534 10.41442,7.9375 17.4375,7.9375 l 10.40625,0 c 7.85781,0 13.19456,2.49903 17.4375,7.9375 4.26909,5.472 5.6618,11.60863 4.15625,19.53125 -1.5095,7.96818 -5.43069,14.56972 -12.25,20.375 -6.80508,5.76787 -13.9637,8.5 -21.78125,8.5 l -10.375,0 c -6.982015,0 -13.619072,2.53131 -19.28125,7.28125 -5.643511,4.73428 -9.3586,10.77513 -10.65625,17.75 a 4.4146297,4.4146297 0 0 0 4.3125,5.21875 l 31.9375,0 c 15.99094,0 30.88764,-5.68872 44.28125,-16.71875 a 4.4146297,4.4146297 0 0 0 0.0312,0 c 1.8866,-1.55644 3.64591,-3.16766 5.34375,-4.84375 0.98667,1.46998 2.00448,2.90745 3.15625,4.28125 9.50903,11.44717 22.88405,17.28125 38.875,17.28125 l 31.9375,0 a 4.4146297,4.4146297 0 0 0 4.34375,-3.59375 c 1.32513,-6.94885 -0.11426,-13.62373 -4.28125,-18.78125 -4.20387,-5.20315 -10.54101,-7.875 -17.5,-7.875 l -10.3125,0 c -7.87971,0 -13.29354,-2.55832 -17.5625,-7.90625 -4.30737,-5.39009 -5.68804,-11.35706 -4.15625,-19.3125 1.50662,-7.92833 5.49133,-14.67449 12.34375,-20.5625 6.82941,-5.86823 13.92344,-8.5625 21.78125,-8.5625 l 10.40625,0 c 3.60284,0 7.07491,-0.73808 10.375,-2.0625 l -4.34375,29.46875 c -2.39468,16.20105 1.55458,30.69153 11.75,42.25 0.0214,0.0252 0.0411,0.0687 0.0625,0.0937 10.01684,11.72239 23.90189,17.625 39.90625,17.625 16.29037,0 31.36057,-5.81024 44.53125,-17.21875 0.0101,-0.009 0.0213,-0.0227 0.0312,-0.0312 13.14829,-11.23057 21.31461,-25.1832 23.6875,-41.4375 2.37065,-16.26854 -1.62842,-30.7216 -11.5625,-42.28125 a 4.4146297,4.4146297 0 0 0 -0.0625,-0.0625 c -10.23213,-11.46615 -24.19208,-17.46875 -40.5,-17.46875 l -27.5,0 c 0.97125,-6.90452 -0.77817,-13.64465 -5.4375,-18.875 L 272,120 c -0.0331,-0.0418 -0.0916,-0.0523 -0.125,-0.0937 -0.0316,-0.035 -0.0306,-0.0901 -0.0625,-0.125 l -0.0312,0.0312 c -4.4565,-5.46514 -11.11505,-8.25 -18.375,-8.25 z m 19.5,58.03125 28.9375,0 c 7.81008,0 13.49061,2.46273 18.25,7.9375 4.21051,5.44631 5.86619,11.94668 4.875,20 -1.26007,8.03336 -4.8212,14.62971 -11.34375,20.5 a 4.4146297,4.4146297 0 0 0 -0.0312,0.0312 c -6.56038,5.95478 -13.37692,8.71875 -21.46875,8.71875 -8.09184,0 -13.68764,-2.62945 -18.1875,-8.21875 a 4.4146297,4.4146297 0 0 0 0,-0.0312 c -4.53108,-5.58037 -6.18449,-11.83698 -5.1875,-19.9375 l 4.15625,-29 z"
       style="font-size:medium;font-style:normal;font-variant:normal;font-weight:normal;font-stretch:normal;text-indent:0;text-align:start;text-decoration:none;line-height:normal;letter-spacing:normal;word-spacing:normal;text-transform:none;direction:ltr;block-progression:tb;writing-mode:lr-tb;text-anchor:start;baseline-shift:baseline;color:#000000;fill:#82c223;fill-opacity:1;fill-rule:nonzero;stroke:none;stroke-width:10;marker:none;visibility:visible;display:inline;overflow:visible;enable-background:accumulate;font-family:Sans;-inkscape-font-specification:Sans" />
    <path
       inkscape:connector-curvature="0"
       id="path3301"
       d="m 209.1875,281.9375 c -16.29001,0 -31.34374,5.84312 -44.25,17.125 -0.01,0.009 -0.0214,0.0227 -0.0312,0.0312 -13.11848,11.40892 -21.2837,25.34325 -23.65625,41.625 l -8.0625,54.65625 a 4.4146299,4.4146299 0 0 0 4.40625,5.03125 c 7.32607,0 14.29799,-2.57248 20.03125,-7.75 0.035,-0.0316 0.0901,-0.0308 0.125,-0.0625 5.88123,-5.02916 9.55063,-11.52772 10.53125,-18.90625 l 0.0312,0 0,-0.0937 L 173.03125,342 c 1.24656,-8.17751 4.84052,-14.89603 11.40625,-20.90625 6.48802,-5.77157 13.62977,-8.5 21.4375,-8.5 8.13635,0 13.74139,2.56412 18.21875,8.03125 4.5176,5.68366 6.11047,11.95779 4.875,20.0625 a 4.4146299,4.4146299 0 0 0 0,0.0625 l -4.40625,31.5 -0.0312,0.15625 0.0312,0 c -1.25277,7.39608 0.89627,14.30523 5.4375,19.625 4.61695,5.37548 11.16467,8.375 18.625,8.375 a 4.4146299,4.4146299 0 0 0 4.34375,-3.75 L 261.03125,342 a 4.4146299,4.4146299 0 0 0 0.0312,-0.125 c 0.97597,-8.00307 4.76768,-14.73296 11.375,-20.78125 6.52803,-5.80866 13.32078,-8.5 21.4375,-8.5 7.82667,0 13.49139,2.56413 17.96875,8.03125 4.56588,5.74247 6.37858,12.04398 5.15625,20.0625 l -4.71875,31.6875 a 4.4146299,4.4146299 0 0 0 0,0.0625 c -0.95827,7.25105 0.79454,14.15481 5.4375,19.59375 4.61695,5.37549 11.16469,8.375 18.625,8.375 a 4.4146299,4.4146299 0 0 0 4.375,-3.75 l 2.1875,-14.34375 c 0.16179,0.18275 0.27034,0.38096 0.4375,0.5625 l -0.0312,0.0312 c 10.20585,11.55662 23.92469,17.5 39.96875,17.5 l 32.46875,0 a 4.4146299,4.4146299 0 0 0 4.40625,-3.78125 c 0.97088,-7.0227 -0.80802,-13.71826 -5.1875,-18.90625 a 4.4146299,4.4146299 0 0 0 0,-0.0312 c -4.44503,-5.19727 -10.91716,-7.90625 -17.8125,-7.90625 l -10.5625,0 c -8.10968,0 -13.76079,-2.58093 -18.25,-8.0625 a 4.4146299,4.4146299 0 0 0 -0.0312,-0.0937 c -4.73349,-5.46718 -6.36457,-11.63261 -5.375,-19.71875 8.8e-4,-0.01 -8.8e-4,-0.0215 0,-0.0312 1.25442,-8.016 5.07472,-14.7441 11.625,-20.75 0.01,-0.009 0.0213,-0.0222 0.0312,-0.0312 6.49262,-5.78207 13.65407,-8.5 21.46875,-8.5 l 10.53125,0 c 7.19145,0 13.85894,-2.73636 19.5,-7.53125 a 4.4146299,4.4146299 0 0 0 0.125,-0.0625 c 5.36668,-4.83002 8.75122,-10.99952 9.71875,-18.0625 a 4.4146299,4.4146299 0 0 0 -4.34375,-5 l -32.21875,0 c -16.30257,0 -31.07615,5.84952 -44.21875,17.09375 a 4.4146299,4.4146299 0 0 0 -0.0312,0.0625 c -4.05916,3.54254 -7.64307,7.3306 -10.75,11.375 -1.91587,-3.89284 -4.28791,-7.5372 -7.125,-10.90625 a 4.4146299,4.4146299 0 0 0 -0.0937,-0.0937 C 326.95049,287.91213 313.23996,281.9375 296.9375,281.9375 c -9.02544,0 -18.02196,2.12945 -26.84375,6.1875 -7.18207,3.30378 -13.77618,7.67861 -19.5625,13.09375 -4.34664,-5.35887 -9.58483,-9.77681 -15.59375,-13.09375 a 4.4146299,4.4146299 0 0 0 -0.0937,-0.0625 c -7.8171,-4.02885 -16.39462,-6.125 -25.65625,-6.125 z"
       style="font-size:medium;font-style:normal;font-variant:normal;font-weight:normal;font-stretch:normal;text-indent:0;text-align:start;text-decoration:none;line-height:normal;letter-spacing:normal;word-spacing:normal;text-transform:none;direction:ltr;block-progression:tb;writing-mode:lr-tb;text-anchor:start;baseline-shift:baseline;color:#000000;fill:#bdd1e3;fill-opacity:1;fill-rule:nonzero;stroke:none;stroke-width:10;marker:none;visibility:visible;display:inline;overflow:visible;enable-background:accumulate;font-family:Sans;-inkscape-font-specification:Sans" />
  </g>
</svg>
