<?xml version="1.0" encoding="UTF-8" standalone="no"?>
<!-- Created with Inkscape (http://www.inkscape.org/) -->
<svg id="svg3449" xmlns:rdf="http://www.w3.org/1999/02/22-rdf-syntax-ns#" xmlns="http://www.w3.org/2000/svg" height="128" width="128" version="1.0" xmlns:cc="http://creativecommons.org/ns#" xmlns:xlink="http://www.w3.org/1999/xlink" xmlns:dc="http://purl.org/dc/elements/1.1/">
 <metadata id="metadata56">
  <rdf:RDF>
   <cc:Work rdf:about="">
    <dc:format>image/svg+xml</dc:format>
    <dc:type rdf:resource="http://purl.org/dc/dcmitype/StillImage"/>
    <dc:title/>
   </cc:Work>
  </rdf:RDF>
 </metadata>
 <defs id="defs3451">
  <linearGradient id="linearGradient3514" y2="-9.1034" gradientUnits="userSpaceOnUse" x2="66.492" gradientTransform="matrix(.96826 0 0 .97948 2.179 .16587)" y1="-42.638" x1="67.952">
   <stop id="stop4620" style="stop-color:#37414b" offset="0"/>
   <stop id="stop4622" style="stop-color:#37414b;stop-opacity:0" offset="1"/>
  </linearGradient>
  <linearGradient id="linearGradient3516" y2="-11.847" gradientUnits="userSpaceOnUse" x2="58.98" gradientTransform="matrix(.96826 0 0 .97948 2.179 .16587)" y1="-118.55" x1="57.173">
   <stop id="stop4596" offset="0"/>
   <stop id="stop4598" style="stop-opacity:0" offset="1"/>
  </linearGradient>
  <linearGradient id="linearGradient3519" y2="50.369" gradientUnits="userSpaceOnUse" x2="76.558" gradientTransform="matrix(.96826 0 0 .97948 3.2423 -129.19)" y1="13.164" x1="76.558">
   <stop id="stop3392" style="stop-color:#425e7b" offset="0"/>
   <stop id="stop3394" style="stop-color:#7a91a7" offset="1"/>
  </linearGradient>
  <linearGradient id="linearGradient3521" y2="-8.7399" gradientUnits="userSpaceOnUse" x2="60.217" gradientTransform="matrix(.96826 0 0 .97948 2.179 .16587)" y1="-123.72" x1="60.395">
   <stop id="stop3392-4-8" style="stop-color:#425e7b" offset="0"/>
   <stop id="stop3394-8-0" style="stop-color:#7a91a7" offset="1"/>
  </linearGradient>
  <radialGradient id="radialGradient3349" gradientUnits="userSpaceOnUse" cy="45.647" cx="42.148" gradientTransform="matrix(.94690 0 0 1.139 3.5954 -29.89)" r="58.984">
   <stop id="stop2699-5" style="stop-color:#9cbbd9" offset="0"/>
   <stop id="stop2701-7" style="stop-color:#5c82ab" offset="1"/>
  </radialGradient>
  <linearGradient id="linearGradient3900-0-4">
   <stop id="stop3902-1-5" style="stop-color:#fff;stop-opacity:.7" offset="0"/>
   <stop id="stop3904-0-0" style="stop-color:#b1b1b1" offset="1"/>
  </linearGradient>
  <linearGradient id="linearGradient5060-6-1-3">
   <stop id="stop5062-3-2-0" offset="0"/>
   <stop id="stop5064-1-9-5" style="stop-opacity:0" offset="1"/>
  </linearGradient>
  <linearGradient id="linearGradient2446-733-45-1-7">
   <stop id="stop3793-4-6" style="stop-color:#fafafa" offset="0"/>
   <stop id="stop3795-4-1" style="stop-color:#c5c5c5" offset="1"/>
  </linearGradient>
  <linearGradient id="linearGradient22334" y2="39.593" xlink:href="#linearGradient3900-0-4" gradientUnits="userSpaceOnUse" x2="16.147" gradientTransform="matrix(2.1095 0 0 2.1095 51.134 6.208)" y1="35.323" x1="16.147"/>
  <linearGradient id="linearGradient22337" y2="39.593" xlink:href="#linearGradient3900-0-4" gradientUnits="userSpaceOnUse" x2="16.147" gradientTransform="matrix(2.1095 0 0 2.1095 13.164 6.208)" y1="35.323" x1="16.147"/>
  <linearGradient id="linearGradient22346" y2="16.323" xlink:href="#linearGradient2446-733-45-1-7" gradientUnits="userSpaceOnUse" x2="33.579" gradientTransform="matrix(1.7189 0 0 1.3914 8.3978 13.03)" y1="5.7086" x1="33.579"/>
  <linearGradient id="linearGradient22349" y2="13.523" gradientUnits="userSpaceOnUse" x2="24.683" gradientTransform="matrix(2.0173 0 0 .98724 15.39 26.617)" y1="9.2417" x1="24.683">
   <stop id="stop3284-1-1" offset="0"/>
   <stop id="stop3286-3-9" style="stop-opacity:0" offset="1"/>
  </linearGradient>
  <linearGradient id="linearGradient22352" y2="90.812" xlink:href="#linearGradient2446-733-45-1-7" gradientUnits="userSpaceOnUse" x2="10.174" gradientTransform="matrix(2.1095 0 0 2.1095 13.164 6.208)" y1="26.735" x1="10.174"/>
  <radialGradient id="radialGradient22355" xlink:href="#linearGradient5060-6-1-3" gradientUnits="userSpaceOnUse" cy="486.65" cx="605.71" gradientTransform="matrix(-.13835 0 0 .034744 113.77 84.176)" r="117.14"/>
  <radialGradient id="radialGradient22358" xlink:href="#linearGradient5060-6-1-3" gradientUnits="userSpaceOnUse" cy="486.65" cx="605.71" gradientTransform="matrix(.13835 0 0 .034744 13.813 84.176)" r="117.14"/>
  <linearGradient id="linearGradient22361" y2="609.51" gradientUnits="userSpaceOnUse" x2="302.86" gradientTransform="matrix(.13835 0 0 .034744 13.786 84.176)" y1="366.65" x1="302.86">
   <stop id="stop5050-5-9-4" style="stop-opacity:0" offset="0"/>
   <stop id="stop5056-9-3-1" offset=".5"/>
   <stop id="stop5052-6-6-4" style="stop-opacity:0" offset="1"/>
  </linearGradient>
 </defs>
 <rect id="rect892" style="stroke:url(#linearGradient3521);stroke-width:.97385;fill:url(#linearGradient3519)" transform="scale(1,-1)" ry="29.296" height="115.54" width="114.22" y="-122.25" x="7.0394"/>
 <rect id="rect892-2" style="stroke:url(#linearGradient3516);stroke-width:.97385;fill:url(#linearGradient3514)" transform="scale(1,-1)" ry="28.993" height="114.35" width="114.22" y="-121.46" x="7.0599"/>
 <path id="rect895" style="fill:url(#radialGradient3349)" d="m33.051 7.2596c-7.969-2.4493-27.013 15.174-25.653 23.038-0.050142 0.97378-0.088772 1.9648-0.088772 2.9572v52.419c0 20.876 10.712 33.859 22.318 33.859h67.038c12.638 0 24.318-11.245 24.318-25.859v-64.017c0.7-10.928-21.283-24.659-25.926-22.618-47.846 0.8653-18.017 0.2236-62.003 0.2236z"/>
 <rect id="rect892-2-7-8" style="opacity:.15891;stroke:#000;stroke-width:4.8445;fill:none" transform="scale(1,-1)" ry="28.993" height="114.35" width="114.22" y="-121.16" x="6.8687"/>
 <rect id="rect892-2-7-1" style="opacity:.15891;stroke:#000;stroke-width:7.7512;fill:none" transform="scale(1,-1)" ry="28.993" height="114.35" width="114.22" y="-121.16" x="6.8687"/>
 <rect id="rect892-2-7-2-9" ry="28.067" style="stroke:#000;stroke-width:1.0489;fill:none" transform="scale(1,-1)" height="112.71" width="114.14" y="-120.31" x="7.0649"/>
 <path id="path1187" style="fill:#fff;fill-opacity:.057143" d="m33.736 7.2319c-24.363 0-26.747 1.0684-26.648 41.695-0.04454 1.1348-0.078864 2.2896-0.078864 3.446v51.947c19.188-60.764 39.403-81.658 92.877-97.01-0.231-0.0414-0.473-0.0483-0.71-0.0483-42.727 0.6143-26.362-0.0298-65.44-0.0298z"/>
 <rect id="rect2512" style="opacity:.3;fill:url(#linearGradient22361)" height="8.4378" width="66.805" y="96.914" x="30.388"/>
 <path id="path2514" style="opacity:.3;fill:url(#radialGradient22358)" d="m97.193 96.915v8.4373c7.1248 0.0158 17.224-1.8904 17.224-4.2192s-7.9508-4.2181-17.224-4.2181z"/>
 <path id="path2516" style="opacity:.3;fill:url(#radialGradient22355)" d="m30.388 96.915v8.4373c-7.1248 0.0159-17.224-1.8904-17.224-4.2192s7.9508-4.2181 17.224-4.2181z"/>
 <rect id="rect2573" style="fill:url(#linearGradient22352);fill-rule:evenodd" rx="5.6238" ry="5.6238" height="78.045" width="94.921" y="22.031" x="16.33"/>
 <rect id="rect1436" style="opacity:.1;fill-rule:evenodd;stroke:#657c93;stroke-width:2.1095;fill:url(#linearGradient22349)" rx="0" ry="0" height="4.2189" width="92.816" y="35.74" x="17.383"/>
 <path id="rect2311" style="fill-rule:evenodd;fill:url(#linearGradient22346)" d="m22.657 22.03l82.978 0.01812c3.3011 0 5.6191 2.6604 5.6191 5.6043v7.0329h-94.925v-7.0329c0-3.1379 2.5499-5.6225 6.3284-5.6225z"/>
 <rect id="rect2601" style="opacity:.4;stroke-linejoin:round;stroke:#657c93;stroke-linecap:round;stroke-width:2.1173;fill:none" rx="3.5776" ry="3.5776" height="73.823" width="90.699" y="24.142" x="18.442"/>
 <path id="path4149" style="stroke:#657c93;stroke-linecap:square;stroke-width:1.0547;fill:none" d="m83.831 30.467h4.2189"/>
 <path id="path4155" style="stroke:#657c93;stroke-width:1.0547;fill:none" d="m92.268 26.248h4.2189v4.2189h-4.2189z"/>
 <path id="path4157" style="stroke-linejoin:bevel;stroke:#657c93;stroke-linecap:square;stroke-width:1.0547;fill:none" d="m100.71 26.248 4.2189 4.2189"/>
 <path id="path4161" style="stroke:#657c93;stroke-linecap:square;stroke-width:1.0547;fill:none" d="m100.71 30.467 4.2189-4.2189"/>
 <rect id="rect3091" style="opacity:.5;stroke-linejoin:bevel;stroke:#657c93;stroke-linecap:square;stroke-width:1.0547;fill:url(#linearGradient22337)" rx=".80914" ry=".92338" height="8.8185" width="29.913" y="83.013" x="28.795"/>
 <rect id="rect3922" style="opacity:.5;stroke-linejoin:bevel;stroke:#657c93;stroke-linecap:square;stroke-width:1.0547;fill:url(#linearGradient22334)" rx=".80914" ry=".92338" height="8.8185" width="29.913" y="83.013" x="66.765"/>
 <text id="text3095" style="font-size:4.2189px;letter-spacing:0px;line-height:125%;word-spacing:0px;font-family:Droid Sans Mono;fill:#000000" xml:space="preserve" y="90.503647" x="74.202103"><tspan id="tspan3097" x="74.202103" style="font-size:8.4378px;font-family:Droid Sans Mono" y="90.503647">Yes</tspan></text>
 <text id="text3099" style="font-size:4.2189px;letter-spacing:0px;line-height:125%;word-spacing:0px;font-family:Droid Sans Mono;fill:#000000" y="90.503647" x="38.76498" xml:space="preserve"><tspan id="tspan3101" y="90.503647" x="38.76498" style="font-size:8.4378px;font-family:Droid Sans Mono">No</tspan></text>
</svg>
