<?xml version="1.0" encoding="UTF-8" standalone="no"?>
<!-- Created with Inkscape (http://www.inkscape.org/) -->
<svg id="svg3449" xmlns:rdf="http://www.w3.org/1999/02/22-rdf-syntax-ns#" xmlns="http://www.w3.org/2000/svg" height="128" width="128" version="1.0" xmlns:cc="http://creativecommons.org/ns#" xmlns:xlink="http://www.w3.org/1999/xlink" xmlns:dc="http://purl.org/dc/elements/1.1/">
 <metadata id="metadata56">
  <rdf:RDF>
   <cc:Work rdf:about="">
    <dc:format>image/svg+xml</dc:format>
    <dc:type rdf:resource="http://purl.org/dc/dcmitype/StillImage"/>
    <dc:title/>
   </cc:Work>
  </rdf:RDF>
 </metadata>
 <defs id="defs3451">
  <linearGradient id="linearGradient3514" y2="-9.1034" gradientUnits="userSpaceOnUse" x2="66.492" gradientTransform="matrix(.96826 0 0 .97948 2.179 .16587)" y1="-42.638" x1="67.952">
   <stop id="stop4620" style="stop-color:#37414b" offset="0"/>
   <stop id="stop4622" style="stop-color:#37414b;stop-opacity:0" offset="1"/>
  </linearGradient>
  <linearGradient id="linearGradient3516" y2="-11.847" gradientUnits="userSpaceOnUse" x2="58.98" gradientTransform="matrix(.96826 0 0 .97948 2.179 .16587)" y1="-118.55" x1="57.173">
   <stop id="stop4596" offset="0"/>
   <stop id="stop4598" style="stop-opacity:0" offset="1"/>
  </linearGradient>
  <linearGradient id="linearGradient3519" y2="50.369" gradientUnits="userSpaceOnUse" x2="76.558" gradientTransform="matrix(.96826 0 0 .97948 3.2423 -129.19)" y1="13.164" x1="76.558">
   <stop id="stop3392" style="stop-color:#425e7b" offset="0"/>
   <stop id="stop3394" style="stop-color:#7a91a7" offset="1"/>
  </linearGradient>
  <linearGradient id="linearGradient3521" y2="-8.7399" gradientUnits="userSpaceOnUse" x2="60.217" gradientTransform="matrix(.96826 0 0 .97948 2.179 .16587)" y1="-123.72" x1="60.395">
   <stop id="stop3392-4-8" style="stop-color:#425e7b" offset="0"/>
   <stop id="stop3394-8-0" style="stop-color:#7a91a7" offset="1"/>
  </linearGradient>
  <linearGradient id="linearGradient4192" y2="31.742" gradientUnits="userSpaceOnUse" x2="121.11" y1="31.742" x1="6.5334">
   <stop id="stop4188" style="stop-color:#fff" offset="0"/>
   <stop id="stop4190" style="stop-color:#fff;stop-opacity:0" offset="1"/>
  </linearGradient>
  <linearGradient id="linearGradient11577" y2="8.1" gradientUnits="userSpaceOnUse" y1="6.1438" x2="19.387" x1="19.49">
   <stop id="stop10999-9-0" offset="0"/>
   <stop id="stop11001-6-1" style="stop-opacity:0" offset="1"/>
  </linearGradient>
  <filter id="filter3198-5" color-interpolation-filters="sRGB" width="1.1734" y="-.10752" x="-.086712" height="1.215">
   <feGaussianBlur id="feGaussianBlur3200-3" stdDeviation="0.71710775"/>
  </filter>
  <linearGradient id="linearGradient6921" y2="5.4565" gradientUnits="userSpaceOnUse" x2="36.358" gradientTransform="matrix(0 3.6478 -6.0832 0 129.49 -30.924)" y1="8.059" x1="32.892">
   <stop id="stop8591-7-2-1" style="stop-color:#fefefe" offset="0"/>
   <stop id="stop8593-2-4-5" style="stop-color:#cbcbcb" offset="1"/>
  </linearGradient>
  <radialGradient id="radialGradient6925" gradientUnits="userSpaceOnUse" cy="-16.639" cx="2.6083" gradientTransform="matrix(-5.7453 2.452e-7 -2.5955e-7 -6.0905 124.78 -36.865)" r="23">
   <stop id="stop5983" style="stop-color:#fc6f33" offset="0"/>
   <stop id="stop5985" style="stop-color:#d6392a" offset="1"/>
  </radialGradient>
  <style id="style1246" type="text/css">.fil0 {fill:#1F1A17}</style>
  <style id="style1115" type="text/css">.fil0 {fill:#1F1A17}</style>
  <style id="style1246-3" type="text/css">.fil0 {fill:#1F1A17}</style>
  <style id="style1115-1" type="text/css">.fil0 {fill:#1F1A17}</style>
  <style id="style1246-0" type="text/css">.fil0 {fill:#1F1A17}</style>
  <style id="style1115-7" type="text/css">.fil0 {fill:#1F1A17}</style>
  <linearGradient id="linearGradient27766" y2="9" gradientUnits="userSpaceOnUse" x2="24" gradientTransform="translate(-45.855 41.261)" y1="39" x1="24">
   <stop id="stop5059" style="stop-color:#f8c5c0" offset="0"/>
   <stop id="stop5061" style="stop-color:#fff8f5" offset="1"/>
  </linearGradient>
 </defs>
 <rect id="rect892-2-7-1" style="opacity:.15891;stroke:#000;stroke-width:7.7512;fill:none" transform="scale(1,-1)" ry="28.993" height="114.35" width="114.22" y="-121.16" x="6.8687"/>
 <rect id="rect892-2-7-2" ry="29.452" style="stroke:#d3d3d3;stroke-width:9.8448;fill:#37414b" transform="scale(1,-1)" height="116.16" width="116.08" y="-122.08" x="5.9224"/>
 <rect id="rect892" style="stroke:url(#linearGradient3521);stroke-width:.97385;fill:url(#linearGradient3519)" transform="scale(1,-1)" ry="29.296" height="115.54" width="114.22" y="-122.25" x="7.0394"/>
 <rect id="rect892-2" style="stroke:url(#linearGradient3516);stroke-width:.97385;fill:url(#linearGradient3514)" transform="scale(1,-1)" ry="28.993" height="114.35" width="114.22" y="-121.46" x="7.0599"/>
 <path id="path4159-5" style="stroke:url(#linearGradient4192);stroke-width:1px;fill:none" d="m7.0334 31.742h113.58z"/>
 <path id="path4322" d="m120.09 74.559c-1.82 3.831-41.638 40.371-56.018 45.741-66.185 6.38-58.724-19.48-56.838-84.917 4.797-34.382 28.284-28.298 90.407-27.48 28.999 8.074 22.189 27.125 22.449 66.656z" style="fill-rule:evenodd;fill:url(#radialGradient6925)"/>
 <g id="g27749" transform="matrix(2.6667 0 0 2.6667 121.59 -111.52)">
  <path id="path5069" style="fill-opacity:.058824" d="m-21.851 51.461c-8.2862 0-15.004 6.7148-15.004 14.998 0 8.2848 6.7177 15.002 15.004 15.002 8.2832 0 14.996-6.7172 14.996-15.002 0-8.2832-6.7128-14.998-14.996-14.998zm-0.004 3v6.5c-2.3936 0.00084-4.4261 1.5337-5.1816 3.668l-6.1289-2.168c1.8954-5.2069 6.6086-8 11.311-8zm4.7012 0.85742 2.5977 1.5-3.9824 5.2617c-0.18032-0.13633-0.36758-0.26689-0.56836-0.38281-0.19955-0.11521-0.40439-0.21123-0.61133-0.29883l2.5644-6.0801zm-4.6992 6.6426c2.4825 0 4.498 2.0167 4.498 4.5 0 2.4847-2.0156 4.5-4.498 4.5-2.4851 0-4.502-2.0153-4.502-4.5 0-2.4833 2.0168-4.5 4.502-4.5zm0.002 2.5c-1.0991 0-2.0039 0.89453-2.0039 2 0 1.1008 0.90483 2 2.0039 2 1.1038 0 1.9961-0.89923 1.9961-2 0-1.1055-0.89231-2-1.9961-2zm3.3125 6.3809 3.9824 5.2617-2.5977 1.5-2.5644-6.0801c0.20823-0.088 0.41445-0.18486 0.61523-0.30078 0.19955-0.11521 0.38513-0.24545 0.56446-0.38086z"/>
  <path id="path5067" style="fill-opacity:.11765" d="m-21.851 51.061c-8.2862 0-15.004 6.7148-15.004 14.998 0 8.2848 6.7177 15.002 15.004 15.002 8.2832 0 14.996-6.7172 14.996-15.002 0-8.2832-6.7128-14.998-14.996-14.998zm-0.004 3v6.5c-2.3936 0.00084-4.4261 1.5337-5.1816 3.668l-6.1289-2.168c1.8954-5.2069 6.6086-8 11.311-8zm4.7012 0.85742 2.5977 1.5-3.9824 5.2617c-0.18032-0.13633-0.36758-0.26689-0.56836-0.38281-0.19955-0.11521-0.40439-0.21123-0.61133-0.29883l2.5644-6.0801zm-4.6992 6.6426c2.4825 0 4.498 2.0167 4.498 4.5 0 2.4847-2.0156 4.5-4.498 4.5-2.4851 0-4.502-2.0153-4.502-4.5 0-2.4833 2.0168-4.5 4.502-4.5zm0.002 2.5c-1.0991 0-2.0039 0.89453-2.0039 2 0 1.1008 0.90483 2 2.0039 2 1.1038 0 1.9961-0.89923 1.9961-2 0-1.1055-0.89231-2-1.9961-2zm3.3125 6.3809 3.9824 5.2617-2.5977 1.5-2.5644-6.0801c0.20823-0.088 0.41445-0.18486 0.61523-0.30078 0.19955-0.11521 0.38513-0.24545 0.56446-0.38086z"/>
  <path id="path5063" style="fill-opacity:.23529" d="m-21.851 50.661c-8.2862 0-15.004 6.7148-15.004 14.998 0 8.2848 6.7177 15.002 15.004 15.002 8.2832 0 14.996-6.7172 14.996-15.002 0-8.2832-6.7128-14.998-14.996-14.998zm-0.004 3v6.5c-2.3936 0.00084-4.4261 1.5337-5.1816 3.668l-6.1289-2.168c1.8954-5.2069 6.6086-8 11.311-8zm4.7012 0.85742 2.5977 1.5-3.9824 5.2617c-0.18032-0.13633-0.36758-0.26689-0.56836-0.38281-0.19955-0.11521-0.40439-0.21123-0.61133-0.29883l2.5644-6.0801zm-4.6992 6.6426c2.4825 0 4.498 2.0167 4.498 4.5 0 2.4847-2.0156 4.5-4.498 4.5-2.4851 0-4.502-2.0153-4.502-4.5 0-2.4833 2.0168-4.5 4.502-4.5zm0.002 2.5c-1.0991 0-2.0039 0.89453-2.0039 2 0 1.1008 0.90483 2 2.0039 2 1.1038 0 1.9961-0.89923 1.9961-2 0-1.1055-0.89231-2-1.9961-2zm3.3125 6.3809 3.9824 5.2617-2.5977 1.5-2.5644-6.0801c0.20823-0.088 0.41445-0.18486 0.61523-0.30078 0.19955-0.11521 0.38513-0.24545 0.56446-0.38086z"/>
  <path id="path5041" style="fill:url(#linearGradient27766)" d="m-21.851 50.261c-8.2862 0-15.004 6.7148-15.004 14.998 0 8.2848 6.7177 15.002 15.004 15.002 8.2832 0 14.996-6.7172 14.996-15.002 0-8.2832-6.7128-14.998-14.996-14.998zm-0.0039 3v6.5c-2.3936 0.00084-4.4261 1.5337-5.1816 3.668l-6.1289-2.168c1.8954-5.2069 6.6086-8 11.311-8zm4.7012 0.85742 2.5977 1.5-3.9824 5.2617c-0.18032-0.13633-0.36758-0.26689-0.56836-0.38281-0.19955-0.11521-0.40439-0.21123-0.61133-0.29883l2.5645-6.0801zm-4.6992 6.6426c2.4825 0 4.498 2.0167 4.498 4.5 0 2.4847-2.0156 4.5-4.498 4.5-2.4851 0-4.502-2.0153-4.502-4.5 0-2.4833 2.0168-4.5 4.502-4.5zm0.002 2.5c-1.0991 0-2.004 0.89453-2.004 2 0 1.1008 0.90483 2 2.0039 2 1.1038 0 1.9961-0.89923 1.9961-2 0-1.1055-0.89231-2-1.9961-2zm3.3125 6.3809 3.9824 5.2617-2.5977 1.5-2.5645-6.0801c0.20823-0.088 0.41445-0.18486 0.61523-0.30078 0.19955-0.11521 0.38512-0.24545 0.56445-0.38086z"/>
  <path id="path5037" style="fill:#f0f" d="m-20.95 59.841c0.0416 0.007 0.0837 0.0117 0.125 0.0195-0.0413-0.008-0.0834-0.0126-0.125-0.0195z"/>
  <path id="path5035" style="fill:#f0f" d="m-20.007 60.085c0.0413 0.0148 0.0822 0.0292 0.12304 0.0449-0.0408-0.0157-0.0818-0.0302-0.12304-0.0449z"/>
  <path id="path5033" style="fill:#f0f" d="m-19.132 60.488c0.0373 0.0214 0.0727 0.0442 0.10937 0.0664-0.0365-0.022-0.0723-0.0452-0.10937-0.0664z"/>
  <path id="path5029" style="fill:#f0f" d="m-17.13 62.454c0.009 0.0143 0.017 0.0285 0.0254 0.043-0.008-0.0143-0.0169-0.0287-0.0254-0.043z"/>
  <path id="path5023" style="fill:#f0f" d="m-27.265 64.296c-0.004 0.0201-0.006 0.0404-0.01 0.0605 0.003-0.0201 0.006-0.0405 0.01-0.0605z"/>
  <path id="path5021" style="fill:#f0f" d="m-27.265 66.228c0.005 0.0266 0.009 0.0536 0.0137 0.0801-0.005-0.0265-0.009-0.0534-0.0137-0.0801z"/>
  <path id="path5019" style="fill:#f0f" d="m-27.003 67.179c0.0133 0.0357 0.025 0.0721 0.0391 0.10742-0.0141-0.0354-0.0257-0.0716-0.0391-0.10742z"/>
  <path id="path5017" style="fill:#f0f" d="m-26.571 68.078c0.0183 0.0305 0.0358 0.0617 0.0547 0.0918-0.019-0.0303-0.0363-0.0611-0.0547-0.0918z"/>
  <path id="path5015" style="fill:#f0f" d="m-25.987 68.88c0.0185 0.0211 0.0378 0.0417 0.0566 0.0625-0.0189-0.0209-0.038-0.0413-0.0566-0.0625z"/>
  <path id="path5071" style="fill-opacity:.31373;fill:#e9442e" d="m-21.855 52.46c-4.7019 0-9.4151 2.7931-11.311 8l0.28711 0.10156c2.0503-4.7534 6.5385-7.3008 11.023-7.3008v-0.80078zm4.7012 0.85742-2.5645 6.0801c0.09457 0.04003 0.18591 0.09214 0.2793 0.13672l2.2852-5.416 2.1758 1.2559 0.42188-0.55664-2.5977-1.5zm-4.6992 6.6426c-2.4851 0-4.502 2.0167-4.502 4.5 0 0.13694 0.02902 0.26656 0.04102 0.40039 0.20602-2.293 2.1131-4.0996 4.4609-4.0996 2.3454 0 4.2511 1.8066 4.457 4.0996 0.01199-0.13383 0.04102-0.26345 0.04102-0.40039 0-2.4833-2.0156-4.5-4.498-4.5zm-14.982 4.8984c-0.0036 0.13432-0.01953 0.26521-0.01953 0.40039 0 8.2848 6.7177 15.002 15.004 15.002 8.2832 0 14.996-6.7172 14.996-15.002 0-0.13518-0.01598-0.26607-0.01953-0.40039-0.21392 8.0981-6.8283 14.602-14.977 14.602-8.1512 0-14.77-6.5035-14.984-14.602zm13.021 0.0039c-0.02614 0.12852-0.04102 0.26224-0.04102 0.39844 0 1.1008 0.90483 2 2.0039 2 1.1038 0 1.9961-0.89923 1.9961-2 0-0.1362-0.0152-0.26992-0.04102-0.39844-0.18588 0.90955-0.98927 1.5977-1.9551 1.5977-0.9617 0-1.7747-0.68811-1.9629-1.5977zm5.2754 3.9785c-0.17933 0.13541-0.3649 0.26565-0.56445 0.38086-0.20078 0.11592-0.407 0.21278-0.61523 0.30078l0.2793 0.66406c0.1123-0.05358 0.22633-0.10078 0.33594-0.16406 0.19955-0.11521 0.38512-0.24545 0.56445-0.38086l3.5605 4.7051 0.42188-0.24414-3.9824-5.2617z"/>
  <path id="path5076" style="fill-opacity:.23529;fill:#fff" d="m-21.851 50.261c-8.2862 0-15.004 6.7148-15.004 14.998 0 0.06793 0.0089 0.13345 0.0098 0.20117 0.10787-8.1904 6.7752-14.799 14.994-14.799 8.216 0 14.879 6.6084 14.986 14.799 0.0009-0.06772 0.00977-0.13324 0.00977-0.20117 0-8.2832-6.7128-14.998-14.996-14.998zm7.084 5.6367-3.7715 4.9824c-0.18032-0.13633-0.36758-0.26689-0.56836-0.38281-0.1537-0.08874-0.31219-0.15958-0.4707-0.23047l-0.14062 0.33203c0.20694 0.0876 0.41178 0.18362 0.61133 0.29883 0.20078 0.11592 0.38804 0.24648 0.56836 0.38281l3.9824-5.2617-0.21094-0.12109zm-7.0879 3.8633c-2.3936 0.00084-4.4261 1.5337-5.1816 3.668l-5.9863-2.1172c-0.04659 0.11731-0.09894 0.22973-0.14258 0.34961l6.1289 2.168c0.75552-2.1343 2.7881-3.6671 5.1816-3.668v-0.40039zm0.0039 3.5c-1.0991 0-2.0039 0.89453-2.0039 2 0 0.0681 0.01277 0.13282 0.01953 0.19922 0.10294-1.0097 0.95363-1.7988 1.9844-1.7988 1.0352 0 1.875 0.78916 1.9766 1.7988 0.0067-0.06639 0.01953-0.13112 0.01953-0.19922 0-1.1055-0.89231-2-1.9961-2zm-4.4844 2.1992c-0.0031 0.06813-0.01953 0.13229-0.01953 0.20117 0 2.4847 2.0168 4.5 4.502 4.5 2.4825 0 4.498-2.0153 4.498-4.5 0-0.06888-0.01646-0.13304-0.01953-0.20117-0.10655 2.3902-2.0642 4.3008-4.4785 4.3008-2.4169 0-4.3758-1.9106-4.4824-4.3008zm6.7578 5.1953c-0.04729 0.02114-0.09308 0.04827-0.14062 0.06836l2.5645 6.0801 2.5977-1.5-0.21094-0.2793-2.3867 1.3789-2.4238-5.748z"/>
 </g>
 <rect id="rect892-2-7-8" style="opacity:.15891;stroke:#000;stroke-width:4.8445;fill:none" transform="scale(1,-1)" ry="28.993" height="114.35" width="114.22" y="-121.16" x="6.8687"/>
 <g id="g17906" transform="matrix(2.3438 0 0 2.2539 224.79 41.695)"></g>
 <path id="path4891" d="m25.685 5.7862c3.6386-0.3502 2.8432 14.02 2.8432 14.02s16.093-0.84846 16.525 1.9543c3.85-3.268-16.654-16.76-19.368-15.974z" style="opacity:.3;fill-rule:evenodd;filter:url(#filter3198-5)" transform="matrix(0 2.6586 -4.0239 0 144.6 .66614)"/>
 <path id="path4893" d="m120.08 74.021c-2.5978 9.0661-48.197 8.1132-48.197 8.1132s3.0089 37.274-10.414 38.176c7.898 2.3435 47.822-27.079 56.811-41.551 1.1551-1.8595 1.7994-3.4722 1.7994-4.7388z" style="fill:url(#linearGradient6921);fill-rule:evenodd"/>
 <path id="path7515-3-2" style="fill:#fff;fill-opacity:.53725" d="m-39.105-36.989c-2.4456 0-4.4564 1.7053-4.9167 4 0.89496-0.7464 2.0654-1.1667 3.3333-1.1667h117.67c1.268 0 2.4384 0.42027 3.3333 1.1667-0.46027-2.2947-2.4711-4-4.9167-4h-114.5z"/>
</svg>
