<?xml version="1.0" encoding="UTF-8" standalone="no"?>
<!-- Created with Inkscape (http://www.inkscape.org/) -->
<svg id="svg3449" xmlns:rdf="http://www.w3.org/1999/02/22-rdf-syntax-ns#" xmlns="http://www.w3.org/2000/svg" height="128" width="128" version="1.0" xmlns:cc="http://creativecommons.org/ns#" xmlns:xlink="http://www.w3.org/1999/xlink" xmlns:dc="http://purl.org/dc/elements/1.1/">
 <metadata id="metadata56">
  <rdf:RDF>
   <cc:Work rdf:about="">
    <dc:format>image/svg+xml</dc:format>
    <dc:type rdf:resource="http://purl.org/dc/dcmitype/StillImage"/>
    <dc:title/>
   </cc:Work>
  </rdf:RDF>
 </metadata>
 <defs id="defs3451">
  <linearGradient id="linearGradient3514" y2="-9.1034" gradientUnits="userSpaceOnUse" x2="66.492" gradientTransform="matrix(.96826 0 0 .97948 2.179 .16587)" y1="-42.638" x1="67.952">
   <stop id="stop4620" style="stop-color:#37414b" offset="0"/>
   <stop id="stop4622" style="stop-color:#37414b;stop-opacity:0" offset="1"/>
  </linearGradient>
  <linearGradient id="linearGradient3516" y2="-11.847" gradientUnits="userSpaceOnUse" x2="58.98" gradientTransform="matrix(.96826 0 0 .97948 2.179 .16587)" y1="-118.55" x1="57.173">
   <stop id="stop4596" offset="0"/>
   <stop id="stop4598" style="stop-opacity:0" offset="1"/>
  </linearGradient>
  <linearGradient id="linearGradient3519" y2="50.369" gradientUnits="userSpaceOnUse" x2="76.558" gradientTransform="matrix(.96826 0 0 .97948 3.2423 -129.19)" y1="13.164" x1="76.558">
   <stop id="stop3392" style="stop-color:#425e7b" offset="0"/>
   <stop id="stop3394" style="stop-color:#7a91a7" offset="1"/>
  </linearGradient>
  <linearGradient id="linearGradient3521" y2="-8.7399" gradientUnits="userSpaceOnUse" x2="60.217" gradientTransform="matrix(.96826 0 0 .97948 2.179 .16587)" y1="-123.72" x1="60.395">
   <stop id="stop3392-4-8" style="stop-color:#425e7b" offset="0"/>
   <stop id="stop3394-8-0" style="stop-color:#7a91a7" offset="1"/>
  </linearGradient>
  <linearGradient id="linearGradient4192" y2="31.742" gradientUnits="userSpaceOnUse" x2="121.11" y1="31.742" x1="6.5334">
   <stop id="stop4188" style="stop-color:#fff" offset="0"/>
   <stop id="stop4190" style="stop-color:#fff;stop-opacity:0" offset="1"/>
  </linearGradient>
  <linearGradient id="linearGradient11577" y2="8.1" gradientUnits="userSpaceOnUse" y1="6.1438" x2="19.387" x1="19.49">
   <stop id="stop10999-9-0" offset="0"/>
   <stop id="stop11001-6-1" style="stop-opacity:0" offset="1"/>
  </linearGradient>
  <filter id="filter3198-5" color-interpolation-filters="sRGB" width="1.1734" y="-.10752" x="-.086712" height="1.215">
   <feGaussianBlur id="feGaussianBlur3200-3" stdDeviation="0.71710775"/>
  </filter>
  <linearGradient id="linearGradient6921" y2="5.4565" gradientUnits="userSpaceOnUse" x2="36.358" gradientTransform="matrix(0 3.8171 -6.1772 0 129.98 -37.908)" y1="8.059" x1="32.892">
   <stop id="stop8591-7-2-1" style="stop-color:#fefefe" offset="0"/>
   <stop id="stop8593-2-4-5" style="stop-color:#cbcbcb" offset="1"/>
  </linearGradient>
  <radialGradient id="radialGradient6925" gradientUnits="userSpaceOnUse" cy="-16.639" cx="2.6083" gradientTransform="matrix(-5.7453 2.452e-7 -2.5955e-7 -6.0905 124.78 -36.865)" r="23">
   <stop id="stop6546-7-5" style="stop-color:#7b7b7b" offset="0"/>
   <stop id="stop6548-9-0" style="stop-color:#404040" offset="1"/>
  </radialGradient>
  <style id="style1246" type="text/css">.fil0 {fill:#1F1A17}</style>
  <style id="style1115" type="text/css">.fil0 {fill:#1F1A17}</style>
  <style id="style1246-3" type="text/css">.fil0 {fill:#1F1A17}</style>
  <style id="style1115-1" type="text/css">.fil0 {fill:#1F1A17}</style>
  <style id="style1246-0" type="text/css">.fil0 {fill:#1F1A17}</style>
  <style id="style1115-7" type="text/css">.fil0 {fill:#1F1A17}</style>
  <style id="style1246-4" type="text/css">.fil0 {fill:#1F1A17}</style>
  <style id="style1115-9" type="text/css">.fil0 {fill:#1F1A17}</style>
  <style id="style1246-7" type="text/css">.fil0 {fill:#1F1A17}</style>
  <style id="style1115-6" type="text/css">.fil0 {fill:#1F1A17}</style>
  <style id="style1246-5" type="text/css">.fil0 {fill:#1F1A17}</style>
  <style id="style1115-8" type="text/css">.fil0 {fill:#1F1A17}</style>
  <linearGradient id="linearGradient4255-7" y2="538.04" xlink:href="#linearGradient4257-1" gradientUnits="userSpaceOnUse" y1="565.75" x2="506.8" x1="506.8"/>
  <linearGradient id="linearGradient4257-1">
   <stop id="stop4259-2" style="stop-color:#dadcde" offset="0"/>
   <stop id="stop4261-3" style="stop-color:#fafafa" offset="1"/>
  </linearGradient>
 </defs>
 <rect id="rect892-2-7-1" style="opacity:.15891;stroke:#000;stroke-width:7.7512;fill:none" transform="scale(1,-1)" ry="28.993" height="114.35" width="114.22" y="-121.16" x="6.8687"/>
 <rect id="rect892-2-7-2" ry="29.452" style="stroke:#d3d3d3;stroke-width:9.8448;fill:#37414b" transform="scale(1,-1)" height="116.16" width="116.08" y="-122.08" x="5.9224"/>
 <rect id="rect892" style="stroke:url(#linearGradient3521);stroke-width:.97385;fill:url(#linearGradient3519)" transform="scale(1,-1)" ry="29.296" height="115.54" width="114.22" y="-122.25" x="7.0394"/>
 <rect id="rect892-2" style="stroke:url(#linearGradient3516);stroke-width:.97385;fill:url(#linearGradient3514)" transform="scale(1,-1)" ry="28.993" height="114.35" width="114.22" y="-121.46" x="7.0599"/>
 <path id="path4159-5" style="stroke:url(#linearGradient4192);stroke-width:1px;fill:none" d="m7.0334 31.742h113.58z"/>
 <path id="path4322" d="m120.09 74.559c-1.82 3.831-41.638 40.371-56.018 45.741-66.185 6.38-58.724-19.48-56.838-84.917 4.797-34.382 28.284-28.298 90.407-27.48 28.999 8.074 22.189 27.125 22.449 66.656z" style="fill-rule:evenodd;fill:url(#radialGradient6925)"/>
 <g id="g9994" transform="translate(-226.36 52.846)">
  <g id="g4275" style="fill-opacity:.058824" transform="matrix(2.1649 0 0 2.1649 -808.32 -1182.3)">
   <path id="path4277" style="fill-opacity:.058824" d="m519.24 545.56h-1.3477q-0.17578-0.70312-0.64453-1.6602-0.44922-0.97657-1.0156-1.8359-0.58593-0.89844-1.2891-1.5625-0.68359-0.68359-1.3281-0.78125-0.60547-0.0781-1.5234-0.11719-0.91797-0.0391-1.6992-0.0391h-1.1328v22.168q0 0.64453 0.27343 1.1914 0.27344 0.52735 0.95704 0.82032 0.35156 0.13672 1.4648 0.37109 1.1328 0.23438 1.7578 0.25391v1.3867h-13.086v-1.3867q0.54688-0.0391 1.6602-0.15625 1.1328-0.11719 1.5625-0.29297 0.64453-0.25391 0.9375-0.72266 0.3125-0.48828 0.3125-1.2891v-22.344h-1.1328q-0.60547 0-1.5039 0.0391-0.89844 0.0195-1.7188 0.11719-0.64453 0.0781-1.3476 0.78125-0.6836 0.68359-1.2695 1.5625-0.58593 0.87891-1.0352 1.875-0.44922 0.97656-0.625 1.6211h-1.3672v-7.5195h24.141v7.5195z"/>
  </g>
  <g id="g4271" style="fill-opacity:.11765" transform="matrix(2.1649 0 0 2.1649 -808.32 -1183.1)">
   <path id="path4273" d="m519.24 545.56h-1.3477q-0.17578-0.70312-0.64453-1.6602-0.44922-0.97657-1.0156-1.8359-0.58593-0.89844-1.2891-1.5625-0.68359-0.68359-1.3281-0.78125-0.60547-0.0781-1.5234-0.11719-0.91797-0.0391-1.6992-0.0391h-1.1328v22.168q0 0.64453 0.27343 1.1914 0.27344 0.52735 0.95704 0.82032 0.35156 0.13672 1.4648 0.37109 1.1328 0.23438 1.7578 0.25391v1.3867h-13.086v-1.3867q0.54688-0.0391 1.6602-0.15625 1.1328-0.11719 1.5625-0.29297 0.64453-0.25391 0.9375-0.72266 0.3125-0.48828 0.3125-1.2891v-22.344h-1.1328q-0.60547 0-1.5039 0.0391-0.89844 0.0195-1.7188 0.11719-0.64453 0.0781-1.3476 0.78125-0.6836 0.68359-1.2695 1.5625-0.58593 0.87891-1.0352 1.875-0.44922 0.97656-0.625 1.6211h-1.3672v-7.5195h24.141v7.5195z" style="fill-opacity:.11765"/>
  </g>
  <g id="g4263" style="fill-opacity:.23529" transform="matrix(2.1649 0 0 2.1649 -808.32 -1183.9)">
   <path id="path4265" style="fill-opacity:.23529" d="m519.24 545.56h-1.3477q-0.17578-0.70312-0.64453-1.6602-0.44922-0.97657-1.0156-1.8359-0.58593-0.89844-1.2891-1.5625-0.68359-0.68359-1.3281-0.78125-0.60547-0.0781-1.5234-0.11719-0.91797-0.0391-1.6992-0.0391h-1.1328v22.168q0 0.64453 0.27343 1.1914 0.27344 0.52735 0.95704 0.82032 0.35156 0.13672 1.4648 0.37109 1.1328 0.23438 1.7578 0.25391v1.3867h-13.086v-1.3867q0.54688-0.0391 1.6602-0.15625 1.1328-0.11719 1.5625-0.29297 0.64453-0.25391 0.9375-0.72266 0.3125-0.48828 0.3125-1.2891v-22.344h-1.1328q-0.60547 0-1.5039 0.0391-0.89844 0.0195-1.7188 0.11719-0.64453 0.0781-1.3476 0.78125-0.6836 0.68359-1.2695 1.5625-0.58593 0.87891-1.0352 1.875-0.44922 0.97656-0.625 1.6211h-1.3672v-7.5195h24.141v7.5195z"/>
  </g>
  <g id="text4242" style="fill:url(#linearGradient4255-7)" transform="matrix(2.1649 0 0 2.1649 -808.32 -1184.7)">
   <path id="path4247" d="m519.24 545.56h-1.3477q-0.17578-0.70312-0.64453-1.6602-0.44922-0.97657-1.0156-1.8359-0.58593-0.89844-1.2891-1.5625-0.68359-0.68359-1.3281-0.78125-0.60547-0.0781-1.5234-0.11719-0.91797-0.0391-1.6992-0.0391h-1.1328v22.168q0 0.64453 0.27343 1.1914 0.27344 0.52735 0.95704 0.82032 0.35156 0.13672 1.4648 0.37109 1.1328 0.23438 1.7578 0.25391v1.3867h-13.086v-1.3867q0.54688-0.0391 1.6602-0.15625 1.1328-0.11719 1.5625-0.29297 0.64453-0.25391 0.9375-0.72266 0.3125-0.48828 0.3125-1.2891v-22.344h-1.1328q-0.60547 0-1.5039 0.0391-0.89844 0.0195-1.7188 0.11719-0.64453 0.0781-1.3476 0.78125-0.6836 0.68359-1.2695 1.5625-0.58593 0.87891-1.0352 1.875-0.44922 0.97656-0.625 1.6211h-1.3672v-7.5195h24.141v7.5195z" style="fill:url(#linearGradient4255-7)"/>
  </g>
  <path id="path4281" style="fill:#4b4f54;fill-opacity:.31373" d="m282.73-18.237c-0.87386 0-1.9611 0.02563-3.2578 0.08203-1.2967 0.02813-2.5348 0.11291-3.7188 0.2539-0.93022 0.11266-1.9032 0.67653-2.918 1.6914-0.98663 0.98661-1.9043 2.1143-2.75 3.3828-0.84566 1.2685-1.5899 2.621-2.2383 4.0586-0.64834 1.4094-1.1018 2.5815-1.3555 3.5117h-2.9609v1.5977h2.9609c0.25371-0.93023 0.70713-2.0984 1.3555-3.5078 0.64835-1.4376 1.3926-2.7901 2.2383-4.0586 0.84566-1.2685 1.7634-2.3962 2.75-3.3828 1.0148-1.0149 1.9877-1.5787 2.918-1.6914 1.1839-0.14102 2.4221-0.22577 3.7188-0.25391 1.2967-0.0564 2.384-0.08594 3.2578-0.08594h2.4531v-1.5977h-2.4531zm11.457 0v1.5977h2.4531c1.1276 0 2.3548 0.02954 3.6797 0.08594 1.3249 0.05648 2.423 0.14124 3.2969 0.25391 0.93024 0.14094 1.8884 0.70481 2.875 1.6914 1.0148 0.95843 1.9473 2.0861 2.793 3.3828 0.81748 1.2403 1.547 2.5632 2.1953 3.9727 0.67653 1.3813 1.1447 2.579 1.3984 3.5938h2.918v-1.5977h-2.918c-0.2537-1.0148-0.7219-2.2125-1.3984-3.5938-0.64835-1.4095-1.3778-2.7363-2.1953-3.9766-0.84565-1.2967-1.7782-2.4244-2.793-3.3828-0.9866-0.9866-1.9448-1.5505-2.875-1.6914-0.87385-0.11267-1.972-0.19744-3.2969-0.25391-1.3249-0.0564-2.5521-0.08203-3.6797-0.08203h-2.4531zm-18.688 56.699v1.6016h28.328v-1.6016h-28.328z"/>
  <path id="path4292" style="fill:#fff;fill-opacity:.23529" d="m263.53-19.936v0.80078h52.266v-0.80078h-52.266zm30.656 51.289v0.80078c0 0.93024 0.19912 1.7888 0.59375 2.5781 0.39464 0.76111 1.0837 1.3545 2.0703 1.7773 0.50739 0.19732 1.5651 0.46643 3.1719 0.80469 1.6349 0.33828 2.9026 0.51869 3.8047 0.54688v-0.80078c-0.90205-0.02818-2.1697-0.2086-3.8047-0.54688-1.6068-0.33825-2.6645-0.60737-3.1719-0.80469-0.98663-0.42284-1.6757-1.0162-2.0703-1.7773-0.39464-0.78928-0.59375-1.6479-0.59375-2.5781zm-9.0039 0.38281c0 1.1557-0.22866 2.0843-0.67969 2.7891-0.42282 0.67653-1.0971 1.1999-2.0273 1.5664-0.62016 0.25369-1.7479 0.46367-3.3828 0.63281-1.6068 0.1691-2.8045 0.27954-3.5938 0.33594v0.80078c0.78929-0.0564 1.987-0.16684 3.5938-0.33594 1.6349-0.16914 2.7626-0.38303 3.3828-0.63672 0.93024-0.36647 1.6045-0.88597 2.0273-1.5625 0.45103-0.70472 0.67969-1.6372 0.67969-2.793v-0.79687z"/>
 </g>
 <rect id="rect892-2-7-8" style="opacity:.15891;stroke:#000;stroke-width:4.8445;fill:none" transform="scale(1,-1)" ry="28.993" height="114.35" width="114.22" y="-121.16" x="6.8687"/>
 <rect id="rect892-2-7-2-9" ry="28.067" style="stroke:#000;stroke-width:1.0489;fill:none" transform="scale(1,-1)" height="112.71" width="114.14" y="-120.31" x="7.0649"/>
 <g id="g17906" transform="matrix(2.3438 0 0 2.2539 224.79 41.695)"></g>
 <path id="path4891" d="m25.685 5.7862c3.6386-0.3502 2.8432 14.02 2.8432 14.02s16.093-0.84846 16.525 1.9543c3.85-3.268-16.654-16.76-19.368-15.974z" style="opacity:.3;fill-rule:evenodd;filter:url(#filter3198-5)" transform="matrix(0 2.6586 -4.0239 0 144.6 .66614)"/>
 <path id="path4893" d="m120.42 71.909c-2.6379 9.487-48.941 8.4899-48.941 8.4899s3.0553 39.005-10.575 39.949c8.02 2.4523 48.56-28.337 57.689-43.48 1.1729-1.9458 1.8272-3.6334 1.8272-4.9589z" style="fill:url(#linearGradient6921);fill-rule:evenodd"/>
</svg>
