<?xml version="1.0" encoding="UTF-8" standalone="no"?>
<!-- Created with Inkscape (http://www.inkscape.org/) -->
<svg id="svg3449" xmlns:rdf="http://www.w3.org/1999/02/22-rdf-syntax-ns#" xmlns="http://www.w3.org/2000/svg" height="128" width="128" version="1.0" xmlns:cc="http://creativecommons.org/ns#" xmlns:xlink="http://www.w3.org/1999/xlink" xmlns:dc="http://purl.org/dc/elements/1.1/">
 <metadata id="metadata56">
  <rdf:RDF>
   <cc:Work rdf:about="">
    <dc:format>image/svg+xml</dc:format>
    <dc:type rdf:resource="http://purl.org/dc/dcmitype/StillImage"/>
    <dc:title/>
   </cc:Work>
  </rdf:RDF>
 </metadata>
 <defs id="defs3451">
  <linearGradient id="linearGradient3514" y2="-9.1034" gradientUnits="userSpaceOnUse" x2="66.492" gradientTransform="matrix(.96826 0 0 .97948 2.179 .16587)" y1="-42.638" x1="67.952">
   <stop id="stop4620" style="stop-color:#37414b" offset="0"/>
   <stop id="stop4622" style="stop-color:#37414b;stop-opacity:0" offset="1"/>
  </linearGradient>
  <linearGradient id="linearGradient3516" y2="-11.847" gradientUnits="userSpaceOnUse" x2="58.98" gradientTransform="matrix(.96826 0 0 .97948 2.179 .16587)" y1="-118.55" x1="57.173">
   <stop id="stop4596" offset="0"/>
   <stop id="stop4598" style="stop-opacity:0" offset="1"/>
  </linearGradient>
  <linearGradient id="linearGradient3519" y2="50.369" gradientUnits="userSpaceOnUse" x2="76.558" gradientTransform="matrix(.96826 0 0 .97948 3.2423 -129.19)" y1="13.164" x1="76.558">
   <stop id="stop3392" style="stop-color:#425e7b" offset="0"/>
   <stop id="stop3394" style="stop-color:#7a91a7" offset="1"/>
  </linearGradient>
  <linearGradient id="linearGradient3521" y2="-8.7399" gradientUnits="userSpaceOnUse" x2="60.217" gradientTransform="matrix(.96826 0 0 .97948 2.179 .16587)" y1="-123.72" x1="60.395">
   <stop id="stop3392-4-8" style="stop-color:#425e7b" offset="0"/>
   <stop id="stop3394-8-0" style="stop-color:#7a91a7" offset="1"/>
  </linearGradient>
  <radialGradient id="radialGradient3349" gradientUnits="userSpaceOnUse" cy="45.647" cx="42.148" gradientTransform="matrix(.94690 0 0 1.139 3.5954 -29.89)" r="58.984">
   <stop id="stop10978" style="stop-color:#60caff" offset="0"/>
   <stop id="stop10980" style="stop-color:#049dec" offset="1"/>
  </radialGradient>
  <linearGradient id="linearGradient11109" y2="9" gradientUnits="userSpaceOnUse" x2="24" gradientTransform="matrix(2.6667 0 0 2.6667 -147.72 -7.3696)" y1="39" x1="24">
   <stop id="stop4252-7" style="stop-color:#cdeeff" offset="0"/>
   <stop id="stop4254-5" style="stop-color:#f5fcff" offset="1"/>
  </linearGradient>
 </defs>
 <rect id="rect892-2-7-2" ry="29.452" style="stroke:#d3d3d3;stroke-width:9.8448;fill:#37414b" transform="scale(1,-1)" height="116.16" width="116.08" y="-122.08" x="5.9224"/>
 <rect id="rect892" style="stroke:url(#linearGradient3521);stroke-width:.97385;fill:url(#linearGradient3519)" transform="scale(1,-1)" ry="29.296" height="115.54" width="114.22" y="-122.25" x="7.0394"/>
 <rect id="rect892-2" style="stroke:url(#linearGradient3516);stroke-width:.97385;fill:url(#linearGradient3514)" transform="scale(1,-1)" ry="28.993" height="114.35" width="114.22" y="-121.46" x="7.0599"/>
 <path id="rect895" style="fill:url(#radialGradient3349)" d="m33.051 7.2596c-7.969-2.4493-27.013 15.174-25.653 23.038-0.050142 0.97378-0.088772 1.9648-0.088772 2.9572v52.419c0 20.876 10.712 33.859 22.318 33.859h67.038c12.638 0 24.318-11.245 24.318-25.859v-64.017c0.7-10.928-21.283-24.659-25.926-22.618-47.846 0.8653-18.017 0.2236-62.003 0.2236z"/>
 <rect id="rect892-2-7-8" style="opacity:.15891;stroke:#000;stroke-width:4.8445;fill:none" transform="scale(1,-1)" ry="28.993" height="114.35" width="114.22" y="-121.16" x="6.8687"/>
 <rect id="rect892-2-7-1" style="opacity:.15891;stroke:#000;stroke-width:7.7512;fill:none" transform="scale(1,-1)" ry="28.993" height="114.35" width="114.22" y="-121.16" x="6.8687"/>
 <rect id="rect892-2-7-2-9" ry="28.067" style="stroke:#000;stroke-width:1.0489;fill:none" transform="scale(1,-1)" height="112.71" width="114.14" y="-120.31" x="7.0649"/>
 <path id="path1187" style="fill:#fff;fill-opacity:.057143" d="m33.017 7.2319c-23.707 0-26.027 0.6738-25.93 26.295-0.04334 0.71563-0.07674 1.4439-0.07674 2.1732v32.76c18.67-38.321 38.34-51.497 90.374-61.179-0.225-0.026-0.46-0.0303-0.691-0.0303-41.576 0.3874-25.652-0.0188-63.676-0.0188z"/>
 <g id="g11101" transform="translate(147.87 4.9526)">
  <path id="path4497" style="fill-opacity:.058824" d="m-54.383 19.831c-5.9094 0-10.667 4.7573-10.667 10.667 0 0.04453 0.01067 0.08587 0.01067 0.13013-5.3879-3.4438-11.782-5.4635-18.677-5.4635-7.375 0-14.184 2.2963-19.792 6.1927-1.2902-0.55168-2.7118-0.85939-4.2083-0.85939-5.9094 0-10.667 4.7573-10.667 10.667 0 2.4503 0.85037 4.6768 2.2292 6.4739-1.4194 3.794-2.2292 7.8916-2.2292 12.193 0 6.8954 2.0197 13.289 5.4635 18.677-0.0443-0.00056-0.0856-0.01067-0.13013-0.01067-5.9094 0-10.667 4.7573-10.667 10.667 0 5.9094 4.7573 10.667 10.667 10.667 5.9094 0 10.667-4.7573 10.667-10.667 0-0.04453-0.0107-0.08587-0.0107-0.13013 5.3879 3.4439 11.782 5.4635 18.677 5.4635 7.375 0 14.184-2.2963 19.792-6.1927 1.2902 0.55168 2.7118 0.85938 4.2083 0.85938 5.9094 0 10.667-4.7573 10.667-10.667 0-2.4503-0.85037-4.6768-2.2292-6.4739 1.4194-3.794 2.2292-7.8916 2.2292-12.193 0-6.8954-2.0197-13.289-5.4635-18.677 0.04427 0.00056 0.0856 0.01067 0.13013 0.01067 5.9094 0 10.667-4.7573 10.667-10.667 0-5.9094-4.7573-10.667-10.667-10.667zm0 5.3333c2.9547 0 5.3333 2.3786 5.3333 5.3333s-2.3786 5.3333-5.3333 5.3333-5.3333-2.3786-5.3333-5.3333 2.3786-5.3333 5.3333-5.3333zm-47.318 7.1875c0.1536 0.10507 0.27949 0.24133 0.42709 0.35419-0.14773-0.11253-0.27352-0.24933-0.42709-0.35419zm17.984 0.81251c14.773 0 26.667 11.893 26.667 26.667 0 2.8422-0.44419 5.5758-1.2604 8.1406-0.46451-0.06133-0.92445-0.14053-1.4062-0.14053-5.9094 0-10.667 4.7573-10.667 10.667 0 1.4025 0.28307 2.7338 0.77083 3.9583-4.0904 2.5486-8.91 4.0416-14.104 4.0416-14.773 0-26.667-11.893-26.667-26.667 0-2.8422 0.44419-5.5758 1.2604-8.1406 0.4645 0.06133 0.92445 0.14053 1.4062 0.14053 5.9094 0 10.667-4.7573 10.667-10.667 0-1.4025-0.28307-2.7338-0.77083-3.9583 4.0904-2.5487 8.91-4.0417 14.104-4.0417zm-16.391 0.53125c0.0645 0.06613 0.11413 0.1456 0.17707 0.2136-0.0632-0.06773-0.11227-0.14747-0.17707-0.2136zm-7.6094 2.1354c2.9547 0 5.3333 2.3786 5.3333 5.3333s-2.3786 5.3333-5.3333 5.3333-5.3333-2.3786-5.3333-5.3333 2.3786-5.3333 5.3333-5.3333zm48 37.333c2.9547 0 5.3333 2.3786 5.3333 5.3333s-2.3786 5.3333-5.3333 5.3333-5.3333-2.3786-5.3333-5.3333 2.3786-5.3333 5.3333-5.3333zm-53.333 10.667c2.9547 0 5.3333 2.3786 5.3333 5.3333s-2.3786 5.3333-5.3333 5.3333-5.3333-2.3786-5.3333-5.3333 2.3786-5.3333 5.3333-5.3333zm45.547 1.9219c0.0632 0.06773 0.11227 0.14747 0.17707 0.2136-0.06453-0.06613-0.11413-0.1456-0.17707-0.2136zm1.3437 1.2031c0.14773 0.11253 0.27352 0.24933 0.42709 0.35416-0.1536-0.10507-0.27949-0.24133-0.42709-0.35416z"/>
  <path id="path4495" style="fill-opacity:.11765" d="m-54.383 18.764c-5.9094 0-10.667 4.7573-10.667 10.667 0 0.04453 0.01067 0.08587 0.01067 0.13013-5.3879-3.4438-11.782-5.4635-18.677-5.4635-7.375 0-14.184 2.2963-19.792 6.1927-1.2902-0.55168-2.7118-0.85938-4.2083-0.85938-5.9094 0-10.667 4.7573-10.667 10.667 0 2.4503 0.85037 4.6768 2.2292 6.4739-1.4194 3.794-2.2292 7.8916-2.2292 12.193 0 6.8954 2.0197 13.289 5.4635 18.677-0.0443-0.00056-0.0856-0.01067-0.13013-0.01067-5.9094 0-10.667 4.7573-10.667 10.667 0 5.9094 4.7573 10.667 10.667 10.667 5.9094 0 10.667-4.7573 10.667-10.667 0-0.04453-0.0107-0.08587-0.0107-0.13013 5.3879 3.4439 11.782 5.4635 18.677 5.4635 7.375 0 14.184-2.2963 19.792-6.1927 1.2902 0.55168 2.7118 0.85939 4.2083 0.85939 5.9094 0 10.667-4.7573 10.667-10.667 0-2.4503-0.85037-4.6768-2.2292-6.4739 1.4194-3.794 2.2292-7.8916 2.2292-12.193 0-6.8954-2.0197-13.289-5.4635-18.677 0.04427 0.00056 0.0856 0.01067 0.13013 0.01067 5.9094 0 10.667-4.7573 10.667-10.667 0-5.9094-4.7573-10.667-10.667-10.667zm0 5.3333c2.9547 0 5.3333 2.3786 5.3333 5.3333s-2.3786 5.3333-5.3333 5.3333-5.3333-2.3786-5.3333-5.3333 2.3786-5.3333 5.3333-5.3333zm-47.318 7.1875c0.1536 0.10507 0.27949 0.24133 0.42709 0.35419-0.14773-0.11253-0.27352-0.24933-0.42709-0.35419zm17.984 0.8125c14.773 0 26.667 11.893 26.667 26.667 0 2.8422-0.44419 5.5758-1.2604 8.1406-0.46451-0.06133-0.92445-0.14053-1.4062-0.14053-5.9094 0-10.667 4.7573-10.667 10.667 0 1.4025 0.28307 2.7338 0.77083 3.9583-4.0904 2.5486-8.91 4.0416-14.104 4.0416-14.773 0-26.667-11.893-26.667-26.667 0-2.8422 0.44419-5.5758 1.2604-8.1406 0.4645 0.06133 0.92445 0.14053 1.4062 0.14053 5.9094 0 10.667-4.7573 10.667-10.667 0-1.4025-0.28307-2.7338-0.77083-3.9583 4.0904-2.5487 8.91-4.0417 14.104-4.0417zm-16.391 0.53125c0.0645 0.06613 0.11413 0.1456 0.17707 0.2136-0.0632-0.06773-0.11227-0.14747-0.17707-0.2136zm-7.6094 2.1354c2.9547 0 5.3333 2.3786 5.3333 5.3333s-2.3786 5.3333-5.3333 5.3333-5.3333-2.3786-5.3333-5.3333 2.3786-5.3333 5.3333-5.3333zm48 37.333c2.9547 0 5.3333 2.3786 5.3333 5.3333s-2.3786 5.3333-5.3333 5.3333-5.3333-2.3786-5.3333-5.3333 2.3786-5.3333 5.3333-5.3333zm-53.333 10.667c2.9547 0 5.3333 2.3786 5.3333 5.3333s-2.3786 5.3333-5.3333 5.3333-5.3333-2.3786-5.3333-5.3333 2.3786-5.3333 5.3333-5.3333zm45.547 1.9219c0.0632 0.06773 0.11227 0.14747 0.17707 0.2136-0.06453-0.06613-0.11413-0.1456-0.17707-0.2136zm1.3437 1.2031c0.14773 0.11253 0.27352 0.24933 0.42709 0.35416-0.1536-0.10507-0.27949-0.24133-0.42709-0.35416z"/>
  <path id="path4491" style="fill-opacity:.23529" d="m-54.383 17.697c-5.9094 0-10.667 4.7573-10.667 10.667 0 0.04453 0.01067 0.08587 0.01067 0.13013-5.3879-3.4438-11.782-5.4635-18.677-5.4635-7.375 0-14.184 2.2963-19.792 6.1927-1.2902-0.55168-2.7118-0.85939-4.2083-0.85939-5.9094 0-10.667 4.7573-10.667 10.667 0 2.4503 0.85037 4.6768 2.2292 6.4739-1.4194 3.794-2.2292 7.8916-2.2292 12.193 0 6.8954 2.0197 13.289 5.4635 18.677-0.0443-0.00056-0.0856-0.01067-0.13013-0.01067-5.9094 0-10.667 4.7573-10.667 10.667 0 5.9094 4.7573 10.667 10.667 10.667 5.9094 0 10.667-4.7573 10.667-10.667 0-0.04453-0.0107-0.08587-0.0107-0.13013 5.3879 3.4439 11.782 5.4635 18.677 5.4635 7.375 0 14.184-2.2963 19.792-6.1927 1.2902 0.55168 2.7118 0.85938 4.2083 0.85938 5.9094 0 10.667-4.7573 10.667-10.667 0-2.4503-0.85037-4.6768-2.2292-6.4739 1.4194-3.794 2.2292-7.8916 2.2292-12.193 0-6.8954-2.0197-13.289-5.4635-18.677 0.04427 0.00056 0.0856 0.01067 0.13013 0.01067 5.9094 0 10.667-4.7573 10.667-10.667 0-5.9094-4.7573-10.667-10.667-10.667zm0 5.3333c2.9547 0 5.3333 2.3786 5.3333 5.3333s-2.3786 5.3333-5.3333 5.3333-5.3333-2.3786-5.3333-5.3333 2.3786-5.3333 5.3333-5.3333zm-47.318 7.1875c0.1536 0.10507 0.27949 0.24133 0.42709 0.35419-0.14773-0.11253-0.27352-0.24933-0.42709-0.35419zm17.984 0.81251c14.773 0 26.667 11.893 26.667 26.667 0 2.8422-0.44419 5.5758-1.2604 8.1406-0.46451-0.06133-0.92445-0.14053-1.4062-0.14053-5.9094 0-10.667 4.7573-10.667 10.667 0 1.4025 0.28307 2.7338 0.77083 3.9583-4.0904 2.5486-8.91 4.0416-14.104 4.0416-14.773 0-26.667-11.893-26.667-26.667 0-2.8422 0.44419-5.5758 1.2604-8.1406 0.4645 0.06133 0.92445 0.14053 1.4062 0.14053 5.9094 0 10.667-4.7573 10.667-10.667 0-1.4025-0.28307-2.7338-0.77083-3.9583 4.0904-2.5487 8.91-4.0417 14.104-4.0417zm-16.391 0.53125c0.0645 0.06613 0.11413 0.1456 0.17707 0.2136-0.0632-0.06773-0.11227-0.14747-0.17707-0.2136zm-7.6094 2.1354c2.9547 0 5.3333 2.3786 5.3333 5.3333s-2.3786 5.3333-5.3333 5.3333-5.3333-2.3786-5.3333-5.3333 2.3786-5.3333 5.3333-5.3333zm48 37.333c2.9547 0 5.3333 2.3786 5.3333 5.3333s-2.3786 5.3333-5.3333 5.3333-5.3333-2.3786-5.3333-5.3333 2.3786-5.3333 5.3333-5.3333zm-53.333 10.667c2.9547 0 5.3333 2.3786 5.3333 5.3333s-2.3786 5.3333-5.3333 5.3333-5.3333-2.3786-5.3333-5.3333 2.3786-5.3333 5.3333-5.3333zm45.547 1.9219c0.0632 0.06773 0.11227 0.14747 0.17707 0.2136-0.06453-0.06613-0.11413-0.1456-0.17707-0.2136zm1.3437 1.2031c0.14773 0.11253 0.27352 0.24933 0.42709 0.35416-0.1536-0.10507-0.27949-0.24133-0.42709-0.35416z"/>
  <path id="rect4334" style="fill:url(#linearGradient11109)" d="m-54.383 16.63c-5.9094 0-10.667 4.7573-10.667 10.667 0 0.04453 0.0099 0.08581 0.0104 0.13021-5.3878-3.4438-11.782-5.4635-18.677-5.4635-7.375 0-14.184 2.2963-19.792 6.1927-1.2902-0.55167-2.7118-0.85938-4.2083-0.85938-5.9094 0-10.667 4.7573-10.667 10.667 0 2.4503 0.85037 4.6768 2.2292 6.474-1.4194 3.794-2.2292 7.8916-2.2292 12.193 0 6.8954 2.0197 13.289 5.4635 18.677-0.0444-0.000539-0.0857-0.01042-0.13021-0.01042-5.9094 0-10.667 4.7573-10.667 10.667 0 5.9094 4.7573 10.667 10.667 10.667 5.9094 0 10.667-4.7573 10.667-10.667 0-0.04453-0.01-0.08581-0.0104-0.13021 5.3878 3.4438 11.782 5.4635 18.677 5.4635 7.375 0 14.184-2.2963 19.792-6.1927 1.2902 0.55167 2.7118 0.85938 4.2083 0.85938 5.9094 0 10.667-4.7573 10.667-10.667 0-2.4503-0.85037-4.6768-2.2292-6.474 1.4193-3.794 2.2292-7.8916 2.2292-12.193 0-6.8954-2.0197-13.289-5.4635-18.677 0.04439 0.000539 0.08568 0.01042 0.13021 0.01042 5.9094 0 10.667-4.7573 10.667-10.667 0-5.9094-4.7573-10.667-10.667-10.667zm0 5.3333c2.9547 0 5.3333 2.3786 5.3333 5.3333s-2.3786 5.3333-5.3333 5.3333-5.3333-2.3786-5.3333-5.3333 2.3786-5.3333 5.3333-5.3333zm-47.318 7.1875c0.15363 0.10517 0.27949 0.24125 0.42709 0.35417-0.14763-0.11243-0.27352-0.24941-0.42709-0.35417zm17.984 0.8125c14.773 0 26.667 11.893 26.667 26.667 0 2.8422-0.44418 5.5758-1.2604 8.1406-0.46452-0.06129-0.92446-0.14062-1.4062-0.14062-5.9094 0-10.667 4.7573-10.667 10.667 0 1.4025 0.28306 2.7338 0.77083 3.9583-4.0904 2.5487-8.91 4.0417-14.104 4.0417-14.773 0-26.667-11.893-26.667-26.667 0-2.8422 0.44418-5.5758 1.2604-8.1406 0.46452 0.06129 0.92447 0.14062 1.4062 0.14062 5.9094 0 10.667-4.7573 10.667-10.667 0-1.4025-0.28306-2.7338-0.77083-3.9583 4.0904-2.5487 8.91-4.0417 14.104-4.0417zm-16.391 0.53125c0.0646 0.06619 0.11419 0.14568 0.1771 0.21355-0.06315-0.06776-0.11222-0.14744-0.1771-0.21355zm-7.6094 2.1354c2.9547 0 5.3333 2.3786 5.3333 5.3333s-2.3786 5.3333-5.3333 5.3333-5.3333-2.3786-5.3333-5.3333 2.3786-5.3333 5.3333-5.3333zm48 37.333c2.9547 0 5.3333 2.3786 5.3333 5.3333s-2.3786 5.3333-5.3333 5.3333-5.3333-2.3786-5.3333-5.3333 2.3786-5.3333 5.3333-5.3333zm-53.333 10.667c2.9547 0 5.3333 2.3786 5.3333 5.3333s-2.3786 5.3333-5.3333 5.3333-5.3333-2.3786-5.3333-5.3333 2.3786-5.3333 5.3333-5.3333zm45.547 1.9219c0.06315 0.06776 0.11221 0.14744 0.17709 0.21355-0.06461-0.06619-0.11419-0.14568-0.17709-0.21355zm1.3437 1.2031c0.14763 0.11243 0.27352 0.24941 0.42708 0.35417-0.15363-0.10515-0.27948-0.24125-0.42708-0.35417z"/>
  <path id="path4499" style="fill:#08a9fc;fill-opacity:.31373" d="m-54.383 19.828c-2.9547 0-5.3333 2.3786-5.3333 5.3333 0 0.36227 0.04117 0.71566 0.10939 1.0573 0.49567-2.4347 2.6386-4.2552 5.2239-4.2552 2.5854 0 4.7283 1.8205 5.224 4.2552 0.0682-0.34163 0.10938-0.69502 0.10938-1.0573 0-2.9547-2.3786-5.3333-5.3333-5.3333zm10.562 6.401c-0.53944 5.3969-5.0189 9.5989-10.562 9.5989-0.04453 0-0.08595-0.0099-0.13021-0.0104 0.42504 0.66497 0.8278 1.347 1.2083 2.0417 5.3919-0.5442 9.5885-5.0224 9.5885-10.563 0-0.36571-0.06859-0.71167-0.10416-1.0677zm-39.896 1.599c-5.1942 0-10.014 1.493-14.104 4.0417 0.23461 0.58905 0.4157 1.2093 0.54687 1.8437 3.9746-2.3526 8.5851-3.75 13.557-3.75 14.453 0 26.12 11.392 26.62 25.719 0.01731-0.39458 0.04687-0.78847 0.04687-1.1875 0-14.773-11.893-26.667-26.667-26.667zm-24 2.6667c-2.9547 0-5.3333 2.3786-5.3333 5.3333 0 0.36227 0.0412 0.71566 0.10939 1.0573 0.49567-2.4347 2.6386-4.2552 5.2239-4.2552 2.5854 0 4.7283 1.8205 5.224 4.2552 0.0682-0.34163 0.10937-0.69502 0.10937-1.0573 0-2.9547-2.3786-5.3333-5.3333-5.3333zm10.562 6.401c-0.53944 5.3969-5.0188 9.5989-10.562 9.5989-0.48178 0-0.94174-0.07928-1.4062-0.14061-0.81624 2.5648-1.2604 5.2984-1.2604 8.1406 0 0.32009 0.0358 0.63062 0.0469 0.94792 0.10621-2.4149 0.51218-4.7493 1.2135-6.9531 0.46451 0.06129 0.92446 0.14062 1.4062 0.14062 5.9094 0 10.667-4.7573 10.667-10.667 0-0.36574-0.06707-0.71229-0.10416-1.0677zm-21.13 0.06771c-0.0313 0.33412-0.099 0.65743-0.099 1 0 2.1445 0.67871 4.0966 1.7656 5.7604 0.15522-0.47371 0.28966-0.9571 0.46354-1.4219-1.161-1.5132-1.9107-3.3392-2.1302-5.3385zm69.193 18.464c-0.10877 3.9586-0.87191 7.7438-2.1875 11.26 0.17205 0.22427 0.30856 0.4763 0.46354 0.71354 1.1118-3.3931 1.7656-6.9966 1.7656-10.771 0-0.40466-0.02787-0.80202-0.04168-1.2031zm-69.25 0.27084c-0.009 0.31225-0.0417 0.61783-0.0417 0.93229 0 6.0469 1.5556 11.705 4.2604 16.641 0.35778-0.03595 0.70535-0.10939 1.0729-0.10939 0.0445 0 0.0859 0.0099 0.13022 0.0104-3.2417-5.0717-5.2007-11.04-5.4219-17.474zm58.625 12.13c-2.9547 0-5.3333 2.3786-5.3333 5.3333 0 0.36227 0.04117 0.71566 0.10939 1.0573 0.49567-2.4347 2.6386-4.2552 5.2239-4.2552 2.5854 0 4.7283 1.8205 5.224 4.2552 0.06819-0.34163 0.10938-0.69502 0.10938-1.0573 0-2.9547-2.3786-5.3333-5.3333-5.3333zm10.568 6.3333c-0.50818 5.4295-5.0009 9.6667-10.568 9.6667-1.4965 0-2.9181-0.3077-4.2083-0.85938-5.6073 3.8964-12.417 6.1927-19.792 6.1927-6.8954 0-13.289-2.0197-18.677-5.4635 0 0.04427 0.0104 0.08568 0.0104 0.13021 0 5.9094-4.7573 10.667-10.667 10.667-5.5471 0-10.022-4.2076-10.557-9.6094-0.0363 0.35953-0.10936 0.7087-0.10936 1.0781 0 5.9094 4.7573 10.667 10.667 10.667 5.9094 0 10.667-4.7573 10.667-10.667 0-0.04453-0.01-0.08581-0.0104-0.13021 5.3878 3.4438 11.782 5.4635 18.677 5.4635 7.375 0 14.184-2.2963 19.792-6.1927 1.2902 0.55167 2.7118 0.85938 4.2083 0.85938 5.9094 0 10.667-4.7573 10.667-10.667 0-0.38819-0.05755-0.75927-0.09896-1.1354zm-21.13 0.06771c-0.03558 0.35604-0.10416 0.70199-0.10416 1.0677 0 0.72618 0.08307 1.4315 0.22395 2.1146 0.17744-0.10504 0.37207-0.18275 0.54687-0.29167-0.36056-0.90521-0.56147-1.8831-0.66667-2.8906zm-42.771 4.2656c-2.9547 0-5.3333 2.3786-5.3333 5.3333 0 0.36227 0.0412 0.71566 0.10939 1.0573 0.49567-2.4347 2.6386-4.2552 5.2239-4.2552 2.5854 0 4.7283 1.8205 5.224 4.2552 0.0682-0.34163 0.10937-0.69502 0.10937-1.0573 0-2.9547-2.3786-5.3333-5.3333-5.3333z"/>
  <path id="path4504" style="fill:#fff;fill-opacity:.23529" d="m-54.383 16.63c-5.9094 0-10.667 4.7573-10.667 10.667 0 0.04453 0.0099 0.08581 0.0104 0.13021-5.3878-3.4438-11.782-5.4635-18.677-5.4635-7.375 0-14.184 2.2963-19.792 6.1927-1.2902-0.55167-2.7118-0.85938-4.2083-0.85938-5.9094 0-10.667 4.7573-10.667 10.667 0 0.19595 0.0414 0.37994 0.0521 0.57292 0.2623-5.6727 4.8748-10.172 10.615-10.172 1.4965 0 2.9181 0.30769 4.2083 0.85937 5.6073-3.8964 12.417-6.1927 19.792-6.1927 6.8954 0 13.289 2.0197 18.677 5.4635 0-0.04427-0.0104-0.08568-0.0104-0.13021 0-5.9094 4.7573-10.667 10.667-10.667 5.7256 0 10.331 4.4774 10.615 10.13 0.0089-0.17968 0.05207-0.34927 0.05207-0.53124 0-5.9094-4.7573-10.667-10.667-10.667zm-5.2812 11.198c-0.01795 0.17881-0.05208 0.35276-0.05208 0.53646 0 2.9547 2.3786 5.3333 5.3333 5.3333s5.3333-2.3786 5.3333-5.3333c0-0.18371-0.03413-0.35765-0.05208-0.53646-0.26847 2.6998-2.5085 4.8021-5.2812 4.8021-2.7728 0-5.0128-2.1023-5.2812-4.8021zm-37.88 7.0989c-0.08872 0.05389-0.188 0.09096-0.27604 0.14584 0.42447 1.0656 0.65597 2.2231 0.71875 3.4271 0.0091-0.18141 0.05208-0.35272 0.05208-0.53646 0-1.0641-0.20315-2.0699-0.49479-3.0365zm-15.453 3.5677c-0.018 0.17881-0.0521 0.35276-0.0521 0.53646 0 2.9547 2.3786 5.3333 5.3333 5.3333s5.3333-2.3786 5.3333-5.3333c0-0.18371-0.0341-0.35765-0.0521-0.53646-0.26847 2.6998-2.5085 4.8021-5.2812 4.8021-2.7728 0-5.0128-2.1023-5.2812-4.8021zm59.094 0.48958c-0.16224 0.0072-0.31508 0.04688-0.47917 0.04688-0.04453 0-0.08595-0.0099-0.13021-0.0104 3.3424 5.2291 5.3277 11.41 5.4427 18.073 0.0021-0.15584 0.02084-0.30721 0.02084-0.46356 0-6.4657-1.7935-12.478-4.8542-17.646zm-62.484 6.1667c-1.2609 3.5953-1.9948 7.4426-1.9948 11.479 0 0.2032 0.0173 0.40185 0.0208 0.60416 0.0565-4.1304 0.84057-8.0731 2.2083-11.729-0.0859-0.11192-0.15267-0.23896-0.23437-0.35417zm6.0312 11.953c-0.004 0.19895-0.026 0.39371-0.026 0.59375 0 14.773 11.893 26.667 26.667 26.667 5.1942 0 10.014-1.493 14.104-4.0417-0.11771-0.29549-0.18328-0.61446-0.27604-0.92188-4.0329 2.4491-8.7458 3.8958-13.828 3.8958-14.613 0-26.387-11.642-26.641-26.193zm53.281 0.11979c-0.05779 2.6277-0.47559 5.1626-1.2344 7.5469-0.46452-0.06129-0.92446-0.14062-1.4062-0.14062-5.9094 0-10.667 4.7573-10.667 10.667 0 0.182 0.04272 0.35174 0.05208 0.53125 0.28326-5.6528 4.889-10.13 10.615-10.13 0.48179 0 0.94174 0.07928 1.4062 0.14061 0.81624-2.5648 1.2604-5.2984 1.2604-8.1406 0-0.16008-0.0232-0.31456-0.02613-0.47396zm6.0312 11.953c-0.08267 0.23568-0.14707 0.48013-0.23437 0.71354 1.2695 1.6547 2.0548 3.684 2.1771 5.9062 0.0079-0.16934 0.05208-0.32862 0.05208-0.49999 0-2.2976-0.76477-4.3852-1.9948-6.1198zm-62.484 6.1667c-5.6803 0.25423-10.188 4.8746-10.188 10.62 0 0.18549 0.0428 0.35854 0.0521 0.54167 0.27798-5.6578 4.8854-10.141 10.615-10.141 0.0445 0 0.0859 0.0099 0.13022 0.0104-0.21459-0.33574-0.40598-0.68782-0.60938-1.0312zm48.531 0.48438c-0.01796 0.17881-0.05208 0.35277-0.05208 0.53646 0 2.9547 2.3786 5.3333 5.3333 5.3333s5.3333-2.3786 5.3333-5.3333c0-0.18371-0.03413-0.35765-0.05208-0.53646-0.26848 2.6998-2.5085 4.8021-5.2812 4.8021-2.7728 0-5.0128-2.1023-5.2812-4.8021zm-53.333 10.667c-0.018 0.17881-0.0521 0.35277-0.0521 0.53646 0 2.9547 2.3786 5.3333 5.3333 5.3333s5.3333-2.3786 5.3333-5.3333c0-0.18371-0.0341-0.35765-0.0521-0.53646-0.26847 2.6998-2.5085 4.8021-5.2812 4.8021-2.7728 0-5.0128-2.1023-5.2812-4.8021z"/>
 </g>
</svg>
