<?xml version="1.0" encoding="UTF-8" standalone="no"?>
<!-- Created with Inkscape (http://www.inkscape.org/) -->
<svg id="svg3449" xmlns:rdf="http://www.w3.org/1999/02/22-rdf-syntax-ns#" xmlns="http://www.w3.org/2000/svg" height="128" width="128" version="1.0" xmlns:cc="http://creativecommons.org/ns#" xmlns:xlink="http://www.w3.org/1999/xlink" xmlns:dc="http://purl.org/dc/elements/1.1/">
 <metadata id="metadata56">
  <rdf:RDF>
   <cc:Work rdf:about="">
    <dc:format>image/svg+xml</dc:format>
    <dc:type rdf:resource="http://purl.org/dc/dcmitype/StillImage"/>
    <dc:title/>
   </cc:Work>
  </rdf:RDF>
 </metadata>
 <defs id="defs3451">
  <linearGradient id="linearGradient3514" y2="-9.1034" gradientUnits="userSpaceOnUse" x2="66.492" gradientTransform="matrix(.96826 0 0 .97948 2.179 .16587)" y1="-42.638" x1="67.952">
   <stop id="stop4620" style="stop-color:#37414b" offset="0"/>
   <stop id="stop4622" style="stop-color:#37414b;stop-opacity:0" offset="1"/>
  </linearGradient>
  <linearGradient id="linearGradient3516" y2="-11.847" gradientUnits="userSpaceOnUse" x2="58.98" gradientTransform="matrix(.96826 0 0 .97948 2.179 .16587)" y1="-118.55" x1="57.173">
   <stop id="stop4596" offset="0"/>
   <stop id="stop4598" style="stop-opacity:0" offset="1"/>
  </linearGradient>
  <linearGradient id="linearGradient3519" y2="50.369" gradientUnits="userSpaceOnUse" x2="76.558" gradientTransform="matrix(.96826 0 0 .97948 3.2423 -129.19)" y1="13.164" x1="76.558">
   <stop id="stop3392" style="stop-color:#425e7b" offset="0"/>
   <stop id="stop3394" style="stop-color:#7a91a7" offset="1"/>
  </linearGradient>
  <linearGradient id="linearGradient3521" y2="-8.7399" gradientUnits="userSpaceOnUse" x2="60.217" gradientTransform="matrix(.96826 0 0 .97948 2.179 .16587)" y1="-123.72" x1="60.395">
   <stop id="stop3392-4-8" style="stop-color:#425e7b" offset="0"/>
   <stop id="stop3394-8-0" style="stop-color:#7a91a7" offset="1"/>
  </linearGradient>
  <linearGradient id="linearGradient11577" y2="8.1" gradientUnits="userSpaceOnUse" y1="6.1438" x2="19.387" x1="19.49">
   <stop id="stop10999-9-0" offset="0"/>
   <stop id="stop11001-6-1" style="stop-opacity:0" offset="1"/>
  </linearGradient>
  <radialGradient id="radialGradient3382-9" gradientUnits="userSpaceOnUse" cy="-16.639" cx="2.6083" gradientTransform="matrix(9.2228e-8 1.4278 -2.2909 6.4501e-8 -14.117 4.9249)" r="23">
   <stop id="stop6546-7-5" style="stop-color:#f0f0f0" offset="0"/>
   <stop id="stop6548-9-0" style="stop-color:#d2d2d2" offset="1"/>
  </radialGradient>
  <style id="style1246" type="text/css">.fil0 {fill:#1F1A17}</style>
  <style id="style1115" type="text/css">.fil0 {fill:#1F1A17}</style>
  <style id="style3290" type="text/css">.fil2 {fill:#11A861}
    .fil0 {fill:#3777E3}
    .fil1 {fill:#FFCF63}</style>
  <filter id="filter4009-8" height="1.1597" width="1.2245" color-interpolation-filters="sRGB" y="-.079874" x="-.11224">
   <feGaussianBlur id="feGaussianBlur4011-6" stdDeviation="6.7803529"/>
  </filter>
  <filter id="filter4005-7" height="1.1529" width="1.2447" color-interpolation-filters="sRGB" y="-.076451" x="-.12233">
   <feGaussianBlur id="feGaussianBlur4007-7" stdDeviation="6.7803529"/>
  </filter>
  <filter id="filter4001-9" height="1.2573" width="1.1499" color-interpolation-filters="sRGB" y="-.12866" x="-.074929">
   <feGaussianBlur id="feGaussianBlur4003-7" stdDeviation="6.7803529"/>
  </filter>
  <filter id="filter3997-0" height="1.2208" width="1.1631" color-interpolation-filters="sRGB" y="-.11038" x="-.081571">
   <feGaussianBlur id="feGaussianBlur3999-7" stdDeviation="6.7803529"/>
  </filter>
  <filter id="filter3993-8" height="1.1447" width="1.2982" color-interpolation-filters="sRGB" y="-.072374" x="-.14909">
   <feGaussianBlur id="feGaussianBlur3995-4" stdDeviation="6.7803529"/>
  </filter>
  <filter id="filter3989-9" color-interpolation-filters="sRGB">
   <feGaussianBlur id="feGaussianBlur3991-1" stdDeviation="6.7803529"/>
  </filter>
  <filter id="filter3985-9" height="1.3108" width="1.1436" color-interpolation-filters="sRGB" y="-.15539" x="-.071801">
   <feGaussianBlur id="feGaussianBlur3987-0" stdDeviation="6.7803529"/>
  </filter>
  <filter id="filter4009" height="1.1597" width="1.2245" color-interpolation-filters="sRGB" y="-.079874" x="-.11224">
   <feGaussianBlur id="feGaussianBlur4011" stdDeviation="6.7803529"/>
  </filter>
  <filter id="filter4005" height="1.1529" width="1.2447" color-interpolation-filters="sRGB" y="-.076451" x="-.12233">
   <feGaussianBlur id="feGaussianBlur4007" stdDeviation="6.7803529"/>
  </filter>
  <filter id="filter4001" height="1.2573" width="1.1499" color-interpolation-filters="sRGB" y="-.12866" x="-.074929">
   <feGaussianBlur id="feGaussianBlur4003" stdDeviation="6.7803529"/>
  </filter>
  <filter id="filter3997" height="1.2208" width="1.1631" color-interpolation-filters="sRGB" y="-.11038" x="-.081571">
   <feGaussianBlur id="feGaussianBlur3999" stdDeviation="6.7803529"/>
  </filter>
  <filter id="filter3993" height="1.1447" width="1.2982" color-interpolation-filters="sRGB" y="-.072374" x="-.14909">
   <feGaussianBlur id="feGaussianBlur3995" stdDeviation="6.7803529"/>
  </filter>
  <filter id="filter3989" color-interpolation-filters="sRGB">
   <feGaussianBlur id="feGaussianBlur3991" stdDeviation="6.7803529"/>
  </filter>
  <filter id="filter3985" height="1.3108" width="1.1436" color-interpolation-filters="sRGB" y="-.15539" x="-.071801">
   <feGaussianBlur id="feGaussianBlur3987" stdDeviation="6.7803529"/>
  </filter>
  <linearGradient id="linearGradient4261">
   <stop id="stop4263" style="stop-color:#0f7abf" offset="0"/>
   <stop id="stop4265" style="stop-color:#26a7df" offset="1"/>
  </linearGradient>
  <linearGradient id="linearGradient4267">
   <stop id="stop4269" style="stop-color:#68ba1f" offset="0"/>
   <stop id="stop4271" style="stop-color:#cddd53" offset="1"/>
  </linearGradient>
  <linearGradient id="linearGradient4385">
   <stop id="stop4387" offset="0"/>
   <stop id="stop4389" style="stop-opacity:0" offset="1"/>
  </linearGradient>
  <linearGradient id="linearGradient14551" y2="28.113" gradientUnits="userSpaceOnUse" x2="24.307" gradientTransform="matrix(2.3708 0 0 2.4059 198.56 46.964)" y1="17.334" x1="42.976">
   <stop id="stop4247-3" style="stop-color:#db3717" offset="0"/>
   <stop id="stop4249-7" style="stop-color:#fb881d" offset="1"/>
  </linearGradient>
  <linearGradient id="linearGradient14553" y2="28.82" xlink:href="#linearGradient4267" gradientUnits="userSpaceOnUse" x2="24.307" gradientTransform="matrix(2.3708 0 0 2.4059 198.56 46.964)" y1="19.893" x1="15.38"/>
  <linearGradient id="linearGradient14555" y2="29.085" xlink:href="#linearGradient4261" gradientUnits="userSpaceOnUse" x2="24.572" gradientTransform="matrix(2.3708 0 0 2.4059 198.56 46.964)" y1="16.003" x1="11.49"/>
  <linearGradient id="linearGradient14557" y2="27.494" xlink:href="#linearGradient4267" gradientUnits="userSpaceOnUse" x2="22.274" gradientTransform="matrix(2.3708 0 0 2.4059 198.56 46.964)" y1="41.813" x1="22.274"/>
  <linearGradient id="linearGradient14559" y2="28.113" xlink:href="#linearGradient4261" gradientUnits="userSpaceOnUse" x2="24.307" gradientTransform="matrix(2.3708 0 0 2.4059 198.56 46.964)" y1="17.334" x1="42.976"/>
  <linearGradient id="linearGradient14561" y2="34.996" xlink:href="#linearGradient4385" gradientUnits="userSpaceOnUse" x2="12.9" gradientTransform="matrix(2.3708 0 0 2.4059 198.56 46.964)" y1="37.835" x1="14.54"/>
  <linearGradient id="linearGradient14563" y2="34.996" xlink:href="#linearGradient4385" gradientUnits="userSpaceOnUse" x2="12.9" gradientTransform="matrix(1.1854 2.0836 -2.0531 1.2029 291.28 46.076)" y1="37.835" x1="14.54"/>
  <linearGradient id="linearGradient14565" y2="34.996" xlink:href="#linearGradient4385" gradientUnits="userSpaceOnUse" x2="12.9" gradientTransform="matrix(-1.1854 9.9688 -2.0531 -5.7555 345.14 176.23)" y1="37.835" x1="14.54"/>
  <linearGradient id="linearGradient14567" y2="34.996" xlink:href="#linearGradient4385" gradientUnits="userSpaceOnUse" x2="12.9" gradientTransform="matrix(2.3708 0 0 2.4059 233.92 15.957)" y1="37.835" x1="14.54"/>
 </defs>
 <rect id="rect892-2-7-1" style="opacity:.15891;stroke:#000;stroke-width:7.7512;fill:none" transform="scale(1,-1)" ry="28.993" height="114.35" width="114.22" y="-121.16" x="6.8687"/>
 <rect id="rect892-2-7-2" ry="29.452" style="stroke:#d3d3d3;stroke-width:9.8448;fill:#37414b" transform="scale(1,-1)" height="116.16" width="116.08" y="-122.08" x="5.9224"/>
 <rect id="rect892" style="stroke:url(#linearGradient3521);stroke-width:.97385;fill:url(#linearGradient3519)" transform="scale(1,-1)" ry="29.296" height="115.54" width="114.22" y="-122.25" x="7.0394"/>
 <rect id="rect892-2" style="stroke:url(#linearGradient3516);stroke-width:.97385;fill:url(#linearGradient3514)" transform="scale(1,-1)" ry="28.993" height="114.35" width="114.22" y="-121.46" x="7.0599"/>
 <g id="g14613" transform="matrix(0 2.6832 -2.7101 0 126.94 .046408)">
  <g id="layer1-7" transform="matrix(.99081 0 0 1.4848 .23097 -6.5159)">
   <path id="path4322" d="m27.794 5.7425c12.14 0.0144 14.403 0.8397 17.099 5.7745 0.323 2.66 0.151 5.345 0.107 8.495 1.652 17.048-7.327 14.594-31.941 14.125-12.933-1.192-10.645-7.029-10.337-22.467 3.0371-7.2073 10.203-5.863 25.072-5.9275z" style="fill-rule:evenodd;fill:url(#radialGradient3382-9)"/>
  </g>
 </g>
 <rect id="rect892-2-7-8" style="opacity:.15891;stroke:#000;stroke-width:4.8445;fill:none" transform="scale(1,-1)" ry="28.993" height="114.35" width="114.22" y="-121.16" x="6.8687"/>
 <rect id="rect892-2-7-2-9" ry="28.067" style="stroke:#000;stroke-width:1.0489;fill:none" transform="scale(1,-1)" height="112.71" width="114.14" y="-120.31" x="7.0649"/>
 <g id="g17906" transform="matrix(2.3438 0 0 2.2539 224.79 41.695)"></g>
 <path id="path3095" d="m324.39 135.62c-45.381 3.2742-125.15 80.453-113.93 80.062 92.777-3.2339 150.73 2.1051 223.12 24.581 10.719 3.328-11.566-97.11-109.18-104.64z" style="filter:url(#filter3985);enable-background:new;display:none;fill:#dbdbdb" transform="matrix(.17756 0 0 .17763 5.6577 26.512)"/>
 <path id="path3097" d="m186.38 72.15c-25.8 37.48-29.04 184.14-22.38 175.11 54.89-74.46 186.45-166.41 264.91-203.43 96.99-45.773-185.1-40.189-242.53 28.32z" style="stroke-width:0;filter:url(#filter3989);enable-background:new;display:none;fill:#dbdbdb" transform="matrix(.17756 0 0 .17763 5.6577 26.512)"/>
 <path id="path3099" d="m69.552 231.68c14.867 43 110.01 100.17 106.74 89.43-27.05-88.8-36.84-146.17-33.79-221.91 0.45-11.213-90.845 36.22-72.948 132.48z" style="filter:url(#filter3993);enable-background:new;display:none;fill:#dbdbdb" transform="matrix(.17756 0 0 .17763 5.6577 26.512)"/>
 <path id="path3101" d="m81.977 372.85c42.137 17.165 147.84-16.699 137.61-21.316-84.613-38.194-134.2-68.649-189.15-120.86-8.1358-7.7313-32.643 92.188 51.541 142.18z" style="filter:url(#filter3997);enable-background:new;display:none;fill:#dbdbdb" transform="matrix(.17756 0 0 .17763 5.6577 26.512)"/>
 <path id="path3103" d="m203.89 453.63c40.287-21.145 82.546-123.78 72.421-118.94-83.746 40.058-139 58.333-214.34 66.674-11.155 1.235 49.428 84.386 141.92 52.263z" style="filter:url(#filter4001);enable-background:new;display:none;fill:#dbdbdb" transform="matrix(.17756 0 0 .17763 5.6577 26.512)"/>
 <path id="path3105" d="m345.96 410.03c9.8413-44.421-41.301-142.93-44.134-132.07-23.435 89.827-45.125 143.83-87.365 206.77-6.2545 9.3191 96.362 16.69 131.5-74.696z" style="filter:url(#filter4005);enable-background:new;display:none;fill:#dbdbdb" transform="matrix(.17756 0 0 .17763 5.6577 26.512)"/>
 <path id="path3107" d="m401.89 270.24c-27.37-36.34-135.48-61.47-129.07-52.26 53.056 76.178 80.014 127.75 100.41 200.76 3.0202 10.809 75.297-62.406 28.659-148.49z" style="filter:url(#filter4009);enable-background:new;display:none;fill:#dbdbdb" transform="matrix(.17756 0 0 .17763 5.6577 26.512)"/>
 <path id="path3095-7" d="m324.39 135.62c-45.381 3.2742-125.15 80.453-113.93 80.062 92.777-3.2339 150.73 2.1051 223.12 24.581 10.719 3.328-11.566-97.11-109.18-104.64z" style="filter:url(#filter3985-9);enable-background:new;display:none;fill:#dbdbdb" transform="matrix(.17756 0 0 .17763 -472.59 -18.987)"/>
 <path id="path3097-4" d="m186.38 72.15c-25.8 37.48-29.04 184.14-22.38 175.11 54.89-74.46 186.45-166.41 264.91-203.43 96.99-45.773-185.1-40.189-242.53 28.32z" style="stroke-width:0;filter:url(#filter3989-9);enable-background:new;display:none;fill:#dbdbdb" transform="matrix(.17756 0 0 .17763 -472.59 -18.987)"/>
 <path id="path3099-9" d="m69.552 231.68c14.867 43 110.01 100.17 106.74 89.43-27.05-88.8-36.84-146.17-33.79-221.91 0.45-11.213-90.845 36.22-72.948 132.48z" style="filter:url(#filter3993-8);enable-background:new;display:none;fill:#dbdbdb" transform="matrix(.17756 0 0 .17763 -472.59 -18.987)"/>
 <path id="path3101-4" d="m81.977 372.85c42.137 17.165 147.84-16.699 137.61-21.316-84.613-38.194-134.2-68.649-189.15-120.86-8.1358-7.7313-32.643 92.188 51.541 142.18z" style="filter:url(#filter3997-0);enable-background:new;display:none;fill:#dbdbdb" transform="matrix(.17756 0 0 .17763 -472.59 -18.987)"/>
 <path id="path3103-3" d="m203.89 453.63c40.287-21.145 82.546-123.78 72.421-118.94-83.746 40.058-139 58.333-214.34 66.674-11.155 1.235 49.428 84.386 141.92 52.263z" style="filter:url(#filter4001-9);enable-background:new;display:none;fill:#dbdbdb" transform="matrix(.17756 0 0 .17763 -472.59 -18.987)"/>
 <path id="path3105-1" d="m345.96 410.03c9.8413-44.421-41.301-142.93-44.134-132.07-23.435 89.827-45.125 143.83-87.365 206.77-6.2545 9.3191 96.362 16.69 131.5-74.696z" style="filter:url(#filter4005-7);enable-background:new;display:none;fill:#dbdbdb" transform="matrix(.17756 0 0 .17763 -472.59 -18.987)"/>
 <path id="path3107-0" d="m401.89 270.24c-27.37-36.34-135.48-61.47-129.07-52.26 53.056 76.178 80.014 127.75 100.41 200.76 3.0202 10.809 75.297-62.406 28.659-148.49z" style="filter:url(#filter4009-8);enable-background:new;display:none;fill:#dbdbdb" transform="matrix(.17756 0 0 .17763 -472.59 -18.987)"/>
 <g id="g14535" transform="translate(-191.45 -42.2)">
  <path id="path4467" d="m255.52 69.201c-0.98579 0-1.7399 0.338-2.3823 0.7145-0.11358 0.0775-0.2265 0.1475-0.33306 0.23-0.13823 0.11-0.26309 0.225-0.38395 0.34775-0.0549 0.0525-0.10533 0.105-0.1573 0.1675-0.1523 0.1725-0.28789 0.35275-0.40708 0.54475-0.0132 0.03-0.0334 0.0375-0.0462 0.055l-0.0786 0.1375c-0.0252 0.045-0.0602 0.0875-0.0833 0.1325l-25.401 42.789-15.261 25.702c-0.028 0.045-0.0434 0.1-0.0694 0.1475-0.0856 0.16-0.1624 0.31475-0.22665 0.48425-0.0462 0.1225-0.0817 0.2425-0.11565 0.36675-0.0343 0.1275-0.0657 0.2475-0.0879 0.37575-0.0257 0.1475-0.0328 0.29875-0.0417 0.4465 0 0.31425 0.0223 0.56625 0.0324 0.82675 0.0177 0.1225 0.0319 0.245 0.0601 0.36225 0.0294 0.1225 0.0752 0.235 0.11565 0.3525 0.051 0.1475 0.0991 0.296 0.16652 0.437 0.0372 0.08 0.0826 0.15 0.1249 0.2275 0.0878 0.16 0.1795 0.3075 0.2868 0.451 0.0467 0.06 0.10213 0.12 0.15265 0.1775 0.12835 0.155 0.25772 0.29925 0.40708 0.43225 0.0449 0.0375 0.0964 0.08 0.1434 0.1175 0.066 0.0525 0.1397 0.095 0.20815 0.1425 0.10987 0.08 0.21465 0.1675 0.33306 0.235 0.0195 0 0.0357 0.035 0.0555 0.0425 0.0408 0.0325 0.0837 0.03 0.1249 0.0475 0.17417 0.0925 0.35803 0.1775 0.54585 0.24 0.10195 0.035 0.202 0.0625 0.30531 0.0925 0.15022 0.04 0.30136 0.08 0.45796 0.1 0.14365 0.0325 0.28618 0.0325 0.4302 0.04 0.0837 0 0.1602 0.035 0.24518 0.035h42.303 39.338c0.085 0 0.16145-0.035 0.24517-0.035 0.14405 0 0.28656-0.0325 0.43021-0.0425 0.1566-0.03 0.31235-0.0575 0.46258-0.1 0.10328-0.0325 0.2033-0.055 0.30531-0.0925 0.18783-0.0625 0.36244-0.15 0.5366-0.235 0.0412-0.03 0.0888-0.03 0.12953-0.05 0.0195 0 0.036-0.04 0.0555-0.0475 0.1927-0.115 0.37019-0.235 0.54123-0.37575 0.0469-0.0375 0.0985-0.08 0.1434-0.1175 0.1493-0.135 0.27876-0.28 0.40708-0.43225 0.0505-0.0575 0.10592-0.1175 0.15265-0.1775 0.1073-0.1425 0.19905-0.294 0.2868-0.45125 0.0423-0.0775 0.0876-0.15 0.1249-0.225 0.0675-0.1425 0.11555-0.28775 0.16653-0.437 0.0405-0.12 0.0862-0.2325 0.11564-0.3525 0.0902-0.342 0.0509-1.6355 0.0509-1.6355-0.0223-0.13-0.0536-0.2525-0.0879-0.376-0.0339-0.125-0.0694-0.25-0.11565-0.36675-0.0643-0.17-0.14107-0.32625-0.22665-0.484-0.026-0.045-0.0413-0.0925-0.0694-0.145l-24.873-41.892h0.005l-15.793-26.59c-0.023-0.045-0.0584-0.0875-0.0833-0.1325l-0.0786-0.1425c-0.0127-0.0325-0.033-0.035-0.0462-0.05-0.007 0-0.0158-0.025-0.0233-0.035-0.10804-0.16-0.21662-0.31725-0.34693-0.465-0.013-0.025-0.0238-0.0325-0.037-0.0475-0.052-0.0575-0.10235-0.1125-0.1573-0.1675-0.0454-0.045-0.0963-0.0875-0.1434-0.1325-0.0585-0.055-0.11582-0.1025-0.1758-0.155-0.023-0.025-0.041-0.04-0.0648-0.06-0.10387-0.085-0.21312-0.155-0.3238-0.225-0.003-0.0018-0.007 0-0.009 0-0.0515-0.035-0.0986-0.0725-0.14803-0.1075-0.001-0.001-0.003 0.0005-0.005 0-0.019-0.025-0.0349-0.0325-0.0555-0.0425-0.0444-0.0325-0.0938-0.0325-0.13878-0.05-0.12885-0.065-0.25845-0.1225-0.3932-0.1725-0.0339-0.025-0.0679-0.025-0.10177-0.0375-0.0955-0.035-0.18955-0.0725-0.2868-0.1025-0.11768-0.0325-0.24045-0.0525-0.36082-0.08-0.1446-0.0325-0.28483-0.06-0.43021-0.08l-0.34694-0.0375z" style="fill-opacity:.058824"/>
  <path id="path4465" style="fill-opacity:.11765" d="m255.52 68.201c-0.98579 0-1.7399 0.338-2.3823 0.7145-0.11358 0.0775-0.2265 0.1475-0.33306 0.23-0.13823 0.11-0.26309 0.225-0.38395 0.34775-0.0549 0.0525-0.10533 0.105-0.1573 0.1675-0.1523 0.1725-0.28789 0.35275-0.40708 0.54475-0.0132 0.03-0.0334 0.0375-0.0462 0.055l-0.0786 0.1375c-0.0252 0.045-0.0602 0.0875-0.0833 0.1325l-25.401 42.789-15.261 25.702c-0.028 0.045-0.0434 0.1-0.0694 0.1475-0.0856 0.16-0.1624 0.31475-0.22665 0.48425-0.0462 0.1225-0.0817 0.2425-0.11565 0.36675-0.0343 0.1275-0.0657 0.2475-0.0879 0.37575-0.0257 0.1475-0.0328 0.29875-0.0417 0.4465 0 0.31425 0.0223 0.56625 0.0324 0.82675 0.0177 0.1225 0.0319 0.245 0.0601 0.36225 0.0294 0.1225 0.0752 0.235 0.11565 0.3525 0.051 0.1475 0.0991 0.296 0.16652 0.437 0.0372 0.08 0.0826 0.15 0.1249 0.2275 0.0878 0.16 0.1795 0.3075 0.2868 0.451 0.0467 0.06 0.10213 0.12 0.15265 0.1775 0.12835 0.155 0.25772 0.29925 0.40708 0.43225 0.0449 0.0375 0.0964 0.08 0.1434 0.1175 0.066 0.0525 0.1397 0.095 0.20815 0.1425 0.10987 0.08 0.21465 0.1675 0.33306 0.235 0.0195 0 0.0357 0.035 0.0555 0.0425 0.0408 0.0325 0.0837 0.03 0.1249 0.0475 0.17417 0.0925 0.35803 0.1775 0.54585 0.24 0.10195 0.035 0.202 0.0625 0.30531 0.0925 0.15022 0.04 0.30136 0.08 0.45796 0.1 0.14365 0.0325 0.28618 0.0325 0.4302 0.04 0.0837 0 0.1602 0.035 0.24518 0.035h42.303 39.338c0.085 0 0.16145-0.035 0.24517-0.035 0.14405 0 0.28656-0.0325 0.43021-0.0425 0.1566-0.03 0.31235-0.0575 0.46258-0.1 0.10328-0.0325 0.2033-0.055 0.30531-0.0925 0.18783-0.0625 0.36244-0.15 0.5366-0.235 0.0412-0.03 0.0888-0.03 0.12953-0.05 0.0195 0 0.036-0.04 0.0555-0.0475 0.1927-0.115 0.37019-0.235 0.54123-0.37575 0.0469-0.0375 0.0985-0.08 0.1434-0.1175 0.1493-0.135 0.27876-0.28 0.40708-0.43225 0.0505-0.0575 0.10592-0.1175 0.15265-0.1775 0.1073-0.1425 0.19905-0.294 0.2868-0.45125 0.0423-0.0775 0.0876-0.15 0.1249-0.225 0.0675-0.1425 0.11555-0.28775 0.16653-0.437 0.0405-0.12 0.0862-0.2325 0.11564-0.3525 0.0902-0.342 0.0509-1.6355 0.0509-1.6355-0.0223-0.13-0.0536-0.2525-0.0879-0.376-0.0339-0.125-0.0694-0.25-0.11565-0.36675-0.0643-0.17-0.14107-0.32625-0.22665-0.484-0.026-0.045-0.0413-0.0925-0.0694-0.145l-24.873-41.892h0.005l-15.793-26.59c-0.023-0.045-0.0584-0.0875-0.0833-0.1325l-0.0786-0.1425c-0.0127-0.0325-0.033-0.035-0.0462-0.05-0.007 0-0.0158-0.025-0.0233-0.035-0.10804-0.16-0.21662-0.31725-0.34693-0.465-0.013-0.025-0.0238-0.0325-0.037-0.0475-0.052-0.0575-0.10235-0.1125-0.1573-0.1675-0.0454-0.045-0.0963-0.0875-0.1434-0.1325-0.0585-0.055-0.11582-0.1025-0.1758-0.155-0.023-0.025-0.041-0.04-0.0648-0.06-0.10387-0.085-0.21312-0.155-0.3238-0.225-0.003-0.0018-0.007 0-0.009 0-0.0515-0.035-0.0986-0.0725-0.14803-0.1075-0.001-0.001-0.003 0.0005-0.005 0-0.019-0.025-0.0349-0.0325-0.0555-0.0425-0.0444-0.0325-0.0938-0.0325-0.13878-0.05-0.12885-0.065-0.25845-0.1225-0.3932-0.1725-0.0339-0.025-0.0679-0.025-0.10177-0.0375-0.0955-0.035-0.18955-0.0725-0.2868-0.1025-0.11768-0.0325-0.24045-0.0525-0.36082-0.08-0.1446-0.0325-0.28483-0.06-0.43021-0.08l-0.34694-0.0375z"/>
  <path id="path4450" d="m255.52 67.201c-0.98579 0-1.7399 0.338-2.3823 0.7145-0.11358 0.0775-0.2265 0.1475-0.33306 0.23-0.13823 0.11-0.26309 0.225-0.38395 0.34775-0.0549 0.0525-0.10533 0.105-0.1573 0.1675-0.1523 0.1725-0.28789 0.35275-0.40708 0.54475-0.0132 0.03-0.0334 0.0375-0.0462 0.055l-0.0786 0.1375c-0.0252 0.045-0.0602 0.0875-0.0833 0.1325l-25.401 42.789-15.261 25.702c-0.028 0.045-0.0434 0.1-0.0694 0.1475-0.0856 0.16-0.1624 0.31475-0.22665 0.48425-0.0462 0.1225-0.0817 0.2425-0.11565 0.36675-0.0343 0.1275-0.0657 0.2475-0.0879 0.37575-0.0257 0.1475-0.0328 0.29875-0.0417 0.4465 0 0.31425 0.0223 0.56625 0.0324 0.82675 0.0177 0.1225 0.0319 0.245 0.0601 0.36225 0.0294 0.1225 0.0752 0.235 0.11565 0.3525 0.051 0.1475 0.0991 0.296 0.16652 0.437 0.0372 0.08 0.0826 0.15 0.1249 0.2275 0.0878 0.16 0.1795 0.3075 0.2868 0.451 0.0467 0.06 0.10213 0.12 0.15265 0.1775 0.12835 0.155 0.25772 0.29925 0.40708 0.43225 0.0449 0.0375 0.0964 0.08 0.1434 0.1175 0.066 0.0525 0.1397 0.095 0.20815 0.1425 0.10987 0.08 0.21465 0.1675 0.33306 0.235 0.0195 0 0.0357 0.035 0.0555 0.0425 0.0408 0.0325 0.0837 0.03 0.1249 0.0475 0.17417 0.0925 0.35803 0.1775 0.54585 0.24 0.10195 0.035 0.202 0.0625 0.30531 0.0925 0.15022 0.04 0.30136 0.08 0.45796 0.1 0.14365 0.0325 0.28618 0.0325 0.4302 0.04 0.0837 0 0.1602 0.035 0.24518 0.035h42.303 39.338c0.085 0 0.16145-0.035 0.24517-0.035 0.14405 0 0.28656-0.0325 0.43021-0.0425 0.1566-0.03 0.31235-0.0575 0.46258-0.1 0.10328-0.0325 0.2033-0.055 0.30531-0.0925 0.18783-0.0625 0.36244-0.15 0.5366-0.235 0.0412-0.03 0.0888-0.03 0.12953-0.05 0.0195 0 0.036-0.04 0.0555-0.0475 0.1927-0.115 0.37019-0.235 0.54123-0.37575 0.0469-0.0375 0.0985-0.08 0.1434-0.1175 0.1493-0.135 0.27876-0.28 0.40708-0.43225 0.0505-0.0575 0.10592-0.1175 0.15265-0.1775 0.1073-0.1425 0.19905-0.294 0.2868-0.45125 0.0423-0.0775 0.0876-0.15 0.1249-0.225 0.0675-0.1425 0.11555-0.28775 0.16653-0.437 0.0405-0.12 0.0862-0.2325 0.11564-0.3525 0.0902-0.342 0.0509-1.6355 0.0509-1.6355-0.0223-0.13-0.0536-0.2525-0.0879-0.376-0.0339-0.125-0.0694-0.25-0.11565-0.36675-0.0643-0.17-0.14107-0.32625-0.22665-0.484-0.026-0.045-0.0413-0.0925-0.0694-0.145l-24.873-41.892h0.005l-15.793-26.59c-0.023-0.045-0.0584-0.0875-0.0833-0.1325l-0.0786-0.1425c-0.0127-0.0325-0.033-0.035-0.0462-0.05-0.007 0-0.0158-0.025-0.0233-0.035-0.10804-0.16-0.21662-0.31725-0.34693-0.465-0.013-0.025-0.0238-0.0325-0.037-0.0475-0.052-0.0575-0.10235-0.1125-0.1573-0.1675-0.0454-0.045-0.0963-0.0875-0.1434-0.1325-0.0585-0.055-0.11582-0.1025-0.1758-0.155-0.023-0.025-0.041-0.04-0.0648-0.06-0.10387-0.085-0.21312-0.155-0.3238-0.225-0.003-0.0018-0.007 0-0.009 0-0.0515-0.035-0.0986-0.0725-0.14803-0.1075-0.001-0.001-0.003 0.0005-0.005 0-0.019-0.025-0.0349-0.0325-0.0555-0.0425-0.0444-0.0325-0.0938-0.0325-0.13878-0.05-0.12885-0.065-0.25845-0.1225-0.3932-0.1725-0.0339-0.025-0.0679-0.025-0.10177-0.0375-0.0955-0.035-0.18955-0.0725-0.2868-0.1025-0.11768-0.0325-0.24045-0.0525-0.36082-0.08-0.1446-0.0325-0.28483-0.06-0.43021-0.08l-0.34694-0.0375z" style="fill-opacity:.23529"/>
  <path id="path4237" d="m256.94 66.503v76.697h39.34c0.085 0 0.1617-0.0325 0.2454-0.0325 0.14405 0 0.28698-0.0325 0.43063-0.0425 0.1566-0.0275 0.30817-0.0575 0.45841-0.0975 0.10327-0.0325 0.20362-0.055 0.3056-0.095 0.18783-0.0625 0.36296-0.15 0.53713-0.235 0.0412-0.0275 0.0888-0.03 0.12965-0.0525 0.0195 0 0.0361-0.035 0.0556-0.0425 0.1927-0.115 0.37072-0.235 0.54176-0.37575 0.0469-0.0375 0.0987-0.08 0.14355-0.1175 0.14932-0.135 0.27915-0.28 0.40747-0.43225 0.0505-0.0575 0.10605-0.1175 0.15278-0.1775 0.10727-0.1425 0.19932-0.29425 0.28708-0.451 0.0423-0.0775 0.0878-0.15 0.125-0.2275 0.0675-0.1425 0.11573-0.28775 0.1667-0.437 0.0405-0.12 0.0864-0.2325 0.11578-0.35225 0.0902-0.34175 0.0509-1.6365 0.0509-1.6365-0.0222-0.13-0.0537-0.2525-0.088-0.376-0.0339-0.125-0.0695-0.25-0.11578-0.36625-0.0643-0.17-0.14127-0.3265-0.22687-0.48425-0.026-0.045-0.0414-0.0925-0.0695-0.1475l-40.65-68.484c-0.023-0.045-0.0584-0.0875-0.0833-0.1325l-0.0787-0.1375c-0.0127-0.0325-0.0331-0.0375-0.0463-0.055-0.11923-0.19-0.25516-0.3725-0.40748-0.54525-0.0519-0.0575-0.10255-0.1125-0.15745-0.1675-0.12085-0.125-0.24615-0.235-0.38432-0.3475-0.10658-0.0875-0.2198-0.1625-0.33339-0.23-0.0722-0.045-0.13235-0.1025-0.20838-0.15-0.0444-0.0325-0.0939-0.0325-0.1389-0.05-0.12885-0.065-0.25883-0.1225-0.39358-0.1725-0.034-0.025-0.0681-0.025-0.10187-0.0375z" style="fill:url(#linearGradient14551)"/>
  <path id="path4365" d="m245.7 122.71-19.448-11.39-15.262 25.704c-0.028 0.045-0.0435 0.0975-0.0695 0.1475-0.0856 0.16-0.16263 0.315-0.22689 0.484-0.0462 0.1225-0.0818 0.2425-0.11576 0.3665-0.0343 0.1275-0.0658 0.2475-0.088 0.37625-0.0257 0.1475-0.0329 0.29825-0.0417 0.44625 0 0.31425 0.0222 0.56625 0.0324 0.82675 0.0177 0.1225 0.032 0.245 0.0602 0.362 0.0294 0.1225 0.0753 0.235 0.11576 0.35225 0.051 0.1475 0.0992 0.296 0.16669 0.437 0.0372 0.08 0.0827 0.15 0.12502 0.2275 0.0878 0.16 0.17978 0.3075 0.28708 0.451 0.0467 0.06 0.10227 0.12 0.15281 0.1775 0.12833 0.155 0.25811 0.29925 0.40747 0.432 0.0449 0.0375 0.0966 0.08 0.14355 0.1175 0.0659 0.0525 0.1399 0.095 0.20837 0.145z" style="fill:url(#linearGradient14553)"/>
  <path id="path4220" d="m253.14 66.916c-0.11355 0.0775-0.22683 0.1475-0.33339 0.23-0.13823 0.11-0.26346 0.2225-0.38432 0.34775-0.0549 0.0525-0.1055 0.105-0.15745 0.1675-0.1523 0.1725-0.28829 0.353-0.40748 0.54525-0.0132 0.03-0.0334 0.0375-0.0463 0.055l-0.0787 0.1375c-0.0252 0.045-0.0603 0.0875-0.0834 0.1325l-25.398 42.789 19.448 11.39 11.247-6.5878v-49.622c-0.0955-0.035-0.18983-0.0725-0.28709-0.1025-0.1177-0.035-0.2408-0.0525-0.36117-0.08-0.1446-0.0325-0.28525-0.06-0.43062-0.08l-0.34729-0.0375c-0.98578 0-1.7376 0.33775-2.38 0.71425z" style="fill:url(#linearGradient14555)"/>
  <path id="path4230" d="m256.94 116.12-44.799 26.248c0.10987 0.08 0.21498 0.165 0.33339 0.23 0.0195 0 0.0358 0.035 0.0556 0.0425 0.0408 0.0325 0.0838 0.0325 0.12502 0.05 0.17416 0.0925 0.35394 0.1725 0.54175 0.235 0.10195 0.035 0.20231 0.0625 0.30561 0.0925 0.15023 0.04 0.30181 0.08 0.45841 0.1 0.14364 0.0325 0.2866 0.035 0.43062 0.0425 0.0837 0 0.16044 0.035 0.24541 0.035h42.303v-27.075z" style="fill:url(#linearGradient14557)"/>
  <path id="path4432" d="m256.94 66.503v39.242l18.123-10.62-15.79-26.592c-0.48282-0.94175-1.489-1.7858-2.2318-1.9875-0.0339-0.025-0.068-0.03-0.10187-0.0425z" style="fill:url(#linearGradient14559)"/>
  <path id="path4380" d="m243.62 121.5-32.834 19.233c0.013 0.0325 0.0225 0.0625 0.037 0.0925 0.0372 0.08 0.0827 0.15 0.12501 0.2275 0.0878 0.1625 0.17979 0.3075 0.28709 0.451 0.0467 0.06 0.10227 0.12 0.1528 0.1775 0.12834 0.155 0.25812 0.29925 0.40748 0.432 0.0449 0.0375 0.0966 0.08 0.14354 0.1175 0.0659 0.0525 0.13991 0.0975 0.20837 0.145l33.552-19.66-2.079-1.2172z" style="fill:url(#linearGradient14561)"/>
  <path id="path4393" d="m227.32 109.52-1.0696 1.7995 19.448 11.39 2.0652-1.2075-20.443-11.982z" style="fill:url(#linearGradient14563)"/>
  <path id="path4400" d="m256.94 66.503 0.005 76.406h2.0605l0.005-74.775c-0.1068-0.16-0.22052-0.32075-0.35191-0.47-0.0519-0.0575-0.10252-0.1125-0.15745-0.1675-0.12085-0.125-0.24615-0.235-0.38432-0.34775-0.10657-0.0875-0.2198-0.1625-0.33339-0.23-0.0722-0.045-0.13235-0.1025-0.20837-0.15-0.0444-0.0325-0.094-0.0325-0.1389-0.05-0.12885-0.065-0.25884-0.1175-0.39358-0.1675-0.034-0.025-0.0681-0.0275-0.10188-0.0425z" style="fill:url(#linearGradient14565)"/>
  <path id="path4413" d="m274.03 93.381-17.086 10.009v2.091l0.1389 0.2535 18.012-10.558-1.065-1.7952z" style="fill:url(#linearGradient14567)"/>
  <path id="path4469" style="fill-opacity:.31373" d="m210.56 138.09c-0.0265 0.1006-0.0505 0.19965-0.0684 0.30274-0.0257 0.1475-0.0351 0.29658-0.0439 0.44434 0 0.31424 0.024 0.56469 0.0342 0.82519 0.0178 0.1225 0.0304 0.24895 0.0586 0.36621 0.0294 0.1225 0.0767 0.23405 0.11719 0.35156 0.051 0.1475 0.0986 0.29357 0.16601 0.43457 0.0372 0.08 0.0798 0.152 0.12207 0.2295 0.0878 0.16 0.18079 0.30572 0.28809 0.44922 0.0467 0.06 0.10084 0.12318 0.15137 0.18068 0.12835 0.155 0.26079 0.29669 0.41015 0.42969 0.0449 0.0375 0.0946 0.0797 0.14161 0.11717 0.0659 0.0525 0.14151 0.0941 0.20996 0.1416 0.10987 0.08 0.21361 0.16688 0.33203 0.23438 0.0195 0 0.0339 0.0365 0.0537 0.0439 0.0408 0.0325 0.0857 0.0313 0.12695 0.0488 0.17418 0.0925 0.35906 0.17675 0.54688 0.23925 0.10195 0.035 0.19942 0.0628 0.30273 0.0928 0.15023 0.04 0.30238 0.0776 0.45898 0.0976 0.14365 0.0325 0.28567 0.0365 0.42969 0.0439 0.0837 0 0.15917 0.0342 0.24414 0.0342h42.305 39.341c0.085 0 0.16043-0.0342 0.24415-0.0342 0.14405 0 0.28604-0.034 0.42969-0.0439 0.1566-0.03 0.31363-0.06 0.46386-0.10255 0.10328-0.0325 0.20073-0.0504 0.30274-0.0879 0.18782-0.0625 0.36294-0.15425 0.53711-0.23925 0.0412-0.03 0.091-0.0288 0.13182-0.0488 0.0195 0 0.0342-0.0413 0.0537-0.0488 0.1927-0.115 0.37096-0.23523 0.54199-0.37598 0.047-0.0375 0.0968-0.0797 0.1416-0.11718 0.1493-0.135 0.27696-0.27744 0.40528-0.42969 0.0505-0.0575 0.10952-0.11577 0.15625-0.17577 0.1073-0.1425 0.19545-0.29685 0.2832-0.4541 0.0423-0.0775 0.0897-0.1496 0.12695-0.2246 0.0675-0.1425 0.11505-0.28532 0.16603-0.43457 0.0405-0.12 0.0878-0.23645 0.11717-0.35645 0.0902-0.342 0.0488-1.6357 0.0488-1.6357-0.0175-0.1029-0.0424-0.20015-0.0684-0.29785-0.0284 0.0967-0.0644 0.18957-0.0976 0.28808-0.051 0.14925-0.0985 0.29207-0.16603 0.43457-0.0373 0.075-0.0847 0.1471-0.12695 0.2246-0.0877 0.15725-0.1759 0.3116-0.2832 0.4541-0.0467 0.06-0.10573 0.11828-0.15625 0.17578-0.12833 0.15225-0.25598 0.29957-0.40528 0.43457-0.0448 0.0375-0.0947 0.0797-0.1416 0.11718-0.17105 0.14074-0.34929 0.26097-0.54199 0.37597-0.0195 0.007-0.0342 0.0488-0.0537 0.0488-0.0408 0.02-0.0907 0.0187-0.13182 0.0488-0.17418 0.085-0.34929 0.17188-0.53711 0.23438-0.102 0.0375-0.19945 0.0603-0.30274 0.0928-0.15022 0.0425-0.30726 0.0676-0.46386 0.0976-0.14365 0.01-0.28564 0.0439-0.42969 0.0439-0.0837 0-0.15915 0.0342-0.24415 0.0342h-39.341-42.305c-0.085 0-0.16044-0.0342-0.24414-0.0342-0.14402-0.007-0.28604-0.006-0.42969-0.0391-0.1566-0.02-0.30875-0.0626-0.45898-0.10255-0.10331-0.03-0.20078-0.0578-0.30273-0.0928-0.18782-0.0625-0.3727-0.14675-0.54688-0.23925-0.0412-0.0175-0.0862-0.0115-0.12695-0.0439-0.0198-0.007-0.0342-0.0439-0.0537-0.0439-0.11841-0.0675-0.22216-0.15437-0.33203-0.23437-0.0684-0.0475-0.14401-0.0891-0.20996-0.1416-0.047-0.0375-0.0967-0.0846-0.14161-0.12208-0.14936-0.13295-0.2818-0.27464-0.41015-0.42964-0.0505-0.0575-0.10467-0.11577-0.15137-0.17577-0.1073-0.1435-0.20031-0.2941-0.28808-0.4541-0.0423-0.0775-0.0849-0.1446-0.12207-0.2246-0.0675-0.141-0.11502-0.29196-0.16602-0.43946-0.0332-0.0965-0.0693-0.19007-0.0977-0.28808z"/>
  <path id="path4479" style="fill:#fff;fill-opacity:.23529" d="m255.52 66.2c-0.98579 0-1.7404 0.34127-2.3828 0.71777-0.11358 0.0775-0.22548 0.14699-0.33203 0.22949-0.13823 0.11-0.26489 0.22393-0.38575 0.34668-0.0549 0.0525-0.10427 0.10352-0.15625 0.16602-0.1523 0.1725-0.28608 0.35488-0.40527 0.54688-0.0132 0.03-0.036 0.03621-0.0488 0.05371l-0.0781 0.13672c-0.0252 0.045-0.0599 0.08684-0.083 0.13184l-25.4 42.788-15.259 25.703c-0.0281 0.045-0.0424 0.099-0.0684 0.14648-0.0856 0.16-0.16524 0.31878-0.22949 0.48828-0.0462 0.1225-0.0784 0.24195-0.11231 0.36621-0.0343 0.1275-0.0657 0.24773-0.0879 0.37598-0.0257 0.14751-0.0351 0.29659-0.0439 0.44435 0 0.26776 0.0182 0.48198 0.0293 0.70312 0.005-0.0503 0.006-0.10167 0.0146-0.15138 0.0222-0.12825 0.0536-0.24847 0.0879-0.37597 0.0339-0.12425 0.0661-0.2437 0.1123-0.36621 0.0643-0.1695 0.14389-0.3234 0.22949-0.4834 0.026-0.0475 0.0403-0.10148 0.0684-0.14648l15.259-25.703 25.4-42.788c0.023-0.045 0.0578-0.08683 0.083-0.13184l0.0781-0.13672c0.0127-0.0175 0.0356-0.0237 0.0488-0.05371 0.1192-0.192 0.25298-0.37438 0.40527-0.54688 0.052-0.0625 0.10135-0.11352 0.15625-0.16602 0.12086-0.12275 0.24753-0.24156 0.38575-0.35156 0.10655-0.0825 0.21845-0.15199 0.33203-0.22949 0.6424-0.3765 1.397-0.71289 2.3828-0.71289v0.01953l0.34668 0.03418c0.14538 0.02 0.28509 0.05051 0.42969 0.08301 0.12037 0.0275 0.24365 0.04563 0.36133 0.07813 0.0973 0.03 0.19257 0.06754 0.28808 0.10254 0.0338 0.0125 0.0686 0.01407 0.10255 0.03906 0.13475 0.05 0.26178 0.1059 0.39063 0.1709 0.0449 0.0175 0.0972 0.01632 0.1416 0.04883 0.0207 0.01 0.0347 0.01895 0.0537 0.04394h0.005c0.0494 0.035 0.095 0.07242 0.14647 0.10742 0.003 0 0.007-0.0018 0.01 0 0.11068 0.07 0.22328 0.13961 0.32715 0.22461 0.0238 0.02 0.0405 0.0336 0.0635 0.05859 0.06 0.0525 0.11727 0.10125 0.17577 0.15625 0.0471 0.045 0.0962 0.08684 0.1416 0.13184 0.055 0.055 0.1043 0.1134 0.15625 0.1709 0.0133 0.015 0.026 0.01895 0.0391 0.04394 0.13033 0.14775 0.23863 0.30875 0.34668 0.46875 0.007 0.01 0.0175 0.03418 0.0245 0.03418 0.0133 0.015 0.0312 0.01632 0.0439 0.04883l0.0781 0.1416c0.025 0.045 0.0649 0.08684 0.0879 0.13184l15.791 26.592h-0.005l24.873 41.89c0.0281 0.0525 0.0424 0.10148 0.0684 0.14648 0.0856 0.15775 0.1652 0.31339 0.2295 0.4834 0.0462 0.11674 0.0784 0.24122 0.1123 0.3662 0.024 0.0867 0.0444 0.17498 0.0635 0.26368 0.004-0.40355 0.0245-0.88868 0.0245-0.88868-0.0222-0.13-0.0536-0.25247-0.0879-0.37597-0.0339-0.125-0.0661-0.24945-0.1123-0.36621-0.0643-0.17-0.14393-0.32565-0.2295-0.4834-0.026-0.045-0.0403-0.094-0.0684-0.14648l-24.873-41.89h0.005l-15.791-26.592c-0.023-0.045-0.063-0.08683-0.0879-0.13184l-0.0781-0.1416c-0.0128-0.0325-0.0307-0.03383-0.044-0.04883-0.007 0-0.017-0.02417-0.0245-0.03418-0.10805-0.16-0.21637-0.31612-0.34668-0.46387-0.013-0.025-0.0258-0.03383-0.0391-0.04883-0.052-0.0575-0.10131-0.1159-0.15625-0.1709-0.0454-0.045-0.0945-0.08683-0.14161-0.13183-0.0585-0.055-0.1158-0.09887-0.17577-0.15137-0.023-0.025-0.0397-0.04348-0.0635-0.06348-0.10388-0.085-0.21648-0.15461-0.32715-0.22461-0.003-0.0018-0.007 0-0.01 0-0.0515-0.035-0.0971-0.07242-0.14648-0.10742h-0.005c-0.019-0.025-0.033-0.02906-0.0537-0.03906-0.0444-0.0325-0.0967-0.03621-0.1416-0.05371-0.12885-0.065-0.25587-0.1209-0.39062-0.1709-0.034-0.025-0.0687-0.02656-0.10255-0.03906-0.0955-0.035-0.19083-0.07254-0.28809-0.10254-0.11767-0.0325-0.24095-0.05062-0.36133-0.07813-0.1446-0.0325-0.28431-0.05813-0.42968-0.07813l-0.34668-0.03906v-0.01953z"/>
 </g>
</svg>
