<?xml version="1.0" encoding="UTF-8" standalone="no"?>
<!-- Created with Inkscape (http://www.inkscape.org/) -->
<svg id="svg3449" xmlns:rdf="http://www.w3.org/1999/02/22-rdf-syntax-ns#" xmlns="http://www.w3.org/2000/svg" height="128" width="128" version="1.0" xmlns:cc="http://creativecommons.org/ns#" xmlns:xlink="http://www.w3.org/1999/xlink" xmlns:dc="http://purl.org/dc/elements/1.1/">
 <metadata id="metadata56">
  <rdf:RDF>
   <cc:Work rdf:about="">
    <dc:format>image/svg+xml</dc:format>
    <dc:type rdf:resource="http://purl.org/dc/dcmitype/StillImage"/>
    <dc:title/>
   </cc:Work>
  </rdf:RDF>
 </metadata>
 <defs id="defs3451">
  <linearGradient id="linearGradient3514" y2="-9.1034" gradientUnits="userSpaceOnUse" x2="66.492" gradientTransform="matrix(.96826 0 0 .97948 2.179 .16587)" y1="-42.638" x1="67.952">
   <stop id="stop4620" style="stop-color:#37414b" offset="0"/>
   <stop id="stop4622" style="stop-color:#37414b;stop-opacity:0" offset="1"/>
  </linearGradient>
  <linearGradient id="linearGradient3516" y2="-11.847" gradientUnits="userSpaceOnUse" x2="58.98" gradientTransform="matrix(.96826 0 0 .97948 2.179 .16587)" y1="-118.55" x1="57.173">
   <stop id="stop4596" offset="0"/>
   <stop id="stop4598" style="stop-opacity:0" offset="1"/>
  </linearGradient>
  <linearGradient id="linearGradient3519" y2="50.369" gradientUnits="userSpaceOnUse" x2="76.558" gradientTransform="matrix(.96826 0 0 .97948 3.2423 -129.19)" y1="13.164" x1="76.558">
   <stop id="stop3392" style="stop-color:#425e7b" offset="0"/>
   <stop id="stop3394" style="stop-color:#7a91a7" offset="1"/>
  </linearGradient>
  <linearGradient id="linearGradient3521" y2="-8.7399" gradientUnits="userSpaceOnUse" x2="60.217" gradientTransform="matrix(.96826 0 0 .97948 2.179 .16587)" y1="-123.72" x1="60.395">
   <stop id="stop3392-4-8" style="stop-color:#425e7b" offset="0"/>
   <stop id="stop3394-8-0" style="stop-color:#7a91a7" offset="1"/>
  </linearGradient>
  <linearGradient id="linearGradient4192" y2="31.742" gradientUnits="userSpaceOnUse" x2="121.11" y1="31.742" x1="6.5334">
   <stop id="stop4188" style="stop-color:#fff" offset="0"/>
   <stop id="stop4190" style="stop-color:#fff;stop-opacity:0" offset="1"/>
  </linearGradient>
  <linearGradient id="linearGradient11577" y2="8.1" gradientUnits="userSpaceOnUse" y1="6.1438" x2="19.387" x1="19.49">
   <stop id="stop10999-9-0" offset="0"/>
   <stop id="stop11001-6-1" style="stop-opacity:0" offset="1"/>
  </linearGradient>
  <filter id="filter3198-5" color-interpolation-filters="sRGB" width="1.1734" y="-.10752" x="-.086712" height="1.215">
   <feGaussianBlur id="feGaussianBlur3200-3" stdDeviation="0.71710775"/>
  </filter>
  <linearGradient id="linearGradient6921" y2="5.4565" gradientUnits="userSpaceOnUse" x2="36.358" gradientTransform="matrix(0 3.8171 -6.1772 0 129.98 -37.908)" y1="8.059" x1="32.892">
   <stop id="stop8591-7-2-1" style="stop-color:#fefefe" offset="0"/>
   <stop id="stop8593-2-4-5" style="stop-color:#cbcbcb" offset="1"/>
  </linearGradient>
  <radialGradient id="radialGradient6925" gradientUnits="userSpaceOnUse" cy="-16.639" cx="2.6083" gradientTransform="matrix(-5.7453 2.452e-7 -2.5955e-7 -6.0905 124.78 -36.865)" r="23">
   <stop id="stop5983" style="stop-color:#60ccff" offset="0"/>
   <stop id="stop5985" style="stop-color:#069dea" offset="1"/>
  </radialGradient>
  <style id="style1246" type="text/css">.fil0 {fill:#1F1A17}</style>
  <style id="style1115" type="text/css">.fil0 {fill:#1F1A17}</style>
  <style id="style1246-3" type="text/css">.fil0 {fill:#1F1A17}</style>
  <style id="style1115-1" type="text/css">.fil0 {fill:#1F1A17}</style>
  <style id="style1246-0" type="text/css">.fil0 {fill:#1F1A17}</style>
  <style id="style1115-7" type="text/css">.fil0 {fill:#1F1A17}</style>
  <style id="style1246-9" type="text/css">.fil0 {fill:#1F1A17}</style>
  <style id="style1115-3" type="text/css">.fil0 {fill:#1F1A17}</style>
  <style id="style874" type="text/css">.fil0 {fill:#1F1A17}</style>
  <style id="style874-7" type="text/css">.fil0 {fill:#1F1A17}</style>
  <linearGradient id="linearGradient14743" y2="614.51" gradientUnits="userSpaceOnUse" x2="542.95" gradientTransform="matrix(2.6667 0 0 2.6667 -1222.8 -1690.7)" y1="644.51" x1="542.95">
   <stop id="stop4216" style="stop-color:#b9e7ff" offset="0"/>
   <stop id="stop4218" style="stop-color:#f5fcff" offset="1"/>
  </linearGradient>
 </defs>
 <rect id="rect892-2-7-1" style="opacity:.15891;stroke:#000;stroke-width:7.7512;fill:none" transform="scale(1,-1)" ry="28.993" height="114.35" width="114.22" y="-121.16" x="6.8687"/>
 <rect id="rect892-2-7-2" ry="29.452" style="stroke:#d3d3d3;stroke-width:9.8448;fill:#37414b" transform="scale(1,-1)" height="116.16" width="116.08" y="-122.08" x="5.9224"/>
 <rect id="rect892" style="stroke:url(#linearGradient3521);stroke-width:.97385;fill:url(#linearGradient3519)" transform="scale(1,-1)" ry="29.296" height="115.54" width="114.22" y="-122.25" x="7.0394"/>
 <rect id="rect892-2" style="stroke:url(#linearGradient3516);stroke-width:.97385;fill:url(#linearGradient3514)" transform="scale(1,-1)" ry="28.993" height="114.35" width="114.22" y="-121.46" x="7.0599"/>
 <path id="path4159-5" style="stroke:url(#linearGradient4192);stroke-width:1px;fill:none" d="m7.0334 31.742h113.58z"/>
 <path id="path4322" d="m120.09 74.559c-1.82 3.831-41.638 40.371-56.018 45.741-66.185 6.38-58.724-19.48-56.838-84.917 4.797-34.382 28.284-28.298 90.407-27.48 28.999 8.074 22.189 27.125 22.449 66.656z" style="fill-rule:evenodd;fill:url(#radialGradient6925)"/>
 <rect id="rect892-2-7-8" style="opacity:.15891;stroke:#000;stroke-width:4.8445;fill:none" transform="scale(1,-1)" ry="28.993" height="114.35" width="114.22" y="-121.16" x="6.8687"/>
 <rect id="rect892-2-7-2-9" ry="28.067" style="stroke:#000;stroke-width:1.0489;fill:none" transform="scale(1,-1)" height="112.71" width="114.14" y="-120.31" x="7.0649"/>
 <g id="g17906" transform="matrix(2.3438 0 0 2.2539 224.79 41.695)"></g>
 <g id="g14735" transform="matrix(.81 0 0 .81 -124.95 72.537)">
  <path id="path4226" style="fill-opacity:.058824" d="m268.86 21.088c0.024-5.562 0.0435-14.049 0.0435-18.862v-8.7502h-0.21253c-0.1168 0-9.3183-0.1024-20.447-0.22747s-20.64-0.22747-21.134-0.22747h-0.89896v14.873c0 8.181 0.008 14.875 0.0187 14.876 0.0107 0 9.5487 1.8953 21.199 4.21 11.651 2.315 21.23 4.212 21.287 4.2155 0.0928 0.0027 0.1064-0.93776 0.14586-10.107zm-46.29-13.569c0.0213-7.99 0.0347-14.532 0.0269-14.538-0.016 0-25.346-0.29451-26.15-0.29149h-0.5067v12.029 12.029l0.14694 0.0376c0.11493 0.02747 26.249 5.231 26.403 5.2557 0.0213 0.0053 0.0568-6.5307 0.0795-14.521zm-12.77-17.901c6.0231-0.07013 11.37-0.12747 11.883-0.12987h0.93168v-14.555-14.555l-0.17974 0.03253c-0.0987 0.024-6.1006 1.206-13.337 2.6393l-13.157 2.6058-0.00051 12.046-0.001 12.046h1.4547c0.80069-0.0013 6.3833-0.05973 12.406-0.1304zm38.569-0.42549c11.271-0.12507 20.501-0.2376 20.513-0.25067 0.0133 0 0.0133-8.5095 0.005-18.883l-0.0187-18.863-19.385 3.8467c-10.662 2.1158-20.253 4.0175-21.314 4.2265l-1.9287 0.37976-0.0187 14.887-0.0187 14.887h0.83374c0.46125-0.000267 10.058-0.1032 21.328-0.2296z"/>
  <path id="path4224" d="m268.86 20.022c0.024-5.562 0.0435-14.049 0.0435-18.862v-8.7502h-0.21253c-0.1168 0-9.3183-0.1024-20.447-0.22747s-20.64-0.22747-21.134-0.22747h-0.89896v14.873c0 8.181 0.008 14.875 0.0187 14.876 0.0107 0 9.5487 1.8953 21.199 4.21 11.651 2.315 21.23 4.212 21.287 4.2155 0.0928 0.0027 0.1064-0.93776 0.14586-10.107zm-46.29-13.569c0.0213-7.99 0.0347-14.532 0.0269-14.538-0.016 0-25.346-0.29451-26.15-0.29149h-0.5067v12.029 12.029l0.14694 0.0376c0.11493 0.02747 26.249 5.231 26.403 5.2557 0.0213 0.0053 0.0568-6.5307 0.0795-14.521zm-12.769-17.901c6.0231-0.07013 11.37-0.12747 11.883-0.12987h0.93168v-14.555-14.555l-0.17974 0.03253c-0.0987 0.024-6.1006 1.206-13.337 2.6393l-13.157 2.6058-0.00051 12.046-0.001 12.046h1.4547c0.80069-0.0013 6.3833-0.05973 12.406-0.1304zm38.569-0.42549c11.271-0.12507 20.501-0.2376 20.513-0.25067 0.0133 0 0.0133-8.5095 0.005-18.883l-0.0187-18.863-19.385 3.8467c-10.662 2.1158-20.253 4.0175-21.314 4.2265l-1.9287 0.37976-0.0187 14.887-0.0187 14.887h0.83374c0.46125-0.000266 10.058-0.1032 21.328-0.2296z" style="fill-opacity:.11765"/>
  <path id="path4220" style="fill-opacity:.23529" d="m268.86 18.955c0.024-5.562 0.0435-14.049 0.0435-18.862v-8.7502h-0.21253c-0.1168 0-9.3183-0.1024-20.447-0.22747s-20.64-0.22747-21.134-0.22747h-0.89896v14.873c0 8.181 0.008 14.875 0.0187 14.876 0.0107 0 9.5487 1.8953 21.199 4.21 11.651 2.315 21.23 4.212 21.287 4.2155 0.0928 0.0027 0.1064-0.93776 0.14586-10.107zm-46.29-13.569c0.0213-7.99 0.0347-14.532 0.0269-14.538-0.016 0-25.346-0.29451-26.15-0.29149h-0.5067v12.029 12.029l0.14694 0.0376c0.11493 0.02747 26.249 5.231 26.403 5.2557 0.0213 0.0053 0.0568-6.5307 0.0795-14.521zm-12.77-17.901c6.0231-0.07013 11.37-0.12747 11.883-0.12987h0.93168v-14.555-14.555l-0.17974 0.03253c-0.0987 0.024-6.1006 1.206-13.337 2.6393l-13.157 2.6058-0.00051 12.046-0.001 12.046h1.4547c0.80069-0.0013 6.3833-0.05973 12.406-0.1304zm38.569-0.42549c11.271-0.12507 20.501-0.2376 20.513-0.25067 0.0133 0 0.0133-8.5095 0.005-18.883l-0.0187-18.863-19.385 3.8467c-10.662 2.1158-20.253 4.0175-21.314 4.2265l-1.9287 0.37976-0.0187 14.887-0.0187 14.887h0.83374c0.46125-0.000267 10.058-0.1032 21.328-0.2296z"/>
  <path id="path858" d="m268.86 17.888c0.024-5.562 0.0435-14.049 0.0435-18.862v-8.7502h-0.21253c-0.1168 0-9.3183-0.1024-20.447-0.22747s-20.64-0.22747-21.134-0.22747h-0.89896v14.873c0 8.181 0.008 14.875 0.0187 14.876 0.0107 0 9.5487 1.8953 21.199 4.21 11.651 2.315 21.23 4.212 21.287 4.2155 0.0928 0.0027 0.1064-0.93776 0.14586-10.107zm-46.29-13.569c0.0213-7.99 0.0347-14.532 0.0269-14.538-0.016 0-25.346-0.29451-26.15-0.29149h-0.5067v12.029 12.029l0.14694 0.0376c0.11493 0.02747 26.249 5.231 26.403 5.2557 0.0213 0.0053 0.0568-6.5307 0.0795-14.521zm-12.77-17.901c6.0231-0.07013 11.37-0.12747 11.883-0.12987h0.93168v-14.555-14.555l-0.17974 0.03253c-0.0987 0.024-6.1006 1.206-13.337 2.6393l-13.157 2.6058-0.00051 12.046-0.001 12.046h1.4547c0.80069-0.0013 6.3833-0.05973 12.406-0.1304zm38.569-0.42549c11.271-0.12507 20.501-0.2376 20.513-0.25067 0.0133 0 0.0133-8.5095 0.005-18.883l-0.0187-18.863-19.385 3.8467c-10.662 2.1158-20.253 4.0175-21.314 4.2265l-1.9287 0.37976-0.0187 14.887-0.0187 14.887h0.83374c0.46125-0.000266 10.058-0.1032 21.328-0.2296z" style="fill:url(#linearGradient14743)"/>
  <path id="path4228" style="fill:#1cb1fd;fill-opacity:.31373" d="m268.89-16.39c-0.0115 0.01307-9.245 0.12493-20.516 0.25h-0.005c-11.271 0.1264-20.867 0.22891-21.328 0.22917h-0.82813l-0.005 2.1354h0.83333c0.46125-0.000266 10.058-0.10797 21.328-0.23437h0.005c11.271-0.12507 20.504-0.23693 20.516-0.25 0.002 0-0.001-1.9231 0-2.1302zm-47.203 0.54687c-0.5124 0.0024-5.8571 0.06008-11.88 0.13021-6.0232 0.07067-11.606 0.12896-12.406 0.13021h-1.4583v2.1302h1.4583c0.80069-0.0013 6.3831-0.05955 12.406-0.13021 6.0231-0.07013 11.368-0.12781 11.88-0.13021h0.9323v-2.1302h-0.9323zm0.91146 5.625c0.002 1.5493-0.008 5.5896-0.0261 12.406-0.0227 7.99-0.0568 14.526-0.0781 14.521-0.15403-0.0248-26.286-5.2329-26.401-5.2604l-0.14584-0.03645v2.1354l0.14584 0.03645c0.11494 0.02747 26.247 5.2305 26.401 5.2552 0.0213 0.0053 0.0555-6.5308 0.0781-14.521 0.0213-7.99 0.039-14.53 0.0312-14.536h-0.005zm46.312 7.1094c0 4.8128-0.0229 13.303-0.0469 18.865-0.0395 9.1697-0.053 10.107-0.14584 10.104-0.057-0.0035-9.6358-1.8986-21.286-4.2135-11.651-2.3147-21.187-4.2083-21.198-4.2083 0.001 0.25939-0.002 2.1301 0 2.1302 0.0107 0 9.5472 1.8988 21.198 4.2135 11.651 2.315 21.229 4.21 21.286 4.2135 0.0928 0.0027 0.10637-0.93964 0.14584-10.109 0.024-5.562 0.0469-14.047 0.0469-18.859v-2.1354z"/>
  <path id="path4105" style="fill:#fff;fill-opacity:.23529" d="m268.87-52.004-19.385 3.849c-10.662 2.1158-20.252 4.0149-21.312 4.224l-1.9271 0.38021v1.0677l1.9271-0.38021c1.0608-0.20901 10.651-2.1134 21.312-4.2292l19.385-3.8438v-1.0677zm-46.255 9.1823-0.1771 0.03125c-0.0987 0.024-6.1021 1.2074-13.339 2.6406l-13.156 2.6042v1.0677l13.156-2.6042c7.2364-1.4333 13.24-2.6166 13.339-2.6406l0.1771-0.03125v-1.0677zm-26.672 32.312v1.0677h0.50521c0.80339-0.00293 26.135 0.29166 26.151 0.29166-0.00034-0.068933 0.00057-1.0673 0-1.0677-0.016 0-25.348-0.29468-26.151-0.29167h-0.50521zm30.271 0.32812v1.0677h0.89584c0.49442 0 10.006 0.10411 21.135 0.22917 11.129 0.12507 20.331 0.22917 20.448 0.22917h0.21355v-1.0677h-0.21355c-0.1168 0-9.3187-0.10411-20.448-0.22917-11.129-0.12507-20.641-0.22917-21.135-0.22917h-0.89584z"/>
 </g>
 <path id="path4891" d="m25.685 5.7862c3.6386-0.3502 2.8432 14.02 2.8432 14.02s16.093-0.84846 16.525 1.9543c3.85-3.268-16.654-16.76-19.368-15.974z" style="opacity:.3;fill-rule:evenodd;filter:url(#filter3198-5)" transform="matrix(0 2.6586 -4.0239 0 144.6 .66614)"/>
 <path id="path4893" d="m120.42 71.909c-2.6379 9.487-48.941 8.4899-48.941 8.4899s3.0553 39.005-10.575 39.949c8.02 2.4523 48.56-28.337 57.689-43.48 1.1729-1.9458 1.8272-3.6334 1.8272-4.9589z" style="fill:url(#linearGradient6921);fill-rule:evenodd"/>
</svg>
