<?xml version="1.0" encoding="UTF-8" standalone="no"?>
<!-- Created with Inkscape (http://www.inkscape.org/) -->
<svg id="svg3449" xmlns:rdf="http://www.w3.org/1999/02/22-rdf-syntax-ns#" xmlns="http://www.w3.org/2000/svg" height="128" width="128" version="1.0" xmlns:cc="http://creativecommons.org/ns#" xmlns:xlink="http://www.w3.org/1999/xlink" xmlns:dc="http://purl.org/dc/elements/1.1/">
 <metadata id="metadata56">
  <rdf:RDF>
   <cc:Work rdf:about="">
    <dc:format>image/svg+xml</dc:format>
    <dc:type rdf:resource="http://purl.org/dc/dcmitype/StillImage"/>
    <dc:title/>
   </cc:Work>
  </rdf:RDF>
 </metadata>
 <defs id="defs3451">
  <linearGradient id="linearGradient3514" y2="-9.1034" gradientUnits="userSpaceOnUse" x2="66.492" gradientTransform="matrix(.96826 0 0 .97948 2.179 .16587)" y1="-42.638" x1="67.952">
   <stop id="stop4620" style="stop-color:#37414b" offset="0"/>
   <stop id="stop4622" style="stop-color:#37414b;stop-opacity:0" offset="1"/>
  </linearGradient>
  <linearGradient id="linearGradient3516" y2="-11.847" gradientUnits="userSpaceOnUse" x2="58.98" gradientTransform="matrix(.96826 0 0 .97948 2.179 .16587)" y1="-118.55" x1="57.173">
   <stop id="stop4596" offset="0"/>
   <stop id="stop4598" style="stop-opacity:0" offset="1"/>
  </linearGradient>
  <linearGradient id="linearGradient3519" y2="50.369" gradientUnits="userSpaceOnUse" x2="76.558" gradientTransform="matrix(.96826 0 0 .97948 3.2423 -129.19)" y1="13.164" x1="76.558">
   <stop id="stop3392" style="stop-color:#425e7b" offset="0"/>
   <stop id="stop3394" style="stop-color:#7a91a7" offset="1"/>
  </linearGradient>
  <linearGradient id="linearGradient3521" y2="-8.7399" gradientUnits="userSpaceOnUse" x2="60.217" gradientTransform="matrix(.96826 0 0 .97948 2.179 .16587)" y1="-123.72" x1="60.395">
   <stop id="stop3392-4-8" style="stop-color:#425e7b" offset="0"/>
   <stop id="stop3394-8-0" style="stop-color:#7a91a7" offset="1"/>
  </linearGradient>
  <linearGradient id="linearGradient4192" y2="31.742" gradientUnits="userSpaceOnUse" x2="121.11" y1="31.742" x1="6.5334">
   <stop id="stop4188" style="stop-color:#fff" offset="0"/>
   <stop id="stop4190" style="stop-color:#fff;stop-opacity:0" offset="1"/>
  </linearGradient>
  <linearGradient id="linearGradient11577" y2="8.1" gradientUnits="userSpaceOnUse" y1="6.1438" x2="19.387" x1="19.49">
   <stop id="stop10999-9-0" offset="0"/>
   <stop id="stop11001-6-1" style="stop-opacity:0" offset="1"/>
  </linearGradient>
  <filter id="filter3198-5" color-interpolation-filters="sRGB" width="1.1734" y="-.10752" x="-.086712" height="1.215">
   <feGaussianBlur id="feGaussianBlur3200-3" stdDeviation="0.71710775"/>
  </filter>
  <linearGradient id="linearGradient6921" y2="5.4565" gradientUnits="userSpaceOnUse" x2="36.358" gradientTransform="matrix(0 3.8171 -6.1772 0 129.98 -37.908)" y1="8.059" x1="32.892">
   <stop id="stop8591-7-2-1" style="stop-color:#fefefe" offset="0"/>
   <stop id="stop8593-2-4-5" style="stop-color:#cbcbcb" offset="1"/>
  </linearGradient>
  <radialGradient id="radialGradient6925" gradientUnits="userSpaceOnUse" cy="-16.639" cx="2.6083" gradientTransform="matrix(-5.7453 2.452e-7 -2.5955e-7 -6.0905 124.78 -36.865)" r="23">
   <stop id="stop6546-7-5" style="stop-color:#7b7b7b" offset="0"/>
   <stop id="stop6548-9-0" style="stop-color:#404040" offset="1"/>
  </radialGradient>
  <style id="style1246" type="text/css">.fil0 {fill:#1F1A17}</style>
  <style id="style1115" type="text/css">.fil0 {fill:#1F1A17}</style>
  <style id="style1246-3" type="text/css">.fil0 {fill:#1F1A17}</style>
  <style id="style1115-1" type="text/css">.fil0 {fill:#1F1A17}</style>
  <style id="style1246-0" type="text/css">.fil0 {fill:#1F1A17}</style>
  <style id="style1115-7" type="text/css">.fil0 {fill:#1F1A17}</style>
  <linearGradient id="linearGradient8518-7" y2="6.6868" gradientUnits="userSpaceOnUse" x2="-18.606" gradientTransform="matrix(2 0 0 2 322.29 68.752)" y1="36.695" x1="-18.606">
   <stop id="stop4413-3" style="stop-color:#dadcde" offset="0"/>
   <stop id="stop4415-0" style="stop-color:#fafafa" offset="1"/>
  </linearGradient>
 </defs>
 <rect id="rect892-2-7-1" style="opacity:.15891;stroke:#000;stroke-width:7.7512;fill:none" transform="scale(1,-1)" ry="28.993" height="114.35" width="114.22" y="-121.16" x="6.8687"/>
 <rect id="rect892-2-7-2" ry="29.452" style="stroke:#d3d3d3;stroke-width:9.8448;fill:#37414b" transform="scale(1,-1)" height="116.16" width="116.08" y="-122.08" x="5.9224"/>
 <rect id="rect892" style="stroke:url(#linearGradient3521);stroke-width:.97385;fill:url(#linearGradient3519)" transform="scale(1,-1)" ry="29.296" height="115.54" width="114.22" y="-122.25" x="7.0394"/>
 <rect id="rect892-2" style="stroke:url(#linearGradient3516);stroke-width:.97385;fill:url(#linearGradient3514)" transform="scale(1,-1)" ry="28.993" height="114.35" width="114.22" y="-121.46" x="7.0599"/>
 <path id="path4159-5" style="stroke:url(#linearGradient4192);stroke-width:1px;fill:none" d="m7.0334 31.742h113.58z"/>
 <path id="path4322" d="m120.09 74.559c-1.82 3.831-41.638 40.371-56.018 45.741-66.185 6.38-58.724-19.48-56.838-84.917 4.797-34.382 28.284-28.298 90.407-27.48 28.999 8.074 22.189 27.125 22.449 66.656z" style="fill-rule:evenodd;fill:url(#radialGradient6925)"/>
 <g id="g8535" transform="translate(-207.74 -49.228)">
  <path id="path4179" style="fill-rule:evenodd;fill-opacity:.058824" d="m277.06 84.537c2.5143 9.9053-8.8758 12.917-12.984 19.086-2.7976 4.203 1.3732 8.7054 7.0596 13.836-2.2175-5.0128-9.7408-9.4055 0-17.099 12.147-9.5874 5.9244-15.822 5.9244-15.822zm7.4854 12.275c0.00014 0-20.523 5.1219-10.714 16.425 2.8957 3.3333-0.745 6.3147-0.745 6.3147s7.3473-3.7623 3.9733-8.5142c-3.1524-4.4293-5.599-6.6377 7.4854-14.226zm3.3347 20.186c-0.62906 0.0322-1.2773 0.1534-1.9512 0.39024-0.6303 0.2231-0.95784 0.74498-0.95784 0.74498s0.38868-0.1694 1.2771-0.35474c3.6331-0.75706 8.8448 4.8655-2.4123 10.714-0.0522 0.1394-0.21298 0.31928-0.21286 0.31928 13.623-3.5811 10.338-12.125 4.2571-11.813zm-24.336 0.56762c-1.4352 0.0376-4.8223 0.34598-8.727 2.235-6.1589 2.978 15.248 4.3319 26.323 1.419 1.1514-0.7857 2.7316-1.4545 2.7316-1.4545s-4.533 0.79192-9.0463 1.1707c-5.5241 0.46346-11.429 0.57542-14.403 0.1774-7.0426-0.94152 3.8668-3.5476 3.8668-3.5476 0-0.00002-0.26658-0.012-0.74498-0.00002zm-1.8093 6.8113c-10.16 3.3719 5.667 7.2043 19.866 3.0509-1.5086-0.5318-2.4833-1.49-2.4833-1.49-6.9425 1.3361-10.956 1.2694-16.035 0.74498-3.927-0.40586-1.3481-2.3059-1.3481-2.3059zm1.419 6.563c-9.2251 2.5776 5.6371 7.9059 17.383 2.8735-1.9238-0.7476-3.2992-1.5964-3.2992-1.5964-5.238 0.9901-7.6973 1.075-12.452 0.53214-3.924-0.45006-1.6319-1.8093-1.6319-1.8093zm-5.9599 4.3635c-3.9643-0.1526-12.934 3.7906-5.2504 5.0375 23.947 3.8816 43.638-1.7385 37.427-4.5409 0 0 1.6844 1.4019-1.8802 2.4833-6.7782 2.0531-28.208 2.6611-34.163 0.071-2.1391-0.9317 1.8591-2.2106 3.1219-2.4833 1.3166-0.28482 2.0931-0.21284 2.0931-0.21284-0.29758-0.20958-0.78176-0.333-1.3481-0.3548zm35.972 3.5476s-0.76582 1.9389-8.9399 3.4766c-9.2216 1.7361-20.571 1.5394-27.316 0.42572 0 0 1.3786 1.1394 8.4787 1.5964 10.803 0.69068 27.385-0.38644 27.777-5.4987z"/>
  <path id="path4177" d="m277.06 83.737c2.5143 9.9053-8.8758 12.917-12.984 19.086-2.7976 4.203 1.3732 8.7054 7.0596 13.836-2.2175-5.0128-9.7408-9.4055 0-17.099 12.147-9.5874 5.9244-15.822 5.9244-15.822zm7.4854 12.275c0.00014 0-20.523 5.1219-10.714 16.425 2.8957 3.3333-0.745 6.3147-0.745 6.3147s7.3473-3.7623 3.9733-8.5142c-3.1524-4.4293-5.599-6.6377 7.4854-14.226zm3.3347 20.186c-0.62906 0.0322-1.2773 0.1534-1.9512 0.39024-0.6303 0.2231-0.95784 0.74498-0.95784 0.74498s0.38868-0.1694 1.2771-0.35474c3.6331-0.75706 8.8448 4.8655-2.4123 10.714-0.0522 0.1394-0.21298 0.31928-0.21286 0.31928 13.623-3.5811 10.338-12.125 4.2571-11.813zm-24.336 0.56762c-1.4352 0.0376-4.8223 0.34598-8.727 2.235-6.1589 2.978 15.248 4.3319 26.323 1.419 1.1514-0.7857 2.7316-1.4545 2.7316-1.4545s-4.533 0.79192-9.0463 1.1707c-5.5241 0.46346-11.429 0.57542-14.403 0.1774-7.0426-0.94152 3.8668-3.5476 3.8668-3.5476 0-0.00002-0.26658-0.012-0.74498-0.00002zm-1.8093 6.8113c-10.16 3.3719 5.667 7.2043 19.866 3.0509-1.5086-0.5318-2.4833-1.49-2.4833-1.49-6.9425 1.3361-10.956 1.2694-16.035 0.74498-3.927-0.40586-1.3481-2.3059-1.3481-2.3059zm1.419 6.563c-9.2251 2.5776 5.6371 7.9059 17.383 2.8735-1.9238-0.7476-3.2992-1.5964-3.2992-1.5964-5.238 0.9901-7.6973 1.075-12.452 0.53214-3.924-0.45006-1.6319-1.8093-1.6319-1.8093zm-5.9599 4.3635c-3.9643-0.1526-12.934 3.7906-5.2504 5.0375 23.947 3.8816 43.638-1.7385 37.427-4.5409 0 0 1.6844 1.4019-1.8802 2.4833-6.7782 2.0531-28.208 2.6611-34.163 0.071-2.1391-0.9317 1.8591-2.2106 3.1219-2.4833 1.3166-0.28482 2.0931-0.21284 2.0931-0.21284-0.29758-0.20958-0.78176-0.333-1.3481-0.3548zm35.972 3.5476s-0.76582 1.9389-8.9399 3.4766c-9.2216 1.7361-20.571 1.5394-27.316 0.42572 0 0 1.3786 1.1394 8.4787 1.5964 10.803 0.69068 27.385-0.38644 27.777-5.4987z" style="fill-rule:evenodd;fill-opacity:.11765"/>
  <path id="path4175" style="fill-rule:evenodd;fill-opacity:.23529" d="m277.06 82.937c2.5143 9.9053-8.8758 12.917-12.984 19.086-2.7976 4.203 1.3732 8.7054 7.0596 13.836-2.2175-5.0128-9.7408-9.4055 0-17.099 12.147-9.5874 5.9244-15.822 5.9244-15.822zm7.4854 12.275c0.00014 0-20.523 5.1219-10.714 16.425 2.8957 3.3333-0.745 6.3147-0.745 6.3147s7.3473-3.7623 3.9733-8.5142c-3.1524-4.4293-5.599-6.6377 7.4854-14.226zm3.3347 20.186c-0.62906 0.0322-1.2773 0.1534-1.9512 0.39024-0.6303 0.2231-0.95784 0.74498-0.95784 0.74498s0.38868-0.1694 1.2771-0.35474c3.6331-0.75706 8.8448 4.8655-2.4123 10.714-0.0522 0.1394-0.21298 0.31928-0.21286 0.31928 13.623-3.5811 10.338-12.125 4.2571-11.813zm-24.336 0.56762c-1.4352 0.0376-4.8223 0.34598-8.727 2.235-6.1589 2.978 15.248 4.3319 26.323 1.419 1.1514-0.7857 2.7316-1.4545 2.7316-1.4545s-4.533 0.79192-9.0463 1.1707c-5.5241 0.46346-11.429 0.57542-14.403 0.1774-7.0426-0.94152 3.8668-3.5476 3.8668-3.5476 0-0.00002-0.26658-0.012-0.74498-0.00002zm-1.8093 6.8113c-10.16 3.3719 5.667 7.2043 19.866 3.0509-1.5086-0.5318-2.4833-1.49-2.4833-1.49-6.9425 1.3361-10.956 1.2694-16.035 0.74498-3.927-0.40586-1.3481-2.3059-1.3481-2.3059zm1.419 6.563c-9.2251 2.5776 5.6371 7.9059 17.383 2.8735-1.9238-0.7476-3.2992-1.5964-3.2992-1.5964-5.238 0.9901-7.6973 1.075-12.452 0.53214-3.924-0.45006-1.6319-1.8093-1.6319-1.8093zm-5.9599 4.3635c-3.9643-0.1526-12.934 3.7906-5.2504 5.0375 23.947 3.8816 43.638-1.7385 37.427-4.5409 0 0 1.6844 1.4019-1.8802 2.4833-6.7782 2.0531-28.208 2.6611-34.163 0.071-2.1391-0.9317 1.8591-2.2106 3.1219-2.4833 1.3166-0.28482 2.0931-0.21284 2.0931-0.21284-0.29758-0.20958-0.78176-0.333-1.3481-0.3548zm35.972 3.5476s-0.76582 1.9389-8.9399 3.4766c-9.2216 1.7361-20.571 1.5394-27.316 0.42572 0 0 1.3786 1.1394 8.4787 1.5964 10.803 0.69068 27.385-0.38644 27.777-5.4987z"/>
  <path id="path3672" d="m277.06 82.137c2.5143 9.9053-8.8758 12.917-12.984 19.086-2.7976 4.203 1.3732 8.7054 7.0596 13.836-2.2175-5.0128-9.7408-9.4055 0-17.099 12.147-9.5874 5.9244-15.822 5.9244-15.822zm7.4854 12.275c0.00014 0-20.523 5.1219-10.714 16.425 2.8957 3.3333-0.745 6.3147-0.745 6.3147s7.3473-3.7623 3.9733-8.5142c-3.1524-4.4293-5.599-6.6377 7.4854-14.226zm3.3347 20.186c-0.62906 0.0322-1.2773 0.1534-1.9512 0.39024-0.6303 0.2231-0.95784 0.74498-0.95784 0.74498s0.38868-0.1694 1.2771-0.35474c3.6331-0.75706 8.8448 4.8655-2.4123 10.714-0.0522 0.1394-0.21298 0.31928-0.21286 0.31928 13.623-3.5811 10.338-12.125 4.2571-11.813zm-24.336 0.56762c-1.4352 0.0376-4.8223 0.34598-8.727 2.235-6.1589 2.978 15.248 4.3319 26.323 1.419 1.1514-0.7857 2.7316-1.4545 2.7316-1.4545s-4.533 0.79192-9.0463 1.1707c-5.5241 0.46346-11.429 0.57542-14.403 0.1774-7.0426-0.94152 3.8668-3.5476 3.8668-3.5476 0-0.00002-0.26658-0.012-0.74498-0.00002zm-1.8093 6.8113c-10.16 3.3719 5.667 7.2043 19.866 3.0509-1.5086-0.5318-2.4833-1.49-2.4833-1.49-6.9425 1.3361-10.956 1.2694-16.035 0.74498-3.927-0.40586-1.3481-2.3059-1.3481-2.3059zm1.419 6.563c-9.2251 2.5776 5.6371 7.9059 17.383 2.8735-1.9238-0.7476-3.2992-1.5964-3.2992-1.5964-5.238 0.9901-7.6973 1.075-12.452 0.53214-3.924-0.45006-1.6319-1.8093-1.6319-1.8093zm-5.9599 4.3635c-3.9643-0.1526-12.934 3.7906-5.2504 5.0375 23.947 3.8816 43.638-1.7385 37.427-4.5409 0 0 1.6844 1.4019-1.8802 2.4833-6.7782 2.0531-28.208 2.6611-34.163 0.071-2.1391-0.9317 1.8591-2.2106 3.1219-2.4833 1.3166-0.28482 2.0931-0.21284 2.0931-0.21284-0.29758-0.20958-0.78176-0.333-1.3481-0.3548zm35.972 3.5476s-0.76582 1.9389-8.9399 3.4766c-9.2216 1.7361-20.571 1.5394-27.316 0.42572 0 0 1.3786 1.1394 8.4787 1.5964 10.803 0.69068 27.385-0.38644 27.777-5.4987z" style="fill-rule:evenodd;fill:url(#linearGradient8518-7)"/>
  <path id="path4195" style="fill-rule:evenodd;fill:#4c4f54;fill-opacity:.31373" d="m277.06 82.137c0.171 0.67388 0.26348 1.3086 0.3125 1.9219 0.043-0.48644 0.042-0.99646 0.004-1.5234-0.1806-0.24306-0.3165-0.39844-0.3165-0.39844zm1.5391 3.6484c-0.2886 2.6874-2.0419 6.2939-7.4648 10.574-4.1027 3.2405-5.1252 5.8916-4.7891 8.2539 0.27196-1.9556 1.5858-4.1262 4.7891-6.6562 6.5927-5.2036 7.7627-9.4044 7.4648-12.172zm5.9453 8.625c0.00004 0-2.7931 0.7097-5.8203 2.1523-3.6278 2.7217-4.4637 4.5827-4.0508 6.3555 0.50744-2.0987 3.1004-4.5812 9.8711-8.5078zm-21.277 8.8398c-0.6074 3.6226 3.0837 7.4931 7.8672 11.809-0.57452-1.2987-1.5003-2.5562-2.3945-3.8398-2.9179-2.8234-5.0777-5.4611-5.4726-7.9688zm7.9726 0.91798c-0.27308 1.9223 0.39852 4.1383 2.5938 6.668 0.57124 0.65758 0.8789 1.3002 1.0195 1.9102 0.23202-1.0227 0.0842-2.2372-1.0195-3.5078-1.6104-1.8557-2.3934-3.5431-2.5938-5.0703zm6.6211 6.2226c-0.36908 1.7164-1.8175 3.1035-3.0273 4.0156-0.36276 1.4869-1.4391 2.4661-1.6367 2.6367 0.026-0.002 0.052-0.002 0.0782-0.004 0.49478-0.26322 5.3712-2.9479 4.5859-6.6484zm10.02 4.207c-0.62906 0.0322-1.2793 0.1538-1.9531 0.39062-0.63028 0.2231-0.95702 0.7422-0.95702 0.7422s0.3889-0.1662 1.2773-0.35158c1.7469-0.364 3.842 0.75446 4.3125 2.6563 0.29914-1.3549-0.153-2.4924-0.96876-3.2578-0.53706-0.1316-1.1042-0.2108-1.7109-0.1796zm-24.336 0.5664c-1.0125 0.0264-3.0248 0.2167-5.4766 0.97266-0.0428 0.27188 0.2772 0.52444 1.0859 0.73438 1.7728-0.88528 5.1367-1.707 5.1367-1.707 0-0.00002-0.26768-0.012-0.74608 0zm20.328 2.1992s-4.5336 0.79308-9.0469 1.1719c-5.5241 0.46346-11.428 0.57378-14.402 0.1758-0.48452-0.0648-0.86744-0.1396-1.1914-0.21876-2.0693-0.2168-3.7824-0.5114-4.6836-0.92186-4.9727 2.854 15.736 4.1047 26.59 1.25 1.1514-0.78572 2.7344-1.457 2.7344-1.457zm9.1719 0.65626c-0.32148 1.694-1.7396 3.5274-4.7344 5.0508-1.0586 0.97868-2.4981 1.9938-4.4727 3.0195-0.0522 0.1394-0.21498 0.32032-0.21484 0.32032 7.7589-2.0397 10.025-5.6842 9.4219-8.3906zm-31.309 3.957c-0.1898 0.063-0.30866 0.1282-0.48046 0.1914 0.041 0.0294 0.122 0.0502 0.1718 0.0782 0.157-0.1528 0.30858-0.26952 0.30858-0.26952zm-2.7695 1.418c-2.9484 2.8687 10.424 5.205 22.637 1.6328-0.9544-0.33644-1.5729-0.76268-1.9883-1.0898-9.1932 2.2063-18.521 1.2869-20.648-0.54296zm1.7305 6.3125c-2.7652 2.6647 9.685 6.0577 19.84 1.707-0.78638-0.3056-1.3909-0.61218-1.9375-0.88672-7.6702 2.5215-15.99 1.1167-17.902-0.8203zm-3.5039 3.1953c-1.232-0.0474-2.9278 0.32342-4.4766 0.86328 0.01 0.2022 0.1838 0.40056 0.60938 0.58594 0.0876 0.0382 0.21042 0.0688 0.3047 0.1054 0.88966-0.46618 2.193-0.85278 2.8203-0.98828 1.3166-0.28482 2.0898-0.21094 2.0898-0.21094-0.29758-0.20958-0.78132-0.33368-1.3476-0.35546zm32.82 0.91016c-0.0816 0.0766-0.1708 0.1536-0.27344 0.23048 0.0968 0.50582-0.21412 1.2222-2.25 1.8398-3.5451 1.0738-11.085 1.7371-18.336 1.7695-0.98804 0.008-2.0111-0.008-3.043-0.0312-0.42184-0.01-0.8551-0.006-1.2695-0.02-0.006-0.00022-0.012 0.00024-0.02 0-4.0481-0.141-8.3889-0.53392-12.879-1.2617-1.2847-0.20848-2.0686-0.4967-2.5234-0.82422-0.95532 0.94948-0.6264 1.9146 2.5234 2.4258 22.833 3.701 41.739-1.2323 38.07-4.1289zm3.1523 2.6367s-0.76344 1.9389-8.9375 3.4766c-9.2216 1.7361-20.572 1.5394-27.316 0.42578 0 0 1.3765 1.1407 8.4766 1.5977 10.803 0.69068 27.385-0.3877 27.777-5.5z"/>
  <path id="path4200" style="fill-rule:evenodd;fill:#fff;fill-opacity:.23529" d="m277.06 82.137c0.0894 0.35228 0.1206 0.67644 0.1758 1.0117 0.36148 0.43304 1.2652 1.7171 1.3906 3.7695 0.1406-3.0377-1.5664-4.7813-1.5664-4.7813zm0.32422 3.4648c-0.59504 7.2554-9.7232 10.237-13.309 15.621-0.69606 1.0457-0.9577 2.1114-0.875 3.1992 0.0706-0.81128 0.35044-1.6104 0.875-2.3984 3.7121-5.5738 13.335-8.5888 13.309-16.422zm7.1602 8.8086c0.0001 0-13.846 3.4657-13.34 10.973 0.34066-4.962 6.9068-7.9871 10.691-9.332 0.84426-0.53402 1.6192-1.0437 2.6484-1.6406zm-9.9531 9.7227c-0.20522 1.7771 1.056 3.3196 2.4688 5.3047 0.5322 0.74954 0.77414 1.4707 0.84374 2.1602 0.1036-0.92062-0.101-1.9148-0.84374-2.9609-1.198-1.6832-2.2882-3.045-2.4688-4.5039zm-8.2812 1.6875c-0.20656 3.146 2.232 5.7456 3.9062 8.3906 0.30768 0.28312 0.59988 0.56068 0.91798 0.84766-1.3348-3.0173-4.5669-5.8151-4.8242-9.2383zm8.5898 7.9922c-0.1584 1.9394-1.8125 3.3398-1.8125 3.3398s0.55422-0.30024 1.2773-0.80078c0.39178-0.69542 0.68348-1.558 0.53516-2.5391zm12.98 0.78516c-0.62906 0.0322-1.2793 0.1538-1.9531 0.39062-0.63028 0.2231-0.95702 0.7422-0.95702 0.7422s0.3889-0.1662 1.2773-0.35158c0.4915-0.1024 1.011-0.0808 1.5156 0.0352 0.0386-0.002 0.0786-0.014 0.1172-0.016 2.8105-0.1442 5 1.6077 5.2227 3.8828 0.28232-2.6516-2.0892-4.8443-5.2227-4.6836zm-24.336 0.5664c-1.4352 0.0376-4.8219 0.3454-8.7266 2.2344-1.0764 0.52044-1.2959 0.9913-0.89064 1.3984 0.1742-0.1912 0.46062-0.38974 0.89064-0.59766 2.0847-1.0085 3.9911-1.5487 5.5625-1.8555 1.776-0.65456 3.9101-1.1797 3.9101-1.1797 0-0.00002-0.26768-0.012-0.74608 0zm20.328 2.1992s-4.5336 0.79308-9.0469 1.1719c-5.5241 0.46346-11.428 0.57378-14.402 0.1758-1.124-0.1502-1.7513-0.3448-2.0781-0.5625-0.61202 0.53484-0.30712 1.0444 2.0781 1.3633 2.9745 0.398 8.8782 0.28768 14.402-0.1758 2.7795-0.23328 5.14-0.56684 6.8711-0.83202 1.0445-0.62214 2.1758-1.1406 2.1758-1.1406zm6.7617 1.8633c-0.21726 1.9325-2.0076 4.3752-6.7969 6.8633-0.0522 0.1394-0.21498 0.32032-0.21484 0.32032 0.81348-0.21384 1.558-0.44902 2.2539-0.69532 3.8296-2.43 4.9683-4.7384 4.7578-6.4883zm-28.898 2.75c-2.679 0.88914-3.5144 1.8072-3.0859 2.6055 0.25728-0.48316 1.0175-0.98644 2.2852-1.4883 0.081-0.56996 0.80078-1.1172 0.80078-1.1172zm17.383 1.5586c-6.9425 1.3361-10.956 1.2705-16.035 0.7461-1.2577-0.13-1.8059-0.41718-2.0273-0.7422-0.32438 0.57786-0.24522 1.3081 2.0273 1.543 5.0794 0.52438 9.0926 0.59 16.035-0.7461 0 0 0.51804 0.50292 1.3672 0.98046 0.37242-0.0978 0.7465-0.1806 1.1172-0.28906-1.5086-0.5318-2.4844-1.4922-2.4844-1.4922zm-15.965 5.0039c-2.4159 0.67504-3.1495 1.5347-2.75 2.3516 0.23538-0.47168 0.93896-0.92834 2.1367-1.3359-0.24668-0.5008 0.61328-1.0156 0.61328-1.0156zm-0.44922 1.1797c-0.38566 0.43636-0.5256 1.1306 2.082 1.4297 4.7546 0.54282 7.2112 0.45884 12.449-0.53126 0 0 1.0072 0.55618 2.332 1.1524 0.32262-0.1214 0.65016-0.21898 0.96874-0.35548-1.9238-0.74762-3.3008-1.5977-3.3008-1.5977-5.238 0.9901-7.6946 1.0741-12.449 0.53126-1.2368-0.1418-1.8139-0.37744-2.082-0.6289zm-5.5117 3.1836c-3.0738-0.1182-9.1211 2.223-8.1172 3.8633 0.59064-1.1047 3.2601-2.2593 5.6875-2.7734 0.65266-0.23748 1.2962-0.4389 1.6875-0.52342 1.3166-0.28482 2.0898-0.21094 2.0898-0.21094-0.29758-0.2096-0.78132-0.33368-1.3476-0.35548zm32.176 0.4961s0.50286 0.44388 0.34374 1.0195c0.30454 0.1808 0.5705 0.3655 0.6875 0.5625 0.30642-0.56768 0.006-1.1141-1.0312-1.582zm0.28906 1.1914c-0.21204 0.41302-0.79576 0.87668-2.168 1.293-6.7782 2.0531-28.209 2.6605-34.164 0.0704-0.1774-0.0772-0.25352-0.161-0.35156-0.2422-0.36828 0.35132-0.39292 0.7187 0.35156 1.043 5.9547 2.5902 27.386 1.9828 34.164-0.0704 2.4129-0.73202 2.4148-1.6023 2.168-2.0938zm3.5078 1.8594s-0.76344 1.9389-8.9375 3.4766c-9.2216 1.7361-20.572 1.5394-27.316 0.42578 0 0 1.345 1.0707 7.9336 1.5508 6.0712 0.26912 13.193-0.01 19.383-1.1758 5.0692-0.95362 7.2831-2.0576 8.2383-2.7617 0.39398-0.46166 0.65672-0.96228 0.69922-1.5156z"/>
 </g>
 <rect id="rect892-2-7-8" style="opacity:.15891;stroke:#000;stroke-width:4.8445;fill:none" transform="scale(1,-1)" ry="28.993" height="114.35" width="114.22" y="-121.16" x="6.8687"/>
 <rect id="rect892-2-7-2-9" ry="28.067" style="stroke:#000;stroke-width:1.0489;fill:none" transform="scale(1,-1)" height="112.71" width="114.14" y="-120.31" x="7.0649"/>
 <g id="g17906" transform="matrix(2.3438 0 0 2.2539 224.79 41.695)"></g>
 <path id="path4891" d="m25.685 5.7862c3.6386-0.3502 2.8432 14.02 2.8432 14.02s16.093-0.84846 16.525 1.9543c3.85-3.268-16.654-16.76-19.368-15.974z" style="opacity:.3;fill-rule:evenodd;filter:url(#filter3198-5)" transform="matrix(0 2.6586 -4.0239 0 144.6 .66614)"/>
 <path id="path4893" d="m120.42 71.909c-2.6379 9.487-48.941 8.4899-48.941 8.4899s3.0553 39.005-10.575 39.949c8.02 2.4523 48.56-28.337 57.689-43.48 1.1729-1.9458 1.8272-3.6334 1.8272-4.9589z" style="fill:url(#linearGradient6921);fill-rule:evenodd"/>
</svg>
