<?xml version="1.0" encoding="UTF-8" standalone="no"?>
<!-- Created with Inkscape (http://www.inkscape.org/) -->
<svg id="svg3449" xmlns:rdf="http://www.w3.org/1999/02/22-rdf-syntax-ns#" xmlns="http://www.w3.org/2000/svg" height="128" width="128" version="1.0" xmlns:cc="http://creativecommons.org/ns#" xmlns:xlink="http://www.w3.org/1999/xlink" xmlns:dc="http://purl.org/dc/elements/1.1/">
 <metadata id="metadata56">
  <rdf:RDF>
   <cc:Work rdf:about="">
    <dc:format>image/svg+xml</dc:format>
    <dc:type rdf:resource="http://purl.org/dc/dcmitype/StillImage"/>
    <dc:title/>
   </cc:Work>
  </rdf:RDF>
 </metadata>
 <defs id="defs3451">
  <linearGradient id="linearGradient3514" y2="-9.1034" gradientUnits="userSpaceOnUse" x2="66.492" gradientTransform="matrix(.96826 0 0 .97948 2.179 .16587)" y1="-42.638" x1="67.952">
   <stop id="stop4620" style="stop-color:#37414b" offset="0"/>
   <stop id="stop4622" style="stop-color:#37414b;stop-opacity:0" offset="1"/>
  </linearGradient>
  <linearGradient id="linearGradient3516" y2="-11.847" gradientUnits="userSpaceOnUse" x2="58.98" gradientTransform="matrix(.96826 0 0 .97948 2.179 .16587)" y1="-118.55" x1="57.173">
   <stop id="stop4596" offset="0"/>
   <stop id="stop4598" style="stop-opacity:0" offset="1"/>
  </linearGradient>
  <linearGradient id="linearGradient3519" y2="50.369" gradientUnits="userSpaceOnUse" x2="76.558" gradientTransform="matrix(.96826 0 0 .97948 3.2423 -129.19)" y1="13.164" x1="76.558">
   <stop id="stop3392" style="stop-color:#425e7b" offset="0"/>
   <stop id="stop3394" style="stop-color:#7a91a7" offset="1"/>
  </linearGradient>
  <linearGradient id="linearGradient3521" y2="-8.7399" gradientUnits="userSpaceOnUse" x2="60.217" gradientTransform="matrix(.96826 0 0 .97948 2.179 .16587)" y1="-123.72" x1="60.395">
   <stop id="stop3392-4-8" style="stop-color:#425e7b" offset="0"/>
   <stop id="stop3394-8-0" style="stop-color:#7a91a7" offset="1"/>
  </linearGradient>
  <linearGradient id="linearGradient4192" y2="31.742" gradientUnits="userSpaceOnUse" x2="121.11" y1="31.742" x1="6.5334">
   <stop id="stop4188" style="stop-color:#fff" offset="0"/>
   <stop id="stop4190" style="stop-color:#fff;stop-opacity:0" offset="1"/>
  </linearGradient>
  <linearGradient id="linearGradient11577" y2="8.1" gradientUnits="userSpaceOnUse" y1="6.1438" x2="19.387" x1="19.49">
   <stop id="stop10999-9-0" offset="0"/>
   <stop id="stop11001-6-1" style="stop-opacity:0" offset="1"/>
  </linearGradient>
  <filter id="filter3198-5" color-interpolation-filters="sRGB" width="1.1734" y="-.10752" x="-.086712" height="1.215">
   <feGaussianBlur id="feGaussianBlur3200-3" stdDeviation="0.71710775"/>
  </filter>
  <linearGradient id="linearGradient6921" y2="5.4565" gradientUnits="userSpaceOnUse" x2="36.358" gradientTransform="matrix(0 3.8171 -6.1772 0 129.98 -37.908)" y1="8.059" x1="32.892">
   <stop id="stop8591-7-2-1" style="stop-color:#fefefe" offset="0"/>
   <stop id="stop8593-2-4-5" style="stop-color:#cbcbcb" offset="1"/>
  </linearGradient>
  <radialGradient id="radialGradient6925" gradientUnits="userSpaceOnUse" cy="-16.639" cx="2.6083" gradientTransform="matrix(-5.7453 2.452e-7 -2.5955e-7 -6.0905 124.78 -36.865)" r="23">
   <stop id="stop5983" style="stop-color:#108ae5" offset="0"/>
   <stop id="stop5985" style="stop-color:#0156b6" offset="1"/>
  </radialGradient>
  <style id="style1246" type="text/css">.fil0 {fill:#1F1A17}</style>
  <style id="style1115" type="text/css">.fil0 {fill:#1F1A17}</style>
  <style id="style1246-3" type="text/css">.fil0 {fill:#1F1A17}</style>
  <style id="style1115-1" type="text/css">.fil0 {fill:#1F1A17}</style>
  <style id="style1246-0" type="text/css">.fil0 {fill:#1F1A17}</style>
  <style id="style1115-7" type="text/css">.fil0 {fill:#1F1A17}</style>
  <style id="style1246-9" type="text/css">.fil0 {fill:#1F1A17}</style>
  <style id="style1115-3" type="text/css">.fil0 {fill:#1F1A17}</style>
  <style id="style874" type="text/css">.fil0 {fill:#1F1A17}</style>
  <style id="style874-7" type="text/css">.fil0 {fill:#1F1A17}</style>
  <style id="style874-2" type="text/css">.fil0 {fill:#1F1A17}</style>
  <style id="style874-1" type="text/css">.fil0 {fill:#1F1A17}</style>
  <linearGradient id="linearGradient19733-5" y2="9" gradientUnits="userSpaceOnUse" x2="26.265" gradientTransform="matrix(2.6667 0 0 2.6667 -102.03 -107.67)" y1="39" x1="26.265">
   <stop id="stop4374-9" style="stop-color:#cdd1eb" offset="0"/>
   <stop id="stop4376-1" style="stop-color:#f7f8fd" offset="1"/>
  </linearGradient>
 </defs>
 <rect id="rect892-2-7-1" style="opacity:.15891;stroke:#000;stroke-width:7.7512;fill:none" transform="scale(1,-1)" ry="28.993" height="114.35" width="114.22" y="-121.16" x="6.8687"/>
 <rect id="rect892-2-7-2" ry="29.452" style="stroke:#d3d3d3;stroke-width:9.8448;fill:#37414b" transform="scale(1,-1)" height="116.16" width="116.08" y="-122.08" x="5.9224"/>
 <rect id="rect892" style="stroke:url(#linearGradient3521);stroke-width:.97385;fill:url(#linearGradient3519)" transform="scale(1,-1)" ry="29.296" height="115.54" width="114.22" y="-122.25" x="7.0394"/>
 <rect id="rect892-2" style="stroke:url(#linearGradient3516);stroke-width:.97385;fill:url(#linearGradient3514)" transform="scale(1,-1)" ry="28.993" height="114.35" width="114.22" y="-121.46" x="7.0599"/>
 <path id="path4159-5" style="stroke:url(#linearGradient4192);stroke-width:1px;fill:none" d="m7.0334 31.742h113.58z"/>
 <path id="path4322" d="m120.09 74.559c-1.82 3.831-41.638 40.371-56.018 45.741-66.185 6.38-58.724-19.48-56.838-84.917 4.797-34.382 28.284-28.298 90.407-27.48 28.999 8.074 22.189 27.125 22.449 66.656z" style="fill-rule:evenodd;fill:url(#radialGradient6925)"/>
 <rect id="rect892-2-7-8" style="opacity:.15891;stroke:#000;stroke-width:4.8445;fill:none" transform="scale(1,-1)" ry="28.993" height="114.35" width="114.22" y="-121.16" x="6.8687"/>
 <rect id="rect892-2-7-2-9" ry="28.067" style="stroke:#000;stroke-width:1.0489;fill:none" transform="scale(1,-1)" height="112.71" width="114.14" y="-120.31" x="7.0649"/>
 <g id="g17906" transform="matrix(2.3438 0 0 2.2539 224.79 41.695)"></g>
 <g id="g19741" transform="matrix(.81 0 0 .81 94.112 98.189)">
  <path id="path4292" style="fill-opacity:.058824" d="m-78.029-80.474v37.333h37.333v-37.333h-37.333zm42.667 0v37.333h37.333v-37.333h-37.333zm-42.667 42.667v37.333h37.333v-37.333h-37.333zm42.667 0v37.333h37.333v-37.333h-37.333z"/>
  <path id="path4290" style="fill-opacity:.11765" d="m-78.029-81.54v37.333h37.333v-37.333h-37.333zm42.667 0v37.333h37.333v-37.333h-37.333zm-42.667 42.667v37.333h37.333v-37.333h-37.333zm42.667 0v37.333h37.333v-37.333h-37.333z"/>
  <path id="path4286" style="fill-opacity:.23529" d="m-78.029-82.607v37.333h37.333v-37.333h-37.333zm42.667 0v37.333h37.333v-37.333h-37.333zm-42.667 42.667v37.333h37.333v-37.333h-37.333zm42.667 0v37.333h37.333v-37.333h-37.333z"/>
  <path id="rect4269" style="fill:url(#linearGradient19733-5)" d="m-78.029-83.674v37.333h37.333v-37.333h-37.333zm42.667 0v37.333h37.333v-37.333h-37.333zm-42.667 42.667v37.333h37.333v-37.333h-37.333zm42.667 0v37.333h37.333v-37.333h-37.333z"/>
  <path id="path4294" style="fill:#5666c2;fill-opacity:.31373" d="m-78.029-48.476v2.1354h37.333v-2.1354h-37.333zm42.667 0v2.1354h37.333v-2.1354h-37.333zm-42.667 42.667v2.1354h37.333v-2.1354h-37.333zm42.667 0v2.1354h37.333v-2.1354h-37.333z"/>
  <path id="path4299" style="fill:#5666c2;fill-opacity:.31373" d="m-78.029-48.476v2.1354h37.333v-2.1354h-37.333zm42.667 0v2.1354h37.333v-2.1354h-37.333zm-42.667 42.667v2.1354h37.333v-2.1354h-37.333zm42.667 0v2.1354h37.333v-2.1354h-37.333z"/>
  <path id="path4304" style="fill:#fff;fill-opacity:.23529" d="m-78.029-83.674v1.0677h37.333v-1.0677h-37.333zm42.667 0v1.0677h37.333v-1.0677h-37.333zm-42.667 42.667v1.0677h37.333v-1.0677h-37.333zm42.667 0v1.0677h37.333v-1.0677h-37.333z"/>
 </g>
 <path id="path4891" d="m25.685 5.7862c3.6386-0.3502 2.8432 14.02 2.8432 14.02s16.093-0.84846 16.525 1.9543c3.85-3.268-16.654-16.76-19.368-15.974z" style="opacity:.3;fill-rule:evenodd;filter:url(#filter3198-5)" transform="matrix(0 2.6586 -4.0239 0 144.6 .66614)"/>
 <path id="path4893" d="m120.42 71.909c-2.6379 9.487-48.941 8.4899-48.941 8.4899s3.0553 39.005-10.575 39.949c8.02 2.4523 48.56-28.337 57.689-43.48 1.1729-1.9458 1.8272-3.6334 1.8272-4.9589z" style="fill:url(#linearGradient6921);fill-rule:evenodd"/>
 <text id="text818" style="font-size:106.67px;font-weight:bold;letter-spacing:0px;line-height:125%;word-spacing:0px;font-family:Impact;fill:#1a1a1a" xml:space="preserve" y="-121.81864" x="-151.23553"><tspan id="tspan820" x="-151.23553" y="-121.81864"/></text>
 <flowRoot id="flowRoot1042" xml:space="preserve" style="font-size:40px;font-weight:bold;letter-spacing:0px;line-height:125%;word-spacing:0px;font-family:Impact;fill:#000000" transform="matrix(2.6667 0 0 2.6667 -72.768 -124.74)"><flowRegion id="flowRegion1044"><rect id="rect1046" y="2.1071" width="70.179" x="-79.821" height="63.571"/></flowRegion><flowPara id="flowPara1048">\documentclass[12pt]{article}</flowPara><flowPara id="flowPara1050"/></flowRoot>
 <flowRoot id="flowRoot4913" xml:space="preserve" style="font-size:40px;letter-spacing:0px;word-spacing:0px;font-family:sans-serif;line-height:125%;fill:#000000" transform="matrix(2.6667 0 0 2.6667 -1298.5 -1143)"><flowRegion id="flowRegion4915"><rect id="rect4917" y="-275.85" width="199.4" x="134.35" height="189.5"/></flowRegion><flowPara id="flowPara4919"/></flowRoot>
</svg>
