<?xml version="1.0" encoding="UTF-8" standalone="no"?>
<!-- Created with Inkscape (http://www.inkscape.org/) -->
<svg id="svg3449" xmlns:rdf="http://www.w3.org/1999/02/22-rdf-syntax-ns#" xmlns="http://www.w3.org/2000/svg" height="128" width="128" version="1.0" xmlns:cc="http://creativecommons.org/ns#" xmlns:xlink="http://www.w3.org/1999/xlink" xmlns:dc="http://purl.org/dc/elements/1.1/">
 <metadata id="metadata56">
  <rdf:RDF>
   <cc:Work rdf:about="">
    <dc:format>image/svg+xml</dc:format>
    <dc:type rdf:resource="http://purl.org/dc/dcmitype/StillImage"/>
    <dc:title/>
   </cc:Work>
  </rdf:RDF>
 </metadata>
 <defs id="defs3451">
  <linearGradient id="linearGradient3514" y2="-9.1034" gradientUnits="userSpaceOnUse" x2="66.492" gradientTransform="matrix(.96826 0 0 .97948 2.179 .16587)" y1="-42.638" x1="67.952">
   <stop id="stop4620" style="stop-color:#37414b" offset="0"/>
   <stop id="stop4622" style="stop-color:#37414b;stop-opacity:0" offset="1"/>
  </linearGradient>
  <linearGradient id="linearGradient3516" y2="-11.847" gradientUnits="userSpaceOnUse" x2="58.98" gradientTransform="matrix(.96826 0 0 .97948 2.179 .16587)" y1="-118.55" x1="57.173">
   <stop id="stop4596" offset="0"/>
   <stop id="stop4598" style="stop-opacity:0" offset="1"/>
  </linearGradient>
  <linearGradient id="linearGradient3519" y2="50.369" gradientUnits="userSpaceOnUse" x2="76.558" gradientTransform="matrix(.96826 0 0 .97948 3.2423 -129.19)" y1="13.164" x1="76.558">
   <stop id="stop3392" style="stop-color:#425e7b" offset="0"/>
   <stop id="stop3394" style="stop-color:#7a91a7" offset="1"/>
  </linearGradient>
  <linearGradient id="linearGradient3521" y2="-8.7399" gradientUnits="userSpaceOnUse" x2="60.217" gradientTransform="matrix(.96826 0 0 .97948 2.179 .16587)" y1="-123.72" x1="60.395">
   <stop id="stop3392-4-8" style="stop-color:#425e7b" offset="0"/>
   <stop id="stop3394-8-0" style="stop-color:#7a91a7" offset="1"/>
  </linearGradient>
  <linearGradient id="linearGradient4192" y2="31.742" gradientUnits="userSpaceOnUse" x2="121.11" y1="31.742" x1="6.5334">
   <stop id="stop4188" style="stop-color:#fff" offset="0"/>
   <stop id="stop4190" style="stop-color:#fff;stop-opacity:0" offset="1"/>
  </linearGradient>
  <linearGradient id="linearGradient11577" y2="8.1" gradientUnits="userSpaceOnUse" y1="6.1438" x2="19.387" x1="19.49">
   <stop id="stop10999-9-0" offset="0"/>
   <stop id="stop11001-6-1" style="stop-opacity:0" offset="1"/>
  </linearGradient>
  <radialGradient id="radialGradient3382-9" gradientUnits="userSpaceOnUse" cy="-16.639" cx="2.6083" gradientTransform="matrix(9.2228e-8 1.4278 -2.2909 6.4501e-8 -14.117 4.9249)" r="23">
   <stop id="stop6546-7-5" style="stop-color:#f0f0f0" offset="0"/>
   <stop id="stop6548-9-0" style="stop-color:#d2d2d2" offset="1"/>
  </radialGradient>
  <style id="style1246" type="text/css">.fil0 {fill:#1F1A17}</style>
  <style id="style1115" type="text/css">.fil0 {fill:#1F1A17}</style>
  <linearGradient id="linearGradient4161-1" y2="2" gradientUnits="userSpaceOnUse" x2="16" gradientTransform="matrix(1.5002 0 0 1.5002 -.04086 -.01016)" y1="30" x1="16">
   <stop id="stop4292" style="stop-color:#7cbaf8" offset="0"/>
   <stop id="stop4294" style="stop-color:#f4fcff" offset="1"/>
  </linearGradient>
  <linearGradient id="linearGradient4174" y2="503.8" gradientUnits="userSpaceOnUse" y1="543.8" x2="409.57" x1="409.57">
   <stop id="stop4145" style="stop-color:#197cf1" offset="0"/>
   <stop id="stop4147" style="stop-color:#20bcfa" offset="1"/>
  </linearGradient>
 </defs>
 <rect id="rect892-2-7-1" style="opacity:.15891;stroke:#000;stroke-width:7.7512;fill:none" transform="scale(1,-1)" ry="28.993" height="114.35" width="114.22" y="-121.16" x="6.8687"/>
 <rect id="rect892-2-7-2" ry="29.452" style="stroke:#d3d3d3;stroke-width:9.8448;fill:#37414b" transform="scale(1,-1)" height="116.16" width="116.08" y="-122.08" x="5.9224"/>
 <rect id="rect892" style="stroke:url(#linearGradient3521);stroke-width:.97385;fill:url(#linearGradient3519)" transform="scale(1,-1)" ry="29.296" height="115.54" width="114.22" y="-122.25" x="7.0394"/>
 <rect id="rect892-2" style="stroke:url(#linearGradient3516);stroke-width:.97385;fill:url(#linearGradient3514)" transform="scale(1,-1)" ry="28.993" height="114.35" width="114.22" y="-121.46" x="7.0599"/>
 <path id="path4159-5" style="stroke:url(#linearGradient4192);stroke-width:1px;fill:none" d="m7.0334 31.742h113.58z"/>
 <g id="g14613" transform="matrix(0 2.6832 -2.7101 0 126.94 .046408)">
  <g id="layer1-7" transform="matrix(.99081 0 0 1.4848 .23097 -6.5159)">
   <path id="path4322" d="m27.794 5.7425c12.14 0.0144 14.403 0.8397 17.099 5.7745 0.323 2.66 0.151 5.345 0.107 8.495 1.652 17.048-7.327 14.594-31.941 14.125-12.933-1.192-10.645-7.029-10.337-22.467 3.0371-7.2073 10.203-5.863 25.072-5.9275z" style="fill-rule:evenodd;fill:url(#radialGradient3382-9)"/>
  </g>
 </g>
 <rect id="rect892-2-7-8" style="opacity:.15891;stroke:#000;stroke-width:4.8445;fill:none" transform="scale(1,-1)" ry="28.993" height="114.35" width="114.22" y="-121.16" x="6.8687"/>
 <rect id="rect892-2-7-2-9" ry="28.067" style="stroke:#000;stroke-width:1.0489;fill:none" transform="scale(1,-1)" height="112.71" width="114.14" y="-120.31" x="7.0649"/>
 <g id="g17906" transform="matrix(2.3438 0 0 2.2539 224.79 41.695)"></g>
 <g id="layer1-0" transform="matrix(2 0 0 2 -753.14 -983.6)">
  <rect id="rect4166" style="fill:url(#linearGradient4174)" ry="20" height="40" width="40" y="503.8" x="388.57"/>
  <path id="path34-7" d="m24 4c-2.5226 0-4.9237 0.48122-7.1426 1.3262-0.16143 0.14834-0.3711 0.26219-0.53711 0.24805-0.02255-0.00193-0.04545-0.017001-0.06836-0.025391-1.0938 0.45762-2.1313 1.0183-3.1152 1.6543 0.12791 0.20751 0.16585 0.43855-0.09766 0.55078-0.04417 0.019165-0.60057 0.075069-0.79492 0.070313-2.7978 2.0329-5.0421 4.7671-6.4766 7.959 0.022881-0.0032 0.042855-0.01405 0.066406-0.01563 0.21773-0.003 0.53112 0.05953 0.74023 0.10352 0.19298 0.0397 0.34862 0.16907 0.51562 0.18164 0.47392 0.036 0.58792-0.33256 0.97461-0.53906 0.39949 0.0565 0.66459-0.06764 1.0254-0.02734 0.24594 0.0272 0.42359 0.28998 0.61523 0.30469 0.16123 0.0164 0.30298-0.15083 0.45898-0.12695 0.15156 0.0233 0.41285 0.35384 0.4375 0.53906 0.0312 0.23055-0.1696 0.43818-0.10352 0.69141 0.24149 0.24597 0.68031 0.2958 1.0254 0.4375 0.22474-0.18518 0.0297-0.52882 0-0.79688-0.003-0.11796 0.0164-0.22329 0-0.33203-0.021-0.1846-0.10009-0.35373-0.10156-0.51172-0.003-0.72971 0.58866-1.0712 1.0781-1.3594 0.21186-0.12562 0.37868-0.34557 0.5625-0.4375 0.25963-0.1302 0.453-0.16047 0.66797-0.28125 0.38847-0.21821 0.72166-0.39336 1.0254-0.64062 0.14043-0.33087 0.01389-0.77455 0.02539-1.1016 0.14054-0.0861 0.2612 0.03709 0.41016 0.02539 0.23444-0.0487 0.25389-0.37963 0.38672-0.51172 0.0774-0.0757 0.28883-0.12993 0.38477-0.20508 0.23359-0.18328 0.30964-0.46009 0.51367-0.53906 0.0732-0.0296 0.24208-0.02153 0.35742-0.05273 0.15185-0.0402 0.36792-0.21992 0.61524-0.30469 0.16124-0.0564 0.53027-0.06723 0.5918-0.12891 0.0757-0.0774-0.0014-0.29436 0.02539-0.41016 0.1243-0.57888 0.99632-0.70158 1.5117-0.89648 0.36127-0.13693 0.73198-0.38751 1.1289-0.31055-0.0777 0.27511-0.44746 0.17765-0.38476 0.51172 0.0864 0.46362 0.70735-0.13285 0.87109-0.20117 0.31287-0.13189 0.84929-0.2124 1.2598-0.36133 0.35994-0.13189 1.0053-0.33243 0.66602-0.74414-0.28293-0.0164-0.41938 0.33205-0.66602 0.4375-0.17029 0.0272-0.13787-0.14256-0.2832-0.15625-0.13819-0.0164-0.21549 0.12749-0.35742 0.10352-0.139-0.0232-0.337-0.2451-0.359-0.4101-0.056-0.4281 0.362-0.6046 0.539-0.9238-0.117-0.3873-0.653-0.079-0.976-0.2305 0.0311-0.23053 0.26977-0.38951 0.53906-0.43359 0.22076-0.0374 0.7162-0.018291 0.84766 0.099609 0.0759 0.0648 0.0041 0.22646 0.12891 0.33398 0.13061 0.11798 0.29135 0.10582 0.46094 0.078125 0.0612-0.29219-0.37994-0.21891-0.33203-0.41211 0.3464-0.2266 0.9099-0.040526 1.334-0.10352 0.24414-0.036 0.50046-0.20834 0.7168-0.33008 0.20576-0.11724 0.47312-0.32067 0.69141-0.12891 0.0591 0.20943-0.19009 0.27872-0.30664 0.38281-0.39238 0.34905-0.79657 0.74891-1.1016 1.1543 0.18713 0.1825 0.52717 0.091056 0.84375 0.12891 0.12378 0.0164 0.27929 0.053072 0.41016 0.076172 0.15284 0.0272 0.31583 0.019581 0.43555 0.050781 0.2154 0.0528 0.27306 0.2832 0.48633 0.2832 0.35083-0.00063 0.355-0.38012 0.15625-0.61719 0.0628-0.24203 0.16115-0.36756 0.07617-0.53711-0.15802-0.31608-0.73778-0.016356-0.76758-0.41016-0.019-0.25568 0.21393-0.24426 0.30664-0.43555-0.0421-0.49404 0.40522-0.52984 0.35742-0.97266-0.021-0.18522-0.17695-0.18778-0.30664-0.36133-0.06493-0.085382-0.09884-0.24885-0.17383-0.32226-0.599-0.0534-1.204-0.0859-1.817-0.0859zm-10.32 4.0352h0.002c0.11941 0.01727 0.26358 0.14528 0.4082 0.15625 0.13692 0.003 0.24973-0.075434 0.33398-0.052734 0.21442 0.0565 0.30486 0.38034 0.10352 0.53906-0.16767 0.021-0.233-0.072681-0.35938-0.050781-0.34829 0.0591-0.4819 0.74132-0.74219 0.71875-0.24546-0.021-0.37831-0.61884-0.12891-0.79688 0.0164-0.15544-0.11343-0.18039-0.10547-0.33398 0.07366-0.094494 0.28427-0.19612 0.48828-0.17969zm-1.1543 0.080078c0.0714 0.002 0.12506 0.019581 0.15234 0.050781-0.0339 0.27332-0.24792 0.25541-0.45898 0.38281-0.3646 0.22005-0.57539 0.55534-0.69141 1.0254-0.0336 0.13694-0.3929 0.49915-0.56641 0.46289-0.40664-0.0858 0.11219-0.8353 0.20508-0.94922 0.10258-0.12628 0.24041-0.23701 0.36133-0.38281 0.11726-0.14118 0.19365-0.3318 0.30664-0.41016 0.1238-0.0858 0.4772-0.18791 0.69141-0.17969zm3.0352 0.92188c0.13025 0.002 0.24734 0.023472 0.30078 0.076172-0.0837 0.33865-0.81328 0.24923-1.0801 0.12695 0.0172-0.1277 0.21691-0.16286 0.38477-0.17969 0.11798-0.003 0.26451-0.027337 0.39453-0.023437zm-1.6602 0.625c0.0864-0.002 0.17458 0.016816 0.26562 0.041016-0.23601 0.19742-0.49122 0.30926-0.89648 0.4375-0.19486 0.0614-0.5314 0.13783-0.56445-0.08008-0.0402-0.26672 0.28496-0.20466 0.46289-0.22852 0.22401-0.0311 0.46998-0.16152 0.73242-0.16992zm25.469 1.5195c-0.03016 0.07259-0.0524 0.14451-0.04883 0.21484 0.0164 0.12375 0.15137 0.24277 0.18164 0.41016 0.0164 0.0886-0.0417 0.28042 0 0.36133 0.12347 0.23947 0.4466 0.0672 0.67774 0.08008-0.26258-0.36158-0.52484-0.7238-0.81055-1.0664zm1.3105 1.7637c-0.0366 0.17668-0.15686 0.40713-0.25391 0.55469-0.22352 0.33997-0.52713 0.35583-0.84766 0.53711-0.26731 0.15154-0.38236 0.4044-0.53906 0.66797-0.16978 0.2847-0.275 0.45668-0.20508 0.86914-0.22914 0.45453-0.57609 0.733-1.0508 0.94922-0.14043 0.0633-0.33212 0.08658-0.46094 0.17969-0.10259 0.0737-0.1609 0.27179-0.30664 0.43555-0.17985 0.20013-0.36835 0.28459-0.46289 0.4375-0.0732 0.11798-0.09912 0.35315-0.17969 0.51172-0.10942 0.21537-0.34261 0.32086-0.48633 0.53906-0.0654 0.10091-0.10918 0.30536-0.18164 0.4375-0.16242 0.29523-0.43998 0.50793-0.41016 0.76758 0.0296 0.25093 0.31453 0.29492 0.33398 0.51367 0.003 0.12365-0.08167 0.19921-0.07617 0.33398 0.003 0.19676 0.13679 0.33492 0.15234 0.48633 0.0381 0.38071-0.1295 0.53264-0.20117 0.79297-0.0339 0.1243-0.01953 0.26422-0.05273 0.36133-0.0628 0.19059-0.32874 0.36257-0.33398 0.58789-0.002 0.16012 0.16423 0.28889 0.17773 0.51367 0.003 0.15495-0.07613 0.32041-0.04883 0.46289 0.0545 0.27904 0.55264 0.60352 0.76953 0.82031 0.2901 0.29011 0.66988 0.51466 0.79492 0.82031 0.10534 0.25958 0.10436 0.59734 0.30664 0.79297 0.14958 0.14446 0.39825 0.23451 0.58984 0.38477 0.17869 0.14026 0.37342 0.26133 0.56445 0.41016 0.3121 0.24416 0.784 0.73088 1.2812 0.69336 0.25966-0.019 0.52577-0.23089 0.82031-0.2832 0.30301-0.0543 0.69624-0.08228 1.002-0.05078 0.23415 0.0233 0.47534 0.16353 0.71875 0.15234 0.257-0.0164 0.5517-0.20641 0.84375-0.33398 0.23496-0.10227 0.52331-0.2156 0.83984-0.29883 0.145-0.975 0.223-1.975 0.223-2.992 0-4.095-1.225-7.891-3.32-11.055zm-33.078 6.72c-0.42597 0.0233-0.70512 0.04267-0.94727 0.15234-0.55488 0.2525-0.44762 1.0023-1.002 1.1797-0.19173 0.0612-0.45496 0.06423-0.66602 0.10352-0.18217 0.0333-0.40408 0.13288-0.5918 0.12891-0.052541-0.00071-0.12596-0.03984-0.19141-0.06055-0.049402 0.35161-0.090087 0.7071-0.12109 1.0645 0.52737 0.10105 0.79952 0.8 1.2656 1.0312 0.1277 0.0633 0.29458 0.06663 0.45898 0.10352 0.13272 0.0296 0.23347 0.08583 0.36133 0.12891 0.27121 0.0921 0.60339 0.08101 0.82031 0.17773 0.3269 0.14507 0.56655 0.75938 0.84766 0.92383 0.0164 0.16571-0.032209 0.38817 0.025391 0.51172 0.13275 0.18008 0.32028 0.14039 0.53906 0.25781 0.26172 0.14119 0.3418 0.50576 0.58984 0.61719 0.0857 0.038 0.30027 0.03312 0.43555 0.07422 0.3399 0.1029 0.45087 0.49611 0.74219 0.41016 0.1911-0.0564 0.17608-0.25289 0.20703-0.43555 0.12627-0.13693 0.26407-0.35358 0.46094-0.35742 0.31861-0.0164 0.34697 0.32922 0.46289 0.63867 0.0653 0.17486 0.23657 0.32727 0.28125 0.51172 0.0795 0.31864 0.03986 1.2724-0.02734 1.4629-0.0801 0.23364-0.39676 0.33275-0.5918 0.5918-0.0921 0.12146-0.13579 0.2994-0.20508 0.38477-0.1256 0.15284-0.31228 0.1929-0.40625 0.33398-0.0529 0.0795-0.10442 0.25001-0.15625 0.35742-0.15401 0.32628-0.36 0.55748-0.23047 0.94922 0.0543 0.16124 0.30601 0.26922 0.30664 0.45898 0.0007 0.22326-0.47489 0.42318-0.51172 0.66797-0.0272 0.1821 0.14731 0.50716 0.20508 0.74414 0.0423 0.17909 0.38076 0.29103 0.48633 0.41016 0.18 0.20209 0.32384 0.48837 0.48828 0.74219 0.32515 0.49924 0.57991 1.1081 0.89648 1.5918 0.16731 0.25335 0.4022 0.48115 0.51367 0.74414 0.0569 0.13272 0.04907 0.2909 0.10156 0.41016 0.18327 0.41362 0.99253 0.84547 1.4102 1.0508 0.19551 0.0949 0.41239 0.12916 0.5918 0.22852 0.27175 0.15155 0.81008 0.55858 0.94727 0.79688 0.12218 0.21419 0.19837 0.73556 0.25781 1.0762 0.0795 0.45011 0.000891 0.79571 0.02539 1.2832 0.0164 0.2636 0.10072 0.5287 0.10352 0.79297 0.001 0.0925-0.04863 0.16141-0.05273 0.25586-0.000147 0.01563 0.0037 0.03302 0.0039 0.04883 2.519 1.14 5.31 1.789 8.264 1.789 0.53368 0 1.0611-0.02773 1.584-0.06836 0.02279-0.03939 0.04401-0.08021 0.07227-0.11719 0.12032-0.158 0.22724-0.2964 0.30664-0.43555 0.0757-0.46819-0.18671-0.79525-0.07617-1.2051 0.12242-0.46037 0.75894-0.74152 1.2051-0.94922 0.15347-0.0713 0.31056-0.18708 0.43555-0.23047 0.30876-0.10744 0.69425-0.04937 0.97656-0.15234 0.48044-0.17582 0.53064-0.69118 0.76758-1.1289 0.11166-0.2073 0.25934-0.41486 0.28125-0.5625 0.019-0.13273-0.04864-0.25757-0.02734-0.41406 0.0233-0.15495 0.1621-0.28879 0.20508-0.45898 0.0564-0.22211 0.08008-0.5475 0.08008-0.79492 0-0.20307-0.09503-0.38126-0.10352-0.56445-0.0333-0.66512 0.24023-0.73957 0.48633-1.1016 0.12353-0.17982 0.16968-0.3848 0.25586-0.51367 0.41313-0.61638 1.13-0.91395 1.0781-1.8457-0.0172-0.30832-0.21068-1.0051-0.4375-1.1035-0.12981-0.0565-0.42752-0.0032-0.61524-0.07617-0.6061-0.2261-0.96184-0.97741-1.5898-1.0254-0.13414-0.0164-0.25726 0.05503-0.4082 0.05273-0.24859-0.0164-0.62324-0.17411-0.89844-0.20508-0.17485-0.019-0.40869 0.0521-0.51367 0-0.1601-0.0778-0.1764-0.37296-0.30664-0.46094-0.10321-0.0711-0.30431-0.09556-0.46094-0.15625-0.25253-0.097-0.45276-0.21017-0.74414-0.23047-0.09-0.003-0.20195 0.04324-0.30664 0.02734-0.16124-0.0272-0.28873-0.21805-0.4375-0.30859-0.18632-0.11341-0.35851-0.16829-0.43555-0.33008 0.16839-0.55233-0.29694-0.70627-0.41016-1.0254-0.0543-0.14954-0.02917-0.32949-0.07617-0.46289-0.0669-0.19109-0.25579-0.30153-0.46289-0.46094-0.37106-0.28558-0.70018-0.55373-1.2305-0.61914-0.23314-0.0296-0.46444 0.06983-0.74609 0.05273-0.29849-0.019-0.6732-0.27998-0.89648-0.53516-0.21704-0.24912-0.32263-0.47271-0.51172-0.5918-0.17912-0.11515-0.41675-0.11184-0.53906-0.22852-0.0545-0.0507-0.04513-0.13801-0.10352-0.25781-0.0901-0.18652-0.24125-0.29019-0.12891-0.51367-0.20432-0.105-0.20999 0.19501-0.43359 0.15625-0.19932-0.28292-0.36768-0.41696-0.82031-0.33398-0.20727 0.0381-0.32293 0.30013-0.56445 0.30664-0.19806 0.0164-0.35364-0.22065-0.61524-0.25781-0.19744-0.0272-0.42195 0.05364-0.5625 0.02734-0.21886-0.0438-0.28641-0.22595-0.48633-0.35742-0.14659-0.0964-0.43144-0.26043-0.51367-0.25781-0.25774 0.0164-0.44142 0.54774-0.79688 0.35938-0.17273-0.21889 0.28138-0.33425 0.07617-0.53906-0.15542-0.15542-0.28591 0.07034-0.41016 0.15625-0.14239 0.0984-0.27622 0.19567-0.43359 0.25391-0.35224 0.13188-0.57238 0.06279-0.84766 0.20508-0.25489 0.13203-0.26573 0.35292-0.41016 0.61523-0.11798 0.2149-0.38703 0.52805-0.56445 0.54102-0.21491 0.0164-0.4203-0.30048-0.61524-0.38477-0.58724-0.25437-0.87174 0.22589-1.3594 0.23242-0.45256 0.0164-1.0989-0.73077-1.0762-1.1562 0.003-0.25962 0.14931-0.65345 0.17969-0.97461 0.0272-0.25544 0.20214-0.40942 0.20508-0.64258 0.003-0.31146-0.41316-0.55094-0.61523-0.58789-0.4791-0.0881-1.1443 0.19275-1.6934-0.02734-0.105-0.17378 0.12278-0.29385 0.18164-0.46289 0.0333-0.0962 0.014028-0.22438 0.048828-0.33008 0.0609-0.16331 0.23201-0.28986 0.30859-0.46289 0.0571-0.13204 0.071446-0.3225 0.12891-0.48633 0.0669-0.18654 0.19066-0.30667 0.20508-0.4375 0.019-0.17274-0.046291-0.37242-0.18164-0.48633zm6.8555 5.4277c0.17381 0.0164 0.19557 0.37541 0.01758 0.4043-0.19174 0.0297-0.2892-0.30072-0.10352-0.38672 0.0312-0.0164 0.06164-0.01742 0.08594-0.01563v-0.002z" style="fill:url(#linearGradient4161-1)" transform="translate(384.57 499.8)"/>
  <path id="rect4775" d="m4.0117 23.5c-0.0041 0.167-0.0117 0.332-0.0117 0.5 0 11.08 8.92 20 20 20s20-8.92 20-20c0-0.168-0.008-0.333-0.012-0.5-0.264 10.847-9.076 19.5-19.988 19.5s-19.724-8.653-19.988-19.5z" style="fill:#0c69cf" transform="translate(384.57 499.8)"/>
 </g>
</svg>
