<?xml version="1.0" encoding="UTF-8" standalone="no"?>
<!-- Created with Inkscape (http://www.inkscape.org/) -->
<svg id="svg3449" xmlns:rdf="http://www.w3.org/1999/02/22-rdf-syntax-ns#" xmlns="http://www.w3.org/2000/svg" height="128" width="128" version="1.0" xmlns:cc="http://creativecommons.org/ns#" xmlns:xlink="http://www.w3.org/1999/xlink" xmlns:dc="http://purl.org/dc/elements/1.1/">
 <metadata id="metadata56">
  <rdf:RDF>
   <cc:Work rdf:about="">
    <dc:format>image/svg+xml</dc:format>
    <dc:type rdf:resource="http://purl.org/dc/dcmitype/StillImage"/>
    <dc:title/>
   </cc:Work>
  </rdf:RDF>
 </metadata>
 <defs id="defs3451">
  <linearGradient id="linearGradient3514" y2="-9.1034" gradientUnits="userSpaceOnUse" x2="66.492" gradientTransform="matrix(.96826 0 0 .97948 2.179 .16587)" y1="-42.638" x1="67.952">
   <stop id="stop4620" style="stop-color:#37414b" offset="0"/>
   <stop id="stop4622" style="stop-color:#37414b;stop-opacity:0" offset="1"/>
  </linearGradient>
  <linearGradient id="linearGradient3516" y2="-11.847" gradientUnits="userSpaceOnUse" x2="58.98" gradientTransform="matrix(.96826 0 0 .97948 2.179 .16587)" y1="-118.55" x1="57.173">
   <stop id="stop4596" offset="0"/>
   <stop id="stop4598" style="stop-opacity:0" offset="1"/>
  </linearGradient>
  <linearGradient id="linearGradient3519" y2="50.369" gradientUnits="userSpaceOnUse" x2="76.558" gradientTransform="matrix(.96826 0 0 .97948 3.2423 -129.19)" y1="13.164" x1="76.558">
   <stop id="stop3392" style="stop-color:#425e7b" offset="0"/>
   <stop id="stop3394" style="stop-color:#7a91a7" offset="1"/>
  </linearGradient>
  <linearGradient id="linearGradient3521" y2="-8.7399" gradientUnits="userSpaceOnUse" x2="60.217" gradientTransform="matrix(.96826 0 0 .97948 2.179 .16587)" y1="-123.72" x1="60.395">
   <stop id="stop3392-4-8" style="stop-color:#425e7b" offset="0"/>
   <stop id="stop3394-8-0" style="stop-color:#7a91a7" offset="1"/>
  </linearGradient>
  <linearGradient id="linearGradient4192" y2="31.742" gradientUnits="userSpaceOnUse" x2="121.11" y1="31.742" x1="6.5334">
   <stop id="stop4188" style="stop-color:#fff" offset="0"/>
   <stop id="stop4190" style="stop-color:#fff;stop-opacity:0" offset="1"/>
  </linearGradient>
  <linearGradient id="linearGradient11577" y2="8.1" gradientUnits="userSpaceOnUse" y1="6.1438" x2="19.387" x1="19.49">
   <stop id="stop10999-9-0" offset="0"/>
   <stop id="stop11001-6-1" style="stop-opacity:0" offset="1"/>
  </linearGradient>
  <filter id="filter3198-5" color-interpolation-filters="sRGB" width="1.1734" y="-.10752" x="-.086712" height="1.215">
   <feGaussianBlur id="feGaussianBlur3200-3" stdDeviation="0.71710775"/>
  </filter>
  <linearGradient id="linearGradient6921" y2="5.4565" gradientUnits="userSpaceOnUse" x2="36.358" gradientTransform="matrix(0 3.8171 -6.1772 0 129.98 -37.908)" y1="8.059" x1="32.892">
   <stop id="stop8591-7-2-1" style="stop-color:#fefefe" offset="0"/>
   <stop id="stop8593-2-4-5" style="stop-color:#cbcbcb" offset="1"/>
  </linearGradient>
  <radialGradient id="radialGradient6925" gradientUnits="userSpaceOnUse" cy="-16.639" cx="2.2955" gradientTransform="matrix(-4.4108 -.035540 .029986 -3.7215 121.8 2.6323)" r="23">
   <stop id="stop12952" style="stop-color:#f46fe7" offset="0"/>
   <stop id="stop12954" style="stop-color:#a13c9e" offset="1"/>
  </radialGradient>
  <style id="style1246" type="text/css">.fil0 {fill:#1F1A17}</style>
  <style id="style1115" type="text/css">.fil0 {fill:#1F1A17}</style>
  <style id="style1246-3" type="text/css">.fil0 {fill:#1F1A17}</style>
  <style id="style1115-1" type="text/css">.fil0 {fill:#1F1A17}</style>
  <style id="style1246-0" type="text/css">.fil0 {fill:#1F1A17}</style>
  <style id="style1115-7" type="text/css">.fil0 {fill:#1F1A17}</style>
  <style id="style874" type="text/css">.fil0 {fill:#1F1A17}</style>
  <style id="style1246-05" type="text/css">.fil0 {fill:#1F1A17}</style>
  <style id="style1115-8" type="text/css">.fil0 {fill:#1F1A17}</style>
  <style id="style874-5" type="text/css">.fil0 {fill:#1F1A17}</style>
  <linearGradient id="linearGradient48964" y2="9" gradientUnits="userSpaceOnUse" x2="22.945" gradientTransform="translate(98.764 -134.63)" y1="39" x1="22.945">
   <stop id="stop4347-6" style="stop-color:#f4c4f4" offset="0"/>
   <stop id="stop4349-6" style="stop-color:#fef6fd" offset="1"/>
  </linearGradient>
 </defs>
 <rect id="rect892-2-7-1" style="opacity:.15891;stroke:#000;stroke-width:7.7512;fill:none" transform="scale(1,-1)" ry="28.993" height="114.35" width="114.22" y="-121.16" x="6.8687"/>
 <rect id="rect892-2-7-2" ry="29.452" style="stroke:#d3d3d3;stroke-width:9.8448;fill:#37414b" transform="scale(1,-1)" height="116.16" width="116.08" y="-122.08" x="5.9224"/>
 <rect id="rect892" style="stroke:url(#linearGradient3521);stroke-width:.97385;fill:url(#linearGradient3519)" transform="scale(1,-1)" ry="29.296" height="115.54" width="114.22" y="-122.25" x="7.0394"/>
 <rect id="rect892-2" style="stroke:url(#linearGradient3516);stroke-width:.97385;fill:url(#linearGradient3514)" transform="scale(1,-1)" ry="28.993" height="114.35" width="114.22" y="-121.46" x="7.0599"/>
 <path id="path4159-5" style="stroke:url(#linearGradient4192);stroke-width:1px;fill:none" d="m7.0334 31.742h113.58z"/>
 <path id="path4322" d="m120.09 74.559c-1.82 3.831-41.638 40.371-56.018 45.741-66.185 6.38-58.724-19.48-56.838-84.917 4.797-34.382 28.284-28.298 90.407-27.48 28.999 8.074 22.189 27.125 22.449 66.656z" style="fill-rule:evenodd;fill:url(#radialGradient6925)"/>
 <g id="g48956" transform="matrix(2.4 0 0 2.4 -230.84 322.88)">
  <path id="path4271" style="fill-opacity:.058824" d="m118.76-124.43v30h7v-11.5h5v8 3.5h7v-9-6c0-1.939-1.561-3.5-3.5-3.5h-8.5v-11.5h-7zm-6.5 21c-2.493 0-4.5 2.007-4.5 4.5s2.007 4.5 4.5 4.5 4.5-2.007 4.5-4.5-2.007-4.5-4.5-4.5z"/>
  <path id="path4269" style="fill-opacity:.11765" d="m118.76-124.83v30h7v-11.5h5v8 3.5h7v-9-6c0-1.939-1.561-3.5-3.5-3.5h-8.5v-11.5h-7zm-6.5 21c-2.493 0-4.5 2.007-4.5 4.5s2.007 4.5 4.5 4.5 4.5-2.007 4.5-4.5-2.007-4.5-4.5-4.5z"/>
  <path id="path4265" style="fill-opacity:.23529" d="m118.76-125.23v30h7v-11.5h5v8 3.5h7v-9-6c0-1.939-1.561-3.5-3.5-3.5h-8.5v-11.5h-7zm-6.5 21c-2.493 0-4.5 2.007-4.5 4.5s2.007 4.5 4.5 4.5 4.5-2.007 4.5-4.5-2.007-4.5-4.5-4.5z"/>
  <path id="rect4216" style="fill:url(#linearGradient48964)" d="m118.76-125.63v30h7v-11.5h5v8 3.5h7v-9-6c0-1.939-1.561-3.5-3.5-3.5h-8.5v-11.5h-7zm-6.5 21c-2.493 0-4.5 2.007-4.5 4.5s2.007 4.5 4.5 4.5 4.5-2.007 4.5-4.5-2.007-4.5-4.5-4.5z"/>
  <path id="path4114" style="fill:#fff;fill-opacity:.23529" d="m118.76-125.63v0.40039h7v-0.40039h-7zm7 11.5v0.40039h8.5c1.939 0 3.5 1.561 3.5 3.5v-0.40039c0-1.939-1.561-3.5-3.5-3.5h-8.5zm-13.5 9.5c-2.493 0-4.5 2.007-4.5 4.5 0 0.0683 0.0165 0.13165 0.0195 0.19922 0.10667-2.3969 2.0563-4.2988 4.4805-4.2988s4.3738 1.9019 4.4805 4.2988c0.003-0.0676 0.0195-0.13088 0.0195-0.19922 0-2.493-2.007-4.5-4.5-4.5z"/>
  <path id="path4109" style="fill:#e04cde;fill-opacity:.31373" d="m125.76-107.93v0.80078h5v-0.80078h-5zm-17.959 7.4004c-0.0119 0.13419-0.041 0.26299-0.041 0.40039 0 2.493 2.007 4.5 4.5 4.5s4.5-2.007 4.5-4.5c0-0.1374-0.0291-0.2662-0.041-0.40039-0.20427 2.301-2.1031 4.0996-4.459 4.0996s-4.2547-1.7986-4.459-4.0996zm10.959 4.0996v0.80078h7v-0.80078h-7zm12 0v0.80078h7v-0.80078h-7z"/>
 </g>
 <rect id="rect892-2-7-8" style="opacity:.15891;stroke:#000;stroke-width:4.8445;fill:none" transform="scale(1,-1)" ry="28.993" height="114.35" width="114.22" y="-121.16" x="6.8687"/>
 <g id="g17906" transform="matrix(2.3438 0 0 2.2539 224.79 41.695)"></g>
 <path id="path4891" d="m25.685 5.7862c3.6386-0.3502 2.8432 14.02 2.8432 14.02s16.093-0.84846 16.525 1.9543c3.85-3.268-16.654-16.76-19.368-15.974z" style="opacity:.3;fill-rule:evenodd;filter:url(#filter3198-5);fill:#000054" transform="matrix(0 2.6586 -4.0239 0 144.6 .66614)"/>
 <path id="path4893" d="m120.42 71.909c-2.6379 9.487-48.941 8.4899-48.941 8.4899s3.0553 39.005-10.575 39.949c8.02 2.4523 48.56-28.337 57.689-43.48 1.1729-1.9458 1.8272-3.6334 1.8272-4.9589z" style="fill:url(#linearGradient6921);fill-rule:evenodd"/>
 <rect id="rect892-2-7-2-9" ry="28.239" style="stroke:#000;stroke-width:1.0489;fill:none" transform="scale(1,-1)" height="113.4" width="113.45" y="-121" x="7.0649"/>
</svg>
