<?xml version="1.0" encoding="UTF-8" standalone="no"?>
<!-- Created with Inkscape (http://www.inkscape.org/) -->
<svg id="svg3815" xmlns:rdf="http://www.w3.org/1999/02/22-rdf-syntax-ns#" xmlns="http://www.w3.org/2000/svg" xmlns:osb="http://www.openswatchbook.org/uri/2009/osb" height="22" width="22" version="1.1" xmlns:cc="http://creativecommons.org/ns#" xmlns:xlink="http://www.w3.org/1999/xlink" xmlns:dc="http://purl.org/dc/elements/1.1/">
 <defs id="defs3817">
  <filter id="filter3174" color-interpolation-filters="sRGB">
   <feGaussianBlur id="feGaussianBlur3176" stdDeviation="1.71"/>
  </filter>
  <filter id="filter3794" height="1.384" width="1.384" color-interpolation-filters="sRGB" y="-.192" x="-.192">
   <feGaussianBlur id="feGaussianBlur3796" stdDeviation="5.28"/>
  </filter>
  <clipPath id="clipPath4355">
   <rect id="rect4357" style="fill:#fff" rx="6" ry="6" height="80" width="84" y="6" x="6"/>
  </clipPath>
  <filter id="filter3174-3" color-interpolation-filters="sRGB">
   <feGaussianBlur id="feGaussianBlur3176-6" stdDeviation="1.71"/>
  </filter>
  <filter id="filter3794-6" height="1.384" width="1.384" color-interpolation-filters="sRGB" y="-.192" x="-.192">
   <feGaussianBlur id="feGaussianBlur3796-9" stdDeviation="5.28"/>
  </filter>
  <clipPath id="clipPath4355-3">
   <rect id="rect4357-1" style="fill:#fff" rx="6" ry="6" height="80" width="84" y="6" x="6"/>
  </clipPath>
  <filter id="filter3174-0" color-interpolation-filters="sRGB">
   <feGaussianBlur id="feGaussianBlur3176-7" stdDeviation="1.71"/>
  </filter>
  <filter id="filter3794-9" height="1.384" width="1.384" color-interpolation-filters="sRGB" y="-.192" x="-.192">
   <feGaussianBlur id="feGaussianBlur3796-7" stdDeviation="5.28"/>
  </filter>
  <clipPath id="clipPath4355-2">
   <rect id="rect4357-2" style="fill:#fff" rx="6" ry="6" height="80" width="84" y="6" x="6"/>
  </clipPath>
  <filter id="filter7554" color-interpolation-filters="sRGB">
   <feBlend id="feBlend7556" mode="darken" in2="BackgroundImage"/>
  </filter>
 </defs>
 <metadata id="metadata3820">
  <rdf:RDF>
   <cc:Work rdf:about="">
    <dc:format>image/svg+xml</dc:format>
    <dc:type rdf:resource="http://purl.org/dc/dcmitype/StillImage"/>
    <dc:title/>
   </cc:Work>
  </rdf:RDF>
 </metadata>
 <g id="layer1" transform="translate(-461.71 -525.79)">
  <g id="layer1-6" style="stroke:#4d4d4d;fill:#e9afaf" transform="translate(40.063 0.125)">
   <g id="layer2" style="stroke:#4d4d4d;display:none;fill:#e9afaf" transform="translate(353.57 481.73)">
    <rect id="rect3745-6" style="opacity:.9;filter:url(#filter3174-0);stroke:#4d4d4d;fill:#e9afaf" rx="6" ry="6" height="85" width="86" y="7" x="5"/>
   </g>
   <g id="layer5" style="stroke:#4d4d4d;display:none;fill:#e9afaf" transform="translate(353.57 481.73)">
    <rect id="rect3171-69" style="opacity:.1;filter:url(#filter3794-9);stroke:#4d4d4d;stroke-linecap:round;stroke-width:.5;fill:#e9afaf" clip-path="url(#clipPath4355-2)" rx="12" ry="12" height="62" width="66" y="15" x="15"/>
   </g>
   <g id="layer2-5" style="stroke:#4d4d4d;fill:#e9afaf;display:none" transform="translate(353.47 490.07)">
    <rect id="rect3745-7" style="opacity:.9;filter:url(#filter3174-3);stroke:#4d4d4d;fill:#e9afaf" rx="6" ry="6" height="85" width="86" y="7" x="5"/>
   </g>
   <g id="layer5-1" style="stroke:#4d4d4d;fill:#e9afaf;display:none" transform="translate(353.47 490.07)">
    <rect id="rect3171-6" style="opacity:.1;filter:url(#filter3794-6);stroke:#4d4d4d;stroke-linecap:round;stroke-width:.5;fill:#e9afaf" clip-path="url(#clipPath4355-3)" rx="12" ry="12" height="62" width="66" y="15" x="15"/>
   </g>
   <path id="path3983-9" style="stroke:#4d4d4d;display:block;fill:#e9afaf" d="m431.61 528.79c-0.31484 0-0.575 0.25478-0.575 0.575v1.1375c-0.56295 0.14999-1.0953 0.37626-1.5875 0.6625l-0.8125-0.8125c-0.11322-0.11321-0.24099-0.16126-0.3875-0.1625-0.14651-0.001-0.30119 0.0512-0.4125 0.1625l-1.5625 1.5625c-0.22262 0.22262-0.21391 0.57357 0.0125 0.8l0.8 0.8125c-0.28624 0.49216-0.51251 1.0245-0.6625 1.5875h-1.125c-0.32022 0-0.5875 0.26016-0.5875 0.575v2.2c0 0.31484 0.26728 0.575 0.5875 0.575h1.125c0.14999 0.56296 0.37626 1.0953 0.6625 1.5875l-0.8 0.8c-0.22643 0.22643-0.23514 0.58988-0.0125 0.8125l1.5625 1.5625c0.22263 0.22262 0.57357 0.21393 0.8-0.0125l0.8125-0.8c0.49216 0.28624 1.0246 0.51251 1.5875 0.6625v1.125c0 0.32022 0.26016 0.5875 0.575 0.5875h2.2c0.31483 0 0.57499-0.26728 0.57499-0.5875v-1.125c0.56296-0.14999 1.0953-0.37626 1.5875-0.6625l0.8125 0.8c0.22643 0.22643 0.57738 0.23512 0.8 0.0125l1.5625-1.5625c0.22262-0.22262 0.21391-0.58606-0.0125-0.8125l-0.8-0.79999c0.28624-0.49216 0.51251-1.0246 0.6625-1.5875h1.125c0.32022-0.00001 0.5875-0.26017 0.5875-0.57501v-2.2c0-0.31484-0.26728-0.575-0.5875-0.575h-1.125c-0.14999-0.56296-0.37626-1.0953-0.6625-1.5875l0.8-0.8125c0.22643-0.22643 0.23515-0.57738 0.0125-0.8l-1.5625-1.5625c-0.22262-0.22262-0.57357-0.22643-0.79999 0l-0.81251 0.8125c-0.49216-0.28624-1.0245-0.51251-1.5875-0.6625v-1.1375c0-0.32022-0.26016-0.575-0.575-0.575z"/>
  </g>
  <rect id="rect3745" style="opacity:.9;filter:url(#filter3174);display:none;fill:#4d4d4d" transform="matrix(.36331 0 0 .36331 536.21 442.45)" rx="6" ry="6" height="85" width="86" y="7" x="5"/>
  <rect id="rect3171" style="opacity:.1;filter:url(#filter3794);stroke:#fff;stroke-linecap:round;stroke-width:.5;display:none;fill:#4d4d4d" transform="matrix(.36331 0 0 .36331 536.21 442.45)" clip-path="url(#clipPath4355)" rx="12" ry="12" height="62" width="66" y="15" x="15"/>
  <path id="path10385-8" style="fill:#4d4d4d" d="m470.15 540.12c-1.2828-0.43098-1.5482-0.69206-1.221-1.2009 0.1413-0.21976 0.32477-0.19435 1.1453 0.15864 1.3845 0.5956 3.5828 0.59834 4.9567 0.006 0.82991-0.35767 1.0164-0.38428 1.1553-0.16483 0.319 0.50391 0.16225 0.6786-0.98682 1.0996-1.6751 0.61381-3.4198 0.6488-5.0495 0.10128zm-1.8204-4.7018c-0.28446-0.31432-0.24131-0.39515 0.71466-1.3393l1.0174-1.0047 1.0252 1.0252c0.98907 0.98906 1.013 1.0362 0.67891 1.3385-0.32838 0.29717-0.38456 0.28058-1.0874-0.32099l-0.74107-0.63432-0.58284 0.63504c-0.32054 0.34929-0.61417 0.63505-0.65249 0.63505-0.0383 0-0.20587-0.15053-0.37237-0.3345zm5.3772 0.0662c-0.3824-0.38241-0.28187-0.57347 0.82659-1.571l0.91136-0.82016 0.91967 0.90584c0.98664 0.97181 1.0802 1.2044 0.63345 1.5752-0.24164 0.20054-0.39399 0.1323-0.97827-0.43822l-0.69204-0.67578-0.66122 0.66122c-0.60783 0.60783-0.68532 0.63713-0.95954 0.36291z"/>
 </g>
</svg>
