<?xml version="1.0" encoding="UTF-8" standalone="no"?>
<!-- Created with Inkscape (http://www.inkscape.org/) -->
<svg id="svg3815" xmlns:rdf="http://www.w3.org/1999/02/22-rdf-syntax-ns#" xmlns="http://www.w3.org/2000/svg" height="22" width="22" version="1.1" xmlns:cc="http://creativecommons.org/ns#" xmlns:xlink="http://www.w3.org/1999/xlink" xmlns:dc="http://purl.org/dc/elements/1.1/">
 <defs id="defs3817">
  <filter id="filter3174" color-interpolation-filters="sRGB">
   <feGaussianBlur id="feGaussianBlur3176" stdDeviation="1.71"/>
  </filter>
  <filter id="filter3794" height="1.384" width="1.384" color-interpolation-filters="sRGB" y="-.192" x="-.192">
   <feGaussianBlur id="feGaussianBlur3796" stdDeviation="5.28"/>
  </filter>
  <clipPath id="clipPath4355">
   <rect id="rect4357" style="fill:#fff" rx="6" ry="6" height="80" width="84" y="6" x="6"/>
  </clipPath>
 </defs>
 <metadata id="metadata3820">
  <rdf:RDF>
   <cc:Work rdf:about="">
    <dc:format>image/svg+xml</dc:format>
    <dc:type rdf:resource="http://purl.org/dc/dcmitype/StillImage"/>
    <dc:title/>
   </cc:Work>
  </rdf:RDF>
 </metadata>
 <g id="layer1" transform="translate(-461.71 -525.79)">
  <path id="path10103" style="fill-opacity:.60784;fill:#ff0;fill-rule:evenodd" d="m18 10.5a7 5.5 0 1 1 -14 0 7 5.5 0 1 1 14 0z" transform="matrix(1.0634 0 0 1.345 460.98 522.69)"/>
  <rect id="rect3745" style="opacity:.9;filter:url(#filter3174);display:none;fill:#4d4d4d" transform="matrix(.36331 0 0 .36331 536.21 442.45)" rx="6" ry="6" height="85" width="86" y="7" x="5"/>
  <rect id="rect3171" style="opacity:.1;filter:url(#filter3794);stroke:#fff;stroke-linecap:round;stroke-width:.5;display:none;fill:#4d4d4d" transform="matrix(.36331 0 0 .36331 536.21 442.45)" clip-path="url(#clipPath4355)" rx="12" ry="12" height="62" width="66" y="15" x="15"/>
  <path id="path10446-4" style="fill:#4d4d4d;fill-rule:evenodd" d="m472.71 528.79c-4.4183 0-8 3.5817-8 8s3.5817 8 8 8 8-3.5817 8-8-3.5817-8-8-8zm0 1.3176c3.6906 0 6.6824 2.9918 6.6824 6.6824s-2.9918 6.6824-6.6824 6.6824-6.6824-2.9918-6.6824-6.6824 2.9918-6.6824 6.6824-6.6824z"/>
  <path id="path10100" style="stroke:#4d4d4d;stroke-width:1px;fill:none" d="m468.71 535.89h2"/>
  <path id="path10102" style="stroke:#4d4d4d;stroke-width:1px;fill:none" d="m474.71 535.89h2"/>
  <path id="path10916" style="fill:#4d4d4d" d="m465.39 536.79h14.646c-0.92467 6.7704-4.5262 6.0877-7.3229 7.6459-4.4316-1.1977-7.3835-3.3995-7.3229-7.6459z"/>
  <path id="path10916-7" style="fill:#4d4d4d" d="m479.81 534.85h-14.242c0.89919-4.9116 4.4015-4.4164 7.1211-5.5468 4.3094 0.86886 7.18 2.4662 7.1211 5.5468z"/>
 </g>
</svg>
