<?xml version="1.0" encoding="UTF-8" standalone="no"?>
<!-- Created with Inkscape (http://www.inkscape.org/) -->
<svg id="svg3815" xmlns:rdf="http://www.w3.org/1999/02/22-rdf-syntax-ns#" xmlns="http://www.w3.org/2000/svg" height="22" width="22" version="1.1" xmlns:cc="http://creativecommons.org/ns#" xmlns:xlink="http://www.w3.org/1999/xlink" xmlns:dc="http://purl.org/dc/elements/1.1/">
 <defs id="defs3817">
  <filter id="filter3174" color-interpolation-filters="sRGB">
   <feGaussianBlur id="feGaussianBlur3176" stdDeviation="1.71"/>
  </filter>
  <filter id="filter3794" height="1.384" width="1.384" color-interpolation-filters="sRGB" y="-.192" x="-.192">
   <feGaussianBlur id="feGaussianBlur3796" stdDeviation="5.28"/>
  </filter>
  <clipPath id="clipPath4355">
   <rect id="rect4357" style="fill:#fff" rx="6" ry="6" height="80" width="84" y="6" x="6"/>
  </clipPath>
 </defs>
 <metadata id="metadata3820">
  <rdf:RDF>
   <cc:Work rdf:about="">
    <dc:format>image/svg+xml</dc:format>
    <dc:type rdf:resource="http://purl.org/dc/dcmitype/StillImage"/>
    <dc:title/>
   </cc:Work>
  </rdf:RDF>
 </metadata>
 <g id="layer1" transform="translate(-461.71 -525.79)">
  <rect id="rect3745" style="opacity:.9;filter:url(#filter3174);display:none;fill:#4d4d4d" transform="matrix(.36331 0 0 .36331 536.21 442.45)" rx="6" ry="6" height="85" width="86" y="7" x="5"/>
  <rect id="rect3171" style="opacity:.1;filter:url(#filter3794);stroke:#fff;stroke-linecap:round;stroke-width:.5;display:none;fill:#4d4d4d" transform="matrix(.36331 0 0 .36331 536.21 442.45)" clip-path="url(#clipPath4355)" rx="12" ry="12" height="62" width="66" y="15" x="15"/>
  <path id="path11572" style="fill:#5f6060" d="m471.62 529.88c-0.14958-0.0001-0.27252 0.0158-0.32922 0.0299-0.28848 0.0723-0.53551 0.25404-0.68836 0.47886-0.16485 0.24245-0.17803 0.29383 0.0599 1.1672 0.27817 1.0212 0.25169 0.95377 0.23943 1.1074-0.0522 0.6564-0.28261 1.6417-0.62851 2.544-0.0959 0.25018-0.21487 0.5004-0.29929 0.68836-0.0409 0.0102-0.0771 0.0365-0.14964 0.0299-0.005-0.00043-0.11309 0.0298-0.11972 0.0299-0.1265 0.002-0.50167 0.0792-2.3045 0.47886-1.4318 0.31737-2.373 0.54136-2.4242 0.56865-0.2535 0.13504-0.32895 0.44038-0.2095 0.77815 0.0323 0.0912 0.0879 0.33278 0.14965 0.53872 0.0618 0.20593 0.23344 0.8096 0.38907 1.3169 0.5327 1.7364 0.76954 2.4693 0.9278 2.9929 0.27926 0.92414 0.28736 0.96792 0.38907 1.0774 0.11098 0.11959 0.24939 0.17095 0.41901 0.17957 0.0993 0.006 0.55413-0.0838 2.1848-0.44893l2.0651-0.47886 0.11972-0.0898c0.16844-0.13869 0.20687-0.40222 0.17957-0.62851-0.0269-0.18405-0.008-0.22487 0.0299-0.23943l-0.14964-0.47886c0.0356 0.0102 0.0595 0.007 0.11971 0.0299 0.27832 0.10615 0.40923 0.14868 0.59858 0.14964 0.16566 0.001 0.16045-0.0187 3.5316-0.86794 3.5538-0.89519 3.7354-0.93253 4.0703-1.0475 0.45904-0.15759 0.66268-0.27672 0.80808-0.50879 0.1534-0.24485 0.14575-0.59377 0-0.86794-0.11531-0.2169-0.33289-0.38213-0.56865-0.419-0.17335-0.0271-0.73631-0.0127-1.0176 0.0299-0.32503 0.0493-0.72151 0.13125-1.1672 0.23944-0.20947 0.0509-0.40426 0.085-0.41901 0.0898-0.0235 0.007-0.0223-0.002-0.0299-0.2095-0.01-0.26522-0.0375-0.4409-0.11971-0.68837-0.0629-0.18939-0.11833-0.31447-0.20951-0.44893l-0.0898-0.0898 0.0299-0.14964c0.0396-0.21313 0.0474-0.29459 0.0299-0.47886-0.0213-0.22396-0.0854-0.43555-0.17958-0.62851-0.0424-0.087-0.0593-0.17191-0.0599-0.17957-0.001-0.018 0.22852-0.10986 0.7183-0.29929 0.63841-0.2469 0.90578-0.35528 1.3767-0.56865 1.1764-0.53297 1.3879-0.71428 1.4067-1.1074 0.008-0.17834-0.0214-0.29308-0.11972-0.47886-0.14319-0.27053-0.36144-0.46594-0.56865-0.53872-0.27769-0.0976-0.99159 0.0325-2.2447 0.38907-0.22356 0.0636-0.52156 0.14299-0.65843 0.17957-0.13687 0.0366-0.86532 0.26176-1.6461 0.5088-0.78078 0.24702-1.4258 0.44893-1.4366 0.44893-0.011 0-0.0299-0.0195-0.0299-0.0299 0-0.11609-0.14663-1.5857-0.17957-1.7957-0.0441-0.28166-0.36299-0.93366-0.7183-1.4665-0.17312-0.25964-0.46028-0.62123-0.53872-0.68837-0.114-0.0976-0.25178-0.1495-0.53872-0.14964zm0.11972 0.44893c0.0803 0.0107 0.12867 0.0408 0.14964 0.0599 0.0507 0.0458 0.33993 0.41521 0.47887 0.62851 0.2382 0.36568 0.42013 0.73707 0.53872 1.0475 0.0426 0.11137 0.0536 0.21852 0.0898 0.53872 0.0481 0.42435 0.10521 1.0554 0.14965 1.6162 0.0162 0.20321 0.0541 0.38046 0.0599 0.38908 0.005 0.009 0.76604-0.23245 1.7359-0.53872 0.94861-0.29957 1.778-0.54835 1.8556-0.56865s0.37101-0.0988 0.65844-0.17958c0.95964-0.26955 1.4565-0.38835 1.8556-0.419 0.13253-0.0101 0.13969-0.011 0.20951 0.0299 0.1962 0.11498 0.37188 0.4912 0.29928 0.62851-0.0784 0.14816-0.99451 0.5884-2.1549 1.0475-0.76097 0.30109-1.7056 0.70172-1.706 0.71829-0.00009 0.005 0.0166 0.0424 0.0599 0.0599 0.053 0.0214 0.11977 0.0592 0.20951 0.14964 0.21397 0.21549 0.34008 0.50007 0.35914 0.83801 0.0148 0.26217-0.0344 0.44732-0.14964 0.56865l-0.0299 0.0599 0.0599 0.0599c0.11124 0.0816 0.21098 0.20196 0.29929 0.38907 0.20019 0.42424 0.24329 0.951 0.0898 1.4067-0.0189 0.056-0.0328 0.11685-0.0299 0.11972 0.003 0.003 0.25841-0.073 0.56865-0.14964 1.262-0.31168 1.8456-0.41876 2.3045-0.41901 0.30794-0.00016 0.42872 0.054 0.50879 0.2095 0.0832 0.16178 0.0545 0.34897-0.0599 0.47887-0.0761 0.0865-0.16141 0.14509-0.419 0.23943-0.32463 0.11886-0.77415 0.23351-4.1302 1.0774-2.724 0.68499-3.3243 0.83896-3.4119 0.83801-0.11907-0.001-0.24759-0.0589-0.47886-0.14965-0.11961-0.0469-0.16835-0.0476-0.23943-0.0599-0.52277-1.0907-1.1055-3.3513-1.3169-4.5193 0.59524-1.1619 1.1271-2.735 1.2271-3.8309 0.0203-0.22292 0.0436-0.13859-0.26936-1.287-0.12918-0.47393-0.18819-0.68534-0.17957-0.71829 0.006-0.0251 0.043-0.0702 0.0898-0.11972 0.16616-0.17565 0.44878-0.27544 0.7183-0.23943z"/>
 </g>
</svg>
