<?xml version="1.0" encoding="UTF-8" standalone="no"?>
<!-- Created with Inkscape (http://www.inkscape.org/) -->

<svg
   xmlns:dc="http://purl.org/dc/elements/1.1/"
   xmlns:cc="http://creativecommons.org/ns#"
   xmlns:rdf="http://www.w3.org/1999/02/22-rdf-syntax-ns#"
   xmlns:svg="http://www.w3.org/2000/svg"
   xmlns="http://www.w3.org/2000/svg"
   xmlns:sodipodi="http://sodipodi.sourceforge.net/DTD/sodipodi-0.dtd"
   xmlns:inkscape="http://www.inkscape.org/namespaces/inkscape"
   id="svg3449"
   height="128"
   width="128"
   version="1.0"
   inkscape:version="0.48.4 r9939"
   sodipodi:docname="cairo-clock.svg">
  <sodipodi:namedview
     pagecolor="#ffffff"
     bordercolor="#666666"
     borderopacity="1"
     objecttolerance="10"
     gridtolerance="10"
     guidetolerance="10"
     inkscape:pageopacity="0"
     inkscape:pageshadow="2"
     inkscape:window-width="1360"
     inkscape:window-height="707"
     id="namedview29"
     showgrid="false"
     inkscape:zoom="1.84375"
     inkscape:cx="-36.610169"
     inkscape:cy="64"
     inkscape:window-x="-2"
     inkscape:window-y="33"
     inkscape:window-maximized="1"
     inkscape:current-layer="svg3449" />
  <metadata
     id="metadata56">
    <rdf:RDF>
      <cc:Work
         rdf:about="">
        <dc:format>image/svg+xml</dc:format>
        <dc:type
           rdf:resource="http://purl.org/dc/dcmitype/StillImage" />
        <dc:title></dc:title>
      </cc:Work>
    </rdf:RDF>
  </metadata>
  <defs
     id="defs3451">
    <linearGradient
       id="linearGradient3514"
       y2="-9.1034"
       gradientUnits="userSpaceOnUse"
       x2="66.492"
       gradientTransform="matrix(.96826 0 0 .97948 2.179 .16587)"
       y1="-42.638"
       x1="67.952">
      <stop
         id="stop4620"
         style="stop-color:#37414b"
         offset="0" />
      <stop
         id="stop4622"
         style="stop-color:#37414b;stop-opacity:0"
         offset="1" />
    </linearGradient>
    <linearGradient
       id="linearGradient3516"
       y2="-11.847"
       gradientUnits="userSpaceOnUse"
       x2="58.98"
       gradientTransform="matrix(.96826 0 0 .97948 2.179 .16587)"
       y1="-118.55"
       x1="57.173">
      <stop
         id="stop4596"
         offset="0" />
      <stop
         id="stop4598"
         style="stop-opacity:0"
         offset="1" />
    </linearGradient>
    <linearGradient
       id="linearGradient3519"
       y2="50.369"
       gradientUnits="userSpaceOnUse"
       x2="76.558"
       gradientTransform="matrix(.96826 0 0 .97948 3.2423 -129.19)"
       y1="13.164"
       x1="76.558">
      <stop
         id="stop3392"
         style="stop-color:#425e7b"
         offset="0" />
      <stop
         id="stop3394"
         style="stop-color:#7a91a7"
         offset="1" />
    </linearGradient>
    <linearGradient
       id="linearGradient3521"
       y2="-8.7399"
       gradientUnits="userSpaceOnUse"
       x2="60.217"
       gradientTransform="matrix(.96826 0 0 .97948 2.179 .16587)"
       y1="-123.72"
       x1="60.395">
      <stop
         id="stop3392-4-8"
         style="stop-color:#425e7b"
         offset="0" />
      <stop
         id="stop3394-8-0"
         style="stop-color:#7a91a7"
         offset="1" />
    </linearGradient>
    <radialGradient
       id="radialGradient3349"
       gradientUnits="userSpaceOnUse"
       cy="45.647"
       cx="42.148"
       gradientTransform="matrix(.94690 0 0 1.139 3.5954 -29.89)"
       r="58.984">
      <stop
         id="stop2699-5"
         style="stop-color:#86b3e0"
         offset="0" />
      <stop
         id="stop2701-7"
         style="stop-color:#649ad6"
         offset="1" />
    </radialGradient>
  </defs>
  <rect
     id="rect892"
     style="stroke:url(#linearGradient3521);stroke-width:.97385;fill:url(#linearGradient3519)"
     transform="scale(1,-1)"
     ry="29.296"
     height="115.54"
     width="114.22"
     y="-122.25"
     x="7.0394" />
  <rect
     id="rect892-2"
     style="stroke:url(#linearGradient3516);stroke-width:.97385;fill:url(#linearGradient3514)"
     transform="scale(1,-1)"
     ry="28.993"
     height="114.35"
     width="114.22"
     y="-121.46"
     x="7.0599" />
  <path
     id="rect895"
     style="fill:url(#radialGradient3349)"
     d="m33.051 7.2596c-7.969-2.4493-27.013 15.174-25.653 23.038-0.050142 0.97378-0.088772 1.9648-0.088772 2.9572v52.419c0 20.876 10.712 33.859 22.318 33.859h67.038c12.638 0 24.318-11.245 24.318-25.859v-64.017c0.7-10.928-21.283-24.659-25.926-22.618-47.846 0.8653-18.017 0.2236-62.003 0.2236z" />
  <rect
     id="rect892-2-7-8"
     style="opacity:.15891;stroke:#000;stroke-width:4.8445;fill:none"
     transform="scale(1,-1)"
     ry="28.993"
     height="114.35"
     width="114.22"
     y="-121.16"
     x="6.8687" />
  <rect
     id="rect892-2-7-1"
     style="opacity:.15891;stroke:#000;stroke-width:7.7512;fill:none"
     transform="scale(1,-1)"
     ry="28.993"
     height="114.35"
     width="114.22"
     y="-121.16"
     x="6.8687" />
  <rect
     id="rect892-2-7-2-9"
     ry="28.067"
     style="stroke:#000;stroke-width:1.0489;fill:none"
     transform="scale(1,-1)"
     height="112.71"
     width="114.14"
     y="-120.31"
     x="7.0649" />
  <path
     id="path1187"
     style="fill:#fff;fill-opacity:.057143"
     d="m33.017 7.2319c-23.707 0-26.027 0.6738-25.93 26.295-0.04334 0.71563-0.07674 1.4439-0.07674 2.1732v32.76c18.67-38.321 38.34-51.497 90.374-61.179-0.225-0.026-0.46-0.0303-0.691-0.0303-41.576 0.3874-25.652-0.0188-63.676-0.0188z" />
  <path
     inkscape:connector-curvature="0"
     style="fill:#ffffff;fill-opacity:1;fill-rule:nonzero;stroke:none"
     d="m 77.555244,24.00319 c -0.217448,0.02089 -0.417394,0.14465 -0.527461,0.349848 l -3.450033,6.302634 c -2.904477,-1.291959 -6.152801,-2.016843 -9.5912,-2.012968 -3.429373,-0.0028 -6.677885,0.722731 -9.569669,2.007585 L 50.961466,24.35842 c -0.179983,-0.331763 -0.594211,-0.449742 -0.920368,-0.269113 -0.332633,0.178906 -0.453401,0.595063 -0.269113,0.920368 l 3.417739,6.232663 c -6.716,3.463812 -11.252381,10.060102 -11.248936,17.632305 l 44.091526,-0.0054 c 0.0018,-7.571147 -4.526692,-14.14956 -11.232789,-17.621552 l 3.417739,-6.243429 c 0.182136,-0.32595 0.06158,-0.736294 -0.269114,-0.920367 -0.124899,-0.0662 -0.262436,-0.09327 -0.392906,-0.08074 z M 53.959388,36.624605 c 1.3317,0 2.411256,1.079556 2.411256,2.411256 0,1.3317 -1.079556,2.411255 -2.411256,2.411255 -1.3317,0 -2.411254,-1.079555 -2.411254,-2.411255 0,-1.3317 1.079554,-2.411256 2.411254,-2.411256 z m 20.070472,0 c 1.331701,0 2.411256,1.079556 2.411256,2.411256 0,1.3317 -1.079555,2.411255 -2.411256,2.411255 -1.3317,0 -2.411255,-1.079555 -2.411255,-2.411255 0,-1.3317 1.079555,-2.411256 2.411255,-2.411256 z M 92.668652,50.33862 c -2.70297,-0.0022 -4.898519,2.18886 -4.897865,4.892479 l 0.0054,20.501053 c -1.74e-4,2.706204 2.192949,4.891621 4.897866,4.89248 2.702962,-3.45e-4 4.891825,-2.189505 4.892479,-4.897862 l -0.005,-20.495671 c 0,-2.703404 -2.189292,-4.893125 -4.89248,-4.892479 z m -57.34267,0.0054 c -2.703188,-0.0012 -4.891842,2.19166 -4.89248,4.892481 l 0,20.501053 c 0,2.710078 2.194467,4.89291 4.897863,4.89248 2.704911,1.71e-4 4.89527,-2.184124 4.892479,-4.89248 l 0,-20.501053 c -0.0018,-2.700176 -2.194448,-4.894203 -4.897862,-4.892481 z m 50.561012,0.914986 -43.768591,0.0054 0.01077,31.771518 c -0.0024,2.889632 2.332683,5.220155 5.220799,5.220799 l 3.557678,0 0.0054,10.845256 c 0,2.69997 2.195525,4.89786 4.89248,4.89786 2.704911,0 4.891843,-2.19617 4.89248,-4.89786 l 0,-10.845256 6.609423,0 0,10.845256 c 0,2.69889 2.195113,4.89679 4.892481,4.89248 2.704705,0.002 4.898293,-2.19574 4.897862,-4.897859 l 0,-10.839877 3.568442,-0.0054 c 2.881023,9.23e-4 5.225526,-2.336552 5.226179,-5.226179 l -0.0054,-31.766129 z"
     id="path5581" />
</svg>
