<?xml version="1.0" encoding="UTF-8" standalone="no"?>
<!-- Created with Inkscape (http://www.inkscape.org/) -->
<svg id="svg3449" xmlns:rdf="http://www.w3.org/1999/02/22-rdf-syntax-ns#" xmlns="http://www.w3.org/2000/svg" height="128" width="128" version="1.0" xmlns:cc="http://creativecommons.org/ns#" xmlns:xlink="http://www.w3.org/1999/xlink" xmlns:dc="http://purl.org/dc/elements/1.1/">
 <metadata id="metadata56">
  <rdf:RDF>
   <cc:Work rdf:about="">
    <dc:format>image/svg+xml</dc:format>
    <dc:type rdf:resource="http://purl.org/dc/dcmitype/StillImage"/>
    <dc:title/>
   </cc:Work>
  </rdf:RDF>
 </metadata>
 <defs id="defs3451">
  <linearGradient id="linearGradient3514" y2="-9.1034" gradientUnits="userSpaceOnUse" x2="66.492" gradientTransform="matrix(.96826 0 0 .97948 2.179 .16587)" y1="-42.638" x1="67.952">
   <stop id="stop4620" style="stop-color:#37414b" offset="0"/>
   <stop id="stop4622" style="stop-color:#37414b;stop-opacity:0" offset="1"/>
  </linearGradient>
  <linearGradient id="linearGradient3516" y2="-11.847" gradientUnits="userSpaceOnUse" x2="58.98" gradientTransform="matrix(.96826 0 0 .97948 2.179 .16587)" y1="-118.55" x1="57.173">
   <stop id="stop4596" offset="0"/>
   <stop id="stop4598" style="stop-opacity:0" offset="1"/>
  </linearGradient>
  <linearGradient id="linearGradient3519" y2="50.369" gradientUnits="userSpaceOnUse" x2="76.558" gradientTransform="matrix(.96826 0 0 .97948 3.2423 -129.19)" y1="13.164" x1="76.558">
   <stop id="stop3392" style="stop-color:#425e7b" offset="0"/>
   <stop id="stop3394" style="stop-color:#7a91a7" offset="1"/>
  </linearGradient>
  <linearGradient id="linearGradient3521" y2="-8.7399" gradientUnits="userSpaceOnUse" x2="60.217" gradientTransform="matrix(.96826 0 0 .97948 2.179 .16587)" y1="-123.72" x1="60.395">
   <stop id="stop3392-4-8" style="stop-color:#425e7b" offset="0"/>
   <stop id="stop3394-8-0" style="stop-color:#7a91a7" offset="1"/>
  </linearGradient>
  <radialGradient id="radialGradient3349" gradientUnits="userSpaceOnUse" cy="45.647" cx="42.148" gradientTransform="matrix(.94690 0 0 1.139 3.5954 -29.89)" r="58.984">
   <stop id="stop2699-5" style="stop-color:#9cbbd9" offset="0"/>
   <stop id="stop2701-7" style="stop-color:#5c82ab" offset="1"/>
  </radialGradient>
  <clipPath id="clipPath3613">
   <rect id="rect3615" style="fill:#fff" rx="6" ry="6" height="84" width="84" y="6" x="6"/>
  </clipPath>
  <linearGradient id="linearGradient3613" x1="48" gradientUnits="userSpaceOnUse" y1="20.221" x2="48" y2="138.66">
   <stop id="stop3739-0" style="stop-color:#fff" offset="0"/>
   <stop id="stop3741-0" style="stop-color:#fff;stop-opacity:0" offset="1"/>
  </linearGradient>
  <filter id="filter3794" height="1.384" width="1.384" color-interpolation-filters="sRGB" y="-.192" x="-.192">
   <feGaussianBlur id="feGaussianBlur3796" stdDeviation="5.28"/>
  </filter>
  <filter id="filter3174" color-interpolation-filters="sRGB">
   <feGaussianBlur id="feGaussianBlur3176" stdDeviation="1.71"/>
  </filter>
  <linearGradient id="ButtonShadow-4" x1="45.448" gradientUnits="userSpaceOnUse" y1="92.54" gradientTransform="scale(1.0059 .99417)" x2="45.448" y2="7.0165">
   <stop id="stop3750-6" offset="0"/>
   <stop id="stop3752-4" style="stop-opacity:.58824" offset="1"/>
  </linearGradient>
  <filter id="filter3174-0" color-interpolation-filters="sRGB">
   <feGaussianBlur id="feGaussianBlur3176-8" stdDeviation="1.71"/>
  </filter>
  <filter id="filter3174-7" color-interpolation-filters="sRGB">
   <feGaussianBlur id="feGaussianBlur3176-86" stdDeviation="1.71"/>
  </filter>
  <filter id="filter3174-4" color-interpolation-filters="sRGB">
   <feGaussianBlur id="feGaussianBlur3176-2" stdDeviation="1.71"/>
  </filter>
  <linearGradient id="linearGradient6793">
   <stop id="stop6795" style="stop-color:#fff" offset="0"/>
   <stop id="stop6797" style="stop-color:#f6f6f6" offset="1"/>
  </linearGradient>
  <filter id="filter3383" color-interpolation-filters="sRGB">
   <feBlend id="feBlend3385" in2="BackgroundImage" mode="multiply"/>
  </filter>
  <filter id="filter3985" height="1.3108" width="1.1436" color-interpolation-filters="sRGB" y="-.15539" x="-.071801">
   <feGaussianBlur id="feGaussianBlur3987" stdDeviation="6.7803529"/>
  </filter>
  <filter id="filter3989" color-interpolation-filters="sRGB">
   <feGaussianBlur id="feGaussianBlur3991" stdDeviation="6.7803529"/>
  </filter>
  <filter id="filter3993" height="1.1447" width="1.2982" color-interpolation-filters="sRGB" y="-.072374" x="-.14909">
   <feGaussianBlur id="feGaussianBlur3995" stdDeviation="6.7803529"/>
  </filter>
  <filter id="filter3997" height="1.2208" width="1.1631" color-interpolation-filters="sRGB" y="-.11038" x="-.081571">
   <feGaussianBlur id="feGaussianBlur3999" stdDeviation="6.7803529"/>
  </filter>
  <filter id="filter4001" height="1.2573" width="1.1499" color-interpolation-filters="sRGB" y="-.12866" x="-.074929">
   <feGaussianBlur id="feGaussianBlur4003" stdDeviation="6.7803529"/>
  </filter>
  <filter id="filter4005" height="1.1529" width="1.2447" color-interpolation-filters="sRGB" y="-.076451" x="-.12233">
   <feGaussianBlur id="feGaussianBlur4007" stdDeviation="6.7803529"/>
  </filter>
  <filter id="filter4009" height="1.1597" width="1.2245" color-interpolation-filters="sRGB" y="-.079874" x="-.11224">
   <feGaussianBlur id="feGaussianBlur4011" stdDeviation="6.7803529"/>
  </filter>
  <filter id="filter3174-9" color-interpolation-filters="sRGB">
   <feGaussianBlur id="feGaussianBlur3176-4" stdDeviation="1.71"/>
  </filter>
  <radialGradient id="radialGradient12577" xlink:href="#linearGradient6793" gradientUnits="userSpaceOnUse" cy="241.05" cx="353.63" gradientTransform="matrix(-1 0 0 .98782 582.03 46.933)" r="220.12"/>
  <radialGradient id="radialGradient12579" xlink:href="#linearGradient6793" gradientUnits="userSpaceOnUse" cy="241.05" cx="353.63" gradientTransform="matrix(-.99918 -.040586 -.040092 0.987 587.8 48.361)" r="220.12"/>
  <radialGradient id="radialGradient12629" xlink:href="#linearGradient6793" gradientUnits="userSpaceOnUse" cy="241.05" cx="353.63" gradientTransform="matrix(-.14011 0 0 .13702 342.95 -169.26)" r="220.12"/>
  <radialGradient id="radialGradient12640" xlink:href="#linearGradient6793" gradientUnits="userSpaceOnUse" cy="241.05" cx="353.63" gradientTransform="matrix(-.13999 -.0056299 -.0056171 .13691 343.75 -169.06)" r="220.12"/>
  <radialGradient id="radialGradient4328" cx="32.022" xlink:href="#linearGradient3965-8" gradientUnits="userSpaceOnUse" cy="78.418" r="5.6523" gradientTransform="matrix(1.1431 -1.2402e-7 1.2566e-7 1.1583 -4.5832 -12.722)"/>
  <radialGradient id="radialGradient4316" cx="63.542" xlink:href="#linearGradient3965-8" gradientUnits="userSpaceOnUse" cy="74.851" r="5.1742" gradientTransform="matrix(.91291 .17109 -.15119 .80673 -28.549 -51.361)"/>
  <radialGradient id="radialGradient4299" cx="73.589" xlink:href="#linearGradient3965-8" gradientUnits="userSpaceOnUse" cy="27.282" r="4.5674" gradientTransform="matrix(1.4991 3.2162e-7 -4.6083e-7 2.148 -36.729 -30.907)"/>
  <radialGradient id="radialGradient4244" cx="73.589" xlink:href="#linearGradient3965-8" gradientUnits="userSpaceOnUse" cy="27.282" r="4.5674" gradientTransform="matrix(.92125 1.9765e-7 -2.832e-7 1.32 -45.425 -7.8133)"/>
  <radialGradient id="radialGradient4218" cx="24.56" xlink:href="#linearGradient3965-8" gradientUnits="userSpaceOnUse" cy="64.916" r="2.6787" gradientTransform="matrix(1.1677 -3.567e-7 3.3401e-7 1.0934 48.025 7.5181)"/>
  <radialGradient id="radialGradient4191" cx="63.542" xlink:href="#linearGradient3965-8" gradientUnits="userSpaceOnUse" cy="74.851" r="5.1742" gradientTransform="matrix(1.1042 2.3478e-8 -2.0748e-8 .97574 -3.4039 7.4672)"/>
  <radialGradient id="radialGradient4156" cx="77.151" xlink:href="#linearGradient3965-8" gradientUnits="userSpaceOnUse" cy="71.062" r="4.1481" gradientTransform="matrix(1.1221 -1.5158e-7 1.5032e-7 1.1128 -11.565 -12.425)"/>
  <radialGradient id="radialGradient4122" cx="17.235" xlink:href="#linearGradient3965-8" gradientUnits="userSpaceOnUse" cy="74.411" r="4.1366" gradientTransform="matrix(.99423 -7.2336e-8 7.2103e-8 .99102 63.476 -35.574)"/>
  <radialGradient id="radialGradient4057" cx="24.56" xlink:href="#linearGradient3965-8" gradientUnits="userSpaceOnUse" cy="64.916" r="2.6787" gradientTransform="matrix(1.1677 -3.567e-7 3.3401e-7 1.0934 -4.1176 -6.4104)"/>
  <radialGradient id="radialGradient3971" cx="17.235" xlink:href="#linearGradient3965-8" gradientUnits="userSpaceOnUse" cy="74.411" r="4.1366" gradientTransform="matrix(1.415 -1.0295e-7 1.0262e-7 1.4104 -8.2233 -35.483)"/>
  <filter id="filter3174-05" color-interpolation-filters="sRGB">
   <feGaussianBlur id="feGaussianBlur3176-5" stdDeviation="1.71"/>
  </filter>
  <linearGradient id="linearGradient3965-8">
   <stop id="stop3967" style="stop-color:#5fabd3" offset="0"/>
   <stop id="stop3969" style="stop-color:#0e3e5d" offset="1"/>
  </linearGradient>
  <clipPath id="clipPath3613-7">
   <rect id="rect3615-00" style="fill:#fff" rx="6" ry="6" height="84" width="84" y="6" x="6"/>
  </clipPath>
  <filter id="filter3794-7" height="1.384" width="1.384" color-interpolation-filters="sRGB" y="-.192" x="-.192">
   <feGaussianBlur id="feGaussianBlur3796-2" stdDeviation="5.28"/>
  </filter>
  <filter id="filter3174-94" color-interpolation-filters="sRGB">
   <feGaussianBlur id="feGaussianBlur3176-53" stdDeviation="1.71"/>
  </filter>
 </defs>
 <rect id="rect892" style="stroke:url(#linearGradient3521);stroke-width:.97385;fill:url(#linearGradient3519)" transform="scale(1,-1)" ry="29.296" height="115.54" width="114.22" y="-122.25" x="7.0394"/>
 <rect id="rect892-2" style="stroke:url(#linearGradient3516);stroke-width:.97385;fill:url(#linearGradient3514)" transform="scale(1,-1)" ry="28.993" height="114.35" width="114.22" y="-121.46" x="7.0599"/>
 <path id="rect895" style="fill:url(#radialGradient3349)" d="m33.051 7.2596c-7.969-2.4493-27.013 15.174-25.653 23.038-0.050142 0.97378-0.088772 1.9648-0.088772 2.9572v52.419c0 20.876 10.712 33.859 22.318 33.859h67.038c12.638 0 24.318-11.245 24.318-25.859v-64.017c0.7-10.928-21.283-24.659-25.926-22.618-47.846 0.8653-18.017 0.2236-62.003 0.2236z"/>
 <rect id="rect892-2-7-8" style="opacity:.15891;stroke:#000;stroke-width:4.8445;fill:none" transform="scale(1,-1)" ry="28.993" height="114.35" width="114.22" y="-121.16" x="6.8687"/>
 <rect id="rect892-2-7-1" style="opacity:.15891;stroke:#000;stroke-width:7.7512;fill:none" transform="scale(1,-1)" ry="28.993" height="114.35" width="114.22" y="-121.16" x="6.8687"/>
 <rect id="rect892-2-7-2-9" ry="28.067" style="stroke:#000;stroke-width:1.0489;fill:none" transform="scale(1,-1)" height="112.71" width="114.14" y="-120.31" x="7.0649"/>
 <path id="path1187" style="fill:#fff;fill-opacity:.057143" d="m33.017 7.2319c-23.707 0-26.027 0.6738-25.93 26.295-0.04334 0.71563-0.07674 1.4439-0.07674 2.1732v32.76c18.67-38.321 38.34-51.497 90.374-61.179-0.225-0.026-0.46-0.0303-0.691-0.0303-41.576 0.3874-25.652-0.0188-63.676-0.0188z"/>
 <g id="layer2" style="display:none" transform="translate(-183.05 -205.14)">
  <rect id="rect3745" style="opacity:.9;filter:url(#filter3174);fill:url(#ButtonShadow-4)" rx="6" ry="6" height="85" width="86" y="7" x="5"/>
 </g>
 <g id="layer5" style="display:none" transform="translate(-183.05 -205.14)">
  <rect id="rect3171" style="opacity:.1;filter:url(#filter3794);stroke:#fff;stroke-linecap:round;stroke-width:.5;fill:url(#linearGradient3613)" clip-path="url(#clipPath3613)" rx="12" ry="12" height="66" width="66" y="15" x="15"/>
 </g>
 <g id="layer2-4" style="display:none" transform="translate(16,14.5)">
  <rect id="rect3745-6" style="opacity:.9;filter:url(#filter3174-0);fill:url(#ButtonShadow-4)" rx="6" ry="6" height="85" width="86" y="7" x="5"/>
 </g>
 <g id="layer2-2" style="display:none" transform="translate(212.65 -37.864)">
  <rect id="rect3745-8" style="opacity:.9;filter:url(#filter3174-7);fill:url(#ButtonShadow-4)" rx="6" ry="6" height="85" width="86" y="7" x="5"/>
 </g>
 <g id="layer2-8" style="display:none" transform="translate(210.69 6.565)">
  <rect id="rect3745-9" style="opacity:.9;filter:url(#filter3174-4);fill:url(#ButtonShadow-4)" rx="6" ry="6" height="85" width="86" y="7" x="5"/>
 </g>
 <g id="layer2-5" style="display:none" transform="translate(156.31 -189.8)">
  <rect id="rect3745-4" style="opacity:.9;filter:url(#filter3174-9);fill:url(#ButtonShadow-4)" rx="6" ry="6" height="85" width="86" y="7" x="5"/>
 </g>
 <g id="g2960" style="enable-background:new" transform="matrix(.17756 0 0 .17756 49.336 -180.88)">
  <g id="layer3-8" style="display:none">
   <path id="path2544" d="m324.39 135.62c-45.381 3.2742-125.15 80.453-113.93 80.062 92.777-3.2339 150.73 2.1051 223.12 24.581 10.719 3.328-11.566-97.11-109.18-104.64z" style="filter:url(#filter3985);enable-background:new;display:inline;fill:#dbdbdb"/>
   <path id="path2546" d="m186.38 72.15c-25.8 37.48-29.04 184.14-22.38 175.11 54.89-74.46 186.45-166.41 264.91-203.43 96.99-45.773-185.1-40.189-242.53 28.32z" style="stroke-width:0;filter:url(#filter3989);enable-background:new;display:inline;fill:#dbdbdb"/>
   <path id="path2548" d="m69.552 231.68c14.867 43 110.01 100.17 106.74 89.43-27.05-88.8-36.84-146.17-33.79-221.91 0.45-11.213-90.845 36.22-72.948 132.48z" style="filter:url(#filter3993);enable-background:new;display:inline;fill:#dbdbdb"/>
   <path id="path2550" d="m81.977 372.85c42.137 17.165 147.84-16.699 137.61-21.316-84.613-38.194-134.2-68.649-189.15-120.86-8.1358-7.7313-32.643 92.188 51.541 142.18z" style="filter:url(#filter3997);enable-background:new;display:inline;fill:#dbdbdb"/>
   <path id="path2552" d="m203.89 453.63c40.287-21.145 82.546-123.78 72.421-118.94-83.746 40.058-139 58.333-214.34 66.674-11.155 1.235 49.428 84.386 141.92 52.263z" style="filter:url(#filter4001);enable-background:new;display:inline;fill:#dbdbdb"/>
   <path id="path2554" d="m345.96 410.03c9.8413-44.421-41.301-142.93-44.134-132.07-23.435 89.827-45.125 143.83-87.365 206.77-6.2545 9.3191 96.362 16.69 131.5-74.696z" style="filter:url(#filter4005);enable-background:new;display:inline;fill:#dbdbdb"/>
   <path id="path2556" d="m401.89 270.24c-27.37-36.34-135.48-61.47-129.07-52.26 53.056 76.178 80.014 127.75 100.41 200.76 3.0202 10.809 75.297-62.406 28.659-148.49z" style="filter:url(#filter4009);enable-background:new;display:inline;fill:#dbdbdb"/>
  </g>
  <g id="g2591" transform="translate(-14.911 -7.085)">
   <g id="layer1-2">
    <path id="path3212" d="m324.39 135.62c-45.381 3.2742-125.15 80.453-113.93 80.062 92.777-3.2339 150.73 2.1051 223.12 24.581 10.719 3.328-11.566-97.11-109.18-104.64z" style="fill:url(#radialGradient12577)"/>
    <path id="path3215" d="m186.38 72.15c-25.8 37.48-29.04 184.14-22.38 175.11 54.89-74.46 186.45-166.41 264.91-203.43 96.99-45.773-185.1-40.189-242.53 28.32z" style="stroke-width:0;fill:url(#radialGradient12579)"/>
    <path id="path3217" d="m69.552 231.68c14.867 43 110.01 100.17 106.74 89.43-27.05-88.8-36.84-146.17-33.79-221.91 0.45-11.213-90.845 36.22-72.948 132.48z" style="fill:#cde1e9"/>
    <path id="path3219" d="m81.977 372.85c42.137 17.165 147.84-16.699 137.61-21.316-84.613-38.194-134.2-68.649-189.15-120.86-8.1358-7.7313-32.643 92.188 51.541 142.18z" style="fill:#cde1e9"/>
    <path id="path3221" d="m203.89 453.63c40.287-21.145 82.546-123.78 72.421-118.94-83.746 40.058-139 58.333-214.34 66.674-11.155 1.235 49.428 84.386 141.92 52.263z" style="fill:url(#radialGradient12577)"/>
    <path id="path3223" d="m345.96 410.03c9.8413-44.421-41.301-142.93-44.134-132.07-23.435 89.827-45.125 143.83-87.365 206.77-6.2545 9.3191 96.362 16.69 131.5-74.696z" style="fill:url(#radialGradient12577)"/>
    <path id="path3225" d="m401.89 270.24c-27.37-36.34-135.48-61.47-129.07-52.26 53.056 76.178 80.014 127.75 100.41 200.76 3.0202 10.809 75.297-62.406 28.659-148.49z" style="fill:url(#radialGradient12577)"/>
   </g>
   <g id="layer2-4-2" style="filter:url(#filter3383)">
    <path id="path3372" d="m394.59 14.188c-66.72-0.22-175.01 18.361-208.21 57.968-25.8 37.474-29.04 184.12-22.38 175.09 54.89-74.46 186.44-166.41 264.91-203.44 40.91-19.306 14.37-29.462-34.32-29.622zm-27.438 16.375c38.646 0.12728 59.696 8.2051 27.219 23.531-62.28 29.39-166.68 102.37-210.25 161.47-5.2863 7.1706-2.7286-109.22 17.75-138.97 26.36-31.437 112.33-46.205 165.29-46.031z" style="enable-background:new;stroke-width:0;fill:url(#radialGradient12579)"/>
    <path id="path3387" d="m324.38 135.62c-45.381 3.2742-125.12 80.453-113.91 80.062 92.777-3.2339 150.7 2.1178 223.09 24.594 10.719 3.328-11.569-97.123-109.19-104.66zm0.875 8.9688c73.717 5.6891 90.563 81.544 82.469 79.031-54.666-16.973-98.439-21.005-168.5-18.562-8.4703 0.29526 51.762-57.996 86.031-60.469z" style="enable-background:new;fill:url(#radialGradient12577)"/>
    <path id="path3397" d="m275.41 216.09c-2.3958 0.12327-3.3955 0.72377-2.5938 1.875 53.056 76.178 80.04 127.78 100.44 200.78 3.0202 10.809 75.294-62.413 28.656-148.5-23.951-31.8-109.73-55.019-126.5-54.156zm17.4 16.66c13.816-0.71086 84.456 18.428 104.19 44.625 38.42 70.919-21.106 131.22-23.594 122.31-16.804-60.14-39.011-102.62-82.719-165.38-0.66052-0.94838 0.15135-1.461 2.125-1.5625z" style="enable-background:new;fill:url(#radialGradient12577)"/>
    <path id="path3413" d="m302.53 277.12c-0.33385 0.0453-0.58594 0.33469-0.71875 0.84375-23.435 89.827-45.103 143.81-87.344 206.75-6.2545 9.3191 96.363 16.699 131.5-74.688 9.38-42.339-36.649-133.83-43.438-132.91zm-3.75 42.312c4.8256-0.65425 37.543 64.37 30.875 94.469-24.979 64.965-97.915 59.75-93.469 53.125 30.028-44.742 45.434-83.143 62.094-147 0.0944-0.36188 0.26267-0.56157 0.5-0.59375z" style="enable-background:new;fill:url(#radialGradient12577)"/>
    <path id="path3423" d="m276.75 334.53c-0.13283 0.0239-0.2793 0.0806-0.4375 0.15625-83.746 40.058-139.01 58.347-214.34 66.688-11.155 1.235 49.418 84.374 141.91 52.25 39.657-20.814 81.243-120.6 72.875-119.09zm-24.125 16.188c6.491-1.1685-25.739 76.23-56.5 92.375-71.741 24.918-118.75-39.573-110.09-40.531 58.438-6.4699 101.29-20.647 166.25-51.719 0.12271-0.0587 0.24072-0.10645 0.34375-0.125z" style="enable-background:new;fill:url(#radialGradient12577)"/>
   </g>
  </g>
 </g>
 <path id="path3095" d="m324.39 135.62c-45.381 3.2742-125.15 80.453-113.93 80.062 92.777-3.2339 150.73 2.1051 223.12 24.581 10.719 3.328-11.566-97.11-109.18-104.64z" style="filter:url(#filter3985);enable-background:new;display:none;fill:#dbdbdb" transform="matrix(.17756 0 0 .17756 159.34 -180.88)"/>
 <path id="path3097" d="m186.38 72.15c-25.8 37.48-29.04 184.14-22.38 175.11 54.89-74.46 186.45-166.41 264.91-203.43 96.99-45.773-185.1-40.189-242.53 28.32z" style="stroke-width:0;filter:url(#filter3989);enable-background:new;display:none;fill:#dbdbdb" transform="matrix(.17756 0 0 .17756 159.34 -180.88)"/>
 <path id="path3099" d="m69.552 231.68c14.867 43 110.01 100.17 106.74 89.43-27.05-88.8-36.84-146.17-33.79-221.91 0.45-11.213-90.845 36.22-72.948 132.48z" style="filter:url(#filter3993);enable-background:new;display:none;fill:#dbdbdb" transform="matrix(.17756 0 0 .17756 159.34 -180.88)"/>
 <path id="path3101" d="m81.977 372.85c42.137 17.165 147.84-16.699 137.61-21.316-84.613-38.194-134.2-68.649-189.15-120.86-8.1358-7.7313-32.643 92.188 51.541 142.18z" style="filter:url(#filter3997);enable-background:new;display:none;fill:#dbdbdb" transform="matrix(.17756 0 0 .17756 159.34 -180.88)"/>
 <path id="path3103" d="m203.89 453.63c40.287-21.145 82.546-123.78 72.421-118.94-83.746 40.058-139 58.333-214.34 66.674-11.155 1.235 49.428 84.386 141.92 52.263z" style="filter:url(#filter4001);enable-background:new;display:none;fill:#dbdbdb" transform="matrix(.17756 0 0 .17756 159.34 -180.88)"/>
 <path id="path3105" d="m345.96 410.03c9.8413-44.421-41.301-142.93-44.134-132.07-23.435 89.827-45.125 143.83-87.365 206.77-6.2545 9.3191 96.362 16.69 131.5-74.696z" style="filter:url(#filter4005);enable-background:new;display:none;fill:#dbdbdb" transform="matrix(.17756 0 0 .17756 159.34 -180.88)"/>
 <path id="path3107" d="m401.89 270.24c-27.37-36.34-135.48-61.47-129.07-52.26 53.056 76.178 80.014 127.75 100.41 200.76 3.0202 10.809 75.297-62.406 28.659-148.49z" style="filter:url(#filter4009);enable-background:new;display:none;fill:#dbdbdb" transform="matrix(.17756 0 0 .17756 159.34 -180.88)"/>
 <path id="path4091" d="m306.85-156.96c-6.3581 0.45417-17.534 11.16-15.963 11.106 12.999-0.44859 21.118 0.29201 31.26 3.4097 1.5017 0.46164-1.6205-13.471-15.297-14.516z" style="fill:url(#radialGradient12629)"/>
 <path id="path4093" d="m287.51-165.76c-3.6147 5.1985-4.0685 25.543-3.1354 24.29 7.6905-10.328 26.123-23.083 37.116-28.219 13.589-6.3487-25.934-5.5742-33.981 3.929z" style="stroke-width:0;fill:url(#radialGradient12640)"/>
 <path id="path4095" d="m271.14-143.63c2.083 5.9648 15.413 13.895 14.955 12.405-3.7901-12.318-5.1614-20.276-4.7346-30.782 0.0632-1.5556-12.727 5.0242-10.22 18.377z" style="fill:#cde1e9"/>
 <path id="path4097" d="m272.88-124.05c5.9036 2.381 20.713-2.3164 19.28-2.9569-11.855-5.2981-18.803-9.5226-26.501-16.765-1.1399-1.0724-4.5734 12.788 7.2212 19.722z" style="fill:#cde1e9"/>
 <path id="path4099" d="m289.96-112.85c5.6444-2.9331 11.565-17.17 10.147-16.498-11.733 5.5566-19.474 8.0917-30.03 9.2487-1.5629 0.17131 6.9251 11.706 19.883 7.2496z" style="fill:url(#radialGradient12629)"/>
 <path id="path4101" d="m309.87-118.89c1.3788-6.1619-5.7864-19.827-6.1834-18.32-3.2834 12.46-6.3223 19.951-12.24 28.682-0.87629 1.2927 13.501 2.3151 18.424-10.361z" style="fill:url(#radialGradient12629)"/>
 <path id="path4103" d="m317.71-138.28c-3.8351-5.0413-18.982-8.5272-18.084-7.2497 7.4334 10.567 11.21 17.721 14.068 27.848 0.42315 1.4994 10.55-8.6566 4.0153-20.598z" style="fill:url(#radialGradient12629)"/>
 <g id="layer2-7" style="display:none" transform="translate(16.527 14.97)">
  <rect id="rect3745-7" style="opacity:.9;filter:url(#filter3174-05);fill:url(#ButtonShadow-4)" rx="6" ry="6" height="85" width="86" y="7" x="5"/>
 </g>
 <g id="layer6" style="display:none" transform="translate(16.527 14.97)">
  <g id="g4286">
   <path id="path3990" style="opacity:.5;fill:#162d50" transform="translate(-1.0714 -4.8214)" d="m17.812 68.781c-1.096-0.13845-2.1739 0.05447-2.875 0.8125-0.69671 0.75325-0.9602 2.0091-0.59375 3.7188 0.0019 0.0093-0.0019 0.02192 0 0.03125 0.28305 1.359 1.2468 2.6344 2.4688 3.375 1.2228 0.74108 2.7733 0.92112 4.0938-0.03125 0.01447-0.0086 0.01692-0.02263 0.03125-0.03125 1.2061-0.72581 1.9187-1.5553 2.1562-2.4375 0.2404-0.89264-0.0061-1.7669-0.5-2.5312-0.98785-1.5287-2.9554-2.6756-4.7812-2.9062z"/>
   <path id="path3941" style="fill:url(#radialGradient3971)" d="m19.653 70.54c7.5387-4.474-7.9511-11.971-6.0217-3.1254 0.50164 2.4915 3.6253 4.8831 6.0217 3.1254z"/>
   <path id="path3973" style="opacity:.9;fill:#fff" transform="matrix(.97008 .53881 -.41399 .74535 28.539 1.8401)" d="m20.703 70.965a1.2422 1.0192 0 1 1 -2.4844 0 1.2422 1.0192 0 1 1 2.4844 0z"/>
   <path id="path3975" style="opacity:.9;fill:#fff" transform="matrix(.44544 .41028 -.31820 .34547 34.149 34.232)" d="m20.703 70.965a1.2422 1.0192 0 1 1 -2.4844 0 1.2422 1.0192 0 1 1 2.4844 0z"/>
   <path id="path3977" style="opacity:.5;fill:#fff" d="m13.491 65.647c-0.04037 0.49747 0.0071 1.0974 0.15625 1.7812 0.50164 2.4915 3.6037 4.8827 6 3.125 1.7491-1.038 2.2563-2.2534 2.0312-3.375-0.17314 0.81419-0.7899 1.6383-2.0312 2.375-2.3963 1.7577-5.4984-0.63353-6-3.125-0.06029-0.27644-0.12874-0.53614-0.15625-0.78125z"/>
  </g>
  <g id="g4280">
   <path id="path4028" style="opacity:.5;fill:#162d50" d="m32.844 71.062c-2.4621 0.47955-4.7658 2.018-5.9375 4.3125a0.60151 0.60151 0 0 0 -0.031 0.064c-0.5869 1.4674 0.09545 2.9559 0.875 4 0.0079 0.01052 0.02338 0.02082 0.03125 0.03125 0.77033 1.0785 1.8469 1.9897 3.1562 2.4375 1.1277 0.39872 2.4108 0.5381 3.625 0.125a0.60151 0.60151 0 0 0 0.094 -0.032c1.7425-0.85832 3.5499-2.1372 4.2812-4.1875 0.0032-0.0091-0.0032-0.02215 0-0.03125 0.33894-0.90428 0.357-2.0324-0.28125-2.9062-0.0046-0.0064-0.02666 0.0063-0.03125 0-0.0047-0.0065 0.0047-0.0248 0-0.03125-0.78419-1.0714-1.8538-1.6497-2.5-2.4062a0.60151 0.60151 0 0 0 -0.09375 -0.09375c-0.84342-0.69148-1.8691-1.1778-3-1.2812a0.60151 0.60151 0 0 0 -0.1875 0z"/>
   <path id="path3999" style="fill:url(#radialGradient4328)" d="m32.964 70.671c-2.2918 0.44638-4.4458 1.8835-5.5195 3.9861-0.4765 1.1914 0.08385 2.4883 0.80804 3.4476 0.71224 1.0092 1.6916 1.846 2.8713 2.2494 1.0306 0.36436 2.1993 0.48138 3.2458 0.12533 1.6841-0.82954 3.3604-2.058 4.0051-3.8955 0.29541-0.769 0.2898-1.6878-0.22234-2.3657-0.68011-0.94792-1.7423-1.52-2.4944-2.4006-0.76419-0.62652-1.7046-1.0562-2.6939-1.1467z"/>
   <path id="path4030" style="opacity:.9;fill:#fff" transform="matrix(.94813 .31787 -.31787 .94813 23.894 -7.3129)" d="m36.916 73.141a1.976 1.1228 0 1 1 -3.9521 0 1.976 1.1228 0 1 1 3.9521 0z"/>
   <path id="path4032" style="opacity:.5;fill:#fff" d="m27.75 74.156c-0.10393 0.16578-0.22303 0.32478-0.3125 0.5-0.4765 1.1914 0.08831 2.4782 0.8125 3.4375 0.71224 1.0092 1.6954 1.8465 2.875 2.25 1.0306 0.36436 2.2035 0.48105 3.25 0.125 1.6139-0.79498 3.2077-1.9436 3.9062-3.6562-0.80889 1.3134-2.163 2.2635-3.5312 2.9375-1.0465 0.35605-2.2194 0.23936-3.25-0.125-1.1796-0.40346-2.1628-1.2408-2.875-2.25-0.67892-0.89932-1.2034-2.0911-0.875-3.2188z"/>
  </g>
  <g id="g4293">
   <path id="path4077" style="opacity:.5;fill:#162d50" d="m24.812 61.75c-0.23996-0.01798-0.47963-0.01998-0.71875 0.03125-0.70346 0.15072-1.3975 0.55046-1.7812 1.125-0.19189 0.28727-0.31422 0.63561-0.28125 1s0.24232 0.71375 0.5625 1.0312c0.57203 0.56831 1.3793 1.1609 2.2812 1.4375 0.90192 0.2766 1.956 0.21305 2.6875-0.59375 0.39794-0.41946 0.58512-0.90515 0.59375-1.375 0.0086-0.46985-0.17096-0.91006-0.4375-1.2812-0.502-0.7-1.34-1.163-2.218-1.219-0.049-0.022-0.105-0.013-0.156-0.031-0.174-0.061-0.346-0.111-0.532-0.125z"/>
   <path id="path4041" style="fill:url(#radialGradient4057)" d="m25.329 61.599c-1.3802-0.61534-3.9284 1.0052-2.4756 2.4459 1.0663 1.0594 3.1701 2.2198 4.4233 0.83753 1.3781-1.4526-0.36132-3.2799-1.9477-3.2834z"/>
   <path id="path4059" style="opacity:.9;fill:#fff" transform="matrix(.62585 .34761 -.26708 .48086 32.437 21.787)" d="m20.703 70.965a1.2422 1.0192 0 1 1 -2.4844 0 1.2422 1.0192 0 1 1 2.4844 0z"/>
   <path id="path4061" style="opacity:.5;fill:#fff" d="m23.219 61.938c-0.74698 0.50112-1.1661 1.3093-0.375 2.0938 1.0288 1.0222 3.0166 2.1331 4.2812 0.96875-1.2568 0.68942-3.0045-0.32303-3.9375-1.25-0.65657-0.65107-0.46939-1.3109 0.03125-1.8125z"/>
  </g>
  <g id="g4246" transform="translate(-.17857 -1.25)">
   <path id="path4106" style="opacity:.5;fill:#162d50" d="m75.375 20.062c-0.29738 0.07576-0.57557 0.20932-0.8125 0.375-0.47386 0.33135-0.86798 0.7614-1.1875 1.0312-1.1331 0.84596-2.4698 2.0513-3.25 3.4688-0.39009 0.70872-0.64525 1.4843-0.625 2.2812 0.02025 0.79699 0.32215 1.5918 0.96875 2.3438a0.39841 0.39841 0 0 0 0.031 0.032c1.0986 1.2056 2.8587 1.8102 4.5312 1.7188 1.6726-0.0915 3.2941-0.95525 3.9062-2.7188 0.49382-1.4239 0.66473-3.1548 0.3125-4.75s-1.2557-3.0768-2.9062-3.75a0.39841 0.39841 0 0 0 -0.03125 0c-0.332-0.108-0.641-0.107-0.938-0.032z"/>
   <path id="path4079" style="fill:url(#radialGradient4299)" d="m73.75 20.643c-2.2131 1.6523-5.2241 4.7522-2.842 7.5224 1.9951 2.1893 6.6795 2.3683 7.7886-0.82696 0.93902-2.7077 0.64351-6.7619-2.3831-7.9964-1.036-0.337-1.864 0.71-2.564 1.301z"/>
   <path id="path4097-7" style="opacity:.9;fill:#fff" transform="matrix(.62697 .40034 -.40034 .62697 83.656 -38.375)" d="m36.916 73.141a1.976 1.1228 0 1 1 -3.9521 0 1.976 1.1228 0 1 1 3.9521 0z"/>
   <path id="path4099-2" style="opacity:.5;fill:#fff" d="m71.125 23.219c-1.1201 1.5171-1.6502 3.2728-0.21875 4.9375 1.9044 2.0899 6.2373 2.354 7.5938-0.40625-1.7221 1.9201-5.3879 1.5282-7.0938-0.34375-1.191-1.3851-1.0129-2.8597-0.28125-4.1875z"/>
   <path id="path4108" style="opacity:.9;fill:#fff" transform="matrix(.62697 .40034 -.40034 .62697 83.656 -38.375)" d="m36.916 73.141a1.976 1.1228 0 1 1 -3.9521 0 1.976 1.1228 0 1 1 3.9521 0z"/>
   <path id="path4110" style="opacity:.9;fill:#fff" transform="matrix(.39975 .25525 -.25525 .39975 82.353 -14.204)" d="m36.916 73.141a1.976 1.1228 0 1 1 -3.9521 0 1.976 1.1228 0 1 1 3.9521 0z"/>
  </g>
  <g id="g4254">
   <path id="path4112" style="opacity:.5;fill:#162d50" transform="matrix(.70265 0 0 .70265 68.502 -14.03)" d="m17.812 68.781c-1.096-0.13845-2.1739 0.05447-2.875 0.8125-0.69671 0.75325-0.9602 2.0091-0.59375 3.7188 0.0019 0.0093-0.0019 0.02192 0 0.03125 0.28305 1.359 1.2468 2.6344 2.4688 3.375 1.2228 0.74108 2.7733 0.92112 4.0938-0.03125 0.01447-0.0086 0.01692-0.02263 0.03125-0.03125 1.2061-0.72581 1.9187-1.5553 2.1562-2.4375 0.2404-0.89264-0.0061-1.7669-0.5-2.5312-0.98785-1.5287-2.9554-2.6756-4.7812-2.9062z"/>
   <path id="path4114" style="fill:url(#radialGradient4122)" d="m83.064 38.923c5.2971-3.1437-5.5868-8.4117-4.2311-2.1961 0.35247 1.7506 2.5473 3.4311 4.2311 2.1961z"/>
   <path id="path4116" style="opacity:.9;fill:#fff" transform="matrix(.68162 .37859 -.29089 .52372 89.308 -9.3493)" d="m20.703 70.965a1.2422 1.0192 0 1 1 -2.4844 0 1.2422 1.0192 0 1 1 2.4844 0z"/>
   <path id="path4118" style="opacity:.9;fill:#fff" transform="matrix(.31299 .28828 -.22358 .24274 93.249 13.411)" d="m20.703 70.965a1.2422 1.0192 0 1 1 -2.4844 0 1.2422 1.0192 0 1 1 2.4844 0z"/>
   <path id="path4120" style="opacity:.5;fill:#fff" d="m78.734 35.485c-0.02837 0.34955 0.005 0.77106 0.10979 1.2516 0.35247 1.7506 2.5321 3.4308 4.2159 2.1958 1.229-0.72937 1.5854-1.5833 1.4273-2.3714-0.12166 0.57209-0.55502 1.1511-1.4273 1.6688-1.6838 1.235-3.8634-0.44515-4.2159-2.1958-0.04236-0.19424-0.09046-0.37672-0.10979-0.54894z"/>
  </g>
  <g id="g4261">
   <path id="path4169" style="opacity:.5;fill:#162d50" transform="translate(-2.1429 -4.4894)" d="m77.469 66.781c-1.071 0.038-2.133 0.352-3.094 0.969a0.41426 0.41426 0 0 0 -0.0625 0.03125c-0.85747 0.81693-1.3975 2.1584-0.90625 3.375 0.28832 0.75959 0.89836 1.2099 1.3438 1.625a0.41426 0.41426 0 0 0 0.03125 0c1.1602 0.93734 2.6455 1.5358 4.1875 1.4375 1.0709-0.06028 2.1116-0.6351 2.625-1.625 0.19713-0.40879 0.5677-0.88841 0.6875-1.5312 0.0019-0.01035-0.0018-0.02081 0-0.03125 0.307-1.402-0.442-2.8-1.593-3.531a0.41426 0.41426 0 0 0 -0.03125 -0.03125c-1.0299-0.48814-2.1146-0.72579-3.1875-0.6875z"/>
   <path id="path4124" style="fill:url(#radialGradient4156)" d="m72.448 62.996c-0.75628 0.72053-1.2091 1.8819-0.80027 2.8944 0.23408 0.6167 0.76816 1.0344 1.2355 1.4699 1.0916 0.88191 2.4987 1.4501 3.9166 1.3598 0.93573-0.05267 1.845-0.5777 2.2818-1.42 0.22651-0.46972 0.55559-0.89979 0.64635-1.4269 0.2784-1.2116-0.3824-2.4857-1.4052-3.1352-1.9529-0.9256-4.075-0.89813-5.8748 0.25797z"/>
   <path id="path4143" style="opacity:.9;fill:#fff" transform="matrix(1.1669 .42020 -.32831 .88167 77.564 -7.0664)" d="m20.703 70.965a1.2422 1.0192 0 1 1 -2.4844 0 1.2422 1.0192 0 1 1 2.4844 0z"/>
   <path id="path4158" style="opacity:.5;fill:#fff" d="m72.076 63.455c-0.50608 0.70291-0.76969 1.6149-0.4375 2.4375 0.23408 0.6167 0.78268 1.0332 1.25 1.4688 1.0916 0.88191 2.4884 1.4341 3.9062 1.3438 0.93573-0.05267 1.8444-0.56395 2.2812-1.4062 0.0303-0.06283 0.0606-0.12576 0.09375-0.1875-0.48198 0.64485-1.2581 1.0485-2.0625 1.0938-1.4179 0.09035-2.8146-0.46184-3.9062-1.3438-0.46732-0.43554-1.0159-0.85205-1.25-1.4688-0.25553-0.63281-0.15637-1.3323 0.125-1.9375z"/>
  </g>
  <g id="g4273">
   <path id="path4208" style="opacity:.5;fill:#162d50" transform="translate(3.2143 6.7121)" d="m64.875 68.438c-1.5229 0.52214-3.8266 1.5894-5.2188 3-0.69607 0.7053-1.2083 1.5469-1.0938 2.4688 0.11329 0.91161 0.83366 1.7576 2.1562 2.5 0.01156 0.0076 0.01962 0.02372 0.03125 0.03125 1.6894 1.0943 4.0701 1.2592 6 0.5625 0.9716-0.35076 1.847-0.94604 2.4062-1.7812 0.55921-0.83521 0.78418-1.9136 0.53125-3.1562-0.38386-2.1828-2.4288-3.9202-4.7188-3.625a0.45515 0.45515 0 0 0 -0.09375 0z"/>
   <path id="path4171" style="fill:url(#radialGradient4191)" d="m68.244 74.946c-2.9451 1.0097-9.215 4.3231-4.0753 7.1694 3.0735 2.0259 9.2257 0.6826 8.2955-3.8878-0.34268-1.9486-2.1986-3.5422-4.2203-3.2816z"/>
   <path id="path4193" style="opacity:.9;fill:#fff" transform="matrix(1.1919 .35581 -.33534 .74658 69.843 16.659)" d="m20.703 70.965a1.2422 1.0192 0 1 1 -2.4844 0 1.2422 1.0192 0 1 1 2.4844 0z"/>
   <path id="path4195" style="opacity:.9;fill:#fff" transform="matrix(.64235 .16267 -.18073 .34131 71.286 50.866)" d="m20.703 70.965a1.2422 1.0192 0 1 1 -2.4844 0 1.2422 1.0192 0 1 1 2.4844 0z"/>
   <path id="path4197" style="opacity:.5;fill:#fff" d="m62.402 78.915c-0.46062 1.0342-0.1066 2.142 1.7812 3.1875 2.7291 1.7988 7.8423 0.94563 8.3125-2.4688-1.1119 2.7261-5.659 3.3335-8.1562 1.6875-1.4095-0.78055-1.9402-1.6126-1.9375-2.4062z"/>
  </g>
  <g id="g4267">
   <path id="path4210" style="opacity:.5;fill:#162d50" transform="translate(52.143 13.929)" d="m24.812 61.75c-0.23996-0.01798-0.47963-0.01998-0.71875 0.03125-0.70346 0.15072-1.3975 0.55046-1.7812 1.125-0.19189 0.28727-0.31422 0.63561-0.28125 1s0.24232 0.71375 0.5625 1.0312c0.57203 0.56831 1.3793 1.1609 2.2812 1.4375 0.90192 0.2766 1.956 0.21305 2.6875-0.59375 0.39794-0.41946 0.58512-0.90515 0.59375-1.375 0.0086-0.46985-0.17096-0.91006-0.4375-1.2812-0.502-0.7-1.34-1.163-2.218-1.219-0.049-0.022-0.105-0.013-0.156-0.031-0.174-0.061-0.346-0.111-0.532-0.125z"/>
   <path id="path4212" style="fill:url(#radialGradient4218)" d="m77.472 75.527c-1.3802-0.61534-3.9284 1.0052-2.4756 2.4459 1.0663 1.0594 3.1701 2.2198 4.4233 0.83753 1.3781-1.4526-0.36132-3.2799-1.9477-3.2834z"/>
   <path id="path4214" style="opacity:.9;fill:#fff" transform="matrix(.62585 .34761 -.26708 .48086 84.58 35.715)" d="m20.703 70.965a1.2422 1.0192 0 1 1 -2.4844 0 1.2422 1.0192 0 1 1 2.4844 0z"/>
   <path id="path4216" style="opacity:.5;fill:#fff" d="m75.362 75.866c-0.74698 0.50112-1.1661 1.3093-0.375 2.0938 1.0288 1.0222 3.0166 2.1331 4.2812 0.96875-1.2568 0.68942-3.0045-0.32303-3.9375-1.25-0.65657-0.65107-0.46939-1.3109 0.03125-1.8125z"/>
  </g>
  <g id="g4301" transform="matrix(1.1657 0 0 1.1657 -5.167 -2.5716)">
   <path id="path4220" style="opacity:.5;fill:#162d50" transform="matrix(.82679 .15495 -.15495 .82679 -22.96 -50.959)" d="m64.875 68.438c-1.5229 0.52214-3.8266 1.5894-5.2188 3-0.69607 0.7053-1.2083 1.5469-1.0938 2.4688 0.11329 0.91161 0.83366 1.7576 2.1562 2.5 0.01156 0.0076 0.01962 0.02372 0.03125 0.03125 1.6894 1.0943 4.0701 1.2592 6 0.5625 0.9716-0.35076 1.847-0.94604 2.4062-1.7812 0.55921-0.83521 0.78418-1.9136 0.53125-3.1562-0.38386-2.1828-2.4288-3.9202-4.7188-3.625a0.45515 0.45515 0 0 0 -0.09375 0z"/>
   <path id="path4222" style="fill:url(#radialGradient4316)" d="m20.233 15.532c-2.5915 0.37849-8.2887 2.1464-4.4803 5.2961 2.2272 2.1512 7.522 1.9939 7.4611-1.929 0.01862-1.6642-1.2689-3.2693-2.9808-3.3671z"/>
   <path id="path4224" style="opacity:.9;fill:#fff" transform="matrix(.93030 .47887 -.39294 .56531 30.587 -32.411)" d="m20.703 70.965a1.2422 1.0192 0 1 1 -2.4844 0 1.2422 1.0192 0 1 1 2.4844 0z"/>
   <path id="path4226" style="opacity:.9;fill:#fff" transform="matrix(.50589 .23403 -.20231 .25419 26.479 -3.9055)" d="m20.703 70.965a1.2422 1.0192 0 1 1 -2.4844 0 1.2422 1.0192 0 1 1 2.4844 0z"/>
   <path id="path4228" style="opacity:.5;fill:#fff" d="m14.787 17.909c-0.54109 0.78369-0.42005 1.7545 0.97881 2.9114 1.9776 1.9102 6.3374 1.997 7.2553-0.7531-1.3417 2.0817-5.1954 1.8793-7.005 0.13138-1.0444-0.86376-1.3543-1.6339-1.2291-2.2897z"/>
  </g>
  <g id="g4308">
   <path id="path4232" style="opacity:.5;fill:#162d50" transform="matrix(.61454 0 0 .61454 -22.854 11.18)" d="m75.375 20.062c-0.29738 0.07576-0.57557 0.20932-0.8125 0.375-0.47386 0.33135-0.86798 0.7614-1.1875 1.0312-1.1331 0.84596-2.4698 2.0513-3.25 3.4688-0.39009 0.70872-0.64525 1.4843-0.625 2.2812 0.02025 0.79699 0.32215 1.5918 0.96875 2.3438a0.39841 0.39841 0 0 0 0.031 0.032c1.0986 1.2056 2.8587 1.8102 4.5312 1.7188 1.6726-0.0915 3.2941-0.95525 3.9062-2.7188 0.49382-1.4239 0.66473-3.1548 0.3125-4.75s-1.2557-3.0768-2.9062-3.75a0.39841 0.39841 0 0 0 -0.03125 0c-0.332-0.108-0.641-0.107-0.938-0.032z"/>
   <path id="path4234" style="fill:url(#radialGradient4244)" d="m22.468 23.866c-1.36 1.0154-3.2104 2.9204-1.7465 4.6228 1.226 1.3454 4.1048 1.4554 4.7864-0.5082 0.57706-1.664 0.39546-4.1555-1.4645-4.9141-0.63612-0.20682-1.1453 0.43629-1.5753 0.79949z"/>
   <path id="path4236" style="opacity:.9;fill:#fff" transform="matrix(.38529 .24602 -.24602 .38529 28.556 -12.403)" d="m36.916 73.141a1.976 1.1228 0 1 1 -3.9521 0 1.976 1.1228 0 1 1 3.9521 0z"/>
   <path id="path4238" style="opacity:.5;fill:#fff" d="m20.855 25.449c-0.68834 0.93233-1.0141 2.0113-0.13443 3.0343 1.1703 1.2843 3.8331 1.4466 4.6666-0.24966-1.0583 1.18-3.3111 0.93913-4.3594-0.21125-0.73193-0.85118-0.62244-1.7574-0.17284-2.5734z"/>
   <path id="path4240" style="opacity:.9;fill:#fff" transform="matrix(.38529 .24602 -.24602 .38529 28.556 -12.403)" d="m36.916 73.141a1.976 1.1228 0 1 1 -3.9521 0 1.976 1.1228 0 1 1 3.9521 0z"/>
   <path id="path4242" style="opacity:.9;fill:#fff" transform="matrix(.24566 .15686 -.15686 .24566 27.755 2.4516)" d="m36.916 73.141a1.976 1.1228 0 1 1 -3.9521 0 1.976 1.1228 0 1 1 3.9521 0z"/>
  </g>
  <g id="g4318" transform="matrix(.41555 0 0 .41555 2.3637 13.804)">
   <path id="path4320" style="opacity:.5;fill:#162d50" d="m32.844 71.062c-2.4621 0.47955-4.7658 2.018-5.9375 4.3125a0.60151 0.60151 0 0 0 -0.031 0.064c-0.5869 1.4674 0.09545 2.9559 0.875 4 0.0079 0.01052 0.02338 0.02082 0.03125 0.03125 0.77033 1.0785 1.8469 1.9897 3.1562 2.4375 1.1277 0.39872 2.4108 0.5381 3.625 0.125a0.60151 0.60151 0 0 0 0.094 -0.032c1.7425-0.85832 3.5499-2.1372 4.2812-4.1875 0.0032-0.0091-0.0032-0.02215 0-0.03125 0.33894-0.90428 0.357-2.0324-0.28125-2.9062-0.0046-0.0064-0.02666 0.0063-0.03125 0-0.0047-0.0065 0.0047-0.0248 0-0.03125-0.78419-1.0714-1.8538-1.6497-2.5-2.4062a0.60151 0.60151 0 0 0 -0.09375 -0.09375c-0.84342-0.69148-1.8691-1.1778-3-1.2812a0.60151 0.60151 0 0 0 -0.1875 0z"/>
   <path id="path4322" style="fill:url(#radialGradient4328)" d="m32.964 70.671c-2.2918 0.44638-4.4458 1.8835-5.5195 3.9861-0.4765 1.1914 0.08385 2.4883 0.80804 3.4476 0.71224 1.0092 1.6916 1.846 2.8713 2.2494 1.0306 0.36436 2.1993 0.48138 3.2458 0.12533 1.6841-0.82954 3.3604-2.058 4.0051-3.8955 0.29541-0.769 0.2898-1.6878-0.22234-2.3657-0.68011-0.94792-1.7423-1.52-2.4944-2.4006-0.76419-0.62652-1.7046-1.0562-2.6939-1.1467z"/>
   <path id="path4324" style="opacity:.9;fill:#fff" transform="matrix(.94813 .31787 -.31787 .94813 23.894 -7.3129)" d="m36.916 73.141a1.976 1.1228 0 1 1 -3.9521 0 1.976 1.1228 0 1 1 3.9521 0z"/>
   <path id="path4326" style="opacity:.5;fill:#fff" d="m27.75 74.156c-0.10393 0.16578-0.22303 0.32478-0.3125 0.5-0.4765 1.1914 0.08831 2.4782 0.8125 3.4375 0.71224 1.0092 1.6954 1.8465 2.875 2.25 1.0306 0.36436 2.2035 0.48105 3.25 0.125 1.6139-0.79498 3.2077-1.9436 3.9062-3.6562-0.80889 1.3134-2.163 2.2635-3.5312 2.9375-1.0465 0.35605-2.2194 0.23936-3.25-0.125-1.1796-0.40346-2.1628-1.2408-2.875-2.25-0.67892-0.89932-1.2034-2.0911-0.875-3.2188z"/>
  </g>
 </g>
 <g id="g18823" transform="matrix(1.3904 0 0 1.4056 -2.7373 -5.5786)">
  <g id="layer2-1" style="display:none">
   <rect id="rect3745-3" style="opacity:.9;filter:url(#filter3174-94);fill:url(#ButtonShadow-4)" rx="6" ry="6" height="85" width="86" y="7" x="5"/>
  </g>
  <g id="layer5-0">
   <rect id="rect3171-8" style="opacity:.1;filter:url(#filter3794-7);stroke:#fff;stroke-linecap:round;stroke-width:.5;fill:url(#linearGradient3613)" clip-path="url(#clipPath3613-7)" rx="12" ry="12" height="66" width="66" y="15" x="15"/>
  </g>
  <g id="layer4">
   <path id="path3964" d="m80 48a32 32 0 1 1 -64 0 32 32 0 1 1 64 0z" style="fill-opacity:.48039;color:#000000;fill:#005e91" transform="matrix(0 1 1 0 -.023893 0)"/>
   <path id="path4073" d="m16 47.5c-0.0025 0.16628-0.03125 0.33312-0.03125 0.5 0 17.673 14.327 32 32 32s32-14.327 32-32c0-0.16667 0.0025-0.33394 0-0.5-0.267 17.443-14.494 31.5-32 31.5s-31.702-14.057-31.969-31.5z" style="opacity:.4;color:#000000;fill:#fff"/>
   <g id="g4067">
    <path id="path4059-6" style="opacity:0.08" d="m48.219 14.844c-14.001-0.19087-23.826 6.58-29.344 16.125-5.5137 9.5371-6.9457 21.705-4.9375 32.75a0.97695 0.97695 0 0 0 0.032 0.031c0.0006 0.0025 0.0305 0.12256 0.03125 0.125 0.000749 0.0024 0.03035 0.12261 0.03125 0.125 0.000896 0.0024 0.06146 0.12267 0.0625 0.125 0.001 0.0023 0.03007 0.09149 0.03125 0.09375 0 0 0.12571 0.27301 0.34375 0.5625 0.18612 0.24711 0.458 0.55011 0.84375 0.84375 0.66848 0.50886 1.6854 0.95098 3 1.2188 0.38263 4.25 0.8879 8.8107 1.5 14.719 0.000207 0.0021-0.00031 0.09169 0 0.09375 0.00031 0.0021 0.03084 0.12296 0.03125 0.125 0.000412 0.002 0.03074 0.09173 0.03125 0.09375 0.000513 0.002-0.000612 0.09176 0 0.09375 0.000612 0.002 0.06179 0.09179 0.0625 0.09375 0.000711 0.002 0.03044 0.09183 0.03125 0.09375 0.000807 0.0019 0.03035 0.09187 0.03125 0.09375 0.000901 0.0019 0.06151 0.09192 0.0625 0.09375 0.000994 0.0018 0.03017 0.09197 0.03125 0.09375 0.0011 0.0018 0.06133 0.09202 0.0625 0.09375 0.0012 0.0017 0.06124 0.09208 0.0625 0.09375 0.0013 0.0017 0.06116 0.0609 0.0625 0.0625 0.0013 0.0016 0.06109 0.09222 0.0625 0.09375 0.0014 0.0015 0.06101 0.06104 0.0625 0.0625 0.0015 0.0015 0.09219 0.06111 0.09375 0.0625 0.0016 0.0014 0.06087 0.06119 0.0625 0.0625a0.97695 0.97695 0 0 0 0.031 0.03s2.8468 2.2369 6.875 2.7812c0.0026 0.000334 0.12236-0.000169 0.125 0 0.0026 0.000169 0.12235 0.03125 0.125 0.03125 0.0026 0.000002 0.15361-0.03109 0.15625-0.03125 0.0026-0.000164 0.12238 0.00033 0.125 0 0.0026-0.00033 0.1224-0.03075 0.125-0.03125 0.0026-0.000495 0.12244-0.03059 0.125-0.03125 0.0026-0.000657 0.12248-0.03043 0.125-0.03125 0.0025-0.000817 0.12254-0.03028 0.125-0.03125 0.0025-0.000974 0.12261-0.06137 0.125-0.0625 0.0024-0.0011 0.12268-0.06122 0.125-0.0625 0.0023-0.0013 0.09152-0.06108 0.09375-0.0625 0.0022-0.0014 0.12286-0.06094 0.125-0.0625 0.0021-0.0016 0.09171-0.09206 0.09375-0.09375 0.002-0.0017 0.09182-0.09194 0.09375-0.09375 0.0019-0.0018 0.09194-0.06057 0.09375-0.0625 0.0018-0.0019 0.09207-0.12296 0.09375-0.125 0.0017-0.002 0.06095-0.09161 0.0625-0.09375 0.0016-0.0021 0.09233-0.09152 0.09375-0.09375 0.0014-0.0022 0.06123-0.12268 0.0625-0.125 0.0013-0.0023 0.06138-0.1226 0.0625-0.125 0.0011-0.0024 0.03028-0.12254 0.03125-0.125 0.000971-0.0025 0.06169-0.12248 0.0625-0.125 0.000814-0.0025 0.0306-0.12244 0.03125-0.125 0.000654-0.0026 0.03076-0.1224 0.03125-0.125 0.000492-0.0026 0.03092-0.12237 0.03125-0.125 0.000327-0.0026-0.000161-0.12236 0-0.125 0.000161-0.0026 0.000005-0.12235 0-0.125-0.000005-0.0026 0.000171-0.12236 0-0.125-0.000171-0.0026-0.03091-0.12238-0.03125-0.125-0.000337-0.0026 0.000502-0.15365 0-0.15625s-0.03059-0.12244-0.03125-0.125c-0.000664-0.0026-0.03043-0.12249-0.03125-0.125-0.37111-1.0785-0.64388-2.1375-0.9375-3.1875 1.1722 0.52927 2.6216 1.0729 4.2188 1.3125 0.0027 0.00042 0.12232-0.000249 0.125 0 0.0027 0.000249 0.15356 0.03117 0.15625 0.03125 0.0027 0.000077 0.12231 0.000095 0.125 0 0.0027-0.000095 0.12232-0.03098 0.125-0.03125 0.0027-0.000267 0.12234 0.000438 0.125 0 0.0027-0.000438 0.15363-0.03064 0.15625-0.03125 0.0026-0.000607 0.12242-0.03048 0.125-0.03125 0.0026-0.000773 0.12248-0.03031 0.125-0.03125 0.0025-0.000937 0.12254-0.0614 0.125-0.0625 0.0025-0.0011 0.09137-0.06125 0.09375-0.0625 0.0024-0.0013 0.1227-0.0611 0.125-0.0625s0.1228-0.06096 0.125-0.0625c0.0022-0.0015 0.09165-0.09207 0.09375-0.09375 0.0021-0.0017 0.09176-0.09194 0.09375-0.09375 0.002-0.0018 0.09188-0.09181 0.09375-0.09375 0.0019-0.0019 0.09201-0.0917 0.09375-0.09375 0.0017-0.0021 0.09215-0.09159 0.09375-0.09375 0.0016-0.0022 0.06104-0.12274 0.0625-0.125 0.0015-0.0023 0.09243-0.0914 0.09375-0.09375 0.0013-0.0023 0.06134-0.12257 0.0625-0.125 0.0012-0.0024 0.03024-0.1225 0.03125-0.125 0.001-0.0025 0.06166-0.12244 0.0625-0.125 0.000844-0.0026 0.03057-0.1224 0.03125-0.125 0.000679-0.0026 0.03074-0.12236 0.03125-0.125 0.000511-0.0026 0.03091-0.12233 0.03125-0.125 0.000341-0.0027-0.00017-0.15356 0-0.15625 0.00017-0.0027 0.000003-0.12231 0-0.125-0.000003-0.0027 0.000175-0.12231 0-0.125-0.000175-0.0027 0.000346-0.12233 0-0.125-0.000346-0.0027-0.03073-0.15361-0.03125-0.15625-0.000516-0.0026-0.03057-0.1224-0.03125-0.125-0.000523-0.002-0.02082-0.0588-0.03125-0.09375-0.0032-0.01019 0.0032-0.02106 0-0.03125-8.13-25.938-6.157-40.343-0.345-47.407 5.817-7.07 16.114-7.838 26.593-5.156a0.97695 0.97695 0 0 0 0.0625 0.03125c0.0038 0.000768 0.18367 0.03083 0.1875 0.03125 0.0038 0.000418 0.18364-0.000066 0.1875 0 0.0039 0.000066 0.18366 0.000288 0.1875 0 0.0038-0.000288 0.1837-0.03061 0.1875-0.03125 0.0038-0.000639 0.18377-0.03027 0.1875-0.03125 0.0037-0.000984 0.18388-0.06118 0.1875-0.0625 0.0036-0.0013 0.15276-0.06085 0.15625-0.0625 0.0035-0.0016 0.18418-0.09179 0.1875-0.09375 0.0033-0.002 0.15312-0.12274 0.15625-0.125 0.0031-0.0023 0.15334-0.09122 0.15625-0.09375 0.0029-0.0025 0.12234-0.15346 0.125-0.15625 0.0027-0.0028 0.1226-0.12198 0.125-0.125 0.0024-0.003 0.12289-0.15302 0.125-0.15625 0.0021-0.0032 0.09195-0.15284 0.09375-0.15625 0.0018-0.0034 0.06101-0.18394 0.0625-0.1875 0.0015-0.0036 0.0926-0.18382 0.09375-0.1875 0.0012-0.0037 0.03044-0.18373 0.03125-0.1875 0.000811-0.0038 0.03079-0.18367 0.03125-0.1875 0.000463-0.0038 0.03114-0.18365 0.03125-0.1875 0.00011-0.0039-0.03101-0.18365-0.03125-0.1875-0.000041-0.000641 0.000953-0.02237 0-0.03125 0.59521 0.13733 1.0555 0.14271 1.6875 0.3125a0.97695 0.97695 0 0 0 0.0625 0.03125c0.0038 0.000768 0.18367 0.03083 0.1875 0.03125 0.0038 0.000418 0.18364-0.000066 0.1875 0 0.0039 0.000066 0.18366 0.000288 0.1875 0 0.0038-0.000288 0.1837-0.03061 0.1875-0.03125 0.0038-0.000639 0.18377-0.03027 0.1875-0.03125 0.0037-0.000984 0.18388-0.06118 0.1875-0.0625 0.0036-0.0013 0.15276-0.06085 0.15625-0.0625 0.0035-0.0016 0.18418-0.09179 0.1875-0.09375 0.0033-0.002 0.15312-0.12274 0.15625-0.125 0.0031-0.0023 0.15334-0.09122 0.15625-0.09375 0.0029-0.0025 0.12234-0.15346 0.125-0.15625 0.0027-0.0028 0.1226-0.12198 0.125-0.125 0.0024-0.003 0.12289-0.15302 0.125-0.15625 0.0021-0.0032 0.09194-0.15284 0.09375-0.15625 0.0018-0.0034 0.06101-0.18394 0.0625-0.1875 0.0015-0.0036 0.0926-0.18382 0.09375-0.1875 0.0012-0.0037 0.03044-0.18373 0.03125-0.1875 0.000811-0.0038 0.03079-0.18367 0.03125-0.1875 0.000463-0.0038 0.03114-0.18365 0.03125-0.1875 0.00011-0.0039-0.03101-0.18365-0.03125-0.1875-0.000243-0.0038 0.000595-0.18369 0-0.1875-0.000595-0.0038-0.03031-0.18376-0.03125-0.1875-0.000941-0.0037-0.06122-0.18386-0.0625-0.1875-0.0013-0.0036-0.06089-0.15274-0.0625-0.15625-0.0016-0.0035-0.09183-0.18416-0.09375-0.1875-0.0019-0.0033-0.12278-0.1531-0.125-0.15625-0.0022-0.0032-0.09125-0.15331-0.09375-0.15625-0.0025-0.0029-0.12224-0.1223-0.125-0.125-0.0028-0.0027-0.15326-0.12257-0.15625-0.125-0.003-0.0024-0.15305-0.12285-0.15625-0.125-0.0032-0.0021-0.15286-0.09191-0.15625-0.09375-0.0034-0.0018-0.18396-0.09222-0.1875-0.09375a0.97695 0.97695 0 0 0 -0.03125 0s-2.4634-0.89713-5.5625-1.7812c-0.25216-0.07194-0.49788-0.12553-0.75-0.1875-0.0024-0.02942 0.000134-0.06129 0-0.0625-0.000269-0.0024-0.03084-0.1226-0.03125-0.125-0.000408-0.0024-0.0307-0.12263-0.03125-0.125-0.000547-0.0024-0.03057-0.09141-0.03125-0.09375-0.000683-0.0023-0.03043-0.1227-0.03125-0.125-0.000818-0.0023-0.0303-0.12276-0.03125-0.125 0.001-0.001-0.06-0.091-0.061-0.093s-0.061-0.123-0.062-0.125c-0.002-0.002-0.062-0.092-0.063-0.094s-0.061-0.092-0.063-0.094c-0.001-0.002-0.06-0.091-0.062-0.093l-0.094-0.094c-0.001-0.002-0.06-0.092-0.062-0.094-0.002-0.001-0.092-0.061-0.094-0.062-0.002-0.002-0.092-0.093-0.094-0.094s-0.091-0.061-0.094-0.063l-0.124-0.062c-0.0021-0.0012-0.09158-0.06139-0.09375-0.0625-0.0022-0.0011-0.12277-0.06151-0.125-0.0625-0.0022-0.000987-0.09147-0.03039-0.09375-0.03125-0.0023-0.000857-0.12267-0.03053-0.125-0.03125-0.0023-0.000723-0.09139-0.03066-0.09375-0.03125a0.97695 0.97695 0 0 0 -0.03125 0c-3.8465-0.88252-7.4979-1.391-10.906-1.4375z"/>
    <path id="path4055" style="opacity:0.12" d="m48.219 15.812c-13.683-0.18654-23.131 6.3687-28.5 15.656-5.3694 9.2876-6.7835 21.222-4.8125 32.062a1.103 1.103 0 0 0 0.093 0.251s0.10431 0.21282 0.25 0.40625 0.34994 0.42308 0.65625 0.65625c0.61262 0.46634 1.584 0.93917 3.0312 1.1562a1.103 1.103 0 0 0 0.28125 0c0.38684 4.4067 0.91895 9.2571 1.5625 15.469a1.103 1.103 0 0 0 0.40625 0.75s2.6712 2.089 6.4062 2.5938a1.103 1.103 0 0 0 1.1875 -1.4375c-0.6427-1.8678-1.0815-3.616-1.5938-5.4062 0.56967 0.3316 3.2756 1.846 5.9688 2.25a1.103 1.103 0 0 0 1.22 -1.439c-8.184-26.098-6.31-40.865-0.156-48.343 6.153-7.479 16.921-8.201 27.593-5.469a1.103 1.103 0 0 0 0.657 -2.094c-1.6927-0.61788-3.1822-0.93796-4.75-1.375 2.5402 0.34069 5.187 0.75408 8.3125 1.5938a1.103 1.103 0 0 0 0.656 -2.094s-2.4351-0.87564-5.5-1.75c-0.50158-0.14309-1.0666-0.26552-1.5938-0.40625a1.103 1.103 0 0 0 -0.6875 -1.625c-3.794-0.871-7.365-1.361-10.687-1.407zm-18.844 11.719c-2.6478 3.3792-4.3989 7.5724-5.4375 12.188 0.008-0.04 0.062-0.438 0.062-0.438a1.103 1.103 0 0 0 -1.4375 -1.25c1.7114-4.2163 4.0187-7.6993 6.8125-10.5z"/>
    <path id="path4051" d="m48.228 16.917c3.2245 0.04396 6.7087 0.50035 10.444 1.3573-21.275-4.204-44.739 10.213-39.589 46.64-2.593-0.389-3.092-1.584-3.092-1.584-3.857-21.216 5.58-46.776 32.237-46.413zm3.4687 1.6213c5.0207 0.08789 14.629 3.5064 14.629 3.5064-15.495-4.1629-24.243-1.2819-24.243-1.2819s3.5112-2.3313 9.6144-2.2245zm-5.0146 2.1868c4.3569 0.02044 9.4765 0.99727 15.421 3.1671-21.783-5.575-45.273 2.723-28.806 55.236-2.593-0.389-5.957-2.337-5.957-2.337-6.128-20.392-7.283-56.191 19.342-56.066zm-23.791 18.324s-3.9644 19.022 4.8638 44.679c-3.4025-0.4598-5.8818-2.3753-5.8818-2.3753-2.1151-20.415-3.7639-27.774 1.018-42.303z" style="opacity:.3"/>
    <path id="path3987" d="m48.228 15.917c3.2245 0.04396 6.7087 0.50035 10.444 1.3573-21.275-4.204-44.739 10.213-39.589 46.64-2.593-0.389-3.092-1.584-3.092-1.584-3.857-21.216 5.58-46.776 32.237-46.413zm3.4687 1.6213c5.0207 0.08789 14.629 3.5064 14.629 3.5064-15.495-4.1629-24.243-1.2819-24.243-1.2819s3.5112-2.3313 9.6144-2.2245zm-5.0146 2.1868c4.3569 0.02044 9.4765 0.99727 15.421 3.1671-21.783-5.575-45.273 2.723-28.806 55.236-2.593-0.389-5.957-2.337-5.957-2.337-6.128-20.392-7.283-56.191 19.342-56.066zm-23.791 18.324s-3.9644 19.022 4.8638 44.679c-3.4025-0.4598-5.8818-2.3753-5.8818-2.3753-2.1151-20.415-3.7639-27.774 1.018-42.303z" style="fill:#fff"/>
   </g>
   <g id="g4061">
    <path id="path4047" style="opacity:0.08" d="m33.656 11.781c0.0029-0.000385-0.0618 0.02617-0.09375 0.03125-0.0098 0.0016-0.03215 0.00017-0.03125 0-0.03756 0.0086-0.1609 0.03251-0.15625 0.03125 0.0056-0.0015-0.16166 0.06447-0.15625 0.0625 0.0054-0.002-0.16147 0.06492-0.15625 0.0625 0.0052-0.0024-0.16124 0.06536-0.15625 0.0625 0.005-0.0029-0.16098 0.09703-0.15625 0.09375 0.0047-0.0033-0.12943 0.12867-0.125 0.125 0.0044-0.0037-0.1291 0.09778-0.125 0.09375 0.0041-0.004-0.12874 0.16062-0.125 0.15625 0.0037-0.0044-0.09711 0.12967-0.09375 0.125 0.0034-0.0047-0.12795 0.16119-0.125 0.15625 0.0029-0.0049-0.06501 0.13018-0.0625 0.125 0.0025-0.0052-0.06456 0.16162-0.0625 0.15625 0.0021-0.0054-0.0641 0.19303-0.0625 0.1875 0.0016-0.0055-0.03237 0.16189-0.03125 0.15625 0.0011-0.0056-0.03188 0.19322-0.03125 0.1875 0.000511-0.0046-0.02822 0.08198-0.03125 0.125-0.000597 0.01193 0.000585 0.01934 0 0.03125-0.22335 4.5495 0.40611 7.865 1.6562 10.312 1.2614 2.4696 3.2086 3.9602 5.125 4.6562 3.748 1.3613 7.2827 0.06488 7.375 0.03125 0.0012-0.00044 0.0625 0 0.0625 0v-0.03125c0.05312-0.01753 0.09722-0.03258 0.09375-0.03125-0.0059 0.0023 0.19318-0.06531 0.1875-0.0625-0.0057 0.0028 0.16164-0.09708 0.15625-0.09375-0.0054 0.0033 0.1613-0.09758 0.15625-0.09375-0.0051 0.0038 0.16092-0.12928 0.15625-0.125-0.0047 0.0043 0.12925-0.16096 0.125-0.15625-0.0042 0.0047 0.12879-0.13008 0.125-0.125-0.0038 0.0051 0.12829-0.16167 0.125-0.15625-0.0033 0.0054 0.09652-0.1932 0.09375-0.1875-0.0028 0.0057 0.06472-0.16219 0.0625-0.15625-0.0022 0.0059 0.06415-0.19362 0.0625-0.1875-0.0017 0.0061 0.03232-0.19375 0.03125-0.1875-0.00052 0.003-0.0058-0.0462 0-0.09375 0.56271 0.21951 1.3142 0.55788 1.9375 0.8125-0.01336 0.0154-0.03219 0.03241-0.03125 0.03125 0.0028-0.0035-0.09632 0.09739-0.09375 0.09375 0.0026-0.0036-0.06482 0.12881-0.0625 0.125 0.0023-0.0038-0.06457 0.12895-0.0625 0.125 0.0021-0.004-0.0643 0.12908-0.0625 0.125 0.0018-0.0041-0.06403 0.12919-0.0625 0.125 0.0015-0.0042-0.03249 0.12928-0.03125 0.125 0.0012-0.0043-0.03221 0.12936-0.03125 0.125 0.000959-0.0044-0.03192 0.12941-0.03125 0.125 0.000668-0.0044-0.000375 0.12944 0 0.125 0.000375-0.0044-0.03133 0.16071-0.03125 0.15625 0.000079-0.0045 0.03147 0.12946 0.03125 0.125-0.000216-0.0045 0.000511 0.12943 0 0.125-0.000511-0.0044 0.03205 0.16064 0.03125 0.15625-0.000602-0.0033-0.0081 0.05643 0 0.09375 0 0-0.000072 0.03092 0 0.03125 0.0057 0.02615 0.25504 1.0397 0.78125 2.1875 0.50213 1.0953 1.3504 2.7376 3.2188 3.3125-0.0045-0.0013 0.16082 0.03222 0.15625 0.03125-0.0046-0.000966 0.12963 0.0319 0.125 0.03125-0.0046-0.000647 0.16091 0.03157 0.15625 0.03125-0.0047-0.000324 0.12967 0 0.125 0-0.0047 0 0.12966-0.000324 0.125 0-0.0047 0.000324 0.16088-0.0319 0.15625-0.03125-0.0046 0.000647 0.12957-0.03222 0.125-0.03125-0.0037 0.00078 0.09099-0.0229 0.125-0.03125 0.01-0.0026 0.0213 0.0027 0.03125 0 0.8256-0.22352 1.4659-0.62623 2-1.0938 0.03406 0.03509 0.06537 0.09648 0.0625 0.09375-0.004-0.0038 0.12928 0.09721 0.125 0.09375-0.0043-0.0035 0.1608 0.09685 0.15625 0.09375-0.0045-0.0031 0.12979 0.09646 0.125 0.09375-0.0048-0.0027 0.16124 0.06481 0.15625 0.0625-0.005-0.0023 0.16142 0.0644 0.15625 0.0625a1.114 1.114 0 0 0 0 0.03125s9.5683 3.5215 17.094 10.125c-0.31887 0.4914-0.67867 0.96449-0.90625 1.4688-0.0352 0.078-0.03315 0.08988-0.0625 0.15625-7.4228-3.789-13.499-4.2666-17.75-3.3125-2.9932 0.67171-4.6531 1.7092-5.6875 2.4688-0.72399-0.61897-1.7246-1.5657-2.5625-3-0.62642-1.0724-0.95002-2.1655-0.8125-3.1562 0.13928-1.0034 0.64945-2.0717 2.4688-3.4062-0.000746 0.000507 0.02428 0.0051 0.03125 0 0.02789-0.02045 0.09659-0.06472 0.09375-0.0625-0.0035 0.0028 0.09711-0.09676 0.09375-0.09375-0.0034 0.003 0.0969-0.09698 0.09375-0.09375-0.0031 0.0032 0.09667-0.09718 0.09375-0.09375-0.0029 0.0034 0.09644-0.09737 0.09375-0.09375-0.0027 0.0036 0.06494-0.12879 0.0625-0.125-0.0024 0.0038 0.06468-0.12894 0.0625-0.125-0.0022 0.0039 0.06441-0.12908 0.0625-0.125-0.0019 0.0041 0.06414-0.1292 0.0625-0.125-0.0016 0.0042 0.0326-0.1293 0.03125-0.125-0.0014 0.0043 0.06356-0.12938 0.0625-0.125-0.0011 0.0044 0.000763-0.12944 0-0.125-0.000763 0.0044 0.03171-0.12948 0.03125-0.125-0.000464 0.0045 0.000163-0.16076 0-0.15625-0.000163 0.0045-0.000139-0.12951 0-0.125 0.000139 0.0045-0.00044-0.12949 0-0.125 0.00044 0.0045-0.000739-0.1607 0-0.15625 0.000739 0.0044-0.03229-0.12939-0.03125-0.125 0.001 0.0044-0.03258-0.12931-0.03125-0.125 0.0013 0.0043-0.06411-0.12921-0.0625-0.125 0.0016 0.0042-0.06439-0.12909-0.0625-0.125 0.0019 0.0041-0.03341-0.12896-0.03125-0.125 0.0022 0.004-0.09617-0.1288-0.09375-0.125 0.0024 0.0038-0.06517-0.12863-0.0625-0.125 0.0027 0.0036-0.09666-0.0972-0.09375-0.09375 0.0029 0.0034-0.09688-0.09699-0.09375-0.09375 0.0031 0.0032-0.09709-0.09678-0.09375-0.09375 0.0033 0.003-0.09728-0.09655-0.09375-0.09375 0.0035 0.0028-0.12871-0.0963-0.125-0.09375 0.0037 0.0026-0.09763-0.0648-0.09375-0.0625 0.0039 0.0023-0.12902-0.06453-0.125-0.0625 0.004 0.002-0.12915-0.06426-0.125-0.0625-1.557-0.69-4.813-2.405-4.813-2.405 0.0051 0.0027-0.16151-0.09599-0.15625-0.09375 0.0053 0.0022-0.16168-0.06429-0.15625-0.0625 0.0054 0.0018-0.19306-0.03257-0.1875-0.03125 0.0056 0.0013-0.1619-0.03209-0.15625-0.03125 0.0057 0.000841-0.1932-0.03161-0.1875-0.03125 0.0057 0.000358-0.16196 0.000127-0.15625 0 0.0057-0.000127-0.19318 0.000611-0.1875 0 0.0057-0.000611-0.16186 0.03234-0.15625 0.03125 0.0056-0.0011-0.16175 0.03281-0.15625 0.03125 0.0055-0.0016-0.19285 0.06452-0.1875 0.0625 0.0053-0.002-0.1614 0.06497-0.15625 0.0625 0.0052-0.0025-0.16118 0.09665-0.15625 0.09375 0.0049-0.0029-0.12966 0.09706-0.125 0.09375 0.0047-0.0033-0.16062 0.09744-0.15625 0.09375 0.0044-0.0037-0.12904 0.12905-0.125 0.125 0.0034-0.0034-0.06804 0.0659-0.09375 0.09375-0.0049 0.0053-0.000589 0.03195 0 0.03125-2.8464 3.2234-4.0348 6.4979-3.9062 9.5 0.12866 3.0053 1.5086 5.5302 3.125 7.5312 3.2184 3.9843 7.649 6.1998 7.6875 6.2188 0.000167 0.000082 0.03125 0 0.03125 0 0.03286 0.01594 0.09681 0.03262 0.09375 0.03125-0.004-0.0018 0.1291 0.06403 0.125 0.0625-0.0041-0.0015 0.12919 0.03251 0.125 0.03125-0.0042-0.0013 0.12927 0.03223 0.125 0.03125-0.0043-0.00098 0.12932 0.03195 0.125 0.03125-0.0043-0.0007 0.12936 0.03167 0.125 0.03125-0.0044-0.000418 0.16062 0.000134 0.15625 0-0.0044-0.000134 0.12938-0.000151 0.125 0-0.0044 0.000151 0.12936-0.000435 0.125 0-0.0044 0.000435 0.12932-0.03197 0.125-0.03125-0.0043 0.000717 0.12926-0.03225 0.125-0.03125-0.0043 0.000996 0.12919-0.03252 0.125-0.03125-0.0042 0.0013 0.1291-0.03279 0.125-0.03125-0.0041 0.0015 0.12899-0.0643 0.125-0.0625-0.004 0.0018 0.12886-0.06456 0.125-0.0625-0.0039 0.0021 0.12872-0.06481 0.125-0.0625 10.791-6.9369 25.25 2.375 25.25 2.375-0.0035-0.0023 0.1286 0.06461 0.125 0.0625-0.0036-0.0021 0.09747 0.06438 0.09375 0.0625-0.0037-0.0019 0.12883 0.0329 0.125 0.03125-0.0038-0.0016 0.09768 0.06391 0.09375 0.0625-0.0039-0.0014 0.12901 0.03241 0.125 0.03125-0.004-0.0012 0.12907 0.03216 0.125 0.03125-0.0041-0.000911 0.12912 0.03191 0.125 0.03125-0.0041-0.000657 0.12915 0.000401 0.125 0-0.0042-0.000401 0.12917 0.03139 0.125 0.03125-0.0042-0.000143 0.12917-0.000115 0.125 0-0.0042 0.000115 0.12915-0.03162 0.125-0.03125-0.0042 0.000373 0.12912-0.00063 0.125 0-0.0041 0.00063 0.12908-0.03213 0.125-0.03125-0.0041 0.000884 0.12901-0.03238 0.125-0.03125-0.004 0.0011 0.12894-0.03263 0.125-0.03125-0.0039 0.0014 0.12884-0.03287 0.125-0.03125-0.0038 0.0016 0.09749-0.06436 0.09375-0.0625-0.0037 0.0019 0.12861-0.06459 0.125-0.0625-0.0036 0.0021 0.09723-0.0648 0.09375-0.0625-0.0035 0.0023 0.09708-0.09627 0.09375-0.09375-0.0033 0.0025 0.12816-0.06522 0.125-0.0625-0.0032 0.0027 0.06549-0.09666 0.0625-0.09375-0.003 0.0029 0.09655-0.09684 0.09375-0.09375-0.0028 0.0031 0.09636-0.09701 0.09375-0.09375-0.0026 0.0033 0.0649-0.09716 0.0625-0.09375-0.0024 0.0034 0.09594-0.0973 0.09375-0.09375-0.0022 0.0036 0.03321-0.12868 0.03125-0.125-0.002 0.0037 0.06423-0.09755 0.0625-0.09375-0.0017 0.0038 0.06399-0.1289 0.0625-0.125-0.0015 0.0039 0.0325-0.12898 0.03125-0.125-0.0012 0.004 0.03225-0.12905 0.03125-0.125-0.000763 0.0031 0.02392-0.05973 0.03125-0.09375 0.0023-0.01047 0.000175-0.03222 0-0.03125 1.2532-6.6665 4.5312-9.9688 4.5312-9.9688a1.114 1.114 0 0 0 0.031 -0.031c-0.0042 0.0045 0.12881-0.12984 0.125-0.125-0.0038 0.0048 0.0971-0.16142 0.09375-0.15625-0.0033 0.0052 0.09661-0.1617 0.09375-0.15625-0.0029 0.0055 0.0961-0.16194 0.09375-0.15625-0.0024 0.0057 0.06432-0.19338 0.0625-0.1875-0.0018 0.0059 0.03253-0.19352 0.03125-0.1875-0.0013 0.006 0.03197-0.16237 0.03125-0.15625-0.00072 0.0061 0.03141-0.19366 0.03125-0.1875-0.000158 0.0062-0.03166-0.19365-0.03125-0.1875 0.000405 0.0061-0.000965-0.19358 0-0.1875 0.000965 0.0061-0.03277-0.19347-0.03125-0.1875 0.0015 0.006-0.06456-0.19331-0.0625-0.1875 0.0021 0.0058-0.06508-0.16184-0.0625-0.15625 0.0026 0.0056-0.09683-0.16158-0.09375-0.15625 0.0031 0.0053-0.0973-0.16128-0.09375-0.15625 0.0036 0.005-0.129-0.16094-0.125-0.15625-3.3246-3.9051-8.2987-7.2042-12.469-9.625-3.4397-1.9968-5.4269-2.8734-6.25-3.25l0.125-0.96875v-0.03125c0.0032-0.03302 0.03146-0.09678 0.03125-0.09375-0.00027 0.004 0.000035-0.12898 0-0.125-0.000035 0.004-0.000199-0.12897 0-0.125 0.000199 0.004-0.03168-0.12895-0.03125-0.125 0.000434 0.004-0.000666-0.12892 0-0.125 0.000666 0.0039-0.03215-0.09762-0.03125-0.09375 0.000896 0.0039-0.03237-0.12881-0.03125-0.125 0.0011 0.0038-0.0326-0.12874-0.03125-0.125 0.0013 0.0037-0.03281-0.0974-0.03125-0.09375 0.0016 0.0037-0.06428-0.12856-0.0625-0.125 0.0018 0.0036-0.06449-0.09719-0.0625-0.09375 0.002 0.0034-0.06468-0.09707-0.0625-0.09375 0.0022 0.0033-0.06488-0.09694-0.0625-0.09375 0.0024 0.0032-0.06506-0.09679-0.0625-0.09375 0.0026 0.003-0.09649-0.09663-0.09375-0.09375 0.0027 0.0029-0.09665-0.09647-0.09375-0.09375-3.1955-2.8997-8.5027-4.5619-13.969-6.625-5.4714-2.0651-11.088-4.4616-14.469-7.5-0.0202-0.01711-0.09627-0.06452-0.09375-0.0625 0.003 0.0024-0.09691-0.06475-0.09375-0.0625 0.0032 0.0022-0.09703-0.06456-0.09375-0.0625 0.0033 0.0021-0.09715-0.06437-0.09375-0.0625 0.0034 0.0019-0.1285-0.06417-0.125-0.0625 0.0035 0.0017-0.09734-0.03272-0.09375-0.03125 0.0036 0.0015-0.12867-0.06376-0.125-0.0625 0.0037 0.0013-0.09748-0.0323-0.09375-0.03125 0.0037 0.001-0.12879-0.03208-0.125-0.03125 0.0038 0.000829-0.09758-0.000609-0.09375 0 0.0038 0.000609-0.12886-0.03164-0.125-0.03125 0.0039 0.000388-0.12888-0.000165-0.125 0 0.0039 0.000165-0.12888 0.000058-0.125 0 0.0039-0.000058-0.09762 0.000282-0.09375 0 0.0039-0.000282-0.12884 0.000504-0.125 0z"/>
    <path id="path4043" style="opacity:0.12" d="m33.75 12.906a0.912 0.912 0 0 0 -0.75 0.875c-0.22195 4.4391 0.39536 7.5575 1.5312 9.7812 1.1359 2.2238 2.8217 3.4842 4.5 4.0938 3.3566 1.2191 6.6875 0.03125 6.6875 0.03125a0.912 0.912 0 0 0 -0.375 -1.7812c-0.78018 0.0593-2.3972-0.07104-3.75-0.84375-0.90809-0.51871-1.6152-1.4889-2.125-2.75 1.6622 0.94635 3.3833 1.7165 5.5 2.5 2.659 0.98424 6.1395 2.3417 10.75 4.5312-0.639-0.014-1.766-0.25-2.719-0.499-0.985-0.258-1.781-0.532-1.781-0.532a0.912 0.912 0 0 0 -1.1562 1.0938s0.21106 0.96077 0.6875 2 1.157 2.2959 2.5312 2.7188a0.912 0.912 0 0 0 0.5 0c1.4453-0.38258 2.2773-1.3904 2.625-2.25 0.34769-0.85964 0.3125-1.6562 0.3125-1.6562a0.912 0.912 0 0 0 -0.15625 -0.5c0.09151 0.04445 0.15748 0.04853 0.25 0.09375l-0.158 2.812a0.912 0.912 0 0 0 0.594 0.937s10.355 3.7035 18.188 10.906c-0.57164 0.67408-1.0269 1.4474-1.375 2.2188-0.27778 0.61548-0.32588 0.7565-0.46875 1.1562-7.764-4.259-13.91-4.626-18.094-3.687-3.4918 0.7836-5.2923 2.1605-6.0312 2.7812-0.62217-0.48751-2.2565-1.8221-3.4375-3.8438-0.71218-1.2192-1.1202-2.5587-0.9375-3.875 0.18272-1.3163 0.93704-2.6952 2.9375-4.1562a0.912 0.912 0 0 0 -0.157 -1.593c-1.655-0.736-4.906-2.469-4.906-2.469a0.912 0.912 0 0 0 -1.125 0.21875c-2.7158 3.0678-3.7402 6.0272-3.625 8.7188 0.11523 2.6916 1.3553 5.025 2.875 6.9062 3.0393 3.7626 7.3438 5.9062 7.3438 5.9062a0.912 0.912 0 0 0 0.90625 -0.03125c11.534-7.4146 26.469 2.375 26.469 2.375a0.912 0.912 0 0 0 1.406 -0.594c1.302-6.979 4.843-10.562 4.843-10.562a0.912 0.912 0 0 0 0.03125 -1.2188c-3.1653-3.718-8.0664-6.9826-12.188-9.375-3.7931-2.2019-6.3974-3.3781-6.875-3.5938l0.22-1.75a0.912 0.912 0 0 0 -0.281 -0.781c-2.876-2.61-8.13-4.333-13.625-6.407-5.495-2.073-11.199-4.439-14.813-7.687a0.912 0.912 0 0 0 -0.781 -0.219z"/>
    <path id="path4039" d="m33.915 13.826c7.6067 6.8364 23.225 9.3756 28.424 14.094l-0.27635 2.3687s13.278 5.9025 19.344 13.028c0 0-3.7446 3.7928-5.0927 11.014 0 0-15.344-10.207-27.477-2.4082 0 0-16.716-8.3472-6.3165-20.094 0 0 3.2411 1.7168 4.9742 2.4871-8.5696 6.2587 1.9344 13.778 1.9344 13.778s8.4975-8.4492 24.674 0.98695c0 0 1.2007-3.8313 2.645-4.6979-8.087-7.801-19.186-11.687-19.186-11.687l0.19739-3.4346c-11.265-5.584-15.388-5.551-19.817-8.921 0.46706 5.9058 5.5548 6.6193 7.4613 6.4744 0 0-12.355 4.3435-11.488-12.988zm17.015 15.357s3.2563 1.0659 4.8953 1.0659c0 0 0.07158 2.3857-2.2502 3.0003-1.7755-0.54631-2.645-4.0662-2.645-4.0662z" style="opacity:.3"/>
    <path id="path3983" d="m33.915 12.826c7.6067 6.8364 23.225 9.3756 28.424 14.094l-0.27635 2.3687s13.278 5.9025 19.344 13.028c0 0-3.7446 3.7928-5.0927 11.014 0 0-15.344-10.207-27.477-2.4082 0 0-16.716-8.3472-6.3165-20.094 0 0 3.2411 1.7168 4.9742 2.4871-8.5696 6.2587 1.9344 13.778 1.9344 13.778s8.4975-8.4492 24.674 0.98695c0 0 1.2007-3.8313 2.645-4.6979-8.087-7.801-19.186-11.687-19.186-11.687l0.19739-3.4346c-11.265-5.584-15.388-5.551-19.817-8.921 0.46706 5.9058 5.5548 6.6193 7.4613 6.4744 0 0-12.355 4.3435-11.488-12.988zm17.015 15.357s3.2563 1.0659 4.8953 1.0659c0 0 0.07158 2.3857-2.2502 3.0003-1.7755-0.54631-2.645-4.0662-2.645-4.0662z" style="fill:#fff"/>
   </g>
  </g>
 </g>
</svg>
