<?xml version="1.0" encoding="UTF-8" standalone="no"?>
<!-- Created with Inkscape (http://www.inkscape.org/) -->

<svg
   xmlns:dc="http://purl.org/dc/elements/1.1/"
   xmlns:cc="http://creativecommons.org/ns#"
   xmlns:rdf="http://www.w3.org/1999/02/22-rdf-syntax-ns#"
   xmlns:svg="http://www.w3.org/2000/svg"
   xmlns="http://www.w3.org/2000/svg"
   xmlns:xlink="http://www.w3.org/1999/xlink"
   xmlns:sodipodi="http://sodipodi.sourceforge.net/DTD/sodipodi-0.dtd"
   xmlns:inkscape="http://www.inkscape.org/namespaces/inkscape"
   id="svg3449"
   height="128"
   width="128"
   version="1.0"
   inkscape:version="0.48.4 r9939"
   sodipodi:docname="file-save_B.svg">
  <sodipodi:namedview
     pagecolor="#ffffff"
     bordercolor="#666666"
     borderopacity="1"
     objecttolerance="10"
     gridtolerance="10"
     guidetolerance="10"
     inkscape:pageopacity="0"
     inkscape:pageshadow="2"
     inkscape:window-width="1360"
     inkscape:window-height="707"
     id="namedview32"
     showgrid="false"
     inkscape:zoom="2.1621409"
     inkscape:cx="-53.260497"
     inkscape:cy="101.08861"
     inkscape:window-x="-2"
     inkscape:window-y="33"
     inkscape:window-maximized="1"
     inkscape:current-layer="svg3449" />
  <metadata
     id="metadata56">
    <rdf:RDF>
      <cc:Work
         rdf:about="">
        <dc:format>image/svg+xml</dc:format>
        <dc:type
           rdf:resource="http://purl.org/dc/dcmitype/StillImage" />
        <dc:title></dc:title>
      </cc:Work>
    </rdf:RDF>
  </metadata>
  <defs
     id="defs3451">
    <linearGradient
       id="linearGradient3514"
       y2="-9.1034"
       gradientUnits="userSpaceOnUse"
       x2="66.492"
       gradientTransform="matrix(.96826 0 0 .97948 2.179 .16587)"
       y1="-42.638"
       x1="67.952">
      <stop
         id="stop4620"
         style="stop-color:#37414b"
         offset="0" />
      <stop
         id="stop4622"
         style="stop-color:#37414b;stop-opacity:0"
         offset="1" />
    </linearGradient>
    <linearGradient
       id="linearGradient3516"
       y2="-11.847"
       gradientUnits="userSpaceOnUse"
       x2="58.98"
       gradientTransform="matrix(.96826 0 0 .97948 2.179 .16587)"
       y1="-118.55"
       x1="57.173">
      <stop
         id="stop4596"
         offset="0" />
      <stop
         id="stop4598"
         style="stop-opacity:0"
         offset="1" />
    </linearGradient>
    <linearGradient
       id="linearGradient3519"
       y2="50.369"
       gradientUnits="userSpaceOnUse"
       x2="76.558"
       gradientTransform="matrix(.96826 0 0 .97948 3.2423 -129.19)"
       y1="13.164"
       x1="76.558">
      <stop
         id="stop3392"
         style="stop-color:#425e7b"
         offset="0" />
      <stop
         id="stop3394"
         style="stop-color:#7a91a7"
         offset="1" />
    </linearGradient>
    <linearGradient
       id="linearGradient3521"
       y2="-8.7399"
       gradientUnits="userSpaceOnUse"
       x2="60.217"
       gradientTransform="matrix(.96826 0 0 .97948 2.179 .16587)"
       y1="-123.72"
       x1="60.395">
      <stop
         id="stop3392-4-8"
         style="stop-color:#425e7b"
         offset="0" />
      <stop
         id="stop3394-8-0"
         style="stop-color:#7a91a7"
         offset="1" />
    </linearGradient>
    <radialGradient
       id="radialGradient3349"
       gradientUnits="userSpaceOnUse"
       cy="45.647"
       cx="42.148"
       gradientTransform="matrix(0.9469,0,0,1.1571413,3.5954,-30.477728)"
       r="58.984">
      <stop
         id="stop2699-5"
         style="stop-color:#868686"
         offset="0" />
      <stop
         id="stop2701-7"
         style="stop-color:#4a4a4a"
         offset="1" />
    </radialGradient>
    <linearGradient
       id="linearGradient3737">
      <stop
         id="stop3739"
         style="stop-color:#ffffff;stop-opacity:1;"
         offset="0" />
      <stop
         id="stop3741"
         style="stop-color:#828282;stop-opacity:1;"
         offset="1" />
    </linearGradient>
    <linearGradient
       id="linearGradient4724">
      <stop
         id="stop4726"
         offset="0"
         style="stop-color:#828996;stop-opacity:1;" />
      <stop
         id="stop4728"
         offset="1"
         style="stop-color:#5a5c64;stop-opacity:1;" />
    </linearGradient>
    <linearGradient
       id="linearGradient4774">
      <stop
         style="stop-color:#646464;stop-opacity:1;"
         offset="0"
         id="stop4776" />
      <stop
         style="stop-color:#4d4d4d;stop-opacity:1;"
         offset="1"
         id="stop4778" />
    </linearGradient>
    <linearGradient
       inkscape:collect="always"
       xlink:href="#linearGradient3983"
       id="linearGradient3951"
       gradientUnits="userSpaceOnUse"
       gradientTransform="matrix(0.1193576,0,0,0.11935768,375.6239,77.830569)"
       spreadMethod="pad"
       x1="272.79742"
       y1="91.315742"
       x2="397.09402"
       y2="220.28516" />
    <linearGradient
       id="linearGradient3983">
      <stop
         offset="0"
         style="stop-color:#ff5555;stop-opacity:1;"
         id="stop3985" />
      <stop
         offset="1"
         style="stop-color:#ff0505;stop-opacity:1;"
         id="stop3987" />
    </linearGradient>
  </defs>
  <rect
     id="rect892"
     style="stroke:url(#linearGradient3521);stroke-width:.97385;fill:url(#linearGradient3519)"
     transform="scale(1,-1)"
     ry="29.296"
     height="115.54"
     width="114.22"
     y="-122.25"
     x="7.0394" />
  <rect
     id="rect892-2"
     style="stroke:url(#linearGradient3516);stroke-width:.97385;fill:url(#linearGradient3514)"
     transform="scale(1,-1)"
     ry="28.993"
     height="114.35"
     width="114.22"
     y="-121.46"
     x="7.0599" />
  <path
     id="rect895"
     style="fill:url(#radialGradient3349)"
     d="M 30.571,7.0104 C 17.443,7.9613081 8.021,22.289949 7.398,30.669318 7.347858,31.658608 7.309228,32.665412 7.309228,33.673619 v 59.349464 c 0,15.471557 11.191,28.302727 22.318,28.302727 h 67.038 c 15.690002,0 24.318002,-16.70693 24.318002,-26.270872 V 30.018312 c -0.21,-6.027498 -12.29,-22.0273388 -25.926002,-22.9782469 -47.846,0.879082 -20.497,-0.026008 -64.483,-0.026008 z"
     inkscape:connector-curvature="0" />
  <rect
     id="rect892-2-7-8"
     style="opacity:.15891;stroke:#000;stroke-width:4.8445;fill:none"
     transform="scale(1,-1)"
     ry="28.993"
     height="114.35"
     width="114.22"
     y="-121.16"
     x="6.8683" />
  <rect
     id="rect892-2-7-1"
     style="opacity:.15891;stroke:#000;stroke-width:7.7512;fill:none"
     transform="scale(1,-1)"
     ry="28.993"
     height="114.35"
     width="114.22"
     y="-121.16"
     x="6.8686" />
  <rect
     id="rect892-2-7-2-9"
     ry="28.539906"
     style="fill:none;stroke:#000000;stroke-width:1.05765903"
     transform="scale(1,-1)"
     height="114.60907"
     width="114.13124"
     y="-122.21345"
     x="7.0687799" />
  <path
     id="path1187"
     style="fill:#fff;fill-opacity:.057143"
     d="m37.509 10.721c-14.891-4.3296-32.78 19.454-27.93 26.295-0.04334 0.71563-0.07674 1.4439-0.07674 2.1732v10.76c25.898-25.61 66.753-35.478 90.374-39.178-0.22473-0.02628-0.45986-0.03062-0.69067-0.03062-41.576 0.38742-23.653-0.01876-61.677-0.01875z" />
  <path
     inkscape:connector-curvature="0"
     id="path3206"
     d="M 76.819777,98.246964 C 71.100786,97.297234 63.673592,90.750468 56.892604,80.681988 54.047749,76.45791 51.136937,71.241354 49.236846,66.96188 c -0.381142,-0.858416 -0.520449,-1.064864 -0.635579,-0.941844 -0.230564,0.246343 -1.886022,3.845756 -2.758172,5.996985 -1.467052,3.618608 -2.501062,7.068767 -3.093604,10.322391 -0.379603,2.084361 -0.412256,6.123039 -0.05962,7.374238 0.819412,2.907357 2.596293,4.115751 5.368654,3.651015 1.998419,-0.334994 4.417565,-1.429546 6.984314,-3.160072 1.139906,-0.768538 1.439685,-0.914776 1.880585,-0.917359 0.674117,-0.004 1.177329,0.362796 1.413114,1.02988 0.156322,0.442272 0.155743,0.570585 -0.0045,0.99326 -0.153809,0.405652 -0.420502,0.645715 -1.623675,1.461563 -1.661811,1.12685 -4.50481,2.579332 -5.959271,3.044567 -3.810746,1.21897 -6.775373,0.77213 -8.865469,-1.336229 -1.917234,-1.933979 -2.743251,-5.062818 -2.488686,-9.426826 0.331285,-5.679302 2.828019,-13.432645 6.773002,-21.032865 l 0.989265,-1.905846 -0.747222,-2.021727 c -0.715111,-1.934866 -2.129424,-6.420522 -2.129424,-6.753706 0,-0.245441 -0.432718,-0.194974 -2.329807,0.271685 -4.346675,1.06923 -7.576308,2.430109 -9.892488,4.168434 -4.552712,3.41686 -3.346814,7.270975 3.475743,11.108686 1.086438,0.611127 1.33738,0.940215 1.33738,1.753861 0,0.425197 -0.07858,0.599698 -0.426966,0.948082 -0.746063,0.746062 -1.440758,0.590577 -3.744105,-0.838008 -3.331314,-2.066144 -5.43754,-4.417192 -6.179407,-6.897672 -0.270941,-0.905913 -0.271899,-2.730664 -0.0022,-3.641799 0.393635,-1.328398 1.056143,-2.383428 2.251933,-3.586165 2.679804,-2.695362 7.123835,-4.764948 13.218787,-6.155996 1.241401,-0.283325 1.528096,-0.389292 1.481331,-0.547514 -0.0319,-0.107902 -0.17379,-0.817809 -0.315306,-1.577562 -0.828108,-4.445703 -0.853281,-9.542887 -0.06108,-12.369552 0.91345,-3.259336 2.567279,-5.199229 5.204432,-6.104623 1.076739,-0.369668 3.231993,-0.311066 4.709219,0.128043 1.485689,0.441626 3.330342,1.349948 4.960375,2.442519 1.942633,1.302102 2.515438,1.848433 2.597669,2.477594 0.188944,1.44569 -1.304669,2.225298 -2.523995,1.317415 -3.82314,-2.846648 -6.552115,-3.929827 -8.738635,-3.468532 -1.588953,0.335223 -2.803641,1.968918 -3.416646,4.595251 -0.243811,1.044524 -0.277154,1.54029 -0.278295,4.137819 -0.0011,2.948284 0.04086,3.422435 0.57922,6.513663 l 0.270524,1.553287 0.637729,-0.07709 c 2.926898,-0.353795 5.44928,-0.599829 7.00468,-0.68324 l 1.846098,-0.099 0.287888,-0.370147 c 3.118233,-4.009248 7.653329,-8.69116 11.089414,-11.44842 6.580363,-5.280356 12.224118,-7.114152 16.106604,-5.233441 2.193176,1.062392 3.579285,3.233442 4.116822,6.44813 0.35093,2.098696 0.07368,7.066401 -0.472474,8.46567 -0.18869,0.483451 -0.793728,0.831763 -1.445799,0.832338 -0.410414,4.43e-4 -0.625296,-0.08311 -0.941842,-0.365869 -0.37528,-0.335225 -0.409864,-0.428551 -0.407239,-1.098816 0.0016,-0.402864 0.107256,-1.551887 0.234855,-2.553379 0.370965,-2.911717 0.115948,-5.603198 -0.67844,-7.160336 -0.38563,-0.755876 -1.174605,-1.562837 -1.856853,-1.899189 -0.511821,-0.25233 -0.775376,-0.290651 -1.972146,-0.286763 -1.257552,0.0041 -1.503586,0.04617 -2.744686,0.469463 -3.839832,1.309615 -8.239539,4.457461 -12.962298,9.274117 -0.903167,0.921123 -2.257652,2.381148 -3.00996,3.244505 l -1.367832,1.569737 1.18906,0.02819 c 16.643944,0.39455 30.671961,4.216686 37.284488,10.158683 1.488008,1.337096 2.77016,3.329133 3.14269,4.882634 0.18887,0.787595 0.19251,2.316815 0.007,3.135528 -0.68284,3.021126 -4.00438,5.991156 -8.846729,7.91055 -0.765417,0.303397 -0.927053,0.328002 -1.340711,0.204071 -0.677468,-0.202974 -1.116751,-0.775312 -1.116751,-1.454969 0,-0.798615 0.38477,-1.182215 1.767435,-1.762027 3.007814,-1.261292 5.340273,-3.029607 6.225903,-4.720023 0.307741,-0.5874 0.354113,-0.815818 0.353963,-1.743387 -1.24e-4,-0.964802 -0.04061,-1.1459 -0.421216,-1.883688 -0.536686,-1.040481 -2.31045,-2.819144 -3.781924,-3.792389 -7.229199,-4.781425 -20.851893,-7.885976 -34.605471,-7.886413 l -2.268812,-7.2e-5 -0.855006,1.161606 c -1.278995,1.737644 -4.054419,5.96151 -5.158841,7.851158 l -0.97393,1.666382 0.669213,1.535887 c 6.713397,15.407654 17.135894,28.416608 24.823249,30.983392 1.671273,0.558027 2.935919,0.585212 3.958159,0.08503 1.912962,-0.93592 2.914944,-3.365437 3.068817,-7.441013 0.256823,-6.802004 -2.19309,-16.203056 -6.761373,-25.945438 -0.473648,-1.010102 -0.758008,-1.781058 -0.758008,-2.055082 0,-0.823981 0.676609,-1.471899 1.524844,-1.460193 0.753176,0.01042 1.083576,0.312015 1.65806,1.513623 3.704713,7.748858 6.17433,15.511593 7.096499,22.306415 0.310108,2.28487 0.311993,6.935397 0.0035,8.597266 -0.493432,2.658093 -1.37133,4.573043 -2.714726,5.921632 -1.63655,1.64288 -3.760531,2.27031 -6.27301,1.85308 z M 50.243176,56.884723 c 0.469,-0.759752 1.381912,-2.155568 2.028684,-3.101805 0.64677,-0.94624 1.175948,-1.758803 1.175948,-1.805702 0,-0.161399 -5.933693,0.43906 -6.113256,0.618628 -0.107763,0.107758 0.247777,1.429916 1.037847,3.859524 0.574563,1.766909 0.730102,2.125828 0.859754,1.98395 0.08706,-0.09528 0.542023,-0.794841 1.011023,-1.554595 z M 62.903904,68.14891 c -1.886627,-0.673637 -2.989149,-2.247697 -2.964019,-4.23175 0.01315,-1.038794 0.250013,-1.751171 0.85739,-2.57857 1.539026,-2.096581 4.682022,-2.335019 6.574173,-0.49875 2.173364,2.109179 1.530006,5.872537 -1.219071,7.131113 -0.946041,0.433103 -2.32268,0.508522 -3.248473,0.177957 z"
     style="fill:#ffffff;fill-opacity:1" />
</svg>
