<?xml version="1.0" encoding="UTF-8" standalone="no"?>
<!-- Created with Inkscape (http://www.inkscape.org/) -->
<svg id="svg3449" xmlns:rdf="http://www.w3.org/1999/02/22-rdf-syntax-ns#" xmlns="http://www.w3.org/2000/svg" height="128" width="128" version="1.0" xmlns:cc="http://creativecommons.org/ns#" xmlns:xlink="http://www.w3.org/1999/xlink" xmlns:dc="http://purl.org/dc/elements/1.1/">
 <metadata id="metadata56">
  <rdf:RDF>
   <cc:Work rdf:about="">
    <dc:format>image/svg+xml</dc:format>
    <dc:type rdf:resource="http://purl.org/dc/dcmitype/StillImage"/>
    <dc:title/>
   </cc:Work>
  </rdf:RDF>
 </metadata>
 <defs id="defs3451">
  <linearGradient id="linearGradient3514" y2="-9.1034" gradientUnits="userSpaceOnUse" x2="66.492" gradientTransform="matrix(.96826 0 0 .97948 2.179 .16587)" y1="-42.638" x1="67.952">
   <stop id="stop4620" style="stop-color:#37414b" offset="0"/>
   <stop id="stop4622" style="stop-color:#37414b;stop-opacity:0" offset="1"/>
  </linearGradient>
  <linearGradient id="linearGradient3516" y2="-11.847" gradientUnits="userSpaceOnUse" x2="58.98" gradientTransform="matrix(.96826 0 0 .97948 2.179 .16587)" y1="-118.55" x1="57.173">
   <stop id="stop4596" offset="0"/>
   <stop id="stop4598" style="stop-opacity:0" offset="1"/>
  </linearGradient>
  <linearGradient id="linearGradient3519" y2="50.369" gradientUnits="userSpaceOnUse" x2="76.558" gradientTransform="matrix(.96826 0 0 .97948 3.2423 -129.19)" y1="13.164" x1="76.558">
   <stop id="stop3392" style="stop-color:#425e7b" offset="0"/>
   <stop id="stop3394" style="stop-color:#7a91a7" offset="1"/>
  </linearGradient>
  <linearGradient id="linearGradient3521" y2="-8.7399" gradientUnits="userSpaceOnUse" x2="60.217" gradientTransform="matrix(.96826 0 0 .97948 2.179 .16587)" y1="-123.72" x1="60.395">
   <stop id="stop3392-4-8" style="stop-color:#425e7b" offset="0"/>
   <stop id="stop3394-8-0" style="stop-color:#7a91a7" offset="1"/>
  </linearGradient>
  <radialGradient id="radialGradient3349" gradientUnits="userSpaceOnUse" cy="45.647" cx="42.148" gradientTransform="matrix(.94690 0 0 1.139 3.5954 -29.89)" r="58.984">
   <stop id="stop2699-5" style="stop-color:#86b3e0" offset="0"/>
   <stop id="stop2701-7" style="stop-color:#649ad6" offset="1"/>
  </radialGradient>
  <clipPath id="clipPath3613">
   <rect id="rect3615" style="fill:#fff" rx="6" ry="6" height="84" width="84" y="6" x="6"/>
  </clipPath>
  <linearGradient id="linearGradient3613" x1="48" gradientUnits="userSpaceOnUse" y1="20.221" x2="48" y2="138.66">
   <stop id="stop3739-0" style="stop-color:#fff" offset="0"/>
   <stop id="stop3741-0" style="stop-color:#fff;stop-opacity:0" offset="1"/>
  </linearGradient>
  <filter id="filter3794" height="1.384" width="1.384" color-interpolation-filters="sRGB" y="-.192" x="-.192">
   <feGaussianBlur id="feGaussianBlur3796" stdDeviation="5.28"/>
  </filter>
  <filter id="filter3174" color-interpolation-filters="sRGB">
   <feGaussianBlur id="feGaussianBlur3176" stdDeviation="1.71"/>
  </filter>
  <linearGradient id="ButtonShadow-4" x1="45.448" gradientUnits="userSpaceOnUse" y1="92.54" gradientTransform="scale(1.0059 .99417)" x2="45.448" y2="7.0165">
   <stop id="stop3750-6" offset="0"/>
   <stop id="stop3752-4" style="stop-opacity:.58824" offset="1"/>
  </linearGradient>
 </defs>
 <rect id="rect892" style="stroke:url(#linearGradient3521);stroke-width:.97385;fill:url(#linearGradient3519)" transform="scale(1,-1)" ry="29.296" height="115.54" width="114.22" y="-122.25" x="7.0394"/>
 <rect id="rect892-2" style="stroke:url(#linearGradient3516);stroke-width:.97385;fill:url(#linearGradient3514)" transform="scale(1,-1)" ry="28.993" height="114.35" width="114.22" y="-121.46" x="7.0599"/>
 <path id="rect895" style="fill:url(#radialGradient3349)" d="m33.051 7.2596c-7.969-2.4493-27.013 15.174-25.653 23.038-0.050142 0.97378-0.088772 1.9648-0.088772 2.9572v52.419c0 20.876 10.712 33.859 22.318 33.859h67.038c12.638 0 24.318-11.245 24.318-25.859v-64.017c0.7-10.928-21.283-24.659-25.926-22.618-47.846 0.8653-18.017 0.2236-62.003 0.2236z"/>
 <rect id="rect892-2-7-8" style="opacity:.15891;stroke:#000;stroke-width:4.8445;fill:none" transform="scale(1,-1)" ry="28.993" height="114.35" width="114.22" y="-121.16" x="6.8687"/>
 <rect id="rect892-2-7-1" style="opacity:.15891;stroke:#000;stroke-width:7.7512;fill:none" transform="scale(1,-1)" ry="28.993" height="114.35" width="114.22" y="-121.16" x="6.8687"/>
 <rect id="rect892-2-7-2-9" ry="28.067" style="stroke:#000;stroke-width:1.0489;fill:none" transform="scale(1,-1)" height="112.71" width="114.14" y="-120.31" x="7.0649"/>
 <path id="path1187" style="fill:#fff;fill-opacity:.057143" d="m33.017 7.2319c-23.707 0-26.027 0.6738-25.93 26.295-0.04334 0.71563-0.07674 1.4439-0.07674 2.1732v32.76c18.67-38.321 38.34-51.497 90.374-61.179-0.225-0.026-0.46-0.0303-0.691-0.0303-41.576 0.3874-25.652-0.0188-63.676-0.0188z"/>
 <g id="layer2" style="display:none" transform="translate(-183.05 -205.14)">
  <rect id="rect3745" style="opacity:.9;filter:url(#filter3174);fill:url(#ButtonShadow-4)" rx="6" ry="6" height="85" width="86" y="7" x="5"/>
 </g>
 <g id="layer5" style="display:none" transform="translate(-183.05 -205.14)">
  <rect id="rect3171" style="opacity:.1;filter:url(#filter3794);stroke:#fff;stroke-linecap:round;stroke-width:.5;fill:url(#linearGradient3613)" clip-path="url(#clipPath3613)" rx="12" ry="12" height="66" width="66" y="15" x="15"/>
 </g>
 <g id="layer4-3" transform="matrix(1.3904 0 0 1.4056 -2.7373 -5.5786)">
  <path id="path3920" style="opacity:.05;fill:#095471" d="m59.656 25.062c-0.8859-0.0858-1.7766-0.06314-2.625 0.03125-1.1947 0.13292-2.3646 0.4149-3.4688 0.75-4.5687 1.3866-8.0139 6.4264-8.0312 12.375-10.987-1.336-15.773-7.081-19.281-10.468 0.0024 0.0023-0.09632-0.09594-0.09375-0.09375 0.0026 0.0022-0.09644-0.06454-0.09375-0.0625 0.0027 0.002-0.09655-0.09564-0.09375-0.09375 0.0028 0.0019-0.09665-0.06422-0.09375-0.0625 0.0029 0.0017-0.09675-0.03281-0.09375-0.03125 0.003 0.0016-0.12808-0.06388-0.125-0.0625 0.0031 0.0014-0.0969-0.06371-0.09375-0.0625 0.0032 0.0012-0.12822-0.03228-0.125-0.03125 0.0032 0.001-0.09702-0.03209-0.09375-0.03125 0.0033 0.000843-0.12831-0.03191-0.125-0.03125 0.0033 0.000656-0.12834-0.000467-0.125 0 0.0033 0.000467-0.12837-0.03153-0.125-0.03125 0.0034 0.000277-0.12838-0.000086-0.125 0 0.0034 0.000086-0.09713 0.000106-0.09375 0 0.0034-0.000106-0.12836 0.000297-0.125 0 0.0034-0.000297-0.12834 0.03174-0.125 0.03125 0.0033-0.000487-0.12831 0.000676-0.125 0 0.0033-0.000676-0.09701 0.03211-0.09375 0.03125 0.0033-0.000863-0.12821 0.0323-0.125 0.03125 0.0032-0.001-0.12815 0.06373-0.125 0.0625 0.0031-0.0012-0.09682 0.03265-0.09375 0.03125 0.0031-0.0014-0.12799 0.06407-0.125 0.0625 0.003-0.0016-0.09664 0.06424-0.09375 0.0625 0.0029-0.0017-0.09654 0.0644-0.09375 0.0625 0.0028-0.0019-0.09643 0.06456-0.09375 0.0625 0.0027-0.0021-0.09631 0.06471-0.09375 0.0625 0.0026-0.0022-0.09618 0.0961-0.09375 0.09375 0.0024-0.0023-0.09604 0.09623-0.09375 0.09375 0.0023-0.0025-0.06465 0.06511-0.0625 0.0625 0.0021-0.0026-0.09575 0.12772-0.09375 0.125 0.002-0.0027-0.06434 0.09658-0.0625 0.09375 0.0018-0.0028-0.06417 0.09668-0.0625 0.09375-2.1007 3.7084-2.0999 7.5479-1.0625 10.625 0.21095 0.62573 0.59278 1.0867 0.875 1.6562-0.01118 0.0028-0.03212 0.000248-0.03125 0 0.0037-0.0011-0.12861 0.06379-0.125 0.0625 0.0036-0.0013-0.12852 0.03277-0.125 0.03125 0.0035-0.0015-0.12841 0.06424-0.125 0.0625 0.0034-0.0017-0.1283 0.06446-0.125 0.0625 0.0033-0.002-0.09691 0.09592-0.09375 0.09375 0.0032-0.0022-0.12802 0.06487-0.125 0.0625 0.003-0.0024-0.09661 0.09631-0.09375 0.09375 0.0029-0.0026-0.09644 0.09648-0.09375 0.09375 0.0027-0.0027-0.09626 0.09665-0.09375 0.09375 0.0025-0.0029-0.09606 0.12806-0.09375 0.125 0.0023-0.0031-0.06461 0.09695-0.0625 0.09375 0.0021-0.0032-0.09565 0.12833-0.09375 0.125 0.0019-0.0033-0.06418 0.12844-0.0625 0.125 0.0017-0.0034-0.06396 0.09729-0.0625 0.09375 0.0015-0.0035-0.03248 0.15988-0.03125 0.15625 0.0012-0.0036-0.03224 0.1287-0.03125 0.125 0.000993-0.0037-0.032 0.12876-0.03125 0.125 0.000752-0.0038-0.03176 0.1288-0.03125 0.125 0.000509-0.0038-0.000264 0.12882 0 0.125a1.1407 1.1407 0 0 0 0 0.03125c-0.23445 3.5405 1.1304 6.5889 3.0938 8.8125 0.38609 0.43727 0.82706 0.70672 1.25 1.0625-0.02511 0.03072-0.06401 0.06446-0.0625 0.0625 0.0023-0.0029-0.06457 0.12808-0.0625 0.125 0.0021-0.0031-0.06438 0.09696-0.0625 0.09375 0.0019-0.0032-0.06417 0.12832-0.0625 0.125 0.0017-0.0033-0.06396 0.12841-0.0625 0.125 0.0015-0.0034-0.06375 0.1285-0.0625 0.125 0.0012-0.0035-0.03228 0.12857-0.03125 0.125 0.001-0.0036-0.03205 0.12863-0.03125 0.125 0.000803-0.0036-0.03183 0.12867-0.03125 0.125 0.000576-0.0037-0.000346 0.1287 0 0.125s-0.03136 0.12871-0.03125 0.125c0.000114-0.0037 0.000117 0.15996 0 0.15625-0.000117-0.0037 0.0316 0.1287 0.03125 0.125-0.000348-0.0037 0.000578 0.12867 0 0.125-0.000578-0.0037 0.03206 0.12863 0.03125 0.125-0.000806-0.0036 0.03228 0.12857 0.03125 0.125a1.1407 1.1407 0 0 0 0 0.03125c1.0293 3.4051 3.0468 5.7417 5.3125 7.1562 0.54504 0.34029 1.0755 0.42799 1.625 0.65625-3.1932 1.4916-6.7412 1.9787-10.781 1.7812 0.0049 0.000318-0.1612-0.03116-0.15625-0.03125 0.0049-0.000093-0.19242 0.03175-0.1875 0.03125 0.0049-0.000503-0.16111 0.03216-0.15625 0.03125 0.0049-0.00091-0.19227 0.03256-0.1875 0.03125 0.0048-0.0013-0.1609 0.0642-0.15625 0.0625 0.0046-0.0017-0.16074 0.06458-0.15625 0.0625 0.0045-0.0021-0.16055 0.06495-0.15625 0.0625 0.0043-0.0024-0.16033 0.09655-0.15625 0.09375 0.0041-0.0028-0.12884 0.12812-0.125 0.125 0.0038-0.0031-0.15981 0.09718-0.15625 0.09375 0.0036-0.0034-0.12827 0.12872-0.125 0.125 0.0033-0.0037-0.0967 0.16022-0.09375 0.15625 0.0029-0.004-0.09636 0.1292-0.09375 0.125 0.0026-0.0042-0.096 0.16066-0.09375 0.15625 0.0022-0.0044-0.06438 0.16083-0.0625 0.15625 0.0019-0.0046-0.06399 0.16097-0.0625 0.15625 0.0015-0.0047-0.06359 0.19232-0.0625 0.1875 0.0011-0.0048-0.03194 0.16115-0.03125 0.15625 0.000689-0.0049-0.00028 0.19244 0 0.1875 0.00028-0.0049 0.000131 0.1612 0 0.15625-0.000131-0.0049 0.000541 0.19242 0 0.1875-0.000541-0.0049 0.0322 0.19236 0.03125 0.1875-0.000947-0.0049 0.0326 0.16101 0.03125 0.15625-0.0013-0.0048 0.06424 0.16088 0.0625 0.15625-0.0017-0.0046 0.06461 0.16072 0.0625 0.15625-0.0021-0.0045 0.09623 0.16053 0.09375 0.15625-0.0025-0.0043 0.09658 0.16031 0.09375 0.15625-0.0028-0.0041 0.0969 0.16006 0.09375 0.15625-0.0032-0.0038 0.12846 0.12854 0.125 0.125-0.0035-0.0035 0.12874 0.12824 0.125 0.125-0.0037-0.0032 0.129 0.09667 0.125 0.09375-0.004-0.0029 0.16047 0.09632 0.15625 0.09375 16.423 10.048 33.216 3.9988 41.5-4.0938 6.6853-6.5308 9.5969-15.933 9.9062-24.531 0.69508-0.57669 1.5089-1.2236 2.375-2.0938 1.0905-1.0956 2.1946-2.3235 2.8125-3.8125 0.0055-0.01337 0.02578-0.01784 0.03125-0.03125 0.01646-0.04077 0.0324-0.12817 0.03125-0.125-0.0015 0.0042 0.0637-0.12928 0.0625-0.125-0.0012 0.0043 0.03213-0.16061 0.03125-0.15625-0.000877 0.0044 0.0318-0.16067 0.03125-0.15625-0.000549 0.0044 0.000218-0.1607 0-0.15625-0.000218 0.0044-0.000115-0.1607 0-0.15625 0.000115 0.0044-0.000447-0.16068 0-0.15625 0.000447 0.0044-0.03203-0.16063-0.03125-0.15625 0.000776 0.0044-0.03235-0.16056-0.03125-0.15625 0.0011 0.0043-0.03267-0.16047-0.03125-0.15625 0.0014 0.0042-0.06423-0.16035-0.0625-0.15625 0.0017 0.0041-0.06453-0.12896-0.0625-0.125 0.002 0.004-0.09607-0.16005-0.09375-0.15625 0.0023 0.0038-0.0651-0.12861-0.0625-0.125 0.0026 0.0036-0.12786-0.12841-0.125-0.125 0.0029 0.0034-0.09686-0.12818-0.09375-0.125 0.0031 0.0032-0.12834-0.09669-0.125-0.09375 0.0033 0.0029-0.0973-0.09644-0.09375-0.09375 0.0035 0.0027-0.15999-0.09616-0.15625-0.09375 0.0037 0.0024-0.12891-0.09588-0.125-0.09375 0.0039 0.0021-0.12906-0.06433-0.125-0.0625 0.0041 0.0018-0.16043-0.06402-0.15625-0.0625 0.0042 0.0015-0.16053-0.03246-0.15625-0.03125 0.0043 0.0012-0.16061-0.06338-0.15625-0.0625 0.0044 0.000884-0.16066-0.000556-0.15625 0 0.0044 0.000556-0.16069-0.03148-0.15625-0.03125 0.0018 0.00009-0.03156 0.000393-0.0625 0 0.28301-0.61163 0.53975-1.2403 0.625-1.9375 0.0012-0.01022-0.0012-0.02101 0-0.03125 0.0044-0.04059 0.03149-0.09693 0.03125-0.09375-0.00031 0.0042 0.000017-0.16043 0-0.15625-0.000017 0.0042-0.000276-0.16042 0-0.15625 0.000276 0.0042-0.03182-0.16039-0.03125-0.15625 0.000567 0.0041-0.03211-0.12909-0.03125-0.125 0.000856 0.0041-0.03239-0.16027-0.03125-0.15625 0.0011 0.004-0.03267-0.12893-0.03125-0.125 0.0014 0.0039-0.06419-0.16007-0.0625-0.15625 0.0017 0.0038-0.06445-0.12869-0.0625-0.125 0.002 0.0037-0.06471-0.12854-0.0625-0.125 0.0022 0.0035-0.0962-0.12838-0.09375-0.125 0.0025 0.0034-0.09643-0.1282-0.09375-0.125 0.0027 0.0032-0.09665-0.09676-0.09375-0.09375 0.0029 0.003-0.09685-0.09654-0.09375-0.09375 0.0031 0.0028-0.12829-0.09632-0.125-0.09375 0.0033 0.0026-0.12846-0.09608-0.125-0.09375 0.0035 0.0023-0.12862-0.09584-0.125-0.09375 0.0036 0.0021-0.12876-0.06433-0.125-0.0625 0.0038 0.0018-0.12888-0.06406-0.125-0.0625 0.0039 0.0016-0.16022-0.03253-0.15625-0.03125 0.004 0.0013-0.12906-0.0635-0.125-0.0625 0.0041 0.001-0.16036-0.03197-0.15625-0.03125 0.0041 0.000716-0.1604-0.000426-0.15625 0 0.0042 0.000426-0.12917-0.03138-0.125-0.03125 0.0042 0.000133-0.16042 0.00016-0.15625 0 0.0042-0.00016-0.1604 0.0317-0.15625 0.03125 0.0042-0.000452-0.12911 0.000742-0.125 0 0.0041-0.000742-0.1603 0.03228-0.15625 0.03125 0.004-0.001-0.16022 0.06381-0.15625 0.0625 0.004-0.0013-0.12886 0.03283-0.125 0.03125 0.0039-0.0016-0.12874 0.06435-0.125 0.0625 0.003-0.0015-0.06061 0.04473-0.09375 0.0625-0.0083 0.0044-0.03197 0.000422-0.03125 0-1.825 0.99128-3.8804 1.7907-5.5625 2.1562-2.3173-1.9074-4.7071-3.0158-7.125-3.25z"/>
  <path id="path3916" style="opacity:.15;fill:#095471" d="m57.156 26.219c-1.0908 0.12136-2.182 0.39462-3.25 0.71875-4.293 1.302-7.912 6.507-7.344 12.562-12.205-1.084-17.564-7.529-21.093-10.938a0.96192 0.96192 0 0 0 -1.5 0.21875c-1.9366 3.4188-1.9173 6.8738-0.96875 9.6875 0.47429 1.4068 1.1634 2.6748 1.9688 3.7188-0.40393-0.15932-0.88507-0.31846-1.125-0.46875a0.96192 0.96192 0 0 0 -1.4688 0.75c-0.21243 3.208 1.0169 5.9663 2.8125 8 0.80229 0.90865 1.7538 1.6196 2.7188 2.25-0.21082-0.02569-0.32613 0.0039-0.5625-0.03125a0.96192 0.96192 0 0 0 -1.0625 1.2188c0.95409 3.1562 2.7658 5.2534 4.8125 6.5312 1.2232 0.76368 2.502 1.1756 3.75 1.4688-3.9632 2.6044-8.4827 3.3108-13.562 3.0625a0.96192 0.96192 0 0 0 -0.563 1.782c15.953 9.7606 32.156 3.8165 40.094-3.9375 6.5432-6.3919 9.4574-15.784 9.6562-24.281 0.73564-0.60561 1.677-1.3912 2.625-2.3438 1.0676-1.0726 2.0885-2.2292 2.5938-3.4688a0.96192 0.96192 0 0 0 -1.25 -1.2812c-0.62769 0.24147-1.4958 0.61822-2.4688 0.9375 0.17683-0.19979 0.39786-0.32238 0.5625-0.53125 0.91264-1.1578 1.6577-2.3946 1.8125-3.7188a0.96192 0.96192 0 0 0 -1.4375 -0.96875c-2.021 1.1008-4.3175 2.0457-6.25 2.4062-3.1295-2.82-6.365-3.6925-9.5-3.3438z"/>
  <path id="path3912" style="opacity:.3;fill:#095471" d="m54.198 27.848c-4.01 1.217-7.8688 6.6325-6.6583 12.759-13.309-0.80147-19.187-7.9334-22.721-11.346-3.6023 6.3592 0.09183 12.54 3.3186 14.541-1.7029 0.09373-3.7627-0.64243-4.785-1.2828-0.38849 5.8667 4.392 9.9336 8.459 10.988-1.3001 0.3878-2.5254 0.43994-4.6199 0.1283 1.7836 5.9004 6.5755 7.4797 10.145 7.7395-4.5953 3.9877-10.114 4.8571-16.114 4.5638 15.558 9.5185 31.269 3.6624 38.916-3.8074 6.4213-6.2728 9.2919-15.666 9.3912-24.07 1.4697-1.1945 4.4415-3.7262 5.2491-5.7078-1.1721 0.45091-3.4908 1.5236-5.9104 1.62 1.9927-1.3057 4.2763-3.9223 4.5155-5.9679-2.2064 1.2017-4.7597 2.2429-6.9465 2.575-4.1225-3.9797-8.1368-3.9762-12.239-2.7313z"/>
  <path id="path6437" style="fill:#fff" d="m54.198 26.848c-4.01 1.217-7.8688 6.6325-6.6583 12.759-13.309-0.80147-19.187-7.9334-22.721-11.346-3.6023 6.3592 0.09183 12.54 3.3186 14.541-1.7029 0.09373-3.7627-0.64243-4.785-1.2828-0.38849 5.8667 4.392 9.9336 8.459 10.988-1.3001 0.3878-2.5254 0.43994-4.6199 0.1283 1.7836 5.9004 6.5755 7.4797 10.145 7.7395-4.5953 3.9877-10.114 4.8571-16.114 4.5638 15.558 9.5185 31.269 3.6624 38.916-3.8074 6.4213-6.2728 9.2919-15.666 9.3912-24.07 1.4697-1.1945 4.4415-3.7262 5.2491-5.7078-1.1721 0.45091-3.4908 1.5236-5.9104 1.62 1.9927-1.3057 4.2763-3.9223 4.5155-5.9679-2.2064 1.2017-4.7597 2.2429-6.9465 2.575-4.1225-3.9797-8.1368-3.9762-12.239-2.7313z"/>
 </g>
</svg>
