<?xml version="1.0" encoding="UTF-8" standalone="no"?>
<!-- Created with Inkscape (http://www.inkscape.org/) -->
<svg id="svg3449" xmlns:rdf="http://www.w3.org/1999/02/22-rdf-syntax-ns#" xmlns="http://www.w3.org/2000/svg" height="128" width="128" version="1.0" xmlns:cc="http://creativecommons.org/ns#" xmlns:xlink="http://www.w3.org/1999/xlink" xmlns:dc="http://purl.org/dc/elements/1.1/">
 <metadata id="metadata56">
  <rdf:RDF>
   <cc:Work rdf:about="">
    <dc:format>image/svg+xml</dc:format>
    <dc:type rdf:resource="http://purl.org/dc/dcmitype/StillImage"/>
    <dc:title/>
   </cc:Work>
  </rdf:RDF>
 </metadata>
 <defs id="defs3451">
  <linearGradient id="linearGradient3514" y2="-9.1034" gradientUnits="userSpaceOnUse" x2="66.492" gradientTransform="matrix(.96826 0 0 .97948 2.179 .16587)" y1="-42.638" x1="67.952">
   <stop id="stop4620" style="stop-color:#37414b" offset="0"/>
   <stop id="stop4622" style="stop-color:#37414b;stop-opacity:0" offset="1"/>
  </linearGradient>
  <linearGradient id="linearGradient3516" y2="-11.847" gradientUnits="userSpaceOnUse" x2="58.98" gradientTransform="matrix(.96826 0 0 .97948 2.179 .16587)" y1="-118.55" x1="57.173">
   <stop id="stop4596" offset="0"/>
   <stop id="stop4598" style="stop-opacity:0" offset="1"/>
  </linearGradient>
  <linearGradient id="linearGradient3519" y2="50.369" gradientUnits="userSpaceOnUse" x2="76.558" gradientTransform="matrix(.96826 0 0 .97948 3.2423 -129.19)" y1="13.164" x1="76.558">
   <stop id="stop3392" style="stop-color:#425e7b" offset="0"/>
   <stop id="stop3394" style="stop-color:#7a91a7" offset="1"/>
  </linearGradient>
  <linearGradient id="linearGradient3521" y2="-8.7399" gradientUnits="userSpaceOnUse" x2="60.217" gradientTransform="matrix(.96826 0 0 .97948 2.179 .16587)" y1="-123.72" x1="60.395">
   <stop id="stop3392-4-8" style="stop-color:#425e7b" offset="0"/>
   <stop id="stop3394-8-0" style="stop-color:#7a91a7" offset="1"/>
  </linearGradient>
  <radialGradient id="radialGradient3349" gradientUnits="userSpaceOnUse" cy="45.647" cx="42.148" gradientTransform="matrix(.94690 0 0 1.139 3.5954 -29.89)" r="58.984">
   <stop id="stop7563" style="stop-color:#da2d2d" offset="0"/>
   <stop id="stop7565" style="stop-color:#ab1e1e" offset="1"/>
  </radialGradient>
  <filter id="filter3174-5" color-interpolation-filters="sRGB">
   <feGaussianBlur id="feGaussianBlur3176-4" stdDeviation="1.71"/>
  </filter>
  <linearGradient id="ButtonShadow-4" x1="45.448" gradientUnits="userSpaceOnUse" y1="92.54" gradientTransform="scale(1.0059 .99417)" x2="45.448" y2="7.0165">
   <stop id="stop3750-3" offset="0"/>
   <stop id="stop3752-57" style="stop-opacity:.58824" offset="1"/>
  </linearGradient>
  <filter id="filter3174-0" color-interpolation-filters="sRGB">
   <feGaussianBlur id="feGaussianBlur3176-9" stdDeviation="1.71"/>
  </filter>
  <filter id="filter3174-7" color-interpolation-filters="sRGB">
   <feGaussianBlur id="feGaussianBlur3176-7" stdDeviation="1.71"/>
  </filter>
  <clipPath id="clipPath3613-9">
   <rect id="rect3615-2" style="fill:#fff" rx="6" ry="6" height="84" width="84" y="6" x="6"/>
  </clipPath>
  <linearGradient id="linearGradient3613-3" x1="48" gradientUnits="userSpaceOnUse" y1="20.221" x2="48" y2="138.66">
   <stop id="stop3739-03" style="stop-color:#fff" offset="0"/>
   <stop id="stop3741-5" style="stop-color:#fff;stop-opacity:0" offset="1"/>
  </linearGradient>
  <filter id="filter3794-30" height="1.384" width="1.384" color-interpolation-filters="sRGB" y="-.192" x="-.192">
   <feGaussianBlur id="feGaussianBlur3796-38" stdDeviation="5.28"/>
  </filter>
  <filter id="filter3174-8" color-interpolation-filters="sRGB">
   <feGaussianBlur id="feGaussianBlur3176-3" stdDeviation="1.71"/>
  </filter>
  <clipPath id="clipPath3613-26">
   <rect id="rect3615-4" style="fill:#fff" rx="6" ry="6" height="84" width="84" y="6" x="6"/>
  </clipPath>
  <filter id="filter3794-67" height="1.384" width="1.384" color-interpolation-filters="sRGB" y="-.192" x="-.192">
   <feGaussianBlur id="feGaussianBlur3796-4" stdDeviation="5.28"/>
  </filter>
  <filter id="filter3174-4" color-interpolation-filters="sRGB">
   <feGaussianBlur id="feGaussianBlur3176-0" stdDeviation="1.71"/>
  </filter>
  <filter id="filter3174-1" color-interpolation-filters="sRGB">
   <feGaussianBlur id="feGaussianBlur3176-1" stdDeviation="1.71"/>
  </filter>
  <linearGradient id="linearGradient9285" y2="7.0165" gradientUnits="userSpaceOnUse" x2="45.448" gradientTransform="matrix(1.0059 0 0 .99417 -59.657 2.8358)" y1="92.54" x1="45.448">
   <stop id="stop3750-7" offset="0"/>
   <stop id="stop3752-3" style="stop-opacity:.58824" offset="1"/>
  </linearGradient>
  <clipPath id="clipPath3613-76">
   <rect id="rect3615-6" style="fill:#fff" rx="6" ry="6" height="84" width="84" y="6" x="6"/>
  </clipPath>
  <filter id="filter3794-4" height="1.384" width="1.384" color-interpolation-filters="sRGB" y="-.192" x="-.192">
   <feGaussianBlur id="feGaussianBlur3796-04" stdDeviation="5.28"/>
  </filter>
  <filter id="filter3174-06" color-interpolation-filters="sRGB">
   <feGaussianBlur id="feGaussianBlur3176-91" stdDeviation="1.71"/>
  </filter>
  <filter id="filter3850" color-interpolation-filters="sRGB">
   <feGaussianBlur id="feGaussianBlur3852" stdDeviation="0.46499996"/>
  </filter>
  <filter id="filter3174-45" color-interpolation-filters="sRGB">
   <feGaussianBlur id="feGaussianBlur3176-46" stdDeviation="1.71"/>
  </filter>
  <linearGradient id="linearGradient7711" y2="5.9795" gradientUnits="userSpaceOnUse" x2="54.75" gradientTransform="matrix(1.0239 0 0 1.3226 15.683 .16604)" y1="90" x1="54.75">
   <stop id="stop3629" style="stop-color:#a91c1c" offset="0"/>
   <stop id="stop3631" style="stop-color:#dd2c2c" offset="1"/>
  </linearGradient>
  <linearGradient id="linearGradient7716" y2="28" gradientUnits="userSpaceOnUse" x2="84" gradientTransform="matrix(1.1352 0 0 1.3226 16.494 13.623)" y1="44" x1="84">
   <stop id="stop3808" style="stop-color:#4baa0c" offset="0"/>
   <stop id="stop3810" style="stop-color:#66d819" offset="1"/>
  </linearGradient>
  <linearGradient id="linearGradient7721" y2="9.9688" gradientUnits="userSpaceOnUse" x2="83" gradientTransform="matrix(1.1352 0 0 1.3226 16.494 13.623)" y1="26" x1="83">
   <stop id="stop3787-6" style="stop-color:#ff8e00" offset="0"/>
   <stop id="stop3789-7" style="stop-color:#ffcc0a" offset="1"/>
  </linearGradient>
  <linearGradient id="linearGradient7725" y2="45.969" gradientUnits="userSpaceOnUse" x2="84" gradientTransform="matrix(1.1352 0 0 1.3226 16.494 13.623)" y1="62" x1="84">
   <stop id="stop3816" style="stop-color:#2499b6" offset="0"/>
   <stop id="stop3818" style="stop-color:#57c3de" offset="1"/>
  </linearGradient>
  <linearGradient id="linearGradient7728" y2="8" gradientUnits="userSpaceOnUse" x2="88" gradientTransform="matrix(1.9766 0 0 1.3932 -53.334 -3.2232)" y1="88" x1="88">
   <stop id="stop3768" style="stop-color:#d9d9d9" offset="0"/>
   <stop id="stop3770" style="stop-color:#fff" offset="1"/>
  </linearGradient>
  <linearGradient id="linearGradient7733" y2="8" gradientUnits="userSpaceOnUse" x2="16" gradientTransform="matrix(.81647 0 0 1.3404 12.452 .059302)" y1="88" x1="16">
   <stop id="stop3642" style="stop-color:#1a1a1a" offset="0"/>
   <stop id="stop3644" style="stop-color:#2a2a2a" offset="1"/>
  </linearGradient>
 </defs>
 <rect id="rect892" style="stroke:url(#linearGradient3521);stroke-width:.97385;fill:url(#linearGradient3519)" transform="scale(1,-1)" ry="29.296" height="115.54" width="114.22" y="-122.25" x="7.0394"/>
 <rect id="rect892-2" style="stroke:url(#linearGradient3516);stroke-width:.97385;fill:url(#linearGradient3514)" transform="scale(1,-1)" ry="28.993" height="114.35" width="114.22" y="-121.46" x="7.0599"/>
 <path id="rect895" style="fill:url(#radialGradient3349)" d="m30.571 7.0104c-13.128 0.936-22.55 15.04-23.173 23.288-0.050142 0.97378-0.088772 1.9648-0.088772 2.9572v58.419c0 15.229 11.191 27.859 22.318 27.859h67.038c15.69 0 24.318-16.445 24.318-25.859v-64.017c-0.21-5.933-12.29-21.682-25.926-22.618-47.846 0.8653-20.497-0.0256-64.483-0.0256z"/>
 <rect id="rect892-2-7-8" style="opacity:.15891;stroke:#000;stroke-width:4.8445;fill:none" transform="scale(1,-1)" ry="28.993" height="114.35" width="114.22" y="-121.16" x="6.8683"/>
 <rect id="rect892-2-7-1" style="opacity:.15891;stroke:#000;stroke-width:7.7512;fill:none" transform="scale(1,-1)" ry="28.993" height="114.35" width="114.22" y="-121.16" x="6.8686"/>
 <rect id="rect892-2-7-2-9" ry="28.067" style="stroke:#000;stroke-width:1.0489;fill:none" transform="scale(1,-1)" height="112.71" width="114.14" y="-120.31" x="7.0644"/>
 <g id="layer2" style="display:none" transform="translate(137.63 15.959)">
  <rect id="rect3745" style="opacity:.9;filter:url(#filter3174-5);fill:url(#ButtonShadow-4)" rx="6" ry="6" height="85" width="86" y="7" x="5"/>
 </g>
 <g id="layer2-3" style="display:none" transform="translate(146.29 14.997)">
  <rect id="rect3745-4" style="opacity:.9;filter:url(#filter3174-0);fill:url(#ButtonShadow-4)" rx="6" ry="6" height="85" width="86" y="7" x="5"/>
 </g>
 <g id="layer2-4" style="display:none" transform="translate(176.76 -8.736)">
  <rect id="rect3745-7" style="opacity:.9;filter:url(#filter3174-7);fill:url(#ButtonShadow-4)" rx="6" ry="6" height="85" width="86" y="7" x="5"/>
 </g>
 <g id="layer2-2" style="display:none" transform="translate(143.15 5.055)">
  <rect id="rect3745-9" style="opacity:.9;filter:url(#filter3174-8);fill:url(#ButtonShadow-4)" rx="6" ry="6" height="85" width="86" y="7" x="5"/>
 </g>
 <g id="layer5-4" style="display:none" transform="translate(143.15 5.055)">
  <rect id="rect3171-7" style="opacity:.3;filter:url(#filter3794-30);stroke:#fff;stroke-linecap:round;stroke-width:.5;fill:url(#linearGradient3613-3)" clip-path="url(#clipPath3613-9)" rx="12" ry="12" height="66" width="66" y="15" x="15"/>
 </g>
 <g id="layer2-1" style="display:none" transform="translate(160.47 -5.8175)">
  <rect id="rect3745-8" style="opacity:.9;filter:url(#filter3174-4);fill:url(#ButtonShadow-4)" rx="6" ry="6" height="85" width="86" y="7" x="5"/>
 </g>
 <g id="layer5-46" style="display:none" transform="translate(160.47 -5.8175)">
  <rect id="rect3171-2" style="opacity:.1;filter:url(#filter3794-67);stroke:#fff;stroke-linecap:round;stroke-width:.5;fill:url(#linearGradient3613-3)" clip-path="url(#clipPath3613-26)" rx="12" ry="12" height="66" width="66" y="15" x="15"/>
 </g>
 <rect id="rect3745-82" style="opacity:.9;filter:url(#filter3174-1);display:none;fill:url(#linearGradient9285)" rx="6" ry="6" height="85" width="86" y="9.8358" x="-54.657"/>
 <style id="style1470" type="text/css"/>
 <g id="layer2-9" style="display:none" transform="translate(-132.38 3.7839)">
  <rect id="rect3745-827" style="opacity:.9;filter:url(#filter3174-06);fill:url(#ButtonShadow-4)" rx="6" ry="6" height="85" width="86" y="7" x="5"/>
 </g>
 <g id="layer5" transform="translate(-132.38 3.7839)">
  <rect id="rect3171" style="opacity:.1;filter:url(#filter3794-4);stroke:#fff;stroke-linecap:round;stroke-width:.5;fill:url(#linearGradient3613-3)" clip-path="url(#clipPath3613-76)" rx="12" ry="12" height="66" width="66" y="15" x="15"/>
 </g>
 <rect id="rect3745-74" style="opacity:.9;filter:url(#filter3174-45);display:none;fill:url(#ButtonShadow-4)" transform="matrix(1.1352 0 0 1.3226 15.015 .16604)" rx="6" ry="6" height="85" width="86" y="7" x="5"/>
 <path id="path3729" style="fill:url(#linearGradient7728)" d="m93.123 8.0529v111.19h5.5811c16.698 0 21.721-21.226 21.721-23.442v-62.309c0-12.044-13.583-25.442-25.721-25.442z"/>
 <rect id="rect3779" style="color:#000000;fill:url(#linearGradient7725)" rx="2.2703" ry="2.6451" height="21.161" width="9.0812" y="74.461" x="106.17"/>
 <path id="path3804" d="m106.17 91.654v1.3226c0 1.4654 1.0126 2.6452 2.2703 2.6452h4.5406c1.2578 0 2.2703-1.1797 2.2703-2.6452v-1.3226c0 1.4654-1.0126 2.6452-2.2703 2.6452h-4.5406c-1.2578 0-2.2703-1.1797-2.2703-2.6452z" style="opacity:.2;color:#000000"/>
 <rect id="rect3775" style="color:#000000;fill:url(#linearGradient7721)" rx="2.2703" ry="2.6451" height="21.161" width="9.0812" y="26.848" x="106.17"/>
 <path id="rect3793" d="m106.17 44.042v1.3226c0 1.4654 1.0126 2.6452 2.2703 2.6452h4.5406c1.2578 0 2.2703-1.1797 2.2703-2.6452v-1.3226c0 1.4654-1.0126 2.6452-2.2703 2.6452h-4.5406c-1.2578 0-2.2703-1.1797-2.2703-2.6452z" style="opacity:.2;color:#000000"/>
 <rect id="rect3777" style="color:#000000;fill:url(#linearGradient7716)" rx="2.2703" ry="2.6451" height="21.161" width="9.0812" y="50.655" x="106.17"/>
 <rect id="rect2419-7" style="fill-opacity:.37611" rx="16.604" ry="12.917" height="111.59" width="86.784" y="7.7474" x="23.29"/>
 <path id="path3802" d="m106.17 67.848v1.3226c0 1.4654 1.0126 2.6452 2.2703 2.6452h4.5406c1.2578 0 2.2703-1.1797 2.2703-2.6452v-1.3226c0 1.4654-1.0126 2.6452-2.2703 2.6452h-4.5406c-1.2578 0-2.2703-1.1797-2.2703-2.6452z" style="opacity:.2;color:#000000"/>
 <rect id="rect2419" style="fill:url(#linearGradient7711)" rx="16.604" ry="12.917" height="111.59" width="86.784" y="8.1015" x="21.826"/>
 <rect id="rect3650" style="opacity:.15;fill:#fff" height="111.1" width="1.1352" y="8.1015" x="32.259"/>
 <path id="rect3635" d="m5.8866 36.783 0.71654 58.237c0.13596 11.05 13.841 23.224 23.866 25.423 0.52044 0.11415 1.5789 0.24905 1.5789 0.24905l0.088-113.65c-14.402-0.5562-26.11 16.383-26.249 29.743z" style="fill:url(#linearGradient7733)"/>
 <rect id="rect3648" style="opacity:.4" height="111.1" width="1.1352" y="8.1015" x="31.124"/>
 <path id="path3854" style="opacity:.3;filter:url(#filter3850);fill:#faa" transform="matrix(1.1352 0 0 1.3226 7.0153 .16604)" d="m39.844 29.188a0.82494 0.82494 0 0 0 -0.656 0.812v36a0.82494 0.82494 0 0 0 0.812 0.812h11.812c2.1121 0 4.0777-0.41946 5.9062-1.25 1.8505-0.83386 3.4657-2.0613 4.8125-3.6875 1.3464-1.6257 2.3985-3.6219 3.1562-5.9688 0.76401-2.3842 1.125-5.1232 1.125-8.1875-0.000033-3.1316-0.35941-5.8448-1.1562-8.1875a0.82494 0.82494 0 0 0 0 -0.03125c-0.79055-2.3239-1.9183-4.2375-3.375-5.7812-1.4541-1.5409-3.2169-2.698-5.2188-3.4375-1.9864-0.73366-4.1483-1.0937-6.5-1.0938h-10.562a0.82494 0.82494 0 0 0 -0.15625 0zm7.0625 7.4375h3.5312c1.304 0.000028 2.4633 0.20881 3.5 0.625a0.82494 0.82494 0 0 0 0 0.03125c1.0312 0.40914 1.9054 1.0259 2.6562 1.9062 0.73799 0.85019 1.353 1.997 1.7812 3.4062 0.43535 1.3908 0.65623 3.0872 0.65625 5.125-0.00002 1.9863-0.21053 3.7327-0.625 5.1875-0.40564 1.4696-0.9827 2.6619-1.6875 3.625-0.69548 0.95203-1.4822 1.6285-2.4062 2.0938-0.92289 0.47084-1.9304 0.75001-3.0312 0.75h-4.375v-22.75z"/>
 <path id="path3827" d="m81.935 63.295c-0.000036 3.9649-0.41517 7.4567-1.2454 10.475-0.83031 2.9962-1.9661 5.5081-3.4073 7.5356-1.4413 2.0275-3.1488 3.5594-5.1226 4.5957-1.9582 1.0363-4.0731 1.5544-6.3446 1.5544h-13.394v-47.613h11.984c2.5691 0.000052 4.9268 0.46189 7.073 1.3855 2.1462 0.92369 3.9947 2.3429 5.5456 4.2578s2.7571 4.3479 3.6188 7.299c0.86158 2.9512 1.2924 6.4543 1.2924 10.509m-6.979 0c-0.000024-2.7709-0.26633-5.1476-0.79895-7.1301-0.51699-1.9824-1.2454-3.6044-2.1853-4.866-0.93996-1.2841-2.0679-2.2302-3.3838-2.8385-1.3003-0.60821-2.7415-0.91234-4.3237-0.91238h-4.9112v32.204h5.8746c1.3942 0.000012 2.6788-0.34914 3.8537-1.0475 1.1906-0.69835 2.2167-1.7346 3.0783-3.1089 0.87725-1.3967 1.5587-3.1201 2.0444-5.1701 0.50127-2.05 0.75192-4.4267 0.75195-7.1301" style="fill:#fff"/>
 <path id="path3838" d="m52.421 39.843v1.3226h11.99c2.5691 0.000052 4.913 0.48166 7.0592 1.4052 2.1462 0.92369 4.0184 2.3422 5.5693 4.257 1.5509 1.9149 2.7567 4.323 3.6183 7.2742 0.81308 2.7851 1.2312 6.0686 1.277 9.8367 0.0027-0.2233-0.000002-0.4349 0-0.66129-0.000037-4.055-0.41547-7.5468-1.277-10.498-0.86164-2.9511-2.0674-5.3593-3.6183-7.2742-1.5509-1.9148-3.4232-3.3334-5.5693-4.257-2.1462-0.92358-4.4901-1.4052-7.0592-1.4052h-11.99zm22.526 24.096c-0.0383 2.4283-0.28542 4.6096-0.74494 6.4889-0.48566 2.0501-1.1802 3.7696-2.0575 5.1663-0.86163 1.3742-1.8602 2.4014-3.0507 3.0998-1.1749 0.6984-2.4724 1.0746-3.8666 1.0746h-5.8886v1.3226h5.8886c1.3942 0.000012 2.6917-0.37619 3.8666-1.0746 1.1906-0.69835 2.1891-1.7256 3.0507-3.0998 0.87725-1.3967 1.5718-3.1163 2.0575-5.1663 0.50127-2.05 0.74492-4.4468 0.74494-7.1502-0.000002-0.23081 0.0037-0.43595 0-0.66129z" style="opacity:.25"/>
 <path id="path3843" d="m52.421 38.521v1.3226h11.99c2.5691 0.000052 4.913 0.48166 7.0592 1.4052 2.1462 0.92369 4.0184 2.3422 5.5693 4.257 1.5509 1.9149 2.7567 4.323 3.6183 7.2742 0.81308 2.7851 1.2312 6.0686 1.277 9.8367 0.0027-0.2233-0.000002-0.4349 0-0.66129-0.000037-4.055-0.41547-7.5468-1.277-10.498-0.86164-2.9511-2.0674-5.3593-3.6183-7.2742-1.5509-1.9148-3.4232-3.3334-5.5693-4.257-2.1462-0.92358-4.4901-1.4052-7.0592-1.4052h-11.99zm22.526 24.096c-0.0383 2.4283-0.28542 4.6096-0.74494 6.4889-0.48566 2.0501-1.1802 3.7696-2.0575 5.1663-0.86163 1.3742-1.8602 2.4014-3.0507 3.0998-1.1749 0.6984-2.4724 1.0746-3.8666 1.0746h-5.8886v1.3226h5.8886c1.3942 0.000012 2.6917-0.37619 3.8666-1.0746 1.1906-0.69835 2.1891-1.7256 3.0507-3.0998 0.87725-1.3967 1.5718-3.1163 2.0575-5.1663 0.50127-2.05 0.74492-4.4468 0.74494-7.1502-0.000002-0.23081 0.0037-0.43595 0-0.66129z" style="fill:#941a1a"/>
</svg>
