<?xml version="1.0" encoding="UTF-8" standalone="no"?>
<!-- Created with Inkscape (http://www.inkscape.org/) -->
<svg id="svg4511" xmlns:rdf="http://www.w3.org/1999/02/22-rdf-syntax-ns#" xmlns="http://www.w3.org/2000/svg" height="48px" width="48px" version="1.1" xmlns:cc="http://creativecommons.org/ns#" xmlns:xlink="http://www.w3.org/1999/xlink" xmlns:dc="http://purl.org/dc/elements/1.1/">
 <defs id="defs4513">
  <filter id="filter3174" color-interpolation-filters="sRGB">
   <feGaussianBlur id="feGaussianBlur3176" stdDeviation="1.71"/>
  </filter>
  <linearGradient id="linearGradient3254" y2="7.0165" gradientUnits="userSpaceOnUse" x2="45.448" gradientTransform="matrix(1.0059 0 0 .99417 -175.86 -30.712)" y1="92.54" x1="45.448">
   <stop id="stop3750" offset="0"/>
   <stop id="stop3752" style="stop-opacity:.58824" offset="1"/>
  </linearGradient>
  <filter id="filter3174-7" color-interpolation-filters="sRGB">
   <feGaussianBlur id="feGaussianBlur3176-58" stdDeviation="1.71"/>
  </filter>
  <linearGradient id="linearGradient8374" y2="7.0165" gradientUnits="userSpaceOnUse" x2="45.448" gradientTransform="matrix(1.0059 0 0 .99417 108.29 -24.643)" y1="92.54" x1="45.448">
   <stop id="stop3750-50" offset="0"/>
   <stop id="stop3752-42" style="stop-opacity:.58824" offset="1"/>
  </linearGradient>
  <filter id="filter3174-41" color-interpolation-filters="sRGB">
   <feGaussianBlur id="feGaussianBlur3176-9" stdDeviation="1.71"/>
  </filter>
  <linearGradient id="ButtonShadow-6" x1="45.448" gradientUnits="userSpaceOnUse" y1="92.54" gradientTransform="scale(1.0059 .99417)" x2="45.448" y2="7.0165">
   <stop id="stop3750-9" offset="0"/>
   <stop id="stop3752-33" style="stop-opacity:.58824" offset="1"/>
  </linearGradient>
  <filter id="filter3174-57" color-interpolation-filters="sRGB">
   <feGaussianBlur id="feGaussianBlur3176-42" stdDeviation="1.71"/>
  </filter>
  <filter id="filter3174-76" color-interpolation-filters="sRGB">
   <feGaussianBlur id="feGaussianBlur3176-51" stdDeviation="1.71"/>
  </filter>
  <filter id="filter3174-3" color-interpolation-filters="sRGB">
   <feGaussianBlur id="feGaussianBlur3176-47" stdDeviation="1.71"/>
  </filter>
  <filter id="filter3174-65" color-interpolation-filters="sRGB">
   <feGaussianBlur id="feGaussianBlur3176-0" stdDeviation="1.71"/>
  </filter>
  <linearGradient id="linearGradient10848" y2="-23.714" gradientUnits="userSpaceOnUse" x2="46.689" y1="-23.714" x1="2">
   <stop id="stop4329" style="stop-color:#f0f0f0" offset="0"/>
   <stop id="stop4331" style="stop-color:#b4b4b4" offset="1"/>
  </linearGradient>
  <linearGradient id="linearGradient10968" y2="7.0165" gradientUnits="userSpaceOnUse" x2="45.448" gradientTransform="matrix(1.0059 0 0 .99417 88.061 -64.071)" y1="92.54" x1="45.448">
   <stop id="stop3750-53" offset="0"/>
   <stop id="stop3752-85" style="stop-opacity:.58824" offset="1"/>
  </linearGradient>
  <linearGradient id="linearGradient4327-0">
   <stop id="stop4329-1" style="stop-color:#f0f0f0" offset="0"/>
   <stop id="stop4331-2" style="stop-color:#b4b4b4" offset="1"/>
  </linearGradient>
  <linearGradient id="linearGradient11027" y2="-23.714" xlink:href="#linearGradient4327-0" gradientUnits="userSpaceOnUse" y1="-23.714" gradientTransform="translate(.084022 .11383)" x2="46.689" x1="2"/>
  <linearGradient id="linearGradient11061" y2="-23.714" gradientUnits="userSpaceOnUse" y1="-23.714" gradientTransform="translate(.037143 -2.7143)" x2="46.689" x1="2">
   <stop id="stop4629" style="stop-color:#de7b7b" offset="0"/>
   <stop id="stop4633" style="stop-color:#721b1b" offset="1"/>
  </linearGradient>
  <linearGradient id="linearGradient11086" y2="-24.286" gradientUnits="userSpaceOnUse" x2="46.327" gradientTransform="translate(.39955)" y1="-24.286" x1="1.5305">
   <stop id="stop3226" style="stop-color:#c88080" offset="0"/>
   <stop id="stop3228" style="stop-color:#6e2e2e" offset="1"/>
  </linearGradient>
  <linearGradient id="linearGradient11109" y2="-23.714" xlink:href="#linearGradient4327-0" gradientUnits="userSpaceOnUse" y1="-23.714" gradientTransform="translate(.35675 .62270)" x2="46.689" x1="2"/>
  <linearGradient id="linearGradient11134" y2="-21.458" xlink:href="#linearGradient4327-0" gradientUnits="userSpaceOnUse" x2="46.773" y1="-21.458" x1="1.9769"/>
  <linearGradient id="linearGradient11142" y2="-23.714" xlink:href="#linearGradient4327-0" gradientUnits="userSpaceOnUse" x2="46.689" y1="-23.714" x1="2"/>
  <linearGradient id="linearGradient11150" y2="-19.535" gradientUnits="userSpaceOnUse" x2="47.046" y1="-19.535" x1="2.7547">
   <stop id="stop3599" style="stop-color:#dcdcdc" offset="0"/>
   <stop id="stop3601" style="stop-color:#f5f5f5" offset="1"/>
  </linearGradient>
  <filter id="filter3174-34" color-interpolation-filters="sRGB">
   <feGaussianBlur id="feGaussianBlur3176-01" stdDeviation="1.71"/>
  </filter>
  <linearGradient id="linearGradient4603" y2="7.0165" gradientUnits="userSpaceOnUse" x2="45.448" gradientTransform="matrix(1.0059 0 0 .99417 -25.979 57.897)" y1="92.54" x1="45.448">
   <stop id="stop3750-96" offset="0"/>
   <stop id="stop3752-39" style="stop-opacity:.58824" offset="1"/>
  </linearGradient>
  <filter id="filter3174-2" color-interpolation-filters="sRGB">
   <feGaussianBlur id="feGaussianBlur3176-44" stdDeviation="1.71"/>
  </filter>
  <linearGradient id="linearGradient4702" y2="85.062" gradientUnits="userSpaceOnUse" x2="20.179" y1="85.062" x1="16">
   <stop id="stop3378" style="stop-color:#767676" offset="0"/>
   <stop id="stop3380" style="stop-color:#fdfdfd" offset="1"/>
  </linearGradient>
  <radialGradient id="radialGradient4704" gradientUnits="userSpaceOnUse" cy="85.062" cx="18.089" gradientTransform="matrix(1 0 0 1.0043 0 -.36352)" r="2.0893">
   <stop id="stop3368" style="stop-color:#c1ff97" offset="0"/>
   <stop id="stop3370" style="stop-color:#30c700" offset="1"/>
  </radialGradient>
  <linearGradient id="linearGradient4706" y2="88.011" gradientUnits="userSpaceOnUse" x2="67.071" gradientTransform="matrix(1 0 0 -1 -15.859 216.46)" y1="80" x1="67.071">
   <stop id="stop3739-88" style="stop-color:#fff" offset="0"/>
   <stop id="stop3741-16" style="stop-color:#fff;stop-opacity:0" offset="1"/>
  </linearGradient>
  <linearGradient id="linearGradient4708" y2="88.011" gradientUnits="userSpaceOnUse" x2="67.071" gradientTransform="translate(-15.859 48.458)" y1="80" x1="67.071">
   <stop id="stop4227" offset="0"/>
   <stop id="stop4229" style="stop-color:#484848" offset="1"/>
  </linearGradient>
  <filter id="filter3174-22" color-interpolation-filters="sRGB">
   <feGaussianBlur id="feGaussianBlur3176-08" stdDeviation="1.71"/>
  </filter>
  <clipPath id="clipPath3788">
   <path id="path3790" d="m-84 12c-2.216 0-4 1.784-4 4v52c0 2.216 1.784 4 4 4h64c2.216 0 4-1.784 4-4v-52c0-2.216-1.784-4-4-4h-64zm24.969 14c2.8316-0.01228 5.6827 0.92281 7.8438 2.8438 4.3032 3.8251 4.3032 10.05 0 13.875-4.3032 3.8251-11.291 3.8251-15.594 0-2.8814-2.5613-3.8211-6.2034-2.8438-9.4688l6.75 6 7.7812-6.9375-6.75-5.9688c0.91839-0.21718 1.8686-0.33966 2.8125-0.34375zm12.875 14.25 10.531 9.375c2.1583 1.9185 2.1583 5.019 0 6.9375s-5.623 1.9185-7.7812 0l-10.562-9.375c1.7121-0.59717 3.3352-1.5201 4.7188-2.75s2.4219-2.6656 3.0938-4.1875zm6.656 10.406c-0.70501 0-1.4308 0.24061-1.9688 0.71875-1.0758 0.95627-1.0758 2.5125 0 3.4688 1.0758 0.95627 2.8304 0.95627 3.9062 0 1.0758-0.95628 1.0758-2.5125 0-3.4688-0.5379-0.47814-1.2325-0.71875-1.9375-0.71875z" style="fill:#803300"/>
  </clipPath>
  <filter id="filter3784" height="1.51" width="1.4533" color-interpolation-filters="sRGB" y="-.255" x="-.22667">
   <feGaussianBlur id="feGaussianBlur3786" stdDeviation="3.4"/>
  </filter>
  <linearGradient id="linearGradient4801" y2="26.072" gradientUnits="userSpaceOnUse" x2="47.495" y1="58.697" x1="47.495">
   <stop id="stop3769-0" style="stop-color:#4d4d4d;stop-opacity:.70732" offset="0"/>
   <stop id="stop3771-8" style="stop-color:#4d4d4d;stop-opacity:.25203" offset="1"/>
  </linearGradient>
 </defs>
 <metadata id="metadata4516">
  <rdf:RDF>
   <cc:Work rdf:about="">
    <dc:format>image/svg+xml</dc:format>
    <dc:type rdf:resource="http://purl.org/dc/dcmitype/StillImage"/>
    <dc:title/>
   </cc:Work>
  </rdf:RDF>
 </metadata>
 <g id="layer1">
  <rect id="rect810-9" style="opacity:.52991;stroke:#000;fill:#333" transform="scale(1,-1)" ry="10.607" height="43.689" width="43.689" y="-46.112" x="2.5506"/>
  <rect id="rect810" style="stroke:url(#linearGradient11142);fill:url(#linearGradient10848)" transform="scale(1,-1)" ry="10.607" height="43.689" width="43.689" y="-45.559" x="2.5"/>
  <rect id="rect3745" style="opacity:.9;filter:url(#filter3174);display:none;fill:url(#linearGradient3254)" rx="6" ry="6" height="85" width="86" y="-23.712" x="-170.86"/>
  <rect id="rect3745-1" style="opacity:.9;filter:url(#filter3174-7);display:none;fill:url(#linearGradient8374)" rx="6" ry="6" height="85" width="86" y="-17.643" x="113.29"/>
  <g id="layer2" style="display:none" transform="translate(-111.44 -124.36)">
   <rect id="rect3745-9" style="opacity:.9;filter:url(#filter3174-41);fill:url(#ButtonShadow-6)" rx="6" ry="6" height="85" width="86" y="7" x="5"/>
  </g>
  <g id="layer2-7" style="display:none" transform="translate(-218.05 -238.16)">
   <rect id="rect3745-2" style="opacity:.9;filter:url(#filter3174-57);fill:url(#ButtonShadow-6)" rx="6" ry="6" height="85" width="86" y="7" x="5"/>
  </g>
  <g id="layer2-1" style="display:none" transform="translate(-106.2 -48.076)">
   <path id="rect3745-24" style="opacity:.9;filter:url(#filter3174-76);fill:url(#ButtonShadow-6)" d="m11 7c-3.324 0-6 2.676-6 6v73c0 3.324 2.676 6 6 6h74c3.324 0 6-2.676 6-6v-73c0-3.324-2.676-6-6-6h-5v2.5c1.4703 0.7406 2.5 2.2424 2.5 4 0 2.484-2.016 4.5-4.5 4.5s-4.5-2.016-4.5-4.5c0-1.7576 1.0297-3.2594 2.5-4v-2.5h-8v2.5c1.4703 0.7406 2.5 2.2424 2.5 4 0 2.484-2.016 4.5-4.5 4.5s-4.5-2.016-4.5-4.5c0-1.7576 1.0297-3.2594 2.5-4v-2.5h-8v2.5c1.4703 0.7406 2.5 2.2424 2.5 4 0 2.484-2.016 4.5-4.5 4.5s-4.5-2.016-4.5-4.5c0-1.7576 1.0297-3.2594 2.5-4v-2.5h-8v2.5c1.4703 0.7406 2.5 2.2424 2.5 4 0 2.484-2.016 4.5-4.5 4.5s-4.5-2.016-4.5-4.5c0-1.7576 1.0297-3.2594 2.5-4v-2.5h-8v2.5c1.4703 0.7406 2.5 2.2424 2.5 4 0 2.484-2.016 4.5-4.5 4.5s-4.5-2.016-4.5-4.5c0-1.7576 1.0297-3.2594 2.5-4v-2.5h-8v2.5c1.4703 0.7406 2.5 2.2424 2.5 4 0 2.484-2.016 4.5-4.5 4.5s-4.5-2.016-4.5-4.5c0-1.7576 1.0297-3.2594 2.5-4v-2.5h-5z"/>
  </g>
  <g id="layer2-0" style="display:none" transform="translate(28.835 -121.51)">
   <rect id="rect3745-5" style="opacity:.9;filter:url(#filter3174-3);fill:url(#ButtonShadow-6)" rx="6" ry="6" height="85" width="86" y="7" x="5"/>
  </g>
  <rect id="rect3745-19" style="opacity:.9;filter:url(#filter3174-65);display:none;fill:url(#linearGradient10968)" rx="6" ry="6" height="85" width="86" y="-57.071" x="93.061"/>
  <rect id="rect810-4-0" style="stroke:url(#linearGradient11086);fill:url(#linearGradient11061)" transform="scale(1,-1)" ry="10.607" height="39.403" width="43.796" y="-43.987" x="2.43"/>
  <rect id="rect810-4" style="stroke:url(#linearGradient11134);fill:url(#linearGradient11027)" transform="scale(1,-1)" ry="10.607" height="39.403" width="43.796" y="-41.159" x="2.4769"/>
  <rect id="rect810-4-8" style="stroke:url(#linearGradient11150);fill:url(#linearGradient11109)" transform="scale(1,-1)" ry="10.607" height="36.373" width="44.099" y="-37.62" x="2.4466"/>
  <rect id="rect3745-51" style="opacity:.9;filter:url(#filter3174-34);display:none;fill:url(#linearGradient4603)" rx="6" ry="6" height="85" width="86" y="64.897" x="-20.979"/>
  <g id="layer2-3" style="display:none" transform="translate(-13.859 48.458)">
   <rect id="rect3745-7" style="opacity:.9;filter:url(#filter3174-2);fill:url(#ButtonShadow-6)" rx="6" ry="6" height="85" width="86" y="7" x="5"/>
  </g>
  <g id="g4674" transform="matrix(.25 0 0 .25 15.095 6.9188)">
   <g id="g3318" transform="translate(-13.859 48.458)">
    <path id="path3374" style="fill:url(#linearGradient4702)" transform="matrix(0 1.6709 1.6638 0 -122.04 53.283)" d="m20.179 85.062a2.0893 2.0982 0 1 1 -4.1786 0 2.0893 2.0982 0 1 1 4.1786 0z"/>
    <path id="path3364" style="stroke-opacity:.53182;stroke:#000;stroke-linecap:square;stroke-width:.84050;fill:url(#radialGradient4704)" transform="matrix(1.1923 0 0 1.1872 -2.0769 -17.48)" d="m20.179 85.062a2.0893 2.0982 0 1 1 -4.1786 0 2.0893 2.0982 0 1 1 4.1786 0z"/>
   </g>
   <path id="path4237" style="fill:url(#linearGradient4706)" d="m41.141 136.96c-0.81756 0-1.5-0.68244-1.5-1.5v-6c0-0.81756 0.68244-1.5 1.5-1.5s1.5 0.68244 1.5 1.5v6c0 0.81756-0.68244 1.5-1.5 1.5zm4 0c-0.81756 0-1.5-0.68244-1.5-1.5v-6c0-0.81756 0.68244-1.5 1.5-1.5s1.5 0.68244 1.5 1.5v6c0 0.81756-0.68244 1.5-1.5 1.5zm4 0c-0.81756 0-1.5-0.68244-1.5-1.5v-6c0-0.81756 0.68244-1.5 1.5-1.5s1.5 0.68244 1.5 1.5v6c0 0.81756-0.68244 1.5-1.5 1.5zm4 0c-0.81756 0-1.5-0.68244-1.5-1.5v-6c0-0.81756 0.68244-1.5 1.5-1.5s1.5 0.68244 1.5 1.5v6c0 0.81756-0.68244 1.5-1.5 1.5zm4 0c-0.81756 0-1.5-0.68244-1.5-1.5v-6c0-0.81756 0.68244-1.5 1.5-1.5s1.5 0.68244 1.5 1.5v6c0 0.81756-0.68244 1.5-1.5 1.5zm4 0c-0.81756 0-1.5-0.68244-1.5-1.5v-6c0-0.81756 0.68244-1.5 1.5-1.5s1.5 0.68244 1.5 1.5v6c0 0.81756-0.68244 1.5-1.5 1.5zm4 0c-0.81756 0-1.5-0.68244-1.5-1.5v-6c0-0.81756 0.68244-1.5 1.5-1.5s1.5 0.68244 1.5 1.5v6c0 0.81756-0.68244 1.5-1.5 1.5z"/>
   <path id="rect4210" style="fill:url(#linearGradient4708)" d="m41.141 128.46c-0.554 0-1 0.446-1 1v6c0 0.554 0.446 1 1 1s1-0.446 1-1v-6c0-0.554-0.446-1-1-1zm4 0c-0.554 0-1 0.446-1 1v6c0 0.554 0.446 1 1 1s1-0.446 1-1v-6c0-0.554-0.446-1-1-1zm4 0c-0.554 0-1 0.446-1 1v6c0 0.554 0.446 1 1 1s1-0.446 1-1v-6c0-0.554-0.446-1-1-1zm4 0c-0.554 0-1 0.446-1 1v6c0 0.554 0.446 1 1 1s1-0.446 1-1v-6c0-0.554-0.446-1-1-1zm4 0c-0.554 0-1 0.446-1 1v6c0 0.554 0.446 1 1 1s1-0.446 1-1v-6c0-0.554-0.446-1-1-1zm4 0c-0.554 0-1 0.446-1 1v6c0 0.554 0.446 1 1 1s1-0.446 1-1v-6c0-0.554-0.446-1-1-1zm4 0c-0.554 0-1 0.446-1 1v6c0 0.554 0.446 1 1 1s1-0.446 1-1v-6c0-0.554-0.446-1-1-1z"/>
  </g>
  <g id="layer2-12" style="display:none" transform="translate(-153.45 -19.427)">
   <rect id="rect3745-4" style="opacity:.9;filter:url(#filter3174-22);fill:url(#ButtonShadow-6)" rx="6" ry="6" height="85" width="86" y="7" x="5"/>
  </g>
  <g id="layer4-0" transform="matrix(.729 0 0 .729 -11.143 -11.278)">
   <path id="path3780-1" style="opacity:.8;filter:url(#filter3784);fill:#fff" d="m-69.626 33.258c-0.97733 3.2654-0.0407 6.8898 2.8407 9.451 4.3032 3.8251 11.28 3.8251 15.583 0 4.3032-3.8251 4.3032-10.027 0-13.852-2.8814-2.5613-6.9588-3.3938-10.632-2.5251l6.7366 5.9881-7.7917 6.9259-6.7366-5.9881zm15.665 13.924 10.551 9.3789c2.1583 1.9185 5.6334 1.9185 7.7917 0s2.1583-5.0075 0-6.9259l-10.551-9.3789c-0.67182 1.5219-1.7006 2.9546-3.0842 4.1844-1.3836 1.2299-2.9954 2.1444-4.7075 2.7415zm12.499 4.1844c1.0758-0.95627 2.82-0.95627 3.8958 0s1.0758 2.5067 0 3.463c-1.0758 0.95627-2.82 0.95627-3.8958 0-1.0758-0.95628-1.0758-2.5067 0-3.463z" clip-path="url(#clipPath3788)" transform="translate(100)"/>
   <path id="path3739" style="fill:url(#linearGradient4801)" d="m30.374 33.258c-0.97733 3.2654-0.0407 6.8898 2.8407 9.451 4.3032 3.8251 11.28 3.8251 15.583 0 4.3032-3.8251 4.3032-10.027 0-13.852-2.882-2.561-6.959-3.393-10.633-2.525l6.7366 5.9881-7.7917 6.9259-6.7366-5.9881zm15.665 13.924 10.551 9.3789c2.1583 1.9185 5.6334 1.9185 7.7917 0s2.1583-5.0075 0-6.9259l-10.551-9.3789c-0.67182 1.5219-1.7006 2.9546-3.0842 4.1844-1.3836 1.2299-2.9954 2.1444-4.7075 2.7415zm12.499 4.1844c1.0758-0.95627 2.82-0.95627 3.8958 0s1.0758 2.5067 0 3.463c-1.0758 0.95627-2.82 0.95627-3.8958 0-1.0758-0.95628-1.0758-2.5067 0-3.463z"/>
   <path id="path3763" style="opacity:.4" d="m40.969 26c-0.94388 0.0041-1.8941 0.12656-2.8125 0.34375l0.9375 0.84375c3.4195-0.53684 7.077 0.30802 9.7188 2.6562 2.0082 1.7851 3.0537 4.1003 3.1875 6.4375 0.15296-2.671-0.89248-5.3975-3.1875-7.4375-2.161-1.921-5.012-2.856-7.843-2.844zm3.375 6.8125-7.2188 6.4375-6.75-6c-0.29315 0.97947-0.39583 1.9943-0.34375 3 0.04208-0.67058 0.14824-1.3468 0.34375-2l6.75 6 7.7812-6.9375-0.5625-0.5zm9.5 7.4375c-0.67182 1.5219-1.7102 2.9576-3.0938 4.1875s-3.0067 2.1528-4.7188 2.75l0.78125 0.6875c1.4217-0.58802 2.7655-1.3957 3.9375-2.4375 1.3836-1.2299 2.4219-2.6656 3.0938-4.1875l10.532 9.374c0.92658 0.82363 1.4628 1.8676 1.5938 2.9375 0.152-1.403-0.38-2.858-1.594-3.937l-10.531-9.375zm3.9375 13.375c-0.1681 0.77174 0.07762 1.6211 0.75 2.2188 1.0758 0.95627 2.8304 0.95627 3.9062 0 0.67238-0.59767 0.9181-1.447 0.75-2.2188-0.10844 0.44282-0.36271 0.87449-0.75 1.2188-1.0758 0.95627-2.8304 0.95627-3.9062 0-0.38729-0.34426-0.64156-0.77593-0.75-1.2188z"/>
  </g>
 </g>
</svg>
