<?xml version="1.0" encoding="UTF-8" standalone="no"?>
<!-- Created with Inkscape (http://www.inkscape.org/) -->
<svg id="svg3449" xmlns:rdf="http://www.w3.org/1999/02/22-rdf-syntax-ns#" xmlns="http://www.w3.org/2000/svg" height="128" width="128" version="1.0" xmlns:cc="http://creativecommons.org/ns#" xmlns:xlink="http://www.w3.org/1999/xlink" xmlns:dc="http://purl.org/dc/elements/1.1/">
 <metadata id="metadata56">
  <rdf:RDF>
   <cc:Work rdf:about="">
    <dc:format>image/svg+xml</dc:format>
    <dc:type rdf:resource="http://purl.org/dc/dcmitype/StillImage"/>
    <dc:title/>
   </cc:Work>
  </rdf:RDF>
 </metadata>
 <defs id="defs3451">
  <linearGradient id="linearGradient3514" y2="-9.1034" gradientUnits="userSpaceOnUse" x2="66.492" gradientTransform="matrix(.96826 0 0 .97948 2.179 .16587)" y1="-42.638" x1="67.952">
   <stop id="stop4620" style="stop-color:#37414b" offset="0"/>
   <stop id="stop4622" style="stop-color:#37414b;stop-opacity:0" offset="1"/>
  </linearGradient>
  <linearGradient id="linearGradient3516" y2="-11.847" gradientUnits="userSpaceOnUse" x2="58.98" gradientTransform="matrix(.96826 0 0 .97948 2.179 .16587)" y1="-118.55" x1="57.173">
   <stop id="stop4596" offset="0"/>
   <stop id="stop4598" style="stop-opacity:0" offset="1"/>
  </linearGradient>
  <linearGradient id="linearGradient3519" y2="50.369" gradientUnits="userSpaceOnUse" x2="76.558" gradientTransform="matrix(.96826 0 0 .97948 3.2423 -129.19)" y1="13.164" x1="76.558">
   <stop id="stop3392" style="stop-color:#425e7b" offset="0"/>
   <stop id="stop3394" style="stop-color:#7a91a7" offset="1"/>
  </linearGradient>
  <linearGradient id="linearGradient3521" y2="-8.7399" gradientUnits="userSpaceOnUse" x2="60.217" gradientTransform="matrix(.96826 0 0 .97948 2.179 .16587)" y1="-123.72" x1="60.395">
   <stop id="stop3392-4-8" style="stop-color:#425e7b" offset="0"/>
   <stop id="stop3394-8-0" style="stop-color:#7a91a7" offset="1"/>
  </linearGradient>
  <radialGradient id="radialGradient3349" gradientUnits="userSpaceOnUse" cy="45.647" cx="42.148" gradientTransform="matrix(.94690 0 0 1.139 3.5954 -29.89)" r="58.984">
   <stop id="stop2699-5" style="stop-color:#9cbbd9" offset="0"/>
   <stop id="stop2701-7" style="stop-color:#5c82ab" offset="1"/>
  </radialGradient>
  <linearGradient id="linearGradient3125" y2="44.341" gradientUnits="userSpaceOnUse" x2="71.204" gradientTransform="matrix(.51351 0 0 .51351 -.83613 22.979)" y1="6.2376" x1="71.204">
   <stop id="stop4013-8" style="stop-color:#fff" offset="0"/>
   <stop id="stop4015-11" style="stop-color:#fff;stop-opacity:.23529" offset=".50776"/>
   <stop id="stop4017-4" style="stop-color:#fff;stop-opacity:.15686" offset=".83457"/>
   <stop id="stop4019-3" style="stop-color:#fff;stop-opacity:.39216" offset="1"/>
  </linearGradient>
  <radialGradient id="radialGradient3128" gradientUnits="userSpaceOnUse" cy="50.889" cx="95.087" gradientTransform="matrix(.21258 -.051862 .043476 .17820 15.259 37.687)" r="23.5">
   <stop id="stop5147" style="stop-color:#cc70ff" offset="0"/>
   <stop id="stop5149" style="stop-color:#9361ed;stop-opacity:0" offset="1"/>
  </radialGradient>
  <linearGradient id="linearGradient3131" y2="24.628" gradientUnits="userSpaceOnUse" x2="20.055" gradientTransform="matrix(.45226 0 0 .60961 25.125 22.517)" y1="15.298" x1="16.626">
   <stop id="stop5135" style="stop-color:#fff" offset="0"/>
   <stop id="stop5137" style="stop-color:#fff;stop-opacity:0" offset="1"/>
  </linearGradient>
  <linearGradient id="linearGradient3134" y2="32" gradientUnits="userSpaceOnUse" x2="122.71" gradientTransform="matrix(0 -.33333 .33333 0 25.333 67.999)" y1="32" x1="79">
   <stop id="stop5101" style="stop-opacity:.736" offset="0"/>
   <stop id="stop5103" style="stop-opacity:.096" offset="1"/>
  </linearGradient>
  <linearGradient id="linearGradient3137" y2="65.922" gradientUnits="userSpaceOnUse" x2="68.313" gradientTransform="matrix(.13130 0 0 .098473 27.214 28.538)" y1="52.925" x1="68.313">
   <stop id="stop5069" style="stop-color:#fff" offset="0"/>
   <stop id="stop5071" style="stop-color:#fff;stop-opacity:0" offset="1"/>
  </linearGradient>
  <radialGradient id="radialGradient3140" gradientUnits="userSpaceOnUse" cy="95.388" cx="95.838" gradientTransform="matrix(.40504 -6.0398e-8 5.6748e-8 .38057 -2.8817 -.45134)" r="9.4982">
   <stop id="stop5107" style="stop-opacity:0" offset="0"/>
   <stop id="stop5109" style="stop-opacity:0" offset=".5"/>
   <stop id="stop5111" offset="1"/>
  </radialGradient>
  <radialGradient id="radialGradient3143" gradientUnits="userSpaceOnUse" cy="3.99" cx="23.896" gradientTransform="matrix(0 .35195 -.46456 0 37.854 24.364)" r="20.397">
   <stop id="stop5181" style="stop-color:#432f91" offset="0"/>
   <stop id="stop5183" style="stop-color:#1972a2" offset="1"/>
  </radialGradient>
  <radialGradient id="radialGradient3149" gradientUnits="userSpaceOnUse" cy="4.0774" cx="24.78" gradientTransform="matrix(0 .58527 -.77254 0 39.069 15.666)" r="20.397">
   <stop id="stop5194" style="stop-color:#787878" offset="0"/>
   <stop id="stop5196" style="stop-color:#474747" offset="1"/>
  </radialGradient>
  <linearGradient id="linearGradient3152" y2="44.341" gradientUnits="userSpaceOnUse" x2="71.204" gradientTransform="matrix(.40541 0 0 .40541 6.9188 25.719)" y1="6.2376" x1="71.204">
   <stop id="stop5091" style="stop-color:#fff" offset="0"/>
   <stop id="stop5093" style="stop-color:#fff;stop-opacity:.23529" offset=".50776"/>
   <stop id="stop5095" style="stop-color:#fff;stop-opacity:.15686" offset=".83457"/>
   <stop id="stop5097" style="stop-color:#fff;stop-opacity:.39216" offset="1"/>
  </linearGradient>
  <radialGradient id="radialGradient3155" gradientUnits="userSpaceOnUse" cy="22.955" cx="10.229" gradientTransform="matrix(0 .84903 -.99029 -2.472e-8 58.806 18.894)" r="20">
   <stop id="stop5075" style="stop-color:#3e3e3e" offset="0"/>
   <stop id="stop5077" style="stop-color:#343434" offset=".26238"/>
   <stop id="stop5079" style="stop-color:#272727" offset=".70495"/>
   <stop id="stop5081" style="stop-color:#1d1d1d" offset="1"/>
  </radialGradient>
  <linearGradient id="linearGradient3157" y2="118.83" gradientUnits="userSpaceOnUse" x2="83.59" gradientTransform="matrix(.37778 0 0 .37778 -.26668 -.26728)" y1="73.439" x1="83.59">
   <stop id="stop5085" style="stop-color:#1b1b1b" offset="0"/>
   <stop id="stop5087" offset="1"/>
  </linearGradient>
  <radialGradient id="radialGradient3160" gradientUnits="userSpaceOnUse" cy="3.99" cx="23.896" gradientTransform="matrix(0 1.1732 -1.5486 0 42.179 -2.7905)" r="20.397">
   <stop id="stop5115" style="stop-color:#fff" offset="0"/>
   <stop id="stop5117" style="stop-color:#ddd" offset=".26238"/>
   <stop id="stop5119" style="stop-color:#abacae" offset=".66094"/>
   <stop id="stop5121" style="stop-color:#89898b" offset="1"/>
  </radialGradient>
  <linearGradient id="linearGradient3163" y2="24.628" gradientUnits="userSpaceOnUse" x2="20.055" gradientTransform="matrix(.78156 0 0 .81327 5.2059 7.3544)" y1="15.298" x1="16.626">
   <stop id="stop2687-1-9-6-7" style="stop-color:#fff" offset="0"/>
   <stop id="stop2689-5-4-4-2" style="stop-color:#fff;stop-opacity:0" offset="1"/>
  </linearGradient>
  <linearGradient id="linearGradient3166" y2="46.702" gradientUnits="userSpaceOnUse" x2="19.759" gradientTransform="translate(19.745 .30043)" y1="24.735" x1="19.759">
   <stop id="stop4272-8-7" style="stop-opacity:0.328" offset="0"/>
   <stop id="stop4274-6-3" style="stop-opacity:0.68" offset="1"/>
  </linearGradient>
  <radialGradient id="radialGradient3169" gradientUnits="userSpaceOnUse" cy="4.625" cx="62.625" gradientTransform="matrix(.94118 0 0 .23529 -22.941 44.412)" r="10.625">
   <stop id="stop8840-3-7" offset="0"/>
   <stop id="stop8842-5-3" style="stop-opacity:0" offset="1"/>
  </radialGradient>
  <linearGradient id="linearGradient3174" y2="43" gradientUnits="userSpaceOnUse" x2="24" gradientTransform="matrix(1.0541 0 0 .83784 -1.2973 5.8919)" y1="5.5641" x1="24">
   <stop id="stop3979-6" style="stop-color:#fff" offset="0"/>
   <stop id="stop3981-3" style="stop-color:#fff;stop-opacity:.23529" offset=".036262"/>
   <stop id="stop3983-8" style="stop-color:#fff;stop-opacity:.15686" offset=".95056"/>
   <stop id="stop3985-2" style="stop-color:#fff;stop-opacity:.39216" offset="1"/>
  </linearGradient>
  <radialGradient id="radialGradient3177" fx="7.2758" gradientUnits="userSpaceOnUse" cy="9.9571" cx="7.8061" gradientTransform="matrix(-1.6167e-7 4.0506 -8.0922 -1.2159e-7 104.56 -24.663)" r="12.672">
   <stop id="stop3750-1-0" style="stop-color:#ffcd7d" offset="0"/>
   <stop id="stop3752-3-7" style="stop-color:#fc8f36" offset=".26238"/>
   <stop id="stop3754-1-8" style="stop-color:#e23a0e" offset=".70495"/>
   <stop id="stop3756-1-6" style="stop-color:#ac441f" offset="1"/>
  </radialGradient>
  <linearGradient id="linearGradient3179" y2=".57054" gradientUnits="userSpaceOnUse" x2="25" gradientTransform="matrix(1 0 0 .61356 .000053027 12.195)" y1="44.292" x1="25">
   <stop id="stop4041-4" style="stop-color:#ba3d12" offset="0"/>
   <stop id="stop4043-4" style="stop-color:#db6737" offset="1"/>
  </linearGradient>
  <linearGradient id="linearGradient3182" y2="47.013" gradientUnits="userSpaceOnUse" x2="25.132" gradientTransform="matrix(1.1429 0 0 .69531 -3.4285 8.246)" y1=".98521" x1="25.132">
   <stop id="stop3602-0" style="stop-color:#f4f4f4" offset="0"/>
   <stop id="stop3604-9" style="stop-color:#dbdbdb" offset="1"/>
  </linearGradient>
  <linearGradient id="linearGradient3185-5" y2="52.888" gradientUnits="userSpaceOnUse" x2="-76.844" gradientTransform="matrix(.99683 .00056082 .00020430 .71683 121.09 4.8433)" y1="6.6806" x1="-76.835">
   <stop id="stop4625-3" style="stop-opacity:.27059" offset="0"/>
   <stop id="stop4627-1" style="stop-opacity:.368" offset="1"/>
  </linearGradient>
  <linearGradient id="linearGradient3188-3" y2="43" gradientUnits="userSpaceOnUse" x2="24" gradientTransform="matrix(.99352 .26504 -.20865 .77528 5.1632 -.96764)" y1="5.5641" x1="24">
   <stop id="stop3979-6-2" style="stop-color:#fff" offset="0"/>
   <stop id="stop3981-3-2" style="stop-color:#fff;stop-opacity:.23529" offset=".036262"/>
   <stop id="stop3983-8-7" style="stop-color:#fff;stop-opacity:.15686" offset=".95056"/>
   <stop id="stop3985-2-7" style="stop-color:#fff;stop-opacity:.39216" offset="1"/>
  </linearGradient>
  <linearGradient id="linearGradient3192" y2="47.013" gradientUnits="userSpaceOnUse" x2="25.132" gradientTransform="matrix(1.0787 .28776 -.17353 .64477 2.5427 .63002)" y1=".98521" x1="25.132">
   <stop id="stop3602-0-8" style="stop-color:#f4f4f4" offset="0"/>
   <stop id="stop3604-9-2" style="stop-color:#dbdbdb" offset="1"/>
  </linearGradient>
  <linearGradient id="linearGradient3195" y2="52.888" gradientUnits="userSpaceOnUse" x2="-76.844" gradientTransform="matrix(.94192 .25183 -.17907 .66612 121.04 28.818)" y1="6.6806" x1="-76.835">
   <stop id="stop4625-3-6" style="stop-opacity:.27059" offset="0"/>
   <stop id="stop4627-1-9" style="stop-opacity:.368" offset="1"/>
  </linearGradient>
  <radialGradient id="radialGradient3198" gradientUnits="userSpaceOnUse" cy="40.43" cx="19.534" gradientTransform="matrix(.92701 0 0 .062684 4.0977 40.466)" r="23.93">
   <stop id="stop5073-2-9" offset="0"/>
   <stop id="stop5075-2-1" style="stop-opacity:0" offset="1"/>
  </radialGradient>
  <linearGradient id="linearGradient3146-2" y2="73.351" gradientUnits="userSpaceOnUse" x2="-166.58" gradientTransform="matrix(.33738 0 0 .32783 40.739 10.59)" y1="49.332" x1="-166.58">
   <stop id="stop5153-9-6" style="stop-color:#232323" offset="0"/>
   <stop id="stop5155-8-8" style="stop-color:#747474" offset="1"/>
  </linearGradient>
 </defs>
 <rect id="rect892" style="stroke:url(#linearGradient3521);stroke-width:.97385;fill:url(#linearGradient3519)" transform="scale(1,-1)" ry="29.296" height="115.54" width="114.22" y="-122.25" x="7.0394"/>
 <rect id="rect892-2" style="stroke:url(#linearGradient3516);stroke-width:.97385;fill:url(#linearGradient3514)" transform="scale(1,-1)" ry="28.993" height="114.35" width="114.22" y="-121.46" x="7.0599"/>
 <path id="rect895" style="fill:url(#radialGradient3349)" d="m33.051 7.2596c-7.969-2.4493-27.013 15.174-25.653 23.038-0.050142 0.97378-0.088772 1.9648-0.088772 2.9572v52.419c0 20.876 10.712 33.859 22.318 33.859h67.038c12.638 0 24.318-11.245 24.318-25.859v-64.017c0.7-10.928-21.283-24.659-25.926-22.618-47.846 0.8653-18.017 0.2236-62.003 0.2236z"/>
 <rect id="rect892-2-7-8" style="opacity:.15891;stroke:#000;stroke-width:4.8445;fill:none" transform="scale(1,-1)" ry="28.993" height="114.35" width="114.22" y="-121.16" x="6.8687"/>
 <rect id="rect892-2-7-1" style="opacity:.15891;stroke:#000;stroke-width:7.7512;fill:none" transform="scale(1,-1)" ry="28.993" height="114.35" width="114.22" y="-121.16" x="6.8687"/>
 <rect id="rect892-2-7-2-9" ry="28.067" style="stroke:#000;stroke-width:1.0489;fill:none" transform="scale(1,-1)" height="112.71" width="114.14" y="-120.31" x="7.0649"/>
 <path id="path1187" style="fill:#fff;fill-opacity:.057143" d="m33.017 7.2319c-23.707 0-26.027 0.6738-25.93 26.295-0.04334 0.71563-0.07674 1.4439-0.07674 2.1732v32.76c18.67-38.321 38.34-51.497 90.374-61.179-0.225-0.026-0.46-0.0303-0.691-0.0303-41.576 0.3874-25.652-0.0188-63.676-0.0188z"/>
 <g id="layer1-9" transform="matrix(2.4376 0 0 2.4604 5.3016 -2466.5)">
  <g id="g11759" transform="matrix(.8 0 0 .8 4.9071 1008.6)">
   <path id="path5050" d="m44.39 43a22.183 1.5 0 0 1 -44.367 0 22.183 1.5 0 1 1 44.367 0z" style="opacity:.2;color:#000000;fill:url(#radialGradient3198)"/>
   <path id="rect6741-1-2-0-1" d="m39.247 44.5-38.747-10.337 8.2526-30.663 38.747 10.336z" style="stroke-linejoin:round;stroke-width:.99992;color:#000000;stroke:url(#linearGradient3195);fill:none"/>
   <path id="path4160-9-7" d="m9.1163 4.127c8.6517 2.3079 37.754 10.073 37.754 10.073l-7.9858 29.672s-25.169-6.7144-37.754-10.072c2.662-9.89 5.3241-19.782 7.9863-29.673z" style="fill:url(#linearGradient3192)"/>
   <path id="path4160-62-5" d="m10.935 7.2625c7.513 2.0042 32.786 8.7479 32.786 8.7479l-6.6549 24.727s-21.857-5.8309-32.786-8.7463c2.2177-8.243 4.4361-16.486 6.655-24.728z" style="color:#000000;stroke:#158bb9;fill:#49bdea"/>
   <path id="rect6741-1-2-3" d="m38.52 43.246-36.76-9.807 7.7199-28.685 36.76 9.807z" style="stroke:url(#linearGradient3188-3);stroke-linecap:round;fill:none"/>
   <path id="rect6741-1-2-0" d="m44.5 42.5h-41v-33h41z" style="stroke-linejoin:round;stroke-width:.99992;color:#000000;stroke:url(#linearGradient3185-5);fill:none"/>
   <path id="path4160-9" d="m4 10c9.166 0 40 0.002 40 0.002v31.998h-40v-32z" style="fill:url(#linearGradient3182)"/>
   <path id="path4160-62" d="m6.5 12.5c8.0203 0 35 0.0017 35 0.0017l0.000041 26.998h-35v-27z" style="color:#000000;stroke:url(#linearGradient3179);fill:url(#radialGradient3177)"/>
   <path id="rect6741-1-2" d="m43.5 41.5h-39v-31h39z" style="stroke:url(#linearGradient3174);stroke-linecap:round;fill:none"/>
   <path id="path4019" d="m22.018 18c-1.0146 0-1.8372 1.6991-1.8372 3.7951 0 0.34874 0.01478 0.68732 0.05742 1.0081-0.21806-0.22755-0.4246-0.47187-0.68893-0.68194-1.6083-1.2781-3.4288-1.6311-4.0475-0.80054-0.61871 0.8306 0.20013 2.5467 1.8084 3.8248 0.30517 0.24252 0.60867 0.41828 0.91858 0.59299-0.35106 0.04636-0.72016 0.12555-1.0908 0.2372-1.9481 0.5868-3.2981 1.8996-3.0141 2.9057 0.28406 1.0061 2.0994 1.328 4.0475 0.74124 0.36527-0.11002 0.71707-0.23241 1.0334-0.38544-0.07722 0.14519-0.15976 0.28753-0.22964 0.44474-3.828 3.528-6.975 10.287-6.975 10.287l1.3205 0.02964c0.71702-1.778 2.4903-5.6823 5.2244-8.9542-0.38698 1.6629-0.13669 3.1318 0.68893 3.4394 0.95446 0.35553 2.2969-0.96361 2.9854-2.9353 0.06192-0.17735 0.09611-0.35877 0.14353-0.53369 0.07435 0.16923 0.13988 0.33469 0.22964 0.50404 0.97452 1.8385 2.4973 2.9346 3.3872 2.4313 0.88997-0.50329 0.80229-2.4014-0.17223-4.2399-0.05559-0.10487-0.11336-0.19669-0.17223-0.2965 0.10797 0.03467 0.20384 0.05879 0.31576 0.08895 1.9635 0.52916 3.7626 0.15422 4.0188-0.85984 0.25615-1.0141-1.1367-2.2579-3.1002-2.7871-0.03007-0.008-0.05613-0.02198-0.08611-0.02964 0.02647-0.01534 0.05968-0.01387 0.08611-0.02964 1.7574-1.048 2.775-2.6504 2.2677-3.558-0.50732-0.9076-2.3475-0.78116-4.1049 0.26685-0.56291 0.33569-1.0218 0.72067-1.4066 1.1267 0.1459-0.54413 0.22964-1.1722 0.22964-1.8383 0-2.096-0.82252-3.7952-1.8372-3.7952zm0.05741 6.345c1.2683 0 2.2964 1.062 2.2964 2.372s-1.0282 2.372-2.2964 2.372c-1.2683 0-2.2964-1.062-2.2964-2.372s1.0281-2.372 2.2964-2.372z" style="opacity:.1;fill:#fff"/>
   <path id="path4019-3" d="m22.018 17c-1.0146 0-1.8372 1.6991-1.8372 3.7951 0 0.34874 0.01478 0.68732 0.05742 1.0081-0.21806-0.22755-0.4246-0.47187-0.68893-0.68194-1.6083-1.2781-3.4288-1.6311-4.0475-0.80054-0.61871 0.8306 0.20013 2.5467 1.8084 3.8248 0.30517 0.24252 0.60867 0.41828 0.91858 0.59299-0.35106 0.04636-0.72016 0.12555-1.0908 0.2372-1.9481 0.5868-3.2981 1.8996-3.0141 2.9057 0.28406 1.0061 2.0994 1.328 4.0475 0.74124 0.36527-0.11002 0.71707-0.23241 1.0334-0.38544-0.07722 0.14519-0.15976 0.28753-0.22964 0.44474-3.828 3.528-6.975 10.287-6.975 10.287l1.3205 0.02964c0.71702-1.778 2.4903-5.6823 5.2244-8.9542-0.38698 1.6629-0.13669 3.1318 0.68893 3.4394 0.95446 0.35553 2.2969-0.96361 2.9854-2.9353 0.06192-0.17735 0.09611-0.35877 0.14353-0.53369 0.07435 0.16923 0.13988 0.33469 0.22964 0.50404 0.97452 1.8385 2.4973 2.9346 3.3872 2.4313 0.88997-0.50329 0.80229-2.4014-0.17223-4.2399-0.05559-0.10488-0.11336-0.1967-0.17223-0.2965 0.10797 0.03467 0.20384 0.05879 0.31576 0.08894 1.9635 0.52916 3.7626 0.15422 4.0188-0.85984 0.25615-1.0141-1.1367-2.2579-3.1002-2.7871-0.03007-0.008-0.05613-0.02198-0.08611-0.02966 0.02647-0.01534 0.05968-0.01387 0.08611-0.02964 1.7574-1.048 2.775-2.6504 2.2677-3.5579-0.50732-0.9076-2.3475-0.78116-4.1049 0.26685-0.56291 0.33569-1.0218 0.72067-1.4066 1.1267 0.1459-0.54413 0.22964-1.1722 0.22964-1.8383 0-2.096-0.82252-3.7951-1.8372-3.7951zm0.05741 6.345c1.2683 0 2.2964 1.062 2.2964 2.372s-1.0282 2.372-2.2964 2.372c-1.2683 0-2.2964-1.062-2.2964-2.372s1.0281-2.372 2.2964-2.372z" style="opacity:.5;color:#000000;fill:#700"/>
   <path id="path8836" d="m46 45.5c0 1.381-4.477 2.5-10 2.5s-10-1.119-10-2.5 4.477-2.5 10-2.5c5.5228 0 10 1.1192 10 2.5z" style="opacity:.4;fill:url(#radialGradient3169);fill-rule:evenodd"/>
   <path id="path4681" d="m36 24.999c-6.0751 0-11 4.9249-11 11s4.9249 11 11 11 11-4.9249 11-11-4.9249-11-11-11zm0 1c5.5228 0 10 4.4772 10 10s-4.4772 10-10 10-10-4.4772-10-10 4.4772-10 10-10z" style="opacity:.8;color:#000000;fill:url(#linearGradient3166)"/>
   <path id="path3333-5-1" d="m6 12 0.0118 15c1.0357-0.015 35.202-5.529 35.988-5.795v-9.205z" style="opacity:.3;fill:url(#linearGradient3163);fill-rule:evenodd"/>
   <path id="path2555-36-9" d="m36 25.999c-5.5179 0-10 4.4826-10 10 0 5.5179 4.4826 10 10 10 5.5179 0 10-4.4826 10-10 0-5.5179-4.4826-10-10-10z" style="fill:url(#radialGradient3160)"/>
   <path id="path2555-36-4-3" d="m36 27.499c-4.6902 0-8.5 3.8102-8.5 8.5 0 4.6902 3.8102 8.5 8.5 8.5 4.6902 0 8.5-3.8102 8.5-8.5 0-4.6902-3.8102-8.5-8.5-8.5z" style="color:#000000;stroke:url(#linearGradient3157);fill:url(#radialGradient3155)"/>
   <path id="path8655-6-38" d="m43.5 35.999c0 4.1424-3.3584 7.5001-7.5 7.5001-4.1421 0-7.5-3.3585-7.5-7.5001 0-4.1421 3.3579-7.4999 7.5001-7.4999 4.1418 0 7.4999 3.3577 7.4999 7.4999z" style="opacity:.3;stroke-linejoin:round;color:#000000;stroke:url(#linearGradient3152);stroke-linecap:round;fill:none"/>
   <path id="path2555-36-5" d="m36 29.999c-3.311 0-6 2.69-6 6 0 3.3107 2.6895 6 6 6 3.3107 0 6-2.6895 6-6 0-3.3107-2.6895-6-6-6z" style="fill:url(#radialGradient3149)"/>
   <path id="path3200" style="color:#000000;fill:url(#linearGradient3146-2)" d="m-11.223 30.95c0 2.3124-1.9519 4.1871-4.3597 4.1871s-4.3597-1.8746-4.3597-4.1871c0-2.3124 1.9519-4.187 4.3597-4.187s4.3597 1.8746 4.3597 4.187z" transform="matrix(.91749 0 0 .95533 50.297 6.4324)"/>
   <path id="path2555-3-4" d="m36 33c-1.655 0-3 1.345-3 3 0 1.6553 1.3447 3 3 3 1.655 0 3-1.345 3-3s-1.345-3-3-3z" style="fill:url(#radialGradient3143)"/>
   <path id="path2555-3-3" d="m36 33c-1.6553 0-3 1.3447-3 3s1.3447 3 3 3 3-1.3447 3-3-1.3447-3-3-3z" style="opacity:.5;fill:url(#radialGradient3140)"/>
   <path id="path3220-7" d="m37.5 34.875a1.5 1.125 0 0 1 -3 0 1.5 1.125 0 1 1 3 0z" style="opacity:.5;color:#000000;fill:url(#linearGradient3137)"/>
   <path id="path8655-6-38-7" d="m36 30.499c3.0378 0 5.5001 2.4628 5.5001 5.5 0 3.0375-2.4629 5.5-5.5001 5.5-3.0376 0-5.4999-2.4625-5.4999-5.5001 0-3.0373 2.4623-5.4999 5.4999-5.4999z" style="opacity:.9;stroke-linejoin:round;color:#000000;stroke:url(#linearGradient3134);stroke-linecap:round;fill:none"/>
   <path id="path3333-5-1-4" d="m36 25.999c-5.5179 0-10 4.4826-10 10 0 0.39174 0.02301 0.78066 0.06696 1.1607 2.2304-0.38174 16.074-3.2648 19.509-4.0514-1.2427-4.1096-5.0643-7.1094-9.5759-7.1094z" style="opacity:.3;fill:url(#linearGradient3131);fill-rule:evenodd"/>
   <path id="path2555-36-4-9" d="m33.671 27.308c-4.7961 1.2851-7.6479 6.2252-6.3629 11.021 1.2851 4.7961 6.2252 7.6479 11.021 6.3629 4.7961-1.2851 7.6479-6.2252 6.3629-11.021-1.2851-4.7961-6.2252-7.6479-11.021-6.3629z" style="opacity:.2;color:#000000;fill:url(#radialGradient3128)"/>
   <path id="path8655-6" d="m45.5 36c0 5.247-4.254 9.5-9.5 9.5-5.2466 0-9.5-4.254-9.5-9.5 0-5.2466 4.2534-9.4997 9.5001-9.4997 5.2463 0 9.4999 4.253 9.4999 9.4997z" style="opacity:.8;stroke-linejoin:round;color:#000000;stroke:url(#linearGradient3125);stroke-linecap:round;fill:none"/>
  </g>
 </g>
</svg>
