<?xml version="1.0" encoding="UTF-8" standalone="no"?>
<!-- Created with Inkscape (http://www.inkscape.org/) -->
<svg id="svg3449" xmlns:rdf="http://www.w3.org/1999/02/22-rdf-syntax-ns#" xmlns="http://www.w3.org/2000/svg" height="128" width="128" version="1.0" xmlns:cc="http://creativecommons.org/ns#" xmlns:xlink="http://www.w3.org/1999/xlink" xmlns:dc="http://purl.org/dc/elements/1.1/">
 <metadata id="metadata56">
  <rdf:RDF>
   <cc:Work rdf:about="">
    <dc:format>image/svg+xml</dc:format>
    <dc:type rdf:resource="http://purl.org/dc/dcmitype/StillImage"/>
    <dc:title/>
   </cc:Work>
  </rdf:RDF>
 </metadata>
 <defs id="defs3451">
  <linearGradient id="linearGradient3514" y2="-9.1034" gradientUnits="userSpaceOnUse" x2="66.492" gradientTransform="matrix(.96826 0 0 .97948 2.179 .16587)" y1="-42.638" x1="67.952">
   <stop id="stop4620" style="stop-color:#37414b" offset="0"/>
   <stop id="stop4622" style="stop-color:#37414b;stop-opacity:0" offset="1"/>
  </linearGradient>
  <linearGradient id="linearGradient3516" y2="-11.847" gradientUnits="userSpaceOnUse" x2="58.98" gradientTransform="matrix(.96826 0 0 .97948 2.179 .16587)" y1="-118.55" x1="57.173">
   <stop id="stop4596" offset="0"/>
   <stop id="stop4598" style="stop-opacity:0" offset="1"/>
  </linearGradient>
  <linearGradient id="linearGradient3519" y2="50.369" gradientUnits="userSpaceOnUse" x2="76.558" gradientTransform="matrix(.96826 0 0 .97948 3.2423 -129.19)" y1="13.164" x1="76.558">
   <stop id="stop3392" style="stop-color:#425e7b" offset="0"/>
   <stop id="stop3394" style="stop-color:#7a91a7" offset="1"/>
  </linearGradient>
  <linearGradient id="linearGradient3521" y2="-8.7399" gradientUnits="userSpaceOnUse" x2="60.217" gradientTransform="matrix(.96826 0 0 .97948 2.179 .16587)" y1="-123.72" x1="60.395">
   <stop id="stop3392-4-8" style="stop-color:#425e7b" offset="0"/>
   <stop id="stop3394-8-0" style="stop-color:#7a91a7" offset="1"/>
  </linearGradient>
  <radialGradient id="radialGradient3349" gradientUnits="userSpaceOnUse" cy="45.647" cx="42.148" gradientTransform="matrix(.94690 0 0 1.139 3.5954 -29.89)" r="58.984">
   <stop id="stop8006" style="stop-color:#ef916b" offset="0"/>
   <stop id="stop8008" style="stop-color:#db4916" offset="1"/>
  </radialGradient>
  <filter id="filter3174-1" color-interpolation-filters="sRGB">
   <feGaussianBlur id="feGaussianBlur3176-0" stdDeviation="1.71"/>
  </filter>
  <linearGradient id="ButtonShadow-9" x1="45.448" gradientUnits="userSpaceOnUse" y1="92.54" gradientTransform="scale(1.0059 .99417)" x2="45.448" y2="7.0165">
   <stop id="stop3750-6" offset="0"/>
   <stop id="stop3752-7" style="stop-opacity:.58824" offset="1"/>
  </linearGradient>
  <filter id="filter3174-9" color-interpolation-filters="sRGB">
   <feGaussianBlur id="feGaussianBlur3176-5" stdDeviation="1.71"/>
  </filter>
  <linearGradient id="linearGradient4238-5" y2="25" gradientUnits="userSpaceOnUse" x2="25" y1="57" x1="25">
   <stop id="stop3624-6-9-7-3-1" style="stop-color:#ba4712" offset="0"/>
   <stop id="stop3856-8-7-9-7-0" style="stop-color:#cf671c" offset=".5"/>
   <stop id="stop3626-0-8-7-8-5" style="stop-color:#e27f39" offset="1"/>
  </linearGradient>
  <filter id="filter3174-6" color-interpolation-filters="sRGB">
   <feGaussianBlur id="feGaussianBlur3176-1" stdDeviation="1.71"/>
  </filter>
  <linearGradient id="linearGradient12370-2" y2="1013" gradientUnits="userSpaceOnUse" x2="34.529" gradientTransform="translate(251.03 -1030.4)" y1="1043.4" x1="34.529">
   <stop id="stop4234-3" style="stop-color:#f9d3bf" offset="0"/>
   <stop id="stop4236-4" style="stop-color:#fffbf5" offset="1"/>
  </linearGradient>
 </defs>
 <rect id="rect892" style="stroke:url(#linearGradient3521);stroke-width:.97385;fill:url(#linearGradient3519)" transform="scale(1,-1)" ry="29.296" height="115.54" width="114.22" y="-122.25" x="7.0394"/>
 <rect id="rect892-2" style="stroke:url(#linearGradient3516);stroke-width:.97385;fill:url(#linearGradient3514)" transform="scale(1,-1)" ry="28.993" height="114.35" width="114.22" y="-121.46" x="7.0599"/>
 <path id="rect895" style="fill:url(#radialGradient3349)" d="m30.571 7.0104c-13.128 0.936-22.55 15.04-23.173 23.288-0.050142 0.97378-0.088772 1.9648-0.088772 2.9572v58.419c0 15.229 11.191 27.859 22.318 27.859h67.038c15.69 0 24.318-16.445 24.318-25.859v-64.017c-0.21-5.933-12.29-21.682-25.926-22.618-47.846 0.8653-20.497-0.0256-64.483-0.0256z"/>
 <rect id="rect892-2-7-8" style="opacity:.15891;stroke:#000;stroke-width:4.8445;fill:none" transform="scale(1,-1)" ry="28.993" height="114.35" width="114.22" y="-121.16" x="6.8683"/>
 <rect id="rect892-2-7-1" style="opacity:.15891;stroke:#000;stroke-width:7.7512;fill:none" transform="scale(1,-1)" ry="28.993" height="114.35" width="114.22" y="-121.16" x="6.8686"/>
 <rect id="rect892-2-7-2-9" ry="28.067" style="stroke:#000;stroke-width:1.0489;fill:none" transform="scale(1,-1)" height="112.71" width="114.14" y="-120.31" x="7.0644"/>
 <path id="path1187" style="fill:#fff;fill-opacity:.057143" d="m37.509 10.721c-14.891-4.3296-32.78 19.454-27.93 26.295-0.04334 0.71563-0.07674 1.4439-0.07674 2.1732v10.76c25.898-25.61 66.753-35.478 90.374-39.178-0.22473-0.02628-0.45986-0.03062-0.69067-0.03062-41.576 0.38742-23.653-0.01876-61.677-0.01875z"/>
 <g id="layer2" style="display:none" transform="translate(187.88 23.742)">
  <rect id="rect3745" style="opacity:.9;filter:url(#filter3174-1);fill:url(#ButtonShadow-9)" rx="6" ry="6" height="85" width="86" y="7" x="5"/>
 </g>
 <g id="layer2-2" style="display:none" transform="matrix(1.2166 0 0 1.2299 5.6049 3.1187)">
  <rect id="rect3745-5" style="opacity:.9;filter:url(#filter3174-9);fill:url(#ButtonShadow-9)" rx="6" ry="6" height="85" width="86" y="7" x="5"/>
 </g>
 <path id="path3397-3-2-5" style="opacity:.05;color:#000000;fill:url(#linearGradient4238-5)" d="m23.625 22.125a3.6626 3.6626 0 0 0 -2.7188 1.6875l-2.5 3.875-4.5312-1a3.6626 3.6626 0 0 0 -4.3438 4.375l1 4.4062-3.9062 2.4375a3.6626 3.6626 0 0 0 0 6.1875l3.9062 2.4375-1 4.4062a3.6626 3.6626 0 0 0 4.3438 4.375l4.5312-1 2.5 3.875a3.6626 3.6626 0 0 0 6.1875 0l2.5-3.875 4.5312 1a3.6626 3.6626 0 0 0 4.3438 -4.375l-1-4.4062 3.9062-2.4375a3.6626 3.6626 0 0 0 0 -6.1875l-3.9062-2.4375 1-4.4062a3.6626 3.6626 0 0 0 -4.344 -4.374l-4.5312 1-2.5-3.875a3.6626 3.6626 0 0 0 -3.469 -1.688zm0.375 15.094c0.2413 0.29026 0.47719 0.58429 0.71875 0.875a3.6626 3.6626 0 0 0 -0.719 1.312 3.6626 3.6626 0 0 0 -0.719 -1.312c0.242-0.291 0.478-0.585 0.719-0.875z" transform="translate(0,-16)"/>
 <g id="layer2-8" style="display:none" transform="matrix(1.2166 0 0 1.2299 162.3 9.178)">
  <rect id="rect3745-8" style="opacity:.9;filter:url(#filter3174-6);fill:url(#ButtonShadow-9)" rx="6" ry="6" height="85" width="86" y="7" x="5"/>
 </g>
 <g id="g12381" transform="matrix(2.5 0 0 2.5 -623.57 67.601)">
  <path id="path4206" style="fill-opacity:.058824" d="m290.43 1.3598h-2.2v-4.4c0-7.2875-5.9125-13.2-13.2-13.2s-13.2 5.9125-13.2 13.2v4.4h-2.2c-1.2155 0-2.2 0.9845-2.2 2.2v8.8c0 1.2155 0.9845 2.2 2.2 2.2h6.6v-13.2-4.4c0-4.8554 3.9446-8.8 8.8-8.8s8.8 3.9446 8.8 8.8v4.4 13.2h6.6c1.2155 0 2.2-0.9845 2.2-2.2v-8.8c0-1.2155-0.9845-2.2-2.2-2.2z"/>
  <path id="path4204" style="fill-opacity:.11765" d="m290.43 0.9598h-2.2v-4.4c0-7.2875-5.9125-13.2-13.2-13.2s-13.2 5.9125-13.2 13.2v4.4h-2.2c-1.2155 0-2.2 0.9845-2.2 2.2v8.8c0 1.2155 0.9845 2.2 2.2 2.2h6.6v-13.2-4.4c0-4.8554 3.9446-8.8 8.8-8.8s8.8 3.9446 8.8 8.8v4.4 13.2h6.6c1.2155 0 2.2-0.9845 2.2-2.2v-8.8c0-1.2155-0.9845-2.2-2.2-2.2z"/>
  <path id="path4200" style="fill-opacity:.23529" d="m290.43 0.5598h-2.2v-4.4c0-7.2875-5.9125-13.2-13.2-13.2s-13.2 5.9125-13.2 13.2v4.4h-2.2c-1.2155 0-2.2 0.9845-2.2 2.2v8.8c0 1.2155 0.9845 2.2 2.2 2.2h6.6v-13.2-4.4c0-4.8554 3.9446-8.8 8.8-8.8s8.8 3.9446 8.8 8.8v4.4 13.2h6.6c1.2155 0 2.2-0.9845 2.2-2.2v-8.8c0-1.2155-0.9845-2.2-2.2-2.2z"/>
  <path id="path4169" style="fill:url(#linearGradient12370-2)" d="m290.43 0.1598h-2.2v-4.4c0-7.2875-5.9125-13.2-13.2-13.2s-13.2 5.9125-13.2 13.2v4.4h-2.2c-1.2155 0-2.2 0.9845-2.2 2.2v8.8c0 1.2155 0.9845 2.2 2.2 2.2h6.6v-13.2-4.4c0-4.8554 3.9446-8.8 8.8-8.8s8.8 3.9446 8.8 8.8v4.4 13.2h6.6c1.2155 0 2.2-0.9845 2.2-2.2v-8.8c0-1.2155-0.9845-2.2-2.2-2.2z"/>
  <path id="path4208" style="fill:#eb651d;fill-opacity:.31373" d="m275.03-13.841c-4.8554 0-8.8008 3.9454-8.8008 8.8008v0.80078c0-4.8554 3.9454-8.8008 8.8008-8.8008s8.8008 3.9454 8.8008 8.8008v-0.80078c0-4.8554-3.9454-8.8008-8.8008-8.8008zm-17.6 24.201v0.79883c0 1.2155 0.98372 2.2012 2.1992 2.2012h6.5996v-0.80078h-6.5996c-1.2155 0-2.1992-0.98372-2.1992-2.1992zm35.199 0c0 1.2155-0.98372 2.1992-2.1992 2.1992h-6.5996v0.80078h6.5996c1.2155 0 2.1992-0.98567 2.1992-2.2012v-0.79883z"/>
  <path id="path4213" style="fill:#fff;fill-opacity:.23529" d="m275.03-17.441c-7.2875 0-13.199 5.9137-13.199 13.201v0.39844c0-7.2875 5.9117-13.199 13.199-13.199 7.2875 0 13.199 5.9117 13.199 13.199v-0.39844c0-7.2875-5.9117-13.201-13.199-13.201zm-15.4 17.6c-1.2155 0-2.1992 0.98567-2.1992 2.2012v0.40039c0-1.2155 0.98372-2.2012 2.1992-2.2012h2.2012v-0.40039h-2.2012zm28.6 0v0.40039h2.2012c1.2155 0 2.1992 0.98567 2.1992 2.2012v-0.40039c0-1.2155-0.98372-2.2012-2.1992-2.2012h-2.2012z"/>
 </g>
</svg>
