<?xml version="1.0" encoding="UTF-8" standalone="no"?>
<!-- Created with Inkscape (http://www.inkscape.org/) -->
<svg id="svg3449" xmlns:rdf="http://www.w3.org/1999/02/22-rdf-syntax-ns#" xmlns="http://www.w3.org/2000/svg" height="128" width="128" version="1.0" xmlns:cc="http://creativecommons.org/ns#" xmlns:xlink="http://www.w3.org/1999/xlink" xmlns:dc="http://purl.org/dc/elements/1.1/">
 <metadata id="metadata56">
  <rdf:RDF>
   <cc:Work rdf:about="">
    <dc:format>image/svg+xml</dc:format>
    <dc:type rdf:resource="http://purl.org/dc/dcmitype/StillImage"/>
    <dc:title/>
   </cc:Work>
  </rdf:RDF>
 </metadata>
 <defs id="defs3451">
  <linearGradient id="linearGradient3514" y2="-9.1034" gradientUnits="userSpaceOnUse" x2="66.492" gradientTransform="matrix(.96826 0 0 .97948 2.179 .16587)" y1="-42.638" x1="67.952">
   <stop id="stop4620" style="stop-color:#37414b" offset="0"/>
   <stop id="stop4622" style="stop-color:#37414b;stop-opacity:0" offset="1"/>
  </linearGradient>
  <linearGradient id="linearGradient3516" y2="-11.847" gradientUnits="userSpaceOnUse" x2="58.98" gradientTransform="matrix(.96826 0 0 .97948 2.179 .16587)" y1="-118.55" x1="57.173">
   <stop id="stop4596" offset="0"/>
   <stop id="stop4598" style="stop-opacity:0" offset="1"/>
  </linearGradient>
  <linearGradient id="linearGradient3519" y2="50.369" gradientUnits="userSpaceOnUse" x2="76.558" gradientTransform="matrix(.96826 0 0 .97948 3.2423 -129.19)" y1="13.164" x1="76.558">
   <stop id="stop3392" style="stop-color:#425e7b" offset="0"/>
   <stop id="stop3394" style="stop-color:#7a91a7" offset="1"/>
  </linearGradient>
  <linearGradient id="linearGradient3521" y2="-8.7399" gradientUnits="userSpaceOnUse" x2="60.217" gradientTransform="matrix(.96826 0 0 .97948 2.179 .16587)" y1="-123.72" x1="60.395">
   <stop id="stop3392-4-8" style="stop-color:#425e7b" offset="0"/>
   <stop id="stop3394-8-0" style="stop-color:#7a91a7" offset="1"/>
  </linearGradient>
  <radialGradient id="radialGradient3349" gradientUnits="userSpaceOnUse" cy="45.647" cx="42.148" gradientTransform="matrix(.94690 0 0 1.139 3.5954 -29.89)" r="58.984">
   <stop id="stop2699-5" style="stop-color:#86b3e0" offset="0"/>
   <stop id="stop2701-7" style="stop-color:#649ad6" offset="1"/>
  </radialGradient>
  <filter id="filter3789" height="1.2321" width="1.3794" color-interpolation-filters="sRGB" y="-.11607" x="-.18971">
   <feGaussianBlur id="feGaussianBlur3791" stdDeviation="1.8477742"/>
  </filter>
  <linearGradient id="linearGradient3703" y2="24.84" xlink:href="#linearGradient3697" gradientUnits="userSpaceOnUse" x2="46.125" y1="63.048" x1="46.125"/>
  <linearGradient id="linearGradient3697">
   <stop id="stop3699" style="stop-color:#dcdcdc" offset="0"/>
   <stop id="stop3701" style="stop-color:#f0f0f0" offset="1"/>
  </linearGradient>
 </defs>
 <rect id="rect892" style="stroke:url(#linearGradient3521);stroke-width:.97385;fill:url(#linearGradient3519)" transform="scale(1,-1)" ry="29.296" height="115.54" width="114.22" y="-122.25" x="7.0394"/>
 <rect id="rect892-2" style="stroke:url(#linearGradient3516);stroke-width:.97385;fill:url(#linearGradient3514)" transform="scale(1,-1)" ry="28.993" height="114.35" width="114.22" y="-121.46" x="7.0599"/>
 <path id="rect895" style="fill:url(#radialGradient3349)" d="m33.051 7.2596c-7.969-2.4493-27.013 15.174-25.653 23.038-0.050142 0.97378-0.088772 1.9648-0.088772 2.9572v52.419c0 20.876 10.712 33.859 22.318 33.859h67.038c12.638 0 24.318-11.245 24.318-25.859v-64.017c0.7-10.928-21.283-24.659-25.926-22.618-47.846 0.8653-18.017 0.2236-62.003 0.2236z"/>
 <rect id="rect892-2-7-8" style="opacity:.15891;stroke:#000;stroke-width:4.8445;fill:none" transform="scale(1,-1)" ry="28.993" height="114.35" width="114.22" y="-121.16" x="6.8687"/>
 <rect id="rect892-2-7-1" style="opacity:.15891;stroke:#000;stroke-width:7.7512;fill:none" transform="scale(1,-1)" ry="28.993" height="114.35" width="114.22" y="-121.16" x="6.8687"/>
 <rect id="rect892-2-7-2-9" ry="28.067" style="stroke:#000;stroke-width:1.0489;fill:none" transform="scale(1,-1)" height="112.71" width="114.14" y="-120.31" x="7.0649"/>
 <path id="path1187" style="fill:#fff;fill-opacity:.057143" d="m33.017 7.2319c-23.707 0-26.027 0.6738-25.93 26.295-0.04334 0.71563-0.07674 1.4439-0.07674 2.1732v32.76c18.67-38.321 38.34-51.497 90.374-61.179-0.225-0.026-0.46-0.0303-0.691-0.0303-41.576 0.3874-25.652-0.0188-63.676-0.0188z"/>
 <g id="layer4" transform="matrix(1.6684 0 0 1.6868 -16.085 -18.51)">
  <g id="g3741" style="opacity:.8;filter:url(#filter3789)" transform="matrix(.94114 0 0 .94221 4.5901 4.5954)">
   <path id="path3743" d="m57.813 34.824c-0.000024 2.4-0.73602 4.464-2.208 6.192-0.44802 0.57602-1.792 1.744-4.032 3.504-1.472 1.184-2.208 2.288-2.208 3.312v1.68h-8.88v-2.736c-0.000006-1.824 0.70399-3.52 2.112-5.088 0.03199-0.06398 1.328-1.248 3.888-3.552 1.408-1.248 2.112-2.4 2.112-3.456-0.000015-0.70397-0.27201-1.28-0.816-1.728-0.54401-0.47997-1.184-0.71997-1.92-0.72-0.96001 0.000028-1.68 0.35203-2.16 1.056-0.48001 0.70403-0.70401 1.552-0.672 2.544h-8.592v-0.768c0-3.168 1.168-5.696 3.504-7.584 2.144-1.76 4.832-2.64 8.064-2.64 3.2 0.000036 5.92 0.84804 8.16 2.544 2.432 1.856 3.648 4.336 3.648 7.44m-7.872 23.328c-0.000016 1.44-0.46402 2.608-1.392 3.504-0.89601 0.928-2.064 1.392-3.504 1.392-1.44-0.000003-2.624-0.464-3.552-1.392-0.89601-0.896-1.344-2.064-1.344-3.504-0.000006-1.44 0.44799-2.624 1.344-3.552 0.92799-0.92799 2.112-1.392 3.552-1.392 1.44 0.000007 2.608 0.46401 3.504 1.392 0.92798 0.928 1.392 2.112 1.392 3.552"/>
  </g>
  <g id="text3688" style="fill:url(#linearGradient3703)" transform="matrix(.94114 0 0 .94221 4.5901 3.5954)">
   <path id="path3695" style="fill:url(#linearGradient3703)" d="m57.813 34.824c-0.000024 2.4-0.73602 4.464-2.208 6.192-0.44802 0.57602-1.792 1.744-4.032 3.504-1.472 1.184-2.208 2.288-2.208 3.312v1.68h-8.88v-2.736c-0.000006-1.824 0.70399-3.52 2.112-5.088 0.03199-0.06398 1.328-1.248 3.888-3.552 1.408-1.248 2.112-2.4 2.112-3.456-0.000015-0.70397-0.27201-1.28-0.816-1.728-0.54401-0.47997-1.184-0.71997-1.92-0.72-0.96001 0.000028-1.68 0.35203-2.16 1.056-0.48001 0.70403-0.70401 1.552-0.672 2.544h-8.592v-0.768c0-3.168 1.168-5.696 3.504-7.584 2.144-1.76 4.832-2.64 8.064-2.64 3.2 0.000036 5.92 0.84804 8.16 2.544 2.432 1.856 3.648 4.336 3.648 7.44m-7.872 23.328c-0.000016 1.44-0.46402 2.608-1.392 3.504-0.89601 0.928-2.064 1.392-3.504 1.392-1.44-0.000003-2.624-0.464-3.552-1.392-0.89601-0.896-1.344-2.064-1.344-3.504-0.000006-1.44 0.44799-2.624 1.344-3.552 0.92799-0.92799 2.112-1.392 3.552-1.392 1.44 0.000007 2.608 0.46401 3.504 1.392 0.92798 0.928 1.392 2.112 1.392 3.552"/>
  </g>
  <path id="path3737" style="fill:#fff" d="m47.875 27c-3.0418 0.000034-5.5447 0.84174-7.5625 2.5-2.198 1.779-3.312 4.14-3.312 7.125v0.71875h0.09375c0.28005-2.3875 1.3451-4.3277 3.2188-5.8438 2.0178-1.6583 4.5207-2.5 7.5625-2.5 3.0116 0.000034 5.5793 0.80829 7.6875 2.4062 2.0363 1.5558 3.1496 3.5778 3.375 6.0625 0.035-0.346 0.063-0.701 0.063-1.063-0.000023-2.9246-1.1487-5.2512-3.4375-7-2.108-1.598-4.675-2.406-7.687-2.406zm2.2188 10.312c-0.28962 0.70006-0.86887 1.4369-1.75 2.2188-2.4093 2.1709-3.6261 3.2835-3.6562 3.3438-1.3251 1.4774-2 3.0627-2 4.7812v2c-0.000006-1.7186 0.67487-3.3038 2-4.7812 0.03011-0.06028 1.2469-1.1729 3.6562-3.3438 1.3251-1.1759 1.9687-2.255 1.9688-3.25-0.000008-0.35828-0.07419-0.68167-0.21875-0.96875zm-3.125 16.406c-1.3552 0.000007-2.4391 0.43814-3.3125 1.3125-0.84326 0.87438-1.2813 1.987-1.2812 3.3438-0.000001 0.3392 0.03951 0.66056 0.09375 0.96875 0.16965-0.89956 0.56922-1.6714 1.1875-2.3125 0.87337-0.87436 1.9573-1.3125 3.3125-1.3125 1.3552 0.000007 2.4692 0.43814 3.3125 1.3125 0.6406 0.64135 1.0473 1.4125 1.2188 2.3125 0.05482-0.30819 0.09375-0.62955 0.09375-0.96875-0.000015-1.3568-0.43914-2.4694-1.3125-3.3438-0.84327-0.87436-1.9573-1.3125-3.3125-1.3125z"/>
 </g>
</svg>
