<?xml version="1.0" encoding="UTF-8" standalone="no"?>
<!-- Created with Inkscape (http://www.inkscape.org/) -->

<svg
   xmlns:dc="http://purl.org/dc/elements/1.1/"
   xmlns:cc="http://creativecommons.org/ns#"
   xmlns:rdf="http://www.w3.org/1999/02/22-rdf-syntax-ns#"
   xmlns:svg="http://www.w3.org/2000/svg"
   xmlns="http://www.w3.org/2000/svg"
   version="1.0"
   width="128"
   height="128"
   id="svg3449">
  <metadata
     id="metadata56">
    <rdf:RDF>
      <cc:Work
         rdf:about="">
        <dc:format>image/svg+xml</dc:format>
        <dc:type
           rdf:resource="http://purl.org/dc/dcmitype/StillImage" />
        <dc:title></dc:title>
      </cc:Work>
    </rdf:RDF>
  </metadata>
  <defs
     id="defs3451">
    <linearGradient
       x1="67.952003"
       y1="-42.638"
       x2="66.491997"
       y2="-9.1034002"
       id="linearGradient3514"
       gradientUnits="userSpaceOnUse"
       gradientTransform="matrix(0.96826,0,0,0.97948,2.179,0.16587)">
      <stop
         id="stop4620"
         style="stop-color:#37414b;stop-opacity:1"
         offset="0" />
      <stop
         id="stop4622"
         style="stop-color:#37414b;stop-opacity:0"
         offset="1" />
    </linearGradient>
    <linearGradient
       x1="57.173"
       y1="-118.55"
       x2="58.98"
       y2="-11.847"
       id="linearGradient3516"
       gradientUnits="userSpaceOnUse"
       gradientTransform="matrix(0.96826,0,0,0.97948,2.179,0.16587)">
      <stop
         id="stop4596"
         style="stop-color:#000000;stop-opacity:1"
         offset="0" />
      <stop
         id="stop4598"
         style="stop-color:#000000;stop-opacity:0"
         offset="1" />
    </linearGradient>
    <linearGradient
       x1="76.557999"
       y1="13.164"
       x2="76.557999"
       y2="50.368999"
       id="linearGradient3519"
       gradientUnits="userSpaceOnUse"
       gradientTransform="matrix(0.96826,0,0,0.97948,3.2423,-129.19)">
      <stop
         id="stop3392"
         style="stop-color:#425e7b;stop-opacity:1"
         offset="0" />
      <stop
         id="stop3394"
         style="stop-color:#7a91a7;stop-opacity:1"
         offset="1" />
    </linearGradient>
    <linearGradient
       x1="60.395"
       y1="-123.72"
       x2="60.216999"
       y2="-8.7398996"
       id="linearGradient3521"
       gradientUnits="userSpaceOnUse"
       gradientTransform="matrix(0.96826,0,0,0.97948,2.179,0.16587)">
      <stop
         id="stop3392-4-8"
         style="stop-color:#425e7b;stop-opacity:1"
         offset="0" />
      <stop
         id="stop3394-8-0"
         style="stop-color:#7a91a7;stop-opacity:1"
         offset="1" />
    </linearGradient>
    <radialGradient
       cx="42.147999"
       cy="45.646999"
       r="58.984001"
       id="radialGradient3349"
       gradientUnits="userSpaceOnUse"
       gradientTransform="matrix(0.9469,0,0,1.139,3.5954,-29.89)">
      <stop
         id="stop2699-5"
         style="stop-color:#9cbbd9;stop-opacity:1"
         offset="0" />
      <stop
         id="stop2701-7"
         style="stop-color:#5c82ab;stop-opacity:1"
         offset="1" />
    </radialGradient>
  </defs>
  <rect
     width="114.22"
     height="115.54"
     ry="29.296"
     x="7.0394001"
     y="-122.25"
     transform="scale(1,-1)"
     id="rect892"
     style="fill:url(#linearGradient3519);stroke:url(#linearGradient3521);stroke-width:0.97385001" />
  <rect
     width="114.22"
     height="114.35"
     ry="28.993"
     x="7.0598998"
     y="-121.46"
     transform="scale(1,-1)"
     id="rect892-2"
     style="fill:url(#linearGradient3514);stroke:url(#linearGradient3516);stroke-width:0.97385001" />
  <path
     d="M 33.051,7.2596 C 25.082,4.8103 6.038,22.4336 7.398,30.2976 7.347858,31.27138 7.309228,32.2624 7.309228,33.2548 v 52.419 c 0,20.876 10.712,33.859 22.318,33.859 h 67.038 c 12.638002,0 24.318002,-11.245 24.318002,-25.859 v -64.017 c 0.7,-10.928 -21.283002,-24.659 -25.926002,-22.618 -47.846,0.8653 -18.017,0.2236 -62.003,0.2236 z"
     id="rect895"
     style="fill:url(#radialGradient3349)" />
  <rect
     width="114.22"
     height="114.35"
     ry="28.993"
     x="6.8687"
     y="-121.16"
     transform="scale(1,-1)"
     id="rect892-2-7-8"
     style="opacity:0.15891;fill:none;stroke:#000000;stroke-width:4.84450006" />
  <rect
     width="114.22"
     height="114.35"
     ry="28.993"
     x="6.8687"
     y="-121.16"
     transform="scale(1,-1)"
     id="rect892-2-7-1"
     style="opacity:0.15891;fill:none;stroke:#000000;stroke-width:7.7512002" />
  <rect
     width="114.14"
     height="112.71"
     ry="28.066999"
     x="7.0648999"
     y="-120.31"
     transform="scale(1,-1)"
     id="rect892-2-7-2-9"
     style="fill:none;stroke:#000000;stroke-width:1.04890001" />
  <path
     d="M 33.017,7.2319 C 9.31,7.2319 6.99,7.9057 7.087,33.5269 7.04366,34.24253 7.01026,34.9708 7.01026,35.7001 v 32.76 c 18.67,-38.321 38.34,-51.497 90.374,-61.179 -0.225,-0.026 -0.46,-0.0303 -0.691,-0.0303 -41.576,0.3874 -25.652,-0.0188 -63.676,-0.0188 z"
     id="path1187"
     style="fill:#ffffff;fill-opacity:0.05714303" />
  <path
     d="m 66.811696,28.671147 c -0.83623,-2.8e-4 -2.79848,0.0453 -5.13804,0.47018 -5.52966,1.00024 -13.17439,4.65086 -15.33753,12.25477 -3.34553,11.75985 5.26919,16.43072 5.26919,16.43072 0,0 3.01748,1.773 4.26344,2.12079 3.74481,1.04532 7.72895,0.55788 7.72895,0.55788 0,0 -1.58865,5.25966 1.59605,8.97517 0.76035,0.88703 0.20786,0.91826 0.20786,0.91826 0,0 -13.91884,-0.35905 -20.50838,6.63567 -6.58961,6.99509 -3.01723,13.43542 -3.01723,13.43542 0,0 3.4528,8.418493 18.35478,8.843983 14.96827,0.4271 24.22574,-8.438083 25.03428,-15.129883 0.40668,-3.36352 -0.0528,-6.51454 -1.73822,-9.2703 -1.63887,-2.68028 -4.45501,-4.98765 -7.20421,-7.23695 -1.70821,-1.39766 -2.89638,-2.11518 -3.66222,-2.9189 -0.72337,-0.75916 -0.84545,-1.73698 -0.81983,-2.47061 0.0377,-1.02452 0.57525,-2.28085 2.37224,-4.36187 3.2777,-3.79626 4.10869,-3.32377 6.0891,-6.16564 0.5934,-0.85189 1.03037,-2.09486 1.63981,-3.94638 0.36738,-1.11546 0.30614,-2.27003 0.30614,-3.34523 8e-5,-2.32452 -0.55786,-4.53906 -1.48672,-6.40609 -1.72568,-3.46975 -4.68775,-5.72214 -4.74452,-5.89236 l 5.19267,0 5.88144,-3.44361 -19.84149,-0.0528 c 0,0 -0.15869,10e-5 -0.43771,0 z m -4.26342,3.22497 c 3.02645,0.0226 7.57337,1.58864 10.2979,9.76219 4.67534,14.0262 -5.11617,16.16845 -5.11617,16.16845 0,0 -11.21993,1.72775 -13.28237,-10.7462 -2.10098,-12.70678 3.01579,-13.39414 5.01778,-14.64878 0,0 1.26693,-0.54807 3.08286,-0.53597 z m 6.1984,41.32284 c 0,0 8.93305,5.47554 9.77317,9.48899 0.94128,4.49666 1.00462,7.77173 -5.81576,11.35833 -2.01346,1.05883 -5.54732,1.18211 -7.77272,1.19156 -5.46966,0.0226 -9.60095,-2.08209 -11.64256,-3.13744 -1.06098,-0.5488 -6.95382,-7.16593 -2.59081,-13.08557 1.09743,-1.48911 2.31355,-2.14926 3.44358,-2.90794 2.40481,-1.61462 4.76538,-2.36679 9.21559,-2.75487 1.48024,-0.12927 3.45265,-0.0226 5.38951,-0.1534 z"
     id="path8122"
     style="fill:#ffffff;fill-opacity:1;stroke:none;display:inline" />
</svg>
