<?xml version="1.0" encoding="UTF-8" standalone="no"?>
<!-- Created with Inkscape (http://www.inkscape.org/) -->

<svg
   xmlns:dc="http://purl.org/dc/elements/1.1/"
   xmlns:cc="http://creativecommons.org/ns#"
   xmlns:rdf="http://www.w3.org/1999/02/22-rdf-syntax-ns#"
   xmlns:svg="http://www.w3.org/2000/svg"
   xmlns="http://www.w3.org/2000/svg"
   version="1.0"
   width="128"
   height="128"
   id="svg3449">
  <metadata
     id="metadata56">
    <rdf:RDF>
      <cc:Work
         rdf:about="">
        <dc:format>image/svg+xml</dc:format>
        <dc:type
           rdf:resource="http://purl.org/dc/dcmitype/StillImage" />
        <dc:title></dc:title>
      </cc:Work>
    </rdf:RDF>
  </metadata>
  <defs
     id="defs3451">
    <linearGradient
       x1="67.952003"
       y1="-42.638"
       x2="66.491997"
       y2="-9.1034002"
       id="linearGradient3514"
       gradientUnits="userSpaceOnUse"
       gradientTransform="matrix(0.96826,0,0,0.97948,2.179,0.16587)">
      <stop
         id="stop4620"
         style="stop-color:#37414b;stop-opacity:1"
         offset="0" />
      <stop
         id="stop4622"
         style="stop-color:#37414b;stop-opacity:0"
         offset="1" />
    </linearGradient>
    <linearGradient
       x1="57.173"
       y1="-118.55"
       x2="58.98"
       y2="-11.847"
       id="linearGradient3516"
       gradientUnits="userSpaceOnUse"
       gradientTransform="matrix(0.96826,0,0,0.97948,2.179,0.16587)">
      <stop
         id="stop4596"
         style="stop-color:#000000;stop-opacity:1"
         offset="0" />
      <stop
         id="stop4598"
         style="stop-color:#000000;stop-opacity:0"
         offset="1" />
    </linearGradient>
    <linearGradient
       x1="76.557999"
       y1="13.164"
       x2="76.557999"
       y2="50.368999"
       id="linearGradient3519"
       gradientUnits="userSpaceOnUse"
       gradientTransform="matrix(0.96826,0,0,0.97948,3.2423,-129.19)">
      <stop
         id="stop3392"
         style="stop-color:#425e7b;stop-opacity:1"
         offset="0" />
      <stop
         id="stop3394"
         style="stop-color:#7a91a7;stop-opacity:1"
         offset="1" />
    </linearGradient>
    <linearGradient
       x1="60.395"
       y1="-123.72"
       x2="60.216999"
       y2="-8.7398996"
       id="linearGradient3521"
       gradientUnits="userSpaceOnUse"
       gradientTransform="matrix(0.96826,0,0,0.97948,2.179,0.16587)">
      <stop
         id="stop3392-4-8"
         style="stop-color:#425e7b;stop-opacity:1"
         offset="0" />
      <stop
         id="stop3394-8-0"
         style="stop-color:#7a91a7;stop-opacity:1"
         offset="1" />
    </linearGradient>
    <radialGradient
       cx="42.147999"
       cy="45.646999"
       r="58.984001"
       id="radialGradient3349"
       gradientUnits="userSpaceOnUse"
       gradientTransform="matrix(0.9469,0,0,1.139,3.5954,-29.89)">
      <stop
         id="stop2699-5"
         style="stop-color:#9cbbd9;stop-opacity:1"
         offset="0" />
      <stop
         id="stop2701-7"
         style="stop-color:#5c82ab;stop-opacity:1"
         offset="1" />
    </radialGradient>
  </defs>
  <rect
     width="114.22"
     height="115.54"
     ry="29.296"
     x="7.0394001"
     y="-122.25"
     transform="scale(1,-1)"
     id="rect892"
     style="fill:url(#linearGradient3519);stroke:url(#linearGradient3521);stroke-width:0.97385001" />
  <rect
     width="114.22"
     height="114.35"
     ry="28.993"
     x="7.0598998"
     y="-121.46"
     transform="scale(1,-1)"
     id="rect892-2"
     style="fill:url(#linearGradient3514);stroke:url(#linearGradient3516);stroke-width:0.97385001" />
  <path
     d="M 33.051,7.2596 C 25.082,4.8103 6.038,22.4336 7.398,30.2976 7.347858,31.27138 7.309228,32.2624 7.309228,33.2548 v 52.419 c 0,20.876 10.712,33.859 22.318,33.859 h 67.038 c 12.638002,0 24.318002,-11.245 24.318002,-25.859 v -64.017 c 0.7,-10.928 -21.283002,-24.659 -25.926002,-22.618 -47.846,0.8653 -18.017,0.2236 -62.003,0.2236 z"
     id="rect895"
     style="fill:url(#radialGradient3349)" />
  <rect
     width="114.22"
     height="114.35"
     ry="28.993"
     x="6.8687"
     y="-121.16"
     transform="scale(1,-1)"
     id="rect892-2-7-8"
     style="opacity:0.15891;fill:none;stroke:#000000;stroke-width:4.84450006" />
  <rect
     width="114.22"
     height="114.35"
     ry="28.993"
     x="6.8687"
     y="-121.16"
     transform="scale(1,-1)"
     id="rect892-2-7-1"
     style="opacity:0.15891;fill:none;stroke:#000000;stroke-width:7.7512002" />
  <rect
     width="114.14"
     height="112.71"
     ry="28.066999"
     x="7.0648999"
     y="-120.31"
     transform="scale(1,-1)"
     id="rect892-2-7-2-9"
     style="fill:none;stroke:#000000;stroke-width:1.04890001" />
  <path
     d="M 33.017,7.2319 C 9.31,7.2319 6.99,7.9057 7.087,33.5269 7.04366,34.24253 7.01026,34.9708 7.01026,35.7001 v 32.76 c 18.67,-38.321 38.34,-51.497 90.374,-61.179 -0.225,-0.026 -0.46,-0.0303 -0.691,-0.0303 -41.576,0.3874 -25.652,-0.0188 -63.676,-0.0188 z"
     id="path1187"
     style="fill:#ffffff;fill-opacity:0.05714303" />
  <path
     d="m 71.557744,101.60333 0,-29.152346 0,-29.152349 -7.558017,0 -7.558016,0 0,29.083937 0,29.083938 3.509081,0.42916 c 1.929989,0.23604 3.2982,0.10167 4.947032,0.0684 2.22278,-0.0447 4.153913,-0.3608 6.65992,-0.3608 z m -18.355182,-30.660906 0,-28.501472 -9.987381,-6.444578 C 37.722124,32.451844 31.648715,28.745377 29.718726,27.759758 l -3.509081,-1.792043 0.0022,26.750714 0.0022,26.750712 13.111992,9.987383 c 7.211678,5.493049 13.741419,10.045479 13.876914,10.205859 0,0 -3.07e-4,-13.044149 -3.07e-4,-28.719959 z m 36.56587,17.704304 12.017928,-9.177587 0.002,-26.750712 0.002,-26.750714 -3.509085,1.792043 c -1.929991,0.985619 -8.003404,4.692086 -13.496456,8.236616 l -9.987382,6.444578 0,28.555123 0,28.555128 1.476804,-0.86344 c 0.812242,-0.4749 6.884867,-4.99335 13.494732,-10.041035 z M 83.424067,33.851114 95.740914,26.563029 C 82.670927,24.427752 72.762209,30.786718 63.999728,38.092014 52.384796,28.009094 46.110572,25.745502 32.23078,26.563029 l 11.835541,7.156687 11.83553,7.156692 7.602685,0.131393 7.602685,0.131402 z"
     id="path7583"
     style="opacity:0.2;fill:#ffffff;fill-opacity:1;display:inline;enable-background:new" />
  <path
     d="m 71.557744,101.60332 0,-29.152339 0,-29.152348 -7.558017,0 -7.558016,0 0,29.083936 0,29.083931 3.509081,0.42917 c 1.929989,0.23604 3.2982,0.10167 4.947032,0.0684 2.22278,-0.0448 4.153913,-0.36081 6.65992,-0.36081 z m -18.355182,-30.660899 0,-28.501471 -9.987381,-6.444579 C 37.722124,32.451848 31.648715,28.745375 29.718726,27.759755 l -3.509081,-1.792042 0.0022,26.750713 0.0022,26.750708 13.111992,9.987383 c 7.211678,5.493057 13.741419,10.045477 13.876914,10.205857 0,0 -3.07e-4,-13.044137 -3.07e-4,-28.719953 z m 36.56587,17.70431 12.017928,-9.177597 0.002,-26.750708 0.002,-26.750713 -3.509085,1.792042 c -1.929991,0.98562 -8.003404,4.692093 -13.496456,8.236616 l -9.987382,6.444579 0,28.555123 0,28.555131 1.476804,-0.86345 c 0.812242,-0.47488 6.884867,-4.99335 13.494732,-10.041023 z M 83.424067,33.851111 95.740914,26.563026 C 82.670927,24.427749 72.762209,30.786717 63.999728,38.092011 52.384796,28.009091 46.110572,25.745499 32.23078,26.563026 l 11.835541,7.156688 11.83553,7.156692 7.602685,0.131392 7.602685,0.131403 z"
     id="path3912"
     style="fill:#ffffff;fill-opacity:1;display:inline;enable-background:new" />
</svg>
