<?xml version="1.0" encoding="UTF-8" standalone="no"?>
<!-- Created with Inkscape (http://www.inkscape.org/) -->

<svg
   xmlns:dc="http://purl.org/dc/elements/1.1/"
   xmlns:cc="http://creativecommons.org/ns#"
   xmlns:rdf="http://www.w3.org/1999/02/22-rdf-syntax-ns#"
   xmlns:svg="http://www.w3.org/2000/svg"
   xmlns="http://www.w3.org/2000/svg"
   xmlns:sodipodi="http://sodipodi.sourceforge.net/DTD/sodipodi-0.dtd"
   xmlns:inkscape="http://www.inkscape.org/namespaces/inkscape"
   id="svg3449"
   height="128"
   width="128"
   version="1.0"
   inkscape:version="0.48.4 r9939"
   sodipodi:docname="ide-web.svg">
  <sodipodi:namedview
     pagecolor="#ffffff"
     bordercolor="#666666"
     borderopacity="1"
     objecttolerance="10"
     gridtolerance="10"
     guidetolerance="10"
     inkscape:pageopacity="0"
     inkscape:pageshadow="2"
     inkscape:window-width="1360"
     inkscape:window-height="707"
     id="namedview38"
     showgrid="false"
     inkscape:zoom="3.6875"
     inkscape:cx="52.303069"
     inkscape:cy="53.724815"
     inkscape:window-x="-2"
     inkscape:window-y="33"
     inkscape:window-maximized="1"
     inkscape:current-layer="svg3449" />
  <metadata
     id="metadata56">
    <rdf:RDF>
      <cc:Work
         rdf:about="">
        <dc:format>image/svg+xml</dc:format>
        <dc:type
           rdf:resource="http://purl.org/dc/dcmitype/StillImage" />
        <dc:title></dc:title>
      </cc:Work>
    </rdf:RDF>
  </metadata>
  <defs
     id="defs3451">
    <linearGradient
       id="linearGradient3514"
       y2="-9.1034"
       gradientUnits="userSpaceOnUse"
       x2="66.492"
       gradientTransform="matrix(.96826 0 0 .97948 2.179 .16587)"
       y1="-42.638"
       x1="67.952">
      <stop
         id="stop4620"
         style="stop-color:#37414b"
         offset="0" />
      <stop
         id="stop4622"
         style="stop-color:#37414b;stop-opacity:0"
         offset="1" />
    </linearGradient>
    <linearGradient
       id="linearGradient3516"
       y2="-11.847"
       gradientUnits="userSpaceOnUse"
       x2="58.98"
       gradientTransform="matrix(.96826 0 0 .97948 2.179 .16587)"
       y1="-118.55"
       x1="57.173">
      <stop
         id="stop4596"
         offset="0" />
      <stop
         id="stop4598"
         style="stop-opacity:0"
         offset="1" />
    </linearGradient>
    <linearGradient
       id="linearGradient3519"
       y2="50.369"
       gradientUnits="userSpaceOnUse"
       x2="76.558"
       gradientTransform="matrix(.96826 0 0 .97948 3.2423 -129.19)"
       y1="13.164"
       x1="76.558">
      <stop
         id="stop3392"
         style="stop-color:#425e7b"
         offset="0" />
      <stop
         id="stop3394"
         style="stop-color:#7a91a7"
         offset="1" />
    </linearGradient>
    <linearGradient
       id="linearGradient3521"
       y2="-8.7399"
       gradientUnits="userSpaceOnUse"
       x2="60.217"
       gradientTransform="matrix(.96826 0 0 .97948 2.179 .16587)"
       y1="-123.72"
       x1="60.395">
      <stop
         id="stop3392-4-8"
         style="stop-color:#425e7b"
         offset="0" />
      <stop
         id="stop3394-8-0"
         style="stop-color:#7a91a7"
         offset="1" />
    </linearGradient>
    <radialGradient
       id="radialGradient3349"
       gradientUnits="userSpaceOnUse"
       cy="45.647"
       cx="42.148"
       gradientTransform="matrix(0.9469,0,0,1.1603514,3.5954,-30.581727)"
       r="58.984">
      <stop
         id="stop2699-5"
         style="stop-color:#868686"
         offset="0" />
      <stop
         id="stop2701-7"
         style="stop-color:#4a4a4a"
         offset="1" />
    </radialGradient>
    <linearGradient
       id="linearGradient4168">
      <stop
         stop-color="#fd84af"
         offset="0"
         id="stop4170" />
      <stop
         stop-color="#ec538c"
         offset="1"
         id="stop4172" />
    </linearGradient>
  </defs>
  <rect
     id="rect892"
     style="stroke:url(#linearGradient3521);stroke-width:.97385;fill:url(#linearGradient3519)"
     transform="scale(1,-1)"
     ry="29.296"
     height="115.54"
     width="114.22"
     y="-122.25"
     x="7.0394" />
  <rect
     id="rect892-2"
     style="stroke:url(#linearGradient3516);stroke-width:.97385;fill:url(#linearGradient3514)"
     transform="scale(1,-1)"
     ry="28.993"
     height="114.35"
     width="114.22"
     y="-121.46"
     x="7.0599" />
  <path
     id="rect895"
     style="fill:url(#radialGradient3349)"
     d="M 30.571,7.0104 C 17.443,7.9639461 8.021,22.332337 7.398,30.734952 7.347858,31.726986 7.309228,32.736584 7.309228,33.747587 l 0,59.51411 c 0,15.514483 15.50555,28.381243 22.318,28.381243 l 67.038,0 c 14.587392,0 24.318002,-16.75328 24.318002,-26.343752 l 0,-65.217049 c -0.21,-6.044218 -12.29,-22.0884456 -25.926002,-23.0419916 -47.846,0.8815207 -20.497,-0.02608 -64.483,-0.02608 z"
     inkscape:connector-curvature="0"
     sodipodi:nodetypes="ccssssscccc" />
  <rect
     id="rect892-2-7-8"
     style="opacity:.15891;stroke:#000;stroke-width:4.8445;fill:none"
     transform="scale(1,-1)"
     ry="28.993"
     height="114.35"
     width="114.22"
     y="-121.16"
     x="6.8683" />
  <rect
     id="rect892-2-7-1"
     style="opacity:.15891;stroke:#000;stroke-width:7.7512;fill:none"
     transform="scale(1,-1)"
     ry="28.993"
     height="114.35"
     width="114.22"
     y="-121.16"
     x="6.8686" />
  <rect
     id="rect892-2-7-2-9"
     ry="28.684994"
     style="fill:none;stroke:#000000;stroke-width:1.26221895;stroke-miterlimit:4;stroke-dasharray:none"
     transform="scale(1,-1)"
     height="115.19171"
     width="114.12711"
     y="-121.99847"
     x="7.0708499" />
  <path
     id="path1187"
     style="fill:#fff;fill-opacity:.057143"
     d="m32.415 6.0906c-14.891-4.3298-32.779 19.454-27.93 26.295-0.04334 0.71563-0.07674 1.4439-0.07674 2.1732v10.76c25.899-25.61 66.753-35.479 90.375-39.179-0.22473-0.02628-0.45986-0.03062-0.69067-0.03062-41.576 0.38742-23.653-0.01876-61.677-0.01875z" />
  <g
     transform="matrix(2.4584242,0,0,2.4584242,0.0809708,-2464.149)"
     id="g6210">
    <g
       id="g6204">
      <g
         id="g6199" />
    </g>
  </g>
  <path
     inkscape:connector-curvature="0"
     id="path866"
     d="m 42.731275,38.732651 c -2.438223,0 -4.366883,0.240915 -5.700013,0.68071 -1.333127,0.420867 -2.39085,1.077242 -3.232852,2.041645 -0.84198,0.965142 -1.388368,2.134817 -1.616403,3.573432 -0.210435,1.420915 -0.340307,3.671518 -0.340307,6.636018 0,3.894 -0.481515,6.363885 -1.446263,7.486605 -0.964772,1.104282 -2.341757,1.683465 -4.25375,1.701165 l 0,6.295542 c 1.947073,0.07129 3.211788,0.5192 3.913445,1.361425 0.701633,0.82428 1.200673,1.722308 1.44626,2.722358 0.245588,0.999802 0.340308,3.312603 0.340308,6.890705 0,3.245735 0.33679,5.605243 1.020895,7.061558 0.684105,1.45607 1.79183,2.51635 3.317937,3.147402 1.526083,0.649494 3.744138,0.936133 6.550743,0.936133 l 1.361202,0 0,-6.295543 c -2.140027,0 -3.487192,-0.211415 -4.083585,-0.595406 -0.596415,-0.368014 -1.033187,-0.879839 -1.191062,-1.616845 l -0.34028,-7.656721 c -0.122673,-2.473083 -0.556938,-4.384191 -1.276145,-5.699642 -0.701633,-1.315701 -1.841808,-2.455876 -3.402995,-3.40307 1.648875,-1.052658 2.806602,-2.177835 3.402995,-3.31801 0.613942,-1.157383 0.948105,-2.310095 1.105977,-3.57294 0.175525,-1.263338 0.320125,-4.042728 0.425365,-8.252375 0.03515,-1.526376 0.274523,-2.536507 0.765698,-3.062835 0.508677,-0.52633 2.050545,-0.765524 4.594032,-0.765524 l 0,-6.295787 -1.361202,0 z m 41.176251,0 0,6.295787 c 2.192635,0 3.557352,0.110625 4.083582,0.425538 0.54376,0.315402 0.880575,0.752495 1.020898,1.191062 0.14037,0.438565 0.235017,2.15448 0.340307,5.189536 0.105215,3.016865 0.29994,5.087272 0.510448,6.209993 0.210432,1.10502 0.594645,2.115639 1.191037,3.063082 0.596415,0.946703 1.63924,1.910369 3.14777,2.892473 -1.420842,0.824524 -2.481195,1.787206 -3.14777,2.892475 -0.649025,1.105265 -1.048085,2.29264 -1.27612,3.573185 -0.210435,1.26309 -0.405207,4.18703 -0.510447,8.677665 -0.03515,1.561043 -0.28942,2.554208 -0.850755,3.06259 -0.543785,0.508875 -2.070728,0.76577 -4.50895,0.76577 l 0,6.295543 1.44626,0 c 2.438222,0 4.2818,-0.240915 5.614952,-0.680465 1.33313,-0.420868 2.390853,-1.076995 3.23283,-2.041645 0.84198,-0.965143 1.40592,-2.135063 1.616428,-3.573433 0.210432,-1.420915 0.340307,-3.653817 0.340307,-6.635775 0,-3.85909 0.481488,-6.363883 1.44626,-7.486605 0.964773,-1.121983 2.34176,-1.683465 4.253747,-1.701658 l 0,-6.295542 c -1.911987,-0.07129 -3.211782,-0.486503 -3.913439,-1.27612 -0.684105,-0.806823 -1.165618,-1.672403 -1.446285,-2.637298 -0.263115,-0.96465 -0.340283,-3.342347 -0.340283,-7.061067 0,-3.245489 -0.336792,-5.605241 -1.02092,-7.061556 -0.684105,-1.455088 -1.79183,-2.515613 -3.317912,-3.147403 -1.526085,-0.648755 -3.744163,-0.936132 -6.550768,-0.936132 l -1.361177,0 z m -14.037374,3.998722 -0.935812,1.106003 c -0.478613,0.617042 -1.538868,1.800975 -2.3821,2.6373 -1.278923,1.268252 -1.68253,1.531047 -2.55224,1.531047 -0.869683,0 -1.306258,-0.269187 -2.722405,-1.616107 -0.933725,-0.889425 -2.011923,-2.088598 -2.382075,-2.637053 -0.78207,-1.159102 -0.989135,-1.128127 -4.08361,0.25493 -1.387728,0.6195 -1.977113,1.001525 -1.87165,1.275875 0.08457,0.21879 0.237967,1.594473 0.340307,3.06259 0.145533,2.087614 0.09833,2.902059 -0.255225,3.743546 -0.575642,1.370273 -1.090392,1.545308 -5.274619,1.360933 l -3.317938,-0.169625 -0.850755,2.126702 c -0.484465,1.162545 -0.85073,2.24249 -0.85073,2.467428 0,0.226167 0.805225,1.090025 1.786567,1.871282 2.16257,1.722308 3.402996,3.391023 3.402996,4.508828 0,0.954325 -1.558486,2.780865 -3.828386,4.509317 -0.782265,0.5959 -1.361177,1.229168 -1.361177,1.446237 0,0.22125 0.36012,1.37519 0.85073,2.55224 l 0.935837,2.126703 3.232856,-0.172083 c 5.349944,-0.286394 5.875854,0.272384 5.529844,5.615568 l -0.170117,2.977532 1.27612,0.595408 c 2.24935,1.146812 3.998527,1.664045 3.998527,1.191063 0,-0.41005 2.733713,-3.517382 3.743278,-4.254145 0.549312,-0.399725 1.28546,-0.68022 1.70151,-0.68022 1.035842,0 2.824967,1.306112 4.508972,3.40307 1.601483,1.994197 1.55492,2.029597 4.764175,0.595408 1.610085,-0.719063 1.838759,-0.963668 1.70151,-1.531295 -0.410542,-1.69797 -0.56345,-4.726883 -0.255225,-5.86976 0.533311,-1.978713 1.179314,-2.247653 5.274649,-2.042628 3.954152,0.199125 3.532795,0.46069 4.764197,-2.80717 l 0.68059,-1.871528 -2.126875,-1.785977 c -2.556517,-2.112445 -3.411107,-3.397663 -3.147772,-4.59487 0.176507,-0.8024 3.160332,-3.959143 4.679115,-4.933873 0.63907,-0.41054 0.650352,-0.50617 0.255225,-1.616597 -0.226905,-0.637448 -0.68226,-1.74935 -1.020898,-2.467183 l -0.59553,-1.27612 -3.743277,0 c -4.971731,0 -4.841341,0.181915 -4.849281,-4.849551 l 0,-3.827867 -2.467158,-1.020945 -2.38215,-0.934413 z M 63.82986,55.662934 c 1.819977,-0.0295 2.44963,0.09096 3.82836,0.76577 3.048775,1.495405 4.748857,4.207928 4.764172,7.656475 0.02852,6.411823 -6.532377,10.510846 -12.250777,7.656475 -3.171445,-1.58292 -4.684573,-4.1563 -4.679115,-7.826345 0.0025,-2.43252 0.862652,-4.334777 2.722407,-6.040612 1.859973,-1.706083 3.00595,-2.186195 5.614953,-2.211763 z"
     style="fill:#ffffff;fill-opacity:1" />
</svg>
