<?xml version="1.0" encoding="UTF-8" standalone="no"?>
<!-- Created with Inkscape (http://www.inkscape.org/) -->

<svg
   xmlns:dc="http://purl.org/dc/elements/1.1/"
   xmlns:cc="http://creativecommons.org/ns#"
   xmlns:rdf="http://www.w3.org/1999/02/22-rdf-syntax-ns#"
   xmlns:svg="http://www.w3.org/2000/svg"
   xmlns="http://www.w3.org/2000/svg"
   xmlns:xlink="http://www.w3.org/1999/xlink"
   xmlns:sodipodi="http://sodipodi.sourceforge.net/DTD/sodipodi-0.dtd"
   xmlns:inkscape="http://www.inkscape.org/namespaces/inkscape"
   id="svg4511"
   height="48px"
   width="48px"
   version="1.1"
   inkscape:version="0.48.4 r9939"
   sodipodi:docname="imagewriter.svg">
  <sodipodi:namedview
     pagecolor="#ffffff"
     bordercolor="#666666"
     borderopacity="1"
     objecttolerance="10"
     gridtolerance="10"
     guidetolerance="10"
     inkscape:pageopacity="0"
     inkscape:pageshadow="2"
     inkscape:window-width="642"
     inkscape:window-height="480"
     id="namedview132"
     showgrid="false"
     inkscape:zoom="4.9166667"
     inkscape:cx="23.479162"
     inkscape:cy="22.864883"
     inkscape:window-x="0"
     inkscape:window-y="35"
     inkscape:window-maximized="0"
     inkscape:current-layer="svg4511" />
  <defs
     id="defs4513">
    <filter
       id="filter3174"
       color-interpolation-filters="sRGB">
      <feGaussianBlur
         id="feGaussianBlur3176"
         stdDeviation="1.71" />
    </filter>
    <linearGradient
       id="linearGradient3254"
       y2="7.0165"
       gradientUnits="userSpaceOnUse"
       x2="45.448"
       gradientTransform="matrix(1.0059,0,0,0.99417,-175.86,-30.712)"
       y1="92.54"
       x1="45.448">
      <stop
         id="stop3750"
         offset="0" />
      <stop
         id="stop3752"
         style="stop-opacity:.58824"
         offset="1" />
    </linearGradient>
    <filter
       id="filter3174-7"
       color-interpolation-filters="sRGB">
      <feGaussianBlur
         id="feGaussianBlur3176-58"
         stdDeviation="1.71" />
    </filter>
    <linearGradient
       id="linearGradient8374"
       y2="7.0165"
       gradientUnits="userSpaceOnUse"
       x2="45.448"
       gradientTransform="matrix(1.0059,0,0,0.99417,108.29,-24.643)"
       y1="92.54"
       x1="45.448">
      <stop
         id="stop3750-50"
         offset="0" />
      <stop
         id="stop3752-42"
         style="stop-opacity:.58824"
         offset="1" />
    </linearGradient>
    <filter
       id="filter3174-41"
       color-interpolation-filters="sRGB">
      <feGaussianBlur
         id="feGaussianBlur3176-9"
         stdDeviation="1.71" />
    </filter>
    <linearGradient
       id="ButtonShadow-6"
       x1="45.448"
       gradientUnits="userSpaceOnUse"
       y1="92.54"
       gradientTransform="scale(1.0059 .99417)"
       x2="45.448"
       y2="7.0165">
      <stop
         id="stop3750-9"
         offset="0" />
      <stop
         id="stop3752-33"
         style="stop-opacity:.58824"
         offset="1" />
    </linearGradient>
    <filter
       id="filter3174-57"
       color-interpolation-filters="sRGB">
      <feGaussianBlur
         id="feGaussianBlur3176-42"
         stdDeviation="1.71" />
    </filter>
    <filter
       id="filter3174-76"
       color-interpolation-filters="sRGB">
      <feGaussianBlur
         id="feGaussianBlur3176-51"
         stdDeviation="1.71" />
    </filter>
    <filter
       id="filter3174-3"
       color-interpolation-filters="sRGB">
      <feGaussianBlur
         id="feGaussianBlur3176-47"
         stdDeviation="1.71" />
    </filter>
    <filter
       id="filter3174-65"
       color-interpolation-filters="sRGB">
      <feGaussianBlur
         id="feGaussianBlur3176-0"
         stdDeviation="1.71" />
    </filter>
    <linearGradient
       id="linearGradient10848"
       y2="-23.714"
       gradientUnits="userSpaceOnUse"
       x2="46.689"
       y1="-23.714"
       x1="2">
      <stop
         id="stop4329"
         style="stop-color:#f0f0f0"
         offset="0" />
      <stop
         id="stop4331"
         style="stop-color:#b4b4b4"
         offset="1" />
    </linearGradient>
    <linearGradient
       id="linearGradient10968"
       y2="7.0165"
       gradientUnits="userSpaceOnUse"
       x2="45.448"
       gradientTransform="matrix(1.0059,0,0,0.99417,88.061,-64.071)"
       y1="92.54"
       x1="45.448">
      <stop
         id="stop3750-53"
         offset="0" />
      <stop
         id="stop3752-85"
         style="stop-opacity:.58824"
         offset="1" />
    </linearGradient>
    <linearGradient
       id="linearGradient4327-0">
      <stop
         id="stop4329-1"
         style="stop-color:#f0f0f0"
         offset="0" />
      <stop
         id="stop4331-2"
         style="stop-color:#b4b4b4"
         offset="1" />
    </linearGradient>
    <linearGradient
       id="linearGradient11027"
       y2="-23.714"
       xlink:href="#linearGradient4327-0"
       gradientUnits="userSpaceOnUse"
       y1="-23.714"
       gradientTransform="translate(0.084022,0.11383)"
       x2="46.689"
       x1="2" />
    <linearGradient
       id="linearGradient11061"
       y2="-23.714"
       gradientUnits="userSpaceOnUse"
       y1="-23.714"
       gradientTransform="translate(0.037143,-2.7143)"
       x2="46.689"
       x1="2">
      <stop
         id="stop4629"
         style="stop-color:#5e89d8"
         offset="0" />
      <stop
         id="stop4633"
         style="stop-color:#5e89d8"
         offset="1" />
    </linearGradient>
    <linearGradient
       id="linearGradient11086"
       y2="-24.286"
       gradientUnits="userSpaceOnUse"
       x2="46.327"
       gradientTransform="translate(0.39955,0)"
       y1="-24.286"
       x1="1.5305">
      <stop
         id="stop3226"
         style="stop-color:#4d6490"
         offset="0" />
      <stop
         id="stop3228"
         style="stop-color:#4d6490"
         offset="1" />
    </linearGradient>
    <linearGradient
       id="linearGradient11109"
       y2="-23.714"
       xlink:href="#linearGradient4327-0"
       gradientUnits="userSpaceOnUse"
       y1="-23.714"
       gradientTransform="translate(0.35675,0.6227)"
       x2="46.689"
       x1="2" />
    <linearGradient
       id="linearGradient11134"
       y2="-21.458"
       xlink:href="#linearGradient4327-0"
       gradientUnits="userSpaceOnUse"
       x2="46.773"
       y1="-21.458"
       x1="1.9769" />
    <linearGradient
       id="linearGradient11142"
       y2="-23.714"
       xlink:href="#linearGradient4327-0"
       gradientUnits="userSpaceOnUse"
       x2="46.689"
       y1="-23.714"
       x1="2" />
    <linearGradient
       id="linearGradient11150"
       y2="-19.535"
       gradientUnits="userSpaceOnUse"
       x2="47.046"
       y1="-19.535"
       x1="2.7547">
      <stop
         id="stop3599"
         style="stop-color:#dcdcdc"
         offset="0" />
      <stop
         id="stop3601"
         style="stop-color:#f5f5f5"
         offset="1" />
    </linearGradient>
    <filter
       id="filter3174-34"
       color-interpolation-filters="sRGB">
      <feGaussianBlur
         id="feGaussianBlur3176-01"
         stdDeviation="1.71" />
    </filter>
    <linearGradient
       id="linearGradient4603"
       y2="7.0165"
       gradientUnits="userSpaceOnUse"
       x2="45.448"
       gradientTransform="matrix(1.0059,0,0,0.99417,-25.979,57.897)"
       y1="92.54"
       x1="45.448">
      <stop
         id="stop3750-96"
         offset="0" />
      <stop
         id="stop3752-39"
         style="stop-opacity:.58824"
         offset="1" />
    </linearGradient>
    <filter
       id="filter3174-2"
       color-interpolation-filters="sRGB">
      <feGaussianBlur
         id="feGaussianBlur3176-44"
         stdDeviation="1.71" />
    </filter>
    <linearGradient
       id="linearGradient4702"
       y2="85.062"
       gradientUnits="userSpaceOnUse"
       x2="20.179"
       y1="85.062"
       x1="16">
      <stop
         id="stop3378"
         style="stop-color:#767676"
         offset="0" />
      <stop
         id="stop3380"
         style="stop-color:#fdfdfd"
         offset="1" />
    </linearGradient>
    <radialGradient
       id="radialGradient4704"
       gradientUnits="userSpaceOnUse"
       cy="85.062"
       cx="18.089"
       gradientTransform="matrix(1,0,0,1.0043,0,-0.36352)"
       r="2.0893">
      <stop
         id="stop3368"
         style="stop-color:#c1ff97"
         offset="0" />
      <stop
         id="stop3370"
         style="stop-color:#30c700"
         offset="1" />
    </radialGradient>
    <linearGradient
       id="linearGradient4706"
       y2="88.011"
       gradientUnits="userSpaceOnUse"
       x2="67.071"
       gradientTransform="matrix(1,0,0,-1,-15.859,216.46)"
       y1="80"
       x1="67.071">
      <stop
         id="stop3739-88"
         style="stop-color:#fff"
         offset="0" />
      <stop
         id="stop3741-16"
         style="stop-color:#fff;stop-opacity:0"
         offset="1" />
    </linearGradient>
    <linearGradient
       id="linearGradient4708"
       y2="88.011"
       gradientUnits="userSpaceOnUse"
       x2="67.071"
       gradientTransform="translate(-15.859,48.458)"
       y1="80"
       x1="67.071">
      <stop
         id="stop4227"
         offset="0" />
      <stop
         id="stop4229"
         style="stop-color:#484848"
         offset="1" />
    </linearGradient>
    <filter
       id="filter4180-8"
       height="3.8298"
       width="1.2289"
       color-interpolation-filters="sRGB"
       y="-1.4149"
       x="-.11445">
      <feGaussianBlur
         id="feGaussianBlur4182-1"
         stdDeviation="3.5372897" />
    </filter>
    <radialGradient
       id="radialGradient4138-7"
       cx="48"
       gradientUnits="userSpaceOnUse"
       cy="84"
       r="30"
       gradientTransform="matrix(1.0667 0 0 .066667 -3.2 77.4)">
      <stop
         id="stop3315-1"
         style="stop-color:#4dbeff"
         offset="0" />
      <stop
         id="stop4186-5"
         style="stop-color:#1379ff;stop-opacity:.65041"
         offset=".67213" />
      <stop
         id="stop3317-6"
         style="stop-color:#06f;stop-opacity:0"
         offset="1" />
    </radialGradient>
    <filter
       id="filter3174-1"
       color-interpolation-filters="sRGB">
      <feGaussianBlur
         id="feGaussianBlur3176-512"
         stdDeviation="1.71" />
    </filter>
    <filter
       id="filter3536"
       height="1.2868"
       width="1.4834"
       color-interpolation-filters="sRGB"
       y="-.14339"
       x="-.24171">
      <feGaussianBlur
         id="feGaussianBlur3538"
         stdDeviation="3.525" />
    </filter>
    <clipPath
       id="clipPath3520">
      <path
         id="path3522"
         d="m9.9375 33.688c-3.2233 0-5.8438 1.784-5.8438 4v67.719c0 2.216 2.6205 4 5.8438 4h77.625c3.2233 0 5.8438-1.784 5.8438-4v-67.719c0-2.216-2.6205-4-5.8438-4h-77.625zm37.968 8.312c3.4319 0 6.2188 2.1981 6.2188 4.9375 0 2.1817-1.7642 4.0541-4.2188 4.7188v3.5625c0.01488 0.49755 0.29869 1.0673 0.6875 1.4688 0.09978 0.07533 8.1924 6.2001 8.2188 6.2188 0.0084 0.0065 0.02327-0.0068 0.03125 0 0.02396 0.01835 0.04599 0.04881 0.0625 0.0625 0.0042 0.0036 0.02447-0.006 0.03125 0 0.0068 0.006 0.03104 0.06226 0.03125 0.0625 0.000026 0.000029 0.06248 0.06248 0.0625 0.0625 0 0 0.000001 0.03125 0 0.03125 0.01173 0.01044 0.01956 0.02072 0.03125 0.03125 1.0961 0.9886 2 2.3551 2 3.8125v4.0938c1.724 0.628 2.938 2.024 2.938 3.657 0 2.2201-2.2042 4.0313-4.9375 4.0312-2.7333 0-4.9688-1.8111-4.9688-4.0312 0-1.6554 1.2361-3.0718 3-3.6875-0.000235-1.0474-0.000001-2.3794 0-4.0938-0.01444-0.49788-0.29736-1.0345-0.6875-1.4375l-6.5-4.9375v28.125h4.4688l-6.375 9.312-6.375-9.3125h4.3125v-21.969l-6.5312 4.9375c-0.3949 0.40606-0.67319 0.90899-0.6875 1.4062v3.8125h2.8125v7.9062h-9.5312v-7.9062h2.7812v-3.75c0-1.4421 0.88924-2.7945 1.9688-3.7812 0 0 0.0213-0.01152 0.03125-0.03125 0.0043-0.0039-0.0044-0.02734 0-0.03125l0.03125-0.03125c0.000015-0.000021 0.03122-0.03122 0.03125-0.03125 0.000203-0.000243 0.05499-0.08694 0.0625-0.09375 0.0047-0.004-0.0046-0.02742 0-0.03125 0.01531-0.01278 0.07133-0.01367 0.09375-0.03125 0.0079-0.01061 0.02312-0.02513 0.03125-0.03125 0.01626-0.01224 0.03151-0.0079 0.0625-0.03125 0.06197-0.04673 0.16688-0.13246 0.28125-0.21875 0.22873-0.17257 0.51658-0.42467 0.90625-0.71875 0.77935-0.58816 1.8392-1.3432 2.875-2.125 2.0463-1.5445 4.0441-3.0875 4.0938-3.125 0.39272-0.40316 0.67163-0.90931 0.6875-1.4062v-6.1562c-0.003-0.04389-0.000459-0.02213 0-0.03125 0.000459-0.0091-0.000001-0.03827 0-0.03125v-3.5312c-2.454-0.665-4.248-2.537-4.248-4.719 0-2.74 2.785-4.938 6.218-4.938z"
         style="fill:#fff" />
    </clipPath>
    <filter
       id="filter4180-5"
       height="3.8298"
       width="1.2289"
       color-interpolation-filters="sRGB"
       y="-1.4149"
       x="-.11445">
      <feGaussianBlur
         id="feGaussianBlur4182-16"
         stdDeviation="3.5372897" />
    </filter>
    <filter
       id="filter3174-10"
       color-interpolation-filters="sRGB">
      <feGaussianBlur
         id="feGaussianBlur3176-017"
         stdDeviation="1.71" />
    </filter>
    <linearGradient
       id="linearGradient5775"
       y2="62.971"
       gradientUnits="userSpaceOnUse"
       x2="24.668"
       gradientTransform="matrix(0,0.67664,-0.84794,0,101.4,-4.6916)"
       y1="62.971"
       x1="105.56">
      <stop
         id="stop3769-4"
         style="stop-color:#4d4d4d;stop-opacity:.70732"
         offset="0" />
      <stop
         id="stop3771-0"
         style="stop-color:#4d4d4d;stop-opacity:.25203"
         offset="1" />
    </linearGradient>
    <linearGradient
       inkscape:collect="always"
       xlink:href="#ButtonShadow-6"
       id="linearGradient3109"
       gradientUnits="userSpaceOnUse"
       gradientTransform="scale(1.0059,0.99417)"
       x1="45.448"
       y1="92.54"
       x2="45.448"
       y2="7.0165" />
    <linearGradient
       inkscape:collect="always"
       xlink:href="#ButtonShadow-6"
       id="linearGradient3111"
       gradientUnits="userSpaceOnUse"
       gradientTransform="scale(1.0059,0.99417)"
       x1="45.448"
       y1="92.54"
       x2="45.448"
       y2="7.0165" />
    <linearGradient
       inkscape:collect="always"
       xlink:href="#ButtonShadow-6"
       id="linearGradient3113"
       gradientUnits="userSpaceOnUse"
       gradientTransform="scale(1.0059,0.99417)"
       x1="45.448"
       y1="92.54"
       x2="45.448"
       y2="7.0165" />
    <linearGradient
       inkscape:collect="always"
       xlink:href="#ButtonShadow-6"
       id="linearGradient3115"
       gradientUnits="userSpaceOnUse"
       gradientTransform="scale(1.0059,0.99417)"
       x1="45.448"
       y1="92.54"
       x2="45.448"
       y2="7.0165" />
    <linearGradient
       inkscape:collect="always"
       xlink:href="#ButtonShadow-6"
       id="linearGradient3117"
       gradientUnits="userSpaceOnUse"
       gradientTransform="scale(1.0059,0.99417)"
       x1="45.448"
       y1="92.54"
       x2="45.448"
       y2="7.0165" />
    <linearGradient
       inkscape:collect="always"
       xlink:href="#ButtonShadow-6"
       id="linearGradient3119"
       gradientUnits="userSpaceOnUse"
       gradientTransform="scale(1.0059,0.99417)"
       x1="45.448"
       y1="92.54"
       x2="45.448"
       y2="7.0165" />
    <radialGradient
       inkscape:collect="always"
       xlink:href="#radialGradient4138-7"
       id="radialGradient3121"
       gradientUnits="userSpaceOnUse"
       gradientTransform="matrix(1.0667,0,0,0.066667,-3.2,77.4)"
       cx="48"
       cy="84"
       r="30" />
    <linearGradient
       inkscape:collect="always"
       xlink:href="#ButtonShadow-6"
       id="linearGradient3123"
       gradientUnits="userSpaceOnUse"
       gradientTransform="scale(1.0059,0.99417)"
       x1="45.448"
       y1="92.54"
       x2="45.448"
       y2="7.0165" />
    <radialGradient
       inkscape:collect="always"
       xlink:href="#radialGradient4138-7"
       id="radialGradient3125"
       gradientUnits="userSpaceOnUse"
       gradientTransform="matrix(1.0667,0,0,0.066667,-3.2,77.4)"
       cx="48"
       cy="84"
       r="30" />
    <linearGradient
       inkscape:collect="always"
       xlink:href="#linearGradient4327-0"
       id="linearGradient3154"
       gradientUnits="userSpaceOnUse"
       gradientTransform="translate(0.35675,0.6227)"
       x1="2"
       y1="-23.714"
       x2="46.689"
       y2="-23.714" />
    <linearGradient
       inkscape:collect="always"
       xlink:href="#linearGradient11150"
       id="linearGradient3156"
       gradientUnits="userSpaceOnUse"
       x1="2.7547"
       y1="-19.535"
       x2="47.046"
       y2="-19.535" />
    <linearGradient
       inkscape:collect="always"
       xlink:href="#linearGradient4327-0"
       id="linearGradient3159"
       gradientUnits="userSpaceOnUse"
       gradientTransform="translate(0.084022,0.11383)"
       x1="2"
       y1="-23.714"
       x2="46.689"
       y2="-23.714" />
    <linearGradient
       inkscape:collect="always"
       xlink:href="#linearGradient4327-0"
       id="linearGradient3161"
       gradientUnits="userSpaceOnUse"
       x1="1.9769"
       y1="-21.458"
       x2="46.773"
       y2="-21.458" />
    <linearGradient
       inkscape:collect="always"
       xlink:href="#linearGradient11061"
       id="linearGradient3164"
       gradientUnits="userSpaceOnUse"
       gradientTransform="translate(0.037143,-2.7143)"
       x1="2"
       y1="-23.714"
       x2="46.689"
       y2="-23.714" />
    <linearGradient
       inkscape:collect="always"
       xlink:href="#linearGradient11086"
       id="linearGradient3166"
       gradientUnits="userSpaceOnUse"
       gradientTransform="translate(0.39955,0)"
       x1="1.5305"
       y1="-24.286"
       x2="46.327"
       y2="-24.286" />
    <linearGradient
       inkscape:collect="always"
       xlink:href="#linearGradient10848"
       id="linearGradient3180"
       gradientUnits="userSpaceOnUse"
       x1="2"
       y1="-23.714"
       x2="46.689"
       y2="-23.714" />
    <linearGradient
       inkscape:collect="always"
       xlink:href="#linearGradient4327-0"
       id="linearGradient3182"
       gradientUnits="userSpaceOnUse"
       x1="2"
       y1="-23.714"
       x2="46.689"
       y2="-23.714" />
  </defs>
  <metadata
     id="metadata4516">
    <rdf:RDF>
      <cc:Work
         rdf:about="">
        <dc:format>image/svg+xml</dc:format>
        <dc:type
           rdf:resource="http://purl.org/dc/dcmitype/StillImage" />
        <dc:title />
      </cc:Work>
    </rdf:RDF>
  </metadata>
  <rect
     x="2.5506001"
     y="-46.112"
     width="43.688999"
     height="43.688999"
     ry="10.607"
     transform="scale(1,-1)"
     style="opacity:0.52991004;fill:#333333;stroke:#000000"
     id="rect810-9" />
  <rect
     x="2.5"
     y="-45.558998"
     width="43.688999"
     height="43.688999"
     ry="10.607"
     transform="scale(1,-1)"
     style="fill:url(#linearGradient3180);stroke:url(#linearGradient3182)"
     id="rect810" />
  <rect
     x="-170.86"
     y="-23.712"
     width="86"
     height="85"
     ry="6"
     rx="6"
     style="opacity:0.9;fill:url(#linearGradient3254);display:none;filter:url(#filter3174)"
     id="rect3745" />
  <rect
     x="113.29"
     y="-17.643"
     width="86"
     height="85"
     ry="6"
     rx="6"
     style="opacity:0.9;fill:url(#linearGradient8374);display:none;filter:url(#filter3174-7)"
     id="rect3745-1" />
  <g
     transform="translate(-111.44,-124.36)"
     style="display:none"
     id="layer2">
    <rect
       x="5"
       y="7"
       width="86"
       height="85"
       ry="6"
       rx="6"
       style="opacity:0.9;fill:url(#linearGradient3109);filter:url(#filter3174-41)"
       id="rect3745-9" />
  </g>
  <g
     transform="translate(-218.05,-238.16)"
     style="display:none"
     id="layer2-7">
    <rect
       x="5"
       y="7"
       width="86"
       height="85"
       ry="6"
       rx="6"
       style="opacity:0.9;fill:url(#linearGradient3111);filter:url(#filter3174-57)"
       id="rect3745-2" />
  </g>
  <g
     transform="translate(-106.2,-48.076)"
     style="display:none"
     id="layer2-1">
    <path
       inkscape:connector-curvature="0"
       d="M 11,7 C 7.676,7 5,9.676 5,13 v 73 c 0,3.324 2.676,6 6,6 h 74 c 3.324,0 6,-2.676 6,-6 V 13 C 91,9.676 88.324,7 85,7 h -5 v 2.5 c 1.4703,0.7406 2.5,2.2424 2.5,4 0,2.484 -2.016,4.5 -4.5,4.5 -2.484,0 -4.5,-2.016 -4.5,-4.5 0,-1.7576 1.0297,-3.2594 2.5,-4 V 7 h -8 v 2.5 c 1.4703,0.7406 2.5,2.2424 2.5,4 0,2.484 -2.016,4.5 -4.5,4.5 -2.484,0 -4.5,-2.016 -4.5,-4.5 0,-1.7576 1.0297,-3.2594 2.5,-4 V 7 h -8 v 2.5 c 1.4703,0.7406 2.5,2.2424 2.5,4 0,2.484 -2.016,4.5 -4.5,4.5 -2.484,0 -4.5,-2.016 -4.5,-4.5 0,-1.7576 1.0297,-3.2594 2.5,-4 V 7 h -8 v 2.5 c 1.4703,0.7406 2.5,2.2424 2.5,4 0,2.484 -2.016,4.5 -4.5,4.5 -2.484,0 -4.5,-2.016 -4.5,-4.5 0,-1.7576 1.0297,-3.2594 2.5,-4 V 7 h -8 v 2.5 c 1.4703,0.7406 2.5,2.2424 2.5,4 0,2.484 -2.016,4.5 -4.5,4.5 -2.484,0 -4.5,-2.016 -4.5,-4.5 0,-1.7576 1.0297,-3.2594 2.5,-4 V 7 h -8 v 2.5 c 1.4703,0.7406 2.5,2.2424 2.5,4 0,2.484 -2.016,4.5 -4.5,4.5 -2.484,0 -4.5,-2.016 -4.5,-4.5 0,-1.7576 1.0297,-3.2594 2.5,-4 V 7 h -5 z"
       style="opacity:0.9;fill:url(#linearGradient3113);filter:url(#filter3174-76)"
       id="rect3745-24" />
  </g>
  <g
     transform="translate(28.835,-121.51)"
     style="display:none"
     id="layer2-0">
    <rect
       x="5"
       y="7"
       width="86"
       height="85"
       ry="6"
       rx="6"
       style="opacity:0.9;fill:url(#linearGradient3115);filter:url(#filter3174-3)"
       id="rect3745-5" />
  </g>
  <rect
     x="93.060997"
     y="-57.070999"
     width="86"
     height="85"
     ry="6"
     rx="6"
     style="opacity:0.9;fill:url(#linearGradient10968);display:none;filter:url(#filter3174-65)"
     id="rect3745-19" />
  <rect
     x="2.4300001"
     y="-43.987"
     width="43.796001"
     height="39.403"
     ry="10.607"
     transform="scale(1,-1)"
     style="fill:url(#linearGradient3164);stroke:url(#linearGradient3166)"
     id="rect810-4-0" />
  <rect
     x="2.4769001"
     y="-41.159"
     width="43.796001"
     height="39.403"
     ry="10.607"
     transform="scale(1,-1)"
     style="fill:url(#linearGradient3159);stroke:url(#linearGradient3161)"
     id="rect810-4" />
  <rect
     x="2.4466"
     y="-37.619999"
     width="44.098999"
     height="36.373001"
     ry="10.607"
     transform="scale(1,-1)"
     style="fill:url(#linearGradient3154);stroke:url(#linearGradient3156)"
     id="rect810-4-8" />
  <rect
     x="-20.979"
     y="64.897003"
     width="86"
     height="85"
     ry="6"
     rx="6"
     style="opacity:0.9;fill:url(#linearGradient4603);display:none;filter:url(#filter3174-34)"
     id="rect3745-51" />
  <g
     transform="translate(-13.859,48.458)"
     style="display:none"
     id="layer2-3">
    <rect
       x="5"
       y="7"
       width="86"
       height="85"
       ry="6"
       rx="6"
       style="opacity:0.9;fill:url(#linearGradient3117);filter:url(#filter3174-2)"
       id="rect3745-7" />
  </g>
  <g
     transform="matrix(0.25,0,0,0.25,15.095,6.9188)"
     id="g4674">
    <g
       transform="translate(-13.859,48.458)"
       id="g3318">
      <path
         inkscape:connector-curvature="0"
         d="m 20.179,85.062 a 2.0893,2.0982 0 1 1 -4.1786,0 2.0893,2.0982 0 1 1 4.1786,0 z"
         transform="matrix(0,1.6709,1.6638,0,-122.04,53.283)"
         style="fill:url(#linearGradient4702)"
         id="path3374" />
      <path
         inkscape:connector-curvature="0"
         d="m 20.179,85.062 a 2.0893,2.0982 0 1 1 -4.1786,0 2.0893,2.0982 0 1 1 4.1786,0 z"
         transform="matrix(1.1923,0,0,1.1872,-2.0769,-17.48)"
         style="fill:url(#radialGradient4704);stroke:#000000;stroke-width:0.8405;stroke-linecap:square;stroke-opacity:0.53182002"
         id="path3364" />
    </g>
    <path
       inkscape:connector-curvature="0"
       d="m 41.141,136.96 c -0.81756,0 -1.5,-0.68244 -1.5,-1.5 v -6 c 0,-0.81756 0.68244,-1.5 1.5,-1.5 0.81756,0 1.5,0.68244 1.5,1.5 v 6 c 0,0.81756 -0.68244,1.5 -1.5,1.5 z m 4,0 c -0.81756,0 -1.5,-0.68244 -1.5,-1.5 v -6 c 0,-0.81756 0.68244,-1.5 1.5,-1.5 0.81756,0 1.5,0.68244 1.5,1.5 v 6 c 0,0.81756 -0.68244,1.5 -1.5,1.5 z m 4,0 c -0.81756,0 -1.5,-0.68244 -1.5,-1.5 v -6 c 0,-0.81756 0.68244,-1.5 1.5,-1.5 0.81756,0 1.5,0.68244 1.5,1.5 v 6 c 0,0.81756 -0.68244,1.5 -1.5,1.5 z m 4,0 c -0.81756,0 -1.5,-0.68244 -1.5,-1.5 v -6 c 0,-0.81756 0.68244,-1.5 1.5,-1.5 0.81756,0 1.5,0.68244 1.5,1.5 v 6 c 0,0.81756 -0.68244,1.5 -1.5,1.5 z m 4,0 c -0.81756,0 -1.5,-0.68244 -1.5,-1.5 v -6 c 0,-0.81756 0.68244,-1.5 1.5,-1.5 0.81756,0 1.5,0.68244 1.5,1.5 v 6 c 0,0.81756 -0.68244,1.5 -1.5,1.5 z m 4,0 c -0.81756,0 -1.5,-0.68244 -1.5,-1.5 v -6 c 0,-0.81756 0.68244,-1.5 1.5,-1.5 0.81756,0 1.5,0.68244 1.5,1.5 v 6 c 0,0.81756 -0.68244,1.5 -1.5,1.5 z m 4,0 c -0.81756,0 -1.5,-0.68244 -1.5,-1.5 v -6 c 0,-0.81756 0.68244,-1.5 1.5,-1.5 0.81756,0 1.5,0.68244 1.5,1.5 v 6 c 0,0.81756 -0.68244,1.5 -1.5,1.5 z"
       style="fill:url(#linearGradient4706)"
       id="path4237" />
    <path
       inkscape:connector-curvature="0"
       d="m 41.141,128.46 c -0.554,0 -1,0.446 -1,1 v 6 c 0,0.554 0.446,1 1,1 0.554,0 1,-0.446 1,-1 v -6 c 0,-0.554 -0.446,-1 -1,-1 z m 4,0 c -0.554,0 -1,0.446 -1,1 v 6 c 0,0.554 0.446,1 1,1 0.554,0 1,-0.446 1,-1 v -6 c 0,-0.554 -0.446,-1 -1,-1 z m 4,0 c -0.554,0 -1,0.446 -1,1 v 6 c 0,0.554 0.446,1 1,1 0.554,0 1,-0.446 1,-1 v -6 c 0,-0.554 -0.446,-1 -1,-1 z m 4,0 c -0.554,0 -1,0.446 -1,1 v 6 c 0,0.554 0.446,1 1,1 0.554,0 1,-0.446 1,-1 v -6 c 0,-0.554 -0.446,-1 -1,-1 z m 4,0 c -0.554,0 -1,0.446 -1,1 v 6 c 0,0.554 0.446,1 1,1 0.554,0 1,-0.446 1,-1 v -6 c 0,-0.554 -0.446,-1 -1,-1 z m 4,0 c -0.554,0 -1,0.446 -1,1 v 6 c 0,0.554 0.446,1 1,1 0.554,0 1,-0.446 1,-1 v -6 c 0,-0.554 -0.446,-1 -1,-1 z m 4,0 c -0.554,0 -1,0.446 -1,1 v 6 c 0,0.554 0.446,1 1,1 0.554,0 1,-0.446 1,-1 v -6 c 0,-0.554 -0.446,-1 -1,-1 z"
       style="fill:url(#linearGradient4708)"
       id="rect4210" />
  </g>
  <g
     transform="translate(-10.286,84.214)"
     style="display:none"
     id="layer2-75">
    <rect
       x="5"
       y="7"
       width="86"
       height="85"
       ry="6"
       rx="6"
       style="opacity:0.9;fill:url(#linearGradient3119);filter:url(#filter3174-1)"
       id="rect3745-20" />
  </g>
  <g
     transform="translate(-10.286,84.214)"
     style="display:none"
     id="layer5-3">
    <rect
       x="10.911"
       y="80"
       width="74.179001"
       height="6"
       ry="6"
       rx="6.7435002"
       style="opacity:0.6;fill:#0066ff;display:inline;filter:url(#filter4180-8)"
       id="rect3323" />
    <rect
       x="16"
       y="81"
       width="64"
       height="4"
       ry="4"
       rx="5.8182001"
       style="fill:url(#radialGradient3121);display:inline"
       id="rect3311" />
  </g>
  <g
     transform="translate(22.857,122.64)"
     style="display:none"
     id="layer2-37">
    <rect
       x="5"
       y="7"
       width="86"
       height="85"
       ry="6"
       rx="6"
       style="opacity:0.9;fill:url(#linearGradient3123);filter:url(#filter3174-10)"
       id="rect3745-6" />
  </g>
  <g
     transform="translate(22.857,122.64)"
     style="display:none"
     id="layer5-2">
    <rect
       x="10.911"
       y="80"
       width="74.179001"
       height="6"
       ry="6"
       rx="6.7435002"
       style="opacity:0.6;fill:#0066ff;display:inline;filter:url(#filter4180-5)"
       id="rect3323-7" />
    <rect
       x="16"
       y="81"
       width="64"
       height="4"
       ry="4"
       rx="5.8182001"
       style="fill:url(#radialGradient3125);display:inline"
       id="rect3311-0" />
  </g>
  <g
     id="g3186"
     transform="matrix(1.9677419,0,0,1.9677419,-0.5216825,-2.6054077)">
    <path
       id="path4124"
       style="color:#000000;fill:#a9a9a9"
       d="m 12.714,5.0001 c -3.3137,0 -6,2.6863 -6,6 0,3.3137 2.6863,6 6,6 3.3137,0 6,-2.6863 6,-6 0,-3.3137 -2.6863,-6 -6,-6 z m 0,1.3333 c 2.5773,0 4.6667,2.0894 4.6667,4.6667 0,2.5773 -2.0893,4.6667 -4.6667,4.6667 -1.2264,0 -2.3338,-0.4764 -3.1667,-1.25 0.26856,-0.038 0.69517,-0.042 1.25,0.021 0.8115,0.092 1.2566,0.1238 1.7917,0.083 1.2186,-0.092 2.0235,-0.2925 2.9167,-0.7291 0.46677,-0.2282 0.56571,-0.3313 0.66667,-0.6042 0.09626,-0.2602 0.13242,-0.5 0.08333,-0.5 -0.01737,0 -0.17101,0.059 -0.35417,0.1458 -0.68728,0.3248 -1.2886,0.4864 -1.8125,0.4584 -0.5446,-0.029 -1.4206,-0.3452 -2.4792,-0.8542 l -0.5,-0.2292 -0.375,-0.9375 L 11.089,11.5 c 0.60442,0.4014 1.5918,0.8741 2.1875,1.0625 0.91013,0.2878 1.6213,0.2483 2.3542,-0.125 0.25831,-0.1316 0.75,-0.454 0.75,-0.5 0,-0.087 -0.25158,-0.9302 -0.39583,-1.3125 -0.361,-0.9561 -0.614,-1.2789 -1.208,-1.5625 C 14.11685,8.7477 13.38507,8.534 12.04767,8.2292 11.40827,8.0934 10.77997,7.9559 10.13097,7.875 L 10.11014,8.6667 C 9.68576,8.5347 9.28262,8.4332 8.88094,8.3333 c 0.84365,-1.2063 2.2496,-2 3.8333,-2 z m 1.1042,3.375 c 0.43695,-0.01 0.85318,0.2782 0.97917,0.7709 0.06346,0.2482 0.04341,0.4242 -0.08333,0.6875 -0.1853,0.3849 -0.59538,0.5938 -1.0417,0.5208 -0.31472,-0.051 -0.58675,-0.2544 -0.72917,-0.5625 -0.17347,-0.3753 -0.09226,-0.8738 0.20833,-1.1458 0.19688,-0.1782 0.43778,-0.2661 0.66667,-0.2709 z m 0.22917,0.5209 c -0.3487,0 -0.56775,0.2561 -0.375,0.4375 0.15634,0.1471 0.4173,0.1686 0.625,0.062 0.13451,-0.069 0.18056,-0.1739 0.14583,-0.3125 -0.02556,-0.102 -0.22616,-0.1875 -0.39583,-0.1875 z"
       inkscape:connector-curvature="0" />
    <path
       id="path4215"
       style="color:#000000;fill:#ffffff;fill-opacity:0.23528999"
       d="m 12.714,6.3337 c -1.5837,0 -2.9903,0.7937 -3.834,2 0.08481,0.021 0.17464,0.049 0.25976,0.07 0.85705,-1.0174 2.1411,-1.6699 3.5742,-1.6699 2.5092,0 4.54,1.9839 4.6465,4.4668 0.0029,-0.068 0.01953,-0.1324 0.01953,-0.2012 0,-2.5773 -2.0887,-4.666 -4.666,-4.666 z m 1.1035,3.375 c -0.22888,0 -0.46914,0.093 -0.66602,0.2715 -0.24165,0.2186 -0.33368,0.5804 -0.27344,0.9101 0.03929,-0.1962 0.12915,-0.3811 0.27344,-0.5117 0.19688,-0.1782 0.43713,-0.2647 0.66602,-0.2695 0.43695,-0.01 0.85448,0.2768 0.98047,0.7695 0.0022,0.01 -4.5e-5,0.015 0.002,0.023 0.03041,-0.1365 0.0374,-0.268 -0.002,-0.4219 -0.126,-0.493 -0.543,-0.7818 -0.98,-0.7718 z m 0.50391,0.9961 c -0.01056,0.01 -0.01149,0.017 -0.02344,0.023 -0.178,0.091 -0.39197,0.084 -0.54883,-0.012 -0.14365,0.09 -0.20088,0.2322 -0.07617,0.3496 0.15634,0.1471 0.4173,0.1691 0.625,0.062 0.13451,-0.069 0.17926,-0.1739 0.14453,-0.3125 -0.01086,-0.043 -0.06281,-0.079 -0.12109,-0.1113 z m -7.5977,0.4961 c -0.0022,0.067 -0.0098,0.1319 -0.0098,0.1992 0,3.3137 2.6863,6 6,6 3.3137,0 6,-2.6863 6,-6 0,-0.067 -0.0076,-0.1325 -0.0098,-0.1992 -0.10703,3.2197 -2.7445,5.7988 -5.9902,5.7988 -3.2458,0 -5.8832,-2.5791 -5.9902,-5.7988 z m 4.0117,0.07 0.2168,0.5391 0.13672,0.09 c 0.60442,0.4014 1.5918,0.8741 2.1875,1.0625 0.91013,0.2878 1.6206,0.2483 2.3535,-0.125 0.25831,-0.1316 0.75,-0.454 0.75,-0.5 0,-0.021 -0.07236,-0.2288 -0.09766,-0.3242 -0.12379,0.106 -0.43931,0.3153 -0.65234,0.4238 -0.73287,0.3733 -1.4434,0.4128 -2.3535,0.125 -0.59574,-0.1884 -1.5831,-0.6611 -2.1875,-1.0625 l -0.35352,-0.2285 z m 5.5195,1.8164 c -0.0031,0 -0.05155,0.022 -0.0625,0.025 -0.0089,0.027 -0.0093,0.047 -0.01953,0.074 -0.10096,0.2729 -0.2012,0.3753 -0.66797,0.6035 -0.89313,0.4366 -1.6974,0.6385 -2.916,0.7305 -0.5351,0.041 -0.97952,0.01 -1.791,-0.084 -0.55483,-0.063 -0.98144,-0.057 -1.25,-0.019 0.14903,0.1384 0.31671,0.2547 0.48242,0.373 0.2186,5e-4 0.47132,0.013 0.76758,0.047 0.8115,0.092 1.2559,0.1248 1.791,0.084 1.2186,-0.092 2.0229,-0.2939 2.916,-0.7305 0.46677,-0.2282 0.56701,-0.3306 0.66797,-0.6035 0.09626,-0.2602 0.13112,-0.5 0.08203,-0.5 z"
       inkscape:connector-curvature="0" />
    <path
       id="path4311"
       style="color:#000000;fill-opacity:0.53725"
       d="m 12.714,5.0001 c -3.3137,0 -6,2.6863 -6,6 0,0.06727 0.0076,0.13248 0.0098,0.19922 0.10703,-3.2197 2.7445,-5.7988 5.9902,-5.7988 3.2458,0 5.8832,2.5791 5.9902,5.7988 0.0022,-0.06674 0.0097,-0.13195 0.0097,-0.19922 0,-3.3137 -2.6863,-6 -6,-6 z M 10.13,7.8751 10.11047,8.66612 C 9.77647,8.56192 9.45857,8.48472 9.14057,8.40442 9.05059,8.51126 8.96096,8.61793 8.88081,8.73254 9.28246,8.83244 9.6869,8.93452 10.11131,9.06652 L 10.13084,8.2755 c 0.64893,0.0809 1.2786,0.21772 1.918,0.35352 1.3374,0.3048 2.0685,0.51918 2.7285,0.83398 0.5945,0.2836 0.84825,0.6064 1.209,1.5625 0.10862,0.28785 0.21977,0.69737 0.29688,0.98828 0.02632,-0.02254 0.09766,-0.06811 0.09766,-0.07617 0,-0.087 -0.25028,-0.9302 -0.39453,-1.3125 -0.36073,-0.9561 -0.61449,-1.2789 -1.209,-1.5625 -0.66002,-0.3148 -1.3911,-0.52918 -2.7285,-0.83398 -0.6394,-0.1358 -1.269,-0.27262 -1.918,-0.35352 z m 3.918,2.3535 c -0.3487,0 -0.56775,0.2561 -0.375,0.4375 0.02247,0.02114 0.04985,0.03484 0.07617,0.05078 0.0784,-0.04941 0.17554,-0.08789 0.29883,-0.08789 0.09868,0 0.19631,0.03191 0.27539,0.07617 0.10743,-0.06863 0.15068,-0.16321 0.11914,-0.28906 -0.02556,-0.102 -0.22486,-0.1875 -0.39453,-0.1875 z m -1.1699,0.66211 c -0.04256,0.21261 -0.02575,0.43961 0.06445,0.63477 0.14242,0.3081 0.41575,0.5115 0.73047,0.5625 0.44628,0.073 0.85571,-0.13658 1.041,-0.52148 0.12271,-0.25493 0.14221,-0.43 0.08594,-0.66602 -0.01863,0.08356 -0.0378,0.16562 -0.08594,0.26562 -0.1853,0.3849 -0.59473,0.59448 -1.041,0.52148 -0.31472,-0.051 -0.58805,-0.2544 -0.73047,-0.5625 -0.03402,-0.0736 -0.04976,-0.15394 -0.06445,-0.23438 z m 4.4824,0.30859 c -0.1065,2.4829 -2.1373,4.4668 -4.6465,4.4668 -1.006,0 -1.9216,-0.33282 -2.6816,-0.875 -0.19181,-4.89e-4 -0.35871,0.0076 -0.48437,0.02539 0.83287,0.7736 1.9396,1.25 3.166,1.25 2.5773,0 4.666,-2.0887 4.666,-4.666 0,-0.06883 -0.01658,-0.13307 -0.01953,-0.20117 z m -6.625,0.4707 0.375,0.9375 0.5,0.23047 c 1.0585,0.509 1.9339,0.82452 2.4785,0.85352 0.52388,0.028 1.1252,-0.13418 1.8125,-0.45898 0.1508,-0.07147 0.23982,-0.10278 0.29102,-0.11914 0.07433,-0.22641 0.10636,-0.42578 0.0625,-0.42578 -0.01737,0 -0.17036,0.05968 -0.35352,0.14648 -0.68728,0.3248 -1.2886,0.48503 -1.8125,0.45703 -0.5446,-0.029 -1.42,-0.34452 -2.4785,-0.85352 l -0.5,-0.22852 L 10.95034,11.81062 10.7355,11.67 z"
       inkscape:connector-curvature="0" />
  </g>
</svg>
