<?xml version="1.0" encoding="UTF-8" standalone="no"?>
<!-- Created with Inkscape (http://www.inkscape.org/) -->

<svg
   xmlns:dc="http://purl.org/dc/elements/1.1/"
   xmlns:cc="http://creativecommons.org/ns#"
   xmlns:rdf="http://www.w3.org/1999/02/22-rdf-syntax-ns#"
   xmlns:svg="http://www.w3.org/2000/svg"
   xmlns="http://www.w3.org/2000/svg"
   xmlns:xlink="http://www.w3.org/1999/xlink"
   xmlns:sodipodi="http://sodipodi.sourceforge.net/DTD/sodipodi-0.dtd"
   xmlns:inkscape="http://www.inkscape.org/namespaces/inkscape"
   id="svg4511"
   height="48px"
   width="48px"
   version="1.1"
   inkscape:version="0.48.4 r9939"
   sodipodi:docname="input-mouse.svg">
  <sodipodi:namedview
     pagecolor="#ffffff"
     bordercolor="#666666"
     borderopacity="1"
     objecttolerance="10"
     gridtolerance="10"
     guidetolerance="10"
     inkscape:pageopacity="0"
     inkscape:pageshadow="2"
     inkscape:window-width="1360"
     inkscape:window-height="707"
     id="namedview128"
     showgrid="false"
     showguides="true"
     inkscape:guide-bbox="true"
     inkscape:zoom="2.7198535"
     inkscape:cx="15.080198"
     inkscape:cy="44.427528"
     inkscape:window-x="-2"
     inkscape:window-y="33"
     inkscape:window-maximized="1"
     inkscape:current-layer="svg4511" />
  <defs
     id="defs4513">
    <linearGradient
       inkscape:collect="always"
       id="linearGradient4276">
      <stop
         style="stop-color:#f2f2ef;stop-opacity:1"
         offset="0"
         id="stop4278" />
      <stop
         style="stop-color:#aea896;stop-opacity:1"
         offset="1"
         id="stop4280" />
    </linearGradient>
    <filter
       id="filter3174"
       color-interpolation-filters="sRGB">
      <feGaussianBlur
         id="feGaussianBlur3176"
         stdDeviation="1.71" />
    </filter>
    <linearGradient
       id="linearGradient3254"
       y2="7.0165"
       gradientUnits="userSpaceOnUse"
       x2="45.448"
       gradientTransform="matrix(1.0059,0,0,0.99417,-175.86,-30.712)"
       y1="92.54"
       x1="45.448">
      <stop
         id="stop3750"
         offset="0" />
      <stop
         id="stop3752"
         style="stop-opacity:.58824"
         offset="1" />
    </linearGradient>
    <filter
       id="filter3174-7"
       color-interpolation-filters="sRGB">
      <feGaussianBlur
         id="feGaussianBlur3176-58"
         stdDeviation="1.71" />
    </filter>
    <linearGradient
       id="linearGradient8374"
       y2="7.0165"
       gradientUnits="userSpaceOnUse"
       x2="45.448"
       gradientTransform="matrix(1.0059,0,0,0.99417,108.29,-24.643)"
       y1="92.54"
       x1="45.448">
      <stop
         id="stop3750-50"
         offset="0" />
      <stop
         id="stop3752-42"
         style="stop-opacity:.58824"
         offset="1" />
    </linearGradient>
    <filter
       id="filter3174-41"
       color-interpolation-filters="sRGB">
      <feGaussianBlur
         id="feGaussianBlur3176-9"
         stdDeviation="1.71" />
    </filter>
    <linearGradient
       id="ButtonShadow-6"
       x1="45.448"
       gradientUnits="userSpaceOnUse"
       y1="92.54"
       gradientTransform="scale(1.0059 .99417)"
       x2="45.448"
       y2="7.0165">
      <stop
         id="stop3750-9"
         offset="0" />
      <stop
         id="stop3752-33"
         style="stop-opacity:.58824"
         offset="1" />
    </linearGradient>
    <filter
       id="filter3174-57"
       color-interpolation-filters="sRGB">
      <feGaussianBlur
         id="feGaussianBlur3176-42"
         stdDeviation="1.71" />
    </filter>
    <filter
       id="filter3174-76"
       color-interpolation-filters="sRGB">
      <feGaussianBlur
         id="feGaussianBlur3176-51"
         stdDeviation="1.71" />
    </filter>
    <filter
       id="filter3174-3"
       color-interpolation-filters="sRGB">
      <feGaussianBlur
         id="feGaussianBlur3176-47"
         stdDeviation="1.71" />
    </filter>
    <filter
       id="filter3174-65"
       color-interpolation-filters="sRGB">
      <feGaussianBlur
         id="feGaussianBlur3176-0"
         stdDeviation="1.71" />
    </filter>
    <linearGradient
       id="linearGradient10968"
       y2="7.0165"
       gradientUnits="userSpaceOnUse"
       x2="45.448"
       gradientTransform="matrix(1.0059,0,0,0.99417,88.061,-64.071)"
       y1="92.54"
       x1="45.448">
      <stop
         id="stop3750-53"
         offset="0" />
      <stop
         id="stop3752-85"
         style="stop-opacity:.58824"
         offset="1" />
    </linearGradient>
    <filter
       id="filter3174-34"
       color-interpolation-filters="sRGB">
      <feGaussianBlur
         id="feGaussianBlur3176-01"
         stdDeviation="1.71" />
    </filter>
    <linearGradient
       id="linearGradient4603"
       y2="7.0165"
       gradientUnits="userSpaceOnUse"
       x2="45.448"
       gradientTransform="matrix(1.0059,0,0,0.99417,-25.979,57.897)"
       y1="92.54"
       x1="45.448">
      <stop
         id="stop3750-96"
         offset="0" />
      <stop
         id="stop3752-39"
         style="stop-opacity:.58824"
         offset="1" />
    </linearGradient>
    <filter
       id="filter3174-2"
       color-interpolation-filters="sRGB">
      <feGaussianBlur
         id="feGaussianBlur3176-44"
         stdDeviation="1.71" />
    </filter>
    <filter
       id="filter3689"
       color-interpolation-filters="sRGB">
      <feGaussianBlur
         id="feGaussianBlur3691"
         stdDeviation="1.71" />
    </filter>
    <linearGradient
       id="linearGradient14684"
       y2="7.0165"
       gradientUnits="userSpaceOnUse"
       x2="45.448"
       gradientTransform="matrix(1.0059,0,0,0.99417,-1.4442,56.587)"
       y1="92.54"
       x1="45.448">
      <stop
         id="stop3750-61"
         offset="0" />
      <stop
         id="stop3752-0-3"
         style="stop-opacity:.58824"
         offset="1" />
    </linearGradient>
    <linearGradient
       id="linearGradient3837-7">
      <stop
         id="stop3839-4"
         offset="0" />
      <stop
         id="stop3841-4"
         style="stop-opacity:0"
         offset="1" />
    </linearGradient>
    <linearGradient
       id="linearGradient3737-88-4">
      <stop
         id="stop3739-46-7"
         style="stop-color:#fff"
         offset="0" />
      <stop
         id="stop3741-9-68"
         style="stop-color:#fff;stop-opacity:0"
         offset="1" />
    </linearGradient>
    <linearGradient
       id="linearGradient16265"
       y2="-2.5714"
       gradientUnits="userSpaceOnUse"
       x2="27.689"
       y1="-57"
       x1="21.714">
      <stop
         id="stop3616"
         style="stop-color:#c8c4b7"
         offset="0" />
      <stop
         id="stop3618"
         style="stop-color:#e3e2db"
         offset="1" />
    </linearGradient>
    <linearGradient
       id="linearGradient16267"
       y2="-2.5714"
       gradientUnits="userSpaceOnUse"
       x2="27.689"
       y1="-57"
       x1="21.714">
      <stop
         id="stop4329-1-2"
         style="stop-color:#f0f0f0"
         offset="0" />
      <stop
         id="stop4331-2-89"
         style="stop-color:#b4b4b4"
         offset="1" />
    </linearGradient>
    <linearGradient
       id="linearGradient16269"
       y2="48"
       gradientUnits="userSpaceOnUse"
       x2="48"
       gradientTransform="matrix(0.53144,0,0,0.53144,-0.79488,-1.7349)"
       y1="8"
       x1="48">
      <stop
         id="stop3891-7-6"
         style="stop-color:#a49e89"
         offset="0" />
      <stop
         id="stop3893-7-5"
         style="stop-color:#fff"
         offset="1" />
    </linearGradient>
    <linearGradient
       id="linearGradient16271"
       y2="42"
       gradientUnits="userSpaceOnUse"
       x2="48"
       gradientTransform="matrix(0.53144,0,0,0.53144,-0.79488,-1.7349)"
       y1="14"
       x1="48">
      <stop
         id="stop3723-0"
         style="stop-color:#949494"
         offset="0" />
      <stop
         id="stop3731-8"
         style="stop-color:#aeaeae"
         offset=".19547" />
      <stop
         id="stop3729-3"
         style="stop-color:#828282"
         offset=".66360" />
      <stop
         id="stop3725-4"
         style="stop-color:#4d4d4d"
         offset="1" />
    </linearGradient>
    <linearGradient
       id="linearGradient16273"
       y2="28"
       spreadMethod="reflect"
       gradientUnits="userSpaceOnUse"
       x2="48"
       gradientTransform="matrix(0.53144,0,0,0.53144,-0.79488,-1.7349)"
       y1="28"
       x1="41.844">
      <stop
         id="stop3737-6"
         offset="0" />
      <stop
         id="stop3744-1"
         style="stop-opacity:.16279"
         offset=".5" />
      <stop
         id="stop3740-1"
         style="stop-opacity:0"
         offset="1" />
    </linearGradient>
    <radialGradient
       id="radialGradient16275"
       xlink:href="#linearGradient3737-88-4"
       gradientUnits="userSpaceOnUse"
       cy="19.5"
       cx="48"
       gradientTransform="matrix(0.53144,0,0,0.053144,-0.79488,17.689)"
       r="5" />
    <radialGradient
       id="radialGradient16277"
       xlink:href="#linearGradient3737-88-4"
       gradientUnits="userSpaceOnUse"
       cy="19.5"
       cx="48"
       gradientTransform="matrix(0.53144,0,0,0.053144,-0.79488,16.095)"
       r="5" />
    <radialGradient
       id="radialGradient16279"
       xlink:href="#linearGradient3737-88-4"
       gradientUnits="userSpaceOnUse"
       cy="19.5"
       cx="48"
       gradientTransform="matrix(0.53144,0,0,0.053144,-0.79488,14.501)"
       r="5" />
    <radialGradient
       id="radialGradient16281"
       xlink:href="#linearGradient3737-88-4"
       gradientUnits="userSpaceOnUse"
       cy="19.5"
       cx="48"
       gradientTransform="matrix(0.53144,0,0,0.053144,-0.79488,12.906)"
       r="5" />
    <radialGradient
       id="radialGradient16283"
       xlink:href="#linearGradient3737-88-4"
       gradientUnits="userSpaceOnUse"
       cy="19.5"
       cx="48"
       gradientTransform="matrix(0.53144,0,0,0.053144,-0.79488,11.312)"
       r="5" />
    <radialGradient
       id="radialGradient16285"
       xlink:href="#linearGradient3737-88-4"
       gradientUnits="userSpaceOnUse"
       cy="19.5"
       cx="48"
       gradientTransform="matrix(0.53144,0,0,0.053144,-0.79488,9.7177)"
       r="5" />
    <radialGradient
       id="radialGradient16287"
       xlink:href="#linearGradient3737-88-4"
       gradientUnits="userSpaceOnUse"
       cy="19.5"
       cx="48"
       gradientTransform="matrix(0.53144,0,0,0.053144,-0.79488,8.1233)"
       r="5" />
    <radialGradient
       id="radialGradient16289"
       xlink:href="#linearGradient3737-88-4"
       gradientUnits="userSpaceOnUse"
       cy="19.5"
       cx="48"
       gradientTransform="matrix(0.53144,0,0,0.053144,-0.79488,6.529)"
       r="5" />
    <radialGradient
       id="radialGradient16291"
       xlink:href="#linearGradient3837-7"
       gradientUnits="userSpaceOnUse"
       cy="37.5"
       cx="48"
       gradientTransform="matrix(0.53144,0,0,0.053144,-0.79488,16.201)"
       r="5" />
    <radialGradient
       id="radialGradient16293"
       xlink:href="#linearGradient3837-7"
       gradientUnits="userSpaceOnUse"
       cy="37.5"
       cx="48"
       gradientTransform="matrix(0.53144,0,0,0.053144,-0.79488,14.607)"
       r="5" />
    <radialGradient
       id="radialGradient16295"
       xlink:href="#linearGradient3837-7"
       gradientUnits="userSpaceOnUse"
       cy="37.5"
       cx="48"
       gradientTransform="matrix(0.53144,0,0,0.053144,-0.79488,13.013)"
       r="5" />
    <radialGradient
       id="radialGradient16297"
       xlink:href="#linearGradient3837-7"
       gradientUnits="userSpaceOnUse"
       cy="37.5"
       cx="48"
       gradientTransform="matrix(0.53144,0,0,0.053144,-0.79488,11.418)"
       r="5" />
    <radialGradient
       id="radialGradient16299"
       xlink:href="#linearGradient3837-7"
       gradientUnits="userSpaceOnUse"
       cy="37.5"
       cx="48"
       gradientTransform="matrix(0.53144,0,0,0.053144,-0.79488,9.8239)"
       r="5" />
    <radialGradient
       id="radialGradient16301"
       xlink:href="#linearGradient3837-7"
       gradientUnits="userSpaceOnUse"
       cy="37.5"
       cx="48"
       gradientTransform="matrix(0.53144,0,0,0.053144,-0.79488,8.2296)"
       r="5" />
    <radialGradient
       id="radialGradient16303"
       xlink:href="#linearGradient3837-7"
       gradientUnits="userSpaceOnUse"
       cy="37.5"
       cx="48"
       gradientTransform="matrix(0.53144,0,0,0.053144,-0.79488,6.6353)"
       r="5" />
    <radialGradient
       id="radialGradient16305"
       xlink:href="#linearGradient3837-7"
       gradientUnits="userSpaceOnUse"
       cy="37.5"
       cx="48"
       gradientTransform="matrix(0.53144,0,0,0.053144,-0.79488,5.041)"
       r="5" />
    <linearGradient
       id="linearGradient16265-3"
       y2="-2.5713999"
       gradientUnits="userSpaceOnUse"
       x2="27.688999"
       y1="-57"
       x1="21.714001">
      <stop
         id="stop3616-4"
         style="stop-color:#ada895;stop-opacity:1"
         offset="0" />
      <stop
         offset="0.18940581"
         style="stop-color:#cecbc0;stop-opacity:1"
         id="stop3950" />
      <stop
         id="stop3952"
         style="stop-color:#d9d7ce;stop-opacity:1"
         offset="0.30361089" />
      <stop
         offset="0.70512766"
         style="stop-color:#bebbac;stop-opacity:1"
         id="stop3948" />
      <stop
         offset="0.87029934"
         style="stop-color:#b5b19f;stop-opacity:1"
         id="stop3946" />
      <stop
         id="stop3618-1"
         style="stop-color:#dddcd3;stop-opacity:1"
         offset="1" />
    </linearGradient>
    <linearGradient
       id="linearGradient16267-7"
       y2="-2.5713999"
       gradientUnits="userSpaceOnUse"
       x2="27.688999"
       y1="-57"
       x1="21.714001">
      <stop
         id="stop4329-1-2-4"
         style="stop-color:#ada895;stop-opacity:1"
         offset="0" />
      <stop
         id="stop4331-2-89-6"
         style="stop-color:#dddcd3;stop-opacity:1"
         offset="1" />
    </linearGradient>
    <linearGradient
       gradientTransform="matrix(0.98535295,0,0,1.0001664,-0.02387304,0.00607668)"
       y2="-8.9361496"
       x2="46.81514"
       y1="-9.157917"
       x1="1.3662815"
       gradientUnits="userSpaceOnUse"
       id="linearGradient3151"
       xlink:href="#linearGradient16265-3"
       inkscape:collect="always" />
    <linearGradient
       gradientTransform="matrix(0.98535295,0,0,1.0001664,-0.02387304,0.00607668)"
       y2="-8.9361496"
       x2="46.81514"
       y1="-9.157917"
       x1="1.3662815"
       gradientUnits="userSpaceOnUse"
       id="linearGradient3153"
       xlink:href="#linearGradient16267-7"
       inkscape:collect="always" />
    <radialGradient
       inkscape:collect="always"
       xlink:href="#linearGradient3837-7"
       id="radialGradient4047"
       gradientUnits="userSpaceOnUse"
       gradientTransform="matrix(0.53144,0,0,0.053144,-1.16475,5.0501324)"
       cx="48"
       cy="37.5"
       r="5" />
    <radialGradient
       inkscape:collect="always"
       xlink:href="#linearGradient3837-7"
       id="radialGradient4050"
       gradientUnits="userSpaceOnUse"
       gradientTransform="matrix(0.53144,0,0,0.053144,-1.16475,6.6444324)"
       cx="48"
       cy="37.5"
       r="5" />
    <radialGradient
       inkscape:collect="always"
       xlink:href="#linearGradient3837-7"
       id="radialGradient4053"
       gradientUnits="userSpaceOnUse"
       gradientTransform="matrix(0.53144,0,0,0.053144,-1.16475,8.2387324)"
       cx="48"
       cy="37.5"
       r="5" />
    <radialGradient
       inkscape:collect="always"
       xlink:href="#linearGradient3837-7"
       id="radialGradient4056"
       gradientUnits="userSpaceOnUse"
       gradientTransform="matrix(0.53144,0,0,0.053144,-1.16475,9.8330324)"
       cx="48"
       cy="37.5"
       r="5" />
    <radialGradient
       inkscape:collect="always"
       xlink:href="#linearGradient3837-7"
       id="radialGradient4059"
       gradientUnits="userSpaceOnUse"
       gradientTransform="matrix(0.53144,0,0,0.053144,-1.16475,11.427132)"
       cx="48"
       cy="37.5"
       r="5" />
    <radialGradient
       inkscape:collect="always"
       xlink:href="#linearGradient3837-7"
       id="radialGradient4062"
       gradientUnits="userSpaceOnUse"
       gradientTransform="matrix(0.53144,0,0,0.053144,-1.16475,13.022132)"
       cx="48"
       cy="37.5"
       r="5" />
    <radialGradient
       inkscape:collect="always"
       xlink:href="#linearGradient3837-7"
       id="radialGradient4065"
       gradientUnits="userSpaceOnUse"
       gradientTransform="matrix(0.53144,0,0,0.053144,-1.16475,14.616132)"
       cx="48"
       cy="37.5"
       r="5" />
    <radialGradient
       inkscape:collect="always"
       xlink:href="#linearGradient3837-7"
       id="radialGradient4068"
       gradientUnits="userSpaceOnUse"
       gradientTransform="matrix(0.53144,0,0,0.053144,-1.16475,16.210132)"
       cx="48"
       cy="37.5"
       r="5" />
    <radialGradient
       inkscape:collect="always"
       xlink:href="#linearGradient3737-88-4"
       id="radialGradient4071"
       gradientUnits="userSpaceOnUse"
       gradientTransform="matrix(0.53144,0,0,0.053144,-1.16475,6.5381324)"
       cx="48"
       cy="19.5"
       r="5" />
    <radialGradient
       inkscape:collect="always"
       xlink:href="#linearGradient3737-88-4"
       id="radialGradient4074"
       gradientUnits="userSpaceOnUse"
       gradientTransform="matrix(0.53144,0,0,0.053144,-1.16475,8.1324324)"
       cx="48"
       cy="19.5"
       r="5" />
    <radialGradient
       inkscape:collect="always"
       xlink:href="#linearGradient3737-88-4"
       id="radialGradient4077"
       gradientUnits="userSpaceOnUse"
       gradientTransform="matrix(0.53144,0,0,0.053144,-1.16475,9.7268324)"
       cx="48"
       cy="19.5"
       r="5" />
    <radialGradient
       inkscape:collect="always"
       xlink:href="#linearGradient3737-88-4"
       id="radialGradient4080"
       gradientUnits="userSpaceOnUse"
       gradientTransform="matrix(0.53144,0,0,0.053144,-1.16475,11.321132)"
       cx="48"
       cy="19.5"
       r="5" />
    <radialGradient
       inkscape:collect="always"
       xlink:href="#linearGradient3737-88-4"
       id="radialGradient4083"
       gradientUnits="userSpaceOnUse"
       gradientTransform="matrix(0.53144,0,0,0.053144,-1.16475,12.915132)"
       cx="48"
       cy="19.5"
       r="5" />
    <radialGradient
       inkscape:collect="always"
       xlink:href="#linearGradient3737-88-4"
       id="radialGradient4086"
       gradientUnits="userSpaceOnUse"
       gradientTransform="matrix(0.53144,0,0,0.053144,-1.16475,14.510132)"
       cx="48"
       cy="19.5"
       r="5" />
    <radialGradient
       inkscape:collect="always"
       xlink:href="#linearGradient3737-88-4"
       id="radialGradient4089"
       gradientUnits="userSpaceOnUse"
       gradientTransform="matrix(0.53144,0,0,0.053144,-1.16475,16.104132)"
       cx="48"
       cy="19.5"
       r="5" />
    <radialGradient
       inkscape:collect="always"
       xlink:href="#linearGradient3737-88-4"
       id="radialGradient4092"
       gradientUnits="userSpaceOnUse"
       gradientTransform="matrix(0.53144,0,0,0.053144,-1.16475,17.698132)"
       cx="48"
       cy="19.5"
       r="5" />
    <linearGradient
       inkscape:collect="always"
       xlink:href="#linearGradient16273"
       id="linearGradient4095"
       gradientUnits="userSpaceOnUse"
       gradientTransform="matrix(0.53144,0,0,0.53144,-1.16475,-1.7257676)"
       spreadMethod="reflect"
       x1="41.844"
       y1="28"
       x2="48"
       y2="28" />
    <linearGradient
       inkscape:collect="always"
       xlink:href="#linearGradient16271"
       id="linearGradient4098"
       gradientUnits="userSpaceOnUse"
       gradientTransform="matrix(0.53144,0,0,0.53144,-1.16475,-1.7257676)"
       x1="48"
       y1="14"
       x2="48"
       y2="42" />
    <linearGradient
       inkscape:collect="always"
       xlink:href="#linearGradient16269"
       id="linearGradient4103"
       gradientUnits="userSpaceOnUse"
       gradientTransform="matrix(0.53144,0,0,0.53144,-1.16475,-1.7257676)"
       x1="48"
       y1="8"
       x2="48"
       y2="48" />
    <linearGradient
       inkscape:collect="always"
       xlink:href="#ButtonShadow-6"
       id="linearGradient4112"
       gradientUnits="userSpaceOnUse"
       gradientTransform="matrix(1.0059,0,0,0.99417,-13.859,48.458)"
       x1="45.448"
       y1="92.54"
       x2="45.448"
       y2="7.0165" />
    <linearGradient
       inkscape:collect="always"
       xlink:href="#ButtonShadow-6"
       id="linearGradient4117"
       gradientUnits="userSpaceOnUse"
       gradientTransform="matrix(1.0059,0,0,0.99417,28.835,-121.51)"
       x1="45.448"
       y1="92.54"
       x2="45.448"
       y2="7.0165" />
    <linearGradient
       inkscape:collect="always"
       xlink:href="#ButtonShadow-6"
       id="linearGradient4122"
       gradientUnits="userSpaceOnUse"
       gradientTransform="matrix(1.0059,0,0,0.99417,-106.2,-48.076)"
       x1="45.448"
       y1="92.54"
       x2="45.448"
       y2="7.0165" />
    <linearGradient
       inkscape:collect="always"
       xlink:href="#ButtonShadow-6"
       id="linearGradient4127"
       gradientUnits="userSpaceOnUse"
       gradientTransform="matrix(1.0059,0,0,0.99417,-218.05,-238.16)"
       x1="45.448"
       y1="92.54"
       x2="45.448"
       y2="7.0165" />
    <linearGradient
       inkscape:collect="always"
       xlink:href="#ButtonShadow-6"
       id="linearGradient4132"
       gradientUnits="userSpaceOnUse"
       gradientTransform="matrix(1.0059,0,0,0.99417,-111.44,-124.36)"
       x1="45.448"
       y1="92.54"
       x2="45.448"
       y2="7.0165" />
    <linearGradient
       inkscape:collect="always"
       xlink:href="#linearGradient16269"
       id="linearGradient4238"
       gradientUnits="userSpaceOnUse"
       gradientTransform="matrix(0.53144,0,0,0.53144,-1.16475,-1.7257676)"
       x1="48"
       y1="8"
       x2="48"
       y2="48" />
    <linearGradient
       inkscape:collect="always"
       xlink:href="#linearGradient16271"
       id="linearGradient4240"
       gradientUnits="userSpaceOnUse"
       gradientTransform="matrix(0.53144,0,0,0.53144,-1.16475,-1.7257676)"
       x1="48"
       y1="14"
       x2="48"
       y2="42" />
    <linearGradient
       inkscape:collect="always"
       xlink:href="#linearGradient16273"
       id="linearGradient4242"
       gradientUnits="userSpaceOnUse"
       gradientTransform="matrix(0.53144,0,0,0.53144,-1.16475,-1.7257676)"
       spreadMethod="reflect"
       x1="41.844"
       y1="28"
       x2="48"
       y2="28" />
    <radialGradient
       inkscape:collect="always"
       xlink:href="#linearGradient3737-88-4"
       id="radialGradient4244"
       gradientUnits="userSpaceOnUse"
       gradientTransform="matrix(0.53144,0,0,0.053144,-1.16475,17.698132)"
       cx="48"
       cy="19.5"
       r="5" />
    <radialGradient
       inkscape:collect="always"
       xlink:href="#linearGradient3737-88-4"
       id="radialGradient4246"
       gradientUnits="userSpaceOnUse"
       gradientTransform="matrix(0.53144,0,0,0.053144,-1.16475,16.104132)"
       cx="48"
       cy="19.5"
       r="5" />
    <radialGradient
       inkscape:collect="always"
       xlink:href="#linearGradient3737-88-4"
       id="radialGradient4248"
       gradientUnits="userSpaceOnUse"
       gradientTransform="matrix(0.53144,0,0,0.053144,-1.16475,14.510132)"
       cx="48"
       cy="19.5"
       r="5" />
    <radialGradient
       inkscape:collect="always"
       xlink:href="#linearGradient3737-88-4"
       id="radialGradient4250"
       gradientUnits="userSpaceOnUse"
       gradientTransform="matrix(0.53144,0,0,0.053144,-1.16475,12.915132)"
       cx="48"
       cy="19.5"
       r="5" />
    <radialGradient
       inkscape:collect="always"
       xlink:href="#linearGradient3737-88-4"
       id="radialGradient4252"
       gradientUnits="userSpaceOnUse"
       gradientTransform="matrix(0.53144,0,0,0.053144,-1.16475,11.321132)"
       cx="48"
       cy="19.5"
       r="5" />
    <radialGradient
       inkscape:collect="always"
       xlink:href="#linearGradient3737-88-4"
       id="radialGradient4254"
       gradientUnits="userSpaceOnUse"
       gradientTransform="matrix(0.53144,0,0,0.053144,-1.16475,9.7268324)"
       cx="48"
       cy="19.5"
       r="5" />
    <radialGradient
       inkscape:collect="always"
       xlink:href="#linearGradient3737-88-4"
       id="radialGradient4256"
       gradientUnits="userSpaceOnUse"
       gradientTransform="matrix(0.53144,0,0,0.053144,-1.16475,8.1324324)"
       cx="48"
       cy="19.5"
       r="5" />
    <radialGradient
       inkscape:collect="always"
       xlink:href="#linearGradient3737-88-4"
       id="radialGradient4258"
       gradientUnits="userSpaceOnUse"
       gradientTransform="matrix(0.53144,0,0,0.053144,-1.16475,6.5381324)"
       cx="48"
       cy="19.5"
       r="5" />
    <radialGradient
       inkscape:collect="always"
       xlink:href="#linearGradient3837-7"
       id="radialGradient4260"
       gradientUnits="userSpaceOnUse"
       gradientTransform="matrix(0.53144,0,0,0.053144,-1.16475,16.210132)"
       cx="48"
       cy="37.5"
       r="5" />
    <radialGradient
       inkscape:collect="always"
       xlink:href="#linearGradient3837-7"
       id="radialGradient4262"
       gradientUnits="userSpaceOnUse"
       gradientTransform="matrix(0.53144,0,0,0.053144,-1.16475,14.616132)"
       cx="48"
       cy="37.5"
       r="5" />
    <radialGradient
       inkscape:collect="always"
       xlink:href="#linearGradient3837-7"
       id="radialGradient4264"
       gradientUnits="userSpaceOnUse"
       gradientTransform="matrix(0.53144,0,0,0.053144,-1.16475,13.022132)"
       cx="48"
       cy="37.5"
       r="5" />
    <radialGradient
       inkscape:collect="always"
       xlink:href="#linearGradient3837-7"
       id="radialGradient4266"
       gradientUnits="userSpaceOnUse"
       gradientTransform="matrix(0.53144,0,0,0.053144,-1.16475,11.427132)"
       cx="48"
       cy="37.5"
       r="5" />
    <radialGradient
       inkscape:collect="always"
       xlink:href="#linearGradient3837-7"
       id="radialGradient4268"
       gradientUnits="userSpaceOnUse"
       gradientTransform="matrix(0.53144,0,0,0.053144,-1.16475,9.8330324)"
       cx="48"
       cy="37.5"
       r="5" />
    <radialGradient
       inkscape:collect="always"
       xlink:href="#linearGradient3837-7"
       id="radialGradient4270"
       gradientUnits="userSpaceOnUse"
       gradientTransform="matrix(0.53144,0,0,0.053144,-1.16475,8.2387324)"
       cx="48"
       cy="37.5"
       r="5" />
    <radialGradient
       inkscape:collect="always"
       xlink:href="#linearGradient3837-7"
       id="radialGradient4272"
       gradientUnits="userSpaceOnUse"
       gradientTransform="matrix(0.53144,0,0,0.053144,-1.16475,6.6444324)"
       cx="48"
       cy="37.5"
       r="5" />
    <radialGradient
       inkscape:collect="always"
       xlink:href="#linearGradient3837-7"
       id="radialGradient4274"
       gradientUnits="userSpaceOnUse"
       gradientTransform="matrix(0.53144,0,0,0.053144,-1.16475,5.0501324)"
       cx="48"
       cy="37.5"
       r="5" />
    <linearGradient
       inkscape:collect="always"
       xlink:href="#linearGradient4276"
       id="linearGradient4282"
       x1="24.956984"
       y1="22.307653"
       x2="24.907776"
       y2="3.8490927"
       gradientUnits="userSpaceOnUse" />
    <linearGradient
       inkscape:collect="always"
       xlink:href="#linearGradient5011"
       id="linearGradient3046"
       gradientUnits="userSpaceOnUse"
       gradientTransform="matrix(5.030115,0,0,2.3806383,-37.633751,-1.6173058)"
       x1="14"
       y1="2"
       x2="32"
       y2="40" />
    <linearGradient
       id="linearGradient5011"
       y2="40"
       gradientUnits="userSpaceOnUse"
       x2="32"
       gradientTransform="matrix(2.1461,0,0,1.0157,-23.235,-3.5596)"
       y1="2"
       x1="14">
      <stop
         id="stop3210"
         style="stop-color:#fff"
         offset="0" />
      <stop
         id="stop3212"
         style="stop-color:#fff;stop-opacity:0"
         offset="1" />
    </linearGradient>
    <linearGradient
       y2="40"
       x2="32"
       y1="2"
       x1="14"
       gradientTransform="matrix(4.5825055,0,0,1.2776703,-76.295295,-7.8961408)"
       gradientUnits="userSpaceOnUse"
       id="linearGradient3103"
       xlink:href="#linearGradient5011"
       inkscape:collect="always" />
    <linearGradient
       inkscape:collect="always"
       xlink:href="#linearGradient5011-0"
       id="linearGradient3046-5"
       gradientUnits="userSpaceOnUse"
       gradientTransform="matrix(5.030115,0,0,2.3806383,-150.60314,-46.706798)"
       x1="14"
       y1="2"
       x2="32"
       y2="40" />
    <linearGradient
       id="linearGradient5011-0"
       y2="40"
       gradientUnits="userSpaceOnUse"
       x2="32"
       gradientTransform="matrix(2.1461,0,0,1.0157,-23.235,-3.5596)"
       y1="2"
       x1="14">
      <stop
         id="stop3210-8"
         style="stop-color:#fff"
         offset="0" />
      <stop
         id="stop3212-4"
         style="stop-color:#fff;stop-opacity:0"
         offset="1" />
    </linearGradient>
    <linearGradient
       inkscape:collect="always"
       xlink:href="#linearGradient4431"
       id="linearGradient3050"
       gradientUnits="userSpaceOnUse"
       gradientTransform="matrix(3.8450695e-7,-1.668275,1.8125383,8.2575827e-7,-100.89779,11.304649)"
       x1="24.118"
       y1="33.658001"
       x2="-32.012001"
       y2="33.658001" />
    <linearGradient
       id="linearGradient4431"
       y2="33.658001"
       gradientUnits="userSpaceOnUse"
       x2="-32.012001"
       gradientTransform="matrix(1.6405e-7,-0.71177,0.77332,3.5231e-7,-2.0282,21.191)"
       y1="33.658001"
       x1="24.118">
      <stop
         id="stop3777"
         style="stop-color:#fff"
         offset="0" />
      <stop
         id="stop3779"
         style="stop-color:#fff;stop-opacity:0"
         offset="1" />
    </linearGradient>
    <linearGradient
       inkscape:collect="always"
       xlink:href="#linearGradient5466-8"
       id="linearGradient3053"
       gradientUnits="userSpaceOnUse"
       gradientTransform="matrix(2.3525122,0,0,2.0048362,-55.499152,-33.032365)"
       x1="18.601"
       y1="0.85446"
       x2="18.601"
       y2="49.956001" />
    <linearGradient
       id="linearGradient5466-8"
       y2="49.956001"
       gradientUnits="userSpaceOnUse"
       x2="18.601"
       gradientTransform="matrix(1,0,0,0.89491,221.93,418.09)"
       y1="0.85446"
       x1="18.601">
      <stop
         id="stop3602-2"
         style="stop-color:#f4f4f4"
         offset="0" />
      <stop
         id="stop3604-5"
         style="stop-color:#dbdbdb"
         offset="1" />
    </linearGradient>
    <linearGradient
       inkscape:collect="always"
       xlink:href="#linearGradient5468-1"
       id="linearGradient3055"
       gradientUnits="userSpaceOnUse"
       gradientTransform="matrix(1.8996536,0,0,1.8762225,84.263596,-35.272631)"
       x1="-74.785004"
       y1="54.702999"
       x2="-74.785004"
       y2="2.1039" />
    <linearGradient
       id="linearGradient5468-1"
       y2="2.1039"
       gradientUnits="userSpaceOnUse"
       x2="-74.785004"
       gradientTransform="matrix(0.8075,0,0,0.8375,281.34,417.09)"
       y1="54.702999"
       x1="-74.785004">
      <stop
         id="stop3106-2"
         style="stop-color:#aaa"
         offset="0" />
      <stop
         id="stop3108-2"
         style="stop-color:#c8c8c8"
         offset="1" />
    </linearGradient>
    <radialGradient
       inkscape:collect="always"
       xlink:href="#radialGradient5570"
       id="radialGradient3058"
       gradientUnits="userSpaceOnUse"
       gradientTransform="matrix(1.4501807,0,0,0.41429716,39.238341,90.260285)"
       cx="23.334999"
       cy="41.636002"
       r="22.627001" />
    <radialGradient
       id="radialGradient5570"
       gradientUnits="userSpaceOnUse"
       cy="41.636002"
       cx="23.334999"
       gradientTransform="matrix(0.61872,0,0,0.17676,9.5625,35.64)"
       r="22.627001">
      <stop
         id="stop23421-7"
         offset="0" />
      <stop
         id="stop23423-0"
         style="stop-opacity:0"
         offset="1" />
    </radialGradient>
  </defs>
  <metadata
     id="metadata4516">
    <rdf:RDF>
      <cc:Work
         rdf:about="">
        <dc:format>image/svg+xml</dc:format>
        <dc:type
           rdf:resource="http://purl.org/dc/dcmitype/StillImage" />
        <dc:title />
      </cc:Work>
    </rdf:RDF>
  </metadata>
  <rect
     id="rect810-5"
     ry="10.608765"
     style="fill:url(#linearGradient3151);stroke:url(#linearGradient3153);stroke-width:0.99273217"
     transform="scale(1,-1)"
     height="43.120995"
     width="43.120987"
     y="-45.560497"
     x="2.4395065"
     rx="8.7729177" />
  <rect
     x="-170.86"
     y="-23.712"
     width="86"
     height="85"
     ry="6"
     rx="6"
     style="opacity:0.9;fill:url(#linearGradient3254);display:none;filter:url(#filter3174)"
     id="rect3745" />
  <rect
     x="113.29"
     y="-17.643"
     width="86"
     height="85"
     ry="6"
     rx="6"
     style="opacity:0.9;fill:url(#linearGradient8374);display:none;filter:url(#filter3174-7)"
     id="rect3745-1" />
  <rect
     id="rect3745-9"
     style="opacity:0.9;fill:url(#linearGradient4132);display:none;filter:url(#filter3174-41)"
     rx="6"
     ry="6"
     height="85"
     width="86"
     y="-117.36"
     x="-106.44" />
  <rect
     id="rect3745-2"
     style="opacity:0.9;fill:url(#linearGradient4127);display:none;filter:url(#filter3174-57)"
     rx="6"
     ry="6"
     height="85"
     width="86"
     y="-231.16"
     x="-213.05" />
  <path
     id="rect3745-24"
     style="opacity:0.9;fill:url(#linearGradient4122);display:none;filter:url(#filter3174-76)"
     d="m -95.2,-41.076 c -3.324,0 -6,2.676 -6,6 v 73 c 0,3.324 2.676,6 6,6 h 74 c 3.324,0 6,-2.676 6,-6 v -73 c 0,-3.324 -2.676,-6 -6,-6 h -5 v 2.5 c 1.4703,0.7406 2.5,2.2424 2.5,4 0,2.484 -2.016,4.5 -4.5,4.5 -2.484,0 -4.5,-2.016 -4.5,-4.5 0,-1.7576 1.0297,-3.2594 2.5,-4 v -2.5 h -8 v 2.5 c 1.4703,0.7406 2.5,2.2424 2.5,4 0,2.484 -2.016,4.5 -4.5,4.5 -2.484,0 -4.5,-2.016 -4.5,-4.5 0,-1.7576 1.0297,-3.2594 2.5,-4 v -2.5 h -8 v 2.5 c 1.4703,0.7406 2.5,2.2424 2.5,4 0,2.484 -2.016,4.5 -4.5,4.5 -2.484,0 -4.5,-2.016 -4.5,-4.5 0,-1.7576 1.0297,-3.2594 2.5,-4 v -2.5 h -8 v 2.5 c 1.4703,0.7406 2.5,2.2424 2.5,4 0,2.484 -2.016,4.5 -4.5,4.5 -2.484,0 -4.5,-2.016 -4.5,-4.5 0,-1.7576 1.0297,-3.2594 2.5,-4 v -2.5 h -8 v 2.5 c 1.4703,0.7406 2.5,2.2424 2.5,4 0,2.484 -2.016,4.5 -4.5,4.5 -2.484,0 -4.5,-2.016 -4.5,-4.5 0,-1.7576 1.0297,-3.2594 2.5,-4 v -2.5 h -8 v 2.5 c 1.4703,0.7406 2.5,2.2424 2.5,4 0,2.484 -2.016,4.5 -4.5,4.5 -2.484,0 -4.5,-2.016 -4.5,-4.5 0,-1.7576 1.0297,-3.2594 2.5,-4 v -2.5 h -5 z"
     inkscape:connector-curvature="0" />
  <rect
     id="rect3745-5"
     style="opacity:0.9;fill:url(#linearGradient4117);display:none;filter:url(#filter3174-3)"
     rx="6"
     ry="6"
     height="85"
     width="86"
     y="-114.51"
     x="33.834999" />
  <rect
     x="93.060997"
     y="-57.070999"
     width="86"
     height="85"
     ry="6"
     rx="6"
     style="opacity:0.9;fill:url(#linearGradient10968);display:none;filter:url(#filter3174-65)"
     id="rect3745-19" />
  <rect
     x="-20.979"
     y="64.897003"
     width="86"
     height="85"
     ry="6"
     rx="6"
     style="opacity:0.9;fill:url(#linearGradient4603);display:none;filter:url(#filter3174-34)"
     id="rect3745-51" />
  <rect
     id="rect3745-7"
     style="opacity:0.9;fill:url(#linearGradient4112);display:none;filter:url(#filter3174-2)"
     rx="6"
     ry="6"
     height="85"
     width="86"
     y="55.458"
     x="-8.8590002" />
  <path
     inkscape:connector-curvature="0"
     style="opacity:0.9;fill:url(#linearGradient14684);display:none;filter:url(#filter3689)"
     d="m 9.5558,63.587 c -3.324,0 -6,2.676 -6,6 v 5 16 c 0,15.18 5,20.149 5,40 v 12 c 0,3.3137 2.6863,6 6,6 h 64 c 3.3137,0 6,-2.6863 6,-6 v -12 c 0,-19.851 5,-24.82 5,-40 v -16 -5 c 0,-3.324 -2.676,-6 -6,-6 h -74 z"
     id="rect3745-8" />
  <path
     id="rect3238"
     style="opacity:0.4;fill:url(#linearGradient3103)"
     d="M 24.196572,1.9664493 C 18.471697,2.0425533 12.285502,1.7305864 10.456101,2.0537265 2.4239532,5.3146352 1.6516241,12.256257 1.8919968,16.23657 2.1720921,23.130732 2.0332499,29.323272 1.9171818,36.493687 L 46.093273,10.653651 C 44.921213,5.9414038 40.325245,2.7394346 36.43875,1.976909 31.742386,1.76478 27.357586,1.7208268 24.196572,1.9664493 z"
     inkscape:connector-curvature="0"
     sodipodi:nodetypes="ccccccc" />
  <g
     id="g4210"
     transform="translate(0.15026426,0.15646792)">
    <rect
       x="1.6147108"
       y="26.281132"
       width="44.470467"
       height="1.5714"
       ry="0"
       style="fill:#dddcd3;fill-opacity:1"
       id="rect16020" />
    <rect
       x="1.6147108"
       y="26.937132"
       width="44.470467"
       height="1.5714"
       ry="0"
       style="fill:#171717"
       id="rect16020-3" />
    <g
       id="g4186">
      <path
         id="path3879"
         style="opacity:0.9;fill:url(#linearGradient4238)"
         d="m 24.34413,3.5720324 c -2.9388,0 -5.331,2.3922 -5.331,5.331 v 8.5030996 c 0,2.9388 2.3922,5.331 5.331,5.331 2.9388,0 5.331,-2.3922 5.331,-5.331 V 8.9030324 c 0,-2.9388 -2.3922,-5.331 -5.331,-5.331 z"
         inkscape:connector-curvature="0" />
      <path
         id="path4051"
         style="text-indent:0;text-transform:none;block-progression:tb;opacity:1;color:#000000;fill:url(#linearGradient4282);fill-opacity:1"
         d="m 23.07213,1.4628324 v 24.9449996 0.01658 c 4.2e-5,0.0059 0,0.01977 0,0.01658 0,0.60415 0.50856,1.1127 1.1127,1.1127 0.60415,0 1.1127,-0.50855 1.1127,-1.1127 0,0.0032 -4.2e-5,-0.01068 0,-0.01658 4.2e-5,-0.0059 4.59e-4,-0.0021 0,-0.01658 V 1.4628324 h -2.2254 z"
         inkscape:connector-curvature="0" />
      <path
         id="path3711"
         style="text-indent:0;text-transform:none;block-progression:tb;opacity:0.9;color:#000000"
         d="M 23.65313,1.8779914 V 27.132513 c -1.82e-4,0.0056 0,0.01067 0,0.01632 0,0.288861 0.23793,0.523022 0.53144,0.523022 0.29351,0 0.53144,-0.234161 0.53144,-0.523022 0,-0.0056 1.82e-4,-0.01073 0,-0.01632 V 1.8779914 z"
         inkscape:connector-curvature="0" />
      <rect
         id="rect3713"
         style="opacity:0.9"
         rx="4.2515001"
         ry="4.2515001"
         height="17.006001"
         width="8.5031004"
         y="4.6515322"
         x="20.09313" />
      <path
         id="path3719"
         style="opacity:0.98999999;fill:url(#linearGradient4240)"
         d="m 24.34413,5.6313324 c -1.8278,0 -3.2717,1.4439 -3.2717,3.2717 v 8.5030996 c 0,1.8278 1.4439,3.2717 3.2717,3.2717 1.8278,0 3.2717,-1.4439 3.2717,-3.2717 V 8.9030324 c 0,-1.8278 -1.4439,-3.2717 -3.2717,-3.2717 z"
         inkscape:connector-curvature="0" />
      <path
         id="path3733"
         style="opacity:0.5;fill:url(#linearGradient4242)"
         d="m 24.34413,5.6313324 c -1.8278,0 -3.2717,1.4439 -3.2717,3.2717 v 8.5030996 c 0,1.8278 1.4439,3.2717 3.2717,3.2717 1.8278,0 3.2717,-1.4439 3.2717,-3.2717 V 8.9030324 c 0,-1.8278 -1.4439,-3.2717 -3.2717,-3.2717 z"
         inkscape:connector-curvature="0" />
      <rect
         id="rect3789"
         style="opacity:0.4;fill:url(#radialGradient4244)"
         height="0.53144002"
         width="5.3144002"
         y="18.469131"
         x="21.68713" />
      <rect
         id="rect3805"
         style="opacity:0.4;fill:url(#radialGradient4246)"
         height="0.53144002"
         width="5.3144002"
         y="16.875132"
         x="21.68713" />
      <rect
         id="rect3809"
         style="opacity:0.4;fill:url(#radialGradient4248)"
         height="0.53144002"
         width="5.3144002"
         y="15.280132"
         x="21.68713" />
      <rect
         id="rect3813"
         style="opacity:0.4;fill:url(#radialGradient4250)"
         height="0.53144002"
         width="5.3144002"
         y="13.686132"
         x="21.68713" />
      <rect
         id="rect3817"
         style="opacity:0.4;fill:url(#radialGradient4252)"
         height="0.53144002"
         width="5.3144002"
         y="12.092133"
         x="21.68713" />
      <rect
         id="rect3821"
         style="opacity:0.4;fill:url(#radialGradient4254)"
         height="0.53144002"
         width="5.3144002"
         y="10.497132"
         x="21.68713" />
      <rect
         id="rect3825"
         style="opacity:0.4;fill:url(#radialGradient4256)"
         height="0.53144002"
         width="5.3144002"
         y="8.9030323"
         x="21.68713" />
      <rect
         id="rect3829"
         style="opacity:0.4;fill:url(#radialGradient4258)"
         height="0.53144002"
         width="5.3144002"
         y="7.3087325"
         x="21.68713" />
      <rect
         id="rect3833"
         style="opacity:0.6;fill:url(#radialGradient4260)"
         height="0.53144002"
         width="5.3144002"
         y="17.937132"
         x="21.68713" />
      <rect
         id="rect3845"
         style="opacity:0.6;fill:url(#radialGradient4262)"
         height="0.53144002"
         width="5.3144002"
         y="16.343132"
         x="21.68713" />
      <rect
         id="rect3849"
         style="opacity:0.6;fill:url(#radialGradient4264)"
         height="0.53144002"
         width="5.3144002"
         y="14.749132"
         x="21.68713" />
      <rect
         id="rect3853"
         style="opacity:0.4;fill:url(#radialGradient4266)"
         height="0.53144002"
         width="5.3144002"
         y="13.154133"
         x="21.68713" />
      <rect
         id="rect3857"
         style="opacity:0.6;fill:url(#radialGradient4268)"
         height="0.53144002"
         width="5.3144002"
         y="11.560132"
         x="21.68713" />
      <rect
         id="rect3861"
         style="opacity:0.6;fill:url(#radialGradient4270)"
         height="0.53144002"
         width="5.3144002"
         y="9.9659328"
         x="21.68713" />
      <rect
         id="rect3865"
         style="opacity:0.6;fill:url(#radialGradient4272)"
         height="0.53144002"
         width="5.3144002"
         y="8.3716326"
         x="21.68713" />
      <rect
         id="rect3869"
         style="opacity:0.6;fill:url(#radialGradient4274)"
         height="0.53144002"
         width="5.3144002"
         y="6.7773323"
         x="21.68713" />
    </g>
    <rect
       x="1.5774808"
       y="27.652132"
       width="44.54451"
       height="1.5714"
       ry="0"
       style="fill:#bdb9aa;fill-opacity:0.60262008"
       id="rect16020-3-5" />
  </g>
  <g
     id="g4159"
     transform="translate(0.06849039,0.30692863)">
    <rect
       x="1.753504"
       y="-45.896202"
       width="44.355778"
       height="44.406261"
       ry="11.259036"
       transform="scale(1,-1)"
       style="opacity:0.15891;fill:none;stroke:#000000;stroke-width:1.88129544"
       id="rect892-2-7-8" />
    <rect
       x="1.7536207"
       y="-45.896202"
       width="44.355778"
       height="44.406261"
       ry="11.259036"
       transform="scale(1,-1)"
       style="opacity:0.15891;fill:none;stroke:#000000;stroke-width:3.01007271"
       id="rect892-2-7-1" />
    <rect
       x="1.832163"
       y="-46.221813"
       width="44.319706"
       height="44.733131"
       transform="scale(1,-1)"
       style="fill:none;stroke:#000000;stroke-width:0.4901655;stroke-miterlimit:4;stroke-dasharray:none"
       ry="11.139426"
       id="rect892-2-7-2-9" />
  </g>
  <path
     id="path3576"
     style="opacity:0.42201835;fill:#171717;fill-opacity:1"
     d="m 23.742314,35.752224 c -0.142758,0 -0.257686,0.114928 -0.257686,0.257686 v 0.579794 c -0.259078,0.05896 -0.498582,0.160177 -0.716687,0.297946 l -0.41069,-0.410689 c -0.10091,-0.10091 -0.261427,-0.10091 -0.362368,0 l -0.362369,0.362379 c -0.10091,0.10091 -0.10091,0.261417 0,0.362368 l 0.41068,0.41069 c -0.137759,0.218095 -0.238948,0.457609 -0.297947,0.716687 h -0.579794 c -0.142758,0 -0.257686,0.114927 -0.257686,0.257686 v 0.515372 c 0,0.142758 0.114928,0.257686 0.257686,0.257686 h 0.579794 c 0.05896,0.259077 0.160188,0.498591 0.297947,0.716687 l -0.41068,0.410689 c -0.10091,0.10091 -0.10091,0.261428 0,0.362369 l 0.362369,0.362368 c 0.10091,0.10091 0.261428,0.10091 0.362368,0 l 0.41069,-0.410679 c 0.218105,0.137759 0.457609,0.238947 0.716687,0.297947 v 0.579794 c 0,0.142758 0.114928,0.257686 0.257686,0.257686 h 0.515372 c 0.142758,0 0.257686,-0.114928 0.257686,-0.257686 V 41.09921 c 0.259078,-0.05896 0.498592,-0.160178 0.716687,-0.297947 l 0.41069,0.410679 c 0.10091,0.10091 0.261427,0.10091 0.362368,0 l 0.362379,-0.362368 c 0.10091,-0.10091 0.10091,-0.261417 0,-0.362369 l -0.41069,-0.410689 c 0.137769,-0.218096 0.238947,-0.45761 0.297947,-0.716687 h 0.579794 c 0.142758,0 0.257686,-0.114928 0.257686,-0.257686 v -0.515372 c 0,-0.142759 -0.114928,-0.257686 -0.257686,-0.257686 h -0.579794 c -0.05896,-0.259078 -0.160178,-0.498592 -0.297947,-0.716687 l 0.41069,-0.41069 c 0.10091,-0.10091 0.10091,-0.261428 0,-0.362368 l -0.362379,-0.362379 c -0.10091,-0.10091 -0.261417,-0.10091 -0.362368,0 l -0.41069,0.410689 c -0.217487,-0.137088 -0.457651,-0.238102 -0.716367,-0.296854 v -0.579793 c 0,-0.142758 -0.114929,-0.257686 -0.257686,-0.257686 H 23.742634 z M 24,37.813712 c 0.568971,0 1.030744,0.461774 1.030744,1.030745 0,0.568971 -0.461773,1.030744 -1.030744,1.030744 -0.568971,0 -1.030744,-0.461773 -1.030744,-1.030744 0,-0.568971 0.461773,-1.030745 1.030744,-1.030745 z"
     inkscape:connector-curvature="0" />
  <path
     id="path3576-2"
     style="opacity:0.42201835;fill:#ffffff"
     d="m 23.742314,36.782968 c -0.142758,0 -0.257686,0.114928 -0.257686,0.257686 v 0.579794 c -0.259078,0.05896 -0.498582,0.160178 -0.716687,0.297947 l -0.41069,-0.41069 c -0.10091,-0.10091 -0.261427,-0.10091 -0.362368,0 l -0.362369,0.362379 c -0.10091,0.10091 -0.10091,0.261417 0,0.362368 l 0.41068,0.41069 c -0.137759,0.218095 -0.238948,0.457609 -0.297947,0.716687 h -0.579794 c -0.142758,0 -0.257686,0.114928 -0.257686,0.257686 v 0.515372 c 0,0.142758 0.114928,0.257686 0.257686,0.257686 h 0.579794 c 0.05896,0.259078 0.160188,0.498592 0.297947,0.716687 l -0.41068,0.41069 c -0.10091,0.10091 -0.10091,0.261427 0,0.362368 l 0.362369,0.362369 c 0.10091,0.10091 0.261428,0.10091 0.362368,0 l 0.41069,-0.41068 c 0.218105,0.137759 0.457609,0.238948 0.716687,0.297947 v 0.579794 c 0,0.142758 0.114928,0.257687 0.257686,0.257687 h 0.515372 c 0.142758,0 0.257686,-0.114929 0.257686,-0.257687 v -0.579794 c 0.259078,-0.05896 0.498592,-0.160178 0.716687,-0.297947 l 0.41069,0.41068 c 0.10091,0.10091 0.261427,0.10091 0.362368,0 l 0.362379,-0.362369 c 0.10091,-0.100909 0.10091,-0.261417 0,-0.362368 l -0.41069,-0.41069 c 0.137769,-0.218095 0.238947,-0.457609 0.297947,-0.716687 h 0.579794 c 0.142758,0 0.257686,-0.114928 0.257686,-0.257686 v -0.515372 c 0,-0.142758 -0.114928,-0.257686 -0.257686,-0.257686 h -0.579794 c -0.05896,-0.259078 -0.160178,-0.498592 -0.297947,-0.716687 l 0.41069,-0.41069 c 0.10091,-0.10091 0.10091,-0.261427 0,-0.362368 l -0.362379,-0.362379 c -0.10091,-0.10091 -0.261417,-0.10091 -0.362368,0 l -0.41069,0.41069 c -0.217487,-0.137089 -0.457651,-0.238102 -0.716367,-0.296854 v -0.579794 c 0,-0.142758 -0.114929,-0.257686 -0.257686,-0.257686 H 23.742634 z M 24,38.844457 c 0.568971,0 1.030744,0.461773 1.030744,1.030744 0,0.568971 -0.461773,1.030744 -1.030744,1.030744 -0.568971,0 -1.030744,-0.461773 -1.030744,-1.030744 0,-0.568971 0.461773,-1.030744 1.030744,-1.030744 z"
     inkscape:connector-curvature="0" />
</svg>
