<?xml version="1.0" encoding="UTF-8" standalone="no"?>
<!-- Created with Inkscape (http://www.inkscape.org/) -->
<svg id="svg3449" xmlns:rdf="http://www.w3.org/1999/02/22-rdf-syntax-ns#" xmlns="http://www.w3.org/2000/svg" height="128" width="128" version="1.0" xmlns:cc="http://creativecommons.org/ns#" xmlns:xlink="http://www.w3.org/1999/xlink" xmlns:dc="http://purl.org/dc/elements/1.1/">
 <metadata id="metadata56">
  <rdf:RDF>
   <cc:Work rdf:about="">
    <dc:format>image/svg+xml</dc:format>
    <dc:type rdf:resource="http://purl.org/dc/dcmitype/StillImage"/>
    <dc:title/>
   </cc:Work>
  </rdf:RDF>
 </metadata>
 <defs id="defs3451">
  <linearGradient id="linearGradient3514" y2="-9.1034" gradientUnits="userSpaceOnUse" x2="66.492" gradientTransform="matrix(.96826 0 0 .97948 2.179 .16587)" y1="-42.638" x1="67.952">
   <stop id="stop4620" style="stop-color:#37414b" offset="0"/>
   <stop id="stop4622" style="stop-color:#37414b;stop-opacity:0" offset="1"/>
  </linearGradient>
  <linearGradient id="linearGradient3516" y2="-11.847" gradientUnits="userSpaceOnUse" x2="58.98" gradientTransform="matrix(.96826 0 0 .97948 2.179 .16587)" y1="-118.55" x1="57.173">
   <stop id="stop4596" offset="0"/>
   <stop id="stop4598" style="stop-opacity:0" offset="1"/>
  </linearGradient>
  <linearGradient id="linearGradient3519" y2="50.369" gradientUnits="userSpaceOnUse" x2="76.558" gradientTransform="matrix(.96826 0 0 .97948 3.2423 -129.19)" y1="13.164" x1="76.558">
   <stop id="stop3392" style="stop-color:#425e7b" offset="0"/>
   <stop id="stop3394" style="stop-color:#7a91a7" offset="1"/>
  </linearGradient>
  <linearGradient id="linearGradient3521" y2="-8.7399" gradientUnits="userSpaceOnUse" x2="60.217" gradientTransform="matrix(.96826 0 0 .97948 2.179 .16587)" y1="-123.72" x1="60.395">
   <stop id="stop3392-4-8" style="stop-color:#425e7b" offset="0"/>
   <stop id="stop3394-8-0" style="stop-color:#7a91a7" offset="1"/>
  </linearGradient>
  <radialGradient id="radialGradient3349" gradientUnits="userSpaceOnUse" cy="45.647" cx="42.148" gradientTransform="matrix(.94690 0 0 1.139 3.5954 -29.89)" r="58.984">
   <stop id="stop2699-5" style="stop-color:#9cbbd9" offset="0"/>
   <stop id="stop2701-7" style="stop-color:#5c82ab" offset="1"/>
  </radialGradient>
 </defs>
 <rect id="rect892" style="stroke:url(#linearGradient3521);stroke-width:.97385;fill:url(#linearGradient3519)" transform="scale(1,-1)" ry="29.296" height="115.54" width="114.22" y="-122.25" x="7.0394"/>
 <rect id="rect892-2" style="stroke:url(#linearGradient3516);stroke-width:.97385;fill:url(#linearGradient3514)" transform="scale(1,-1)" ry="28.993" height="114.35" width="114.22" y="-121.46" x="7.0599"/>
 <path id="rect895" style="fill:url(#radialGradient3349)" d="m33.051 7.2596c-7.969-2.4493-27.013 15.174-25.653 23.038-0.050142 0.97378-0.088772 1.9648-0.088772 2.9572v52.419c0 20.876 10.712 33.859 22.318 33.859h67.038c12.638 0 24.318-11.245 24.318-25.859v-64.017c0.7-10.928-21.283-24.659-25.926-22.618-47.846 0.8653-18.017 0.2236-62.003 0.2236z"/>
 <rect id="rect892-2-7-8" style="opacity:.15891;stroke:#000;stroke-width:4.8445;fill:none" transform="scale(1,-1)" ry="28.993" height="114.35" width="114.22" y="-121.16" x="6.8687"/>
 <rect id="rect892-2-7-1" style="opacity:.15891;stroke:#000;stroke-width:7.7512;fill:none" transform="scale(1,-1)" ry="28.993" height="114.35" width="114.22" y="-121.16" x="6.8687"/>
 <rect id="rect892-2-7-2-9" ry="28.067" style="stroke:#000;stroke-width:1.0489;fill:none" transform="scale(1,-1)" height="112.71" width="114.14" y="-120.31" x="7.0649"/>
 <path id="path1187" style="fill:#fff;fill-opacity:.057143" d="m33.017 7.2319c-23.707 0-26.027 0.6738-25.93 26.295-0.04334 0.71563-0.07674 1.4439-0.07674 2.1732v32.76c18.67-38.321 38.34-51.497 90.374-61.179-0.225-0.026-0.46-0.0303-0.691-0.0303-41.576 0.3874-25.652-0.0188-63.676-0.0188z"/>
 <path id="path4005" style="fill:#fff" d="m24 110.48c0-2.7462 0.33622-3.0769 3.1278-3.0769 4.5628 0 8.6742-2.504 10.529-6.4127 1.3582-2.8621 1.7453-10.214 2.3514-44.66l0.72559-41.234h3.4279 3.4279v40.058c0 26.535-0.39386 41.623-1.1667 44.692-2.105 8.364-9.524 13.694-19.089 13.704-3.021 0.01-3.333-0.28-3.333-3.07zm43.137-29.916-12.493-14.698l5.7034-0.30759 5.7034-0.30759v-12.256-12.256h13.333 13.333v12.308 12.308h5.641c3.1026 0 5.641 0.24964 5.641 0.55476 0 0.4527-5.6515 7.2642-23.648 28.502-0.39702 0.46853-6.3435-5.7622-13.214-13.846z"/>
 <path id="path4003" d="m-280.23 316.66c-6.1771-2.8764-14.557-11.177-17.573-17.406-6.8052-14.058-1.2798-25.985 14.993-32.363 8.0887-3.1706 23.706-3.311 27.82-0.25019 1.5539 1.1562 3.2612 3.3266 3.794 4.8231 1.67 4.6907-1.7166 9.1431-13.785 18.122-13.801 10.268-14.657 11.536-10.446 15.459 3.5 3.2607 7.8558 2.3542 9.9293-2.0664 2.4487-5.2205 3.9639-6.0909 10.002-5.7454 5.0368 0.28823 5.3492 0.46286 5.658 3.1626 0.47803 4.18-1.49 8.0774-6.333 12.541-7.004 6.4561-15.399 7.7552-24.059 3.723zm-23.808-49.872c-2.2667-3.5943-2.8201-6.521-1.6474-8.7122 1.2595-2.3534 4.2483-2.6728 5.9398-0.63469 1.7123 2.0632 2.9949 7.2081 2.3815 9.5535-0.73563 2.813-4.85 2.6857-6.6739-0.20657zm11.403-8.9318c-2.5644-4.2062-2.6127-8.9813-0.11369-11.243 2.6853-2.4302 5.6884-0.62488 7.1663 4.3079 0.91795 3.0639 0.87252 4.437-0.22236 6.7215-1.9652 4.1001-4.414 4.1767-6.8303 0.21356zm32.495 0.20956c-1.3913-1.5374-1.6768-3.0974-1.2946-7.0745 0.78629-8.183 6.1905-13.796 14.147-14.692 5.7278-0.64561 7.6223 0.75595 7.6223 5.639 0 3.9021-1.451 6.6075-6.4011 11.935-5.6949 6.1294-10.914 7.6841-14.074 4.1924zm-16.872-2.5174c-5.0712-5.0712-1.9296-16.51 4.5342-16.51 4.8756 0 5.1056 11.564 0.325 16.345-2.0412 2.0412-2.9524 2.0722-4.8592 0.16547z"/>
 <path id="path4001" d="m-71.542 161.97c-0.28784-1.2375-0.86673-3.9907-1.2864-6.1182-0.64053-3.2469-1.3622-4.1071-4.4931-5.3559-3.6247-1.4457-3.8666-1.4001-8.5702 1.6182-2.6621 1.7083-5.2848 3.1059-5.8283 3.1059-0.54348 0-2.0713-1.1529-3.3951-2.5621-2.2856-2.4329-2.3268-2.6976-0.81779-5.25 5.3609-9.0675 5.1715-8.4033 3.5076-12.299-1.4194-3.3233-2.0241-3.7059-7.5869-4.8003l-6.0446-1.1892v-4.2021-4.2022l6.2249-1.4975c5.8023-1.3959 6.322-1.7557 7.6556-5.2999 1.3892-3.6918 1.339-3.9324-1.7249-8.2792-3.7888-5.3753-3.871-6.3977-0.74996-9.3298 2.6641-2.5028 3.9137-2.1864 10.213 2.5861 1.8354 1.3904 3.7903 2.1054 4.75 1.7371 1.262-0.48426 1.6309-0.01 1.6309 2.0988 0 1.8464-1.2922 4.0168-4.0088 6.7335-10.522 10.522-7.9773 28.16 5.0088 34.718 9.1026 4.5967 17.722 3.2402 25.198-3.9657l4.8554-4.68 3.2406 3.5918c1.7824 1.9755 4.2986 5.3061 5.5918 7.4013l2.3512 3.8096-2.2927 2.4404c-2.9301 3.119-3.5508 3.0757-9.4371-0.65729-4.5813-2.9054-5.118-3.0207-8.6436-1.8572-3.4095 1.1252-3.8567 1.6966-4.8112 6.147-0.57872 2.6985-1.0522 5.5592-1.0522 6.3572 0 1.0519-1.2321 1.4508-4.481 1.4508-3.8252 0-4.5575-0.32928-5.0043-2.25zm21.985-35.025-9-10.225-0.28753 9.25-0.28752 9.25h-7.4625-7.4625v-26.544-26.544l7.25 0.29381 7.25 0.29381 0.5 10.283 0.5 10.283 8.8131-10.016 8.8131-10.016 5.864 2.9602c3.2252 1.6281 6.1005 3.3427 6.3895 3.8103 0.28898 0.46758-3.089 4.9827-7.5067 10.034-4.4177 5.0509-7.8838 9.613-7.7026 10.138 0.18127 0.52493 4.1075 5.2904 8.7249 10.59 6.582 7.5542 8.094 9.8383 7 10.574-2.5115 1.6901-10.81 5.8593-11.612 5.8336-0.43078-0.0138-4.8332-4.6263-9.7832-10.25z"/>
 <path id="path3999" d="m-280.54 433.58c-23.192-3.8951-40.238-27.989-36.107-51.035 3.9693-22.142 22.244-37.211 44.911-37.032 22.495 0.17761 40.178 16.419 43.502 39.957 0.77453 5.4836-0.87101 15.763-3.5084 21.916-7.9307 18.503-28.583 29.589-48.798 26.194zm13.879-2.9179c22.713-3.5643 38.814-25.283 35.002-47.215-3.9514-22.734-25.446-38.542-47.252-34.752-22.737 3.952-38.346 25.152-34.788 47.248 2.7259 16.927 16.599 31.414 33.214 34.683 6.0071 1.1821 6.5048 1.1834 13.824 0.0349zm-11.73-8.0082c-10.795-2.158-21.079-10.115-24.817-19.203-1.3051-3.1726-2.5483-4.7475-3.7496-4.75-1.4942-0.003-1.2552-0.67808 1.4174-4.0038 1.768-2.2 3.5313-4 3.9185-4 1.3053 0 9.4738 7.9176 8.2112 7.959-2.1841 0.0717-1.3583 2.5545 2.2527 6.7731 4.8856 5.7077 10.613 8.2679 18.497 8.2679 9.6252 0 16.065-3.7725 22.051-12.917 1.4473-2.211 1.7985-2.2879 5.25-1.1488 2.0344 0.67142 3.6989 1.7728 3.6989 2.4474 0 2.2612-5.6744 10.204-9.6071 13.448-6.9688 5.7479-18.657 8.8192-27.123 7.1269zm29.73-37.917c-2.475-2.1751-3.9375-3.9738-3.25-3.9973 4.0934-0.13963-3.4921-9.7712-10.285-13.06-11.644-5.6366-24.498-1.314-32.516 10.934-1.4473 2.211-1.7985 2.2879-5.25 1.1488-2.0344-0.67141-3.6989-1.7728-3.6989-2.4474 0-2.0882 5.4931-10.014 8.9654-12.936 6.2644-5.2712 10.94-7.0116 20.035-7.4576 7.0587-0.34613 9.5122-0.0353 14.469 1.8329 7.4446 2.8058 15.399 10.411 17.993 17.203 1.3028 3.4112 2.3559 4.7393 3.7581 4.7393 1.7276 0 1.5894 0.45292-1.2199 4-1.7424 2.2-3.4678 3.9988-3.834 3.9973-0.36628-0.001-2.691-1.7823-5.166-3.9574z"/>
 <path id="path3995" d="m-127.23 413.99c-0.0273-9.6237-0.0791-9.8347-3.1372-12.785-1.7102-1.65-4.2761-5.475-5.7021-8.5-7.0361-14.926 0.32315-33.023 16.867-41.477 14.664-7.4938 33.336-7.4938 48 0 16.492 8.4279 23.803 26.411 16.861 41.477-4.6489 10.09-16.468 19.059-28.889 21.921-5.4427 1.2542-18.115 1.3469-23.183 0.16964-3.3137-0.76975-4.438-0.43631-10.5 3.114-3.7339 2.1868-7.5764 4.4013-8.5389 4.9211-1.611 0.87001-1.7522 0.16805-1.7778-8.8401zm28.028-18.762c0-3.6216-0.45832-4.7772-2.3989-6.0488-5.0751-3.3253-6.7842-14.999-3.1051-21.208 2.3632-3.9885 7.5714-6.6299 11.41-5.7867 3.8614 0.84811 8.0712 5.5174 9.159 10.159 1.4165 6.0441-0.55188 13.922-4.1417 16.576-2.4452 1.8078-2.9236 2.867-2.9236 6.4734v4.3119h8 8l-0.0318-5.25c-0.0266-4.3822-0.23619-4.9815-1.2683-3.6257-1.3147 1.727-11.7 3.6771-11.7 2.1969 0-0.47654 1.5856-1.7204 3.5236-2.764 9.1833-4.9456 10.852-17.944 3.2457-25.281-4.108-3.9625-7.5625-5.2762-13.874-5.2762-11.824 0-20.367 9.7044-17.934 20.372 0.90769 3.9792 6.0114 10.167 9.2278 11.188 0.99606 0.31614 1.811 1.0524 1.811 1.6362 0 1.7076-10.158-0.0403-11.651-2.0049-1.0998-1.4469-1.2901-0.93267-1.3173 3.5587l-0.0318 5.25h8 8z"/>
 <path id="path3991" d="m22.622 407.56c-0.83077-0.83077-1.2-6-1.2-16.8 0-16.466 0.39433-18 4.6286-18 4.7362 0 5.3714 2.0516 5.3714 17.349 0 11.239-0.32512 14.67-1.5567 16.429-1.6936 2.4179-5.334 2.9318-7.2433 1.0225zm-31.606-24.12c-8.072-9.8508-11.847-23.75-9.7576-35.932 2.1955-12.803 10.372-25.748 16.263-25.748 4.053 0 5.9506 3.8931 3.5171 7.2156-8.7036 11.883-11.189 18.746-10.288 28.402 0.71573 7.6646 2.5657 12.237 7.7059 19.045 4.3494 5.7607 4.753 7.4074 2.394 9.7665-2.799 2.799-6.0282 1.8966-9.8345-2.7484zm58.81 1.81c-1.5224-2.3235-1.522-2.6681 0.005-4.75 7.9565-10.845 10.59-17.408 10.59-26.391 0-8.3234-3.0578-15.716-10.164-24.575-1.8068-2.2522-1.9953-3.133-1.094-5.1112 3.8094-8.3607 15.561 2.8799 19.725 18.867 3.6561 14.037 0.18161 29.506-9.0498 40.291-4.2053 4.9129-7.5248 5.4663-10.013 1.6692zm-44.432-13.69c-7.839-8.5826-7.839-25.035 0-33.617 3.1964-3.4996 6.033-4.043 8.4561-1.6199 2.2297 2.2297 1.9608 4.2294-1.1106 8.256-1.9017 2.4933-2.8114 5.077-3.1268 8.8808-0.38917 4.6928-0.0534 5.9943 2.682 10.395 3.5451 5.7029 3.7786 7.1026 1.5554 9.3257-2.4231 2.4231-5.2598 1.8797-8.4561-1.6199zm31.599 1.6199c-2.2561-2.256-1.9756-3.7967 1.6196-8.8972 4.3757-6.2078 4.3514-12.453-0.0752-19.351-3.6312-5.6588-3.7302-6.3145-1.2871-8.5255 2.843-2.5728 5.8028-2.0047 8.5894 1.6488 3.9246 5.1454 5.5818 10.102 5.5818 16.696 0 12.967-8.7345 24.123-14.429 18.429zm-14.214-7.3986c-5.5373-2.2902-7.1399-10.338-2.9024-14.575 5.3172-5.3172 14.625-1.6463 14.837 5.8518 0.17429 6.1489-6.451 10.992-11.935 8.7236z"/>
 <path id="path3989" d="m108.55 337.95c-3.5595-1.0805-9.0899-6.8579-9.7826-10.22-0.25292-1.2274-0.73922-4.384-1.0807-7.0145-0.47387-3.6509-1.4413-5.6034-4.0879-8.25-1.9069-1.9069-4.4646-3.5144-5.6838-3.5721-1.2192-0.0578-4.9167-0.19876-8.2167-0.31335-7.1413-0.24799-11.857-2.479-14.541-6.8802-4.3111-7.0674-3.4292-13.915 2.537-19.697 3.2466-3.1468 4.0033-3.391 12.378-3.995 13.045-0.94097 16.221-3.5612 18.034-14.879 1.5285-9.5429 5.1465-13.768 12.929-15.099 5.7594-0.98497 10.724 0.73981 14.656 5.0918 3.2071 3.5499 3.5084 4.4096 3.5084 10.012 0 5.903-0.1609 6.2896-4.3684 10.497-4.3684 4.3684-4.3685 4.3684-11.75 4.37-12.993 0.003-18.395 4.586-18.362 15.578 0.0182 6.0653 0.22677 6.6334 3.718 10.125 3.5811 3.5811 3.9797 3.7162 12.528 4.2474 6.0857 0.37815 9.6838 1.1093 11.58 2.353 8.9839 5.8934 8.9174 20.592-0.11719 25.908-3.7256 2.1926-9.8515 2.96-13.876 1.7384z"/>
 <path id="path3983" d="m248.75 208.1h-13.991c-10.007 0-14.268-0.35593-14.964-1.25-0.53516-0.6875-2.2295-4.7483-3.7651-9.024-1.5357-4.2757-3.0568-7.5093-3.3804-7.1857-0.32353 0.32353-3.5975 12.097-7.2755 26.164s-7.2866 25.956-8.0191 26.42c-1.6713 1.0595-3.9585 1.0814-5.5771 0.0535-0.7395-0.4696-3.8872-15.965-7.75-38.151-3.5776-20.548-6.6886-37.544-6.9134-37.769-0.58357-0.58357-1.0443 1.1659-5.5542 21.09-2.222 9.8162-4.2909 18.254-4.5976 18.75-0.30671 0.49626-7.7311 0.9023-16.499 0.9023h-15.941c-0.26744-1.9406-0.0437-3.8074 0.19794-5.7282l12.142-0.71021c6.6781-0.39062 12.303-0.87141 12.5-1.0684 0.19701-0.19702 3.4348-13.957 7.1952-30.577 9.4973-54.903 17-19.176 21.562 7.1906 6.316 36.655 6.9434 39.894 7.727 39.894 0.21273 0 3.0034-10.15 6.2014-22.556 6.2021-24.059 7.1042-25.845 11.94-23.642 1.7004 0.77477 3.3763 4.3282 7.2407 15.353l5.0282 14.345 11.198 0.28337 11.198 0.28336"/>
</svg>
