<?xml version="1.0" encoding="UTF-8" standalone="no"?>
<!-- Created with Inkscape (http://www.inkscape.org/) -->
<svg id="svg3449" xmlns:rdf="http://www.w3.org/1999/02/22-rdf-syntax-ns#" xmlns="http://www.w3.org/2000/svg" height="128" width="128" version="1.0" xmlns:cc="http://creativecommons.org/ns#" xmlns:xlink="http://www.w3.org/1999/xlink" xmlns:dc="http://purl.org/dc/elements/1.1/">
 <metadata id="metadata56">
  <rdf:RDF>
   <cc:Work rdf:about="">
    <dc:format>image/svg+xml</dc:format>
    <dc:type rdf:resource="http://purl.org/dc/dcmitype/StillImage"/>
    <dc:title/>
   </cc:Work>
  </rdf:RDF>
 </metadata>
 <defs id="defs3451">
  <linearGradient id="linearGradient3514" y2="-9.1034" gradientUnits="userSpaceOnUse" x2="66.492" gradientTransform="matrix(.96826 0 0 .97948 2.179 .16587)" y1="-42.638" x1="67.952">
   <stop id="stop4620" style="stop-color:#37414b" offset="0"/>
   <stop id="stop4622" style="stop-color:#37414b;stop-opacity:0" offset="1"/>
  </linearGradient>
  <linearGradient id="linearGradient3516" y2="-11.847" gradientUnits="userSpaceOnUse" x2="58.98" gradientTransform="matrix(.96826 0 0 .97948 2.179 .16587)" y1="-118.55" x1="57.173">
   <stop id="stop4596" offset="0"/>
   <stop id="stop4598" style="stop-opacity:0" offset="1"/>
  </linearGradient>
  <linearGradient id="linearGradient3519" y2="50.369" gradientUnits="userSpaceOnUse" x2="76.558" gradientTransform="matrix(.96826 0 0 .97948 3.2423 -129.19)" y1="13.164" x1="76.558">
   <stop id="stop3392" style="stop-color:#425e7b" offset="0"/>
   <stop id="stop3394" style="stop-color:#7a91a7" offset="1"/>
  </linearGradient>
  <linearGradient id="linearGradient3521" y2="-8.7399" gradientUnits="userSpaceOnUse" x2="60.217" gradientTransform="matrix(.96826 0 0 .97948 2.179 .16587)" y1="-123.72" x1="60.395">
   <stop id="stop3392-4-8" style="stop-color:#425e7b" offset="0"/>
   <stop id="stop3394-8-0" style="stop-color:#7a91a7" offset="1"/>
  </linearGradient>
  <radialGradient id="radialGradient3349" gradientUnits="userSpaceOnUse" cy="45.647" cx="42.148" gradientTransform="matrix(.94690 0 0 1.139 3.5954 -29.89)" r="58.984">
   <stop id="stop2699-5" style="stop-color:#9cbbd9" offset="0"/>
   <stop id="stop2701-7" style="stop-color:#5c82ab" offset="1"/>
  </radialGradient>
  <linearGradient id="linearGradient3370" y2="5.2502" gradientUnits="userSpaceOnUse" x2="19.875" gradientTransform="matrix(2.9298 0 0 2.955 -4.547 -2.0288)" y1="44.52" x1="19.875">
   <stop id="stop3776" style="stop-color:#365a7c" offset="0"/>
   <stop id="stop3778" style="stop-color:#5ea1ca" offset="1"/>
  </linearGradient>
  <linearGradient id="linearGradient4012" y2="6.0718" gradientUnits="userSpaceOnUse" y1="45.846" gradientTransform="translate(0,-1)" x2="24" x1="24">
   <stop id="stop3760-7" style="stop-color:#185f9a" offset="0"/>
   <stop id="stop3762-90" style="stop-color:#599ec9" offset="1"/>
  </linearGradient>
 </defs>
 <rect id="rect892" style="stroke:url(#linearGradient3521);stroke-width:.97385;fill:url(#linearGradient3519)" transform="scale(1,-1)" ry="29.296" height="115.54" width="114.22" y="-122.25" x="7.0394"/>
 <rect id="rect892-2" style="stroke:url(#linearGradient3516);stroke-width:.97385;fill:url(#linearGradient3514)" transform="scale(1,-1)" ry="28.993" height="114.35" width="114.22" y="-121.46" x="7.0599"/>
 <path id="rect895" style="fill:url(#radialGradient3349)" d="m33.051 7.2596c-7.969-2.4493-27.013 15.174-25.653 23.038-0.050142 0.97378-0.088772 1.9648-0.088772 2.9572v52.419c0 20.876 10.712 33.859 22.318 33.859h67.038c12.638 0 24.318-11.245 24.318-25.859v-64.017c0.7-10.928-21.283-24.659-25.926-22.618-47.846 0.8653-18.017 0.2236-62.003 0.2236z"/>
 <rect id="rect892-2-7-8" style="opacity:.15891;stroke:#000;stroke-width:4.8445;fill:none" transform="scale(1,-1)" ry="28.993" height="114.35" width="114.22" y="-121.16" x="6.8687"/>
 <rect id="rect892-2-7-1" style="opacity:.15891;stroke:#000;stroke-width:7.7512;fill:none" transform="scale(1,-1)" ry="28.993" height="114.35" width="114.22" y="-121.16" x="6.8687"/>
 <rect id="rect892-2-7-2-9" ry="28.067" style="stroke:#000;stroke-width:1.0489;fill:none" transform="scale(1,-1)" height="112.71" width="114.14" y="-120.31" x="7.0649"/>
 <path id="path1187" style="fill:#fff;fill-opacity:.057143" d="m33.017 7.2319c-23.707 0-26.027 0.6738-25.93 26.295-0.04334 0.71563-0.07674 1.4439-0.07674 2.1732v32.76c18.67-38.321 38.34-51.497 90.374-61.179-0.225-0.026-0.46-0.0303-0.691-0.0303-41.576 0.3874-25.652-0.0188-63.676-0.0188z"/>
 <path id="path4596-6" style="opacity:.05;color:#000000;fill:url(#linearGradient3370)" d="m27.223 18.841a8.6447 8.719 0 0 0 -8.1484 8.6802v72.858a8.6447 8.719 0 0 0 15.29 5.5406l9.7049-11.82 14.649 33.982c0.38213-0.0787 0.78445-0.0925 1.1902-0.0925h40.834a8.6447 8.719 0 0 0 -1.3733 -4.8018l-27.833-42.57h14.283a8.6447 8.719 0 0 0 5.22 -15.608l-58.138-44.417a8.6447 8.719 0 0 0 -5.6764 -1.7545z"/>
 <g id="layer1-8" transform="matrix(2.9298 0 0 2.9298 -7.1521 -9.2448)">
  <path id="path3897-7" d="m24 12c-6.737 0-12.921 2.303-17.844 6.156l2.6565 2.969c4.2075-3.217 9.4815-5.125 15.188-5.125 5.7056 0 10.98 1.9077 15.188 5.125l2.6562-2.9688c-4.923-3.853-11.107-6.156-17.844-6.156zm0 7c-4.936 0-9.4857 1.63-13.156 4.375l2.6875 3c2.952-2.119 6.557-3.375 10.468-3.375 3.9112 0 7.5164 1.2563 10.469 3.375l2.6875-3c-3.67-2.745-8.22-4.375-13.156-4.375zm0 7c-3.1379 0-6.0294 0.9777-8.4375 2.625l2.6875 3c1.674-1.029 3.642-1.625 5.75-1.625 2.1084 0 4.0765 0.59644 5.75 1.625l2.6875-3c-2.409-1.647-5.3-2.625-8.438-2.625zm0 7c-1.3305 0-2.5837 0.33161-3.6875 0.90625l3.688 4.094 3.688-4.094c-1.104-0.574-2.357-0.906-3.688-0.906z" style="color:#000000;fill:url(#linearGradient4012)"/>
  <path id="path3897" d="m24 13c-6.737 0-12.921 2.303-17.844 6.156l2.6565 2.969c4.2075-3.217 9.4815-5.125 15.188-5.125 5.7056 0 10.98 1.9077 15.188 5.125l2.6562-2.9688c-4.923-3.853-11.107-6.156-17.844-6.156zm0 7c-4.936 0-9.4857 1.63-13.156 4.375l2.6875 3c2.952-2.119 6.557-3.375 10.468-3.375 3.9112 0 7.5164 1.2563 10.469 3.375l2.6875-3c-3.67-2.745-8.22-4.375-13.156-4.375zm0 7c-3.1379 0-6.0294 0.9777-8.4375 2.625l2.6875 3c1.674-1.029 3.642-1.625 5.75-1.625 2.1084 0 4.0765 0.59644 5.75 1.625l2.6875-3c-2.409-1.647-5.3-2.625-8.438-2.625zm0 7c-1.3305 0-2.5837 0.33161-3.6875 0.90625l3.688 4.094 3.688-4.094c-1.104-0.574-2.357-0.906-3.688-0.906z" style="color:#000000;fill:#fff"/>
  <path id="path3360" style="opacity:.1;stroke:#000;fill:none" d="m6.5016 19.537s6.5091-6.037 17.38-6.037c10.926 0 17.629 6.0251 17.629 6.0251"/>
  <path id="path3362" style="opacity:.1;stroke:#000;fill:none" d="m11.158 24.708s4.8675-4.2081 12.754-4.2081c7.9262 0 12.916 4.2995 12.916 4.2995"/>
  <path id="path3364" style="opacity:.1;stroke:#000;fill:none" d="m15.932 29.979s2.4421-2.4791 7.9955-2.4791c5.5876 0 8.1944 2.5477 8.1944 2.5477"/>
  <path id="path3366" style="opacity:.1;stroke:#000;fill:none" d="m20.637 35.339s0.91477-0.83883 3.3074-0.83883c2.4074 0 3.3749 0.81628 3.3749 0.81628"/>
 </g>
</svg>
