<?xml version="1.0" encoding="UTF-8" standalone="no"?>
<!-- Created with Inkscape (http://www.inkscape.org/) -->
<svg id="svg3449" xmlns:rdf="http://www.w3.org/1999/02/22-rdf-syntax-ns#" xmlns="http://www.w3.org/2000/svg" height="128" width="128" version="1.0" xmlns:cc="http://creativecommons.org/ns#" xmlns:xlink="http://www.w3.org/1999/xlink" xmlns:dc="http://purl.org/dc/elements/1.1/">
 <metadata id="metadata56">
  <rdf:RDF>
   <cc:Work rdf:about="">
    <dc:format>image/svg+xml</dc:format>
    <dc:type rdf:resource="http://purl.org/dc/dcmitype/StillImage"/>
    <dc:title/>
   </cc:Work>
  </rdf:RDF>
 </metadata>
 <defs id="defs3451">
  <linearGradient id="linearGradient3514" y2="-9.1034" gradientUnits="userSpaceOnUse" x2="66.492" gradientTransform="matrix(.96826 0 0 .97948 2.179 .16587)" y1="-42.638" x1="67.952">
   <stop id="stop4620" style="stop-color:#37414b" offset="0"/>
   <stop id="stop4622" style="stop-color:#37414b;stop-opacity:0" offset="1"/>
  </linearGradient>
  <linearGradient id="linearGradient3516" y2="-11.847" gradientUnits="userSpaceOnUse" x2="58.98" gradientTransform="matrix(.96826 0 0 .97948 2.179 .16587)" y1="-118.55" x1="57.173">
   <stop id="stop4596" offset="0"/>
   <stop id="stop4598" style="stop-opacity:0" offset="1"/>
  </linearGradient>
  <linearGradient id="linearGradient3519" y2="50.369" gradientUnits="userSpaceOnUse" x2="76.558" gradientTransform="matrix(.96826 0 0 .97948 3.2423 -129.19)" y1="13.164" x1="76.558">
   <stop id="stop3392" style="stop-color:#425e7b" offset="0"/>
   <stop id="stop3394" style="stop-color:#7a91a7" offset="1"/>
  </linearGradient>
  <linearGradient id="linearGradient3521" y2="-8.7399" gradientUnits="userSpaceOnUse" x2="60.217" gradientTransform="matrix(.96826 0 0 .97948 2.179 .16587)" y1="-123.72" x1="60.395">
   <stop id="stop3392-4-8" style="stop-color:#425e7b" offset="0"/>
   <stop id="stop3394-8-0" style="stop-color:#7a91a7" offset="1"/>
  </linearGradient>
  <radialGradient id="radialGradient3349" gradientUnits="userSpaceOnUse" cy="45.647" cx="42.148" gradientTransform="matrix(.94690 0 0 1.139 3.5954 -29.89)" r="58.984">
   <stop id="stop8006" style="stop-color:#ef916b" offset="0"/>
   <stop id="stop8008" style="stop-color:#db4916" offset="1"/>
  </radialGradient>
  <filter id="filter3174-1" color-interpolation-filters="sRGB">
   <feGaussianBlur id="feGaussianBlur3176-0" stdDeviation="1.71"/>
  </filter>
  <linearGradient id="ButtonShadow-9" x1="45.448" gradientUnits="userSpaceOnUse" y1="92.54" gradientTransform="scale(1.0059 .99417)" x2="45.448" y2="7.0165">
   <stop id="stop3750-6" offset="0"/>
   <stop id="stop3752-7" style="stop-opacity:.58824" offset="1"/>
  </linearGradient>
  <filter id="filter3174-9" color-interpolation-filters="sRGB">
   <feGaussianBlur id="feGaussianBlur3176-5" stdDeviation="1.71"/>
  </filter>
  <linearGradient id="linearGradient4238-5" y2="25" gradientUnits="userSpaceOnUse" x2="25" y1="57" x1="25">
   <stop id="stop3624-6-9-7-3-1" style="stop-color:#ba4712" offset="0"/>
   <stop id="stop3856-8-7-9-7-0" style="stop-color:#cf671c" offset=".5"/>
   <stop id="stop3626-0-8-7-8-5" style="stop-color:#e27f39" offset="1"/>
  </linearGradient>
  <filter id="filter3174-6" color-interpolation-filters="sRGB">
   <feGaussianBlur id="feGaussianBlur3176-1" stdDeviation="1.71"/>
  </filter>
  <style id="style2464-7" type="text/css"/>
  <style id="style2464" type="text/css"/>
  <linearGradient id="linearGradient5303-5" y2="518.45" gradientUnits="userSpaceOnUse" x2="414.62" gradientTransform="matrix(2.625 0 0 2.625 -1151.4 -1311.7)" y1="528.97" x1="414.62">
   <stop id="stop4239-1" style="stop-color:#fcc6bc" offset="0"/>
   <stop id="stop4241-9" style="stop-color:#fef9f6" offset="1"/>
  </linearGradient>
 </defs>
 <rect id="rect892" style="stroke:url(#linearGradient3521);stroke-width:.97385;fill:url(#linearGradient3519)" transform="scale(1,-1)" ry="29.296" height="115.54" width="114.22" y="-122.25" x="7.0394"/>
 <rect id="rect892-2" style="stroke:url(#linearGradient3516);stroke-width:.97385;fill:url(#linearGradient3514)" transform="scale(1,-1)" ry="28.993" height="114.35" width="114.22" y="-121.46" x="7.0599"/>
 <path id="rect895" style="fill:url(#radialGradient3349)" d="m30.571 7.0104c-13.128 0.936-22.55 15.04-23.173 23.288-0.050142 0.97378-0.088772 1.9648-0.088772 2.9572v58.419c0 15.229 11.191 27.859 22.318 27.859h67.038c15.69 0 24.318-16.445 24.318-25.859v-64.017c-0.21-5.933-12.29-21.682-25.926-22.618-47.846 0.8653-20.497-0.0256-64.483-0.0256z"/>
 <rect id="rect892-2-7-8" style="opacity:.15891;stroke:#000;stroke-width:4.8445;fill:none" transform="scale(1,-1)" ry="28.993" height="114.35" width="114.22" y="-121.16" x="6.8683"/>
 <rect id="rect892-2-7-1" style="opacity:.15891;stroke:#000;stroke-width:7.7512;fill:none" transform="scale(1,-1)" ry="28.993" height="114.35" width="114.22" y="-121.16" x="6.8686"/>
 <rect id="rect892-2-7-2-9" ry="28.067" style="stroke:#000;stroke-width:1.0489;fill:none" transform="scale(1,-1)" height="112.71" width="114.14" y="-120.31" x="7.0644"/>
 <path id="path1187" style="fill:#fff;fill-opacity:.057143" d="m37.509 10.721c-14.891-4.3296-32.78 19.454-27.93 26.295-0.04334 0.71563-0.07674 1.4439-0.07674 2.1732v10.76c25.898-25.61 66.753-35.478 90.374-39.178-0.22473-0.02628-0.45986-0.03062-0.69067-0.03062-41.576 0.38742-23.653-0.01876-61.677-0.01875z"/>
 <g id="layer2" style="display:none" transform="translate(187.88 23.742)">
  <rect id="rect3745" style="opacity:.9;filter:url(#filter3174-1);fill:url(#ButtonShadow-9)" rx="6" ry="6" height="85" width="86" y="7" x="5"/>
 </g>
 <g id="layer2-2" style="display:none" transform="matrix(1.2166 0 0 1.2299 5.6049 3.1187)">
  <rect id="rect3745-5" style="opacity:.9;filter:url(#filter3174-9);fill:url(#ButtonShadow-9)" rx="6" ry="6" height="85" width="86" y="7" x="5"/>
 </g>
 <path id="path3397-3-2-5" style="opacity:.05;color:#000000;fill:url(#linearGradient4238-5)" d="m23.625 22.125a3.6626 3.6626 0 0 0 -2.7188 1.6875l-2.5 3.875-4.5312-1a3.6626 3.6626 0 0 0 -4.3438 4.375l1 4.4062-3.9062 2.4375a3.6626 3.6626 0 0 0 0 6.1875l3.9062 2.4375-1 4.4062a3.6626 3.6626 0 0 0 4.3438 4.375l4.5312-1 2.5 3.875a3.6626 3.6626 0 0 0 6.1875 0l2.5-3.875 4.5312 1a3.6626 3.6626 0 0 0 4.3438 -4.375l-1-4.4062 3.9062-2.4375a3.6626 3.6626 0 0 0 0 -6.1875l-3.9062-2.4375 1-4.4062a3.6626 3.6626 0 0 0 -4.344 -4.374l-4.5312 1-2.5-3.875a3.6626 3.6626 0 0 0 -3.469 -1.688zm0.375 15.094c0.2413 0.29026 0.47719 0.58429 0.71875 0.875a3.6626 3.6626 0 0 0 -0.719 1.312 3.6626 3.6626 0 0 0 -0.719 -1.312c0.242-0.291 0.478-0.585 0.719-0.875z" transform="translate(0,-16)"/>
 <g id="layer2-8" style="display:none" transform="matrix(1.2166 0 0 1.2299 162.3 9.178)">
  <rect id="rect3745-8" style="opacity:.9;filter:url(#filter3174-6);fill:url(#ButtonShadow-9)" rx="6" ry="6" height="85" width="86" y="7" x="5"/>
 </g>
 <g id="g5314" transform="matrix(.9 0 0 .9 135.14 4.9437)">
  <path id="path4249" style="fill-opacity:.058824" d="m-90.491 79.993c-3.7488-0.2541-6.7883-1.3144-9.2588-3.2296-1.0895-0.84457-2.2964-2.2169-2.9993-3.4104-0.16459-0.27927-0.3868-0.54687-0.41751-0.59464v6.66h-10.53l-0.0263-7.6879c-0.027-7.9664-0.0383-8.3519-0.27576-9.3095-0.42428-1.7464-1.9789-2.4239-3.6173-2.4248-1.9076-0.05014-3.3398 0.72552-4.1805 2.4952-0.34895 0.9613-0.32831 0.42738-0.34944 9.0364l-0.0184 7.8906h-10.581c-0.15435-7.2443 0.16092-14.505-0.12836-21.746-0.12127-1.1737-0.35682-2.1385-0.86011-3.523l-0.27725-0.76259 10.29 0.042 0.26198 0.53834c0.15356 0.31545 0.302 0.73232 0.35878 1.0069 0.0533 0.25778 0.11524 0.46856 0.13755 0.46856 0.0236 0 0.37472-0.22391 0.78309-0.4978 1.5931-1.0682 3.1971-1.6703 5.2597-1.9744 1.0912-0.16091 3.822-0.14385 4.9432 0.03071 2.5628 0.39913 4.5981 1.2729 6.1738 2.6505 1.1602 1.0144 1.9934 2.5742 2.3552 4.4098l0.12836 0.65166 0.27132-0.51366c0.5275-0.99871 1.1492-1.8479 1.9943-2.7237 2.5382-2.6309 6.0098-4.1657 10.513-4.648 1.0715-0.11471 3.8007-0.09896 4.8936 0.02835 2.2878 0.26654 4.1524 0.80401 5.8598 1.6891 1.3488 0.69917 2.3573 1.4464 3.4106 2.527 0.98579 1.0114 1.8645 2.2723 2.4305 3.4874l0.19268 0.4137 0.0026-1.2162c0.0053-2.5489-0.12941-3.9648-0.52156-5.4438l-0.24019-0.95555 10.4 0.08689 0.13492 0.43436c0.2121 0.68313 0.36564 1.5331 0.41123 2.2754l0.042 0.68284 0.37493-0.5081c1.2414-1.6823 2.7592-2.7253 4.6635-3.2047 0.92584-0.2331 1.7592-0.30818 3.0266-0.2729 1.0517 0.02914 1.7396 0.12364 2.9674 0.40646l0.31852 0.0735c-0.000499 1.031-0.000499 2.0657 0 3.0957 0.01313 0 0.28077-0.14411 0.52639-0.32041 3.9505-2.8344 9.5952-3.9918 14.965-3.0687 2.957 0.50833 5.7345 1.6564 7.8472 3.2438 3.6541 2.7455 5.4566 6.8971 5.0058 11.53-0.30975 3.183-1.7892 6.0094-4.2478 8.1149-3.2419 2.7764-7.8842 4.2498-12.949 4.1099-3.3112-0.09161-6.1102-0.77797-8.6837-2.1297-2.1133-1.0924-3.9025-2.6893-5.251-4.6407-2.3644-3.5632-2.6792-8.3519-0.81154-12.345 0.14752-0.31521 0.26809-0.58018 0.26809-0.58879-1.0545-0.36086-2.1822-0.35199-3.2603-0.12022-0.65874 0.19898-1.075 0.41228-1.6489 0.8447-1.3809 1.0406-2.1837 2.5599-2.5262 4.7809-0.17824 1.1556-0.2079 2.2859-0.20842 7.9196v5.661h-10.57v-6.3294l-0.30841 0.52104c-0.47226 0.79792-1.0138 1.4885-1.7164 2.189-2.5068 2.4992-6.0733 3.8811-10.832 4.197-0.9917 0.06589-2.9234 0.06431-3.9163-0.0026zm7.776-8.7286 9.026 0.16196v-2.9535h-10.228-10.228l0.04148 0.39089c0.02362 0.21499 0.10132 0.62751 0.17456 0.91665 0.50219 1.9843 2.0085 3.2125 4.4014 3.5887 2.7053 0.25384 4.9552 0.12574 6.8132-2.1047zm45.168 1.5223c1.7399-1.0838 2.8048-3.1279 3.0053-5.7688 0.14542-1.9145-0.34466-3.9459-1.2905-5.3498-0.30917-0.45896-0.97474-1.1467-1.3717-1.4174-1.4039-0.97296-3.133-1.0886-4.766-0.73668-2.521 0.77784-4.0606 3.1432-4.1916 6.4397-0.09634 2.4212 0.57448 4.4763 1.9143 5.8657 0.83753 0.86853 1.5925 1.2903 2.7643 1.5446 1.3436 0.21368 2.7237 0.05355 3.936-0.57718zm-46.014-10.058c0.0903-0.09056-0.24491-1.2368-0.50922-1.7406-0.2736-0.52159-0.9576-1.1375-1.6168-1.4557-1.9302-0.93201-4.8331-0.75479-6.442 0.3933-0.82533 0.58892-1.4671 1.523-1.8072 2.6305l-0.07691 0.25042 5.2059-0.01837c2.8632-0.0105 5.224-0.03701 5.2462-0.05906z"/>
  <path id="path4247" style="fill-opacity:.11765" d="m-90.491 78.943c-3.7488-0.2541-6.7883-1.3144-9.2588-3.2296-1.0895-0.84457-2.2964-2.2169-2.9993-3.4104-0.16459-0.27927-0.3868-0.54687-0.41751-0.59464v6.66h-10.53l-0.0263-7.6879c-0.027-7.9664-0.0383-8.3519-0.27576-9.3095-0.42428-1.7464-1.9789-2.4239-3.6173-2.4248-1.9076-0.05014-3.3398 0.72552-4.1805 2.4952-0.34895 0.9613-0.32831 0.42738-0.34944 9.0363l-0.0184 7.8906h-10.581c-0.15435-7.2443 0.16092-14.505-0.12836-21.746-0.12127-1.1737-0.35682-2.1385-0.86011-3.523l-0.27725-0.76259 10.29 0.042 0.26198 0.53834c0.15356 0.31545 0.302 0.73232 0.35878 1.0069 0.0533 0.25778 0.11524 0.46856 0.13755 0.46856 0.0236 0 0.37472-0.22391 0.78309-0.4978 1.5931-1.0682 3.1971-1.6703 5.2597-1.9744 1.0912-0.16091 3.822-0.14385 4.9432 0.03071 2.5628 0.39913 4.5981 1.2729 6.1738 2.6505 1.1602 1.0144 1.9934 2.5742 2.3552 4.4098l0.12836 0.65166 0.27132-0.51366c0.5275-0.99871 1.1492-1.8479 1.9943-2.7237 2.5382-2.6309 6.0098-4.1657 10.513-4.648 1.0715-0.11471 3.8007-0.09896 4.8936 0.02835 2.2878 0.26654 4.1524 0.80401 5.8598 1.6891 1.3488 0.69917 2.3573 1.4464 3.4106 2.527 0.98579 1.0114 1.8645 2.2723 2.4305 3.4874l0.19268 0.4137 0.0026-1.2162c0.0053-2.5489-0.12941-3.9648-0.52156-5.4438l-0.24019-0.95555 10.4 0.08689 0.13492 0.43436c0.2121 0.68313 0.36564 1.5331 0.41123 2.2754l0.042 0.68284 0.37493-0.5081c1.2414-1.6823 2.7592-2.7253 4.6635-3.2047 0.92584-0.2331 1.7592-0.30818 3.0266-0.2729 1.0517 0.02914 1.7396 0.12364 2.9674 0.40646l0.31852 0.0735c-0.000499 1.031-0.000499 2.0657 0 3.0957 0.01313 0 0.28077-0.14411 0.52639-0.32041 3.9505-2.8344 9.5952-3.9918 14.965-3.0687 2.957 0.50833 5.7345 1.6564 7.8472 3.2438 3.6541 2.7455 5.4566 6.8971 5.0058 11.53-0.30975 3.183-1.7892 6.0094-4.2478 8.1149-3.2419 2.7764-7.8842 4.2498-12.949 4.1099-3.3112-0.09161-6.1102-0.77797-8.6837-2.1297-2.1133-1.0924-3.9025-2.6893-5.251-4.6407-2.3644-3.5632-2.6792-8.3519-0.81154-12.345 0.14752-0.31521 0.26809-0.58018 0.26809-0.58879-1.0545-0.36086-2.1822-0.35199-3.2603-0.12022-0.65874 0.19898-1.075 0.41228-1.6489 0.8447-1.3809 1.0406-2.1837 2.5599-2.5262 4.7809-0.17824 1.1556-0.2079 2.2859-0.20842 7.9196v5.661h-10.57v-6.3294l-0.30841 0.52104c-0.47226 0.79792-1.0138 1.4885-1.7164 2.189-2.5068 2.4992-6.0733 3.8811-10.832 4.197-0.9917 0.06589-2.9234 0.06431-3.9163-0.0026zm7.776-8.7286 9.026 0.16196v-2.9535h-10.228-10.228l0.04148 0.39089c0.02362 0.21499 0.10132 0.62751 0.17456 0.91665 0.50219 1.9843 2.0085 3.2125 4.4014 3.5887 2.7053 0.25384 4.9552 0.12574 6.8132-2.1047zm45.168 1.5223c1.7399-1.0838 2.8048-3.1279 3.0053-5.7688 0.14542-1.9145-0.34466-3.9459-1.2905-5.3498-0.30917-0.45896-0.97474-1.1467-1.3717-1.4174-1.4039-0.97296-3.133-1.0886-4.766-0.73668-2.521 0.77784-4.0606 3.1432-4.1916 6.4397-0.09634 2.4212 0.57448 4.4763 1.9143 5.8657 0.83753 0.86853 1.5925 1.2903 2.7643 1.5446 1.3436 0.21368 2.7237 0.05355 3.936-0.57718zm-46.014-10.058c0.0903-0.09056-0.24491-1.2368-0.50922-1.7406-0.2736-0.52159-0.9576-1.1375-1.6168-1.4557-1.9302-0.93201-4.8331-0.75479-6.442 0.3933-0.82533 0.58892-1.4671 1.523-1.8072 2.6305l-0.07691 0.25042 5.2059-0.01837c2.8632-0.0105 5.224-0.03701 5.2462-0.05906z"/>
  <path id="path4243" style="fill-opacity:.23529" d="m-90.491 77.893c-3.7488-0.2541-6.7883-1.3144-9.2588-3.2296-1.0895-0.84457-2.2964-2.2169-2.9993-3.4104-0.16459-0.27927-0.3868-0.54687-0.41751-0.59464v6.66h-10.53l-0.0263-7.6879c-0.027-7.9664-0.0383-8.3519-0.27576-9.3095-0.42428-1.7464-1.9789-2.4239-3.6173-2.4248-1.9076-0.05014-3.3398 0.72552-4.1805 2.4952-0.34895 0.9613-0.32831 0.42738-0.34944 9.0363l-0.0184 7.8906h-10.581c-0.15435-7.2443 0.16092-14.505-0.12836-21.746-0.12127-1.1737-0.35682-2.1385-0.86011-3.523l-0.27725-0.76259 10.29 0.042 0.26198 0.53834c0.15356 0.31545 0.302 0.73232 0.35878 1.0069 0.0533 0.25778 0.11524 0.46856 0.13755 0.46856 0.0236 0 0.37472-0.22391 0.78309-0.4978 1.5931-1.0682 3.1971-1.6703 5.2597-1.9744 1.0912-0.16091 3.822-0.14385 4.9432 0.03071 2.5628 0.39913 4.5981 1.2729 6.1738 2.6505 1.1602 1.0144 1.9934 2.5742 2.3552 4.4098l0.12836 0.65166 0.27132-0.51366c0.5275-0.99871 1.1492-1.8479 1.9943-2.7237 2.5382-2.6309 6.0098-4.1657 10.513-4.648 1.0715-0.11471 3.8007-0.09896 4.8936 0.02835 2.2878 0.26654 4.1524 0.80401 5.8598 1.6891 1.3488 0.69917 2.3573 1.4464 3.4106 2.527 0.98579 1.0114 1.8645 2.2723 2.4305 3.4874l0.19268 0.4137 0.0026-1.2162c0.0053-2.5489-0.12941-3.9648-0.52156-5.4438l-0.24019-0.95555 10.4 0.08689 0.13492 0.43436c0.2121 0.68313 0.36564 1.5331 0.41123 2.2754l0.042 0.68284 0.37493-0.50809c1.2414-1.6823 2.7592-2.7253 4.6635-3.2047 0.92584-0.2331 1.7592-0.30818 3.0266-0.2729 1.0517 0.02914 1.7396 0.12364 2.9674 0.40646l0.31852 0.0735c-0.000499 1.031-0.000499 2.0657 0 3.0957 0.01313 0 0.28077-0.14411 0.52639-0.32041 3.9505-2.8344 9.5952-3.9918 14.965-3.0687 2.957 0.50833 5.7345 1.6564 7.8472 3.2438 3.6541 2.7455 5.4566 6.8971 5.0058 11.53-0.30975 3.183-1.7892 6.0094-4.2478 8.1149-3.2419 2.7764-7.8842 4.2498-12.949 4.1099-3.3112-0.09161-6.1102-0.77797-8.6837-2.1297-2.1133-1.0924-3.9025-2.6893-5.251-4.6407-2.3644-3.5632-2.6792-8.3519-0.81154-12.345 0.14752-0.31521 0.26809-0.58018 0.26809-0.58879-1.0545-0.36086-2.1822-0.35199-3.2603-0.12022-0.65874 0.19898-1.075 0.41228-1.6489 0.8447-1.3809 1.0406-2.1837 2.5599-2.5262 4.7809-0.17824 1.1556-0.2079 2.2859-0.20842 7.9196v5.661h-10.57v-6.3294l-0.30841 0.52104c-0.47226 0.79792-1.0138 1.4885-1.7164 2.189-2.5068 2.4992-6.0733 3.8811-10.832 4.197-0.9917 0.06589-2.9234 0.06431-3.9163-0.0026zm7.776-8.7286 9.026 0.16196v-2.9535h-10.228-10.228l0.04148 0.39089c0.02362 0.21499 0.10132 0.62751 0.17456 0.91665 0.50219 1.9843 2.0085 3.2125 4.4014 3.5887 2.7053 0.25384 4.9552 0.12574 6.8132-2.1047zm45.168 1.5223c1.7399-1.0838 2.8048-3.1279 3.0053-5.7688 0.14542-1.9145-0.34466-3.9459-1.2905-5.3498-0.30917-0.45896-0.97474-1.1467-1.3717-1.4174-1.4039-0.97296-3.133-1.0886-4.766-0.73668-2.521 0.77784-4.0606 3.1432-4.1916 6.4397-0.09634 2.4212 0.57448 4.4763 1.9143 5.8657 0.83753 0.86853 1.5925 1.2903 2.7643 1.5446 1.3436 0.21368 2.7237 0.05355 3.936-0.57718zm-46.014-10.058c0.0903-0.09056-0.24491-1.2368-0.50922-1.7406-0.2736-0.52159-0.9576-1.1375-1.6168-1.4557-1.9302-0.93201-4.8331-0.75479-6.442 0.3933-0.82533 0.58892-1.4671 1.523-1.8072 2.6305l-0.07691 0.25042 5.2059-0.01837c2.8632-0.0105 5.224-0.03701 5.2462-0.05906z"/>
  <path id="path2384" style="fill:url(#linearGradient5303-5)" d="m-90.491 76.842c-3.7488-0.2541-6.7883-1.3144-9.2588-3.2296-1.0895-0.84457-2.2964-2.2169-2.9993-3.4104-0.16459-0.27927-0.3868-0.54687-0.41751-0.59464v6.66h-10.53l-0.0263-7.6879c-0.027-7.9664-0.0383-8.3519-0.27576-9.3095-0.42428-1.7464-1.9789-2.4239-3.6173-2.4248-1.9076-0.05014-3.3398 0.72552-4.1805 2.4952-0.34895 0.9613-0.32831 0.42738-0.34944 9.0364l-0.0184 7.8906h-10.581c-0.15435-7.2443 0.16092-14.505-0.12836-21.746-0.12127-1.1737-0.35682-2.1385-0.86011-3.523l-0.27725-0.76259 10.29 0.042 0.26198 0.53834c0.15356 0.31545 0.302 0.73232 0.35878 1.0069 0.0533 0.25778 0.11524 0.46856 0.13755 0.46856 0.0236 0 0.37472-0.22391 0.78309-0.4978 1.5931-1.0682 3.1971-1.6703 5.2597-1.9744 1.0912-0.16091 3.822-0.14385 4.9432 0.03071 2.5628 0.39913 4.5981 1.2729 6.1738 2.6505 1.1602 1.0144 1.9934 2.5742 2.3552 4.4098l0.12836 0.65166 0.27132-0.51366c0.5275-0.99871 1.1492-1.8479 1.9943-2.7237 2.5382-2.6309 6.0098-4.1657 10.513-4.648 1.0715-0.11471 3.8007-0.09896 4.8936 0.02835 2.2878 0.26654 4.1524 0.80401 5.8598 1.6891 1.3488 0.69917 2.3573 1.4464 3.4106 2.527 0.98579 1.0114 1.8645 2.2723 2.4305 3.4874l0.19268 0.4137 0.0026-1.2162c0.0053-2.5489-0.12941-3.9648-0.52156-5.4438l-0.24019-0.95555 10.4 0.08689 0.13492 0.43436c0.2121 0.68313 0.36564 1.5331 0.41123 2.2754l0.042 0.68284 0.37493-0.5081c1.2414-1.6823 2.7592-2.7253 4.6635-3.2047 0.92584-0.2331 1.7592-0.30818 3.0266-0.2729 1.0517 0.02914 1.7396 0.12364 2.9674 0.40646l0.31852 0.0735c-0.000499 1.031-0.000499 2.0657 0 3.0957 0.01313 0 0.28077-0.14411 0.52639-0.32041 3.9505-2.8344 9.5952-3.9918 14.965-3.0687 2.957 0.50833 5.7345 1.6564 7.8472 3.2438 3.6541 2.7455 5.4566 6.8971 5.0058 11.53-0.30975 3.183-1.7892 6.0094-4.2478 8.1149-3.2419 2.7764-7.8842 4.2498-12.949 4.1099-3.3112-0.09161-6.1102-0.77797-8.6837-2.1297-2.1133-1.0924-3.9025-2.6893-5.251-4.6407-2.3644-3.5632-2.6792-8.3519-0.81154-12.345 0.14752-0.31521 0.26809-0.58018 0.26809-0.58879-1.0545-0.36086-2.1822-0.35199-3.2603-0.12022-0.65874 0.19898-1.075 0.41228-1.6489 0.8447-1.3809 1.0406-2.1837 2.5599-2.5262 4.7809-0.17824 1.1556-0.2079 2.2859-0.20842 7.9196v5.661h-10.57v-6.3294l-0.30841 0.52104c-0.47226 0.79792-1.0138 1.4885-1.7164 2.189-2.5068 2.4992-6.0733 3.8811-10.832 4.197-0.9917 0.06589-2.9234 0.06431-3.9163-0.0026zm7.776-8.7286 9.026 0.16196v-2.9535h-10.228-10.228l0.04148 0.39089c0.02362 0.21499 0.10132 0.62751 0.17456 0.91665 0.50219 1.9843 2.0085 3.2125 4.4014 3.5887 2.7053 0.25384 4.9552 0.12574 6.8132-2.1047zm45.168 1.5223c1.7399-1.0838 2.8048-3.1279 3.0053-5.7688 0.14542-1.9145-0.34466-3.9459-1.2905-5.3498-0.30917-0.45896-0.97474-1.1467-1.3717-1.4174-1.4039-0.97296-3.133-1.0886-4.766-0.73668-2.521 0.77784-4.0606 3.1432-4.1916 6.4397-0.09634 2.4212 0.57448 4.4763 1.9143 5.8657 0.83753 0.86853 1.5925 1.2903 2.7643 1.5446 1.3436 0.21368 2.7237 0.05355 3.936-0.57718zm-46.014-10.058c0.0903-0.09056-0.24491-1.2368-0.50922-1.7406-0.2736-0.52159-0.9576-1.1375-1.6168-1.4557-1.9302-0.93201-4.8331-0.75479-6.442 0.3933-0.82533 0.58892-1.4671 1.523-1.8072 2.6305l-0.07691 0.25042 5.2059-0.01838c2.8632-0.0105 5.224-0.03701 5.2462-0.05906z"/>
  <path id="path4251" style="fill:#f54624;fill-opacity:.31373" d="m-74.513 50.207 0.24098 0.95362c0.3329 1.2556 0.45335 2.6051 0.48706 4.5015l0.03077 0.06153 0.0052-1.2151c0.0039-1.9171-0.11348-3.1522-0.31787-4.2964l-0.44604-0.0053zm-59.498 0.03076 0.27685 0.75879c0.50329 1.3844 0.74006 2.3485 0.86133 3.5222 0.0712 1.7814 0.10394 3.5643 0.11792 5.3474-0.00042-2.4823-0.0189-4.9651-0.11792-7.4443-0.077-0.7453-0.23246-1.4412-0.44092-2.179l-0.69726-0.0051zm44.984 3.4607c-1.1681 0.07132-2.2974 0.40007-3.1018 0.97412-0.82533 0.58892-1.4646 1.5278-1.8047 2.6353l-0.07691 0.24609 1.0715-0.0052c0.24462-0.29464 0.512-0.56148 0.81006-0.77417 1.6089-1.1481 4.5143-1.3268 6.4446-0.39477 0.51673 0.24951 0.99029 0.68094 1.3279 1.1074 0.10434-0.0034 0.79132-0.0068 0.79468-0.01024 0.0903-0.09056-0.24326-1.2342-0.50757-1.738-0.2736-0.52159-0.95583-1.1378-1.615-1.4561-0.96512-0.466-2.1747-0.65579-3.3428-0.58447zm48.296 0.39477c-0.41368 0.02336-0.82736 0.08119-1.2356 0.16918-2.521 0.77784-4.0629 3.143-4.1938 6.4395-0.02021 0.50741 0.01523 0.98869 0.06153 1.4612 0.29667-2.9561 1.7804-5.0729 4.1323-5.7986 1.633-0.35196 3.359-0.23979 4.7629 0.73315 0.397 0.27074 1.0649 0.96121 1.374 1.4202 0.65728 0.97562 1.0737 2.257 1.2305 3.5889 0.0126-0.11757 0.04728-0.21832 0.05639-0.33838 0.14542-1.9145-0.34105-3.9486-1.2869-5.3525-0.30917-0.45896-0.97702-1.1443-1.374-1.415-1.0529-0.72972-2.2863-0.97781-3.5273-0.90747zm-76.884 0.65112c-1.9076-0.05014-3.3378 0.72713-4.1785 2.4968-0.34894 0.9613-0.33262 0.42984-0.35376 9.0388l-0.0154 7.8904h-10.582c-0.0712-3.3421-0.0386-6.688-0.0154-10.033-0.0197 4.0443-0.0707 8.09 0.0154 12.13h10.582l0.0154-7.8904c0.0211-8.609 0.005-8.0775 0.35376-9.0388 0.84066-1.7697 2.2709-2.5418 4.1785-2.4917 1.6384 0.000866 3.1902 0.67866 3.6145 2.425 0.23743 0.95755 0.24982 1.339 0.27686 9.3054l0.0257 7.6904h10.531v-2.0969h-10.531l-0.0257-7.6904c-0.027-7.9664-0.0394-8.353-0.27686-9.3105-0.42428-1.7464-1.976-2.4242-3.6145-2.425zm60.493 0.05638c-0.54849-0.01391-1.1016 0.04305-1.6406 0.15894-0.65874 0.19898-1.077 0.41353-1.6509 0.84595-1.3809 1.0406-2.18 2.5624-2.5225 4.7834-0.17824 1.1556-0.20968 2.2823-0.21021 7.916v2.1021c0.000525-5.6337 0.03197-6.7656 0.21021-7.9211 0.34251-2.221 1.1415-3.7377 2.5225-4.7783 0.57385-0.43242 0.99214-0.64697 1.6509-0.84594 0.81036-0.1742 1.6415-0.16052 2.4558-0.02047 0.15464-0.46439 0.32911-0.92164 0.53833-1.3689 0.14752-0.31521 0.2666-0.58099 0.2666-0.5896-0.52726-0.18044-1.0716-0.26806-1.6201-0.28198zm0.19483 7.4187c-0.21932 2.78 0.44115 5.5934 1.9688 7.8955 1.3485 1.9513 3.1367 3.5475 5.25 4.6399 2.5735 1.3517 5.3739 2.0361 8.6851 2.1277 5.0644 0.13996 9.7037-1.3303 12.946-4.1067 2.4586-2.1056 3.9405-4.9329 4.2502-8.116 0.0778-0.79954 0.06463-1.5769 0.01024-2.343-0.0066 0.08292-0.0022 0.16286-0.01024 0.24609-0.30975 3.183-1.7916 6.0052-4.2502 8.1108-3.2419 2.7764-7.8811 4.2518-12.946 4.1118-3.3112-0.09161-6.1116-0.77599-8.6851-2.1277-2.1133-1.0924-3.9015-2.6885-5.25-4.6399-1.1423-1.7215-1.7982-3.7329-1.9688-5.7986zm-37.217 1.0049 0.04103 0.38965c0.02362 0.21499 0.10109 0.62858 0.17433 0.91773 0.07384 0.29182 0.21633 0.53074 0.33325 0.78955h9.6797 10.228v-2.0969h-10.228-10.228zm-9.0234 4.2861v2.0969c0.0307 0.04778 0.25583 0.31545 0.42041 0.59473 0.70294 1.1935 1.9098 2.5649 2.9993 3.4094 2.4705 1.9152 5.5104 2.9759 9.2593 3.23 0.99291 0.06694 2.9253 0.07101 3.917 0.0053 4.7585-0.31587 8.3213-1.6998 10.828-4.199 0.70261-0.70051 1.2453-1.3913 1.7175-2.1892l0.30762-0.52295v-1.6611l-0.25121-0.0052-0.05639 0.09229c-0.47226 0.79792-1.0149 1.4887-1.7175 2.1892-2.5068 2.4992-6.0696 3.878-10.828 4.1938-0.9917 0.06589-2.9241 0.06694-3.917 0-3.7488-0.2541-6.7887-1.3148-9.2593-3.23-1.0895-0.84457-2.2963-2.2159-2.9993-3.4094-0.16462-0.27927-0.38973-0.54695-0.42044-0.59473zm29.449 6.6599v2.0969h10.572v-2.0969h-10.572z"/>
  <path id="path4256" style="fill:#fff;fill-opacity:.23529" d="m-40.732 49.576c-4.0382 0.06896-7.9524 1.2529-10.915 3.3787-0.24562 0.1763-0.51495 0.323-0.52808 0.323 0.000055 0.35034-0.000168 0.70143 0 1.051 0.01312 0 0.28246-0.14671 0.52808-0.323 3.9505-2.8344 9.5955-3.989 14.966-3.0659 2.957 0.50833 5.7315 1.6529 7.8442 3.2402 3.1097 2.3364 4.8647 5.6973 5.0449 9.5002 0.12135-4.2332-1.652-8.002-5.0449-10.551-2.1127-1.5874-4.8872-2.7319-7.8442-3.2402-1.3425-0.23076-2.7042-0.33573-4.0503-0.31274zm-47.368 0.02573c-0.95285-0.0055-1.9047 0.01444-2.4404 0.07177-4.5032 0.48224-7.9772 2.0193-10.515 4.6501-0.84504 0.87586-1.4669 1.7237-1.9944 2.7224l-0.27173 0.51782-0.12818-0.65625c-0.36188-1.8356-1.193-3.3948-2.3533-4.4092-1.5758-1.3776-3.61-2.2515-6.1728-2.6506-1.1212-0.17456-3.8511-0.19168-4.9424-0.03076-2.0626 0.30413-3.6671 0.90571-5.2602 1.9739-0.40837 0.27389-0.7608 0.50244-0.78443 0.50244-0.0223 0-0.0851-0.21391-0.13842-0.47168-0.0568-0.27458-0.20533-0.68944-0.35889-1.0049l-0.26147-0.53841-10.29-0.04102 0.27685 0.75879c0.04 0.11001 0.0556 0.18719 0.0923 0.29224l9.9206 0.04103 0.26147 0.53833c0.15357 0.31545 0.30211 0.73031 0.35889 1.0049 0.0533 0.25778 0.11611 0.47168 0.13843 0.47168 0.0236 0 0.37605-0.22856 0.78442-0.50244 1.5931-1.0682 3.1977-1.6697 5.2602-1.9739 1.0912-0.16091 3.8212-0.1438 4.9424 0.03076 2.5628 0.39913 4.5971 1.273 6.1729 2.6506 1.1602 1.0144 1.9914 2.5736 2.3533 4.4092l0.12817 0.65625 0.27173-0.51782c0.5275-0.99871 1.1494-1.8466 1.9944-2.7224 2.5382-2.6309 6.0122-4.1679 10.515-4.6501 1.0715-0.11471 3.7981-0.09655 4.8911 0.03077 2.2878 0.26654 4.1527 0.80172 5.8601 1.6868 1.3488 0.69917 2.3613 1.447 3.4145 2.5276 0.98579 1.0114 1.8642 2.2763 2.4302 3.4915l0.18971 0.41016 0.0052-1.2151c0.000092-0.04397-0.0052-0.06437-0.0052-0.10768v0.27173l-0.18971-0.41016c-0.566-1.2152-1.4444-2.48-2.4302-3.4915-1.0532-1.0806-2.0657-1.8284-3.4145-2.5276-1.7074-0.88504-3.5723-1.4202-5.8601-1.6868-0.54648-0.06366-1.4978-0.09702-2.4507-0.10253zm32.638 0.09741c-1.2674-0.03528-2.0991 0.03864-3.0249 0.27173-1.9043 0.47932-3.4242 1.5221-4.6655 3.2043l-0.37427 0.51269-0.041-0.68701c-0.0456-0.7423-0.19806-1.5881-0.41016-2.2712l-0.1333-0.43579-10.403-0.08715 0.24098 0.95362c0.0081 0.03092 0.0074 0.06654 0.01549 0.09741l10.146 0.08715 0.1333 0.43579c0.2121 0.68313 0.36456 1.5289 0.41016 2.2712l0.041 0.68701 0.37427-0.5127c1.2414-1.6823 2.7612-2.725 4.6655-3.2043 0.92584-0.2331 1.7575-0.30701 3.0249-0.27173 1.0517 0.02914 1.7408 0.12222 2.9685 0.40503l0.31787 0.07691c0.000055-0.35044-0.000168-0.7011 0-1.051l-0.31787-0.07691c-1.2277-0.28282-1.9168-0.37589-2.9685-0.40503zm-0.46142 8.4595c-0.73103 1.7087-1.0683 3.5402-1.0305 5.3577 0.09626-1.6058 0.4877-3.2071 1.1843-4.6963 0.14752-0.31521 0.2666-0.58099 0.2666-0.5896-0.13674-0.0468-0.28147-0.03709-0.42041-0.07177zm-27.885 1.4252c-0.22646 0.02126-2.2699 0.04127-4.9988 0.05127l-4.7476 0.02048c-0.12991 0.26538-0.28948 0.50702-0.37939 0.7998l-0.07691 0.25121 5.2039-0.02047c2.8632-0.0105 5.2227-0.03433 5.2449-0.05638 0.05959-0.05977-0.0777-0.55463-0.24609-1.0459zm37.678 3.9529c-0.0074 0.10757-0.02641 0.20819-0.03077 0.31787-0.09634 2.4212 0.57255 4.4759 1.9124 5.8652 0.83753 0.86853 1.5967 1.289 2.7686 1.5432 1.3436 0.21368 2.7201 0.0514 3.9324-0.57934 1.7399-1.0838 2.8039-3.1269 3.0044-5.7678 0.02599-0.34116 0.0084-0.68615-0.0053-1.0305-0.2047 2.6302-1.2642 4.6717-2.9993 5.7524-1.2123 0.63073-2.5888 0.78789-3.9324 0.57422-1.1719-0.25423-1.931-0.67468-2.7686-1.5432-1.1989-1.2432-1.8244-3.0373-1.8816-5.1321zm-48.014 2.8352 0.04103 0.38965c0.02362 0.21499 0.10109 0.62858 0.17433 0.91772 0.50219 1.9843 2.0061 3.2127 4.3989 3.5889 2.7053 0.25384 4.9557 0.12836 6.8137-2.102l9.0286 0.15894v-1.051l-9.0286-0.15894c-1.858 2.2304-4.1084 2.3559-6.8137 2.102-2.3928-0.37614-3.8967-1.6045-4.3989-3.5889-0.02047-0.08061-0.0263-0.16351-0.04615-0.25636h-0.16918z"/>
 </g>
</svg>
