<?xml version="1.0" encoding="UTF-8" standalone="no"?>
<!-- Created with Inkscape (http://www.inkscape.org/) -->
<svg id="svg3449" xmlns:rdf="http://www.w3.org/1999/02/22-rdf-syntax-ns#" xmlns="http://www.w3.org/2000/svg" height="128" width="128" version="1.0" xmlns:cc="http://creativecommons.org/ns#" xmlns:xlink="http://www.w3.org/1999/xlink" xmlns:dc="http://purl.org/dc/elements/1.1/">
 <metadata id="metadata56">
  <rdf:RDF>
   <cc:Work rdf:about="">
    <dc:format>image/svg+xml</dc:format>
    <dc:type rdf:resource="http://purl.org/dc/dcmitype/StillImage"/>
    <dc:title/>
   </cc:Work>
  </rdf:RDF>
 </metadata>
 <defs id="defs3451">
  <clipPath id="clipPath3860-8-9">
   <rect id="rect3862-2-4" style="fill:#f0f" rx="6" ry="6" height="72" width="84" y="18" x="6"/>
  </clipPath>
  <filter id="filter3870-7-8" height="1.3943" width="1.3312" color-interpolation-filters="sRGB" y="-.19716" x="-.16559">
   <feGaussianBlur id="feGaussianBlur3872-7-8" stdDeviation="5.1703125"/>
  </filter>
  <linearGradient id="linearGradient3514" y2="-9.1034" gradientUnits="userSpaceOnUse" x2="66.492" gradientTransform="matrix(.96826 0 0 .97948 2.179 .16587)" y1="-42.638" x1="67.952">
   <stop id="stop4620" style="stop-color:#37414b" offset="0"/>
   <stop id="stop4622" style="stop-color:#37414b;stop-opacity:0" offset="1"/>
  </linearGradient>
  <linearGradient id="linearGradient3516" y2="-11.847" gradientUnits="userSpaceOnUse" x2="58.98" gradientTransform="matrix(.96826 0 0 .97948 2.179 .16587)" y1="-118.55" x1="57.173">
   <stop id="stop4596" offset="0"/>
   <stop id="stop4598" style="stop-opacity:0" offset="1"/>
  </linearGradient>
  <linearGradient id="linearGradient3519" y2="50.369" gradientUnits="userSpaceOnUse" x2="76.558" gradientTransform="matrix(.96826 0 0 .97948 3.2423 -129.19)" y1="13.164" x1="76.558">
   <stop id="stop3392" style="stop-color:#425e7b" offset="0"/>
   <stop id="stop3394" style="stop-color:#7a91a7" offset="1"/>
  </linearGradient>
  <linearGradient id="linearGradient3521" y2="-8.7399" gradientUnits="userSpaceOnUse" x2="60.217" gradientTransform="matrix(.96826 0 0 .97948 2.179 .16587)" y1="-123.72" x1="60.395">
   <stop id="stop3392-4-8" style="stop-color:#425e7b" offset="0"/>
   <stop id="stop3394-8-0" style="stop-color:#7a91a7" offset="1"/>
  </linearGradient>
  <radialGradient id="radialGradient3349" gradientUnits="userSpaceOnUse" cy="45.647" cx="42.148" gradientTransform="matrix(.94690 0 0 1.139 3.5954 -29.89)" r="58.984">
   <stop id="stop2699-5" style="stop-color:#9cbbd9" offset="0"/>
   <stop id="stop2701-7" style="stop-color:#5c82ab" offset="1"/>
  </radialGradient>
  <linearGradient id="linearGradient3351" y2="81.481" gradientUnits="userSpaceOnUse" x2="48.022" y1="22.933" x1="48.022">
   <stop id="stop3876-6-4" style="stop-color:#fff" offset="0"/>
   <stop id="stop3878-8-0" style="stop-color:#fff;stop-opacity:0" offset="1"/>
  </linearGradient>
  <linearGradient id="linearGradient4157" y2="19.37" gradientUnits="userSpaceOnUse" x2="121.09" y1="19.37" x1="6.5311">
   <stop id="stop4153" style="stop-color:#fff" offset="0"/>
   <stop id="stop4155" style="stop-color:#fff;stop-opacity:.375" offset="1"/>
  </linearGradient>
  <linearGradient id="linearGradient4192" y2="31.742" gradientUnits="userSpaceOnUse" x2="121.11" y1="31.742" x1="6.5334">
   <stop id="stop4188" style="stop-color:#fff" offset="0"/>
   <stop id="stop4190" style="stop-color:#fff;stop-opacity:0" offset="1"/>
  </linearGradient>
  <linearGradient id="linearGradient4200" y2="30.574" gradientUnits="userSpaceOnUse" x2="121.37" y1="30.574" x1="6.7939">
   <stop id="stop4196" offset="0"/>
   <stop id="stop4198" style="stop-opacity:0" offset="1"/>
  </linearGradient>
 </defs>
 <rect id="rect892" style="stroke:url(#linearGradient3521);stroke-width:.97385;fill:url(#linearGradient3519)" transform="scale(1,-1)" ry="29.296" height="115.54" width="114.22" y="-122.25" x="7.0394"/>
 <rect id="rect892-2" style="stroke:url(#linearGradient3516);stroke-width:.97385;fill:url(#linearGradient3514)" transform="scale(1,-1)" ry="28.993" height="114.35" width="114.22" y="-121.46" x="7.0599"/>
 <path id="rect895" style="fill:url(#radialGradient3349)" d="m26.571 7.0104c-4.7037 0-18.55 16.911-19.173 23.287-0.050142 0.97378-0.088772 1.9648-0.088772 2.9572v52.419c0 22.085 6.6279 33.859 22.318 33.859h67.038c15.69 0 24.318-3.7744 24.318-25.859v-64.017c-0.21-5.933-21.655-22.618-25.926-22.618-47.846 0.8653-24.497-0.0256-68.483-0.0256z"/>
 <path id="path4159-5" style="stroke:url(#linearGradient4192);stroke-width:1px;fill:none" d="m7.0334 31.742h113.58z"/>
 <path id="path4141" style="fill:url(#linearGradient4157)" d="m7.0311 30.268 113.55 0.000001c0.26-5.326-7.9-21.313-23.2-21.796l-67.849 0.3513c-11.378-0.1654-19.439 10.93-22.5 21.445z"/>
 <rect id="rect892-2-7-8" style="opacity:.15891;stroke:#000;stroke-width:4.8445;fill:none" transform="scale(1,-1)" ry="28.993" height="114.35" width="114.22" y="-121.16" x="6.8687"/>
 <rect id="rect3353" style="fill:#415b79" ry="3.6828" height="12.276" width="61.972" y="107.87" x="33.014"/>
 <rect id="rect892-2-7-1" style="opacity:.15891;stroke:#000;stroke-width:7.7512;fill:none" transform="scale(1,-1)" ry="28.993" height="114.35" width="114.22" y="-121.16" x="6.8687"/>
 <rect id="rect892-2-7-2-9" ry="28.067" style="stroke:#000;stroke-width:1.0489;fill:none" transform="scale(1,-1)" height="112.71" width="114.14" y="-120.31" x="7.0649"/>
 <path id="path3850" style="opacity:.15;filter:url(#filter3870-7-8);fill:url(#linearGradient3351)" d="m15.969 22.531c-2.8459 0.0043-5.4332 2.5916-5.4375 5.4375v48.062c0.0043 2.8459 2.5916 5.4332 5.4375 5.4375h64.062c2.8459-0.0043 5.4332-2.5916 5.4375-5.4375v-48.062c-0.0043-2.8459-2.5916-5.4332-5.4375-5.4375z" clip-path="url(#clipPath3860-8-9)" transform="matrix(1.2564 0 0 1.4105 3.5293 -15.047)"/>
 <path id="path1187" style="fill:#fff;fill-opacity:.057143" d="m11.029 30.411c-4.0662 0-7.3909 3.6093-7.9298 8.2949-0.04334 0.71563-0.07674 1.4439-0.07674 2.1732v28.76c25.898-25.61 66.752-35.479 90.374-39.179-0.22473-0.02628-0.45986-0.03062-0.69067-0.03062-41.576 0.38742-43.653-0.01876-81.677-0.01875z"/>
 <path id="path4159" style="stroke:url(#linearGradient4200);stroke-width:1px;fill:none" d="m7.2939 30.574h113.58z"/>
 <path id="path11807" style="fill:#fff" d="m26.188 54.046c25.191-0.009 50.382-0.006 75.57-0.003-0.021 10.638-0.021 21.276 0 31.914-25.188 0.003-50.376 0.006-75.564-0.003 0.018-10.635 0.024-21.273-0.006-31.908m4.599 12.225c1.917-0.003 3.834 0 5.754 0-0.015-1.887-0.003-3.771-0.009-5.658-1.911 0.006-3.819 0.012-5.727-0.003-0.024 1.887 0 3.774-0.018 5.661m7.641-5.652c0 1.881 0.006 3.765-0.006 5.646 1.89 0.009 3.78 0 5.67 0.006-0.018-1.887 0-3.774-0.015-5.658-1.884 0.012-3.768 0.003-5.649 0.006m7.542 0.003c-0.012 1.869 0.027 3.738-0.027 5.607 1.899 0.087 3.798 0.018 5.697 0.042-0.018-1.884-0.006-3.771-0.012-5.655-1.887 0.006-3.771-0.003-5.658 0.006m7.596-0.006c-0.006 1.884 0.009 3.771-0.012 5.655 1.878-0.003 3.753 0 5.628 0-0.027-1.887-0.006-3.771-0.012-5.655-1.869 0.003-3.738 0.003-5.604 0m7.53 5.655c1.89-0.006 3.777 0.006 5.667-0.009-0.015-1.881-0.006-3.762-0.006-5.643-1.875-0.012-3.75 0.027-5.622-0.027-0.066 1.893-0.003 3.786-0.039 5.679m7.551 0c1.887-0.003 3.774 0 5.658-0.003-0.015-1.884-0.006-3.768-0.006-5.652-1.881 0.003-3.762 0.006-5.64-0.003-0.009 1.887 0.006 3.771-0.012 5.658m7.554-5.655c0 1.884 0.009 3.768-0.006 5.655 1.887-0.003 3.774-0.003 5.661 0-0.021-1.887-0.006-3.771-0.009-5.658-1.881 0.009-3.762 0.006-5.646 0.003m7.548 0.003c-0.003 1.881 0.003 3.765-0.006 5.646 1.887 0.009 3.774 0 5.664 0.006-0.024-1.884-0.006-3.771-0.012-5.658-1.884 0.012-3.765 0.003-5.646 0.006m7.587-0.003c-0.006 1.884 0.015 3.768-0.015 5.652 1.878 0.003 3.756 0 5.631 0.003-0.024-1.887-0.009-3.771-0.009-5.655-1.869 0.003-3.738 0.003-5.607 0m-60.549 7.044c0.012 1.863 0.009 3.726 0.003 5.589 1.914-0.003 3.828-0.009 5.742 0.003 0.003-1.866 0-3.732 0.003-5.598-1.917 0.009-3.831 0-5.748 0.006m7.638 0c0.006 1.86 0.006 3.723 0 5.586 1.887 0.003 3.774-0.003 5.664 0.003-0.006-1.863-0.009-3.726 0-5.592-1.887 0-3.777 0-5.664 0.003m7.542 0.009c0.003 1.857 0.003 3.711 0 5.565 1.89 0.024 3.78 0.006 5.67 0.015-0.009-1.866-0.012-3.729 0-5.592-1.89 0.006-3.78-0.012-5.67 0.012m7.59-0.012c0.015 1.863 0.012 3.726 0 5.592 1.872-0.006 3.747-0.003 5.622-0.003-0.015-1.863-0.018-3.726 0.003-5.589h-5.625m7.542 0c0.012 1.863 0.012 3.729 0 5.592 1.887-0.006 3.774-0.003 5.658-0.003-0.003-1.863-0.003-3.726 0-5.589h-5.658m7.554-0.003c0.003 1.866 0.006 3.732 0 5.598 1.881-0.009 3.765-0.009 5.649 0-0.006-1.866-0.006-3.732 0-5.598-1.884 0.003-3.765 0.006-5.649 0m7.548 0c0.003 1.866 0.003 3.732 0 5.598 1.881-0.009 3.765-0.012 5.649 0-0.006-1.866-0.009-3.732 0-5.598-1.884 0.006-3.768 0.006-5.649 0m7.545 0.003c0.003 1.863 0.003 3.726 0 5.592 1.884-0.003 3.771-0.006 5.658 0-0.012-1.863-0.015-3.729 0-5.592-1.884 0-3.771 0.003-5.658 0m7.578 0.003c0.018 1.86 0.015 3.723 0.003 5.586 1.875 0 3.747-0.003 5.622 0.003-0.012-1.863-0.015-3.729 0-5.592-1.875 0-3.75 0-5.625 0.003m-60.534 12.717c1.917-0.006 3.834-0.003 5.751-0.003-0.015-1.884-0.003-3.768-0.009-5.652-1.905 0-3.81 0.018-5.712-0.012-0.057 1.887-0.009 3.777-0.03 5.667m7.638-5.652c-0.003 1.881 0.006 3.762-0.006 5.646 1.887 0.009 3.777-0.003 5.667 0.006-0.012-1.884 0.003-3.771-0.012-5.658-1.884 0.012-3.765 0.006-5.649 0.006m7.605-0.015c-0.117 1.887-0.081 3.783-0.021 5.673 1.875-0.018 3.75-0.006 5.625-0.006-0.015-1.884-0.003-3.768-0.009-5.652-1.863-0.006-3.729 0.015-5.595-0.015m7.533 0.012c-0.003 1.884 0.009 3.768-0.012 5.655 6.918-0.006 13.836 0 20.751-0.003-0.012-1.884-0.006-3.768-0.006-5.649-6.912 0-13.821 0.003-20.733-0.003m22.635 0.003c0 1.881 0.009 3.765-0.006 5.649 1.887 0 3.774 0 5.661 0.003-0.018-1.887-0.009-3.771-0.009-5.655-1.881 0.006-3.765 0.003-5.646 0.003m7.545 0c0 1.881 0.009 3.759-0.006 5.64 1.887 0.021 3.777 0.003 5.664 0.012-0.018-1.887-0.003-3.771-0.012-5.658-1.881 0.012-3.762 0.006-5.646 0.006m7.59 0c-0.003 1.884 0.012 3.765-0.012 5.649 1.875 0 3.75-0.003 5.628 0.003-0.021-1.884-0.009-3.768-0.012-5.652h-5.604z"/>
</svg>
