<?xml version="1.0" encoding="UTF-8" standalone="no"?>
<!-- Created with Inkscape (http://www.inkscape.org/) -->
<svg id="svg3449" xmlns:rdf="http://www.w3.org/1999/02/22-rdf-syntax-ns#" xmlns="http://www.w3.org/2000/svg" height="128" width="128" version="1.0" xmlns:cc="http://creativecommons.org/ns#" xmlns:xlink="http://www.w3.org/1999/xlink" xmlns:dc="http://purl.org/dc/elements/1.1/">
 <metadata id="metadata56">
  <rdf:RDF>
   <cc:Work rdf:about="">
    <dc:format>image/svg+xml</dc:format>
    <dc:type rdf:resource="http://purl.org/dc/dcmitype/StillImage"/>
    <dc:title/>
   </cc:Work>
  </rdf:RDF>
 </metadata>
 <defs id="defs3451">
  <linearGradient id="linearGradient3514" y2="-9.1034" gradientUnits="userSpaceOnUse" x2="66.492" gradientTransform="matrix(.96826 0 0 .97948 2.179 .16587)" y1="-42.638" x1="67.952">
   <stop id="stop4620" style="stop-color:#37414b" offset="0"/>
   <stop id="stop4622" style="stop-color:#37414b;stop-opacity:0" offset="1"/>
  </linearGradient>
  <linearGradient id="linearGradient3516" y2="-11.847" gradientUnits="userSpaceOnUse" x2="58.98" gradientTransform="matrix(.96826 0 0 .97948 2.179 .16587)" y1="-118.55" x1="57.173">
   <stop id="stop4596" offset="0"/>
   <stop id="stop4598" style="stop-opacity:0" offset="1"/>
  </linearGradient>
  <linearGradient id="linearGradient3519" y2="50.369" gradientUnits="userSpaceOnUse" x2="76.558" gradientTransform="matrix(.96826 0 0 .97948 3.2423 -129.19)" y1="13.164" x1="76.558">
   <stop id="stop3392" style="stop-color:#425e7b" offset="0"/>
   <stop id="stop3394" style="stop-color:#7a91a7" offset="1"/>
  </linearGradient>
  <linearGradient id="linearGradient3521" y2="-8.7399" gradientUnits="userSpaceOnUse" x2="60.217" gradientTransform="matrix(.96826 0 0 .97948 2.179 .16587)" y1="-123.72" x1="60.395">
   <stop id="stop3392-4-8" style="stop-color:#425e7b" offset="0"/>
   <stop id="stop3394-8-0" style="stop-color:#7a91a7" offset="1"/>
  </linearGradient>
  <radialGradient id="radialGradient3349" gradientUnits="userSpaceOnUse" cy="45.647" cx="42.148" gradientTransform="matrix(.94690 0 0 1.139 3.5954 -29.89)" r="58.984">
   <stop id="stop3955" style="stop-color:#9cbbd9" offset="0"/>
   <stop id="stop3957" style="stop-color:#0080bc" offset="1"/>
  </radialGradient>
  <filter id="filter3174" color-interpolation-filters="sRGB">
   <feGaussianBlur id="feGaussianBlur3176" stdDeviation="1.71"/>
  </filter>
  <linearGradient id="ButtonShadow-1" x1="45.448" gradientUnits="userSpaceOnUse" y1="92.54" gradientTransform="scale(1.0059 .99417)" x2="45.448" y2="7.0165">
   <stop id="stop3750-0" offset="0"/>
   <stop id="stop3752-4" style="stop-opacity:.58824" offset="1"/>
  </linearGradient>
  <linearGradient id="linearGradient4083" y2="508.4" gradientUnits="userSpaceOnUse" x2="414.45" gradientTransform="matrix(2.6667 0 0 2.6667 -1222.2 -1389.5)" y1="539.2" x1="414.45">
   <stop id="stop4210-02" style="stop-color:#c2d9f6" offset="0"/>
   <stop id="stop4212-0" style="stop-color:#f5fbff" offset="1"/>
  </linearGradient>
 </defs>
 <rect id="rect892" style="stroke:url(#linearGradient3521);stroke-width:.97385;fill:url(#linearGradient3519)" transform="scale(1,-1)" ry="29.296" height="115.54" width="114.22" y="-122.25" x="7.0394"/>
 <rect id="rect892-2" style="stroke:url(#linearGradient3516);stroke-width:.97385;fill:url(#linearGradient3514)" transform="scale(1,-1)" ry="28.993" height="114.35" width="114.22" y="-121.46" x="7.0599"/>
 <path id="rect895" style="fill:url(#radialGradient3349)" d="m33.051 7.2596c-7.969-2.4493-27.013 15.174-25.653 23.038-0.050142 0.97378-0.088772 1.9648-0.088772 2.9572v52.419c0 20.876 10.712 33.859 22.318 33.859h67.038c12.638 0 24.318-11.245 24.318-25.859v-64.017c0.7-10.928-21.283-24.659-25.926-22.618-47.846 0.8653-18.017 0.2236-62.003 0.2236z"/>
 <rect id="rect892-2-7-8" style="opacity:.15891;stroke:#000;stroke-width:4.8445;fill:none" transform="scale(1,-1)" ry="28.993" height="114.35" width="114.22" y="-121.16" x="6.8687"/>
 <rect id="rect892-2-7-1" style="opacity:.15891;stroke:#000;stroke-width:7.7512;fill:none" transform="scale(1,-1)" ry="28.993" height="114.35" width="114.22" y="-121.16" x="6.8687"/>
 <rect id="rect892-2-7-2-9" ry="28.067" style="stroke:#000;stroke-width:1.0489;fill:none" transform="scale(1,-1)" height="112.71" width="114.14" y="-120.31" x="7.0649"/>
 <path id="path1187" style="fill:#fff;fill-opacity:.057143" d="m33.017 7.2319c-23.707 0-26.027 0.6738-25.93 26.295-0.04334 0.71563-0.07674 1.4439-0.07674 2.1732v32.76c18.67-38.321 38.34-51.497 90.374-61.179-0.225-0.026-0.46-0.0303-0.691-0.0303-41.576 0.3874-25.652-0.0188-63.676-0.0188z"/>
 <g id="layer2" style="display:none" transform="translate(148.5 -54.67)">
  <rect id="rect3745" style="opacity:.9;filter:url(#filter3174);fill:url(#ButtonShadow-1)" rx="6" ry="6" height="85" width="86" y="7" x="5"/>
 </g>
 <g id="g4075" transform="translate(196.66 55.103)">
  <path id="path4220" style="fill-opacity:.058824" d="m-125.41-30.58-48.346 9.2573v62.85l48.346 10.026v-82.133zm3.0546 17.412v16.068l5.6747 3.536c0.1496 0.0424 0.47859 0.0456 0.62843 0l24.43-16.289c0-1.928-1.8213-3.3154-2.8475-3.3154h-27.886zm-26.683 9.2908c3.1907 0 5.7721 1.2916 7.7402 3.8767 1.9711 2.5852 2.9544 5.9907 2.9544 10.22 0.003 4.3467-1.0184 7.8483-3.0613 10.507-2.043 2.6592-4.7067 3.9904-7.9942 3.9904-3.2032 0-5.809-1.2875-7.8268-3.8635-2.015-2.5789-3.028-5.9329-3.028-10.073 0-4.3712 1.0256-7.9083 3.0746-10.608 2.0492-2.6991 4.7634-4.0505 8.1411-4.0505zm57.416 0.51475s-24.819 16.305-23.942 15.774c0 0-0.88093 0.53067-1.6108 0l-5.1802-3.5158v21.83h26.315c2.3392 0 4.4181-1.3509 4.4181-4.5653v-29.523zm-57.556 4.8526c-1.7653 0-3.1723 0.82168-4.2108 2.4597-1.0387 1.6382-1.5574 3.8043-1.5574 6.5036 0 2.7392 0.51872 4.905 1.5574 6.4968 1.0385 1.5949 2.4064 2.3861 4.0906 2.3861 1.7371 0 3.114-0.77053 4.1308-2.3192 1.0166-1.5485 1.5306-3.7016 1.5306-6.4501 0-2.8658-0.49509-5.0959-1.4839-6.6908-0.98864-1.5918-2.3418-2.3861-4.0572-2.3861z"/>
  <path id="path4218" d="m-125.41-31.646-48.346 9.2573v62.85l48.346 10.026v-82.133zm3.0546 17.412v16.068l5.6747 3.536c0.1496 0.0424 0.47859 0.0456 0.62843 0l24.43-16.289c0-1.928-1.8213-3.3154-2.8475-3.3154h-27.886zm-26.683 9.2908c3.1907 0 5.7721 1.2916 7.7402 3.8767 1.9711 2.5852 2.9544 5.9907 2.9544 10.22 0.003 4.3467-1.0184 7.8483-3.0613 10.507-2.043 2.6592-4.7067 3.9904-7.9942 3.9904-3.2032 0-5.809-1.2875-7.8268-3.8635-2.015-2.5789-3.028-5.9329-3.028-10.073 0-4.3712 1.0256-7.9083 3.0746-10.608 2.0492-2.6991 4.7634-4.0505 8.1411-4.0505zm57.416 0.51475s-24.819 16.305-23.942 15.774c0 0-0.88093 0.53067-1.6108 0l-5.1802-3.5158v21.83h26.315c2.3392 0 4.4181-1.3509 4.4181-4.5653v-29.523zm-57.556 4.8526c-1.7653 0-3.1723 0.82168-4.2108 2.4597-1.0387 1.6382-1.5574 3.8043-1.5574 6.5036 0 2.7392 0.51872 4.905 1.5574 6.4969 1.0385 1.5949 2.4064 2.3861 4.0906 2.3861 1.7371 0 3.114-0.77053 4.1308-2.3192 1.0166-1.5485 1.5306-3.7016 1.5306-6.4501 0-2.8658-0.49509-5.0959-1.4839-6.6908-0.98864-1.5918-2.3418-2.3861-4.0572-2.3861z" style="fill-opacity:.11765"/>
  <path id="path4214" style="fill-opacity:.23529" d="m-125.41-32.713-48.346 9.2573v62.85l48.346 10.026v-82.133zm3.0546 17.412v16.068l5.6747 3.536c0.1496 0.0424 0.47859 0.0456 0.62843 0l24.43-16.289c0-1.928-1.8213-3.3154-2.8475-3.3154h-27.886zm-26.683 9.2908c3.1907 0 5.7721 1.2916 7.7402 3.8767 1.9711 2.5852 2.9544 5.9907 2.9544 10.22 0.003 4.3467-1.0184 7.8483-3.0613 10.507-2.043 2.6592-4.7067 3.9904-7.9942 3.9904-3.2032 0-5.809-1.2875-7.8268-3.8635-2.015-2.5789-3.028-5.9329-3.028-10.073 0-4.3712 1.0256-7.9083 3.0746-10.608 2.0492-2.6991 4.7634-4.0505 8.1411-4.0505zm57.416 0.51475s-24.819 16.305-23.942 15.774c0 0-0.88093 0.53067-1.6108 0l-5.1802-3.5158v21.83h26.315c2.3392 0 4.4181-1.3509 4.4181-4.5653v-29.523zm-57.556 4.8526c-1.7653 0-3.1723 0.82168-4.2108 2.4597-1.0387 1.6382-1.5574 3.8043-1.5574 6.5036 0 2.7392 0.51872 4.905 1.5574 6.4969 1.0385 1.5949 2.4064 2.3861 4.0906 2.3861 1.7371 0 3.114-0.77053 4.1308-2.3192 1.0166-1.5485 1.5306-3.7016 1.5306-6.4501 0-2.8658-0.49509-5.0959-1.4839-6.6908-0.98864-1.5918-2.3418-2.3861-4.0572-2.3861z"/>
  <path id="path4075" d="m-125.41-33.78-48.346 9.2573v62.85l48.346 10.026v-82.133zm3.0546 17.412v16.068l5.6747 3.536c0.1496 0.0424 0.47859 0.0456 0.62843 0l24.43-16.289c0-1.928-1.8213-3.3154-2.8475-3.3154h-27.886zm-26.683 9.2908c3.1907 0 5.7721 1.2916 7.7402 3.8767 1.9711 2.5852 2.9544 5.9907 2.9544 10.22 0.003 4.3467-1.0184 7.8483-3.0613 10.507-2.043 2.6592-4.7067 3.9904-7.9942 3.9904-3.2032 0-5.809-1.2875-7.8268-3.8635-2.015-2.5789-3.028-5.9329-3.028-10.073 0-4.3712 1.0256-7.9083 3.0746-10.608 2.0492-2.6991 4.7634-4.0505 8.1411-4.0505zm57.416 0.51475s-24.819 16.305-23.942 15.774c0 0-0.88093 0.53067-1.6108 0l-5.1802-3.5158v21.83h26.315c2.3392 0 4.4181-1.3509 4.4181-4.5653v-29.523zm-57.556 4.8526c-1.7653 0-3.1723 0.82168-4.2108 2.4597-1.0387 1.6382-1.5574 3.8043-1.5574 6.5036 0 2.7392 0.51872 4.905 1.5574 6.4969 1.0385 1.5949 2.4064 2.3861 4.0906 2.3861 1.7371 0 3.114-0.77053 4.1308-2.3192 1.0166-1.5485 1.5306-3.7016 1.5306-6.4501 0-2.8658-0.49509-5.0959-1.4839-6.6908-0.98864-1.5918-2.3418-2.3861-4.0572-2.3861z" style="fill:url(#linearGradient4083)"/>
  <path id="path4222" style="fill:#125394;fill-opacity:.31373" d="m-92.205-14.791-23.845 15.896c-0.14984 0.0456-0.4754 0.0424-0.625 0l-5.6771-3.5365v2.1302l5.6771 3.5365c0.1496 0.0424 0.47516 0.0456 0.625 0l24.432-16.286c0-0.66893-0.25933-1.2362-0.58854-1.7396zm-56.828 5.5833c-3.3777 0-6.0914 1.3478-8.1406 4.0469-2.049 2.6993-3.0729 6.2382-3.0729 10.609 0 0.36265 0.0522 0.68586 0.0677 1.0365 0.16403-3.8546 1.1358-7.0477 3.0052-9.5104 2.0492-2.6991 4.7629-4.0521 8.1406-4.0521 3.1907 0 5.7714 1.2898 7.7396 3.875 1.797 2.3568 2.7322 5.4334 2.8906 9.1562 0.0149-0.36124 0.0627-0.69398 0.0625-1.0677 0-4.2291-0.98201-7.6336-2.9531-10.219-1.9681-2.5852-4.5488-3.875-7.7396-3.875zm-5.8594 15.401c-0.0197 0.35178-0.0521 0.69047-0.0521 1.0625 0 2.7392 0.52378 4.903 1.5625 6.4948 1.0385 1.5949 2.4044 2.3854 4.0885 2.3854 1.7371 0 3.1134-0.76901 4.1302-2.3177 1.0166-1.5485 1.5312-3.7046 1.5312-6.4531 0-0.39415-0.0334-0.74448-0.0521-1.1146-0.11634 2.2551-0.59507 4.0857-1.4792 5.4323-1.0168 1.5487-2.3931 2.3229-4.1302 2.3229-1.6842 0-3.05-0.79577-4.0885-2.3906-0.8957-1.3726-1.3872-3.196-1.5104-5.4219zm63.276 14.635c0 3.2144-2.0775 4.5625-4.4167 4.5625h-26.318v2.1354h26.318c2.3392 0 4.4167-1.3533 4.4167-4.5677v-2.1302zm-82.135 15.365v2.1354l48.349 10.026v-2.1354l-48.349-10.026z"/>
  <path id="path4227" style="fill:#fff;fill-opacity:.23529" d="m-125.4-33.781-48.349 9.2604v1.0625l48.349-9.2552v-1.0677zm3.0521 17.411v1.0677h27.885c0.84633 0 2.2169 0.95219 2.6771 2.3646l0.17187-0.11459c0-1.928-1.8228-3.3177-2.849-3.3177h-27.885zm30.734 9.8073s-24.819 16.307-23.943 15.776c0 0-0.87953 0.53067-1.6094 0l-5.1823-3.5156v1.0625l5.1823 3.5156c0.72984 0.53067 1.6094 0 1.6094 0-0.87648 0.53067 23.943-15.771 23.943-15.771v-1.0677zm-57.557 4.8542c-1.7653 0-3.1698 0.82036-4.2083 2.4583-1.0387 1.6382-1.5625 3.8059-1.5625 6.5052 0 0.18907 0.0211 0.35285 0.0261 0.53646 0.0661-2.4467 0.56881-4.4479 1.5365-5.974 1.0385-1.638 2.443-2.4635 4.2083-2.4635 1.7154 0 3.0686 0.79881 4.0573 2.3906 0.921 1.4855 1.3951 3.5422 1.4583 6.1302 0.004-0.17448 0.0261-0.33085 0.0261-0.51042 0-2.8658-0.49555-5.0926-1.4844-6.6875-0.98864-1.5918-2.3418-2.3854-4.0573-2.3854zm10.802 9.2604c-0.0814 4.0911-1.0706 7.4287-3.026 9.974-2.043 2.6592-4.7073 3.9896-7.9948 3.9896-3.2032 0-5.8104-1.2886-7.8281-3.8646-1.9263-2.4654-2.9096-5.6605-2.9948-9.5521-0.004 0.18832-0.0312 0.35535-0.0312 0.54687 0 4.1399 1.011 7.494 3.026 10.073 2.0178 2.576 4.625 3.8646 7.8281 3.8646 3.2875 0 5.9518-1.3304 7.9948-3.9896s3.06-6.1637 3.0573-10.51c0-0.18624-0.0274-0.34821-0.0312-0.53125z"/>
 </g>
</svg>
