<?xml version="1.0" encoding="UTF-8" standalone="no"?>
<!-- Created with Inkscape (http://www.inkscape.org/) -->

<svg
   xmlns:i="http://ns.adobe.com/AdobeIllustrator/10.0/"
   xmlns:dc="http://purl.org/dc/elements/1.1/"
   xmlns:cc="http://creativecommons.org/ns#"
   xmlns:rdf="http://www.w3.org/1999/02/22-rdf-syntax-ns#"
   xmlns:svg="http://www.w3.org/2000/svg"
   xmlns="http://www.w3.org/2000/svg"
   xmlns:xlink="http://www.w3.org/1999/xlink"
   xmlns:sodipodi="http://sodipodi.sourceforge.net/DTD/sodipodi-0.dtd"
   xmlns:inkscape="http://www.inkscape.org/namespaces/inkscape"
   id="svg3449"
   height="128"
   width="128"
   version="1.0"
   inkscape:version="0.48.4 r9939"
   sodipodi:docname="package-android.svgz">
  <sodipodi:namedview
     pagecolor="#ffffff"
     bordercolor="#666666"
     borderopacity="1"
     objecttolerance="10"
     gridtolerance="10"
     guidetolerance="10"
     inkscape:pageopacity="0"
     inkscape:pageshadow="2"
     inkscape:window-width="1360"
     inkscape:window-height="707"
     id="namedview111"
     showgrid="false"
     inkscape:zoom="1.84375"
     inkscape:cx="-44.019945"
     inkscape:cy="115.94699"
     inkscape:window-x="-2"
     inkscape:window-y="33"
     inkscape:window-maximized="1"
     inkscape:current-layer="svg3449" />
  <metadata
     id="metadata56">
    <rdf:RDF>
      <cc:Work
         rdf:about="">
        <dc:format>image/svg+xml</dc:format>
        <dc:type
           rdf:resource="http://purl.org/dc/dcmitype/StillImage" />
        <dc:title></dc:title>
      </cc:Work>
    </rdf:RDF>
  </metadata>
  <defs
     id="defs3451">
    <linearGradient
       id="linearGradient3514"
       y2="-9.1034"
       gradientUnits="userSpaceOnUse"
       x2="66.492"
       gradientTransform="matrix(.96826 0 0 .97948 2.179 .16587)"
       y1="-42.638"
       x1="67.952">
      <stop
         id="stop4620"
         style="stop-color:#37414b"
         offset="0" />
      <stop
         id="stop4622"
         style="stop-color:#37414b;stop-opacity:0"
         offset="1" />
    </linearGradient>
    <linearGradient
       id="linearGradient3516"
       y2="-11.847"
       gradientUnits="userSpaceOnUse"
       x2="58.98"
       gradientTransform="matrix(.96826 0 0 .97948 2.179 .16587)"
       y1="-118.55"
       x1="57.173">
      <stop
         id="stop4596"
         offset="0" />
      <stop
         id="stop4598"
         style="stop-opacity:0"
         offset="1" />
    </linearGradient>
    <linearGradient
       id="linearGradient3519"
       y2="50.369"
       gradientUnits="userSpaceOnUse"
       x2="76.558"
       gradientTransform="matrix(.96826 0 0 .97948 3.2423 -129.19)"
       y1="13.164"
       x1="76.558">
      <stop
         id="stop3392"
         style="stop-color:#425e7b"
         offset="0" />
      <stop
         id="stop3394"
         style="stop-color:#7a91a7"
         offset="1" />
    </linearGradient>
    <linearGradient
       id="linearGradient3521"
       y2="-8.7399"
       gradientUnits="userSpaceOnUse"
       x2="60.217"
       gradientTransform="matrix(.96826 0 0 .97948 2.179 .16587)"
       y1="-123.72"
       x1="60.395">
      <stop
         id="stop3392-4-8"
         style="stop-color:#425e7b"
         offset="0" />
      <stop
         id="stop3394-8-0"
         style="stop-color:#7a91a7"
         offset="1" />
    </linearGradient>
    <linearGradient
       id="linearGradient11406"
       y2="19.812"
       gradientUnits="userSpaceOnUse"
       x2="15.25"
       gradientTransform="matrix(2.6667 0 0 4.341 -1.4969e-7 -5.0231)"
       y1="8.4375"
       x1="12.938">
      <stop
         id="stop6594-0-2"
         style="stop-color:#fff;stop-opacity:.27451"
         offset="0" />
      <stop
         id="stop6596-2-5"
         style="stop-color:#fff;stop-opacity:0"
         offset="1" />
    </linearGradient>
    <filter
       id="filter3174"
       color-interpolation-filters="sRGB">
      <feGaussianBlur
         id="feGaussianBlur3176"
         stdDeviation="1.71" />
    </filter>
    <linearGradient
       id="ButtonShadow-4"
       x1="45.448"
       gradientUnits="userSpaceOnUse"
       y1="92.54"
       gradientTransform="scale(1.0059 .99417)"
       x2="45.448"
       y2="7.0165">
      <stop
         id="stop3750-7"
         offset="0" />
      <stop
         id="stop3752-9"
         style="stop-opacity:.58824"
         offset="1" />
    </linearGradient>
    <filter
       id="filter3174-7"
       color-interpolation-filters="sRGB">
      <feGaussianBlur
         id="feGaussianBlur3176-1"
         stdDeviation="1.71" />
    </filter>
    <filter
       id="filter3174-0"
       color-interpolation-filters="sRGB">
      <feGaussianBlur
         id="feGaussianBlur3176-4"
         stdDeviation="1.71" />
    </filter>
    <filter
       id="filter3174-9"
       color-interpolation-filters="sRGB">
      <feGaussianBlur
         id="feGaussianBlur3176-16"
         stdDeviation="1.71" />
    </filter>
    <clipPath
       id="clipPath3613-6">
      <rect
         id="rect3615-0"
         style="fill:#fff"
         rx="6"
         ry="6"
         height="84"
         width="84"
         y="6"
         x="6" />
    </clipPath>
    <linearGradient
       id="linearGradient3613-76"
       x1="48"
       gradientUnits="userSpaceOnUse"
       y1="20.221"
       x2="48"
       y2="138.66">
      <stop
         id="stop3739-24"
         style="stop-color:#fff"
         offset="0" />
      <stop
         id="stop3741-2"
         style="stop-color:#fff;stop-opacity:0"
         offset="1" />
    </linearGradient>
    <filter
       id="filter3794-83"
       height="1.384"
       width="1.384"
       color-interpolation-filters="sRGB"
       y="-.192"
       x="-.192">
      <feGaussianBlur
         id="feGaussianBlur3796-4"
         stdDeviation="5.28" />
    </filter>
    <filter
       id="filter3174-4"
       color-interpolation-filters="sRGB">
      <feGaussianBlur
         id="feGaussianBlur3176-8"
         stdDeviation="1.71" />
    </filter>
    <filter
       id="filter3174-8"
       color-interpolation-filters="sRGB">
      <feGaussianBlur
         id="feGaussianBlur3176-7"
         stdDeviation="1.71" />
    </filter>
    <radialGradient
       id="radialGradient5000"
       gradientUnits="userSpaceOnUse"
       cy="41.752"
       cx="48"
       gradientTransform="matrix(1.7146 6.6255e-8 -4.2857e-8 1.1091 -378.27 -85.681)"
       r="42">
      <stop
         id="stop3739-6"
         style="stop-color:#fff"
         offset="0" />
      <stop
         id="stop3741-7"
         style="stop-color:#fff;stop-opacity:0"
         offset="1" />
    </radialGradient>
    <linearGradient
       id="linearGradient5033"
       y2="7.0165"
       gradientUnits="userSpaceOnUse"
       x2="45.448"
       gradientTransform="matrix(1.0059 0 0 .99417 -243.97 -80.599)"
       y1="92.54"
       x1="45.448">
      <stop
         id="stop3750-87"
         offset="0" />
      <stop
         id="stop3752-4"
         style="stop-opacity:.58824"
         offset="1" />
    </linearGradient>
    <filter
       id="filter3174-6"
       color-interpolation-filters="sRGB">
      <feGaussianBlur
         id="feGaussianBlur3176-6"
         stdDeviation="1.71" />
    </filter>
    <radialGradient
       id="radialGradient68905"
       gradientUnits="userSpaceOnUse"
       cx="42.148"
       cy="45.647"
       r="58.984"
       gradientTransform="matrix(.94690 0 0 1.139 -73.792 205.85)">
      <stop
         id="stop44117-9"
         style="stop-color:#f0936d"
         offset="0" />
      <stop
         id="stop44119-3"
         style="stop-color:#db4a16"
         offset="1" />
    </radialGradient>
    <linearGradient
       id="linearGradient69023"
       y2="63.893"
       gradientUnits="userSpaceOnUse"
       x2="36.357"
       gradientTransform="matrix(1.2166 0 0 1.2299 -127.92 13.228)"
       y1="6"
       x1="36.357">
      <stop
         id="stop3739-9"
         style="stop-color:#fff"
         offset="0" />
      <stop
         id="stop3741-0"
         style="stop-color:#fff;stop-opacity:0"
         offset="1" />
    </linearGradient>
    <linearGradient
       id="linearGradient74077"
       y2="1028.4"
       gradientUnits="userSpaceOnUse"
       x2="45.845"
       gradientTransform="translate(48.005 -931.27)"
       y1="1028.4"
       x1="2.1555">
      <stop
         id="stop3201-8"
         style="stop-color:#dac197"
         offset="0" />
      <stop
         id="stop3203-9"
         style="stop-color:#c1a581"
         offset=".23942" />
      <stop
         id="stop3205"
         style="stop-color:#dbc298"
         offset=".27582" />
      <stop
         id="stop3207"
         style="stop-color:#a68b60"
         offset="1" />
    </linearGradient>
    <linearGradient
       id="linearGradient74079"
       y2="-24"
       gradientUnits="userSpaceOnUse"
       x2="1050.7"
       gradientTransform="translate(-956.36 121.09)"
       y1="-24"
       x1="1006">
      <stop
         id="stop3297"
         style="stop-color:#c9af8b"
         offset="0" />
      <stop
         id="stop3299"
         style="stop-color:#ad8757"
         offset=".23942" />
      <stop
         id="stop3301"
         style="stop-color:#c2a57f"
         offset=".27582" />
      <stop
         id="stop3303-9"
         style="stop-color:#9d7d53"
         offset="1" />
    </linearGradient>
    <linearGradient
       id="linearGradient74081"
       y2="17.5"
       spreadMethod="reflect"
       gradientUnits="userSpaceOnUse"
       x2="3.0052"
       gradientTransform="translate(-122.05 44.22)"
       y1="17.5"
       x1="44.995">
      <stop
         id="stop3277-1"
         style="stop-color:#fff;stop-opacity:0"
         offset="0" />
      <stop
         id="stop3283-5"
         style="stop-color:#fff"
         offset=".245" />
      <stop
         id="stop3285-8"
         style="stop-color:#fff"
         offset=".77350" />
      <stop
         id="stop3279-3"
         style="stop-color:#fff;stop-opacity:0"
         offset="1" />
    </linearGradient>
    <linearGradient
       id="linearGradient74083"
       y2="8"
       gradientUnits="userSpaceOnUse"
       x2="26"
       gradientTransform="matrix(1 0 0 1.2679 -121.16 40.47)"
       y1="22"
       x1="26">
      <stop
         id="stop3829-2"
         style="stop-color:#fff"
         offset="0" />
      <stop
         id="stop4295-2"
         style="stop-color:#fff"
         offset=".30213" />
      <stop
         id="stop4293-5"
         style="stop-color:#fff;stop-opacity:.69020"
         offset=".34361" />
      <stop
         id="stop3832-2"
         style="stop-color:#fff;stop-opacity:0"
         offset="1" />
    </linearGradient>
    <linearGradient
       y2="32"
       x2="272"
       y1="288"
       x1="272"
       gradientTransform="matrix(2.1428571,0,0,2.1428571,-568.66275,-129.30639)"
       gradientUnits="userSpaceOnUse"
       id="linearGradient3178"
       xlink:href="#outerBackgroundGradient-4-7"
       inkscape:collect="always" />
    <linearGradient
       id="outerBackgroundGradient-4-7">
      <stop
         style="stop-color:#d70751;stop-opacity:1;"
         offset="0"
         id="stop3864-8-6-5-3" />
      <stop
         style="stop-color:#ec3677;stop-opacity:1;"
         offset="1"
         id="stop3866-9-1-2-1" />
    </linearGradient>
    <linearGradient
       y2="32"
       x2="272"
       y1="288"
       x1="272"
       gradientTransform="matrix(0.35951179,0,0,0.35951179,11.114493,30.922993)"
       gradientUnits="userSpaceOnUse"
       id="linearGradient3289"
       xlink:href="#outerBackgroundGradient-4-7"
       inkscape:collect="always" />
    <linearGradient
       y2="32"
       x2="272"
       y1="288"
       x1="272"
       gradientTransform="matrix(0.56173717,0,0,0.56173717,-113.48897,-4.4479037)"
       gradientUnits="userSpaceOnUse"
       id="linearGradient3289-3"
       xlink:href="#outerBackgroundGradient-4-7-8"
       inkscape:collect="always" />
    <linearGradient
       id="outerBackgroundGradient-4-7-8">
      <stop
         style="stop-color:#d70751;stop-opacity:1;"
         offset="0"
         id="stop3864-8-6-5-3-5" />
      <stop
         style="stop-color:#ec3677;stop-opacity:1;"
         offset="1"
         id="stop3866-9-1-2-1-7" />
    </linearGradient>
    <linearGradient
       inkscape:collect="always"
       xlink:href="#outerBackgroundGradient-4-7"
       id="linearGradient4022"
       gradientUnits="userSpaceOnUse"
       gradientTransform="matrix(0.35951179,0,0,0.35951179,11.114493,30.922993)"
       x1="272"
       y1="288"
       x2="272"
       y2="32" />
  </defs>
  <rect
     id="rect892"
     style="stroke:url(#linearGradient3521);stroke-width:.97385;fill:url(#linearGradient3519)"
     transform="scale(1,-1)"
     ry="29.296"
     height="115.54"
     width="114.22"
     y="-122.25"
     x="7.0394" />
  <rect
     id="rect892-2"
     style="stroke:url(#linearGradient3516);stroke-width:.97385;fill:url(#linearGradient3514)"
     transform="scale(1,-1)"
     ry="28.993"
     height="114.35"
     width="114.22"
     y="-121.46"
     x="7.0599" />
  <path
     id="rect6588"
     d="m7.2651 40.702c-3.6107-28.823 22.731-33.361 32.668-33.437l55.816 0.735c21.091 2.903 26.611 16.187 24.251 34.728l-112 30.388z"
     style="fill:url(#linearGradient11406)" />
  <rect
     id="rect892-2-7-8"
     style="opacity:.15891;stroke:#000;stroke-width:4.8445;fill:none"
     transform="scale(1,-1)"
     ry="28.993"
     height="114.35"
     width="114.22"
     y="-121.16"
     x="6.8687" />
  <rect
     id="rect892-2-7-1"
     style="opacity:.15891;stroke:#000;stroke-width:7.7512;fill:none"
     transform="scale(1,-1)"
     ry="28.993"
     height="114.35"
     width="114.22"
     y="-121.16"
     x="6.8687" />
  <rect
     id="rect892-2-7-2-9"
     ry="28.067"
     style="stroke:#000;stroke-width:1.0489;fill:none"
     transform="scale(1,-1)"
     height="112.71"
     width="114.14"
     y="-120.31"
     x="7.0649" />
  <path
     id="path1187"
     style="fill:#fff;fill-opacity:.057143"
     d="m33.017 7.2319c-23.707 0-26.027 0.6738-25.93 26.295-0.04334 0.71563-0.07674 1.4439-0.07674 2.1732v32.76c18.67-38.321 38.34-51.497 90.374-61.179-0.225-0.026-0.46-0.0303-0.691-0.0303-41.576 0.3874-25.652-0.0188-63.676-0.0188z" />
  <g
     id="layer2"
     style="display:none"
     transform="matrix(1.2166 0 0 1.2299 5.6049 3.1187)">
    <rect
       id="rect3745"
       style="opacity:.9;filter:url(#filter3174);fill:url(#ButtonShadow-4)"
       rx="6"
       ry="6"
       height="85"
       width="86"
       y="7"
       x="5" />
  </g>
  <g
     id="layer2-6"
     style="display:none"
     transform="matrix(1.2166 0 0 1.2299 5.6049 3.1187)">
    <rect
       id="rect3745-8"
       style="opacity:.9;filter:url(#filter3174-7);fill:url(#ButtonShadow-4)"
       rx="6"
       ry="6"
       height="85"
       width="86"
       y="7"
       x="5" />
  </g>
  <g
     id="layer2-69"
     style="display:none"
     transform="matrix(1.2166 0 0 1.2299 5.6049 3.1187)">
    <rect
       id="rect3745-4"
       style="opacity:.9;filter:url(#filter3174-0);fill:url(#ButtonShadow-4)"
       rx="6"
       ry="6"
       height="85"
       width="86"
       y="7"
       x="5" />
  </g>
  <g
     id="layer2-64"
     style="display:none"
     transform="translate(-349.33 -29.687)">
    <rect
       id="rect3745-6"
       style="opacity:.9;filter:url(#filter3174-9);fill:url(#ButtonShadow-4)"
       rx="6"
       ry="6"
       height="85"
       width="86"
       y="7"
       x="5" />
  </g>
  <g
     id="layer2-0"
     style="display:none"
     transform="matrix(1.2166 0 0 1.2299 5.6049 3.1187)">
    <rect
       id="rect3745-7"
       style="opacity:.9;filter:url(#filter3174-4);fill:url(#ButtonShadow-4)"
       rx="6"
       ry="6"
       height="85"
       width="86"
       y="7"
       x="5" />
  </g>
  <g
     id="layer5-3"
     style="display:none"
     transform="matrix(1.2166 0 0 1.2299 5.6049 3.1187)">
    <rect
       id="rect3171-2"
       style="opacity:.1;filter:url(#filter3794-83);stroke:#fff;stroke-linecap:round;stroke-width:.5;fill:url(#linearGradient3613-76)"
       clip-path="url(#clipPath3613-6)"
       rx="12"
       ry="12"
       height="66"
       width="66"
       y="15"
       x="15" />
  </g>
  <rect
     id="rect3745-75"
     style="opacity:.9;filter:url(#filter3174-8);display:none;fill:url(#linearGradient5033)"
     rx="6"
     ry="6"
     height="85"
     width="86"
     y="-73.599"
     x="-238.97" />
  <path
     id="path3522"
     d="m-307.69-74.517c1.6501 2.2167 0.11258 5.9183 2.6015 5.8816 1.2119 1.714-2.4154 0.5113 0.20359 1.8323 1.5061 1.1866-1.5934 1.8645 0.27179 2.9294-2.1497 1.1097 0.34845 5.804 1.9451 6.9788 2.628 2.2132 1.1622-4.6857 4.0945-5.0446 1.5934-1.8197 4.3918-2.9878 6.3793-4.8184-1.9423-0.15774-3.0765-1.3671-1.237-2.1163 3.3855 3.4704 0.84891-1.6435-1.0251-2.4532 1.8134-0.57705 3.577-0.15448 3.3254-1.6514 1.9163-1.4025-1.8423-1.8553-3.1839-1.5383h-13.375zm-27.802 1.4478c-2.4498 0.6982-2.6206 6.5549-0.15835 3.3027 0.60434-1.3354 3.3971-2.9447 0.15835-3.3027zm11.446 0.20359c-1.4123 2.2153 0.20491 3.9915 1.3799 1.2894 0.83171-1.1283-0.61793-1.2481-1.3799-1.2894zm3.529 0.49767c-2.7288 1.2652-0.6726 4.2156-0.60506 4.8717 2.8746 0.99483 4.4732-0.65044 5.5607 2.1615 2.7352 1.5769-0.0538 4.3171-1.0806 5.0307 1.8493-1.6112 5.4042 4.3805 4.4722 1.2149-1.1118-0.81208 2.9852 1.3046 0.85962-1.3347-1.9561-3.1527 0.15527-1.4114 0.97995-0.67561 2.8049-2.5161-3.1736-2.8202-1.6812-5.4096-1.3078-1.0596-3.0229-4.2695-5.3387-3.6421-1.5502 2.0056-0.21416-4.37-2.4886-1.1796-0.11789 1.7834-0.0429 4.0465-0.70571 0.95682-0.44407-0.54087 0.764-1.7983 0.0273-1.9942zm-5.5649 0.02262c-1.8316 0.61085-1.7332 3.0865 0.51896 3.3519 0.77143-0.87963 0.30649-3.1853-0.51896-3.3519zm-7.1484 0.79175c-2.3791 0.56388-1.408 2.4829-0.67958 3.0233-2.9449 0.73792 4.4957 0.94313 0.79269 1.4105-3.0808 1.2308 2.9667 2.6809 3.9588 1.2216 3.8044 0.93074 0.13691-3.0465-0.19704-5.2025-1.6128-1.7315-0.0637 3.9915-1.5219 0.18441-0.50878 1.1305-2.1265 0.1666-2.353-0.63725zm75.601 0.24884c-3.1924 1.2499 1.9842 5.9664 0.69764 1.6755-0.12817-0.51812 0.2882-1.8871-0.69764-1.6755zm-66.666 1.9002c-2.2941 2.1567 2.916 3.9402-0.6589 5.5469-0.53601-2.0029-1.4583 1.0021-3.5035-0.61542-3.5159 1.4645-5.3139-0.76283-8.2575-2.2896-1.768-0.22016-1.1038 1.6805-1.2209 3.4602v14.755c1.7335 1.8245 0.67633 0.80498 0 0.30175 0.95147 3.2416-0.41957 7.9802 3.3308 9.8658 0.63757 1.183 3.3129 6.2231 3.4362 4.715-1.3412-1.4051-2.7174-5.6174-0.44789-1.863 2.0328 3.5688 4.7748 5.8835 8.7805 6.7328 2.1901 0.74522 3.9912 3.307 5.9171 2.7433 1.089 2.872-3.2274 5.6299 0.14491 8.3086 1.7605 2.7118 4.7162 4.4904 3.116 8.2976-1.1191 3.7183-0.63992 7.7697-1.6078 11.234-0.3004 2.1087 2.938 7.461 2.6575 3.1751 0.94557-2.9784 0.92064-6.2556 3.1476-8.3648 3.0471 0.02413 0.58237-3.2778 3.607-2.8464 1.8456-2.4201 2.3802-5.3071 5.4949-6.2681 0.37204-2.9376 5.1788-7.4366 0.21313-8.5803-1.3496-0.66545-4.8245-0.90473-4.559-1.2331 0.53804-2.9149-4.4935-3.7447-6.6342-4.9373-2.8108-1.9958-7.0342 3.3156-8.0245-1.261-0.59087-1.4399-2.7513-1.4633-1.7584-3.6852-1.7894 1.7803-5.2893 1.2392-4.373-2.1989 1.3916-2.8956 6.7356-3.0326 7.6463 0.45028-1.2644-3.8412 2.4439-6.8314 4.5025-9.5642 0.41916-1.3062 2.9097-2.4284 2.0527-0.69242 1.4602-0.05269 3.6733-2.6886 1.0794-1.472-0.0367-2.4039-2.273-1.7203-2.998-1.3789 1.3438-2.1336 8.245-0.96713 5.3551-4.4546-2.2393-0.90768-2.053-6.2044-4.318-3.2536 0.19059-1.8181-4.61-5.3771-4.5053-2.3283 0.58599 2.7281 0.10714 5.8709-1.1399 7.6591-0.26025-3.9976-7.0757-3.1141-6.1994-7.374 1.2694-2.0303 2.7528-4.8379 2.8942-4.5853 2.275-0.86894 4.1046-3.3965 1.4678-5.0581-0.14091 1.4482-1.983 4.4361-1.7237 0.82232-1.7058 2.0232-1.3162-3.2194-2.9138-3.7631zm54.45 1.4025c-3.9959 0.97784-5.5801 4.7958-7.5568 7.9582-2.9139 1.3142-2.8029 6.9583 0.45241 5.1557 0.87128 1.5223-0.60951 3.9217 1.9283 1.9312 2.047-2.7099 0.35794-7.0928 3.8414-8.8015 0.25373 1.3286-3.2133 6.2899 0.837 5.4744 3.6616 0.13821-2.6619 0.36497-0.88101 2.7047-1.8503-1.0982-0.88882 2.9993-3.304 2.0458-2.0923 1.1385-3.4643-0.52863-2.985-2.355-1.646 0.96057 0.51769 3.6704-2.3396 3.8333-0.64004 2.2737-5.9034 1.931-2.9102 4.2462 1.3289 3.4454-4.9515 0.21599-3.1685 4.3505 1.5254 4.0884 4.7224-1.3547 6.0194-2.4063 2.5025-1.9419 6.2107 3.3111 3.9588 3.5063 2.5251-0.33891 2.0062-2.7412-0.017-3.6713-1.0927-2.8349 3.459 1.3903 3.2066 2.8117 1.6059 3.0083 0.94461-3.0801 2.5788-0.38456-0.1908 2.8434 6.5742 0.66856 3.3444 4.2924-2.7769 0.55951-5.5101-0.71614-7.9008 0.10093-2.2251-0.01969-2.1135-2.398-2.9236-2.9935-2.8304 0.23004-6.3279 0.20403-8.2228 2.4914-2.049 2.8123-5.0038 6.7438-2.7705 10.335 2.2349 5.3215 7.7772 0.27603 10.963 3.4188 0.94693 1.3104-0.8206 2.868 1.2967 4.2874 0.7967 3.0235-0.90449 5.8943 1.0523 8.7846 1.0118 2.7182 1.6398 6.7866 5.4058 4.3028 3.9858-2.3994 2.9242-6.8227 6.2129-9.2726-2.6023-5.0381 3.1836-7.2471 4.6272-11.337-3.1539 0.46191-5.9638-2.6838-6.7258-5.8499-1.3249-1.5379-0.98367-3.8055 0.49633-0.91647 2.0343 1.9719 2.0782 7.8231 5.8413 4.813 1.7204-0.71984 6.4186-3.4657 2.6751-4.7153-2.413 1.7484-5.0752-5.2243-1.5318-1.18 2.576 1.0933 4.38 1.7447 4.38-1.8801v-29.497c-0.8024 0.82028-2.8638 2.3352-3.9043 1.3286-1.7904 0.24941-4.1539 3.7343-3.5912 0.36554-1.5562-0.10309-0.27859 3.0205-2.4166 3.1079-0.21529 1.6059-2.1599 0.29738-1.4294 1.8224-1.5006-1.0649-2.7707-4.427 0.18614-2.3167 4.391-1.3178-2.8956-4.2904-3.458-5.0089 0.94545-0.22662-1.0286-1.2122-1.2668-0.88224zm-36.24 0.88224c-1.4615 1.2182 2.7785 1.4476 0 0zm-19.522 0.65602c-1.6346 1.7105 2.6033 1.5724 0 0zm9.4784 1.6966c-1.2379 2.0286 1.829 0.74894 0 0zm27.101 2.3979c-1.4492 1.6691-3.362-0.43926-3.3932 0.99535 0.26265 0.43347 1.3147 3.5273 3.6194 1.2442 1.237-0.52171 0.74997-1.8369-0.22621-2.2395zm-30.856 0.99535c-2.7488 2.4015 4.6683 2.6227 0.58232 0.27543l-0.58232-0.27543zm36.262 6.6507c-1.9791 1.291 0.94944 4.0328-0.0431 5.3207-1.2401 2.1615 4.6083-0.15226 1.4846-1.8768-0.22257-1.4816-1.83-3.2894-1.4415-3.444zm-1.3347 2.6015c-2.7574 0.77986-0.62597 4.8062 0.35065 1.014 0.055-0.21986 0.12936-1.0214-0.35065-1.014zm-22.079 2.9182c-2.5652 1.7498-0.39843 3.4964 1.4816 2.7091-0.38595-1.0558-1.4642-1.721-1.4816-2.7091zm48.455 2.9408c1.28 0.6462-2.3455 1.7501-0.0498 2.8874 1.336 1.5717 0.83231 4.9455-1.3392 2.5576 0.40344-2.666-2.9436-4.657 1.389-5.445zm-6.5829 0.02262c-0.17366 1.7128 3.694 4.3751-0.47504 3.5063-2.2048 0.25872-5.507-0.06739-2.7294-2.8157 0.87765-0.52708 3.1821 1.8185 1.9829-0.37395 0.42514-0.02713 0.82107-0.18767 1.2216-0.3167zm-12.736 3.7099c-1.6081 1.0364 1.112 1.8311 0 0zm-40.379 9.6594c-0.2711 0.9048 5.086 1.8218 1.3893 0.37215l-0.55107-0.19405-0.83824-0.1781zm4.1624 1.2894c-1.6249 1.6502 3.3478 0.49302 0 0zm54.337 15.134c-3.5307 0.09113-3.0613 9.2016-0.60013 3.8108 0.2334-1.1698 1.1689-2.7138 0.60013-3.8108z"
     style="opacity:.2;fill:url(#radialGradient5000)" />
  <g
     id="layer2-01"
     style="display:none"
     transform="translate(-314.29 59.754)">
    <rect
       id="rect3745-1"
       style="opacity:.9;filter:url(#filter3174-6);fill:url(#ButtonShadow-4)"
       rx="6"
       ry="6"
       height="85"
       width="86"
       y="7"
       x="5" />
  </g>
  <path
     id="rect3728"
     d="m-113.32 20.607c-4.6841-0.16647-7.9912 4.6034-7.2994 9.0477 0.0221 29.163-0.0442 58.328 0.0331 87.49-1.0446 2.8268 5.4663 7.1448 3.9968 5.8152-3.8994-2.4461-2.5816-7.4071-2.8133-11.263 0.0208-27.704-0.0415-55.41 0.0311-83.113 0.25414-4.0085 4.3958-6.0784 7.9767-5.5167 25.52 0.02106 51.042-0.04206 76.561 0.03147 3.965 0.25693 6.0124 4.444 5.4568 8.0643-0.02847 29.09 0.05706 58.184-0.04282 87.272 0.50237 2.9902-6.2688 6.7991-1.3233 3.6789 3.7273-3.0954 2.2982-8.2542 2.5826-12.481-0.02506-27.467 0.05-54.937-0.03759-82.403-0.3053-4.5928-4.9895-7.2561-9.1869-6.6229h-75.935z"
     style="opacity:.25;fill:url(#linearGradient69023)" />
  <path
     id="rect895-7"
     style="fill:url(#radialGradient68905)"
     d="m-44.336 243c-7.9694-2.4493-27.013 15.175-25.653 23.038-0.05014 0.97378-0.08877 1.9648-0.08877 2.9572v52.419c0 20.876 10.712 33.859 22.318 33.859h67.038c12.638 0 24.318-11.245 24.318-25.859v-64.017c0.69568-10.93-21.287-24.662-25.93-22.621-47.846 0.86545-18.017 0.2237-62.003 0.22371z" />
  <g
     id="g74072"
     transform="matrix(2.5066 0 0 2.5058 307.37 -116.43)">
    <rect
       id="rect810"
       ry="10.607"
       style="stroke:url(#linearGradient74079);fill:url(#linearGradient74077)"
       transform="rotate(90)"
       height="43.689"
       width="43.689"
       y="75.244"
       x="50.161" />
    <path
       id="path3273"
       style="opacity:.4;stroke:url(#linearGradient74081);stroke-linecap:square;stroke-width:1px;fill:none"
       d="m-118.55 61.72h40.99" />
    <path
       id="rect3326"
       style="opacity:.4;fill:url(#linearGradient74083)"
       d="m-99.16 50.612h4v17.75h-1.1812-1.2094-0.97358-0.63585v-17.75z" />
  </g>
  <g
     transform="matrix(0.2097152,0,0,0.2097152,-115.9541,-25.52756)"
     id="g4921">
    <path
       style="fill:#ffffff"
       inkscape:connector-curvature="0"
       d="m 921.18487,328.18204 h 150.53363 v 81.05657 H 921.18487 z"
       id="path49" />
    <path
       style="fill:#6a6a6a"
       inkscape:connector-curvature="0"
       d="m 932.76437,339.76155 v 57.89755 h 11.5796 v -57.89755 h -11.5796 z m 23.1591,0 v 57.89755 h 23.159 v -57.89755 h -23.159 z m 34.7385,0 v 57.89755 h 11.57953 v -57.89755 h -11.57953 z m 23.15903,0 v 57.89755 h 11.5795 v -57.89755 h -11.5795 z m 23.159,0 v 57.89755 h 23.159 v -57.89755 h -23.159 z"
       id="path51" />
  </g>
  <g
     id="g4017"
     transform="translate(1.103442,0)">
    <path
       i:knockout="Off"
       d="m 79.305819,84.644195 c 0.05059,1.35813 -0.396306,2.01808 -0.800485,3.18509 l -0.72684,0.36144 c -0.594184,1.15464 0.05902,0.73303 -0.366515,1.65101 -0.928654,0.82466 -2.814068,2.57966 -3.417803,2.74042 -0.441279,-0.01 0.298496,-0.52053 0.395183,-0.72009 -1.241765,0.8522 -0.996671,1.27942 -2.896137,1.79828 l -0.05509,-0.12423 c -4.682617,2.20358 -11.187683,-2.16255 -11.102239,-8.11897 -0.04947,0.37776 -0.142221,0.28331 -0.245653,0.43509 -0.241722,-3.06421 1.41546,-6.14192 4.210417,-7.40055 2.733682,-1.35251 5.938434,-0.79824 7.895238,1.02815 -1.074811,-1.40872 -3.215998,-2.90232 -5.751804,-2.76404 -2.485214,0.0405 -4.810781,1.61952 -5.586535,3.33461 -1.272678,0.80105 -1.421084,3.08951 -1.975355,3.50887 -0.74708,5.48648 1.403662,7.85589 5.042386,10.64466 0.571131,0.38562 0.160771,0.44465 0.237219,0.73809 -1.208595,-0.56551 -2.314885,-1.41997 -3.225549,-2.46611 0.483439,0.70661 1.004539,1.39354 1.678546,1.9332 -1.140581,-0.38507 -2.663415,-2.76179 -3.106939,-2.85848 1.964672,3.51787 7.970001,6.16947 11.116289,4.85351 -1.455937,0.0539 -3.304811,0.0298 -4.939512,-0.57451 -0.68862,-0.35358 -1.621207,-1.08492 -1.454249,-1.22153 4.292488,1.60265 8.725516,1.2131 12.439001,-1.76343 0.945517,-0.7364 1.977601,-1.98828 2.276096,-2.00515 -0.449147,0.6757 0.07702,0.32492 -0.268137,0.92135 0.939896,-1.51833 -0.409801,-0.61835 0.9725,-2.62181 l 0.510421,0.70267 c -0.191126,-1.26144 1.565555,-2.79158 1.386795,-4.78493 0.403056,-0.60935 0.449148,0.65658 0.02194,2.05856 0.593058,-1.55544 0.156837,-1.80559 0.308616,-3.08951 0.16358,0.43172 0.381129,0.88986 0.491869,1.34576 -0.386749,-1.50373 0.395187,-2.53132 0.589685,-3.40544 -0.192252,-0.0843 -0.59643,0.66445 -0.689745,-1.11078 0.01406,-0.77126 0.215302,-0.40419 0.292313,-0.59419 -0.150654,-0.0871 -0.548087,-0.6785 -0.789244,-1.81233 0.173701,-0.26702 0.467701,0.69087 0.706049,0.72965 -0.153464,-0.90111 -0.417108,-1.5886 -0.428351,-2.2806 -0.697049,-1.45593 -0.246779,0.19451 -0.811167,-0.62509 -0.74202,-2.31264 0.614982,-0.53684 0.70717,-1.58692 1.123156,1.62739 1.763431,4.1514 2.058554,5.19641 -0.224858,-1.27437 -0.587437,-2.50939 -1.030966,-3.70393 0.342346,0.14447 -0.550333,-2.62125 0.444652,-0.78981 -1.06188,-3.90405 -4.540954,-7.55233 -7.742334,-9.26348 0.390687,0.35809 0.884805,0.8078 0.708297,0.87862 -1.593102,-0.9472 -1.313158,-1.02196 -1.541386,-1.42221 -1.29573,-0.52784 -1.3823,0.0433 -2.23956,0.002 -2.445301,-1.29741 -2.916377,-1.15968 -5.166616,-1.97142 l 0.102307,0.47894 c -1.619522,-0.53965 -1.887099,0.2035 -3.637037,0.002 -0.106244,-0.0826 0.561014,-0.3013 1.110787,-0.38056 -1.566119,0.20686 -1.493043,-0.30918 -3.025432,0.0568 0.377195,-0.26477 0.777439,-0.44072 1.179932,-0.66558 -1.276618,0.0776 -3.049041,0.74315 -2.502081,0.13717 -2.082721,0.92977 -5.78216,2.2345 -7.858135,4.18118 l -0.06521,-0.43621 c -0.951139,1.14169 -4.14802,3.40992 -4.402669,4.89004 l -0.254652,0.059 c -0.49412,0.83815 -0.815101,1.7876 -1.207472,2.64936 -0.647024,1.10348 -0.948891,0.42497 -0.856698,0.59812 -1.273246,2.58133 -1.906775,4.75006 -2.452611,6.5298 0.388998,0.58181 0.0096,3.50324 0.156272,5.84118 -0.638591,11.54858 8.104915,22.760425 17.662399,25.348505 1.400849,0.50199 3.483572,0.484 5.255432,0.53347 -2.090031,-0.59811 -2.359856,-0.31648 -4.397047,-1.02646 -1.468867,-0.69255 -1.790411,-1.48237 -2.831494,-2.38572 l 0.412047,0.72797 c -2.040563,-0.72235 -1.186672,-0.89379 -2.847231,-1.41939 l 0.440157,-0.57396 c -0.661638,-0.0506 -1.752188,-1.11414 -2.05012,-1.70496 l -0.724034,0.0286 c -0.869067,-1.07145 -1.332832,-1.84552 -1.298544,-2.44531 l -0.233847,0.41711 c -0.264769,-0.45477 -3.199133,-4.02378 -1.676859,-3.19295 -0.282757,-0.25746 -0.658828,-0.41993 -1.066376,-1.16137 l 0.309737,-0.35359 c -0.731343,-0.942705 -1.348008,-2.150735 -1.30079,-2.553245 0.390685,0.5273 0.661639,0.62624 0.930341,0.71673 -1.850001,-4.58929 -1.953997,-0.25239 -3.354285,-4.67136 l 0.295685,-0.0236 c -0.226543,-0.34347 -0.365389,-0.71392 -0.547523,-1.07874 l 0.129291,-1.28499 c -1.331142,-1.538 -0.372133,-6.5461 -0.17932,-9.29215 0.132103,-1.11641 1.111347,-2.30533 1.855058,-4.16995 l -0.453085,-0.0776 c 0.86682,-1.51103 4.947947,-6.07054 6.838981,-5.83669 0.915725,-1.15013 -0.182134,-0.005 -0.361456,-0.29343 2.011892,-2.0816 2.6443,-1.47056 4.001866,-1.8455 1.463245,-0.86851 -1.256382,0.33952 -0.562701,-0.3311 2.531308,-0.6459 1.793223,-1.46944 5.094664,-1.79716 0.348524,0.19787 -0.807795,0.3058 -1.097859,0.5627 2.108022,-1.03209 6.672023,-0.79655 9.637866,0.57225 3.438604,1.60828 7.304429,6.36004 7.457333,10.83073 l 0.173698,0.0466 c -0.08769,1.77749 0.272074,3.83322 -0.352459,5.72089 l 0.422164,-0.89437"
       id="path4075-7-3-0"
       inkscape:connector-curvature="0"
       style="color:#bebebe;fill:#a98a5a;fill-opacity:1;fill-rule:nonzero;stroke:none;stroke-width:0;marker:none;visibility:visible;display:inline;overflow:visible;enable-background:accumulate" />
    <path
       i:knockout="Off"
       d="m 77.526307,84.951511 c 0.05059,1.35812 -0.396307,2.01808 -0.800484,3.18508 l -0.726842,0.36144 c -0.594183,1.15464 0.05902,0.73304 -0.366514,1.65101 -0.928655,0.82466 -2.814068,2.57966 -3.417803,2.74043 -0.44128,-0.01 0.298495,-0.52054 0.395183,-0.7201 -1.241765,0.8522 -0.996672,1.27942 -2.896137,1.79828 l -0.05509,-0.12423 c -4.682617,2.20358 -11.187683,-2.16255 -11.102239,-8.11897 -0.04947,0.37776 -0.142222,0.28331 -0.245654,0.4351 -0.241722,-3.06422 1.415462,-6.14193 4.210418,-7.40056 2.733681,-1.35251 5.938433,-0.79824 7.895237,1.02816 -1.07481,-1.40873 -3.215997,-2.90234 -5.751803,-2.76404 -2.485214,0.0405 -4.810781,1.61952 -5.586536,3.3346 -1.272678,0.80105 -1.421084,3.08952 -1.975354,3.50887 -0.74708,5.48648 1.403661,7.85589 5.042385,10.64466 0.571131,0.38563 0.160771,0.44465 0.23722,0.73808 -1.208596,-0.5655 -2.314885,-1.41996 -3.225549,-2.46609 0.483439,0.7066 1.004539,1.39353 1.678545,1.93319 -1.140581,-0.38507 -2.663415,-2.76179 -3.106939,-2.85848 1.964673,3.51787 7.970002,6.16947 11.11629,4.85351 -1.455937,0.0539 -3.304812,0.0298 -4.939512,-0.57451 -0.68862,-0.35358 -1.621208,-1.08493 -1.45425,-1.22153 4.292488,1.60266 8.725517,1.2131 12.439002,-1.76342 0.945517,-0.7364 1.9776,-1.98829 2.276096,-2.00516 -0.449148,0.6757 0.07702,0.32492 -0.268138,0.92136 0.939896,-1.51834 -0.409801,-0.61836 0.972501,-2.62182 l 0.510421,0.70267 c -0.191127,-1.26144 1.565555,-2.79158 1.386795,-4.78493 0.403056,-0.60935 0.449148,0.65658 0.02194,2.05856 0.593058,-1.55544 0.156837,-1.80559 0.308616,-3.08951 0.163581,0.43171 0.381129,0.88986 0.491869,1.34576 -0.386748,-1.50373 0.395188,-2.53132 0.589685,-3.40544 -0.192251,-0.0843 -0.59643,0.66445 -0.689745,-1.11078 0.01406,-0.77126 0.215302,-0.40419 0.292313,-0.59419 -0.150654,-0.0871 -0.548086,-0.6785 -0.789244,-1.81234 0.173702,-0.26701 0.467701,0.69088 0.706049,0.72966 -0.153464,-0.90111 -0.417108,-1.5886 -0.42835,-2.2806 -0.69705,-1.45593 -0.24678,0.19451 -0.811168,-0.62509 -0.74202,-2.31264 0.614982,-0.53684 0.707171,-1.58691 1.123155,1.62738 1.76343,4.15139 2.058553,5.1964 -0.224857,-1.27436 -0.587436,-2.50939 -1.030966,-3.70392 0.342346,0.14446 -0.550333,-2.62126 0.444653,-0.78982 -1.061881,-3.90405 -4.540955,-7.55233 -7.742335,-9.26348 0.390686,0.35809 0.884805,0.80779 0.708296,0.87862 -1.593101,-0.9472 -1.313157,-1.02196 -1.541385,-1.42221 -1.295731,-0.52785 -1.382301,0.0433 -2.239561,0.002 -2.445301,-1.29742 -2.916377,-1.15969 -5.166616,-1.97142 l 0.102307,0.47895 c -1.619521,-0.53966 -1.887099,0.20349 -3.637037,0.002 -0.106244,-0.0826 0.561016,-0.30131 1.110788,-0.38057 -1.56612,0.20686 -1.493043,-0.30918 -3.025432,0.0568 0.377196,-0.26477 0.777439,-0.44072 1.179932,-0.66558 -1.276619,0.0776 -3.049041,0.74315 -2.50208,0.13717 -2.082723,0.92977 -5.782161,2.2345 -7.858137,4.18118 l -0.06521,-0.43622 c -0.951139,1.1417 -4.14802,3.40994 -4.402669,4.89005 l -0.254652,0.059 c -0.49412,0.83814 -0.815101,1.7876 -1.207473,2.64936 -0.647024,1.10348 -0.94889,0.42497 -0.856698,0.59812 -1.273246,2.58133 -1.906775,4.75006 -2.452611,6.5298 0.388998,0.58181 0.0096,3.50325 0.156273,5.84118 -0.638592,11.54858 8.104915,22.760429 17.662399,25.348509 1.400849,0.502 3.483573,0.484 5.255432,0.53348 -2.090031,-0.59812 -2.359856,-0.31649 -4.397047,-1.02647 -1.468868,-0.69255 -1.790412,-1.48237 -2.831494,-2.38573 l 0.412048,0.72797 c -2.040566,-0.72309 -1.186675,-0.89455 -2.847234,-1.42015 l 0.440156,-0.57395 c -0.661638,-0.0506 -1.752188,-1.11415 -2.05012,-1.70496 l -0.724034,0.0286 c -0.869066,-1.07145 -1.332832,-1.84551 -1.298543,-2.44531 l -0.233847,0.41712 c -0.26477,-0.45475 -3.199133,-4.02375 -1.676859,-3.19292 -0.282757,-0.25746 -0.658828,-0.41992 -1.066377,-1.16138 l 0.309737,-0.35358 c -0.731343,-0.942709 -1.348007,-2.150739 -1.30079,-2.553239 0.390686,0.52729 0.661639,0.62623 0.930342,0.71672 -1.850001,-4.58929 -1.953997,-0.25239 -3.354285,-4.67136 l 0.295684,-0.0236 c -0.226542,-0.34347 -0.365389,-0.71392 -0.547522,-1.07874 l 0.129291,-1.28498 c -1.331142,-1.53802 -0.372133,-6.54612 -0.179321,-9.29216 0.132104,-1.1164 1.111347,-2.30533 1.855059,-4.16995 l -0.453086,-0.0776 c 0.86682,-1.51102 4.947947,-6.07053 6.838982,-5.83668 0.915725,-1.15013 -0.182134,-0.005 -0.361456,-0.29343 2.011892,-2.0816 2.644299,-1.47056 4.001866,-1.8455 1.463245,-0.86851 -1.256381,0.33952 -0.562701,-0.33111 2.531308,-0.64589 1.793223,-1.46943 5.094664,-1.79715 0.348524,0.19787 -0.807795,0.3058 -1.097859,0.5627 2.108022,-1.03209 6.672024,-0.79656 9.637865,0.57225 3.438605,1.60828 7.30443,6.36004 7.457334,10.83073 l 0.173698,0.0466 c -0.08769,1.77749 0.272074,3.83322 -0.352459,5.72088 l 0.422165,-0.89436"
       id="path4075-7-3"
       inkscape:connector-curvature="0"
       style="color:#bebebe;fill:#d8c4a5;fill-opacity:1;fill-rule:nonzero;stroke:none;stroke-width:0;marker:none;visibility:visible;display:inline;overflow:visible;enable-background:accumulate" />
    <path
       i:knockout="Off"
       d="m 78.403703,84.821426 c 0.0506,1.358123 -0.396307,2.018075 -0.800485,3.185077 l -0.726841,0.361451 c -0.594184,1.154634 0.05902,0.733034 -0.366514,1.651004 -0.928656,0.82466 -2.814069,2.57966 -3.417804,2.74043 -0.441279,-0.01 0.298495,-0.52054 0.395183,-0.7201 -1.241764,0.8522 -0.996672,1.27942 -2.896137,1.79828 l -0.05509,-0.12423 c -4.682617,2.20358 -11.187683,-2.16255 -11.102239,-8.118973 -0.04947,0.377759 -0.142222,0.283317 -0.245653,0.435096 -0.241722,-3.064219 1.41546,-6.141928 4.210417,-7.400558 2.733682,-1.352503 5.938434,-0.798235 7.895237,1.028154 -1.074809,-1.408722 -3.215997,-2.902326 -5.751803,-2.764039 -2.485215,0.04048 -4.810781,1.619522 -5.586536,3.33461 -1.272678,0.801046 -1.421084,3.089515 -1.975354,3.50887 -0.74708,5.48647 1.403661,7.85589 5.042385,10.64465 0.571132,0.38563 0.160771,0.44466 0.23722,0.73809 -1.208596,-0.5655 -2.314885,-1.41996 -3.22555,-2.4661 0.48344,0.70661 1.004541,1.39354 1.678547,1.9332 -1.140582,-0.38507 -2.663415,-2.76179 -3.10694,-2.85848 1.964673,3.51787 7.970002,6.16948 11.11629,4.85351 -1.455937,0.054 -3.304812,0.0298 -4.939513,-0.57451 -0.688619,-0.35358 -1.621207,-1.08493 -1.454249,-1.22152 4.292489,1.60265 8.725517,1.21309 12.439002,-1.76343 0.945518,-0.7364 1.977602,-1.98829 2.276097,-2.00515 -0.449148,0.67569 0.07701,0.32491 -0.268138,0.92134 0.939896,-1.51833 -0.409801,-0.61835 0.972501,-2.62181 l 0.51042,0.70267 c -0.191126,-1.26144 1.565555,-2.791579 1.386796,-4.784923 0.403056,-0.609359 0.449148,0.656576 0.02193,2.058552 0.593058,-1.555438 0.156837,-1.805591 0.308615,-3.089514 0.163581,0.43172 0.38113,0.889864 0.49187,1.345761 -0.386749,-1.503723 0.395187,-2.531313 0.589685,-3.405439 -0.192251,-0.08432 -0.59643,0.664448 -0.689745,-1.110785 0.01406,-0.771253 0.215302,-0.404177 0.292313,-0.594183 -0.150654,-0.08713 -0.548086,-0.6785 -0.789244,-1.812334 0.173701,-0.267015 0.4677,0.690868 0.706049,0.729657 -0.153464,-0.901109 -0.417108,-1.588604 -0.428351,-2.280595 -0.697049,-1.455941 -0.246779,0.194499 -0.811166,-0.625101 -0.742021,-2.312639 0.61498,-0.536842 0.707169,-1.586917 1.123156,1.627391 1.763432,4.151393 2.058555,5.196412 -0.224858,-1.27437 -0.587438,-2.509389 -1.030967,-3.703932 0.342346,0.14447 -0.550333,-2.621254 0.444652,-0.789808 -1.061878,-3.904052 -4.540952,-7.552332 -7.742332,-9.263482 0.390687,0.358085 0.884805,0.807795 0.708297,0.878621 -1.593102,-0.9472 -1.313158,-1.021965 -1.541386,-1.422209 -1.29573,-0.527846 -1.3823,0.04328 -2.23956,10e-4 -2.445301,-1.297418 -2.916377,-1.159692 -5.166616,-1.971419 l 0.102307,0.478941 c -1.619522,-0.539652 -1.887099,0.203494 -3.637037,10e-4 -0.106244,-0.08264 0.561014,-0.301307 1.110787,-0.380569 -1.566119,0.206868 -1.493043,-0.309176 -3.025432,0.05678 0.377195,-0.264766 0.777439,-0.440715 1.179932,-0.665571 -1.276618,0.07758 -3.049041,0.743147 -2.502081,0.13716 -2.082721,0.929777 -5.78216,2.234503 -7.858135,4.181188 l -0.06521,-0.436218 c -0.951139,1.141702 -4.14802,3.409934 -4.402669,4.890043 l -0.254652,0.05902 c -0.49412,0.838147 -0.815101,1.7876 -1.207472,2.64936 -0.647024,1.10348 -0.948891,0.424975 -0.856698,0.598116 -1.273246,2.58134 -1.906775,4.750072 -2.452611,6.529802 0.388998,0.581814 0.0096,3.50325 0.156272,5.841183 -0.638591,11.548583 8.104915,22.760445 17.662399,25.348525 1.400849,0.50199 3.483572,0.484 5.255432,0.53347 -2.090031,-0.59811 -2.359856,-0.31649 -4.397047,-1.02647 -1.468867,-0.69256 -1.790411,-1.48236 -2.831494,-2.38572 l 0.412047,0.72797 c -2.040563,-0.72234 -1.186672,-0.89379 -2.847231,-1.41939 l 0.440157,-0.57395 c -0.661638,-0.0506 -1.752188,-1.11415 -2.05012,-1.70497 l -0.724034,0.0286 c -0.869067,-1.07144 -1.332832,-1.8455 -1.298544,-2.4453 l -0.233847,0.41711 c -0.264769,-0.45478 -3.199133,-4.02379 -1.676859,-3.19295 -0.282757,-0.25746 -0.658828,-0.41992 -1.066376,-1.16138 l 0.309737,-0.35358 c -0.731343,-0.942712 -1.348008,-2.150752 -1.30079,-2.553242 0.390685,0.52728 0.661639,0.62622 0.930341,0.71672 -1.850001,-4.58929 -1.953997,-0.2524 -3.354285,-4.67136 l 0.295685,-0.0236 c -0.226543,-0.34347 -0.365389,-0.71392 -0.547523,-1.07874 l 0.129291,-1.28449 c -1.331142,-1.53801 -0.372133,-6.546107 -0.17932,-9.292155 0.132103,-1.116406 1.111347,-2.305328 1.855058,-4.169943 l -0.453085,-0.07758 c 0.86682,-1.511028 4.947947,-6.070535 6.838981,-5.836685 0.915725,-1.150134 -0.182134,-0.0045 -0.361456,-0.293436 2.011892,-2.081597 2.6443,-1.470555 4.001866,-1.8455 1.463245,-0.868504 -1.256382,0.33953 -0.562701,-0.331099 2.531308,-0.645898 1.793223,-1.469432 5.094664,-1.79716 0.348524,0.197876 -0.807795,0.305804 -1.097859,0.562703 2.108022,-1.032088 6.672023,-0.79655 9.637866,0.572255 3.438604,1.608278 7.304429,6.360038 7.457333,10.830725 l 0.173698,0.04666 c -0.08769,1.777484 0.272075,3.833224 -0.352459,5.720887 l 0.422165,-0.894362"
       id="path4075-7"
       inkscape:connector-curvature="0"
       style="color:#bebebe;fill:url(#linearGradient4022);fill-opacity:1;fill-rule:nonzero;stroke:none;stroke-width:0;marker:none;visibility:visible;display:inline;overflow:visible;enable-background:accumulate" />
  </g>
</svg>
