<?xml version="1.0" encoding="UTF-8" standalone="no"?>
<!-- Created with Inkscape (http://www.inkscape.org/) -->

<svg
   xmlns:dc="http://purl.org/dc/elements/1.1/"
   xmlns:cc="http://creativecommons.org/ns#"
   xmlns:rdf="http://www.w3.org/1999/02/22-rdf-syntax-ns#"
   xmlns:svg="http://www.w3.org/2000/svg"
   xmlns="http://www.w3.org/2000/svg"
   xmlns:xlink="http://www.w3.org/1999/xlink"
   xmlns:sodipodi="http://sodipodi.sourceforge.net/DTD/sodipodi-0.dtd"
   xmlns:inkscape="http://www.inkscape.org/namespaces/inkscape"
   id="svg3449"
   height="128"
   width="128"
   version="1.0"
   inkscape:version="0.48.4 r9939"
   sodipodi:docname="postr.svg">
  <sodipodi:namedview
     pagecolor="#ffffff"
     bordercolor="#666666"
     borderopacity="1"
     objecttolerance="10"
     gridtolerance="10"
     guidetolerance="10"
     inkscape:pageopacity="0"
     inkscape:pageshadow="2"
     inkscape:window-width="1360"
     inkscape:window-height="707"
     id="namedview107"
     showgrid="false"
     inkscape:zoom="2.6074563"
     inkscape:cx="2.5575172"
     inkscape:cy="65.270859"
     inkscape:window-x="-2"
     inkscape:window-y="33"
     inkscape:window-maximized="1"
     inkscape:current-layer="svg3449" />
  <metadata
     id="metadata56">
    <rdf:RDF>
      <cc:Work
         rdf:about="">
        <dc:format>image/svg+xml</dc:format>
        <dc:type
           rdf:resource="http://purl.org/dc/dcmitype/StillImage" />
        <dc:title></dc:title>
      </cc:Work>
    </rdf:RDF>
  </metadata>
  <defs
     id="defs3451">
    <linearGradient
       id="linearGradient3514"
       y2="-9.1034"
       gradientUnits="userSpaceOnUse"
       x2="66.492"
       gradientTransform="matrix(.96826 0 0 .97948 2.179 .16587)"
       y1="-42.638"
       x1="67.952">
      <stop
         id="stop4620"
         style="stop-color:#37414b"
         offset="0" />
      <stop
         id="stop4622"
         style="stop-color:#37414b;stop-opacity:0"
         offset="1" />
    </linearGradient>
    <linearGradient
       id="linearGradient3516"
       y2="-11.847"
       gradientUnits="userSpaceOnUse"
       x2="58.98"
       gradientTransform="matrix(.96826 0 0 .97948 2.179 .16587)"
       y1="-118.55"
       x1="57.173">
      <stop
         id="stop4596"
         offset="0" />
      <stop
         id="stop4598"
         style="stop-opacity:0"
         offset="1" />
    </linearGradient>
    <linearGradient
       id="linearGradient3519"
       y2="50.369"
       gradientUnits="userSpaceOnUse"
       x2="76.558"
       gradientTransform="matrix(.96826 0 0 .97948 3.2423 -129.19)"
       y1="13.164"
       x1="76.558">
      <stop
         id="stop3392"
         style="stop-color:#425e7b"
         offset="0" />
      <stop
         id="stop3394"
         style="stop-color:#7a91a7"
         offset="1" />
    </linearGradient>
    <linearGradient
       id="linearGradient3521"
       y2="-8.7399"
       gradientUnits="userSpaceOnUse"
       x2="60.217"
       gradientTransform="matrix(.96826 0 0 .97948 2.179 .16587)"
       y1="-123.72"
       x1="60.395">
      <stop
         id="stop3392-4-8"
         style="stop-color:#425e7b"
         offset="0" />
      <stop
         id="stop3394-8-0"
         style="stop-color:#7a91a7"
         offset="1" />
    </linearGradient>
    <radialGradient
       id="radialGradient3349"
       gradientUnits="userSpaceOnUse"
       cy="45.647"
       cx="42.148"
       gradientTransform="matrix(.0084350 1.8886 -1.5444 .0068980 113.65 -57.814)"
       r="58.984">
      <stop
         id="stop4855"
         style="stop-color:#b8b8b8"
         offset="0" />
      <stop
         id="stop4857"
         style="stop-color:#fff"
         offset="1" />
    </radialGradient>
    <filter
       id="filter3174"
       color-interpolation-filters="sRGB">
      <feGaussianBlur
         id="feGaussianBlur3176"
         stdDeviation="1.71" />
    </filter>
    <linearGradient
       id="ButtonShadow-1"
       x1="45.448"
       gradientUnits="userSpaceOnUse"
       y1="92.54"
       gradientTransform="scale(1.0059 .99417)"
       x2="45.448"
       y2="7.0165">
      <stop
         id="stop3750-87"
         offset="0" />
      <stop
         id="stop3752-56"
         style="stop-opacity:.58824"
         offset="1" />
    </linearGradient>
    <filter
       id="filter3174-5"
       color-interpolation-filters="sRGB">
      <feGaussianBlur
         id="feGaussianBlur3176-70"
         stdDeviation="1.71" />
    </filter>
    <linearGradient
       id="linearGradient6303"
       y2="13.937"
       gradientUnits="userSpaceOnUse"
       x2="14.134"
       gradientTransform="matrix(1 0 0 1.4586 0 -3.23)"
       y1="45.621"
       x1="36.417">
      <stop
         id="stop6299"
         style="stop-color:#fff;stop-opacity:.25604"
         offset="0" />
      <stop
         id="stop6301"
         style="stop-color:#fff;stop-opacity:.38164"
         offset="1" />
    </linearGradient>
    <filter
       id="filter3174-2"
       color-interpolation-filters="sRGB">
      <feGaussianBlur
         id="feGaussianBlur3176-78"
         stdDeviation="1.71" />
    </filter>
    <filter
       id="filter3174-24"
       color-interpolation-filters="sRGB">
      <feGaussianBlur
         id="feGaussianBlur3176-0"
         stdDeviation="1.71" />
    </filter>
    <filter
       id="filter3174-8"
       color-interpolation-filters="sRGB">
      <feGaussianBlur
         id="feGaussianBlur3176-9"
         stdDeviation="1.71" />
    </filter>
    <linearGradient
       id="linearGradient7604"
       y2="7.0165"
       gradientUnits="userSpaceOnUse"
       x2="45.448"
       gradientTransform="matrix(1.0059 0 0 .99417 -189.19 -21.187)"
       y1="92.54"
       x1="45.448">
      <stop
         id="stop3750-3"
         offset="0" />
      <stop
         id="stop3752-7"
         style="stop-opacity:.58824"
         offset="1" />
    </linearGradient>
    <filter
       id="filter3174-0"
       color-interpolation-filters="sRGB">
      <feGaussianBlur
         id="feGaussianBlur3176-2"
         stdDeviation="1.71" />
    </filter>
    <clipPath
       id="clipPath3613-6">
      <rect
         id="rect3615-3"
         style="fill:#fff"
         rx="6"
         ry="6"
         height="84"
         width="84"
         y="6"
         x="6" />
    </clipPath>
    <linearGradient
       id="linearGradient3613-39"
       x1="48"
       gradientUnits="userSpaceOnUse"
       y1="20.221"
       x2="48"
       y2="138.66">
      <stop
         id="stop3739-85"
         style="stop-color:#fff"
         offset="0" />
      <stop
         id="stop3741-16"
         style="stop-color:#fff;stop-opacity:0"
         offset="1" />
    </linearGradient>
    <filter
       id="filter3794-0"
       height="1.384"
       width="1.384"
       color-interpolation-filters="sRGB"
       y="-.192"
       x="-.192">
      <feGaussianBlur
         id="feGaussianBlur3796-2"
         stdDeviation="5.28" />
    </filter>
    <filter
       id="filter3174-6"
       color-interpolation-filters="sRGB">
      <feGaussianBlur
         id="feGaussianBlur3176-27"
         stdDeviation="1.71" />
    </filter>
    <filter
       id="filter3174-46"
       color-interpolation-filters="sRGB">
      <feGaussianBlur
         id="feGaussianBlur3176-8"
         stdDeviation="1.71" />
    </filter>
    <linearGradient
       id="linearGradient10101"
       y2="7.0165"
       gradientUnits="userSpaceOnUse"
       x2="45.448"
       gradientTransform="matrix(1.0059 0 0 .99417 -177.65 -42.339)"
       y1="92.54"
       x1="45.448">
      <stop
         id="stop3750-45"
         offset="0" />
      <stop
         id="stop3752-50"
         style="stop-opacity:.58824"
         offset="1" />
    </linearGradient>
    <linearGradient
       id="linearGradient3750"
       x1="16"
       gradientUnits="userSpaceOnUse"
       y1="40"
       x2="48"
       y2="40">
      <stop
         id="stop3746"
         style="stop-color:#167fff"
         offset="0" />
      <stop
         id="stop3748"
         style="stop-color:#0063db"
         offset="1" />
    </linearGradient>
    <linearGradient
       id="linearGradient3742"
       x1="16"
       gradientUnits="userSpaceOnUse"
       y1="40"
       x2="48"
       y2="40">
      <stop
         id="stop3738"
         style="stop-color:#ff41a3"
         offset="0" />
      <stop
         id="stop3740"
         style="stop-color:#ff0084"
         offset="1" />
    </linearGradient>
    <filter
       id="filter3174-004"
       color-interpolation-filters="sRGB">
      <feGaussianBlur
         id="feGaussianBlur3176-97"
         stdDeviation="1.71" />
    </filter>
    <linearGradient
       inkscape:collect="always"
       xlink:href="#ButtonShadow-1"
       id="linearGradient3084"
       gradientUnits="userSpaceOnUse"
       gradientTransform="scale(1.0059,0.99417)"
       x1="45.448"
       y1="92.54"
       x2="45.448"
       y2="7.0165" />
    <linearGradient
       inkscape:collect="always"
       xlink:href="#linearGradient3750"
       id="linearGradient3106"
       gradientUnits="userSpaceOnUse"
       x1="16"
       y1="40"
       x2="48"
       y2="40" />
    <linearGradient
       inkscape:collect="always"
       xlink:href="#linearGradient3742"
       id="linearGradient3108"
       gradientUnits="userSpaceOnUse"
       x1="16"
       y1="40"
       x2="48"
       y2="40" />
    <linearGradient
       inkscape:collect="always"
       xlink:href="#linearGradient3742"
       id="linearGradient3119"
       gradientUnits="userSpaceOnUse"
       x1="16"
       y1="40"
       x2="48"
       y2="40"
       gradientTransform="matrix(0,1.3035,-1.3035,0,139.7787,1.4336)" />
    <linearGradient
       inkscape:collect="always"
       xlink:href="#linearGradient3750"
       id="linearGradient3122"
       gradientUnits="userSpaceOnUse"
       x1="16"
       y1="40"
       x2="48"
       y2="40"
       gradientTransform="matrix(0,1.3035,-1.3035,0,92.5051,1.4336)" />
    <linearGradient
       inkscape:collect="always"
       xlink:href="#linearGradient3750"
       id="linearGradient3143"
       gradientUnits="userSpaceOnUse"
       gradientTransform="matrix(0,1.3035,-1.3035,0,92.5051,1.4336)"
       x1="16"
       y1="40"
       x2="48"
       y2="40" />
    <linearGradient
       inkscape:collect="always"
       xlink:href="#linearGradient3742"
       id="linearGradient3145"
       gradientUnits="userSpaceOnUse"
       gradientTransform="matrix(0,1.3035,-1.3035,0,139.7787,1.4336)"
       x1="16"
       y1="40"
       x2="48"
       y2="40" />
  </defs>
  <rect
     id="rect892"
     style="stroke:url(#linearGradient3521);stroke-width:.97385;fill:url(#linearGradient3519)"
     transform="scale(1,-1)"
     ry="29.296"
     height="115.54"
     width="114.22"
     y="-122.25"
     x="7.0394" />
  <rect
     id="rect892-2"
     style="stroke:url(#linearGradient3516);stroke-width:.97385;fill:url(#linearGradient3514)"
     transform="scale(1,-1)"
     ry="28.993"
     height="114.35"
     width="114.22"
     y="-121.46"
     x="7.0599" />
  <path
     id="rect895"
     style="fill:url(#radialGradient3349)"
     d="m33.051 7.2596c-7.969-2.4493-27.013 15.174-25.653 23.038-0.050142 0.97378-0.088772 1.9648-0.088772 2.9572v52.419c0 20.876 10.712 33.859 22.318 33.859h67.038c12.638 0 24.318-11.245 24.318-25.859v-64.017c0.7-10.928-21.283-24.659-25.926-22.618-47.846 0.8653-18.017 0.2236-62.003 0.2236z" />
  <path
     id="path1187"
     style="opacity:.68238;fill:url(#linearGradient6303)"
     d="m36.537 7.6204c-8.869 0.7824-26.296 4.9186-29.527 41.221v47.783c18.67-55.894 33.784-75.414 85.818-89.536-0.225-0.0381-0.46-0.0444-0.691-0.0444-41.576 0.5651-17.576 0.5768-55.6 0.5768z" />
  <rect
     id="rect892-2-7-8"
     style="opacity:.15891;stroke:#000;stroke-width:4.8445;fill:none"
     transform="scale(1,-1)"
     ry="28.993"
     height="114.35"
     width="114.22"
     y="-121.16"
     x="6.8687" />
  <rect
     id="rect892-2-7-1"
     style="opacity:.15891;stroke:#000;stroke-width:7.7512;fill:none"
     transform="scale(1,-1)"
     ry="28.993"
     height="114.35"
     width="114.22"
     y="-121.16"
     x="6.8687" />
  <g
     id="layer2"
     style="display:none"
     transform="matrix(1.44 0 0 1.44 -4.952 -6.9671)">
    <rect
       id="rect3745"
       style="opacity:.9;filter:url(#filter3174);fill:url(#ButtonShadow-1)"
       rx="6"
       ry="6"
       height="85"
       width="86"
       y="7"
       x="5" />
  </g>
  <g
     id="layer2-1"
     style="display:none"
     transform="translate(183.21 82.968)">
    <rect
       id="rect3745-9"
       style="opacity:.9;filter:url(#filter3174-5);fill:url(#ButtonShadow-1)"
       rx="6"
       ry="6"
       height="85"
       width="86"
       y="7"
       x="5" />
  </g>
  <g
     id="layer2-2"
     style="display:none"
     transform="translate(52.694 146.84)">
    <path
       id="rect3745-94"
       style="opacity:.9;filter:url(#filter3174-2);fill:url(#ButtonShadow-1)"
       d="m11 7c-3.324 0-6 2.676-6 6v73c0 3.324 2.676 6 6 6h74c3.324 0 6-2.676 6-6v-73c0-3.324-2.676-6-6-6h-74zm-1 4h6v4h-6v-4zm70 0h6v4h-6v-4zm-70 8h6v4h-6v-4zm70 0h6v4h-6v-4zm-70 8h6v4h-6v-4zm70 0h6v4h-6v-4zm-70 8h6v4h-6v-4zm70 0h6v4h-6v-4zm-70 8h6v4h-6v-4zm70 0h6v4h-6v-4zm-70 8h6v4h-6v-4zm70 0h6v4h-6v-4zm-70 8h6v4h-6v-4zm70 0h6v4h-6v-4zm-70 8h6v4h-6v-4zm70 0h6v4h-6v-4zm-70 8h6v4h-6v-4zm70 0h6v4h-6v-4zm-70 8h6v4h-6v-4zm70 0h6v4h-6v-4z" />
  </g>
  <rect
     id="rect892-2-7-2-9"
     ry="28.067"
     style="stroke:#000;stroke-width:1.0489;fill:none"
     transform="scale(1,-1)"
     height="112.71"
     width="114.14"
     y="-120.31"
     x="7.0649" />
  <g
     id="layer2-20"
     style="display:none"
     transform="translate(-287.93 37.655)">
    <rect
       id="rect3745-8"
       style="opacity:.9;filter:url(#filter3174-24);fill:url(#ButtonShadow-1)"
       rx="6"
       ry="6"
       height="85"
       width="86"
       y="7"
       x="5" />
  </g>
  <rect
     id="rect3745-7"
     style="opacity:.9;filter:url(#filter3174-8);display:none;fill:url(#linearGradient7604)"
     rx="6"
     ry="6"
     height="85"
     width="86"
     y="-14.187"
     x="-184.19" />
  <g
     id="layer2-0"
     style="display:none"
     transform="translate(218.22 18.71)">
    <rect
       id="rect3745-6"
       style="opacity:.9;filter:url(#filter3174-0);fill:url(#ButtonShadow-1)"
       rx="6"
       ry="6"
       height="85"
       width="86"
       y="7"
       x="5" />
  </g>
  <g
     id="layer2-28"
     style="display:none"
     transform="translate(46.266 133.26)">
    <rect
       id="rect3745-3"
       style="opacity:.9;filter:url(#filter3174-6);fill:url(#ButtonShadow-1)"
       rx="6"
       ry="6"
       height="85"
       width="86"
       y="7"
       x="5" />
  </g>
  <g
     id="layer5-0"
     style="display:none"
     transform="translate(46.266 133.26)">
    <rect
       id="rect3171"
       style="opacity:.1;filter:url(#filter3794-0);stroke:#fff;stroke-linecap:round;stroke-width:.5;fill:url(#linearGradient3613-39)"
       clip-path="url(#clipPath3613-6)"
       rx="12"
       ry="12"
       height="66"
       width="66"
       y="15"
       x="15" />
  </g>
  <rect
     id="rect3745-5"
     style="opacity:.9;filter:url(#filter3174-46);display:none;fill:url(#linearGradient10101)"
     rx="6"
     ry="6"
     height="85"
     width="86"
     y="-35.339"
     x="-172.65" />
  <g
     style="display:none"
     id="layer2-6"
     transform="matrix(1.3904,0,0,1.3904,-2.7373,-4.128)">
    <rect
       x="5"
       y="7"
       width="86"
       height="85"
       ry="6"
       rx="6"
       style="opacity:0.9;fill:url(#linearGradient3084);filter:url(#filter3174-004)"
       id="rect3745-82" />
  </g>
  <g
     transform="matrix(0.25,0,0,0.25,-122.7662,4.7245728)"
     id="g3244">
    <path
       inkscape:connector-curvature="0"
       id="path3238"
       transform="translate(491.06409,-18.903293)"
       d="m 289.59375,113.53125 -91.15625,0.0312 c -9.38668,0.16096 -18.61229,7.54611 -20.78125,16.625 l -61.28125,266.75 c -2.23494,9.06423 3.87566,16.61378 13.09375,16.5625 l 43.71875,-0.0937 c 9.27674,0.0808 18.74655,-7.40452 20.9375,-16.46875 l 14.78125,-64.75 c 2.07373,-9.07162 11.50689,-16.66311 20.9375,-16.53125 l 12.4375,0 c 53.3597,0 94.71823,-10.95959 124.34375,-32.78125 29.55232,-21.93151 44.4375,-50.71926 44.4375,-86.5 -0.0952,-15.62248 -2.75819,-28.77692 -8.3125,-39.21875 -5.42977,-10.56647 -13.63143,-19.06338 -24,-25.6875 -10.63235,-6.60952 -23.24907,-11.21706 -37.875,-13.90625 -14.46471,-2.53536 -31.68717,-3.9873 -51.28125,-4.03125 z m -26.71875,40.375 c 16.65565,0 29.29976,2.85968 37.84375,8.53125 4.73592,3.1037 8.15359,7.22098 10.21875,12.3125 0.004,0.002 -0.004,0.0293 0,0.0312 1.67418,0.7795 3.26524,1.62678 4.71875,2.5625 8.49273,5.62756 12.62151,14.3398 12.6875,25.96875 0.0374,17.72547 -6.53982,31.37727 -19.65625,41.09375 -13.05781,9.49656 -31.38852,14.25 -54.96875,14.25 l -10.84375,0 c -8.80362,0.10337 -14.68461,-6.56671 -13.53125,-14.90625 l -1.375,0 c -9.41597,0 -15.35496,-7.48209 -13.28125,-16.65625 l 13.09375,-56.53125 c 2.00044,-9.10821 11.39653,-16.65043 20.8125,-16.5625 l 14.28125,-0.0937 z"
       style="fill:#666666;fill-opacity:1;fill-rule:nonzero;stroke:none" />
    <g
       id="g3240"
       transform="matrix(7.3276054,0,0,-7.3276054,878.78605,123.28636)">
      <path
         inkscape:connector-curvature="0"
         style="fill:#1c3664;fill-opacity:0.73577237;fill-rule:nonzero;stroke:none"
         id="path3242"
         d="m 0,0 c -0.739,1.442 -1.847,2.613 -3.261,3.497 -1.467,0.905 -3.173,1.529 -5.162,1.905 -2.001,0.359 -4.338,0.535 -7.019,0.559 L -27.856,5.952 c -1.29,-0.015 -2.554,-1.027 -2.852,-2.267 l -8.371,-36.391 c -0.288,-1.245 0.518,-2.274 1.803,-2.274 l 5.947,0 c 1.286,0 2.56,1.002 2.849,2.274 l 2.049,8.831 c 0.274,1.235 1.545,2.257 2.834,2.257 l 1.7,0 c 7.273,0.007 12.914,1.495 16.968,4.473 4.048,2.972 6.073,6.912 6.063,11.784 C 1.144,-3.221 0.773,-1.43 0,0 m -12.841,-11.89 c -1.793,-1.311 -4.278,-1.968 -7.504,-1.968 l -1.458,0 c -1.285,0 -2.096,1.019 -1.813,2.271 l 1.79,7.714 c 0.273,1.243 1.555,2.274 2.84,2.262 l 1.946,0.012 c 2.273,0 4.001,-0.389 5.167,-1.163 1.149,-0.753 1.733,-1.942 1.713,-3.541 0.034,-2.408 -0.879,-4.272 -2.681,-5.587" />
    </g>
  </g>
</svg>
