<?xml version="1.0" encoding="UTF-8" standalone="no"?>
<!-- Created with Inkscape (http://www.inkscape.org/) -->
<svg id="svg3449" xmlns:rdf="http://www.w3.org/1999/02/22-rdf-syntax-ns#" xmlns="http://www.w3.org/2000/svg" height="128" width="128" version="1.0" xmlns:cc="http://creativecommons.org/ns#" xmlns:xlink="http://www.w3.org/1999/xlink" xmlns:dc="http://purl.org/dc/elements/1.1/">
 <metadata id="metadata56">
  <rdf:RDF>
   <cc:Work rdf:about="">
    <dc:format>image/svg+xml</dc:format>
    <dc:type rdf:resource="http://purl.org/dc/dcmitype/StillImage"/>
    <dc:title/>
   </cc:Work>
  </rdf:RDF>
 </metadata>
 <defs id="defs3451">
  <linearGradient id="linearGradient3514" y2="-9.1034" gradientUnits="userSpaceOnUse" x2="66.492" gradientTransform="matrix(.96826 0 0 .97948 2.179 .16587)" y1="-42.638" x1="67.952">
   <stop id="stop4620" style="stop-color:#37414b" offset="0"/>
   <stop id="stop4622" style="stop-color:#37414b;stop-opacity:0" offset="1"/>
  </linearGradient>
  <linearGradient id="linearGradient3516" y2="-11.847" gradientUnits="userSpaceOnUse" x2="58.98" gradientTransform="matrix(.96826 0 0 .97948 2.179 .16587)" y1="-118.55" x1="57.173">
   <stop id="stop4596" offset="0"/>
   <stop id="stop4598" style="stop-opacity:0" offset="1"/>
  </linearGradient>
  <linearGradient id="linearGradient3519" y2="50.369" gradientUnits="userSpaceOnUse" x2="76.558" gradientTransform="matrix(.96826 0 0 .97948 3.2423 -129.19)" y1="13.164" x1="76.558">
   <stop id="stop3392" style="stop-color:#425e7b" offset="0"/>
   <stop id="stop3394" style="stop-color:#7a91a7" offset="1"/>
  </linearGradient>
  <linearGradient id="linearGradient3521" y2="-8.7399" gradientUnits="userSpaceOnUse" x2="60.217" gradientTransform="matrix(.96826 0 0 .97948 2.179 .16587)" y1="-123.72" x1="60.395">
   <stop id="stop3392-4-8" style="stop-color:#425e7b" offset="0"/>
   <stop id="stop3394-8-0" style="stop-color:#7a91a7" offset="1"/>
  </linearGradient>
  <radialGradient id="radialGradient3349" gradientUnits="userSpaceOnUse" cy="45.647" cx="42.148" gradientTransform="matrix(.94690 0 0 1.139 3.5954 -29.89)" r="58.984">
   <stop id="stop2699-5" style="stop-color:#86b3e0" offset="0"/>
   <stop id="stop2701-7" style="stop-color:#649ad6" offset="1"/>
  </radialGradient>
 </defs>
 <rect id="rect892" style="stroke:url(#linearGradient3521);stroke-width:.97385;fill:url(#linearGradient3519)" transform="scale(1,-1)" ry="29.296" height="115.54" width="114.22" y="-122.25" x="7.0394"/>
 <rect id="rect892-2" style="stroke:url(#linearGradient3516);stroke-width:.97385;fill:url(#linearGradient3514)" transform="scale(1,-1)" ry="28.993" height="114.35" width="114.22" y="-121.46" x="7.0599"/>
 <path id="rect895" style="fill:url(#radialGradient3349)" d="m33.051 7.2596c-7.969-2.4493-27.013 15.174-25.653 23.038-0.050142 0.97378-0.088772 1.9648-0.088772 2.9572v52.419c0 20.876 10.712 33.859 22.318 33.859h67.038c12.638 0 24.318-11.245 24.318-25.859v-64.017c0.7-10.928-21.283-24.659-25.926-22.618-47.846 0.8653-18.017 0.2236-62.003 0.2236z"/>
 <rect id="rect892-2-7-8" style="opacity:.15891;stroke:#000;stroke-width:4.8445;fill:none" transform="scale(1,-1)" ry="28.993" height="114.35" width="114.22" y="-121.16" x="6.8687"/>
 <rect id="rect892-2-7-1" style="opacity:.15891;stroke:#000;stroke-width:7.7512;fill:none" transform="scale(1,-1)" ry="28.993" height="114.35" width="114.22" y="-121.16" x="6.8687"/>
 <rect id="rect892-2-7-2-9" ry="28.067" style="stroke:#000;stroke-width:1.0489;fill:none" transform="scale(1,-1)" height="112.71" width="114.14" y="-120.31" x="7.0649"/>
 <path id="path1187" style="fill:#fff;fill-opacity:.057143" d="m33.017 7.2319c-23.707 0-26.027 0.6738-25.93 26.295-0.04334 0.71563-0.07674 1.4439-0.07674 2.1732v32.76c18.67-38.321 38.34-51.497 90.374-61.179-0.225-0.026-0.46-0.0303-0.691-0.0303-41.576 0.3874-25.652-0.0188-63.676-0.0188z"/>
 <g id="layer1-0" transform="matrix(2.9298 0 0 2.9298 -6.315 -2948.9)">
  <g id="g3033" transform="translate(0 .000016881)">
   <path id="path3019" style="stroke:#fff;stroke-width:1px;fill:none" d="m13.062 1023.8c7.5696-0.1889 13.822 0.063 21.567 0"/>
   <path id="path3031" d="m12.531 1028.2h22.937" style="stroke:#fff;stroke-width:1px;fill:none"/>
   <path id="path3033" style="stroke:#fff;stroke-width:1px;fill:none" d="m13.062 1032.4c8.1417-0.028 14.486-0.031 21.567 0"/>
   <g id="g3019" transform="translate(-.47915)">
    <path id="path3021" style="stroke:#fff;stroke-width:1px;fill:none" d="m24.479 1039.8v-22.937"/>
    <path id="path3029" d="m19.881 1039.1c-2.7498-6.3145-2.5396-14.235 0-21.138" style="stroke:#fff;stroke-width:1px;fill:none"/>
    <path id="path3017" style="stroke:#fff;stroke-width:1px;fill:none" d="m29.078 1039.1c2.7498-6.3145 2.5396-14.235 0-21.138"/>
   </g>
   <path id="path3012" style="stroke:#fff;stroke-linecap:round;stroke-width:.78989;fill:none" d="m33.057 27.317c0 5.028-4.076 9.104-9.104 9.104s-9.104-4.076-9.104-9.104 4.076-9.104 9.104-9.104 9.104 4.076 9.104 9.104z" transform="matrix(1.266 0 0 1.266 -6.3248 993.78)"/>
  </g>
 </g>
 <g id="g8329" transform="matrix(.6 0 0 .6 117.2 43.075)">
  <path id="path5226" style="opacity:.81304;fill:#f00" d="m-46.199 116.31c-5.0959-0.91474-9.0442-2.9708-12.702-6.6144-2.0182-2.0105-3.7781-4.4203-4.642-6.356-0.23565-0.52804-3.3386-8.0316-6.8953-16.675-4.1445-10.071-6.5321-16.083-6.6485-16.741-0.48743-2.7553 1.3961-5.7119 4.1707-6.547 2.31-0.69521 5.0515 0.20984 6.3951 2.1112 0.29394 0.41598 2.4907 5.3267 4.8817 10.913l4.3473 10.156 0.084-22.597 0.084-22.597 0.55329-1.1238c0.63242-1.2846 1.5248-2.1466 2.8921-2.7939 1.2475-0.59058 3.3665-0.62144 4.5875-0.0668 0.57907 0.26302 0.82432 0.30864 0.8712 0.16207 0.0358-0.1122 0.0947-0.88469 0.13068-1.7166 0.0524-1.2127 0.15177-1.6808 0.50081-2.3606 0.57859-1.127 1.6243-2.1458 2.79-2.7182 0.84245-0.41372 1.1354-0.46674 2.5486-0.46126 1.4109 0.006 1.7011 0.0605 2.4942 0.47271 1.26 0.65491 2.2939 1.6655 2.8386 2.7747 0.44118 0.89837 0.46861 1.0922 0.52231 3.6916 0.0513 2.4818 0.0833 2.732 0.33614 2.6235 3.0829-1.324 6.5747-0.13291 8.0195 2.7356 0.48368 0.96032 0.49097 1.0169 0.54969 4.2708 0.31192 1.3341-0.87818 3.6578 0.927 2.9643 1.2276-0.47161 3.074-0.4506 4.3957 0.05 1.372 0.51967 2.7499 1.8936 3.2562 3.2468l0.3684 0.98465-0.0548 21.199c-0.0542 20.955-0.0589 21.216-0.41187 22.643-1.3244 5.3542-3.9776 9.7969-7.7455 12.97-3.4028 2.8654-7.4256 4.7287-11.709 5.4235-1.9104 0.30985-5.9461 0.29733-7.7362-0.024z"/>
  <path id="path5226-1" style="fill:#fff" d="m-46.199 116.31c-5.0959-0.91474-9.0442-2.9708-12.702-6.6144-2.0182-2.0105-3.7781-4.4203-4.642-6.356-0.23565-0.52804-3.3386-8.0316-6.8953-16.675-4.1445-10.071-6.5321-16.083-6.6485-16.741-0.48743-2.7553 1.3961-5.7119 4.1707-6.547 2.31-0.69521 5.0515 0.20984 6.3951 2.1112 0.29394 0.41598 2.4907 5.3267 4.8817 10.913l4.3473 10.156 0.084-22.597 0.084-22.597 0.55329-1.1238c0.63242-1.2846 1.5248-2.1466 2.8921-2.7939 1.2475-0.59058 3.3665-0.62144 4.5875-0.0668 0.57907 0.26302 0.82432 0.30864 0.8712 0.16207 0.0358-0.1122 0.0947-0.88469 0.13068-1.7166 0.0524-1.2127 0.15177-1.6808 0.50081-2.3606 0.57859-1.127 1.6243-2.1458 2.79-2.7182 0.84245-0.41372 1.1354-0.46674 2.5486-0.46126 1.4109 0.006 1.7011 0.0605 2.4942 0.47271 1.26 0.65491 2.2939 1.6655 2.8386 2.7747 0.44118 0.89837 0.46861 1.0922 0.52231 3.6916 0.0513 2.4818 0.0833 2.732 0.33614 2.6235 3.0829-1.324 6.5747-0.13291 8.0195 2.7356 0.48368 0.96032 0.49097 1.0169 0.54969 4.2708l0.0595 3.2976 0.8675-0.33327c1.2276-0.47161 3.074-0.4506 4.3957 0.05 1.372 0.51967 2.7499 1.8936 3.2562 3.2468l0.3684 0.98465-0.0548 21.199c-0.0542 20.955-0.0589 21.216-0.41187 22.643-1.3244 5.3542-3.9776 9.7969-7.7455 12.97-3.4028 2.8654-7.4256 4.7287-11.709 5.4235-1.9104 0.30985-5.9461 0.29733-7.7362-0.024zm8.0226-3.1086c8.5058-1.6775 15.318-8.8389 16.416-17.257 0.24115-1.8495 0.38869-40.184 0.15879-41.256-0.34128-1.5913-1.9979-2.5873-3.571-2.1468-0.85837 0.24033-1.8123 1.1526-2.0962 2.0048-0.13374 0.40141-0.19035 3.741-0.19035 11.23 0 6.9888-0.0596 10.77-0.17305 10.982-0.2636 0.49255-1.1173 0.86967-1.6859 0.74477-0.26943-0.0591-0.64209-0.30107-0.82808-0.53754-0.33347-0.42393-0.33822-0.65412-0.34095-16.5l-0.003-16.07-0.37538-0.65967c-0.81935-1.4398-2.9182-1.8733-4.2291-0.87347-1.2732 0.97111-1.1787-0.34528-1.2725 17.724l-0.084 16.191-0.47156 0.40556c-0.60272 0.51836-1.3114 0.51835-1.9141-0.00003l-0.47156-0.40559-0.084-20.91-0.084-20.91-0.4593-0.60213c-0.92116-1.2076-2.8767-1.4763-4.0777-0.56018-1.2725 0.97059-1.1676-0.8779-1.2614 22.233-0.0938 23.105 0.0227 21.164-1.2794 21.338-0.53841 0.0721-0.7347 0.0122-1.1156-0.34101l-0.46218-0.42854-0.004-16.437c-0.004-17.188-0.0302-17.879-0.72926-18.946-0.58788-0.89718-1.9047-1.4146-3.0524-1.1993-0.7221 0.13546-1.7308 0.98917-2.0383 1.7251-0.18743 0.44858-0.22707 5.1336-0.22707 26.837v26.293l-0.51711 0.43511c-0.58916 0.49575-0.97715 0.54016-1.6553 0.18948-0.55083-0.28485 0.0505 1.0406-7.1654-15.795-3.3294-7.7678-5.3538-12.286-5.6618-12.637-0.5889-0.67071-1.4373-0.96931-2.4347-0.85689-1.797 0.20255-2.9575 2.099-2.3431 3.829 0.15103 0.42526 1.9674 4.8892 4.0363 9.9199s4.8789 11.869 6.2444 15.197c1.3655 3.3278 2.7476 6.5799 3.0713 7.227 2.2087 4.4146 6.1685 7.9884 10.879 9.8187 3.8155 1.4824 7.4997 1.8023 11.552 1.0031z"/>
 </g>
</svg>
