<?xml version="1.0" encoding="UTF-8" standalone="no"?>
<!-- Created with Inkscape (http://www.inkscape.org/) -->
<svg id="svg3449" xmlns:rdf="http://www.w3.org/1999/02/22-rdf-syntax-ns#" xmlns="http://www.w3.org/2000/svg" height="128" width="128" version="1.0" xmlns:cc="http://creativecommons.org/ns#" xmlns:xlink="http://www.w3.org/1999/xlink" xmlns:dc="http://purl.org/dc/elements/1.1/">
 <metadata id="metadata56">
  <rdf:RDF>
   <cc:Work rdf:about="">
    <dc:format>image/svg+xml</dc:format>
    <dc:type rdf:resource="http://purl.org/dc/dcmitype/StillImage"/>
    <dc:title/>
   </cc:Work>
  </rdf:RDF>
 </metadata>
 <defs id="defs3451">
  <linearGradient id="linearGradient3514" y2="-9.1034" gradientUnits="userSpaceOnUse" x2="66.492" gradientTransform="matrix(.96826 0 0 .97948 2.179 .16587)" y1="-42.638" x1="67.952">
   <stop id="stop4620" style="stop-color:#37414b" offset="0"/>
   <stop id="stop4622" style="stop-color:#37414b;stop-opacity:0" offset="1"/>
  </linearGradient>
  <linearGradient id="linearGradient3516" y2="-11.847" gradientUnits="userSpaceOnUse" x2="58.98" gradientTransform="matrix(.96826 0 0 .97948 2.179 .16587)" y1="-118.55" x1="57.173">
   <stop id="stop4596" offset="0"/>
   <stop id="stop4598" style="stop-opacity:0" offset="1"/>
  </linearGradient>
  <linearGradient id="linearGradient3519" y2="50.369" gradientUnits="userSpaceOnUse" x2="76.558" gradientTransform="matrix(.96826 0 0 .97948 3.2423 -129.19)" y1="13.164" x1="76.558">
   <stop id="stop3392" style="stop-color:#425e7b" offset="0"/>
   <stop id="stop3394" style="stop-color:#7a91a7" offset="1"/>
  </linearGradient>
  <linearGradient id="linearGradient3521" y2="-8.7399" gradientUnits="userSpaceOnUse" x2="60.217" gradientTransform="matrix(.96826 0 0 .97948 2.179 .16587)" y1="-123.72" x1="60.395">
   <stop id="stop3392-4-8" style="stop-color:#425e7b" offset="0"/>
   <stop id="stop3394-8-0" style="stop-color:#7a91a7" offset="1"/>
  </linearGradient>
  <linearGradient id="linearGradient4192" y2="31.742" gradientUnits="userSpaceOnUse" x2="121.11" y1="31.742" x1="6.5334">
   <stop id="stop4188" style="stop-color:#fff" offset="0"/>
   <stop id="stop4190" style="stop-color:#fff;stop-opacity:0" offset="1"/>
  </linearGradient>
  <linearGradient id="linearGradient11577" y2="8.1" gradientUnits="userSpaceOnUse" y1="6.1438" x2="19.387" x1="19.49">
   <stop id="stop10999-9-0" offset="0"/>
   <stop id="stop11001-6-1" style="stop-opacity:0" offset="1"/>
  </linearGradient>
  <filter id="filter3198-5" color-interpolation-filters="sRGB" width="1.1734" y="-.10752" x="-.086712" height="1.215">
   <feGaussianBlur id="feGaussianBlur3200-3" stdDeviation="0.71710775"/>
  </filter>
  <linearGradient id="linearGradient13639" y2="5.4565" gradientUnits="userSpaceOnUse" x2="36.358" gradientTransform="matrix(0 3.8171 -6.1772 0 129.98 -37.908)" y1="8.059" x1="32.892">
   <stop id="stop8591-7-2-1" style="stop-color:#fefefe" offset="0"/>
   <stop id="stop8593-2-4-5" style="stop-color:#cbcbcb" offset="1"/>
  </linearGradient>
  <radialGradient id="radialGradient13643" gradientUnits="userSpaceOnUse" cy="-16.639" cx="2.6083" gradientTransform="matrix(-5.7453 2.452e-7 -2.5955e-7 -6.0905 124.78 -36.865)" r="23">
   <stop id="stop4003" style="stop-color:#c0bebe" offset="0"/>
   <stop id="stop4005" style="stop-color:#f2f7f7" offset="1"/>
  </radialGradient>
  <linearGradient id="linearGradient4169">
   <stop id="stop4171-0" style="stop-color:#e2f4c4" offset="0"/>
   <stop id="stop4173" style="stop-color:#fdfff5" offset="1"/>
  </linearGradient>
  <linearGradient id="linearGradient16352" y2="2.0118" xlink:href="#linearGradient4169" gradientUnits="userSpaceOnUse" x2="10.41" gradientTransform="matrix(6.4167 0 0 6.4167 -270.89 -29.269)" y1="13.991" x1="10.41"/>
  <linearGradient id="linearGradient18621-2" y2="500.74" gradientUnits="userSpaceOnUse" x2="461.6" gradientTransform="matrix(.48309 .48309 -.48176 .48176 -52.595 -422.22)" y1="500.74" x1="451.13">
   <stop id="stop6196-4-0" style="stop-color:#fff" offset="0"/>
   <stop id="stop6198-4-1" style="stop-color:#29282b" offset=".16850"/>
   <stop id="stop6200-2-6" style="stop-color:#868c95" offset=".26374"/>
   <stop id="stop6202-26-7" style="stop-color:#92979f" offset=".39560"/>
   <stop id="stop6204-0-7" style="stop-color:#737881" offset=".54212"/>
   <stop id="stop6206-16-3" style="stop-color:#70757e" offset=".62637"/>
   <stop id="stop6208-6-5" style="stop-color:#e4e6e8" offset=".71795"/>
   <stop id="stop6210-7-0" style="stop-color:#fff" offset=".79121"/>
   <stop id="stop6212-64-8" style="stop-color:#1d191a" offset="1"/>
  </linearGradient>
  <linearGradient id="linearGradient18618-1" y2="500.74" gradientUnits="userSpaceOnUse" x2="461.6" gradientTransform="matrix(.48309 .48309 -.48176 .48176 -50.955 -423.86)" y1="500.74" x1="451.13">
   <stop id="stop6339-4" style="stop-color:#ee6b6a" offset="0"/>
   <stop id="stop6341-8" style="stop-color:#eb5453" offset="1"/>
  </linearGradient>
  <linearGradient id="linearGradient18615-6" y2="33.437" gradientUnits="userSpaceOnUse" x2="74.983" gradientTransform="matrix(.48309 .48309 -.48176 .48176 -105.95 2.7005)" y1="33.437" x1="68.645">
   <stop id="stop6415-6" style="stop-color:#eed39b" offset="0"/>
   <stop id="stop6417-2" style="stop-color:#bc6a2d" offset="1"/>
  </linearGradient>
  <linearGradient id="linearGradient18611-3" y2="18.071" gradientUnits="userSpaceOnUse" x2="69.41" gradientTransform="matrix(.48309 .48309 -.48176 .48176 -105.95 2.7005)" y1="18.071" x1="76.542">
   <stop id="stop6359-0" style="stop-color:#be7c04" offset="0"/>
   <stop id="stop6361-3" style="stop-color:#fbd61f;stop-opacity:0" offset="1"/>
  </linearGradient>
  <linearGradient id="linearGradient18608-0" y2="516.14" xlink:href="#linearGradient6365-1" gradientUnits="userSpaceOnUse" x2="452.09" gradientTransform="matrix(.48309 .48309 -.61264 .61264 16.78 -491.6)" y1="516.14" x1="455.21"/>
  <linearGradient id="linearGradient6365-1">
   <stop id="stop6367-2" style="stop-color:#fef0ac" offset="0"/>
   <stop id="stop6369-0" style="stop-color:#fef0ac;stop-opacity:0" offset="1"/>
  </linearGradient>
  <linearGradient id="linearGradient18605-9" y2="500.74" gradientUnits="userSpaceOnUse" x2="461.6" gradientTransform="matrix(-.39089 -.39089 -.38981 .38981 302.15 21.381)" y1="500.74" x1="451.13">
   <stop id="stop6351-6" style="stop-color:#bf4e3a" offset="0"/>
   <stop id="stop6353-4" style="stop-color:#0f0e1c;stop-opacity:0" offset="1"/>
  </linearGradient>
  <linearGradient id="linearGradient18602-2" y2="516.14" xlink:href="#linearGradient6365-1" gradientUnits="userSpaceOnUse" x2="452.77" gradientTransform="matrix(.48309 .48309 -.61264 .61264 18.917 -489.46)" y1="516.14" x1="456.34"/>
  <linearGradient id="linearGradient18599-0" y2="516.14" xlink:href="#linearGradient6381-1-4" gradientUnits="userSpaceOnUse" x2="452.77" gradientTransform="matrix(-.48309 -.48309 -.61264 .61264 455.64 -52.733)" y1="516.14" x1="455.1"/>
  <linearGradient id="linearGradient6381-1-4">
   <stop id="stop6383-4" style="stop-color:#0f0e1c;stop-opacity:.18325" offset="0"/>
   <stop id="stop6385-6" style="stop-color:#0f0e1c;stop-opacity:0" offset="1"/>
  </linearGradient>
  <linearGradient id="linearGradient18596-2" y2="516.14" xlink:href="#linearGradient6381-1-4" gradientUnits="userSpaceOnUse" x2="452.2" gradientTransform="matrix(-.48309 -.48309 -.61264 .61264 457.78 -50.595)" y1="516.14" x1="454.25"/>
  <linearGradient id="linearGradient18593-1" y2="533.07" gradientUnits="userSpaceOnUse" x2="458.99" gradientTransform="matrix(.48309 .48309 -.48176 .48176 -50.955 -423.86)" y1="532.39" x1="457.19">
   <stop id="stop6407-9" style="stop-color:#99491c" offset="0"/>
   <stop id="stop6409-3" style="stop-color:#99491c;stop-opacity:0" offset="1"/>
  </linearGradient>
  <linearGradient id="linearGradient18590-1" y2="532.76" xlink:href="#linearGradient6365-1" gradientUnits="userSpaceOnUse" x2="457.76" gradientTransform="matrix(-.36852 -.36852 -.36751 .36751 276.81 25.224)" y1="533.51" x1="460.04"/>
  <linearGradient id="linearGradient18587-2" y2="37.95" gradientUnits="userSpaceOnUse" x2="72.416" gradientTransform="matrix(.48309 .48309 -.48176 .48176 -105.95 2.7005)" y1="37.95" x1="71.112">
   <stop id="stop6438-7" style="stop-color:#908f7d" offset="0"/>
   <stop id="stop6440-0" style="stop-color:#2d3538" offset="1"/>
  </linearGradient>
  <linearGradient id="linearGradient18584-9" y2=".71570" gradientUnits="userSpaceOnUse" x2="68.819" gradientTransform="matrix(.48309 .48309 -.48176 .48176 -105.95 2.7005)" y1="-2.5005" x1="66.35">
   <stop id="stop6455-6" style="stop-color:#fff" offset="0"/>
   <stop id="stop6457-1" style="stop-color:#fff;stop-opacity:0" offset="1"/>
  </linearGradient>
  <linearGradient id="linearGradient18994" y2="502.47" gradientUnits="userSpaceOnUse" y1="498.03" gradientTransform="matrix(-.51193 -.51193 -.10765 .10765 214.13 219.3)" x2="455.94" x1="455.94">
   <stop id="stop6140-4" style="stop-color:#0f0e1c" offset="0"/>
   <stop id="stop6142-3" style="stop-color:#0f0e1c;stop-opacity:0" offset="1"/>
  </linearGradient>
 </defs>
 <rect id="rect892-2-7-1" style="opacity:.15891;stroke:#000;stroke-width:7.7512;fill:none" transform="scale(1,-1)" ry="28.993" height="114.35" width="114.22" y="-121.16" x="6.8687"/>
 <rect id="rect892" style="stroke:url(#linearGradient3521);stroke-width:.97385;fill:url(#linearGradient3519)" transform="scale(1,-1)" ry="29.296" height="115.54" width="114.22" y="-122.25" x="7.0394"/>
 <rect id="rect892-2" style="stroke:url(#linearGradient3516);stroke-width:.97385;fill:url(#linearGradient3514)" transform="scale(1,-1)" ry="28.993" height="114.35" width="114.22" y="-121.46" x="7.0599"/>
 <path id="path4159-5" style="stroke:url(#linearGradient4192);stroke-width:1px;fill:none" d="m7.0334 31.742h113.58z"/>
 <path id="path4322" d="m120.59 73.959c-1.82 3.832-42.138 40.971-56.518 46.341-69.19 4.26-58.724-19.48-56.838-84.917 2.3986-17.191 7.324-26.021 21.561-28.696 14.236-2.6741 37.004-0.1685 68.065 0.2409 14.5 4.037 21.484 10.632 23.634 21.59 2.1501 10.957-0.0335 25.676 0.0963 45.442z" style="fill-rule:evenodd;fill:url(#radialGradient13643)"/>
 <path id="path4891" d="m25.685 5.7862c3.6386-0.3502 2.8432 14.02 2.8432 14.02s16.093-0.84846 16.525 1.9543c3.85-3.268-16.654-16.76-19.368-15.974z" style="opacity:.3;fill-rule:evenodd;filter:url(#filter3198-5)" transform="matrix(0 2.6586 -4.0239 0 144.6 .66614)"/>
 <rect id="rect4086" style="fill:#d55051;fill-opacity:.36782" ry="0" height="112.87" width="1" y="6.2118" x="33.625"/>
 <rect id="rect892-2-7-8" style="opacity:.15891;stroke:#000;stroke-width:4.8445;fill:none" transform="scale(1,-1)" ry="28.993" height="114.35" width="114.22" y="-121.16" x="6.8687"/>
 <rect id="rect892-2-7-2-9" ry="28.346" style="stroke:#000;stroke-width:1.054;fill:none" transform="scale(1,-1)" height="113.83" width="114.13" y="-120.31" x="7.0675"/>
 <g id="g17906" transform="matrix(2.3438 0 0 2.2539 224.79 41.695)"></g>
 <path id="path4065" style="fill:#231b09;fill-opacity:.28736" d="m6.8008 53.64v1h113.98v-1h-113.98z"/>
 <path id="path4063" style="fill:#231b09;fill-opacity:.28736" d="m8.5685 70.265v1h112.43v-1h-112.43z"/>
 <path id="path4061" style="fill:#231b09;fill-opacity:.28736" d="m6.8749 86.89v1h90.75v-1h-90.75z"/>
 <path id="rect4090" style="fill:#231b09;fill-opacity:.28736" d="m9.3749 103.52v1h73v-1h-73z"/>
 <path id="path4893" d="m71.481 80.399s4.2044 36.928-6.3762 39.33c9.39 0.11002 45.865-29.927 54.993-45.071-7.2413 5.3727-33.084 6.8755-48.617 5.7407z" style="fill:url(#linearGradient13639);fill-rule:evenodd"/>
 <rect id="rect4898" style="fill:url(#linearGradient16352);display:none" height="141.17" width="141.17" y="-29.269" x="-270.89"/>
 <rect id="rect4126" style="fill:url(#linearGradient16352);display:none" height="141.17" width="141.17" y="-29.269" x="-270.89"/>
 <g id="g17813" transform="translate(3.9203 -8)">
  <rect id="rect4902" style="fill:#495961;fill-opacity:.53725" ry="0" height="1" width="5.75" y="37.399" x="57.205"/>
  <rect id="rect4904" style="fill:#495961;fill-opacity:.53725" ry=".5" height="1" width="5.75" y="37.399" x="68.455"/>
  <rect id="rect4906" style="fill:#495961;fill-opacity:.53725" ry="0" height="1" width="5.75" y="37.399" x="79.705"/>
  <rect id="rect4908" style="fill:#495961;fill-opacity:.53725" ry="0" height="1" width="5.75" y="37.399" x="90.955"/>
  <rect id="rect4910" style="fill:#495961;fill-opacity:.53725" ry="0" height="1" width="5.75" y="37.399" x="102.2"/>
  <rect id="rect4912" style="fill:#495961;fill-opacity:.53725" ry="0" height="1" width="5.75" y="37.399" x="45.955"/>
  <rect id="rect4914" style="fill:#495961;fill-opacity:.53725" ry="0" height="1" width="5.75" y="37.399" x="34.705"/>
  <rect id="rect4916" style="fill:#495961;fill-opacity:.53725" ry="0" height="1" width="5.75" y="37.399" x="23.455"/>
  <rect id="rect4918" style="fill:#495961;fill-opacity:.53725" ry="0" height="1" width="5.75" y="37.399" x="12.205"/>
  <rect id="rect4920" style="fill:#f9fafa;fill-opacity:.83978" ry="0" height="1" width="5.75" y="38.149" x="57.205"/>
  <rect id="rect4922" style="fill:#f9fafa;fill-opacity:.83978" ry=".5" height="1" width="5.75" y="38.149" x="68.455"/>
  <rect id="rect4924" style="fill:#f9fafa;fill-opacity:.83978" ry="0" height="1" width="5.75" y="38.149" x="79.705"/>
  <rect id="rect4926" style="fill:#f9fafa;fill-opacity:.83978" ry="0" height="1" width="5.75" y="38.149" x="90.955"/>
  <rect id="rect4928" style="fill:#f9fafa;fill-opacity:.83978" ry="0" height="1" width="5.75" y="38.149" x="102.2"/>
  <rect id="rect4930" style="fill:#f9fafa;fill-opacity:.83978" ry="0" height="1" width="5.75" y="38.149" x="45.955"/>
  <rect id="rect4932" style="fill:#f9fafa;fill-opacity:.83978" ry="0" height="1" width="5.75" y="38.149" x="34.705"/>
  <rect id="rect4934" style="fill:#f9fafa;fill-opacity:.83978" ry="0" height="1" width="5.75" y="38.149" x="23.455"/>
  <rect id="rect4936" style="fill:#f9fafa;fill-opacity:.83978" ry="0" height="1" width="5.75" y="38.149" x="12.205"/>
 </g>
 <path id="path4065-64" style="fill:#231b09;fill-opacity:.28736" d="m7.0098 36.871v1h113.98v-1h-113.98z"/>
 <g id="g18864" transform="matrix(2.5 0 0 2.5 266.1 -52.862)">
  <path id="path6481" d="m-72.757 34.995-2.1077 2.1077-1.0689 1.0689-0.57209 0.57209-11.171 11.171-0.94374 3.4523-0.88342 3.4524 3.4222-0.91364 3.4674-0.92864 11.171-11.171 0.5721-0.5721 1.5356-1.5356 1.641-1.641-5.0624-5.0624z" style="fill-opacity:.058824"/>
  <path id="path6479" style="fill-opacity:.11765" d="m-72.949 34.802-2.1077 2.1077-1.0689 1.0689-0.57209 0.57209-11.171 11.171-0.94375 3.4523-0.88343 3.4524 3.4222-0.91364 3.4674-0.92864 11.171-11.171 0.5721-0.57209 1.5356-1.5356 1.641-1.641-5.0624-5.0624z"/>
  <path id="path6468" d="m-73.142 34.61-2.1077 2.1077-1.0689 1.0689-0.57209 0.57209-11.171 11.171-0.94376 3.4523-0.88342 3.4524 3.4222-0.91364 3.4674-0.92863 11.171-11.171 0.57209-0.57209 1.5356-1.5356 1.641-1.641-5.0624-5.0624z" style="fill-opacity:.23529"/>
  <path id="path6442" style="fill:url(#linearGradient18621-2)" d="m-74.976 36.059-2.1129 2.1129 5.0624 5.0624 2.1129-2.1129-5.0624-5.0624z"/>
  <path id="path6330" d="m-73.336 34.419-2.1129 2.1129 5.0624 5.0624 2.1129-2.1129-5.0624-5.0624z" style="fill:url(#linearGradient18618-1)"/>
  <path id="path6335" d="m-83.194 54.396-5.0573-5.0573-0.94501 3.451-0.8847 3.4511 3.4209-0.9149 3.4661-0.92992z" style="fill:url(#linearGradient18615-6)"/>
  <path id="path6328" d="m-76.509 37.596-11.743 11.743 5.0573 5.0573 11.743-11.743-5.0573-5.0573z" style="fill:#fbd61f"/>
  <path id="path6355" style="fill:url(#linearGradient18611-3)" d="m-76.509 37.596-11.743 11.743 5.0573 5.0573 11.743-11.743-5.0573-5.0573z"/>
  <path id="rect844" d="m-76.314 37.79-11.743 11.743 1.2851 1.2851 11.743-11.743z" style="fill:url(#linearGradient18608-0)"/>
  <path id="path6345" style="opacity:0.59;fill:url(#linearGradient18605-9)" d="m-68.668 39.49-1.7096 1.7096-4.0962-4.0962 1.7097-1.7096 4.0962 4.0962z"/>
  <path id="path6373" d="m-73.61 40.495-11.743 11.743 0.72464 0.72462 11.743-11.743-0.72463-0.72463z" style="fill:url(#linearGradient18602-2)"/>
  <path id="path6377" d="m-75.029 39.075-11.743 11.743 0.709 0.71 11.743-11.743-0.709-0.71z" style="fill:url(#linearGradient18599-0)"/>
  <path id="path6387" d="m-72.886 41.219-11.743 11.743 0.70952 0.70954 11.743-11.743-0.70953-0.70953z" style="fill:url(#linearGradient18596-2)"/>
  <path id="path6403" style="fill:url(#linearGradient18593-1)" d="m-83.854 54.089-1.3372-1.3376-2.0963 1.4599-2.6685 1.9009 3.0573-1.03z"/>
  <path id="path6421" style="fill:url(#linearGradient18590-1)" d="m-87.792 50.321 1.0204 1.0201-1.1137 1.5992-1.4501 2.0357 0.78574-2.3322z"/>
  <path id="path6425" d="m-89.706 54.809-0.3749 1.4317 1.4317-0.37492-1.0568-1.0568z" style="fill:url(#linearGradient18587-2)"/>
  <path id="path6446" d="m-73.332 34.419-2.0625 2.0625c1.5649-0.15187 3.5744 0.47778 5.4139 1.2889l-3.3514-3.3514z" style="fill:url(#linearGradient18584-9)"/>
  <path id="path6461" d="m-75.741 36.828-0.48176 0.48176 5.0573 5.0573 0.48176-0.48176-5.0573-5.0573z" style="opacity:0.59;fill:url(#linearGradient18994)"/>
 </g>
 <path id="path4065-6" style="fill:#231b09;fill-opacity:.28736" d="m7.8775 27.822v1h112.12v-1h-112.12z"/>
 <path id="path4065-65" style="fill:#231b09;fill-opacity:.28736" d="m10.625 20.153v1h106.99v-1h-106.99z"/>
 <rect id="rect4088" style="fill:#d55051;fill-opacity:.36782" ry="0" height="112.28" width="1" y="6.802" x="38.711"/>
</svg>
