<?xml version="1.0" encoding="UTF-8" standalone="no"?>
<!-- Created with Inkscape (http://www.inkscape.org/) -->
<svg id="svg3449" xmlns:rdf="http://www.w3.org/1999/02/22-rdf-syntax-ns#" xmlns="http://www.w3.org/2000/svg" height="128" width="128" version="1.0" xmlns:cc="http://creativecommons.org/ns#" xmlns:xlink="http://www.w3.org/1999/xlink" xmlns:dc="http://purl.org/dc/elements/1.1/">
 <metadata id="metadata56">
  <rdf:RDF>
   <cc:Work rdf:about="">
    <dc:format>image/svg+xml</dc:format>
    <dc:type rdf:resource="http://purl.org/dc/dcmitype/StillImage"/>
    <dc:title/>
   </cc:Work>
  </rdf:RDF>
 </metadata>
 <defs id="defs3451">
  <linearGradient id="linearGradient3514" y2="-9.1034" gradientUnits="userSpaceOnUse" x2="66.492" gradientTransform="matrix(.96826 0 0 .97948 2.179 .16587)" y1="-42.638" x1="67.952">
   <stop id="stop4620" style="stop-color:#37414b" offset="0"/>
   <stop id="stop4622" style="stop-color:#37414b;stop-opacity:0" offset="1"/>
  </linearGradient>
  <linearGradient id="linearGradient3516" y2="-11.847" gradientUnits="userSpaceOnUse" x2="58.98" gradientTransform="matrix(.96826 0 0 .97948 2.179 .16587)" y1="-118.55" x1="57.173">
   <stop id="stop4596" offset="0"/>
   <stop id="stop4598" style="stop-opacity:0" offset="1"/>
  </linearGradient>
  <linearGradient id="linearGradient3519" y2="50.369" gradientUnits="userSpaceOnUse" x2="76.558" gradientTransform="matrix(.96826 0 0 .97948 3.2423 -129.19)" y1="13.164" x1="76.558">
   <stop id="stop3392" style="stop-color:#425e7b" offset="0"/>
   <stop id="stop3394" style="stop-color:#7a91a7" offset="1"/>
  </linearGradient>
  <linearGradient id="linearGradient3521" y2="-8.7399" gradientUnits="userSpaceOnUse" x2="60.217" gradientTransform="matrix(.96826 0 0 .97948 2.179 .16587)" y1="-123.72" x1="60.395">
   <stop id="stop3392-4-8" style="stop-color:#425e7b" offset="0"/>
   <stop id="stop3394-8-0" style="stop-color:#7a91a7" offset="1"/>
  </linearGradient>
  <radialGradient id="radialGradient3349" gradientUnits="userSpaceOnUse" cy="45.647" cx="42.148" gradientTransform="matrix(.94690 0 0 1.139 3.5954 -29.89)" r="58.984">
   <stop id="stop44117" style="stop-color:#fff" offset="0"/>
   <stop id="stop44119" style="stop-color:#eaeaea" offset="1"/>
  </radialGradient>
  <linearGradient id="linearGradient11406" y2="19.812" gradientUnits="userSpaceOnUse" x2="15.25" gradientTransform="matrix(2.6667 0 0 4.341 -1.4969e-7 -5.0231)" y1="8.4375" x1="12.938">
   <stop id="stop6594-0-2" style="stop-color:#fff;stop-opacity:.27451" offset="0"/>
   <stop id="stop6596-2-5" style="stop-color:#fff;stop-opacity:0" offset="1"/>
  </linearGradient>
  <filter id="filter3174" color-interpolation-filters="sRGB">
   <feGaussianBlur id="feGaussianBlur3176" stdDeviation="1.71"/>
  </filter>
  <linearGradient id="ButtonShadow-4" x1="45.448" gradientUnits="userSpaceOnUse" y1="92.54" gradientTransform="scale(1.0059 .99417)" x2="45.448" y2="7.0165">
   <stop id="stop3750-7" offset="0"/>
   <stop id="stop3752-9" style="stop-opacity:.58824" offset="1"/>
  </linearGradient>
  <filter id="filter3174-7" color-interpolation-filters="sRGB">
   <feGaussianBlur id="feGaussianBlur3176-1" stdDeviation="1.71"/>
  </filter>
 </defs>
 <rect id="rect892" style="stroke:url(#linearGradient3521);stroke-width:.97385;fill:url(#linearGradient3519)" transform="scale(1,-1)" ry="29.296" height="115.54" width="114.22" y="-122.25" x="7.0394"/>
 <rect id="rect892-2" style="stroke:url(#linearGradient3516);stroke-width:.97385;fill:url(#linearGradient3514)" transform="scale(1,-1)" ry="28.993" height="114.35" width="114.22" y="-121.46" x="7.0599"/>
 <path id="rect895" style="fill:url(#radialGradient3349)" d="m33.051 7.2596c-7.969-2.4493-27.013 15.174-25.653 23.038-0.050142 0.97378-0.088772 1.9648-0.088772 2.9572v52.419c0 20.876 10.712 33.859 22.318 33.859h67.038c12.638 0 24.318-11.245 24.318-25.859v-64.017c0.7-10.928-21.283-24.659-25.926-22.618-47.846 0.8653-18.017 0.2236-62.003 0.2236z"/>
 <path id="path3689" style="fill:#2ad4ff" d="m49.019 31.238c-9.8255 0-17.781 7.9553-17.781 17.781 0 3.0345 0.77749 5.9729 2.1186 8.4741-0.44773 2.1075-0.68097 4.2665-0.68097 6.5071 0 17.293 14.032 31.325 31.325 31.325 2.2404 0 4.3994-0.23328 6.5071-0.68114 2.5097 1.3531 5.4249 2.1188 8.4743 2.1188 9.8255 0 17.781-7.9555 17.781-17.781 0-3.0494-0.76547-5.9644-2.1186-8.4741 0.44772-2.1078 0.68097-4.2665 0.68097-6.5071 0-17.293-14.032-31.325-31.325-31.325-2.241 0-4.399 0.23328-6.5071 0.68114-2.5014-1.3415-5.4391-2.1185-8.4743-2.1185zm14.376 13.014c9.7899 0 14.83 5.1459 14.83 8.1716 0 3.026-1.4559 3.4806-3.8588 3.4806-4.6643 0-2.7475-5.5991-11.501-5.5991-2.8992 0-6.5071 1.3138-6.5071 4.6911 0 2.7099 3.1933 3.6956 8.8526 5.0695 8.5081 2.2798 14.906 4.5452 14.906 12.333 0 7.5648-6.1751 11.349-15.965 11.349s-16.041-5.8267-16.041-8.8528c0-3.026 1.1532-3.7831 3.5562-3.7831 4.6643 0 4.0338 6.3559 12.787 6.3559 2.8992 0 7.188-1.3136 7.188-4.6913 0-2.7097-0.22736-3.6341-6.4314-5.2963-6.6281-0.90366-17.327-3.0453-17.327-11.274 0-7.5653 5.7211-11.955 15.511-11.955z"/>
 <path id="rect6588" d="m7.2651 40.702c-3.6107-28.823 22.731-33.361 32.668-33.437l55.816 0.735c21.091 2.903 26.611 16.187 24.251 34.728l-112 30.388z" style="fill:url(#linearGradient11406)"/>
 <rect id="rect892-2-7-8" style="opacity:.15891;stroke:#000;stroke-width:4.8445;fill:none" transform="scale(1,-1)" ry="28.993" height="114.35" width="114.22" y="-121.16" x="6.8687"/>
 <rect id="rect892-2-7-1" style="opacity:.15891;stroke:#000;stroke-width:7.7512;fill:none" transform="scale(1,-1)" ry="28.993" height="114.35" width="114.22" y="-121.16" x="6.8687"/>
 <rect id="rect892-2-7-2-9" ry="28.067" style="stroke:#000;stroke-width:1.0489;fill:none" transform="scale(1,-1)" height="112.71" width="114.14" y="-120.31" x="7.0649"/>
 <path id="path1187" style="fill:#fff;fill-opacity:.057143" d="m33.017 7.2319c-23.707 0-26.027 0.6738-25.93 26.295-0.04334 0.71563-0.07674 1.4439-0.07674 2.1732v32.76c18.67-38.321 38.34-51.497 90.374-61.179-0.225-0.026-0.46-0.0303-0.691-0.0303-41.576 0.3874-25.652-0.0188-63.676-0.0188z"/>
 <g id="layer2" style="display:none" transform="matrix(1.2166 0 0 1.2299 5.6049 3.1187)">
  <rect id="rect3745" style="opacity:.9;filter:url(#filter3174);fill:url(#ButtonShadow-4)" rx="6" ry="6" height="85" width="86" y="7" x="5"/>
 </g>
 <g id="layer2-6" style="display:none" transform="matrix(1.2166 0 0 1.2299 5.6049 3.1187)">
  <rect id="rect3745-8" style="opacity:.9;filter:url(#filter3174-7);fill:url(#ButtonShadow-4)" rx="6" ry="6" height="85" width="86" y="7" x="5"/>
 </g>
 <path id="rect844" style="fill:#2ad4ff" d="m35.188 8c-15.064 0-27.188 12.124-27.188 27.188v57.624c0 15.068 12.124 27.188 27.188 27.188h57.624c15.068 0 27.188-12.12 27.188-27.188v-57.624c0-15.064-12.12-27.188-27.188-27.188h-57.624zm0.937 1.8438h55.75c14.575 0 26.285 11.71 26.285 26.281v55.75c0 14.575-11.71 26.285-26.285 26.285h-55.75c-14.571 0-26.281-11.71-26.281-26.285l-0.0002-55.75c0-14.571 11.71-26.281 26.281-26.281z"/>
</svg>
