<?xml version="1.0" encoding="UTF-8" standalone="no"?>
<!-- Created with Inkscape (http://www.inkscape.org/) -->

<svg
   xmlns:dc="http://purl.org/dc/elements/1.1/"
   xmlns:cc="http://creativecommons.org/ns#"
   xmlns:rdf="http://www.w3.org/1999/02/22-rdf-syntax-ns#"
   xmlns:svg="http://www.w3.org/2000/svg"
   xmlns="http://www.w3.org/2000/svg"
   xmlns:xlink="http://www.w3.org/1999/xlink"
   xmlns:sodipodi="http://sodipodi.sourceforge.net/DTD/sodipodi-0.dtd"
   xmlns:inkscape="http://www.inkscape.org/namespaces/inkscape"
   id="svg3449"
   height="128"
   width="128"
   version="1.0"
   inkscape:version="0.48.4 r9939"
   sodipodi:docname="google-drive-drawings.svg">
  <sodipodi:namedview
     pagecolor="#ffffff"
     bordercolor="#666666"
     borderopacity="1"
     objecttolerance="10"
     gridtolerance="10"
     guidetolerance="10"
     inkscape:pageopacity="0"
     inkscape:pageshadow="2"
     inkscape:window-width="1360"
     inkscape:window-height="707"
     id="namedview36"
     showgrid="false"
     inkscape:zoom="1.3037281"
     inkscape:cx="-31.124674"
     inkscape:cy="73.078069"
     inkscape:window-x="-2"
     inkscape:window-y="33"
     inkscape:window-maximized="1"
     inkscape:current-layer="svg3449" />
  <metadata
     id="metadata56">
    <rdf:RDF>
      <cc:Work
         rdf:about="">
        <dc:format>image/svg+xml</dc:format>
        <dc:type
           rdf:resource="http://purl.org/dc/dcmitype/StillImage" />
        <dc:title></dc:title>
      </cc:Work>
    </rdf:RDF>
  </metadata>
  <defs
     id="defs3451">
    <linearGradient
       x1="67.952003"
       y1="-42.638"
       gradientTransform="matrix(0.96826,0,0,0.97948,2.179,0.16587)"
       x2="66.491997"
       gradientUnits="userSpaceOnUse"
       y2="-9.1034002"
       id="linearGradient3849">
      <stop
         offset="0"
         style="stop-color:#f38583;stop-opacity:1"
         id="stop3851" />
      <stop
         offset="1"
         style="stop-color:#bc2328;stop-opacity:1"
         id="stop3853" />
    </linearGradient>
    <linearGradient
       id="linearGradient3514"
       y2="-9.1034"
       gradientUnits="userSpaceOnUse"
       x2="66.492"
       gradientTransform="matrix(.96826 0 0 .97948 2.179 .16587)"
       y1="-42.638"
       x1="67.952">
      <stop
         id="stop4620"
         style="stop-color:#37414b"
         offset="0" />
      <stop
         id="stop4622"
         style="stop-color:#37414b;stop-opacity:0"
         offset="1" />
    </linearGradient>
    <linearGradient
       id="linearGradient3516"
       y2="-11.847"
       gradientUnits="userSpaceOnUse"
       x2="58.98"
       gradientTransform="matrix(.96826 0 0 .97948 2.179 .16587)"
       y1="-118.55"
       x1="57.173">
      <stop
         id="stop4596"
         offset="0" />
      <stop
         id="stop4598"
         style="stop-opacity:0"
         offset="1" />
    </linearGradient>
    <linearGradient
       id="linearGradient3519"
       y2="50.369"
       gradientUnits="userSpaceOnUse"
       x2="76.558"
       gradientTransform="matrix(.96826 0 0 .97948 3.2423 -129.19)"
       y1="13.164"
       x1="76.558">
      <stop
         id="stop3392"
         style="stop-color:#425e7b"
         offset="0" />
      <stop
         id="stop3394"
         style="stop-color:#7a91a7"
         offset="1" />
    </linearGradient>
    <linearGradient
       id="linearGradient3521"
       y2="-8.7399"
       gradientUnits="userSpaceOnUse"
       x2="60.217"
       gradientTransform="matrix(.96826 0 0 .97948 2.179 .16587)"
       y1="-123.72"
       x1="60.395">
      <stop
         id="stop3392-4-8"
         style="stop-color:#425e7b"
         offset="0" />
      <stop
         id="stop3394-8-0"
         style="stop-color:#7a91a7"
         offset="1" />
    </linearGradient>
    <radialGradient
       id="radialGradient3349"
       gradientUnits="userSpaceOnUse"
       cy="45.647"
       cx="42.148"
       gradientTransform="matrix(0.9469,0,0,1.139,130.78184,-45.618814)"
       r="58.984">
      <stop
         id="stop44117"
         style="stop-color:#f88e8b;stop-opacity:1"
         offset="0" />
      <stop
         id="stop44119"
         style="stop-color:#bc2328;stop-opacity:1"
         offset="1" />
    </radialGradient>
    <linearGradient
       inkscape:collect="always"
       xlink:href="#linearGradient3514"
       id="linearGradient3025"
       gradientUnits="userSpaceOnUse"
       gradientTransform="matrix(0.96826,0,0,0.97948,2.0090999,0.45087096)"
       x1="67.952"
       y1="-42.638"
       x2="66.492"
       y2="-9.1034" />
    <linearGradient
       inkscape:collect="always"
       xlink:href="#linearGradient3516"
       id="linearGradient3027"
       gradientUnits="userSpaceOnUse"
       gradientTransform="matrix(0.96826,0,0,0.97948,2.0090999,0.45087096)"
       x1="57.173"
       y1="-118.55"
       x2="58.98"
       y2="-11.847" />
    <linearGradient
       inkscape:collect="always"
       xlink:href="#linearGradient3514-2"
       id="linearGradient3025-8"
       gradientUnits="userSpaceOnUse"
       gradientTransform="matrix(0.96826,0,0,0.97948,2.0090999,0.45087096)"
       x1="67.952003"
       y1="-42.638"
       x2="66.491997"
       y2="-9.1034002" />
    <linearGradient
       id="linearGradient3514-2"
       y2="-9.1034002"
       gradientUnits="userSpaceOnUse"
       x2="66.491997"
       gradientTransform="matrix(0.96826,0,0,0.97948,2.179,0.16587)"
       y1="-42.638"
       x1="67.952003">
      <stop
         id="stop4620-7"
         style="stop-color:#37414b"
         offset="0" />
      <stop
         id="stop4622-8"
         style="stop-color:#37414b;stop-opacity:0"
         offset="1" />
    </linearGradient>
    <linearGradient
       inkscape:collect="always"
       xlink:href="#linearGradient3516-4"
       id="linearGradient3027-4"
       gradientUnits="userSpaceOnUse"
       gradientTransform="matrix(0.96826,0,0,0.97948,2.0090999,0.45087096)"
       x1="57.173"
       y1="-118.55"
       x2="58.98"
       y2="-11.847" />
    <linearGradient
       id="linearGradient3516-4"
       y2="-11.847"
       gradientUnits="userSpaceOnUse"
       x2="58.98"
       gradientTransform="matrix(0.96826,0,0,0.97948,2.179,0.16587)"
       y1="-118.55"
       x1="57.173">
      <stop
         id="stop4596-5"
         offset="0" />
      <stop
         id="stop4598-6"
         style="stop-opacity:0"
         offset="1" />
    </linearGradient>
    <radialGradient
       inkscape:collect="always"
       xlink:href="#linearGradient3849"
       id="radialGradient3847"
       cx="-26.462572"
       cy="-59.781796"
       fx="-26.462572"
       fy="-59.781796"
       r="57.596928"
       gradientTransform="matrix(1,0,0,1.0011285,65.534062,38.035965)"
       gradientUnits="userSpaceOnUse" />
    <linearGradient
       id="linearGradient3737-9-6">
      <stop
         id="stop3739-7-6"
         style="stop-color:#ffffff;stop-opacity:1"
         offset="0" />
      <stop
         id="stop3741-4-4"
         style="stop-color:#ffffff;stop-opacity:0"
         offset="1" />
    </linearGradient>
    <linearGradient
       id="linearGradient3173">
      <stop
         id="stop3175"
         style="stop-color:#ffffff;stop-opacity:1"
         offset="0" />
      <stop
         id="stop3177"
         style="stop-color:#ffffff;stop-opacity:0"
         offset="1" />
    </linearGradient>
    <linearGradient
       inkscape:collect="always"
       xlink:href="#linearGradient4380"
       id="linearGradient5046"
       gradientUnits="userSpaceOnUse"
       spreadMethod="pad"
       x1="252.78125"
       y1="132.96875"
       x2="252.78125"
       y2="386.875" />
    <linearGradient
       id="linearGradient4380">
      <stop
         style="stop-color:#ff753c;stop-opacity:1;"
         offset="0"
         id="stop4382" />
      <stop
         style="stop-color:#fe4e69;stop-opacity:1;"
         offset="1"
         id="stop4384" />
    </linearGradient>
  </defs>
  <path
     style="fill:#ffffff;fill-opacity:1;stroke:none"
     d="M 63.473258,26.207497 C 45.126161,26.438975 29.19832,40.041255 26.577904,58.771862 23.686409,79.440107 38.099451,98.534765 58.767696,101.42627 79.43595,104.31777 98.530595,89.904714 101.42209,69.23647 104.31359,48.568217 89.900556,29.473563 69.232305,26.582069 67.294658,26.31099 65.371231,26.183553 63.473258,26.207497 z m 0.04682,3.769132 c 1.709689,-0.0215 3.451824,0.08358 5.197188,0.32775 18.617201,2.60455 31.610474,19.799853 29.005929,38.417054 -0.47683,3.408254 -1.458006,6.628841 -2.832702,9.598411 L 30.370446,69.283292 C 29.863576,66.050696 29.800011,62.694913 30.276806,59.286898 32.637179,42.41506 46.99306,30.184471 63.520082,29.976629 z M 30.979124,72.30328 93.485848,81.035492 c -0.568454,0.983072 -1.190489,1.94167 -1.849456,2.856113 L 31.962379,75.533964 C 31.579453,74.473198 31.256062,73.405256 30.979126,72.30328 z m 2.270843,6.320904 56.302872,7.889425 c -0.846599,0.959587 -1.746501,1.859515 -2.692235,2.715646 L 35.099417,81.995334 c -0.674469,-1.082806 -1.298694,-2.216067 -1.84945,-3.37115 z m 4.143704,6.601833 46.376712,6.484783 c -1.310965,0.935203 -2.686941,1.785239 -4.120293,2.528365 L 40.647766,88.784453 c -1.175759,-1.10922 -2.249141,-2.29776 -3.254095,-3.558436 z m 7.678729,7.093462 29.33368,4.096886 c -4.734344,1.52552 -9.867428,2.04631 -15.12335,1.311 -5.255914,-0.73531 -10.076402,-2.641688 -14.21033,-5.407886 z"
     id="path4659"
     inkscape:connector-curvature="0" />
  <rect
     id="rect892-2"
     style="fill:url(#linearGradient3025);stroke:url(#linearGradient3027);stroke-width:0.97385001"
     transform="scale(1,-1)"
     ry="28.993"
     height="114.35"
     width="114.22"
     y="-121.175"
     x="6.8899994" />
  <rect
     id="rect892-2-8"
     style="fill:url(#radialGradient3847);fill-opacity:1;stroke:none"
     transform="scale(1,-1)"
     ry="28.993"
     height="114.35"
     width="114.22"
     y="-121.175"
     x="6.8899994" />
  <rect
     id="rect892-2-7-8"
     style="opacity:0.15891;fill:none;stroke:#000000;stroke-width:4.84450006"
     transform="scale(1,-1)"
     ry="28.993"
     height="114.35"
     width="114.22"
     y="-121.175"
     x="6.8899994" />
  <rect
     id="rect892-2-7-1"
     style="opacity:0.15891;fill:none;stroke:#000000;stroke-width:7.7512002"
     transform="scale(1,-1)"
     ry="28.993"
     height="114.35"
     width="114.22"
     y="-121.175"
     x="6.8899994" />
  <rect
     id="rect892-2-7-2-9"
     ry="28.066999"
     style="fill:none;stroke:#000000;stroke-width:1.04890001"
     transform="scale(1,-1)"
     height="112.71"
     width="114.14"
     y="-120.355"
     x="6.9300003" />
  <path
     id="path1187"
     style="fill:#ffffff;fill-opacity:0.05714303"
     d="M 33.158723,7.3520011 C 13.304542,10.478395 7.8978482,25.882071 7.1519828,35.820201 l 0,32.76 c 18.6700002,-38.321 38.3400002,-51.497 90.3740002,-61.1789999 -0.225,-0.026 -0.46,-0.0303 -0.691,-0.0303 -41.576,0.3874 -25.652,-0.0188 -63.676,-0.0188 z"
     inkscape:connector-curvature="0"
     sodipodi:nodetypes="ccccccc" />
  <path
     id="path13"
     d="m 30.479921,74.834718 c -0.02219,0.158312 -0.136118,0.268267 -0.275882,0.268267 -0.144399,0 -0.258659,-0.110621 -0.277206,-0.269588 l -0.505727,-3.775238 0.505727,-3.841142 c 0.01855,-0.159633 0.132807,-0.270582 0.277206,-0.270582 0.1391,0 0.254355,0.110949 0.275882,0.269588 l 0.599785,3.842136 -0.599785,3.776563 z m 4.085892,2.297798 c -0.02352,0.164269 -0.142079,0.279194 -0.286811,0.279194 -0.147379,0 -0.268927,-0.117576 -0.287805,-0.280851 l -0.679931,-6.073362 c 0,0 0.679931,-6.209481 0.679931,-6.211138 0.0202,-0.161622 0.14175,-0.278862 0.287805,-0.278862 0.145723,0 0.26396,0.113596 0.288135,0.278862 l 0.772667,6.211138 -0.773991,6.075019 z m 4.057079,1.252563 c -0.01887,0.227524 -0.193416,0.398089 -0.405707,0.398089 -0.21395,0 -0.389812,-0.170897 -0.406371,-0.398089 l -0.609721,-7.324931 0.609721,-7.570675 c 0.01723,-0.228523 0.191758,-0.399748 0.406371,-0.399748 0.211961,0 0.38683,0.171225 0.405707,0.397758 l 0.69318,7.572665 -0.69318,7.324931 z m 3.972625,0.06094 c -0.01788,0.259986 -0.217594,0.456711 -0.463667,0.456711 -0.249717,0 -0.448431,-0.196725 -0.46499,-0.458037 L 41.092244,71.05949 41.66686,64.036271 c 0.01589,-0.260978 0.21494,-0.458368 0.46499,-0.458368 0.247067,0 0.446775,0.195734 0.463667,0.455057 l 0.653436,7.02653 -0.653436,7.386529 z m 3.974612,0.0022 v -0.0022 c -0.01657,0.2888 -0.246077,0.517321 -0.523945,0.517321 -0.278862,0 -0.508705,-0.227527 -0.522946,-0.515996 L 44.98141,71.062463 45.523238,59.636072 c 0.01359,-0.290122 0.243756,-0.518644 0.522946,-0.518644 0.277538,0 0.507384,0.228522 0.523945,0.518644 l 0.61204,11.426391 -0.61204,7.385871 z m 3.973619,-0.04769 c -0.01459,0.323575 -0.271245,0.577265 -0.582232,0.577265 -0.313638,0 -0.569316,-0.254021 -0.581901,-0.574283 l -0.506391,-7.33851 c 0,0 0.505396,-14.040144 0.505396,-14.041136 0.01393,-0.323242 0.269588,-0.576602 0.583226,-0.576602 0.310987,0 0.566997,0.253028 0.582232,0.576602 l 0.571636,14.041136 -0.571967,7.335528 z m 4.055421,-0.118898 v 0.0011 c -0.01259,0.388814 -0.319268,0.694503 -0.700136,0.694503 -0.3812,0 -0.688873,-0.305689 -0.699473,-0.692518 L 52.763052,71.06676 53.198566,55.34152 c 0.01028,-0.391135 0.318604,-0.696824 0.700467,-0.696824 0.380205,0 0.688545,0.306681 0.700136,0.696824 l 0.490495,15.725571 -0.490495,7.214646 z m 4.057741,-0.107303 v -0.0056 c -0.01057,0.458368 -0.368947,0.815393 -0.818371,0.815393 -0.45075,0 -0.810753,-0.358351 -0.819696,-0.810091 L 56.65321,71.070002 57.018843,56.305545 c 0.0089,-0.458036 0.369609,-0.81572 0.819696,-0.81572 0.449097,0 0.807439,0.358016 0.818371,0.814396 l 0.410345,14.766112 -0.410345,7.104029 z m 4.144515,-0.145724 v -0.0083 c -0.0073,0.515996 -0.426906,0.934618 -0.936278,0.934618 -0.510694,0 -0.93031,-0.418953 -0.936937,-0.927 l -0.38451,-6.954991 0.383851,-19.16233 c 0.0076,-0.515662 0.427233,-0.934618 0.937931,-0.934618 0.509699,0 0.929316,0.419286 0.93627,0.932963 l 0.417301,19.163985 -0.417628,6.955654 z m 27.270193,0.988601 c -0.151691,0 -23.557222,-0.01158 -23.57875,-0.01459 -0.508043,-0.05101 -0.911765,-0.484862 -0.918388,-1.005162 V 50.999628 c 0.0063,-0.496124 0.177185,-0.752132 0.819361,-1.000525 1.651314,-0.638534 3.522206,-1.016422 5.441457,-1.016422 7.84192,0 14.27097,6.014411 14.9476,13.680139 1.01245,-0.424583 2.124579,-0.660391 3.2907,-0.660391 4.69727,0 8.505296,3.809346 8.505296,8.507607 -0.001,4.698927 -3.810006,8.507283 -8.507276,8.507283 z"
     inkscape:connector-curvature="0"
     style="fill:#ffffff;fill-opacity:1" />
</svg>
