<?xml version="1.0" encoding="UTF-8" standalone="no"?>
<!-- Created with Inkscape (http://www.inkscape.org/) -->
<svg id="svg5453" xmlns:rdf="http://www.w3.org/1999/02/22-rdf-syntax-ns#" xmlns="http://www.w3.org/2000/svg" height="64" width="64" version="1.1" xmlns:cc="http://creativecommons.org/ns#" xmlns:xlink="http://www.w3.org/1999/xlink" xmlns:dc="http://purl.org/dc/elements/1.1/">
 <defs id="defs5455">
  <linearGradient id="linearGradient10420" y2="497.8" gradientUnits="userSpaceOnUse" x2="404.57" gradientTransform="matrix(.82366 0 0 1 79.521 -2.6306)" y1="477.8" x1="384.57">
   <stop id="stop4235" style="stop-color:#947299" offset="0"/>
   <stop id="stop4237" style="stop-color:#ad7db4;stop-opacity:0" offset="1"/>
  </linearGradient>
  <radialGradient id="radialGradient10423" gradientUnits="userSpaceOnUse" cy="45.647" cx="42.148" gradientTransform="matrix(.61708 -.029284 .027419 .57778 378.91 469.38)" r="58.984">
   <stop id="stop10770" style="stop-color:#f7cdda" offset="0"/>
   <stop id="stop10772" style="stop-color:#df285e" offset="1"/>
  </radialGradient>
  <linearGradient id="linearGradient10426" y2="-9.1034" gradientUnits="userSpaceOnUse" x2="66.492" gradientTransform="matrix(.49210 0 0 .49742 385.17 -483.21)" y1="-42.638" x1="67.952">
   <stop id="stop4620" style="stop-color:#37414b" offset="0"/>
   <stop id="stop4622" style="stop-color:#37414b;stop-opacity:0" offset="1"/>
  </linearGradient>
  <linearGradient id="linearGradient10428" y2="-11.847" gradientUnits="userSpaceOnUse" x2="58.98" gradientTransform="matrix(.49210 0 0 .49742 385.17 -483.21)" y1="-118.55" x1="57.173">
   <stop id="stop4596" offset="0"/>
   <stop id="stop4598" style="stop-opacity:0" offset="1"/>
  </linearGradient>
  <linearGradient id="linearGradient10431" y2="50.369" gradientUnits="userSpaceOnUse" x2="76.558" gradientTransform="matrix(.49210 0 0 .49742 385.71 -548.91)" y1="13.164" x1="76.558">
   <stop id="stop3392" style="stop-color:#425e7b" offset="0"/>
   <stop id="stop3394" style="stop-color:#7a91a7" offset="1"/>
  </linearGradient>
  <linearGradient id="linearGradient10433" y2="-8.7399" gradientUnits="userSpaceOnUse" x2="60.217" gradientTransform="matrix(.49210 0 0 .49742 385.17 -483.21)" y1="-123.72" x1="60.395">
   <stop id="stop3392-4-8" style="stop-color:#425e7b" offset="0"/>
   <stop id="stop3394-8-0" style="stop-color:#7a91a7" offset="1"/>
  </linearGradient>
  <linearGradient id="linearGradient6422-1" y2="7.0165" gradientUnits="userSpaceOnUse" y1="92.54" gradientTransform="matrix(1.0059 0 0 .99417 158.64 4.6017)" x2="45.448" x1="45.448">
   <stop id="stop3750-99" offset="0"/>
   <stop id="stop3752-79" style="stop-opacity:.58824" offset="1"/>
  </linearGradient>
  <filter id="filter3174-49" color-interpolation-filters="sRGB">
   <feGaussianBlur id="feGaussianBlur3176-12" stdDeviation="1.71"/>
  </filter>
  <linearGradient id="linearGradient7720-7" y2="7.0165" gradientUnits="userSpaceOnUse" y1="92.54" gradientTransform="matrix(1.0059 0 0 .99417 75.661 -1.5)" x2="45.448" x1="45.448">
   <stop id="stop3750-4-2" offset="0"/>
   <stop id="stop3752-6-4" style="stop-opacity:.58824" offset="1"/>
  </linearGradient>
  <filter id="filter3174-3-3" color-interpolation-filters="sRGB">
   <feGaussianBlur id="feGaussianBlur3176-3-7" stdDeviation="1.71"/>
  </filter>
  <linearGradient id="linearGradient16955-4" y2="7.0165" gradientUnits="userSpaceOnUse" y1="92.54" gradientTransform="matrix(1.0059 0 0 .99417 -207.46 -7.6017)" x2="45.448" x1="45.448">
   <stop id="stop3750-5-1" offset="0"/>
   <stop id="stop3752-25-5" style="stop-opacity:.58824" offset="1"/>
  </linearGradient>
  <filter id="filter3174-7-5" color-interpolation-filters="sRGB">
   <feGaussianBlur id="feGaussianBlur3176-34-2" stdDeviation="1.71"/>
  </filter>
 </defs>
 <metadata id="metadata5458">
  <rdf:RDF>
   <cc:Work rdf:about="">
    <dc:format>image/svg+xml</dc:format>
    <dc:type rdf:resource="http://purl.org/dc/dcmitype/StillImage"/>
    <dc:title/>
   </cc:Work>
  </rdf:RDF>
 </metadata>
 <g id="layer1" transform="translate(-384.57 -483.8)">
  <rect id="rect892" style="stroke:url(#linearGradient10433);stroke-width:.49475;fill:url(#linearGradient10431)" transform="scale(1,-1)" ry="14.878" height="58.676" width="58.048" y="-545.38" x="387.64"/>
  <rect id="rect892-2-7-8" style="opacity:.15891;stroke:#000;stroke-width:2.4612;fill:none" transform="scale(1,-1)" ry="14.724" height="58.07" width="58.048" y="-544.83" x="387.55"/>
  <rect id="rect892-2-7-1" style="opacity:.15891;stroke:#000;stroke-width:3.9379;fill:none" transform="scale(1,-1)" ry="14.724" height="58.07" width="58.048" y="-544.83" x="387.55"/>
  <rect id="rect892-2" style="stroke:url(#linearGradient10428);stroke-width:.49475;fill:url(#linearGradient10426)" transform="scale(1,-1)" ry="14.724" height="58.07" width="58.048" y="-544.98" x="387.65"/>
  <path id="rect895" style="fill:url(#radialGradient10423)" d="m400.86 486.98c-4.0503-1.2438-13.29 5.8154-13.038 11.7-0.0255 0.49454-0.0451 0.99781-0.0451 1.5018v26.621c0 10.602 5.4442 17.195 11.343 17.195h34.071c6.4231 0 12.359-5.7106 12.359-13.133v-32.511c0.35356-5.551-7.9796-11.559-13.178-11.488-24.317 0.43952-9.1565 0.11361-31.511 0.11361z"/>
  <path id="path4230" style="fill:url(#linearGradient10420);fill-rule:evenodd" d="m399.57 487.17 21.415 26 0.82366 1 23.886-16.743-3.1257-5.0262-19.937-1.2306-2.471-4z"/>
  <rect id="rect892-2-7-2-9" ry="13.595" style="stroke:#000;stroke-width:.53449;fill:none" transform="scale(1,-1)" height="57.591" width="58.006" y="-544.39" x="387.66"/>
  <path id="path1187" style="fill:#fff;fill-opacity:.057143" d="m400.84 486.97c-12.048 0-13.227 0.34219-13.178 13.354-0.022 0.36343-0.039 0.73329-0.039 1.1037v16.637c9.4888-19.461 19.486-26.153 45.93-31.07-0.11421-0.0133-0.23371-0.0156-0.35102-0.0156-21.13 0.19676-13.037-0.01-32.362-0.01z"/>
  <g id="g6558" transform="matrix(1.2978 0 0 1.2978 386.71 484.86)">
   <rect id="rect3745-78" style="opacity:.9;filter:url(#filter3174-49);display:none;fill:url(#linearGradient6422-1)" rx="6" ry="6" height="85" width="86" y="11.602" x="163.64"/>
   <rect id="rect3745-9-7" style="opacity:.9;filter:url(#filter3174-3-3);display:none;fill:url(#linearGradient7720-7)" rx="6" ry="6" height="85" width="86" y="5.5" x="80.661"/>
   <rect id="rect3745-3-7" style="opacity:.9;filter:url(#filter3174-7-5);display:none;fill:url(#linearGradient16955-4)" rx="6" ry="6" height="85" width="86" y="-.60169" x="-202.46"/>
   <path id="path2536" style="fill:#fff" d="m33.803 21.319c0.03518 0.94442-0.27559 1.4033-0.55665 2.2149l-0.50544 0.25135c-0.41319 0.80292 0.04105 0.50974-0.25487 1.1481-0.64577 0.57346-1.9569 1.7939-2.3767 1.9057-0.30686-0.0067 0.20757-0.36198 0.27481-0.50075-0.86351 0.59261-0.69307 0.8897-2.0139 1.2505l-0.03831-0.08639c-3.2562 1.5323-7.7798-1.5038-7.7204-5.6458-0.0344 0.26269-0.0989 0.19702-0.17082 0.30256-0.16809-2.1308 0.9843-4.271 2.9279-5.1463 1.901-0.94052 4.1295-0.55508 5.4902 0.71496-0.74741-0.9796-2.2364-2.0182-3.9997-1.9221-1.7282 0.02815-3.3454 1.1262-3.8848 2.3188-0.88501 0.55704-0.98821 2.1484-1.3736 2.44-0.51951 3.8152 0.97609 5.4629 3.5064 7.4022 0.39716 0.26816 0.1118 0.3092 0.16496 0.51326-0.84044-0.39325-1.6097-0.98742-2.243-1.7149 0.33618 0.49137 0.69855 0.96905 1.1672 1.3443-0.79314-0.26777-1.8521-1.9205-2.1605-1.9877 1.3662 2.4463 5.5422 4.2902 7.7301 3.3751-1.0124 0.03752-2.2981 0.02072-3.4349-0.3995-0.47886-0.24588-1.1274-0.75444-1.0113-0.84943 2.9849 1.1145 6.0676 0.84357 8.6499-1.2263 0.6575-0.51208 1.3752-1.3826 1.5828-1.3944-0.31233 0.46987 0.05355 0.22594-0.18646 0.64069 0.65359-1.0558-0.28497-0.43 0.67626-1.8232l0.35494 0.48863c-0.13291-0.87719 1.0887-1.9412 0.96436-3.3274 0.28028-0.42374 0.31233 0.45658 0.01525 1.4315 0.4124-1.0816 0.10906-1.2556 0.21461-2.1484 0.11375 0.30022 0.26503 0.6188 0.34204 0.93582-0.26894-1.0457 0.27481-1.7602 0.41006-2.3681-0.13369-0.05864-0.41475 0.46205-0.47964-0.77243 0.0098-0.53632 0.14972-0.28106 0.20327-0.41318-0.10476-0.06059-0.38113-0.47182-0.54883-1.2603 0.12079-0.18568 0.32523 0.48042 0.49098 0.50739-0.10671-0.62662-0.29005-1.1047-0.29787-1.5859-0.48472-1.0124-0.17161 0.13525-0.56408-0.43468-0.51599-1.6082 0.42765-0.37331 0.49176-1.1035 0.78103 1.1317 1.2263 2.8868 1.4315 3.6135-0.15636-0.88618-0.4085-1.745-0.71692-2.5757 0.23806 0.10046-0.3827-1.8228 0.30921-0.54922-0.73842-2.7148-3.1577-5.2518-5.3839-6.4417 0.27168 0.24901 0.61528 0.56173 0.49254 0.61098-1.1078-0.65867-0.91315-0.71066-1.0719-0.98899-0.90103-0.36706-0.96123 0.030095-1.5574 0.0008-1.7004-0.90221-2.028-0.80644-3.5928-1.3709l0.07114 0.33305c-1.1262-0.37527-1.3123 0.14151-2.5291 0.0008-0.07389-0.057464 0.39012-0.20952 0.77243-0.26464-1.0891 0.14385-1.0382-0.215-2.1038 0.039485 0.2623-0.18412 0.54062-0.30647 0.82051-0.46283-0.88774 0.053947-2.1203 0.51678-1.7399 0.09538-1.4483 0.64656-4.0208 1.5538-5.4644 2.9075l-0.04534-0.30334c-0.66141 0.79393-2.8845 2.3712-3.0616 3.4005l-0.17708 0.04105c-0.34361 0.58282-0.56681 1.2431-0.83967 1.8423-0.44993 0.76734-0.65984 0.29552-0.59574 0.41592-0.8854 1.795-1.3259 3.3031-1.7055 4.5407 0.27051 0.40459 0.00668 2.4361 0.10867 4.0619-0.44407 8.0307 5.6361 15.827 12.282 17.627 0.97413 0.34908 2.4224 0.33657 3.6546 0.37097-1.4534-0.41592-1.641-0.22008-3.0577-0.71379-1.0214-0.4816-1.245-1.0308-1.969-1.659l0.28653 0.50622c-1.419-0.50233-0.8252-0.62156-1.9799-0.98705l0.30608-0.39911c-0.459-0.035-1.218-0.775-1.425-1.186l-0.50349 0.01994c-0.60434-0.74506-0.92683-1.2833-0.90299-1.7004l-0.16262 0.29005c-0.184-0.317-2.225-2.798-1.166-2.221-0.197-0.179-0.458-0.292-0.742-0.807l0.21539-0.24588c-0.50857-0.65555-0.93739-1.4956-0.90455-1.7755 0.27168 0.36667 0.46009 0.43547 0.64695 0.4984-1.2865-3.1913-1.3588-0.17552-2.3325-3.2484l0.20562-0.01642c-0.157-0.239-0.254-0.496-0.38-0.75l0.08991-0.89322c-0.92566-1.0695-0.25878-4.5521-0.1247-6.4616 0.09186-0.77634 0.77282-1.6031 1.29-2.8997l-0.31507-0.05395c0.60277-1.0508 3.4407-4.2214 4.7557-4.0588 0.63678-0.79979-0.12665-0.0031-0.25135-0.20405 1.399-1.4475 1.8388-1.0226 2.7828-1.2833 1.0175-0.60395-0.87367 0.23611-0.3913-0.23024 1.7602-0.44915 1.247-1.0218 3.5428-1.2497 0.24236 0.1376-0.56173 0.21265-0.76344 0.39129 1.4659-0.7177 4.6396-0.55391 6.7021 0.39794 2.3912 1.1184 5.0794 4.4227 5.1857 7.5316l0.12079 0.03244c-0.06098 1.236 0.1892 2.6656-0.2451 3.9782l0.29357-0.62193"/>
  </g>
 </g>
</svg>
