<?xml version="1.0" encoding="UTF-8" standalone="no"?>
<!-- Created with Inkscape (http://www.inkscape.org/) -->

<svg
   xmlns:dc="http://purl.org/dc/elements/1.1/"
   xmlns:cc="http://creativecommons.org/ns#"
   xmlns:rdf="http://www.w3.org/1999/02/22-rdf-syntax-ns#"
   xmlns:svg="http://www.w3.org/2000/svg"
   xmlns="http://www.w3.org/2000/svg"
   xmlns:xlink="http://www.w3.org/1999/xlink"
   xmlns:sodipodi="http://sodipodi.sourceforge.net/DTD/sodipodi-0.dtd"
   xmlns:inkscape="http://www.inkscape.org/namespaces/inkscape"
   id="svg3449"
   height="128"
   width="128"
   version="1.0"
   inkscape:version="0.48.4 r9939"
   sodipodi:docname="preferences-activities.svg">
  <sodipodi:namedview
     pagecolor="#ffffff"
     bordercolor="#666666"
     borderopacity="1"
     objecttolerance="10"
     gridtolerance="10"
     guidetolerance="10"
     inkscape:pageopacity="0"
     inkscape:pageshadow="2"
     inkscape:window-width="1360"
     inkscape:window-height="707"
     id="namedview48"
     showgrid="false"
     inkscape:zoom="2.6074563"
     inkscape:cx="27.652344"
     inkscape:cy="40.913253"
     inkscape:window-x="-2"
     inkscape:window-y="33"
     inkscape:window-maximized="1"
     inkscape:current-layer="svg3449" />
  <metadata
     id="metadata56">
    <rdf:RDF>
      <cc:Work
         rdf:about="">
        <dc:format>image/svg+xml</dc:format>
        <dc:type
           rdf:resource="http://purl.org/dc/dcmitype/StillImage" />
        <dc:title></dc:title>
      </cc:Work>
    </rdf:RDF>
  </metadata>
  <defs
     id="defs3451">
    <linearGradient
       inkscape:collect="always"
       id="linearGradient3992">
      <stop
         style="stop-color:#c1cde2;stop-opacity:1"
         offset="0"
         id="stop3994" />
      <stop
         style="stop-color:#39578e;stop-opacity:1"
         offset="1"
         id="stop3996" />
    </linearGradient>
    <linearGradient
       id="linearGradient3514"
       y2="-9.1034"
       gradientUnits="userSpaceOnUse"
       x2="66.492"
       gradientTransform="matrix(.96826 0 0 .97948 2.179 .16587)"
       y1="-42.638"
       x1="67.952">
      <stop
         id="stop4620"
         style="stop-color:#37414b"
         offset="0" />
      <stop
         id="stop4622"
         style="stop-color:#37414b;stop-opacity:0"
         offset="1" />
    </linearGradient>
    <linearGradient
       id="linearGradient3516"
       y2="-11.847"
       gradientUnits="userSpaceOnUse"
       x2="58.98"
       gradientTransform="matrix(.96826 0 0 .97948 2.179 .16587)"
       y1="-118.55"
       x1="57.173">
      <stop
         id="stop4596"
         offset="0" />
      <stop
         id="stop4598"
         style="stop-opacity:0"
         offset="1" />
    </linearGradient>
    <linearGradient
       id="linearGradient3519"
       y2="50.369"
       gradientUnits="userSpaceOnUse"
       x2="76.558"
       gradientTransform="matrix(.96826 0 0 .97948 3.2423 -129.19)"
       y1="13.164"
       x1="76.558">
      <stop
         id="stop3392"
         style="stop-color:#425e7b"
         offset="0" />
      <stop
         id="stop3394"
         style="stop-color:#7a91a7"
         offset="1" />
    </linearGradient>
    <linearGradient
       id="linearGradient3521"
       y2="-8.7399"
       gradientUnits="userSpaceOnUse"
       x2="60.217"
       gradientTransform="matrix(.96826 0 0 .97948 2.179 .16587)"
       y1="-123.72"
       x1="60.395">
      <stop
         id="stop3392-4-8"
         style="stop-color:#425e7b"
         offset="0" />
      <stop
         id="stop3394-8-0"
         style="stop-color:#7a91a7"
         offset="1" />
    </linearGradient>
    <radialGradient
       id="radialGradient3349"
       gradientUnits="userSpaceOnUse"
       cy="45.647"
       cx="42.148"
       gradientTransform="matrix(.94690 0 0 1.139 3.5954 -29.89)"
       r="58.984">
      <stop
         id="stop44117"
         style="stop-color:#ebebeb;stop-opacity:1"
         offset="0" />
      <stop
         id="stop44119"
         style="stop-color:#d0d0d0;stop-opacity:1"
         offset="1" />
    </radialGradient>
    <linearGradient
       id="linearGradient49478"
       y2="15.738"
       spreadMethod="reflect"
       gradientUnits="userSpaceOnUse"
       x2="25.525"
       gradientTransform="matrix(1 0 0 1.198 .24092 992.74)"
       y1="30.189"
       x1="25.525">
      <stop
         id="stop3868"
         style="stop-color:#828282"
         offset="0" />
      <stop
         id="stop3872"
         style="stop-color:#8f8f8f;stop-opacity:.63478"
         offset=".5" />
      <stop
         id="stop3870"
         style="stop-color:#9d9d9d;stop-opacity:0"
         offset="1" />
    </linearGradient>
    <linearGradient
       id="linearGradient49480"
       y2="15.738"
       spreadMethod="reflect"
       gradientUnits="userSpaceOnUse"
       x2="25.525"
       gradientTransform="matrix(1 0 0 1.198 .24092 994.3)"
       y1="30.189"
       x1="25.525">
      <stop
         id="stop3335-4"
         style="stop-color:#fff"
         offset="0" />
      <stop
         id="stop3337-7"
         style="stop-color:#fff;stop-opacity:0"
         offset="1" />
    </linearGradient>
    <linearGradient
       id="linearGradient49482"
       y2="20.443"
       gradientUnits="userSpaceOnUse"
       x2="23.904"
       gradientTransform="matrix(.99801 0 0 1.2785 .38468 992.26)"
       y1="35.75"
       x1="23.904">
      <stop
         id="stop3497"
         offset="0" />
      <stop
         id="stop3874"
         style="stop-opacity:.49804"
         offset=".5" />
      <stop
         id="stop3499"
         style="stop-opacity:0"
         offset="1" />
    </linearGradient>
    <linearGradient
       id="linearGradient49484"
       y2="15.738"
       spreadMethod="reflect"
       gradientUnits="userSpaceOnUse"
       x2="25.525"
       gradientTransform="matrix(1 0 0 1.198 .24092 991.05)"
       y1="30.189"
       x1="25.525">
      <stop
         id="stop3335-4-6"
         style="stop-color:#fff"
         offset="0" />
      <stop
         id="stop3337-7-2"
         style="stop-color:#fff;stop-opacity:0"
         offset="1" />
    </linearGradient>
    <linearGradient
       inkscape:collect="always"
       xlink:href="#linearGradient3954"
       id="linearGradient4798"
       gradientUnits="userSpaceOnUse"
       x1="27.021582"
       y1="45.744911"
       x2="67.427681"
       y2="45.744911"
       gradientTransform="matrix(0,-6.675088,6.675088,0,-49.891374,571.19763)" />
    <linearGradient
       id="linearGradient3954">
      <stop
         id="stop3956"
         style="stop-color:#1a1a1a;stop-opacity:1"
         offset="0" />
      <stop
         id="stop3958"
         style="stop-color:#3a3a3a;stop-opacity:1"
         offset="1" />
    </linearGradient>
    <linearGradient
       inkscape:collect="always"
       xlink:href="#linearGradient4059"
       id="linearGradient4795"
       gradientUnits="userSpaceOnUse"
       gradientTransform="matrix(3.5975411,0,0,3.5975411,85.567378,91.399854)"
       x1="45.541046"
       y1="27.989801"
       x2="45.541046"
       y2="65.94796" />
    <linearGradient
       id="linearGradient4059">
      <stop
         id="stop4061"
         style="stop-color:#cccccc;stop-opacity:1"
         offset="0" />
      <stop
         id="stop4063"
         style="stop-color:#969696;stop-opacity:1"
         offset="1" />
    </linearGradient>
    <linearGradient
       inkscape:collect="always"
       xlink:href="#linearGradient4164"
       id="linearGradient4785"
       gradientUnits="userSpaceOnUse"
       gradientTransform="matrix(4.4041919,0,0,4.4041919,44.05872,44.567862)"
       x1="36"
       y1="48"
       x2="60"
       y2="48" />
    <linearGradient
       id="linearGradient4164">
      <stop
         id="stop4166"
         style="stop-color:#ffffff;stop-opacity:1"
         offset="0" />
      <stop
         id="stop4168"
         style="stop-color:#ffffff;stop-opacity:0"
         offset="1" />
    </linearGradient>
    <linearGradient
       inkscape:collect="always"
       xlink:href="#linearGradient4120"
       id="linearGradient4789"
       gradientUnits="userSpaceOnUse"
       x1="45.541046"
       y1="37.152946"
       x2="45.541046"
       y2="65.94796"
       gradientTransform="matrix(2.6159566,0,0,2.6159566,131.92234,136.30237)" />
    <linearGradient
       id="linearGradient4120">
      <stop
         id="stop4122"
         style="stop-color:#ffffff;stop-opacity:1"
         offset="0" />
      <stop
         id="stop4124"
         style="stop-color:#989898;stop-opacity:1"
         offset="1" />
    </linearGradient>
    <linearGradient
       inkscape:collect="always"
       xlink:href="#linearGradient3830"
       id="linearGradient4782"
       gradientUnits="userSpaceOnUse"
       gradientTransform="matrix(0,8.0757003,-8.0757003,0,643.09358,-131.66456)"
       x1="41.46875"
       y1="48"
       x2="54.53125"
       y2="48" />
    <linearGradient
       id="linearGradient3830">
      <stop
         id="stop3832"
         style="stop-color:#ffffff;stop-opacity:1"
         offset="0" />
      <stop
         id="stop3834"
         style="stop-color:#3a3a3a;stop-opacity:1"
         offset="1" />
    </linearGradient>
    <linearGradient
       inkscape:collect="always"
       xlink:href="#linearGradient3737-7"
       id="linearGradient4779"
       gradientUnits="userSpaceOnUse"
       gradientTransform="matrix(4.4041919,0,0,4.4041919,44.05872,44.567862)"
       x1="41.712723"
       y1="36.09375"
       x2="53.529663"
       y2="59.90625" />
    <linearGradient
       id="linearGradient3737-7">
      <stop
         id="stop3739-3"
         style="stop-color:#ffffff;stop-opacity:1"
         offset="0" />
      <stop
         id="stop3741-05"
         style="stop-color:#ffffff;stop-opacity:0"
         offset="1" />
    </linearGradient>
    <radialGradient
       inkscape:collect="always"
       xlink:href="#linearGradient3992"
       id="radialGradient4000"
       cx="148.87022"
       cy="160.60608"
       fx="148.87022"
       fy="160.60608"
       r="114.75998"
       gradientTransform="matrix(1.7619514,0,0,1.3643589,-113.43188,-92.111931)"
       gradientUnits="userSpaceOnUse" />
  </defs>
  <rect
     id="rect892"
     style="stroke:url(#linearGradient3521);stroke-width:.97385;fill:url(#linearGradient3519)"
     transform="scale(1,-1)"
     ry="29.296"
     height="115.54"
     width="114.22"
     y="-122.25"
     x="7.0394" />
  <rect
     id="rect892-2"
     style="stroke:url(#linearGradient3516);stroke-width:.97385;fill:url(#linearGradient3514)"
     transform="scale(1,-1)"
     ry="28.993"
     height="114.35"
     width="114.22"
     y="-121.46"
     x="7.0599" />
  <path
     id="rect895"
     style="fill:url(#radialGradient3349)"
     d="M 33.051,7.2596 C 20.863329,6.4402411 6.038,22.4336 7.398,30.2976 7.347858,31.27138 7.309228,32.2624 7.309228,33.2548 l 0,63.130864 c 0,13.233186 13.05662,25.682526 25.436644,25.655606 l 62.360034,-0.13559 C 107.74388,121.8782 121.04297,108.95884 120.98323,93.6738 l -0.2397,-61.332391 C 120.17309,15.514915 106.05348,9.1197061 94.853838,6.9710033 46.668855,6.4803711 76.633448,6.8556203 33.054228,7.2624 z"
     inkscape:connector-curvature="0"
     sodipodi:nodetypes="ccssssscccc" />
  <path
     id="path1187"
     style="fill:#ffffff;fill-opacity:0.20731707"
     d="M 33.017,7.2319 C 13.557314,7.0316373 7.8059717,23.253274 7.087,33.5269 7.04366,34.24253 7.01026,34.9708 7.01026,35.7001 l 0,32.76 c 18.67,-38.321 38.34,-51.497 90.374,-61.179 -0.225,-0.026 -0.46,-0.0303 -0.691,-0.0303 -41.576,0.3874 -25.652,-0.0188 -63.676,-0.0188 z"
     inkscape:connector-curvature="0"
     sodipodi:nodetypes="ccsccccc" />
  <rect
     id="rect892-2-7-8"
     style="opacity:.15891;stroke:#000;stroke-width:4.8445;fill:none"
     transform="scale(1,-1)"
     ry="28.993"
     height="114.35"
     width="114.22"
     y="-121.16"
     x="6.8687" />
  <rect
     id="rect892-2-7-1"
     style="opacity:.15891;stroke:#000;stroke-width:7.7512;fill:none"
     transform="scale(1,-1)"
     ry="28.993"
     height="114.35"
     width="114.22"
     y="-121.16"
     x="6.8687" />
  <rect
     id="rect892-2-7-2-9"
     ry="28.066999"
     style="fill:none;stroke:#000000;stroke-width:1.04890001"
     transform="scale(1,-1)"
     height="115.21848"
     width="114.07221"
     y="-121.93712"
     x="7.0648999" />
  <g
     transform="matrix(0.25,0,0,0.25,0.03909925,-0.0289552)"
     id="g3153">
    <path
       style="fill:url(#radialGradient4000);stroke:none;fill-opacity:1"
       d="m 139.96054,357.32707 c 0.73562,1.08592 14.7129,-161.63105 115.91582,-261.095381 C 366.59767,204.6413 369.4805,356.73495 369.4805,356.73495 c -8.81263,-9.4237 -73.73111,10.60319 -113.69059,52.64434 -27.06622,-25.16558 -54.91582,-51.50287 -115.82937,-52.05222 z"
       id="path6394"
       inkscape:connector-curvature="0"
       sodipodi:nodetypes="ccccc" />
    <path
       style="fill:#282828;fill-opacity:1;stroke:none;display:inline;enable-background:new"
       d="m 247.91319,408.54075 c -11.93473,-11.70354 -19.38018,-18.30559 -27.56034,-24.43843 -15.46281,-11.59276 -32.2148,-19.20272 -50.0207,-22.72301 -6.91413,-1.36694 -17.46506,-2.66967 -24.65291,-3.04389 -3.37613,-0.17578 -6.20512,-0.38627 -6.28662,-0.46778 -0.42091,-0.4209 3.80009,-32.46648 5.99145,-45.48674 10.27029,-61.02224 28.1901,-108.4336 57.78606,-152.88752 13.4073,-20.13815 32.11071,-42.87452 49.11342,-59.703678 l 3.40788,-3.373087 6.84024,6.914835 c 35.20761,35.59155 62.32976,76.59626 80.09795,121.09642 12.27097,30.73245 20.80024,64.74696 26.51564,105.74379 1.79679,12.88852 3.28987,25.62069 3.17208,27.04986 l -0.10583,1.28409 -2.36116,0.0786 c -18.54562,0.61802 -30.69992,2.57085 -43.68651,7.01909 -19.24631,6.59238 -35.00693,17.03755 -55.98826,37.10562 -7.25726,6.94136 -14.18755,13.31214 -14.45823,13.29098 -0.11808,-0.009 -3.62996,-3.36588 -7.80416,-7.45922 z m 16.63048,-8.67854 c 13.55662,-12.85498 20.34752,-18.49475 29.90929,-24.83936 20.94671,-13.89895 40.09598,-20.21595 68.56688,-22.61899 l 2.27683,-0.19218 0,-1.33007 c 0,-4.13711 -2.53579,-24.3763 -4.58108,-36.56347 -6.13414,-36.55118 -13.05138,-62.04955 -24.70656,-91.07339 -10.44951,-26.0215 -25.44888,-52.38945 -43.36434,-76.23181 -12.24296,-14.49254 -24.00404,-29.58743 -36.72886,-43.47763 -9.89564,10.32619 -19.99421,21.94847 -29.12037,33.02107 -22.40013,27.93548 -39.36975,56.58325 -51.6796,87.24437 -11.50842,28.66496 -18.20201,53.275 -24.34426,89.50546 -2.6751,15.77922 -5.43209,38.5226 -4.72292,38.96088 0.20899,0.12916 2.07737,0.32776 4.15199,0.44135 9.05246,0.49558 21.87457,2.70458 30.70677,5.29016 5.82337,1.70476 9.82446,3.17393 15.50301,5.6926 2.56255,1.1366 4.71169,2.06654 4.77588,2.06654 0.0642,0 2.4448,1.30841 5.29028,2.90756 13.92146,7.82386 24.50318,16.03982 40.93062,31.77972 4.26696,4.08837 7.95595,7.44307 8.19775,7.45486 0.24181,0.0118 4.26422,-3.60515 8.93869,-8.03767 z m -31.14591,-15.95798 c 0.8178,-2.32875 11.40722,-17.63523 16.92459,-24.26822 1.64328,-1.97556 2.98779,-3.82337 2.98779,-4.10625 0,-0.65777 -11.10102,-10.38937 -16.92016,-15.22033 -2.47153,-2.05183 -8.18597,-5.64314 -8.02366,-5.64314 0.89351,0 17.75225,11.25008 23.42592,15.86331 1.8552,1.50845 3.60078,2.74159 3.87905,2.7403 0.27829,-0.002 2.47922,-1.60315 4.89099,-3.55972 4.39272,-3.56366 20.74784,-16.00344 21.48203,-15.99641 0.21492,0.002 -0.14051,0.41939 -0.78983,0.92741 -6.32033,4.94496 -23.22203,20.04529 -23.22203,20.89741 0,0.28774 1.03769,1.75608 2.30597,3.26298 5.42285,6.4431 15.16428,17.16621 17.66593,21.7438 1.37811,2.52169 0.85268,2.0033 -2.73507,-2.69848 -5.16051,-6.76289 -18.53059,-19.84725 -19.6432,-19.84725 -1.03985,0 -13.82825,15.5173 -19.28269,22.60306 -2.82593,3.67112 -3.23738,4.13228 -2.94563,3.30153 z m 71.53775,-25.00546 c -6.78868,-8.97119 -14.86401,-18.68002 -23.75354,-28.55846 -6.49018,-7.21218 -24.68844,-25.29816 -25.4552,-25.29816 -0.80641,0 -13.3502,12.20449 -21.18475,20.61171 -10.09749,10.83557 -21.28862,23.4224 -28.6958,33.1565 -5.46651,7.18379 -5.68523,6.92772 -0.78136,-0.91482 10.72135,-17.14616 27.01338,-38.27817 40.94857,-54.4978 1.97247,-2.29583 3.58927,-4.34497 3.59289,-4.55367 0.008,-0.47251 -7.35885,-7.65972 -13.27387,-12.94985 -18.2439,-16.31653 -44.63212,-34.44834 -62.94937,-43.11825 -2.45308,-1.16109 -4.19492,-2.35836 -3.98728,-2.42757 1.07051,-0.35684 25.83501,11.57278 34.49859,16.46507 16.45471,9.29192 36.03473,22.82373 48.59285,33.58269 1.60677,1.37658 3.0396,2.50287 3.18405,2.50287 0.14447,0 1.57729,-1.12629 3.18406,-2.50287 12.59125,-10.78734 32.09499,-24.26661 48.58871,-33.58027 8.84066,-4.99214 30.34823,-15.00583 32.19181,-14.99369 0.32372,0.002 -8.06796,4.19518 -11.15736,5.84001 -17.51239,9.32378 -35.69887,22.32697 -53.46836,38.22945 -5.92099,5.29888 -13.28207,12.48076 -13.27388,12.95075 0.003,0.20778 1.97115,2.67238 4.37227,5.47688 8.07479,9.43131 16.62008,20.3652 24.02719,30.74335 8.25141,11.56108 20.14829,28.93087 19.67152,29.40609 -0.06,0.0599 -3.30424,-3.49851 -4.87174,-5.56996 z m -128.56634,-5.97311 c -0.0373,-1.90348 6.48243,-26.10817 10.03138,-36.85673 1.3972,-4.23163 2.45256,-7.92265 2.34526,-8.20227 -0.42384,-1.1045 -12.42011,-6.24702 -21.11213,-9.05028 -6.35011,-2.04798 -13.56918,-3.53951 -13.38815,-3.72054 0.2778,-0.27781 12.52678,1.87052 17.94183,3.19053 5.84599,1.42508 11.22345,3.03107 15.57726,4.65222 2.55128,0.94998 2.79677,0.9854 3.25309,0.46929 0.27146,-0.30703 2.18033,-3.93629 4.24193,-8.06501 4.31241,-8.6364 12.87403,-24.06326 14.57237,-26.50914 1.40954,-2.02996 -0.44645,1.62738 -3.78916,9.39068 -2.50226,5.8114 -10.8313,25.17497 -11.27068,26.92556 -0.16837,0.67084 0.14345,1.0016 2.27102,2.4089 6.48241,4.28791 22.65768,16.88408 26.06322,20.49648 1.62961,1.72859 -1.2458,-0.34344 -5.69175,-3.53892 -7.43656,-5.34496 -23.76536,-15.15006 -24.64616,-14.41905 -1.10058,0.9134 -8.36132,18.82652 -11.99598,29.59551 -2.31123,6.84785 -4.38298,14.27338 -4.40335,13.23277 z m 158.66954,0.97399 c -0.11259,-0.27828 -3.16443,-10.31153 -4.44432,-14.11469 -3.63165,-10.79135 -10.90926,-28.7655 -12.02029,-29.68758 -0.8846,-0.73415 -18.38381,10.15419 -25.66092,15.42118 -4.66855,3.37899 -4.85505,3.39576 -1.51464,0.13621 4.36561,-4.25992 17.60701,-14.67308 24.64792,-19.29575 l 0.81993,-0.53831 -1.29239,-3.50939 c -2.84815,-7.73387 -7.35625,-18.55366 -9.39421,-23.14526 -1.1852,-2.6703 -5.87599,-11.08764 -5.87599,-11.21438 0,-0.40801 6.12887,8.7243 8.18288,12.3615 1.09851,1.94523 4.19824,8.30278 6.88828,13.59282 5.7268,11.26192 4.47283,10.38094 11.35053,7.97437 6.66491,-2.3321 21.48483,-6.04342 26.88005,-6.7333 3.00935,-0.38481 -3.11175,1.21589 -9.67232,3.30884 -9.66418,3.08307 -20.88193,8.22633 -21.33984,9.41962 -0.10918,0.28451 0.86913,3.74784 2.17402,7.69631 4.55494,13.78281 11.06976,37.26191 10.6202,38.45205 -0.0907,0.24016 -0.22009,0.19409 -0.34889,-0.12424 z m -119.3172,-96.89029 c 5.93957,-10.70462 20.54441,-31.98933 35.18403,-48.48931 0.76597,-0.86331 1.39267,-1.79582 1.39267,-2.07225 0,-0.82157 -8.49934,-8.76046 -14.4936,-13.53787 -6.37947,-5.08443 -17.57683,-11.51901 -23.43003,-15.43356 -2.27262,-1.51989 -10.82593,-6.65759 -10.82593,-6.74201 0,-0.34183 12.0109,6.12862 16.54395,8.72576 7.90598,4.52961 23.58376,13.99909 31.25047,20.41898 2.16472,1.81268 4.11241,3.29577 4.32822,3.29577 0.21582,0 2.2324,-1.54179 4.4813,-3.42621 8.46432,-7.09249 22.43242,-17.88894 31.33247,-22.73222 3.10448,-1.6894 14.39635,-6.24095 14.39635,-5.98603 0,0.0871 -9.66137,5.03014 -12.11951,6.67555 -5.31263,3.55612 -17.24565,12.69786 -22.48674,16.98757 -4.69562,3.84324 -12.23077,11.08763 -12.23077,11.75881 0,0.27393 0.6267,1.2044 1.39266,2.06771 12.30092,13.86409 26.01113,32.1734 31.15982,42.17633 2.61803,5.08635 5.49154,9.03849 5.19668,9.03849 -0.10037,0 -1.28174,-1.55583 -2.62529,-3.45741 -2.93696,-4.15683 -13.3848,-20.12067 -16.87967,-24.25321 -6.79993,-8.04062 -20.7289,-22.44051 -21.70664,-22.44051 -0.51954,0 -12.39303,12.06943 -17.25528,17.54006 -5.27069,5.93015 -17.23452,23.24147 -20.84791,28.36767 -1.47116,2.08711 -2.75264,3.79473 -2.84771,3.79473 -0.0951,0 0.39564,-1.02457 1.09046,-2.27684 z"
       id="path2831"
       sodipodi:nodetypes="csssssscccsscccsssccscccsscccssssssssssccsssssssssssssssccssssssssssssssssssssssccssssssssssssssssccsssscccssssssssssccsssssssssssssssssssssssc"
       inkscape:connector-curvature="0" />
  </g>
</svg>
