<?xml version="1.0" encoding="UTF-8" standalone="no"?>
<!-- Created with Inkscape (http://www.inkscape.org/) -->

<svg
   xmlns:dc="http://purl.org/dc/elements/1.1/"
   xmlns:cc="http://creativecommons.org/ns#"
   xmlns:rdf="http://www.w3.org/1999/02/22-rdf-syntax-ns#"
   xmlns:svg="http://www.w3.org/2000/svg"
   xmlns="http://www.w3.org/2000/svg"
   xmlns:xlink="http://www.w3.org/1999/xlink"
   xmlns:sodipodi="http://sodipodi.sourceforge.net/DTD/sodipodi-0.dtd"
   xmlns:inkscape="http://www.inkscape.org/namespaces/inkscape"
   id="svg3449"
   height="128"
   width="128"
   version="1.0"
   inkscape:version="0.48.4 r9939"
   sodipodi:docname="clamav.svg">
  <sodipodi:namedview
     pagecolor="#ffffff"
     bordercolor="#666666"
     borderopacity="1"
     objecttolerance="10"
     gridtolerance="10"
     guidetolerance="10"
     inkscape:pageopacity="0"
     inkscape:pageshadow="2"
     inkscape:window-width="1360"
     inkscape:window-height="707"
     id="namedview44"
     showgrid="false"
     inkscape:zoom="3.6875"
     inkscape:cx="37.764494"
     inkscape:cy="58.309284"
     inkscape:window-x="-2"
     inkscape:window-y="33"
     inkscape:window-maximized="1"
     inkscape:current-layer="svg3449" />
  <metadata
     id="metadata56">
    <rdf:RDF>
      <cc:Work
         rdf:about="">
        <dc:format>image/svg+xml</dc:format>
        <dc:type
           rdf:resource="http://purl.org/dc/dcmitype/StillImage" />
        <dc:title></dc:title>
      </cc:Work>
    </rdf:RDF>
  </metadata>
  <defs
     id="defs3451">
    <linearGradient
       inkscape:collect="always"
       id="linearGradient4105">
      <stop
         style="stop-color:#ffa800;stop-opacity:1"
         offset="0"
         id="stop4107" />
      <stop
         style="stop-color:#ffaa00;stop-opacity:0.09411765"
         offset="1"
         id="stop4109" />
    </linearGradient>
    <linearGradient
       id="linearGradient3514"
       y2="-9.1034"
       gradientUnits="userSpaceOnUse"
       x2="66.492"
       gradientTransform="matrix(.96826 0 0 .97948 2.179 .16587)"
       y1="-42.638"
       x1="67.952">
      <stop
         id="stop4620"
         style="stop-color:#37414b"
         offset="0" />
      <stop
         id="stop4622"
         style="stop-color:#37414b;stop-opacity:0"
         offset="1" />
    </linearGradient>
    <linearGradient
       id="linearGradient3516"
       y2="-11.847"
       gradientUnits="userSpaceOnUse"
       x2="58.98"
       gradientTransform="matrix(.96826 0 0 .97948 2.179 .16587)"
       y1="-118.55"
       x1="57.173">
      <stop
         id="stop4596"
         offset="0" />
      <stop
         id="stop4598"
         style="stop-opacity:0"
         offset="1" />
    </linearGradient>
    <linearGradient
       id="linearGradient3519"
       y2="50.369"
       gradientUnits="userSpaceOnUse"
       x2="76.558"
       gradientTransform="matrix(.96826 0 0 .97948 3.2423 -129.19)"
       y1="13.164"
       x1="76.558">
      <stop
         id="stop3392"
         style="stop-color:#425e7b"
         offset="0" />
      <stop
         id="stop3394"
         style="stop-color:#7a91a7"
         offset="1" />
    </linearGradient>
    <linearGradient
       id="linearGradient3521"
       y2="-8.7399"
       gradientUnits="userSpaceOnUse"
       x2="60.217"
       gradientTransform="matrix(.96826 0 0 .97948 2.179 .16587)"
       y1="-123.72"
       x1="60.395">
      <stop
         id="stop3392-4-8"
         style="stop-color:#425e7b"
         offset="0" />
      <stop
         id="stop3394-8-0"
         style="stop-color:#7a91a7"
         offset="1" />
    </linearGradient>
    <radialGradient
       id="radialGradient3349"
       gradientUnits="userSpaceOnUse"
       cy="47.837"
       cx="42.674"
       gradientTransform="matrix(0.9469,0,0,1.1575004,3.5954,-30.486518)"
       r="58.984">
      <stop
         id="stop3955"
         style="stop-color:#f4bf33;stop-opacity:1"
         offset="0" />
      <stop
         id="stop3957"
         style="stop-color:#d7a92d;stop-opacity:1"
         offset="1" />
    </radialGradient>
    <filter
       id="filter3174"
       color-interpolation-filters="sRGB">
      <feGaussianBlur
         id="feGaussianBlur3176"
         stdDeviation="1.71" />
    </filter>
    <linearGradient
       id="ButtonShadow-1"
       x1="45.448"
       gradientUnits="userSpaceOnUse"
       y1="92.54"
       gradientTransform="scale(1.0059 .99417)"
       x2="45.448"
       y2="7.0165">
      <stop
         id="stop3750-0"
         offset="0" />
      <stop
         id="stop3752-4"
         style="stop-opacity:.58824"
         offset="1" />
    </linearGradient>
    <linearGradient
       id="linearGradient5765-1"
       y2="509.01"
       gradientUnits="userSpaceOnUse"
       x2="411.2"
       gradientTransform="matrix(2.6505 -.71020 .71020 2.6505 -1539.7 -1056.5)"
       y1="537.88"
       x1="403.46">
      <stop
         id="stop4194-7"
         style="stop-color:#fadfbe;stop-opacity:.96863"
         offset="0" />
      <stop
         id="stop4196-7"
         style="stop-color:#fffaf5"
         offset="1" />
    </linearGradient>
    <linearGradient
       id="linearGradient4063"
       y2="80"
       xlink:href="#linearGradient4057"
       gradientUnits="userSpaceOnUse"
       x2="43"
       gradientTransform="translate(2,0)"
       y1="12"
       x1="43" />
    <linearGradient
       id="linearGradient4057">
      <stop
         id="stop4059"
         style="stop-color:#ffa800"
         offset="0" />
      <stop
         id="stop4061"
         style="stop-color:#ffa800;stop-opacity:0"
         offset="1" />
    </linearGradient>
    <linearGradient
       id="linearGradient4076"
       y2="13"
       xlink:href="#linearGradient4057"
       gradientUnits="userSpaceOnUse"
       x2="30"
       gradientTransform="translate(2,0)"
       y1="46"
       x1="30" />
    <linearGradient
       id="linearGradient3109">
      <stop
         id="stop3111"
         style="stop-color:#ffa800"
         offset="0" />
      <stop
         id="stop3113"
         style="stop-color:#ffa800;stop-opacity:0"
         offset="1" />
    </linearGradient>
    <linearGradient
       id="linearGradient3968"
       y2="74"
       gradientUnits="userSpaceOnUse"
       x2="46"
       gradientTransform="translate(2,0)"
       y1="12"
       x1="46">
      <stop
         id="stop3181"
         style="stop-opacity:.56911"
         offset="0" />
      <stop
         id="stop3187"
         style="stop-opacity:0"
         offset=".070175" />
      <stop
         id="stop3194"
         style="stop-color:#750202;stop-opacity:.090196"
         offset=".20272" />
      <stop
         id="stop3200"
         style="stop-color:#e47b04;stop-opacity:.13725"
         offset=".26649" />
      <stop
         id="stop3190"
         style="stop-color:#ffc906;stop-opacity:.18431"
         offset=".35025" />
      <stop
         id="stop3198"
         style="stop-color:#b76403;stop-opacity:.13725"
         offset="0.439" />
      <stop
         id="stop3192"
         style="stop-color:#700000;stop-opacity:.090196"
         offset=".49777" />
      <stop
         id="stop3196"
         style="stop-color:#fda100;stop-opacity:.19216"
         offset=".65896" />
      <stop
         id="stop3183"
         style="stop-color:#7c0000;stop-opacity:.60976"
         offset="1" />
    </linearGradient>
    <linearGradient
       id="linearGradient3942">
      <stop
         id="stop3944"
         style="stop-color:#ffa800"
         offset="0" />
      <stop
         id="stop3946"
         style="stop-color:#ffcf0e"
         offset="1" />
    </linearGradient>
    <linearGradient
       id="linearGradient3948"
       y2="21.848"
       xlink:href="#linearGradient3942"
       gradientUnits="userSpaceOnUse"
       x2="44.748001"
       y1="33.312"
       x1="45.087002" />
    <linearGradient
       id="linearGradient3130">
      <stop
         id="stop3132"
         style="stop-color:#ffa800"
         offset="0" />
      <stop
         id="stop3134"
         style="stop-color:#ffcf0e"
         offset="1" />
    </linearGradient>
    <linearGradient
       id="linearGradient3942-0">
      <stop
         id="stop3944-7"
         style="stop-color:#ffa800"
         offset="0" />
      <stop
         id="stop3946-1"
         style="stop-color:#ffcf0e"
         offset="1" />
    </linearGradient>
    <linearGradient
       id="linearGradient3160">
      <stop
         id="stop3162"
         style="stop-color:#ffa800"
         offset="0" />
      <stop
         id="stop3164"
         style="stop-color:#ffcf0e"
         offset="1" />
    </linearGradient>
    <linearGradient
       inkscape:collect="always"
       xlink:href="#linearGradient3968-5"
       id="linearGradient3133-2"
       gradientUnits="userSpaceOnUse"
       gradientTransform="matrix(0.59049,0,0,0.59049,-64.595714,33.536471)"
       x1="46"
       y1="12"
       x2="46"
       y2="74" />
    <linearGradient
       id="linearGradient3968-5"
       y2="74"
       gradientUnits="userSpaceOnUse"
       x2="46"
       gradientTransform="translate(2,0)"
       y1="12"
       x1="46">
      <stop
         id="stop3181-5"
         style="stop-opacity:.56911"
         offset="0" />
      <stop
         id="stop3187-5"
         style="stop-opacity:0"
         offset=".070175" />
      <stop
         id="stop3194-8"
         style="stop-color:#750202;stop-opacity:.090196"
         offset=".20272" />
      <stop
         id="stop3200-6"
         style="stop-color:#e47b04;stop-opacity:.13725"
         offset=".26649" />
      <stop
         id="stop3190-1"
         style="stop-color:#ffc906;stop-opacity:.18431"
         offset=".35025" />
      <stop
         id="stop3198-8"
         style="stop-color:#b76403;stop-opacity:.13725"
         offset="0.439" />
      <stop
         id="stop3192-9"
         style="stop-color:#700000;stop-opacity:.090196"
         offset=".49777" />
      <stop
         id="stop3196-0"
         style="stop-color:#fda100;stop-opacity:.19216"
         offset=".65896" />
      <stop
         id="stop3183-4"
         style="stop-color:#7c0000;stop-opacity:.60976"
         offset="1" />
    </linearGradient>
    <linearGradient
       inkscape:collect="always"
       xlink:href="#linearGradient4057-2"
       id="linearGradient3136-2"
       gradientUnits="userSpaceOnUse"
       gradientTransform="matrix(0.59049,0,0,0.59049,-64.595714,33.536471)"
       x1="30"
       y1="46"
       x2="30"
       y2="13" />
    <linearGradient
       id="linearGradient4057-2">
      <stop
         id="stop4059-7"
         style="stop-color:#ffa800"
         offset="0" />
      <stop
         id="stop4061-9"
         style="stop-color:#ffa800;stop-opacity:0"
         offset="1" />
    </linearGradient>
    <radialGradient
       id="radialGradient3349-7"
       gradientUnits="userSpaceOnUse"
       cy="47.837002"
       cx="42.674"
       gradientTransform="matrix(0.9469,0,0,1.139,3.5954,-29.89)"
       r="58.984001">
      <stop
         id="stop3955-8"
         style="stop-color:#ba2300;stop-opacity:1"
         offset="0" />
      <stop
         id="stop3957-0"
         style="stop-color:#a60000;stop-opacity:1"
         offset="1" />
    </radialGradient>
    <linearGradient
       inkscape:collect="always"
       xlink:href="#linearGradient4105"
       id="linearGradient4111"
       x1="1.2932168"
       y1="-127.99999"
       x2="126.16441"
       y2="-1.6271071"
       gradientUnits="userSpaceOnUse" />
    <linearGradient
       inkscape:collect="always"
       xlink:href="#linearGradient3942-0"
       id="linearGradient4119"
       gradientUnits="userSpaceOnUse"
       gradientTransform="matrix(3.1775448,0.09378636,-0.09378636,3.1775448,-76.209584,-32.543748)"
       x1="45.087002"
       y1="33.312"
       x2="44.748001"
       y2="21.848" />
    <linearGradient
       inkscape:collect="always"
       xlink:href="#linearGradient3942-0"
       id="linearGradient4121"
       gradientUnits="userSpaceOnUse"
       gradientTransform="matrix(3.1775448,0.09378636,-0.09378636,3.1775448,-76.209584,-32.543748)"
       x1="45.087002"
       y1="33.312"
       x2="44.748001"
       y2="21.848" />
  </defs>
  <rect
     id="rect892"
     style="stroke:url(#linearGradient3521);stroke-width:.97385;fill:url(#linearGradient3519)"
     transform="scale(1,-1)"
     ry="29.296"
     height="115.54"
     width="114.22"
     y="-122.25"
     x="7.0394" />
  <rect
     id="rect892-2"
     style="stroke:url(#linearGradient3516);stroke-width:.97385;fill:url(#linearGradient3514)"
     transform="scale(1,-1)"
     ry="28.993"
     height="114.35"
     width="114.22"
     y="-121.46"
     x="7.0599" />
  <path
     id="rect895"
     style="fill:url(#radialGradient3349)"
     d="M 33.051,7.2664907 C 25.082,4.7774075 6.038,22.686957 7.398,30.67869 7.347858,31.668286 7.309228,32.675403 7.309228,33.683922 l 0,57.270426 c 0,26.637392 19.989807,30.408962 22.318,30.408962 l 67.038,0 c 10.336912,0 24.318002,-11.42765 24.318002,-26.279021 l 0,-65.056808 c 0.7,-11.1055 -21.283002,-25.059528 -25.926002,-22.9853767 -47.846,0.8793548 -18.017,0.2272318 -62.003,0.2272318 z"
     inkscape:connector-curvature="0"
     sodipodi:nodetypes="ccssssscccc" />
  <rect
     id="rect892-2-7-8"
     style="opacity:.15891;stroke:#000;stroke-width:4.8445;fill:none"
     transform="scale(1,-1)"
     ry="28.993"
     height="114.35"
     width="114.22"
     y="-121.16"
     x="6.8687" />
  <rect
     id="rect892-2-7-1"
     style="opacity:.15891;stroke:#000;stroke-width:7.7512;fill:none"
     transform="scale(1,-1)"
     ry="28.993"
     height="114.35"
     width="114.22"
     y="-121.16"
     x="6.8687" />
  <rect
     id="rect892-2-7-2-9"
     ry="28.637388"
     style="fill:none;stroke:#000000;stroke-width:1.05945551"
     transform="scale(1,-1)"
     height="115.00054"
     width="114.12944"
     y="-121.83879"
     x="7.0701776" />
  <g
     id="layer2"
     style="display:none"
     transform="translate(148.5 -54.67)">
    <rect
       id="rect3745"
       style="opacity:.9;filter:url(#filter3174);fill:url(#ButtonShadow-1)"
       rx="6"
       ry="6"
       height="85"
       width="86"
       y="7"
       x="5" />
  </g>
  <path
     id="path1187"
     style="fill:#fff;fill-opacity:.057143"
     d="m33.017 7.2319c-23.707 0-26.027 0.6738-25.93 26.295-0.04334 0.71563-0.07674 1.4439-0.07674 2.1732v32.76c18.67-38.321 38.34-51.497 90.374-61.179-0.225-0.026-0.46-0.0303-0.691-0.0303-41.576 0.3874-25.652-0.0188-63.676-0.0188z" />
  <g
     transform="matrix(0.25,0,0,0.25,-1.3644068,-0.94087163)"
     id="g3163">
    <path
       sodipodi:nodetypes="cccssccccccccccccccccccccccsscssssssssssssssssssssssscsssssssss"
       inkscape:connector-curvature="0"
       id="path4251"
       d="M 215.4375,94.78125 96,301.625 286.59375,492 l 101.0964,-0.54237 c 48.24966,-0.25886 100.60336,-62.32087 101.59799,-100.51324 L 492,286.8125 l -76,-76.21875 -11.0625,-6.375 -11.03125,-6.375 -1.53125,2.65625 -7.21875,-7.71875 -13.8125,-7.96875 -13.75,-7.9375 -8.71875,-5.03125 -14.21875,-8.21875 -14.1875,-8.1875 -1.4375,2.71875 -7.28125,-7.75 -15.21875,-8.78125 -15.21875,-8.78125 -8.75,-5.0625 -14.1875,-8.1875 -14.1875,-8.1875 -1.53125,2.65625 c 0,0 -7.2178,-7.71632 -7.2187,-7.71875 l -10,-5.78125 z M 242.25,209.0625 c 1.67898,-0.006 3.23806,0.0866 4.65625,0.28125 2.26287,0.31061 5.30968,1.43143 7.78125,2.78125 1.48293,0.80991 2.75498,1.6996 3.5625,2.53125 1.77392,1.82695 2.9933,5.64283 2.78125,8.65625 -0.25063,3.56155 -2.97289,8.22176 -5.875,10.09375 -2.9892,1.92816 -4.17515,2.16144 -11.0625,2.34375 -8.07125,0.21364 -16.09441,2.22933 -20.78125,5.21875 -3.30422,2.10755 -8.06576,6.5906 -9.3125,8.75 -0.63417,1.09843 -0.55148,1.22753 1.59375,2.78125 6.86621,4.97296 9.81148,9.10609 11.8125,16.5625 2.23806,8.33969 1.0541,15.26878 -3.9375,22.75 -5.21525,7.81638 -13.87693,11.8809 -23.875,11.21875 -4.17398,-0.27643 -8.86581,-1.85128 -12.96875,-4.15625 -3.19118,-1.79277 -6.01949,-4.00832 -8,-6.4375 -10.16149,-12.4635 -8.48912,-31.37587 4.40625,-49.84375 9.20258,-13.1793 20.72215,-22.48632 35.5,-28.65625 7.17814,-2.99695 16.44315,-4.84726 23.71875,-4.875 z m 68.125,40.3125 c 3.34896,-1.8e-4 6.67384,0.26443 8.9375,0.8125 1.59621,0.38647 3.43755,1.17515 5.0625,2.09375 1.62495,0.91859 3.05674,1.96918 3.90625,2.96875 4.12522,4.85394 3.28041,12.15543 -1.96875,17.1875 -2.62451,2.51599 -5.54614,3.46453 -10.8125,3.53125 -12.58862,0.15949 -21.23819,3.38672 -28.09375,10.40625 -4.06813,4.16545 -4.27757,4.65445 -2.5625,6.0625 0.77799,0.63872 1.99896,1.48734 2.71875,1.90625 5.27592,3.07074 10.10057,12.43288 10.6875,20.6875 0.70281,9.88424 -5.7296,21.17314 -14.625,25.59375 -8.7714,4.35899 -19.31058,3.60163 -27.65625,-1.1875 -3.79348,-2.17688 -7.12613,-5.18919 -9.65625,-8.9375 -2.51407,-3.72454 -4.80397,-12.10508 -4.71875,-17.1875 0.13664,-8.14948 2.57136,-15.72069 8.34375,-25.71875 6.29901,-10.91022 13.36677,-18.50875 23.8125,-25.6875 9.035,-6.20924 21.26476,-11.05317 30.8125,-12.21875 1.80025,-0.21977 3.80312,-0.31239 5.8125,-0.3125 z"
       style="fill:#000000;fill-opacity:0.15686275" />
    <path
       style="fill:#ffffff"
       d="M 215.4224,94.789927 96,301.63558 c 67.18334,38.64013 141.08065,81.15831 200.69249,115.57449 C 346.44421,331.03767 366.39913,296.50467 416,210.59345 l -11.05054,-6.38003 -11.05053,-6.38003 -2.49032,4.31336 -2.49032,4.31335 1.53377,2.18865 c 1.84065,2.63825 3.06113,7.49679 2.74912,10.91761 -0.18295,2.00591 -0.67547,3.24589 -2.51657,6.43534 -2.01179,3.48517 -2.58452,4.17532 -4.7957,5.6581 -3.06937,2.05825 -7.33282,3.07568 -11.33368,2.7174 -4.38024,-0.39226 -8.9084,-3.05956 -11.60281,-6.83789 -6.5776,-9.22366 -2.26193,-22.15415 8.52572,-25.5709 1.88029,-0.59554 4.42964,-0.94017 5.9742,-0.80767 l 2.70893,0.24349 2.49032,-4.31336 2.49032,-4.31335 -13.78711,-7.95999 -13.77407,-7.95246 -8.71794,-5.03331 -14.2041,-8.20074 -14.19108,-8.19322 -2.33542,4.31591 -2.31486,4.31041 1.30471,2.07378 c 6.1357,9.74313 1.6378,21.95706 -9.29712,25.28189 -4.52453,1.37572 -8.68938,0.86412 -13.00913,-1.6033 -2.96374,-1.69288 -3.58122,-2.25969 -5.34225,-4.89135 -2.20715,-3.29838 -3.23198,-7.14044 -2.97011,-11.16683 0.13697,-2.10586 0.54413,-3.19044 2.44591,-6.49351 2.00992,-3.49092 2.57548,-4.15972 4.78818,-5.64506 2.87522,-1.93008 7.12295,-3.04399 10.63038,-2.79333 l 2.41619,0.17874 2.48279,-4.30033 2.4828,-4.30032 -15.22055,-8.78759 -15.22055,-8.78759 -8.73096,-5.04082 -14.19107,-8.19322 -14.19108,-8.19322 -2.48279,4.30032 -2.4828,4.30033 1.34985,1.99559 c 1.9708,2.91219 3.12999,7.14779 2.8961,10.60284 -0.1796,2.65317 -0.48646,3.48736 -2.49468,6.96922 -2.14376,3.71696 -2.46161,4.08398 -5.2068,5.76825 -3.50971,2.15333 -6.94484,2.96426 -10.95616,2.60524 -4.33723,-0.38819 -8.88275,-3.06615 -11.55069,-6.8078 -2.11779,-2.97008 -3.38352,-7.2965 -3.25385,-11.15688 0.0697,-2.07513 0.43462,-2.97979 2.62445,-6.77268 2.27861,-3.94667 2.7396,-4.51925 4.85442,-5.85007 2.79496,-1.75884 8.73354,-3.17933 11.16924,-2.67334 l 1.75843,0.35498 2.50537,-4.33942 2.51289,-4.35246 -10.00804,-5.77812 z M 324.36275,252.27645 c 1.62495,0.91859 3.05664,1.98539 3.90615,2.98496 4.12522,4.85394 3.28759,12.14873 -1.96157,17.1808 -2.62451,2.51599 -5.55023,3.47047 -10.81659,3.53719 -12.58862,0.15949 -21.23891,3.36133 -28.09447,10.38086 -4.06813,4.16545 -4.27663,4.65381 -2.56156,6.06186 0.77799,0.63872 2.00966,1.50444 2.72945,1.92335 5.27592,3.07074 10.11061,12.42978 10.69754,20.6844 0.70281,9.88424 -5.75215,21.16035 -14.64755,25.58096 -8.7714,4.35899 -19.2849,3.62278 -27.63057,-1.16635 -3.79348,-2.17688 -7.14654,-5.1919 -9.67666,-8.94021 -2.51407,-3.72454 -4.81094,-12.10202 -4.72572,-17.18444 0.13664,-8.14948 2.59346,-15.71726 8.36585,-25.71532 6.29901,-10.91022 13.3495,-18.50706 23.79523,-25.68581 9.035,-6.20924 21.26685,-11.0677 30.81459,-12.23328 4.80068,-0.58606 11.14467,-0.36136 14.76652,0.51555 1.59621,0.38647 3.41441,1.15688 5.03936,2.07548 z m -69.68986,-40.14859 c 1.48293,0.80991 2.76842,1.70204 3.57594,2.53369 1.77392,1.82695 2.98997,5.62732 2.77792,8.64074 -0.25063,3.56155 -2.96228,8.22524 -5.86439,10.09723 -2.9892,1.92816 -4.16849,2.17425 -11.05584,2.35656 -8.07125,0.21364 -16.10008,2.22792 -20.78692,5.21734 -3.30422,2.10755 -8.06814,6.5712 -9.31488,8.7306 -0.63417,1.09843 -0.56002,1.23801 1.58521,2.79173 6.86621,4.97296 9.81975,9.11572 11.82077,16.57213 2.23806,8.33969 1.03811,15.25631 -3.95349,22.73753 -5.21525,7.81638 -13.85971,11.89055 -23.85778,11.2284 -4.17398,-0.27643 -8.86125,-1.8439 -12.96419,-4.14887 -3.19118,-1.79277 -6.01811,-4.03058 -7.99862,-6.45976 -10.16149,-12.4635 -8.49456,-31.3771 4.40081,-49.84498 9.20258,-13.1793 20.7236,-22.48732 35.50145,-28.65725 8.83463,-3.68856 20.81667,-5.62451 28.38035,-4.58628 2.26287,0.31061 5.28209,1.44137 7.75366,2.79119 z"
       id="path3265"
       inkscape:connector-curvature="0"
       sodipodi:nodetypes="cccccccccssssssccccccccccccssssssccccccccccccssssssssccccccsssssscsssssssssscsssssssssssssssc" />
    <path
       inkscape:connector-curvature="0"
       id="path5462"
       d="m 242.25,209.0625 c -7.2756,0.0277 -16.54061,1.87805 -23.71875,4.875 -14.77785,6.16993 -26.29742,15.47695 -35.5,28.65625 -12.89537,18.46788 -14.56774,37.38025 -4.40625,49.84375 1.98051,2.42918 4.80882,4.64473 8,6.4375 4.10294,2.30497 8.79477,3.87982 12.96875,4.15625 9.99807,0.66215 18.65975,-3.40237 23.875,-11.21875 4.9916,-7.48122 6.17556,-14.41031 3.9375,-22.75 -2.00102,-7.45641 -4.94629,-11.58954 -11.8125,-16.5625 -2.14523,-1.55372 -2.22792,-1.68282 -1.59375,-2.78125 1.24674,-2.1594 6.00828,-6.64245 9.3125,-8.75 4.68684,-2.98942 12.71,-5.00511 20.78125,-5.21875 6.88735,-0.18231 8.0733,-0.41559 11.0625,-2.34375 2.90211,-1.87199 5.62437,-6.5322 5.875,-10.09375 0.21205,-3.01342 -1.00733,-6.8293 -2.78125,-8.65625 -0.80752,-0.83165 -2.07957,-1.72134 -3.5625,-2.53125 -2.47157,-1.34982 -5.51838,-2.47064 -7.78125,-2.78125 -1.41819,-0.19467 -2.97727,-0.28765 -4.65625,-0.28125 z m 68.125,40.3125 c -2.00938,1.1e-4 -4.01225,0.0927 -5.8125,0.3125 -9.54774,1.16558 -21.7775,6.00951 -30.8125,12.21875 -10.44573,7.17875 -17.51349,14.77728 -23.8125,25.6875 -5.77239,9.99806 -8.20711,17.56927 -8.34375,25.71875 -0.0852,5.08242 2.20468,13.46296 4.71875,17.1875 2.53012,3.74831 5.86277,6.76062 9.65625,8.9375 8.34567,4.78913 18.88485,5.54649 27.65625,1.1875 8.8954,-4.42061 15.32781,-15.70951 14.625,-25.59375 -0.58693,-8.25462 -5.41158,-17.61676 -10.6875,-20.6875 -0.71979,-0.41891 -1.94076,-1.26753 -2.71875,-1.90625 -1.71507,-1.40805 -1.50563,-1.89705 2.5625,-6.0625 6.85556,-7.01953 15.50513,-10.24676 28.09375,-10.40625 5.26636,-0.0667 8.18799,-1.01526 10.8125,-3.53125 5.24916,-5.03207 6.09397,-12.33356 1.96875,-17.1875 -0.84951,-0.99957 -2.2813,-2.05016 -3.90625,-2.96875 -1.62495,-0.9186 -3.46629,-1.70728 -5.0625,-2.09375 -2.26366,-0.54807 -5.58854,-0.81268 -8.9375,-0.8125 z"
       style="fill:#4d4d4d" />
  </g>
</svg>
