<?xml version="1.0" encoding="UTF-8" standalone="no"?>
<!-- Created with Inkscape (http://www.inkscape.org/) -->
<svg id="svg3449" xmlns:rdf="http://www.w3.org/1999/02/22-rdf-syntax-ns#" xmlns="http://www.w3.org/2000/svg" height="128" width="128" version="1.0" xmlns:cc="http://creativecommons.org/ns#" xmlns:xlink="http://www.w3.org/1999/xlink" xmlns:dc="http://purl.org/dc/elements/1.1/">
 <metadata id="metadata56">
  <rdf:RDF>
   <cc:Work rdf:about="">
    <dc:format>image/svg+xml</dc:format>
    <dc:type rdf:resource="http://purl.org/dc/dcmitype/StillImage"/>
    <dc:title/>
   </cc:Work>
  </rdf:RDF>
 </metadata>
 <defs id="defs3451">
  <linearGradient id="linearGradient3514" y2="-9.1034" gradientUnits="userSpaceOnUse" x2="66.492" gradientTransform="matrix(.96826 0 0 .97948 2.179 .16587)" y1="-42.638" x1="67.952">
   <stop id="stop4620" style="stop-color:#37414b" offset="0"/>
   <stop id="stop4622" style="stop-color:#37414b;stop-opacity:0" offset="1"/>
  </linearGradient>
  <linearGradient id="linearGradient3516" y2="-11.847" gradientUnits="userSpaceOnUse" x2="58.98" gradientTransform="matrix(.96826 0 0 .97948 2.179 .16587)" y1="-118.55" x1="57.173">
   <stop id="stop4596" offset="0"/>
   <stop id="stop4598" style="stop-opacity:0" offset="1"/>
  </linearGradient>
  <linearGradient id="linearGradient3519" y2="50.369" gradientUnits="userSpaceOnUse" x2="76.558" gradientTransform="matrix(.96826 0 0 .97948 3.2423 -129.19)" y1="13.164" x1="76.558">
   <stop id="stop3392" style="stop-color:#425e7b" offset="0"/>
   <stop id="stop3394" style="stop-color:#7a91a7" offset="1"/>
  </linearGradient>
  <linearGradient id="linearGradient3521" y2="-8.7399" gradientUnits="userSpaceOnUse" x2="60.217" gradientTransform="matrix(.96826 0 0 .97948 2.179 .16587)" y1="-123.72" x1="60.395">
   <stop id="stop3392-4-8" style="stop-color:#425e7b" offset="0"/>
   <stop id="stop3394-8-0" style="stop-color:#7a91a7" offset="1"/>
  </linearGradient>
  <linearGradient id="linearGradient4200" y2="30.574" gradientUnits="userSpaceOnUse" x2="121.37" gradientTransform="translate(0 -.70013)" y1="30.574" x1="6.7939">
   <stop id="stop4196" offset="0"/>
   <stop id="stop4198" style="stop-opacity:0" offset="1"/>
  </linearGradient>
  <linearGradient id="linearGradient11577" y2="8.1" gradientUnits="userSpaceOnUse" y1="6.1438" x2="19.387" x1="19.49">
   <stop id="stop10999-9-0" offset="0"/>
   <stop id="stop11001-6-1" style="stop-opacity:0" offset="1"/>
  </linearGradient>
  <radialGradient id="radialGradient3382-9" gradientUnits="userSpaceOnUse" cy="-16.639" cx="2.6083" gradientTransform="matrix(9.2228e-8 1.4278 -2.2909 6.4501e-8 -14.117 4.9249)" r="23">
   <stop id="stop6546-7-5" style="stop-color:#f0f0f0" offset="0"/>
   <stop id="stop6548-9-0" style="stop-color:#d2d2d2" offset="1"/>
  </radialGradient>
  <filter id="filter3198-5" color-interpolation-filters="sRGB" width="1.1734" y="-.10752" x="-.086712" height="1.215">
   <feGaussianBlur id="feGaussianBlur3200-3" stdDeviation="0.71710775"/>
  </filter>
  <linearGradient id="linearGradient3225-0" y2="5.4565" gradientUnits="userSpaceOnUse" x2="36.358" gradientTransform="matrix(1.4358 0 0 1.5351 -14.509 3.6321)" y1="8.059" x1="32.892">
   <stop id="stop8591-7-2-1" style="stop-color:#fefefe" offset="0"/>
   <stop id="stop8593-2-4-5" style="stop-color:#cbcbcb" offset="1"/>
  </linearGradient>
  <linearGradient id="ButtonShadow-06" y2="7.0165" gradientUnits="userSpaceOnUse" x2="45.448" gradientTransform="scale(1.0059 .99417)" y1="92.54" x1="45.448">
   <stop id="stop3750-9" offset="0"/>
   <stop id="stop3752-70" style="stop-opacity:.58824" offset="1"/>
  </linearGradient>
  <filter id="filter3174-6" color-interpolation-filters="sRGB">
   <feGaussianBlur id="feGaussianBlur3176-6" stdDeviation="1.71"/>
  </filter>
  <filter id="filter3174-8" color-interpolation-filters="sRGB">
   <feGaussianBlur id="feGaussianBlur3176-7" stdDeviation="1.71"/>
  </filter>
  <filter id="filter3174-4" color-interpolation-filters="sRGB">
   <feGaussianBlur id="feGaussianBlur3176-8" stdDeviation="1.71"/>
  </filter>
  <filter id="filter3794-83" height="1.384" width="1.384" color-interpolation-filters="sRGB" y="-.192" x="-.192">
   <feGaussianBlur id="feGaussianBlur3796-4" stdDeviation="5.28"/>
  </filter>
  <linearGradient id="linearGradient3613-76" y2="138.66" gradientUnits="userSpaceOnUse" x2="48" y1="20.221" x1="48">
   <stop id="stop3739-24" style="stop-color:#fff" offset="0"/>
   <stop id="stop3741-2" style="stop-color:#fff;stop-opacity:0" offset="1"/>
  </linearGradient>
  <clipPath id="clipPath3613-6">
   <rect id="rect3615-0" style="fill:#fff" rx="6" ry="6" height="84" width="84" y="6" x="6"/>
  </clipPath>
  <filter id="filter3174-9" color-interpolation-filters="sRGB">
   <feGaussianBlur id="feGaussianBlur3176-16" stdDeviation="1.71"/>
  </filter>
  <filter id="filter3174-0" color-interpolation-filters="sRGB">
   <feGaussianBlur id="feGaussianBlur3176-4" stdDeviation="1.71"/>
  </filter>
  <filter id="filter3174-7" color-interpolation-filters="sRGB">
   <feGaussianBlur id="feGaussianBlur3176-1" stdDeviation="1.71"/>
  </filter>
  <filter id="filter3174" color-interpolation-filters="sRGB">
   <feGaussianBlur id="feGaussianBlur3176" stdDeviation="1.71"/>
  </filter>
  <linearGradient id="linearGradient8954" y2="7.0165" gradientUnits="userSpaceOnUse" x2="45.448" gradientTransform="matrix(1.0059 0 0 .99417 -401.91 -77.064)" y1="92.54" x1="45.448">
   <stop id="stop3750-87" offset="0"/>
   <stop id="stop3752-4" style="stop-opacity:.58824" offset="1"/>
  </linearGradient>
 </defs>
 <rect id="rect892-2-7-1" style="opacity:.15891;stroke:#000;stroke-width:7.7512;fill:none" transform="scale(1,-1)" ry="28.993" height="114.35" width="114.22" y="-121.16" x="6.8687"/>
 <rect id="rect892" style="stroke:url(#linearGradient3521);stroke-width:.97385;fill:url(#linearGradient3519)" transform="scale(1,-1)" ry="29.296" height="115.54" width="114.22" y="-122.25" x="7.0394"/>
 <rect id="rect892-2" style="stroke:url(#linearGradient3516);stroke-width:.97385;fill:url(#linearGradient3514)" transform="scale(1,-1)" ry="28.993" height="114.35" width="114.22" y="-121.46" x="7.0599"/>
 <g id="g14613" transform="matrix(0 2.6832 -2.7101 0 126.94 .046408)">
  <g id="layer1-7" transform="matrix(.99081 0 0 1.4848 .23097 -6.5159)">
   <path id="path4322" d="m27.794 6.0905c1.441 0.453 15.184 10.348 17.206 13.922 2.398 16.448-7.327 14.594-31.941 14.125-12.933-1.192-10.645-7.029-10.337-22.467 3.0371-7.2073 10.203-5.515 25.072-5.5795z" style="fill-rule:evenodd;fill:url(#radialGradient3382-9)"/>
   <path id="path4891" d="m25.685 5.7862c3.6386-0.3502 2.8432 14.02 2.8432 14.02s16.093-0.84846 16.525 1.9543c3.85-3.268-16.654-16.76-19.368-15.974z" style="opacity:.3;fill-rule:evenodd;filter:url(#filter3198-5)"/>
   <path id="path4893" d="m26.797 6.0082c3.5685 0.65556 3.1934 12.163 3.1934 12.163s14.671-0.7593 15.026 2.628c0.924-1.993-10.657-12.068-16.353-14.337-0.732-0.2912-1.367-0.4538-1.866-0.4538z" style="fill:url(#linearGradient3225-0);fill-rule:evenodd"/>
  </g>
 </g>
 <path id="path4159-5" style="opacity:.53361;stroke:#000;stroke-width:2;fill:#2b2200" d="m7.1667 31.724h112.9z"/>
 <path id="path4159" style="stroke:#d4aa00;stroke-width:3;fill:url(#linearGradient4200)" d="m7.2939 29.874h113.58z"/>
 <path id="path4141" style="fill:#d40000" d="m7.569 29.599 112.81 0.000001c0.25-5.325-7.8-21.313-22.891-21.796l-66.935 0.3515c-11.224-0.1654-19.965 10.93-22.985 21.444z"/>
 <rect id="rect892-2-7-8" style="opacity:.15891;stroke:#000;stroke-width:4.8445;fill:none" transform="scale(1,-1)" ry="28.993" height="114.35" width="114.22" y="-121.16" x="6.8687"/>
 <rect id="rect892-2-7-2-9" ry="28.067" style="stroke:#000;stroke-width:1.0489;fill:none" transform="scale(1,-1)" height="112.71" width="114.14" y="-120.31" x="7.0649"/>
 <path id="path1187" style="fill:#fff;fill-opacity:.057143" d="m11.029 30.411c-4.0662 0-7.3909 3.6093-7.9298 8.2949-0.04334 0.71563-0.07674 1.4439-0.07674 2.1732v28.76c25.898-25.61 66.752-35.479 90.374-39.179-0.22473-0.02628-0.45986-0.03062-0.69067-0.03062-41.576 0.38742-43.653-0.01876-81.677-0.01875z"/>
 <g id="g4276" style="opacity:.48762" transform="matrix(.375 0 0 .375 149.84 45.168)">
  <path id="path4177" d="m-202.55-25.547c2.4375-2.9625 7.2-3.8625 10.325-1.4375 4.8375 3.45 9.3375 7.3375 14.088 10.912 3.85 2.375 6.875 7.2875 4.2125 11.65-4.2375 6.125-9.25 11.675-13.612 17.712-9.575-7.2625-18.988-14.762-28.4-22.238 4.7125-5.3375 8.75-11.225 13.388-16.6z"/>
  <path id="path4179" d="m-223.2 0.55308c1.45-1.8875 2.9125-3.775 4.3875-5.65 9.275 7.55 18.775 14.825 28.175 22.212-1.475 1.8375-2.95 3.6875-4.3875 5.55-9.3375-7.45-18.7-14.838-28.175-22.112z"/>
  <path id="path4181" d="m-323.94 128.34c32.575-41.362 65.188-82.7 97.738-124.09 9.4 7.35 18.7 14.838 28.188 22.075-32.575 41.45-65.175 82.888-97.888 124.24-9.175-7.625-18.738-14.762-28.038-22.225z"/>
  <path id="path4189" d="m-325.77 133.22c8.7625 6.525 17.15 13.55 25.875 20.138-5.4125 2.3625-10.538 5.375-16.138 7.2875-4.2875-3.7625-8.9375-7.0625-13.325-10.688 1.4625-5.525 2.1375-11.212 3.5875-16.738z"/>
  <path id="path4191" d="m-330.4 155.32c3.375 2.55 6.6875 5.1625 9.9375 7.8625-4.2875 1.7125-8.3625 3.875-12.538 5.8625 0.5625-4.6375 1.75-9.15 2.6-13.725z"/>
 </g>
 <g id="g17906" transform="matrix(2.3438 0 0 2.2539 224.79 41.695)"></g>
 <g id="layer2" style="display:none" transform="matrix(1.2166 0 0 1.2299 -152.33 6.6537)">
  <rect id="rect3745" style="opacity:.9;filter:url(#filter3174);fill:url(#ButtonShadow-06)" rx="6" ry="6" height="85" width="86" y="7" x="5"/>
 </g>
 <g id="layer2-6" style="display:none" transform="matrix(1.2166 0 0 1.2299 -152.33 6.6537)">
  <rect id="rect3745-8" style="opacity:.9;filter:url(#filter3174-7);fill:url(#ButtonShadow-06)" rx="6" ry="6" height="85" width="86" y="7" x="5"/>
 </g>
 <g id="layer2-69" style="display:none" transform="matrix(1.2166 0 0 1.2299 -152.33 6.6537)">
  <rect id="rect3745-4" style="opacity:.9;filter:url(#filter3174-0);fill:url(#ButtonShadow-06)" rx="6" ry="6" height="85" width="86" y="7" x="5"/>
 </g>
 <g id="layer2-64" style="display:none" transform="translate(-507.27 -26.152)">
  <rect id="rect3745-6" style="opacity:.9;filter:url(#filter3174-9);fill:url(#ButtonShadow-06)" rx="6" ry="6" height="85" width="86" y="7" x="5"/>
 </g>
 <g id="layer2-0" style="display:none" transform="matrix(1.2166 0 0 1.2299 -152.33 6.6537)">
  <rect id="rect3745-7" style="opacity:.9;filter:url(#filter3174-4);fill:url(#ButtonShadow-06)" rx="6" ry="6" height="85" width="86" y="7" x="5"/>
 </g>
 <g id="layer5-3" style="display:none" transform="matrix(1.2166 0 0 1.2299 -152.33 6.6537)">
  <rect id="rect3171-2" style="opacity:.1;filter:url(#filter3794-83);stroke:#fff;stroke-linecap:round;stroke-width:.5;fill:url(#linearGradient3613-76)" clip-path="url(#clipPath3613-6)" rx="12" ry="12" height="66" width="66" y="15" x="15"/>
 </g>
 <rect id="rect3745-75" style="opacity:.9;filter:url(#filter3174-8);display:none;fill:url(#linearGradient8954)" rx="6" ry="6" height="85" width="86" y="-70.064" x="-396.91"/>
 <g id="layer2-01" style="display:none" transform="translate(-472.23 63.289)">
  <rect id="rect3745-1" style="opacity:.9;filter:url(#filter3174-6);fill:url(#ButtonShadow-06)" rx="6" ry="6" height="85" width="86" y="7" x="5"/>
 </g>
</svg>
