<?xml version="1.0" encoding="UTF-8" standalone="no"?>
<!-- Created with Inkscape (http://www.inkscape.org/) -->

<svg
   xmlns:dc="http://purl.org/dc/elements/1.1/"
   xmlns:cc="http://creativecommons.org/ns#"
   xmlns:rdf="http://www.w3.org/1999/02/22-rdf-syntax-ns#"
   xmlns:svg="http://www.w3.org/2000/svg"
   xmlns="http://www.w3.org/2000/svg"
   xmlns:xlink="http://www.w3.org/1999/xlink"
   xmlns:sodipodi="http://sodipodi.sourceforge.net/DTD/sodipodi-0.dtd"
   xmlns:inkscape="http://www.inkscape.org/namespaces/inkscape"
   id="svg3449"
   height="128"
   width="128"
   version="1.0"
   inkscape:version="0.48.4 r9939"
   sodipodi:docname="genymotion.svg">
  <sodipodi:namedview
     pagecolor="#ffffff"
     bordercolor="#666666"
     borderopacity="1"
     objecttolerance="10"
     gridtolerance="10"
     guidetolerance="10"
     inkscape:pageopacity="0"
     inkscape:pageshadow="2"
     inkscape:window-width="1360"
     inkscape:window-height="707"
     id="namedview36"
     showgrid="false"
     inkscape:zoom="2.6074563"
     inkscape:cx="6.7015099"
     inkscape:cy="81.013544"
     inkscape:window-x="-2"
     inkscape:window-y="33"
     inkscape:window-maximized="1"
     inkscape:current-layer="svg3449" />
  <metadata
     id="metadata56">
    <rdf:RDF>
      <cc:Work
         rdf:about="">
        <dc:format>image/svg+xml</dc:format>
        <dc:type
           rdf:resource="http://purl.org/dc/dcmitype/StillImage" />
        <dc:title></dc:title>
      </cc:Work>
    </rdf:RDF>
  </metadata>
  <defs
     id="defs3451">
    <linearGradient
       x1="67.952003"
       y1="-42.638"
       gradientTransform="matrix(0.96826,0,0,0.97948,2.179,0.16587)"
       x2="66.491997"
       gradientUnits="userSpaceOnUse"
       y2="-9.1034002"
       id="linearGradient3849">
      <stop
         offset="0"
         style="stop-color:#f38583;stop-opacity:1"
         id="stop3851" />
      <stop
         offset="1"
         style="stop-color:#bc2328;stop-opacity:1"
         id="stop3853" />
    </linearGradient>
    <linearGradient
       id="linearGradient3514"
       y2="-9.1034"
       gradientUnits="userSpaceOnUse"
       x2="66.492"
       gradientTransform="matrix(.96826 0 0 .97948 2.179 .16587)"
       y1="-42.638"
       x1="67.952">
      <stop
         id="stop4620"
         style="stop-color:#37414b"
         offset="0" />
      <stop
         id="stop4622"
         style="stop-color:#37414b;stop-opacity:0"
         offset="1" />
    </linearGradient>
    <linearGradient
       id="linearGradient3516"
       y2="-11.847"
       gradientUnits="userSpaceOnUse"
       x2="58.98"
       gradientTransform="matrix(.96826 0 0 .97948 2.179 .16587)"
       y1="-118.55"
       x1="57.173">
      <stop
         id="stop4596"
         offset="0" />
      <stop
         id="stop4598"
         style="stop-opacity:0"
         offset="1" />
    </linearGradient>
    <linearGradient
       id="linearGradient3519"
       y2="50.369"
       gradientUnits="userSpaceOnUse"
       x2="76.558"
       gradientTransform="matrix(.96826 0 0 .97948 3.2423 -129.19)"
       y1="13.164"
       x1="76.558">
      <stop
         id="stop3392"
         style="stop-color:#425e7b"
         offset="0" />
      <stop
         id="stop3394"
         style="stop-color:#7a91a7"
         offset="1" />
    </linearGradient>
    <linearGradient
       id="linearGradient3521"
       y2="-8.7399"
       gradientUnits="userSpaceOnUse"
       x2="60.217"
       gradientTransform="matrix(.96826 0 0 .97948 2.179 .16587)"
       y1="-123.72"
       x1="60.395">
      <stop
         id="stop3392-4-8"
         style="stop-color:#425e7b"
         offset="0" />
      <stop
         id="stop3394-8-0"
         style="stop-color:#7a91a7"
         offset="1" />
    </linearGradient>
    <radialGradient
       id="radialGradient3349"
       gradientUnits="userSpaceOnUse"
       cy="45.647"
       cx="42.148"
       gradientTransform="matrix(0.9469,0,0,1.139,130.78184,-45.618814)"
       r="58.984">
      <stop
         id="stop44117"
         style="stop-color:#f88e8b;stop-opacity:1"
         offset="0" />
      <stop
         id="stop44119"
         style="stop-color:#bc2328;stop-opacity:1"
         offset="1" />
    </radialGradient>
    <linearGradient
       inkscape:collect="always"
       xlink:href="#linearGradient3514"
       id="linearGradient3025"
       gradientUnits="userSpaceOnUse"
       gradientTransform="matrix(0.96826,0,0,0.97948,2.0090999,0.45087096)"
       x1="67.952"
       y1="-42.638"
       x2="66.492"
       y2="-9.1034" />
    <linearGradient
       inkscape:collect="always"
       xlink:href="#linearGradient3516"
       id="linearGradient3027"
       gradientUnits="userSpaceOnUse"
       gradientTransform="matrix(0.96826,0,0,0.97948,2.0090999,0.45087096)"
       x1="57.173"
       y1="-118.55"
       x2="58.98"
       y2="-11.847" />
    <linearGradient
       inkscape:collect="always"
       xlink:href="#linearGradient3514-2"
       id="linearGradient3025-8"
       gradientUnits="userSpaceOnUse"
       gradientTransform="matrix(0.96826,0,0,0.97948,2.0090999,0.45087096)"
       x1="67.952003"
       y1="-42.638"
       x2="66.491997"
       y2="-9.1034002" />
    <linearGradient
       id="linearGradient3514-2"
       y2="-9.1034002"
       gradientUnits="userSpaceOnUse"
       x2="66.491997"
       gradientTransform="matrix(0.96826,0,0,0.97948,2.179,0.16587)"
       y1="-42.638"
       x1="67.952003">
      <stop
         id="stop4620-7"
         style="stop-color:#37414b"
         offset="0" />
      <stop
         id="stop4622-8"
         style="stop-color:#37414b;stop-opacity:0"
         offset="1" />
    </linearGradient>
    <linearGradient
       inkscape:collect="always"
       xlink:href="#linearGradient3516-4"
       id="linearGradient3027-4"
       gradientUnits="userSpaceOnUse"
       gradientTransform="matrix(0.96826,0,0,0.97948,2.0090999,0.45087096)"
       x1="57.173"
       y1="-118.55"
       x2="58.98"
       y2="-11.847" />
    <linearGradient
       id="linearGradient3516-4"
       y2="-11.847"
       gradientUnits="userSpaceOnUse"
       x2="58.98"
       gradientTransform="matrix(0.96826,0,0,0.97948,2.179,0.16587)"
       y1="-118.55"
       x1="57.173">
      <stop
         id="stop4596-5"
         offset="0" />
      <stop
         id="stop4598-6"
         style="stop-opacity:0"
         offset="1" />
    </linearGradient>
    <radialGradient
       inkscape:collect="always"
       xlink:href="#linearGradient3849"
       id="radialGradient3847"
       cx="-26.462572"
       cy="-59.781796"
       fx="-26.462572"
       fy="-59.781796"
       r="57.596928"
       gradientTransform="matrix(1,0,0,1.0011285,65.534062,38.035965)"
       gradientUnits="userSpaceOnUse" />
    <linearGradient
       id="linearGradient3737-9-6">
      <stop
         id="stop3739-7-6"
         style="stop-color:#ffffff;stop-opacity:1"
         offset="0" />
      <stop
         id="stop3741-4-4"
         style="stop-color:#ffffff;stop-opacity:0"
         offset="1" />
    </linearGradient>
    <linearGradient
       id="linearGradient3173">
      <stop
         id="stop3175"
         style="stop-color:#ffffff;stop-opacity:1"
         offset="0" />
      <stop
         id="stop3177"
         style="stop-color:#ffffff;stop-opacity:0"
         offset="1" />
    </linearGradient>
    <linearGradient
       inkscape:collect="always"
       xlink:href="#linearGradient4380"
       id="linearGradient5046"
       gradientUnits="userSpaceOnUse"
       spreadMethod="pad"
       x1="252.78125"
       y1="132.96875"
       x2="252.78125"
       y2="386.875" />
    <linearGradient
       id="linearGradient4380">
      <stop
         style="stop-color:#ff753c;stop-opacity:1;"
         offset="0"
         id="stop4382" />
      <stop
         style="stop-color:#fe4e69;stop-opacity:1;"
         offset="1"
         id="stop4384" />
    </linearGradient>
    <filter
       id="filter5009"
       inkscape:label="Diffuse light"
       inkscape:menu="ABCs"
       inkscape:menu-tooltip="Basic diffuse bevel to use for building textures"
       color-interpolation-filters="sRGB">
      <feGaussianBlur
         id="feGaussianBlur5011"
         stdDeviation="6"
         in="SourceGraphic"
         result="result0" />
      <feDiffuseLighting
         id="feDiffuseLighting5013"
         diffuseConstant="1"
         surfaceScale="10"
         result="result5">
        <feDistantLight
           id="feDistantLight5015"
           elevation="25"
           azimuth="235" />
      </feDiffuseLighting>
      <feComposite
         k4="0"
         id="feComposite5017"
         in2="SourceGraphic"
         k1="1"
         in="result5"
         result="result4"
         operator="arithmetic"
         k2="0"
         k3="0.6" />
    </filter>
  </defs>
  <path
     style="fill:#ffffff;fill-opacity:1;stroke:none"
     d="M 63.473258,26.207497 C 45.126161,26.438975 29.19832,40.041255 26.577904,58.771862 23.686409,79.440107 38.099451,98.534765 58.767696,101.42627 79.43595,104.31777 98.530595,89.904714 101.42209,69.23647 104.31359,48.568217 89.900556,29.473563 69.232305,26.582069 67.294658,26.31099 65.371231,26.183553 63.473258,26.207497 z m 0.04682,3.769132 c 1.709689,-0.0215 3.451824,0.08358 5.197188,0.32775 18.617201,2.60455 31.610474,19.799853 29.005929,38.417054 -0.47683,3.408254 -1.458006,6.628841 -2.832702,9.598411 L 30.370446,69.283292 C 29.863576,66.050696 29.800011,62.694913 30.276806,59.286898 32.637179,42.41506 46.99306,30.184471 63.520082,29.976629 z M 30.979124,72.30328 93.485848,81.035492 c -0.568454,0.983072 -1.190489,1.94167 -1.849456,2.856113 L 31.962379,75.533964 C 31.579453,74.473198 31.256062,73.405256 30.979126,72.30328 z m 2.270843,6.320904 56.302872,7.889425 c -0.846599,0.959587 -1.746501,1.859515 -2.692235,2.715646 L 35.099417,81.995334 c -0.674469,-1.082806 -1.298694,-2.216067 -1.84945,-3.37115 z m 4.143704,6.601833 46.376712,6.484783 c -1.310965,0.935203 -2.686941,1.785239 -4.120293,2.528365 L 40.647766,88.784453 c -1.175759,-1.10922 -2.249141,-2.29776 -3.254095,-3.558436 z m 7.678729,7.093462 29.33368,4.096886 c -4.734344,1.52552 -9.867428,2.04631 -15.12335,1.311 -5.255914,-0.73531 -10.076402,-2.641688 -14.21033,-5.407886 z"
     id="path4659"
     inkscape:connector-curvature="0" />
  <rect
     id="rect892-2"
     style="fill:url(#linearGradient3025);stroke:url(#linearGradient3027);stroke-width:0.97385001"
     transform="scale(1,-1)"
     ry="28.993"
     height="114.35"
     width="114.22"
     y="-121.175"
     x="6.8899994" />
  <rect
     id="rect892-2-8"
     style="fill:url(#radialGradient3847);fill-opacity:1;stroke:none"
     transform="scale(1,-1)"
     ry="28.993"
     height="114.35"
     width="114.22"
     y="-121.175"
     x="6.8899994" />
  <rect
     id="rect892-2-7-8"
     style="opacity:0.15891;fill:none;stroke:#000000;stroke-width:4.84450006"
     transform="scale(1,-1)"
     ry="28.993"
     height="114.35"
     width="114.22"
     y="-121.175"
     x="6.8899994" />
  <rect
     id="rect892-2-7-1"
     style="opacity:0.15891;fill:none;stroke:#000000;stroke-width:7.7512002"
     transform="scale(1,-1)"
     ry="28.993"
     height="114.35"
     width="114.22"
     y="-121.175"
     x="6.8899994" />
  <rect
     id="rect892-2-7-2-9"
     ry="28.304659"
     style="fill:none;stroke:#000000;stroke-width:1.05331099"
     transform="scale(1,-1)"
     height="113.66438"
     width="114.13559"
     y="-121.02395"
     x="6.9322062" />
  <path
     id="path1187"
     style="fill:#ffffff;fill-opacity:0.05714303"
     d="M 33.158723,7.3520011 C 13.304542,10.478395 7.8978482,25.882071 7.1519828,35.820201 l 0,32.76 c 18.6700002,-38.321 38.3400002,-51.497 90.3740002,-61.1789999 -0.225,-0.026 -0.46,-0.0303 -0.691,-0.0303 -41.576,0.3874 -25.652,-0.0188 -63.676,-0.0188 z"
     inkscape:connector-curvature="0"
     sodipodi:nodetypes="ccccccc" />
  <g
     id="g4309"
     transform="matrix(0.24330239,0,0,0.24330239,49.976712,52.756175)">
    <g
       transform="matrix(8.5818182,0,0,8.5818182,-217.28456,-8712.1422)"
       id="g24285">
      <circle
         d="m 51.700002,30.5 c 0,8.726099 -7.073901,15.8 -15.8,15.8 -8.7261,0 -15.800001,-7.073901 -15.800001,-15.8 0,-8.726099 7.073901,-15.8 15.800001,-15.8 8.726099,0 15.8,7.073901 15.8,15.8 z"
         r="15.8"
         cy="30.5"
         cx="35.900002"
         transform="matrix(1.4873418,0,0,1.4873418,-21.395573,974.9982)"
         id="path24150"
         style="fill:none;stroke:#ffffff;stroke-width:0.94013703;stroke-miterlimit:4;stroke-opacity:1;stroke-dasharray:none"
         sodipodi:cx="35.900002"
         sodipodi:cy="30.5"
         sodipodi:rx="15.8"
         sodipodi:ry="15.8" />
      <path
         sodipodi:type="arc"
         style="fill:none;stroke:#ffffff;stroke-width:1.42536902;stroke-linecap:round;stroke-miterlimit:4;stroke-opacity:1;stroke-dasharray:none"
         id="path24148"
         sodipodi:cx="35.900002"
         sodipodi:cy="30.5"
         sodipodi:rx="15.8"
         sodipodi:ry="15.8"
         d="M 30.496083,45.347143 C 22.296232,42.362642 18.068356,33.295932 21.052858,25.096081 24.03736,16.89623 33.104069,12.668355 41.30392,15.652857 c 8.199851,2.984501 12.427727,12.051211 9.443225,20.251062 -1.59736,4.38871 -5.054515,7.845865 -9.443225,9.443225"
         transform="matrix(0.98101265,0,0,0.98101265,-3.2183556,990.44124)"
         sodipodi:start="1.9198622"
         sodipodi:end="7.5049158"
         sodipodi:open="true" />
    </g>
    <path
       id="path5561"
       d="m 57.335565,-24.234283 c -18.95843,0 -34.32812,15.3672298 -34.32812,34.32618 l 12.16992,8.58203 -12.16992,0 0,8.58203 12,8.58203 -12,0 0,8.58203 12,8.58203 -12,0 0,8.58203 12,8.58203 -12,0 0,8.58203 c 0,1.87854 0.15692,3.71904 0.44726,5.51563 l -9.34179,-7.78516 c -0.9961,-3.63685 -4.3165999,-6.3125 -8.2695299,-6.3125 -4.73961,0 -8.58204,3.8423 -8.58204,8.58203 0,18.05931 7.98813,34.185063 20.6132899,45.142583 l 30.8789,30.98047 0,18.27539 c 0,3.95302 2.67569,7.27345 6.3125,8.26953 l 99.003915,99.00391 40.91992,0 c 49.4575,0 90.16773,-36.15768 97.25,-83.58398 L 84.415645,-10.988183 c -6.28171,-8.05743 -16.07175,-13.2461 -27.08008,-13.2461 z"
       style="fill:#000000;fill-opacity:0.15686275;fill-rule:nonzero;stroke:none"
       inkscape:connector-curvature="0" />
    <path
       inkscape:connector-curvature="0"
       id="path24142"
       d="m 57.333615,-24.234003 c -18.95843,0 -34.32727,15.3688498 -34.32727,34.32727 l 21.45454,0 c 2.37717,0 4.29091,1.91375 4.29091,4.29091 0,2.37717 -1.91374,4.29091 -4.29091,4.29091 l -21.45454,0 0,8.58182 21.45454,0 c 2.37717,0 4.29091,1.91375 4.29091,4.29091 0,2.37716 -1.91374,4.29091 -4.29091,4.29091 l -21.45454,0 0,8.58182 21.45454,0 c 2.37717,0 4.29091,1.91374 4.29091,4.29091 0,2.37716 -1.91374,4.29091 -4.29091,4.29091 l -21.45454,0 0,8.58181 21.45454,0 c 2.37717,0 4.29091,1.91375 4.29091,4.29091 0,2.37717 -1.91374,4.29091 -4.29091,4.29091 l -21.45454,0 0,8.58182 c 0,18.95843 15.36884,34.327273 34.32727,34.327273 18.95843,0 34.32727,-15.368843 34.32727,-34.327273 l 0,-8.58182 -21.45454,0 c -2.37717,0 -4.29091,-1.91374 -4.29091,-4.29091 0,-2.37716 1.91374,-4.29091 4.29091,-4.29091 l 21.45454,0 0,-8.58181 -21.45454,0 c -2.37717,0 -4.29091,-1.91375 -4.29091,-4.29091 0,-2.37717 1.91374,-4.29091 4.29091,-4.29091 l 21.45454,0 0,-8.58182 -21.45454,0 c -2.37717,0 -4.29091,-1.91375 -4.29091,-4.29091 0,-2.37716 1.91374,-4.29091 4.29091,-4.29091 l 21.45454,0 0,-8.58182 -21.45454,0 c -2.37717,0 -4.29091,-1.91374 -4.29091,-4.29091 0,-2.37716 1.91374,-4.29091 4.29091,-4.29091 l 21.45454,0 c 0,-18.9584202 -15.36884,-34.32727 -34.32727,-34.32727 z"
       style="fill:#ffffff;fill-opacity:1;fill-rule:nonzero;stroke:none" />
    <path
       inkscape:connector-curvature="0"
       id="path24200"
       d="m 5.8427051,70.165997 c -4.73961,0 -8.58182,3.84221 -8.58182,8.58182 0,30.249363 22.3988099,55.086433 51.4909099,59.268183 l 0,35.13182 c 0,4.73961 3.84221,8.58182 8.58182,8.58182 4.73961,0 8.58182,-3.84221 8.58182,-8.58182 l 0,-35.13182 c 29.0921,-4.18175 51.490915,-29.01882 51.490915,-59.268183 0,-4.73961 -3.84221,-8.58182 -8.58182,-8.58182 -4.73961,0 -8.58182,3.84221 -8.58182,8.58182 0,23.698043 -19.211055,42.909093 -42.909095,42.909093 -23.69804,0 -42.90909,-19.21105 -42.90909,-42.909093 0,-4.73961 -3.84221,-8.58182 -8.5818199,-8.58182 z"
       style="fill:#ffffff;fill-opacity:1;fill-rule:nonzero;stroke:none" />
    <path
       id="path24470"
       d="m 5.8427051,70.166167 0,17.16364 c 0.30208,0 0.51053,-0.24029 0.80455,-0.26604 3.9504199,24.513113 25.0588599,43.177713 50.6863599,43.177713 25.6275,0 46.735945,-18.6646 50.686365,-43.177713 0.29402,0 0.50247,0.26604 0.80455,0.26604 l 0,-8.58182 0,-8.58182 c -4.73961,0 -8.58182,3.84208 -8.58182,8.58182 0,23.697833 -19.211055,42.909093 -42.909095,42.909093 -23.69804,0 -42.90909,-19.21126 -42.90909,-42.909093 0,-4.73974 -3.84221,-8.58182 -8.5818199,-8.58182 z"
       style="fill:#ffffff;fill-opacity:1;fill-rule:nonzero;stroke:none"
       inkscape:connector-curvature="0" />
  </g>
</svg>
