<?xml version="1.0" encoding="UTF-8" standalone="no"?>
<!-- Created with Inkscape (http://www.inkscape.org/) -->
<svg id="svg3449" xmlns:rdf="http://www.w3.org/1999/02/22-rdf-syntax-ns#" xmlns="http://www.w3.org/2000/svg" height="128" width="128" version="1.0" xmlns:cc="http://creativecommons.org/ns#" xmlns:xlink="http://www.w3.org/1999/xlink" xmlns:dc="http://purl.org/dc/elements/1.1/">
 <metadata id="metadata56">
  <rdf:RDF>
   <cc:Work rdf:about="">
    <dc:format>image/svg+xml</dc:format>
    <dc:type rdf:resource="http://purl.org/dc/dcmitype/StillImage"/>
    <dc:title/>
   </cc:Work>
  </rdf:RDF>
 </metadata>
 <defs id="defs3451">
  <clipPath id="clipPath3860-8-9">
   <rect id="rect3862-2-4" style="fill:#f0f" rx="6" ry="6" height="72" width="84" y="18" x="6"/>
  </clipPath>
  <filter id="filter3870-7-8" height="1.3943" width="1.3312" color-interpolation-filters="sRGB" y="-.19716" x="-.16559">
   <feGaussianBlur id="feGaussianBlur3872-7-8" stdDeviation="5.1703125"/>
  </filter>
  <linearGradient id="linearGradient3514" y2="-9.1034" gradientUnits="userSpaceOnUse" x2="66.492" gradientTransform="matrix(.96826 0 0 .97948 2.179 .16587)" y1="-42.638" x1="67.952">
   <stop id="stop4620" style="stop-color:#37414b" offset="0"/>
   <stop id="stop4622" style="stop-color:#37414b;stop-opacity:0" offset="1"/>
  </linearGradient>
  <linearGradient id="linearGradient3516" y2="-11.847" gradientUnits="userSpaceOnUse" x2="58.98" gradientTransform="matrix(.96826 0 0 .97948 2.179 .16587)" y1="-118.55" x1="57.173">
   <stop id="stop4596" offset="0"/>
   <stop id="stop4598" style="stop-opacity:0" offset="1"/>
  </linearGradient>
  <linearGradient id="linearGradient3519" y2="50.369" gradientUnits="userSpaceOnUse" x2="76.558" gradientTransform="matrix(.96826 0 0 .97948 3.2423 -129.19)" y1="13.164" x1="76.558">
   <stop id="stop3392" style="stop-color:#425e7b" offset="0"/>
   <stop id="stop3394" style="stop-color:#7a91a7" offset="1"/>
  </linearGradient>
  <linearGradient id="linearGradient3521" y2="-8.7399" gradientUnits="userSpaceOnUse" x2="60.217" gradientTransform="matrix(.96826 0 0 .97948 2.179 .16587)" y1="-123.72" x1="60.395">
   <stop id="stop3392-4-8" style="stop-color:#425e7b" offset="0"/>
   <stop id="stop3394-8-0" style="stop-color:#7a91a7" offset="1"/>
  </linearGradient>
  <radialGradient id="radialGradient3349" gradientUnits="userSpaceOnUse" cy="45.647" cx="42.148" gradientTransform="matrix(.94690 0 0 1.139 3.5954 -29.89)" r="58.984">
   <stop id="stop2699-5" style="stop-color:#86b3e0" offset="0"/>
   <stop id="stop2701-7" style="stop-color:#649ad6" offset="1"/>
  </radialGradient>
  <linearGradient id="linearGradient3351" y2="81.481" gradientUnits="userSpaceOnUse" x2="48.022" y1="22.933" x1="48.022">
   <stop id="stop3876-6-4" style="stop-color:#fff" offset="0"/>
   <stop id="stop3878-8-0" style="stop-color:#fff;stop-opacity:0" offset="1"/>
  </linearGradient>
  <linearGradient id="linearGradient4157" y2="19.37" gradientUnits="userSpaceOnUse" x2="121.09" y1="19.37" x1="6.5311">
   <stop id="stop4153" style="stop-color:#fff" offset="0"/>
   <stop id="stop4155" style="stop-color:#fff;stop-opacity:.375" offset="1"/>
  </linearGradient>
  <linearGradient id="linearGradient4192" y2="31.742" gradientUnits="userSpaceOnUse" x2="121.11" y1="31.742" x1="6.5334">
   <stop id="stop4188" style="stop-color:#fff" offset="0"/>
   <stop id="stop4190" style="stop-color:#fff;stop-opacity:0" offset="1"/>
  </linearGradient>
  <linearGradient id="linearGradient4200" y2="30.574" gradientUnits="userSpaceOnUse" x2="121.37" y1="30.574" x1="6.7939">
   <stop id="stop4196" offset="0"/>
   <stop id="stop4198" style="stop-opacity:0" offset="1"/>
  </linearGradient>
 </defs>
 <rect id="rect892" style="stroke:url(#linearGradient3521);stroke-width:.97385;fill:url(#linearGradient3519)" transform="scale(1,-1)" ry="29.296" height="115.54" width="114.22" y="-122.25" x="7.0394"/>
 <rect id="rect892-2" style="stroke:url(#linearGradient3516);stroke-width:.97385;fill:url(#linearGradient3514)" transform="scale(1,-1)" ry="28.993" height="114.35" width="114.22" y="-121.46" x="7.0599"/>
 <path id="rect895" style="fill:url(#radialGradient3349)" d="m26.571 7.0104c-4.7037 0-18.55 16.911-19.173 23.287-0.050142 0.97378-0.088772 1.9648-0.088772 2.9572v52.419c0 22.085 6.6279 33.859 22.318 33.859h67.038c15.69 0 24.318-3.7744 24.318-25.859v-64.017c-0.21-5.933-21.655-22.618-25.926-22.618-47.846 0.8653-24.497-0.0256-68.483-0.0256z"/>
 <path id="path4159-5" style="stroke:url(#linearGradient4192);stroke-width:1px;fill:none" d="m7.0334 31.742h113.58z"/>
 <path id="path4141" style="fill:url(#linearGradient4157)" d="m7.0311 30.268 113.55 0.000001c0.26-5.326-7.9-21.313-23.2-21.796l-67.849 0.3513c-11.378-0.1654-19.439 10.93-22.5 21.445z"/>
 <rect id="rect892-2-7-8" style="opacity:.15891;stroke:#000;stroke-width:4.8445;fill:none" transform="scale(1,-1)" ry="28.993" height="114.35" width="114.22" y="-121.16" x="6.8687"/>
 <rect id="rect3353" style="fill:#415b79" ry="3.6828" height="12.276" width="61.972" y="107.87" x="33.014"/>
 <rect id="rect892-2-7-1" style="opacity:.15891;stroke:#000;stroke-width:7.7512;fill:none" transform="scale(1,-1)" ry="28.993" height="114.35" width="114.22" y="-121.16" x="6.8687"/>
 <rect id="rect892-2-7-2-9" ry="28.067" style="stroke:#000;stroke-width:1.0489;fill:none" transform="scale(1,-1)" height="112.71" width="114.14" y="-120.31" x="7.0649"/>
 <path id="path3850" style="opacity:.15;filter:url(#filter3870-7-8);fill:url(#linearGradient3351)" d="m15.969 22.531c-2.8459 0.0043-5.4332 2.5916-5.4375 5.4375v48.062c0.0043 2.8459 2.5916 5.4332 5.4375 5.4375h64.062c2.8459-0.0043 5.4332-2.5916 5.4375-5.4375v-48.062c-0.0043-2.8459-2.5916-5.4332-5.4375-5.4375z" clip-path="url(#clipPath3860-8-9)" transform="matrix(1.2564 0 0 1.4105 3.5293 -15.047)"/>
 <path id="path1187" style="fill:#fff;fill-opacity:.057143" d="m11.029 30.411c-4.0662 0-7.3909 3.6093-7.9298 8.2949-0.04334 0.71563-0.07674 1.4439-0.07674 2.1732v28.76c25.898-25.61 66.752-35.479 90.374-39.179-0.22473-0.02628-0.45986-0.03062-0.69067-0.03062-41.576 0.38742-43.653-0.01876-81.677-0.01875z"/>
 <path id="path4159" style="stroke:url(#linearGradient4200);stroke-width:1px;fill:none" d="m7.2939 30.574h113.58z"/>
 <path id="path3399" style="fill:#fff" d="m37.325 92.929c0.335 0.2475 0.7825 0.1575 1.1725 0.1925 19.338-0.015 38.675-0.0075 58.01-0.005 0.5375 0.0475 1.18-0.1525 1.3675-0.71 0.105-0.635 0.0475-1.2825 0.0575-1.925-0.0125-12.085 0.01-24.17-0.0125-36.255 0.0575-0.62-0.56-1.0975-1.145-1.05-19.26-0.0075-38.52 0.0075-57.78-0.0075-0.645 0.0425-1.4575-0.17-1.9325 0.3925-0.24 0.2375-0.2225 0.595-0.24 0.905-0.0025 12.425 0.0025 24.852 0 37.278-0.0175 0.4475 0.0525 0.9625 0.5025 1.185m10.988-6.74c0.005-0.4375 0.0075-0.875 0.0125-1.3125 12.695 0.0025 25.392 0.0125 38.09-0.005 0.0025 0.4425 0.0025 0.8825 0.0075 1.3225-12.702-0.0175-25.405-0.005-38.11-0.005m0.02-4.1575c-0.0075-0.4525-0.0125-0.905-0.0175-1.3575 12.7-0.0075 25.4 0.0125 38.098-0.01 0.0025 0.465-0.0175 0.93-0.035 1.395-12.682-0.065-25.365-0.0075-38.045-0.0275m-0.0175-3.6175c0-0.435 0.0025-0.8725 0.005-1.31 12.7-0.0025 25.4 0.0125 38.1-0.0075v1.3225c-12.702-0.0125-25.405-0.0025-38.105-0.005m0.0025-4.265c0-0.4375-0.0025-0.875-0.0025-1.315 12.702 0 25.405 0.01 38.105-0.005 0 0.4425-0.0025 0.885-0.0025 1.3275-12.7-0.0225-25.4-0.0075-38.1-0.0075m-9.8325-7.4975c0.07-3.75-0.025-7.4975 0.055-11.242 19.225 0.03 38.45 0.0175 57.675 0.0075 0.0625 3.74 0.015 7.4825 0.04 11.225-19.258 0-38.515-0.0175-57.77 0.01z"/>
 <path id="path3411" style="fill:#fff" d="m48.312 61.779h38.108c0.005-0.46 0.01-0.9175 0.0175-1.38-12.712 0.005-25.425-0.0025-38.138 0.005 0.0025 0.46 0.0075 0.9175 0.0125 1.375z"/>
 <path id="path3413" style="fill:#fff" d="m28.012 34.873c23.93-0.0075 47.858-0.0025 71.788-0.005 0.0025 5.245-0.0025 10.488 0.0025 15.73-23.928 0.0125-47.855 0-71.782 0.005-0.0025-5.2425 0.01-10.488-0.0075-15.73m8.81 7.8575c0.8975 1.055 1.7625 2.1375 2.6475 3.205 1.2325-0.0175 2.465-0.0125 3.7-0.005-0.8825-1.065-1.7625-2.13-2.635-3.2 0.8775-1.0725 1.75-2.1475 2.6425-3.2075-1.235 0.0125-2.47 0.015-3.705-0.0025-0.8875 1.065-1.7525 2.15-2.65 3.21m11.622-3.2c0.0025 2.13 0 4.2625 0.0025 6.395 2.145 0 4.2925-0.005 6.44 0.0025-0.0025-2.135-0.005-4.2675 0.0025-6.4-2.1475 0.0075-4.2975 0.0025-6.445 0.0025m20.918 0.6175c-0.875 0.405-1.175 1.445-1.2125 2.335-0.04 0.935-0.035 1.9875 0.5975 2.745 0.4225 0.5625 1.25 0.5725 1.8575 0.35 0.8125-0.4625 1.085-1.4575 1.09-2.335 0.015-0.95 0.0525-2.07-0.665-2.8-0.4075-0.47-1.1175-0.4725-1.6675-0.295m5.3175 0.5025c-0.7175 1.03-0.6425 2.3925-0.4625 3.575 0.1275 0.8075 0.7775 1.375 1.5275 1.61 0.4275-0.17 0.945-0.225 1.255-0.6025 0.7375-0.82 0.695-2.0025 0.65-3.0325-0.03-0.7875-0.3125-1.67-1.0575-2.055-0.66-0.2275-1.495-0.0975-1.9125 0.505m4.15 0.185c-0.59 1.0975-0.5625 2.4525-0.2675 3.6325 0.175 0.705 0.79 1.135 1.44 1.3675 0.915-0.125 1.6875-0.79 1.8325-1.7225 0.15-1.1225 0.2525-2.3825-0.3425-3.4-0.5675-0.98-2.1625-0.86-2.6625 0.1225m5.6725 4.81c0.1725 0 0.52 0.0025 0.6925 0.0025 0.19-0.525 0.3825-1.0475 0.585-1.5675 0.775 0.015 1.55 0.015 2.325 0.005 0.3425 0.6175 0.3275 1.8125 1.325 1.5875-0.7575-1.835-1.395-3.72-2.18-5.54-0.14-0.01-0.4225-0.03-0.5625-0.04-0.815 1.815-1.4375 3.71-2.185 5.5525m5.7075-5.5075c0 1.8225 0.005 3.645-0.0025 5.47 0.165 0.015 0.495 0.0475 0.66 0.0625 0.0125-1.5625-0.0225-3.1225 0.015-4.6825 0.6725 1.615 1.3725 3.2225 2.1325 4.8 0.995-1.4675 1.4675-3.2175 2.295-4.7825-0.01 1.525-0.0425 3.05-0.015 4.5725 0.1475 0.03 0.44 0.09 0.5875 0.12 0.0025-1.875 0-3.7475 0.0025-5.6225-0.1825 0.015-0.5475 0.045-0.7275 0.0575-0.79 1.42-1.3575 2.9525-2.04 4.425-0.81-1.425-1.3175-3-2.045-4.4675-0.215 0.01-0.6475 0.035-0.8625 0.0475m-17.6 1.6925c-0.3475 0.535 0.3575 0.7675 0.74 0.47 0.2525-0.5275-0.5675-1.0125-0.74-0.47m-0.0225 3.2375c-0.255 0.4075 0.195 0.8225 0.595 0.58 0.5625-0.3475-0.2475-1.165-0.595-0.58z"/>
 <path id="path3419" style="fill:#56a1a1" d="m69.362 39.95c0.55-0.1775 1.26-0.175 1.6675 0.295 0.7175 0.73 0.68 1.85 0.665 2.8-0.005 0.8775-0.2775 1.8725-1.09 2.335-0.6075 0.2225-1.435 0.2125-1.8575-0.35-0.6325-0.7575-0.6375-1.81-0.5975-2.745 0.0375-0.89 0.3375-1.93 1.2125-2.335m-0.0275 0.65c-0.5825 0.5575-0.5175 1.4275-0.545 2.165 0.0125 0.73-0.0075 1.6075 0.6075 2.1275 0.55 0.275 1.29 0.055 1.465-0.575 0.3425-1.075 0.345-2.2975-0.0475-3.3575-0.1875-0.6075-1.045-0.81-1.48-0.36z"/>
 <path id="path3421" style="fill:#56a1a1" d="m74.68 40.452c0.4175-0.6025 1.2525-0.7325 1.9125-0.505 0.745 0.385 1.0275 1.2675 1.0575 2.055 0.045 1.03 0.0875 2.2125-0.65 3.0325-0.31 0.3775-0.8275 0.4325-1.255 0.6025-0.75-0.235-1.4-0.8025-1.5275-1.61-0.18-1.1825-0.255-2.545 0.4625-3.575m0.93-0.05c-0.48 0.1575-0.6875 0.6975-0.785 1.15-0.1975 0.965-0.2175 2.0225 0.205 2.9325 0.275 0.7 1.42 0.7 1.71 0.0125 0.4575-1.0525 0.41-2.2825 0.105-3.3725-0.143-0.537-0.683-0.917-1.235-0.722z"/>
 <path id="path3423" style="fill:#56a1a1" d="m78.83 40.637c0.5-0.9825 2.095-1.1025 2.6625-0.1225 0.595 1.0175 0.4925 2.2775 0.3425 3.4-0.145 0.9325-0.9175 1.5975-1.8325 1.7225-0.65-0.2325-1.265-0.6625-1.44-1.3675-0.295-1.18-0.3225-2.535 0.2675-3.6325m1.0275-0.2275c-0.945 0.48-0.81 1.745-0.8325 2.64 0.0225 0.7075 0.0925 1.845 0.995 1.945 0.5575 0.13 1.0125-0.33 1.1375-0.835 0.28-1.0375 0.275-2.1875-0.105-3.1975-0.17-0.49-0.7125-0.7275-1.195-0.5525z"/>
 <path id="path3425" style="fill:#56a1a1" d="m84.502 45.447c0.7475-1.8425 1.37-3.7375 2.185-5.5525 0.14 0.01 0.4225 0.03 0.5625 0.04 0.785 1.82 1.4225 3.705 2.18 5.54-0.9975 0.225-0.9825-0.97-1.325-1.5875-0.775 0.01-1.55 0.01-2.325-0.005-0.2025 0.52-0.395 1.0425-0.585 1.5675-0.1725 0-0.52-0.0025-0.6925-0.0025m2.4425-4.765c-0.3475 0.88-0.6725 1.77-0.9625 2.67 0.6475 0.0025 1.2975 0.0025 1.9475 0.0025-0.33-0.89-0.6525-1.7825-0.985-2.6725z"/>
 <path id="path3427" style="fill:#56a1a1" d="m90.21 39.94c0.215-0.0125 0.6475-0.0375 0.8625-0.0475 0.7275 1.4675 1.235 3.0425 2.045 4.4675 0.6825-1.4725 1.25-3.005 2.04-4.425 0.18-0.0125 0.545-0.0425 0.7275-0.0575-0.0025 1.875 0 3.7475-0.0025 5.6225-0.1475-0.03-0.44-0.09-0.5875-0.12-0.0275-1.5225 0.005-3.0475 0.015-4.5725-0.8275 1.565-1.3 3.315-2.295 4.7825-0.76-1.5775-1.46-3.185-2.1325-4.8-0.0375 1.56-0.0025 3.12-0.015 4.6825-0.165-0.015-0.495-0.0475-0.66-0.0625 0.0075-1.825 0.0025-3.6475 0.0025-5.47z"/>
 <path id="path3429" style="fill:#fff" d="m75.61 40.402c0.5525-0.195 1.0925 0.185 1.235 0.7225 0.305 1.09 0.3525 2.32-0.105 3.3725-0.29 0.6875-1.435 0.6875-1.71-0.0125-0.4225-0.91-0.4025-1.9675-0.205-2.9325 0.0975-0.4525 0.305-0.9925 0.785-1.15z"/>
 <path id="path3431" style="fill:#fff" d="m79.858 40.41c0.4825-0.175 1.025 0.0625 1.195 0.5525 0.38 1.01 0.385 2.16 0.105 3.1975-0.125 0.505-0.58 0.965-1.1375 0.835-0.9025-0.1-0.9725-1.2375-0.995-1.945 0.0225-0.895-0.1125-2.16 0.8325-2.64z"/>
 <path id="path3433" style="fill:#fff" d="m69.335 40.6c0.435-0.45 1.2925-0.2475 1.48 0.36 0.3925 1.06 0.39 2.2825 0.0475 3.3575-0.175 0.63-0.915 0.85-1.465 0.575-0.615-0.52-0.595-1.3975-0.6075-2.1275 0.0275-0.7375-0.0375-1.6075 0.545-2.165z"/>
 <path id="path3435" style="fill:#fff" d="m86.945 40.682c0.3325 0.89 0.655 1.7825 0.985 2.6725-0.65 0-1.3 0-1.9475-0.0025 0.29-0.9 0.615-1.79 0.9625-2.67z"/>
 <path id="path3437" style="fill:#56a1a1" d="m72.61 41.632c0.1725-0.5425 0.9925-0.0575 0.74 0.47-0.3825 0.2975-1.0875 0.065-0.74-0.47z"/>
 <path id="path3439" style="fill:#56a1a1" d="m72.588 44.87c0.3475-0.585 1.1575 0.2325 0.595 0.58-0.4 0.2425-0.85-0.1725-0.595-0.58z"/>
</svg>
