<?xml version="1.0" encoding="UTF-8" standalone="no"?>
<!-- Created with Inkscape (http://www.inkscape.org/) -->

<svg
   xmlns:dc="http://purl.org/dc/elements/1.1/"
   xmlns:cc="http://creativecommons.org/ns#"
   xmlns:rdf="http://www.w3.org/1999/02/22-rdf-syntax-ns#"
   xmlns:svg="http://www.w3.org/2000/svg"
   xmlns="http://www.w3.org/2000/svg"
   xmlns:xlink="http://www.w3.org/1999/xlink"
   xmlns:sodipodi="http://sodipodi.sourceforge.net/DTD/sodipodi-0.dtd"
   xmlns:inkscape="http://www.inkscape.org/namespaces/inkscape"
   version="1.0"
   width="24"
   height="24"
   id="svg2"
   inkscape:version="0.48.4 r9939"
   sodipodi:docname="emblem-web.svg">
  <sodipodi:namedview
     pagecolor="#ffffff"
     bordercolor="#666666"
     borderopacity="1"
     objecttolerance="10"
     gridtolerance="10"
     guidetolerance="10"
     inkscape:pageopacity="0"
     inkscape:pageshadow="2"
     inkscape:window-width="1360"
     inkscape:window-height="712"
     id="namedview50"
     showgrid="false"
     inkscape:zoom="17.557285"
     inkscape:cx="19.106553"
     inkscape:cy="9.3067817"
     inkscape:window-x="-2"
     inkscape:window-y="28"
     inkscape:window-maximized="1"
     inkscape:current-layer="svg2"
     showguides="true"
     inkscape:guide-bbox="true">
    <sodipodi:guide
       orientation="0,1"
       position="19.473531,20.277484"
       id="guide3168" />
    <sodipodi:guide
       orientation="1,0"
       position="4.4664062,7.7268827"
       id="guide3170" />
    <sodipodi:guide
       orientation="0,1"
       position="16.302383,5.2256952"
       id="guide3172" />
    <sodipodi:guide
       orientation="1,0"
       position="19.473531,6.0743124"
       id="guide3174" />
  </sodipodi:namedview>
  <defs
     id="defs4">
    <linearGradient
       id="linearGradient3625">
      <stop
         id="stop3627"
         style="stop-color:#787878;stop-opacity:1"
         offset="0" />
      <stop
         id="stop3629"
         style="stop-color:#323232;stop-opacity:1"
         offset="1" />
    </linearGradient>
    <radialGradient
       cx="64"
       cy="120.20078"
       r="56"
       fx="64"
       fy="120.20078"
       id="radialGradient2872"
       xlink:href="#linearGradient3625"
       gradientUnits="userSpaceOnUse"
       gradientTransform="matrix(0.900984,0,0,1.1428576,-9.6629932,-131.37237)" />
    <clipPath
       id="clipPath2883">
      <path
         d="m -100,-74 0,96 96,0 0,-96 -96,0 z m 48,16 c 17.664,0 32,14.335995 32,32 4e-6,17.664008 -14.336,32 -32,32 -17.664002,0 -32,-14.335996 -32,-32 0,-17.664005 14.335998,-32 32,-32 z m 12.125,16.125 -16.25,18.875 -8,-7.25 -7.75,8.375 15.75,15.625 24,-27.25 -7.75,-8.375 z"
         inkscape:connector-curvature="0"
         id="path2885"
         style="opacity:0.3;color:#000000;fill:#ff0000;fill-opacity:1;fill-rule:nonzero;stroke:none;stroke-width:4;marker:none;visibility:visible;display:inline;overflow:visible;enable-background:accumulate" />
    </clipPath>
    <filter
       color-interpolation-filters="sRGB"
       id="filter3663">
      <feGaussianBlur
         id="feGaussianBlur3665"
         stdDeviation="0.96" />
    </filter>
    <clipPath
       id="clipPath3266">
      <path
         d="M 0,0 0,96 96,96 96,0 0,0 z m 12,6 72,0 c 3.324,0 6,2.676 6,6 l 0,72 c 0,3.324 -2.676,6 -6,6 L 12,90 C 8.676,90 6,87.324 6,84 L 6,12 C 6,8.676 8.676,6 12,6 z"
         inkscape:connector-curvature="0"
         id="path3268"
         style="opacity:0.3;color:#000000;fill:#ff0000;fill-opacity:1;fill-rule:nonzero;stroke:none;stroke-width:4;marker:none;visibility:visible;display:inline;overflow:visible;enable-background:accumulate" />
    </clipPath>
    <linearGradient
       x1="32.251034"
       y1="6.1317081"
       x2="32.251034"
       y2="90.238609"
       id="linearGradient3101"
       xlink:href="#ButtonShadow-0"
       gradientUnits="userSpaceOnUse"
       gradientTransform="matrix(1.0238095,0,0,1.0119048,-1.1428571,-98.071429)" />
    <linearGradient
       x1="45.447727"
       y1="92.539597"
       x2="45.447727"
       y2="7.0165396"
       id="ButtonShadow-0"
       gradientUnits="userSpaceOnUse"
       gradientTransform="matrix(1.0058652,0,0,0.994169,100,0)">
      <stop
         id="stop3750-8"
         style="stop-color:#000000;stop-opacity:1"
         offset="0" />
      <stop
         id="stop3752-5"
         style="stop-color:#000000;stop-opacity:0.58823532"
         offset="1" />
    </linearGradient>
    <linearGradient
       x1="32.251034"
       y1="6.1317081"
       x2="32.251034"
       y2="90.238609"
       id="linearGradient3780"
       xlink:href="#ButtonShadow-0"
       gradientUnits="userSpaceOnUse"
       gradientTransform="matrix(1.0238095,0,0,1.0119048,-1.1428571,-98.071429)" />
    <linearGradient
       x1="32.251034"
       y1="6.1317081"
       x2="32.251034"
       y2="90.238609"
       id="linearGradient3772"
       xlink:href="#ButtonShadow-0"
       gradientUnits="userSpaceOnUse"
       gradientTransform="matrix(1.0238095,0,0,1.0119048,-1.1428571,-98.071429)" />
    <linearGradient
       x1="32.251034"
       y1="6.1317081"
       x2="32.251034"
       y2="90.238609"
       id="linearGradient3725"
       xlink:href="#ButtonShadow-0"
       gradientUnits="userSpaceOnUse"
       gradientTransform="matrix(1.0238095,0,0,1.0119048,-1.1428571,-98.071429)" />
    <linearGradient
       x1="48"
       y1="90"
       x2="48"
       y2="5.9877172"
       id="linearGradient3052"
       xlink:href="#ButtonColor-6"
       gradientUnits="userSpaceOnUse" />
    <linearGradient
       x1="10.31979"
       y1="21"
       x2="10.31979"
       y2="0.99929649"
       id="ButtonColor-6"
       gradientUnits="userSpaceOnUse">
      <stop
         id="stop3189-4"
         style="stop-color:#c8c8c8;stop-opacity:1"
         offset="0" />
      <stop
         id="stop3191-0"
         style="stop-color:#e6e6e6;stop-opacity:1"
         offset="1" />
    </linearGradient>
    <linearGradient
       x1="36.357143"
       y1="6"
       x2="36.357143"
       y2="63.893143"
       id="linearGradient3188"
       xlink:href="#linearGradient3737"
       gradientUnits="userSpaceOnUse" />
    <linearGradient
       id="linearGradient3737">
      <stop
         id="stop3739"
         style="stop-color:#ffffff;stop-opacity:1"
         offset="0" />
      <stop
         id="stop3741"
         style="stop-color:#ffffff;stop-opacity:0"
         offset="1" />
    </linearGradient>
    <radialGradient
       cx="48"
       cy="90.171875"
       r="42"
       fx="48"
       fy="90.171875"
       id="radialGradient3619"
       xlink:href="#linearGradient3737"
       gradientUnits="userSpaceOnUse"
       gradientTransform="matrix(1.1573129,0,0,0.99590774,-7.551021,0.1971319)" />
    <linearGradient
       x1="32.251034"
       y1="6.1317081"
       x2="32.251034"
       y2="90.238609"
       id="linearGradient4256"
       xlink:href="#ButtonShadow-0"
       gradientUnits="userSpaceOnUse"
       gradientTransform="translate(0,-97)" />
    <linearGradient
       inkscape:collect="always"
       xlink:href="#ButtonColor-6"
       id="linearGradient3026"
       gradientUnits="userSpaceOnUse"
       x1="48"
       y1="90"
       x2="48"
       y2="5.9877172"
       gradientTransform="matrix(0.2570698,0,0,0.2570698,-0.33949467,-0.7525833)" />
    <clipPath
       clipPathUnits="userSpaceOnUse"
       id="clipPath44">
      <path
         d="m 0,14400 14400,0 L 14400,0 0,0 0,14400 Z"
         id="path46" />
    </clipPath>
    <clipPath
       clipPathUnits="userSpaceOnUse"
       id="clipPath24">
      <path
         d="m 6797,7552.67 794,0 0,-1949.33 -794,0 L 6797,7552.67 Z"
         id="path26" />
    </clipPath>
    <clipPath
       clipPathUnits="userSpaceOnUse"
       id="clipPath16">
      <path
         d="m 0,14400 14400,0 L 14400,0 0,0 0,14400 Z"
         id="path18" />
    </clipPath>
    <linearGradient
       inkscape:collect="always"
       id="linearGradient830">
      <stop
         style="stop-color:#007fc6;stop-opacity:1"
         offset="0"
         id="stop832" />
      <stop
         style="stop-color:#079af2;stop-opacity:1"
         offset="1"
         id="stop834" />
    </linearGradient>
    <linearGradient
       inkscape:collect="always"
       xlink:href="#linearGradient830"
       id="linearGradient836"
       x1="-3.3402286"
       y1="1038.5532"
       x2="-3.3402286"
       y2="1030.2434"
       gradientUnits="userSpaceOnUse"
       gradientTransform="matrix(2.1715905,0,0,2.1715905,19.342067,-1205.8388)" />
  </defs>
  <metadata
     id="metadata7">
    <rdf:RDF>
      <cc:Work
         rdf:about="">
        <dc:format>image/svg+xml</dc:format>
        <dc:type
           rdf:resource="http://purl.org/dc/dcmitype/StillImage" />
        <dc:title />
      </cc:Work>
    </rdf:RDF>
  </metadata>
  <path
     d="m 9.987512,18.068192 c 0.384509,-0.203192 0.423196,-0.464307 0.771908,-0.478846 0.39854,-0.01962 0.723549,-0.154846 1.171901,-0.251538 0.398524,-0.09231 1.112402,-0.493385 1.740657,-0.546577 0.528148,-0.04385 1.573332,0.02885 1.854327,0.54173 -1.012279,0.6675 -2.224805,1.064193 -3.526314,1.064193 -0.703221,0 -1.377928,-0.116193 -2.012479,-0.328962 z M 11.120225,5.6657301 C 10.966916,5.9607686 10.564033,6.0865378 10.31882,6.3091148 9.784391,6.7928069 9.554646,6.7250759 9.2673533,7.1894999 c -0.2892138,0.464307 -1.2236342,1.131923 -1.2236342,1.465615 0,0.338654 0.4720384,0.730385 0.7080646,0.657808 0.2355427,-0.08192 0.8575173,-0.07731 1.2231663,0.05308 0.365634,0.130615 3.058133,0.261115 2.200133,2.5345381 -0.271823,0.725654 -1.462569,0.599885 -1.779843,1.799539 -0.04693,0.174115 -0.212325,0.928615 -0.22345,1.170577 -0.01838,0.382154 0.268918,1.813961 -0.09674,1.813961 -0.369024,0 -1.3581014,-1.281923 -1.3581014,-1.514077 0,-0.232269 -0.2572915,-1.044807 -0.2572915,-1.741384 0,-0.696577 -1.1844635,-0.686885 -1.1844635,-1.61077 0,-0.836884 0.642285,-1.252846 0.4981627,-1.654269 C 7.6316418,9.7674259 6.5018337,9.7528869 6.0312339,9.7045409 6.8534591,7.5715409 8.7890337,5.9850024 11.120226,5.6657331 z m 7.276561,6.3318469 c 0,1.465615 -0.49671,2.815154 -1.325211,3.893884 -0.23409,-0.183807 -0.484133,-0.682038 -0.249558,-1.189961 0.235526,-0.5175 0.298399,-1.712308 0.245198,-2.176616 -0.05319,-0.464423 -0.293572,-1.581807 -0.950374,-1.5915 -0.652925,-0.01154 -1.102731,-0.227307 -1.492066,-1.0013071 -0.80769,-1.615501 1.515769,-1.930039 0.708064,-2.824847 -0.226824,-0.251538 -1.392429,1.035116 -1.564128,-0.677192 -0.01108,-0.1209231 0.106407,-0.3047308 0.26262,-0.4933847 2.534347,0.8513077 4.365455,3.2456537 4.365455,6.0609238 z M 11.999991,4.4999999 C 7.8642845,4.4999999 4.5,7.8618459 4.5,11.997577 4.5,16.133308 7.8642845,19.5 11.999991,19.5 16.135701,19.5 19.5,16.133308 19.5,11.997577 19.5,7.8618459 16.135701,4.4999999 11.999991,4.4999999"
     style="fill:#333333;fill-opacity:1;fill-rule:nonzero;stroke:none"
     id="path208"
     inkscape:connector-curvature="0" />
</svg>
