<?xml version="1.0" encoding="UTF-8" standalone="no"?>
<!-- Created with Inkscape (http://www.inkscape.org/) -->

<svg
   xmlns:dc="http://purl.org/dc/elements/1.1/"
   xmlns:cc="http://creativecommons.org/ns#"
   xmlns:rdf="http://www.w3.org/1999/02/22-rdf-syntax-ns#"
   xmlns:svg="http://www.w3.org/2000/svg"
   xmlns="http://www.w3.org/2000/svg"
   xmlns:sodipodi="http://sodipodi.sourceforge.net/DTD/sodipodi-0.dtd"
   xmlns:inkscape="http://www.inkscape.org/namespaces/inkscape"
   width="24"
   height="24"
   id="svg2"
   version="1.1"
   inkscape:version="0.48.4 r9939"
   sodipodi:docname="emblem-generic.svg">
  <defs
     id="defs4" />
  <sodipodi:namedview
     id="base"
     pagecolor="#ffffff"
     bordercolor="#666666"
     borderopacity="1.0"
     inkscape:pageopacity="0.0"
     inkscape:pageshadow="2"
     inkscape:zoom="11.866053"
     inkscape:cx="-3.2802815"
     inkscape:cy="11.121883"
     inkscape:document-units="px"
     inkscape:current-layer="layer1"
     showgrid="false"
     inkscape:window-width="1360"
     inkscape:window-height="712"
     inkscape:window-x="-2"
     inkscape:window-y="28"
     inkscape:window-maximized="1"
     showguides="true"
     inkscape:guide-bbox="true" />
  <metadata
     id="metadata7">
    <rdf:RDF>
      <cc:Work
         rdf:about="">
        <dc:format>image/svg+xml</dc:format>
        <dc:type
           rdf:resource="http://purl.org/dc/dcmitype/StillImage" />
        <dc:title />
      </cc:Work>
    </rdf:RDF>
  </metadata>
  <g
     inkscape:label="Capa 1"
     inkscape:groupmode="layer"
     id="layer1"
     transform="translate(0,-1028.3622)">
    <g
       id="g841"
       transform="matrix(0.5,0,0,0.5,4,1032.3622)"
       style="fill:#4d4d4d;fill-opacity:1">
      <g
         id="Layer_1"
         style="fill:#4d4d4d;fill-opacity:1" />
      <g
         id="sun_x5F_stroke"
         style="fill:#4d4d4d;fill-opacity:1">
        <g
           id="g815"
           style="fill:#4d4d4d;fill-opacity:1">
          <path
             id="path817"
             d="m 16,12 c 2.203,0 4,1.795 4,4 0,2.205 -1.797,4 -4,4 -2.203,0 -4,-1.795 -4,-4 0,-2.205 1.797,-4 4,-4 m 0,-4 c -4.418,0 -8,3.582 -8,8 0,4.418 3.582,8 8,8 4.418,0 8,-3.582 8,-8 0,-4.418 -3.582,-8 -8,-8 l 0,0 z"
             style="fill:#4d4d4d;fill-opacity:1"
             inkscape:connector-curvature="0" />
          <circle
             id="circle819"
             r="2"
             cy="2"
             cx="16"
             style="fill:#4d4d4d;fill-opacity:1"
             sodipodi:cx="16"
             sodipodi:cy="2"
             sodipodi:rx="2"
             sodipodi:ry="2"
             d="m 18,2 c 0,1.1045695 -0.895431,2 -2,2 -1.104569,0 -2,-0.8954305 -2,-2 0,-1.1045695 0.895431,-2 2,-2 1.104569,0 2,0.8954305 2,2 z" />
          <circle
             id="circle821"
             r="2"
             cy="6"
             cx="6"
             style="fill:#4d4d4d;fill-opacity:1"
             sodipodi:cx="6"
             sodipodi:cy="6"
             sodipodi:rx="2"
             sodipodi:ry="2"
             d="M 8,6 C 8,7.1045695 7.1045695,8 6,8 4.8954305,8 4,7.1045695 4,6 4,4.8954305 4.8954305,4 6,4 7.1045695,4 8,4.8954305 8,6 z" />
          <path
             id="path823"
             d="m 2,13.998 c 1.105,0 2,0.895 2,2 0,1.107 -0.895,2 -2,2 -1.105,0 -2,-0.893 -2,-2 0,-1.105 0.895,-2 2,-2 z"
             style="fill:#4d4d4d;fill-opacity:1"
             inkscape:connector-curvature="0" />
          <circle
             id="circle825"
             r="2"
             cy="26"
             cx="6"
             style="fill:#4d4d4d;fill-opacity:1"
             sodipodi:cx="6"
             sodipodi:cy="26"
             sodipodi:rx="2"
             sodipodi:ry="2"
             d="m 8,26 c 0,1.104569 -0.8954305,2 -2,2 -1.1045695,0 -2,-0.895431 -2,-2 0,-1.104569 0.8954305,-2 2,-2 1.1045695,0 2,0.895431 2,2 z" />
          <path
             id="path827"
             d="m 14,30 c 0,-1.109 0.895,-2 2,-2 1.109,0 2,0.891 2,2 0,1.102 -0.891,2 -2,2 -1.105,0 -2,-0.898 -2,-2 z"
             style="fill:#4d4d4d;fill-opacity:1"
             inkscape:connector-curvature="0" />
          <path
             id="path829"
             d="m 24.594,27.414 c -0.781,-0.781 -0.781,-2.047 0,-2.828 0.785,-0.781 2.047,-0.781 2.828,0 0.781,0.781 0.785,2.047 0,2.828 -0.781,0.781 -2.047,0.781 -2.828,0 z"
             style="fill:#4d4d4d;fill-opacity:1"
             inkscape:connector-curvature="0" />
          <path
             id="path831"
             d="M 29.996,17.998 C 28.895,17.998 28,17.104 28,16 c 0,-1.109 0.891,-2 2,-2 1.102,0 2,0.893 2,1.998 0,1.107 -0.898,2.002 -2.004,2 z"
             style="fill:#4d4d4d;fill-opacity:1"
             inkscape:connector-curvature="0" />
          <path
             id="path833"
             d="m 27.422,7.416 c -0.781,0.779 -2.047,0.779 -2.828,0 -0.781,-0.785 -0.781,-2.047 0,-2.83 0.781,-0.779 2.047,-0.781 2.828,0.002 0.781,0.781 0.781,2.049 0,2.828 z"
             style="fill:#4d4d4d;fill-opacity:1"
             inkscape:connector-curvature="0" />
        </g>
      </g>
    </g>
  </g>
</svg>
