<?xml version="1.0" encoding="UTF-8" standalone="no"?>
<!-- Created with Inkscape (http://www.inkscape.org/) -->
<svg id="svg3449" xmlns:rdf="http://www.w3.org/1999/02/22-rdf-syntax-ns#" xmlns="http://www.w3.org/2000/svg" height="128" width="128" version="1.0" xmlns:cc="http://creativecommons.org/ns#" xmlns:xlink="http://www.w3.org/1999/xlink" xmlns:dc="http://purl.org/dc/elements/1.1/">
 <metadata id="metadata56">
  <rdf:RDF>
   <cc:Work rdf:about="">
    <dc:format>image/svg+xml</dc:format>
    <dc:type rdf:resource="http://purl.org/dc/dcmitype/StillImage"/>
    <dc:title/>
   </cc:Work>
  </rdf:RDF>
 </metadata>
 <defs id="defs3451">
  <linearGradient id="linearGradient3514" y2="-9.1034" gradientUnits="userSpaceOnUse" x2="66.492" gradientTransform="matrix(.96826 0 0 .97948 2.179 .16587)" y1="-42.638" x1="67.952">
   <stop id="stop4620" style="stop-color:#37414b" offset="0"/>
   <stop id="stop4622" style="stop-color:#37414b;stop-opacity:0" offset="1"/>
  </linearGradient>
  <linearGradient id="linearGradient3516" y2="-11.847" gradientUnits="userSpaceOnUse" x2="58.98" gradientTransform="matrix(.96826 0 0 .97948 2.179 .16587)" y1="-118.55" x1="57.173">
   <stop id="stop4596" offset="0"/>
   <stop id="stop4598" style="stop-opacity:0" offset="1"/>
  </linearGradient>
  <linearGradient id="linearGradient3519" y2="50.369" gradientUnits="userSpaceOnUse" x2="76.558" gradientTransform="matrix(.96826 0 0 .97948 3.2423 -129.19)" y1="13.164" x1="76.558">
   <stop id="stop3392" style="stop-color:#425e7b" offset="0"/>
   <stop id="stop3394" style="stop-color:#7a91a7" offset="1"/>
  </linearGradient>
  <linearGradient id="linearGradient3521" y2="-8.7399" gradientUnits="userSpaceOnUse" x2="60.217" gradientTransform="matrix(.96826 0 0 .97948 2.179 .16587)" y1="-123.72" x1="60.395">
   <stop id="stop3392-4-8" style="stop-color:#425e7b" offset="0"/>
   <stop id="stop3394-8-0" style="stop-color:#7a91a7" offset="1"/>
  </linearGradient>
  <linearGradient id="linearGradient4192" y2="31.742" gradientUnits="userSpaceOnUse" x2="121.11" y1="31.742" x1="6.5334">
   <stop id="stop4188" style="stop-color:#fff" offset="0"/>
   <stop id="stop4190" style="stop-color:#fff;stop-opacity:0" offset="1"/>
  </linearGradient>
  <linearGradient id="linearGradient11577" y2="8.1" gradientUnits="userSpaceOnUse" y1="6.1438" x2="19.387" x1="19.49">
   <stop id="stop10999-9-0" offset="0"/>
   <stop id="stop11001-6-1" style="stop-opacity:0" offset="1"/>
  </linearGradient>
  <radialGradient id="radialGradient3382-9" gradientUnits="userSpaceOnUse" cy="-16.639" cx="2.6083" gradientTransform="matrix(9.2228e-8 1.4278 -2.2909 6.4501e-8 -14.117 4.9249)" r="23">
   <stop id="stop6546-7-5" style="stop-color:#f0f0f0" offset="0"/>
   <stop id="stop6548-9-0" style="stop-color:#d2d2d2" offset="1"/>
  </radialGradient>
  <filter id="filter3198-5" color-interpolation-filters="sRGB" width="1.1734" y="-.10752" x="-.086712" height="1.215">
   <feGaussianBlur id="feGaussianBlur3200-3" stdDeviation="0.71710775"/>
  </filter>
  <linearGradient id="linearGradient3225-0" y2="5.4565" gradientUnits="userSpaceOnUse" x2="36.358" gradientTransform="matrix(1.4358 0 0 1.5351 -14.509 3.6321)" y1="8.059" x1="32.892">
   <stop id="stop8591-7-2-1" style="stop-color:#fefefe" offset="0"/>
   <stop id="stop8593-2-4-5" style="stop-color:#cbcbcb" offset="1"/>
  </linearGradient>
  <style id="style1246" type="text/css">.fil0 {fill:#1F1A17}</style>
  <style id="style1115" type="text/css">.fil0 {fill:#1F1A17}</style>
 </defs>
 <rect id="rect892-2-7-1" style="opacity:.15891;stroke:#000;stroke-width:7.7512;fill:none" transform="scale(1,-1)" ry="28.993" height="114.35" width="114.22" y="-121.16" x="6.8687"/>
 <rect id="rect892" style="stroke:url(#linearGradient3521);stroke-width:.97385;fill:url(#linearGradient3519)" transform="scale(1,-1)" ry="29.296" height="115.54" width="114.22" y="-122.25" x="7.0394"/>
 <rect id="rect892-2" style="stroke:url(#linearGradient3516);stroke-width:.97385;fill:url(#linearGradient3514)" transform="scale(1,-1)" ry="28.993" height="114.35" width="114.22" y="-121.46" x="7.0599"/>
 <path id="path4159-5" style="stroke:url(#linearGradient4192);stroke-width:1px;fill:none" d="m7.0334 31.742h113.58z"/>
 <g id="g14613" transform="matrix(0 2.6832 -2.7101 0 126.94 .046408)">
  <g id="layer1-7" transform="matrix(.99081 0 0 1.4848 .23097 -6.5159)">
   <path id="path4322" d="m27.794 6.0905c1.441 0.453 15.184 10.348 17.206 13.922 2.398 16.448-7.327 14.594-31.941 14.125-12.933-1.192-10.645-7.029-10.337-22.467 3.0371-7.2073 10.203-5.515 25.072-5.5795z" style="fill-rule:evenodd;fill:url(#radialGradient3382-9)"/>
   <path id="path4891" d="m25.685 5.7862c3.6386-0.3502 2.8432 14.02 2.8432 14.02s16.093-0.84846 16.525 1.9543c3.85-3.268-16.654-16.76-19.368-15.974z" style="opacity:.3;fill-rule:evenodd;filter:url(#filter3198-5)"/>
   <path id="path4893" d="m26.797 6.0082c3.5685 0.65556 3.1934 12.163 3.1934 12.163s14.671-0.7593 15.026 2.628c0.924-1.993-10.657-12.068-16.353-14.337-0.732-0.2912-1.367-0.4538-1.866-0.4538z" style="fill:url(#linearGradient3225-0);fill-rule:evenodd"/>
  </g>
 </g>
 <rect id="rect892-2-7-8" style="opacity:.15891;stroke:#000;stroke-width:4.8445;fill:none" transform="scale(1,-1)" ry="28.993" height="114.35" width="114.22" y="-121.16" x="6.8687"/>
 <rect id="rect892-2-7-2-9" ry="28.067" style="stroke:#000;stroke-width:1.0489;fill:none" transform="scale(1,-1)" height="112.71" width="114.14" y="-120.31" x="7.0649"/>
 <g id="g17906" transform="matrix(2.3438 0 0 2.2539 224.79 41.695)"></g>
 <g id="layer1-5" transform="matrix(2.6667 0 0 2.6667 -271.24 -1729)">
  <path id="path4233" style="fill-opacity:.058824" d="m127.46 658.56c-0.46418 0.0376-0.92544 0.0559-1.383 0.11392l0.19755 0.0315c0.33541-0.12214 0.82771-0.063 1.1854-0.14553zm-2.0276 0.21832c-0.75535 0.0448-1.8108 0.44193-1.487 0.0835-1.2322 0.54967-3.4196 1.3221-4.6481 2.4747l-0.031-0.25987c-0.56301 0.67441-2.4606 2.0146-2.61 2.8907l-0.1456 0.0315c-0.29217 0.49513-0.48622 1.0604-0.71747 1.5702-0.38234 0.65247-0.56444 0.25105-0.50954 0.35358-0.75268 1.5272-1.1229 2.815-1.4454 3.8681 0.23026 0.34303 0.008 2.0681 0.0938 3.4523-0.37668 6.8356 4.7936 13.473 10.45 15.005 0.8282 0.29647 2.0603 0.2834 3.1091 0.31199-1.2375-0.35333-1.3934-0.18193-2.5996-0.60313-0.86846-0.40944-1.0582-0.88022-1.6741-1.4143l0.23916 0.43686c-1.2075-0.42639-0.70192-0.53162-1.6845-0.8423l0.25996-0.34312c-0.39131-0.0304-1.0292-0.65937-1.2062-1.0087l-0.43672 0.0204c-0.51342-0.63415-0.7787-1.0906-0.75909-1.4454l-0.1456 0.23915c-0.15567-0.26774-1.8886-2.3731-0.98783-1.882-0.16638-0.15199-0.39406-0.24847-0.63429-0.68627l0.18716-0.21843c-0.43256-0.55767-0.79675-1.2698-0.76948-1.5077 0.22993 0.31175 0.39273 0.37307 0.55112 0.42629-1.0944-2.7151-1.1569-0.1496-1.9861-2.7659l0.17678-0.0113c-0.13407-0.20291-0.21455-0.42896-0.32235-0.6446l0.0727-0.75901c-0.78794-0.90978-0.21844-3.8656-0.10416-5.4904 0.0782-0.66022 0.65261-1.3701 1.0918-2.4748l-0.27034-0.0412c0.5121-0.89416 2.9363-3.59 4.0553-3.4521 0.54206-0.67989-0.11183-0.0113-0.21836-0.17684 1.1906-1.2309 1.5676-0.86955 2.3708-1.0918 0.86581-0.51346-0.74336 0.19741-0.33274-0.19759 1.4974-0.38229 1.0606-0.86699 3.0155-1.0607 0.0843 0.0472 0.005 0.0957-0.11456 0.13536 1.3769-0.37139 3.6327-0.17696 5.168 0.5303 2.0354 0.9516 4.3281 3.7694 4.4193 6.4158l0.0936 0.0315c-0.0504 1.0515 0.16004 2.2615-0.20797 3.3795l0.23917-0.50956c0.0243 0.78834-0.23091 1.1775-0.46793 1.8613l-0.42632 0.208c-0.35106 0.68239 0.0323 0.43404-0.21837 0.97742-0.5487 0.4875-1.6703 1.526-2.0277 1.6221-0.26021-0.0112 0.18193-0.30919 0.23917-0.42628-0.73437 0.50436-0.59272 0.76419-1.7157 1.071l-0.031-0.0729c-2.7711 1.3037-6.6213-1.2878-6.5717-4.8143-0.0286 0.22351-0.0845 0.17003-0.14559 0.25985-0.14319-1.8132 0.8308-3.633 2.4852-4.3777 1.6172-0.79949 3.5213-0.47695 4.6793 0.60312-0.63556-0.83318-1.9093-1.7144-3.4107-1.6326-1.4701 0.0232-2.8465 0.96046-3.3067 1.9757-0.75233 0.47283-0.83718 1.8315-1.1646 2.0796-0.44189 3.2471 0.83079 4.6407 2.9843 6.291 0.33807 0.22774 0.10032 0.2629 0.1456 0.43684-0.71474-0.33418-1.3752-0.83563-1.9133-1.4558 0.28581 0.41732 0.59929 0.8241 0.99824 1.1438-0.67448-0.22762-1.578-1.6376-1.8405-1.695 1.162 2.0824 4.7198 3.6588 6.5821 2.8804-0.86046 0.0304-1.964 0.0128-2.9323-0.34314-0.40662-0.2092-0.95151-0.63695-0.85268-0.71755 2.5399 0.94772 5.1629 0.711 7.362-1.0502 0.55903-0.43527 1.1647-1.1751 1.3414-1.1854-0.23204 0.34909-0.0238 0.23405-0.10415 0.43672 0.41659-0.73599-0.25836-0.31514 0.51993-1.4453l0.30154 0.41586c-0.11183-0.74628 0.92664-1.6481 0.82149-2.8283 0.11903-0.18012 0.1927-0.0802 0.19755 0.1663-0.0128-0.22073-0.0403-0.43746 0-0.77986 0.0962 0.25465 0.22494 0.53185 0.29115 0.80071-0.22757-0.88871 0.22737-1.5002 0.34316-2.0173-0.11328-0.0498-0.35096 0.39369-0.40554-0.65512 0.008-0.45624 0.13119-0.24171 0.17678-0.35357-0.0885-0.0498-0.32517-0.39914-0.46793-1.071 0.10271-0.15728 0.27451 0.41307 0.41593 0.43671-0.0894-0.53308-0.24324-0.94241-0.24956-1.3517-0.41225-0.86179-0.14431 0.10895-0.47834-0.37442-0.43788-1.3689 0.36138-0.31453 0.41595-0.93585 0.66416 0.96337 1.0426 2.4593 1.2166 3.078-0.13247-0.75367-0.35097-1.4874-0.61351-2.1941 0.20299 0.0835-0.32732-1.552 0.25996-0.46785-0.62755-2.3096-2.6802-4.4674-4.5753-5.48 0.22994 0.21162 0.52109 0.47694 0.41594 0.51996-0.94234-0.56009-0.77961-0.60567-0.91505-0.84226-0.76666-0.31213-0.8125 0.0243-1.3206 0-1.4468-0.767-1.7251-0.68386-3.0571-1.1646l0.0623 0.28074c-0.95796-0.31842-1.1163 0.12-2.1524 0-0.0623-0.0472 0.33034-0.17188 0.6551-0.21842-0.92536 0.12239-0.88112-0.18304-1.7885 0.0315 0.22259-0.15611 0.45908-0.26182 0.697-0.39564zm11.074 13.154c0.007 0.24583-0.0605 0.63564-0.18718 1.0503 0.19266-0.50507 0.20342-0.78165 0.18718-1.0503zm-10.326-12.988c0.26521 0.0459 0.56419 0.0824 0.51993 0.1456 0.28984-0.0642 0.3652-0.12001-0.51993-0.1456zm0.51993 0.1456-0.17676 0.0412 0.16638-0.0204 0.0109-0.0208zm-1.5078 2.6307c-0.16641 0.0498-0.37167 0.10063-0.45752 0.17684 0.13604-0.0667 0.29005-0.12791 0.45752-0.17686zm-10.721 3.2652c0.077 0.71596-0.53831 0.9927 0.13519 0.51986 0.36236-0.81659-0.14017-0.22353-0.13519-0.51987zm-0.5511 2.2773c-0.43024 0.54966-0.1939 0.66544-0.23918 1.0397 0.15574-0.47719 0.17928-0.76303 0.23918-1.0397zm17.719 3.317c-0.0611 0-0.13728 0.16252-0.17677 0.3327 0.0907 0.0487 0.16006 0.6303 0.24958 0.2703 0.0299-0.44715-0.0121-0.60473-0.0728-0.60302zm5.4383 1.5077-0.0728 0.18716c-0.13247 0.95041-0.4195 1.8926-0.86305 2.7659 0.48881-0.92023 0.80311-1.9326 0.93585-2.953zm-5.7606 0.34317c-0.0663 0.32882-0.2469 0.615-0.41593 0.91512-0.92937 0.58483-0.0872-0.35235 0-0.70714-0.99824 1.2581-0.12992 0.7498-0.16638 1.1023 0.29616-0.40837 0.50713-0.84738 0.58231-1.3103zm-2.0277 1.9133c-0.40295 0.0995-0.8124 0.0995-1.227 0.063-0.49646 0.0112 0.0896 0.2537 0.73826 0.35357 0.17969-0.14013 0.34466-0.27816 0.48874-0.41599zm-6.2702 0.0729c0.10896 0.40289 0.33143 0.73972 0.54073 1.0917l-0.15599-0.44713c-0.17302-0.19103-0.26893-0.41623-0.38474-0.6447zm-0.38473 0.67585-0.0727 0.34314c0.3261 0.44325 0.59134 0.93196 1.0086 1.279-0.29876-0.5851-0.52519-0.82946-0.93579-1.6223z"/>
  <path id="path4231" style="fill-opacity:.11765" d="m127.46 658.16c-0.46418 0.0376-0.92544 0.0559-1.383 0.11392l0.19755 0.0315c0.33541-0.12214 0.82771-0.063 1.1854-0.14553zm-2.0276 0.21832c-0.75535 0.0448-1.8108 0.44193-1.487 0.0835-1.2322 0.54967-3.4196 1.3221-4.6481 2.4747l-0.031-0.25987c-0.56301 0.67441-2.4606 2.0146-2.61 2.8907l-0.1456 0.0315c-0.29217 0.49513-0.48622 1.0604-0.71747 1.5702-0.38234 0.65247-0.56444 0.25105-0.50954 0.35358-0.75268 1.5272-1.1229 2.815-1.4454 3.8681 0.23026 0.34303 0.008 2.0681 0.0938 3.4523-0.37668 6.8356 4.7936 13.473 10.45 15.005 0.8282 0.29647 2.0603 0.2834 3.1091 0.31199-1.2375-0.35333-1.3934-0.18193-2.5996-0.60313-0.86846-0.40944-1.0582-0.88022-1.6741-1.4143l0.23916 0.43686c-1.2075-0.42639-0.70192-0.53162-1.6845-0.8423l0.25996-0.34312c-0.39131-0.0304-1.0292-0.65937-1.2062-1.0087l-0.43672 0.0204c-0.51342-0.63415-0.7787-1.0906-0.75909-1.4454l-0.1456 0.23915c-0.15567-0.26774-1.8886-2.3731-0.98783-1.882-0.16638-0.15199-0.39406-0.24847-0.63429-0.68627l0.18716-0.21843c-0.43256-0.55767-0.79675-1.2698-0.76948-1.5077 0.22993 0.31175 0.39273 0.37307 0.55112 0.42629-1.0944-2.7151-1.1569-0.1496-1.9861-2.7659l0.17678-0.0113c-0.13407-0.20291-0.21455-0.42896-0.32235-0.6446l0.0727-0.75901c-0.78794-0.90978-0.21844-3.8656-0.10416-5.4904 0.0782-0.66022 0.65261-1.3701 1.0918-2.4748l-0.27034-0.0412c0.5121-0.89416 2.9363-3.59 4.0553-3.4521 0.54206-0.67989-0.11183-0.0113-0.21836-0.17684 1.1906-1.2309 1.5676-0.86955 2.3708-1.0918 0.86581-0.51346-0.74336 0.19741-0.33274-0.19759 1.4974-0.38229 1.0606-0.86699 3.0155-1.0607 0.0843 0.0472 0.005 0.0957-0.11456 0.13536 1.3769-0.37139 3.6327-0.17696 5.168 0.5303 2.0354 0.9516 4.3281 3.7694 4.4193 6.4158l0.0936 0.0315c-0.0504 1.0515 0.16004 2.2615-0.20797 3.3795l0.23917-0.50956c0.0243 0.78834-0.23091 1.1775-0.46793 1.8613l-0.42632 0.208c-0.35106 0.68239 0.0323 0.43404-0.21837 0.97742-0.5487 0.4875-1.6703 1.526-2.0277 1.6221-0.26021-0.0112 0.18193-0.30919 0.23917-0.42628-0.73437 0.50436-0.59272 0.76419-1.7157 1.071l-0.031-0.0729c-2.7711 1.3037-6.6213-1.2878-6.5717-4.8143-0.0286 0.22351-0.0845 0.17003-0.14559 0.25985-0.14319-1.8132 0.8308-3.633 2.4852-4.3777 1.6172-0.79949 3.5213-0.47695 4.6793 0.60312-0.63556-0.83318-1.9093-1.7144-3.4107-1.6326-1.4701 0.0232-2.8465 0.96046-3.3067 1.9757-0.75233 0.47283-0.83718 1.8315-1.1646 2.0796-0.44189 3.2471 0.83079 4.6407 2.9843 6.291 0.33807 0.22774 0.10032 0.2629 0.1456 0.43684-0.71474-0.33418-1.3752-0.83563-1.9133-1.4558 0.28581 0.41732 0.59929 0.8241 0.99824 1.1438-0.67448-0.22762-1.578-1.6376-1.8405-1.695 1.162 2.0824 4.7198 3.6588 6.5821 2.8804-0.86046 0.0304-1.964 0.0128-2.9323-0.34314-0.40662-0.2092-0.95151-0.63695-0.85268-0.71755 2.5399 0.94772 5.1629 0.711 7.362-1.0502 0.55903-0.43527 1.1647-1.1751 1.3414-1.1854-0.23204 0.34909-0.0238 0.23405-0.10415 0.43672 0.41659-0.73599-0.25836-0.31514 0.51993-1.4453l0.30154 0.41586c-0.11183-0.74628 0.92664-1.6481 0.82149-2.8283 0.11903-0.18012 0.1927-0.0802 0.19755 0.1663-0.0128-0.22073-0.0403-0.43746 0-0.77986 0.0962 0.25465 0.22494 0.53185 0.29115 0.80071-0.22757-0.88871 0.22737-1.5002 0.34316-2.0173-0.11328-0.0498-0.35096 0.39369-0.40554-0.65512 0.008-0.45624 0.13119-0.24171 0.17678-0.35357-0.0885-0.0498-0.32517-0.39914-0.46793-1.071 0.10271-0.15728 0.27451 0.41307 0.41593 0.43671-0.0894-0.53308-0.24324-0.94241-0.24956-1.3517-0.41225-0.86179-0.14431 0.10895-0.47834-0.37442-0.43788-1.3689 0.36138-0.31453 0.41595-0.93585 0.66416 0.96337 1.0426 2.4593 1.2166 3.078-0.13247-0.75367-0.35097-1.4874-0.61351-2.1941 0.20299 0.0835-0.32732-1.552 0.25996-0.46785-0.62755-2.3096-2.6802-4.4674-4.5753-5.48 0.22994 0.21162 0.52109 0.47694 0.41594 0.51996-0.94234-0.56009-0.77961-0.60567-0.91505-0.84226-0.76666-0.31213-0.8125 0.0243-1.3206 0-1.4468-0.767-1.7251-0.68386-3.0571-1.1646l0.0623 0.28074c-0.95796-0.31842-1.1163 0.12-2.1524 0-0.0623-0.0472 0.33034-0.17188 0.6551-0.21842-0.92536 0.12239-0.88112-0.18304-1.7885 0.0315 0.22259-0.15611 0.45908-0.26182 0.697-0.39564zm11.074 13.154c0.007 0.24583-0.0605 0.63564-0.18718 1.0503 0.19266-0.50507 0.20342-0.78165 0.18718-1.0503zm-10.326-12.988c0.26521 0.0459 0.56419 0.0824 0.51993 0.1456 0.28984-0.0642 0.3652-0.12001-0.51993-0.1456zm0.51993 0.1456-0.17676 0.0412 0.16638-0.0204 0.0109-0.0208zm-1.5078 2.6307c-0.16641 0.0498-0.37167 0.10063-0.45752 0.17684 0.13604-0.0667 0.29005-0.12791 0.45752-0.17686zm-10.721 3.2652c0.077 0.71596-0.53831 0.9927 0.13519 0.51986 0.36236-0.81659-0.14017-0.22353-0.13519-0.51987zm-0.5511 2.2773c-0.43024 0.54966-0.1939 0.66544-0.23918 1.0397 0.15574-0.47719 0.17928-0.76303 0.23918-1.0397zm17.719 3.317c-0.0611 0-0.13728 0.16252-0.17677 0.3327 0.0907 0.0487 0.16006 0.6303 0.24958 0.2703 0.0299-0.44715-0.0121-0.60473-0.0728-0.60302zm5.4383 1.5077-0.0728 0.18716c-0.13247 0.95041-0.4195 1.8926-0.86305 2.7659 0.48881-0.92023 0.80311-1.9326 0.93585-2.953zm-5.7606 0.34317c-0.0663 0.32882-0.2469 0.615-0.41593 0.91512-0.92937 0.58483-0.0872-0.35235 0-0.70714-0.99824 1.2581-0.12992 0.7498-0.16638 1.1023 0.29616-0.40837 0.50713-0.84738 0.58231-1.3103zm-2.0277 1.9133c-0.40295 0.0995-0.8124 0.0995-1.227 0.063-0.49646 0.0112 0.0896 0.2537 0.73826 0.35357 0.17969-0.14013 0.34466-0.27816 0.48874-0.41599zm-6.2702 0.0729c0.10896 0.40289 0.33143 0.73972 0.54073 1.0917l-0.15599-0.44713c-0.17302-0.19103-0.26893-0.41623-0.38474-0.6447zm-0.38473 0.67585-0.0727 0.34314c0.3261 0.44325 0.59134 0.93196 1.0086 1.279-0.29876-0.5851-0.52519-0.82946-0.93579-1.6223z"/>
  <path id="path4227" style="fill-opacity:.23529" d="m127.46 657.76c-0.46418 0.0376-0.92544 0.0559-1.383 0.11392l0.19755 0.0315c0.33541-0.12214 0.82771-0.063 1.1854-0.14553zm-2.0276 0.21832c-0.75535 0.0448-1.8108 0.44193-1.487 0.0835-1.2322 0.54967-3.4196 1.3221-4.6481 2.4747l-0.031-0.25987c-0.56301 0.67441-2.4606 2.0146-2.61 2.8907l-0.1456 0.0315c-0.29217 0.49513-0.48622 1.0604-0.71747 1.5702-0.38234 0.65247-0.56444 0.25105-0.50954 0.35358-0.75268 1.5272-1.1229 2.815-1.4454 3.8681 0.23026 0.34303 0.008 2.0681 0.0938 3.4523-0.37668 6.8356 4.7936 13.473 10.45 15.005 0.8282 0.29647 2.0603 0.2834 3.1091 0.31199-1.2375-0.35333-1.3934-0.18193-2.5996-0.60313-0.86846-0.40944-1.0582-0.88022-1.6741-1.4143l0.23916 0.43686c-1.2075-0.42639-0.70192-0.53162-1.6845-0.8423l0.25996-0.34312c-0.39131-0.0304-1.0292-0.65937-1.2062-1.0087l-0.43672 0.0204c-0.51342-0.63415-0.7787-1.0906-0.75909-1.4454l-0.1456 0.23915c-0.15567-0.26774-1.8886-2.3731-0.98783-1.882-0.16638-0.15199-0.39406-0.24847-0.63429-0.68627l0.18716-0.21843c-0.43256-0.55767-0.79675-1.2698-0.76948-1.5077 0.22993 0.31175 0.39273 0.37307 0.55112 0.42629-1.0944-2.7151-1.1569-0.1496-1.9861-2.7659l0.17678-0.0113c-0.13407-0.20291-0.21455-0.42896-0.32235-0.6446l0.0727-0.75901c-0.78794-0.90978-0.21844-3.8656-0.10416-5.4904 0.0782-0.66022 0.65261-1.3701 1.0918-2.4748l-0.27034-0.0412c0.5121-0.89416 2.9363-3.59 4.0553-3.4521 0.54206-0.67989-0.11183-0.0113-0.21836-0.17684 1.1906-1.2309 1.5676-0.86955 2.3708-1.0918 0.86581-0.51346-0.74336 0.19741-0.33274-0.19759 1.4974-0.38229 1.0606-0.86699 3.0155-1.0607 0.0843 0.0472 0.005 0.0957-0.11456 0.13536 1.3769-0.37139 3.6327-0.17696 5.168 0.5303 2.0354 0.9516 4.3281 3.7694 4.4193 6.4158l0.0936 0.0315c-0.0504 1.0515 0.16004 2.2615-0.20797 3.3795l0.23917-0.50956c0.0243 0.78834-0.23091 1.1775-0.46793 1.8613l-0.42632 0.208c-0.35106 0.68239 0.0323 0.43404-0.21837 0.97742-0.5487 0.4875-1.6703 1.526-2.0277 1.6221-0.26021-0.0112 0.18193-0.30919 0.23917-0.42628-0.73437 0.50436-0.59272 0.76419-1.7157 1.071l-0.031-0.0729c-2.7711 1.3037-6.6213-1.2878-6.5717-4.8143-0.0286 0.22351-0.0845 0.17003-0.14559 0.25985-0.14319-1.8132 0.8308-3.633 2.4852-4.3777 1.6172-0.79949 3.5213-0.47695 4.6793 0.60312-0.63556-0.83318-1.9093-1.7144-3.4107-1.6326-1.4701 0.0232-2.8465 0.96046-3.3067 1.9757-0.75233 0.47283-0.83718 1.8315-1.1646 2.0796-0.44189 3.2471 0.83079 4.6407 2.9843 6.291 0.33807 0.22774 0.10032 0.2629 0.1456 0.43684-0.71474-0.33418-1.3752-0.83563-1.9133-1.4558 0.28581 0.41732 0.59929 0.8241 0.99824 1.1438-0.67448-0.22762-1.578-1.6376-1.8405-1.695 1.162 2.0824 4.7198 3.6588 6.5821 2.8804-0.86046 0.0304-1.964 0.0128-2.9323-0.34314-0.40662-0.2092-0.95151-0.63695-0.85268-0.71755 2.5399 0.94772 5.1629 0.711 7.362-1.0502 0.55903-0.43527 1.1647-1.1751 1.3414-1.1854-0.23204 0.34909-0.0238 0.23405-0.10415 0.43672 0.41659-0.73599-0.25836-0.31514 0.51993-1.4453l0.30154 0.41586c-0.11183-0.74628 0.92664-1.6481 0.82149-2.8283 0.11903-0.18012 0.1927-0.0802 0.19755 0.1663-0.0128-0.22073-0.0403-0.43746 0-0.77986 0.0962 0.25465 0.22494 0.53185 0.29115 0.80071-0.22757-0.88871 0.22737-1.5002 0.34316-2.0173-0.11328-0.0498-0.35096 0.39369-0.40554-0.65512 0.008-0.45624 0.13119-0.24171 0.17678-0.35357-0.0885-0.0498-0.32517-0.39914-0.46793-1.071 0.10271-0.15728 0.27451 0.41307 0.41593 0.43671-0.0894-0.53308-0.24324-0.94241-0.24956-1.3517-0.41225-0.86179-0.14431 0.10895-0.47834-0.37442-0.43788-1.3689 0.36138-0.31453 0.41595-0.93585 0.66416 0.96337 1.0426 2.4593 1.2166 3.078-0.13247-0.75367-0.35097-1.4874-0.61351-2.1941 0.20299 0.0835-0.32732-1.552 0.25996-0.46785-0.62755-2.3096-2.6802-4.4674-4.5753-5.48 0.22994 0.21162 0.52109 0.47694 0.41594 0.51996-0.94234-0.56009-0.77961-0.60567-0.91505-0.84226-0.76666-0.31213-0.8125 0.0243-1.3206 0-1.4468-0.767-1.7251-0.68386-3.0571-1.1646l0.0623 0.28074c-0.95796-0.31842-1.1163 0.12-2.1524 0-0.0623-0.0472 0.33034-0.17188 0.6551-0.21842-0.92536 0.12239-0.88112-0.18304-1.7885 0.0315 0.22259-0.15611 0.45908-0.26182 0.697-0.39564zm11.074 13.154c0.007 0.24583-0.0605 0.63564-0.18718 1.0503 0.19266-0.50507 0.20342-0.78165 0.18718-1.0503zm-10.326-12.988c0.26521 0.0459 0.56419 0.0824 0.51993 0.1456 0.28984-0.0642 0.3652-0.12001-0.51993-0.1456zm0.51993 0.1456-0.17676 0.0412 0.16638-0.0204 0.0109-0.0208zm-1.5078 2.6307c-0.16641 0.0498-0.37167 0.10063-0.45752 0.17684 0.13604-0.0667 0.29005-0.12791 0.45752-0.17686zm-10.721 3.2652c0.077 0.71596-0.53831 0.9927 0.13519 0.51986 0.36236-0.81659-0.14017-0.22353-0.13519-0.51987zm-0.5511 2.2773c-0.43024 0.54966-0.1939 0.66544-0.23918 1.0397 0.15574-0.47719 0.17928-0.76303 0.23918-1.0397zm17.719 3.317c-0.0611 0-0.13728 0.16252-0.17677 0.3327 0.0907 0.0487 0.16006 0.6303 0.24958 0.2703 0.0299-0.44715-0.0121-0.60473-0.0728-0.60302zm5.4383 1.5077-0.0728 0.18716c-0.13247 0.95041-0.4195 1.8926-0.86305 2.7659 0.48881-0.92023 0.80311-1.9326 0.93585-2.953zm-5.7606 0.34317c-0.0663 0.32882-0.2469 0.615-0.41593 0.91512-0.92937 0.58483-0.0872-0.35235 0-0.70714-0.99824 1.2581-0.12992 0.7498-0.16638 1.1023 0.29616-0.40837 0.50713-0.84738 0.58231-1.3103zm-2.0277 1.9133c-0.40295 0.0995-0.8124 0.0995-1.227 0.063-0.49646 0.0112 0.0896 0.2537 0.73826 0.35357 0.17969-0.14013 0.34466-0.27816 0.48874-0.41599zm-6.2702 0.0729c0.10896 0.40289 0.33143 0.73972 0.54073 1.0917l-0.15599-0.44713c-0.17302-0.19103-0.26893-0.41623-0.38474-0.6447zm-0.38473 0.67585-0.0727 0.34314c0.3261 0.44325 0.59134 0.93196 1.0086 1.279-0.29876-0.5851-0.52519-0.82946-0.93579-1.6223z"/>
  <path id="path2820" style="fill:#a00" d="m127.46 657.36c-0.46418 0.0376-0.92544 0.0559-1.383 0.11392l0.19755 0.0315c0.33541-0.12214 0.82771-0.063 1.1854-0.14553zm-2.0276 0.21832c-0.75535 0.0448-1.8108 0.44193-1.487 0.0835-1.2322 0.54967-3.4196 1.3221-4.6481 2.4747l-0.031-0.25987c-0.56301 0.67441-2.4606 2.0146-2.61 2.8907l-0.1456 0.0315c-0.29217 0.49513-0.48622 1.0604-0.71747 1.5702-0.38234 0.65247-0.56444 0.25105-0.50954 0.35358-0.75268 1.5272-1.1229 2.815-1.4454 3.8681 0.23026 0.34303 0.008 2.0681 0.0938 3.4523-0.37668 6.8356 4.7936 13.473 10.45 15.005 0.8282 0.29647 2.0603 0.2834 3.1091 0.31199-1.2375-0.35333-1.3934-0.18193-2.5996-0.60313-0.86846-0.40944-1.0582-0.88022-1.6741-1.4143l0.23916 0.43686c-1.2075-0.42639-0.70192-0.53162-1.6845-0.8423l0.25996-0.34312c-0.39131-0.0304-1.0292-0.65937-1.2062-1.0087l-0.43672 0.0204c-0.51342-0.63415-0.7787-1.0906-0.75909-1.4454l-0.1456 0.23915c-0.15567-0.26774-1.8886-2.3731-0.98783-1.882-0.16638-0.15199-0.39406-0.24847-0.63429-0.68627l0.18716-0.21843c-0.43256-0.55767-0.79675-1.2698-0.76948-1.5077 0.22993 0.31175 0.39273 0.37307 0.55112 0.42629-1.0944-2.7151-1.1569-0.1496-1.9861-2.7659l0.17678-0.0113c-0.13407-0.20291-0.21455-0.42896-0.32235-0.6446l0.0727-0.75901c-0.78794-0.90978-0.21844-3.8656-0.10416-5.4904 0.0782-0.66022 0.65261-1.3701 1.0918-2.4748l-0.27034-0.0412c0.5121-0.89416 2.9363-3.59 4.0553-3.4521 0.54206-0.67989-0.11183-0.0113-0.21836-0.17684 1.1906-1.2309 1.5676-0.86955 2.3708-1.0918 0.86581-0.51346-0.74336 0.19741-0.33274-0.19759 1.4974-0.38229 1.0606-0.86699 3.0155-1.0607 0.0843 0.0472 0.005 0.0957-0.11456 0.13536 1.3769-0.37139 3.6327-0.17696 5.168 0.5303 2.0354 0.9516 4.3281 3.7694 4.4193 6.4158l0.0936 0.0315c-0.0504 1.0515 0.16004 2.2615-0.20797 3.3795l0.23917-0.50956c0.0243 0.78834-0.23091 1.1775-0.46793 1.8613l-0.42632 0.208c-0.35106 0.68239 0.0323 0.43404-0.21837 0.97742-0.5487 0.4875-1.6703 1.526-2.0277 1.6221-0.26021-0.0112 0.18193-0.30919 0.23917-0.42628-0.73437 0.50436-0.59272 0.76419-1.7157 1.071l-0.031-0.0729c-2.7711 1.3037-6.6213-1.2878-6.5717-4.8143-0.0286 0.22351-0.0845 0.17003-0.14559 0.25985-0.14319-1.8132 0.8308-3.633 2.4852-4.3777 1.6172-0.79949 3.5213-0.47695 4.6793 0.60312-0.63556-0.83318-1.9093-1.7144-3.4107-1.6326-1.4701 0.0232-2.8465 0.96046-3.3067 1.9757-0.75233 0.47283-0.83718 1.8315-1.1646 2.0796-0.44189 3.2471 0.83079 4.6407 2.9843 6.291 0.33807 0.22774 0.10032 0.2629 0.1456 0.43684-0.71474-0.33418-1.3752-0.83563-1.9133-1.4558 0.28581 0.41732 0.59929 0.8241 0.99824 1.1438-0.67448-0.22762-1.578-1.6376-1.8405-1.695 1.162 2.0824 4.7198 3.6588 6.5821 2.8804-0.86046 0.0304-1.964 0.0128-2.9323-0.34314-0.40662-0.2092-0.95151-0.63695-0.85268-0.71755 2.5399 0.94772 5.1629 0.711 7.362-1.0502 0.55903-0.43527 1.1647-1.1751 1.3414-1.1854-0.23204 0.34909-0.0238 0.23405-0.10415 0.43672 0.41659-0.73599-0.25836-0.31514 0.51993-1.4453l0.30154 0.41586c-0.11183-0.74628 0.92664-1.6481 0.82149-2.8283 0.11903-0.18012 0.1927-0.0802 0.19755 0.1663-0.0128-0.22073-0.0403-0.43746 0-0.77986 0.0962 0.25465 0.22494 0.53185 0.29115 0.80071-0.22757-0.88871 0.22737-1.5002 0.34316-2.0173-0.11328-0.0498-0.35096 0.39369-0.40554-0.65512 0.008-0.45624 0.13119-0.24171 0.17678-0.35357-0.0885-0.0498-0.32517-0.39914-0.46793-1.071 0.10271-0.15728 0.27451 0.41307 0.41593 0.43671-0.0894-0.53308-0.24324-0.94241-0.24956-1.3517-0.41225-0.86179-0.14431 0.10895-0.47834-0.37442-0.43788-1.3689 0.36138-0.31453 0.41595-0.93585 0.66416 0.96337 1.0426 2.4593 1.2166 3.078-0.13247-0.75367-0.35097-1.4874-0.61351-2.1941 0.20299 0.0835-0.32732-1.552 0.25996-0.46785-0.62755-2.3096-2.6802-4.4674-4.5753-5.48 0.22994 0.21162 0.52109 0.47694 0.41594 0.51996-0.94234-0.56009-0.77961-0.60567-0.91505-0.84226-0.76666-0.31213-0.8125 0.0243-1.3206 0-1.4468-0.767-1.7251-0.68386-3.0571-1.1646l0.0623 0.28074c-0.95796-0.31842-1.1163 0.12-2.1524 0-0.0623-0.0472 0.33034-0.17188 0.6551-0.21842-0.92536 0.12239-0.88112-0.18304-1.7885 0.0315 0.22259-0.15611 0.45908-0.26182 0.697-0.39564zm11.074 13.154c0.007 0.24583-0.0605 0.63564-0.18718 1.0503 0.19266-0.50507 0.20342-0.78165 0.18718-1.0503zm-10.326-12.988c0.26521 0.0459 0.56419 0.0824 0.51993 0.1456 0.28984-0.0642 0.3652-0.12001-0.51993-0.1456zm0.51993 0.1456-0.17676 0.0412 0.16638-0.0204 0.0109-0.0208zm-1.5078 2.6307c-0.16641 0.0498-0.37167 0.10063-0.45752 0.17684 0.13604-0.0667 0.29005-0.12791 0.45752-0.17686zm-10.721 3.2652c0.077 0.71596-0.53831 0.9927 0.13519 0.51986 0.36236-0.81659-0.14017-0.22353-0.13519-0.51987zm-0.5511 2.2773c-0.43024 0.54966-0.1939 0.66544-0.23918 1.0397 0.15574-0.47719 0.17928-0.76303 0.23918-1.0397zm17.719 3.317c-0.0611 0-0.13728 0.16252-0.17677 0.3327 0.0907 0.0487 0.16006 0.6303 0.24958 0.2703 0.0299-0.44715-0.0121-0.60473-0.0728-0.60302zm5.4383 1.5077-0.0728 0.18716c-0.13247 0.95041-0.4195 1.8926-0.86305 2.7659 0.48881-0.92023 0.80311-1.9326 0.93585-2.953zm-5.7606 0.34317c-0.0663 0.32882-0.2469 0.615-0.41593 0.91512-0.92937 0.58483-0.0872-0.35235 0-0.70714-0.99824 1.2581-0.12992 0.7498-0.16638 1.1023 0.29616-0.40837 0.50713-0.84738 0.58231-1.3103zm-2.0277 1.9133c-0.40295 0.0995-0.8124 0.0995-1.227 0.063-0.49646 0.0112 0.0896 0.2537 0.73826 0.35357 0.17969-0.14013 0.34466-0.27816 0.48874-0.41599zm-6.2702 0.0729c0.10896 0.40289 0.33143 0.73972 0.54073 1.0917l-0.15599-0.44713c-0.17302-0.19103-0.26893-0.41623-0.38474-0.6447zm-0.38473 0.67585-0.0727 0.34314c0.3261 0.44325 0.59134 0.93196 1.0086 1.279-0.29876-0.5851-0.52519-0.82946-0.93579-1.6223z"/>
  <path id="path4235" d="m25.391 11.158c-0.67918-0.01707-1.3196 0.04237-1.8359 0.18164 0.11956-0.03966 0.19953-0.08757 0.11523-0.13477-1.9549 0.19371-1.5183 0.67826-3.0156 1.0605-0.41062 0.395 1.1978-0.31619 0.33203 0.19727-0.80325 0.2223-1.1805-0.1391-2.3711 1.0918 0.10653 0.16554 0.76081-0.50216 0.21875 0.17773-1.119-0.13784-3.5426 2.557-4.0547 3.4512l0.26953 0.04102c-0.43922 1.1047-1.0136 1.8144-1.0918 2.4746-0.07608 1.0817-0.34624 2.7447-0.29102 4.0098 0.04563-1.109 0.23024-2.3449 0.29102-3.209 0.0782-0.66022 0.65258-1.3699 1.0918-2.4746l-0.26953-0.04102c0.5121-0.89416 2.9357-3.591 4.0547-3.4531 0.54206-0.67989-0.11222-0.01024-0.21875-0.17578 1.1906-1.2309 1.5678-0.8695 2.3711-1.0918 0.86581-0.51346-0.74265 0.19773-0.33203-0.19727 1.4974-0.38229 1.0607-0.86684 3.0156-1.0605 0.0843 0.0472 0.0043 0.09511-0.11523 0.13477 1.3769-0.37139 3.6327-0.17796 5.168 0.5293 2.0354 0.9516 4.3288 3.7697 4.4199 6.416l0.09375 0.03125c-0.01486 0.31002-0.0012 0.65126 0.0078 0.98242 0.0059-0.61369-0.03472-1.2198-0.0078-1.7812l-0.09375-0.03125c-0.09116-2.6464-2.3846-5.4644-4.4199-6.416-0.95954-0.44204-2.2001-0.68444-3.332-0.71289zm-1.9082 0.20312c-0.16747 0.04895-0.32099 0.10908-0.45703 0.17578 0.08585-0.07621 0.29062-0.12598 0.45703-0.17578zm0 0.80078c-0.16641 0.0498-0.37118 0.09957-0.45703 0.17578 0.13604-0.0667 0.28956-0.12683 0.45703-0.17578zm11.355 3.1094c-0.05457 0.62132-0.8539-0.43337-0.41602 0.93555 0.01863 0.02695 0.02982 0.03425 0.04492 0.05273 0.04875 0.0069 0.0993 0.01437 0.15039 0.01953 0.01868-0.05578 0.04233-0.08472 0.10352-0.0098 0.05782-0.0212 0.10585-0.07018 0.11719-0.19922 0.66416 0.96337 1.0408 2.4595 1.2148 3.0781-0.13247-0.75367-0.35074-1.4866-0.61328-2.1934 0.08592 0.03534 0.04038-0.23646 0.0039-0.48047-0.17051-0.42612-0.36241-0.85056-0.60547-1.2031zm-22.076 0.1543c0.077 0.71596-0.53874 0.99237 0.13476 0.51953 0.36236-0.81659-0.13974-0.22319-0.13476-0.51953zm22.701 0.38281c0.02361 0.16439 0.03403 0.30014-0.002 0.32812 0.04084 0.02308 0.10959 0.11204 0.23828 0.34961-0.06213-0.22868-0.14779-0.453-0.23633-0.67773zm-9.8066 1.459c-0.48803 0.0077-0.9631 0.12219-1.4004 0.30078-1.5714 0.78125-2.4927 2.5438-2.3535 4.3066 0.0065-0.0096 0.01118-0.01073 0.01758-0.01758 0.15644-1.5201 1.0622-2.9283 2.4668-3.5605 1.6172-0.79949 3.5217-0.47655 4.6797 0.60352-0.63556-0.83318-1.9088-1.7147-3.4102-1.6328zm9.1191 0.20117c-0.0148-0.000589-0.03013 0.0077-0.04297 0.02734 0.10002 0.47071 0.23284 0.72863 0.3418 0.89062-0.05692-0.25318-0.09732-0.49186-0.13086-0.71094-0.06144-0.10643-0.1189-0.20508-0.16797-0.20703zm-22.564 0.23438c-0.43024 0.54966-0.19496 0.66674-0.24024 1.041 0.15574-0.47719 0.18034-0.76432 0.24024-1.041zm22.912 0.9082c-0.02017 0.0023-0.03764 0.02008-0.05469 0.04883 0.02719 0.03292 0.0543 0.06796 0.08008 0.07227-0.0075-0.04472-0.01711-0.07804-0.02539-0.12109zm-0.06836 0.54688c0.01143 0.09339 0.01963 0.21231 0.03516 0.26953 0.03953-0.02717 0.08669-0.000101 0.11133-0.06055-0.03051-0.01717-0.09066-0.11965-0.14648-0.20898zm-22.828 0.76172c-0.0295 0.09682-0.07109 0.2174-0.09961 0.31055 0.06541 0.09744 0.0898 0.32448 0.09961 0.60547 0.0091-0.34926 0.01373-0.66922 0-0.91602zm22.934 0.4375c-0.11246 0.33524-0.18714 0.71104-0.08594 1.1699 0.08598-0.44925 0.28218-0.82314 0.35547-1.1504-0.06809-0.02993-0.17833 0.08517-0.26953-0.01953zm-0.36523 0.43555c-0.0403 0.3424-0.0128 0.55857 0 0.7793 0.000362 0.006-0.000334 0.01353 0 0.01953 0.0962 0.25465 0.22481 0.53192 0.29102 0.80078-0.08103-0.31645-0.06154-0.58739-0.01563-0.8418-0.06875-0.2552-0.18435-0.51683-0.27539-0.75781zm0 0.7793c-0.0048-0.2465-0.07824-0.34614-0.19727-0.16602 0.10515 1.1802-0.93214 2.0818-0.82031 2.8281l-0.30274-0.41602c-0.77829 1.1302-0.10294 0.70932-0.51953 1.4453 0.08035-0.20267-0.12852-0.08646 0.10352-0.43555-0.17668 0.0103-0.78277 0.75028-1.3418 1.1855-2.1991 1.7612-4.8215 1.9965-7.3613 1.0488-0.09883 0.0806 0.4469 0.50955 0.85352 0.71875 0.96829 0.35594 2.0712 0.3722 2.9316 0.3418-1.1033 0.46112-2.7956 0.08462-4.2383-0.72266 0.09027 0.07099 0.17195 0.14111 0.26562 0.21289 0.33807 0.22774 0.1012 0.26356 0.14648 0.4375-0.71474-0.33418-1.376-0.83681-1.9141-1.457 0.28581 0.41732 0.5991 0.82479 0.99805 1.1445-0.54287-0.1832-1.2175-1.1008-1.6035-1.4941 0.02196 0.04088 0.04177 0.06691 0.06445 0.11133-0.09932-0.0826-0.18848-0.1734-0.27344-0.26953 1.1869 2.0607 4.7053 3.6109 6.5547 2.8379-0.86046 0.0304-1.9634 0.01219-2.9316-0.34375-0.40662-0.2092-0.95234-0.6362-0.85352-0.7168 2.5399 0.94772 5.1622 0.71037 7.3613-1.0508 0.55903-0.43527 1.1651-1.1752 1.3418-1.1855-0.23204 0.34909-0.02317 0.23483-0.10352 0.4375 0.41659-0.73599-0.25876-0.31516 0.51953-1.4453l0.30274 0.41602c-0.11183-0.74628 0.92546-1.6479 0.82031-2.8281 0.05391-0.08157 0.09774-0.10098 0.13086-0.08008 0.04281-0.2154 0.07045-0.41254 0.06641-0.55469zm-4.8652-0.55078c-0.0611 0-0.13824 0.16185-0.17774 0.33203 0.0907 0.0487 0.16048 0.62953 0.25 0.26953 0.0299-0.44715-0.01157-0.60327-0.07227-0.60156zm3.3379 0.16602-0.04102 0.08594c-0.01937 0.36347-0.06686 0.72493-0.16797 1.0801 0.12547-0.34103 0.2238-0.68548 0.20898-1.166zm1.5078 0.83984c-0.0049 0.03105-0.02639 0.07997-0.0332 0.11328 0.031 0.03648 0.05042 0.11502 0.05273 0.23242-0.0064-0.11036-0.01609-0.22113-0.01953-0.3457zm0.01953 0.3457c0.007 0.24583-0.06082 0.63419-0.1875 1.0488 0.19266-0.50507 0.20374-0.7802 0.1875-1.0488zm-13.672-0.286c-0.04065 0.75275 0.02397 1.4031 0.18359 1.9727 0.11545 0.22793 0.21214 0.45394 0.38476 0.64453l0.15625 0.44531c-0.2093-0.35198-0.43206-0.68695-0.54102-1.0898 0.31704 1.1313 0.99552 1.9811 1.9395 2.8027 0.05031 0.02748 0.10211 0.05988 0.15039 0.07617-0.39895-0.31974-0.71224-0.72526-0.99805-1.1426 0.53805 0.62022 1.1993 1.1209 1.9141 1.4551-0.04528-0.17394 0.19159-0.20976-0.14648-0.4375-1.767-1.354-2.923-2.551-3.043-4.726zm-8.9141 0.20117c-0.0098 0.40709-0.0099 0.81755 0.0078 1.2207 0.0013-0.20821-0.0095-0.41628 0.002-0.625-0.0119-0.1919-0.0077-0.39529-0.0098-0.5957zm23.156 0.24219-0.07227 0.18555c-0.13247 0.95041-0.41973 1.8923-0.86328 2.7656 0.48881-0.92023 0.80281-1.9307 0.93555-2.9512zm-5.7598 0.3418c-0.0663 0.32882-0.24699 0.6159-0.41602 0.91602-0.8601 0.54124-0.22265-0.2076-0.05078-0.60547-0.04213 0.06564-0.07066 0.13506-0.11719 0.19922 0.002-0.01894-0.0069-0.02664-0.0098-0.04102-0.58821 0.83887 0.04259 0.52448 0.0098 0.8418 0.29616-0.40837 0.5088-0.84766 0.58398-1.3105zm-17.388 1.33c-0.09647 6.6496 4.9397 12.994 10.453 14.486 0.8282 0.29647 2.0606 0.28391 3.1094 0.3125-1.2375-0.35333-1.3934-0.18232-2.5996-0.60352-0.42028-0.19814-0.67865-0.41158-0.90625-0.63867-5.1358-1.6132-9.7674-7.364-10.057-13.557zm15.359 0.58398c-0.40295 0.0995-0.81196 0.099-1.2266 0.0625-0.49646 0.0112 0.08962 0.25365 0.73828 0.35352 0.17969-0.14013 0.3442-0.27819 0.48828-0.41602zm-6.2695 0.07227c0.10896 0.40289 0.33172 0.73982 0.54102 1.0918l-0.15625-0.44727c-0.17302-0.19103-0.26896-0.41606-0.38476-0.64453zm-0.38477 0.67578-0.07227 0.34375c0.3261 0.44325 0.59054 0.93226 1.0078 1.2793-0.29876-0.5851-0.52495-0.83024-0.93555-1.623zm-6.9277 0.33789-0.0078 0.07813c0.02156 0.04313 0.04443 0.08521 0.06445 0.12891l0.0078-0.08789c-0.02726-0.03147-0.04037-0.08291-0.06445-0.11914zm1.6152 3.3008c0.06403 0.20623 0.22794 0.48836 0.41016 0.7832-0.15689-0.36183-0.29222-0.61422-0.41016-0.7832z" style="fill:#e1a45f;fill-opacity:.31373" transform="translate(101.71 648.36)"/>
  <path id="path4242" d="m25.748 9c-0.46418 0.0376-0.9253 0.055261-1.3828 0.11328l0.19922 0.033203c0.336-0.1222 0.826-0.064 1.184-0.1465zm-2.0273 0.21875c-0.75535 0.0448-1.8101 0.44241-1.4863 0.083984-1.2322 0.54967-3.4199 1.322-4.6484 2.4746l-0.03125-0.25977c-0.56301 0.67441-2.46 2.0145-2.6094 2.8906l-0.14648 0.03125c-0.29217 0.49513-0.48555 1.0605-0.7168 1.5703-0.38234 0.65247-0.56466 0.25098-0.50976 0.35352-0.75268 1.5272-1.1229 2.814-1.4453 3.8672 0.02878 0.04288 0.05028 0.1087 0.06641 0.19141 0.30973-1.0168 0.67098-2.2218 1.3789-3.6582-0.0549-0.10253 0.12742 0.29895 0.50976-0.35352 0.23125-0.50979 0.42463-1.0752 0.7168-1.5703l0.14648-0.0332c0.1494-0.87611 2.0464-2.2162 2.6094-2.8906l0.03125 0.25976c1.2285-1.1526 3.4163-1.9249 4.6484-2.4746-0.32378 0.35843 0.73098-0.037231 1.4863-0.082031-0.23792 0.13382-0.47272 0.23842-0.69531 0.39453 0.9074-0.21454 0.86175 0.09114 1.7871-0.03125-0.32476 0.04654-0.7166 0.17155-0.6543 0.21875 1.0362 0.12 1.1944-0.31842 2.1523 0l-0.0625-0.28125c1.332 0.48073 1.6099 0.39706 3.0566 1.1641 0.50809 0.0243 0.55365-0.31213 1.3203 0 0.13544 0.23659-0.02632 0.28366 0.91602 0.84375 0.10515-0.04302-0.18608-0.30791-0.41602-0.51953 1.6852 0.90046 3.4891 2.7055 4.3105 4.7188 0.03169-0.01794 0.10411 0.06482 0.26367 0.35938-0.62755-2.3096-2.6792-4.466-4.5742-5.4785 0.22994 0.21162 0.52117 0.47651 0.41602 0.51953-0.94234-0.56009-0.78058-0.60521-0.91602-0.8418-0.76666-0.31213-0.81222 0.0243-1.3203 0-1.4468-0.767-1.7247-0.68529-3.0566-1.166l0.0625 0.28125c-0.74776-0.24855-1.0207-0.042329-1.5918 0.00586 0.46706 0.029305 0.5099 0.070237 0.27148 0.12305l-0.01172 0.021484-0.16602 0.019531 0.17773-0.041016c0.0378-0.053981-0.18207-0.087482-0.41016-0.125-0.13079 0.00472-0.25076 0.01591-0.42188-0.00391-0.0623-0.0472 0.32954-0.17221 0.6543-0.21875-0.92536 0.12239-0.87971-0.18329-1.7871 0.03125 0.22259-0.15611 0.45739-0.26071 0.69531-0.39453zm0.75 0.16602c0.16511 0.028575 0.33328 0.053985 0.43359 0.083984 0.08777-0.00687 0.17566-0.015422 0.26367-0.021484-0.04317-0.026935-0.23257-0.049065-0.69727-0.0625zm0.69531 0.070312c-0.0825 0.00415-0.16243 0.011769-0.24219 0.019531 0.0485 0.0166 0.0813 0.035367 0.06641 0.056641 0.12422-0.027514 0.18908-0.053458 0.17578-0.076172zm-0.176 0.0761-0.178 0.0411 0.167-0.0215 0.011-0.0196zm-12.229 5.8945c0.06818 0.63396-0.35798 0.89135 0 0.62109 0.0058-0.06834 0.0086-0.14107 0-0.2207-0.002 0.11952 0.07733 0.09322 0.15039 0.07422 0.30352-0.71409-0.15522-0.18698-0.15039-0.47461zm22.678 1.0898c-0.05305-0.000638-0.0184 0.21354 0.01367 0.42773 0.05422-0.01243 0.02917-0.20894-0.002-0.41602-0.0028-0.000963-0.0093-0.01169-0.01172-0.01172zm-1.1035 0.17578c-0.0662 0.05994-0.06835 0.2325 0.08594 0.71484 0.33403 0.48337 0.06627-0.48679 0.47852 0.375 0.0041 0.26828 0.06942 0.55038 0.14062 0.85352 0.03688 0.05279 0.07273 0.09186 0.10742 0.09766-0.0894-0.53308-0.24173-0.94225-0.24805-1.3516-0.41225-0.86179-0.14449 0.11032-0.47852-0.37305-0.04241-0.1326-0.06494-0.22556-0.08594-0.31641zm1.1309 0.3457c0.01988 0.14344 0.02705 0.25896 0 0.29492 0.2824 0.71897 0.4785 1.4345 0.58594 1.8164-0.12743-0.72501-0.33666-1.4295-0.58594-2.1113zm-9.8105 0.23047c-1.4701 0.0232-2.8465 0.95937-3.3066 1.9746-0.75233 0.47283-0.83858 1.832-1.166 2.0801-0.06727 0.49428-0.08152 0.93378-0.07227 1.3496 0.0097-0.30141 0.02606-0.60969 0.07227-0.94922 0.32743-0.2481 0.41368-1.6072 1.166-2.0801 0.46019-1.0152 1.8366-1.9514 3.3066-1.9746 0.622-0.03391 1.2002 0.10138 1.7148 0.32617 0.64038 0.16553 1.2293 0.47158 1.6953 0.90625-0.63556-0.83318-1.9088-1.7147-3.4102-1.6328zm-13.445 0.43555c-0.36651 0.46825-0.26282 0.6397-0.24805 0.90625 0.01045-0.08348 0.05398-0.18618 0.12305-0.30469 0.05122-0.22774 0.08719-0.42692 0.125-0.60156zm2.834 0.32227c-0.08145 0.11481-0.21651 0.27362-0.26562 0.35938l0.09961 0.01563c0.05714-0.12497 0.11571-0.23865 0.16992-0.375h-0.0039zm19.73 0.64453c-0.0148-0.00059-0.03013 0.0077-0.04297 0.02734 0.08977 0.42249 0.2067 0.67257 0.31055 0.8457 0.0364-0.19104 0.12133-0.08531 0.1582-0.17578-0.06621-0.03726-0.21499-0.24277-0.3457-0.625-0.000506-0.000674-0.0014-0.0013-0.002-0.002-0.02731-0.03599-0.05453-0.06937-0.07813-0.07031zm0.27148 1.2324c-0.01212 0.04607-0.02156 0.11142-0.02344 0.21875 0.03566 0.6853 0.14963 0.72253 0.25586 0.6875 0.05498-0.14296 0.12162-0.30315 0.15039-0.43164-0.10374-0.04561-0.30658 0.26856-0.38281-0.47461zm-1.7988 0.93945c-0.0024 0.55475-0.04294 1.1162-0.2207 1.6562l0.15625-0.33008c0.06173-0.44528 0.07392-0.88401 0.06445-1.3262zm-3.3184 0.17969c-0.0611 0-0.13824 0.16185-0.17774 0.33203 0.02784 0.01495 0.05115 0.105 0.07617 0.17773 0.03253-0.06564 0.06993-0.11133 0.10156-0.11133 0.03503-0.000987 0.05796 0.07689 0.07031 0.20703 0.000728-0.0028 0.0012-0.000969 0.002-0.0039 0.0299-0.44715-0.01157-0.60327-0.07227-0.60156zm-17.701 0.58008c-0.0099 0.38747-0.01995 0.81443-0.02149 1.2461 0.0092-0.45928 0.01904-0.87488 0.02149-1.2461zm22.811 0.51367c-0.0039 0.0398-0.01022 0.07804-0.01172 0.11914 0.01727 0.05365 0.04548 0.10497 0.05859 0.1582-0.02462-0.09616-0.03694-0.18744-0.04688-0.27734zm-0.25391 0.08984c-0.0014 0.0343-0.0037 0.07165-0.0039 0.10352 0.003 0.02707 0.01303 0.032 0.01367 0.06445-0.0031-0.05363-0.0061-0.11295-0.0098-0.16797zm0.0098 0.16797c0.0011 0.0401-0.01092 0.10315-0.01367 0.15039 0.0017 0.03185 0.0038 0.06316 0.0059 0.09375 0.0031-0.08138 0.01236-0.16886 0.0078-0.24414zm-12.893 0.01563c-0.01675 0.22737-0.01811 0.4562 0 0.68555 0.06109-0.08982 0.11593-0.03626 0.14453-0.25977-0.0496 3.5264 3.8012 6.1182 6.5723 4.8145l0.03125 0.07227c1.123-0.30681 0.98047-0.56595 1.7148-1.0703-0.05724 0.11709-0.49849 0.41458-0.23828 0.42578 0.35739-0.0961 1.4786-1.1336 2.0273-1.6211 0.25067-0.54338-0.13231-0.29613 0.21875-0.97852l0.426-0.208c0.23702-0.68374 0.49305-1.073 0.46875-1.8613l-0.02539 0.05273c-0.06442 0.50948-0.25726 0.87134-0.44336 1.4082l-0.42578 0.20703c-0.35106 0.68239 0.03192 0.43514-0.21875 0.97852-0.5487 0.4875-1.67 1.525-2.0273 1.6211-0.26021-0.0112 0.18104-0.30869 0.23828-0.42578-0.73437 0.50436-0.59183 0.7635-1.7148 1.0703l-0.03125-0.07227c-2.7711 1.3037-6.6219-1.288-6.5723-4.8145-0.0286 0.22351-0.08344 0.16995-0.14453 0.25977-0.0075-0.09536 0.0014-0.18992 0-0.28516zm13.465 0.14062-0.07227 0.18555c-0.13247 0.95041-0.41973 1.8923-0.86328 2.7656 0.48881-0.92023 0.80281-1.9307 0.93555-2.9512zm-0.59766 0.125c-0.02573 0.22419-0.07407 0.4794-0.16211 0.76758 0.11664-0.30577 0.15811-0.51786 0.17578-0.70508-0.0026-0.02696-0.0089-0.04112-0.01367-0.0625zm-5.1621 0.2168c-0.0663 0.32882-0.24699 0.6159-0.41602 0.91602-0.09429 0.05934-0.16024 0.09285-0.2207 0.12305-0.02511 0.04127-0.04495 0.07794-0.06836 0.11719 0.07183 0.02142 0.13142 0.05451 0.12109 0.1543 0.29616-0.40837 0.5088-0.84766 0.58398-1.3105zm-0.41602 0.20898c-0.6239 0.78634-0.51322 0.87612-0.35547 0.92383 0.0073-0.01316 0.02682-0.03855 0.03516-0.05273-0.32983 0.10463 0.24801-0.57692 0.32031-0.87109zm-16.973 0.91602c-0.01003 0.32894-0.01674 0.65725-0.002 0.98438-0.0044-0.29866-0.01262-0.59665 0.0039-0.89648-0.0018-0.02826-0.000451-0.05936-0.002-0.08789zm1.4414 0.39844c-0.01402 0.82325 0.06709 1.5414 0.36719 1.9375l0.0332-0.3418c-0.278-0.324-0.38-0.911-0.399-1.597zm13.918 0.39062c-0.40295 0.0995-0.81196 0.099-1.2266 0.0625-0.49646 0.0112 0.08962 0.25365 0.73828 0.35352 0.17969-0.14013 0.3442-0.27819 0.48828-0.41602zm-6.2695 0.07227c0.10896 0.40289 0.33172 0.73982 0.54102 1.0918l-0.15625-0.44727c-0.17302-0.19103-0.26896-0.41606-0.38476-0.64453zm-0.38477 0.67578-0.07227 0.34375c0.02252 0.03062 0.04244 0.06276 0.06445 0.09375l0.0078-0.03711c0.0617 0.11914 0.09809 0.17019 0.15234 0.26758 0.23513 0.34551 0.46585 0.69114 0.7832 0.95508-0.29876-0.5851-0.52495-0.83024-0.93555-1.623zm0.63477 0.50977c0.25524 0.45742 0.63894 0.88248 1.082 1.2715-0.07999-0.10684-0.16512-0.21063-0.24023-0.32031 0.23939 0.27595 0.5072 0.52339 0.78906 0.74805 0.35478 0.25318 0.731 0.48149 1.127 0.67383-0.0067-0.14303 0.16397-0.19189-0.14844-0.40234-0.05506-0.0422-0.10235-0.0831-0.15625-0.125-0.59718-0.32643-1.1508-0.76405-1.6113-1.2949 0.28581 0.41732 0.5991 0.82479 0.99805 1.1445-0.52877-0.17845-1.187-1.0623-1.5781-1.4727l0.0293 0.08398c-0.02324-0.03908-0.04497-0.07837-0.06836-0.11719-0.08616-0.08619-0.1744-0.17892-0.22266-0.18945zm-7.5391 0.77148-0.03125 0.33594c0.06599 0.132 0.1332 0.26243 0.19727 0.39453-0.01819-0.05455-0.03181-0.07882-0.05078-0.13867l0.17578-0.01172c-0.12074-0.18274-0.1981-0.38431-0.29102-0.58008zm0.25781 0.98242-0.14258 0.0078c0.76259 2.4061 0.88726 0.47899 1.752 2.2578 0.08257 0.05338 0.16019 0.08445 0.23438 0.10938-1.0239-2.5402-1.1534-0.51119-1.8438-2.375zm10.078 0.4668c-0.04515 0.03683 0.05216 0.14954 0.20117 0.27734 1.2766 0.56776 2.645 0.77526 3.584 0.38281-0.86046 0.0304-1.9634 0.01219-2.9316-0.34375-0.04695-0.02416-0.09314-0.06464-0.14258-0.09375-0.23738-0.0674-0.47459-0.13447-0.71094-0.22266zm-8.7871 1.8809c-0.0237 0.20673 0.26758 0.76893 0.62305 1.2793l0.14648-0.17188c-0.22458-0.28953-0.42586-0.61753-0.56836-0.90234-0.0637-0.05711-0.12502-0.10183-0.20117-0.20508zm0.73047 1.5527-0.14648 0.17383c0.20302 0.36998 0.3873 0.49132 0.54297 0.61328-0.16697-0.29547-0.23805-0.50496 0.08984-0.32617-0.13168-0.12029-0.30202-0.21345-0.48633-0.46094zm0.26367 0.78906c-0.26961 0.07763 1.0747 1.7189 1.2109 1.9531l0.14648-0.23828c-0.01961 0.35479 0.24439 0.81116 0.75781 1.4453l0.4375-0.02148c0.14484 0.28579 0.59243 0.74263 0.9668 0.92188l0.24024-0.3125c-0.39131-0.0304-1.03-0.66044-1.207-1.0098l-0.4375 0.02148c-0.51342-0.63415-0.77742-1.0905-0.75781-1.4453l-0.14648 0.23828c-0.09549-0.16424-0.73636-0.9763-1.0469-1.5-0.0676-0.03006-0.13564-0.06092-0.16406-0.05273zm3.7324 4.1836-0.23438 0.30664c0.9826 0.31068 0.47802 0.41736 1.6855 0.84375l-0.24024-0.4375c0.61592 0.53406 0.80732 1.0046 1.6758 1.4141 0.0875 0.03055 0.13758 0.03971 0.21484 0.06445 0.73776 0.11696 1.6106 0.11757 2.3848 0.13867-1.2375-0.35333-1.3934-0.18232-2.5996-0.60352-0.86846-0.40944-1.0599-0.88-1.6758-1.4141l0.24024 0.4375c-1.0687-0.37735-0.84704-0.51071-1.4512-0.75z" style="fill:#a00;fill-opacity:.23529" transform="translate(101.71 648.36)"/>
 </g>
</svg>
