<?xml version="1.0" encoding="UTF-8" standalone="no"?>
<!-- Created with Inkscape (http://www.inkscape.org/) -->
<svg id="svg3449" xmlns:rdf="http://www.w3.org/1999/02/22-rdf-syntax-ns#" xmlns="http://www.w3.org/2000/svg" height="128" width="128" version="1.0" xmlns:cc="http://creativecommons.org/ns#" xmlns:xlink="http://www.w3.org/1999/xlink" xmlns:dc="http://purl.org/dc/elements/1.1/">
 <metadata id="metadata56">
  <rdf:RDF>
   <cc:Work rdf:about="">
    <dc:format>image/svg+xml</dc:format>
    <dc:type rdf:resource="http://purl.org/dc/dcmitype/StillImage"/>
    <dc:title/>
   </cc:Work>
  </rdf:RDF>
 </metadata>
 <defs id="defs3451">
  <linearGradient id="linearGradient3514" y2="-9.1034" gradientUnits="userSpaceOnUse" x2="66.492" gradientTransform="matrix(.96826 0 0 .97948 2.179 .16587)" y1="-42.638" x1="67.952">
   <stop id="stop4620" style="stop-color:#37414b" offset="0"/>
   <stop id="stop4622" style="stop-color:#37414b;stop-opacity:0" offset="1"/>
  </linearGradient>
  <linearGradient id="linearGradient3516" y2="-11.847" gradientUnits="userSpaceOnUse" x2="58.98" gradientTransform="matrix(.96826 0 0 .97948 2.179 .16587)" y1="-118.55" x1="57.173">
   <stop id="stop4596" offset="0"/>
   <stop id="stop4598" style="stop-opacity:0" offset="1"/>
  </linearGradient>
  <linearGradient id="linearGradient3519" y2="50.369" gradientUnits="userSpaceOnUse" x2="76.558" gradientTransform="matrix(.96826 0 0 .97948 3.2423 -129.19)" y1="13.164" x1="76.558">
   <stop id="stop3392" style="stop-color:#425e7b" offset="0"/>
   <stop id="stop3394" style="stop-color:#7a91a7" offset="1"/>
  </linearGradient>
  <linearGradient id="linearGradient3521" y2="-8.7399" gradientUnits="userSpaceOnUse" x2="60.217" gradientTransform="matrix(.96826 0 0 .97948 2.179 .16587)" y1="-123.72" x1="60.395">
   <stop id="stop3392-4-8" style="stop-color:#425e7b" offset="0"/>
   <stop id="stop3394-8-0" style="stop-color:#7a91a7" offset="1"/>
  </linearGradient>
  <linearGradient id="linearGradient4192" y2="31.742" gradientUnits="userSpaceOnUse" x2="121.11" y1="31.742" x1="6.5334">
   <stop id="stop4188" style="stop-color:#fff" offset="0"/>
   <stop id="stop4190" style="stop-color:#fff;stop-opacity:0" offset="1"/>
  </linearGradient>
  <linearGradient id="linearGradient11577" y2="8.1" gradientUnits="userSpaceOnUse" y1="6.1438" x2="19.387" x1="19.49">
   <stop id="stop10999-9-0" offset="0"/>
   <stop id="stop11001-6-1" style="stop-opacity:0" offset="1"/>
  </linearGradient>
  <filter id="filter3198-5" color-interpolation-filters="sRGB" width="1.1734" y="-.10752" x="-.086712" height="1.215">
   <feGaussianBlur id="feGaussianBlur3200-3" stdDeviation="0.71710775"/>
  </filter>
  <linearGradient id="linearGradient6921" y2="5.4565" gradientUnits="userSpaceOnUse" x2="36.358" gradientTransform="matrix(0 3.6478 -6.0832 0 129.49 -30.924)" y1="8.059" x1="32.892">
   <stop id="stop8591-7-2-1" style="stop-color:#fefefe" offset="0"/>
   <stop id="stop8593-2-4-5" style="stop-color:#cbcbcb" offset="1"/>
  </linearGradient>
  <radialGradient id="radialGradient6925" gradientUnits="userSpaceOnUse" cy="-16.639" cx="2.6083" gradientTransform="matrix(-5.7453 2.452e-7 -2.5955e-7 -6.0905 124.78 -36.865)" r="23">
   <stop id="stop5983" style="stop-color:#f7650a" offset="0"/>
   <stop id="stop5985" style="stop-color:#ff8d46" offset="1"/>
  </radialGradient>
  <style id="style1246" type="text/css">.fil0 {fill:#1F1A17}</style>
  <style id="style1115" type="text/css">.fil0 {fill:#1F1A17}</style>
  <style id="style1246-3" type="text/css">.fil0 {fill:#1F1A17}</style>
  <style id="style1115-1" type="text/css">.fil0 {fill:#1F1A17}</style>
  <style id="style1246-0" type="text/css">.fil0 {fill:#1F1A17}</style>
  <style id="style1115-7" type="text/css">.fil0 {fill:#1F1A17}</style>
  <linearGradient id="linearGradient13075" y2="9" gradientUnits="userSpaceOnUse" x2="23.838" gradientTransform="matrix(2.6667 0 0 2.6667 -160.22 .27555)" y1="39" x1="23.838">
   <stop id="stop4272-9" style="stop-color:#ffd4b9" offset="0"/>
   <stop id="stop4274-1" style="stop-color:#fff9f5" offset="1"/>
  </linearGradient>
 </defs>
 <rect id="rect892-2-7-1" style="opacity:.15891;stroke:#000;stroke-width:7.7512;fill:none" transform="scale(1,-1)" ry="28.993" height="114.35" width="114.22" y="-121.16" x="6.8687"/>
 <rect id="rect892" style="stroke:url(#linearGradient3521);stroke-width:.97385;fill:url(#linearGradient3519)" transform="scale(1,-1)" ry="29.296" height="115.54" width="114.22" y="-122.25" x="7.0394"/>
 <rect id="rect892-2" style="stroke:url(#linearGradient3516);stroke-width:.97385;fill:url(#linearGradient3514)" transform="scale(1,-1)" ry="28.993" height="114.35" width="114.22" y="-121.46" x="7.0599"/>
 <path id="path4322" d="m120.09 74.559c-1.82 3.831-41.638 40.371-56.018 45.741-66.185 6.38-58.724-19.48-56.838-84.917 4.797-34.382 28.284-28.298 90.407-27.48 28.999 8.074 22.189 27.125 22.449 66.656z" style="fill-rule:evenodd;fill:url(#radialGradient6925)"/>
 <rect id="rect892-2-7-8" style="opacity:.15891;stroke:#000;stroke-width:4.8445;fill:none" transform="scale(1,-1)" ry="28.993" height="114.35" width="114.22" y="-121.16" x="6.8687"/>
 <g id="g17906" transform="matrix(2.3438 0 0 2.2539 224.79 41.695)"></g>
 <g id="g13067" transform="matrix(.81 0 0 .81 141.24 10.75)">
  <path id="path4322-8" style="fill-opacity:.058824" d="m-136.22 27.476v80h80v-80h-80zm8 8h64v64h-64v-64zm32 8c-13.296 0-24 10.704-24 24s10.704 24 24 24 24-10.704 24-24h-24v-24z"/>
  <path id="path4320" style="fill-opacity:.11765" d="m-136.22 26.409v80h80v-80h-80zm8 8h64v64h-64v-64zm32 8c-13.296 0-24 10.704-24 24s10.704 24 24 24 24-10.704 24-24h-24v-24z"/>
  <path id="path4316" style="fill-opacity:.23529" d="m-136.22 25.342v80h80v-80h-80zm8 8h64v64h-64v-64zm32 8c-13.296 0-24 10.704-24 24s10.704 24 24 24 24-10.704 24-24h-24v-24z"/>
  <path id="rect4279" style="fill:url(#linearGradient13075)" d="m-136.22 24.276v80h80v-80h-80zm8 8h64v64h-64v-64zm32 8c-13.296 0-24 10.704-24 24s10.704 24 24 24 24-10.704 24-24h-24v-24z"/>
  <path id="path4324" style="fill:#ff6505;fill-opacity:.31373" d="m-128.22 30.14v2.1354h64v-2.1354h-64zm8.0521 33.068c-0.0156 0.3569-0.0521 0.70683-0.0521 1.0677 0 13.296 10.704 24 24 24s24-10.704 24-24h-0.10939c-1.0744 12.288-11.315 21.865-23.891 21.865-12.936 0-23.39-10.139-23.948-22.932zm-16.052 38.932v2.1354h80v-2.1354h-80z"/>
  <path id="path4329" style="fill:#fff;fill-opacity:.23529" d="m-136.22 24.276v1.0677h80v-1.0677h-80zm40 16c-13.296 0-24 10.704-24 24 0 0.17957 0.0221 0.35265 0.0261 0.53125 0.28579-13.044 10.859-23.464 23.974-23.464v-1.0677zm0 24v1.0677h23.948c0.01561-0.3569 0.05208-0.70683 0.05208-1.0677h-24zm-32 32v1.0677h64v-1.0677h-64z"/>
 </g>
 <path id="path4891" d="m25.685 5.7862c3.6386-0.3502 2.8432 14.02 2.8432 14.02s16.093-0.84846 16.525 1.9543c3.85-3.268-16.654-16.76-19.368-15.974z" style="opacity:.3;fill-rule:evenodd;filter:url(#filter3198-5)" transform="matrix(0 2.6586 -4.0239 0 144.6 .66614)"/>
 <path id="path4893" d="m120.08 74.021c-2.5978 9.0661-48.197 8.1132-48.197 8.1132s3.0089 37.274-10.414 38.176c7.898 2.3435 47.822-27.079 56.811-41.551 1.1551-1.8595 1.7994-3.4722 1.7994-4.7388z" style="fill:url(#linearGradient6921);fill-rule:evenodd"/>
 <rect id="rect892-2-7-2-9" ry="28.238" style="stroke:#000;stroke-width:1.052;fill:none" transform="scale(1,-1)" height="113.4" width="114.13" y="-121" x="7.0665"/>
</svg>
