<?xml version="1.0" encoding="UTF-8" standalone="no"?>
<!-- Created with Inkscape (http://www.inkscape.org/) -->
<svg id="svg3449" xmlns:rdf="http://www.w3.org/1999/02/22-rdf-syntax-ns#" xmlns="http://www.w3.org/2000/svg" height="128" width="128" version="1.0" xmlns:cc="http://creativecommons.org/ns#" xmlns:xlink="http://www.w3.org/1999/xlink" xmlns:dc="http://purl.org/dc/elements/1.1/">
 <metadata id="metadata56">
  <rdf:RDF>
   <cc:Work rdf:about="">
    <dc:format>image/svg+xml</dc:format>
    <dc:type rdf:resource="http://purl.org/dc/dcmitype/StillImage"/>
    <dc:title/>
   </cc:Work>
  </rdf:RDF>
 </metadata>
 <defs id="defs3451">
  <linearGradient id="linearGradient3514" y2="-9.1034" gradientUnits="userSpaceOnUse" x2="66.492" gradientTransform="matrix(.96826 0 0 .97948 2.179 .16587)" y1="-42.638" x1="67.952">
   <stop id="stop4620" style="stop-color:#37414b" offset="0"/>
   <stop id="stop4622" style="stop-color:#37414b;stop-opacity:0" offset="1"/>
  </linearGradient>
  <linearGradient id="linearGradient3516" y2="-11.847" gradientUnits="userSpaceOnUse" x2="58.98" gradientTransform="matrix(.96826 0 0 .97948 2.179 .16587)" y1="-118.55" x1="57.173">
   <stop id="stop4596" offset="0"/>
   <stop id="stop4598" style="stop-opacity:0" offset="1"/>
  </linearGradient>
  <linearGradient id="linearGradient3519" y2="50.369" gradientUnits="userSpaceOnUse" x2="76.558" gradientTransform="matrix(.96826 0 0 .97948 3.2423 -129.19)" y1="13.164" x1="76.558">
   <stop id="stop3392" style="stop-color:#425e7b" offset="0"/>
   <stop id="stop3394" style="stop-color:#7a91a7" offset="1"/>
  </linearGradient>
  <linearGradient id="linearGradient3521" y2="-8.7399" gradientUnits="userSpaceOnUse" x2="60.217" gradientTransform="matrix(.96826 0 0 .97948 2.179 .16587)" y1="-123.72" x1="60.395">
   <stop id="stop3392-4-8" style="stop-color:#425e7b" offset="0"/>
   <stop id="stop3394-8-0" style="stop-color:#7a91a7" offset="1"/>
  </linearGradient>
  <linearGradient id="linearGradient4192" y2="31.742" gradientUnits="userSpaceOnUse" x2="121.11" y1="31.742" x1="6.5334">
   <stop id="stop4188" style="stop-color:#fff" offset="0"/>
   <stop id="stop4190" style="stop-color:#fff;stop-opacity:0" offset="1"/>
  </linearGradient>
  <linearGradient id="linearGradient11577" y2="8.1" gradientUnits="userSpaceOnUse" y1="6.1438" x2="19.387" x1="19.49">
   <stop id="stop10999-9-0" offset="0"/>
   <stop id="stop11001-6-1" style="stop-opacity:0" offset="1"/>
  </linearGradient>
  <filter id="filter3198-5" color-interpolation-filters="sRGB" width="1.1734" y="-.10752" x="-.086712" height="1.215">
   <feGaussianBlur id="feGaussianBlur3200-3" stdDeviation="0.71710775"/>
  </filter>
  <linearGradient id="linearGradient6921" y2="5.4565" gradientUnits="userSpaceOnUse" x2="36.358" gradientTransform="matrix(0 3.6478 -6.0832 0 129.49 -30.924)" y1="8.059" x1="32.892">
   <stop id="stop8591-7-2-1" style="stop-color:#fefefe" offset="0"/>
   <stop id="stop8593-2-4-5" style="stop-color:#cbcbcb" offset="1"/>
  </linearGradient>
  <radialGradient id="radialGradient6925" gradientUnits="userSpaceOnUse" cy="-16.639" cx="2.6083" gradientTransform="matrix(-5.7453 2.452e-7 -2.5955e-7 -6.0905 124.78 -36.865)" r="23">
   <stop id="stop5983" style="stop-color:#e97576" offset="0"/>
   <stop id="stop5985" style="stop-color:#cb2223" offset="1"/>
  </radialGradient>
  <style id="style1246" type="text/css">.fil0 {fill:#1F1A17}</style>
  <style id="style1115" type="text/css">.fil0 {fill:#1F1A17}</style>
  <style id="style1246-3" type="text/css">.fil0 {fill:#1F1A17}</style>
  <style id="style1115-1" type="text/css">.fil0 {fill:#1F1A17}</style>
  <style id="style1246-0" type="text/css">.fil0 {fill:#1F1A17}</style>
  <style id="style1115-7" type="text/css">.fil0 {fill:#1F1A17}</style>
  <linearGradient id="linearGradient35628" y2="432.78" gradientUnits="userSpaceOnUse" x2="262.25" gradientTransform="matrix(2.6667 0 0 2.6667 -763.93 -1251.6)" y1="462.78" x1="262.25">
   <stop id="stop4409" style="stop-color:#f5c3c3" offset="0"/>
   <stop id="stop4411" style="stop-color:#fef6f6" offset="1"/>
  </linearGradient>
 </defs>
 <rect id="rect892-2-7-1" style="opacity:.15891;stroke:#000;stroke-width:7.7512;fill:none" transform="scale(1,-1)" ry="28.993" height="114.35" width="114.22" y="-121.16" x="6.8687"/>
 <rect id="rect892" style="stroke:url(#linearGradient3521);stroke-width:.97385;fill:url(#linearGradient3519)" transform="scale(1,-1)" ry="29.296" height="115.54" width="114.22" y="-122.25" x="7.0394"/>
 <rect id="rect892-2" style="stroke:url(#linearGradient3516);stroke-width:.97385;fill:url(#linearGradient3514)" transform="scale(1,-1)" ry="28.993" height="114.35" width="114.22" y="-121.46" x="7.0599"/>
 <path id="path4159-5" style="stroke:url(#linearGradient4192);stroke-width:1px;fill:none" d="m7.0334 31.742h113.58z"/>
 <path id="path4322" d="m120.09 74.559c-1.82 3.831-41.638 40.371-56.018 45.741-66.185 6.38-58.724-19.48-56.838-84.917 4.797-34.382 28.284-28.298 90.407-27.48 28.999 8.074 22.189 27.125 22.449 66.656z" style="fill-rule:evenodd;fill:url(#radialGradient6925)"/>
 <g id="g35621" transform="translate(131.72 121.38)">
  <path id="path4419" style="fill-opacity:.058824;fill-rule:evenodd" d="m-70.257-94.323v35.506a5.337 5.3516 0 0 0 -2.6719 4.6303 5.337 5.3516 0 0 0 5.3333 5.3515 5.337 5.3516 0 0 0 5.3385 -5.3515 5.337 5.3516 0 0 0 -2.6667 -4.6303v-35.506h-5.3333zm-5.3333 0.61144c-7.7175 1.3995-14.455 5.2869-20.292 11.147-7.3998 7.43-11.708 17.871-11.708 28.377 0 3.6178 0.54365 7.221 1.5156 10.703h11.208c-1.3279-3.4049-2.0573-7.0452-2.0573-10.703 0-7.7049 3.1568-15.361 8.5833-20.81 3.5183-3.5326 7.9668-6.0875 12.75-7.4628v-11.252zm16 0.1568v11.168c4.7751 1.2619 9.2312 3.5997 12.734 7.1126 5.4335 5.4487 8.599 13.109 8.599 20.815 0 7.7058-3.1655 15.367-8.599 20.815-5.4335 5.4487-13.07 8.6182-20.75 8.6177-0.88573-0.000053-1.7706-0.04587-2.651-0.13067v10.734c0.88115 0.06427 1.7664 0.0992 2.651 0.0992 10.473 0.000613 20.882-4.3233 28.292-11.753 7.4093-7.4301 11.724-17.875 11.724-28.383s-4.3147-20.952-11.724-28.383c-5.4986-5.514-12.669-9.1625-20.276-10.713z"/>
  <path id="path4417" d="m-70.257-95.39v35.506a5.337 5.3516 0 0 0 -2.6719 4.6303 5.337 5.3516 0 0 0 5.3333 5.3515 5.337 5.3516 0 0 0 5.3385 -5.3515 5.337 5.3516 0 0 0 -2.6667 -4.6303v-35.506h-5.3333zm-5.3333 0.61144c-7.7175 1.3995-14.455 5.2869-20.292 11.147-7.3998 7.43-11.708 17.871-11.708 28.377 0 3.6178 0.54365 7.221 1.5156 10.703h11.208c-1.3279-3.4049-2.0573-7.0452-2.0573-10.703 0-7.7049 3.1568-15.361 8.5833-20.81 3.5183-3.5326 7.9668-6.0875 12.75-7.4628v-11.252zm16 0.1568v11.168c4.7751 1.2619 9.2312 3.5997 12.734 7.1126 5.4335 5.4487 8.599 13.109 8.599 20.815 0 7.7058-3.1655 15.367-8.599 20.815-5.4335 5.4487-13.07 8.6182-20.75 8.6177-0.88573-0.000054-1.7706-0.04587-2.651-0.13067v10.734c0.88115 0.06427 1.7664 0.0992 2.651 0.0992 10.473 0.000614 20.882-4.3233 28.292-11.753 7.4093-7.4301 11.724-17.875 11.724-28.383s-4.3147-20.952-11.724-28.383c-5.4986-5.514-12.669-9.1625-20.276-10.713z" style="fill-opacity:.11765;fill-rule:evenodd"/>
  <path id="path4413" style="fill-opacity:.23529;fill-rule:evenodd" d="m-70.257-96.457v35.506a5.337 5.3516 0 0 0 -2.6719 4.6303 5.337 5.3516 0 0 0 5.3333 5.3515 5.337 5.3516 0 0 0 5.3385 -5.3515 5.337 5.3516 0 0 0 -2.6667 -4.6303v-35.506h-5.3333zm-5.3333 0.61144c-7.7175 1.3995-14.455 5.2869-20.292 11.147-7.3998 7.43-11.708 17.871-11.708 28.377 0 3.6178 0.54365 7.221 1.5156 10.703h11.208c-1.3279-3.4049-2.0573-7.0452-2.0573-10.703 0-7.7049 3.1568-15.361 8.5833-20.81 3.5183-3.5326 7.9668-6.0875 12.75-7.4628v-11.252zm16 0.1568v11.168c4.7751 1.2619 9.2312 3.5997 12.734 7.1126 5.4335 5.4487 8.599 13.109 8.599 20.815 0 7.7058-3.1655 15.367-8.599 20.815-5.4335 5.4487-13.07 8.6182-20.75 8.6177-0.88573-0.000053-1.7706-0.04587-2.651-0.13067v10.734c0.88115 0.06427 1.7664 0.0992 2.651 0.0992 10.473 0.000613 20.882-4.3233 28.292-11.753 7.4093-7.4301 11.724-17.875 11.724-28.383s-4.3147-20.952-11.724-28.383c-5.4986-5.514-12.669-9.1625-20.276-10.713z"/>
  <path id="path4262" d="m-70.257-97.523v35.506a5.337 5.3516 0 0 0 -2.6719 4.6303 5.337 5.3516 0 0 0 5.3333 5.3515 5.337 5.3516 0 0 0 5.3385 -5.3515 5.337 5.3516 0 0 0 -2.6667 -4.6303v-35.506h-5.3333zm-5.3333 0.61144c-7.7175 1.3995-14.455 5.2869-20.292 11.147-7.3998 7.43-11.708 17.871-11.708 28.377 0 3.6178 0.54365 7.221 1.5156 10.703h11.208c-1.3279-3.4049-2.0573-7.0452-2.0573-10.703 0-7.7049 3.1568-15.361 8.5833-20.81 3.5183-3.5326 7.9668-6.0875 12.75-7.4628v-11.252zm16 0.1568v11.168c4.7751 1.2619 9.2312 3.5997 12.734 7.1126 5.4335 5.4487 8.599 13.109 8.599 20.815 0 7.7058-3.1655 15.367-8.599 20.815-5.4335 5.4487-13.07 8.6182-20.75 8.6177-0.88573-0.000054-1.7706-0.04587-2.651-0.13067v10.734c0.88115 0.06427 1.7664 0.0992 2.651 0.0992 10.473 0.000614 20.882-4.3233 28.292-11.753 7.4093-7.4301 11.724-17.875 11.724-28.383s-4.3147-20.952-11.724-28.383c-5.4986-5.514-12.669-9.1625-20.276-10.713z" style="fill:url(#linearGradient35628);fill-rule:evenodd"/>
  <path id="path4421" style="fill-opacity:.31373;fill:#de2627;fill-rule:evenodd" d="m-75.591-87.794c-4.7832 1.3753-9.2317 3.9309-12.75 7.4635-5.4266 5.4487-8.5833 13.108-8.5833 20.812 0 0.36053 0.03803 0.71815 0.05208 1.0781 0.27334-7.3446 3.3525-14.555 8.5312-19.755 3.5183-3.5326 7.9668-6.0883 12.75-7.4635v-2.1354zm16 0.07291v2.1354c4.7751 1.2619 9.2312 3.5964 12.734 7.1094 5.1822 5.1967 8.2694 12.409 8.5469 19.75 0.01345-0.35598 0.05208-0.7113 0.05208-1.0677 0-7.7058-3.1655-15.364-8.599-20.812-3.5031-3.513-7.9593-5.8527-12.734-7.1146zm31.948 28.995c-0.28156 10.144-4.514 20.14-11.672 27.318-7.4093 7.4301-17.819 11.751-28.292 11.75-0.88461 0-1.7699-0.03469-2.651-0.09896v2.1354c0.88115 0.06427 1.7664 0.09897 2.651 0.09897 10.473 0.000613 20.882-4.3251 28.292-11.755 7.4093-7.4301 11.724-17.872 11.724-28.38 0-0.35661-0.04219-0.71136-0.05208-1.0677zm-34.724 0.26563a5.337 5.3516 0 0 1 -5.2292 4.2917 5.337 5.3516 0 0 1 -5.224 -4.2656 5.337 5.3516 0 0 0 -0.10939 1.0469 5.337 5.3516 0 0 0 5.3333 5.3542 5.337 5.3516 0 0 0 5.3386 -5.3542 5.337 5.3516 0 0 0 -0.10938 -1.0729zm-45.177 0.17709c-0.007 0.29905-0.0469 0.5966-0.0469 0.89583 0 3.6178 0.54365 7.2212 1.5156 10.703h11.208c-0.27329-0.70073-0.50251-1.4166-0.72396-2.1354h-10.484c-0.86122-3.0852-1.3603-6.2622-1.4688-9.4635z"/>
 </g>
 <rect id="rect892-2-7-8" style="opacity:.15891;stroke:#000;stroke-width:4.8445;fill:none" transform="scale(1,-1)" ry="28.993" height="114.35" width="114.22" y="-121.16" x="6.8687"/>
 <g id="g17906" transform="matrix(2.3438 0 0 2.2539 224.79 41.695)"></g>
 <path id="path4891" d="m25.685 5.7862c3.6386-0.3502 2.8432 14.02 2.8432 14.02s16.093-0.84846 16.525 1.9543c3.85-3.268-16.654-16.76-19.368-15.974z" style="opacity:.3;fill-rule:evenodd;filter:url(#filter3198-5)" transform="matrix(0 2.6586 -4.0239 0 144.6 .66614)"/>
 <path id="path4893" d="m120.08 74.021c-2.5978 9.0661-48.197 8.1132-48.197 8.1132s3.0089 37.274-10.414 38.176c7.898 2.3435 47.822-27.079 56.811-41.551 1.1551-1.8595 1.7994-3.4722 1.7994-4.7388z" style="fill:url(#linearGradient6921);fill-rule:evenodd"/>
 <rect id="rect892-2-7-2-9" ry="28.238" style="stroke:#000;stroke-width:1.052;fill:none" transform="scale(1,-1)" height="113.4" width="114.13" y="-121" x="7.0665"/>
 <path id="path7515-3-2" style="fill:#fff;fill-opacity:.53725" d="m-39.105-36.989c-2.4456 0-4.4564 1.7053-4.9167 4 0.89496-0.7464 2.0654-1.1667 3.3333-1.1667h117.67c1.268 0 2.4384 0.42027 3.3333 1.1667-0.46027-2.2947-2.4711-4-4.9167-4h-114.5z"/>
</svg>
