<?xml version="1.0" encoding="UTF-8" standalone="no"?>
<!-- Created with Inkscape (http://www.inkscape.org/) -->
<svg id="svg3449" xmlns:rdf="http://www.w3.org/1999/02/22-rdf-syntax-ns#" xmlns="http://www.w3.org/2000/svg" height="128" width="128" version="1.0" xmlns:cc="http://creativecommons.org/ns#" xmlns:xlink="http://www.w3.org/1999/xlink" xmlns:dc="http://purl.org/dc/elements/1.1/">
 <metadata id="metadata56">
  <rdf:RDF>
   <cc:Work rdf:about="">
    <dc:format>image/svg+xml</dc:format>
    <dc:type rdf:resource="http://purl.org/dc/dcmitype/StillImage"/>
    <dc:title/>
   </cc:Work>
  </rdf:RDF>
 </metadata>
 <defs id="defs3451">
  <linearGradient id="linearGradient3514" y2="-9.1034" gradientUnits="userSpaceOnUse" x2="66.492" gradientTransform="matrix(.96826 0 0 .97948 2.179 .16587)" y1="-42.638" x1="67.952">
   <stop id="stop4620" style="stop-color:#37414b" offset="0"/>
   <stop id="stop4622" style="stop-color:#37414b;stop-opacity:0" offset="1"/>
  </linearGradient>
  <linearGradient id="linearGradient3516" y2="-11.847" gradientUnits="userSpaceOnUse" x2="58.98" gradientTransform="matrix(.96826 0 0 .97948 2.179 .16587)" y1="-118.55" x1="57.173">
   <stop id="stop4596" offset="0"/>
   <stop id="stop4598" style="stop-opacity:0" offset="1"/>
  </linearGradient>
  <linearGradient id="linearGradient3519" y2="50.369" gradientUnits="userSpaceOnUse" x2="76.558" gradientTransform="matrix(.96826 0 0 .97948 3.2423 -129.19)" y1="13.164" x1="76.558">
   <stop id="stop3392" style="stop-color:#425e7b" offset="0"/>
   <stop id="stop3394" style="stop-color:#7a91a7" offset="1"/>
  </linearGradient>
  <linearGradient id="linearGradient3521" y2="-8.7399" gradientUnits="userSpaceOnUse" x2="60.217" gradientTransform="matrix(.96826 0 0 .97948 2.179 .16587)" y1="-123.72" x1="60.395">
   <stop id="stop3392-4-8" style="stop-color:#425e7b" offset="0"/>
   <stop id="stop3394-8-0" style="stop-color:#7a91a7" offset="1"/>
  </linearGradient>
  <radialGradient id="radialGradient3349" gradientUnits="userSpaceOnUse" cy="45.647" cx="42.148" gradientTransform="matrix(.94690 0 0 1.139 3.5954 -29.89)" r="58.984">
   <stop id="stop8767" style="stop-color:#ffd33e" offset="0"/>
   <stop id="stop8769" style="stop-color:#eea01c" offset="1"/>
  </radialGradient>
  <filter id="filter3174" color-interpolation-filters="sRGB">
   <feGaussianBlur id="feGaussianBlur3176" stdDeviation="1.71"/>
  </filter>
  <linearGradient id="ButtonShadow-1" x1="45.448" gradientUnits="userSpaceOnUse" y1="92.54" gradientTransform="scale(1.0059 .99417)" x2="45.448" y2="7.0165">
   <stop id="stop3750-0" offset="0"/>
   <stop id="stop3752-4" style="stop-opacity:.58824" offset="1"/>
  </linearGradient>
  <filter id="filter3174-2" color-interpolation-filters="sRGB">
   <feGaussianBlur id="feGaussianBlur3176-2" stdDeviation="1.71"/>
  </filter>
  <linearGradient id="linearGradient11343" y2="9" gradientUnits="userSpaceOnUse" x2="23.339" gradientTransform="translate(42.565 40.229)" y1="39" x1="23.339">
   <stop id="stop4224" style="stop-color:#ffe4b9" offset="0"/>
   <stop id="stop4226" style="stop-color:#fffdf5" offset="1"/>
  </linearGradient>
  <linearGradient id="linearGradient17023" y2="8.1" gradientUnits="userSpaceOnUse" x2="19.387" y1="6.1438" x1="19.49">
   <stop id="stop10999-9-0" offset="0"/>
   <stop id="stop11001-6-1" style="stop-opacity:0" offset="1"/>
  </linearGradient>
 </defs>
 <rect id="rect892" style="stroke:url(#linearGradient3521);stroke-width:.97385;fill:url(#linearGradient3519)" transform="scale(1,-1)" ry="29.296" height="115.54" width="114.22" y="-122.25" x="7.0394"/>
 <rect id="rect892-2" style="stroke:url(#linearGradient3516);stroke-width:.97385;fill:url(#linearGradient3514)" transform="scale(1,-1)" ry="28.993" height="114.35" width="114.22" y="-121.46" x="7.0599"/>
 <path id="rect895" style="fill:url(#radialGradient3349)" d="m33.051 7.2596c-7.969-2.4493-27.013 15.174-25.653 23.038-0.050142 0.97378-0.088772 1.9648-0.088772 2.9572v52.419c0 20.876 10.712 33.859 22.318 33.859h67.038c12.638 0 24.318-11.245 24.318-25.859v-64.017c0.7-10.928-21.283-24.659-25.926-22.618-47.846 0.8653-18.017 0.2236-62.003 0.2236z"/>
 <rect id="rect892-2-7-8" style="opacity:.15891;stroke:#000;stroke-width:4.8445;fill:none" transform="scale(1,-1)" ry="28.993" height="114.35" width="114.22" y="-121.16" x="6.8687"/>
 <rect id="rect892-2-7-1" style="opacity:.15891;stroke:#000;stroke-width:7.7512;fill:none" transform="scale(1,-1)" ry="28.993" height="114.35" width="114.22" y="-121.16" x="6.8687"/>
 <rect id="rect892-2-7-2-9" ry="28.067" style="stroke:#000;stroke-width:1.0489;fill:none" transform="scale(1,-1)" height="112.71" width="114.14" y="-120.31" x="7.0649"/>
 <path id="path1187" style="fill:#fff;fill-opacity:.057143" d="m33.017 7.2319c-23.707 0-26.027 0.6738-25.93 26.295-0.04334 0.71563-0.07674 1.4439-0.07674 2.1732v32.76c18.67-38.321 38.34-51.497 90.374-61.179-0.225-0.026-0.46-0.0303-0.691-0.0303-41.576 0.3874-25.652-0.0188-63.676-0.0188z"/>
 <g id="layer2" style="display:none" transform="translate(148.5 -54.67)">
  <rect id="rect3745" style="opacity:.9;filter:url(#filter3174);fill:url(#ButtonShadow-1)" rx="6" ry="6" height="85" width="86" y="7" x="5"/>
 </g>
 <g id="layer2-1" style="display:none" transform="translate(60.531 126)">
  <rect id="rect3745-8" style="opacity:.9;filter:url(#filter3174-2);fill:url(#ButtonShadow-1)" rx="6" ry="6" height="85" width="86" y="7" x="5"/>
 </g>
 <g id="g11335" transform="matrix(2.0736 0 0 2.0736 -73.965 -71.247)">
  <path id="path4234" style="fill-opacity:.058824" d="m61.071 50.429c-1.4608 0-2.6094 0.20317-3.4473 0.61133-0.8378 0.38668-1.4727 0.9786-1.9023 1.7734-0.40816 0.77336-0.66602 1.7404-0.77344 2.9004-0.0859 1.16-0.1289 2.5021-0.1289 4.0273 0 0.73039-0.0645 1.375-0.19336 1.9336-0.10741 0.53706-0.28909 1.0196-0.54688 1.4492-0.25779 0.42964-0.6016 0.81644-1.0312 1.1602-0.40817 0.32223-0.9024 0.63479-1.4824 0.93555v0.41796c0.79485 0.40817 1.4063 0.82817 1.8359 1.2578 0.45113 0.42964 0.78518 0.95514 1 1.5781 0.21478 0.60151 0.34372 1.3321 0.38672 2.1914 0.0429 0.85929 0.0644 1.9122 0.0644 3.1582 0 1.1386 0.10745 2.127 0.32226 2.9648 0.21483 0.83781 0.58013 1.5254 1.0957 2.0625 0.51557 0.53706 1.1915 0.93362 2.0293 1.1914 0.8593 0.25779 1.9337 0.38672 3.2227 0.38672 0.043-0.21482 0.0762-0.4297 0.0977-0.64453 0.0215-0.21482 0.0312-0.42971 0.0312-0.64453 0-0.2363-0.01-0.46096-0.0312-0.67578-0.0215-0.19334-0.0547-0.38674-0.0977-0.58008-0.81632 0-1.461-0.0977-1.9336-0.29102-0.47261-0.17186-0.83791-0.45121-1.0957-0.83789-0.2363-0.38668-0.39648-0.89068-0.48242-1.5137-0.0645-0.62299-0.0976-1.3751-0.0976-2.2559v-0.22656c0-1.1815-0.043-2.1798-0.12891-2.9961-0.0859-0.81632-0.23635-1.4922-0.45117-2.0293-0.21482-0.55854-0.50394-1.0098-0.86914-1.3535-0.34372-0.3652-0.77349-0.68753-1.2891-0.96679 0.51558-0.25779 0.94535-0.55863 1.2891-0.90235 0.3652-0.3652 0.65432-0.81646 0.86914-1.3535 0.21482-0.55854 0.36524-1.2462 0.45117-2.0625 0.0859-0.81633 0.12891-1.8146 0.12891-2.9961v-0.19336c0-0.90225 0.0332-1.6661 0.0976-2.2891 0.0859-0.62299 0.24612-1.127 0.48242-1.5137 0.2578-0.40817 0.6231-0.69924 1.0957-0.8711 0.47261-0.17186 1.1173-0.25781 1.9336-0.25781 0.043-0.19334 0.0762-0.38674 0.0977-0.58008 0.0215-0.21482 0.0312-0.43948 0.0312-0.67578s-0.01-0.45119-0.0312-0.64453c-0.0215-0.21483-0.0547-0.42971-0.0977-0.64453h-0.45117zm10.623 0c-0.043 0.21482-0.0762 0.4297-0.0977 0.64453-0.0215 0.19334-0.0312 0.40823-0.0312 0.64453s0.01 0.46096 0.0312 0.67578c0.0215 0.19334 0.0547 0.38674 0.0977 0.58008 0.79484 0 1.4278 0.086 1.9004 0.25781 0.49409 0.17186 0.85939 0.46293 1.0957 0.8711 0.25777 0.38668 0.41991 0.89068 0.48437 1.5137 0.0859 0.62299 0.12891 1.3868 0.12891 2.2891v0.19336c0 1.1815 0.043 2.1798 0.12891 2.9961 0.0859 0.81632 0.23634 1.504 0.45117 2.0625 0.21481 0.53705 0.49417 0.98831 0.83789 1.3535 0.3652 0.34372 0.80474 0.64456 1.3203 0.90235-0.51557 0.27926-0.95511 0.60159-1.3203 0.96679-0.34372 0.34372-0.62308 0.79498-0.83789 1.3535-0.21483 0.53706-0.36525 1.213-0.45117 2.0293-0.0859 0.81633-0.12891 1.8146-0.12891 2.9961v0.22656c0 0.88077-0.043 1.6329-0.12891 2.2559-0.0644 0.62299-0.22658 1.127-0.48437 1.5137-0.23631 0.38668-0.60161 0.66603-1.0957 0.83789-0.47261 0.19334-1.1056 0.29102-1.9004 0.29102-0.043 0.19334-0.0762 0.38674-0.0977 0.58008-0.0215 0.21482-0.0312 0.43948-0.0312 0.67578 0 0.21482 0.01 0.42971 0.0312 0.64453 0.0215 0.21483 0.0547 0.42971 0.0977 0.64453 1.2889 0 2.3516-0.12893 3.1894-0.38672 0.85929-0.25778 1.5469-0.65434 2.0625-1.1914 0.51557-0.53706 0.88088-1.2247 1.0957-2.0625 0.21483-0.83781 0.32227-1.8263 0.32227-2.9648 0-1.246 0.0215-2.2989 0.0644-3.1582 0.043-0.85929 0.17189-1.5899 0.38672-2.1914 0.21482-0.62298 0.53715-1.1485 0.9668-1.5781 0.45112-0.42965 1.0743-0.84965 1.8691-1.2578v-0.41796c-0.58003-0.30076-1.084-0.61332-1.5137-0.93555-0.40817-0.34372-0.74222-0.73052-1-1.1602-0.25779-0.42964-0.45119-0.91216-0.58008-1.4492-0.10741-0.55854-0.16016-1.2032-0.16016-1.9336 0-1.5252-0.0547-2.8673-0.16211-4.0273-0.0859-1.16-0.34378-2.127-0.77344-2.9004-0.40815-0.79484-1.0313-1.3868-1.8691-1.7734-0.83781-0.40816-1.9865-0.61133-3.4473-0.61133h-0.45117z"/>
  <path id="path4232" style="fill-opacity:.11765" d="m61.071 50.029c-1.4608 0-2.6094 0.20317-3.4473 0.61133-0.8378 0.38668-1.4727 0.9786-1.9023 1.7734-0.40816 0.77336-0.66602 1.7404-0.77344 2.9004-0.0859 1.16-0.1289 2.5021-0.1289 4.0273 0 0.73039-0.0645 1.375-0.19336 1.9336-0.10741 0.53706-0.28909 1.0196-0.54688 1.4492-0.25779 0.42964-0.6016 0.81644-1.0312 1.1602-0.40817 0.32223-0.9024 0.63479-1.4824 0.93555v0.41796c0.79485 0.40817 1.4063 0.82817 1.8359 1.2578 0.45113 0.42964 0.78518 0.95514 1 1.5781 0.21478 0.60151 0.34372 1.3321 0.38672 2.1914 0.0429 0.85929 0.0644 1.9122 0.0644 3.1582 0 1.1386 0.10745 2.127 0.32226 2.9648 0.21483 0.83781 0.58013 1.5254 1.0957 2.0625 0.51557 0.53706 1.1915 0.93362 2.0293 1.1914 0.8593 0.25779 1.9337 0.38672 3.2227 0.38672 0.043-0.21482 0.0762-0.4297 0.0977-0.64453 0.0215-0.21482 0.0312-0.42971 0.0312-0.64453 0-0.2363-0.01-0.46096-0.0312-0.67578-0.0215-0.19334-0.0547-0.38674-0.0977-0.58008-0.81632 0-1.461-0.0977-1.9336-0.29102-0.47261-0.17186-0.83791-0.45121-1.0957-0.83789-0.2363-0.38668-0.39648-0.89068-0.48242-1.5137-0.0645-0.62299-0.0976-1.3751-0.0976-2.2559v-0.22656c0-1.1815-0.043-2.1798-0.12891-2.9961-0.0859-0.81632-0.23635-1.4922-0.45117-2.0293-0.21482-0.55854-0.50394-1.0098-0.86914-1.3535-0.34372-0.3652-0.77349-0.68753-1.2891-0.96679 0.51558-0.25779 0.94535-0.55863 1.2891-0.90235 0.3652-0.3652 0.65432-0.81646 0.86914-1.3535 0.21482-0.55854 0.36524-1.2462 0.45117-2.0625 0.0859-0.81633 0.12891-1.8146 0.12891-2.9961v-0.19336c0-0.90225 0.0332-1.6661 0.0976-2.2891 0.0859-0.62299 0.24612-1.127 0.48242-1.5137 0.2578-0.40817 0.6231-0.69924 1.0957-0.8711 0.47261-0.17186 1.1173-0.25781 1.9336-0.25781 0.043-0.19334 0.0762-0.38674 0.0977-0.58008 0.0215-0.21482 0.0312-0.43948 0.0312-0.67578s-0.01-0.45119-0.0312-0.64453c-0.0215-0.21483-0.0547-0.42971-0.0977-0.64453h-0.45117zm10.623 0c-0.043 0.21482-0.0762 0.4297-0.0977 0.64453-0.0215 0.19334-0.0312 0.40823-0.0312 0.64453s0.01 0.46096 0.0312 0.67578c0.0215 0.19334 0.0547 0.38674 0.0977 0.58008 0.79484 0 1.4278 0.086 1.9004 0.25781 0.49409 0.17186 0.85939 0.46293 1.0957 0.8711 0.25777 0.38668 0.41991 0.89068 0.48437 1.5137 0.0859 0.62299 0.12891 1.3868 0.12891 2.2891v0.19336c0 1.1815 0.043 2.1798 0.12891 2.9961 0.0859 0.81632 0.23634 1.504 0.45117 2.0625 0.21481 0.53705 0.49417 0.98831 0.83789 1.3535 0.3652 0.34372 0.80474 0.64456 1.3203 0.90235-0.51557 0.27926-0.95511 0.60159-1.3203 0.96679-0.34372 0.34372-0.62308 0.79498-0.83789 1.3535-0.21483 0.53706-0.36525 1.213-0.45117 2.0293-0.0859 0.81633-0.12891 1.8146-0.12891 2.9961v0.22656c0 0.88077-0.043 1.6329-0.12891 2.2559-0.0644 0.62299-0.22658 1.127-0.48437 1.5137-0.23631 0.38668-0.60161 0.66603-1.0957 0.83789-0.47261 0.19334-1.1056 0.29102-1.9004 0.29102-0.043 0.19334-0.0762 0.38674-0.0977 0.58008-0.0215 0.21482-0.0312 0.43948-0.0312 0.67578 0 0.21482 0.01 0.42971 0.0312 0.64453 0.0215 0.21483 0.0547 0.42971 0.0977 0.64453 1.2889 0 2.3516-0.12893 3.1894-0.38672 0.85929-0.25778 1.5469-0.65434 2.0625-1.1914 0.51557-0.53706 0.88088-1.2247 1.0957-2.0625 0.21483-0.83781 0.32227-1.8263 0.32227-2.9648 0-1.246 0.0215-2.2989 0.0644-3.1582 0.043-0.85929 0.17189-1.5899 0.38672-2.1914 0.21482-0.62298 0.53715-1.1485 0.9668-1.5781 0.45112-0.42965 1.0743-0.84965 1.8691-1.2578v-0.41796c-0.58003-0.30076-1.084-0.61332-1.5137-0.93555-0.40817-0.34372-0.74222-0.73052-1-1.1602-0.25779-0.42964-0.45119-0.91216-0.58008-1.4492-0.10741-0.55854-0.16016-1.2032-0.16016-1.9336 0-1.5252-0.0547-2.8673-0.16211-4.0273-0.0859-1.16-0.34378-2.127-0.77344-2.9004-0.40815-0.79484-1.0313-1.3868-1.8691-1.7734-0.83781-0.40816-1.9865-0.61133-3.4473-0.61133h-0.45117z"/>
  <path id="path4228" style="fill-opacity:.23529" d="m61.071 49.629c-1.4608 0-2.6094 0.20317-3.4473 0.61133-0.8378 0.38668-1.4727 0.9786-1.9023 1.7734-0.40816 0.77336-0.66602 1.7404-0.77344 2.9004-0.0859 1.16-0.1289 2.5021-0.1289 4.0273 0 0.73039-0.0645 1.375-0.19336 1.9336-0.10741 0.53706-0.28909 1.0196-0.54688 1.4492-0.25779 0.42964-0.6016 0.81644-1.0312 1.1602-0.40817 0.32223-0.9024 0.63479-1.4824 0.93555v0.41796c0.79485 0.40817 1.4063 0.82817 1.8359 1.2578 0.45113 0.42964 0.78518 0.95514 1 1.5781 0.21478 0.60151 0.34372 1.3321 0.38672 2.1914 0.0429 0.85929 0.0644 1.9122 0.0644 3.1582 0 1.1386 0.10745 2.127 0.32226 2.9648 0.21483 0.83781 0.58013 1.5254 1.0957 2.0625 0.51557 0.53706 1.1915 0.93362 2.0293 1.1914 0.8593 0.25779 1.9337 0.38672 3.2227 0.38672 0.043-0.21482 0.0762-0.4297 0.0977-0.64453 0.0215-0.21482 0.0312-0.42971 0.0312-0.64453 0-0.2363-0.01-0.46096-0.0312-0.67578-0.0215-0.19334-0.0547-0.38674-0.0977-0.58008-0.81632 0-1.461-0.0977-1.9336-0.29102-0.47261-0.17186-0.83791-0.45121-1.0957-0.83789-0.2363-0.38668-0.39648-0.89068-0.48242-1.5137-0.0645-0.62299-0.0976-1.3751-0.0976-2.2559v-0.22656c0-1.1815-0.043-2.1798-0.12891-2.9961-0.0859-0.81632-0.23635-1.4922-0.45117-2.0293-0.21482-0.55854-0.50394-1.0098-0.86914-1.3535-0.34372-0.3652-0.77349-0.68753-1.2891-0.96679 0.51558-0.25779 0.94535-0.55863 1.2891-0.90235 0.3652-0.3652 0.65432-0.81646 0.86914-1.3535 0.21482-0.55854 0.36524-1.2462 0.45117-2.0625 0.0859-0.81633 0.12891-1.8146 0.12891-2.9961v-0.19336c0-0.90225 0.0332-1.6661 0.0976-2.2891 0.0859-0.62299 0.24612-1.127 0.48242-1.5137 0.2578-0.40817 0.6231-0.69924 1.0957-0.8711 0.47261-0.17186 1.1173-0.25781 1.9336-0.25781 0.043-0.19334 0.0762-0.38674 0.0977-0.58008 0.0215-0.21482 0.0312-0.43948 0.0312-0.67578s-0.01-0.45119-0.0312-0.64453c-0.0215-0.21483-0.0547-0.42971-0.0977-0.64453h-0.45117zm10.623 0c-0.043 0.21482-0.0762 0.4297-0.0977 0.64453-0.0215 0.19334-0.0312 0.40823-0.0312 0.64453s0.01 0.46096 0.0312 0.67578c0.0215 0.19334 0.0547 0.38674 0.0977 0.58008 0.79484 0 1.4278 0.086 1.9004 0.25781 0.49409 0.17186 0.85939 0.46293 1.0957 0.8711 0.25777 0.38668 0.41991 0.89068 0.48437 1.5137 0.0859 0.62299 0.12891 1.3868 0.12891 2.2891v0.19336c0 1.1815 0.043 2.1798 0.12891 2.9961 0.0859 0.81632 0.23634 1.504 0.45117 2.0625 0.21481 0.53705 0.49417 0.98831 0.83789 1.3535 0.3652 0.34372 0.80474 0.64456 1.3203 0.90235-0.51557 0.27926-0.95511 0.60159-1.3203 0.96679-0.34372 0.34372-0.62308 0.79498-0.83789 1.3535-0.21483 0.53706-0.36525 1.213-0.45117 2.0293-0.0859 0.81633-0.12891 1.8146-0.12891 2.9961v0.22656c0 0.88077-0.043 1.6329-0.12891 2.2559-0.0644 0.62299-0.22658 1.127-0.48437 1.5137-0.23631 0.38668-0.60161 0.66603-1.0957 0.83789-0.47261 0.19334-1.1056 0.29102-1.9004 0.29102-0.043 0.19334-0.0762 0.38674-0.0977 0.58008-0.0215 0.21482-0.0312 0.43948-0.0312 0.67578 0 0.21482 0.01 0.42971 0.0312 0.64453 0.0215 0.21483 0.0547 0.42971 0.0977 0.64453 1.2889 0 2.3516-0.12893 3.1894-0.38672 0.85929-0.25778 1.5469-0.65434 2.0625-1.1914 0.51557-0.53706 0.88088-1.2247 1.0957-2.0625 0.21483-0.83781 0.32227-1.8263 0.32227-2.9648 0-1.246 0.0215-2.2989 0.0644-3.1582 0.043-0.85929 0.17189-1.5899 0.38672-2.1914 0.21482-0.62298 0.53715-1.1485 0.9668-1.5781 0.45112-0.42965 1.0743-0.84965 1.8691-1.2578v-0.41796c-0.58003-0.30076-1.084-0.61332-1.5137-0.93555-0.40817-0.34372-0.74222-0.73052-1-1.1602-0.25779-0.42964-0.45119-0.91216-0.58008-1.4492-0.10741-0.55854-0.16016-1.2032-0.16016-1.9336 0-1.5252-0.0547-2.8673-0.16211-4.0273-0.0859-1.16-0.34378-2.127-0.77344-2.9004-0.40815-0.79484-1.0313-1.3868-1.8691-1.7734-0.83781-0.40816-1.9865-0.61133-3.4473-0.61133h-0.45117z"/>
  <path id="path4207" style="fill:url(#linearGradient11343)" d="m61.071 49.229c-1.4608 0-2.6095 0.20317-3.4473 0.61133-0.83781 0.38669-1.4727 0.9786-1.9023 1.7734-0.40816 0.77337-0.66602 1.7404-0.77344 2.9004-0.08593 1.16-0.12891 2.5021-0.12891 4.0273 0 0.73039-0.06447 1.3751-0.19336 1.9336-0.10741 0.53706-0.28909 1.0196-0.54688 1.4492-0.25779 0.42964-0.6016 0.81644-1.0312 1.1602-0.40817 0.32223-0.9024 0.63479-1.4824 0.93555v0.41797c0.79485 0.40817 1.4063 0.82817 1.8359 1.2578 0.45113 0.42964 0.78518 0.95514 1 1.5781 0.21479 0.60151 0.34372 1.3321 0.38672 2.1914 0.04293 0.85929 0.06445 1.9122 0.06445 3.1582 0 1.1386 0.10745 2.127 0.32227 2.9648 0.21483 0.83781 0.58013 1.5254 1.0957 2.0625 0.51557 0.53706 1.1915 0.93362 2.0293 1.1914 0.8593 0.25779 1.9337 0.38672 3.2227 0.38672 0.043-0.21482 0.07619-0.4297 0.09766-0.64453 0.02147-0.21482 0.03125-0.4297 0.03125-0.64453 0-0.2363-0.0098-0.46096-0.03125-0.67578-0.02153-0.19334-0.05472-0.38674-0.09766-0.58008-0.81633 0-1.461-0.09768-1.9336-0.29102-0.47261-0.17186-0.83791-0.45121-1.0957-0.83789-0.2363-0.38668-0.39649-0.89068-0.48242-1.5137-0.06447-0.62299-0.09766-1.3751-0.09766-2.2559v-0.22656c0-1.1815-0.04298-2.1798-0.12891-2.9961-0.08593-0.81633-0.23634-1.4922-0.45117-2.0293-0.21482-0.55853-0.50394-1.0098-0.86914-1.3535-0.34372-0.3652-0.77349-0.68753-1.2891-0.9668 0.51557-0.25779 0.94534-0.55862 1.2891-0.90234 0.3652-0.3652 0.65432-0.81646 0.86914-1.3535 0.21483-0.55854 0.36524-1.2462 0.45117-2.0625 0.08593-0.81633 0.12891-1.8146 0.12891-2.9961v-0.19336c0-0.90225 0.03319-1.6661 0.09766-2.2891 0.08593-0.62299 0.24612-1.127 0.48242-1.5137 0.25779-0.40817 0.6231-0.69924 1.0957-0.87109 0.47261-0.17186 1.1173-0.25781 1.9336-0.25781 0.043-0.19334 0.07619-0.38674 0.09766-0.58008 0.02147-0.21483 0.03125-0.43948 0.03125-0.67578 0-0.23631-0.0098-0.45119-0.03125-0.64453-0.02154-0.21483-0.05473-0.42971-0.09766-0.64453h-0.45117zm10.623 0c-0.043 0.21482-0.07619 0.4297-0.09766 0.64453-0.02146 0.19334-0.03125 0.40822-0.03125 0.64453 0 0.2363 0.0098 0.46096 0.03125 0.67578 0.02147 0.19334 0.05466 0.38674 0.09766 0.58008 0.79485 0 1.4278 0.08595 1.9004 0.25781 0.49409 0.17185 0.8594 0.46293 1.0957 0.87109 0.25777 0.38668 0.41991 0.89068 0.48438 1.5137 0.08593 0.62299 0.12891 1.3868 0.12891 2.2891v0.19336c0 1.1815 0.04297 2.1798 0.12891 2.9961 0.08592 0.81633 0.23634 1.504 0.45117 2.0625 0.21481 0.53705 0.49417 0.98832 0.83789 1.3535 0.3652 0.34372 0.80474 0.64456 1.3203 0.90234-0.51557 0.27927-0.95511 0.6016-1.3203 0.9668-0.34372 0.34372-0.62308 0.79498-0.83789 1.3535-0.21483 0.53706-0.36524 1.213-0.45117 2.0293-0.08593 0.81633-0.12891 1.8146-0.12891 2.9961v0.22656c0 0.88077-0.04298 1.6329-0.12891 2.2559-0.06445 0.62299-0.22659 1.127-0.48438 1.5137-0.23631 0.38668-0.60161 0.66603-1.0957 0.83789-0.47261 0.19334-1.1055 0.29102-1.9004 0.29102-0.043 0.19334-0.07619 0.38674-0.09766 0.58008-0.02147 0.21483-0.03125 0.43948-0.03125 0.67578 0 0.21483 0.0098 0.42971 0.03125 0.64453 0.02147 0.21483 0.05466 0.42971 0.09766 0.64453 1.2889 0 2.3516-0.12893 3.1895-0.38672 0.85929-0.25779 1.5469-0.65435 2.0625-1.1914 0.51557-0.53705 0.88088-1.2247 1.0957-2.0625 0.21483-0.83781 0.32227-1.8263 0.32227-2.9648 0-1.246 0.02152-2.2989 0.06445-3.1582 0.04296-0.85929 0.17189-1.5899 0.38672-2.1914 0.21482-0.62299 0.53715-1.1485 0.9668-1.5781 0.45113-0.42965 1.0743-0.84965 1.8691-1.2578v-0.41797c-0.58003-0.30075-1.084-0.61331-1.5137-0.93555-0.40817-0.34372-0.74221-0.73052-1-1.1602-0.25779-0.42965-0.45118-0.91216-0.58008-1.4492-0.10741-0.55854-0.16016-1.2032-0.16016-1.9336 0-1.5252-0.0547-2.8673-0.16211-4.0273-0.08593-1.16-0.34378-2.127-0.77344-2.9004-0.40815-0.79484-1.0313-1.3868-1.8691-1.7734-0.83781-0.40816-1.9865-0.61133-3.4473-0.61133h-0.45117z"/>
  <path id="path4236" style="fill:#feac1a;fill-opacity:.31373" d="m61.632 50.128c-0.0049 0.08758-0.0033 0.1812-0.01172 0.26562-0.0215 0.19334-0.05466 0.38674-0.09766 0.58008-0.81632 0-1.461 0.08595-1.9336 0.25781-0.47261 0.17186-0.8379 0.46292-1.0957 0.87109-0.2363 0.38668-0.39652 0.89068-0.48242 1.5137-0.0644 0.62299-0.09766 1.3868-0.09766 2.2891v0.19336c0 1.1815-0.04301 2.1798-0.12891 2.9961-0.08593 0.81632-0.23635 1.504-0.45117 2.0625-0.21482 0.53705-0.50394 0.98832-0.86914 1.3535-0.34372 0.34372-0.77348 0.64455-1.2891 0.90234 0.23702 0.12838 0.45162 0.2675 0.65234 0.41406 0.23567-0.16053 0.45116-0.33007 0.63672-0.51562 0.3652-0.3652 0.65432-0.81646 0.86914-1.3535 0.21483-0.55854 0.36524-1.2462 0.45117-2.0625 0.08593-0.81633 0.12891-1.8146 0.12891-2.9961v-0.19336c0-0.90225 0.03319-1.6661 0.09766-2.2891 0.08593-0.62299 0.24612-1.127 0.48242-1.5137 0.25779-0.40817 0.6231-0.69924 1.0957-0.87109 0.47261-0.17186 1.1173-0.25781 1.9336-0.25781 0.043-0.19334 0.07619-0.38674 0.09766-0.58008 0.02147-0.21483 0.03125-0.43948 0.03125-0.67578 0-0.14323-0.01192-0.26316-0.01953-0.39062zm9.9531 0c-0.0076 0.12746-0.01953 0.2474-0.01953 0.39062 0 0.2363 0.0098 0.46096 0.03125 0.67578 0.02147 0.19334 0.05466 0.38674 0.09766 0.58008 0.79485 0 1.4278 0.08595 1.9004 0.25781 0.49409 0.17185 0.8594 0.46293 1.0957 0.87109 0.25777 0.38668 0.41991 0.89068 0.48438 1.5137 0.08593 0.62299 0.12891 1.3868 0.12891 2.2891v0.19336c0 1.1815 0.04297 2.1798 0.12891 2.9961 0.08592 0.81633 0.23634 1.504 0.45117 2.0625 0.21481 0.53705 0.49417 0.98832 0.83789 1.3535 0.1974 0.18579 0.421 0.35492 0.66211 0.51562 0.2048-0.14633 0.42153-0.28587 0.6582-0.41406-0.51557-0.25779-0.95511-0.55862-1.3203-0.90234-0.34372-0.3652-0.62308-0.81647-0.83789-1.3535-0.21483-0.55854-0.36527-1.2462-0.45117-2.0625-0.08591-0.81633-0.12891-1.8146-0.12891-2.9961v-0.19336c0-0.90225-0.04301-1.6661-0.12891-2.2891-0.06446-0.62299-0.2266-1.127-0.48438-1.5137-0.23631-0.40817-0.60161-0.69923-1.0957-0.87109-0.47261-0.17181-1.1056-0.25781-1.9004-0.25781-0.043-0.19334-0.07616-0.38674-0.09766-0.58008-0.0083-0.08443-0.0068-0.17805-0.01172-0.26562zm-19.689 13.705c-0.11164 0.06259-0.21124 0.12588-0.33008 0.1875v0.41797c0.79485 0.40817 1.4063 0.82817 1.8359 1.2578 0.45113 0.42964 0.78518 0.95514 1 1.5781 0.21479 0.60151 0.34372 1.3321 0.38672 2.1914 0.04293 0.85929 0.06445 1.9122 0.06445 3.1582 0 1.1386 0.10745 2.127 0.32227 2.9648 0.21483 0.83781 0.58013 1.5254 1.0957 2.0625 0.51557 0.53706 1.1915 0.93362 2.0293 1.1914 0.8593 0.25779 1.9337 0.38672 3.2227 0.38672 0.043-0.21482 0.07619-0.4297 0.09766-0.64453 0.02147-0.21482 0.03125-0.4297 0.03125-0.64453 0-0.14343-0.0119-0.2749-0.01953-0.41016-0.0049 0.08463-0.0033 0.16929-0.01172 0.25391-0.0215 0.21482-0.05466 0.42971-0.09766 0.64453-1.2889 0-2.3634-0.12893-3.2227-0.38672-0.8378-0.25778-1.5137-0.65435-2.0293-1.1914-0.51558-0.53706-0.88087-1.2247-1.0957-2.0625-0.21481-0.83781-0.32227-1.8263-0.32227-2.9648 0-1.246-0.02155-2.2989-0.06445-3.1582-0.043-0.8593-0.17194-1.5899-0.38672-2.1914-0.21482-0.62299-0.54887-1.1485-1-1.5781-0.36233-0.36234-0.88398-0.7152-1.5059-1.0625zm29.422 0c-0.62464 0.34718-1.1548 0.70029-1.5352 1.0625-0.42965 0.42964-0.75198 0.95514-0.9668 1.5781-0.21483 0.60151-0.34372 1.3321-0.38672 2.1914-0.0429 0.85928-0.06445 1.9122-0.06445 3.1582 0 1.1386-0.10744 2.127-0.32227 2.9648-0.21482 0.83781-0.58013 1.5254-1.0957 2.0625-0.51557 0.53706-1.2032 0.93363-2.0625 1.1914-0.83781 0.25779-1.9005 0.38672-3.1895 0.38672-0.043-0.21482-0.07616-0.42971-0.09766-0.64453-0.0084-0.08462-0.0068-0.16928-0.01172-0.25391-0.0076 0.13525-0.01953 0.26673-0.01953 0.41016 0 0.21483 0.0098 0.42971 0.03125 0.64453 0.02147 0.21483 0.05466 0.42971 0.09766 0.64453 1.2889 0 2.3516-0.12893 3.1895-0.38672 0.85929-0.25779 1.5469-0.65435 2.0625-1.1914 0.51557-0.53705 0.88088-1.2247 1.0957-2.0625 0.21483-0.83781 0.32227-1.8263 0.32227-2.9648 0-1.246 0.02152-2.2989 0.06445-3.1582 0.04296-0.85929 0.17189-1.5899 0.38672-2.1914 0.21482-0.62299 0.53715-1.1485 0.9668-1.5781 0.45113-0.42965 1.0743-0.84965 1.8691-1.2578v-0.41797c-0.11903-0.06172-0.22134-0.1248-0.33398-0.1875z"/>
  <path id="path4241" style="fill:#fff;fill-opacity:.23529" d="m61.071 49.229c-1.4608 0-2.6095 0.20317-3.4473 0.61133-0.83781 0.38669-1.4727 0.9786-1.9023 1.7734-0.40816 0.77337-0.66602 1.7404-0.77344 2.9004-0.08593 1.16-0.12891 2.5021-0.12891 4.0273 0 0.73039-0.06447 1.3751-0.19336 1.9336-0.10741 0.53706-0.28909 1.0196-0.54688 1.4492-0.25779 0.42964-0.6016 0.81644-1.0312 1.1602-0.40817 0.32223-0.9024 0.63479-1.4824 0.93555v0.40039c0.58002-0.30076 1.0743-0.61332 1.4824-0.93555 0.42965-0.34372 0.77346-0.73052 1.0312-1.1602 0.25779-0.42964 0.43946-0.91216 0.54688-1.4492 0.12886-0.55854 0.19336-1.2032 0.19336-1.9336 0-1.5252 0.04301-2.8673 0.12891-4.0273 0.10742-1.16 0.36528-2.127 0.77344-2.9004 0.42965-0.79484 1.0645-1.3868 1.9023-1.7734 0.83782-0.40816 1.9865-0.61133 3.4473-0.61133h0.45117c0.043 0.21482 0.07616 0.4297 0.09766 0.64453 0.01478 0.13475 0.01718 0.29358 0.02148 0.44922 0.0019-0.06962 0.0098-0.13336 0.0098-0.20508 0-0.2363-0.0098-0.45119-0.03125-0.64453-0.02157-0.21483-0.05476-0.42971-0.09769-0.64453h-0.45117zm10.623 0c-0.043 0.21482-0.07619 0.4297-0.09766 0.64453-0.02146 0.19334-0.03125 0.40823-0.03125 0.64453 0 0.07172 0.0079 0.13546 0.0098 0.20508 0.0042-0.15564 0.0065-0.31447 0.02148-0.44922 0.0215-0.21483 0.05466-0.42971 0.09766-0.64453h0.45117c1.4608 0 2.6095 0.20317 3.4473 0.61133 0.83781 0.38668 1.461 0.9786 1.8691 1.7734 0.42966 0.77336 0.68754 1.7404 0.77344 2.9004 0.10741 1.16 0.16211 2.5021 0.16211 4.0273 0 0.73039 0.05275 1.3751 0.16016 1.9336 0.12889 0.53706 0.32229 1.0196 0.58008 1.4492 0.25778 0.42964 0.59183 0.81644 1 1.1602 0.42964 0.32223 0.93364 0.63479 1.5137 0.93555v-0.40039c-0.58003-0.30075-1.084-0.61331-1.5137-0.93555-0.40817-0.34372-0.74221-0.73052-1-1.1602-0.25779-0.42965-0.45119-0.91216-0.58008-1.4492-0.10741-0.55854-0.16016-1.2032-0.16016-1.9336 0-1.5252-0.0547-2.8673-0.16211-4.0273-0.08593-1.16-0.34378-2.127-0.77344-2.9004-0.40819-0.79484-1.0314-1.3868-1.8692-1.7734-0.83781-0.40816-1.9865-0.61133-3.4473-0.61133h-0.45117zm-16.193 15.192c-0.10954 0.06387-0.20755 0.13405-0.32617 0.19336 0.51558 0.27926 0.94534 0.6016 1.2891 0.9668 0.3652 0.34372 0.65432 0.79498 0.86914 1.3535 0.21482 0.53706 0.36527 1.213 0.45117 2.0293 0.08591 0.81633 0.12891 1.8146 0.12891 2.9961v0.22656c0 0.88077 0.03316 1.6329 0.09766 2.2559 0.08594 0.62299 0.24612 1.127 0.48242 1.5137 0.2578 0.38668 0.62309 0.66603 1.0957 0.83789 0.47261 0.19332 1.1173 0.29102 1.9336 0.29102 0.043 0.19334 0.07616 0.38674 0.09766 0.58008 0.01477 0.14962 0.01718 0.31092 0.02148 0.4707 0.0019-0.06511 0.0098-0.13021 0.0098-0.19531 0-0.2363-0.0098-0.46096-0.03125-0.67578-0.02153-0.19334-0.05472-0.38674-0.09766-0.58008-0.81633 0-1.461-0.09768-1.9336-0.29102-0.47261-0.17186-0.83791-0.45121-1.0957-0.83789-0.2363-0.38668-0.39649-0.89068-0.48242-1.5137-0.06447-0.62299-0.09766-1.3751-0.09766-2.2559v-0.22656c0-1.1815-0.04298-2.1798-0.12891-2.9961-0.08593-0.81633-0.23634-1.4922-0.45117-2.0293-0.21482-0.55853-0.50394-1.0098-0.86914-1.3535-0.26471-0.28126-0.59622-0.52945-0.96289-0.75977zm22.211 0c-0.37012 0.23028-0.70904 0.47857-0.99023 0.75977-0.34372 0.34372-0.62308 0.79498-0.83789 1.3535-0.21483 0.53706-0.36524 1.213-0.45117 2.0293-0.08593 0.81633-0.12891 1.8146-0.12891 2.9961v0.22656c0 0.88077-0.04298 1.6329-0.12891 2.2559-0.06445 0.62299-0.22659 1.127-0.48438 1.5137-0.23631 0.38668-0.60161 0.66603-1.0957 0.83789-0.47261 0.19334-1.1055 0.29102-1.9004 0.29102-0.043 0.19334-0.07619 0.38674-0.09766 0.58008-0.02146 0.21483-0.03125 0.43948-0.03125 0.67578 0 0.0651 0.0079 0.1302 0.0098 0.19531 0.0042-0.15978 0.0065-0.32108 0.02148-0.4707 0.0215-0.19334 0.05466-0.38674 0.09766-0.58008 0.79484 0 1.4278-0.09768 1.9004-0.29102 0.49409-0.17186 0.85939-0.45121 1.0957-0.83789 0.25779-0.38668 0.41998-0.89068 0.48438-1.5137 0.08591-0.62299 0.12891-1.3751 0.12891-2.2559v-0.22656c0-1.1815 0.04301-2.1798 0.12891-2.9961 0.08592-0.81632 0.23634-1.4922 0.45117-2.0293 0.21481-0.55854 0.49417-1.0098 0.83789-1.3535 0.3652-0.3652 0.80474-0.68754 1.3203-0.9668-0.1187-0.05935-0.21941-0.12944-0.33008-0.19336z"/>
 </g>
 <g id="g17906" transform="matrix(2.3438 0 0 2.2539 6.9357 -22.18)"></g>
</svg>
