<?xml version="1.0" encoding="UTF-8" standalone="no"?>
<!-- Created with Inkscape (http://www.inkscape.org/) -->
<svg id="svg3449" xmlns:rdf="http://www.w3.org/1999/02/22-rdf-syntax-ns#" xmlns="http://www.w3.org/2000/svg" height="128" width="128" version="1.0" xmlns:cc="http://creativecommons.org/ns#" xmlns:xlink="http://www.w3.org/1999/xlink" xmlns:dc="http://purl.org/dc/elements/1.1/">
 <metadata id="metadata56">
  <rdf:RDF>
   <cc:Work rdf:about="">
    <dc:format>image/svg+xml</dc:format>
    <dc:type rdf:resource="http://purl.org/dc/dcmitype/StillImage"/>
    <dc:title/>
   </cc:Work>
  </rdf:RDF>
 </metadata>
 <defs id="defs3451">
  <linearGradient id="linearGradient3514" y2="-9.1034" gradientUnits="userSpaceOnUse" x2="66.492" gradientTransform="matrix(.96826 0 0 .97948 2.179 .16587)" y1="-42.638" x1="67.952">
   <stop id="stop4620" style="stop-color:#37414b" offset="0"/>
   <stop id="stop4622" style="stop-color:#37414b;stop-opacity:0" offset="1"/>
  </linearGradient>
  <linearGradient id="linearGradient3516" y2="-11.847" gradientUnits="userSpaceOnUse" x2="58.98" gradientTransform="matrix(.96826 0 0 .97948 2.179 .16587)" y1="-118.55" x1="57.173">
   <stop id="stop4596" offset="0"/>
   <stop id="stop4598" style="stop-opacity:0" offset="1"/>
  </linearGradient>
  <linearGradient id="linearGradient3519" y2="50.369" gradientUnits="userSpaceOnUse" x2="76.558" gradientTransform="matrix(.96826 0 0 .97948 3.2423 -129.19)" y1="13.164" x1="76.558">
   <stop id="stop3392" style="stop-color:#425e7b" offset="0"/>
   <stop id="stop3394" style="stop-color:#7a91a7" offset="1"/>
  </linearGradient>
  <linearGradient id="linearGradient3521" y2="-8.7399" gradientUnits="userSpaceOnUse" x2="60.217" gradientTransform="matrix(.96826 0 0 .97948 2.179 .16587)" y1="-123.72" x1="60.395">
   <stop id="stop3392-4-8" style="stop-color:#425e7b" offset="0"/>
   <stop id="stop3394-8-0" style="stop-color:#7a91a7" offset="1"/>
  </linearGradient>
  <radialGradient id="radialGradient3349" gradientUnits="userSpaceOnUse" cy="45.647" cx="42.148" gradientTransform="matrix(.94690 0 0 1.139 3.5954 -29.89)" r="58.984">
   <stop id="stop10978" style="stop-color:#60aefa" offset="0"/>
   <stop id="stop10980" style="stop-color:#0155b6" offset="1"/>
  </radialGradient>
  <linearGradient id="linearGradient10974" y2="1013.4" gradientUnits="userSpaceOnUse" x2="24.899" gradientTransform="matrix(2.6667 0 0 2.6667 -143.88 -2678.3)" y1="1043.4" x1="24.899">
   <stop id="stop4222" style="stop-color:#b9d9ff" offset="0"/>
   <stop id="stop4224" style="stop-color:#f6fbfe" offset="1"/>
  </linearGradient>
 </defs>
 <rect id="rect892" style="stroke:url(#linearGradient3521);stroke-width:.97385;fill:url(#linearGradient3519)" transform="scale(1,-1)" ry="29.296" height="115.54" width="114.22" y="-122.25" x="7.0394"/>
 <rect id="rect892-2" style="stroke:url(#linearGradient3516);stroke-width:.97385;fill:url(#linearGradient3514)" transform="scale(1,-1)" ry="28.993" height="114.35" width="114.22" y="-121.46" x="7.0599"/>
 <path id="rect895" style="fill:url(#radialGradient3349)" d="m33.051 7.2596c-7.969-2.4493-27.013 15.174-25.653 23.038-0.050142 0.97378-0.088772 1.9648-0.088772 2.9572v52.419c0 20.876 10.712 33.859 22.318 33.859h67.038c12.638 0 24.318-11.245 24.318-25.859v-64.017c0.7-10.928-21.283-24.659-25.926-22.618-47.846 0.8653-18.017 0.2236-62.003 0.2236z"/>
 <rect id="rect892-2-7-8" style="opacity:.15891;stroke:#000;stroke-width:4.8445;fill:none" transform="scale(1,-1)" ry="28.993" height="114.35" width="114.22" y="-121.16" x="6.8687"/>
 <rect id="rect892-2-7-1" style="opacity:.15891;stroke:#000;stroke-width:7.7512;fill:none" transform="scale(1,-1)" ry="28.993" height="114.35" width="114.22" y="-121.16" x="6.8687"/>
 <rect id="rect892-2-7-2-9" ry="28.067" style="stroke:#000;stroke-width:1.0489;fill:none" transform="scale(1,-1)" height="112.71" width="114.14" y="-120.31" x="7.0649"/>
 <path id="path1187" style="fill:#fff;fill-opacity:.057143" d="m33.017 7.2319c-23.707 0-26.027 0.6738-25.93 26.295-0.04334 0.71563-0.07674 1.4439-0.07674 2.1732v32.76c18.67-38.321 38.34-51.497 90.374-61.179-0.225-0.026-0.46-0.0303-0.691-0.0303-41.576 0.3874-25.652-0.0188-63.676-0.0188z"/>
 <g id="g10966" transform="translate(144.04 -2.4171)">
  <path id="path4232" style="fill-opacity:.058824" d="m-79.929 27.2c-22.091 0-39.952 17.861-39.952 39.952s17.861 40.048 39.952 40.048c7.6663 0 14.896-2.2013 20.982-5.9403l5.8443 5.9403h0.09579l11.784-1.3413 1.3413-11.88-5.8443-5.8443c3.744-6.0859 5.8443-13.313 5.8443-20.982-0.000387-22.118-17.957-39.952-40.048-39.952zm0 13.988c6.5144 0 12.494 2.4573 17.054 6.4189l-14.755 12.743c-0.70585-0.22933-1.5165-0.38347-2.2994-0.38347-3.9863 0-7.1856 3.1992-7.1856 7.1856 0 3.9861 3.1993 7.1859 7.1856 7.1859 3.9864 0 7.2814-3.1997 7.2814-7.1859 0-0.3384-0.0508-0.63253-0.09581-0.95813l14.85-12.838c2.5143 3.9968 4.024 8.7256 4.024 13.797 0 14.339-11.721 25.964-26.06 25.964s-25.964-11.625-25.964-25.964c0.00001-14.339 11.625-25.964 25.964-25.964zm22.994 1.3413 4.982 5.7485-5.8443 4.9821c-1.3639-2.1643-3.0607-4.0757-4.982-5.7485l5.8443-4.9821zm-22.994 21.653c1.6374 0 2.9701 1.3325 2.9701 2.9701 0 1.6373-1.3327 2.9701-2.9701 2.9701s-2.8743-1.3328-2.8743-2.9701c0.000003-1.6376 1.2369-2.9701 2.8743-2.9701z"/>
  <path id="path4230" d="m-79.929 26.133c-22.091 0-39.952 17.861-39.952 39.952s17.861 40.048 39.952 40.048c7.6663 0 14.896-2.2013 20.982-5.9403l5.8443 5.9403h0.09579l11.784-1.3413 1.3413-11.88-5.8443-5.8443c3.744-6.0859 5.8443-13.313 5.8443-20.982-0.000387-22.118-17.957-39.952-40.048-39.952zm0 13.988c6.5144 0 12.494 2.4573 17.054 6.4189l-14.755 12.743c-0.70585-0.22933-1.5165-0.38347-2.2994-0.38347-3.9863 0-7.1856 3.1992-7.1856 7.1856 0 3.9861 3.1993 7.1859 7.1856 7.1859 3.9864 0 7.2814-3.1997 7.2814-7.1859 0-0.3384-0.0508-0.63253-0.09581-0.95813l14.851-12.838c2.5143 3.9968 4.024 8.7256 4.024 13.797 0 14.339-11.721 25.964-26.06 25.964s-25.964-11.625-25.964-25.964c0.00001-14.339 11.625-25.964 25.964-25.964zm22.994 1.3413 4.982 5.7485-5.8443 4.9821c-1.3639-2.1643-3.0607-4.0757-4.982-5.7485l5.8443-4.9821zm-22.994 21.653c1.6374 0 2.9701 1.3325 2.9701 2.9701 0 1.6373-1.3327 2.9701-2.9701 2.9701s-2.8743-1.3328-2.8743-2.9701c0.000003-1.6376 1.2369-2.9701 2.8743-2.9701z" style="fill-opacity:.11765"/>
  <path id="path4226" style="fill-opacity:.23529" d="m-79.929 25.067c-22.091 0-39.952 17.861-39.952 39.952s17.861 40.048 39.952 40.048c7.6663 0 14.896-2.2013 20.982-5.9403l5.8443 5.9403h0.09579l11.784-1.3413 1.3413-11.88-5.8443-5.8443c3.744-6.0859 5.8443-13.313 5.8443-20.982-0.000387-22.118-17.957-39.952-40.048-39.952zm0 13.988c6.5144 0 12.494 2.4573 17.054 6.4189l-14.755 12.743c-0.70585-0.22933-1.5165-0.38347-2.2994-0.38347-3.9863 0-7.1856 3.1992-7.1856 7.1856 0 3.9861 3.1993 7.1859 7.1856 7.1859 3.9864 0 7.2814-3.1997 7.2814-7.1859 0-0.3384-0.0508-0.63253-0.09581-0.95813l14.85-12.838c2.5143 3.9968 4.024 8.7256 4.024 13.797 0 14.339-11.721 25.964-26.06 25.964s-25.964-11.625-25.964-25.964c0.00001-14.339 11.625-25.964 25.964-25.964zm22.994 1.3413 4.982 5.7485-5.8443 4.9821c-1.3639-2.1643-3.0607-4.0757-4.982-5.7485l5.8443-4.9821zm-22.994 21.653c1.6374 0 2.9701 1.3325 2.9701 2.9701 0 1.6373-1.3327 2.9701-2.9701 2.9701s-2.8743-1.3328-2.8743-2.9701c0.000003-1.6376 1.2369-2.9701 2.8743-2.9701z"/>
  <path id="path917" d="m-79.929 24c-22.091 0-39.952 17.861-39.952 39.952s17.861 40.048 39.952 40.048c7.6663 0 14.896-2.2013 20.982-5.9403l5.8443 5.9403h0.09579l11.784-1.3413 1.3413-11.88-5.8443-5.8443c3.744-6.0859 5.8443-13.313 5.8443-20.982 0.001-22.119-17.956-39.953-40.047-39.953zm0 13.988c6.5144 0 12.494 2.4573 17.054 6.4189l-14.755 12.743c-0.70585-0.22933-1.5165-0.38347-2.2994-0.38347-3.9863 0-7.1856 3.1992-7.1856 7.1856 0 3.9861 3.1993 7.1859 7.1856 7.1859 3.9864 0 7.2814-3.1997 7.2814-7.1859 0-0.3384-0.0508-0.63253-0.09581-0.95813l14.85-12.838c2.5143 3.9968 4.024 8.7256 4.024 13.797 0 14.339-11.721 25.964-26.06 25.964s-25.964-11.625-25.964-25.964c0.00001-14.339 11.625-25.964 25.964-25.964zm22.994 1.3413 4.982 5.7485-5.8443 4.9821c-1.3639-2.1643-3.0607-4.0757-4.982-5.7485l5.8443-4.9821zm-22.994 21.653c1.6374 0 2.9701 1.3325 2.9701 2.9701 0 1.6373-1.3327 2.9701-2.9701 2.9701s-2.8743-1.3328-2.8743-2.9701c0.000003-1.6376 1.2369-2.9701 2.8743-2.9701z" style="fill:url(#linearGradient10974)"/>
  <path id="path4234" style="fill:#0463c4;fill-opacity:.31373" d="m-79.928 35.854c-14.339 0-25.964 11.624-25.964 25.964 0 0.36023 0.0375 0.71105 0.0521 1.0677 0.56393-13.841 11.932-24.896 25.911-24.896 5.9249 0 11.391 2.0474 15.766 5.3958l1.2865-1.1094c-4.56-3.9616-10.538-6.4219-17.052-6.4219zm22.995 1.3438-5.8437 4.9792c0.41173 0.35848 0.80787 0.73405 1.1979 1.1146l4.6458-3.9635 3.9167 4.5208 1.0625-0.90625-4.9792-5.7448zm-1.7812 11.531-14.031 12.13c0.04501 0.3256 0.09896 0.61993 0.09896 0.95833 0 3.9861-3.2949 7.1875-7.2812 7.1875-3.6201 0-6.5628-2.6496-7.0781-6.1198-0.05213 0.35105-0.10939 0.7015-0.10939 1.0677 0 3.9861 3.2012 7.1823 7.1875 7.1823 3.9864 0 7.2812-3.1962 7.2812-7.1823 0-0.3384-0.05395-0.63273-0.09896-0.95833l14.854-12.839c2.3051 3.6642 3.7468 7.9474 3.974 12.542 0.0099-0.2946 0.04688-0.5832 0.04688-0.88021 0-4.4828-1.2289-8.665-3.2396-12.344l-0.6875 0.58854c-0.28822-0.45736-0.59973-0.89842-0.91667-1.3333zm-21.214 10.12c-1.6374 0-2.875 1.3312-2.875 2.9688 0 0.37806 0.08152 0.73478 0.20312 1.0677 0.40501-1.109 1.4126-1.901 2.6719-1.901 1.2592 0 2.3188 0.79216 2.75 1.901 0.12949-0.33299 0.21875-0.68956 0.21875-1.0677 0-1.6376-1.3314-2.9688-2.9687-2.9688zm-39.901 4.0365c-0.009 0.35822-0.0521 0.70718-0.0521 1.0677 0 22.091 17.862 40.047 39.953 40.047 7.6663 0 14.893-2.2038 20.979-5.9427l5.8437 5.9427h0.09896l11.781-1.3438 1.3437-11.88-0.21875-0.21875-1.125 9.9687-11.781 1.3385h-0.09896l-5.8437-5.9375c-6.0863 3.7389-13.313 5.9375-20.979 5.9375-21.731 0-39.332-17.385-39.901-38.979zm79.906 0.20312c-0.21944 7.1942-2.2664 13.966-5.8021 19.714l0.77083 0.77084c3.2476-5.7936 5.0729-12.508 5.0729-19.62-0.000006-0.29191-0.03544-0.57419-0.04168-0.86458z"/>
  <path id="path4239" style="fill:#fff;fill-opacity:.23529" d="m-79.928 24c-22.091 0-39.953 17.862-39.953 39.953 0 0.17939 0.0237 0.35242 0.026 0.53125 0.28923-21.841 18.017-39.417 39.927-39.417 21.945 0 39.791 17.605 40.026 39.521 0.0032-0.21272 0.02083-0.422 0.02083-0.63542 0-22.118-17.956-39.953-40.047-39.953zm17.75 20.87-0.59896 0.51042c1.7208 1.4982 3.2433 3.1973 4.526 5.0885l0.35938-0.3125c0.14416 0.22915 0.24795 0.48485 0.38542 0.71875l5.5521-4.7292-0.53125-0.61458-5.3125 4.5312c-1.216-1.931-2.708-3.653-4.379-5.192zm-1.3437 0.09376-14.109 12.187c-0.70585-0.22933-1.514-0.38542-2.2969-0.38542-3.9863 0-7.1875 3.2011-7.1875 7.1875 0 0.18389 0.03869 0.35615 0.05208 0.53646 0.27418-3.7308 3.3312-6.6562 7.1354-6.6562 0.78288 0 1.591 0.15608 2.2969 0.38542l14.755-12.745c-0.20683-0.17968-0.43324-0.33701-0.64583-0.51042zm-9.1302 19.016-0.09376 0.08333c0.01973 0.14328 0.02453 0.28434 0.04168 0.42187 0.0128-0.16987 0.05144-0.33215 0.05208-0.50521zm18.76 0.41667c-0.24107 14.132-11.847 25.521-26.036 25.521-14.16 0-25.651-11.341-25.937-25.432-0.004 0.18011-0.0261 0.35546-0.0261 0.53646 0 14.339 11.624 25.964 25.964 25.964 14.339 0 26.057-11.625 26.057-25.964 0-0.21011-0.01573-0.4161-0.0208-0.625zm-28.812 0.09376c-0.03133 0.1784-0.09896 0.34325-0.09896 0.53125 0 1.6373 1.2376 2.9688 2.875 2.9688s2.9687-1.3314 2.9687-2.9688c0-0.18821-0.07573-0.35265-0.10939-0.53125-0.26112 1.3727-1.412 2.4323-2.8594 2.4323-1.4476 0-2.5325-1.0593-2.776-2.4323zm37.365 20.828c-0.13219 0.22504-0.24883 0.46026-0.38542 0.68229l5.7344 5.7344 0.10938-0.95835-5.4583-5.4583z"/>
 </g>
</svg>
