<?xml version="1.0" encoding="UTF-8" standalone="no"?>
<!-- Created with Inkscape (http://www.inkscape.org/) -->
<svg id="svg2" xmlns:rdf="http://www.w3.org/1999/02/22-rdf-syntax-ns#" xmlns="http://www.w3.org/2000/svg" height="48" width="48" version="1.1" xmlns:cc="http://creativecommons.org/ns#" xmlns:dc="http://purl.org/dc/elements/1.1/">
 <metadata id="metadata7">
  <rdf:RDF>
   <cc:Work rdf:about="">
    <dc:format>image/svg+xml</dc:format>
    <dc:type rdf:resource="http://purl.org/dc/dcmitype/StillImage"/>
    <dc:title/>
   </cc:Work>
  </rdf:RDF>
 </metadata>
 <g id="layer1" transform="translate(0 -1004.4)">
  <path id="rect3249" style="fill:#1a1a1a" d="m8 1022.9h4v11h-4z"/>
  <path id="rect3251" style="fill:#1a1a1a" d="m14 1020.9 10-8.5v32l-10-8.5z"/>
  <path id="path4098" style="fill:#1a1a1a" d="m28.438 17.346l-2.221 3.328c1.074 0.717 1.783 1.937 1.783 3.326s-0.709 2.609-1.783 3.326l2.221 3.328c2.147-1.434 3.562-3.878 3.562-6.654s-1.415-5.22-3.562-6.654z" transform="translate(0 1004.4)"/>
  <path id="path4089" style="fill:#1a1a1a" d="m32.873 10.689l-2.217 3.327c3.221 2.151 5.344 5.82 5.344 9.984s-2.123 7.833-5.344 9.984l2.217 3.327c4.295-2.87 7.127-7.758 7.127-13.311s-2.832-10.441-7.127-13.311z" transform="translate(0 1004.4)"/>
 </g>
</svg>
